<?xml version="1.0" encoding="UTF-8" standalone="no"?>
<!DOCTYPE svg PUBLIC "-//W3C//DTD SVG 1.1//EN"
 "http://www.w3.org/Graphics/SVG/1.1/DTD/svg11.dtd">
<!-- Generated by graphviz version 14.0.5 (20251129.0259)
 -->
<!-- Title: common/include/RType/ECS/Components/Ammo.hpp Pages: 1 -->
<!--zoomable 293 -->

<svg id="main" version="1.1" xmlns="http://www.w3.org/2000/svg" xmlns:xlink="http://www.w3.org/1999/xlink" xml:space="preserve" onload="init(evt)">

<style type="text/css"><![CDATA[
.node, .edge {opacity: 0.7;}
.node.selected, .edge.selected {opacity: 1;}
.edge:hover path { stroke: red; }
.edge:hover polygon { stroke: red; fill: red; }
]]></style>

<defs>
  <circle id="rim" cx="0" cy="0" r="7"/>
  <circle id="rim2" cx="0" cy="0" r="3.5"/>
  <g id="zoomPlus">
    <use xlink:href="#rim" fill="#404040"><set attributeName="fill" to="#808080" begin="zoomplus.mouseover" end="zoomplus.mouseout"/></use>
    <path d="M-4,0h8M0,-4v8" fill="none" stroke="white" stroke-width="1.5" pointer-events="none"/>
  </g>
  <g id="zoomMin">
    <use xlink:href="#rim" fill="#404040"><set attributeName="fill" to="#808080" begin="zoomminus.mouseover" end="zoomminus.mouseout"/></use>
    <path d="M-4,0h8" fill="none" stroke="white" stroke-width="1.5" pointer-events="none"/>
  </g>
  <g id="arrowUp" transform="translate(30 24)">
    <use xlink:href="#rim"/>
    <path pointer-events="none" fill="none" stroke="white" stroke-width="1.5" d="M0,-3.0v7 M-2.5,-0.5L0,-3.0L2.5,-0.5"/>
  </g>
  <g id="arrowRight" transform="rotate(90) translate(36 -43)">
    <use xlink:href="#rim"/>
    <path pointer-events="none" fill="none" stroke="white" stroke-width="1.5" d="M0,-3.0v7 M-2.5,-0.5L0,-3.0L2.5,-0.5"/>
  </g>
  <g id="arrowDown" transform="rotate(180) translate(-30 -48)">
    <use xlink:href="#rim"/>
    <path pointer-events="none" fill="none" stroke="white" stroke-width="1.5" d="M0,-3.0v7 M-2.5,-0.5L0,-3.0L2.5,-0.5"/>
  </g>
  <g id="arrowLeft" transform="rotate(270) translate(-36 17)">
    <use xlink:href="#rim"/>
    <path pointer-events="none" fill="none" stroke="white" stroke-width="1.5" d="M0,-3.0v7 M-2.5,-0.5L0,-3.0L2.5,-0.5"/>
  </g>
  <g id="resetDef">
    <use xlink:href="#rim2" fill="#404040"><set attributeName="fill" to="#808080" begin="reset.mouseover" end="reset.mouseout"/></use>
  </g>
</defs>
<script type="application/ecmascript">
var viewWidth = 817;
var viewHeight = 293;
var sectionId = 'dynsection-1';
</script>
<script type="application/ecmascript" xlink:href="svg.min.js"/>
<svg id="graph" class="graph">
<g id="viewport">
<title>common/include/RType/ECS/Components/Ammo.hpp</title>
<!-- Node1 -->
<g id="Node000001" class="node">
<title>Node1</title>
<g id="a_Node000001"><a xlink:title=" ">
<polygon fill="#999999" stroke="#666666" points="338.75,-285.25 190,-285.25 190,-254.75 338.75,-254.75 338.75,-285.25"/>
<text xml:space="preserve" text-anchor="start" x="198" y="-271.75" font-family="Helvetica,sans-Serif" font-size="10.00">common/include/RType</text>
<text xml:space="preserve" text-anchor="middle" x="264.38" y="-260.5" font-family="Helvetica,sans-Serif" font-size="10.00">/ECS/Components/Ammo.hpp</text>
</a>
</g>
</g>
<!-- Node2 -->
<g id="Node000002" class="node">
<title>Node2</title>
<g id="a_Node000002"><a xlink:href="client_2src_2Systems_2NetworkSyncSystem_8cpp.html" target="_top" xlink:title=" ">
<polygon fill="white" stroke="#666666" points="130.75,-218.75 0,-218.75 0,-188.25 130.75,-188.25 130.75,-218.75"/>
<text xml:space="preserve" text-anchor="start" x="8" y="-205.25" font-family="Helvetica,sans-Serif" font-size="10.00">client/src/Systems</text>
<text xml:space="preserve" text-anchor="middle" x="65.38" y="-194" font-family="Helvetica,sans-Serif" font-size="10.00">/NetworkSyncSystem.cpp</text>
</a>
</g>
</g>
<!-- Node1&#45;&gt;Node2 -->
<g id="edge1_Node000001_Node000002" class="edge">
<title>Node1&#45;&gt;Node2</title>
<g id="a_edge1_Node000001_Node000002"><a xlink:title=" ">
<path fill="none" stroke="#63b8ff" d="M208.61,-250.92C177.7,-240.91 139.76,-228.61 110.7,-219.19"/>
<polygon fill="#63b8ff" stroke="#63b8ff" points="207.19,-254.14 217.78,-253.9 209.35,-247.48 207.19,-254.14"/>
</a>
</g>
</g>
<!-- Node3 -->
<g id="Node000003" class="node">
<title>Node3</title>
<g id="a_Node000003"><a xlink:href="GameManager_8hpp.html" target="_top" xlink:title=" ">
<polygon fill="white" stroke="#666666" points="557.38,-85.75 451.38,-85.75 451.38,-55.25 557.38,-55.25 557.38,-85.75"/>
<text xml:space="preserve" text-anchor="start" x="459.38" y="-72.25" font-family="Helvetica,sans-Serif" font-size="10.00">server/include/Game</text>
<text xml:space="preserve" text-anchor="middle" x="504.38" y="-61" font-family="Helvetica,sans-Serif" font-size="10.00">/GameManager.hpp</text>
</a>
</g>
</g>
<!-- Node1&#45;&gt;Node3 -->
<g id="edge2_Node000001_Node000003" class="edge">
<title>Node1&#45;&gt;Node3</title>
<g id="a_edge2_Node000001_Node000003"><a xlink:title=" ">
<path fill="none" stroke="#63b8ff" d="M221.64,-248.4C210.4,-240.75 199.66,-230.91 193.38,-218.75 182.12,-197 198.85,-128.19 205.38,-121.75 239.26,-88.27 374.7,-77.01 451.15,-73.29"/>
<polygon fill="#63b8ff" stroke="#63b8ff" points="219.5,-251.19 229.84,-253.51 223.2,-245.25 219.5,-251.19"/>
</a>
</g>
</g>
<!-- Node6 -->
<g id="Node000006" class="node">
<title>Node6</title>
<g id="a_Node000006"><a xlink:href="CollisionSystem_8hpp.html" target="_top" xlink:title=" ">
<polygon fill="white" stroke="#666666" points="480.75,-218.75 362,-218.75 362,-188.25 480.75,-188.25 480.75,-218.75"/>
<text xml:space="preserve" text-anchor="start" x="370" y="-205.25" font-family="Helvetica,sans-Serif" font-size="10.00">server/include/Systems</text>
<text xml:space="preserve" text-anchor="middle" x="421.38" y="-194" font-family="Helvetica,sans-Serif" font-size="10.00">/CollisionSystem.hpp</text>
</a>
</g>
</g>
<!-- Node1&#45;&gt;Node6 -->
<g id="edge5_Node000001_Node000006" class="edge">
<title>Node1&#45;&gt;Node6</title>
<g id="a_edge5_Node000001_Node000006"><a xlink:title=" ">
<path fill="none" stroke="#63b8ff" d="M310.63,-250C334.58,-240.16 363.39,-228.32 385.62,-219.19"/>
<polygon fill="#63b8ff" stroke="#63b8ff" points="309.32,-246.75 301.4,-253.79 311.98,-253.23 309.32,-246.75"/>
</a>
</g>
</g>
<!-- Node8 -->
<g id="Node000008" class="node">
<title>Node8</title>
<g id="a_Node000008"><a xlink:href="EntitySystem_8hpp.html" target="_top" xlink:title=" ">
<polygon fill="white" stroke="#666666" points="681.75,-218.75 563,-218.75 563,-188.25 681.75,-188.25 681.75,-218.75"/>
<text xml:space="preserve" text-anchor="start" x="571" y="-205.25" font-family="Helvetica,sans-Serif" font-size="10.00">server/include/Systems</text>
<text xml:space="preserve" text-anchor="middle" x="622.38" y="-194" font-family="Helvetica,sans-Serif" font-size="10.00">/EntitySystem.hpp</text>
</a>
</g>
</g>
<!-- Node1&#45;&gt;Node8 -->
<g id="edge8_Node000001_Node000008" class="edge">
<title>Node1&#45;&gt;Node8</title>
<g id="a_edge8_Node000001_Node000008"><a xlink:title=" ">
<path fill="none" stroke="#63b8ff" d="M350.13,-253.55C415.76,-241.72 504.59,-225.72 562.66,-215.26"/>
<polygon fill="#63b8ff" stroke="#63b8ff" points="349.7,-250.07 340.48,-255.29 350.94,-256.96 349.7,-250.07"/>
</a>
</g>
</g>
<!-- Node12 -->
<g id="Node000012" class="node">
<title>Node12</title>
<g id="a_Node000012"><a xlink:href="PlayerShootSystem_8hpp.html" target="_top" xlink:title=" ">
<polygon fill="white" stroke="#666666" points="326.75,-218.75 202,-218.75 202,-188.25 326.75,-188.25 326.75,-218.75"/>
<text xml:space="preserve" text-anchor="start" x="210" y="-205.25" font-family="Helvetica,sans-Serif" font-size="10.00">server/include/Systems</text>
<text xml:space="preserve" text-anchor="middle" x="264.38" y="-194" font-family="Helvetica,sans-Serif" font-size="10.00">/PlayerShootSystem.hpp</text>
</a>
</g>
</g>
<!-- Node1&#45;&gt;Node12 -->
<g id="edge14_Node000001_Node000012" class="edge">
<title>Node1&#45;&gt;Node12</title>
<g id="a_edge14_Node000001_Node000012"><a xlink:title=" ">
<path fill="none" stroke="#63b8ff" d="M264.38,-243.06C264.38,-234.89 264.38,-226.16 264.38,-219.08"/>
<polygon fill="#63b8ff" stroke="#63b8ff" points="260.88,-242.85 264.38,-252.85 267.88,-242.85 260.88,-242.85"/>
</a>
</g>
</g>
<!-- Node4 -->
<g id="Node000004" class="node">
<title>Node4</title>
<g id="a_Node000004"><a xlink:href="GameManager_8cpp.html" target="_top" xlink:title=" ">
<polygon fill="white" stroke="#666666" points="513.12,-19.25 339.62,-19.25 339.62,0 513.12,0 513.12,-19.25"/>
<text xml:space="preserve" text-anchor="middle" x="426.38" y="-5.75" font-family="Helvetica,sans-Serif" font-size="10.00">server/src/Game/GameManager.cpp</text>
</a>
</g>
</g>
<!-- Node3&#45;&gt;Node4 -->
<g id="edge3_Node000003_Node000004" class="edge">
<title>Node3&#45;&gt;Node4</title>
<g id="a_edge3_Node000003_Node000004"><a xlink:title=" ">
<path fill="none" stroke="#63b8ff" d="M476.05,-48.12C463.08,-38.33 448.41,-27.26 438.4,-19.7"/>
<polygon fill="#63b8ff" stroke="#63b8ff" points="473.8,-50.8 483.89,-54.03 478.01,-45.22 473.8,-50.8"/>
</a>
</g>
</g>
<!-- Node5 -->
<g id="Node000005" class="node">
<title>Node5</title>
<g id="a_Node000005"><a xlink:href="server_2src_2main_8cpp.html" target="_top" xlink:title=" ">
<polygon fill="white" stroke="#666666" points="633.5,-19.25 531.25,-19.25 531.25,0 633.5,0 633.5,-19.25"/>
<text xml:space="preserve" text-anchor="middle" x="582.38" y="-5.75" font-family="Helvetica,sans-Serif" font-size="10.00">server/src/main.cpp</text>
</a>
</g>
</g>
<!-- Node3&#45;&gt;Node5 -->
<g id="edge4_Node000003_Node000005" class="edge">
<title>Node3&#45;&gt;Node5</title>
<g id="a_edge4_Node000003_Node000005"><a xlink:title=" ">
<path fill="none" stroke="#63b8ff" d="M532.7,-48.12C545.67,-38.33 560.34,-27.26 570.35,-19.7"/>
<polygon fill="#63b8ff" stroke="#63b8ff" points="530.74,-45.22 524.86,-54.03 534.95,-50.8 530.74,-45.22"/>
</a>
</g>
</g>
<!-- Node6&#45;&gt;Node3 -->
<g id="edge6_Node000006_Node000003" class="edge">
<title>Node6&#45;&gt;Node3</title>
<g id="a_edge6_Node000006_Node000003"><a xlink:title=" ">
<path fill="none" stroke="#63b8ff" d="M456.86,-181.33C467.45,-173.43 478.14,-163.58 485.38,-152.25 498.47,-131.73 502.56,-103.11 503.82,-86.03"/>
<polygon fill="#63b8ff" stroke="#63b8ff" points="455.1,-178.29 448.92,-186.89 459.12,-184.02 455.1,-178.29"/>
</a>
</g>
</g>
<!-- Node7 -->
<g id="Node000007" class="node">
<title>Node7</title>
<g id="a_Node000007"><a xlink:href="CollisionSystem_8cpp.html" target="_top" xlink:title=" ">
<polygon fill="white" stroke="#666666" points="475.88,-152.25 366.88,-152.25 366.88,-121.75 475.88,-121.75 475.88,-152.25"/>
<text xml:space="preserve" text-anchor="start" x="374.88" y="-138.75" font-family="Helvetica,sans-Serif" font-size="10.00">server/src/Systems</text>
<text xml:space="preserve" text-anchor="middle" x="421.38" y="-127.5" font-family="Helvetica,sans-Serif" font-size="10.00">/CollisionSystem.cpp</text>
</a>
</g>
</g>
<!-- Node6&#45;&gt;Node7 -->
<g id="edge7_Node000006_Node000007" class="edge">
<title>Node6&#45;&gt;Node7</title>
<g id="a_edge7_Node000006_Node000007"><a xlink:title=" ">
<path fill="none" stroke="#63b8ff" d="M421.38,-176.56C421.38,-168.39 421.38,-159.66 421.38,-152.58"/>
<polygon fill="#63b8ff" stroke="#63b8ff" points="417.88,-176.35 421.38,-186.35 424.88,-176.35 417.88,-176.35"/>
</a>
</g>
</g>
<!-- Node8&#45;&gt;Node3 -->
<g id="edge9_Node000008_Node000003" class="edge">
<title>Node8&#45;&gt;Node3</title>
<g id="a_edge9_Node000008_Node000003"><a xlink:title=" ">
<path fill="none" stroke="#63b8ff" d="M638.59,-177.99C647.66,-160.93 655.02,-138.34 643.38,-121.75 624.06,-94.24 588.12,-81.72 557.62,-76.06"/>
<polygon fill="#63b8ff" stroke="#63b8ff" points="635.64,-176.09 633.64,-186.5 641.69,-179.62 635.64,-176.09"/>
</a>
</g>
</g>
<!-- Node9 -->
<g id="Node000009" class="node">
<title>Node9</title>
<g id="a_Node000009"><a xlink:href="LevelSystem_8hpp.html" target="_top" xlink:title=" ">
<polygon fill="white" stroke="#666666" points="808.75,-152.25 690,-152.25 690,-121.75 808.75,-121.75 808.75,-152.25"/>
<text xml:space="preserve" text-anchor="start" x="698" y="-138.75" font-family="Helvetica,sans-Serif" font-size="10.00">server/include/Systems</text>
<text xml:space="preserve" text-anchor="middle" x="749.38" y="-127.5" font-family="Helvetica,sans-Serif" font-size="10.00">/LevelSystem.hpp</text>
</a>
</g>
</g>
<!-- Node8&#45;&gt;Node9 -->
<g id="edge10_Node000008_Node000009" class="edge">
<title>Node8&#45;&gt;Node9</title>
<g id="a_edge10_Node000008_Node000009"><a xlink:title=" ">
<path fill="none" stroke="#63b8ff" d="M661.4,-182.68C680.53,-172.96 703.16,-161.47 720.67,-152.58"/>
<polygon fill="#63b8ff" stroke="#63b8ff" points="659.87,-179.53 652.54,-187.18 663.04,-185.77 659.87,-179.53"/>
</a>
</g>
</g>
<!-- Node11 -->
<g id="Node000011" class="node">
<title>Node11</title>
<g id="a_Node000011"><a xlink:href="EntitySystem_8cpp.html" target="_top" xlink:title=" ">
<polygon fill="white" stroke="#666666" points="634.12,-152.25 532.62,-152.25 532.62,-121.75 634.12,-121.75 634.12,-152.25"/>
<text xml:space="preserve" text-anchor="start" x="540.62" y="-138.75" font-family="Helvetica,sans-Serif" font-size="10.00">server/src/Systems</text>
<text xml:space="preserve" text-anchor="middle" x="583.38" y="-127.5" font-family="Helvetica,sans-Serif" font-size="10.00">/EntitySystem.cpp</text>
</a>
</g>
</g>
<!-- Node8&#45;&gt;Node11 -->
<g id="edge13_Node000008_Node000011" class="edge">
<title>Node8&#45;&gt;Node11</title>
<g id="a_edge13_Node000008_Node000011"><a xlink:title=" ">
<path fill="none" stroke="#63b8ff" d="M607.72,-178.26C602.49,-169.62 596.77,-160.16 592.19,-152.58"/>
<polygon fill="#63b8ff" stroke="#63b8ff" points="604.57,-179.82 612.74,-186.57 610.56,-176.2 604.57,-179.82"/>
</a>
</g>
</g>
<!-- Node9&#45;&gt;Node3 -->
<g id="edge11_Node000009_Node000003" class="edge">
<title>Node9&#45;&gt;Node3</title>
<g id="a_edge11_Node000009_Node000003"><a xlink:title=" ">
<path fill="none" stroke="#63b8ff" d="M682.4,-118.37C643.11,-108.02 594.14,-95.13 557.52,-85.49"/>
<polygon fill="#63b8ff" stroke="#63b8ff" points="681.45,-121.74 692.01,-120.9 683.23,-114.97 681.45,-121.74"/>
</a>
</g>
</g>
<!-- Node10 -->
<g id="Node000010" class="node">
<title>Node10</title>
<g id="a_Node000010"><a xlink:href="LevelSystem_8cpp.html" target="_top" xlink:title=" ">
<polygon fill="white" stroke="#666666" points="800.12,-85.75 698.62,-85.75 698.62,-55.25 800.12,-55.25 800.12,-85.75"/>
<text xml:space="preserve" text-anchor="start" x="706.62" y="-72.25" font-family="Helvetica,sans-Serif" font-size="10.00">server/src/Systems</text>
<text xml:space="preserve" text-anchor="middle" x="749.38" y="-61" font-family="Helvetica,sans-Serif" font-size="10.00">/LevelSystem.cpp</text>
</a>
</g>
</g>
<!-- Node9&#45;&gt;Node10 -->
<g id="edge12_Node000009_Node000010" class="edge">
<title>Node9&#45;&gt;Node10</title>
<g id="a_edge12_Node000009_Node000010"><a xlink:title=" ">
<path fill="none" stroke="#63b8ff" d="M749.38,-110.06C749.38,-101.89 749.38,-93.16 749.38,-86.08"/>
<polygon fill="#63b8ff" stroke="#63b8ff" points="745.88,-109.85 749.38,-119.85 752.88,-109.85 745.88,-109.85"/>
</a>
</g>
</g>
<!-- Node12&#45;&gt;Node3 -->
<g id="edge15_Node000012_Node000003" class="edge">
<title>Node12&#45;&gt;Node3</title>
<g id="a_edge15_Node000012_Node000003"><a xlink:title=" ">
<path fill="none" stroke="#63b8ff" d="M236.35,-180.62C217.99,-163.66 200,-140.03 215.38,-121.75 244.88,-86.67 375.77,-76.08 450.89,-72.88"/>
<polygon fill="#63b8ff" stroke="#63b8ff" points="233.72,-182.97 243.56,-186.91 238.33,-177.7 233.72,-182.97"/>
</a>
</g>
</g>
<!-- Node13 -->
<g id="Node000013" class="node">
<title>Node13</title>
<g id="a_Node000013"><a xlink:href="PlayerShootSystem_8cpp.html" target="_top" xlink:title=" ">
<polygon fill="white" stroke="#666666" points="348.75,-152.25 224,-152.25 224,-121.75 348.75,-121.75 348.75,-152.25"/>
<text xml:space="preserve" text-anchor="start" x="232" y="-138.75" font-family="Helvetica,sans-Serif" font-size="10.00">server/src/Systems</text>
<text xml:space="preserve" text-anchor="middle" x="286.38" y="-127.5" font-family="Helvetica,sans-Serif" font-size="10.00">/PlayerShootSystem.cpp</text>
</a>
</g>
</g>
<!-- Node12&#45;&gt;Node13 -->
<g id="edge16_Node000012_Node000013" class="edge">
<title>Node12&#45;&gt;Node13</title>
<g id="a_edge16_Node000012_Node000013"><a xlink:title=" ">
<path fill="none" stroke="#63b8ff" d="M273.03,-177.13C275.87,-168.8 278.93,-159.83 281.4,-152.58"/>
<polygon fill="#63b8ff" stroke="#63b8ff" points="269.77,-175.84 269.86,-186.43 276.4,-178.1 269.77,-175.84"/>
</a>
</g>
</g>
</g>
</svg>

<g id="navigator" transform="translate(0 0)" fill="#404254">
  <rect fill="#f2f5e9" fill-opacity="0.5" stroke="#606060" stroke-width=".5" x="0" y="0" width="60" height="60"/>
  <use id="zoomplus" xlink:href="#zoomPlus" x="17" y="9" onmousedown="handleZoom(evt,'in')"/>
  <use id="zoomminus" xlink:href="#zoomMin" x="42" y="9" onmousedown="handleZoom(evt,'out')"/>
  <use id="reset" xlink:href="#resetDef" x="30" y="36" onmousedown="handleReset()"/>
   <use id="arrowup" xlink:href="#arrowUp" x="0" y="0" onmousedown="handlePan(0,-1)"/>
  <use id="arrowright" xlink:href="#arrowRight" x="0" y="0" onmousedown="handlePan(1,0)"/>
  <use id="arrowdown" xlink:href="#arrowDown" x="0" y="0" onmousedown="handlePan(0,1)"/>
  <use id="arrowleft" xlink:href="#arrowLeft" x="0" y="0" onmousedown="handlePan(-1,0)"/>
</g>
<svg viewBox="0 0 15 15" width="100%" height="30px" preserveAspectRatio="xMaxYMin meet">
 <g id="arrow_out" transform="scale(0.3 0.3)">
  <a xlink:href="Ammo_8hpp__dep__incl_org.svg" target="_base">
   <rect id="button" ry="5" rx="5" y="6" x="6" height="38" width="38"
        fill="#f2f5e9" fill-opacity="0.5" stroke="#606060" stroke-width="1.0"/>
   <path id="arrow"
     d="M 11.500037,31.436501 C 11.940474,20.09759 22.043105,11.32322 32.158766,21.979434 L 37.068811,17.246167 C 37.068811,17.246167 37.088388,32 37.088388,32 L 22.160133,31.978069 C 22.160133,31.978069 26.997745,27.140456 26.997745,27.140456 C 18.528582,18.264221 13.291696,25.230495 11.500037,31.436501 z"
     style="fill:#404040;"/>
  </a>
 </g>
</svg>

<style type='text/css'>
<![CDATA[
[data-mouse-over-selected='false'] { opacity: 0.7; }
[data-mouse-over-selected='true']  { opacity: 1.0; }
]]>
</style>
<script type="application/ecmascript"><![CDATA[
document.addEventListener('DOMContentLoaded', (event) => {
  highlightEdges();
  highlightAdjacentNodes();
});
]]></script>
</svg>
