<?xml version="1.0" encoding="UTF-8" standalone="no"?>
<!DOCTYPE svg PUBLIC "-//W3C//DTD SVG 1.1//EN"
 "http://www.w3.org/Graphics/SVG/1.1/DTD/svg11.dtd">
<!-- Generated by graphviz version 14.0.5 (20251129.0259)
 -->
<!-- Title: common/include/RType/Assert.hpp Pages: 1 -->
<svg width="976pt" height="260pt"
 viewBox="0.00 0.00 976.00 260.00" xmlns="http://www.w3.org/2000/svg" xmlns:xlink="http://www.w3.org/1999/xlink">
<g id="graph0" class="graph" transform="scale(1 1) rotate(0) translate(4 255.5)">
<title>common/include/RType/Assert.hpp</title>
<!-- Node1 -->
<g id="Node000001" class="node">
<title>Node1</title>
<g id="a_Node000001"><a xlink:title="Assertion and verification macros for runtime checks.">
<polygon fill="#999999" stroke="#666666" points="708.25,-251.5 589.5,-251.5 589.5,-221 708.25,-221 708.25,-251.5"/>
<text xml:space="preserve" text-anchor="start" x="597.5" y="-238" font-family="Helvetica,sans-Serif" font-size="10.00">common/include/RType</text>
<text xml:space="preserve" text-anchor="middle" x="648.88" y="-226.75" font-family="Helvetica,sans-Serif" font-size="10.00">/Assert.hpp</text>
</a>
</g>
</g>
<!-- Node2 -->
<g id="Node000002" class="node">
<title>Node2</title>
<g id="a_Node000002"><a xlink:href="Logger_8hpp.html" target="_top" xlink:title="Logger declaration with support for multiple log levels.">
<polygon fill="white" stroke="#666666" points="652.25,-185 557.5,-185 557.5,-165.75 652.25,-165.75 652.25,-185"/>
<text xml:space="preserve" text-anchor="middle" x="604.88" y="-171.5" font-family="Helvetica,sans-Serif" font-size="10.00">RType/Logger.hpp</text>
</a>
</g>
</g>
<!-- Node1&#45;&gt;Node2 -->
<g id="edge1_Node000001_Node000002" class="edge">
<title>Node1&#45;&gt;Node2</title>
<g id="a_edge1_Node000001_Node000002"><a xlink:title=" ">
<path fill="none" stroke="#63b8ff" d="M638,-220.7C632.07,-212.77 624.68,-202.88 618.39,-194.46"/>
<polygon fill="#63b8ff" stroke="#63b8ff" points="621.35,-192.58 612.56,-186.66 615.75,-196.77 621.35,-192.58"/>
</a>
</g>
</g>
<!-- Node18 -->
<g id="Node000018" class="node">
<title>Node18</title>
<g id="a_Node000018"><a xlink:title=" ">
<polygon fill="#e0e0e0" stroke="#999999" points="715.12,-185 670.62,-185 670.62,-165.75 715.12,-165.75 715.12,-185"/>
<text xml:space="preserve" text-anchor="middle" x="692.88" y="-171.5" font-family="Helvetica,sans-Serif" font-size="10.00">cstdlib</text>
</a>
</g>
</g>
<!-- Node1&#45;&gt;Node18 -->
<g id="edge26_Node000001_Node000018" class="edge">
<title>Node1&#45;&gt;Node18</title>
<g id="a_edge26_Node000001_Node000018"><a xlink:title=" ">
<path fill="none" stroke="#63b8ff" d="M659.75,-220.7C665.68,-212.77 673.07,-202.88 679.36,-194.46"/>
<polygon fill="#63b8ff" stroke="#63b8ff" points="682,-196.77 685.19,-186.66 676.4,-192.58 682,-196.77"/>
</a>
</g>
</g>
<!-- Node3 -->
<g id="Node000003" class="node">
<title>Node3</title>
<g id="a_Node000003"><a xlink:href="LogLevel_8hpp.html" target="_top" xlink:title="Log severity levels for the logging system.">
<polygon fill="white" stroke="#666666" points="155.5,-74.5 50.25,-74.5 50.25,-55.25 155.5,-55.25 155.5,-74.5"/>
<text xml:space="preserve" text-anchor="middle" x="102.88" y="-61" font-family="Helvetica,sans-Serif" font-size="10.00">RType/LogLevel.hpp</text>
</a>
</g>
</g>
<!-- Node2&#45;&gt;Node3 -->
<g id="edge2_Node000002_Node000003" class="edge">
<title>Node2&#45;&gt;Node3</title>
<g id="a_edge2_Node000002_Node000003"><a xlink:title=" ">
<path fill="none" stroke="#63b8ff" d="M557.07,-170.91C493.35,-165.59 377.38,-153.44 280.88,-129.75 228.08,-116.79 169.11,-93.87 134.05,-79.3"/>
<polygon fill="#63b8ff" stroke="#63b8ff" points="135.51,-76.12 124.93,-75.47 132.8,-82.57 135.51,-76.12"/>
</a>
</g>
</g>
<!-- Node5 -->
<g id="Node000005" class="node">
<title>Node5</title>
<g id="a_Node000005"><a xlink:title=" ">
<polygon fill="#e0e0e0" stroke="#999999" points="43.75,-19.25 0,-19.25 0,0 43.75,0 43.75,-19.25"/>
<text xml:space="preserve" text-anchor="middle" x="21.88" y="-5.75" font-family="Helvetica,sans-Serif" font-size="10.00">format</text>
</a>
</g>
</g>
<!-- Node2&#45;&gt;Node5 -->
<g id="edge19_Node000002_Node000005" class="edge">
<title>Node2&#45;&gt;Node5</title>
<g id="a_edge19_Node000002_Node000005"><a xlink:title=" ">
<path fill="none" stroke="#63b8ff" d="M557.3,-171.43C483.75,-166.31 338.23,-153.93 216.88,-129.75 129.37,-112.32 78.7,-144.9 23.88,-74.5 14.38,-62.3 14.63,-44.46 16.83,-30.73"/>
<polygon fill="#63b8ff" stroke="#63b8ff" points="20.23,-31.54 18.86,-21.04 13.38,-30.11 20.23,-31.54"/>
</a>
</g>
</g>
<!-- Node6 -->
<g id="Node000006" class="node">
<title>Node6</title>
<g id="a_Node000006"><a xlink:title=" ">
<polygon fill="#e0e0e0" stroke="#999999" points="392.62,-19.25 327.12,-19.25 327.12,0 392.62,0 392.62,-19.25"/>
<text xml:space="preserve" text-anchor="middle" x="359.88" y="-5.75" font-family="Helvetica,sans-Serif" font-size="10.00">string_view</text>
</a>
</g>
</g>
<!-- Node2&#45;&gt;Node6 -->
<g id="edge22_Node000002_Node000006" class="edge">
<title>Node2&#45;&gt;Node6</title>
<g id="a_edge22_Node000002_Node000006"><a xlink:title=" ">
<path fill="none" stroke="#63b8ff" d="M604.87,-165.31C604.33,-142.99 599.66,-85.02 566.88,-55.25 543.42,-33.95 457.72,-21.11 404.22,-14.98"/>
<polygon fill="#63b8ff" stroke="#63b8ff" points="404.83,-11.53 394.5,-13.91 404.06,-18.49 404.83,-11.53"/>
</a>
</g>
</g>
<!-- Node7 -->
<g id="Node000007" class="node">
<title>Node7</title>
<g id="a_Node000007"><a xlink:title=" ">
<polygon fill="#e0e0e0" stroke="#999999" points="509.5,-19.25 470.25,-19.25 470.25,0 509.5,0 509.5,-19.25"/>
<text xml:space="preserve" text-anchor="middle" x="489.88" y="-5.75" font-family="Helvetica,sans-Serif" font-size="10.00">utility</text>
</a>
</g>
</g>
<!-- Node2&#45;&gt;Node7 -->
<g id="edge24_Node000002_Node000007" class="edge">
<title>Node2&#45;&gt;Node7</title>
<g id="a_edge24_Node000002_Node000007"><a xlink:title=" ">
<path fill="none" stroke="#63b8ff" d="M607.52,-165.27C613.15,-143.84 623.95,-89.43 599.88,-55.25 581.86,-29.68 546.55,-18.74 520.78,-14.08"/>
<polygon fill="#63b8ff" stroke="#63b8ff" points="521.62,-10.67 511.2,-12.58 520.54,-17.58 521.62,-10.67"/>
</a>
</g>
</g>
<!-- Node9 -->
<g id="Node000009" class="node">
<title>Node9</title>
<g id="a_Node000009"><a xlink:href="Error_8hpp.html" target="_top" xlink:title="Error handling system with categorized error codes.">
<polygon fill="white" stroke="#666666" points="376.12,-129.75 289.62,-129.75 289.62,-110.5 376.12,-110.5 376.12,-129.75"/>
<text xml:space="preserve" text-anchor="middle" x="332.88" y="-116.25" font-family="Helvetica,sans-Serif" font-size="10.00">RType/Error.hpp</text>
</a>
</g>
</g>
<!-- Node2&#45;&gt;Node9 -->
<g id="edge8_Node000002_Node000009" class="edge">
<title>Node2&#45;&gt;Node9</title>
<g id="a_edge8_Node000002_Node000009"><a xlink:title=" ">
<path fill="none" stroke="#63b8ff" d="M558.43,-165.28C511.13,-156.02 437.82,-141.67 387.7,-131.86"/>
<polygon fill="#63b8ff" stroke="#63b8ff" points="388.41,-128.43 377.92,-129.94 387.06,-135.3 388.41,-128.43"/>
</a>
</g>
</g>
<!-- Node10 -->
<g id="Node000010" class="node">
<title>Node10</title>
<g id="a_Node000010"><a xlink:title=" ">
<polygon fill="#e0e0e0" stroke="#999999" points="557.88,-74.5 517.88,-74.5 517.88,-55.25 557.88,-55.25 557.88,-74.5"/>
<text xml:space="preserve" text-anchor="middle" x="537.88" y="-61" font-family="Helvetica,sans-Serif" font-size="10.00">string</text>
</a>
</g>
</g>
<!-- Node2&#45;&gt;Node10 -->
<g id="edge21_Node000002_Node000010" class="edge">
<title>Node2&#45;&gt;Node10</title>
<g id="a_edge21_Node000002_Node000010"><a xlink:title=" ">
<path fill="none" stroke="#63b8ff" d="M597.64,-165.42C590.67,-156.61 580,-142.63 571.88,-129.75 562.64,-115.12 553.51,-97.76 547.04,-84.82"/>
<polygon fill="#63b8ff" stroke="#63b8ff" points="550.32,-83.57 542.77,-76.14 544.04,-86.66 550.32,-83.57"/>
</a>
</g>
</g>
<!-- Node14 -->
<g id="Node000014" class="node">
<title>Node14</title>
<g id="a_Node000014"><a xlink:title=" ">
<polygon fill="#e0e0e0" stroke="#999999" points="707.75,-129.75 652,-129.75 652,-110.5 707.75,-110.5 707.75,-129.75"/>
<text xml:space="preserve" text-anchor="middle" x="679.88" y="-116.25" font-family="Helvetica,sans-Serif" font-size="10.00">expected</text>
</a>
</g>
</g>
<!-- Node2&#45;&gt;Node14 -->
<g id="edge18_Node000002_Node000014" class="edge">
<title>Node2&#45;&gt;Node14</title>
<g id="a_edge18_Node000002_Node000014"><a xlink:title=" ">
<path fill="none" stroke="#63b8ff" d="M617.6,-165.34C628.59,-157.54 644.72,-146.09 657.81,-136.79"/>
<polygon fill="#63b8ff" stroke="#63b8ff" points="659.73,-139.72 665.86,-131.08 655.68,-134.01 659.73,-139.72"/>
</a>
</g>
</g>
<!-- Node15 -->
<g id="Node000015" class="node">
<title>Node15</title>
<g id="a_Node000015"><a xlink:title=" ">
<polygon fill="#e0e0e0" stroke="#999999" points="810,-129.75 725.75,-129.75 725.75,-110.5 810,-110.5 810,-129.75"/>
<text xml:space="preserve" text-anchor="middle" x="767.88" y="-116.25" font-family="Helvetica,sans-Serif" font-size="10.00">source_location</text>
</a>
</g>
</g>
<!-- Node2&#45;&gt;Node15 -->
<g id="edge20_Node000002_Node000015" class="edge">
<title>Node2&#45;&gt;Node15</title>
<g id="a_edge20_Node000002_Node000015"><a xlink:title=" ">
<path fill="none" stroke="#63b8ff" d="M632.53,-165.34C659.1,-156.66 699.51,-143.46 729.26,-133.74"/>
<polygon fill="#63b8ff" stroke="#63b8ff" points="730.23,-137.1 738.65,-130.67 728.06,-130.45 730.23,-137.1"/>
</a>
</g>
</g>
<!-- Node16 -->
<g id="Node000016" class="node">
<title>Node16</title>
<g id="a_Node000016"><a xlink:title=" ">
<polygon fill="#e0e0e0" stroke="#999999" points="889.75,-129.75 828,-129.75 828,-110.5 889.75,-110.5 889.75,-129.75"/>
<text xml:space="preserve" text-anchor="middle" x="858.88" y="-116.25" font-family="Helvetica,sans-Serif" font-size="10.00">type_traits</text>
</a>
</g>
</g>
<!-- Node2&#45;&gt;Node16 -->
<g id="edge23_Node000002_Node000016" class="edge">
<title>Node2&#45;&gt;Node16</title>
<g id="a_edge23_Node000002_Node000016"><a xlink:title=" ">
<path fill="none" stroke="#63b8ff" d="M648.75,-165.32C689.65,-156.85 752.67,-143.76 816.74,-130.19"/>
<polygon fill="#63b8ff" stroke="#63b8ff" points="817.33,-133.64 826.39,-128.15 815.88,-126.8 817.33,-133.64"/>
</a>
</g>
</g>
<!-- Node17 -->
<g id="Node000017" class="node">
<title>Node17</title>
<g id="a_Node000017"><a xlink:href="Logger_8tpp.html" target="_top" xlink:title=" ">
<polygon fill="white" stroke="#666666" points="968.38,-129.75 907.38,-129.75 907.38,-110.5 968.38,-110.5 968.38,-129.75"/>
<text xml:space="preserve" text-anchor="middle" x="937.88" y="-116.25" font-family="Helvetica,sans-Serif" font-size="10.00">Logger.tpp</text>
</a>
</g>
</g>
<!-- Node2&#45;&gt;Node17 -->
<g id="edge25_Node000002_Node000017" class="edge">
<title>Node2&#45;&gt;Node17</title>
<g id="a_edge25_Node000002_Node000017"><a xlink:title=" ">
<path fill="none" stroke="#63b8ff" d="M652.5,-167.17C724.48,-156.27 856.27,-136.31 896.15,-129.94"/>
<polygon fill="#63b8ff" stroke="#63b8ff" points="896.47,-133.44 905.76,-128.35 895.33,-126.53 896.47,-133.44"/>
</a>
</g>
</g>
<!-- Node4 -->
<g id="Node000004" class="node">
<title>Node4</title>
<g id="a_Node000004"><a xlink:title=" ">
<polygon fill="#e0e0e0" stroke="#999999" points="203.5,-19.25 158.25,-19.25 158.25,0 203.5,0 203.5,-19.25"/>
<text xml:space="preserve" text-anchor="middle" x="180.88" y="-5.75" font-family="Helvetica,sans-Serif" font-size="10.00">cstdint</text>
</a>
</g>
</g>
<!-- Node3&#45;&gt;Node4 -->
<g id="edge3_Node000003_Node000004" class="edge">
<title>Node3&#45;&gt;Node4</title>
<g id="a_edge3_Node000003_Node000004"><a xlink:title=" ">
<path fill="none" stroke="#63b8ff" d="M116.11,-54.84C127.65,-46.96 144.64,-35.36 158.32,-26.02"/>
<polygon fill="#63b8ff" stroke="#63b8ff" points="160.04,-29.08 166.33,-20.56 156.1,-23.3 160.04,-29.08"/>
</a>
</g>
</g>
<!-- Node3&#45;&gt;Node5 -->
<g id="edge4_Node000003_Node000005" class="edge">
<title>Node3&#45;&gt;Node5</title>
<g id="a_edge4_Node000003_Node000005"><a xlink:title=" ">
<path fill="none" stroke="#63b8ff" d="M89.13,-54.84C77.15,-46.96 59.5,-35.36 45.29,-26.02"/>
<polygon fill="#63b8ff" stroke="#63b8ff" points="47.23,-23.1 36.95,-20.53 43.38,-28.95 47.23,-23.1"/>
</a>
</g>
</g>
<!-- Node3&#45;&gt;Node6 -->
<g id="edge5_Node000003_Node000006" class="edge">
<title>Node3&#45;&gt;Node6</title>
<g id="a_edge5_Node000003_Node000006"><a xlink:title=" ">
<path fill="none" stroke="#63b8ff" d="M146.76,-54.78C193.91,-45.01 268.42,-29.57 315.69,-19.78"/>
<polygon fill="#63b8ff" stroke="#63b8ff" points="316.23,-23.24 325.31,-17.79 314.81,-16.39 316.23,-23.24"/>
</a>
</g>
</g>
<!-- Node3&#45;&gt;Node7 -->
<g id="edge6_Node000003_Node000007" class="edge">
<title>Node3&#45;&gt;Node7</title>
<g id="a_edge6_Node000003_Node000007"><a xlink:title=" ">
<path fill="none" stroke="#63b8ff" d="M155.87,-56.58C237.72,-45.32 392.34,-24.04 458.53,-14.94"/>
<polygon fill="#63b8ff" stroke="#63b8ff" points="458.89,-18.42 468.32,-13.59 457.94,-11.49 458.89,-18.42"/>
</a>
</g>
</g>
<!-- Node8 -->
<g id="Node000008" class="node">
<title>Node8</title>
<g id="a_Node000008"><a xlink:title=" ">
<polygon fill="#e0e0e0" stroke="#999999" points="136.75,-19.25 69,-19.25 69,0 136.75,0 136.75,-19.25"/>
<text xml:space="preserve" text-anchor="middle" x="102.88" y="-5.75" font-family="Helvetica,sans-Serif" font-size="10.00">LogLevel.inl</text>
</a>
</g>
</g>
<!-- Node3&#45;&gt;Node8 -->
<g id="edge7_Node000003_Node000008" class="edge">
<title>Node3&#45;&gt;Node8</title>
<g id="a_edge7_Node000003_Node000008"><a xlink:title=" ">
<path fill="none" stroke="#63b8ff" d="M102.88,-55.08C102.88,-48.57 102.88,-39.42 102.88,-31.12"/>
<polygon fill="#63b8ff" stroke="#63b8ff" points="106.38,-31.12 102.88,-21.12 99.38,-31.12 106.38,-31.12"/>
</a>
</g>
</g>
<!-- Node9&#45;&gt;Node3 -->
<g id="edge9_Node000009_Node000003" class="edge">
<title>Node9&#45;&gt;Node3</title>
<g id="a_edge9_Node000009_Node000003"><a xlink:title=" ">
<path fill="none" stroke="#63b8ff" d="M293.6,-110.03C254.81,-101.05 195.35,-87.28 153.14,-77.51"/>
<polygon fill="#63b8ff" stroke="#63b8ff" points="154,-74.12 143.46,-75.27 152.42,-80.94 154,-74.12"/>
</a>
</g>
</g>
<!-- Node9&#45;&gt;Node4 -->
<g id="edge10_Node000009_Node000004" class="edge">
<title>Node9&#45;&gt;Node4</title>
<g id="a_edge10_Node000009_Node000004"><a xlink:title=" ">
<path fill="none" stroke="#63b8ff" d="M289.4,-114.08C261.35,-108.68 225.92,-97.52 202.88,-74.5 191.19,-62.82 185.7,-44.65 183.13,-30.68"/>
<polygon fill="#63b8ff" stroke="#63b8ff" points="186.6,-30.22 181.71,-20.82 179.67,-31.22 186.6,-30.22"/>
</a>
</g>
</g>
<!-- Node9&#45;&gt;Node5 -->
<g id="edge11_Node000009_Node000005" class="edge">
<title>Node9&#45;&gt;Node5</title>
<g id="a_edge11_Node000009_Node000005"><a xlink:title=" ">
<path fill="none" stroke="#63b8ff" d="M289.13,-118.03C216.92,-115.34 77.13,-106.08 40.88,-74.5 28.46,-63.68 23.98,-45.15 22.44,-30.83"/>
<polygon fill="#63b8ff" stroke="#63b8ff" points="25.95,-30.89 21.83,-21.13 18.97,-31.34 25.95,-30.89"/>
</a>
</g>
</g>
<!-- Node9&#45;&gt;Node6 -->
<g id="edge13_Node000009_Node000006" class="edge">
<title>Node9&#45;&gt;Node6</title>
<g id="a_edge13_Node000009_Node000006"><a xlink:title=" ">
<path fill="none" stroke="#63b8ff" d="M335.08,-110.25C339.4,-92.92 349.02,-54.23 354.93,-30.49"/>
<polygon fill="#63b8ff" stroke="#63b8ff" points="358.25,-31.64 357.27,-21.1 351.46,-29.95 358.25,-31.64"/>
</a>
</g>
</g>
<!-- Node9&#45;&gt;Node7 -->
<g id="edge15_Node000009_Node000007" class="edge">
<title>Node9&#45;&gt;Node7</title>
<g id="a_edge15_Node000009_Node000007"><a xlink:title=" ">
<path fill="none" stroke="#63b8ff" d="M376.38,-115.58C406.72,-110.86 446.07,-99.9 470.88,-74.5 482.26,-62.84 486.87,-44.67 488.71,-30.69"/>
<polygon fill="#63b8ff" stroke="#63b8ff" points="492.19,-31.11 489.6,-20.83 485.22,-30.48 492.19,-31.11"/>
</a>
</g>
</g>
<!-- Node9&#45;&gt;Node10 -->
<g id="edge12_Node000009_Node000010" class="edge">
<title>Node9&#45;&gt;Node10</title>
<g id="a_edge12_Node000009_Node000010"><a xlink:title=" ">
<path fill="none" stroke="#63b8ff" d="M367.65,-110.09C406.68,-99.95 469.42,-83.66 506.85,-73.93"/>
<polygon fill="#63b8ff" stroke="#63b8ff" points="507.33,-77.43 516.13,-71.52 505.57,-70.65 507.33,-77.43"/>
</a>
</g>
</g>
<!-- Node11 -->
<g id="Node000011" class="node">
<title>Node11</title>
<g id="a_Node000011"><a xlink:title=" ">
<polygon fill="#e0e0e0" stroke="#999999" points="461.38,-74.5 388.38,-74.5 388.38,-55.25 461.38,-55.25 461.38,-74.5"/>
<text xml:space="preserve" text-anchor="middle" x="424.88" y="-61" font-family="Helvetica,sans-Serif" font-size="10.00">system_error</text>
</a>
</g>
</g>
<!-- Node9&#45;&gt;Node11 -->
<g id="edge14_Node000009_Node000011" class="edge">
<title>Node9&#45;&gt;Node11</title>
<g id="a_edge14_Node000009_Node000011"><a xlink:title=" ">
<path fill="none" stroke="#63b8ff" d="M348.48,-110.09C362.49,-101.98 383.31,-89.93 399.68,-80.46"/>
<polygon fill="#63b8ff" stroke="#63b8ff" points="400.98,-83.75 407.88,-75.71 397.47,-77.69 400.98,-83.75"/>
</a>
</g>
</g>
<!-- Node12 -->
<g id="Node000012" class="node">
<title>Node12</title>
<g id="a_Node000012"><a xlink:title=" ">
<polygon fill="#e0e0e0" stroke="#999999" points="261.38,-74.5 212.38,-74.5 212.38,-55.25 261.38,-55.25 261.38,-74.5"/>
<text xml:space="preserve" text-anchor="middle" x="236.88" y="-61" font-family="Helvetica,sans-Serif" font-size="10.00">Error.inl</text>
</a>
</g>
</g>
<!-- Node9&#45;&gt;Node12 -->
<g id="edge16_Node000009_Node000012" class="edge">
<title>Node9&#45;&gt;Node12</title>
<g id="a_edge16_Node000009_Node000012"><a xlink:title=" ">
<path fill="none" stroke="#63b8ff" d="M316.59,-110.09C301.97,-101.98 280.25,-89.93 263.17,-80.46"/>
<polygon fill="#63b8ff" stroke="#63b8ff" points="265.01,-77.48 254.56,-75.69 261.61,-83.6 265.01,-77.48"/>
</a>
</g>
</g>
<!-- Node13 -->
<g id="Node000013" class="node">
<title>Node13</title>
<g id="a_Node000013"><a xlink:href="Error_8tpp.html" target="_top" xlink:title=" ">
<polygon fill="white" stroke="#666666" points="332.25,-74.5 279.5,-74.5 279.5,-55.25 332.25,-55.25 332.25,-74.5"/>
<text xml:space="preserve" text-anchor="middle" x="305.88" y="-61" font-family="Helvetica,sans-Serif" font-size="10.00">Error.tpp</text>
</a>
</g>
</g>
<!-- Node9&#45;&gt;Node13 -->
<g id="edge17_Node000009_Node000013" class="edge">
<title>Node9&#45;&gt;Node13</title>
<g id="a_edge17_Node000009_Node000013"><a xlink:title=" ">
<path fill="none" stroke="#63b8ff" d="M328.42,-110.33C324.92,-103.44 319.93,-93.59 315.53,-84.91"/>
<polygon fill="#63b8ff" stroke="#63b8ff" points="318.76,-83.55 311.11,-76.21 312.52,-86.71 318.76,-83.55"/>
</a>
</g>
</g>
</g>
</svg>
