<?xml version="1.0" encoding="UTF-8" standalone="no"?>
<!DOCTYPE svg PUBLIC "-//W3C//DTD SVG 1.1//EN"
 "http://www.w3.org/Graphics/SVG/1.1/DTD/svg11.dtd">
<!-- Generated by graphviz version 14.0.5 (20251129.0259)
 -->
<!-- Title: common/include/RType/ECS/Components/Audio/AudioSource.hpp Pages: 1 -->
<svg width="625pt" height="238pt"
 viewBox="0.00 0.00 625.00 238.00" xmlns="http://www.w3.org/2000/svg" xmlns:xlink="http://www.w3.org/1999/xlink">
<g id="graph0" class="graph" transform="scale(1 1) rotate(0) translate(4 234)">
<title>common/include/RType/ECS/Components/Audio/AudioSource.hpp</title>
<!-- Node1 -->
<g id="Node000001" class="node">
<title>Node1</title>
<g id="a_Node000001"><a xlink:title=" ">
<polygon fill="#999999" stroke="#666666" points="373.88,-230 247.62,-230 247.62,-188.25 373.88,-188.25 373.88,-230"/>
<text xml:space="preserve" text-anchor="start" x="255.62" y="-216.5" font-family="Helvetica,sans-Serif" font-size="10.00">common/include/RType</text>
<text xml:space="preserve" text-anchor="start" x="255.62" y="-205.25" font-family="Helvetica,sans-Serif" font-size="10.00">/ECS/Components/Audio</text>
<text xml:space="preserve" text-anchor="middle" x="310.75" y="-194" font-family="Helvetica,sans-Serif" font-size="10.00">/AudioSource.hpp</text>
</a>
</g>
</g>
<!-- Node2 -->
<g id="Node000002" class="node">
<title>Node2</title>
<g id="a_Node000002"><a xlink:href="Application_8hpp.html" target="_top" xlink:title=" ">
<polygon fill="white" stroke="#666666" points="194.25,-85.75 97.25,-85.75 97.25,-55.25 194.25,-55.25 194.25,-85.75"/>
<text xml:space="preserve" text-anchor="start" x="105.25" y="-72.25" font-family="Helvetica,sans-Serif" font-size="10.00">client/include/Core</text>
<text xml:space="preserve" text-anchor="middle" x="145.75" y="-61" font-family="Helvetica,sans-Serif" font-size="10.00">/Application.hpp</text>
</a>
</g>
</g>
<!-- Node1&#45;&gt;Node2 -->
<g id="edge1_Node000001_Node000002" class="edge">
<title>Node1&#45;&gt;Node2</title>
<g id="a_edge1_Node000001_Node000002"><a xlink:title=" ">
<path fill="none" stroke="#63b8ff" d="M236.51,-194.29C210.87,-186.04 184.02,-172.96 165.75,-152.25 149.41,-133.73 145.98,-103.92 145.5,-86.17"/>
<polygon fill="#63b8ff" stroke="#63b8ff" points="235.36,-197.6 245.95,-197.1 237.36,-190.89 235.36,-197.6"/>
</a>
</g>
</g>
<!-- Node5 -->
<g id="Node000005" class="node">
<title>Node5</title>
<g id="a_Node000005"><a xlink:href="AudioSystem_8hpp.html" target="_top" xlink:title=" ">
<polygon fill="white" stroke="#666666" points="289.25,-152.25 174.25,-152.25 174.25,-121.75 289.25,-121.75 289.25,-152.25"/>
<text xml:space="preserve" text-anchor="start" x="182.25" y="-138.75" font-family="Helvetica,sans-Serif" font-size="10.00">client/include/Systems</text>
<text xml:space="preserve" text-anchor="middle" x="231.75" y="-127.5" font-family="Helvetica,sans-Serif" font-size="10.00">/AudioSystem.hpp</text>
</a>
</g>
</g>
<!-- Node1&#45;&gt;Node5 -->
<g id="edge4_Node000001_Node000005" class="edge">
<title>Node1&#45;&gt;Node5</title>
<g id="a_edge4_Node000001_Node000005"><a xlink:title=" ">
<path fill="none" stroke="#63b8ff" d="M279.51,-180.4C268.74,-170.84 257.11,-160.52 248.03,-152.45"/>
<polygon fill="#63b8ff" stroke="#63b8ff" points="276.97,-182.82 286.77,-186.84 281.61,-177.58 276.97,-182.82"/>
</a>
</g>
</g>
<!-- Node7 -->
<g id="Node000007" class="node">
<title>Node7</title>
<g id="a_Node000007"><a xlink:href="MenuScene_8cpp.html" target="_top" xlink:title=" ">
<polygon fill="white" stroke="#666666" points="472.38,-146.62 307.12,-146.62 307.12,-127.38 472.38,-127.38 472.38,-146.62"/>
<text xml:space="preserve" text-anchor="middle" x="389.75" y="-133.12" font-family="Helvetica,sans-Serif" font-size="10.00">client/src/Scenes/MenuScene.cpp</text>
</a>
</g>
</g>
<!-- Node1&#45;&gt;Node7 -->
<g id="edge7_Node000001_Node000007" class="edge">
<title>Node1&#45;&gt;Node7</title>
<g id="a_edge7_Node000001_Node000007"><a xlink:title=" ">
<path fill="none" stroke="#63b8ff" d="M342.18,-180.23C355.63,-168.29 370.38,-155.19 379.83,-146.8"/>
<polygon fill="#63b8ff" stroke="#63b8ff" points="339.89,-177.58 334.73,-186.84 344.53,-182.82 339.89,-177.58"/>
</a>
</g>
</g>
<!-- Node8 -->
<g id="Node000008" class="node">
<title>Node8</title>
<g id="a_Node000008"><a xlink:href="PlayingScene_8cpp.html" target="_top" xlink:title=" ">
<polygon fill="white" stroke="#666666" points="617.25,-152.25 490.25,-152.25 490.25,-121.75 617.25,-121.75 617.25,-152.25"/>
<text xml:space="preserve" text-anchor="start" x="498.25" y="-138.75" font-family="Helvetica,sans-Serif" font-size="10.00">client/src/Scenes/Playing</text>
<text xml:space="preserve" text-anchor="middle" x="553.75" y="-127.5" font-family="Helvetica,sans-Serif" font-size="10.00">Scene.cpp</text>
</a>
</g>
</g>
<!-- Node1&#45;&gt;Node8 -->
<g id="edge8_Node000001_Node000008" class="edge">
<title>Node1&#45;&gt;Node8</title>
<g id="a_edge8_Node000001_Node000008"><a xlink:title=" ">
<path fill="none" stroke="#63b8ff" d="M385.33,-186.6C423.42,-175.61 468.79,-162.52 502.83,-152.69"/>
<polygon fill="#63b8ff" stroke="#63b8ff" points="384.37,-183.24 375.73,-189.37 386.31,-189.96 384.37,-183.24"/>
</a>
</g>
</g>
<!-- Node3 -->
<g id="Node000003" class="node">
<title>Node3</title>
<g id="a_Node000003"><a xlink:href="Application_8cpp.html" target="_top" xlink:title=" ">
<polygon fill="white" stroke="#666666" points="149.5,-19.25 0,-19.25 0,0 149.5,0 149.5,-19.25"/>
<text xml:space="preserve" text-anchor="middle" x="74.75" y="-5.75" font-family="Helvetica,sans-Serif" font-size="10.00">client/src/Core/Application.cpp</text>
</a>
</g>
</g>
<!-- Node2&#45;&gt;Node3 -->
<g id="edge2_Node000002_Node000003" class="edge">
<title>Node2&#45;&gt;Node3</title>
<g id="a_edge2_Node000002_Node000003"><a xlink:title=" ">
<path fill="none" stroke="#63b8ff" d="M119.62,-47.83C107.9,-38.12 94.72,-27.19 85.7,-19.7"/>
<polygon fill="#63b8ff" stroke="#63b8ff" points="117.1,-50.29 127.03,-53.98 121.57,-44.9 117.1,-50.29"/>
</a>
</g>
</g>
<!-- Node4 -->
<g id="Node000004" class="node">
<title>Node4</title>
<g id="a_Node000004"><a xlink:href="client_2src_2main_8cpp.html" target="_top" xlink:title=" ">
<polygon fill="white" stroke="#666666" points="266,-19.25 167.5,-19.25 167.5,0 266,0 266,-19.25"/>
<text xml:space="preserve" text-anchor="middle" x="216.75" y="-5.75" font-family="Helvetica,sans-Serif" font-size="10.00">client/src/main.cpp</text>
</a>
</g>
</g>
<!-- Node2&#45;&gt;Node4 -->
<g id="edge3_Node000002_Node000004" class="edge">
<title>Node2&#45;&gt;Node4</title>
<g id="a_edge3_Node000002_Node000004"><a xlink:title=" ">
<path fill="none" stroke="#63b8ff" d="M171.88,-47.83C183.6,-38.12 196.78,-27.19 205.8,-19.7"/>
<polygon fill="#63b8ff" stroke="#63b8ff" points="169.93,-44.9 164.47,-53.98 174.4,-50.29 169.93,-44.9"/>
</a>
</g>
</g>
<!-- Node5&#45;&gt;Node2 -->
<g id="edge5_Node000005_Node000002" class="edge">
<title>Node5&#45;&gt;Node2</title>
<g id="a_edge5_Node000005_Node000002"><a xlink:title=" ">
<path fill="none" stroke="#63b8ff" d="M203.14,-114.54C190.68,-105.19 176.39,-94.48 165.19,-86.08"/>
<polygon fill="#63b8ff" stroke="#63b8ff" points="200.92,-117.26 211.02,-120.46 205.12,-111.66 200.92,-117.26"/>
</a>
</g>
</g>
<!-- Node6 -->
<g id="Node000006" class="node">
<title>Node6</title>
<g id="a_Node000006"><a xlink:href="AudioSystem_8cpp.html" target="_top" xlink:title=" ">
<polygon fill="white" stroke="#666666" points="309.62,-85.75 211.88,-85.75 211.88,-55.25 309.62,-55.25 309.62,-85.75"/>
<text xml:space="preserve" text-anchor="start" x="219.88" y="-72.25" font-family="Helvetica,sans-Serif" font-size="10.00">client/src/Systems</text>
<text xml:space="preserve" text-anchor="middle" x="260.75" y="-61" font-family="Helvetica,sans-Serif" font-size="10.00">/AudioSystem.cpp</text>
</a>
</g>
</g>
<!-- Node5&#45;&gt;Node6 -->
<g id="edge6_Node000005_Node000006" class="edge">
<title>Node5&#45;&gt;Node6</title>
<g id="a_edge6_Node000005_Node000006"><a xlink:title=" ">
<path fill="none" stroke="#63b8ff" d="M243.03,-110.91C246.81,-102.5 250.9,-93.41 254.2,-86.08"/>
<polygon fill="#63b8ff" stroke="#63b8ff" points="239.86,-109.43 238.95,-119.98 246.24,-112.3 239.86,-109.43"/>
</a>
</g>
</g>
</g>
</svg>
