<?xml version="1.0" encoding="UTF-8" standalone="no"?>
<!DOCTYPE svg PUBLIC "-//W3C//DTD SVG 1.1//EN"
 "http://www.w3.org/Graphics/SVG/1.1/DTD/svg11.dtd">
<!-- Generated by graphviz version 14.0.5 (20251129.0259)
 -->
<!-- Title: common/include/RType/ECS/Components/Boomerang.hpp Pages: 1 -->
<svg width="635pt" height="227pt"
 viewBox="0.00 0.00 635.00 227.00" xmlns="http://www.w3.org/2000/svg" xmlns:xlink="http://www.w3.org/1999/xlink">
<g id="graph0" class="graph" transform="scale(1 1) rotate(0) translate(4 222.75)">
<title>common/include/RType/ECS/Components/Boomerang.hpp</title>
<!-- Node1 -->
<g id="Node000001" class="node">
<title>Node1</title>
<g id="a_Node000001"><a xlink:title=" ">
<polygon fill="#999999" stroke="#666666" points="364.38,-218.75 194.62,-218.75 194.62,-188.25 364.38,-188.25 364.38,-218.75"/>
<text xml:space="preserve" text-anchor="start" x="202.62" y="-205.25" font-family="Helvetica,sans-Serif" font-size="10.00">common/include/RType</text>
<text xml:space="preserve" text-anchor="middle" x="279.5" y="-194" font-family="Helvetica,sans-Serif" font-size="10.00">/ECS/Components/Boomerang.hpp</text>
</a>
</g>
</g>
<!-- Node2 -->
<g id="Node000002" class="node">
<title>Node2</title>
<g id="a_Node000002"><a xlink:href="GameManager_8hpp.html" target="_top" xlink:title=" ">
<polygon fill="white" stroke="#666666" points="245.5,-85.75 139.5,-85.75 139.5,-55.25 245.5,-55.25 245.5,-85.75"/>
<text xml:space="preserve" text-anchor="start" x="147.5" y="-72.25" font-family="Helvetica,sans-Serif" font-size="10.00">server/include/Game</text>
<text xml:space="preserve" text-anchor="middle" x="192.5" y="-61" font-family="Helvetica,sans-Serif" font-size="10.00">/GameManager.hpp</text>
</a>
</g>
</g>
<!-- Node1&#45;&gt;Node2 -->
<g id="edge1_Node000001_Node000002" class="edge">
<title>Node1&#45;&gt;Node2</title>
<g id="a_edge1_Node000001_Node000002"><a xlink:title=" ">
<path fill="none" stroke="#63b8ff" d="M241.86,-181.77C230.59,-173.88 219.2,-163.93 211.5,-152.25 198.11,-131.93 194.12,-103.25 192.95,-86.1"/>
<polygon fill="#63b8ff" stroke="#63b8ff" points="239.66,-184.51 249.95,-187.07 243.5,-178.66 239.66,-184.51"/>
</a>
</g>
</g>
<!-- Node5 -->
<g id="Node000005" class="node">
<title>Node5</title>
<g id="a_Node000005"><a xlink:href="BoomerangSystem_8hpp.html" target="_top" xlink:title=" ">
<polygon fill="white" stroke="#666666" points="164,-152.25 43,-152.25 43,-121.75 164,-121.75 164,-152.25"/>
<text xml:space="preserve" text-anchor="start" x="51" y="-138.75" font-family="Helvetica,sans-Serif" font-size="10.00">server/include/Systems</text>
<text xml:space="preserve" text-anchor="middle" x="103.5" y="-127.5" font-family="Helvetica,sans-Serif" font-size="10.00">/BoomerangSystem.hpp</text>
</a>
</g>
</g>
<!-- Node1&#45;&gt;Node5 -->
<g id="edge4_Node000001_Node000005" class="edge">
<title>Node1&#45;&gt;Node5</title>
<g id="a_edge4_Node000001_Node000005"><a xlink:title=" ">
<path fill="none" stroke="#63b8ff" d="M229.1,-184.03C201.96,-174.08 168.95,-161.99 143.58,-152.69"/>
<polygon fill="#63b8ff" stroke="#63b8ff" points="227.55,-187.19 238.14,-187.34 229.96,-180.62 227.55,-187.19"/>
</a>
</g>
</g>
<!-- Node7 -->
<g id="Node000007" class="node">
<title>Node7</title>
<g id="a_Node000007"><a xlink:href="CollisionSystem_8hpp.html" target="_top" xlink:title=" ">
<polygon fill="white" stroke="#666666" points="338.88,-152.25 220.12,-152.25 220.12,-121.75 338.88,-121.75 338.88,-152.25"/>
<text xml:space="preserve" text-anchor="start" x="228.12" y="-138.75" font-family="Helvetica,sans-Serif" font-size="10.00">server/include/Systems</text>
<text xml:space="preserve" text-anchor="middle" x="279.5" y="-127.5" font-family="Helvetica,sans-Serif" font-size="10.00">/CollisionSystem.hpp</text>
</a>
</g>
</g>
<!-- Node1&#45;&gt;Node7 -->
<g id="edge7_Node000001_Node000007" class="edge">
<title>Node1&#45;&gt;Node7</title>
<g id="a_edge7_Node000001_Node000007"><a xlink:title=" ">
<path fill="none" stroke="#63b8ff" d="M279.5,-176.56C279.5,-168.39 279.5,-159.66 279.5,-152.58"/>
<polygon fill="#63b8ff" stroke="#63b8ff" points="276,-176.35 279.5,-186.35 283,-176.35 276,-176.35"/>
</a>
</g>
</g>
<!-- Node9 -->
<g id="Node000009" class="node">
<title>Node9</title>
<g id="a_Node000009"><a xlink:href="EnemyShootSystem_8cpp.html" target="_top" xlink:title=" ">
<polygon fill="white" stroke="#666666" points="484.38,-152.25 356.62,-152.25 356.62,-121.75 484.38,-121.75 484.38,-152.25"/>
<text xml:space="preserve" text-anchor="start" x="364.62" y="-138.75" font-family="Helvetica,sans-Serif" font-size="10.00">server/src/Systems</text>
<text xml:space="preserve" text-anchor="middle" x="420.5" y="-127.5" font-family="Helvetica,sans-Serif" font-size="10.00">/EnemyShootSystem.cpp</text>
</a>
</g>
</g>
<!-- Node1&#45;&gt;Node9 -->
<g id="edge10_Node000001_Node000009" class="edge">
<title>Node1&#45;&gt;Node9</title>
<g id="a_edge10_Node000001_Node000009"><a xlink:title=" ">
<path fill="none" stroke="#63b8ff" d="M321.95,-183.08C343.37,-173.28 368.92,-161.6 388.63,-152.58"/>
<polygon fill="#63b8ff" stroke="#63b8ff" points="320.51,-179.89 312.87,-187.23 323.42,-186.26 320.51,-179.89"/>
</a>
</g>
</g>
<!-- Node10 -->
<g id="Node000010" class="node">
<title>Node10</title>
<g id="a_Node000010"><a xlink:href="PlayerShootSystem_8cpp.html" target="_top" xlink:title=" ">
<polygon fill="white" stroke="#666666" points="626.88,-152.25 502.12,-152.25 502.12,-121.75 626.88,-121.75 626.88,-152.25"/>
<text xml:space="preserve" text-anchor="start" x="510.12" y="-138.75" font-family="Helvetica,sans-Serif" font-size="10.00">server/src/Systems</text>
<text xml:space="preserve" text-anchor="middle" x="564.5" y="-127.5" font-family="Helvetica,sans-Serif" font-size="10.00">/PlayerShootSystem.cpp</text>
</a>
</g>
</g>
<!-- Node1&#45;&gt;Node10 -->
<g id="edge11_Node000001_Node000010" class="edge">
<title>Node1&#45;&gt;Node10</title>
<g id="a_edge11_Node000001_Node000010"><a xlink:title=" ">
<path fill="none" stroke="#63b8ff" d="M355.57,-185.28C401.24,-174.95 458.64,-161.96 501.71,-152.21"/>
<polygon fill="#63b8ff" stroke="#63b8ff" points="354.98,-181.83 346,-187.45 356.53,-188.66 354.98,-181.83"/>
</a>
</g>
</g>
<!-- Node3 -->
<g id="Node000003" class="node">
<title>Node3</title>
<g id="a_Node000003"><a xlink:href="GameManager_8cpp.html" target="_top" xlink:title=" ">
<polygon fill="white" stroke="#666666" points="201.25,-19.25 27.75,-19.25 27.75,0 201.25,0 201.25,-19.25"/>
<text xml:space="preserve" text-anchor="middle" x="114.5" y="-5.75" font-family="Helvetica,sans-Serif" font-size="10.00">server/src/Game/GameManager.cpp</text>
</a>
</g>
</g>
<!-- Node2&#45;&gt;Node3 -->
<g id="edge2_Node000002_Node000003" class="edge">
<title>Node2&#45;&gt;Node3</title>
<g id="a_edge2_Node000002_Node000003"><a xlink:title=" ">
<path fill="none" stroke="#63b8ff" d="M164.17,-48.12C151.21,-38.33 136.54,-27.26 126.52,-19.7"/>
<polygon fill="#63b8ff" stroke="#63b8ff" points="161.92,-50.8 172.01,-54.03 166.14,-45.22 161.92,-50.8"/>
</a>
</g>
</g>
<!-- Node4 -->
<g id="Node000004" class="node">
<title>Node4</title>
<g id="a_Node000004"><a xlink:href="server_2src_2main_8cpp.html" target="_top" xlink:title=" ">
<polygon fill="white" stroke="#666666" points="321.62,-19.25 219.38,-19.25 219.38,0 321.62,0 321.62,-19.25"/>
<text xml:space="preserve" text-anchor="middle" x="270.5" y="-5.75" font-family="Helvetica,sans-Serif" font-size="10.00">server/src/main.cpp</text>
</a>
</g>
</g>
<!-- Node2&#45;&gt;Node4 -->
<g id="edge3_Node000002_Node000004" class="edge">
<title>Node2&#45;&gt;Node4</title>
<g id="a_edge3_Node000002_Node000004"><a xlink:title=" ">
<path fill="none" stroke="#63b8ff" d="M220.83,-48.12C233.79,-38.33 248.46,-27.26 258.48,-19.7"/>
<polygon fill="#63b8ff" stroke="#63b8ff" points="218.86,-45.22 212.99,-54.03 223.08,-50.8 218.86,-45.22"/>
</a>
</g>
</g>
<!-- Node5&#45;&gt;Node2 -->
<g id="edge5_Node000005_Node000002" class="edge">
<title>Node5&#45;&gt;Node2</title>
<g id="a_edge5_Node000005_Node000002"><a xlink:title=" ">
<path fill="none" stroke="#63b8ff" d="M132.73,-114.82C145.72,-105.41 160.68,-94.56 172.38,-86.08"/>
<polygon fill="#63b8ff" stroke="#63b8ff" points="130.96,-111.77 124.92,-120.48 135.07,-117.44 130.96,-111.77"/>
</a>
</g>
</g>
<!-- Node6 -->
<g id="Node000006" class="node">
<title>Node6</title>
<g id="a_Node000006"><a xlink:href="BoomerangSystem_8cpp.html" target="_top" xlink:title=" ">
<polygon fill="white" stroke="#666666" points="121,-85.75 0,-85.75 0,-55.25 121,-55.25 121,-85.75"/>
<text xml:space="preserve" text-anchor="start" x="8" y="-72.25" font-family="Helvetica,sans-Serif" font-size="10.00">server/src/Systems</text>
<text xml:space="preserve" text-anchor="middle" x="60.5" y="-61" font-family="Helvetica,sans-Serif" font-size="10.00">/BoomerangSystem.cpp</text>
</a>
</g>
</g>
<!-- Node5&#45;&gt;Node6 -->
<g id="edge6_Node000005_Node000006" class="edge">
<title>Node5&#45;&gt;Node6</title>
<g id="a_edge6_Node000005_Node000006"><a xlink:title=" ">
<path fill="none" stroke="#63b8ff" d="M87.53,-112.04C81.71,-103.32 75.33,-93.74 70.22,-86.08"/>
<polygon fill="#63b8ff" stroke="#63b8ff" points="84.44,-113.73 92.9,-120.1 90.27,-109.84 84.44,-113.73"/>
</a>
</g>
</g>
<!-- Node7&#45;&gt;Node2 -->
<g id="edge8_Node000007_Node000002" class="edge">
<title>Node7&#45;&gt;Node2</title>
<g id="a_edge8_Node000007_Node000002"><a xlink:title=" ">
<path fill="none" stroke="#63b8ff" d="M250.56,-114.54C237.95,-105.19 223.5,-94.48 212.16,-86.08"/>
<polygon fill="#63b8ff" stroke="#63b8ff" points="248.42,-117.32 258.54,-120.46 252.59,-111.7 248.42,-117.32"/>
</a>
</g>
</g>
<!-- Node8 -->
<g id="Node000008" class="node">
<title>Node8</title>
<g id="a_Node000008"><a xlink:href="CollisionSystem_8cpp.html" target="_top" xlink:title=" ">
<polygon fill="white" stroke="#666666" points="373,-85.75 264,-85.75 264,-55.25 373,-55.25 373,-85.75"/>
<text xml:space="preserve" text-anchor="start" x="272" y="-72.25" font-family="Helvetica,sans-Serif" font-size="10.00">server/src/Systems</text>
<text xml:space="preserve" text-anchor="middle" x="318.5" y="-61" font-family="Helvetica,sans-Serif" font-size="10.00">/CollisionSystem.cpp</text>
</a>
</g>
</g>
<!-- Node7&#45;&gt;Node8 -->
<g id="edge9_Node000007_Node000008" class="edge">
<title>Node7&#45;&gt;Node8</title>
<g id="a_edge9_Node000007_Node000008"><a xlink:title=" ">
<path fill="none" stroke="#63b8ff" d="M294.16,-111.76C299.38,-103.12 305.1,-93.66 309.69,-86.08"/>
<polygon fill="#63b8ff" stroke="#63b8ff" points="291.31,-109.7 289.13,-120.07 297.3,-113.32 291.31,-109.7"/>
</a>
</g>
</g>
</g>
</svg>
