<?xml version="1.0" encoding="UTF-8" standalone="no"?>
<!DOCTYPE svg PUBLIC "-//W3C//DTD SVG 1.1//EN"
 "http://www.w3.org/Graphics/SVG/1.1/DTD/svg11.dtd">
<!-- Generated by graphviz version 14.0.5 (20251129.0259)
 -->
<!-- Title: server/include/Systems/BoomerangSystem.hpp Pages: 1 -->
<svg width="365pt" height="160pt"
 viewBox="0.00 0.00 365.00 160.00" xmlns="http://www.w3.org/2000/svg" xmlns:xlink="http://www.w3.org/1999/xlink">
<g id="graph0" class="graph" transform="scale(1 1) rotate(0) translate(4 156.25)">
<title>server/include/Systems/BoomerangSystem.hpp</title>
<!-- Node1 -->
<g id="Node000001" class="node">
<title>Node1</title>
<g id="a_Node000001"><a xlink:title=" ">
<polygon fill="#999999" stroke="#666666" points="291.25,-152.25 170.25,-152.25 170.25,-121.75 291.25,-121.75 291.25,-152.25"/>
<text xml:space="preserve" text-anchor="start" x="178.25" y="-138.75" font-family="Helvetica,sans-Serif" font-size="10.00">server/include/Systems</text>
<text xml:space="preserve" text-anchor="middle" x="230.75" y="-127.5" font-family="Helvetica,sans-Serif" font-size="10.00">/BoomerangSystem.hpp</text>
</a>
</g>
</g>
<!-- Node2 -->
<g id="Node000002" class="node">
<title>Node2</title>
<g id="a_Node000002"><a xlink:href="GameManager_8hpp.html" target="_top" xlink:title=" ">
<polygon fill="white" stroke="#666666" points="217.75,-85.75 111.75,-85.75 111.75,-55.25 217.75,-55.25 217.75,-85.75"/>
<text xml:space="preserve" text-anchor="start" x="119.75" y="-72.25" font-family="Helvetica,sans-Serif" font-size="10.00">server/include/Game</text>
<text xml:space="preserve" text-anchor="middle" x="164.75" y="-61" font-family="Helvetica,sans-Serif" font-size="10.00">/GameManager.hpp</text>
</a>
</g>
</g>
<!-- Node1&#45;&gt;Node2 -->
<g id="edge1_Node000001_Node000002" class="edge">
<title>Node1&#45;&gt;Node2</title>
<g id="a_edge1_Node000001_Node000002"><a xlink:title=" ">
<path fill="none" stroke="#63b8ff" d="M207.66,-113.44C198.37,-104.36 187.93,-94.15 179.67,-86.08"/>
<polygon fill="#63b8ff" stroke="#63b8ff" points="205.09,-115.82 214.69,-120.31 209.99,-110.81 205.09,-115.82"/>
</a>
</g>
</g>
<!-- Node5 -->
<g id="Node000005" class="node">
<title>Node5</title>
<g id="a_Node000005"><a xlink:href="BoomerangSystem_8cpp.html" target="_top" xlink:title=" ">
<polygon fill="white" stroke="#666666" points="357.25,-85.75 236.25,-85.75 236.25,-55.25 357.25,-55.25 357.25,-85.75"/>
<text xml:space="preserve" text-anchor="start" x="244.25" y="-72.25" font-family="Helvetica,sans-Serif" font-size="10.00">server/src/Systems</text>
<text xml:space="preserve" text-anchor="middle" x="296.75" y="-61" font-family="Helvetica,sans-Serif" font-size="10.00">/BoomerangSystem.cpp</text>
</a>
</g>
</g>
<!-- Node1&#45;&gt;Node5 -->
<g id="edge4_Node000001_Node000005" class="edge">
<title>Node1&#45;&gt;Node5</title>
<g id="a_edge4_Node000001_Node000005"><a xlink:title=" ">
<path fill="none" stroke="#63b8ff" d="M253.84,-113.44C263.13,-104.36 273.57,-94.15 281.83,-86.08"/>
<polygon fill="#63b8ff" stroke="#63b8ff" points="251.51,-110.81 246.81,-120.31 256.41,-115.82 251.51,-110.81"/>
</a>
</g>
</g>
<!-- Node3 -->
<g id="Node000003" class="node">
<title>Node3</title>
<g id="a_Node000003"><a xlink:href="GameManager_8cpp.html" target="_top" xlink:title=" ">
<polygon fill="white" stroke="#666666" points="173.5,-19.25 0,-19.25 0,0 173.5,0 173.5,-19.25"/>
<text xml:space="preserve" text-anchor="middle" x="86.75" y="-5.75" font-family="Helvetica,sans-Serif" font-size="10.00">server/src/Game/GameManager.cpp</text>
</a>
</g>
</g>
<!-- Node2&#45;&gt;Node3 -->
<g id="edge2_Node000002_Node000003" class="edge">
<title>Node2&#45;&gt;Node3</title>
<g id="a_edge2_Node000002_Node000003"><a xlink:title=" ">
<path fill="none" stroke="#63b8ff" d="M136.42,-48.12C123.46,-38.33 108.79,-27.26 98.77,-19.7"/>
<polygon fill="#63b8ff" stroke="#63b8ff" points="134.17,-50.8 144.26,-54.03 138.39,-45.22 134.17,-50.8"/>
</a>
</g>
</g>
<!-- Node4 -->
<g id="Node000004" class="node">
<title>Node4</title>
<g id="a_Node000004"><a xlink:href="server_2src_2main_8cpp.html" target="_top" xlink:title=" ">
<polygon fill="white" stroke="#666666" points="293.88,-19.25 191.62,-19.25 191.62,0 293.88,0 293.88,-19.25"/>
<text xml:space="preserve" text-anchor="middle" x="242.75" y="-5.75" font-family="Helvetica,sans-Serif" font-size="10.00">server/src/main.cpp</text>
</a>
</g>
</g>
<!-- Node2&#45;&gt;Node4 -->
<g id="edge3_Node000002_Node000004" class="edge">
<title>Node2&#45;&gt;Node4</title>
<g id="a_edge3_Node000002_Node000004"><a xlink:title=" ">
<path fill="none" stroke="#63b8ff" d="M193.08,-48.12C206.04,-38.33 220.71,-27.26 230.73,-19.7"/>
<polygon fill="#63b8ff" stroke="#63b8ff" points="191.11,-45.22 185.24,-54.03 195.33,-50.8 191.11,-45.22"/>
</a>
</g>
</g>
</g>
</svg>
