<?xml version="1.0" encoding="UTF-8" standalone="no"?>
<!DOCTYPE svg PUBLIC "-//W3C//DTD SVG 1.1//EN"
 "http://www.w3.org/Graphics/SVG/1.1/DTD/svg11.dtd">
<!-- Generated by graphviz version 14.0.5 (20251129.0259)
 -->
<!-- Title: common/include/RType/ECS/Components/BoundingBox.hpp Pages: 1 -->
<svg width="1571pt" height="293pt"
 viewBox="0.00 0.00 1571.00 293.00" xmlns="http://www.w3.org/2000/svg" xmlns:xlink="http://www.w3.org/1999/xlink">
<g id="graph0" class="graph" transform="scale(1 1) rotate(0) translate(4 289.25)">
<title>common/include/RType/ECS/Components/BoundingBox.hpp</title>
<!-- Node1 -->
<g id="Node000001" class="node">
<title>Node1</title>
<g id="a_Node000001"><a xlink:title=" ">
<polygon fill="#999999" stroke="#666666" points="1005.75,-285.25 827.75,-285.25 827.75,-254.75 1005.75,-254.75 1005.75,-285.25"/>
<text xml:space="preserve" text-anchor="start" x="835.75" y="-271.75" font-family="Helvetica,sans-Serif" font-size="10.00">common/include/RType</text>
<text xml:space="preserve" text-anchor="middle" x="916.75" y="-260.5" font-family="Helvetica,sans-Serif" font-size="10.00">/ECS/Components/BoundingBox.hpp</text>
</a>
</g>
</g>
<!-- Node2 -->
<g id="Node000002" class="node">
<title>Node2</title>
<g id="a_Node000002"><a xlink:href="RenderSystem_8hpp.html" target="_top" xlink:title=" ">
<polygon fill="white" stroke="#666666" points="360.25,-218.75 245.25,-218.75 245.25,-188.25 360.25,-188.25 360.25,-218.75"/>
<text xml:space="preserve" text-anchor="start" x="253.25" y="-205.25" font-family="Helvetica,sans-Serif" font-size="10.00">client/include/Systems</text>
<text xml:space="preserve" text-anchor="middle" x="302.75" y="-194" font-family="Helvetica,sans-Serif" font-size="10.00">/RenderSystem.hpp</text>
</a>
</g>
</g>
<!-- Node1&#45;&gt;Node2 -->
<g id="edge1_Node000001_Node000002" class="edge">
<title>Node1&#45;&gt;Node2</title>
<g id="a_edge1_Node000001_Node000002"><a xlink:title=" ">
<path fill="none" stroke="#63b8ff" d="M815.88,-263.31C705.8,-256.27 524.56,-242.24 369.75,-218.75 366.69,-218.29 363.57,-217.77 360.41,-217.22"/>
<polygon fill="#63b8ff" stroke="#63b8ff" points="815.59,-266.8 825.79,-263.94 816.03,-259.81 815.59,-266.8"/>
</a>
</g>
</g>
<!-- Node8 -->
<g id="Node000008" class="node">
<title>Node8</title>
<g id="a_Node000008"><a xlink:href="client_2src_2Systems_2NetworkSyncSystem_8cpp.html" target="_top" xlink:title=" ">
<polygon fill="white" stroke="#666666" points="509.12,-218.75 378.38,-218.75 378.38,-188.25 509.12,-188.25 509.12,-218.75"/>
<text xml:space="preserve" text-anchor="start" x="386.38" y="-205.25" font-family="Helvetica,sans-Serif" font-size="10.00">client/src/Systems</text>
<text xml:space="preserve" text-anchor="middle" x="443.75" y="-194" font-family="Helvetica,sans-Serif" font-size="10.00">/NetworkSyncSystem.cpp</text>
</a>
</g>
</g>
<!-- Node1&#45;&gt;Node8 -->
<g id="edge7_Node000001_Node000008" class="edge">
<title>Node1&#45;&gt;Node8</title>
<g id="a_edge7_Node000001_Node000008"><a xlink:title=" ">
<path fill="none" stroke="#63b8ff" d="M816.47,-258.09C735.85,-248.89 619.77,-234.71 518.75,-218.75 515.74,-218.27 512.66,-217.77 509.56,-217.24"/>
<polygon fill="#63b8ff" stroke="#63b8ff" points="815.78,-261.53 826.11,-259.18 816.56,-254.57 815.78,-261.53"/>
</a>
</g>
</g>
<!-- Node9 -->
<g id="Node000009" class="node">
<title>Node9</title>
<g id="a_Node000009"><a xlink:href="ShieldSystem_8cpp.html" target="_top" xlink:title=" ">
<polygon fill="white" stroke="#666666" points="626,-218.75 527.5,-218.75 527.5,-188.25 626,-188.25 626,-218.75"/>
<text xml:space="preserve" text-anchor="start" x="535.5" y="-205.25" font-family="Helvetica,sans-Serif" font-size="10.00">client/src/Systems</text>
<text xml:space="preserve" text-anchor="middle" x="576.75" y="-194" font-family="Helvetica,sans-Serif" font-size="10.00">/ShieldSystem.cpp</text>
</a>
</g>
</g>
<!-- Node1&#45;&gt;Node9 -->
<g id="edge8_Node000001_Node000009" class="edge">
<title>Node1&#45;&gt;Node9</title>
<g id="a_edge8_Node000001_Node000009"><a xlink:title=" ">
<path fill="none" stroke="#63b8ff" d="M816.26,-252.71C762.29,-243.56 694.7,-231.44 634.75,-218.75 632.01,-218.17 629.2,-217.55 626.38,-216.92"/>
<polygon fill="#63b8ff" stroke="#63b8ff" points="815.62,-256.16 826.07,-254.37 816.79,-249.25 815.62,-256.16"/>
</a>
</g>
</g>
<!-- Node10 -->
<g id="Node000010" class="node">
<title>Node10</title>
<g id="a_Node000010"><a xlink:href="GameManager_8hpp.html" target="_top" xlink:title=" ">
<polygon fill="white" stroke="#666666" points="1131.75,-85.75 1025.75,-85.75 1025.75,-55.25 1131.75,-55.25 1131.75,-85.75"/>
<text xml:space="preserve" text-anchor="start" x="1033.75" y="-72.25" font-family="Helvetica,sans-Serif" font-size="10.00">server/include/Game</text>
<text xml:space="preserve" text-anchor="middle" x="1078.75" y="-61" font-family="Helvetica,sans-Serif" font-size="10.00">/GameManager.hpp</text>
</a>
</g>
</g>
<!-- Node1&#45;&gt;Node10 -->
<g id="edge9_Node000001_Node000010" class="edge">
<title>Node1&#45;&gt;Node10</title>
<g id="a_edge9_Node000001_Node000010"><a xlink:title=" ">
<path fill="none" stroke="#63b8ff" d="M1009.23,-250.19C1026.13,-242.9 1042.08,-232.78 1053.75,-218.75 1086.08,-179.87 1083.66,-114.79 1080.68,-85.98"/>
<polygon fill="#63b8ff" stroke="#63b8ff" points="1008.04,-246.89 1000.02,-253.82 1010.61,-253.41 1008.04,-246.89"/>
</a>
</g>
</g>
<!-- Node13 -->
<g id="Node000013" class="node">
<title>Node13</title>
<g id="a_Node000013"><a xlink:href="CollisionSystem_8hpp.html" target="_top" xlink:title=" ">
<polygon fill="white" stroke="#666666" points="1045.12,-218.75 926.38,-218.75 926.38,-188.25 1045.12,-188.25 1045.12,-218.75"/>
<text xml:space="preserve" text-anchor="start" x="934.38" y="-205.25" font-family="Helvetica,sans-Serif" font-size="10.00">server/include/Systems</text>
<text xml:space="preserve" text-anchor="middle" x="985.75" y="-194" font-family="Helvetica,sans-Serif" font-size="10.00">/CollisionSystem.hpp</text>
</a>
</g>
</g>
<!-- Node1&#45;&gt;Node13 -->
<g id="edge12_Node000001_Node000013" class="edge">
<title>Node1&#45;&gt;Node13</title>
<g id="a_edge12_Node000001_Node000013"><a xlink:title=" ">
<path fill="none" stroke="#63b8ff" d="M940.59,-246.71C950.38,-237.57 961.43,-227.23 970.15,-219.08"/>
<polygon fill="#63b8ff" stroke="#63b8ff" points="938.43,-243.94 933.51,-253.33 943.21,-249.06 938.43,-243.94"/>
</a>
</g>
</g>
<!-- Node15 -->
<g id="Node000015" class="node">
<title>Node15</title>
<g id="a_Node000015"><a xlink:href="EnemyShootSystem_8hpp.html" target="_top" xlink:title=" ">
<polygon fill="white" stroke="#666666" points="771.62,-218.75 643.88,-218.75 643.88,-188.25 771.62,-188.25 771.62,-218.75"/>
<text xml:space="preserve" text-anchor="start" x="651.88" y="-205.25" font-family="Helvetica,sans-Serif" font-size="10.00">server/include/Systems</text>
<text xml:space="preserve" text-anchor="middle" x="707.75" y="-194" font-family="Helvetica,sans-Serif" font-size="10.00">/EnemyShootSystem.hpp</text>
</a>
</g>
</g>
<!-- Node1&#45;&gt;Node15 -->
<g id="edge15_Node000001_Node000015" class="edge">
<title>Node1&#45;&gt;Node15</title>
<g id="a_edge15_Node000001_Node000015"><a xlink:title=" ">
<path fill="none" stroke="#63b8ff" d="M858.34,-250.97C825.81,-240.93 785.82,-228.59 755.23,-219.15"/>
<polygon fill="#63b8ff" stroke="#63b8ff" points="857.03,-254.23 867.62,-253.84 859.09,-247.54 857.03,-254.23"/>
</a>
</g>
</g>
<!-- Node17 -->
<g id="Node000017" class="node">
<title>Node17</title>
<g id="a_Node000017"><a xlink:href="EntitySystem_8hpp.html" target="_top" xlink:title=" ">
<polygon fill="white" stroke="#666666" points="1240.12,-218.75 1121.38,-218.75 1121.38,-188.25 1240.12,-188.25 1240.12,-218.75"/>
<text xml:space="preserve" text-anchor="start" x="1129.38" y="-205.25" font-family="Helvetica,sans-Serif" font-size="10.00">server/include/Systems</text>
<text xml:space="preserve" text-anchor="middle" x="1180.75" y="-194" font-family="Helvetica,sans-Serif" font-size="10.00">/EntitySystem.hpp</text>
</a>
</g>
</g>
<!-- Node1&#45;&gt;Node17 -->
<g id="edge18_Node000001_Node000017" class="edge">
<title>Node1&#45;&gt;Node17</title>
<g id="a_edge18_Node000001_Node000017"><a xlink:title=" ">
<path fill="none" stroke="#63b8ff" d="M988.17,-251.55C1029.84,-241.37 1081.79,-228.68 1121.23,-219.04"/>
<polygon fill="#63b8ff" stroke="#63b8ff" points="987.34,-248.15 978.46,-253.92 989,-254.95 987.34,-248.15"/>
</a>
</g>
</g>
<!-- Node21 -->
<g id="Node000021" class="node">
<title>Node21</title>
<g id="a_Node000021"><a xlink:href="MovementSystem_8hpp.html" target="_top" xlink:title=" ">
<polygon fill="white" stroke="#666666" points="908.12,-218.75 789.38,-218.75 789.38,-188.25 908.12,-188.25 908.12,-218.75"/>
<text xml:space="preserve" text-anchor="start" x="797.38" y="-205.25" font-family="Helvetica,sans-Serif" font-size="10.00">server/include/Systems</text>
<text xml:space="preserve" text-anchor="middle" x="848.75" y="-194" font-family="Helvetica,sans-Serif" font-size="10.00">/MovementSystem.hpp</text>
</a>
</g>
</g>
<!-- Node1&#45;&gt;Node21 -->
<g id="edge24_Node000001_Node000021" class="edge">
<title>Node1&#45;&gt;Node21</title>
<g id="a_edge24_Node000001_Node000021"><a xlink:title=" ">
<path fill="none" stroke="#63b8ff" d="M893.26,-246.71C883.61,-237.57 872.72,-227.23 864.12,-219.08"/>
<polygon fill="#63b8ff" stroke="#63b8ff" points="890.56,-248.98 900.22,-253.32 895.37,-243.9 890.56,-248.98"/>
</a>
</g>
</g>
<!-- Node23 -->
<g id="Node000023" class="node">
<title>Node23</title>
<g id="a_Node000023"><a xlink:href="PlayerShootSystem_8hpp.html" target="_top" xlink:title=" ">
<polygon fill="white" stroke="#666666" points="1473.12,-218.75 1348.38,-218.75 1348.38,-188.25 1473.12,-188.25 1473.12,-218.75"/>
<text xml:space="preserve" text-anchor="start" x="1356.38" y="-205.25" font-family="Helvetica,sans-Serif" font-size="10.00">server/include/Systems</text>
<text xml:space="preserve" text-anchor="middle" x="1410.75" y="-194" font-family="Helvetica,sans-Serif" font-size="10.00">/PlayerShootSystem.hpp</text>
</a>
</g>
</g>
<!-- Node1&#45;&gt;Node23 -->
<g id="edge27_Node000001_Node000023" class="edge">
<title>Node1&#45;&gt;Node23</title>
<g id="a_edge27_Node000001_Node000023"><a xlink:title=" ">
<path fill="none" stroke="#63b8ff" d="M1017.45,-255.85C1116.58,-242.91 1264.88,-223.55 1348.17,-212.67"/>
<polygon fill="#63b8ff" stroke="#63b8ff" points="1017.17,-252.36 1007.71,-257.12 1018.08,-259.3 1017.17,-252.36"/>
</a>
</g>
</g>
<!-- Node24 -->
<g id="Node000024" class="node">
<title>Node24</title>
<g id="a_Node000024"><a xlink:href="PlayerShootSystem_8cpp.html" target="_top" xlink:title=" ">
<polygon fill="white" stroke="#666666" points="1563.12,-152.25 1438.38,-152.25 1438.38,-121.75 1563.12,-121.75 1563.12,-152.25"/>
<text xml:space="preserve" text-anchor="start" x="1446.38" y="-138.75" font-family="Helvetica,sans-Serif" font-size="10.00">server/src/Systems</text>
<text xml:space="preserve" text-anchor="middle" x="1500.75" y="-127.5" font-family="Helvetica,sans-Serif" font-size="10.00">/PlayerShootSystem.cpp</text>
</a>
</g>
</g>
<!-- Node1&#45;&gt;Node24 -->
<g id="edge30_Node000001_Node000024" class="edge">
<title>Node1&#45;&gt;Node24</title>
<g id="a_edge30_Node000001_Node000024"><a xlink:title=" ">
<path fill="none" stroke="#63b8ff" d="M1017.21,-266.36C1170.19,-261.42 1447.49,-248.44 1481.75,-218.75 1500.69,-202.34 1502.66,-170.93 1501.98,-152.49"/>
<polygon fill="#63b8ff" stroke="#63b8ff" points="1017.36,-262.86 1007.48,-266.67 1017.58,-269.85 1017.36,-262.86"/>
</a>
</g>
</g>
<!-- Node3 -->
<g id="Node000003" class="node">
<title>Node3</title>
<g id="a_Node000003"><a xlink:href="Application_8hpp.html" target="_top" xlink:title=" ">
<polygon fill="white" stroke="#666666" points="194.25,-152.25 97.25,-152.25 97.25,-121.75 194.25,-121.75 194.25,-152.25"/>
<text xml:space="preserve" text-anchor="start" x="105.25" y="-138.75" font-family="Helvetica,sans-Serif" font-size="10.00">client/include/Core</text>
<text xml:space="preserve" text-anchor="middle" x="145.75" y="-127.5" font-family="Helvetica,sans-Serif" font-size="10.00">/Application.hpp</text>
</a>
</g>
</g>
<!-- Node2&#45;&gt;Node3 -->
<g id="edge2_Node000002_Node000003" class="edge">
<title>Node2&#45;&gt;Node3</title>
<g id="a_edge2_Node000002_Node000003"><a xlink:title=" ">
<path fill="none" stroke="#63b8ff" d="M256.5,-183.5C232.54,-173.66 203.73,-161.82 181.51,-152.69"/>
<polygon fill="#63b8ff" stroke="#63b8ff" points="255.14,-186.73 265.72,-187.29 257.8,-180.25 255.14,-186.73"/>
</a>
</g>
</g>
<!-- Node6 -->
<g id="Node000006" class="node">
<title>Node6</title>
<g id="a_Node000006"><a xlink:href="SpriteCustomizer_8cpp.html" target="_top" xlink:title=" ">
<polygon fill="white" stroke="#666666" points="393.62,-146.62 211.88,-146.62 211.88,-127.38 393.62,-127.38 393.62,-146.62"/>
<text xml:space="preserve" text-anchor="middle" x="302.75" y="-133.12" font-family="Helvetica,sans-Serif" font-size="10.00">client/src/Game/SpriteCustomizer.cpp</text>
</a>
</g>
</g>
<!-- Node2&#45;&gt;Node6 -->
<g id="edge5_Node000002_Node000006" class="edge">
<title>Node2&#45;&gt;Node6</title>
<g id="a_edge5_Node000002_Node000006"><a xlink:title=" ">
<path fill="none" stroke="#63b8ff" d="M302.75,-176.59C302.75,-166.01 302.75,-154.5 302.75,-146.82"/>
<polygon fill="#63b8ff" stroke="#63b8ff" points="299.25,-176.35 302.75,-186.35 306.25,-176.35 299.25,-176.35"/>
</a>
</g>
</g>
<!-- Node7 -->
<g id="Node000007" class="node">
<title>Node7</title>
<g id="a_Node000007"><a xlink:href="RenderSystem_8cpp.html" target="_top" xlink:title=" ">
<polygon fill="white" stroke="#666666" points="514.25,-152.25 411.25,-152.25 411.25,-121.75 514.25,-121.75 514.25,-152.25"/>
<text xml:space="preserve" text-anchor="start" x="419.25" y="-138.75" font-family="Helvetica,sans-Serif" font-size="10.00">client/src/Systems</text>
<text xml:space="preserve" text-anchor="middle" x="462.75" y="-127.5" font-family="Helvetica,sans-Serif" font-size="10.00">/RenderSystem.cpp</text>
</a>
</g>
</g>
<!-- Node2&#45;&gt;Node7 -->
<g id="edge6_Node000002_Node000007" class="edge">
<title>Node2&#45;&gt;Node7</title>
<g id="a_edge6_Node000002_Node000007"><a xlink:title=" ">
<path fill="none" stroke="#63b8ff" d="M349.55,-183.63C374.03,-173.76 403.55,-161.86 426.31,-152.69"/>
<polygon fill="#63b8ff" stroke="#63b8ff" points="348.43,-180.31 340.46,-187.3 351.04,-186.81 348.43,-180.31"/>
</a>
</g>
</g>
<!-- Node4 -->
<g id="Node000004" class="node">
<title>Node4</title>
<g id="a_Node000004"><a xlink:href="Application_8cpp.html" target="_top" xlink:title=" ">
<polygon fill="white" stroke="#666666" points="149.5,-80.12 0,-80.12 0,-60.88 149.5,-60.88 149.5,-80.12"/>
<text xml:space="preserve" text-anchor="middle" x="74.75" y="-66.62" font-family="Helvetica,sans-Serif" font-size="10.00">client/src/Core/Application.cpp</text>
</a>
</g>
</g>
<!-- Node3&#45;&gt;Node4 -->
<g id="edge3_Node000003_Node000004" class="edge">
<title>Node3&#45;&gt;Node4</title>
<g id="a_edge3_Node000003_Node000004"><a xlink:title=" ">
<path fill="none" stroke="#63b8ff" d="M121.3,-113.79C108.64,-102.29 93.91,-88.9 84.46,-80.32"/>
<polygon fill="#63b8ff" stroke="#63b8ff" points="118.76,-116.21 128.52,-120.35 123.47,-111.03 118.76,-116.21"/>
</a>
</g>
</g>
<!-- Node5 -->
<g id="Node000005" class="node">
<title>Node5</title>
<g id="a_Node000005"><a xlink:href="client_2src_2main_8cpp.html" target="_top" xlink:title=" ">
<polygon fill="white" stroke="#666666" points="266,-80.12 167.5,-80.12 167.5,-60.88 266,-60.88 266,-80.12"/>
<text xml:space="preserve" text-anchor="middle" x="216.75" y="-66.62" font-family="Helvetica,sans-Serif" font-size="10.00">client/src/main.cpp</text>
</a>
</g>
</g>
<!-- Node3&#45;&gt;Node5 -->
<g id="edge4_Node000003_Node000005" class="edge">
<title>Node3&#45;&gt;Node5</title>
<g id="a_edge4_Node000003_Node000005"><a xlink:title=" ">
<path fill="none" stroke="#63b8ff" d="M170.2,-113.79C182.86,-102.29 197.59,-88.9 207.04,-80.32"/>
<polygon fill="#63b8ff" stroke="#63b8ff" points="168.03,-111.03 162.98,-120.35 172.74,-116.21 168.03,-111.03"/>
</a>
</g>
</g>
<!-- Node11 -->
<g id="Node000011" class="node">
<title>Node11</title>
<g id="a_Node000011"><a xlink:href="GameManager_8cpp.html" target="_top" xlink:title=" ">
<polygon fill="white" stroke="#666666" points="1087.5,-19.25 914,-19.25 914,0 1087.5,0 1087.5,-19.25"/>
<text xml:space="preserve" text-anchor="middle" x="1000.75" y="-5.75" font-family="Helvetica,sans-Serif" font-size="10.00">server/src/Game/GameManager.cpp</text>
</a>
</g>
</g>
<!-- Node10&#45;&gt;Node11 -->
<g id="edge10_Node000010_Node000011" class="edge">
<title>Node10&#45;&gt;Node11</title>
<g id="a_edge10_Node000010_Node000011"><a xlink:title=" ">
<path fill="none" stroke="#63b8ff" d="M1050.42,-48.12C1037.46,-38.33 1022.79,-27.26 1012.77,-19.7"/>
<polygon fill="#63b8ff" stroke="#63b8ff" points="1048.17,-50.8 1058.26,-54.03 1052.39,-45.22 1048.17,-50.8"/>
</a>
</g>
</g>
<!-- Node12 -->
<g id="Node000012" class="node">
<title>Node12</title>
<g id="a_Node000012"><a xlink:href="server_2src_2main_8cpp.html" target="_top" xlink:title=" ">
<polygon fill="white" stroke="#666666" points="1207.88,-19.25 1105.62,-19.25 1105.62,0 1207.88,0 1207.88,-19.25"/>
<text xml:space="preserve" text-anchor="middle" x="1156.75" y="-5.75" font-family="Helvetica,sans-Serif" font-size="10.00">server/src/main.cpp</text>
</a>
</g>
</g>
<!-- Node10&#45;&gt;Node12 -->
<g id="edge11_Node000010_Node000012" class="edge">
<title>Node10&#45;&gt;Node12</title>
<g id="a_edge11_Node000010_Node000012"><a xlink:title=" ">
<path fill="none" stroke="#63b8ff" d="M1107.08,-48.12C1120.04,-38.33 1134.71,-27.26 1144.73,-19.7"/>
<polygon fill="#63b8ff" stroke="#63b8ff" points="1105.11,-45.22 1099.24,-54.03 1109.33,-50.8 1105.11,-45.22"/>
</a>
</g>
</g>
<!-- Node13&#45;&gt;Node10 -->
<g id="edge13_Node000013_Node000010" class="edge">
<title>Node13&#45;&gt;Node10</title>
<g id="a_edge13_Node000013_Node000010"><a xlink:title=" ">
<path fill="none" stroke="#63b8ff" d="M1002.78,-178.8C1008.79,-170.42 1015.58,-160.92 1021.75,-152.25 1038.16,-129.18 1057.09,-102.3 1068.48,-86.11"/>
<polygon fill="#63b8ff" stroke="#63b8ff" points="1000.04,-176.61 997.06,-186.78 1005.73,-180.69 1000.04,-176.61"/>
</a>
</g>
</g>
<!-- Node14 -->
<g id="Node000014" class="node">
<title>Node14</title>
<g id="a_Node000014"><a xlink:href="CollisionSystem_8cpp.html" target="_top" xlink:title=" ">
<polygon fill="white" stroke="#666666" points="1012.25,-152.25 903.25,-152.25 903.25,-121.75 1012.25,-121.75 1012.25,-152.25"/>
<text xml:space="preserve" text-anchor="start" x="911.25" y="-138.75" font-family="Helvetica,sans-Serif" font-size="10.00">server/src/Systems</text>
<text xml:space="preserve" text-anchor="middle" x="957.75" y="-127.5" font-family="Helvetica,sans-Serif" font-size="10.00">/CollisionSystem.cpp</text>
</a>
</g>
</g>
<!-- Node13&#45;&gt;Node14 -->
<g id="edge14_Node000013_Node000014" class="edge">
<title>Node13&#45;&gt;Node14</title>
<g id="a_edge14_Node000013_Node000014"><a xlink:title=" ">
<path fill="none" stroke="#63b8ff" d="M974.86,-177.41C971.21,-169 967.26,-159.91 964.08,-152.58"/>
<polygon fill="#63b8ff" stroke="#63b8ff" points="971.6,-178.7 978.79,-186.48 978.02,-175.91 971.6,-178.7"/>
</a>
</g>
</g>
<!-- Node15&#45;&gt;Node10 -->
<g id="edge16_Node000015_Node000010" class="edge">
<title>Node15&#45;&gt;Node10</title>
<g id="a_edge16_Node000015_Node000010"><a xlink:title=" ">
<path fill="none" stroke="#63b8ff" d="M713.96,-177.05C719.81,-158.71 730.48,-134.96 748.75,-121.75 791.95,-90.51 943.53,-78.22 1025.38,-73.78"/>
<polygon fill="#63b8ff" stroke="#63b8ff" points="710.66,-175.85 711.27,-186.43 717.39,-177.79 710.66,-175.85"/>
</a>
</g>
</g>
<!-- Node16 -->
<g id="Node000016" class="node">
<title>Node16</title>
<g id="a_Node000016"><a xlink:href="EnemyShootSystem_8cpp.html" target="_top" xlink:title=" ">
<polygon fill="white" stroke="#666666" points="673.62,-152.25 545.88,-152.25 545.88,-121.75 673.62,-121.75 673.62,-152.25"/>
<text xml:space="preserve" text-anchor="start" x="553.88" y="-138.75" font-family="Helvetica,sans-Serif" font-size="10.00">server/src/Systems</text>
<text xml:space="preserve" text-anchor="middle" x="609.75" y="-127.5" font-family="Helvetica,sans-Serif" font-size="10.00">/EnemyShootSystem.cpp</text>
</a>
</g>
</g>
<!-- Node15&#45;&gt;Node16 -->
<g id="edge17_Node000015_Node000016" class="edge">
<title>Node15&#45;&gt;Node16</title>
<g id="a_edge17_Node000015_Node000016"><a xlink:title=" ">
<path fill="none" stroke="#63b8ff" d="M675.98,-181.59C661.59,-172.12 644.91,-161.14 631.9,-152.58"/>
<polygon fill="#63b8ff" stroke="#63b8ff" points="673.97,-184.46 684.25,-187.03 677.82,-178.61 673.97,-184.46"/>
</a>
</g>
</g>
<!-- Node17&#45;&gt;Node10 -->
<g id="edge19_Node000017_Node000010" class="edge">
<title>Node17&#45;&gt;Node10</title>
<g id="a_edge19_Node000017_Node000010"><a xlink:title=" ">
<path fill="none" stroke="#63b8ff" d="M1159.33,-179.7C1151.67,-171.26 1143.11,-161.5 1135.75,-152.25 1118.01,-129.97 1099.31,-102.63 1088.35,-86.16"/>
<polygon fill="#63b8ff" stroke="#63b8ff" points="1156.53,-181.83 1165.87,-186.83 1161.68,-177.09 1156.53,-181.83"/>
</a>
</g>
</g>
<!-- Node18 -->
<g id="Node000018" class="node">
<title>Node18</title>
<g id="a_Node000018"><a xlink:href="LevelSystem_8hpp.html" target="_top" xlink:title=" ">
<polygon fill="white" stroke="#666666" points="1383.12,-152.25 1264.38,-152.25 1264.38,-121.75 1383.12,-121.75 1383.12,-152.25"/>
<text xml:space="preserve" text-anchor="start" x="1272.38" y="-138.75" font-family="Helvetica,sans-Serif" font-size="10.00">server/include/Systems</text>
<text xml:space="preserve" text-anchor="middle" x="1323.75" y="-127.5" font-family="Helvetica,sans-Serif" font-size="10.00">/LevelSystem.hpp</text>
</a>
</g>
</g>
<!-- Node17&#45;&gt;Node18 -->
<g id="edge20_Node000017_Node000018" class="edge">
<title>Node17&#45;&gt;Node18</title>
<g id="a_edge20_Node000017_Node000018"><a xlink:title=" ">
<path fill="none" stroke="#63b8ff" d="M1223.5,-183.22C1245.29,-173.39 1271.34,-161.64 1291.43,-152.58"/>
<polygon fill="#63b8ff" stroke="#63b8ff" points="1222.26,-179.94 1214.58,-187.24 1225.13,-186.32 1222.26,-179.94"/>
</a>
</g>
</g>
<!-- Node20 -->
<g id="Node000020" class="node">
<title>Node20</title>
<g id="a_Node000020"><a xlink:href="EntitySystem_8cpp.html" target="_top" xlink:title=" ">
<polygon fill="white" stroke="#666666" points="1246.5,-152.25 1145,-152.25 1145,-121.75 1246.5,-121.75 1246.5,-152.25"/>
<text xml:space="preserve" text-anchor="start" x="1153" y="-138.75" font-family="Helvetica,sans-Serif" font-size="10.00">server/src/Systems</text>
<text xml:space="preserve" text-anchor="middle" x="1195.75" y="-127.5" font-family="Helvetica,sans-Serif" font-size="10.00">/EntitySystem.cpp</text>
</a>
</g>
</g>
<!-- Node17&#45;&gt;Node20 -->
<g id="edge23_Node000017_Node000020" class="edge">
<title>Node17&#45;&gt;Node20</title>
<g id="a_edge23_Node000017_Node000020"><a xlink:title=" ">
<path fill="none" stroke="#63b8ff" d="M1186.72,-176.84C1188.64,-168.59 1190.69,-159.74 1192.36,-152.58"/>
<polygon fill="#63b8ff" stroke="#63b8ff" points="1183.35,-175.86 1184.5,-186.39 1190.17,-177.44 1183.35,-175.86"/>
</a>
</g>
</g>
<!-- Node18&#45;&gt;Node10 -->
<g id="edge21_Node000018_Node000010" class="edge">
<title>Node18&#45;&gt;Node10</title>
<g id="a_edge21_Node000018_Node000010"><a xlink:title=" ">
<path fill="none" stroke="#63b8ff" d="M1256.78,-118.37C1217.48,-108.02 1168.52,-95.13 1131.89,-85.49"/>
<polygon fill="#63b8ff" stroke="#63b8ff" points="1255.82,-121.74 1266.39,-120.9 1257.61,-114.97 1255.82,-121.74"/>
</a>
</g>
</g>
<!-- Node19 -->
<g id="Node000019" class="node">
<title>Node19</title>
<g id="a_Node000019"><a xlink:href="LevelSystem_8cpp.html" target="_top" xlink:title=" ">
<polygon fill="white" stroke="#666666" points="1374.5,-85.75 1273,-85.75 1273,-55.25 1374.5,-55.25 1374.5,-85.75"/>
<text xml:space="preserve" text-anchor="start" x="1281" y="-72.25" font-family="Helvetica,sans-Serif" font-size="10.00">server/src/Systems</text>
<text xml:space="preserve" text-anchor="middle" x="1323.75" y="-61" font-family="Helvetica,sans-Serif" font-size="10.00">/LevelSystem.cpp</text>
</a>
</g>
</g>
<!-- Node18&#45;&gt;Node19 -->
<g id="edge22_Node000018_Node000019" class="edge">
<title>Node18&#45;&gt;Node19</title>
<g id="a_edge22_Node000018_Node000019"><a xlink:title=" ">
<path fill="none" stroke="#63b8ff" d="M1323.75,-110.06C1323.75,-101.89 1323.75,-93.16 1323.75,-86.08"/>
<polygon fill="#63b8ff" stroke="#63b8ff" points="1320.25,-109.85 1323.75,-119.85 1327.25,-109.85 1320.25,-109.85"/>
</a>
</g>
</g>
<!-- Node21&#45;&gt;Node10 -->
<g id="edge25_Node000021_Node000010" class="edge">
<title>Node21&#45;&gt;Node10</title>
<g id="a_edge25_Node000021_Node000010"><a xlink:title=" ">
<path fill="none" stroke="#63b8ff" d="M800.99,-182.91C770.12,-167.46 739.08,-144.76 758.75,-121.75 792.42,-82.38 943.39,-73.65 1025.36,-71.85"/>
<polygon fill="#63b8ff" stroke="#63b8ff" points="799.48,-186.07 810.01,-187.21 802.49,-179.75 799.48,-186.07"/>
</a>
</g>
</g>
<!-- Node22 -->
<g id="Node000022" class="node">
<title>Node22</title>
<g id="a_Node000022"><a xlink:href="MovementSystem_8cpp.html" target="_top" xlink:title=" ">
<polygon fill="white" stroke="#666666" points="885.38,-152.25 768.12,-152.25 768.12,-121.75 885.38,-121.75 885.38,-152.25"/>
<text xml:space="preserve" text-anchor="start" x="776.12" y="-138.75" font-family="Helvetica,sans-Serif" font-size="10.00">server/src/Systems</text>
<text xml:space="preserve" text-anchor="middle" x="826.75" y="-127.5" font-family="Helvetica,sans-Serif" font-size="10.00">/MovementSystem.cpp</text>
</a>
</g>
</g>
<!-- Node21&#45;&gt;Node22 -->
<g id="edge26_Node000021_Node000022" class="edge">
<title>Node21&#45;&gt;Node22</title>
<g id="a_edge26_Node000021_Node000022"><a xlink:title=" ">
<path fill="none" stroke="#63b8ff" d="M840.1,-177.13C837.25,-168.8 834.19,-159.83 831.72,-152.58"/>
<polygon fill="#63b8ff" stroke="#63b8ff" points="836.73,-178.1 843.27,-186.43 843.35,-175.84 836.73,-178.1"/>
</a>
</g>
</g>
<!-- Node23&#45;&gt;Node10 -->
<g id="edge28_Node000023_Node000010" class="edge">
<title>Node23&#45;&gt;Node10</title>
<g id="a_edge28_Node000023_Node000010"><a xlink:title=" ">
<path fill="none" stroke="#63b8ff" d="M1411.68,-176.46C1410.84,-158.53 1406.57,-135.54 1391.75,-121.75 1373.02,-104.32 1216.27,-85.69 1131.96,-76.81"/>
<polygon fill="#63b8ff" stroke="#63b8ff" points="1408.18,-176.42 1411.79,-186.38 1415.18,-176.34 1408.18,-176.42"/>
</a>
</g>
</g>
<!-- Node23&#45;&gt;Node24 -->
<g id="edge29_Node000023_Node000024" class="edge">
<title>Node23&#45;&gt;Node24</title>
<g id="a_edge29_Node000023_Node000024"><a xlink:title=" ">
<path fill="none" stroke="#63b8ff" d="M1440.31,-181.32C1453.44,-171.91 1468.57,-161.06 1480.41,-152.58"/>
<polygon fill="#63b8ff" stroke="#63b8ff" points="1438.49,-178.31 1432.4,-186.98 1442.57,-184 1438.49,-178.31"/>
</a>
</g>
</g>
</g>
</svg>
