<?xml version="1.0" encoding="UTF-8" standalone="no"?>
<!DOCTYPE svg PUBLIC "-//W3C//DTD SVG 1.1//EN"
 "http://www.w3.org/Graphics/SVG/1.1/DTD/svg11.dtd">
<!-- Generated by graphviz version 14.0.5 (20251129.0259)
 -->
<!-- Title: common/include/RType/ECS/Components/UI/Button.hpp Pages: 1 -->
<!--zoomable 393 -->

<svg id="main" version="1.1" xmlns="http://www.w3.org/2000/svg" xmlns:xlink="http://www.w3.org/1999/xlink" xml:space="preserve" onload="init(evt)">

<style type="text/css"><![CDATA[
.node, .edge {opacity: 0.7;}
.node.selected, .edge.selected {opacity: 1;}
.edge:hover path { stroke: red; }
.edge:hover polygon { stroke: red; fill: red; }
]]></style>

<defs>
  <circle id="rim" cx="0" cy="0" r="7"/>
  <circle id="rim2" cx="0" cy="0" r="3.5"/>
  <g id="zoomPlus">
    <use xlink:href="#rim" fill="#404040"><set attributeName="fill" to="#808080" begin="zoomplus.mouseover" end="zoomplus.mouseout"/></use>
    <path d="M-4,0h8M0,-4v8" fill="none" stroke="white" stroke-width="1.5" pointer-events="none"/>
  </g>
  <g id="zoomMin">
    <use xlink:href="#rim" fill="#404040"><set attributeName="fill" to="#808080" begin="zoomminus.mouseover" end="zoomminus.mouseout"/></use>
    <path d="M-4,0h8" fill="none" stroke="white" stroke-width="1.5" pointer-events="none"/>
  </g>
  <g id="arrowUp" transform="translate(30 24)">
    <use xlink:href="#rim"/>
    <path pointer-events="none" fill="none" stroke="white" stroke-width="1.5" d="M0,-3.0v7 M-2.5,-0.5L0,-3.0L2.5,-0.5"/>
  </g>
  <g id="arrowRight" transform="rotate(90) translate(36 -43)">
    <use xlink:href="#rim"/>
    <path pointer-events="none" fill="none" stroke="white" stroke-width="1.5" d="M0,-3.0v7 M-2.5,-0.5L0,-3.0L2.5,-0.5"/>
  </g>
  <g id="arrowDown" transform="rotate(180) translate(-30 -48)">
    <use xlink:href="#rim"/>
    <path pointer-events="none" fill="none" stroke="white" stroke-width="1.5" d="M0,-3.0v7 M-2.5,-0.5L0,-3.0L2.5,-0.5"/>
  </g>
  <g id="arrowLeft" transform="rotate(270) translate(-36 17)">
    <use xlink:href="#rim"/>
    <path pointer-events="none" fill="none" stroke="white" stroke-width="1.5" d="M0,-3.0v7 M-2.5,-0.5L0,-3.0L2.5,-0.5"/>
  </g>
  <g id="resetDef">
    <use xlink:href="#rim2" fill="#404040"><set attributeName="fill" to="#808080" begin="reset.mouseover" end="reset.mouseout"/></use>
  </g>
</defs>
<script type="application/ecmascript">
var viewWidth = 1022;
var viewHeight = 393;
var sectionId = 'dynsection-0';
</script>
<script type="application/ecmascript" xlink:href="svg.min.js"/>
<svg id="graph" class="graph">
<g id="viewport">
<title>common/include/RType/ECS/Components/UI/Button.hpp</title>
<!-- Node1 -->
<g id="Node000001" class="node">
<title>Node1</title>
<g id="a_Node000001"><a xlink:title=" ">
<polygon fill="#999999" stroke="#666666" points="730.25,-384.5 568,-384.5 568,-354 730.25,-354 730.25,-384.5"/>
<text xml:space="preserve" text-anchor="start" x="576" y="-371" font-family="Helvetica,sans-Serif" font-size="10.00">common/include/RType</text>
<text xml:space="preserve" text-anchor="middle" x="649.12" y="-359.75" font-family="Helvetica,sans-Serif" font-size="10.00">/ECS/Components/UI/Button.hpp</text>
</a>
</g>
</g>
<!-- Node2 -->
<g id="Node000002" class="node">
<title>Node2</title>
<g id="a_Node000002"><a xlink:title=" ">
<polygon fill="#e0e0e0" stroke="#999999" points="574.12,-318 516.12,-318 516.12,-298.75 574.12,-298.75 574.12,-318"/>
<text xml:space="preserve" text-anchor="middle" x="545.12" y="-304.5" font-family="Helvetica,sans-Serif" font-size="10.00">functional</text>
</a>
</g>
</g>
<!-- Node1&#45;&gt;Node2 -->
<g id="edge1_Node000001_Node000002" class="edge">
<title>Node1&#45;&gt;Node2</title>
<g id="a_edge1_Node000001_Node000002"><a xlink:title=" ">
<path fill="none" stroke="#63b8ff" d="M623.15,-353.55C607.16,-344.49 586.74,-332.94 570.81,-323.91"/>
<polygon fill="#63b8ff" stroke="#63b8ff" points="572.82,-321.03 562.39,-319.15 569.37,-327.12 572.82,-321.03"/>
</a>
</g>
</g>
<!-- Node3 -->
<g id="Node000003" class="node">
<title>Node3</title>
<g id="a_Node000003"><a xlink:title=" ">
<polygon fill="#e0e0e0" stroke="#999999" points="948.12,-74.5 908.12,-74.5 908.12,-55.25 948.12,-55.25 948.12,-74.5"/>
<text xml:space="preserve" text-anchor="middle" x="928.12" y="-61" font-family="Helvetica,sans-Serif" font-size="10.00">string</text>
</a>
</g>
</g>
<!-- Node1&#45;&gt;Node3 -->
<g id="edge2_Node000001_Node000003" class="edge">
<title>Node1&#45;&gt;Node3</title>
<g id="a_edge2_Node000001_Node000003"><a xlink:title=" ">
<path fill="none" stroke="#63b8ff" d="M730.58,-358.14C838.16,-342.47 1014.12,-307.77 1014.12,-248.5 1014.12,-248.5 1014.12,-248.5 1014.12,-180 1014.12,-137.76 976.09,-101.23 950.61,-81.49"/>
<polygon fill="#63b8ff" stroke="#63b8ff" points="952.89,-78.83 942.78,-75.68 948.72,-84.45 952.89,-78.83"/>
</a>
</g>
</g>
<!-- Node4 -->
<g id="Node000004" class="node">
<title>Node4</title>
<g id="a_Node000004"><a xlink:href="Vec2_8hpp.html" target="_top" xlink:title="Declaration of the 2&#45;dimensional vector class.">
<polygon fill="white" stroke="#666666" points="705.88,-318 592.38,-318 592.38,-298.75 705.88,-298.75 705.88,-318"/>
<text xml:space="preserve" text-anchor="middle" x="649.12" y="-304.5" font-family="Helvetica,sans-Serif" font-size="10.00">RType/Math/Vec2.hpp</text>
</a>
</g>
</g>
<!-- Node1&#45;&gt;Node4 -->
<g id="edge3_Node000001_Node000004" class="edge">
<title>Node1&#45;&gt;Node4</title>
<g id="a_edge3_Node000001_Node000004"><a xlink:title=" ">
<path fill="none" stroke="#63b8ff" d="M649.12,-353.7C649.12,-346.46 649.12,-337.59 649.12,-329.69"/>
<polygon fill="#63b8ff" stroke="#63b8ff" points="652.63,-329.96 649.13,-319.96 645.63,-329.96 652.63,-329.96"/>
</a>
</g>
</g>
<!-- Node5 -->
<g id="Node000005" class="node">
<title>Node5</title>
<g id="a_Node000005"><a xlink:href="Assert_8hpp.html" target="_top" xlink:title="Assertion and verification macros for runtime checks.">
<polygon fill="white" stroke="#666666" points="650.5,-257.12 555.75,-257.12 555.75,-237.88 650.5,-237.88 650.5,-257.12"/>
<text xml:space="preserve" text-anchor="middle" x="603.12" y="-243.62" font-family="Helvetica,sans-Serif" font-size="10.00">RType/Assert.hpp</text>
</a>
</g>
</g>
<!-- Node4&#45;&gt;Node5 -->
<g id="edge4_Node000004_Node000005" class="edge">
<title>Node4&#45;&gt;Node5</title>
<g id="a_edge4_Node000004_Node000005"><a xlink:title=" ">
<path fill="none" stroke="#63b8ff" d="M642.14,-298.43C635.52,-289.96 625.39,-276.99 617.11,-266.39"/>
<polygon fill="#63b8ff" stroke="#63b8ff" points="620.02,-264.44 611.11,-258.72 614.51,-268.75 620.02,-264.44"/>
</a>
</g>
</g>
<!-- Node22 -->
<g id="Node000022" class="node">
<title>Node22</title>
<g id="a_Node000022"><a xlink:href="VecBase_8hpp.html" target="_top" xlink:title="Declaration of the CRTP base vector class.">
<polygon fill="white" stroke="#666666" points="228.5,-262.75 127.75,-262.75 127.75,-232.25 228.5,-232.25 228.5,-262.75"/>
<text xml:space="preserve" text-anchor="start" x="135.75" y="-249.25" font-family="Helvetica,sans-Serif" font-size="10.00">RType/Math/details</text>
<text xml:space="preserve" text-anchor="middle" x="178.12" y="-238" font-family="Helvetica,sans-Serif" font-size="10.00">/VecBase.hpp</text>
</a>
</g>
</g>
<!-- Node4&#45;&gt;Node22 -->
<g id="edge31_Node000004_Node000022" class="edge">
<title>Node4&#45;&gt;Node22</title>
<g id="a_edge31_Node000004_Node000022"><a xlink:title=" ">
<path fill="none" stroke="#63b8ff" d="M591.89,-299.87C588.93,-299.49 585.99,-299.12 583.12,-298.75 461.71,-283.28 319.73,-265.81 240.23,-256.08"/>
<polygon fill="#63b8ff" stroke="#63b8ff" points="240.82,-252.62 230.47,-254.88 239.97,-259.57 240.82,-252.62"/>
</a>
</g>
</g>
<!-- Node28 -->
<g id="Node000028" class="node">
<title>Node28</title>
<g id="a_Node000028"><a xlink:href="Vec2_8tpp.html" target="_top" xlink:title=" ">
<polygon fill="white" stroke="#666666" points="723.62,-257.12 668.62,-257.12 668.62,-237.88 723.62,-237.88 723.62,-257.12"/>
<text xml:space="preserve" text-anchor="middle" x="696.12" y="-243.62" font-family="Helvetica,sans-Serif" font-size="10.00">Vec2.tpp</text>
</a>
</g>
</g>
<!-- Node4&#45;&gt;Node28 -->
<g id="edge38_Node000004_Node000028" class="edge">
<title>Node4&#45;&gt;Node28</title>
<g id="a_edge38_Node000004_Node000028"><a xlink:title=" ">
<path fill="none" stroke="#63b8ff" d="M656.26,-298.43C663.03,-289.96 673.38,-276.99 681.84,-266.39"/>
<polygon fill="#63b8ff" stroke="#63b8ff" points="684.47,-268.71 687.98,-258.71 679,-264.34 684.47,-268.71"/>
</a>
</g>
</g>
<!-- Node6 -->
<g id="Node000006" class="node">
<title>Node6</title>
<g id="a_Node000006"><a xlink:href="Logger_8hpp.html" target="_top" xlink:title="Logger declaration with support for multiple log levels.">
<polygon fill="white" stroke="#666666" points="694.5,-190.62 599.75,-190.62 599.75,-171.38 694.5,-171.38 694.5,-190.62"/>
<text xml:space="preserve" text-anchor="middle" x="647.12" y="-177.12" font-family="Helvetica,sans-Serif" font-size="10.00">RType/Logger.hpp</text>
</a>
</g>
</g>
<!-- Node5&#45;&gt;Node6 -->
<g id="edge5_Node000005_Node000006" class="edge">
<title>Node5&#45;&gt;Node6</title>
<g id="a_edge5_Node000005_Node000006"><a xlink:title=" ">
<path fill="none" stroke="#63b8ff" d="M609.24,-237.53C615.81,-227.9 626.42,-212.35 634.74,-200.15"/>
<polygon fill="#63b8ff" stroke="#63b8ff" points="637.46,-202.38 640.21,-192.14 631.68,-198.43 637.46,-202.38"/>
</a>
</g>
</g>
<!-- Node21 -->
<g id="Node000021" class="node">
<title>Node21</title>
<g id="a_Node000021"><a xlink:title=" ">
<polygon fill="#e0e0e0" stroke="#999999" points="581.38,-190.62 536.88,-190.62 536.88,-171.38 581.38,-171.38 581.38,-190.62"/>
<text xml:space="preserve" text-anchor="middle" x="559.12" y="-177.12" font-family="Helvetica,sans-Serif" font-size="10.00">cstdlib</text>
</a>
</g>
</g>
<!-- Node5&#45;&gt;Node21 -->
<g id="edge30_Node000005_Node000021" class="edge">
<title>Node5&#45;&gt;Node21</title>
<g id="a_edge30_Node000005_Node000021"><a xlink:title=" ">
<path fill="none" stroke="#63b8ff" d="M597.01,-237.53C590.44,-227.9 579.83,-212.35 571.51,-200.15"/>
<polygon fill="#63b8ff" stroke="#63b8ff" points="574.57,-198.43 566.04,-192.14 568.79,-202.38 574.57,-198.43"/>
</a>
</g>
</g>
<!-- Node6&#45;&gt;Node3 -->
<g id="edge25_Node000006_Node000003" class="edge">
<title>Node6&#45;&gt;Node3</title>
<g id="a_edge25_Node000006_Node000003"><a xlink:title=" ">
<path fill="none" stroke="#63b8ff" d="M651.33,-171.05C658.95,-155.89 676.56,-125.39 701.12,-110.5 774.55,-65.98 809.3,-92.91 896.7,-74.71"/>
<polygon fill="#63b8ff" stroke="#63b8ff" points="897.45,-78.13 906.44,-72.52 895.92,-71.3 897.45,-78.13"/>
</a>
</g>
</g>
<!-- Node7 -->
<g id="Node000007" class="node">
<title>Node7</title>
<g id="a_Node000007"><a xlink:href="LogLevel_8hpp.html" target="_top" xlink:title="Log severity levels for the logging system.">
<polygon fill="white" stroke="#666666" points="584.75,-74.5 479.5,-74.5 479.5,-55.25 584.75,-55.25 584.75,-74.5"/>
<text xml:space="preserve" text-anchor="middle" x="532.12" y="-61" font-family="Helvetica,sans-Serif" font-size="10.00">RType/LogLevel.hpp</text>
</a>
</g>
</g>
<!-- Node6&#45;&gt;Node7 -->
<g id="edge6_Node000006_Node000007" class="edge">
<title>Node6&#45;&gt;Node7</title>
<g id="a_edge6_Node000006_Node000007"><a xlink:title=" ">
<path fill="none" stroke="#63b8ff" d="M622.19,-170.95C602.76,-162.79 576.29,-149.09 559.12,-129.75 547.99,-117.2 540.98,-99.39 536.9,-85.76"/>
<polygon fill="#63b8ff" stroke="#63b8ff" points="540.29,-84.91 534.33,-76.16 533.53,-86.72 540.29,-84.91"/>
</a>
</g>
</g>
<!-- Node9 -->
<g id="Node000009" class="node">
<title>Node9</title>
<g id="a_Node000009"><a xlink:title=" ">
<polygon fill="#e0e0e0" stroke="#999999" points="475,-19.25 431.25,-19.25 431.25,0 475,0 475,-19.25"/>
<text xml:space="preserve" text-anchor="middle" x="453.12" y="-5.75" font-family="Helvetica,sans-Serif" font-size="10.00">format</text>
</a>
</g>
</g>
<!-- Node6&#45;&gt;Node9 -->
<g id="edge23_Node000006_Node000009" class="edge">
<title>Node6&#45;&gt;Node9</title>
<g id="a_edge23_Node000006_Node000009"><a xlink:title=" ">
<path fill="none" stroke="#63b8ff" d="M624.2,-170.95C577.41,-151.95 473.76,-107 455.12,-74.5 447.6,-61.37 447.52,-44.1 449.1,-30.83"/>
<polygon fill="#63b8ff" stroke="#63b8ff" points="452.53,-31.52 450.68,-21.08 445.62,-30.39 452.53,-31.52"/>
</a>
</g>
</g>
<!-- Node10 -->
<g id="Node000010" class="node">
<title>Node10</title>
<g id="a_Node000010"><a xlink:title=" ">
<polygon fill="#e0e0e0" stroke="#999999" points="710.88,-19.25 645.38,-19.25 645.38,0 710.88,0 710.88,-19.25"/>
<text xml:space="preserve" text-anchor="middle" x="678.12" y="-5.75" font-family="Helvetica,sans-Serif" font-size="10.00">string_view</text>
</a>
</g>
</g>
<!-- Node6&#45;&gt;Node10 -->
<g id="edge26_Node000006_Node000010" class="edge">
<title>Node6&#45;&gt;Node10</title>
<g id="a_edge26_Node000006_Node000010"><a xlink:title=" ">
<path fill="none" stroke="#63b8ff" d="M694.72,-179.49C773.1,-177.54 924,-168.68 957.12,-129.75 978.58,-104.53 978.61,-80.44 957.12,-55.25 927.5,-20.51 793.46,-12.7 722.5,-11.02"/>
<polygon fill="#63b8ff" stroke="#63b8ff" points="722.85,-7.53 712.78,-10.82 722.71,-14.53 722.85,-7.53"/>
</a>
</g>
</g>
<!-- Node11 -->
<g id="Node000011" class="node">
<title>Node11</title>
<g id="a_Node000011"><a xlink:title=" ">
<polygon fill="#e0e0e0" stroke="#999999" points="412.75,-19.25 373.5,-19.25 373.5,0 412.75,0 412.75,-19.25"/>
<text xml:space="preserve" text-anchor="middle" x="393.12" y="-5.75" font-family="Helvetica,sans-Serif" font-size="10.00">utility</text>
</a>
</g>
</g>
<!-- Node6&#45;&gt;Node11 -->
<g id="edge28_Node000006_Node000011" class="edge">
<title>Node6&#45;&gt;Node11</title>
<g id="a_edge28_Node000006_Node000011"><a xlink:title=" ">
<path fill="none" stroke="#63b8ff" d="M613.46,-170.92C575.26,-160.26 515.74,-142.41 496.12,-129.75 454.94,-103.16 420.92,-55.38 404.23,-29.14"/>
<polygon fill="#63b8ff" stroke="#63b8ff" points="407.38,-27.58 399.14,-20.92 401.43,-31.26 407.38,-27.58"/>
</a>
</g>
</g>
<!-- Node13 -->
<g id="Node000013" class="node">
<title>Node13</title>
<g id="a_Node000013"><a xlink:href="Error_8hpp.html" target="_top" xlink:title="Error handling system with categorized error codes.">
<polygon fill="white" stroke="#666666" points="654.38,-129.75 567.88,-129.75 567.88,-110.5 654.38,-110.5 654.38,-129.75"/>
<text xml:space="preserve" text-anchor="middle" x="611.12" y="-116.25" font-family="Helvetica,sans-Serif" font-size="10.00">RType/Error.hpp</text>
</a>
</g>
</g>
<!-- Node6&#45;&gt;Node13 -->
<g id="edge12_Node000006_Node000013" class="edge">
<title>Node6&#45;&gt;Node13</title>
<g id="a_edge12_Node000006_Node000013"><a xlink:title=" ">
<path fill="none" stroke="#63b8ff" d="M641.66,-171.06C636.58,-162.76 628.87,-150.14 622.47,-139.67"/>
<polygon fill="#63b8ff" stroke="#63b8ff" points="625.64,-138.15 617.43,-131.44 619.66,-141.8 625.64,-138.15"/>
</a>
</g>
</g>
<!-- Node17 -->
<g id="Node000017" class="node">
<title>Node17</title>
<g id="a_Node000017"><a xlink:title=" ">
<polygon fill="#e0e0e0" stroke="#999999" points="766,-129.75 710.25,-129.75 710.25,-110.5 766,-110.5 766,-129.75"/>
<text xml:space="preserve" text-anchor="middle" x="738.12" y="-116.25" font-family="Helvetica,sans-Serif" font-size="10.00">expected</text>
</a>
</g>
</g>
<!-- Node6&#45;&gt;Node17 -->
<g id="edge22_Node000006_Node000017" class="edge">
<title>Node6&#45;&gt;Node17</title>
<g id="a_edge22_Node000006_Node000017"><a xlink:title=" ">
<path fill="none" stroke="#63b8ff" d="M660.95,-171.06C675.24,-161.81 697.83,-147.2 714.88,-136.17"/>
<polygon fill="#63b8ff" stroke="#63b8ff" points="716.41,-139.34 722.9,-130.97 712.61,-133.47 716.41,-139.34"/>
</a>
</g>
</g>
<!-- Node18 -->
<g id="Node000018" class="node">
<title>Node18</title>
<g id="a_Node000018"><a xlink:title=" ">
<polygon fill="#e0e0e0" stroke="#999999" points="868.25,-129.75 784,-129.75 784,-110.5 868.25,-110.5 868.25,-129.75"/>
<text xml:space="preserve" text-anchor="middle" x="826.12" y="-116.25" font-family="Helvetica,sans-Serif" font-size="10.00">source_location</text>
</a>
</g>
</g>
<!-- Node6&#45;&gt;Node18 -->
<g id="edge24_Node000006_Node000018" class="edge">
<title>Node6&#45;&gt;Node18</title>
<g id="a_edge24_Node000006_Node000018"><a xlink:title=" ">
<path fill="none" stroke="#63b8ff" d="M674.7,-170.93C704.92,-160.99 753.62,-144.97 787.6,-133.79"/>
<polygon fill="#63b8ff" stroke="#63b8ff" points="788.67,-137.13 797.08,-130.68 786.49,-130.48 788.67,-137.13"/>
</a>
</g>
</g>
<!-- Node19 -->
<g id="Node000019" class="node">
<title>Node19</title>
<g id="a_Node000019"><a xlink:title=" ">
<polygon fill="#e0e0e0" stroke="#999999" points="309,-129.75 247.25,-129.75 247.25,-110.5 309,-110.5 309,-129.75"/>
<text xml:space="preserve" text-anchor="middle" x="278.12" y="-116.25" font-family="Helvetica,sans-Serif" font-size="10.00">type_traits</text>
</a>
</g>
</g>
<!-- Node6&#45;&gt;Node19 -->
<g id="edge27_Node000006_Node000019" class="edge">
<title>Node6&#45;&gt;Node19</title>
<g id="a_edge27_Node000006_Node000019"><a xlink:title=" ">
<path fill="none" stroke="#63b8ff" d="M613.51,-170.94C605.86,-169.06 597.74,-167.21 590.12,-165.75 472.53,-143.19 441.3,-149.03 323.12,-129.75 322.13,-129.59 321.12,-129.42 320.1,-129.25"/>
<polygon fill="#63b8ff" stroke="#63b8ff" points="321.02,-125.86 310.56,-127.55 319.79,-132.75 321.02,-125.86"/>
</a>
</g>
</g>
<!-- Node20 -->
<g id="Node000020" class="node">
<title>Node20</title>
<g id="a_Node000020"><a xlink:href="Logger_8tpp.html" target="_top" xlink:title=" ">
<polygon fill="white" stroke="#666666" points="947.62,-129.75 886.62,-129.75 886.62,-110.5 947.62,-110.5 947.62,-129.75"/>
<text xml:space="preserve" text-anchor="middle" x="917.12" y="-116.25" font-family="Helvetica,sans-Serif" font-size="10.00">Logger.tpp</text>
</a>
</g>
</g>
<!-- Node6&#45;&gt;Node20 -->
<g id="edge29_Node000006_Node000020" class="edge">
<title>Node6&#45;&gt;Node20</title>
<g id="a_edge29_Node000006_Node000020"><a xlink:title=" ">
<path fill="none" stroke="#63b8ff" d="M688.72,-170.93C739.36,-159.89 824.39,-141.35 875.19,-130.27"/>
<polygon fill="#63b8ff" stroke="#63b8ff" points="875.9,-133.7 884.92,-128.15 874.41,-126.86 875.9,-133.7"/>
</a>
</g>
</g>
<!-- Node8 -->
<g id="Node000008" class="node">
<title>Node8</title>
<g id="a_Node000008"><a xlink:title=" ">
<polygon fill="#e0e0e0" stroke="#999999" points="627.75,-19.25 582.5,-19.25 582.5,0 627.75,0 627.75,-19.25"/>
<text xml:space="preserve" text-anchor="middle" x="605.12" y="-5.75" font-family="Helvetica,sans-Serif" font-size="10.00">cstdint</text>
</a>
</g>
</g>
<!-- Node7&#45;&gt;Node8 -->
<g id="edge7_Node000007_Node000008" class="edge">
<title>Node7&#45;&gt;Node8</title>
<g id="a_edge7_Node000007_Node000008"><a xlink:title=" ">
<path fill="none" stroke="#63b8ff" d="M544.51,-54.84C555.27,-46.99 571.1,-35.45 583.88,-26.12"/>
<polygon fill="#63b8ff" stroke="#63b8ff" points="585.69,-29.14 591.7,-20.42 581.56,-23.48 585.69,-29.14"/>
</a>
</g>
</g>
<!-- Node7&#45;&gt;Node9 -->
<g id="edge8_Node000007_Node000009" class="edge">
<title>Node7&#45;&gt;Node9</title>
<g id="a_edge8_Node000007_Node000009"><a xlink:title=" ">
<path fill="none" stroke="#63b8ff" d="M518.72,-54.84C507.03,-46.96 489.82,-35.36 475.96,-26.02"/>
<polygon fill="#63b8ff" stroke="#63b8ff" points="478.1,-23.24 467.85,-20.55 474.18,-29.04 478.1,-23.24"/>
</a>
</g>
</g>
<!-- Node7&#45;&gt;Node10 -->
<g id="edge9_Node000007_Node000010" class="edge">
<title>Node7&#45;&gt;Node10</title>
<g id="a_edge9_Node000007_Node000010"><a xlink:title=" ">
<path fill="none" stroke="#63b8ff" d="M556.89,-54.84C580.38,-46.27 615.94,-33.31 642.48,-23.63"/>
<polygon fill="#63b8ff" stroke="#63b8ff" points="643.62,-26.94 651.81,-20.22 641.22,-20.36 643.62,-26.94"/>
</a>
</g>
</g>
<!-- Node7&#45;&gt;Node11 -->
<g id="edge10_Node000007_Node000011" class="edge">
<title>Node7&#45;&gt;Node11</title>
<g id="a_edge10_Node000007_Node000011"><a xlink:title=" ">
<path fill="none" stroke="#63b8ff" d="M508.55,-54.84C485.2,-45.9 449.34,-32.16 423.8,-22.37"/>
<polygon fill="#63b8ff" stroke="#63b8ff" points="425.21,-19.17 414.62,-18.86 422.7,-25.7 425.21,-19.17"/>
</a>
</g>
</g>
<!-- Node12 -->
<g id="Node000012" class="node">
<title>Node12</title>
<g id="a_Node000012"><a xlink:title=" ">
<polygon fill="#e0e0e0" stroke="#999999" points="564,-19.25 496.25,-19.25 496.25,0 564,0 564,-19.25"/>
<text xml:space="preserve" text-anchor="middle" x="530.12" y="-5.75" font-family="Helvetica,sans-Serif" font-size="10.00">LogLevel.inl</text>
</a>
</g>
</g>
<!-- Node7&#45;&gt;Node12 -->
<g id="edge11_Node000007_Node000012" class="edge">
<title>Node7&#45;&gt;Node12</title>
<g id="a_edge11_Node000007_Node000012"><a xlink:title=" ">
<path fill="none" stroke="#63b8ff" d="M531.79,-55.08C531.55,-48.49 531.2,-39.21 530.88,-30.82"/>
<polygon fill="#63b8ff" stroke="#63b8ff" points="534.39,-30.98 530.52,-21.12 527.4,-31.25 534.39,-30.98"/>
</a>
</g>
</g>
<!-- Node13&#45;&gt;Node3 -->
<g id="edge16_Node000013_Node000003" class="edge">
<title>Node13&#45;&gt;Node3</title>
<g id="a_edge16_Node000013_Node000003"><a xlink:title=" ">
<path fill="none" stroke="#63b8ff" d="M654.81,-112.51C724.08,-102.01 854.94,-82.09 896.91,-74.45"/>
<polygon fill="#63b8ff" stroke="#63b8ff" points="897.32,-77.93 906.45,-72.55 895.96,-71.07 897.32,-77.93"/>
</a>
</g>
</g>
<!-- Node13&#45;&gt;Node7 -->
<g id="edge13_Node000013_Node000007" class="edge">
<title>Node13&#45;&gt;Node7</title>
<g id="a_edge13_Node000013_Node000007"><a xlink:title=" ">
<path fill="none" stroke="#63b8ff" d="M597.72,-110.09C586.03,-102.21 568.82,-90.61 554.96,-81.27"/>
<polygon fill="#63b8ff" stroke="#63b8ff" points="557.1,-78.49 546.85,-75.8 553.18,-84.29 557.1,-78.49"/>
</a>
</g>
</g>
<!-- Node13&#45;&gt;Node8 -->
<g id="edge14_Node000013_Node000008" class="edge">
<title>Node13&#45;&gt;Node8</title>
<g id="a_edge14_Node000013_Node000008"><a xlink:title=" ">
<path fill="none" stroke="#63b8ff" d="M610.63,-110.25C609.68,-93 607.56,-54.58 606.24,-30.81"/>
<polygon fill="#63b8ff" stroke="#63b8ff" points="609.75,-30.93 605.71,-21.14 602.76,-31.32 609.75,-30.93"/>
</a>
</g>
</g>
<!-- Node13&#45;&gt;Node9 -->
<g id="edge15_Node000013_Node000009" class="edge">
<title>Node13&#45;&gt;Node9</title>
<g id="a_edge15_Node000013_Node000009"><a xlink:title=" ">
<path fill="none" stroke="#63b8ff" d="M567.45,-116.19C536.22,-111.79 495.39,-100.96 470.12,-74.5 458.96,-62.81 454.94,-44.64 453.57,-30.67"/>
<polygon fill="#63b8ff" stroke="#63b8ff" points="457.08,-30.62 453.03,-20.83 450.09,-31.01 457.08,-30.62"/>
</a>
</g>
</g>
<!-- Node13&#45;&gt;Node10 -->
<g id="edge17_Node000013_Node000010" class="edge">
<title>Node13&#45;&gt;Node10</title>
<g id="a_edge17_Node000013_Node000010"><a xlink:title=" ">
<path fill="none" stroke="#63b8ff" d="M616.61,-110.25C627.5,-92.6 652.08,-52.8 666.66,-29.2"/>
<polygon fill="#63b8ff" stroke="#63b8ff" points="669.49,-31.26 671.77,-20.91 663.54,-27.58 669.49,-31.26"/>
</a>
</g>
</g>
<!-- Node13&#45;&gt;Node11 -->
<g id="edge19_Node000013_Node000011" class="edge">
<title>Node13&#45;&gt;Node11</title>
<g id="a_edge19_Node000013_Node000011"><a xlink:title=" ">
<path fill="none" stroke="#63b8ff" d="M567.66,-112.94C534.94,-106.85 489.93,-95.34 455.12,-74.5 435.3,-62.63 417.49,-42.84 406.1,-28.43"/>
<polygon fill="#63b8ff" stroke="#63b8ff" points="409.04,-26.52 400.21,-20.68 403.47,-30.76 409.04,-26.52"/>
</a>
</g>
</g>
<!-- Node14 -->
<g id="Node000014" class="node">
<title>Node14</title>
<g id="a_Node000014"><a xlink:title=" ">
<polygon fill="#e0e0e0" stroke="#999999" points="752.62,-74.5 679.62,-74.5 679.62,-55.25 752.62,-55.25 752.62,-74.5"/>
<text xml:space="preserve" text-anchor="middle" x="716.12" y="-61" font-family="Helvetica,sans-Serif" font-size="10.00">system_error</text>
</a>
</g>
</g>
<!-- Node13&#45;&gt;Node14 -->
<g id="edge18_Node000013_Node000014" class="edge">
<title>Node13&#45;&gt;Node14</title>
<g id="a_edge18_Node000013_Node000014"><a xlink:title=" ">
<path fill="none" stroke="#63b8ff" d="M628.94,-110.09C645.15,-101.87 669.36,-89.59 688.16,-80.06"/>
<polygon fill="#63b8ff" stroke="#63b8ff" points="689.54,-83.28 696.88,-75.64 686.37,-77.04 689.54,-83.28"/>
</a>
</g>
</g>
<!-- Node15 -->
<g id="Node000015" class="node">
<title>Node15</title>
<g id="a_Node000015"><a xlink:title=" ">
<polygon fill="#e0e0e0" stroke="#999999" points="819.62,-74.5 770.62,-74.5 770.62,-55.25 819.62,-55.25 819.62,-74.5"/>
<text xml:space="preserve" text-anchor="middle" x="795.12" y="-61" font-family="Helvetica,sans-Serif" font-size="10.00">Error.inl</text>
</a>
</g>
</g>
<!-- Node13&#45;&gt;Node15 -->
<g id="edge20_Node000013_Node000015" class="edge">
<title>Node13&#45;&gt;Node15</title>
<g id="a_edge20_Node000013_Node000015"><a xlink:title=" ">
<path fill="none" stroke="#63b8ff" d="M642.34,-110.09C674.76,-100.71 725.42,-86.05 759.42,-76.21"/>
<polygon fill="#63b8ff" stroke="#63b8ff" points="760.18,-79.63 768.81,-73.49 758.23,-72.91 760.18,-79.63"/>
</a>
</g>
</g>
<!-- Node16 -->
<g id="Node000016" class="node">
<title>Node16</title>
<g id="a_Node000016"><a xlink:href="Error_8tpp.html" target="_top" xlink:title=" ">
<polygon fill="white" stroke="#666666" points="890.5,-74.5 837.75,-74.5 837.75,-55.25 890.5,-55.25 890.5,-74.5"/>
<text xml:space="preserve" text-anchor="middle" x="864.12" y="-61" font-family="Helvetica,sans-Serif" font-size="10.00">Error.tpp</text>
</a>
</g>
</g>
<!-- Node13&#45;&gt;Node16 -->
<g id="edge21_Node000013_Node000016" class="edge">
<title>Node13&#45;&gt;Node16</title>
<g id="a_edge21_Node000013_Node000016"><a xlink:title=" ">
<path fill="none" stroke="#63b8ff" d="M654.66,-110.74C696.42,-102.58 761.51,-89.56 826.54,-75.02"/>
<polygon fill="#63b8ff" stroke="#63b8ff" points="826.93,-78.52 835.92,-72.91 825.4,-71.69 826.93,-78.52"/>
</a>
</g>
</g>
<!-- Node23 -->
<g id="Node000023" class="node">
<title>Node23</title>
<g id="a_Node000023"><a xlink:href="NumericConcept_8hpp.html" target="_top" xlink:title="Definition of the Numeric concept.">
<polygon fill="white" stroke="#666666" points="333.75,-196.25 222.5,-196.25 222.5,-165.75 333.75,-165.75 333.75,-196.25"/>
<text xml:space="preserve" text-anchor="start" x="230.5" y="-182.75" font-family="Helvetica,sans-Serif" font-size="10.00">RType/Math/details</text>
<text xml:space="preserve" text-anchor="middle" x="278.12" y="-171.5" font-family="Helvetica,sans-Serif" font-size="10.00">/NumericConcept.hpp</text>
</a>
</g>
</g>
<!-- Node22&#45;&gt;Node23 -->
<g id="edge32_Node000022_Node000023" class="edge">
<title>Node22&#45;&gt;Node23</title>
<g id="a_edge32_Node000022_Node000023"><a xlink:title=" ">
<path fill="none" stroke="#63b8ff" d="M200.82,-231.86C214.24,-223.2 231.46,-212.1 246.23,-202.57"/>
<polygon fill="#63b8ff" stroke="#63b8ff" points="247.74,-205.76 254.25,-197.4 243.95,-199.88 247.74,-205.76"/>
</a>
</g>
</g>
<!-- Node25 -->
<g id="Node000025" class="node">
<title>Node25</title>
<g id="a_Node000025"><a xlink:title=" ">
<polygon fill="#e0e0e0" stroke="#999999" points="133.62,-190.62 90.62,-190.62 90.62,-171.38 133.62,-171.38 133.62,-190.62"/>
<text xml:space="preserve" text-anchor="middle" x="112.12" y="-177.12" font-family="Helvetica,sans-Serif" font-size="10.00">cmath</text>
</a>
</g>
</g>
<!-- Node22&#45;&gt;Node25 -->
<g id="edge35_Node000022_Node000025" class="edge">
<title>Node22&#45;&gt;Node25</title>
<g id="a_edge35_Node000022_Node000025"><a xlink:title=" ">
<path fill="none" stroke="#63b8ff" d="M163.15,-231.86C153.05,-221.99 139.69,-208.94 129.18,-198.67"/>
<polygon fill="#63b8ff" stroke="#63b8ff" points="131.83,-196.37 122.24,-191.88 126.94,-201.37 131.83,-196.37"/>
</a>
</g>
</g>
<!-- Node26 -->
<g id="Node000026" class="node">
<title>Node26</title>
<g id="a_Node000026"><a xlink:title=" ">
<polygon fill="#e0e0e0" stroke="#999999" points="204.88,-190.62 151.38,-190.62 151.38,-171.38 204.88,-171.38 204.88,-190.62"/>
<text xml:space="preserve" text-anchor="middle" x="178.12" y="-177.12" font-family="Helvetica,sans-Serif" font-size="10.00">iostream</text>
</a>
</g>
</g>
<!-- Node22&#45;&gt;Node26 -->
<g id="edge36_Node000022_Node000026" class="edge">
<title>Node22&#45;&gt;Node26</title>
<g id="a_edge36_Node000022_Node000026"><a xlink:title=" ">
<path fill="none" stroke="#63b8ff" d="M178.12,-231.86C178.12,-223.08 178.12,-211.77 178.12,-202.15"/>
<polygon fill="#63b8ff" stroke="#63b8ff" points="181.63,-202.34 178.13,-192.34 174.63,-202.34 181.63,-202.34"/>
</a>
</g>
</g>
<!-- Node27 -->
<g id="Node000027" class="node">
<title>Node27</title>
<g id="a_Node000027"><a xlink:href="VecBase_8tpp.html" target="_top" xlink:title=" ">
<polygon fill="white" stroke="#666666" points="72.25,-190.62 0,-190.62 0,-171.38 72.25,-171.38 72.25,-190.62"/>
<text xml:space="preserve" text-anchor="middle" x="36.12" y="-177.12" font-family="Helvetica,sans-Serif" font-size="10.00">VecBase.tpp</text>
</a>
</g>
</g>
<!-- Node22&#45;&gt;Node27 -->
<g id="edge37_Node000022_Node000027" class="edge">
<title>Node22&#45;&gt;Node27</title>
<g id="a_edge37_Node000022_Node000027"><a xlink:title=" ">
<path fill="none" stroke="#63b8ff" d="M145.9,-231.86C122.03,-221.02 89.71,-206.34 66.33,-195.72"/>
<polygon fill="#63b8ff" stroke="#63b8ff" points="67.89,-192.58 57.34,-191.64 65,-198.96 67.89,-192.58"/>
</a>
</g>
</g>
<!-- Node23&#45;&gt;Node19 -->
<g id="edge34_Node000023_Node000019" class="edge">
<title>Node23&#45;&gt;Node19</title>
<g id="a_edge34_Node000023_Node000019"><a xlink:title=" ">
<path fill="none" stroke="#63b8ff" d="M278.12,-165.45C278.12,-158.21 278.12,-149.34 278.12,-141.44"/>
<polygon fill="#63b8ff" stroke="#63b8ff" points="281.63,-141.71 278.13,-131.71 274.63,-141.71 281.63,-141.71"/>
</a>
</g>
</g>
<!-- Node24 -->
<g id="Node000024" class="node">
<title>Node24</title>
<g id="a_Node000024"><a xlink:title=" ">
<polygon fill="#e0e0e0" stroke="#999999" points="229,-129.75 173.25,-129.75 173.25,-110.5 229,-110.5 229,-129.75"/>
<text xml:space="preserve" text-anchor="middle" x="201.12" y="-116.25" font-family="Helvetica,sans-Serif" font-size="10.00">concepts</text>
</a>
</g>
</g>
<!-- Node23&#45;&gt;Node24 -->
<g id="edge33_Node000023_Node000024" class="edge">
<title>Node23&#45;&gt;Node24</title>
<g id="a_edge33_Node000023_Node000024"><a xlink:title=" ">
<path fill="none" stroke="#63b8ff" d="M259.09,-165.45C247.82,-156.83 233.52,-145.9 221.95,-137.05"/>
<polygon fill="#63b8ff" stroke="#63b8ff" points="224.27,-134.41 214.2,-131.12 220.02,-139.98 224.27,-134.41"/>
</a>
</g>
</g>
</g>
</svg>

<g id="navigator" transform="translate(0 0)" fill="#404254">
  <rect fill="#f2f5e9" fill-opacity="0.5" stroke="#606060" stroke-width=".5" x="0" y="0" width="60" height="60"/>
  <use id="zoomplus" xlink:href="#zoomPlus" x="17" y="9" onmousedown="handleZoom(evt,'in')"/>
  <use id="zoomminus" xlink:href="#zoomMin" x="42" y="9" onmousedown="handleZoom(evt,'out')"/>
  <use id="reset" xlink:href="#resetDef" x="30" y="36" onmousedown="handleReset()"/>
   <use id="arrowup" xlink:href="#arrowUp" x="0" y="0" onmousedown="handlePan(0,-1)"/>
  <use id="arrowright" xlink:href="#arrowRight" x="0" y="0" onmousedown="handlePan(1,0)"/>
  <use id="arrowdown" xlink:href="#arrowDown" x="0" y="0" onmousedown="handlePan(0,1)"/>
  <use id="arrowleft" xlink:href="#arrowLeft" x="0" y="0" onmousedown="handlePan(-1,0)"/>
</g>
<svg viewBox="0 0 15 15" width="100%" height="30px" preserveAspectRatio="xMaxYMin meet">
 <g id="arrow_out" transform="scale(0.3 0.3)">
  <a xlink:href="Button_8hpp__incl_org.svg" target="_base">
   <rect id="button" ry="5" rx="5" y="6" x="6" height="38" width="38"
        fill="#f2f5e9" fill-opacity="0.5" stroke="#606060" stroke-width="1.0"/>
   <path id="arrow"
     d="M 11.500037,31.436501 C 11.940474,20.09759 22.043105,11.32322 32.158766,21.979434 L 37.068811,17.246167 C 37.068811,17.246167 37.088388,32 37.088388,32 L 22.160133,31.978069 C 22.160133,31.978069 26.997745,27.140456 26.997745,27.140456 C 18.528582,18.264221 13.291696,25.230495 11.500037,31.436501 z"
     style="fill:#404040;"/>
  </a>
 </g>
</svg>

<style type='text/css'>
<![CDATA[
[data-mouse-over-selected='false'] { opacity: 0.7; }
[data-mouse-over-selected='true']  { opacity: 1.0; }
]]>
</style>
<script type="application/ecmascript"><![CDATA[
document.addEventListener('DOMContentLoaded', (event) => {
  highlightEdges();
  highlightAdjacentNodes();
});
]]></script>
</svg>
