<?xml version="1.0" encoding="UTF-8" standalone="no"?>
<!DOCTYPE svg PUBLIC "-//W3C//DTD SVG 1.1//EN"
 "http://www.w3.org/Graphics/SVG/1.1/DTD/svg11.dtd">
<!-- Generated by graphviz version 14.0.5 (20251129.0259)
 -->
<!-- Title: common/include/RType/ECS/Components/UI/Button.hpp Pages: 1 -->
<svg width="2503pt" height="293pt"
 viewBox="0.00 0.00 2503.00 293.00" xmlns="http://www.w3.org/2000/svg" xmlns:xlink="http://www.w3.org/1999/xlink">
<g id="graph0" class="graph" transform="scale(1 1) rotate(0) translate(4 289.25)">
<title>common/include/RType/ECS/Components/UI/Button.hpp</title>
<!-- Node1 -->
<g id="Node000001" class="node">
<title>Node1</title>
<g id="a_Node000001"><a xlink:title=" ">
<polygon fill="#999999" stroke="#666666" points="1045,-285.25 882.75,-285.25 882.75,-254.75 1045,-254.75 1045,-285.25"/>
<text xml:space="preserve" text-anchor="start" x="890.75" y="-271.75" font-family="Helvetica,sans-Serif" font-size="10.00">common/include/RType</text>
<text xml:space="preserve" text-anchor="middle" x="963.88" y="-260.5" font-family="Helvetica,sans-Serif" font-size="10.00">/ECS/Components/UI/Button.hpp</text>
</a>
</g>
</g>
<!-- Node2 -->
<g id="Node000002" class="node">
<title>Node2</title>
<g id="a_Node000002"><a xlink:href="Application_8hpp.html" target="_top" xlink:title=" ">
<polygon fill="white" stroke="#666666" points="1293.38,-85.75 1196.38,-85.75 1196.38,-55.25 1293.38,-55.25 1293.38,-85.75"/>
<text xml:space="preserve" text-anchor="start" x="1204.38" y="-72.25" font-family="Helvetica,sans-Serif" font-size="10.00">client/include/Core</text>
<text xml:space="preserve" text-anchor="middle" x="1244.88" y="-61" font-family="Helvetica,sans-Serif" font-size="10.00">/Application.hpp</text>
</a>
</g>
</g>
<!-- Node1&#45;&gt;Node2 -->
<g id="edge1_Node000001_Node000002" class="edge">
<title>Node1&#45;&gt;Node2</title>
<g id="a_edge1_Node000001_Node000002"><a xlink:title=" ">
<path fill="none" stroke="#63b8ff" d="M976.04,-244.32C979.93,-236.22 984.19,-227.15 987.88,-218.75 1006.56,-176.21 991.46,-151.83 1026.88,-121.75 1082.75,-74.28 1116.52,-102.64 1187.88,-85.75 1190.56,-85.12 1193.3,-84.46 1196.08,-83.78"/>
<polygon fill="#63b8ff" stroke="#63b8ff" points="972.93,-242.71 971.71,-253.24 979.23,-245.77 972.93,-242.71"/>
</a>
</g>
</g>
<!-- Node5 -->
<g id="Node000005" class="node">
<title>Node5</title>
<g id="a_Node000005"><a xlink:href="UIRenderSystem_8hpp.html" target="_top" xlink:title=" ">
<polygon fill="white" stroke="#666666" points="313.38,-218.75 198.38,-218.75 198.38,-188.25 313.38,-188.25 313.38,-218.75"/>
<text xml:space="preserve" text-anchor="start" x="206.38" y="-205.25" font-family="Helvetica,sans-Serif" font-size="10.00">client/include/Systems</text>
<text xml:space="preserve" text-anchor="middle" x="255.88" y="-194" font-family="Helvetica,sans-Serif" font-size="10.00">/UIRenderSystem.hpp</text>
</a>
</g>
</g>
<!-- Node1&#45;&gt;Node5 -->
<g id="edge4_Node000001_Node000005" class="edge">
<title>Node1&#45;&gt;Node5</title>
<g id="a_edge4_Node000001_Node000005"><a xlink:title=" ">
<path fill="none" stroke="#63b8ff" d="M871.15,-265.07C746.99,-259.02 520.06,-245.27 327.88,-218.75 323.2,-218.11 318.38,-217.35 313.54,-216.53"/>
<polygon fill="#63b8ff" stroke="#63b8ff" points="870.81,-268.55 880.97,-265.54 871.15,-261.56 870.81,-268.55"/>
</a>
</g>
</g>
<!-- Node8 -->
<g id="Node000008" class="node">
<title>Node8</title>
<g id="a_Node000008"><a xlink:href="UISystem_8hpp.html" target="_top" xlink:title=" ">
<polygon fill="white" stroke="#666666" points="978.38,-218.75 863.38,-218.75 863.38,-188.25 978.38,-188.25 978.38,-218.75"/>
<text xml:space="preserve" text-anchor="start" x="871.38" y="-205.25" font-family="Helvetica,sans-Serif" font-size="10.00">client/include/Systems</text>
<text xml:space="preserve" text-anchor="middle" x="920.88" y="-194" font-family="Helvetica,sans-Serif" font-size="10.00">/UISystem.hpp</text>
</a>
</g>
</g>
<!-- Node1&#45;&gt;Node8 -->
<g id="edge8_Node000001_Node000008" class="edge">
<title>Node1&#45;&gt;Node8</title>
<g id="a_edge8_Node000001_Node000008"><a xlink:title=" ">
<path fill="none" stroke="#63b8ff" d="M947.9,-245.04C942.09,-236.32 935.7,-226.74 930.59,-219.08"/>
<polygon fill="#63b8ff" stroke="#63b8ff" points="944.82,-246.73 953.28,-253.1 950.64,-242.84 944.82,-246.73"/>
</a>
</g>
</g>
<!-- Node10 -->
<g id="Node000010" class="node">
<title>Node10</title>
<g id="a_Node000010"><a xlink:href="UiFactory_8hpp.html" target="_top" xlink:title=" ">
<polygon fill="white" stroke="#666666" points="1457.62,-213.12 1308.12,-213.12 1308.12,-193.88 1457.62,-193.88 1457.62,-213.12"/>
<text xml:space="preserve" text-anchor="middle" x="1382.88" y="-199.62" font-family="Helvetica,sans-Serif" font-size="10.00">client/include/UI/UiFactory.hpp</text>
</a>
</g>
</g>
<!-- Node1&#45;&gt;Node10 -->
<g id="edge11_Node000001_Node000010" class="edge">
<title>Node1&#45;&gt;Node10</title>
<g id="a_edge11_Node000001_Node000010"><a xlink:title=" ">
<path fill="none" stroke="#63b8ff" d="M1056.42,-254.75C1137.95,-242.2 1254.24,-224.3 1323.78,-213.6"/>
<polygon fill="#63b8ff" stroke="#63b8ff" points="1056.01,-251.28 1046.66,-256.26 1057.07,-258.19 1056.01,-251.28"/>
</a>
</g>
</g>
<!-- Node20 -->
<g id="Node000020" class="node">
<title>Node20</title>
<g id="a_Node000020"><a xlink:href="LobbyScene_8cpp.html" target="_top" xlink:title=" ">
<polygon fill="white" stroke="#666666" points="2306.62,-80.12 2139.12,-80.12 2139.12,-60.88 2306.62,-60.88 2306.62,-80.12"/>
<text xml:space="preserve" text-anchor="middle" x="2222.88" y="-66.62" font-family="Helvetica,sans-Serif" font-size="10.00">client/src/Scenes/LobbyScene.cpp</text>
</a>
</g>
</g>
<!-- Node1&#45;&gt;Node20 -->
<g id="edge50_Node000001_Node000020" class="edge">
<title>Node1&#45;&gt;Node20</title>
<g id="a_edge50_Node000001_Node000020"><a xlink:title=" ">
<path fill="none" stroke="#63b8ff" d="M1056.91,-268.66C1362.88,-266.59 2323.72,-252.11 2415.88,-152.25 2425.07,-142.29 2424.17,-132.48 2415.88,-121.75 2406.82,-110.04 2323.75,-91.55 2269.58,-80.57"/>
<polygon fill="#63b8ff" stroke="#63b8ff" points="1056.92,-265.16 1046.95,-268.72 1056.97,-272.16 1056.92,-265.16"/>
</a>
</g>
</g>
<!-- Node24 -->
<g id="Node000024" class="node">
<title>Node24</title>
<g id="a_Node000024"><a xlink:href="MenuScene_8cpp.html" target="_top" xlink:title=" ">
<polygon fill="white" stroke="#666666" points="2494.5,-80.12 2329.25,-80.12 2329.25,-60.88 2494.5,-60.88 2494.5,-80.12"/>
<text xml:space="preserve" text-anchor="middle" x="2411.88" y="-66.62" font-family="Helvetica,sans-Serif" font-size="10.00">client/src/Scenes/MenuScene.cpp</text>
</a>
</g>
</g>
<!-- Node1&#45;&gt;Node24 -->
<g id="edge51_Node000001_Node000024" class="edge">
<title>Node1&#45;&gt;Node24</title>
<g id="a_edge51_Node000001_Node000024"><a xlink:title=" ">
<path fill="none" stroke="#63b8ff" d="M1056.27,-269.61C1314.18,-270.64 2038.09,-268.86 2269.88,-218.75 2346.35,-202.22 2389.23,-217.19 2432.88,-152.25 2448.15,-129.53 2429.42,-96.34 2418.58,-80.53"/>
<polygon fill="#63b8ff" stroke="#63b8ff" points="1056.61,-266.11 1046.6,-269.57 1056.58,-273.11 1056.61,-266.11"/>
</a>
</g>
</g>
<!-- Node30 -->
<g id="Node000030" class="node">
<title>Node30</title>
<g id="a_Node000030"><a xlink:href="PlayingScene_8cpp.html" target="_top" xlink:title=" ">
<polygon fill="white" stroke="#666666" points="429.38,-85.75 302.38,-85.75 302.38,-55.25 429.38,-55.25 429.38,-85.75"/>
<text xml:space="preserve" text-anchor="start" x="310.38" y="-72.25" font-family="Helvetica,sans-Serif" font-size="10.00">client/src/Scenes/Playing</text>
<text xml:space="preserve" text-anchor="middle" x="365.88" y="-61" font-family="Helvetica,sans-Serif" font-size="10.00">Scene.cpp</text>
</a>
</g>
</g>
<!-- Node1&#45;&gt;Node30 -->
<g id="edge52_Node000001_Node000030" class="edge">
<title>Node1&#45;&gt;Node30</title>
<g id="a_edge52_Node000001_Node000030"><a xlink:title=" ">
<path fill="none" stroke="#63b8ff" d="M871.25,-267.45C744.29,-264.06 523.74,-253.23 451.88,-218.75 414.61,-200.87 407.2,-188.23 386.88,-152.25 374.91,-131.06 369.6,-102.91 367.37,-86.05"/>
<polygon fill="#63b8ff" stroke="#63b8ff" points="870.88,-270.94 880.97,-267.7 871.06,-263.95 870.88,-270.94"/>
</a>
</g>
</g>
<!-- Node32 -->
<g id="Node000032" class="node">
<title>Node32</title>
<g id="a_Node000032"><a xlink:href="RoomWaitingScene_8cpp.html" target="_top" xlink:title=" ">
<polygon fill="white" stroke="#666666" points="635.5,-85.75 482.25,-85.75 482.25,-55.25 635.5,-55.25 635.5,-85.75"/>
<text xml:space="preserve" text-anchor="start" x="490.25" y="-72.25" font-family="Helvetica,sans-Serif" font-size="10.00">client/src/Scenes/RoomWaiting</text>
<text xml:space="preserve" text-anchor="middle" x="558.88" y="-61" font-family="Helvetica,sans-Serif" font-size="10.00">Scene.cpp</text>
</a>
</g>
</g>
<!-- Node1&#45;&gt;Node32 -->
<g id="edge53_Node000001_Node000032" class="edge">
<title>Node1&#45;&gt;Node32</title>
<g id="a_edge53_Node000001_Node000032"><a xlink:title=" ">
<path fill="none" stroke="#63b8ff" d="M870.8,-263.59C726.01,-253.03 457.34,-224.04 398.88,-152.25 369.79,-116.54 427.81,-95.13 481.94,-83.42"/>
<polygon fill="#63b8ff" stroke="#63b8ff" points="870.55,-267.09 880.77,-264.31 871.04,-260.1 870.55,-267.09"/>
</a>
</g>
</g>
<!-- Node3 -->
<g id="Node000003" class="node">
<title>Node3</title>
<g id="a_Node000003"><a xlink:href="Application_8cpp.html" target="_top" xlink:title=" ">
<polygon fill="white" stroke="#666666" points="1248.62,-19.25 1099.12,-19.25 1099.12,0 1248.62,0 1248.62,-19.25"/>
<text xml:space="preserve" text-anchor="middle" x="1173.88" y="-5.75" font-family="Helvetica,sans-Serif" font-size="10.00">client/src/Core/Application.cpp</text>
</a>
</g>
</g>
<!-- Node2&#45;&gt;Node3 -->
<g id="edge2_Node000002_Node000003" class="edge">
<title>Node2&#45;&gt;Node3</title>
<g id="a_edge2_Node000002_Node000003"><a xlink:title=" ">
<path fill="none" stroke="#63b8ff" d="M1218.74,-47.83C1207.03,-38.12 1193.85,-27.19 1184.82,-19.7"/>
<polygon fill="#63b8ff" stroke="#63b8ff" points="1216.23,-50.29 1226.16,-53.98 1220.7,-44.9 1216.23,-50.29"/>
</a>
</g>
</g>
<!-- Node4 -->
<g id="Node000004" class="node">
<title>Node4</title>
<g id="a_Node000004"><a xlink:href="client_2src_2main_8cpp.html" target="_top" xlink:title=" ">
<polygon fill="white" stroke="#666666" points="1365.12,-19.25 1266.62,-19.25 1266.62,0 1365.12,0 1365.12,-19.25"/>
<text xml:space="preserve" text-anchor="middle" x="1315.88" y="-5.75" font-family="Helvetica,sans-Serif" font-size="10.00">client/src/main.cpp</text>
</a>
</g>
</g>
<!-- Node2&#45;&gt;Node4 -->
<g id="edge3_Node000002_Node000004" class="edge">
<title>Node2&#45;&gt;Node4</title>
<g id="a_edge3_Node000002_Node000004"><a xlink:title=" ">
<path fill="none" stroke="#63b8ff" d="M1271.01,-47.83C1282.72,-38.12 1295.9,-27.19 1304.93,-19.7"/>
<polygon fill="#63b8ff" stroke="#63b8ff" points="1269.05,-44.9 1263.59,-53.98 1273.52,-50.29 1269.05,-44.9"/>
</a>
</g>
</g>
<!-- Node5&#45;&gt;Node2 -->
<g id="edge5_Node000005_Node000002" class="edge">
<title>Node5&#45;&gt;Node2</title>
<g id="a_edge5_Node000005_Node000002"><a xlink:title=" ">
<path fill="none" stroke="#63b8ff" d="M325.3,-202.03C471.42,-200.27 805.96,-191.88 911.88,-152.25 933.15,-144.29 931.92,-130.51 952.88,-121.75 1050.37,-81.01 1084.29,-106.59 1187.88,-85.75 1190.58,-85.21 1193.34,-84.62 1196.12,-84"/>
<polygon fill="#63b8ff" stroke="#63b8ff" points="325.32,-198.53 315.36,-202.15 325.4,-205.53 325.32,-198.53"/>
</a>
</g>
</g>
<!-- Node6 -->
<g id="Node000006" class="node">
<title>Node6</title>
<g id="a_Node000006"><a xlink:href="SpriteCustomizer_8cpp.html" target="_top" xlink:title=" ">
<polygon fill="white" stroke="#666666" points="181.75,-146.62 0,-146.62 0,-127.38 181.75,-127.38 181.75,-146.62"/>
<text xml:space="preserve" text-anchor="middle" x="90.88" y="-133.12" font-family="Helvetica,sans-Serif" font-size="10.00">client/src/Game/SpriteCustomizer.cpp</text>
</a>
</g>
</g>
<!-- Node5&#45;&gt;Node6 -->
<g id="edge6_Node000005_Node000006" class="edge">
<title>Node5&#45;&gt;Node6</title>
<g id="a_edge6_Node000005_Node000006"><a xlink:title=" ">
<path fill="none" stroke="#63b8ff" d="M207.86,-183.73C176.94,-171.65 138.14,-156.48 113.92,-147.01"/>
<polygon fill="#63b8ff" stroke="#63b8ff" points="206.44,-186.93 217.02,-187.31 208.98,-180.41 206.44,-186.93"/>
</a>
</g>
</g>
<!-- Node7 -->
<g id="Node000007" class="node">
<title>Node7</title>
<g id="a_Node000007"><a xlink:href="UIRenderSystem_8cpp.html" target="_top" xlink:title=" ">
<polygon fill="white" stroke="#666666" points="313.62,-152.25 200.12,-152.25 200.12,-121.75 313.62,-121.75 313.62,-152.25"/>
<text xml:space="preserve" text-anchor="start" x="208.12" y="-138.75" font-family="Helvetica,sans-Serif" font-size="10.00">client/src/Systems</text>
<text xml:space="preserve" text-anchor="middle" x="256.88" y="-127.5" font-family="Helvetica,sans-Serif" font-size="10.00">/UIRenderSystem.cpp</text>
</a>
</g>
</g>
<!-- Node5&#45;&gt;Node7 -->
<g id="edge7_Node000005_Node000007" class="edge">
<title>Node5&#45;&gt;Node7</title>
<g id="a_edge7_Node000005_Node000007"><a xlink:title=" ">
<path fill="none" stroke="#63b8ff" d="M256.28,-176.56C256.4,-168.39 256.54,-159.66 256.65,-152.58"/>
<polygon fill="#63b8ff" stroke="#63b8ff" points="252.78,-176.3 256.13,-186.35 259.78,-176.41 252.78,-176.3"/>
</a>
</g>
</g>
<!-- Node8&#45;&gt;Node2 -->
<g id="edge9_Node000008_Node000002" class="edge">
<title>Node8&#45;&gt;Node2</title>
<g id="a_edge9_Node000008_Node000002"><a xlink:title=" ">
<path fill="none" stroke="#63b8ff" d="M935.88,-178.34C948.7,-159.84 968.84,-135.27 992.88,-121.75 1069.68,-78.53 1101.75,-104.45 1187.88,-85.75 1190.57,-85.17 1193.32,-84.55 1196.1,-83.91"/>
<polygon fill="#63b8ff" stroke="#63b8ff" points="933,-176.36 930.38,-186.63 938.83,-180.23 933,-176.36"/>
</a>
</g>
</g>
<!-- Node9 -->
<g id="Node000009" class="node">
<title>Node9</title>
<g id="a_Node000009"><a xlink:href="UISystem_8cpp.html" target="_top" xlink:title=" ">
<polygon fill="white" stroke="#666666" points="505.75,-152.25 408,-152.25 408,-121.75 505.75,-121.75 505.75,-152.25"/>
<text xml:space="preserve" text-anchor="start" x="416" y="-138.75" font-family="Helvetica,sans-Serif" font-size="10.00">client/src/Systems</text>
<text xml:space="preserve" text-anchor="middle" x="456.88" y="-127.5" font-family="Helvetica,sans-Serif" font-size="10.00">/UISystem.cpp</text>
</a>
</g>
</g>
<!-- Node8&#45;&gt;Node9 -->
<g id="edge10_Node000008_Node000009" class="edge">
<title>Node8&#45;&gt;Node9</title>
<g id="a_edge10_Node000008_Node000009"><a xlink:title=" ">
<path fill="none" stroke="#63b8ff" d="M852.01,-196.47C770.95,-188.8 632.46,-173.89 514.88,-152.25 512.02,-151.72 509.1,-151.14 506.15,-150.53"/>
<polygon fill="#63b8ff" stroke="#63b8ff" points="851.27,-199.92 861.56,-197.36 851.93,-192.95 851.27,-199.92"/>
</a>
</g>
</g>
<!-- Node10&#45;&gt;Node2 -->
<g id="edge12_Node000010_Node000002" class="edge">
<title>Node10&#45;&gt;Node2</title>
<g id="a_edge12_Node000010_Node000002"><a xlink:title=" ">
<path fill="none" stroke="#63b8ff" d="M1361.17,-186.47C1348.71,-176.96 1332.99,-164.41 1319.88,-152.25 1296.45,-130.52 1271.67,-102.78 1257.27,-86.11"/>
<polygon fill="#63b8ff" stroke="#63b8ff" points="1359.05,-189.25 1369.14,-192.47 1363.26,-183.66 1359.05,-189.25"/>
</a>
</g>
</g>
<!-- Node11 -->
<g id="Node000011" class="node">
<title>Node11</title>
<g id="a_Node000011"><a xlink:href="CreateRoomScene_8hpp.html" target="_top" xlink:title=" ">
<polygon fill="white" stroke="#666666" points="1576.38,-152.25 1455.38,-152.25 1455.38,-121.75 1576.38,-121.75 1576.38,-152.25"/>
<text xml:space="preserve" text-anchor="start" x="1463.38" y="-138.75" font-family="Helvetica,sans-Serif" font-size="10.00">client/include/Scenes</text>
<text xml:space="preserve" text-anchor="middle" x="1515.88" y="-127.5" font-family="Helvetica,sans-Serif" font-size="10.00">/CreateRoomScene.hpp</text>
</a>
</g>
</g>
<!-- Node10&#45;&gt;Node11 -->
<g id="edge13_Node000010_Node000011" class="edge">
<title>Node10&#45;&gt;Node11</title>
<g id="a_edge13_Node000010_Node000011"><a xlink:title=" ">
<path fill="none" stroke="#63b8ff" d="M1411.95,-188.4C1433.78,-177.81 1463.58,-163.36 1485.67,-152.65"/>
<polygon fill="#63b8ff" stroke="#63b8ff" points="1410.48,-185.22 1403.01,-192.74 1413.54,-191.52 1410.48,-185.22"/>
</a>
</g>
</g>
<!-- Node13 -->
<g id="Node000013" class="node">
<title>Node13</title>
<g id="a_Node000013"><a xlink:href="GameOverScene_8hpp.html" target="_top" xlink:title=" ">
<polygon fill="white" stroke="#666666" points="1707.25,-152.25 1594.5,-152.25 1594.5,-121.75 1707.25,-121.75 1707.25,-152.25"/>
<text xml:space="preserve" text-anchor="start" x="1602.5" y="-138.75" font-family="Helvetica,sans-Serif" font-size="10.00">client/include/Scenes</text>
<text xml:space="preserve" text-anchor="middle" x="1650.88" y="-127.5" font-family="Helvetica,sans-Serif" font-size="10.00">/GameOverScene.hpp</text>
</a>
</g>
</g>
<!-- Node10&#45;&gt;Node13 -->
<g id="edge16_Node000010_Node000013" class="edge">
<title>Node10&#45;&gt;Node13</title>
<g id="a_edge16_Node000010_Node000013"><a xlink:title=" ">
<path fill="none" stroke="#63b8ff" d="M1431.83,-190.72C1477.59,-179.7 1545.91,-163.26 1594.06,-151.67"/>
<polygon fill="#63b8ff" stroke="#63b8ff" points="1431.08,-187.3 1422.18,-193.04 1432.72,-194.1 1431.08,-187.3"/>
</a>
</g>
</g>
<!-- Node15 -->
<g id="Node000015" class="node">
<title>Node15</title>
<g id="a_Node000015"><a xlink:href="GamepadSettingsScene_8hpp.html" target="_top" xlink:title=" ">
<polygon fill="white" stroke="#666666" points="1868.62,-152.25 1725.12,-152.25 1725.12,-121.75 1868.62,-121.75 1868.62,-152.25"/>
<text xml:space="preserve" text-anchor="start" x="1733.12" y="-138.75" font-family="Helvetica,sans-Serif" font-size="10.00">client/include/Scenes</text>
<text xml:space="preserve" text-anchor="middle" x="1796.88" y="-127.5" font-family="Helvetica,sans-Serif" font-size="10.00">/GamepadSettingsScene.hpp</text>
</a>
</g>
</g>
<!-- Node10&#45;&gt;Node15 -->
<g id="edge19_Node000010_Node000015" class="edge">
<title>Node10&#45;&gt;Node15</title>
<g id="a_edge19_Node000010_Node000015"><a xlink:title=" ">
<path fill="none" stroke="#63b8ff" d="M1457.53,-191.77C1525.07,-181.93 1627.24,-166.73 1715.88,-152.25 1718.83,-151.77 1721.85,-151.27 1724.9,-150.76"/>
<polygon fill="#63b8ff" stroke="#63b8ff" points="1457.06,-188.3 1447.66,-193.2 1458.06,-195.22 1457.06,-188.3"/>
</a>
</g>
</g>
<!-- Node17 -->
<g id="Node000017" class="node">
<title>Node17</title>
<g id="a_Node000017"><a xlink:href="KeyBindingScene_8hpp.html" target="_top" xlink:title=" ">
<polygon fill="white" stroke="#666666" points="2001.38,-152.25 1886.38,-152.25 1886.38,-121.75 2001.38,-121.75 2001.38,-152.25"/>
<text xml:space="preserve" text-anchor="start" x="1894.38" y="-138.75" font-family="Helvetica,sans-Serif" font-size="10.00">client/include/Scenes</text>
<text xml:space="preserve" text-anchor="middle" x="1943.88" y="-127.5" font-family="Helvetica,sans-Serif" font-size="10.00">/KeyBindingScene.hpp</text>
</a>
</g>
</g>
<!-- Node10&#45;&gt;Node17 -->
<g id="edge22_Node000010_Node000017" class="edge">
<title>Node10&#45;&gt;Node17</title>
<g id="a_edge22_Node000010_Node000017"><a xlink:title=" ">
<path fill="none" stroke="#63b8ff" d="M1469.29,-196.66C1568.37,-189.29 1735.49,-174.78 1877.88,-152.25 1880.54,-151.83 1883.26,-151.37 1886,-150.88"/>
<polygon fill="#63b8ff" stroke="#63b8ff" points="1469.07,-193.17 1459.36,-197.39 1469.59,-200.15 1469.07,-193.17"/>
</a>
</g>
</g>
<!-- Node19 -->
<g id="Node000019" class="node">
<title>Node19</title>
<g id="a_Node000019"><a xlink:href="LobbyScene_8hpp.html" target="_top" xlink:title=" ">
<polygon fill="white" stroke="#666666" points="2128.38,-152.25 2019.38,-152.25 2019.38,-121.75 2128.38,-121.75 2128.38,-152.25"/>
<text xml:space="preserve" text-anchor="start" x="2027.38" y="-138.75" font-family="Helvetica,sans-Serif" font-size="10.00">client/include/Scenes</text>
<text xml:space="preserve" text-anchor="middle" x="2073.88" y="-127.5" font-family="Helvetica,sans-Serif" font-size="10.00">/LobbyScene.hpp</text>
</a>
</g>
</g>
<!-- Node10&#45;&gt;Node19 -->
<g id="edge25_Node000010_Node000019" class="edge">
<title>Node10&#45;&gt;Node19</title>
<g id="a_edge25_Node000010_Node000019"><a xlink:title=" ">
<path fill="none" stroke="#63b8ff" d="M1469.12,-199.49C1590.58,-194.37 1818.66,-181.53 2010.88,-152.25 2013.54,-151.84 2016.25,-151.39 2018.99,-150.9"/>
<polygon fill="#63b8ff" stroke="#63b8ff" points="1469.07,-195.99 1459.22,-199.9 1469.36,-202.99 1469.07,-195.99"/>
</a>
</g>
</g>
<!-- Node21 -->
<g id="Node000021" class="node">
<title>Node21</title>
<g id="a_Node000021"><a xlink:href="LoginScene_8hpp.html" target="_top" xlink:title=" ">
<polygon fill="white" stroke="#666666" points="902.38,-152.25 793.38,-152.25 793.38,-121.75 902.38,-121.75 902.38,-152.25"/>
<text xml:space="preserve" text-anchor="start" x="801.38" y="-138.75" font-family="Helvetica,sans-Serif" font-size="10.00">client/include/Scenes</text>
<text xml:space="preserve" text-anchor="middle" x="847.88" y="-127.5" font-family="Helvetica,sans-Serif" font-size="10.00">/LoginScene.hpp</text>
</a>
</g>
</g>
<!-- Node10&#45;&gt;Node21 -->
<g id="edge28_Node000010_Node000021" class="edge">
<title>Node10&#45;&gt;Node21</title>
<g id="a_edge28_Node000010_Node000021"><a xlink:title=" ">
<path fill="none" stroke="#63b8ff" d="M1296.48,-192.08C1185.43,-178.7 995.85,-155.84 902.75,-144.62"/>
<polygon fill="#63b8ff" stroke="#63b8ff" points="1295.79,-195.53 1306.14,-193.25 1296.63,-188.58 1295.79,-195.53"/>
</a>
</g>
</g>
<!-- Node23 -->
<g id="Node000023" class="node">
<title>Node23</title>
<g id="a_Node000023"><a xlink:href="MenuScene_8hpp.html" target="_top" xlink:title=" ">
<polygon fill="white" stroke="#666666" points="2406.38,-152.25 2297.38,-152.25 2297.38,-121.75 2406.38,-121.75 2406.38,-152.25"/>
<text xml:space="preserve" text-anchor="start" x="2305.38" y="-138.75" font-family="Helvetica,sans-Serif" font-size="10.00">client/include/Scenes</text>
<text xml:space="preserve" text-anchor="middle" x="2351.88" y="-127.5" font-family="Helvetica,sans-Serif" font-size="10.00">/MenuScene.hpp</text>
</a>
</g>
</g>
<!-- Node10&#45;&gt;Node23 -->
<g id="edge31_Node000010_Node000023" class="edge">
<title>Node10&#45;&gt;Node23</title>
<g id="a_edge31_Node000010_Node000023"><a xlink:title=" ">
<path fill="none" stroke="#63b8ff" d="M1469.35,-202.39C1630.93,-201.15 1989.32,-193.49 2287.88,-152.25 2290.92,-151.83 2294.03,-151.34 2297.17,-150.8"/>
<polygon fill="#63b8ff" stroke="#63b8ff" points="1469.55,-198.89 1459.58,-202.46 1469.6,-205.89 1469.55,-198.89"/>
</a>
</g>
</g>
<!-- Node25 -->
<g id="Node000025" class="node">
<title>Node25</title>
<g id="a_Node000025"><a xlink:href="ModMenuScene_8hpp.html" target="_top" xlink:title=" ">
<polygon fill="white" stroke="#666666" points="1144.38,-152.25 1035.38,-152.25 1035.38,-121.75 1144.38,-121.75 1144.38,-152.25"/>
<text xml:space="preserve" text-anchor="start" x="1043.38" y="-138.75" font-family="Helvetica,sans-Serif" font-size="10.00">client/include/Scenes</text>
<text xml:space="preserve" text-anchor="middle" x="1089.88" y="-127.5" font-family="Helvetica,sans-Serif" font-size="10.00">/ModMenuScene.hpp</text>
</a>
</g>
</g>
<!-- Node10&#45;&gt;Node25 -->
<g id="edge34_Node000010_Node000025" class="edge">
<title>Node10&#45;&gt;Node25</title>
<g id="a_edge34_Node000010_Node000025"><a xlink:title=" ">
<path fill="none" stroke="#63b8ff" d="M1330.51,-191.06C1284.08,-180.9 1214.46,-165.64 1153.88,-152.25 1150.87,-151.59 1147.79,-150.9 1144.69,-150.22"/>
<polygon fill="#63b8ff" stroke="#63b8ff" points="1329.5,-194.42 1340.02,-193.14 1331,-187.58 1329.5,-194.42"/>
</a>
</g>
</g>
<!-- Node27 -->
<g id="Node000027" class="node">
<title>Node27</title>
<g id="a_Node000027"><a xlink:href="PauseScene_8hpp.html" target="_top" xlink:title=" ">
<polygon fill="white" stroke="#666666" points="1271.38,-152.25 1162.38,-152.25 1162.38,-121.75 1271.38,-121.75 1271.38,-152.25"/>
<text xml:space="preserve" text-anchor="start" x="1170.38" y="-138.75" font-family="Helvetica,sans-Serif" font-size="10.00">client/include/Scenes</text>
<text xml:space="preserve" text-anchor="middle" x="1216.88" y="-127.5" font-family="Helvetica,sans-Serif" font-size="10.00">/PauseScene.hpp</text>
</a>
</g>
</g>
<!-- Node10&#45;&gt;Node27 -->
<g id="edge37_Node000010_Node000027" class="edge">
<title>Node10&#45;&gt;Node27</title>
<g id="a_edge37_Node000010_Node000027"><a xlink:title=" ">
<path fill="none" stroke="#63b8ff" d="M1348.8,-189.26C1321.39,-178.61 1282.91,-163.66 1254.58,-152.65"/>
<polygon fill="#63b8ff" stroke="#63b8ff" points="1347.44,-192.49 1358.03,-192.85 1349.98,-185.96 1347.44,-192.49"/>
</a>
</g>
</g>
<!-- Node29 -->
<g id="Node000029" class="node">
<title>Node29</title>
<g id="a_Node000029"><a xlink:href="PlayingScene_8hpp.html" target="_top" xlink:title=" ">
<polygon fill="white" stroke="#666666" points="632.38,-152.25 523.38,-152.25 523.38,-121.75 632.38,-121.75 632.38,-152.25"/>
<text xml:space="preserve" text-anchor="start" x="531.38" y="-138.75" font-family="Helvetica,sans-Serif" font-size="10.00">client/include/Scenes</text>
<text xml:space="preserve" text-anchor="middle" x="577.88" y="-127.5" font-family="Helvetica,sans-Serif" font-size="10.00">/PlayingScene.hpp</text>
</a>
</g>
</g>
<!-- Node10&#45;&gt;Node29 -->
<g id="edge40_Node000010_Node000029" class="edge">
<title>Node10&#45;&gt;Node29</title>
<g id="a_edge40_Node000010_Node000029"><a xlink:title=" ">
<path fill="none" stroke="#63b8ff" d="M1296.45,-200.88C1157.73,-197.32 877.1,-186.21 641.88,-152.25 638.83,-151.81 635.72,-151.31 632.59,-150.75"/>
<polygon fill="#63b8ff" stroke="#63b8ff" points="1296.21,-204.37 1306.29,-201.12 1296.38,-197.37 1296.21,-204.37"/>
</a>
</g>
</g>
<!-- Node31 -->
<g id="Node000031" class="node">
<title>Node31</title>
<g id="a_Node000031"><a xlink:href="RoomWaitingScene_8hpp.html" target="_top" xlink:title=" ">
<polygon fill="white" stroke="#666666" points="774.88,-152.25 650.88,-152.25 650.88,-121.75 774.88,-121.75 774.88,-152.25"/>
<text xml:space="preserve" text-anchor="start" x="658.88" y="-138.75" font-family="Helvetica,sans-Serif" font-size="10.00">client/include/Scenes</text>
<text xml:space="preserve" text-anchor="middle" x="712.88" y="-127.5" font-family="Helvetica,sans-Serif" font-size="10.00">/RoomWaitingScene.hpp</text>
</a>
</g>
</g>
<!-- Node10&#45;&gt;Node31 -->
<g id="edge43_Node000010_Node000031" class="edge">
<title>Node10&#45;&gt;Node31</title>
<g id="a_edge43_Node000010_Node000031"><a xlink:title=" ">
<path fill="none" stroke="#63b8ff" d="M1296.68,-198.28C1180.16,-191.89 966.1,-177.72 784.88,-152.25 781.72,-151.81 778.5,-151.31 775.24,-150.79"/>
<polygon fill="#63b8ff" stroke="#63b8ff" points="1296.31,-201.77 1306.48,-198.81 1296.69,-194.78 1296.31,-201.77"/>
</a>
</g>
</g>
<!-- Node33 -->
<g id="Node000033" class="node">
<title>Node33</title>
<g id="a_Node000033"><a xlink:href="SettingsScene_8hpp.html" target="_top" xlink:title=" ">
<polygon fill="white" stroke="#666666" points="1437.38,-152.25 1328.38,-152.25 1328.38,-121.75 1437.38,-121.75 1437.38,-152.25"/>
<text xml:space="preserve" text-anchor="start" x="1336.38" y="-138.75" font-family="Helvetica,sans-Serif" font-size="10.00">client/include/Scenes</text>
<text xml:space="preserve" text-anchor="middle" x="1382.88" y="-127.5" font-family="Helvetica,sans-Serif" font-size="10.00">/SettingsScene.hpp</text>
</a>
</g>
</g>
<!-- Node10&#45;&gt;Node33 -->
<g id="edge46_Node000010_Node000033" class="edge">
<title>Node10&#45;&gt;Node33</title>
<g id="a_edge46_Node000010_Node000033"><a xlink:title=" ">
<path fill="none" stroke="#63b8ff" d="M1382.88,-182.12C1382.88,-172.44 1382.88,-161.1 1382.88,-152.34"/>
<polygon fill="#63b8ff" stroke="#63b8ff" points="1379.38,-182.02 1382.88,-192.02 1386.38,-182.02 1379.38,-182.02"/>
</a>
</g>
</g>
<!-- Node35 -->
<g id="Node000035" class="node">
<title>Node35</title>
<g id="a_Node000035"><a xlink:href="UiFactory_8cpp.html" target="_top" xlink:title=" ">
<polygon fill="white" stroke="#666666" points="2279,-146.62 2146.75,-146.62 2146.75,-127.38 2279,-127.38 2279,-146.62"/>
<text xml:space="preserve" text-anchor="middle" x="2212.88" y="-133.12" font-family="Helvetica,sans-Serif" font-size="10.00">client/src/UI/UiFactory.cpp</text>
</a>
</g>
</g>
<!-- Node10&#45;&gt;Node35 -->
<g id="edge49_Node000010_Node000035" class="edge">
<title>Node10&#45;&gt;Node35</title>
<g id="a_edge49_Node000010_Node000035"><a xlink:title=" ">
<path fill="none" stroke="#63b8ff" d="M1469,-200.17C1609.53,-195.6 1896.66,-183.08 2137.88,-152.25 2148.26,-150.92 2159.38,-149.06 2169.79,-147.11"/>
<polygon fill="#63b8ff" stroke="#63b8ff" points="1469.31,-196.65 1459.42,-200.47 1469.53,-203.65 1469.31,-196.65"/>
</a>
</g>
</g>
<!-- Node11&#45;&gt;Node2 -->
<g id="edge14_Node000011_Node000002" class="edge">
<title>Node11&#45;&gt;Node2</title>
<g id="a_edge14_Node000011_Node000002"><a xlink:title=" ">
<path fill="none" stroke="#63b8ff" d="M1444.18,-119.26C1402.85,-109.57 1349.91,-97.08 1302.88,-85.75 1299.85,-85.02 1296.74,-84.27 1293.6,-83.51"/>
<polygon fill="#63b8ff" stroke="#63b8ff" points="1443.24,-122.63 1453.77,-121.51 1444.83,-115.82 1443.24,-122.63"/>
</a>
</g>
</g>
<!-- Node12 -->
<g id="Node000012" class="node">
<title>Node12</title>
<g id="a_Node000012"><a xlink:href="CreateRoomScene_8cpp.html" target="_top" xlink:title=" ">
<polygon fill="white" stroke="#666666" points="1583.88,-85.75 1459.88,-85.75 1459.88,-55.25 1583.88,-55.25 1583.88,-85.75"/>
<text xml:space="preserve" text-anchor="start" x="1467.88" y="-72.25" font-family="Helvetica,sans-Serif" font-size="10.00">client/src/Scenes/Create</text>
<text xml:space="preserve" text-anchor="middle" x="1521.88" y="-61" font-family="Helvetica,sans-Serif" font-size="10.00">RoomScene.cpp</text>
</a>
</g>
</g>
<!-- Node11&#45;&gt;Node12 -->
<g id="edge15_Node000011_Node000012" class="edge">
<title>Node11&#45;&gt;Node12</title>
<g id="a_edge15_Node000011_Node000012"><a xlink:title=" ">
<path fill="none" stroke="#63b8ff" d="M1518.29,-110.06C1519.05,-101.89 1519.86,-93.16 1520.52,-86.08"/>
<polygon fill="#63b8ff" stroke="#63b8ff" points="1514.82,-109.58 1517.38,-119.86 1521.79,-110.22 1514.82,-109.58"/>
</a>
</g>
</g>
<!-- Node13&#45;&gt;Node2 -->
<g id="edge17_Node000013_Node000002" class="edge">
<title>Node13&#45;&gt;Node2</title>
<g id="a_edge17_Node000013_Node000002"><a xlink:title=" ">
<path fill="none" stroke="#63b8ff" d="M1583.13,-121.38C1458.97,-100.62 1424,-108.26 1302.88,-85.75 1299.92,-85.2 1296.89,-84.59 1293.84,-83.95"/>
<polygon fill="#63b8ff" stroke="#63b8ff" points="1582.28,-124.78 1592.72,-123.01 1583.45,-117.88 1582.28,-124.78"/>
</a>
</g>
</g>
<!-- Node14 -->
<g id="Node000014" class="node">
<title>Node14</title>
<g id="a_Node000014"><a xlink:href="GameOverScene_8cpp.html" target="_top" xlink:title=" ">
<polygon fill="white" stroke="#666666" points="1743.88,-85.75 1601.88,-85.75 1601.88,-55.25 1743.88,-55.25 1743.88,-85.75"/>
<text xml:space="preserve" text-anchor="start" x="1609.88" y="-72.25" font-family="Helvetica,sans-Serif" font-size="10.00">client/src/Scenes/GameOver</text>
<text xml:space="preserve" text-anchor="middle" x="1672.88" y="-61" font-family="Helvetica,sans-Serif" font-size="10.00">Scene.cpp</text>
</a>
</g>
</g>
<!-- Node13&#45;&gt;Node14 -->
<g id="edge18_Node000013_Node000014" class="edge">
<title>Node13&#45;&gt;Node14</title>
<g id="a_edge18_Node000013_Node000014"><a xlink:title=" ">
<path fill="none" stroke="#63b8ff" d="M1659.53,-110.63C1662.37,-102.3 1665.43,-93.33 1667.9,-86.08"/>
<polygon fill="#63b8ff" stroke="#63b8ff" points="1656.27,-109.34 1656.36,-119.93 1662.9,-111.6 1656.27,-109.34"/>
</a>
</g>
</g>
<!-- Node15&#45;&gt;Node2 -->
<g id="edge20_Node000015_Node000002" class="edge">
<title>Node15&#45;&gt;Node2</title>
<g id="a_edge20_Node000015_Node000002"><a xlink:title=" ">
<path fill="none" stroke="#63b8ff" d="M1713.59,-121.54C1531.19,-98.47 1481.02,-115.22 1302.88,-85.75 1299.91,-85.26 1296.87,-84.7 1293.81,-84.09"/>
<polygon fill="#63b8ff" stroke="#63b8ff" points="1713.07,-125.01 1723.44,-122.81 1713.97,-118.06 1713.07,-125.01"/>
</a>
</g>
</g>
<!-- Node16 -->
<g id="Node000016" class="node">
<title>Node16</title>
<g id="a_Node000016"><a xlink:href="GamepadSettingsScene_8cpp.html" target="_top" xlink:title=" ">
<polygon fill="white" stroke="#666666" points="1898.25,-85.75 1761.5,-85.75 1761.5,-55.25 1898.25,-55.25 1898.25,-85.75"/>
<text xml:space="preserve" text-anchor="start" x="1769.5" y="-72.25" font-family="Helvetica,sans-Serif" font-size="10.00">client/src/Scenes/Gamepad</text>
<text xml:space="preserve" text-anchor="middle" x="1829.88" y="-61" font-family="Helvetica,sans-Serif" font-size="10.00">SettingsScene.cpp</text>
</a>
</g>
</g>
<!-- Node15&#45;&gt;Node16 -->
<g id="edge21_Node000015_Node000016" class="edge">
<title>Node15&#45;&gt;Node16</title>
<g id="a_edge21_Node000015_Node000016"><a xlink:title=" ">
<path fill="none" stroke="#63b8ff" d="M1809.57,-111.19C1813.91,-102.71 1818.62,-93.49 1822.42,-86.08"/>
<polygon fill="#63b8ff" stroke="#63b8ff" points="1806.49,-109.52 1805.05,-120.02 1812.72,-112.71 1806.49,-109.52"/>
</a>
</g>
</g>
<!-- Node17&#45;&gt;Node2 -->
<g id="edge23_Node000017_Node000002" class="edge">
<title>Node17&#45;&gt;Node2</title>
<g id="a_edge23_Node000017_Node000002"><a xlink:title=" ">
<path fill="none" stroke="#63b8ff" d="M1874.63,-121.44C1622.2,-87.72 1552.28,-123.88 1302.88,-85.75 1299.9,-85.3 1296.86,-84.76 1293.8,-84.17"/>
<polygon fill="#63b8ff" stroke="#63b8ff" points="1874.13,-124.91 1884.51,-122.79 1875.08,-117.97 1874.13,-124.91"/>
</a>
</g>
</g>
<!-- Node18 -->
<g id="Node000018" class="node">
<title>Node18</title>
<g id="a_Node000018"><a xlink:href="KeyBindingScene_8cpp.html" target="_top" xlink:title=" ">
<polygon fill="white" stroke="#666666" points="2061,-85.75 1916.75,-85.75 1916.75,-55.25 2061,-55.25 2061,-85.75"/>
<text xml:space="preserve" text-anchor="start" x="1924.75" y="-72.25" font-family="Helvetica,sans-Serif" font-size="10.00">client/src/Scenes/KeyBinding</text>
<text xml:space="preserve" text-anchor="middle" x="1988.88" y="-61" font-family="Helvetica,sans-Serif" font-size="10.00">Scene.cpp</text>
</a>
</g>
</g>
<!-- Node17&#45;&gt;Node18 -->
<g id="edge24_Node000017_Node000018" class="edge">
<title>Node17&#45;&gt;Node18</title>
<g id="a_edge24_Node000017_Node000018"><a xlink:title=" ">
<path fill="none" stroke="#63b8ff" d="M1960.59,-112.04C1966.67,-103.32 1973.36,-93.74 1978.7,-86.08"/>
<polygon fill="#63b8ff" stroke="#63b8ff" points="1957.8,-109.92 1954.95,-120.12 1963.54,-113.92 1957.8,-109.92"/>
</a>
</g>
</g>
<!-- Node19&#45;&gt;Node2 -->
<g id="edge26_Node000019_Node000002" class="edge">
<title>Node19&#45;&gt;Node2</title>
<g id="a_edge26_Node000019_Node000002"><a xlink:title=" ">
<path fill="none" stroke="#63b8ff" d="M2007.84,-121.49C1696.73,-80.06 1610.95,-131.01 1302.88,-85.75 1299.9,-85.31 1296.85,-84.79 1293.79,-84.21"/>
<polygon fill="#63b8ff" stroke="#63b8ff" points="2007.12,-124.93 2017.5,-122.8 2008.06,-117.99 2007.12,-124.93"/>
</a>
</g>
</g>
<!-- Node19&#45;&gt;Node20 -->
<g id="edge27_Node000019_Node000020" class="edge">
<title>Node19&#45;&gt;Node20</title>
<g id="a_edge27_Node000019_Node000020"><a xlink:title=" ">
<path fill="none" stroke="#63b8ff" d="M2117.96,-116.91C2145.76,-104.88 2180.38,-89.9 2202.06,-80.51"/>
<polygon fill="#63b8ff" stroke="#63b8ff" points="2116.86,-113.58 2109.07,-120.76 2119.64,-120 2116.86,-113.58"/>
</a>
</g>
</g>
<!-- Node21&#45;&gt;Node2 -->
<g id="edge29_Node000021_Node000002" class="edge">
<title>Node21&#45;&gt;Node2</title>
<g id="a_edge29_Node000021_Node000002"><a xlink:title=" ">
<path fill="none" stroke="#63b8ff" d="M913.85,-122.27C914.86,-122.09 915.87,-121.92 916.88,-121.75 1036.67,-101.45 1068.53,-108.52 1187.88,-85.75 1190.58,-85.23 1193.35,-84.67 1196.14,-84.07"/>
<polygon fill="#63b8ff" stroke="#63b8ff" points="913.49,-118.78 904.28,-124.02 914.75,-125.66 913.49,-118.78"/>
</a>
</g>
</g>
<!-- Node22 -->
<g id="Node000022" class="node">
<title>Node22</title>
<g id="a_Node000022"><a xlink:href="LoginScene_8cpp.html" target="_top" xlink:title=" ">
<polygon fill="white" stroke="#666666" points="836.12,-80.12 671.62,-80.12 671.62,-60.88 836.12,-60.88 836.12,-80.12"/>
<text xml:space="preserve" text-anchor="middle" x="753.88" y="-66.62" font-family="Helvetica,sans-Serif" font-size="10.00">client/src/Scenes/LoginScene.cpp</text>
</a>
</g>
</g>
<!-- Node21&#45;&gt;Node22 -->
<g id="edge30_Node000021_Node000022" class="edge">
<title>Node21&#45;&gt;Node22</title>
<g id="a_edge30_Node000021_Node000022"><a xlink:title=" ">
<path fill="none" stroke="#63b8ff" d="M817.48,-115.15C800.43,-103.44 780.02,-89.44 767.01,-80.51"/>
<polygon fill="#63b8ff" stroke="#63b8ff" points="815.07,-117.74 825.3,-120.51 819.03,-111.96 815.07,-117.74"/>
</a>
</g>
</g>
<!-- Node23&#45;&gt;Node2 -->
<g id="edge32_Node000023_Node000002" class="edge">
<title>Node23&#45;&gt;Node2</title>
<g id="a_edge32_Node000023_Node000002"><a xlink:title=" ">
<path fill="none" stroke="#63b8ff" d="M2285.87,-121.7C1851.36,-67.28 1733.03,-145.81 1302.88,-85.75 1299.9,-85.33 1296.85,-84.83 1293.79,-84.26"/>
<polygon fill="#63b8ff" stroke="#63b8ff" points="2285.32,-125.15 2295.68,-122.94 2286.2,-118.21 2285.32,-125.15"/>
</a>
</g>
</g>
<!-- Node23&#45;&gt;Node24 -->
<g id="edge33_Node000023_Node000024" class="edge">
<title>Node23&#45;&gt;Node24</title>
<g id="a_edge33_Node000023_Node000024"><a xlink:title=" ">
<path fill="none" stroke="#63b8ff" d="M2373.16,-113.12C2383.71,-101.78 2395.84,-88.74 2403.67,-80.32"/>
<polygon fill="#63b8ff" stroke="#63b8ff" points="2370.77,-110.55 2366.52,-120.26 2375.89,-115.32 2370.77,-110.55"/>
</a>
</g>
</g>
<!-- Node25&#45;&gt;Node2 -->
<g id="edge35_Node000025_Node000002" class="edge">
<title>Node25&#45;&gt;Node2</title>
<g id="a_edge35_Node000025_Node000002"><a xlink:title=" ">
<path fill="none" stroke="#63b8ff" d="M1135.54,-117C1159.19,-107.16 1187.63,-95.32 1209.57,-86.19"/>
<polygon fill="#63b8ff" stroke="#63b8ff" points="1134.33,-113.71 1126.44,-120.78 1137.02,-120.17 1134.33,-113.71"/>
</a>
</g>
</g>
<!-- Node26 -->
<g id="Node000026" class="node">
<title>Node26</title>
<g id="a_Node000026"><a xlink:href="ModMenuScene_8cpp.html" target="_top" xlink:title=" ">
<polygon fill="white" stroke="#666666" points="991.62,-85.75 854.12,-85.75 854.12,-55.25 991.62,-55.25 991.62,-85.75"/>
<text xml:space="preserve" text-anchor="start" x="862.12" y="-72.25" font-family="Helvetica,sans-Serif" font-size="10.00">client/src/Scenes/ModMenu</text>
<text xml:space="preserve" text-anchor="middle" x="922.88" y="-61" font-family="Helvetica,sans-Serif" font-size="10.00">Scene.cpp</text>
</a>
</g>
</g>
<!-- Node25&#45;&gt;Node26 -->
<g id="edge36_Node000025_Node000026" class="edge">
<title>Node25&#45;&gt;Node26</title>
<g id="a_edge36_Node000025_Node000026"><a xlink:title=" ">
<path fill="none" stroke="#63b8ff" d="M1041.37,-117.26C1015.75,-107.37 984.77,-95.4 960.91,-86.19"/>
<polygon fill="#63b8ff" stroke="#63b8ff" points="1039.98,-120.48 1050.57,-120.82 1042.5,-113.95 1039.98,-120.48"/>
</a>
</g>
</g>
<!-- Node27&#45;&gt;Node2 -->
<g id="edge38_Node000027_Node000002" class="edge">
<title>Node27&#45;&gt;Node2</title>
<g id="a_edge38_Node000027_Node000002"><a xlink:title=" ">
<path fill="none" stroke="#63b8ff" d="M1227.77,-110.91C1231.42,-102.5 1235.36,-93.41 1238.55,-86.08"/>
<polygon fill="#63b8ff" stroke="#63b8ff" points="1224.6,-109.41 1223.83,-119.98 1231.02,-112.2 1224.6,-109.41"/>
</a>
</g>
</g>
<!-- Node28 -->
<g id="Node000028" class="node">
<title>Node28</title>
<g id="a_Node000028"><a xlink:href="PauseScene_8cpp.html" target="_top" xlink:title=" ">
<polygon fill="white" stroke="#666666" points="1178.38,-80.12 1009.38,-80.12 1009.38,-60.88 1178.38,-60.88 1178.38,-80.12"/>
<text xml:space="preserve" text-anchor="middle" x="1093.88" y="-66.62" font-family="Helvetica,sans-Serif" font-size="10.00">client/src/Scenes/PauseScene.cpp</text>
</a>
</g>
</g>
<!-- Node27&#45;&gt;Node28 -->
<g id="edge39_Node000027_Node000028" class="edge">
<title>Node27&#45;&gt;Node28</title>
<g id="a_edge39_Node000027_Node000028"><a xlink:title=" ">
<path fill="none" stroke="#63b8ff" d="M1178.95,-116.11C1156.28,-104.22 1128.56,-89.69 1111.06,-80.51"/>
<polygon fill="#63b8ff" stroke="#63b8ff" points="1177.14,-119.12 1187.62,-120.66 1180.39,-112.92 1177.14,-119.12"/>
</a>
</g>
</g>
<!-- Node29&#45;&gt;Node2 -->
<g id="edge41_Node000029_Node000002" class="edge">
<title>Node29&#45;&gt;Node2</title>
<g id="a_edge41_Node000029_Node000002"><a xlink:title=" ">
<path fill="none" stroke="#63b8ff" d="M643.81,-121.65C884.61,-88.3 951.25,-122.82 1187.88,-85.75 1190.6,-85.32 1193.38,-84.83 1196.18,-84.28"/>
<polygon fill="#63b8ff" stroke="#63b8ff" points="643.5,-118.16 634.08,-123.03 644.48,-125.09 643.5,-118.16"/>
</a>
</g>
</g>
<!-- Node29&#45;&gt;Node30 -->
<g id="edge42_Node000029_Node000030" class="edge">
<title>Node29&#45;&gt;Node30</title>
<g id="a_edge42_Node000029_Node000030"><a xlink:title=" ">
<path fill="none" stroke="#63b8ff" d="M518.63,-117.97C485.63,-107.93 445.07,-95.59 414.04,-86.15"/>
<polygon fill="#63b8ff" stroke="#63b8ff" points="517.47,-121.28 528.06,-120.84 519.51,-114.58 517.47,-121.28"/>
</a>
</g>
</g>
<!-- Node31&#45;&gt;Node2 -->
<g id="edge44_Node000031_Node000002" class="edge">
<title>Node31&#45;&gt;Node2</title>
<g id="a_edge44_Node000031_Node000002"><a xlink:title=" ">
<path fill="none" stroke="#63b8ff" d="M786.62,-121.63C964.89,-97.03 1014.19,-115.03 1187.88,-85.75 1190.59,-85.29 1193.37,-84.77 1196.16,-84.21"/>
<polygon fill="#63b8ff" stroke="#63b8ff" points="786.16,-118.16 776.75,-123.02 787.14,-125.09 786.16,-118.16"/>
</a>
</g>
</g>
<!-- Node31&#45;&gt;Node32 -->
<g id="edge45_Node000031_Node000032" class="edge">
<title>Node31&#45;&gt;Node32</title>
<g id="a_edge45_Node000031_Node000032"><a xlink:title=" ">
<path fill="none" stroke="#63b8ff" d="M667.51,-117C644.01,-107.16 615.75,-95.32 593.95,-86.19"/>
<polygon fill="#63b8ff" stroke="#63b8ff" points="665.96,-120.14 676.53,-120.78 668.66,-113.69 665.96,-120.14"/>
</a>
</g>
</g>
<!-- Node33&#45;&gt;Node2 -->
<g id="edge47_Node000033_Node000002" class="edge">
<title>Node33&#45;&gt;Node2</title>
<g id="a_edge47_Node000033_Node000002"><a xlink:title=" ">
<path fill="none" stroke="#63b8ff" d="M1341.33,-116.58C1320.36,-106.78 1295.36,-95.1 1276.07,-86.08"/>
<polygon fill="#63b8ff" stroke="#63b8ff" points="1339.65,-119.66 1350.19,-120.72 1342.61,-113.32 1339.65,-119.66"/>
</a>
</g>
</g>
<!-- Node34 -->
<g id="Node000034" class="node">
<title>Node34</title>
<g id="a_Node000034"><a xlink:href="SettingsScene_8cpp.html" target="_top" xlink:title=" ">
<polygon fill="white" stroke="#666666" points="1442.25,-85.75 1311.5,-85.75 1311.5,-55.25 1442.25,-55.25 1442.25,-85.75"/>
<text xml:space="preserve" text-anchor="start" x="1319.5" y="-72.25" font-family="Helvetica,sans-Serif" font-size="10.00">client/src/Scenes/Settings</text>
<text xml:space="preserve" text-anchor="middle" x="1376.88" y="-61" font-family="Helvetica,sans-Serif" font-size="10.00">Scene.cpp</text>
</a>
</g>
</g>
<!-- Node33&#45;&gt;Node34 -->
<g id="edge48_Node000033_Node000034" class="edge">
<title>Node33&#45;&gt;Node34</title>
<g id="a_edge48_Node000033_Node000034"><a xlink:title=" ">
<path fill="none" stroke="#63b8ff" d="M1380.46,-110.06C1379.7,-101.89 1378.89,-93.16 1378.23,-86.08"/>
<polygon fill="#63b8ff" stroke="#63b8ff" points="1376.96,-110.22 1381.37,-119.86 1383.93,-109.58 1376.96,-110.22"/>
</a>
</g>
</g>
</g>
</svg>
