<?xml version="1.0" encoding="UTF-8" standalone="no"?>
<!DOCTYPE svg PUBLIC "-//W3C//DTD SVG 1.1//EN"
 "http://www.w3.org/Graphics/SVG/1.1/DTD/svg11.dtd">
<!-- Generated by graphviz version 14.0.5 (20251129.0259)
 -->
<!-- Title: rtp::client::ScoreSystem Pages: 1 -->
<!--zoomable 971 -->

<svg id="main" version="1.1" xmlns="http://www.w3.org/2000/svg" xmlns:xlink="http://www.w3.org/1999/xlink" xml:space="preserve" onload="init(evt)">

<style type="text/css"><![CDATA[
.node, .edge {opacity: 0.7;}
.node.selected, .edge.selected {opacity: 1;}
.edge:hover path { stroke: red; }
.edge:hover polygon { stroke: red; fill: red; }
]]></style>

<defs>
  <circle id="rim" cx="0" cy="0" r="7"/>
  <circle id="rim2" cx="0" cy="0" r="3.5"/>
  <g id="zoomPlus">
    <use xlink:href="#rim" fill="#404040"><set attributeName="fill" to="#808080" begin="zoomplus.mouseover" end="zoomplus.mouseout"/></use>
    <path d="M-4,0h8M0,-4v8" fill="none" stroke="white" stroke-width="1.5" pointer-events="none"/>
  </g>
  <g id="zoomMin">
    <use xlink:href="#rim" fill="#404040"><set attributeName="fill" to="#808080" begin="zoomminus.mouseover" end="zoomminus.mouseout"/></use>
    <path d="M-4,0h8" fill="none" stroke="white" stroke-width="1.5" pointer-events="none"/>
  </g>
  <g id="arrowUp" transform="translate(30 24)">
    <use xlink:href="#rim"/>
    <path pointer-events="none" fill="none" stroke="white" stroke-width="1.5" d="M0,-3.0v7 M-2.5,-0.5L0,-3.0L2.5,-0.5"/>
  </g>
  <g id="arrowRight" transform="rotate(90) translate(36 -43)">
    <use xlink:href="#rim"/>
    <path pointer-events="none" fill="none" stroke="white" stroke-width="1.5" d="M0,-3.0v7 M-2.5,-0.5L0,-3.0L2.5,-0.5"/>
  </g>
  <g id="arrowDown" transform="rotate(180) translate(-30 -48)">
    <use xlink:href="#rim"/>
    <path pointer-events="none" fill="none" stroke="white" stroke-width="1.5" d="M0,-3.0v7 M-2.5,-0.5L0,-3.0L2.5,-0.5"/>
  </g>
  <g id="arrowLeft" transform="rotate(270) translate(-36 17)">
    <use xlink:href="#rim"/>
    <path pointer-events="none" fill="none" stroke="white" stroke-width="1.5" d="M0,-3.0v7 M-2.5,-0.5L0,-3.0L2.5,-0.5"/>
  </g>
  <g id="resetDef">
    <use xlink:href="#rim2" fill="#404040"><set attributeName="fill" to="#808080" begin="reset.mouseover" end="reset.mouseout"/></use>
  </g>
</defs>
<script type="application/ecmascript">
var viewWidth = 635;
var viewHeight = 971;
var sectionId = 'dynsection-1';
</script>
<script type="application/ecmascript" xlink:href="svg.min.js"/>
<svg id="graph" class="graph">
<g id="viewport">
<title>rtp::client::ScoreSystem</title>
<!-- Node1 -->
<g id="Node000001" class="node">
<title>Node1</title>
<g id="a_Node000001"><a xlink:title=" ">
<polygon fill="#999999" stroke="none" points="367,-65 253.25,-65 253.25,0 367,0 367,-65"/>
<text xml:space="preserve" text-anchor="start" x="257.25" y="-51.5" font-family="Helvetica,sans-Serif" font-size="10.00">rtp::client::ScoreSystem</text>
<text xml:space="preserve" text-anchor="start" x="308.62" y="-36.25" font-family="Helvetica,sans-Serif" font-size="10.00"> </text>
<text xml:space="preserve" text-anchor="start" x="264.88" y="-21" font-family="Helvetica,sans-Serif" font-size="10.00">+</text>
<text xml:space="preserve" text-anchor="start" x="282.5" y="-21" font-family="Helvetica,sans-Serif" font-size="10.00">ScoreSystem()</text>
<text xml:space="preserve" text-anchor="start" x="264.88" y="-5.75" font-family="Helvetica,sans-Serif" font-size="10.00">+</text>
<text xml:space="preserve" text-anchor="start" x="282.5" y="-5.75" font-family="Helvetica,sans-Serif" font-size="10.00">update()</text>
<polygon fill="#666666" stroke="#666666" points="253.25,-47.75 253.25,-47.75 367,-47.75 367,-47.75 253.25,-47.75"/>
<polygon fill="#666666" stroke="#666666" points="253.25,-32.5 253.25,-32.5 367,-32.5 367,-32.5 253.25,-32.5"/>
<polygon fill="none" stroke="#666666" points="253.25,0 253.25,-65 367,-65 367,0 253.25,0"/>
</a>
</g>
</g>
<!-- Node2 -->
<g id="Node000002" class="node">
<title>Node2</title>
<g id="a_Node000002"><a xlink:href="classrtp_1_1ecs_1_1ISystem.html" target="_top" xlink:title="Abstract base class for all ECS systems.">
<polygon fill="white" stroke="none" points="336,-305.25 252.25,-305.25 252.25,-240.25 336,-240.25 336,-305.25"/>
<text xml:space="preserve" text-anchor="start" x="256.25" y="-291.75" font-family="Helvetica,sans-Serif" font-size="10.00">rtp::ecs::ISystem</text>
<text xml:space="preserve" text-anchor="start" x="292.62" y="-276.5" font-family="Helvetica,sans-Serif" font-size="10.00"> </text>
<text xml:space="preserve" text-anchor="start" x="260.5" y="-261.25" font-family="Helvetica,sans-Serif" font-size="10.00">+</text>
<text xml:space="preserve" text-anchor="start" x="274.75" y="-261.25" font-family="Helvetica,sans-Serif" font-size="10.00">~ISystem()</text>
<text xml:space="preserve" text-anchor="start" x="260.5" y="-246" font-family="Helvetica,sans-Serif" font-size="10.00">+</text>
<text xml:space="preserve" text-anchor="start" x="274.75" y="-246" font-family="Helvetica,sans-Serif" font-size="10.00">update()</text>
<polygon fill="#666666" stroke="#666666" points="252.25,-288 252.25,-288 336,-288 336,-288 252.25,-288"/>
<polygon fill="#666666" stroke="#666666" points="252.25,-272.75 252.25,-272.75 336,-272.75 336,-272.75 252.25,-272.75"/>
<polygon fill="none" stroke="#666666" points="252.25,-240.25 252.25,-305.25 336,-305.25 336,-240.25 252.25,-240.25"/>
</a>
</g>
</g>
<!-- Node2&#45;&gt;Node1 -->
<g id="edge1_Node000001_Node000002" class="edge">
<title>Node2&#45;&gt;Node1</title>
<g id="a_edge1_Node000001_Node000002"><a xlink:title=" ">
<path fill="none" stroke="#63b8ff" d="M296.98,-229.23C300.16,-181.96 305.21,-106.75 308.03,-64.65"/>
<polygon fill="none" stroke="#63b8ff" points="293.5,-228.88 296.32,-239.09 300.48,-229.35 293.5,-228.88"/>
</a>
</g>
</g>
<!-- Node3 -->
<g id="Node000003" class="node">
<title>Node3</title>
<g id="a_Node000003"><a xlink:href="classrtp_1_1ecs_1_1Registry.html" target="_top" xlink:title=" ">
<polygon fill="white" stroke="none" points="460.38,-427.25 353.88,-427.25 353.88,-118.25 460.38,-118.25 460.38,-427.25"/>
<text xml:space="preserve" text-anchor="start" x="369.25" y="-413.75" font-family="Helvetica,sans-Serif" font-size="10.00">rtp::ecs::Registry</text>
<text xml:space="preserve" text-anchor="start" x="405.62" y="-398.5" font-family="Helvetica,sans-Serif" font-size="10.00"> </text>
<text xml:space="preserve" text-anchor="start" x="357.88" y="-383.25" font-family="Helvetica,sans-Serif" font-size="10.00">+</text>
<text xml:space="preserve" text-anchor="start" x="367.88" y="-383.25" font-family="Helvetica,sans-Serif" font-size="10.00">~Registry()</text>
<text xml:space="preserve" text-anchor="start" x="357.88" y="-368" font-family="Helvetica,sans-Serif" font-size="10.00">+</text>
<text xml:space="preserve" text-anchor="start" x="367.88" y="-368" font-family="Helvetica,sans-Serif" font-size="10.00">spawn()</text>
<text xml:space="preserve" text-anchor="start" x="357.88" y="-352.75" font-family="Helvetica,sans-Serif" font-size="10.00">+</text>
<text xml:space="preserve" text-anchor="start" x="367.88" y="-352.75" font-family="Helvetica,sans-Serif" font-size="10.00">kill()</text>
<text xml:space="preserve" text-anchor="start" x="357.88" y="-337.5" font-family="Helvetica,sans-Serif" font-size="10.00">+</text>
<text xml:space="preserve" text-anchor="start" x="367.88" y="-337.5" font-family="Helvetica,sans-Serif" font-size="10.00">subscribe()</text>
<text xml:space="preserve" text-anchor="start" x="357.88" y="-322.25" font-family="Helvetica,sans-Serif" font-size="10.00">+</text>
<text xml:space="preserve" text-anchor="start" x="367.88" y="-322.25" font-family="Helvetica,sans-Serif" font-size="10.00">isAlive()</text>
<text xml:space="preserve" text-anchor="start" x="357.88" y="-307" font-family="Helvetica,sans-Serif" font-size="10.00">+</text>
<text xml:space="preserve" text-anchor="start" x="367.88" y="-307" font-family="Helvetica,sans-Serif" font-size="10.00">add()</text>
<text xml:space="preserve" text-anchor="start" x="357.88" y="-291.75" font-family="Helvetica,sans-Serif" font-size="10.00">+</text>
<text xml:space="preserve" text-anchor="start" x="367.88" y="-291.75" font-family="Helvetica,sans-Serif" font-size="10.00">get()</text>
<text xml:space="preserve" text-anchor="start" x="357.88" y="-276.5" font-family="Helvetica,sans-Serif" font-size="10.00">+</text>
<text xml:space="preserve" text-anchor="start" x="367.88" y="-276.5" font-family="Helvetica,sans-Serif" font-size="10.00">has()</text>
<text xml:space="preserve" text-anchor="start" x="357.88" y="-261.25" font-family="Helvetica,sans-Serif" font-size="10.00">+</text>
<text xml:space="preserve" text-anchor="start" x="367.88" y="-261.25" font-family="Helvetica,sans-Serif" font-size="10.00">remove()</text>
<text xml:space="preserve" text-anchor="start" x="357.88" y="-246" font-family="Helvetica,sans-Serif" font-size="10.00">+</text>
<text xml:space="preserve" text-anchor="start" x="367.88" y="-246" font-family="Helvetica,sans-Serif" font-size="10.00">clear()</text>
<text xml:space="preserve" text-anchor="start" x="357.88" y="-230.75" font-family="Helvetica,sans-Serif" font-size="10.00">+</text>
<text xml:space="preserve" text-anchor="start" x="367.88" y="-230.75" font-family="Helvetica,sans-Serif" font-size="10.00">purge()</text>
<text xml:space="preserve" text-anchor="start" x="357.88" y="-215.5" font-family="Helvetica,sans-Serif" font-size="10.00">+</text>
<text xml:space="preserve" text-anchor="start" x="367.88" y="-215.5" font-family="Helvetica,sans-Serif" font-size="10.00">view()</text>
<text xml:space="preserve" text-anchor="start" x="357.88" y="-200.25" font-family="Helvetica,sans-Serif" font-size="10.00">+</text>
<text xml:space="preserve" text-anchor="start" x="367.88" y="-200.25" font-family="Helvetica,sans-Serif" font-size="10.00">zipView()</text>
<text xml:space="preserve" text-anchor="start" x="357.88" y="-185" font-family="Helvetica,sans-Serif" font-size="10.00">+</text>
<text xml:space="preserve" text-anchor="start" x="367.88" y="-185" font-family="Helvetica,sans-Serif" font-size="10.00">entityCount()</text>
<text xml:space="preserve" text-anchor="start" x="357.88" y="-169.75" font-family="Helvetica,sans-Serif" font-size="10.00">+</text>
<text xml:space="preserve" text-anchor="start" x="367.88" y="-169.75" font-family="Helvetica,sans-Serif" font-size="10.00">componentCount()</text>
<text xml:space="preserve" text-anchor="start" x="359.38" y="-154.5" font-family="Helvetica,sans-Serif" font-size="10.00">&#45;</text>
<text xml:space="preserve" text-anchor="start" x="367.88" y="-154.5" font-family="Helvetica,sans-Serif" font-size="10.00">getArray()</text>
<text xml:space="preserve" text-anchor="start" x="359.38" y="-139.25" font-family="Helvetica,sans-Serif" font-size="10.00">&#45;</text>
<text xml:space="preserve" text-anchor="start" x="367.88" y="-139.25" font-family="Helvetica,sans-Serif" font-size="10.00">getSmallestArray()</text>
<text xml:space="preserve" text-anchor="start" x="359.38" y="-124" font-family="Helvetica,sans-Serif" font-size="10.00">&#45;</text>
<text xml:space="preserve" text-anchor="start" x="367.88" y="-124" font-family="Helvetica,sans-Serif" font-size="10.00">hasAllComponents()</text>
<polygon fill="#666666" stroke="#666666" points="353.88,-410 353.88,-410 460.38,-410 460.38,-410 353.88,-410"/>
<polygon fill="#666666" stroke="#666666" points="353.88,-394.75 353.88,-394.75 460.38,-394.75 460.38,-394.75 353.88,-394.75"/>
<polygon fill="none" stroke="#666666" points="353.88,-118.25 353.88,-427.25 460.38,-427.25 460.38,-118.25 353.88,-118.25"/>
</a>
</g>
</g>
<!-- Node3&#45;&gt;Node1 -->
<g id="edge2_Node000001_Node000003" class="edge">
<title>Node3&#45;&gt;Node1</title>
<g id="a_edge2_Node000001_Node000003"><a xlink:title=" ">
<path fill="none" stroke="#63b8ff" d="M353.92,-139.84C350.95,-132.54 348,-125.3 345.12,-118.25 339.59,-104.71 333.53,-89.97 328.02,-76.64"/>
<polygon fill="none" stroke="#63b8ff" points="328.08,-76.79 322.09,-72.78 323.49,-65.7 329.48,-69.72 328.08,-76.79"/>
</a>
</g>
<text xml:space="preserve" text-anchor="start" x="340.5" y="-87.75" font-family="Helvetica,sans-Serif" font-size="10.00" fill="grey">&#45;_r</text>
</g>
<!-- Node4 -->
<g id="Node000004" class="node">
<title>Node4</title>
<g id="a_Node000004"><a xlink:title=" ">
<polygon fill="white" stroke="none" points="285.75,-564 182.5,-564 182.5,-480.5 285.75,-480.5 285.75,-564"/>
<text xml:space="preserve" text-anchor="start" x="186.5" y="-550.5" font-family="Helvetica,sans-Serif" font-size="10.00">std::unordered_map</text>
<text xml:space="preserve" text-anchor="start" x="186.5" y="-539.25" font-family="Helvetica,sans-Serif" font-size="10.00">&lt; std::type_index, std</text>
<text xml:space="preserve" text-anchor="start" x="186.5" y="-528" font-family="Helvetica,sans-Serif" font-size="10.00">::unique_ptr&lt; rtp::ecs</text>
<text xml:space="preserve" text-anchor="start" x="193.62" y="-516.75" font-family="Helvetica,sans-Serif" font-size="10.00">::ISparseArray &gt; &gt;</text>
<text xml:space="preserve" text-anchor="start" x="202.56" y="-501.5" font-family="Helvetica,sans-Serif" font-size="10.00">+</text>
<text xml:space="preserve" text-anchor="start" x="228.62" y="-501.5" font-family="Helvetica,sans-Serif" font-size="10.00">keys</text>
<text xml:space="preserve" text-anchor="start" x="232.62" y="-486.25" font-family="Helvetica,sans-Serif" font-size="10.00"> </text>
<polygon fill="#666666" stroke="#666666" points="182.5,-513 182.5,-513 285.75,-513 285.75,-513 182.5,-513"/>
<polygon fill="#666666" stroke="#666666" points="182.5,-497.75 182.5,-497.75 226.62,-497.75 226.62,-497.75 182.5,-497.75"/>
<polygon fill="#666666" stroke="#666666" points="226.62,-497.75 226.62,-497.75 285.75,-497.75 285.75,-497.75 226.62,-497.75"/>
<polygon fill="none" stroke="#666666" points="182.5,-480.5 182.5,-564 285.75,-564 285.75,-480.5 182.5,-480.5"/>
</a>
</g>
</g>
<!-- Node4&#45;&gt;Node3 -->
<g id="edge3_Node000003_Node000004" class="edge">
<title>Node4&#45;&gt;Node3</title>
<g id="a_edge3_Node000003_Node000004"><a xlink:title=" ">
<path fill="none" stroke="#63b8ff" d="M263.66,-480.75C274.32,-468.15 287.14,-455.02 300.88,-445.25 318.18,-432.94 330.13,-442.28 345.12,-427.25 345.22,-427.15 345.32,-427.05 345.42,-426.95"/>
<polygon fill="none" stroke="#63b8ff" points="345.49,-426.88 346.52,-419.74 353.51,-417.95 352.47,-425.09 345.49,-426.88"/>
</a>
</g>
<text xml:space="preserve" text-anchor="start" x="303.88" y="-450" font-family="Helvetica,sans-Serif" font-size="10.00" fill="grey">&#45;_arrays</text>
</g>
<!-- Node5 -->
<g id="Node000005" class="node">
<title>Node5</title>
<g id="a_Node000005"><a xlink:title=" ">
<polygon fill="white" stroke="none" points="285,-710.75 183.25,-710.75 183.25,-649.75 285,-649.75 285,-710.75"/>
<text xml:space="preserve" text-anchor="start" x="187.25" y="-697.25" font-family="Helvetica,sans-Serif" font-size="10.00">std::unique_ptr&lt; rtp</text>
<text xml:space="preserve" text-anchor="start" x="187.25" y="-686" font-family="Helvetica,sans-Serif" font-size="10.00">::ecs::ISparseArray &gt;</text>
<text xml:space="preserve" text-anchor="start" x="232.62" y="-670.75" font-family="Helvetica,sans-Serif" font-size="10.00"> </text>
<text xml:space="preserve" text-anchor="start" x="195.62" y="-655.5" font-family="Helvetica,sans-Serif" font-size="10.00">+</text>
<text xml:space="preserve" text-anchor="start" x="214" y="-655.5" font-family="Helvetica,sans-Serif" font-size="10.00">operator&#45;&gt;()</text>
<polygon fill="#666666" stroke="#666666" points="183.25,-682.25 183.25,-682.25 285,-682.25 285,-682.25 183.25,-682.25"/>
<polygon fill="#666666" stroke="#666666" points="183.25,-667 183.25,-667 285,-667 285,-667 183.25,-667"/>
<polygon fill="none" stroke="#666666" points="183.25,-649.75 183.25,-710.75 285,-710.75 285,-649.75 183.25,-649.75"/>
</a>
</g>
</g>
<!-- Node5&#45;&gt;Node4 -->
<g id="edge4_Node000004_Node000005" class="edge">
<title>Node5&#45;&gt;Node4</title>
<g id="a_edge4_Node000004_Node000005"><a xlink:title=" ">
<path fill="none" stroke="#63b8ff" d="M232.87,-649.86C232.67,-643.87 232.48,-637.61 232.38,-631.75 231.97,-609.64 232.05,-604.11 232.38,-582 232.4,-580.24 232.43,-578.46 232.47,-576.65"/>
<polygon fill="none" stroke="#63b8ff" points="232.47,-576.6 228.61,-570.51 232.74,-564.6 236.6,-570.69 232.47,-576.6"/>
</a>
</g>
<text xml:space="preserve" text-anchor="start" x="235.38" y="-603" font-family="Helvetica,sans-Serif" font-size="10.00" fill="grey">+elements</text>
</g>
<!-- Node6 -->
<g id="Node000006" class="node">
<title>Node6</title>
<g id="a_Node000006"><a xlink:href="classrtp_1_1ecs_1_1ISparseArray.html" target="_top" xlink:title="Type&#45;erased base interface for sparse arrays.">
<polygon fill="white" stroke="none" points="330.12,-859.5 226.12,-859.5 226.12,-764 330.12,-764 330.12,-859.5"/>
<text xml:space="preserve" text-anchor="start" x="230.12" y="-846" font-family="Helvetica,sans-Serif" font-size="10.00">rtp::ecs::ISparseArray</text>
<text xml:space="preserve" text-anchor="start" x="276.62" y="-830.75" font-family="Helvetica,sans-Serif" font-size="10.00"> </text>
<text xml:space="preserve" text-anchor="start" x="234.38" y="-815.5" font-family="Helvetica,sans-Serif" font-size="10.00">+</text>
<text xml:space="preserve" text-anchor="start" x="248.62" y="-815.5" font-family="Helvetica,sans-Serif" font-size="10.00">~ISparseArray()</text>
<text xml:space="preserve" text-anchor="start" x="234.38" y="-800.25" font-family="Helvetica,sans-Serif" font-size="10.00">+</text>
<text xml:space="preserve" text-anchor="start" x="248.62" y="-800.25" font-family="Helvetica,sans-Serif" font-size="10.00">erase()</text>
<text xml:space="preserve" text-anchor="start" x="234.38" y="-785" font-family="Helvetica,sans-Serif" font-size="10.00">+</text>
<text xml:space="preserve" text-anchor="start" x="248.62" y="-785" font-family="Helvetica,sans-Serif" font-size="10.00">has()</text>
<text xml:space="preserve" text-anchor="start" x="234.38" y="-769.75" font-family="Helvetica,sans-Serif" font-size="10.00">+</text>
<text xml:space="preserve" text-anchor="start" x="248.62" y="-769.75" font-family="Helvetica,sans-Serif" font-size="10.00">clear()</text>
<polygon fill="#666666" stroke="#666666" points="226.12,-842.25 226.12,-842.25 330.12,-842.25 330.12,-842.25 226.12,-842.25"/>
<polygon fill="#666666" stroke="#666666" points="226.12,-827 226.12,-827 330.12,-827 330.12,-827 226.12,-827"/>
<polygon fill="none" stroke="#666666" points="226.12,-764 226.12,-859.5 330.12,-859.5 330.12,-764 226.12,-764"/>
</a>
</g>
</g>
<!-- Node6&#45;&gt;Node5 -->
<g id="edge5_Node000005_Node000006" class="edge">
<title>Node6&#45;&gt;Node5</title>
<g id="a_edge5_Node000005_Node000006"><a xlink:title=" ">
<path fill="none" stroke="#63b8ff" d="M267.16,-764.35C263.98,-752.61 260.25,-740.11 256.12,-728.75 255.38,-726.69 254.58,-724.61 253.74,-722.51"/>
<polygon fill="none" stroke="#63b8ff" points="253.71,-722.44 247.68,-718.48 249.01,-711.4 255.04,-715.35 253.71,-722.44"/>
</a>
</g>
<text xml:space="preserve" text-anchor="start" x="264.29" y="-733.5" font-family="Helvetica,sans-Serif" font-size="10.00" fill="grey">+ptr</text>
</g>
<!-- Node7 -->
<g id="Node000007" class="node">
<title>Node7</title>
<g id="a_Node000007"><a xlink:title=" ">
<polygon fill="white" stroke="none" points="208.38,-836.62 111.88,-836.62 111.88,-786.88 208.38,-786.88 208.38,-836.62"/>
<text xml:space="preserve" text-anchor="start" x="115.88" y="-823.12" font-family="Helvetica,sans-Serif" font-size="10.00">std::unique_ptr&lt; T &gt;</text>
<text xml:space="preserve" text-anchor="start" x="158.62" y="-807.88" font-family="Helvetica,sans-Serif" font-size="10.00"> </text>
<text xml:space="preserve" text-anchor="start" x="122.94" y="-792.62" font-family="Helvetica,sans-Serif" font-size="10.00">+</text>
<text xml:space="preserve" text-anchor="start" x="140" y="-792.62" font-family="Helvetica,sans-Serif" font-size="10.00">operator&#45;&gt;()</text>
<polygon fill="#666666" stroke="#666666" points="111.88,-819.38 111.88,-819.38 208.38,-819.38 208.38,-819.38 111.88,-819.38"/>
<polygon fill="#666666" stroke="#666666" points="111.88,-804.12 111.88,-804.12 208.38,-804.12 208.38,-804.12 111.88,-804.12"/>
<polygon fill="none" stroke="#666666" points="111.88,-786.88 111.88,-836.62 208.38,-836.62 208.38,-786.88 111.88,-786.88"/>
</a>
</g>
</g>
<!-- Node7&#45;&gt;Node5 -->
<g id="edge6_Node000005_Node000007" class="edge">
<title>Node7&#45;&gt;Node5</title>
<g id="a_edge6_Node000005_Node000007"><a xlink:title=" ">
<path fill="none" stroke="orange" d="M135.85,-777.4C127.66,-761.83 122.71,-743.53 132.12,-728.75 133.79,-726.15 158.71,-714.52 183.5,-703.42"/>
<polygon fill="orange" stroke="orange" points="132.74,-779.01 140.82,-785.86 138.77,-775.46 132.74,-779.01"/>
</a>
</g>
<text xml:space="preserve" text-anchor="start" x="135.12" y="-733.5" font-family="Helvetica,sans-Serif" font-size="10.00" fill="grey">&lt; rtp::ecs::ISparseArray &gt;</text>
</g>
<!-- Node8 -->
<g id="Node000008" class="node">
<title>Node8</title>
<g id="a_Node000008"><a xlink:title=" ">
<polygon fill="white" stroke="none" points="340.12,-962.5 326.12,-962.5 326.12,-912.75 340.12,-912.75 340.12,-962.5"/>
<text xml:space="preserve" text-anchor="start" x="330.12" y="-949" font-family="Helvetica,sans-Serif" font-size="10.00">T</text>
<text xml:space="preserve" text-anchor="start" x="331.62" y="-933.75" font-family="Helvetica,sans-Serif" font-size="10.00"> </text>
<text xml:space="preserve" text-anchor="start" x="331.62" y="-918.5" font-family="Helvetica,sans-Serif" font-size="10.00"> </text>
<polygon fill="#666666" stroke="#666666" points="326.12,-945.25 326.12,-945.25 340.12,-945.25 340.12,-945.25 326.12,-945.25"/>
<polygon fill="#666666" stroke="#666666" points="326.12,-930 326.12,-930 340.12,-930 340.12,-930 326.12,-930"/>
<polygon fill="none" stroke="#666666" points="326.12,-912.75 326.12,-962.5 340.12,-962.5 340.12,-912.75 326.12,-912.75"/>
</a>
</g>
</g>
<!-- Node8&#45;&gt;Node7 -->
<g id="edge7_Node000007_Node000008" class="edge">
<title>Node8&#45;&gt;Node7</title>
<g id="a_edge7_Node000007_Node000008"><a xlink:title=" ">
<path fill="none" stroke="#63b8ff" d="M326.16,-932.34C307.88,-921.01 257.18,-889.13 217.12,-859.5 210.78,-854.81 204.18,-849.66 197.82,-844.55"/>
<polygon fill="none" stroke="#63b8ff" points="198.1,-844.77 190.92,-844.09 188.79,-837.19 195.97,-837.88 198.1,-844.77"/>
</a>
</g>
<text xml:space="preserve" text-anchor="start" x="270.25" y="-882.25" font-family="Helvetica,sans-Serif" font-size="10.00" fill="grey">+ptr</text>
</g>
<!-- Node9 -->
<g id="Node000009" class="node">
<title>Node9</title>
<g id="a_Node000009"><a xlink:title=" ">
<polygon fill="white" stroke="none" points="94.25,-842.25 0,-842.25 0,-781.25 94.25,-781.25 94.25,-842.25"/>
<text xml:space="preserve" text-anchor="start" x="4" y="-828.75" font-family="Helvetica,sans-Serif" font-size="10.00">std::unordered_map</text>
<text xml:space="preserve" text-anchor="start" x="28.75" y="-817.5" font-family="Helvetica,sans-Serif" font-size="10.00">&lt; K, T &gt;</text>
<text xml:space="preserve" text-anchor="start" x="45.62" y="-802.25" font-family="Helvetica,sans-Serif" font-size="10.00"> </text>
<text xml:space="preserve" text-anchor="start" x="45.62" y="-787" font-family="Helvetica,sans-Serif" font-size="10.00"> </text>
<polygon fill="#666666" stroke="#666666" points="0,-813.75 0,-813.75 94.25,-813.75 94.25,-813.75 0,-813.75"/>
<polygon fill="#666666" stroke="#666666" points="0,-798.5 0,-798.5 94.25,-798.5 94.25,-798.5 0,-798.5"/>
<polygon fill="none" stroke="#666666" points="0,-781.25 0,-842.25 94.25,-842.25 94.25,-781.25 0,-781.25"/>
</a>
</g>
</g>
<!-- Node8&#45;&gt;Node9 -->
<g id="edge10_Node000009_Node000008" class="edge">
<title>Node8&#45;&gt;Node9</title>
<g id="a_edge10_Node000009_Node000008"><a xlink:title=" ">
<path fill="none" stroke="#63b8ff" d="M326.27,-935.46C297.37,-930.31 183.23,-907.71 103.12,-859.5 98.49,-856.71 93.84,-853.54 89.31,-850.21"/>
<polygon fill="none" stroke="#63b8ff" points="89.21,-850.14 82.02,-849.62 79.73,-842.78 86.92,-843.3 89.21,-850.14"/>
</a>
</g>
<text xml:space="preserve" text-anchor="start" x="177.93" y="-882.25" font-family="Helvetica,sans-Serif" font-size="10.00" fill="grey">+elements</text>
</g>
<!-- Node12 -->
<g id="Node000012" class="node">
<title>Node12</title>
<g id="a_Node000012"><a xlink:title=" ">
<polygon fill="white" stroke="none" points="426.38,-836.62 347.88,-836.62 347.88,-786.88 426.38,-786.88 426.38,-836.62"/>
<text xml:space="preserve" text-anchor="start" x="351.88" y="-823.12" font-family="Helvetica,sans-Serif" font-size="10.00">std::vector&lt; T &gt;</text>
<text xml:space="preserve" text-anchor="start" x="385.62" y="-807.88" font-family="Helvetica,sans-Serif" font-size="10.00"> </text>
<text xml:space="preserve" text-anchor="start" x="385.62" y="-792.62" font-family="Helvetica,sans-Serif" font-size="10.00"> </text>
<polygon fill="#666666" stroke="#666666" points="347.88,-819.38 347.88,-819.38 426.38,-819.38 426.38,-819.38 347.88,-819.38"/>
<polygon fill="#666666" stroke="#666666" points="347.88,-804.12 347.88,-804.12 426.38,-804.12 426.38,-804.12 347.88,-804.12"/>
<polygon fill="none" stroke="#666666" points="347.88,-786.88 347.88,-836.62 426.38,-836.62 426.38,-786.88 347.88,-786.88"/>
</a>
</g>
</g>
<!-- Node8&#45;&gt;Node12 -->
<g id="edge13_Node000012_Node000008" class="edge">
<title>Node8&#45;&gt;Node12</title>
<g id="a_edge13_Node000012_Node000008"><a xlink:title=" ">
<path fill="none" stroke="#63b8ff" d="M340.07,-920.68C348.03,-902.43 361.31,-871.97 371.73,-848.06"/>
<polygon fill="none" stroke="#63b8ff" points="371.73,-848.07 370.46,-840.97 376.52,-837.07 377.79,-844.17 371.73,-848.07"/>
</a>
</g>
<text xml:space="preserve" text-anchor="start" x="361.51" y="-882.25" font-family="Helvetica,sans-Serif" font-size="10.00" fill="grey">+elements</text>
</g>
<!-- Node14 -->
<g id="Node000014" class="node">
<title>Node14</title>
<g id="a_Node000014"><a xlink:title=" ">
<polygon fill="white" stroke="none" points="522,-836.62 444.25,-836.62 444.25,-786.88 522,-786.88 522,-836.62"/>
<text xml:space="preserve" text-anchor="start" x="448.25" y="-823.12" font-family="Helvetica,sans-Serif" font-size="10.00">std::deque&lt; T &gt;</text>
<text xml:space="preserve" text-anchor="start" x="481.62" y="-807.88" font-family="Helvetica,sans-Serif" font-size="10.00"> </text>
<text xml:space="preserve" text-anchor="start" x="481.62" y="-792.62" font-family="Helvetica,sans-Serif" font-size="10.00"> </text>
<polygon fill="#666666" stroke="#666666" points="444.25,-819.38 444.25,-819.38 522,-819.38 522,-819.38 444.25,-819.38"/>
<polygon fill="#666666" stroke="#666666" points="444.25,-804.12 444.25,-804.12 522,-804.12 522,-804.12 444.25,-804.12"/>
<polygon fill="none" stroke="#666666" points="444.25,-786.88 444.25,-836.62 522,-836.62 522,-786.88 444.25,-786.88"/>
</a>
</g>
</g>
<!-- Node8&#45;&gt;Node14 -->
<g id="edge16_Node000014_Node000008" class="edge">
<title>Node8&#45;&gt;Node14</title>
<g id="a_edge16_Node000014_Node000008"><a xlink:title=" ">
<path fill="none" stroke="#63b8ff" d="M339.94,-934.16C354.57,-928.67 389.64,-914.32 414.12,-894.75 431.29,-881.03 447.31,-862.51 459.58,-846.55"/>
<polygon fill="none" stroke="#63b8ff" points="459.36,-846.84 459.75,-839.64 466.54,-837.22 466.16,-844.42 459.36,-846.84"/>
</a>
</g>
<text xml:space="preserve" text-anchor="start" x="434.46" y="-882.25" font-family="Helvetica,sans-Serif" font-size="10.00" fill="grey">+elements</text>
</g>
<!-- Node9&#45;&gt;Node4 -->
<g id="edge8_Node000004_Node000009" class="edge">
<title>Node9&#45;&gt;Node4</title>
<g id="a_edge8_Node000004_Node000009"><a xlink:title=" ">
<path fill="none" stroke="orange" d="M41.18,-770.31C38.16,-736.03 38.72,-686.68 59.38,-649.75 86.71,-600.88 141.72,-565.95 182.75,-545.34"/>
<polygon fill="orange" stroke="orange" points="37.66,-770.23 42.17,-779.82 44.62,-769.51 37.66,-770.23"/>
</a>
</g>
<text xml:space="preserve" text-anchor="start" x="62.38" y="-691.62" font-family="Helvetica,sans-Serif" font-size="10.00" fill="grey">&lt; std::type_index,</text>
<text xml:space="preserve" text-anchor="start" x="62.38" y="-676.38" font-family="Helvetica,sans-Serif" font-size="10.00" fill="grey">   std::unique_ptr&lt; rtp</text>
<text xml:space="preserve" text-anchor="start" x="62.38" y="-661.12" font-family="Helvetica,sans-Serif" font-size="10.00" fill="grey">  ::ecs::ISparseArray &gt; &gt;</text>
</g>
<!-- Node10 -->
<g id="Node000010" class="node">
<title>Node10</title>
<g id="a_Node000010"><a xlink:title=" ">
<polygon fill="white" stroke="none" points="54.5,-962.5 39.75,-962.5 39.75,-912.75 54.5,-912.75 54.5,-962.5"/>
<text xml:space="preserve" text-anchor="start" x="43.75" y="-949" font-family="Helvetica,sans-Serif" font-size="10.00">K</text>
<text xml:space="preserve" text-anchor="start" x="45.62" y="-933.75" font-family="Helvetica,sans-Serif" font-size="10.00"> </text>
<text xml:space="preserve" text-anchor="start" x="45.62" y="-918.5" font-family="Helvetica,sans-Serif" font-size="10.00"> </text>
<polygon fill="#666666" stroke="#666666" points="39.75,-945.25 39.75,-945.25 54.5,-945.25 54.5,-945.25 39.75,-945.25"/>
<polygon fill="#666666" stroke="#666666" points="39.75,-930 39.75,-930 54.5,-930 54.5,-930 39.75,-930"/>
<polygon fill="none" stroke="#666666" points="39.75,-912.75 39.75,-962.5 54.5,-962.5 54.5,-912.75 39.75,-912.75"/>
</a>
</g>
</g>
<!-- Node10&#45;&gt;Node9 -->
<g id="edge9_Node000009_Node000010" class="edge">
<title>Node10&#45;&gt;Node9</title>
<g id="a_edge9_Node000009_Node000010"><a xlink:title=" ">
<path fill="none" stroke="#63b8ff" d="M47.12,-913.03C47.12,-896.61 47.12,-874.25 47.12,-854.81"/>
<polygon fill="none" stroke="#63b8ff" points="47.13,-854.83 43.13,-848.83 47.13,-842.83 51.13,-848.83 47.13,-854.83"/>
</a>
</g>
<text xml:space="preserve" text-anchor="start" x="50.12" y="-882.25" font-family="Helvetica,sans-Serif" font-size="10.00" fill="grey">+keys</text>
</g>
<!-- Node11 -->
<g id="Node000011" class="node">
<title>Node11</title>
<g id="a_Node000011"><a xlink:title=" ">
<polygon fill="white" stroke="none" points="419.38,-631.75 292.88,-631.75 292.88,-582 419.38,-582 419.38,-631.75"/>
<text xml:space="preserve" text-anchor="start" x="296.88" y="-618.25" font-family="Helvetica,sans-Serif" font-size="10.00">std::vector&lt; std::uint32_t &gt;</text>
<text xml:space="preserve" text-anchor="start" x="314.06" y="-603" font-family="Helvetica,sans-Serif" font-size="10.00">+</text>
<text xml:space="preserve" text-anchor="start" x="341.25" y="-603" font-family="Helvetica,sans-Serif" font-size="10.00">elements</text>
<text xml:space="preserve" text-anchor="start" x="354.62" y="-587.75" font-family="Helvetica,sans-Serif" font-size="10.00"> </text>
<polygon fill="#666666" stroke="#666666" points="292.88,-614.5 292.88,-614.5 419.38,-614.5 419.38,-614.5 292.88,-614.5"/>
<polygon fill="#666666" stroke="#666666" points="292.88,-599.25 292.88,-599.25 339.25,-599.25 339.25,-599.25 292.88,-599.25"/>
<polygon fill="#666666" stroke="#666666" points="339.25,-599.25 339.25,-599.25 419.38,-599.25 419.38,-599.25 339.25,-599.25"/>
<polygon fill="none" stroke="#666666" points="292.88,-582 292.88,-631.75 419.38,-631.75 419.38,-582 292.88,-582"/>
</a>
</g>
</g>
<!-- Node11&#45;&gt;Node3 -->
<g id="edge11_Node000003_Node000011" class="edge">
<title>Node11&#45;&gt;Node3</title>
<g id="a_edge11_Node000003_Node000011"><a xlink:title=" ">
<path fill="none" stroke="#63b8ff" d="M358.43,-582.25C361,-557.01 365.47,-515.84 370.62,-480.5 372.56,-467.25 374.69,-453.54 376.92,-439.77"/>
<polygon fill="none" stroke="#63b8ff" points="376.91,-439.86 373.93,-433.3 378.85,-428.02 381.83,-434.59 376.91,-439.86"/>
</a>
</g>
<text xml:space="preserve" text-anchor="start" x="373.62" y="-518.38" font-family="Helvetica,sans-Serif" font-size="10.00" fill="grey">&#45;_generations</text>
</g>
<!-- Node12&#45;&gt;Node11 -->
<g id="edge12_Node000011_Node000012" class="edge">
<title>Node12&#45;&gt;Node11</title>
<g id="a_edge12_Node000011_Node000012"><a xlink:title=" ">
<path fill="none" stroke="orange" d="M381.77,-775.7C375.48,-734.51 365.2,-667.29 359.77,-631.71"/>
<polygon fill="orange" stroke="orange" points="378.31,-776.23 383.28,-785.58 385.23,-775.17 378.31,-776.23"/>
</a>
</g>
<text xml:space="preserve" text-anchor="start" x="379.85" y="-733.5" font-family="Helvetica,sans-Serif" font-size="10.00" fill="grey">&lt; std::uint32_t &gt;</text>
</g>
<!-- Node13 -->
<g id="Node000013" class="node">
<title>Node13</title>
<g id="a_Node000013"><a xlink:title=" ">
<polygon fill="white" stroke="none" points="541.88,-631.75 424.38,-631.75 424.38,-582 541.88,-582 541.88,-631.75"/>
<text xml:space="preserve" text-anchor="start" x="428.38" y="-618.25" font-family="Helvetica,sans-Serif" font-size="10.00">std::deque&lt; std::size_t &gt;</text>
<text xml:space="preserve" text-anchor="start" x="443.31" y="-603" font-family="Helvetica,sans-Serif" font-size="10.00">+</text>
<text xml:space="preserve" text-anchor="start" x="468.25" y="-603" font-family="Helvetica,sans-Serif" font-size="10.00">elements</text>
<text xml:space="preserve" text-anchor="start" x="481.62" y="-587.75" font-family="Helvetica,sans-Serif" font-size="10.00"> </text>
<polygon fill="#666666" stroke="#666666" points="424.38,-614.5 424.38,-614.5 541.88,-614.5 541.88,-614.5 424.38,-614.5"/>
<polygon fill="#666666" stroke="#666666" points="424.38,-599.25 424.38,-599.25 466.25,-599.25 466.25,-599.25 424.38,-599.25"/>
<polygon fill="#666666" stroke="#666666" points="466.25,-599.25 466.25,-599.25 541.88,-599.25 541.88,-599.25 466.25,-599.25"/>
<polygon fill="none" stroke="#666666" points="424.38,-582 424.38,-631.75 541.88,-631.75 541.88,-582 424.38,-582"/>
</a>
</g>
</g>
<!-- Node13&#45;&gt;Node3 -->
<g id="edge14_Node000003_Node000013" class="edge">
<title>Node13&#45;&gt;Node3</title>
<g id="a_edge14_Node000003_Node000013"><a xlink:title=" ">
<path fill="none" stroke="#63b8ff" d="M473.14,-582.2C470.89,-576.32 468.64,-569.98 466.88,-564 455.14,-524.2 444.87,-480.66 436.31,-439.7"/>
<polygon fill="none" stroke="#63b8ff" points="436.31,-439.71 431.18,-434.64 433.89,-427.96 439.02,-433.03 436.31,-439.71"/>
</a>
</g>
<text xml:space="preserve" text-anchor="start" x="469.88" y="-518.38" font-family="Helvetica,sans-Serif" font-size="10.00" fill="grey">&#45;_freeIndices</text>
</g>
<!-- Node14&#45;&gt;Node13 -->
<g id="edge15_Node000013_Node000014" class="edge">
<title>Node14&#45;&gt;Node13</title>
<g id="a_edge15_Node000013_Node000014"><a xlink:title=" ">
<path fill="none" stroke="orange" d="M483.12,-775.7C483.12,-734.51 483.12,-667.29 483.12,-631.71"/>
<polygon fill="orange" stroke="orange" points="479.63,-775.57 483.13,-785.57 486.63,-775.57 479.63,-775.57"/>
</a>
</g>
<text xml:space="preserve" text-anchor="start" x="486.12" y="-733.5" font-family="Helvetica,sans-Serif" font-size="10.00" fill="grey">&lt; std::size_t &gt;</text>
</g>
<!-- Node15 -->
<g id="Node000015" class="node">
<title>Node15</title>
<g id="a_Node000015"><a xlink:title=" ">
<polygon fill="white" stroke="none" points="626.62,-547.12 537.62,-547.12 537.62,-497.38 626.62,-497.38 626.62,-547.12"/>
<text xml:space="preserve" text-anchor="start" x="541.62" y="-533.62" font-family="Helvetica,sans-Serif" font-size="10.00">std::shared_mutex</text>
<text xml:space="preserve" text-anchor="start" x="580.62" y="-518.38" font-family="Helvetica,sans-Serif" font-size="10.00"> </text>
<text xml:space="preserve" text-anchor="start" x="580.62" y="-503.12" font-family="Helvetica,sans-Serif" font-size="10.00"> </text>
<polygon fill="#666666" stroke="#666666" points="537.62,-529.88 537.62,-529.88 626.62,-529.88 626.62,-529.88 537.62,-529.88"/>
<polygon fill="#666666" stroke="#666666" points="537.62,-514.62 537.62,-514.62 626.62,-514.62 626.62,-514.62 537.62,-514.62"/>
<polygon fill="none" stroke="#666666" points="537.62,-497.38 537.62,-547.12 626.62,-547.12 626.62,-497.38 537.62,-497.38"/>
</a>
</g>
</g>
<!-- Node15&#45;&gt;Node3 -->
<g id="edge17_Node000003_Node000015" class="edge">
<title>Node15&#45;&gt;Node3</title>
<g id="a_edge17_Node000003_Node000015"><a xlink:title=" ">
<path fill="none" stroke="#63b8ff" d="M565.35,-497.52C542.99,-465.9 502.24,-408.26 467.69,-359.41"/>
<polygon fill="none" stroke="#63b8ff" points="467.64,-359.34 460.91,-356.75 460.72,-349.54 467.45,-352.13 467.64,-359.34"/>
</a>
</g>
<text xml:space="preserve" text-anchor="start" x="542.83" y="-450" font-family="Helvetica,sans-Serif" font-size="10.00" fill="grey">&#45;_mutex</text>
</g>
</g>
</svg>

<g id="navigator" transform="translate(0 0)" fill="#404254">
  <rect fill="#f2f5e9" fill-opacity="0.5" stroke="#606060" stroke-width=".5" x="0" y="0" width="60" height="60"/>
  <use id="zoomplus" xlink:href="#zoomPlus" x="17" y="9" onmousedown="handleZoom(evt,'in')"/>
  <use id="zoomminus" xlink:href="#zoomMin" x="42" y="9" onmousedown="handleZoom(evt,'out')"/>
  <use id="reset" xlink:href="#resetDef" x="30" y="36" onmousedown="handleReset()"/>
   <use id="arrowup" xlink:href="#arrowUp" x="0" y="0" onmousedown="handlePan(0,-1)"/>
  <use id="arrowright" xlink:href="#arrowRight" x="0" y="0" onmousedown="handlePan(1,0)"/>
  <use id="arrowdown" xlink:href="#arrowDown" x="0" y="0" onmousedown="handlePan(0,1)"/>
  <use id="arrowleft" xlink:href="#arrowLeft" x="0" y="0" onmousedown="handlePan(-1,0)"/>
</g>
<svg viewBox="0 0 15 15" width="100%" height="30px" preserveAspectRatio="xMaxYMin meet">
 <g id="arrow_out" transform="scale(0.3 0.3)">
  <a xlink:href="classrtp_1_1client_1_1ScoreSystem__coll__graph_org.svg" target="_base">
   <rect id="button" ry="5" rx="5" y="6" x="6" height="38" width="38"
        fill="#f2f5e9" fill-opacity="0.5" stroke="#606060" stroke-width="1.0"/>
   <path id="arrow"
     d="M 11.500037,31.436501 C 11.940474,20.09759 22.043105,11.32322 32.158766,21.979434 L 37.068811,17.246167 C 37.068811,17.246167 37.088388,32 37.088388,32 L 22.160133,31.978069 C 22.160133,31.978069 26.997745,27.140456 26.997745,27.140456 C 18.528582,18.264221 13.291696,25.230495 11.500037,31.436501 z"
     style="fill:#404040;"/>
  </a>
 </g>
</svg>

<style type='text/css'>
<![CDATA[
[data-mouse-over-selected='false'] { opacity: 0.7; }
[data-mouse-over-selected='true']  { opacity: 1.0; }
]]>
</style>
<script type="application/ecmascript"><![CDATA[
document.addEventListener('DOMContentLoaded', (event) => {
  highlightEdges();
  highlightAdjacentNodes();
});
]]></script>
</svg>
