<?xml version="1.0" encoding="UTF-8" standalone="no"?>
<!DOCTYPE svg PUBLIC "-//W3C//DTD SVG 1.1//EN"
 "http://www.w3.org/Graphics/SVG/1.1/DTD/svg11.dtd">
<!-- Generated by graphviz version 14.0.5 (20251129.0259)
 -->
<!-- Title: rtp::sys::LibraryManager Pages: 1 -->
<svg width="477pt" height="759pt"
 viewBox="0.00 0.00 477.00 759.00" xmlns="http://www.w3.org/2000/svg" xmlns:xlink="http://www.w3.org/1999/xlink">
<g id="graph0" class="graph" transform="scale(1 1) rotate(0) translate(4 754.75)">
<title>rtp::sys::LibraryManager</title>
<!-- Node1 -->
<g id="Node000001" class="node">
<title>Node1</title>
<g id="a_Node000001"><a xlink:title="Manages dynamic libraries, providing loading and caching mechanisms.">
<polygon fill="#999999" stroke="none" points="321.88,-187 208.12,-187 208.12,0 321.88,0 321.88,-187"/>
<text xml:space="preserve" text-anchor="start" x="212.12" y="-173.5" font-family="Helvetica,sans-Serif" font-size="10.00">rtp::sys::LibraryManager</text>
<text xml:space="preserve" text-anchor="start" x="263.5" y="-158.25" font-family="Helvetica,sans-Serif" font-size="10.00"> </text>
<text xml:space="preserve" text-anchor="start" x="215.25" y="-143" font-family="Helvetica,sans-Serif" font-size="10.00">+</text>
<text xml:space="preserve" text-anchor="start" x="228.38" y="-143" font-family="Helvetica,sans-Serif" font-size="10.00">LibraryManager()</text>
<text xml:space="preserve" text-anchor="start" x="215.25" y="-127.75" font-family="Helvetica,sans-Serif" font-size="10.00">+</text>
<text xml:space="preserve" text-anchor="start" x="228.38" y="-127.75" font-family="Helvetica,sans-Serif" font-size="10.00">~LibraryManager()</text>
<text xml:space="preserve" text-anchor="start" x="215.25" y="-112.5" font-family="Helvetica,sans-Serif" font-size="10.00">+</text>
<text xml:space="preserve" text-anchor="start" x="228.38" y="-112.5" font-family="Helvetica,sans-Serif" font-size="10.00">LibraryManager()</text>
<text xml:space="preserve" text-anchor="start" x="215.25" y="-97.25" font-family="Helvetica,sans-Serif" font-size="10.00">+</text>
<text xml:space="preserve" text-anchor="start" x="228.38" y="-97.25" font-family="Helvetica,sans-Serif" font-size="10.00">operator=()</text>
<text xml:space="preserve" text-anchor="start" x="215.25" y="-82" font-family="Helvetica,sans-Serif" font-size="10.00">+</text>
<text xml:space="preserve" text-anchor="start" x="228.38" y="-82" font-family="Helvetica,sans-Serif" font-size="10.00">LibraryManager()</text>
<text xml:space="preserve" text-anchor="start" x="215.25" y="-66.75" font-family="Helvetica,sans-Serif" font-size="10.00">+</text>
<text xml:space="preserve" text-anchor="start" x="228.38" y="-66.75" font-family="Helvetica,sans-Serif" font-size="10.00">operator=()</text>
<text xml:space="preserve" text-anchor="start" x="215.25" y="-51.5" font-family="Helvetica,sans-Serif" font-size="10.00">+</text>
<text xml:space="preserve" text-anchor="start" x="228.38" y="-51.5" font-family="Helvetica,sans-Serif" font-size="10.00">load()</text>
<text xml:space="preserve" text-anchor="start" x="215.25" y="-36.25" font-family="Helvetica,sans-Serif" font-size="10.00">+</text>
<text xml:space="preserve" text-anchor="start" x="228.38" y="-36.25" font-family="Helvetica,sans-Serif" font-size="10.00">loadShared()</text>
<text xml:space="preserve" text-anchor="start" x="215.25" y="-21" font-family="Helvetica,sans-Serif" font-size="10.00">+</text>
<text xml:space="preserve" text-anchor="start" x="228.38" y="-21" font-family="Helvetica,sans-Serif" font-size="10.00">loadStandalone()</text>
<text xml:space="preserve" text-anchor="start" x="216.75" y="-5.75" font-family="Helvetica,sans-Serif" font-size="10.00">&#45;</text>
<text xml:space="preserve" text-anchor="start" x="228.38" y="-5.75" font-family="Helvetica,sans-Serif" font-size="10.00">getOrLoadInternal()</text>
<polygon fill="#666666" stroke="#666666" points="208.12,-169.75 208.12,-169.75 321.88,-169.75 321.88,-169.75 208.12,-169.75"/>
<polygon fill="#666666" stroke="#666666" points="208.12,-154.5 208.12,-154.5 321.88,-154.5 321.88,-154.5 208.12,-154.5"/>
<polygon fill="none" stroke="#666666" points="208.12,0 208.12,-187 321.88,-187 321.88,0 208.12,0"/>
</a>
</g>
</g>
<!-- Node2 -->
<g id="Node000002" class="node">
<title>Node2</title>
<g id="a_Node000002"><a xlink:title=" ">
<polygon fill="white" stroke="none" points="259.12,-323.75 158.88,-323.75 158.88,-240.25 259.12,-240.25 259.12,-323.75"/>
<text xml:space="preserve" text-anchor="start" x="162.88" y="-310.25" font-family="Helvetica,sans-Serif" font-size="10.00">std::unordered_map</text>
<text xml:space="preserve" text-anchor="start" x="162.88" y="-299" font-family="Helvetica,sans-Serif" font-size="10.00">&lt; std::string, std::</text>
<text xml:space="preserve" text-anchor="start" x="162.88" y="-287.75" font-family="Helvetica,sans-Serif" font-size="10.00">shared_ptr&lt; rtp::sys</text>
<text xml:space="preserve" text-anchor="start" x="162.88" y="-276.5" font-family="Helvetica,sans-Serif" font-size="10.00">::DynamicLibrary &gt; &gt;</text>
<text xml:space="preserve" text-anchor="start" x="207.5" y="-261.25" font-family="Helvetica,sans-Serif" font-size="10.00"> </text>
<text xml:space="preserve" text-anchor="start" x="207.5" y="-246" font-family="Helvetica,sans-Serif" font-size="10.00"> </text>
<polygon fill="#666666" stroke="#666666" points="158.88,-272.75 158.88,-272.75 259.12,-272.75 259.12,-272.75 158.88,-272.75"/>
<polygon fill="#666666" stroke="#666666" points="158.88,-257.5 158.88,-257.5 259.12,-257.5 259.12,-257.5 158.88,-257.5"/>
<polygon fill="none" stroke="#666666" points="158.88,-240.25 158.88,-323.75 259.12,-323.75 259.12,-240.25 158.88,-240.25"/>
</a>
</g>
</g>
<!-- Node2&#45;&gt;Node1 -->
<g id="edge1_Node000001_Node000002" class="edge">
<title>Node2&#45;&gt;Node1</title>
<g id="a_edge1_Node000001_Node000002"><a xlink:title=" ">
<path fill="none" stroke="#63b8ff" d="M221.15,-240.53C224.87,-228.15 229.15,-213.91 233.54,-199.28"/>
<polygon fill="none" stroke="#63b8ff" points="233.53,-199.3 231.43,-192.4 236.98,-187.8 239.09,-194.7 233.53,-199.3"/>
</a>
</g>
<text xml:space="preserve" text-anchor="start" x="233.34" y="-209.75" font-family="Helvetica,sans-Serif" font-size="10.00" fill="grey">&#45;_libraries</text>
</g>
<!-- Node3 -->
<g id="Node000003" class="node">
<title>Node3</title>
<g id="a_Node000003"><a xlink:title=" ">
<polygon fill="white" stroke="none" points="90.75,-432.38 39.25,-432.38 39.25,-382.62 90.75,-382.62 90.75,-432.38"/>
<text xml:space="preserve" text-anchor="start" x="43.25" y="-418.88" font-family="Helvetica,sans-Serif" font-size="10.00">std::string</text>
<text xml:space="preserve" text-anchor="start" x="63.5" y="-403.62" font-family="Helvetica,sans-Serif" font-size="10.00"> </text>
<text xml:space="preserve" text-anchor="start" x="63.5" y="-388.38" font-family="Helvetica,sans-Serif" font-size="10.00"> </text>
<polygon fill="#666666" stroke="#666666" points="39.25,-415.12 39.25,-415.12 90.75,-415.12 90.75,-415.12 39.25,-415.12"/>
<polygon fill="#666666" stroke="#666666" points="39.25,-399.88 39.25,-399.88 90.75,-399.88 90.75,-399.88 39.25,-399.88"/>
<polygon fill="none" stroke="#666666" points="39.25,-382.62 39.25,-432.38 90.75,-432.38 90.75,-382.62 39.25,-382.62"/>
</a>
</g>
</g>
<!-- Node3&#45;&gt;Node2 -->
<g id="edge2_Node000002_Node000003" class="edge">
<title>Node3&#45;&gt;Node2</title>
<g id="a_edge2_Node000002_Node000003"><a xlink:title=" ">
<path fill="none" stroke="#63b8ff" d="M90.74,-384.42C107.71,-369.87 130.63,-350.21 151.77,-332.08"/>
<polygon fill="none" stroke="#63b8ff" points="151.86,-332.01 153.81,-325.06 160.97,-324.2 159.02,-331.14 151.86,-332.01"/>
</a>
</g>
<text xml:space="preserve" text-anchor="start" x="140" y="-346.5" font-family="Helvetica,sans-Serif" font-size="10.00" fill="grey">+keys</text>
</g>
<!-- Node4 -->
<g id="Node000004" class="node">
<title>Node4</title>
<g id="a_Node000004"><a xlink:title=" ">
<polygon fill="white" stroke="none" points="86,-600 0,-600 0,-539 86,-539 86,-600"/>
<text xml:space="preserve" text-anchor="start" x="4" y="-586.5" font-family="Helvetica,sans-Serif" font-size="10.00">std::basic_string&lt;</text>
<text xml:space="preserve" text-anchor="start" x="26.5" y="-575.25" font-family="Helvetica,sans-Serif" font-size="10.00"> Char &gt;</text>
<text xml:space="preserve" text-anchor="start" x="41.5" y="-560" font-family="Helvetica,sans-Serif" font-size="10.00"> </text>
<text xml:space="preserve" text-anchor="start" x="41.5" y="-544.75" font-family="Helvetica,sans-Serif" font-size="10.00"> </text>
<polygon fill="#666666" stroke="#666666" points="0,-571.5 0,-571.5 86,-571.5 86,-571.5 0,-571.5"/>
<polygon fill="#666666" stroke="#666666" points="0,-556.25 0,-556.25 86,-556.25 86,-556.25 0,-556.25"/>
<polygon fill="none" stroke="#666666" points="0,-539 0,-600 86,-600 86,-539 0,-539"/>
</a>
</g>
</g>
<!-- Node4&#45;&gt;Node3 -->
<g id="edge3_Node000003_Node000004" class="edge">
<title>Node4&#45;&gt;Node3</title>
<g id="a_edge3_Node000003_Node000004"><a xlink:title=" ">
<path fill="none" stroke="#63b8ff" d="M48.56,-528.1C52.72,-497.82 58.27,-457.43 61.74,-432.19"/>
<polygon fill="none" stroke="#63b8ff" points="45.14,-527.27 47.24,-537.65 52.07,-528.22 45.14,-527.27"/>
</a>
</g>
</g>
<!-- Node5 -->
<g id="Node000005" class="node">
<title>Node5</title>
<g id="a_Node000005"><a xlink:title=" ">
<polygon fill="white" stroke="none" points="265.5,-438 152.5,-438 152.5,-377 265.5,-377 265.5,-438"/>
<text xml:space="preserve" text-anchor="start" x="156.5" y="-424.5" font-family="Helvetica,sans-Serif" font-size="10.00">std::shared_ptr&lt; rtp</text>
<text xml:space="preserve" text-anchor="start" x="156.5" y="-413.25" font-family="Helvetica,sans-Serif" font-size="10.00">::sys::DynamicLibrary &gt;</text>
<text xml:space="preserve" text-anchor="start" x="207.5" y="-398" font-family="Helvetica,sans-Serif" font-size="10.00"> </text>
<text xml:space="preserve" text-anchor="start" x="167.69" y="-382.75" font-family="Helvetica,sans-Serif" font-size="10.00">+</text>
<text xml:space="preserve" text-anchor="start" x="188.88" y="-382.75" font-family="Helvetica,sans-Serif" font-size="10.00">operator&#45;&gt;()</text>
<polygon fill="#666666" stroke="#666666" points="152.5,-409.5 152.5,-409.5 265.5,-409.5 265.5,-409.5 152.5,-409.5"/>
<polygon fill="#666666" stroke="#666666" points="152.5,-394.25 152.5,-394.25 265.5,-394.25 265.5,-394.25 152.5,-394.25"/>
<polygon fill="none" stroke="#666666" points="152.5,-377 152.5,-438 265.5,-438 265.5,-377 152.5,-377"/>
</a>
</g>
</g>
<!-- Node5&#45;&gt;Node2 -->
<g id="edge4_Node000002_Node000005" class="edge">
<title>Node5&#45;&gt;Node2</title>
<g id="a_edge4_Node000002_Node000005"><a xlink:title=" ">
<path fill="none" stroke="#63b8ff" d="M209,-377.23C209,-365 209,-350.39 209,-336.37"/>
<polygon fill="none" stroke="#63b8ff" points="209,-336.64 205,-330.64 209,-324.64 213,-330.64 209,-336.64"/>
</a>
</g>
<text xml:space="preserve" text-anchor="start" x="212" y="-346.5" font-family="Helvetica,sans-Serif" font-size="10.00" fill="grey">+elements</text>
</g>
<!-- Node6 -->
<g id="Node000006" class="node">
<title>Node6</title>
<g id="a_Node000006"><a xlink:href="classrtp_1_1sys_1_1DynamicLibrary.html" target="_top" xlink:title="Represents a dynamically loaded library.">
<polygon fill="white" stroke="none" points="219.62,-647.75 104.38,-647.75 104.38,-491.25 219.62,-491.25 219.62,-647.75"/>
<text xml:space="preserve" text-anchor="start" x="108.38" y="-634.25" font-family="Helvetica,sans-Serif" font-size="10.00">rtp::sys::DynamicLibrary</text>
<text xml:space="preserve" text-anchor="start" x="112.06" y="-619" font-family="Helvetica,sans-Serif" font-size="10.00">&#45;</text>
<text xml:space="preserve" text-anchor="start" x="122.75" y="-619" font-family="Helvetica,sans-Serif" font-size="10.00">_handle</text>
<text xml:space="preserve" text-anchor="start" x="110.56" y="-603.75" font-family="Helvetica,sans-Serif" font-size="10.00">+</text>
<text xml:space="preserve" text-anchor="start" x="122.75" y="-603.75" font-family="Helvetica,sans-Serif" font-size="10.00">DynamicLibrary()</text>
<text xml:space="preserve" text-anchor="start" x="110.56" y="-588.5" font-family="Helvetica,sans-Serif" font-size="10.00">+</text>
<text xml:space="preserve" text-anchor="start" x="122.75" y="-588.5" font-family="Helvetica,sans-Serif" font-size="10.00">~DynamicLibrary()</text>
<text xml:space="preserve" text-anchor="start" x="110.56" y="-573.25" font-family="Helvetica,sans-Serif" font-size="10.00">+</text>
<text xml:space="preserve" text-anchor="start" x="122.75" y="-573.25" font-family="Helvetica,sans-Serif" font-size="10.00">DynamicLibrary()</text>
<text xml:space="preserve" text-anchor="start" x="110.56" y="-558" font-family="Helvetica,sans-Serif" font-size="10.00">+</text>
<text xml:space="preserve" text-anchor="start" x="122.75" y="-558" font-family="Helvetica,sans-Serif" font-size="10.00">operator=()</text>
<text xml:space="preserve" text-anchor="start" x="110.56" y="-542.75" font-family="Helvetica,sans-Serif" font-size="10.00">+</text>
<text xml:space="preserve" text-anchor="start" x="122.75" y="-542.75" font-family="Helvetica,sans-Serif" font-size="10.00">DynamicLibrary()</text>
<text xml:space="preserve" text-anchor="start" x="110.56" y="-527.5" font-family="Helvetica,sans-Serif" font-size="10.00">+</text>
<text xml:space="preserve" text-anchor="start" x="122.75" y="-527.5" font-family="Helvetica,sans-Serif" font-size="10.00">operator=()</text>
<text xml:space="preserve" text-anchor="start" x="110.56" y="-512.25" font-family="Helvetica,sans-Serif" font-size="10.00">+</text>
<text xml:space="preserve" text-anchor="start" x="122.75" y="-512.25" font-family="Helvetica,sans-Serif" font-size="10.00">get()</text>
<text xml:space="preserve" text-anchor="start" x="112.06" y="-497" font-family="Helvetica,sans-Serif" font-size="10.00">&#45;</text>
<text xml:space="preserve" text-anchor="start" x="122.75" y="-497" font-family="Helvetica,sans-Serif" font-size="10.00">getSymbolAddress()</text>
<polygon fill="#666666" stroke="#666666" points="104.38,-630.5 104.38,-630.5 219.62,-630.5 219.62,-630.5 104.38,-630.5"/>
<polygon fill="#666666" stroke="#666666" points="104.38,-615.25 104.38,-615.25 120.75,-615.25 120.75,-615.25 104.38,-615.25"/>
<polygon fill="#666666" stroke="#666666" points="120.75,-615.25 120.75,-615.25 219.62,-615.25 219.62,-615.25 120.75,-615.25"/>
<polygon fill="none" stroke="#666666" points="104.38,-491.25 104.38,-647.75 219.62,-647.75 219.62,-491.25 104.38,-491.25"/>
</a>
</g>
</g>
<!-- Node6&#45;&gt;Node5 -->
<g id="edge5_Node000005_Node000006" class="edge">
<title>Node6&#45;&gt;Node5</title>
<g id="a_edge5_Node000005_Node000006"><a xlink:title=" ">
<path fill="none" stroke="#63b8ff" d="M175.66,-491.26C178.53,-479.32 181.88,-467.23 185.75,-456 186.46,-453.94 187.24,-451.86 188.06,-449.77"/>
<polygon fill="none" stroke="#63b8ff" points="188.07,-449.75 186.79,-442.66 192.85,-438.75 194.13,-445.84 188.07,-449.75"/>
</a>
</g>
<text xml:space="preserve" text-anchor="start" x="188.75" y="-460.75" font-family="Helvetica,sans-Serif" font-size="10.00" fill="grey">+ptr</text>
</g>
<!-- Node7 -->
<g id="Node000007" class="node">
<title>Node7</title>
<g id="a_Node000007"><a xlink:title=" ">
<polygon fill="white" stroke="none" points="334.62,-594.38 237.38,-594.38 237.38,-544.62 334.62,-544.62 334.62,-594.38"/>
<text xml:space="preserve" text-anchor="start" x="241.38" y="-580.88" font-family="Helvetica,sans-Serif" font-size="10.00">std::shared_ptr&lt; T &gt;</text>
<text xml:space="preserve" text-anchor="start" x="284.5" y="-565.62" font-family="Helvetica,sans-Serif" font-size="10.00"> </text>
<text xml:space="preserve" text-anchor="start" x="248.62" y="-550.38" font-family="Helvetica,sans-Serif" font-size="10.00">+</text>
<text xml:space="preserve" text-anchor="start" x="265.88" y="-550.38" font-family="Helvetica,sans-Serif" font-size="10.00">operator&#45;&gt;()</text>
<polygon fill="#666666" stroke="#666666" points="237.38,-577.12 237.38,-577.12 334.62,-577.12 334.62,-577.12 237.38,-577.12"/>
<polygon fill="#666666" stroke="#666666" points="237.38,-561.88 237.38,-561.88 334.62,-561.88 334.62,-561.88 237.38,-561.88"/>
<polygon fill="none" stroke="#666666" points="237.38,-544.62 237.38,-594.38 334.62,-594.38 334.62,-544.62 237.38,-544.62"/>
</a>
</g>
</g>
<!-- Node7&#45;&gt;Node5 -->
<g id="edge6_Node000005_Node000007" class="edge">
<title>Node7&#45;&gt;Node5</title>
<g id="a_edge6_Node000005_Node000007"><a xlink:title=" ">
<path fill="none" stroke="orange" d="M269.66,-534.54C255.86,-505.87 236.3,-465.23 223.16,-437.92"/>
<polygon fill="orange" stroke="orange" points="266.49,-536.03 273.98,-543.53 272.8,-533 266.49,-536.03"/>
</a>
</g>
<text xml:space="preserve" text-anchor="start" x="241.34" y="-460.75" font-family="Helvetica,sans-Serif" font-size="10.00" fill="grey">&lt; rtp::sys::DynamicLibrary &gt;</text>
</g>
<!-- Node8 -->
<g id="Node000008" class="node">
<title>Node8</title>
<g id="a_Node000008"><a xlink:title=" ">
<polygon fill="white" stroke="none" points="316,-750.75 302,-750.75 302,-701 316,-701 316,-750.75"/>
<text xml:space="preserve" text-anchor="start" x="306" y="-737.25" font-family="Helvetica,sans-Serif" font-size="10.00">T</text>
<text xml:space="preserve" text-anchor="start" x="307.5" y="-722" font-family="Helvetica,sans-Serif" font-size="10.00"> </text>
<text xml:space="preserve" text-anchor="start" x="307.5" y="-706.75" font-family="Helvetica,sans-Serif" font-size="10.00"> </text>
<polygon fill="#666666" stroke="#666666" points="302,-733.5 302,-733.5 316,-733.5 316,-733.5 302,-733.5"/>
<polygon fill="#666666" stroke="#666666" points="302,-718.25 302,-718.25 316,-718.25 316,-718.25 302,-718.25"/>
<polygon fill="none" stroke="#666666" points="302,-701 302,-750.75 316,-750.75 316,-701 302,-701"/>
</a>
</g>
</g>
<!-- Node8&#45;&gt;Node7 -->
<g id="edge7_Node000007_Node000008" class="edge">
<title>Node8&#45;&gt;Node7</title>
<g id="a_edge7_Node000007_Node000008"><a xlink:title=" ">
<path fill="none" stroke="#63b8ff" d="M302.06,-715.11C296.71,-706.96 289.74,-694.81 286.75,-683 280.49,-658.22 280.43,-629.38 281.87,-607.11"/>
<polygon fill="none" stroke="#63b8ff" points="281.88,-607.04 278.38,-600.74 282.85,-595.08 286.35,-601.39 281.88,-607.04"/>
</a>
</g>
<text xml:space="preserve" text-anchor="start" x="289.75" y="-670.5" font-family="Helvetica,sans-Serif" font-size="10.00" fill="grey">+ptr</text>
</g>
<!-- Node9 -->
<g id="Node000009" class="node">
<title>Node9</title>
<g id="a_Node000009"><a xlink:title=" ">
<polygon fill="white" stroke="none" points="447.12,-600 352.88,-600 352.88,-539 447.12,-539 447.12,-600"/>
<text xml:space="preserve" text-anchor="start" x="356.88" y="-586.5" font-family="Helvetica,sans-Serif" font-size="10.00">std::unordered_map</text>
<text xml:space="preserve" text-anchor="start" x="381.62" y="-575.25" font-family="Helvetica,sans-Serif" font-size="10.00">&lt; K, T &gt;</text>
<text xml:space="preserve" text-anchor="start" x="398.5" y="-560" font-family="Helvetica,sans-Serif" font-size="10.00"> </text>
<text xml:space="preserve" text-anchor="start" x="398.5" y="-544.75" font-family="Helvetica,sans-Serif" font-size="10.00"> </text>
<polygon fill="#666666" stroke="#666666" points="352.88,-571.5 352.88,-571.5 447.12,-571.5 447.12,-571.5 352.88,-571.5"/>
<polygon fill="#666666" stroke="#666666" points="352.88,-556.25 352.88,-556.25 447.12,-556.25 447.12,-556.25 352.88,-556.25"/>
<polygon fill="none" stroke="#666666" points="352.88,-539 352.88,-600 447.12,-600 447.12,-539 352.88,-539"/>
</a>
</g>
</g>
<!-- Node8&#45;&gt;Node9 -->
<g id="edge10_Node000009_Node000008" class="edge">
<title>Node8&#45;&gt;Node9</title>
<g id="a_edge10_Node000009_Node000008"><a xlink:title=" ">
<path fill="none" stroke="#63b8ff" d="M315.99,-713.02C328.7,-691.45 356.15,-644.89 376.22,-610.83"/>
<polygon fill="none" stroke="#63b8ff" points="376.17,-610.93 375.77,-603.73 382.26,-600.59 382.66,-607.79 376.17,-610.93"/>
</a>
</g>
<text xml:space="preserve" text-anchor="start" x="346.67" y="-670.5" font-family="Helvetica,sans-Serif" font-size="10.00" fill="grey">+elements</text>
</g>
<!-- Node9&#45;&gt;Node2 -->
<g id="edge8_Node000002_Node000009" class="edge">
<title>Node9&#45;&gt;Node2</title>
<g id="a_edge8_Node000002_Node000009"><a xlink:title=" ">
<path fill="none" stroke="orange" d="M395.97,-528.15C392.47,-505.85 385.99,-478.24 374,-456 345.44,-403.03 296.3,-354.56 259.05,-322.49"/>
<polygon fill="orange" stroke="orange" points="392.47,-528.36 397.33,-537.77 399.4,-527.38 392.47,-528.36"/>
</a>
</g>
<text xml:space="preserve" text-anchor="start" x="366.11" y="-418.88" font-family="Helvetica,sans-Serif" font-size="10.00" fill="grey">&lt; std::string, std</text>
<text xml:space="preserve" text-anchor="start" x="366.11" y="-403.62" font-family="Helvetica,sans-Serif" font-size="10.00" fill="grey">  ::shared_ptr&lt; rtp::sys</text>
<text xml:space="preserve" text-anchor="start" x="366.11" y="-388.38" font-family="Helvetica,sans-Serif" font-size="10.00" fill="grey">  ::DynamicLibrary &gt; &gt;</text>
</g>
<!-- Node10 -->
<g id="Node000010" class="node">
<title>Node10</title>
<g id="a_Node000010"><a xlink:title=" ">
<polygon fill="white" stroke="none" points="414.38,-750.75 399.62,-750.75 399.62,-701 414.38,-701 414.38,-750.75"/>
<text xml:space="preserve" text-anchor="start" x="403.62" y="-737.25" font-family="Helvetica,sans-Serif" font-size="10.00">K</text>
<text xml:space="preserve" text-anchor="start" x="405.5" y="-722" font-family="Helvetica,sans-Serif" font-size="10.00"> </text>
<text xml:space="preserve" text-anchor="start" x="405.5" y="-706.75" font-family="Helvetica,sans-Serif" font-size="10.00"> </text>
<polygon fill="#666666" stroke="#666666" points="399.62,-733.5 399.62,-733.5 414.38,-733.5 414.38,-733.5 399.62,-733.5"/>
<polygon fill="#666666" stroke="#666666" points="399.62,-718.25 399.62,-718.25 414.38,-718.25 414.38,-718.25 399.62,-718.25"/>
<polygon fill="none" stroke="#666666" points="399.62,-701 399.62,-750.75 414.38,-750.75 414.38,-701 399.62,-701"/>
</a>
</g>
</g>
<!-- Node10&#45;&gt;Node9 -->
<g id="edge9_Node000009_Node000010" class="edge">
<title>Node10&#45;&gt;Node9</title>
<g id="a_edge9_Node000009_Node000010"><a xlink:title=" ">
<path fill="none" stroke="#63b8ff" d="M405.92,-701.09C404.86,-677.58 403.2,-641.11 401.91,-612.67"/>
<polygon fill="none" stroke="#63b8ff" points="401.92,-612.74 397.65,-606.93 401.37,-600.75 405.64,-606.57 401.92,-612.74"/>
</a>
</g>
<text xml:space="preserve" text-anchor="start" x="407.93" y="-670.5" font-family="Helvetica,sans-Serif" font-size="10.00" fill="grey">+keys</text>
</g>
<!-- Node11 -->
<g id="Node000011" class="node">
<title>Node11</title>
<g id="a_Node000011"><a xlink:title=" ">
<polygon fill="white" stroke="none" points="366.5,-306.88 277.5,-306.88 277.5,-257.12 366.5,-257.12 366.5,-306.88"/>
<text xml:space="preserve" text-anchor="start" x="281.5" y="-293.38" font-family="Helvetica,sans-Serif" font-size="10.00">std::shared_mutex</text>
<text xml:space="preserve" text-anchor="start" x="320.5" y="-278.12" font-family="Helvetica,sans-Serif" font-size="10.00"> </text>
<text xml:space="preserve" text-anchor="start" x="320.5" y="-262.88" font-family="Helvetica,sans-Serif" font-size="10.00"> </text>
<polygon fill="#666666" stroke="#666666" points="277.5,-289.62 277.5,-289.62 366.5,-289.62 366.5,-289.62 277.5,-289.62"/>
<polygon fill="#666666" stroke="#666666" points="277.5,-274.38 277.5,-274.38 366.5,-274.38 366.5,-274.38 277.5,-274.38"/>
<polygon fill="none" stroke="#666666" points="277.5,-257.12 277.5,-306.88 366.5,-306.88 366.5,-257.12 277.5,-257.12"/>
</a>
</g>
</g>
<!-- Node11&#45;&gt;Node1 -->
<g id="edge11_Node000001_Node000011" class="edge">
<title>Node11&#45;&gt;Node1</title>
<g id="a_edge11_Node000001_Node000011"><a xlink:title=" ">
<path fill="none" stroke="#63b8ff" d="M314.78,-257.38C310.1,-242.08 303.65,-220.97 296.94,-199.01"/>
<polygon fill="none" stroke="#63b8ff" points="296.97,-199.1 291.39,-194.53 293.46,-187.62 299.04,-192.19 296.97,-199.1"/>
</a>
</g>
<text xml:space="preserve" text-anchor="start" x="306.56" y="-209.75" font-family="Helvetica,sans-Serif" font-size="10.00" fill="grey">&#45;_mutex</text>
</g>
</g>
</svg>
