<?xml version="1.0" encoding="UTF-8" standalone="no"?>
<!DOCTYPE svg PUBLIC "-//W3C//DTD SVG 1.1//EN"
 "http://www.w3.org/Graphics/SVG/1.1/DTD/svg11.dtd">
<!-- Generated by graphviz version 14.0.5 (20251129.0259)
 -->
<!-- Title: rtp::server::PlayerSystem Pages: 1 -->
<svg width="134pt" height="281pt"
 viewBox="0.00 0.00 134.00 281.00" xmlns="http://www.w3.org/2000/svg" xmlns:xlink="http://www.w3.org/1999/xlink">
<g id="graph0" class="graph" transform="scale(1 1) rotate(0) translate(4 276.75)">
<title>rtp::server::PlayerSystem</title>
<!-- Node1 -->
<g id="Node000001" class="node">
<title>Node1</title>
<g id="a_Node000001"><a xlink:title="System to handle player&#45;related operations on the server side.">
<polygon fill="#999999" stroke="none" points="126,-171.75 0,-171.75 0,0 126,0 126,-171.75"/>
<text xml:space="preserve" text-anchor="start" x="7.12" y="-158.25" font-family="Helvetica,sans-Serif" font-size="10.00">rtp::server::PlayerSystem</text>
<text xml:space="preserve" text-anchor="start" x="5.5" y="-143" font-family="Helvetica,sans-Serif" font-size="10.00">&#45;</text>
<text xml:space="preserve" text-anchor="start" x="14" y="-143" font-family="Helvetica,sans-Serif" font-size="10.00">_network</text>
<text xml:space="preserve" text-anchor="start" x="5.5" y="-127.75" font-family="Helvetica,sans-Serif" font-size="10.00">&#45;</text>
<text xml:space="preserve" text-anchor="start" x="14" y="-127.75" font-family="Helvetica,sans-Serif" font-size="10.00">_registry</text>
<text xml:space="preserve" text-anchor="start" x="5.5" y="-112.5" font-family="Helvetica,sans-Serif" font-size="10.00">&#45;</text>
<text xml:space="preserve" text-anchor="start" x="14" y="-112.5" font-family="Helvetica,sans-Serif" font-size="10.00">_players</text>
<text xml:space="preserve" text-anchor="start" x="4" y="-97.25" font-family="Helvetica,sans-Serif" font-size="10.00">+</text>
<text xml:space="preserve" text-anchor="start" x="14" y="-97.25" font-family="Helvetica,sans-Serif" font-size="10.00">PlayerSystem()</text>
<text xml:space="preserve" text-anchor="start" x="4" y="-82" font-family="Helvetica,sans-Serif" font-size="10.00">+</text>
<text xml:space="preserve" text-anchor="start" x="14" y="-82" font-family="Helvetica,sans-Serif" font-size="10.00">update()</text>
<text xml:space="preserve" text-anchor="start" x="4" y="-66.75" font-family="Helvetica,sans-Serif" font-size="10.00">+</text>
<text xml:space="preserve" text-anchor="start" x="14" y="-66.75" font-family="Helvetica,sans-Serif" font-size="10.00">createPlayer()</text>
<text xml:space="preserve" text-anchor="start" x="4" y="-51.5" font-family="Helvetica,sans-Serif" font-size="10.00">+</text>
<text xml:space="preserve" text-anchor="start" x="14" y="-51.5" font-family="Helvetica,sans-Serif" font-size="10.00">removePlayer()</text>
<text xml:space="preserve" text-anchor="start" x="4" y="-36.25" font-family="Helvetica,sans-Serif" font-size="10.00">+</text>
<text xml:space="preserve" text-anchor="start" x="14" y="-36.25" font-family="Helvetica,sans-Serif" font-size="10.00">updatePlayerUsername()</text>
<text xml:space="preserve" text-anchor="start" x="4" y="-21" font-family="Helvetica,sans-Serif" font-size="10.00">+</text>
<text xml:space="preserve" text-anchor="start" x="14" y="-21" font-family="Helvetica,sans-Serif" font-size="10.00">getPlayer()</text>
<text xml:space="preserve" text-anchor="start" x="4" y="-5.75" font-family="Helvetica,sans-Serif" font-size="10.00">+</text>
<text xml:space="preserve" text-anchor="start" x="14" y="-5.75" font-family="Helvetica,sans-Serif" font-size="10.00">getPlayerByUsername()</text>
<polygon fill="#666666" stroke="#666666" points="0,-154.5 0,-154.5 126,-154.5 126,-154.5 0,-154.5"/>
<polygon fill="#666666" stroke="#666666" points="0,-108.75 0,-108.75 12,-108.75 12,-108.75 0,-108.75"/>
<polygon fill="#666666" stroke="#666666" points="12,-108.75 12,-108.75 126,-108.75 126,-108.75 12,-108.75"/>
<polygon fill="none" stroke="#666666" points="0,0 0,-171.75 126,-171.75 126,0 0,0"/>
</a>
</g>
</g>
<!-- Node2 -->
<g id="Node000002" class="node">
<title>Node2</title>
<g id="a_Node000002"><a xlink:href="classrtp_1_1ecs_1_1ISystem.html" target="_top" xlink:title="Abstract base class for all ECS systems.">
<polygon fill="white" stroke="none" points="104.88,-272.75 21.12,-272.75 21.12,-207.75 104.88,-207.75 104.88,-272.75"/>
<text xml:space="preserve" text-anchor="start" x="25.12" y="-259.25" font-family="Helvetica,sans-Serif" font-size="10.00">rtp::ecs::ISystem</text>
<text xml:space="preserve" text-anchor="start" x="61.5" y="-244" font-family="Helvetica,sans-Serif" font-size="10.00"> </text>
<text xml:space="preserve" text-anchor="start" x="29.38" y="-228.75" font-family="Helvetica,sans-Serif" font-size="10.00">+</text>
<text xml:space="preserve" text-anchor="start" x="43.62" y="-228.75" font-family="Helvetica,sans-Serif" font-size="10.00">~ISystem()</text>
<text xml:space="preserve" text-anchor="start" x="29.38" y="-213.5" font-family="Helvetica,sans-Serif" font-size="10.00">+</text>
<text xml:space="preserve" text-anchor="start" x="43.62" y="-213.5" font-family="Helvetica,sans-Serif" font-size="10.00">update()</text>
<polygon fill="#666666" stroke="#666666" points="21.12,-255.5 21.12,-255.5 104.88,-255.5 104.88,-255.5 21.12,-255.5"/>
<polygon fill="#666666" stroke="#666666" points="21.12,-240.25 21.12,-240.25 104.88,-240.25 104.88,-240.25 21.12,-240.25"/>
<polygon fill="none" stroke="#666666" points="21.12,-207.75 21.12,-272.75 104.88,-272.75 104.88,-207.75 21.12,-207.75"/>
</a>
</g>
</g>
<!-- Node2&#45;&gt;Node1 -->
<g id="edge1_Node000001_Node000002" class="edge">
<title>Node2&#45;&gt;Node1</title>
<g id="a_edge1_Node000001_Node000002"><a xlink:title=" ">
<path fill="none" stroke="#63b8ff" d="M63,-196.59C63,-188.7 63,-180.21 63,-171.57"/>
<polygon fill="none" stroke="#63b8ff" points="59.5,-196.53 63,-206.53 66.5,-196.53 59.5,-196.53"/>
</a>
</g>
</g>
</g>
</svg>
