<?xml version="1.0" encoding="UTF-8" standalone="no"?>
<!DOCTYPE svg PUBLIC "-//W3C//DTD SVG 1.1//EN"
 "http://www.w3.org/Graphics/SVG/1.1/DTD/svg11.dtd">
<!-- Generated by graphviz version 14.0.5 (20251129.0259)
 -->
<!-- Title: rtp::client::systems::UIRenderSystem Pages: 1 -->
<svg width="807pt" height="1119pt"
 viewBox="0.00 0.00 807.00 1119.00" xmlns="http://www.w3.org/2000/svg" xmlns:xlink="http://www.w3.org/1999/xlink">
<g id="graph0" class="graph" transform="scale(1 1) rotate(0) translate(4 1115)">
<title>rtp::client::systems::UIRenderSystem</title>
<!-- Node1 -->
<g id="Node000001" class="node">
<title>Node1</title>
<g id="a_Node000001"><a xlink:title=" ">
<polygon fill="#999999" stroke="none" points="524.25,-213.5 407.25,-213.5 407.25,0 524.25,0 524.25,-213.5"/>
<text xml:space="preserve" text-anchor="start" x="423.75" y="-200" font-family="Helvetica,sans-Serif" font-size="10.00">rtp::client::systems</text>
<text xml:space="preserve" text-anchor="start" x="424.88" y="-188.75" font-family="Helvetica,sans-Serif" font-size="10.00">::UIRenderSystem</text>
<text xml:space="preserve" text-anchor="start" x="412.75" y="-173.5" font-family="Helvetica,sans-Serif" font-size="10.00">&#45;</text>
<text xml:space="preserve" text-anchor="start" x="421.25" y="-173.5" font-family="Helvetica,sans-Serif" font-size="10.00">_window</text>
<text xml:space="preserve" text-anchor="start" x="411.25" y="-158.25" font-family="Helvetica,sans-Serif" font-size="10.00">+</text>
<text xml:space="preserve" text-anchor="start" x="421.25" y="-158.25" font-family="Helvetica,sans-Serif" font-size="10.00">UIRenderSystem()</text>
<text xml:space="preserve" text-anchor="start" x="411.25" y="-143" font-family="Helvetica,sans-Serif" font-size="10.00">+</text>
<text xml:space="preserve" text-anchor="start" x="421.25" y="-143" font-family="Helvetica,sans-Serif" font-size="10.00">update()</text>
<text xml:space="preserve" text-anchor="start" x="411.25" y="-127.75" font-family="Helvetica,sans-Serif" font-size="10.00">+</text>
<text xml:space="preserve" text-anchor="start" x="421.25" y="-127.75" font-family="Helvetica,sans-Serif" font-size="10.00">clearTextureCache()</text>
<text xml:space="preserve" text-anchor="start" x="412.75" y="-112.5" font-family="Helvetica,sans-Serif" font-size="10.00">&#45;</text>
<text xml:space="preserve" text-anchor="start" x="421.25" y="-112.5" font-family="Helvetica,sans-Serif" font-size="10.00">renderButtons()</text>
<text xml:space="preserve" text-anchor="start" x="412.75" y="-97.25" font-family="Helvetica,sans-Serif" font-size="10.00">&#45;</text>
<text xml:space="preserve" text-anchor="start" x="421.25" y="-97.25" font-family="Helvetica,sans-Serif" font-size="10.00">renderTexts()</text>
<text xml:space="preserve" text-anchor="start" x="412.75" y="-82" font-family="Helvetica,sans-Serif" font-size="10.00">&#45;</text>
<text xml:space="preserve" text-anchor="start" x="421.25" y="-82" font-family="Helvetica,sans-Serif" font-size="10.00">renderSliders()</text>
<text xml:space="preserve" text-anchor="start" x="412.75" y="-66.75" font-family="Helvetica,sans-Serif" font-size="10.00">&#45;</text>
<text xml:space="preserve" text-anchor="start" x="421.25" y="-66.75" font-family="Helvetica,sans-Serif" font-size="10.00">renderDropdowns()</text>
<text xml:space="preserve" text-anchor="start" x="412.75" y="-51.5" font-family="Helvetica,sans-Serif" font-size="10.00">&#45;</text>
<text xml:space="preserve" text-anchor="start" x="421.25" y="-51.5" font-family="Helvetica,sans-Serif" font-size="10.00">renderTextInputs()</text>
<text xml:space="preserve" text-anchor="start" x="412.75" y="-36.25" font-family="Helvetica,sans-Serif" font-size="10.00">&#45;</text>
<text xml:space="preserve" text-anchor="start" x="421.25" y="-36.25" font-family="Helvetica,sans-Serif" font-size="10.00">renderSpritePreviews()</text>
<text xml:space="preserve" text-anchor="start" x="412.75" y="-21" font-family="Helvetica,sans-Serif" font-size="10.00">&#45;</text>
<text xml:space="preserve" text-anchor="start" x="421.25" y="-21" font-family="Helvetica,sans-Serif" font-size="10.00">loadFont()</text>
<text xml:space="preserve" text-anchor="start" x="412.75" y="-5.75" font-family="Helvetica,sans-Serif" font-size="10.00">&#45;</text>
<text xml:space="preserve" text-anchor="start" x="421.25" y="-5.75" font-family="Helvetica,sans-Serif" font-size="10.00">loadTexture()</text>
<polygon fill="#666666" stroke="#666666" points="407.25,-185 407.25,-185 524.25,-185 524.25,-185 407.25,-185"/>
<polygon fill="#666666" stroke="#666666" points="407.25,-169.75 407.25,-169.75 419.25,-169.75 419.25,-169.75 407.25,-169.75"/>
<polygon fill="#666666" stroke="#666666" points="419.25,-169.75 419.25,-169.75 524.25,-169.75 524.25,-169.75 419.25,-169.75"/>
<polygon fill="none" stroke="#666666" points="407.25,0 407.25,-213.5 524.25,-213.5 524.25,0 407.25,0"/>
</a>
</g>
</g>
<!-- Node2 -->
<g id="Node000002" class="node">
<title>Node2</title>
<g id="a_Node000002"><a xlink:href="classrtp_1_1ecs_1_1ISystem.html" target="_top" xlink:title="Abstract base class for all ECS systems.">
<polygon fill="white" stroke="none" points="301.62,-453.75 217.88,-453.75 217.88,-388.75 301.62,-388.75 301.62,-453.75"/>
<text xml:space="preserve" text-anchor="start" x="221.88" y="-440.25" font-family="Helvetica,sans-Serif" font-size="10.00">rtp::ecs::ISystem</text>
<text xml:space="preserve" text-anchor="start" x="258.25" y="-425" font-family="Helvetica,sans-Serif" font-size="10.00"> </text>
<text xml:space="preserve" text-anchor="start" x="226.12" y="-409.75" font-family="Helvetica,sans-Serif" font-size="10.00">+</text>
<text xml:space="preserve" text-anchor="start" x="240.38" y="-409.75" font-family="Helvetica,sans-Serif" font-size="10.00">~ISystem()</text>
<text xml:space="preserve" text-anchor="start" x="226.12" y="-394.5" font-family="Helvetica,sans-Serif" font-size="10.00">+</text>
<text xml:space="preserve" text-anchor="start" x="240.38" y="-394.5" font-family="Helvetica,sans-Serif" font-size="10.00">update()</text>
<polygon fill="#666666" stroke="#666666" points="217.88,-436.5 217.88,-436.5 301.62,-436.5 301.62,-436.5 217.88,-436.5"/>
<polygon fill="#666666" stroke="#666666" points="217.88,-421.25 217.88,-421.25 301.62,-421.25 301.62,-421.25 217.88,-421.25"/>
<polygon fill="none" stroke="#666666" points="217.88,-388.75 217.88,-453.75 301.62,-453.75 301.62,-388.75 217.88,-388.75"/>
</a>
</g>
</g>
<!-- Node2&#45;&gt;Node1 -->
<g id="edge1_Node000001_Node000002" class="edge">
<title>Node2&#45;&gt;Node1</title>
<g id="a_edge1_Node000001_Node000002"><a xlink:title=" ">
<path fill="none" stroke="#63b8ff" d="M268.35,-377.96C276.13,-345.83 289.66,-301.41 310.75,-266.75 336.4,-224.6 375.15,-184.85 407.49,-155.64"/>
<polygon fill="none" stroke="#63b8ff" points="265.03,-376.77 266.17,-387.31 271.85,-378.36 265.03,-376.77"/>
</a>
</g>
</g>
<!-- Node3 -->
<g id="Node000003" class="node">
<title>Node3</title>
<g id="a_Node000003"><a xlink:href="classrtp_1_1ecs_1_1Registry.html" target="_top" xlink:title=" ">
<polygon fill="white" stroke="none" points="426,-575.75 319.5,-575.75 319.5,-266.75 426,-266.75 426,-575.75"/>
<text xml:space="preserve" text-anchor="start" x="334.88" y="-562.25" font-family="Helvetica,sans-Serif" font-size="10.00">rtp::ecs::Registry</text>
<text xml:space="preserve" text-anchor="start" x="371.25" y="-547" font-family="Helvetica,sans-Serif" font-size="10.00"> </text>
<text xml:space="preserve" text-anchor="start" x="323.5" y="-531.75" font-family="Helvetica,sans-Serif" font-size="10.00">+</text>
<text xml:space="preserve" text-anchor="start" x="333.5" y="-531.75" font-family="Helvetica,sans-Serif" font-size="10.00">~Registry()</text>
<text xml:space="preserve" text-anchor="start" x="323.5" y="-516.5" font-family="Helvetica,sans-Serif" font-size="10.00">+</text>
<text xml:space="preserve" text-anchor="start" x="333.5" y="-516.5" font-family="Helvetica,sans-Serif" font-size="10.00">spawn()</text>
<text xml:space="preserve" text-anchor="start" x="323.5" y="-501.25" font-family="Helvetica,sans-Serif" font-size="10.00">+</text>
<text xml:space="preserve" text-anchor="start" x="333.5" y="-501.25" font-family="Helvetica,sans-Serif" font-size="10.00">kill()</text>
<text xml:space="preserve" text-anchor="start" x="323.5" y="-486" font-family="Helvetica,sans-Serif" font-size="10.00">+</text>
<text xml:space="preserve" text-anchor="start" x="333.5" y="-486" font-family="Helvetica,sans-Serif" font-size="10.00">subscribe()</text>
<text xml:space="preserve" text-anchor="start" x="323.5" y="-470.75" font-family="Helvetica,sans-Serif" font-size="10.00">+</text>
<text xml:space="preserve" text-anchor="start" x="333.5" y="-470.75" font-family="Helvetica,sans-Serif" font-size="10.00">isAlive()</text>
<text xml:space="preserve" text-anchor="start" x="323.5" y="-455.5" font-family="Helvetica,sans-Serif" font-size="10.00">+</text>
<text xml:space="preserve" text-anchor="start" x="333.5" y="-455.5" font-family="Helvetica,sans-Serif" font-size="10.00">add()</text>
<text xml:space="preserve" text-anchor="start" x="323.5" y="-440.25" font-family="Helvetica,sans-Serif" font-size="10.00">+</text>
<text xml:space="preserve" text-anchor="start" x="333.5" y="-440.25" font-family="Helvetica,sans-Serif" font-size="10.00">get()</text>
<text xml:space="preserve" text-anchor="start" x="323.5" y="-425" font-family="Helvetica,sans-Serif" font-size="10.00">+</text>
<text xml:space="preserve" text-anchor="start" x="333.5" y="-425" font-family="Helvetica,sans-Serif" font-size="10.00">has()</text>
<text xml:space="preserve" text-anchor="start" x="323.5" y="-409.75" font-family="Helvetica,sans-Serif" font-size="10.00">+</text>
<text xml:space="preserve" text-anchor="start" x="333.5" y="-409.75" font-family="Helvetica,sans-Serif" font-size="10.00">remove()</text>
<text xml:space="preserve" text-anchor="start" x="323.5" y="-394.5" font-family="Helvetica,sans-Serif" font-size="10.00">+</text>
<text xml:space="preserve" text-anchor="start" x="333.5" y="-394.5" font-family="Helvetica,sans-Serif" font-size="10.00">clear()</text>
<text xml:space="preserve" text-anchor="start" x="323.5" y="-379.25" font-family="Helvetica,sans-Serif" font-size="10.00">+</text>
<text xml:space="preserve" text-anchor="start" x="333.5" y="-379.25" font-family="Helvetica,sans-Serif" font-size="10.00">purge()</text>
<text xml:space="preserve" text-anchor="start" x="323.5" y="-364" font-family="Helvetica,sans-Serif" font-size="10.00">+</text>
<text xml:space="preserve" text-anchor="start" x="333.5" y="-364" font-family="Helvetica,sans-Serif" font-size="10.00">view()</text>
<text xml:space="preserve" text-anchor="start" x="323.5" y="-348.75" font-family="Helvetica,sans-Serif" font-size="10.00">+</text>
<text xml:space="preserve" text-anchor="start" x="333.5" y="-348.75" font-family="Helvetica,sans-Serif" font-size="10.00">zipView()</text>
<text xml:space="preserve" text-anchor="start" x="323.5" y="-333.5" font-family="Helvetica,sans-Serif" font-size="10.00">+</text>
<text xml:space="preserve" text-anchor="start" x="333.5" y="-333.5" font-family="Helvetica,sans-Serif" font-size="10.00">entityCount()</text>
<text xml:space="preserve" text-anchor="start" x="323.5" y="-318.25" font-family="Helvetica,sans-Serif" font-size="10.00">+</text>
<text xml:space="preserve" text-anchor="start" x="333.5" y="-318.25" font-family="Helvetica,sans-Serif" font-size="10.00">componentCount()</text>
<text xml:space="preserve" text-anchor="start" x="325" y="-303" font-family="Helvetica,sans-Serif" font-size="10.00">&#45;</text>
<text xml:space="preserve" text-anchor="start" x="333.5" y="-303" font-family="Helvetica,sans-Serif" font-size="10.00">getArray()</text>
<text xml:space="preserve" text-anchor="start" x="325" y="-287.75" font-family="Helvetica,sans-Serif" font-size="10.00">&#45;</text>
<text xml:space="preserve" text-anchor="start" x="333.5" y="-287.75" font-family="Helvetica,sans-Serif" font-size="10.00">getSmallestArray()</text>
<text xml:space="preserve" text-anchor="start" x="325" y="-272.5" font-family="Helvetica,sans-Serif" font-size="10.00">&#45;</text>
<text xml:space="preserve" text-anchor="start" x="333.5" y="-272.5" font-family="Helvetica,sans-Serif" font-size="10.00">hasAllComponents()</text>
<polygon fill="#666666" stroke="#666666" points="319.5,-558.5 319.5,-558.5 426,-558.5 426,-558.5 319.5,-558.5"/>
<polygon fill="#666666" stroke="#666666" points="319.5,-543.25 319.5,-543.25 426,-543.25 426,-543.25 319.5,-543.25"/>
<polygon fill="none" stroke="#666666" points="319.5,-266.75 319.5,-575.75 426,-575.75 426,-266.75 319.5,-266.75"/>
</a>
</g>
</g>
<!-- Node3&#45;&gt;Node1 -->
<g id="edge2_Node000001_Node000003" class="edge">
<title>Node3&#45;&gt;Node1</title>
<g id="a_edge2_Node000001_Node000003"><a xlink:title=" ">
<path fill="none" stroke="#63b8ff" d="M418.3,-267.2C422.45,-253.23 426.62,-239.23 430.67,-225.64"/>
<polygon fill="none" stroke="#63b8ff" points="430.66,-225.65 428.54,-218.75 434.09,-214.14 436.21,-221.04 430.66,-225.65"/>
</a>
</g>
<text xml:space="preserve" text-anchor="start" x="430.58" y="-236.25" font-family="Helvetica,sans-Serif" font-size="10.00" fill="grey">&#45;_registry</text>
</g>
<!-- Node4 -->
<g id="Node000004" class="node">
<title>Node4</title>
<g id="a_Node000004"><a xlink:title=" ">
<polygon fill="white" stroke="none" points="363.38,-712.5 260.12,-712.5 260.12,-629 363.38,-629 363.38,-712.5"/>
<text xml:space="preserve" text-anchor="start" x="264.12" y="-699" font-family="Helvetica,sans-Serif" font-size="10.00">std::unordered_map</text>
<text xml:space="preserve" text-anchor="start" x="264.12" y="-687.75" font-family="Helvetica,sans-Serif" font-size="10.00">&lt; std::type_index, std</text>
<text xml:space="preserve" text-anchor="start" x="264.12" y="-676.5" font-family="Helvetica,sans-Serif" font-size="10.00">::unique_ptr&lt; rtp::ecs</text>
<text xml:space="preserve" text-anchor="start" x="271.25" y="-665.25" font-family="Helvetica,sans-Serif" font-size="10.00">::ISparseArray &gt; &gt;</text>
<text xml:space="preserve" text-anchor="start" x="280.19" y="-650" font-family="Helvetica,sans-Serif" font-size="10.00">+</text>
<text xml:space="preserve" text-anchor="start" x="306.25" y="-650" font-family="Helvetica,sans-Serif" font-size="10.00">keys</text>
<text xml:space="preserve" text-anchor="start" x="310.25" y="-634.75" font-family="Helvetica,sans-Serif" font-size="10.00"> </text>
<polygon fill="#666666" stroke="#666666" points="260.12,-661.5 260.12,-661.5 363.38,-661.5 363.38,-661.5 260.12,-661.5"/>
<polygon fill="#666666" stroke="#666666" points="260.12,-646.25 260.12,-646.25 304.25,-646.25 304.25,-646.25 260.12,-646.25"/>
<polygon fill="#666666" stroke="#666666" points="304.25,-646.25 304.25,-646.25 363.38,-646.25 363.38,-646.25 304.25,-646.25"/>
<polygon fill="none" stroke="#666666" points="260.12,-629 260.12,-712.5 363.38,-712.5 363.38,-629 260.12,-629"/>
</a>
</g>
</g>
<!-- Node4&#45;&gt;Node3 -->
<g id="edge3_Node000003_Node000004" class="edge">
<title>Node4&#45;&gt;Node3</title>
<g id="a_edge3_Node000003_Node000004"><a xlink:title=" ">
<path fill="none" stroke="#63b8ff" d="M321.75,-629.16C324.74,-617.04 328.22,-602.94 331.92,-587.9"/>
<polygon fill="none" stroke="#63b8ff" points="331.85,-588.19 329.4,-581.41 334.72,-576.54 337.17,-583.32 331.85,-588.19"/>
</a>
</g>
<text xml:space="preserve" text-anchor="start" x="332.77" y="-598.5" font-family="Helvetica,sans-Serif" font-size="10.00" fill="grey">&#45;_arrays</text>
</g>
<!-- Node5 -->
<g id="Node000005" class="node">
<title>Node5</title>
<g id="a_Node000005"><a xlink:title=" ">
<polygon fill="white" stroke="none" points="358.62,-859.25 256.88,-859.25 256.88,-798.25 358.62,-798.25 358.62,-859.25"/>
<text xml:space="preserve" text-anchor="start" x="260.88" y="-845.75" font-family="Helvetica,sans-Serif" font-size="10.00">std::unique_ptr&lt; rtp</text>
<text xml:space="preserve" text-anchor="start" x="260.88" y="-834.5" font-family="Helvetica,sans-Serif" font-size="10.00">::ecs::ISparseArray &gt;</text>
<text xml:space="preserve" text-anchor="start" x="306.25" y="-819.25" font-family="Helvetica,sans-Serif" font-size="10.00"> </text>
<text xml:space="preserve" text-anchor="start" x="269.25" y="-804" font-family="Helvetica,sans-Serif" font-size="10.00">+</text>
<text xml:space="preserve" text-anchor="start" x="287.62" y="-804" font-family="Helvetica,sans-Serif" font-size="10.00">operator&#45;&gt;()</text>
<polygon fill="#666666" stroke="#666666" points="256.88,-830.75 256.88,-830.75 358.62,-830.75 358.62,-830.75 256.88,-830.75"/>
<polygon fill="#666666" stroke="#666666" points="256.88,-815.5 256.88,-815.5 358.62,-815.5 358.62,-815.5 256.88,-815.5"/>
<polygon fill="none" stroke="#666666" points="256.88,-798.25 256.88,-859.25 358.62,-859.25 358.62,-798.25 256.88,-798.25"/>
</a>
</g>
</g>
<!-- Node5&#45;&gt;Node4 -->
<g id="edge4_Node000004_Node000005" class="edge">
<title>Node5&#45;&gt;Node4</title>
<g id="a_edge4_Node000004_Node000005"><a xlink:title=" ">
<path fill="none" stroke="#63b8ff" d="M307.87,-798.38C308.01,-779.08 308.32,-753.28 309,-730.5 309.05,-728.74 309.11,-726.96 309.17,-725.15"/>
<polygon fill="none" stroke="#63b8ff" points="309.17,-725.09 305.41,-718.94 309.64,-713.1 313.41,-719.25 309.17,-725.09"/>
</a>
</g>
<text xml:space="preserve" text-anchor="start" x="312" y="-751.5" font-family="Helvetica,sans-Serif" font-size="10.00" fill="grey">+elements</text>
</g>
<!-- Node6 -->
<g id="Node000006" class="node">
<title>Node6</title>
<g id="a_Node000006"><a xlink:href="classrtp_1_1ecs_1_1ISparseArray.html" target="_top" xlink:title="Type&#45;erased base interface for sparse arrays.">
<polygon fill="white" stroke="none" points="480.75,-1008 376.75,-1008 376.75,-912.5 480.75,-912.5 480.75,-1008"/>
<text xml:space="preserve" text-anchor="start" x="380.75" y="-994.5" font-family="Helvetica,sans-Serif" font-size="10.00">rtp::ecs::ISparseArray</text>
<text xml:space="preserve" text-anchor="start" x="427.25" y="-979.25" font-family="Helvetica,sans-Serif" font-size="10.00"> </text>
<text xml:space="preserve" text-anchor="start" x="385" y="-964" font-family="Helvetica,sans-Serif" font-size="10.00">+</text>
<text xml:space="preserve" text-anchor="start" x="399.25" y="-964" font-family="Helvetica,sans-Serif" font-size="10.00">~ISparseArray()</text>
<text xml:space="preserve" text-anchor="start" x="385" y="-948.75" font-family="Helvetica,sans-Serif" font-size="10.00">+</text>
<text xml:space="preserve" text-anchor="start" x="399.25" y="-948.75" font-family="Helvetica,sans-Serif" font-size="10.00">erase()</text>
<text xml:space="preserve" text-anchor="start" x="385" y="-933.5" font-family="Helvetica,sans-Serif" font-size="10.00">+</text>
<text xml:space="preserve" text-anchor="start" x="399.25" y="-933.5" font-family="Helvetica,sans-Serif" font-size="10.00">has()</text>
<text xml:space="preserve" text-anchor="start" x="385" y="-918.25" font-family="Helvetica,sans-Serif" font-size="10.00">+</text>
<text xml:space="preserve" text-anchor="start" x="399.25" y="-918.25" font-family="Helvetica,sans-Serif" font-size="10.00">clear()</text>
<polygon fill="#666666" stroke="#666666" points="376.75,-990.75 376.75,-990.75 480.75,-990.75 480.75,-990.75 376.75,-990.75"/>
<polygon fill="#666666" stroke="#666666" points="376.75,-975.5 376.75,-975.5 480.75,-975.5 480.75,-975.5 376.75,-975.5"/>
<polygon fill="none" stroke="#666666" points="376.75,-912.5 376.75,-1008 480.75,-1008 480.75,-912.5 376.75,-912.5"/>
</a>
</g>
</g>
<!-- Node6&#45;&gt;Node5 -->
<g id="edge5_Node000005_Node000006" class="edge">
<title>Node6&#45;&gt;Node5</title>
<g id="a_edge5_Node000005_Node000006"><a xlink:title=" ">
<path fill="none" stroke="#63b8ff" d="M423.46,-912.55C420.22,-900.04 415.03,-887.23 406.75,-877.25 397,-865.5 383.66,-856.46 369.94,-849.57"/>
<polygon fill="none" stroke="#63b8ff" points="370.12,-849.66 363,-850.8 359.21,-844.66 366.33,-843.52 370.12,-849.66"/>
</a>
</g>
<text xml:space="preserve" text-anchor="start" x="419.42" y="-882" font-family="Helvetica,sans-Serif" font-size="10.00" fill="grey">+ptr</text>
</g>
<!-- Node7 -->
<g id="Node000007" class="node">
<title>Node7</title>
<g id="a_Node000007"><a xlink:title=" ">
<polygon fill="white" stroke="none" points="336,-985.12 239.5,-985.12 239.5,-935.38 336,-935.38 336,-985.12"/>
<text xml:space="preserve" text-anchor="start" x="243.5" y="-971.62" font-family="Helvetica,sans-Serif" font-size="10.00">std::unique_ptr&lt; T &gt;</text>
<text xml:space="preserve" text-anchor="start" x="286.25" y="-956.38" font-family="Helvetica,sans-Serif" font-size="10.00"> </text>
<text xml:space="preserve" text-anchor="start" x="250.56" y="-941.12" font-family="Helvetica,sans-Serif" font-size="10.00">+</text>
<text xml:space="preserve" text-anchor="start" x="267.62" y="-941.12" font-family="Helvetica,sans-Serif" font-size="10.00">operator&#45;&gt;()</text>
<polygon fill="#666666" stroke="#666666" points="239.5,-967.88 239.5,-967.88 336,-967.88 336,-967.88 239.5,-967.88"/>
<polygon fill="#666666" stroke="#666666" points="239.5,-952.62 239.5,-952.62 336,-952.62 336,-952.62 239.5,-952.62"/>
<polygon fill="none" stroke="#666666" points="239.5,-935.38 239.5,-985.12 336,-985.12 336,-935.38 239.5,-935.38"/>
</a>
</g>
</g>
<!-- Node7&#45;&gt;Node5 -->
<g id="edge6_Node000005_Node000007" class="edge">
<title>Node7&#45;&gt;Node5</title>
<g id="a_edge6_Node000005_Node000007"><a xlink:title=" ">
<path fill="none" stroke="orange" d="M283.98,-924.48C283.25,-909.77 283.52,-892.53 286.75,-877.25 288.04,-871.16 290.15,-864.91 292.56,-859.01"/>
<polygon fill="orange" stroke="orange" points="280.47,-924.41 284.65,-934.15 287.45,-923.93 280.47,-924.41"/>
</a>
</g>
<text xml:space="preserve" text-anchor="start" x="289.75" y="-882" font-family="Helvetica,sans-Serif" font-size="10.00" fill="grey">&lt; rtp::ecs::ISparseArray &gt;</text>
</g>
<!-- Node8 -->
<g id="Node000008" class="node">
<title>Node8</title>
<g id="a_Node000008"><a xlink:title=" ">
<polygon fill="white" stroke="none" points="234.75,-1111 220.75,-1111 220.75,-1061.25 234.75,-1061.25 234.75,-1111"/>
<text xml:space="preserve" text-anchor="start" x="224.75" y="-1097.5" font-family="Helvetica,sans-Serif" font-size="10.00">T</text>
<text xml:space="preserve" text-anchor="start" x="226.25" y="-1082.25" font-family="Helvetica,sans-Serif" font-size="10.00"> </text>
<text xml:space="preserve" text-anchor="start" x="226.25" y="-1067" font-family="Helvetica,sans-Serif" font-size="10.00"> </text>
<polygon fill="#666666" stroke="#666666" points="220.75,-1093.75 220.75,-1093.75 234.75,-1093.75 234.75,-1093.75 220.75,-1093.75"/>
<polygon fill="#666666" stroke="#666666" points="220.75,-1078.5 220.75,-1078.5 234.75,-1078.5 234.75,-1078.5 220.75,-1078.5"/>
<polygon fill="none" stroke="#666666" points="220.75,-1061.25 220.75,-1111 234.75,-1111 234.75,-1061.25 220.75,-1061.25"/>
</a>
</g>
</g>
<!-- Node8&#45;&gt;Node7 -->
<g id="edge7_Node000007_Node000008" class="edge">
<title>Node8&#45;&gt;Node7</title>
<g id="a_edge7_Node000007_Node000008"><a xlink:title=" ">
<path fill="none" stroke="#63b8ff" d="M234.63,-1076.54C240.97,-1068.34 250.34,-1055.46 256.75,-1043.25 264.41,-1028.66 271.14,-1011.74 276.35,-997.08"/>
<polygon fill="none" stroke="#63b8ff" points="276.35,-997.09 274.51,-990.11 280.23,-985.73 282.07,-992.71 276.35,-997.09"/>
</a>
</g>
<text xml:space="preserve" text-anchor="start" x="267.03" y="-1030.75" font-family="Helvetica,sans-Serif" font-size="10.00" fill="grey">+ptr</text>
</g>
<!-- Node9 -->
<g id="Node000009" class="node">
<title>Node9</title>
<g id="a_Node000009"><a xlink:title=" ">
<polygon fill="white" stroke="none" points="567.88,-859.25 473.62,-859.25 473.62,-798.25 567.88,-798.25 567.88,-859.25"/>
<text xml:space="preserve" text-anchor="start" x="477.62" y="-845.75" font-family="Helvetica,sans-Serif" font-size="10.00">std::unordered_map</text>
<text xml:space="preserve" text-anchor="start" x="502.38" y="-834.5" font-family="Helvetica,sans-Serif" font-size="10.00">&lt; K, T &gt;</text>
<text xml:space="preserve" text-anchor="start" x="519.25" y="-819.25" font-family="Helvetica,sans-Serif" font-size="10.00"> </text>
<text xml:space="preserve" text-anchor="start" x="519.25" y="-804" font-family="Helvetica,sans-Serif" font-size="10.00"> </text>
<polygon fill="#666666" stroke="#666666" points="473.62,-830.75 473.62,-830.75 567.88,-830.75 567.88,-830.75 473.62,-830.75"/>
<polygon fill="#666666" stroke="#666666" points="473.62,-815.5 473.62,-815.5 567.88,-815.5 567.88,-815.5 473.62,-815.5"/>
<polygon fill="none" stroke="#666666" points="473.62,-798.25 473.62,-859.25 567.88,-859.25 567.88,-798.25 473.62,-798.25"/>
</a>
</g>
</g>
<!-- Node8&#45;&gt;Node9 -->
<g id="edge10_Node000009_Node000008" class="edge">
<title>Node8&#45;&gt;Node9</title>
<g id="a_edge10_Node000009_Node000008"><a xlink:title=" ">
<path fill="none" stroke="#63b8ff" d="M234.32,-1085.47C267.52,-1086.84 418.1,-1088.32 489.75,-1008 522.74,-971.01 526.84,-911.91 525.13,-872"/>
<polygon fill="none" stroke="#63b8ff" points="525.12,-871.88 520.77,-866.14 524.4,-859.91 528.75,-865.65 525.12,-871.88"/>
</a>
</g>
<text xml:space="preserve" text-anchor="start" x="527.3" y="-956.38" font-family="Helvetica,sans-Serif" font-size="10.00" fill="grey">+elements</text>
</g>
<!-- Node12 -->
<g id="Node000012" class="node">
<title>Node12</title>
<g id="a_Node000012"><a xlink:title=" ">
<polygon fill="white" stroke="none" points="221,-985.12 142.5,-985.12 142.5,-935.38 221,-935.38 221,-985.12"/>
<text xml:space="preserve" text-anchor="start" x="146.5" y="-971.62" font-family="Helvetica,sans-Serif" font-size="10.00">std::vector&lt; T &gt;</text>
<text xml:space="preserve" text-anchor="start" x="180.25" y="-956.38" font-family="Helvetica,sans-Serif" font-size="10.00"> </text>
<text xml:space="preserve" text-anchor="start" x="180.25" y="-941.12" font-family="Helvetica,sans-Serif" font-size="10.00"> </text>
<polygon fill="#666666" stroke="#666666" points="142.5,-967.88 142.5,-967.88 221,-967.88 221,-967.88 142.5,-967.88"/>
<polygon fill="#666666" stroke="#666666" points="142.5,-952.62 142.5,-952.62 221,-952.62 221,-952.62 142.5,-952.62"/>
<polygon fill="none" stroke="#666666" points="142.5,-935.38 142.5,-985.12 221,-985.12 221,-935.38 142.5,-935.38"/>
</a>
</g>
</g>
<!-- Node8&#45;&gt;Node12 -->
<g id="edge13_Node000012_Node000008" class="edge">
<title>Node8&#45;&gt;Node12</title>
<g id="a_edge13_Node000012_Node000008"><a xlink:title=" ">
<path fill="none" stroke="#63b8ff" d="M220.87,-1074.08C215.95,-1065.82 209.43,-1054.13 205,-1043.25 199.06,-1028.67 194.04,-1012.04 190.2,-997.58"/>
<polygon fill="none" stroke="#63b8ff" points="190.19,-997.55 184.84,-992.72 187.24,-985.92 192.59,-990.75 190.19,-997.55"/>
</a>
</g>
<text xml:space="preserve" text-anchor="start" x="208" y="-1030.75" font-family="Helvetica,sans-Serif" font-size="10.00" fill="grey">+elements</text>
</g>
<!-- Node14 -->
<g id="Node000014" class="node">
<title>Node14</title>
<g id="a_Node000014"><a xlink:title=" ">
<polygon fill="white" stroke="none" points="116.62,-985.12 38.88,-985.12 38.88,-935.38 116.62,-935.38 116.62,-985.12"/>
<text xml:space="preserve" text-anchor="start" x="42.88" y="-971.62" font-family="Helvetica,sans-Serif" font-size="10.00">std::deque&lt; T &gt;</text>
<text xml:space="preserve" text-anchor="start" x="76.25" y="-956.38" font-family="Helvetica,sans-Serif" font-size="10.00"> </text>
<text xml:space="preserve" text-anchor="start" x="76.25" y="-941.12" font-family="Helvetica,sans-Serif" font-size="10.00"> </text>
<polygon fill="#666666" stroke="#666666" points="38.88,-967.88 38.88,-967.88 116.62,-967.88 116.62,-967.88 38.88,-967.88"/>
<polygon fill="#666666" stroke="#666666" points="38.88,-952.62 38.88,-952.62 116.62,-952.62 116.62,-952.62 38.88,-952.62"/>
<polygon fill="none" stroke="#666666" points="38.88,-935.38 38.88,-985.12 116.62,-985.12 116.62,-935.38 38.88,-935.38"/>
</a>
</g>
</g>
<!-- Node8&#45;&gt;Node14 -->
<g id="edge16_Node000014_Node000008" class="edge">
<title>Node8&#45;&gt;Node14</title>
<g id="a_edge16_Node000014_Node000008"><a xlink:title=" ">
<path fill="none" stroke="#63b8ff" d="M221.12,-1082.92C206.2,-1077.72 169.33,-1063.63 144,-1043.25 127.32,-1029.83 112.04,-1011.55 100.38,-995.65"/>
<polygon fill="none" stroke="#63b8ff" points="100.37,-995.64 93.64,-993.06 93.43,-985.85 100.16,-988.43 100.37,-995.64"/>
</a>
</g>
<text xml:space="preserve" text-anchor="start" x="147" y="-1030.75" font-family="Helvetica,sans-Serif" font-size="10.00" fill="grey">+elements</text>
</g>
<!-- Node9&#45;&gt;Node4 -->
<g id="edge8_Node000004_Node000009" class="edge">
<title>Node9&#45;&gt;Node4</title>
<g id="a_edge8_Node000004_Node000009"><a xlink:title=" ">
<path fill="none" stroke="orange" d="M462.9,-811.96C441.83,-804.48 418.63,-794.09 400,-780.25 377.39,-763.46 378.49,-752.37 360.75,-730.5 355.98,-724.62 350.91,-718.45 345.9,-712.4"/>
<polygon fill="orange" stroke="orange" points="461.66,-815.24 472.25,-815.13 463.9,-808.61 461.66,-815.24"/>
</a>
</g>
<text xml:space="preserve" text-anchor="start" x="403" y="-766.75" font-family="Helvetica,sans-Serif" font-size="10.00" fill="grey">&lt; std::type_index,</text>
<text xml:space="preserve" text-anchor="start" x="403" y="-751.5" font-family="Helvetica,sans-Serif" font-size="10.00" fill="grey">   std::unique_ptr&lt; rtp</text>
<text xml:space="preserve" text-anchor="start" x="403" y="-736.25" font-family="Helvetica,sans-Serif" font-size="10.00" fill="grey">  ::ecs::ISparseArray &gt; &gt;</text>
</g>
<!-- Node16 -->
<g id="Node000016" class="node">
<title>Node16</title>
<g id="a_Node000016"><a xlink:title=" ">
<polygon fill="white" stroke="none" points="597.38,-701.25 488.12,-701.25 488.12,-640.25 597.38,-640.25 597.38,-701.25"/>
<text xml:space="preserve" text-anchor="start" x="492.12" y="-687.75" font-family="Helvetica,sans-Serif" font-size="10.00">std::unordered_map</text>
<text xml:space="preserve" text-anchor="start" x="492.12" y="-676.5" font-family="Helvetica,sans-Serif" font-size="10.00">&lt; std::string, sf::Font &gt;</text>
<text xml:space="preserve" text-anchor="start" x="505" y="-661.25" font-family="Helvetica,sans-Serif" font-size="10.00">+</text>
<text xml:space="preserve" text-anchor="start" x="527.88" y="-661.25" font-family="Helvetica,sans-Serif" font-size="10.00">elements</text>
<text xml:space="preserve" text-anchor="start" x="541.25" y="-646" font-family="Helvetica,sans-Serif" font-size="10.00"> </text>
<polygon fill="#666666" stroke="#666666" points="488.12,-672.75 488.12,-672.75 597.38,-672.75 597.38,-672.75 488.12,-672.75"/>
<polygon fill="#666666" stroke="#666666" points="488.12,-657.5 488.12,-657.5 525.88,-657.5 525.88,-657.5 488.12,-657.5"/>
<polygon fill="#666666" stroke="#666666" points="525.88,-657.5 525.88,-657.5 597.38,-657.5 597.38,-657.5 525.88,-657.5"/>
<polygon fill="none" stroke="#666666" points="488.12,-640.25 488.12,-701.25 597.38,-701.25 597.38,-640.25 488.12,-640.25"/>
</a>
</g>
</g>
<!-- Node9&#45;&gt;Node16 -->
<g id="edge21_Node000016_Node000009" class="edge">
<title>Node9&#45;&gt;Node16</title>
<g id="a_edge21_Node000016_Node000009"><a xlink:title=" ">
<path fill="none" stroke="orange" d="M518.34,-787.27C518.04,-769.7 518.71,-748.96 522,-730.5 523.74,-720.7 526.91,-710.36 530.26,-701.13"/>
<polygon fill="orange" stroke="orange" points="514.83,-787.17 518.62,-797.07 521.83,-786.97 514.83,-787.17"/>
</a>
</g>
<text xml:space="preserve" text-anchor="start" x="525" y="-759.12" font-family="Helvetica,sans-Serif" font-size="10.00" fill="grey">&lt; std::string, sf::</text>
<text xml:space="preserve" text-anchor="start" x="525" y="-743.88" font-family="Helvetica,sans-Serif" font-size="10.00" fill="grey">  Font &gt;</text>
</g>
<!-- Node19 -->
<g id="Node000019" class="node">
<title>Node19</title>
<g id="a_Node000019"><a xlink:title=" ">
<polygon fill="white" stroke="none" points="737.75,-701.25 615.75,-701.25 615.75,-640.25 737.75,-640.25 737.75,-701.25"/>
<text xml:space="preserve" text-anchor="start" x="619.75" y="-687.75" font-family="Helvetica,sans-Serif" font-size="10.00">std::unordered_map</text>
<text xml:space="preserve" text-anchor="start" x="619.75" y="-676.5" font-family="Helvetica,sans-Serif" font-size="10.00">&lt; std::string, sf::Texture &gt;</text>
<text xml:space="preserve" text-anchor="start" x="635.81" y="-661.25" font-family="Helvetica,sans-Serif" font-size="10.00">+</text>
<text xml:space="preserve" text-anchor="start" x="661.88" y="-661.25" font-family="Helvetica,sans-Serif" font-size="10.00">elements</text>
<text xml:space="preserve" text-anchor="start" x="675.25" y="-646" font-family="Helvetica,sans-Serif" font-size="10.00"> </text>
<polygon fill="#666666" stroke="#666666" points="615.75,-672.75 615.75,-672.75 737.75,-672.75 737.75,-672.75 615.75,-672.75"/>
<polygon fill="#666666" stroke="#666666" points="615.75,-657.5 615.75,-657.5 659.88,-657.5 659.88,-657.5 615.75,-657.5"/>
<polygon fill="#666666" stroke="#666666" points="659.88,-657.5 659.88,-657.5 737.75,-657.5 737.75,-657.5 659.88,-657.5"/>
<polygon fill="none" stroke="#666666" points="615.75,-640.25 615.75,-701.25 737.75,-701.25 737.75,-640.25 615.75,-640.25"/>
</a>
</g>
</g>
<!-- Node9&#45;&gt;Node19 -->
<g id="edge24_Node000019_Node000009" class="edge">
<title>Node9&#45;&gt;Node19</title>
<g id="a_edge24_Node000019_Node000009"><a xlink:title=" ">
<path fill="none" stroke="orange" d="M577.46,-799.98C585.93,-794.23 594.05,-787.64 600.75,-780.25 617.14,-762.16 610.53,-750.86 624,-730.5 630.73,-720.32 639.16,-710.12 647.29,-701.14"/>
<polygon fill="orange" stroke="orange" points="575.66,-796.98 569.09,-805.29 579.41,-802.89 575.66,-796.98"/>
</a>
</g>
<text xml:space="preserve" text-anchor="start" x="627" y="-759.12" font-family="Helvetica,sans-Serif" font-size="10.00" fill="grey">&lt; std::string, sf::</text>
<text xml:space="preserve" text-anchor="start" x="627" y="-743.88" font-family="Helvetica,sans-Serif" font-size="10.00" fill="grey">  Texture &gt;</text>
</g>
<!-- Node10 -->
<g id="Node000010" class="node">
<title>Node10</title>
<g id="a_Node000010"><a xlink:title=" ">
<polygon fill="white" stroke="none" points="601.12,-985.12 586.38,-985.12 586.38,-935.38 601.12,-935.38 601.12,-985.12"/>
<text xml:space="preserve" text-anchor="start" x="590.38" y="-971.62" font-family="Helvetica,sans-Serif" font-size="10.00">K</text>
<text xml:space="preserve" text-anchor="start" x="592.25" y="-956.38" font-family="Helvetica,sans-Serif" font-size="10.00"> </text>
<text xml:space="preserve" text-anchor="start" x="592.25" y="-941.12" font-family="Helvetica,sans-Serif" font-size="10.00"> </text>
<polygon fill="#666666" stroke="#666666" points="586.38,-967.88 586.38,-967.88 601.12,-967.88 601.12,-967.88 586.38,-967.88"/>
<polygon fill="#666666" stroke="#666666" points="586.38,-952.62 586.38,-952.62 601.12,-952.62 601.12,-952.62 586.38,-952.62"/>
<polygon fill="none" stroke="#666666" points="586.38,-935.38 586.38,-985.12 601.12,-985.12 601.12,-935.38 586.38,-935.38"/>
</a>
</g>
</g>
<!-- Node10&#45;&gt;Node9 -->
<g id="edge9_Node000009_Node000010" class="edge">
<title>Node10&#45;&gt;Node9</title>
<g id="a_edge9_Node000009_Node000010"><a xlink:title=" ">
<path fill="none" stroke="#63b8ff" d="M586.53,-941.66C582.72,-932.77 577.79,-921.91 572.75,-912.5 565.12,-898.24 555.96,-883.13 547.47,-869.78"/>
<polygon fill="none" stroke="#63b8ff" points="547.53,-869.88 540.92,-867 541.03,-859.79 547.65,-862.67 547.53,-869.88"/>
</a>
</g>
<text xml:space="preserve" text-anchor="start" x="565.24" y="-882" font-family="Helvetica,sans-Serif" font-size="10.00" fill="grey">+keys</text>
</g>
<!-- Node11 -->
<g id="Node000011" class="node">
<title>Node11</title>
<g id="a_Node000011"><a xlink:title=" ">
<polygon fill="white" stroke="none" points="249,-780.25 122.5,-780.25 122.5,-730.5 249,-730.5 249,-780.25"/>
<text xml:space="preserve" text-anchor="start" x="126.5" y="-766.75" font-family="Helvetica,sans-Serif" font-size="10.00">std::vector&lt; std::uint32_t &gt;</text>
<text xml:space="preserve" text-anchor="start" x="143.69" y="-751.5" font-family="Helvetica,sans-Serif" font-size="10.00">+</text>
<text xml:space="preserve" text-anchor="start" x="170.88" y="-751.5" font-family="Helvetica,sans-Serif" font-size="10.00">elements</text>
<text xml:space="preserve" text-anchor="start" x="184.25" y="-736.25" font-family="Helvetica,sans-Serif" font-size="10.00"> </text>
<polygon fill="#666666" stroke="#666666" points="122.5,-763 122.5,-763 249,-763 249,-763 122.5,-763"/>
<polygon fill="#666666" stroke="#666666" points="122.5,-747.75 122.5,-747.75 168.88,-747.75 168.88,-747.75 122.5,-747.75"/>
<polygon fill="#666666" stroke="#666666" points="168.88,-747.75 168.88,-747.75 249,-747.75 249,-747.75 168.88,-747.75"/>
<polygon fill="none" stroke="#666666" points="122.5,-730.5 122.5,-780.25 249,-780.25 249,-730.5 122.5,-730.5"/>
</a>
</g>
</g>
<!-- Node11&#45;&gt;Node3 -->
<g id="edge11_Node000003_Node000011" class="edge">
<title>Node11&#45;&gt;Node3</title>
<g id="a_edge11_Node000003_Node000011"><a xlink:title=" ">
<path fill="none" stroke="#63b8ff" d="M178.73,-730.92C172.15,-703.95 166.05,-659.48 186.25,-629 219.5,-578.84 268.63,-618.73 310.75,-575.75 310.85,-575.65 310.94,-575.55 311.04,-575.45"/>
<polygon fill="none" stroke="#63b8ff" points="311.11,-575.37 312.09,-568.23 319.06,-566.38 318.08,-573.53 311.11,-575.37"/>
</a>
</g>
<text xml:space="preserve" text-anchor="start" x="189.25" y="-666.88" font-family="Helvetica,sans-Serif" font-size="10.00" fill="grey">&#45;_generations</text>
</g>
<!-- Node12&#45;&gt;Node11 -->
<g id="edge12_Node000011_Node000012" class="edge">
<title>Node12&#45;&gt;Node11</title>
<g id="a_edge12_Node000011_Node000012"><a xlink:title=" ">
<path fill="none" stroke="orange" d="M182.44,-924.2C183.25,-883.01 184.58,-815.79 185.28,-780.21"/>
<polygon fill="orange" stroke="orange" points="178.94,-924 182.25,-934.07 185.94,-924.14 178.94,-924"/>
</a>
</g>
<text xml:space="preserve" text-anchor="start" x="186.32" y="-882" font-family="Helvetica,sans-Serif" font-size="10.00" fill="grey">&lt; std::uint32_t &gt;</text>
</g>
<!-- Node13 -->
<g id="Node000013" class="node">
<title>Node13</title>
<g id="a_Node000013"><a xlink:title=" ">
<polygon fill="white" stroke="none" points="117.5,-780.25 0,-780.25 0,-730.5 117.5,-730.5 117.5,-780.25"/>
<text xml:space="preserve" text-anchor="start" x="4" y="-766.75" font-family="Helvetica,sans-Serif" font-size="10.00">std::deque&lt; std::size_t &gt;</text>
<text xml:space="preserve" text-anchor="start" x="18.94" y="-751.5" font-family="Helvetica,sans-Serif" font-size="10.00">+</text>
<text xml:space="preserve" text-anchor="start" x="43.88" y="-751.5" font-family="Helvetica,sans-Serif" font-size="10.00">elements</text>
<text xml:space="preserve" text-anchor="start" x="57.25" y="-736.25" font-family="Helvetica,sans-Serif" font-size="10.00"> </text>
<polygon fill="#666666" stroke="#666666" points="0,-763 0,-763 117.5,-763 117.5,-763 0,-763"/>
<polygon fill="#666666" stroke="#666666" points="0,-747.75 0,-747.75 41.88,-747.75 41.88,-747.75 0,-747.75"/>
<polygon fill="#666666" stroke="#666666" points="41.88,-747.75 41.88,-747.75 117.5,-747.75 117.5,-747.75 41.88,-747.75"/>
<polygon fill="none" stroke="#666666" points="0,-730.5 0,-780.25 117.5,-780.25 117.5,-730.5 0,-730.5"/>
</a>
</g>
</g>
<!-- Node13&#45;&gt;Node3 -->
<g id="edge14_Node000003_Node000013" class="edge">
<title>Node13&#45;&gt;Node3</title>
<g id="a_edge14_Node000003_Node000013"><a xlink:title=" ">
<path fill="none" stroke="#63b8ff" d="M61.79,-730.88C66.58,-703.04 78.42,-656.91 106.5,-629 138.22,-597.47 157.53,-605.25 200.75,-593.75 245.07,-581.96 268.45,-603.09 309.48,-575.34"/>
<polygon fill="none" stroke="#63b8ff" points="309.38,-575.42 311.79,-568.62 318.99,-568.23 316.58,-575.02 309.38,-575.42"/>
</a>
</g>
<text xml:space="preserve" text-anchor="start" x="109.5" y="-666.88" font-family="Helvetica,sans-Serif" font-size="10.00" fill="grey">&#45;_freeIndices</text>
</g>
<!-- Node14&#45;&gt;Node13 -->
<g id="edge15_Node000013_Node000014" class="edge">
<title>Node14&#45;&gt;Node13</title>
<g id="a_edge15_Node000013_Node000014"><a xlink:title=" ">
<path fill="none" stroke="orange" d="M74.47,-924.2C70.61,-883.01 64.31,-815.79 60.98,-780.21"/>
<polygon fill="orange" stroke="orange" points="70.97,-924.44 75.39,-934.07 77.94,-923.79 70.97,-924.44"/>
</a>
</g>
<text xml:space="preserve" text-anchor="start" x="74.45" y="-882" font-family="Helvetica,sans-Serif" font-size="10.00" fill="grey">&lt; std::size_t &gt;</text>
</g>
<!-- Node15 -->
<g id="Node000015" class="node">
<title>Node15</title>
<g id="a_Node000015"><a xlink:title=" ">
<polygon fill="white" stroke="none" points="470.25,-695.62 381.25,-695.62 381.25,-645.88 470.25,-645.88 470.25,-695.62"/>
<text xml:space="preserve" text-anchor="start" x="385.25" y="-682.12" font-family="Helvetica,sans-Serif" font-size="10.00">std::shared_mutex</text>
<text xml:space="preserve" text-anchor="start" x="424.25" y="-666.88" font-family="Helvetica,sans-Serif" font-size="10.00"> </text>
<text xml:space="preserve" text-anchor="start" x="424.25" y="-651.62" font-family="Helvetica,sans-Serif" font-size="10.00"> </text>
<polygon fill="#666666" stroke="#666666" points="381.25,-678.38 381.25,-678.38 470.25,-678.38 470.25,-678.38 381.25,-678.38"/>
<polygon fill="#666666" stroke="#666666" points="381.25,-663.12 381.25,-663.12 470.25,-663.12 470.25,-663.12 381.25,-663.12"/>
<polygon fill="none" stroke="#666666" points="381.25,-645.88 381.25,-695.62 470.25,-695.62 470.25,-645.88 381.25,-645.88"/>
</a>
</g>
</g>
<!-- Node15&#45;&gt;Node3 -->
<g id="edge17_Node000003_Node000015" class="edge">
<title>Node15&#45;&gt;Node3</title>
<g id="a_edge17_Node000003_Node000015"><a xlink:title=" ">
<path fill="none" stroke="#63b8ff" d="M420.67,-646.02C417.51,-631.27 413.14,-610.85 408.31,-588.31"/>
<polygon fill="none" stroke="#63b8ff" points="408.29,-588.2 403.12,-583.17 405.77,-576.47 410.94,-581.5 408.29,-588.2"/>
</a>
</g>
<text xml:space="preserve" text-anchor="start" x="415.94" y="-598.5" font-family="Helvetica,sans-Serif" font-size="10.00" fill="grey">&#45;_mutex</text>
</g>
<!-- Node16&#45;&gt;Node1 -->
<g id="edge18_Node000001_Node000016" class="edge">
<title>Node16&#45;&gt;Node1</title>
<g id="a_edge18_Node000001_Node000016"><a xlink:title=" ">
<path fill="none" stroke="#63b8ff" d="M538.72,-640.33C528.31,-564.35 500.08,-358.31 481.94,-225.91"/>
<polygon fill="none" stroke="#63b8ff" points="481.97,-226.11 477.19,-220.71 480.34,-214.22 485.12,-219.63 481.97,-226.11"/>
</a>
</g>
<text xml:space="preserve" text-anchor="start" x="532.24" y="-417.38" font-family="Helvetica,sans-Serif" font-size="10.00" fill="grey">&#45;_fonts</text>
</g>
<!-- Node17 -->
<g id="Node000017" class="node">
<title>Node17</title>
<g id="a_Node000017"><a xlink:title=" ">
<polygon fill="white" stroke="none" points="778.5,-853.62 727,-853.62 727,-803.88 778.5,-803.88 778.5,-853.62"/>
<text xml:space="preserve" text-anchor="start" x="731" y="-840.12" font-family="Helvetica,sans-Serif" font-size="10.00">std::string</text>
<text xml:space="preserve" text-anchor="start" x="751.25" y="-824.88" font-family="Helvetica,sans-Serif" font-size="10.00"> </text>
<text xml:space="preserve" text-anchor="start" x="751.25" y="-809.62" font-family="Helvetica,sans-Serif" font-size="10.00"> </text>
<polygon fill="#666666" stroke="#666666" points="727,-836.38 727,-836.38 778.5,-836.38 778.5,-836.38 727,-836.38"/>
<polygon fill="#666666" stroke="#666666" points="727,-821.12 727,-821.12 778.5,-821.12 778.5,-821.12 727,-821.12"/>
<polygon fill="none" stroke="#666666" points="727,-803.88 727,-853.62 778.5,-853.62 778.5,-803.88 727,-803.88"/>
</a>
</g>
</g>
<!-- Node17&#45;&gt;Node16 -->
<g id="edge19_Node000016_Node000017" class="edge">
<title>Node17&#45;&gt;Node16</title>
<g id="a_edge19_Node000016_Node000017"><a xlink:title=" ">
<path fill="none" stroke="#63b8ff" d="M735.95,-804.18C731.03,-796.73 725.87,-788.32 721.75,-780.25 711,-759.16 720.92,-745.67 702.75,-730.5 669.43,-702.68 647.12,-728.45 606.75,-712.5 602.89,-710.98 599.01,-709.21 595.18,-707.28"/>
<polygon fill="none" stroke="#63b8ff" points="595.19,-707.29 588.01,-707.93 584.66,-701.54 591.84,-700.91 595.19,-707.29"/>
</a>
</g>
<text xml:space="preserve" text-anchor="start" x="724.75" y="-751.5" font-family="Helvetica,sans-Serif" font-size="10.00" fill="grey">+keys</text>
</g>
<!-- Node17&#45;&gt;Node19 -->
<g id="edge23_Node000019_Node000017" class="edge">
<title>Node17&#45;&gt;Node19</title>
<g id="a_edge23_Node000019_Node000017"><a xlink:title=" ">
<path fill="none" stroke="#63b8ff" d="M760.73,-803.96C766.18,-783.37 770.5,-753.37 758.75,-730.5 754.77,-722.76 749.25,-715.8 742.92,-709.63"/>
<polygon fill="none" stroke="#63b8ff" points="742.9,-709.61 735.75,-708.68 733.86,-701.72 741.01,-702.65 742.9,-709.61"/>
</a>
</g>
<text xml:space="preserve" text-anchor="start" x="769.22" y="-751.5" font-family="Helvetica,sans-Serif" font-size="10.00" fill="grey">+keys</text>
</g>
<!-- Node18 -->
<g id="Node000018" class="node">
<title>Node18</title>
<g id="a_Node000018"><a xlink:title=" ">
<polygon fill="white" stroke="none" points="795.75,-990.75 709.75,-990.75 709.75,-929.75 795.75,-929.75 795.75,-990.75"/>
<text xml:space="preserve" text-anchor="start" x="713.75" y="-977.25" font-family="Helvetica,sans-Serif" font-size="10.00">std::basic_string&lt;</text>
<text xml:space="preserve" text-anchor="start" x="736.25" y="-966" font-family="Helvetica,sans-Serif" font-size="10.00"> Char &gt;</text>
<text xml:space="preserve" text-anchor="start" x="751.25" y="-950.75" font-family="Helvetica,sans-Serif" font-size="10.00"> </text>
<text xml:space="preserve" text-anchor="start" x="751.25" y="-935.5" font-family="Helvetica,sans-Serif" font-size="10.00"> </text>
<polygon fill="#666666" stroke="#666666" points="709.75,-962.25 709.75,-962.25 795.75,-962.25 795.75,-962.25 709.75,-962.25"/>
<polygon fill="#666666" stroke="#666666" points="709.75,-947 709.75,-947 795.75,-947 795.75,-947 709.75,-947"/>
<polygon fill="none" stroke="#666666" points="709.75,-929.75 709.75,-990.75 795.75,-990.75 795.75,-929.75 709.75,-929.75"/>
</a>
</g>
</g>
<!-- Node18&#45;&gt;Node17 -->
<g id="edge20_Node000017_Node000018" class="edge">
<title>Node18&#45;&gt;Node17</title>
<g id="a_edge20_Node000017_Node000018"><a xlink:title=" ">
<path fill="none" stroke="#63b8ff" d="M752.75,-918.46C752.75,-897.04 752.75,-871.55 752.75,-853.4"/>
<polygon fill="none" stroke="#63b8ff" points="749.25,-918.35 752.75,-928.35 756.25,-918.35 749.25,-918.35"/>
</a>
</g>
</g>
<!-- Node19&#45;&gt;Node1 -->
<g id="edge22_Node000001_Node000019" class="edge">
<title>Node19&#45;&gt;Node1</title>
<g id="a_edge22_Node000001_Node000019"><a xlink:title=" ">
<path fill="none" stroke="#63b8ff" d="M672.13,-640.36C660.74,-572.35 627.9,-399.79 568.75,-266.75 558.41,-243.48 544.9,-219.75 531.09,-197.95"/>
<polygon fill="none" stroke="#63b8ff" points="531.07,-197.92 524.45,-195.05 524.56,-187.84 531.18,-190.71 531.07,-197.92"/>
</a>
</g>
<text xml:space="preserve" text-anchor="start" x="662.49" y="-417.38" font-family="Helvetica,sans-Serif" font-size="10.00" fill="grey">&#45;_textures</text>
</g>
</g>
</svg>
