<?xml version="1.0" encoding="UTF-8" standalone="no"?>
<!DOCTYPE svg PUBLIC "-//W3C//DTD SVG 1.1//EN"
 "http://www.w3.org/Graphics/SVG/1.1/DTD/svg11.dtd">
<!-- Generated by graphviz version 14.0.5 (20251129.0259)
 -->
<!-- Title: rtp::ecs::Registry Pages: 1 -->
<!--zoomable 852 -->

<svg id="main" version="1.1" xmlns="http://www.w3.org/2000/svg" xmlns:xlink="http://www.w3.org/1999/xlink" xml:space="preserve" onload="init(evt)">

<style type="text/css"><![CDATA[
.node, .edge {opacity: 0.7;}
.node.selected, .edge.selected {opacity: 1;}
.edge:hover path { stroke: red; }
.edge:hover polygon { stroke: red; fill: red; }
]]></style>

<defs>
  <circle id="rim" cx="0" cy="0" r="7"/>
  <circle id="rim2" cx="0" cy="0" r="3.5"/>
  <g id="zoomPlus">
    <use xlink:href="#rim" fill="#404040"><set attributeName="fill" to="#808080" begin="zoomplus.mouseover" end="zoomplus.mouseout"/></use>
    <path d="M-4,0h8M0,-4v8" fill="none" stroke="white" stroke-width="1.5" pointer-events="none"/>
  </g>
  <g id="zoomMin">
    <use xlink:href="#rim" fill="#404040"><set attributeName="fill" to="#808080" begin="zoomminus.mouseover" end="zoomminus.mouseout"/></use>
    <path d="M-4,0h8" fill="none" stroke="white" stroke-width="1.5" pointer-events="none"/>
  </g>
  <g id="arrowUp" transform="translate(30 24)">
    <use xlink:href="#rim"/>
    <path pointer-events="none" fill="none" stroke="white" stroke-width="1.5" d="M0,-3.0v7 M-2.5,-0.5L0,-3.0L2.5,-0.5"/>
  </g>
  <g id="arrowRight" transform="rotate(90) translate(36 -43)">
    <use xlink:href="#rim"/>
    <path pointer-events="none" fill="none" stroke="white" stroke-width="1.5" d="M0,-3.0v7 M-2.5,-0.5L0,-3.0L2.5,-0.5"/>
  </g>
  <g id="arrowDown" transform="rotate(180) translate(-30 -48)">
    <use xlink:href="#rim"/>
    <path pointer-events="none" fill="none" stroke="white" stroke-width="1.5" d="M0,-3.0v7 M-2.5,-0.5L0,-3.0L2.5,-0.5"/>
  </g>
  <g id="arrowLeft" transform="rotate(270) translate(-36 17)">
    <use xlink:href="#rim"/>
    <path pointer-events="none" fill="none" stroke="white" stroke-width="1.5" d="M0,-3.0v7 M-2.5,-0.5L0,-3.0L2.5,-0.5"/>
  </g>
  <g id="resetDef">
    <use xlink:href="#rim2" fill="#404040"><set attributeName="fill" to="#808080" begin="reset.mouseover" end="reset.mouseout"/></use>
  </g>
</defs>
<script type="application/ecmascript">
var viewWidth = 635;
var viewHeight = 852;
var sectionId = 'dynsection-0';
</script>
<script type="application/ecmascript" xlink:href="svg.min.js"/>
<svg id="graph" class="graph">
<g id="viewport">
<title>rtp::ecs::Registry</title>
<!-- Node1 -->
<g id="Node000001" class="node">
<title>Node1</title>
<g id="a_Node000001"><a xlink:title=" ">
<polygon fill="#999999" stroke="none" points="459.38,-309 352.88,-309 352.88,0 459.38,0 459.38,-309"/>
<text xml:space="preserve" text-anchor="start" x="368.25" y="-295.5" font-family="Helvetica,sans-Serif" font-size="10.00">rtp::ecs::Registry</text>
<text xml:space="preserve" text-anchor="start" x="404.62" y="-280.25" font-family="Helvetica,sans-Serif" font-size="10.00"> </text>
<text xml:space="preserve" text-anchor="start" x="356.88" y="-265" font-family="Helvetica,sans-Serif" font-size="10.00">+</text>
<text xml:space="preserve" text-anchor="start" x="366.88" y="-265" font-family="Helvetica,sans-Serif" font-size="10.00">~Registry()</text>
<text xml:space="preserve" text-anchor="start" x="356.88" y="-249.75" font-family="Helvetica,sans-Serif" font-size="10.00">+</text>
<text xml:space="preserve" text-anchor="start" x="366.88" y="-249.75" font-family="Helvetica,sans-Serif" font-size="10.00">spawn()</text>
<text xml:space="preserve" text-anchor="start" x="356.88" y="-234.5" font-family="Helvetica,sans-Serif" font-size="10.00">+</text>
<text xml:space="preserve" text-anchor="start" x="366.88" y="-234.5" font-family="Helvetica,sans-Serif" font-size="10.00">kill()</text>
<text xml:space="preserve" text-anchor="start" x="356.88" y="-219.25" font-family="Helvetica,sans-Serif" font-size="10.00">+</text>
<text xml:space="preserve" text-anchor="start" x="366.88" y="-219.25" font-family="Helvetica,sans-Serif" font-size="10.00">subscribe()</text>
<text xml:space="preserve" text-anchor="start" x="356.88" y="-204" font-family="Helvetica,sans-Serif" font-size="10.00">+</text>
<text xml:space="preserve" text-anchor="start" x="366.88" y="-204" font-family="Helvetica,sans-Serif" font-size="10.00">isAlive()</text>
<text xml:space="preserve" text-anchor="start" x="356.88" y="-188.75" font-family="Helvetica,sans-Serif" font-size="10.00">+</text>
<text xml:space="preserve" text-anchor="start" x="366.88" y="-188.75" font-family="Helvetica,sans-Serif" font-size="10.00">add()</text>
<text xml:space="preserve" text-anchor="start" x="356.88" y="-173.5" font-family="Helvetica,sans-Serif" font-size="10.00">+</text>
<text xml:space="preserve" text-anchor="start" x="366.88" y="-173.5" font-family="Helvetica,sans-Serif" font-size="10.00">get()</text>
<text xml:space="preserve" text-anchor="start" x="356.88" y="-158.25" font-family="Helvetica,sans-Serif" font-size="10.00">+</text>
<text xml:space="preserve" text-anchor="start" x="366.88" y="-158.25" font-family="Helvetica,sans-Serif" font-size="10.00">has()</text>
<text xml:space="preserve" text-anchor="start" x="356.88" y="-143" font-family="Helvetica,sans-Serif" font-size="10.00">+</text>
<text xml:space="preserve" text-anchor="start" x="366.88" y="-143" font-family="Helvetica,sans-Serif" font-size="10.00">remove()</text>
<text xml:space="preserve" text-anchor="start" x="356.88" y="-127.75" font-family="Helvetica,sans-Serif" font-size="10.00">+</text>
<text xml:space="preserve" text-anchor="start" x="366.88" y="-127.75" font-family="Helvetica,sans-Serif" font-size="10.00">clear()</text>
<text xml:space="preserve" text-anchor="start" x="356.88" y="-112.5" font-family="Helvetica,sans-Serif" font-size="10.00">+</text>
<text xml:space="preserve" text-anchor="start" x="366.88" y="-112.5" font-family="Helvetica,sans-Serif" font-size="10.00">purge()</text>
<text xml:space="preserve" text-anchor="start" x="356.88" y="-97.25" font-family="Helvetica,sans-Serif" font-size="10.00">+</text>
<text xml:space="preserve" text-anchor="start" x="366.88" y="-97.25" font-family="Helvetica,sans-Serif" font-size="10.00">view()</text>
<text xml:space="preserve" text-anchor="start" x="356.88" y="-82" font-family="Helvetica,sans-Serif" font-size="10.00">+</text>
<text xml:space="preserve" text-anchor="start" x="366.88" y="-82" font-family="Helvetica,sans-Serif" font-size="10.00">zipView()</text>
<text xml:space="preserve" text-anchor="start" x="356.88" y="-66.75" font-family="Helvetica,sans-Serif" font-size="10.00">+</text>
<text xml:space="preserve" text-anchor="start" x="366.88" y="-66.75" font-family="Helvetica,sans-Serif" font-size="10.00">entityCount()</text>
<text xml:space="preserve" text-anchor="start" x="356.88" y="-51.5" font-family="Helvetica,sans-Serif" font-size="10.00">+</text>
<text xml:space="preserve" text-anchor="start" x="366.88" y="-51.5" font-family="Helvetica,sans-Serif" font-size="10.00">componentCount()</text>
<text xml:space="preserve" text-anchor="start" x="358.38" y="-36.25" font-family="Helvetica,sans-Serif" font-size="10.00">&#45;</text>
<text xml:space="preserve" text-anchor="start" x="366.88" y="-36.25" font-family="Helvetica,sans-Serif" font-size="10.00">getArray()</text>
<text xml:space="preserve" text-anchor="start" x="358.38" y="-21" font-family="Helvetica,sans-Serif" font-size="10.00">&#45;</text>
<text xml:space="preserve" text-anchor="start" x="366.88" y="-21" font-family="Helvetica,sans-Serif" font-size="10.00">getSmallestArray()</text>
<text xml:space="preserve" text-anchor="start" x="358.38" y="-5.75" font-family="Helvetica,sans-Serif" font-size="10.00">&#45;</text>
<text xml:space="preserve" text-anchor="start" x="366.88" y="-5.75" font-family="Helvetica,sans-Serif" font-size="10.00">hasAllComponents()</text>
<polygon fill="#666666" stroke="#666666" points="352.88,-291.75 352.88,-291.75 459.38,-291.75 459.38,-291.75 352.88,-291.75"/>
<polygon fill="#666666" stroke="#666666" points="352.88,-276.5 352.88,-276.5 459.38,-276.5 459.38,-276.5 352.88,-276.5"/>
<polygon fill="none" stroke="#666666" points="352.88,0 352.88,-309 459.38,-309 459.38,0 352.88,0"/>
</a>
</g>
</g>
<!-- Node2 -->
<g id="Node000002" class="node">
<title>Node2</title>
<g id="a_Node000002"><a xlink:title=" ">
<polygon fill="white" stroke="none" points="286.75,-445.75 183.5,-445.75 183.5,-362.25 286.75,-362.25 286.75,-445.75"/>
<text xml:space="preserve" text-anchor="start" x="187.5" y="-432.25" font-family="Helvetica,sans-Serif" font-size="10.00">std::unordered_map</text>
<text xml:space="preserve" text-anchor="start" x="187.5" y="-421" font-family="Helvetica,sans-Serif" font-size="10.00">&lt; std::type_index, std</text>
<text xml:space="preserve" text-anchor="start" x="187.5" y="-409.75" font-family="Helvetica,sans-Serif" font-size="10.00">::unique_ptr&lt; rtp::ecs</text>
<text xml:space="preserve" text-anchor="start" x="194.62" y="-398.5" font-family="Helvetica,sans-Serif" font-size="10.00">::ISparseArray &gt; &gt;</text>
<text xml:space="preserve" text-anchor="start" x="203.56" y="-383.25" font-family="Helvetica,sans-Serif" font-size="10.00">+</text>
<text xml:space="preserve" text-anchor="start" x="229.62" y="-383.25" font-family="Helvetica,sans-Serif" font-size="10.00">keys</text>
<text xml:space="preserve" text-anchor="start" x="233.62" y="-368" font-family="Helvetica,sans-Serif" font-size="10.00"> </text>
<polygon fill="#666666" stroke="#666666" points="183.5,-394.75 183.5,-394.75 286.75,-394.75 286.75,-394.75 183.5,-394.75"/>
<polygon fill="#666666" stroke="#666666" points="183.5,-379.5 183.5,-379.5 227.62,-379.5 227.62,-379.5 183.5,-379.5"/>
<polygon fill="#666666" stroke="#666666" points="227.62,-379.5 227.62,-379.5 286.75,-379.5 286.75,-379.5 227.62,-379.5"/>
<polygon fill="none" stroke="#666666" points="183.5,-362.25 183.5,-445.75 286.75,-445.75 286.75,-362.25 183.5,-362.25"/>
</a>
</g>
</g>
<!-- Node2&#45;&gt;Node1 -->
<g id="edge1_Node000001_Node000002" class="edge">
<title>Node2&#45;&gt;Node1</title>
<g id="a_edge1_Node000001_Node000002"><a xlink:title=" ">
<path fill="none" stroke="#63b8ff" d="M263.17,-362.41C285.53,-330.05 317.64,-283.57 345.77,-242.86"/>
<polygon fill="none" stroke="#63b8ff" points="345.68,-242.99 345.8,-235.78 352.5,-233.11 352.38,-240.32 345.68,-242.99"/>
</a>
</g>
<text xml:space="preserve" text-anchor="start" x="288.65" y="-331.75" font-family="Helvetica,sans-Serif" font-size="10.00" fill="grey">&#45;_arrays</text>
</g>
<!-- Node3 -->
<g id="Node000003" class="node">
<title>Node3</title>
<g id="a_Node000003"><a xlink:title=" ">
<polygon fill="white" stroke="none" points="286,-592.5 184.25,-592.5 184.25,-531.5 286,-531.5 286,-592.5"/>
<text xml:space="preserve" text-anchor="start" x="188.25" y="-579" font-family="Helvetica,sans-Serif" font-size="10.00">std::unique_ptr&lt; rtp</text>
<text xml:space="preserve" text-anchor="start" x="188.25" y="-567.75" font-family="Helvetica,sans-Serif" font-size="10.00">::ecs::ISparseArray &gt;</text>
<text xml:space="preserve" text-anchor="start" x="233.62" y="-552.5" font-family="Helvetica,sans-Serif" font-size="10.00"> </text>
<text xml:space="preserve" text-anchor="start" x="196.62" y="-537.25" font-family="Helvetica,sans-Serif" font-size="10.00">+</text>
<text xml:space="preserve" text-anchor="start" x="215" y="-537.25" font-family="Helvetica,sans-Serif" font-size="10.00">operator&#45;&gt;()</text>
<polygon fill="#666666" stroke="#666666" points="184.25,-564 184.25,-564 286,-564 286,-564 184.25,-564"/>
<polygon fill="#666666" stroke="#666666" points="184.25,-548.75 184.25,-548.75 286,-548.75 286,-548.75 184.25,-548.75"/>
<polygon fill="none" stroke="#666666" points="184.25,-531.5 184.25,-592.5 286,-592.5 286,-531.5 184.25,-531.5"/>
</a>
</g>
</g>
<!-- Node3&#45;&gt;Node2 -->
<g id="edge2_Node000002_Node000003" class="edge">
<title>Node3&#45;&gt;Node2</title>
<g id="a_edge2_Node000002_Node000003"><a xlink:title=" ">
<path fill="none" stroke="#63b8ff" d="M233.16,-531.62C232.83,-525.63 232.54,-519.36 232.38,-513.5 231.74,-491.4 231.86,-485.86 232.38,-463.75 232.42,-461.99 232.46,-460.21 232.52,-458.4"/>
<polygon fill="none" stroke="#63b8ff" points="232.52,-458.34 228.74,-452.2 232.95,-446.34 236.73,-452.48 232.52,-458.34"/>
</a>
</g>
<text xml:space="preserve" text-anchor="start" x="235.38" y="-484.75" font-family="Helvetica,sans-Serif" font-size="10.00" fill="grey">+elements</text>
</g>
<!-- Node4 -->
<g id="Node000004" class="node">
<title>Node4</title>
<g id="a_Node000004"><a xlink:href="classrtp_1_1ecs_1_1ISparseArray.html" target="_top" xlink:title="Type&#45;erased base interface for sparse arrays.">
<polygon fill="white" stroke="none" points="330.12,-741.25 226.12,-741.25 226.12,-645.75 330.12,-645.75 330.12,-741.25"/>
<text xml:space="preserve" text-anchor="start" x="230.12" y="-727.75" font-family="Helvetica,sans-Serif" font-size="10.00">rtp::ecs::ISparseArray</text>
<text xml:space="preserve" text-anchor="start" x="276.62" y="-712.5" font-family="Helvetica,sans-Serif" font-size="10.00"> </text>
<text xml:space="preserve" text-anchor="start" x="234.38" y="-697.25" font-family="Helvetica,sans-Serif" font-size="10.00">+</text>
<text xml:space="preserve" text-anchor="start" x="248.62" y="-697.25" font-family="Helvetica,sans-Serif" font-size="10.00">~ISparseArray()</text>
<text xml:space="preserve" text-anchor="start" x="234.38" y="-682" font-family="Helvetica,sans-Serif" font-size="10.00">+</text>
<text xml:space="preserve" text-anchor="start" x="248.62" y="-682" font-family="Helvetica,sans-Serif" font-size="10.00">erase()</text>
<text xml:space="preserve" text-anchor="start" x="234.38" y="-666.75" font-family="Helvetica,sans-Serif" font-size="10.00">+</text>
<text xml:space="preserve" text-anchor="start" x="248.62" y="-666.75" font-family="Helvetica,sans-Serif" font-size="10.00">has()</text>
<text xml:space="preserve" text-anchor="start" x="234.38" y="-651.5" font-family="Helvetica,sans-Serif" font-size="10.00">+</text>
<text xml:space="preserve" text-anchor="start" x="248.62" y="-651.5" font-family="Helvetica,sans-Serif" font-size="10.00">clear()</text>
<polygon fill="#666666" stroke="#666666" points="226.12,-724 226.12,-724 330.12,-724 330.12,-724 226.12,-724"/>
<polygon fill="#666666" stroke="#666666" points="226.12,-708.75 226.12,-708.75 330.12,-708.75 330.12,-708.75 226.12,-708.75"/>
<polygon fill="none" stroke="#666666" points="226.12,-645.75 226.12,-741.25 330.12,-741.25 330.12,-645.75 226.12,-645.75"/>
</a>
</g>
</g>
<!-- Node4&#45;&gt;Node3 -->
<g id="edge3_Node000003_Node000004" class="edge">
<title>Node4&#45;&gt;Node3</title>
<g id="a_edge3_Node000003_Node000004"><a xlink:title=" ">
<path fill="none" stroke="#63b8ff" d="M267.02,-646.15C263.85,-634.41 260.15,-621.9 256.12,-610.5 255.4,-608.45 254.63,-606.37 253.83,-604.28"/>
<polygon fill="none" stroke="#63b8ff" points="253.83,-604.3 247.86,-600.26 249.29,-593.2 255.26,-597.23 253.83,-604.3"/>
</a>
</g>
<text xml:space="preserve" text-anchor="start" x="264.2" y="-615.25" font-family="Helvetica,sans-Serif" font-size="10.00" fill="grey">+ptr</text>
</g>
<!-- Node5 -->
<g id="Node000005" class="node">
<title>Node5</title>
<g id="a_Node000005"><a xlink:title=" ">
<polygon fill="white" stroke="none" points="208.38,-718.38 111.88,-718.38 111.88,-668.62 208.38,-668.62 208.38,-718.38"/>
<text xml:space="preserve" text-anchor="start" x="115.88" y="-704.88" font-family="Helvetica,sans-Serif" font-size="10.00">std::unique_ptr&lt; T &gt;</text>
<text xml:space="preserve" text-anchor="start" x="158.62" y="-689.62" font-family="Helvetica,sans-Serif" font-size="10.00"> </text>
<text xml:space="preserve" text-anchor="start" x="122.94" y="-674.38" font-family="Helvetica,sans-Serif" font-size="10.00">+</text>
<text xml:space="preserve" text-anchor="start" x="140" y="-674.38" font-family="Helvetica,sans-Serif" font-size="10.00">operator&#45;&gt;()</text>
<polygon fill="#666666" stroke="#666666" points="111.88,-701.12 111.88,-701.12 208.38,-701.12 208.38,-701.12 111.88,-701.12"/>
<polygon fill="#666666" stroke="#666666" points="111.88,-685.88 111.88,-685.88 208.38,-685.88 208.38,-685.88 111.88,-685.88"/>
<polygon fill="none" stroke="#666666" points="111.88,-668.62 111.88,-718.38 208.38,-718.38 208.38,-668.62 111.88,-668.62"/>
</a>
</g>
</g>
<!-- Node5&#45;&gt;Node3 -->
<g id="edge4_Node000003_Node000005" class="edge">
<title>Node5&#45;&gt;Node3</title>
<g id="a_edge4_Node000003_Node000005"><a xlink:title=" ">
<path fill="none" stroke="orange" d="M135.82,-659.13C127.63,-643.56 122.68,-625.26 132.12,-610.5 132.97,-609.17 158.72,-597.3 184.26,-585.75"/>
<polygon fill="orange" stroke="orange" points="132.71,-660.75 140.8,-667.6 138.75,-657.2 132.71,-660.75"/>
</a>
</g>
<text xml:space="preserve" text-anchor="start" x="135.12" y="-615.25" font-family="Helvetica,sans-Serif" font-size="10.00" fill="grey">&lt; rtp::ecs::ISparseArray &gt;</text>
</g>
<!-- Node6 -->
<g id="Node000006" class="node">
<title>Node6</title>
<g id="a_Node000006"><a xlink:title=" ">
<polygon fill="white" stroke="none" points="340.12,-844.25 326.12,-844.25 326.12,-794.5 340.12,-794.5 340.12,-844.25"/>
<text xml:space="preserve" text-anchor="start" x="330.12" y="-830.75" font-family="Helvetica,sans-Serif" font-size="10.00">T</text>
<text xml:space="preserve" text-anchor="start" x="331.62" y="-815.5" font-family="Helvetica,sans-Serif" font-size="10.00"> </text>
<text xml:space="preserve" text-anchor="start" x="331.62" y="-800.25" font-family="Helvetica,sans-Serif" font-size="10.00"> </text>
<polygon fill="#666666" stroke="#666666" points="326.12,-827 326.12,-827 340.12,-827 340.12,-827 326.12,-827"/>
<polygon fill="#666666" stroke="#666666" points="326.12,-811.75 326.12,-811.75 340.12,-811.75 340.12,-811.75 326.12,-811.75"/>
<polygon fill="none" stroke="#666666" points="326.12,-794.5 326.12,-844.25 340.12,-844.25 340.12,-794.5 326.12,-794.5"/>
</a>
</g>
</g>
<!-- Node6&#45;&gt;Node5 -->
<g id="edge5_Node000005_Node000006" class="edge">
<title>Node6&#45;&gt;Node5</title>
<g id="a_edge5_Node000005_Node000006"><a xlink:title=" ">
<path fill="none" stroke="#63b8ff" d="M326.16,-814.09C307.88,-802.76 257.18,-770.88 217.12,-741.25 210.78,-736.56 204.18,-731.41 197.82,-726.3"/>
<polygon fill="none" stroke="#63b8ff" points="198.1,-726.52 190.92,-725.84 188.79,-718.94 195.97,-719.63 198.1,-726.52"/>
</a>
</g>
<text xml:space="preserve" text-anchor="start" x="270.25" y="-764" font-family="Helvetica,sans-Serif" font-size="10.00" fill="grey">+ptr</text>
</g>
<!-- Node7 -->
<g id="Node000007" class="node">
<title>Node7</title>
<g id="a_Node000007"><a xlink:title=" ">
<polygon fill="white" stroke="none" points="94.25,-724 0,-724 0,-663 94.25,-663 94.25,-724"/>
<text xml:space="preserve" text-anchor="start" x="4" y="-710.5" font-family="Helvetica,sans-Serif" font-size="10.00">std::unordered_map</text>
<text xml:space="preserve" text-anchor="start" x="28.75" y="-699.25" font-family="Helvetica,sans-Serif" font-size="10.00">&lt; K, T &gt;</text>
<text xml:space="preserve" text-anchor="start" x="45.62" y="-684" font-family="Helvetica,sans-Serif" font-size="10.00"> </text>
<text xml:space="preserve" text-anchor="start" x="45.62" y="-668.75" font-family="Helvetica,sans-Serif" font-size="10.00"> </text>
<polygon fill="#666666" stroke="#666666" points="0,-695.5 0,-695.5 94.25,-695.5 94.25,-695.5 0,-695.5"/>
<polygon fill="#666666" stroke="#666666" points="0,-680.25 0,-680.25 94.25,-680.25 94.25,-680.25 0,-680.25"/>
<polygon fill="none" stroke="#666666" points="0,-663 0,-724 94.25,-724 94.25,-663 0,-663"/>
</a>
</g>
</g>
<!-- Node6&#45;&gt;Node7 -->
<g id="edge8_Node000007_Node000006" class="edge">
<title>Node6&#45;&gt;Node7</title>
<g id="a_edge8_Node000007_Node000006"><a xlink:title=" ">
<path fill="none" stroke="#63b8ff" d="M326.27,-817.21C297.37,-812.06 183.23,-789.46 103.12,-741.25 98.49,-738.46 93.84,-735.29 89.31,-731.96"/>
<polygon fill="none" stroke="#63b8ff" points="89.21,-731.89 82.02,-731.37 79.73,-724.53 86.92,-725.05 89.21,-731.89"/>
</a>
</g>
<text xml:space="preserve" text-anchor="start" x="177.93" y="-764" font-family="Helvetica,sans-Serif" font-size="10.00" fill="grey">+elements</text>
</g>
<!-- Node10 -->
<g id="Node000010" class="node">
<title>Node10</title>
<g id="a_Node000010"><a xlink:title=" ">
<polygon fill="white" stroke="none" points="426.38,-718.38 347.88,-718.38 347.88,-668.62 426.38,-668.62 426.38,-718.38"/>
<text xml:space="preserve" text-anchor="start" x="351.88" y="-704.88" font-family="Helvetica,sans-Serif" font-size="10.00">std::vector&lt; T &gt;</text>
<text xml:space="preserve" text-anchor="start" x="385.62" y="-689.62" font-family="Helvetica,sans-Serif" font-size="10.00"> </text>
<text xml:space="preserve" text-anchor="start" x="385.62" y="-674.38" font-family="Helvetica,sans-Serif" font-size="10.00"> </text>
<polygon fill="#666666" stroke="#666666" points="347.88,-701.12 347.88,-701.12 426.38,-701.12 426.38,-701.12 347.88,-701.12"/>
<polygon fill="#666666" stroke="#666666" points="347.88,-685.88 347.88,-685.88 426.38,-685.88 426.38,-685.88 347.88,-685.88"/>
<polygon fill="none" stroke="#666666" points="347.88,-668.62 347.88,-718.38 426.38,-718.38 426.38,-668.62 347.88,-668.62"/>
</a>
</g>
</g>
<!-- Node6&#45;&gt;Node10 -->
<g id="edge11_Node000010_Node000006" class="edge">
<title>Node6&#45;&gt;Node10</title>
<g id="a_edge11_Node000010_Node000006"><a xlink:title=" ">
<path fill="none" stroke="#63b8ff" d="M340.07,-802.43C348.03,-784.18 361.31,-753.72 371.73,-729.81"/>
<polygon fill="none" stroke="#63b8ff" points="371.73,-729.82 370.46,-722.72 376.52,-718.82 377.79,-725.92 371.73,-729.82"/>
</a>
</g>
<text xml:space="preserve" text-anchor="start" x="361.51" y="-764" font-family="Helvetica,sans-Serif" font-size="10.00" fill="grey">+elements</text>
</g>
<!-- Node12 -->
<g id="Node000012" class="node">
<title>Node12</title>
<g id="a_Node000012"><a xlink:title=" ">
<polygon fill="white" stroke="none" points="522,-718.38 444.25,-718.38 444.25,-668.62 522,-668.62 522,-718.38"/>
<text xml:space="preserve" text-anchor="start" x="448.25" y="-704.88" font-family="Helvetica,sans-Serif" font-size="10.00">std::deque&lt; T &gt;</text>
<text xml:space="preserve" text-anchor="start" x="481.62" y="-689.62" font-family="Helvetica,sans-Serif" font-size="10.00"> </text>
<text xml:space="preserve" text-anchor="start" x="481.62" y="-674.38" font-family="Helvetica,sans-Serif" font-size="10.00"> </text>
<polygon fill="#666666" stroke="#666666" points="444.25,-701.12 444.25,-701.12 522,-701.12 522,-701.12 444.25,-701.12"/>
<polygon fill="#666666" stroke="#666666" points="444.25,-685.88 444.25,-685.88 522,-685.88 522,-685.88 444.25,-685.88"/>
<polygon fill="none" stroke="#666666" points="444.25,-668.62 444.25,-718.38 522,-718.38 522,-668.62 444.25,-668.62"/>
</a>
</g>
</g>
<!-- Node6&#45;&gt;Node12 -->
<g id="edge14_Node000012_Node000006" class="edge">
<title>Node6&#45;&gt;Node12</title>
<g id="a_edge14_Node000012_Node000006"><a xlink:title=" ">
<path fill="none" stroke="#63b8ff" d="M339.94,-815.91C354.57,-810.42 389.64,-796.07 414.12,-776.5 431.29,-762.78 447.31,-744.26 459.58,-728.3"/>
<polygon fill="none" stroke="#63b8ff" points="459.36,-728.59 459.75,-721.39 466.54,-718.97 466.16,-726.17 459.36,-728.59"/>
</a>
</g>
<text xml:space="preserve" text-anchor="start" x="434.46" y="-764" font-family="Helvetica,sans-Serif" font-size="10.00" fill="grey">+elements</text>
</g>
<!-- Node7&#45;&gt;Node2 -->
<g id="edge6_Node000002_Node000007" class="edge">
<title>Node7&#45;&gt;Node2</title>
<g id="a_edge6_Node000002_Node000007"><a xlink:title=" ">
<path fill="none" stroke="orange" d="M41.49,-652.04C38.71,-617.74 39.59,-568.38 60.38,-531.5 87.86,-482.72 142.84,-447.77 183.83,-427.14"/>
<polygon fill="orange" stroke="orange" points="37.96,-651.93 42.4,-661.55 44.93,-651.26 37.96,-651.93"/>
</a>
</g>
<text xml:space="preserve" text-anchor="start" x="63.38" y="-573.38" font-family="Helvetica,sans-Serif" font-size="10.00" fill="grey">&lt; std::type_index,</text>
<text xml:space="preserve" text-anchor="start" x="63.38" y="-558.12" font-family="Helvetica,sans-Serif" font-size="10.00" fill="grey">   std::unique_ptr&lt; rtp</text>
<text xml:space="preserve" text-anchor="start" x="63.38" y="-542.88" font-family="Helvetica,sans-Serif" font-size="10.00" fill="grey">  ::ecs::ISparseArray &gt; &gt;</text>
</g>
<!-- Node8 -->
<g id="Node000008" class="node">
<title>Node8</title>
<g id="a_Node000008"><a xlink:title=" ">
<polygon fill="white" stroke="none" points="54.5,-844.25 39.75,-844.25 39.75,-794.5 54.5,-794.5 54.5,-844.25"/>
<text xml:space="preserve" text-anchor="start" x="43.75" y="-830.75" font-family="Helvetica,sans-Serif" font-size="10.00">K</text>
<text xml:space="preserve" text-anchor="start" x="45.62" y="-815.5" font-family="Helvetica,sans-Serif" font-size="10.00"> </text>
<text xml:space="preserve" text-anchor="start" x="45.62" y="-800.25" font-family="Helvetica,sans-Serif" font-size="10.00"> </text>
<polygon fill="#666666" stroke="#666666" points="39.75,-827 39.75,-827 54.5,-827 54.5,-827 39.75,-827"/>
<polygon fill="#666666" stroke="#666666" points="39.75,-811.75 39.75,-811.75 54.5,-811.75 54.5,-811.75 39.75,-811.75"/>
<polygon fill="none" stroke="#666666" points="39.75,-794.5 39.75,-844.25 54.5,-844.25 54.5,-794.5 39.75,-794.5"/>
</a>
</g>
</g>
<!-- Node8&#45;&gt;Node7 -->
<g id="edge7_Node000007_Node000008" class="edge">
<title>Node8&#45;&gt;Node7</title>
<g id="a_edge7_Node000007_Node000008"><a xlink:title=" ">
<path fill="none" stroke="#63b8ff" d="M47.12,-794.78C47.12,-778.36 47.12,-756 47.12,-736.56"/>
<polygon fill="none" stroke="#63b8ff" points="47.13,-736.58 43.13,-730.58 47.13,-724.58 51.13,-730.58 47.13,-736.58"/>
</a>
</g>
<text xml:space="preserve" text-anchor="start" x="50.12" y="-764" font-family="Helvetica,sans-Serif" font-size="10.00" fill="grey">+keys</text>
</g>
<!-- Node9 -->
<g id="Node000009" class="node">
<title>Node9</title>
<g id="a_Node000009"><a xlink:title=" ">
<polygon fill="white" stroke="none" points="419.38,-513.5 292.88,-513.5 292.88,-463.75 419.38,-463.75 419.38,-513.5"/>
<text xml:space="preserve" text-anchor="start" x="296.88" y="-500" font-family="Helvetica,sans-Serif" font-size="10.00">std::vector&lt; std::uint32_t &gt;</text>
<text xml:space="preserve" text-anchor="start" x="314.06" y="-484.75" font-family="Helvetica,sans-Serif" font-size="10.00">+</text>
<text xml:space="preserve" text-anchor="start" x="341.25" y="-484.75" font-family="Helvetica,sans-Serif" font-size="10.00">elements</text>
<text xml:space="preserve" text-anchor="start" x="354.62" y="-469.5" font-family="Helvetica,sans-Serif" font-size="10.00"> </text>
<polygon fill="#666666" stroke="#666666" points="292.88,-496.25 292.88,-496.25 419.38,-496.25 419.38,-496.25 292.88,-496.25"/>
<polygon fill="#666666" stroke="#666666" points="292.88,-481 292.88,-481 339.25,-481 339.25,-481 292.88,-481"/>
<polygon fill="#666666" stroke="#666666" points="339.25,-481 339.25,-481 419.38,-481 419.38,-481 339.25,-481"/>
<polygon fill="none" stroke="#666666" points="292.88,-463.75 292.88,-513.5 419.38,-513.5 419.38,-463.75 292.88,-463.75"/>
</a>
</g>
</g>
<!-- Node9&#45;&gt;Node1 -->
<g id="edge9_Node000001_Node000009" class="edge">
<title>Node9&#45;&gt;Node1</title>
<g id="a_edge9_Node000001_Node000009"><a xlink:title=" ">
<path fill="none" stroke="#63b8ff" d="M358.47,-464.01C361.06,-438.76 365.55,-397.6 370.62,-362.25 372.53,-349 374.61,-335.3 376.8,-321.54"/>
<polygon fill="none" stroke="#63b8ff" points="376.78,-321.64 373.78,-315.08 378.68,-309.79 381.68,-316.35 376.78,-321.64"/>
</a>
</g>
<text xml:space="preserve" text-anchor="start" x="373.62" y="-400.12" font-family="Helvetica,sans-Serif" font-size="10.00" fill="grey">&#45;_generations</text>
</g>
<!-- Node10&#45;&gt;Node9 -->
<g id="edge10_Node000009_Node000010" class="edge">
<title>Node10&#45;&gt;Node9</title>
<g id="a_edge10_Node000009_Node000010"><a xlink:title=" ">
<path fill="none" stroke="orange" d="M381.77,-657.45C375.48,-616.26 365.2,-549.04 359.77,-513.46"/>
<polygon fill="orange" stroke="orange" points="378.31,-657.98 383.28,-667.33 385.23,-656.92 378.31,-657.98"/>
</a>
</g>
<text xml:space="preserve" text-anchor="start" x="379.85" y="-615.25" font-family="Helvetica,sans-Serif" font-size="10.00" fill="grey">&lt; std::uint32_t &gt;</text>
</g>
<!-- Node11 -->
<g id="Node000011" class="node">
<title>Node11</title>
<g id="a_Node000011"><a xlink:title=" ">
<polygon fill="white" stroke="none" points="541.88,-513.5 424.38,-513.5 424.38,-463.75 541.88,-463.75 541.88,-513.5"/>
<text xml:space="preserve" text-anchor="start" x="428.38" y="-500" font-family="Helvetica,sans-Serif" font-size="10.00">std::deque&lt; std::size_t &gt;</text>
<text xml:space="preserve" text-anchor="start" x="443.31" y="-484.75" font-family="Helvetica,sans-Serif" font-size="10.00">+</text>
<text xml:space="preserve" text-anchor="start" x="468.25" y="-484.75" font-family="Helvetica,sans-Serif" font-size="10.00">elements</text>
<text xml:space="preserve" text-anchor="start" x="481.62" y="-469.5" font-family="Helvetica,sans-Serif" font-size="10.00"> </text>
<polygon fill="#666666" stroke="#666666" points="424.38,-496.25 424.38,-496.25 541.88,-496.25 541.88,-496.25 424.38,-496.25"/>
<polygon fill="#666666" stroke="#666666" points="424.38,-481 424.38,-481 466.25,-481 466.25,-481 424.38,-481"/>
<polygon fill="#666666" stroke="#666666" points="466.25,-481 466.25,-481 541.88,-481 541.88,-481 466.25,-481"/>
<polygon fill="none" stroke="#666666" points="424.38,-463.75 424.38,-513.5 541.88,-513.5 541.88,-463.75 424.38,-463.75"/>
</a>
</g>
</g>
<!-- Node11&#45;&gt;Node1 -->
<g id="edge12_Node000001_Node000011" class="edge">
<title>Node11&#45;&gt;Node1</title>
<g id="a_edge12_Node000001_Node000011"><a xlink:title=" ">
<path fill="none" stroke="#63b8ff" d="M473.16,-463.94C470.9,-458.06 468.65,-451.73 466.88,-445.75 455.07,-405.94 444.67,-362.4 435.97,-321.44"/>
<polygon fill="none" stroke="#63b8ff" points="435.97,-321.44 430.83,-316.39 433.51,-309.7 438.66,-314.75 435.97,-321.44"/>
</a>
</g>
<text xml:space="preserve" text-anchor="start" x="469.88" y="-400.12" font-family="Helvetica,sans-Serif" font-size="10.00" fill="grey">&#45;_freeIndices</text>
</g>
<!-- Node12&#45;&gt;Node11 -->
<g id="edge13_Node000011_Node000012" class="edge">
<title>Node12&#45;&gt;Node11</title>
<g id="a_edge13_Node000011_Node000012"><a xlink:title=" ">
<path fill="none" stroke="orange" d="M483.12,-657.45C483.12,-616.26 483.12,-549.04 483.12,-513.46"/>
<polygon fill="orange" stroke="orange" points="479.63,-657.32 483.13,-667.32 486.63,-657.32 479.63,-657.32"/>
</a>
</g>
<text xml:space="preserve" text-anchor="start" x="486.12" y="-615.25" font-family="Helvetica,sans-Serif" font-size="10.00" fill="grey">&lt; std::size_t &gt;</text>
</g>
<!-- Node13 -->
<g id="Node000013" class="node">
<title>Node13</title>
<g id="a_Node000013"><a xlink:title=" ">
<polygon fill="white" stroke="none" points="626.62,-428.88 537.62,-428.88 537.62,-379.12 626.62,-379.12 626.62,-428.88"/>
<text xml:space="preserve" text-anchor="start" x="541.62" y="-415.38" font-family="Helvetica,sans-Serif" font-size="10.00">std::shared_mutex</text>
<text xml:space="preserve" text-anchor="start" x="580.62" y="-400.12" font-family="Helvetica,sans-Serif" font-size="10.00"> </text>
<text xml:space="preserve" text-anchor="start" x="580.62" y="-384.88" font-family="Helvetica,sans-Serif" font-size="10.00"> </text>
<polygon fill="#666666" stroke="#666666" points="537.62,-411.62 537.62,-411.62 626.62,-411.62 626.62,-411.62 537.62,-411.62"/>
<polygon fill="#666666" stroke="#666666" points="537.62,-396.38 537.62,-396.38 626.62,-396.38 626.62,-396.38 537.62,-396.38"/>
<polygon fill="none" stroke="#666666" points="537.62,-379.12 537.62,-428.88 626.62,-428.88 626.62,-379.12 537.62,-379.12"/>
</a>
</g>
</g>
<!-- Node13&#45;&gt;Node1 -->
<g id="edge15_Node000001_Node000013" class="edge">
<title>Node13&#45;&gt;Node1</title>
<g id="a_edge15_Node000001_Node000013"><a xlink:title=" ">
<path fill="none" stroke="#63b8ff" d="M565.25,-379.27C542.73,-347.59 501.63,-289.81 466.85,-240.9"/>
<polygon fill="none" stroke="#63b8ff" points="466.78,-240.8 460.05,-238.23 459.83,-231.02 466.57,-233.59 466.78,-240.8"/>
</a>
</g>
<text xml:space="preserve" text-anchor="start" x="542.59" y="-331.75" font-family="Helvetica,sans-Serif" font-size="10.00" fill="grey">&#45;_mutex</text>
</g>
</g>
</svg>

<g id="navigator" transform="translate(0 0)" fill="#404254">
  <rect fill="#f2f5e9" fill-opacity="0.5" stroke="#606060" stroke-width=".5" x="0" y="0" width="60" height="60"/>
  <use id="zoomplus" xlink:href="#zoomPlus" x="17" y="9" onmousedown="handleZoom(evt,'in')"/>
  <use id="zoomminus" xlink:href="#zoomMin" x="42" y="9" onmousedown="handleZoom(evt,'out')"/>
  <use id="reset" xlink:href="#resetDef" x="30" y="36" onmousedown="handleReset()"/>
   <use id="arrowup" xlink:href="#arrowUp" x="0" y="0" onmousedown="handlePan(0,-1)"/>
  <use id="arrowright" xlink:href="#arrowRight" x="0" y="0" onmousedown="handlePan(1,0)"/>
  <use id="arrowdown" xlink:href="#arrowDown" x="0" y="0" onmousedown="handlePan(0,1)"/>
  <use id="arrowleft" xlink:href="#arrowLeft" x="0" y="0" onmousedown="handlePan(-1,0)"/>
</g>
<svg viewBox="0 0 15 15" width="100%" height="30px" preserveAspectRatio="xMaxYMin meet">
 <g id="arrow_out" transform="scale(0.3 0.3)">
  <a xlink:href="classrtp_1_1ecs_1_1Registry__coll__graph_org.svg" target="_base">
   <rect id="button" ry="5" rx="5" y="6" x="6" height="38" width="38"
        fill="#f2f5e9" fill-opacity="0.5" stroke="#606060" stroke-width="1.0"/>
   <path id="arrow"
     d="M 11.500037,31.436501 C 11.940474,20.09759 22.043105,11.32322 32.158766,21.979434 L 37.068811,17.246167 C 37.068811,17.246167 37.088388,32 37.088388,32 L 22.160133,31.978069 C 22.160133,31.978069 26.997745,27.140456 26.997745,27.140456 C 18.528582,18.264221 13.291696,25.230495 11.500037,31.436501 z"
     style="fill:#404040;"/>
  </a>
 </g>
</svg>

<style type='text/css'>
<![CDATA[
[data-mouse-over-selected='false'] { opacity: 0.7; }
[data-mouse-over-selected='true']  { opacity: 1.0; }
]]>
</style>
<script type="application/ecmascript"><![CDATA[
document.addEventListener('DOMContentLoaded', (event) => {
  highlightEdges();
  highlightAdjacentNodes();
});
]]></script>
</svg>
