<?xml version="1.0" encoding="UTF-8" standalone="no"?>
<!DOCTYPE svg PUBLIC "-//W3C//DTD SVG 1.1//EN"
 "http://www.w3.org/Graphics/SVG/1.1/DTD/svg11.dtd">
<!-- Generated by graphviz version 14.0.5 (20251129.0259)
 -->
<!-- Title: rtp::ecs::SparseArray&lt; T &gt; Pages: 1 -->
<!--zoomable 702 -->

<svg id="main" version="1.1" xmlns="http://www.w3.org/2000/svg" xmlns:xlink="http://www.w3.org/1999/xlink" xml:space="preserve" onload="init(evt)">

<style type="text/css"><![CDATA[
.node, .edge {opacity: 0.7;}
.node.selected, .edge.selected {opacity: 1;}
.edge:hover path { stroke: red; }
.edge:hover polygon { stroke: red; fill: red; }
]]></style>

<defs>
  <circle id="rim" cx="0" cy="0" r="7"/>
  <circle id="rim2" cx="0" cy="0" r="3.5"/>
  <g id="zoomPlus">
    <use xlink:href="#rim" fill="#404040"><set attributeName="fill" to="#808080" begin="zoomplus.mouseover" end="zoomplus.mouseout"/></use>
    <path d="M-4,0h8M0,-4v8" fill="none" stroke="white" stroke-width="1.5" pointer-events="none"/>
  </g>
  <g id="zoomMin">
    <use xlink:href="#rim" fill="#404040"><set attributeName="fill" to="#808080" begin="zoomminus.mouseover" end="zoomminus.mouseout"/></use>
    <path d="M-4,0h8" fill="none" stroke="white" stroke-width="1.5" pointer-events="none"/>
  </g>
  <g id="arrowUp" transform="translate(30 24)">
    <use xlink:href="#rim"/>
    <path pointer-events="none" fill="none" stroke="white" stroke-width="1.5" d="M0,-3.0v7 M-2.5,-0.5L0,-3.0L2.5,-0.5"/>
  </g>
  <g id="arrowRight" transform="rotate(90) translate(36 -43)">
    <use xlink:href="#rim"/>
    <path pointer-events="none" fill="none" stroke="white" stroke-width="1.5" d="M0,-3.0v7 M-2.5,-0.5L0,-3.0L2.5,-0.5"/>
  </g>
  <g id="arrowDown" transform="rotate(180) translate(-30 -48)">
    <use xlink:href="#rim"/>
    <path pointer-events="none" fill="none" stroke="white" stroke-width="1.5" d="M0,-3.0v7 M-2.5,-0.5L0,-3.0L2.5,-0.5"/>
  </g>
  <g id="arrowLeft" transform="rotate(270) translate(-36 17)">
    <use xlink:href="#rim"/>
    <path pointer-events="none" fill="none" stroke="white" stroke-width="1.5" d="M0,-3.0v7 M-2.5,-0.5L0,-3.0L2.5,-0.5"/>
  </g>
  <g id="resetDef">
    <use xlink:href="#rim2" fill="#404040"><set attributeName="fill" to="#808080" begin="reset.mouseover" end="reset.mouseout"/></use>
  </g>
</defs>
<script type="application/ecmascript">
var viewWidth = 448;
var viewHeight = 702;
var sectionId = 'dynsection-1';
</script>
<script type="application/ecmascript" xlink:href="svg.min.js"/>
<svg id="graph" class="graph">
<g id="viewport">
<title>rtp::ecs::SparseArray&lt; T &gt;</title>
<!-- Node1 -->
<g id="Node000001" class="node">
<title>Node1</title>
<g id="a_Node000001"><a xlink:title="Sparse array container for component storage.">
<polygon fill="#999999" stroke="none" points="290.5,-202.25 165.5,-202.25 165.5,0 290.5,0 290.5,-202.25"/>
<text xml:space="preserve" text-anchor="start" x="169.5" y="-188.75" font-family="Helvetica,sans-Serif" font-size="10.00">rtp::ecs::SparseArray&lt; T &gt;</text>
<text xml:space="preserve" text-anchor="start" x="179.75" y="-173.5" font-family="Helvetica,sans-Serif" font-size="10.00">+</text>
<text xml:space="preserve" text-anchor="start" x="200" y="-173.5" font-family="Helvetica,sans-Serif" font-size="10.00">NullIndex</text>
<text xml:space="preserve" text-anchor="start" x="179.75" y="-158.25" font-family="Helvetica,sans-Serif" font-size="10.00">+</text>
<text xml:space="preserve" text-anchor="start" x="200" y="-158.25" font-family="Helvetica,sans-Serif" font-size="10.00">SparseArray()</text>
<text xml:space="preserve" text-anchor="start" x="179.75" y="-143" font-family="Helvetica,sans-Serif" font-size="10.00">+</text>
<text xml:space="preserve" text-anchor="start" x="200" y="-143" font-family="Helvetica,sans-Serif" font-size="10.00">SparseArray()</text>
<text xml:space="preserve" text-anchor="start" x="179.75" y="-127.75" font-family="Helvetica,sans-Serif" font-size="10.00">+</text>
<text xml:space="preserve" text-anchor="start" x="200" y="-127.75" font-family="Helvetica,sans-Serif" font-size="10.00">SparseArray()</text>
<text xml:space="preserve" text-anchor="start" x="179.75" y="-112.5" font-family="Helvetica,sans-Serif" font-size="10.00">+</text>
<text xml:space="preserve" text-anchor="start" x="200" y="-112.5" font-family="Helvetica,sans-Serif" font-size="10.00">operator=()</text>
<text xml:space="preserve" text-anchor="start" x="179.75" y="-97.25" font-family="Helvetica,sans-Serif" font-size="10.00">+</text>
<text xml:space="preserve" text-anchor="start" x="200" y="-97.25" font-family="Helvetica,sans-Serif" font-size="10.00">operator=()</text>
<text xml:space="preserve" text-anchor="start" x="179.75" y="-82" font-family="Helvetica,sans-Serif" font-size="10.00">+</text>
<text xml:space="preserve" text-anchor="start" x="200" y="-82" font-family="Helvetica,sans-Serif" font-size="10.00">~SparseArray()</text>
<text xml:space="preserve" text-anchor="start" x="179.75" y="-66.75" font-family="Helvetica,sans-Serif" font-size="10.00">+</text>
<text xml:space="preserve" text-anchor="start" x="200" y="-66.75" font-family="Helvetica,sans-Serif" font-size="10.00">erase()</text>
<text xml:space="preserve" text-anchor="start" x="179.75" y="-51.5" font-family="Helvetica,sans-Serif" font-size="10.00">+</text>
<text xml:space="preserve" text-anchor="start" x="200" y="-51.5" font-family="Helvetica,sans-Serif" font-size="10.00">has()</text>
<text xml:space="preserve" text-anchor="start" x="179.75" y="-36.25" font-family="Helvetica,sans-Serif" font-size="10.00">+</text>
<text xml:space="preserve" text-anchor="start" x="200" y="-36.25" font-family="Helvetica,sans-Serif" font-size="10.00">clear()</text>
<text xml:space="preserve" text-anchor="start" x="179.75" y="-21" font-family="Helvetica,sans-Serif" font-size="10.00">+</text>
<text xml:space="preserve" text-anchor="start" x="200" y="-21" font-family="Helvetica,sans-Serif" font-size="10.00">operator[]()</text>
<text xml:space="preserve" text-anchor="start" x="200" y="-5.75" font-family="Helvetica,sans-Serif" font-size="10.00">and 7 more...</text>
<polygon fill="#666666" stroke="#666666" points="165.5,-185 165.5,-185 290.5,-185 290.5,-185 165.5,-185"/>
<polygon fill="#666666" stroke="#666666" points="165.5,-169.75 165.5,-169.75 198,-169.75 198,-169.75 165.5,-169.75"/>
<polygon fill="#666666" stroke="#666666" points="198,-169.75 198,-169.75 290.5,-169.75 290.5,-169.75 198,-169.75"/>
<polygon fill="none" stroke="#666666" points="165.5,0 165.5,-202.25 290.5,-202.25 290.5,0 165.5,0"/>
</a>
</g>
</g>
<!-- Node2 -->
<g id="Node000002" class="node">
<title>Node2</title>
<g id="a_Node000002"><a xlink:href="classrtp_1_1ecs_1_1ISparseArray.html" target="_top" xlink:title="Type&#45;erased base interface for sparse arrays.">
<polygon fill="white" stroke="none" points="104,-351 0,-351 0,-255.5 104,-255.5 104,-351"/>
<text xml:space="preserve" text-anchor="start" x="4" y="-337.5" font-family="Helvetica,sans-Serif" font-size="10.00">rtp::ecs::ISparseArray</text>
<text xml:space="preserve" text-anchor="start" x="50.5" y="-322.25" font-family="Helvetica,sans-Serif" font-size="10.00"> </text>
<text xml:space="preserve" text-anchor="start" x="8.25" y="-307" font-family="Helvetica,sans-Serif" font-size="10.00">+</text>
<text xml:space="preserve" text-anchor="start" x="22.5" y="-307" font-family="Helvetica,sans-Serif" font-size="10.00">~ISparseArray()</text>
<text xml:space="preserve" text-anchor="start" x="8.25" y="-291.75" font-family="Helvetica,sans-Serif" font-size="10.00">+</text>
<text xml:space="preserve" text-anchor="start" x="22.5" y="-291.75" font-family="Helvetica,sans-Serif" font-size="10.00">erase()</text>
<text xml:space="preserve" text-anchor="start" x="8.25" y="-276.5" font-family="Helvetica,sans-Serif" font-size="10.00">+</text>
<text xml:space="preserve" text-anchor="start" x="22.5" y="-276.5" font-family="Helvetica,sans-Serif" font-size="10.00">has()</text>
<text xml:space="preserve" text-anchor="start" x="8.25" y="-261.25" font-family="Helvetica,sans-Serif" font-size="10.00">+</text>
<text xml:space="preserve" text-anchor="start" x="22.5" y="-261.25" font-family="Helvetica,sans-Serif" font-size="10.00">clear()</text>
<polygon fill="#666666" stroke="#666666" points="0,-333.75 0,-333.75 104,-333.75 104,-333.75 0,-333.75"/>
<polygon fill="#666666" stroke="#666666" points="0,-318.5 0,-318.5 104,-318.5 104,-318.5 0,-318.5"/>
<polygon fill="none" stroke="#666666" points="0,-255.5 0,-351 104,-351 104,-255.5 0,-255.5"/>
</a>
</g>
</g>
<!-- Node2&#45;&gt;Node1 -->
<g id="edge1_Node000001_Node000002" class="edge">
<title>Node2&#45;&gt;Node1</title>
<g id="a_edge1_Node000001_Node000002"><a xlink:title=" ">
<path fill="none" stroke="#63b8ff" d="M100.59,-247C120.76,-224.07 144.4,-197.18 165.82,-172.83"/>
<polygon fill="none" stroke="#63b8ff" points="98.02,-244.63 94.04,-254.45 103.27,-249.25 98.02,-244.63"/>
</a>
</g>
</g>
<!-- Node3 -->
<g id="Node000003" class="node">
<title>Node3</title>
<g id="a_Node000003"><a xlink:title=" ">
<polygon fill="white" stroke="none" points="335.38,-328.12 236.62,-328.12 236.62,-278.38 335.38,-278.38 335.38,-328.12"/>
<text xml:space="preserve" text-anchor="start" x="240.62" y="-314.62" font-family="Helvetica,sans-Serif" font-size="10.00">std::vector&lt; size_t &gt;</text>
<text xml:space="preserve" text-anchor="start" x="250.88" y="-299.38" font-family="Helvetica,sans-Serif" font-size="10.00">+</text>
<text xml:space="preserve" text-anchor="start" x="271.12" y="-299.38" font-family="Helvetica,sans-Serif" font-size="10.00">elements</text>
<text xml:space="preserve" text-anchor="start" x="284.5" y="-284.12" font-family="Helvetica,sans-Serif" font-size="10.00"> </text>
<polygon fill="#666666" stroke="#666666" points="236.62,-310.88 236.62,-310.88 335.38,-310.88 335.38,-310.88 236.62,-310.88"/>
<polygon fill="#666666" stroke="#666666" points="236.62,-295.62 236.62,-295.62 269.12,-295.62 269.12,-295.62 236.62,-295.62"/>
<polygon fill="#666666" stroke="#666666" points="269.12,-295.62 269.12,-295.62 335.38,-295.62 335.38,-295.62 269.12,-295.62"/>
<polygon fill="none" stroke="#666666" points="236.62,-278.38 236.62,-328.12 335.38,-328.12 335.38,-278.38 236.62,-278.38"/>
</a>
</g>
</g>
<!-- Node3&#45;&gt;Node1 -->
<g id="edge2_Node000001_Node000003" class="edge">
<title>Node3&#45;&gt;Node1</title>
<g id="a_edge2_Node000001_Node000003"><a xlink:title=" ">
<path fill="none" stroke="#63b8ff" d="M279.12,-278.51C274.34,-262.03 267.6,-238.76 260.57,-214.51"/>
<polygon fill="none" stroke="#63b8ff" points="260.58,-214.56 255.07,-209.91 257.24,-203.03 262.76,-207.68 260.58,-214.56"/>
</a>
</g>
<text xml:space="preserve" text-anchor="start" x="268.58" y="-225" font-family="Helvetica,sans-Serif" font-size="10.00" fill="grey">&#45;_sparse</text>
</g>
<!-- Node4 -->
<g id="Node000004" class="node">
<title>Node4</title>
<g id="a_Node000004"><a xlink:title=" ">
<polygon fill="white" stroke="none" points="334.25,-522.62 255.75,-522.62 255.75,-472.88 334.25,-472.88 334.25,-522.62"/>
<text xml:space="preserve" text-anchor="start" x="259.75" y="-509.12" font-family="Helvetica,sans-Serif" font-size="10.00">std::vector&lt; T &gt;</text>
<text xml:space="preserve" text-anchor="start" x="293.5" y="-493.88" font-family="Helvetica,sans-Serif" font-size="10.00"> </text>
<text xml:space="preserve" text-anchor="start" x="293.5" y="-478.62" font-family="Helvetica,sans-Serif" font-size="10.00"> </text>
<polygon fill="#666666" stroke="#666666" points="255.75,-505.38 255.75,-505.38 334.25,-505.38 334.25,-505.38 255.75,-505.38"/>
<polygon fill="#666666" stroke="#666666" points="255.75,-490.12 255.75,-490.12 334.25,-490.12 334.25,-490.12 255.75,-490.12"/>
<polygon fill="none" stroke="#666666" points="255.75,-472.88 255.75,-522.62 334.25,-522.62 334.25,-472.88 255.75,-472.88"/>
</a>
</g>
</g>
<!-- Node4&#45;&gt;Node3 -->
<g id="edge3_Node000003_Node000004" class="edge">
<title>Node4&#45;&gt;Node3</title>
<g id="a_edge3_Node000003_Node000004"><a xlink:title=" ">
<path fill="none" stroke="orange" d="M293.36,-461.66C291.55,-422.9 288.68,-361.56 287.11,-328.05"/>
<polygon fill="orange" stroke="orange" points="289.86,-461.81 293.83,-471.63 296.85,-461.48 289.86,-461.81"/>
</a>
</g>
<text xml:space="preserve" text-anchor="start" x="292.69" y="-373.75" font-family="Helvetica,sans-Serif" font-size="10.00" fill="grey">&lt; size_t &gt;</text>
</g>
<!-- Node6 -->
<g id="Node000006" class="node">
<title>Node6</title>
<g id="a_Node000006"><a xlink:title=" ">
<polygon fill="white" stroke="none" points="218.25,-333.75 121.75,-333.75 121.75,-272.75 218.25,-272.75 218.25,-333.75"/>
<text xml:space="preserve" text-anchor="start" x="125.75" y="-320.25" font-family="Helvetica,sans-Serif" font-size="10.00">std::vector&lt; rtp::ecs</text>
<text xml:space="preserve" text-anchor="start" x="149.75" y="-309" font-family="Helvetica,sans-Serif" font-size="10.00">::Entity &gt;</text>
<text xml:space="preserve" text-anchor="start" x="168.5" y="-293.75" font-family="Helvetica,sans-Serif" font-size="10.00"> </text>
<text xml:space="preserve" text-anchor="start" x="168.5" y="-278.5" font-family="Helvetica,sans-Serif" font-size="10.00"> </text>
<polygon fill="#666666" stroke="#666666" points="121.75,-305.25 121.75,-305.25 218.25,-305.25 218.25,-305.25 121.75,-305.25"/>
<polygon fill="#666666" stroke="#666666" points="121.75,-290 121.75,-290 218.25,-290 218.25,-290 121.75,-290"/>
<polygon fill="none" stroke="#666666" points="121.75,-272.75 121.75,-333.75 218.25,-333.75 218.25,-272.75 121.75,-272.75"/>
</a>
</g>
</g>
<!-- Node4&#45;&gt;Node6 -->
<g id="edge7_Node000006_Node000004" class="edge">
<title>Node4&#45;&gt;Node6</title>
<g id="a_edge7_Node000006_Node000004"><a xlink:title=" ">
<path fill="none" stroke="orange" d="M260.55,-465.42C239.53,-444.71 213.53,-415.97 196.5,-386.25 187.13,-369.89 180.56,-349.77 176.31,-333.56"/>
<polygon fill="orange" stroke="orange" points="257.91,-467.74 267.53,-472.17 262.78,-462.7 257.91,-467.74"/>
</a>
</g>
<text xml:space="preserve" text-anchor="start" x="199.5" y="-373.75" font-family="Helvetica,sans-Serif" font-size="10.00" fill="grey">&lt; rtp::ecs::Entity &gt;</text>
</g>
<!-- Node8 -->
<g id="Node000008" class="node">
<title>Node8</title>
<g id="a_Node000008"><a xlink:title=" ">
<polygon fill="white" stroke="none" points="440.38,-333.75 353.62,-333.75 353.62,-272.75 440.38,-272.75 440.38,-333.75"/>
<text xml:space="preserve" text-anchor="start" x="357.62" y="-320.25" font-family="Helvetica,sans-Serif" font-size="10.00">std::vector&lt; value</text>
<text xml:space="preserve" text-anchor="start" x="380.5" y="-309" font-family="Helvetica,sans-Serif" font-size="10.00">_type &gt;</text>
<text xml:space="preserve" text-anchor="start" x="364.88" y="-293.75" font-family="Helvetica,sans-Serif" font-size="10.00">+</text>
<text xml:space="preserve" text-anchor="start" x="382.12" y="-293.75" font-family="Helvetica,sans-Serif" font-size="10.00">elements</text>
<text xml:space="preserve" text-anchor="start" x="395.5" y="-278.5" font-family="Helvetica,sans-Serif" font-size="10.00"> </text>
<polygon fill="#666666" stroke="#666666" points="353.62,-305.25 353.62,-305.25 440.38,-305.25 440.38,-305.25 353.62,-305.25"/>
<polygon fill="#666666" stroke="#666666" points="353.62,-290 353.62,-290 380.12,-290 380.12,-290 353.62,-290"/>
<polygon fill="#666666" stroke="#666666" points="380.12,-290 380.12,-290 440.38,-290 440.38,-290 380.12,-290"/>
<polygon fill="none" stroke="#666666" points="353.62,-272.75 353.62,-333.75 440.38,-333.75 440.38,-272.75 353.62,-272.75"/>
</a>
</g>
</g>
<!-- Node4&#45;&gt;Node8 -->
<g id="edge9_Node000008_Node000004" class="edge">
<title>Node4&#45;&gt;Node8</title>
<g id="a_edge9_Node000008_Node000004"><a xlink:title=" ">
<path fill="none" stroke="orange" d="M312.65,-463.44C332.03,-426.86 362.85,-368.7 381.38,-333.72"/>
<polygon fill="orange" stroke="orange" points="309.81,-461.33 308.22,-471.81 315.99,-464.61 309.81,-461.33"/>
</a>
</g>
<text xml:space="preserve" text-anchor="start" x="364.1" y="-373.75" font-family="Helvetica,sans-Serif" font-size="10.00" fill="grey">&lt; value_type &gt;</text>
</g>
<!-- Node5 -->
<g id="Node000005" class="node">
<title>Node5</title>
<g id="a_Node000005"><a xlink:title=" ">
<polygon fill="white" stroke="none" points="302,-694.25 288,-694.25 288,-644.5 302,-644.5 302,-694.25"/>
<text xml:space="preserve" text-anchor="start" x="292" y="-680.75" font-family="Helvetica,sans-Serif" font-size="10.00">T</text>
<text xml:space="preserve" text-anchor="start" x="293.5" y="-665.5" font-family="Helvetica,sans-Serif" font-size="10.00"> </text>
<text xml:space="preserve" text-anchor="start" x="293.5" y="-650.25" font-family="Helvetica,sans-Serif" font-size="10.00"> </text>
<polygon fill="#666666" stroke="#666666" points="288,-677 288,-677 302,-677 302,-677 288,-677"/>
<polygon fill="#666666" stroke="#666666" points="288,-661.75 288,-661.75 302,-661.75 302,-661.75 288,-661.75"/>
<polygon fill="none" stroke="#666666" points="288,-644.5 288,-694.25 302,-694.25 302,-644.5 288,-644.5"/>
</a>
</g>
</g>
<!-- Node5&#45;&gt;Node4 -->
<g id="edge4_Node000004_Node000005" class="edge">
<title>Node5&#45;&gt;Node4</title>
<g id="a_edge4_Node000004_Node000005"><a xlink:title=" ">
<path fill="none" stroke="#63b8ff" d="M295,-644.79C295,-616.39 295,-568.37 295,-535.19"/>
<polygon fill="none" stroke="#63b8ff" points="295,-535.31 291,-529.31 295,-523.31 299,-529.31 295,-535.31"/>
</a>
</g>
<text xml:space="preserve" text-anchor="start" x="298" y="-614" font-family="Helvetica,sans-Serif" font-size="10.00" fill="grey">+elements</text>
</g>
<!-- Node6&#45;&gt;Node1 -->
<g id="edge5_Node000001_Node000006" class="edge">
<title>Node6&#45;&gt;Node1</title>
<g id="a_edge5_Node000001_Node000006"><a xlink:title=" ">
<path fill="none" stroke="#63b8ff" d="M178.43,-273.15C183.05,-257.22 189.1,-236.34 195.38,-214.67"/>
<polygon fill="none" stroke="#63b8ff" points="195.4,-214.6 193.23,-207.73 198.74,-203.08 200.91,-209.95 195.4,-214.6"/>
</a>
</g>
<text xml:space="preserve" text-anchor="start" x="195.1" y="-225" font-family="Helvetica,sans-Serif" font-size="10.00" fill="grey">&#45;_dense</text>
</g>
<!-- Node7 -->
<g id="Node000007" class="node">
<title>Node7</title>
<g id="a_Node000007"><a xlink:href="classrtp_1_1ecs_1_1Entity.html" target="_top" xlink:title="Represents an entity in the ECS (Entity&#45;Component&#45;System) architecture.">
<polygon fill="white" stroke="none" points="166.12,-591.25 49.88,-591.25 49.88,-404.25 166.12,-404.25 166.12,-591.25"/>
<text xml:space="preserve" text-anchor="start" x="75.75" y="-577.75" font-family="Helvetica,sans-Serif" font-size="10.00">rtp::ecs::Entity</text>
<text xml:space="preserve" text-anchor="start" x="53.88" y="-562.5" font-family="Helvetica,sans-Serif" font-size="10.00">+</text>
<text xml:space="preserve" text-anchor="start" x="63.88" y="-562.5" font-family="Helvetica,sans-Serif" font-size="10.00">MAX_INDEX</text>
<text xml:space="preserve" text-anchor="start" x="53.88" y="-547.25" font-family="Helvetica,sans-Serif" font-size="10.00">+</text>
<text xml:space="preserve" text-anchor="start" x="63.88" y="-547.25" font-family="Helvetica,sans-Serif" font-size="10.00">INDEX_MASK</text>
<text xml:space="preserve" text-anchor="start" x="53.88" y="-532" font-family="Helvetica,sans-Serif" font-size="10.00">+</text>
<text xml:space="preserve" text-anchor="start" x="63.88" y="-532" font-family="Helvetica,sans-Serif" font-size="10.00">GEN_SHIFT</text>
<text xml:space="preserve" text-anchor="start" x="55.38" y="-516.75" font-family="Helvetica,sans-Serif" font-size="10.00">&#45;</text>
<text xml:space="preserve" text-anchor="start" x="63.88" y="-516.75" font-family="Helvetica,sans-Serif" font-size="10.00">_id</text>
<text xml:space="preserve" text-anchor="start" x="53.88" y="-501.5" font-family="Helvetica,sans-Serif" font-size="10.00">+</text>
<text xml:space="preserve" text-anchor="start" x="63.88" y="-501.5" font-family="Helvetica,sans-Serif" font-size="10.00">Entity()</text>
<text xml:space="preserve" text-anchor="start" x="53.88" y="-486.25" font-family="Helvetica,sans-Serif" font-size="10.00">+</text>
<text xml:space="preserve" text-anchor="start" x="63.88" y="-486.25" font-family="Helvetica,sans-Serif" font-size="10.00">Entity()</text>
<text xml:space="preserve" text-anchor="start" x="53.88" y="-471" font-family="Helvetica,sans-Serif" font-size="10.00">+</text>
<text xml:space="preserve" text-anchor="start" x="63.88" y="-471" font-family="Helvetica,sans-Serif" font-size="10.00">index()</text>
<text xml:space="preserve" text-anchor="start" x="53.88" y="-455.75" font-family="Helvetica,sans-Serif" font-size="10.00">+</text>
<text xml:space="preserve" text-anchor="start" x="63.88" y="-455.75" font-family="Helvetica,sans-Serif" font-size="10.00">generation()</text>
<text xml:space="preserve" text-anchor="start" x="53.88" y="-440.5" font-family="Helvetica,sans-Serif" font-size="10.00">+</text>
<text xml:space="preserve" text-anchor="start" x="63.88" y="-440.5" font-family="Helvetica,sans-Serif" font-size="10.00">operator&lt;=&gt;()</text>
<text xml:space="preserve" text-anchor="start" x="53.88" y="-425.25" font-family="Helvetica,sans-Serif" font-size="10.00">+</text>
<text xml:space="preserve" text-anchor="start" x="63.88" y="-425.25" font-family="Helvetica,sans-Serif" font-size="10.00">operator std::uint64_t()</text>
<text xml:space="preserve" text-anchor="start" x="53.88" y="-410" font-family="Helvetica,sans-Serif" font-size="10.00">+</text>
<text xml:space="preserve" text-anchor="start" x="63.88" y="-410" font-family="Helvetica,sans-Serif" font-size="10.00">isNull()</text>
<polygon fill="#666666" stroke="#666666" points="49.88,-574 49.88,-574 166.12,-574 166.12,-574 49.88,-574"/>
<polygon fill="#666666" stroke="#666666" points="49.88,-513 49.88,-513 61.88,-513 61.88,-513 49.88,-513"/>
<polygon fill="#666666" stroke="#666666" points="61.88,-513 61.88,-513 166.12,-513 166.12,-513 61.88,-513"/>
<polygon fill="none" stroke="#666666" points="49.88,-404.25 49.88,-591.25 166.12,-591.25 166.12,-404.25 49.88,-404.25"/>
</a>
</g>
</g>
<!-- Node7&#45;&gt;Node6 -->
<g id="edge6_Node000006_Node000007" class="edge">
<title>Node7&#45;&gt;Node6</title>
<g id="a_edge6_Node000006_Node000007"><a xlink:title=" ">
<path fill="none" stroke="#63b8ff" d="M100.77,-404.42C102.15,-392.23 104.79,-380.12 109.25,-369 112.96,-359.75 118.68,-351.03 125.15,-343.18"/>
<polygon fill="none" stroke="#63b8ff" points="125.03,-343.32 126.06,-336.18 133.05,-334.39 132.01,-341.53 125.03,-343.32"/>
</a>
</g>
<text xml:space="preserve" text-anchor="start" x="112.25" y="-373.75" font-family="Helvetica,sans-Serif" font-size="10.00" fill="grey">+elements</text>
</g>
<!-- Node8&#45;&gt;Node1 -->
<g id="edge8_Node000001_Node000008" class="edge">
<title>Node8&#45;&gt;Node1</title>
<g id="a_edge8_Node000001_Node000008"><a xlink:title=" ">
<path fill="none" stroke="#63b8ff" d="M372.43,-273.15C352.93,-250.06 324.66,-216.59 298.3,-185.37"/>
<polygon fill="none" stroke="#63b8ff" points="298.51,-185.62 291.58,-183.62 290.77,-176.45 297.7,-178.46 298.51,-185.62"/>
</a>
</g>
<text xml:space="preserve" text-anchor="start" x="340.51" y="-225" font-family="Helvetica,sans-Serif" font-size="10.00" fill="grey">&#45;_data</text>
</g>
</g>
</svg>

<g id="navigator" transform="translate(0 0)" fill="#404254">
  <rect fill="#f2f5e9" fill-opacity="0.5" stroke="#606060" stroke-width=".5" x="0" y="0" width="60" height="60"/>
  <use id="zoomplus" xlink:href="#zoomPlus" x="17" y="9" onmousedown="handleZoom(evt,'in')"/>
  <use id="zoomminus" xlink:href="#zoomMin" x="42" y="9" onmousedown="handleZoom(evt,'out')"/>
  <use id="reset" xlink:href="#resetDef" x="30" y="36" onmousedown="handleReset()"/>
   <use id="arrowup" xlink:href="#arrowUp" x="0" y="0" onmousedown="handlePan(0,-1)"/>
  <use id="arrowright" xlink:href="#arrowRight" x="0" y="0" onmousedown="handlePan(1,0)"/>
  <use id="arrowdown" xlink:href="#arrowDown" x="0" y="0" onmousedown="handlePan(0,1)"/>
  <use id="arrowleft" xlink:href="#arrowLeft" x="0" y="0" onmousedown="handlePan(-1,0)"/>
</g>
<svg viewBox="0 0 15 15" width="100%" height="30px" preserveAspectRatio="xMaxYMin meet">
 <g id="arrow_out" transform="scale(0.3 0.3)">
  <a xlink:href="classrtp_1_1ecs_1_1SparseArray__coll__graph_org.svg" target="_base">
   <rect id="button" ry="5" rx="5" y="6" x="6" height="38" width="38"
        fill="#f2f5e9" fill-opacity="0.5" stroke="#606060" stroke-width="1.0"/>
   <path id="arrow"
     d="M 11.500037,31.436501 C 11.940474,20.09759 22.043105,11.32322 32.158766,21.979434 L 37.068811,17.246167 C 37.068811,17.246167 37.088388,32 37.088388,32 L 22.160133,31.978069 C 22.160133,31.978069 26.997745,27.140456 26.997745,27.140456 C 18.528582,18.264221 13.291696,25.230495 11.500037,31.436501 z"
     style="fill:#404040;"/>
  </a>
 </g>
</svg>

<style type='text/css'>
<![CDATA[
[data-mouse-over-selected='false'] { opacity: 0.7; }
[data-mouse-over-selected='true']  { opacity: 1.0; }
]]>
</style>
<script type="application/ecmascript"><![CDATA[
document.addEventListener('DOMContentLoaded', (event) => {
  highlightEdges();
  highlightAdjacentNodes();
});
]]></script>
</svg>
