<?xml version="1.0" encoding="UTF-8" standalone="no"?>
<!DOCTYPE svg PUBLIC "-//W3C//DTD SVG 1.1//EN"
 "http://www.w3.org/Graphics/SVG/1.1/DTD/svg11.dtd">
<!-- Generated by graphviz version 14.0.5 (20251129.0259)
 -->
<!-- Title: rtp::client::TranslationManager Pages: 1 -->
<!--zoomable 515 -->

<svg id="main" version="1.1" xmlns="http://www.w3.org/2000/svg" xmlns:xlink="http://www.w3.org/1999/xlink" xml:space="preserve" onload="init(evt)">

<style type="text/css"><![CDATA[
.node, .edge {opacity: 0.7;}
.node.selected, .edge.selected {opacity: 1;}
.edge:hover path { stroke: red; }
.edge:hover polygon { stroke: red; fill: red; }
]]></style>

<defs>
  <circle id="rim" cx="0" cy="0" r="7"/>
  <circle id="rim2" cx="0" cy="0" r="3.5"/>
  <g id="zoomPlus">
    <use xlink:href="#rim" fill="#404040"><set attributeName="fill" to="#808080" begin="zoomplus.mouseover" end="zoomplus.mouseout"/></use>
    <path d="M-4,0h8M0,-4v8" fill="none" stroke="white" stroke-width="1.5" pointer-events="none"/>
  </g>
  <g id="zoomMin">
    <use xlink:href="#rim" fill="#404040"><set attributeName="fill" to="#808080" begin="zoomminus.mouseover" end="zoomminus.mouseout"/></use>
    <path d="M-4,0h8" fill="none" stroke="white" stroke-width="1.5" pointer-events="none"/>
  </g>
  <g id="arrowUp" transform="translate(30 24)">
    <use xlink:href="#rim"/>
    <path pointer-events="none" fill="none" stroke="white" stroke-width="1.5" d="M0,-3.0v7 M-2.5,-0.5L0,-3.0L2.5,-0.5"/>
  </g>
  <g id="arrowRight" transform="rotate(90) translate(36 -43)">
    <use xlink:href="#rim"/>
    <path pointer-events="none" fill="none" stroke="white" stroke-width="1.5" d="M0,-3.0v7 M-2.5,-0.5L0,-3.0L2.5,-0.5"/>
  </g>
  <g id="arrowDown" transform="rotate(180) translate(-30 -48)">
    <use xlink:href="#rim"/>
    <path pointer-events="none" fill="none" stroke="white" stroke-width="1.5" d="M0,-3.0v7 M-2.5,-0.5L0,-3.0L2.5,-0.5"/>
  </g>
  <g id="arrowLeft" transform="rotate(270) translate(-36 17)">
    <use xlink:href="#rim"/>
    <path pointer-events="none" fill="none" stroke="white" stroke-width="1.5" d="M0,-3.0v7 M-2.5,-0.5L0,-3.0L2.5,-0.5"/>
  </g>
  <g id="resetDef">
    <use xlink:href="#rim2" fill="#404040"><set attributeName="fill" to="#808080" begin="reset.mouseover" end="reset.mouseout"/></use>
  </g>
</defs>
<script type="application/ecmascript">
var viewWidth = 222;
var viewHeight = 515;
var sectionId = 'dynsection-0';
</script>
<script type="application/ecmascript" xlink:href="svg.min.js"/>
<svg id="graph" class="graph">
<g id="viewport">
<title>rtp::client::TranslationManager</title>
<!-- Node1 -->
<g id="Node000001" class="node">
<title>Node1</title>
<g id="a_Node000001"><a xlink:title="Manages game translations for all UI elements.">
<polygon fill="#999999" stroke="none" points="145.75,-137.25 30.25,-137.25 30.25,0 145.75,0 145.75,-137.25"/>
<text xml:space="preserve" text-anchor="start" x="40.75" y="-123.75" font-family="Helvetica,sans-Serif" font-size="10.00">rtp::client::Translation</text>
<text xml:space="preserve" text-anchor="start" x="69.25" y="-112.5" font-family="Helvetica,sans-Serif" font-size="10.00">Manager</text>
<text xml:space="preserve" text-anchor="start" x="35.75" y="-97.25" font-family="Helvetica,sans-Serif" font-size="10.00">&#45;</text>
<text xml:space="preserve" text-anchor="start" x="44.25" y="-97.25" font-family="Helvetica,sans-Serif" font-size="10.00">_currentLanguage</text>
<text xml:space="preserve" text-anchor="start" x="34.25" y="-82" font-family="Helvetica,sans-Serif" font-size="10.00">+</text>
<text xml:space="preserve" text-anchor="start" x="44.25" y="-82" font-family="Helvetica,sans-Serif" font-size="10.00">TranslationManager()</text>
<text xml:space="preserve" text-anchor="start" x="34.25" y="-66.75" font-family="Helvetica,sans-Serif" font-size="10.00">+</text>
<text xml:space="preserve" text-anchor="start" x="44.25" y="-66.75" font-family="Helvetica,sans-Serif" font-size="10.00">loadLanguage()</text>
<text xml:space="preserve" text-anchor="start" x="34.25" y="-51.5" font-family="Helvetica,sans-Serif" font-size="10.00">+</text>
<text xml:space="preserve" text-anchor="start" x="44.25" y="-51.5" font-family="Helvetica,sans-Serif" font-size="10.00">get()</text>
<text xml:space="preserve" text-anchor="start" x="34.25" y="-36.25" font-family="Helvetica,sans-Serif" font-size="10.00">+</text>
<text xml:space="preserve" text-anchor="start" x="44.25" y="-36.25" font-family="Helvetica,sans-Serif" font-size="10.00">getf()</text>
<text xml:space="preserve" text-anchor="start" x="34.25" y="-21" font-family="Helvetica,sans-Serif" font-size="10.00">+</text>
<text xml:space="preserve" text-anchor="start" x="44.25" y="-21" font-family="Helvetica,sans-Serif" font-size="10.00">getCurrentLanguage()</text>
<text xml:space="preserve" text-anchor="start" x="35.75" y="-5.75" font-family="Helvetica,sans-Serif" font-size="10.00">&#45;</text>
<text xml:space="preserve" text-anchor="start" x="44.25" y="-5.75" font-family="Helvetica,sans-Serif" font-size="10.00">getLanguageFilePath()</text>
<polygon fill="#666666" stroke="#666666" points="30.25,-108.75 30.25,-108.75 145.75,-108.75 145.75,-108.75 30.25,-108.75"/>
<polygon fill="#666666" stroke="#666666" points="30.25,-93.5 30.25,-93.5 42.25,-93.5 42.25,-93.5 30.25,-93.5"/>
<polygon fill="#666666" stroke="#666666" points="42.25,-93.5 42.25,-93.5 145.75,-93.5 145.75,-93.5 42.25,-93.5"/>
<polygon fill="none" stroke="#666666" points="30.25,0 30.25,-137.25 145.75,-137.25 145.75,0 30.25,0"/>
</a>
</g>
</g>
<!-- Node2 -->
<g id="Node000002" class="node">
<title>Node2</title>
<g id="a_Node000002"><a xlink:title=" ">
<polygon fill="white" stroke="none" points="135.12,-262.75 40.88,-262.75 40.88,-190.5 135.12,-190.5 135.12,-262.75"/>
<text xml:space="preserve" text-anchor="start" x="44.88" y="-249.25" font-family="Helvetica,sans-Serif" font-size="10.00">std::unordered_map</text>
<text xml:space="preserve" text-anchor="start" x="44.88" y="-238" font-family="Helvetica,sans-Serif" font-size="10.00">&lt; std::string, std::</text>
<text xml:space="preserve" text-anchor="start" x="71.5" y="-226.75" font-family="Helvetica,sans-Serif" font-size="10.00">string &gt;</text>
<text xml:space="preserve" text-anchor="start" x="86.5" y="-211.5" font-family="Helvetica,sans-Serif" font-size="10.00"> </text>
<text xml:space="preserve" text-anchor="start" x="86.5" y="-196.25" font-family="Helvetica,sans-Serif" font-size="10.00"> </text>
<polygon fill="#666666" stroke="#666666" points="40.88,-223 40.88,-223 135.12,-223 135.12,-223 40.88,-223"/>
<polygon fill="#666666" stroke="#666666" points="40.88,-207.75 40.88,-207.75 135.12,-207.75 135.12,-207.75 40.88,-207.75"/>
<polygon fill="none" stroke="#666666" points="40.88,-190.5 40.88,-262.75 135.12,-262.75 135.12,-190.5 40.88,-190.5"/>
</a>
</g>
</g>
<!-- Node2&#45;&gt;Node1 -->
<g id="edge1_Node000001_Node000002" class="edge">
<title>Node2&#45;&gt;Node1</title>
<g id="a_edge1_Node000001_Node000002"><a xlink:title=" ">
<path fill="none" stroke="#63b8ff" d="M88,-190.62C88,-178.51 88,-164.4 88,-150.17"/>
<polygon fill="none" stroke="#63b8ff" points="88,-150.03 84,-144.03 88,-138.03 92,-144.03 88,-150.03"/>
</a>
</g>
<text xml:space="preserve" text-anchor="start" x="91" y="-160" font-family="Helvetica,sans-Serif" font-size="10.00" fill="grey">&#45;_translations</text>
</g>
<!-- Node3 -->
<g id="Node000003" class="node">
<title>Node3</title>
<g id="a_Node000003"><a xlink:title=" ">
<polygon fill="white" stroke="none" points="68.75,-386.62 17.25,-386.62 17.25,-336.88 68.75,-336.88 68.75,-386.62"/>
<text xml:space="preserve" text-anchor="start" x="21.25" y="-373.12" font-family="Helvetica,sans-Serif" font-size="10.00">std::string</text>
<text xml:space="preserve" text-anchor="start" x="41.5" y="-357.88" font-family="Helvetica,sans-Serif" font-size="10.00"> </text>
<text xml:space="preserve" text-anchor="start" x="41.5" y="-342.62" font-family="Helvetica,sans-Serif" font-size="10.00"> </text>
<polygon fill="#666666" stroke="#666666" points="17.25,-369.38 17.25,-369.38 68.75,-369.38 68.75,-369.38 17.25,-369.38"/>
<polygon fill="#666666" stroke="#666666" points="17.25,-354.12 17.25,-354.12 68.75,-354.12 68.75,-354.12 17.25,-354.12"/>
<polygon fill="none" stroke="#666666" points="17.25,-336.88 17.25,-386.62 68.75,-386.62 68.75,-336.88 17.25,-336.88"/>
</a>
</g>
</g>
<!-- Node3&#45;&gt;Node2 -->
<g id="edge2_Node000002_Node000003" class="edge">
<title>Node3&#45;&gt;Node2</title>
<g id="a_edge2_Node000002_Node000003"><a xlink:title=" ">
<path fill="none" stroke="#63b8ff" d="M44.59,-337.05C46.23,-320.81 49.56,-298.99 56.25,-280.75 57.05,-278.57 57.94,-276.39 58.89,-274.21"/>
<polygon fill="none" stroke="#63b8ff" points="58.86,-274.29 57.93,-267.14 64.17,-263.53 65.1,-270.68 58.86,-274.29"/>
</a>
</g>
<text xml:space="preserve" text-anchor="start" x="59.25" y="-300.75" font-family="Helvetica,sans-Serif" font-size="10.00" fill="grey">+elements</text>
<text xml:space="preserve" text-anchor="start" x="59.25" y="-285.5" font-family="Helvetica,sans-Serif" font-size="10.00" fill="grey">+keys</text>
</g>
<!-- Node4 -->
<g id="Node000004" class="node">
<title>Node4</title>
<g id="a_Node000004"><a xlink:title=" ">
<polygon fill="white" stroke="none" points="86,-506.5 0,-506.5 0,-445.5 86,-445.5 86,-506.5"/>
<text xml:space="preserve" text-anchor="start" x="4" y="-493" font-family="Helvetica,sans-Serif" font-size="10.00">std::basic_string&lt;</text>
<text xml:space="preserve" text-anchor="start" x="26.5" y="-481.75" font-family="Helvetica,sans-Serif" font-size="10.00"> Char &gt;</text>
<text xml:space="preserve" text-anchor="start" x="41.5" y="-466.5" font-family="Helvetica,sans-Serif" font-size="10.00"> </text>
<text xml:space="preserve" text-anchor="start" x="41.5" y="-451.25" font-family="Helvetica,sans-Serif" font-size="10.00"> </text>
<polygon fill="#666666" stroke="#666666" points="0,-478 0,-478 86,-478 86,-478 0,-478"/>
<polygon fill="#666666" stroke="#666666" points="0,-462.75 0,-462.75 86,-462.75 86,-462.75 0,-462.75"/>
<polygon fill="none" stroke="#666666" points="0,-445.5 0,-506.5 86,-506.5 86,-445.5 0,-445.5"/>
</a>
</g>
</g>
<!-- Node4&#45;&gt;Node3 -->
<g id="edge3_Node000003_Node000004" class="edge">
<title>Node4&#45;&gt;Node3</title>
<g id="a_edge3_Node000003_Node000004"><a xlink:title=" ">
<path fill="none" stroke="#63b8ff" d="M43,-434.21C43,-418.14 43,-400.25 43,-386.39"/>
<polygon fill="none" stroke="#63b8ff" points="39.5,-433.99 43,-443.99 46.5,-433.99 39.5,-433.99"/>
</a>
</g>
</g>
<!-- Node5 -->
<g id="Node000005" class="node">
<title>Node5</title>
<g id="a_Node000005"><a xlink:title=" ">
<polygon fill="white" stroke="none" points="181.12,-392.25 86.88,-392.25 86.88,-331.25 181.12,-331.25 181.12,-392.25"/>
<text xml:space="preserve" text-anchor="start" x="90.88" y="-378.75" font-family="Helvetica,sans-Serif" font-size="10.00">std::unordered_map</text>
<text xml:space="preserve" text-anchor="start" x="115.62" y="-367.5" font-family="Helvetica,sans-Serif" font-size="10.00">&lt; K, T &gt;</text>
<text xml:space="preserve" text-anchor="start" x="132.5" y="-352.25" font-family="Helvetica,sans-Serif" font-size="10.00"> </text>
<text xml:space="preserve" text-anchor="start" x="132.5" y="-337" font-family="Helvetica,sans-Serif" font-size="10.00"> </text>
<polygon fill="#666666" stroke="#666666" points="86.88,-363.75 86.88,-363.75 181.12,-363.75 181.12,-363.75 86.88,-363.75"/>
<polygon fill="#666666" stroke="#666666" points="86.88,-348.5 86.88,-348.5 181.12,-348.5 181.12,-348.5 86.88,-348.5"/>
<polygon fill="none" stroke="#666666" points="86.88,-331.25 86.88,-392.25 181.12,-392.25 181.12,-331.25 86.88,-331.25"/>
</a>
</g>
</g>
<!-- Node5&#45;&gt;Node2 -->
<g id="edge4_Node000002_Node000005" class="edge">
<title>Node5&#45;&gt;Node2</title>
<g id="a_edge4_Node000002_Node000005"><a xlink:title=" ">
<path fill="none" stroke="orange" d="M121.34,-320.58C117.21,-307.81 112.52,-293.65 108,-280.75 105.95,-274.89 103.69,-268.7 101.46,-262.69"/>
<polygon fill="orange" stroke="orange" points="117.96,-321.49 124.35,-329.94 124.62,-319.35 117.96,-321.49"/>
</a>
</g>
<text xml:space="preserve" text-anchor="start" x="121.36" y="-300.75" font-family="Helvetica,sans-Serif" font-size="10.00" fill="grey">&lt; std::string, std</text>
<text xml:space="preserve" text-anchor="start" x="121.36" y="-285.5" font-family="Helvetica,sans-Serif" font-size="10.00" fill="grey">  ::string &gt;</text>
</g>
<!-- Node6 -->
<g id="Node000006" class="node">
<title>Node6</title>
<g id="a_Node000006"><a xlink:title=" ">
<polygon fill="white" stroke="none" points="129.38,-500.88 114.62,-500.88 114.62,-451.12 129.38,-451.12 129.38,-500.88"/>
<text xml:space="preserve" text-anchor="start" x="118.62" y="-487.38" font-family="Helvetica,sans-Serif" font-size="10.00">K</text>
<text xml:space="preserve" text-anchor="start" x="120.5" y="-472.12" font-family="Helvetica,sans-Serif" font-size="10.00"> </text>
<text xml:space="preserve" text-anchor="start" x="120.5" y="-456.88" font-family="Helvetica,sans-Serif" font-size="10.00"> </text>
<polygon fill="#666666" stroke="#666666" points="114.62,-483.62 114.62,-483.62 129.38,-483.62 129.38,-483.62 114.62,-483.62"/>
<polygon fill="#666666" stroke="#666666" points="114.62,-468.38 114.62,-468.38 129.38,-468.38 129.38,-468.38 114.62,-468.38"/>
<polygon fill="none" stroke="#666666" points="114.62,-451.12 114.62,-500.88 129.38,-500.88 129.38,-451.12 114.62,-451.12"/>
</a>
</g>
</g>
<!-- Node6&#45;&gt;Node5 -->
<g id="edge5_Node000005_Node000006" class="edge">
<title>Node6&#45;&gt;Node5</title>
<g id="a_edge5_Node000005_Node000006"><a xlink:title=" ">
<path fill="none" stroke="#63b8ff" d="M121.17,-451.24C121.04,-438.96 121.35,-423.75 123,-410.25 123.21,-408.5 123.46,-406.73 123.75,-404.94"/>
<polygon fill="none" stroke="#63b8ff" points="123.75,-404.9 120.94,-398.26 125.99,-393.11 128.8,-399.75 123.75,-404.9"/>
</a>
</g>
<text xml:space="preserve" text-anchor="start" x="126" y="-415" font-family="Helvetica,sans-Serif" font-size="10.00" fill="grey">+keys</text>
</g>
<!-- Node7 -->
<g id="Node000007" class="node">
<title>Node7</title>
<g id="a_Node000007"><a xlink:title=" ">
<polygon fill="white" stroke="none" points="185,-500.88 171,-500.88 171,-451.12 185,-451.12 185,-500.88"/>
<text xml:space="preserve" text-anchor="start" x="175" y="-487.38" font-family="Helvetica,sans-Serif" font-size="10.00">T</text>
<text xml:space="preserve" text-anchor="start" x="176.5" y="-472.12" font-family="Helvetica,sans-Serif" font-size="10.00"> </text>
<text xml:space="preserve" text-anchor="start" x="176.5" y="-456.88" font-family="Helvetica,sans-Serif" font-size="10.00"> </text>
<polygon fill="#666666" stroke="#666666" points="171,-483.62 171,-483.62 185,-483.62 185,-483.62 171,-483.62"/>
<polygon fill="#666666" stroke="#666666" points="171,-468.38 171,-468.38 185,-468.38 185,-468.38 171,-468.38"/>
<polygon fill="none" stroke="#666666" points="171,-451.12 171,-500.88 185,-500.88 185,-451.12 171,-451.12"/>
</a>
</g>
</g>
<!-- Node7&#45;&gt;Node5 -->
<g id="edge6_Node000005_Node000007" class="edge">
<title>Node7&#45;&gt;Node5</title>
<g id="a_edge6_Node000005_Node000007"><a xlink:title=" ">
<path fill="none" stroke="#63b8ff" d="M171.04,-452.61C166.97,-440.04 161.56,-424.14 156,-410.25 155.19,-408.22 154.33,-406.15 153.45,-404.07"/>
<polygon fill="none" stroke="#63b8ff" points="153.42,-403.99 147.34,-400.11 148.59,-393.01 154.66,-396.89 153.42,-403.99"/>
</a>
</g>
<text xml:space="preserve" text-anchor="start" x="164.98" y="-415" font-family="Helvetica,sans-Serif" font-size="10.00" fill="grey">+elements</text>
</g>
</g>
</svg>

<g id="navigator" transform="translate(0 0)" fill="#404254">
  <rect fill="#f2f5e9" fill-opacity="0.5" stroke="#606060" stroke-width=".5" x="0" y="0" width="60" height="60"/>
  <use id="zoomplus" xlink:href="#zoomPlus" x="17" y="9" onmousedown="handleZoom(evt,'in')"/>
  <use id="zoomminus" xlink:href="#zoomMin" x="42" y="9" onmousedown="handleZoom(evt,'out')"/>
  <use id="reset" xlink:href="#resetDef" x="30" y="36" onmousedown="handleReset()"/>
   <use id="arrowup" xlink:href="#arrowUp" x="0" y="0" onmousedown="handlePan(0,-1)"/>
  <use id="arrowright" xlink:href="#arrowRight" x="0" y="0" onmousedown="handlePan(1,0)"/>
  <use id="arrowdown" xlink:href="#arrowDown" x="0" y="0" onmousedown="handlePan(0,1)"/>
  <use id="arrowleft" xlink:href="#arrowLeft" x="0" y="0" onmousedown="handlePan(-1,0)"/>
</g>
<svg viewBox="0 0 15 15" width="100%" height="30px" preserveAspectRatio="xMaxYMin meet">
 <g id="arrow_out" transform="scale(0.3 0.3)">
  <a xlink:href="classrtp_1_1client_1_1TranslationManager__coll__graph_org.svg" target="_base">
   <rect id="button" ry="5" rx="5" y="6" x="6" height="38" width="38"
        fill="#f2f5e9" fill-opacity="0.5" stroke="#606060" stroke-width="1.0"/>
   <path id="arrow"
     d="M 11.500037,31.436501 C 11.940474,20.09759 22.043105,11.32322 32.158766,21.979434 L 37.068811,17.246167 C 37.068811,17.246167 37.088388,32 37.088388,32 L 22.160133,31.978069 C 22.160133,31.978069 26.997745,27.140456 26.997745,27.140456 C 18.528582,18.264221 13.291696,25.230495 11.500037,31.436501 z"
     style="fill:#404040;"/>
  </a>
 </g>
</svg>

<style type='text/css'>
<![CDATA[
[data-mouse-over-selected='false'] { opacity: 0.7; }
[data-mouse-over-selected='true']  { opacity: 1.0; }
]]>
</style>
<script type="application/ecmascript"><![CDATA[
document.addEventListener('DOMContentLoaded', (event) => {
  highlightEdges();
  highlightAdjacentNodes();
});
]]></script>
</svg>
