<?xml version="1.0" encoding="UTF-8" standalone="no"?>
<!DOCTYPE svg PUBLIC "-//W3C//DTD SVG 1.1//EN"
 "http://www.w3.org/Graphics/SVG/1.1/DTD/svg11.dtd">
<!-- Generated by graphviz version 14.0.5 (20251129.0259)
 -->
<!-- Title: rtp::server::CollisionSystem Pages: 1 -->
<svg width="138pt" height="296pt"
 viewBox="0.00 0.00 138.00 296.00" xmlns="http://www.w3.org/2000/svg" xmlns:xlink="http://www.w3.org/1999/xlink">
<g id="graph0" class="graph" transform="scale(1 1) rotate(0) translate(4 292)">
<title>rtp::server::CollisionSystem</title>
<!-- Node1 -->
<g id="Node000001" class="node">
<title>Node1</title>
<g id="a_Node000001"><a xlink:title=" ">
<polygon fill="#999999" stroke="none" points="129.5,-187 0,-187 0,0 129.5,0 129.5,-187"/>
<text xml:space="preserve" text-anchor="start" x="4" y="-173.5" font-family="Helvetica,sans-Serif" font-size="10.00">rtp::server::CollisionSystem</text>
<text xml:space="preserve" text-anchor="start" x="14.06" y="-158.25" font-family="Helvetica,sans-Serif" font-size="10.00">&#45;</text>
<text xml:space="preserve" text-anchor="start" x="31.12" y="-158.25" font-family="Helvetica,sans-Serif" font-size="10.00">_registry</text>
<text xml:space="preserve" text-anchor="start" x="14.06" y="-143" font-family="Helvetica,sans-Serif" font-size="10.00">&#45;</text>
<text xml:space="preserve" text-anchor="start" x="31.12" y="-143" font-family="Helvetica,sans-Serif" font-size="10.00">_roomSystem</text>
<text xml:space="preserve" text-anchor="start" x="14.06" y="-127.75" font-family="Helvetica,sans-Serif" font-size="10.00">&#45;</text>
<text xml:space="preserve" text-anchor="start" x="31.12" y="-127.75" font-family="Helvetica,sans-Serif" font-size="10.00">_networkSync</text>
<text xml:space="preserve" text-anchor="start" x="14.06" y="-112.5" font-family="Helvetica,sans-Serif" font-size="10.00">&#45;</text>
<text xml:space="preserve" text-anchor="start" x="31.12" y="-112.5" font-family="Helvetica,sans-Serif" font-size="10.00">_invincibleMode</text>
<text xml:space="preserve" text-anchor="start" x="12.56" y="-97.25" font-family="Helvetica,sans-Serif" font-size="10.00">+</text>
<text xml:space="preserve" text-anchor="start" x="31.12" y="-97.25" font-family="Helvetica,sans-Serif" font-size="10.00">CollisionSystem()</text>
<text xml:space="preserve" text-anchor="start" x="12.56" y="-82" font-family="Helvetica,sans-Serif" font-size="10.00">+</text>
<text xml:space="preserve" text-anchor="start" x="31.12" y="-82" font-family="Helvetica,sans-Serif" font-size="10.00">update()</text>
<text xml:space="preserve" text-anchor="start" x="12.56" y="-66.75" font-family="Helvetica,sans-Serif" font-size="10.00">+</text>
<text xml:space="preserve" text-anchor="start" x="31.12" y="-66.75" font-family="Helvetica,sans-Serif" font-size="10.00">setInvincible()</text>
<text xml:space="preserve" text-anchor="start" x="12.56" y="-51.5" font-family="Helvetica,sans-Serif" font-size="10.00">+</text>
<text xml:space="preserve" text-anchor="start" x="31.12" y="-51.5" font-family="Helvetica,sans-Serif" font-size="10.00">isInvincible()</text>
<text xml:space="preserve" text-anchor="start" x="14.06" y="-36.25" font-family="Helvetica,sans-Serif" font-size="10.00">&#45;</text>
<text xml:space="preserve" text-anchor="start" x="31.12" y="-36.25" font-family="Helvetica,sans-Serif" font-size="10.00">overlaps()</text>
<text xml:space="preserve" text-anchor="start" x="14.06" y="-21" font-family="Helvetica,sans-Serif" font-size="10.00">&#45;</text>
<text xml:space="preserve" text-anchor="start" x="31.12" y="-21" font-family="Helvetica,sans-Serif" font-size="10.00">despawn()</text>
<text xml:space="preserve" text-anchor="start" x="14.06" y="-5.75" font-family="Helvetica,sans-Serif" font-size="10.00">&#45;</text>
<text xml:space="preserve" text-anchor="start" x="31.12" y="-5.75" font-family="Helvetica,sans-Serif" font-size="10.00">spawnPowerup()</text>
<polygon fill="#666666" stroke="#666666" points="0,-169.75 0,-169.75 129.5,-169.75 129.5,-169.75 0,-169.75"/>
<polygon fill="#666666" stroke="#666666" points="0,-108.75 0,-108.75 29.12,-108.75 29.12,-108.75 0,-108.75"/>
<polygon fill="#666666" stroke="#666666" points="29.12,-108.75 29.12,-108.75 129.5,-108.75 129.5,-108.75 29.12,-108.75"/>
<polygon fill="none" stroke="#666666" points="0,0 0,-187 129.5,-187 129.5,0 0,0"/>
</a>
</g>
</g>
<!-- Node2 -->
<g id="Node000002" class="node">
<title>Node2</title>
<g id="a_Node000002"><a xlink:href="classrtp_1_1ecs_1_1ISystem.html" target="_top" xlink:title="Abstract base class for all ECS systems.">
<polygon fill="white" stroke="none" points="106.62,-288 22.88,-288 22.88,-223 106.62,-223 106.62,-288"/>
<text xml:space="preserve" text-anchor="start" x="26.88" y="-274.5" font-family="Helvetica,sans-Serif" font-size="10.00">rtp::ecs::ISystem</text>
<text xml:space="preserve" text-anchor="start" x="63.25" y="-259.25" font-family="Helvetica,sans-Serif" font-size="10.00"> </text>
<text xml:space="preserve" text-anchor="start" x="31.12" y="-244" font-family="Helvetica,sans-Serif" font-size="10.00">+</text>
<text xml:space="preserve" text-anchor="start" x="45.38" y="-244" font-family="Helvetica,sans-Serif" font-size="10.00">~ISystem()</text>
<text xml:space="preserve" text-anchor="start" x="31.12" y="-228.75" font-family="Helvetica,sans-Serif" font-size="10.00">+</text>
<text xml:space="preserve" text-anchor="start" x="45.38" y="-228.75" font-family="Helvetica,sans-Serif" font-size="10.00">update()</text>
<polygon fill="#666666" stroke="#666666" points="22.88,-270.75 22.88,-270.75 106.62,-270.75 106.62,-270.75 22.88,-270.75"/>
<polygon fill="#666666" stroke="#666666" points="22.88,-255.5 22.88,-255.5 106.62,-255.5 106.62,-255.5 22.88,-255.5"/>
<polygon fill="none" stroke="#666666" points="22.88,-223 22.88,-288 106.62,-288 106.62,-223 22.88,-223"/>
</a>
</g>
</g>
<!-- Node2&#45;&gt;Node1 -->
<g id="edge1_Node000001_Node000002" class="edge">
<title>Node2&#45;&gt;Node1</title>
<g id="a_edge1_Node000001_Node000002"><a xlink:title=" ">
<path fill="none" stroke="#63b8ff" d="M64.75,-211.87C64.75,-204.01 64.75,-195.52 64.75,-186.84"/>
<polygon fill="none" stroke="#63b8ff" points="61.25,-211.76 64.75,-221.76 68.25,-211.76 61.25,-211.76"/>
</a>
</g>
</g>
</g>
</svg>
