<?xml version="1.0" encoding="UTF-8" standalone="no"?>
<!DOCTYPE svg PUBLIC "-//W3C//DTD SVG 1.1//EN"
 "http://www.w3.org/Graphics/SVG/1.1/DTD/svg11.dtd">
<!-- Generated by graphviz version 14.0.5 (20251129.0259)
 -->
<!-- Title: rtp::client::Settings Pages: 1 -->
<!--zoomable 858 -->

<svg id="main" version="1.1" xmlns="http://www.w3.org/2000/svg" xmlns:xlink="http://www.w3.org/1999/xlink" xml:space="preserve" onload="init(evt)">

<style type="text/css"><![CDATA[
.node, .edge {opacity: 0.7;}
.node.selected, .edge.selected {opacity: 1;}
.edge:hover path { stroke: red; }
.edge:hover polygon { stroke: red; fill: red; }
]]></style>

<defs>
  <circle id="rim" cx="0" cy="0" r="7"/>
  <circle id="rim2" cx="0" cy="0" r="3.5"/>
  <g id="zoomPlus">
    <use xlink:href="#rim" fill="#404040"><set attributeName="fill" to="#808080" begin="zoomplus.mouseover" end="zoomplus.mouseout"/></use>
    <path d="M-4,0h8M0,-4v8" fill="none" stroke="white" stroke-width="1.5" pointer-events="none"/>
  </g>
  <g id="zoomMin">
    <use xlink:href="#rim" fill="#404040"><set attributeName="fill" to="#808080" begin="zoomminus.mouseover" end="zoomminus.mouseout"/></use>
    <path d="M-4,0h8" fill="none" stroke="white" stroke-width="1.5" pointer-events="none"/>
  </g>
  <g id="arrowUp" transform="translate(30 24)">
    <use xlink:href="#rim"/>
    <path pointer-events="none" fill="none" stroke="white" stroke-width="1.5" d="M0,-3.0v7 M-2.5,-0.5L0,-3.0L2.5,-0.5"/>
  </g>
  <g id="arrowRight" transform="rotate(90) translate(36 -43)">
    <use xlink:href="#rim"/>
    <path pointer-events="none" fill="none" stroke="white" stroke-width="1.5" d="M0,-3.0v7 M-2.5,-0.5L0,-3.0L2.5,-0.5"/>
  </g>
  <g id="arrowDown" transform="rotate(180) translate(-30 -48)">
    <use xlink:href="#rim"/>
    <path pointer-events="none" fill="none" stroke="white" stroke-width="1.5" d="M0,-3.0v7 M-2.5,-0.5L0,-3.0L2.5,-0.5"/>
  </g>
  <g id="arrowLeft" transform="rotate(270) translate(-36 17)">
    <use xlink:href="#rim"/>
    <path pointer-events="none" fill="none" stroke="white" stroke-width="1.5" d="M0,-3.0v7 M-2.5,-0.5L0,-3.0L2.5,-0.5"/>
  </g>
  <g id="resetDef">
    <use xlink:href="#rim2" fill="#404040"><set attributeName="fill" to="#808080" begin="reset.mouseover" end="reset.mouseout"/></use>
  </g>
</defs>
<script type="application/ecmascript">
var viewWidth = 476;
var viewHeight = 858;
var sectionId = 'dynsection-0';
</script>
<script type="application/ecmascript" xlink:href="svg.min.js"/>
<svg id="graph" class="graph">
<g id="viewport">
<title>rtp::client::Settings</title>
<!-- Node1 -->
<g id="Node000001" class="node">
<title>Node1</title>
<g id="a_Node000001"><a xlink:title="Manages game settings and preferences.">
<polygon fill="#999999" stroke="none" points="276.75,-446.25 150.75,-446.25 150.75,0 276.75,0 276.75,-446.25"/>
<text xml:space="preserve" text-anchor="start" x="172.5" y="-432.75" font-family="Helvetica,sans-Serif" font-size="10.00">rtp::client::Settings</text>
<text xml:space="preserve" text-anchor="start" x="156.25" y="-417.5" font-family="Helvetica,sans-Serif" font-size="10.00">&#45;</text>
<text xml:space="preserve" text-anchor="start" x="164.75" y="-417.5" font-family="Helvetica,sans-Serif" font-size="10.00">_masterVolume</text>
<text xml:space="preserve" text-anchor="start" x="156.25" y="-402.25" font-family="Helvetica,sans-Serif" font-size="10.00">&#45;</text>
<text xml:space="preserve" text-anchor="start" x="164.75" y="-402.25" font-family="Helvetica,sans-Serif" font-size="10.00">_musicVolume</text>
<text xml:space="preserve" text-anchor="start" x="156.25" y="-387" font-family="Helvetica,sans-Serif" font-size="10.00">&#45;</text>
<text xml:space="preserve" text-anchor="start" x="164.75" y="-387" font-family="Helvetica,sans-Serif" font-size="10.00">_sfxVolume</text>
<text xml:space="preserve" text-anchor="start" x="156.25" y="-371.75" font-family="Helvetica,sans-Serif" font-size="10.00">&#45;</text>
<text xml:space="preserve" text-anchor="start" x="164.75" y="-371.75" font-family="Helvetica,sans-Serif" font-size="10.00">_language</text>
<text xml:space="preserve" text-anchor="start" x="156.25" y="-356.5" font-family="Helvetica,sans-Serif" font-size="10.00">&#45;</text>
<text xml:space="preserve" text-anchor="start" x="164.75" y="-356.5" font-family="Helvetica,sans-Serif" font-size="10.00">_colorBlindMode</text>
<text xml:space="preserve" text-anchor="start" x="156.25" y="-341.25" font-family="Helvetica,sans-Serif" font-size="10.00">&#45;</text>
<text xml:space="preserve" text-anchor="start" x="164.75" y="-341.25" font-family="Helvetica,sans-Serif" font-size="10.00">_highContrast</text>
<text xml:space="preserve" text-anchor="start" x="156.25" y="-326" font-family="Helvetica,sans-Serif" font-size="10.00">&#45;</text>
<text xml:space="preserve" text-anchor="start" x="164.75" y="-326" font-family="Helvetica,sans-Serif" font-size="10.00">_difficulty</text>
<text xml:space="preserve" text-anchor="start" x="156.25" y="-310.75" font-family="Helvetica,sans-Serif" font-size="10.00">&#45;</text>
<text xml:space="preserve" text-anchor="start" x="164.75" y="-310.75" font-family="Helvetica,sans-Serif" font-size="10.00">_selectedWeapon</text>
<text xml:space="preserve" text-anchor="start" x="156.25" y="-295.5" font-family="Helvetica,sans-Serif" font-size="10.00">&#45;</text>
<text xml:space="preserve" text-anchor="start" x="164.75" y="-295.5" font-family="Helvetica,sans-Serif" font-size="10.00">_gamepadEnabled</text>
<text xml:space="preserve" text-anchor="start" x="156.25" y="-280.25" font-family="Helvetica,sans-Serif" font-size="10.00">&#45;</text>
<text xml:space="preserve" text-anchor="start" x="164.75" y="-280.25" font-family="Helvetica,sans-Serif" font-size="10.00">_gamepadDeadzone</text>
<text xml:space="preserve" text-anchor="start" x="156.25" y="-265" font-family="Helvetica,sans-Serif" font-size="10.00">&#45;</text>
<text xml:space="preserve" text-anchor="start" x="164.75" y="-265" font-family="Helvetica,sans-Serif" font-size="10.00">_gamepadShootButton</text>
<text xml:space="preserve" text-anchor="start" x="156.25" y="-249.75" font-family="Helvetica,sans-Serif" font-size="10.00">&#45;</text>
<text xml:space="preserve" text-anchor="start" x="164.75" y="-249.75" font-family="Helvetica,sans-Serif" font-size="10.00">_gamepadReloadButton</text>
<text xml:space="preserve" text-anchor="start" x="156.25" y="-234.5" font-family="Helvetica,sans-Serif" font-size="10.00">&#45;</text>
<text xml:space="preserve" text-anchor="start" x="164.75" y="-234.5" font-family="Helvetica,sans-Serif" font-size="10.00">_gamepadValidateButton</text>
<text xml:space="preserve" text-anchor="start" x="156.25" y="-219.25" font-family="Helvetica,sans-Serif" font-size="10.00">&#45;</text>
<text xml:space="preserve" text-anchor="start" x="164.75" y="-219.25" font-family="Helvetica,sans-Serif" font-size="10.00">_gamepadCursorSpeed</text>
<text xml:space="preserve" text-anchor="start" x="156.25" y="-204" font-family="Helvetica,sans-Serif" font-size="10.00">&#45;</text>
<text xml:space="preserve" text-anchor="start" x="164.75" y="-204" font-family="Helvetica,sans-Serif" font-size="10.00">_gamepadPauseButton</text>
<text xml:space="preserve" text-anchor="start" x="154.75" y="-188.75" font-family="Helvetica,sans-Serif" font-size="10.00">+</text>
<text xml:space="preserve" text-anchor="start" x="164.75" y="-188.75" font-family="Helvetica,sans-Serif" font-size="10.00">Settings()</text>
<text xml:space="preserve" text-anchor="start" x="154.75" y="-173.5" font-family="Helvetica,sans-Serif" font-size="10.00">+</text>
<text xml:space="preserve" text-anchor="start" x="164.75" y="-173.5" font-family="Helvetica,sans-Serif" font-size="10.00">getKey()</text>
<text xml:space="preserve" text-anchor="start" x="154.75" y="-158.25" font-family="Helvetica,sans-Serif" font-size="10.00">+</text>
<text xml:space="preserve" text-anchor="start" x="164.75" y="-158.25" font-family="Helvetica,sans-Serif" font-size="10.00">setKey()</text>
<text xml:space="preserve" text-anchor="start" x="154.75" y="-143" font-family="Helvetica,sans-Serif" font-size="10.00">+</text>
<text xml:space="preserve" text-anchor="start" x="164.75" y="-143" font-family="Helvetica,sans-Serif" font-size="10.00">getKeyName()</text>
<text xml:space="preserve" text-anchor="start" x="154.75" y="-127.75" font-family="Helvetica,sans-Serif" font-size="10.00">+</text>
<text xml:space="preserve" text-anchor="start" x="164.75" y="-127.75" font-family="Helvetica,sans-Serif" font-size="10.00">getMasterVolume()</text>
<text xml:space="preserve" text-anchor="start" x="154.75" y="-112.5" font-family="Helvetica,sans-Serif" font-size="10.00">+</text>
<text xml:space="preserve" text-anchor="start" x="164.75" y="-112.5" font-family="Helvetica,sans-Serif" font-size="10.00">setMasterVolume()</text>
<text xml:space="preserve" text-anchor="start" x="154.75" y="-97.25" font-family="Helvetica,sans-Serif" font-size="10.00">+</text>
<text xml:space="preserve" text-anchor="start" x="164.75" y="-97.25" font-family="Helvetica,sans-Serif" font-size="10.00">getMusicVolume()</text>
<text xml:space="preserve" text-anchor="start" x="154.75" y="-82" font-family="Helvetica,sans-Serif" font-size="10.00">+</text>
<text xml:space="preserve" text-anchor="start" x="164.75" y="-82" font-family="Helvetica,sans-Serif" font-size="10.00">setMusicVolume()</text>
<text xml:space="preserve" text-anchor="start" x="154.75" y="-66.75" font-family="Helvetica,sans-Serif" font-size="10.00">+</text>
<text xml:space="preserve" text-anchor="start" x="164.75" y="-66.75" font-family="Helvetica,sans-Serif" font-size="10.00">getSfxVolume()</text>
<text xml:space="preserve" text-anchor="start" x="154.75" y="-51.5" font-family="Helvetica,sans-Serif" font-size="10.00">+</text>
<text xml:space="preserve" text-anchor="start" x="164.75" y="-51.5" font-family="Helvetica,sans-Serif" font-size="10.00">setSfxVolume()</text>
<text xml:space="preserve" text-anchor="start" x="164.75" y="-36.25" font-family="Helvetica,sans-Serif" font-size="10.00">and 35 more...</text>
<text xml:space="preserve" text-anchor="start" x="156.25" y="-21" font-family="Helvetica,sans-Serif" font-size="10.00">&#45;</text>
<text xml:space="preserve" text-anchor="start" x="164.75" y="-21" font-family="Helvetica,sans-Serif" font-size="10.00">initDefaultKeyBindings()</text>
<text xml:space="preserve" text-anchor="start" x="156.25" y="-5.75" font-family="Helvetica,sans-Serif" font-size="10.00">&#45;</text>
<text xml:space="preserve" text-anchor="start" x="164.75" y="-5.75" font-family="Helvetica,sans-Serif" font-size="10.00">stringToKey()</text>
<polygon fill="#666666" stroke="#666666" points="150.75,-429 150.75,-429 276.75,-429 276.75,-429 150.75,-429"/>
<polygon fill="#666666" stroke="#666666" points="150.75,-200.25 150.75,-200.25 162.75,-200.25 162.75,-200.25 150.75,-200.25"/>
<polygon fill="#666666" stroke="#666666" points="162.75,-200.25 162.75,-200.25 276.75,-200.25 276.75,-200.25 162.75,-200.25"/>
<polygon fill="none" stroke="#666666" points="150.75,0 150.75,-446.25 276.75,-446.25 276.75,0 150.75,0"/>
</a>
</g>
</g>
<!-- Node2 -->
<g id="Node000002" class="node">
<title>Node2</title>
<g id="a_Node000002"><a xlink:title=" ">
<polygon fill="white" stroke="none" points="123.5,-617.5 0,-617.5 0,-530 123.5,-530 123.5,-617.5"/>
<text xml:space="preserve" text-anchor="start" x="4" y="-604" font-family="Helvetica,sans-Serif" font-size="10.00">std::unordered_map</text>
<text xml:space="preserve" text-anchor="start" x="4" y="-592.75" font-family="Helvetica,sans-Serif" font-size="10.00">&lt; KeyAction, sf::Keyboard</text>
<text xml:space="preserve" text-anchor="start" x="45.62" y="-581.5" font-family="Helvetica,sans-Serif" font-size="10.00">::Key &gt;</text>
<text xml:space="preserve" text-anchor="start" x="20.44" y="-566.25" font-family="Helvetica,sans-Serif" font-size="10.00">+</text>
<text xml:space="preserve" text-anchor="start" x="46.88" y="-566.25" font-family="Helvetica,sans-Serif" font-size="10.00">keys</text>
<text xml:space="preserve" text-anchor="start" x="20.44" y="-551" font-family="Helvetica,sans-Serif" font-size="10.00">+</text>
<text xml:space="preserve" text-anchor="start" x="46.88" y="-551" font-family="Helvetica,sans-Serif" font-size="10.00">elements</text>
<text xml:space="preserve" text-anchor="start" x="60.25" y="-535.75" font-family="Helvetica,sans-Serif" font-size="10.00"> </text>
<polygon fill="#666666" stroke="#666666" points="0,-577.75 0,-577.75 123.5,-577.75 123.5,-577.75 0,-577.75"/>
<polygon fill="#666666" stroke="#666666" points="0,-547.25 0,-547.25 44.88,-547.25 44.88,-547.25 0,-547.25"/>
<polygon fill="#666666" stroke="#666666" points="44.88,-547.25 44.88,-547.25 123.5,-547.25 123.5,-547.25 44.88,-547.25"/>
<polygon fill="none" stroke="#666666" points="0,-530 0,-617.5 123.5,-617.5 123.5,-530 0,-530"/>
</a>
</g>
</g>
<!-- Node2&#45;&gt;Node1 -->
<g id="edge1_Node000001_Node000002" class="edge">
<title>Node2&#45;&gt;Node1</title>
<g id="a_edge1_Node000001_Node000002"><a xlink:title=" ">
<path fill="none" stroke="#63b8ff" d="M80.39,-530C96.82,-492.32 121.8,-435.02 145.72,-380.16"/>
<polygon fill="none" stroke="#63b8ff" points="145.64,-380.33 144.38,-373.23 150.44,-369.33 151.71,-376.43 145.64,-380.33"/>
</a>
</g>
<text xml:space="preserve" text-anchor="start" x="109.66" y="-484.25" font-family="Helvetica,sans-Serif" font-size="10.00" fill="grey">&#45;_keyBindings</text>
</g>
<!-- Node3 -->
<g id="Node000003" class="node">
<title>Node3</title>
<g id="a_Node000003"><a xlink:title=" ">
<polygon fill="white" stroke="none" points="116.88,-747 22.62,-747 22.62,-686 116.88,-686 116.88,-747"/>
<text xml:space="preserve" text-anchor="start" x="26.62" y="-733.5" font-family="Helvetica,sans-Serif" font-size="10.00">std::unordered_map</text>
<text xml:space="preserve" text-anchor="start" x="51.38" y="-722.25" font-family="Helvetica,sans-Serif" font-size="10.00">&lt; K, T &gt;</text>
<text xml:space="preserve" text-anchor="start" x="68.25" y="-707" font-family="Helvetica,sans-Serif" font-size="10.00"> </text>
<text xml:space="preserve" text-anchor="start" x="68.25" y="-691.75" font-family="Helvetica,sans-Serif" font-size="10.00"> </text>
<polygon fill="#666666" stroke="#666666" points="22.62,-718.5 22.62,-718.5 116.88,-718.5 116.88,-718.5 22.62,-718.5"/>
<polygon fill="#666666" stroke="#666666" points="22.62,-703.25 22.62,-703.25 116.88,-703.25 116.88,-703.25 22.62,-703.25"/>
<polygon fill="none" stroke="#666666" points="22.62,-686 22.62,-747 116.88,-747 116.88,-686 22.62,-686"/>
</a>
</g>
</g>
<!-- Node3&#45;&gt;Node2 -->
<g id="edge2_Node000002_Node000003" class="edge">
<title>Node3&#45;&gt;Node2</title>
<g id="a_edge2_Node000002_Node000003"><a xlink:title=" ">
<path fill="none" stroke="orange" d="M67.45,-674.98C66.42,-656.88 65.21,-635.55 64.16,-617.23"/>
<polygon fill="orange" stroke="orange" points="63.94,-675.04 68.01,-684.83 70.93,-674.64 63.94,-675.04"/>
</a>
</g>
<text xml:space="preserve" text-anchor="start" x="69.93" y="-655.5" font-family="Helvetica,sans-Serif" font-size="10.00" fill="grey">&lt; KeyAction, sf::Keyboard</text>
<text xml:space="preserve" text-anchor="start" x="69.93" y="-640.25" font-family="Helvetica,sans-Serif" font-size="10.00" fill="grey">  ::Key &gt;</text>
</g>
<!-- Node4 -->
<g id="Node000004" class="node">
<title>Node4</title>
<g id="a_Node000004"><a xlink:title=" ">
<polygon fill="white" stroke="none" points="77.12,-850 62.38,-850 62.38,-800.25 77.12,-800.25 77.12,-850"/>
<text xml:space="preserve" text-anchor="start" x="66.38" y="-836.5" font-family="Helvetica,sans-Serif" font-size="10.00">K</text>
<text xml:space="preserve" text-anchor="start" x="68.25" y="-821.25" font-family="Helvetica,sans-Serif" font-size="10.00"> </text>
<text xml:space="preserve" text-anchor="start" x="68.25" y="-806" font-family="Helvetica,sans-Serif" font-size="10.00"> </text>
<polygon fill="#666666" stroke="#666666" points="62.38,-832.75 62.38,-832.75 77.12,-832.75 77.12,-832.75 62.38,-832.75"/>
<polygon fill="#666666" stroke="#666666" points="62.38,-817.5 62.38,-817.5 77.12,-817.5 77.12,-817.5 62.38,-817.5"/>
<polygon fill="none" stroke="#666666" points="62.38,-800.25 62.38,-850 77.12,-850 77.12,-800.25 62.38,-800.25"/>
</a>
</g>
</g>
<!-- Node4&#45;&gt;Node3 -->
<g id="edge3_Node000003_Node000004" class="edge">
<title>Node4&#45;&gt;Node3</title>
<g id="a_edge3_Node000003_Node000004"><a xlink:title=" ">
<path fill="none" stroke="#63b8ff" d="M69.75,-800.46C69.75,-788.47 69.75,-773.53 69.75,-759.66"/>
<polygon fill="none" stroke="#63b8ff" points="69.75,-759.71 65.75,-753.71 69.75,-747.71 73.75,-753.71 69.75,-759.71"/>
</a>
</g>
<text xml:space="preserve" text-anchor="start" x="72.75" y="-769.75" font-family="Helvetica,sans-Serif" font-size="10.00" fill="grey">+keys</text>
</g>
<!-- Node5 -->
<g id="Node000005" class="node">
<title>Node5</title>
<g id="a_Node000005"><a xlink:title=" ">
<polygon fill="white" stroke="none" points="178.75,-850 164.75,-850 164.75,-800.25 178.75,-800.25 178.75,-850"/>
<text xml:space="preserve" text-anchor="start" x="168.75" y="-836.5" font-family="Helvetica,sans-Serif" font-size="10.00">T</text>
<text xml:space="preserve" text-anchor="start" x="170.25" y="-821.25" font-family="Helvetica,sans-Serif" font-size="10.00"> </text>
<text xml:space="preserve" text-anchor="start" x="170.25" y="-806" font-family="Helvetica,sans-Serif" font-size="10.00"> </text>
<polygon fill="#666666" stroke="#666666" points="164.75,-832.75 164.75,-832.75 178.75,-832.75 178.75,-832.75 164.75,-832.75"/>
<polygon fill="#666666" stroke="#666666" points="164.75,-817.5 164.75,-817.5 178.75,-817.5 178.75,-817.5 164.75,-817.5"/>
<polygon fill="none" stroke="#666666" points="164.75,-800.25 164.75,-850 178.75,-850 178.75,-800.25 164.75,-800.25"/>
</a>
</g>
</g>
<!-- Node5&#45;&gt;Node3 -->
<g id="edge4_Node000003_Node000005" class="edge">
<title>Node5&#45;&gt;Node3</title>
<g id="a_edge4_Node000003_Node000005"><a xlink:title=" ">
<path fill="none" stroke="#63b8ff" d="M165.06,-817.13C153.35,-804.89 128.34,-778.74 106.87,-756.31"/>
<polygon fill="none" stroke="#63b8ff" points="106.86,-756.29 99.82,-754.72 98.57,-747.62 105.6,-749.19 106.86,-756.29"/>
</a>
</g>
<text xml:space="preserve" text-anchor="start" x="132.89" y="-769.75" font-family="Helvetica,sans-Serif" font-size="10.00" fill="grey">+elements</text>
</g>
<!-- Node7 -->
<g id="Node000007" class="node">
<title>Node7</title>
<g id="a_Node000007"><a xlink:title=" ">
<polygon fill="white" stroke="none" points="253,-741.38 174.5,-741.38 174.5,-691.62 253,-691.62 253,-741.38"/>
<text xml:space="preserve" text-anchor="start" x="178.5" y="-727.88" font-family="Helvetica,sans-Serif" font-size="10.00">std::vector&lt; T &gt;</text>
<text xml:space="preserve" text-anchor="start" x="212.25" y="-712.62" font-family="Helvetica,sans-Serif" font-size="10.00"> </text>
<text xml:space="preserve" text-anchor="start" x="212.25" y="-697.38" font-family="Helvetica,sans-Serif" font-size="10.00"> </text>
<polygon fill="#666666" stroke="#666666" points="174.5,-724.12 174.5,-724.12 253,-724.12 253,-724.12 174.5,-724.12"/>
<polygon fill="#666666" stroke="#666666" points="174.5,-708.88 174.5,-708.88 253,-708.88 253,-708.88 174.5,-708.88"/>
<polygon fill="none" stroke="#666666" points="174.5,-691.62 174.5,-741.38 253,-741.38 253,-691.62 174.5,-691.62"/>
</a>
</g>
</g>
<!-- Node5&#45;&gt;Node7 -->
<g id="edge7_Node000007_Node000005" class="edge">
<title>Node5&#45;&gt;Node7</title>
<g id="a_edge7_Node000007_Node000005"><a xlink:title=" ">
<path fill="none" stroke="#63b8ff" d="M178.6,-807.44C181.73,-799.78 185.46,-790.57 188.75,-782.25 192.48,-772.82 196.46,-762.6 200.12,-753.12"/>
<polygon fill="none" stroke="#63b8ff" points="200.07,-753.26 198.49,-746.22 204.38,-742.06 205.96,-749.1 200.07,-753.26"/>
</a>
</g>
<text xml:space="preserve" text-anchor="start" x="198.01" y="-769.75" font-family="Helvetica,sans-Serif" font-size="10.00" fill="grey">+elements</text>
</g>
<!-- Node6 -->
<g id="Node000006" class="node">
<title>Node6</title>
<g id="a_Node000006"><a xlink:title=" ">
<polygon fill="white" stroke="none" points="285.62,-598.62 141.88,-598.62 141.88,-548.88 285.62,-548.88 285.62,-598.62"/>
<text xml:space="preserve" text-anchor="start" x="145.88" y="-585.12" font-family="Helvetica,sans-Serif" font-size="10.00">std::vector&lt; VolumeCallback &gt;</text>
<text xml:space="preserve" text-anchor="start" x="167.38" y="-569.88" font-family="Helvetica,sans-Serif" font-size="10.00">+</text>
<text xml:space="preserve" text-anchor="start" x="198.88" y="-569.88" font-family="Helvetica,sans-Serif" font-size="10.00">elements</text>
<text xml:space="preserve" text-anchor="start" x="212.25" y="-554.62" font-family="Helvetica,sans-Serif" font-size="10.00"> </text>
<polygon fill="#666666" stroke="#666666" points="141.88,-581.38 141.88,-581.38 285.62,-581.38 285.62,-581.38 141.88,-581.38"/>
<polygon fill="#666666" stroke="#666666" points="141.88,-566.12 141.88,-566.12 196.88,-566.12 196.88,-566.12 141.88,-566.12"/>
<polygon fill="#666666" stroke="#666666" points="196.88,-566.12 196.88,-566.12 285.62,-566.12 285.62,-566.12 196.88,-566.12"/>
<polygon fill="none" stroke="#666666" points="141.88,-548.88 141.88,-598.62 285.62,-598.62 285.62,-548.88 141.88,-548.88"/>
</a>
</g>
</g>
<!-- Node6&#45;&gt;Node1 -->
<g id="edge5_Node000001_Node000006" class="edge">
<title>Node6&#45;&gt;Node1</title>
<g id="a_edge5_Node000001_Node000006"><a xlink:title=" ">
<path fill="none" stroke="#63b8ff" d="M213.75,-549.06C213.75,-528.2 213.75,-495.47 213.75,-458.65"/>
<polygon fill="none" stroke="#63b8ff" points="213.75,-458.92 209.75,-452.92 213.75,-446.92 217.75,-452.92 213.75,-458.92"/>
</a>
</g>
<text xml:space="preserve" text-anchor="start" x="216.75" y="-499.5" font-family="Helvetica,sans-Serif" font-size="10.00" fill="grey">&#45;_onMasterVolumeChanged</text>
<text xml:space="preserve" text-anchor="start" x="216.75" y="-484.25" font-family="Helvetica,sans-Serif" font-size="10.00" fill="grey">&#45;_onMusicVolumeChanged</text>
<text xml:space="preserve" text-anchor="start" x="216.75" y="-469" font-family="Helvetica,sans-Serif" font-size="10.00" fill="grey">&#45;_onSfxVolumeChanged</text>
</g>
<!-- Node7&#45;&gt;Node6 -->
<g id="edge6_Node000006_Node000007" class="edge">
<title>Node7&#45;&gt;Node6</title>
<g id="a_edge6_Node000006_Node000007"><a xlink:title=" ">
<path fill="none" stroke="orange" d="M213.75,-680.49C213.75,-654.89 213.75,-620.84 213.75,-598.39"/>
<polygon fill="orange" stroke="orange" points="210.25,-680.43 213.75,-690.43 217.25,-680.43 210.25,-680.43"/>
</a>
</g>
<text xml:space="preserve" text-anchor="start" x="216.75" y="-647.88" font-family="Helvetica,sans-Serif" font-size="10.00" fill="grey">&lt; VolumeCallback &gt;</text>
</g>
<!-- Node8 -->
<g id="Node000008" class="node">
<title>Node8</title>
<g id="a_Node000008"><a xlink:title=" ">
<polygon fill="white" stroke="none" points="456.12,-598.62 303.38,-598.62 303.38,-548.88 456.12,-548.88 456.12,-598.62"/>
<text xml:space="preserve" text-anchor="start" x="307.38" y="-585.12" font-family="Helvetica,sans-Serif" font-size="10.00">std::vector&lt; LanguageCallback &gt;</text>
<text xml:space="preserve" text-anchor="start" x="331.12" y="-569.88" font-family="Helvetica,sans-Serif" font-size="10.00">+</text>
<text xml:space="preserve" text-anchor="start" x="364.88" y="-569.88" font-family="Helvetica,sans-Serif" font-size="10.00">elements</text>
<text xml:space="preserve" text-anchor="start" x="378.25" y="-554.62" font-family="Helvetica,sans-Serif" font-size="10.00"> </text>
<polygon fill="#666666" stroke="#666666" points="303.38,-581.38 303.38,-581.38 456.12,-581.38 456.12,-581.38 303.38,-581.38"/>
<polygon fill="#666666" stroke="#666666" points="303.38,-566.12 303.38,-566.12 362.88,-566.12 362.88,-566.12 303.38,-566.12"/>
<polygon fill="#666666" stroke="#666666" points="362.88,-566.12 362.88,-566.12 456.12,-566.12 456.12,-566.12 362.88,-566.12"/>
<polygon fill="none" stroke="#666666" points="303.38,-548.88 303.38,-598.62 456.12,-598.62 456.12,-548.88 303.38,-548.88"/>
</a>
</g>
</g>
<!-- Node7&#45;&gt;Node8 -->
<g id="edge9_Node000008_Node000007" class="edge">
<title>Node7&#45;&gt;Node8</title>
<g id="a_edge9_Node000008_Node000007"><a xlink:title=" ">
<path fill="none" stroke="orange" d="M262.85,-697.77C279.76,-690.21 298.11,-680.27 312.75,-668 336.13,-648.41 355.49,-618.93 367.29,-598.37"/>
<polygon fill="orange" stroke="orange" points="261.77,-694.43 253.95,-701.57 264.52,-700.86 261.77,-694.43"/>
</a>
</g>
<text xml:space="preserve" text-anchor="start" x="345.6" y="-647.88" font-family="Helvetica,sans-Serif" font-size="10.00" fill="grey">&lt; LanguageCallback &gt;</text>
</g>
<!-- Node8&#45;&gt;Node1 -->
<g id="edge8_Node000001_Node000008" class="edge">
<title>Node8&#45;&gt;Node1</title>
<g id="a_edge8_Node000001_Node000008"><a xlink:title=" ">
<path fill="none" stroke="#63b8ff" d="M373.48,-549C367.27,-526.7 356.94,-492.62 344.75,-464.25 326.97,-422.85 304.37,-379.15 282.97,-340.55"/>
<polygon fill="none" stroke="#63b8ff" points="282.96,-340.53 276.55,-337.25 277.11,-330.06 283.53,-333.35 282.96,-340.53"/>
</a>
</g>
<text xml:space="preserve" text-anchor="start" x="365.09" y="-484.25" font-family="Helvetica,sans-Serif" font-size="10.00" fill="grey">&#45;_onLanguageChanged</text>
</g>
</g>
</svg>

<g id="navigator" transform="translate(0 0)" fill="#404254">
  <rect fill="#f2f5e9" fill-opacity="0.5" stroke="#606060" stroke-width=".5" x="0" y="0" width="60" height="60"/>
  <use id="zoomplus" xlink:href="#zoomPlus" x="17" y="9" onmousedown="handleZoom(evt,'in')"/>
  <use id="zoomminus" xlink:href="#zoomMin" x="42" y="9" onmousedown="handleZoom(evt,'out')"/>
  <use id="reset" xlink:href="#resetDef" x="30" y="36" onmousedown="handleReset()"/>
   <use id="arrowup" xlink:href="#arrowUp" x="0" y="0" onmousedown="handlePan(0,-1)"/>
  <use id="arrowright" xlink:href="#arrowRight" x="0" y="0" onmousedown="handlePan(1,0)"/>
  <use id="arrowdown" xlink:href="#arrowDown" x="0" y="0" onmousedown="handlePan(0,1)"/>
  <use id="arrowleft" xlink:href="#arrowLeft" x="0" y="0" onmousedown="handlePan(-1,0)"/>
</g>
<svg viewBox="0 0 15 15" width="100%" height="30px" preserveAspectRatio="xMaxYMin meet">
 <g id="arrow_out" transform="scale(0.3 0.3)">
  <a xlink:href="classrtp_1_1client_1_1Settings__coll__graph_org.svg" target="_base">
   <rect id="button" ry="5" rx="5" y="6" x="6" height="38" width="38"
        fill="#f2f5e9" fill-opacity="0.5" stroke="#606060" stroke-width="1.0"/>
   <path id="arrow"
     d="M 11.500037,31.436501 C 11.940474,20.09759 22.043105,11.32322 32.158766,21.979434 L 37.068811,17.246167 C 37.068811,17.246167 37.088388,32 37.088388,32 L 22.160133,31.978069 C 22.160133,31.978069 26.997745,27.140456 26.997745,27.140456 C 18.528582,18.264221 13.291696,25.230495 11.500037,31.436501 z"
     style="fill:#404040;"/>
  </a>
 </g>
</svg>

<style type='text/css'>
<![CDATA[
[data-mouse-over-selected='false'] { opacity: 0.7; }
[data-mouse-over-selected='true']  { opacity: 1.0; }
]]>
</style>
<script type="application/ecmascript"><![CDATA[
document.addEventListener('DOMContentLoaded', (event) => {
  highlightEdges();
  highlightAdjacentNodes();
});
]]></script>
</svg>
