<?xml version="1.0" encoding="UTF-8" standalone="no"?>
<!DOCTYPE svg PUBLIC "-//W3C//DTD SVG 1.1//EN"
 "http://www.w3.org/Graphics/SVG/1.1/DTD/svg11.dtd">
<!-- Generated by graphviz version 14.0.5 (20251129.0259)
 -->
<!-- Title: rtp::client::SpriteCustomizer Pages: 1 -->
<svg width="222pt" height="625pt"
 viewBox="0.00 0.00 222.00 625.00" xmlns="http://www.w3.org/2000/svg" xmlns:xlink="http://www.w3.org/1999/xlink">
<g id="graph0" class="graph" transform="scale(1 1) rotate(0) translate(4 621.25)">
<title>rtp::client::SpriteCustomizer</title>
<!-- Node1 -->
<g id="Node000001" class="node">
<title>Node1</title>
<g id="a_Node000001"><a xlink:title="Singleton class to manage custom sprite mappings globally.">
<polygon fill="#999999" stroke="none" points="153.12,-248 22.88,-248 22.88,0 153.12,0 153.12,-248"/>
<text xml:space="preserve" text-anchor="start" x="26.88" y="-234.5" font-family="Helvetica,sans-Serif" font-size="10.00">rtp::client::SpriteCustomizer</text>
<text xml:space="preserve" text-anchor="start" x="33.19" y="-219.25" font-family="Helvetica,sans-Serif" font-size="10.00">&#45;</text>
<text xml:space="preserve" text-anchor="start" x="46.5" y="-219.25" font-family="Helvetica,sans-Serif" font-size="10.00">_spriteMappingPath</text>
<text xml:space="preserve" text-anchor="start" x="31.69" y="-204" font-family="Helvetica,sans-Serif" font-size="10.00">+</text>
<text xml:space="preserve" text-anchor="start" x="46.5" y="-204" font-family="Helvetica,sans-Serif" font-size="10.00">loadMappings()</text>
<text xml:space="preserve" text-anchor="start" x="31.69" y="-188.75" font-family="Helvetica,sans-Serif" font-size="10.00">+</text>
<text xml:space="preserve" text-anchor="start" x="46.5" y="-188.75" font-family="Helvetica,sans-Serif" font-size="10.00">reloadMappings()</text>
<text xml:space="preserve" text-anchor="start" x="31.69" y="-173.5" font-family="Helvetica,sans-Serif" font-size="10.00">+</text>
<text xml:space="preserve" text-anchor="start" x="46.5" y="-173.5" font-family="Helvetica,sans-Serif" font-size="10.00">hasCustomSprite()</text>
<text xml:space="preserve" text-anchor="start" x="31.69" y="-158.25" font-family="Helvetica,sans-Serif" font-size="10.00">+</text>
<text xml:space="preserve" text-anchor="start" x="46.5" y="-158.25" font-family="Helvetica,sans-Serif" font-size="10.00">getSpritePath()</text>
<text xml:space="preserve" text-anchor="start" x="31.69" y="-143" font-family="Helvetica,sans-Serif" font-size="10.00">+</text>
<text xml:space="preserve" text-anchor="start" x="46.5" y="-143" font-family="Helvetica,sans-Serif" font-size="10.00">getSpriteInfo()</text>
<text xml:space="preserve" text-anchor="start" x="31.69" y="-127.75" font-family="Helvetica,sans-Serif" font-size="10.00">+</text>
<text xml:space="preserve" text-anchor="start" x="46.5" y="-127.75" font-family="Helvetica,sans-Serif" font-size="10.00">getInstance()</text>
<text xml:space="preserve" text-anchor="start" x="31.69" y="-112.5" font-family="Helvetica,sans-Serif" font-size="10.00">+</text>
<text xml:space="preserve" text-anchor="start" x="46.5" y="-112.5" font-family="Helvetica,sans-Serif" font-size="10.00">clearTextureCaches()</text>
<text xml:space="preserve" text-anchor="start" x="31.69" y="-97.25" font-family="Helvetica,sans-Serif" font-size="10.00">+</text>
<text xml:space="preserve" text-anchor="start" x="46.5" y="-97.25" font-family="Helvetica,sans-Serif" font-size="10.00">setRenderSystems()</text>
<text xml:space="preserve" text-anchor="start" x="33.19" y="-82" font-family="Helvetica,sans-Serif" font-size="10.00">&#45;</text>
<text xml:space="preserve" text-anchor="start" x="46.5" y="-82" font-family="Helvetica,sans-Serif" font-size="10.00">SpriteCustomizer()</text>
<text xml:space="preserve" text-anchor="start" x="33.19" y="-66.75" font-family="Helvetica,sans-Serif" font-size="10.00">&#45;</text>
<text xml:space="preserve" text-anchor="start" x="46.5" y="-66.75" font-family="Helvetica,sans-Serif" font-size="10.00">~SpriteCustomizer()</text>
<text xml:space="preserve" text-anchor="start" x="33.19" y="-51.5" font-family="Helvetica,sans-Serif" font-size="10.00">&#45;</text>
<text xml:space="preserve" text-anchor="start" x="46.5" y="-51.5" font-family="Helvetica,sans-Serif" font-size="10.00">SpriteCustomizer()</text>
<text xml:space="preserve" text-anchor="start" x="33.19" y="-36.25" font-family="Helvetica,sans-Serif" font-size="10.00">&#45;</text>
<text xml:space="preserve" text-anchor="start" x="46.5" y="-36.25" font-family="Helvetica,sans-Serif" font-size="10.00">operator=()</text>
<text xml:space="preserve" text-anchor="start" x="33.19" y="-21" font-family="Helvetica,sans-Serif" font-size="10.00">&#45;</text>
<text xml:space="preserve" text-anchor="start" x="46.5" y="-21" font-family="Helvetica,sans-Serif" font-size="10.00">SpriteCustomizer()</text>
<text xml:space="preserve" text-anchor="start" x="33.19" y="-5.75" font-family="Helvetica,sans-Serif" font-size="10.00">&#45;</text>
<text xml:space="preserve" text-anchor="start" x="46.5" y="-5.75" font-family="Helvetica,sans-Serif" font-size="10.00">operator=()</text>
<polygon fill="#666666" stroke="#666666" points="22.88,-230.75 22.88,-230.75 153.12,-230.75 153.12,-230.75 22.88,-230.75"/>
<polygon fill="#666666" stroke="#666666" points="22.88,-215.5 22.88,-215.5 44.5,-215.5 44.5,-215.5 22.88,-215.5"/>
<polygon fill="#666666" stroke="#666666" points="44.5,-215.5 44.5,-215.5 153.12,-215.5 153.12,-215.5 44.5,-215.5"/>
<polygon fill="none" stroke="#666666" points="22.88,0 22.88,-248 153.12,-248 153.12,0 22.88,0"/>
</a>
</g>
</g>
<!-- Node2 -->
<g id="Node000002" class="node">
<title>Node2</title>
<g id="a_Node000002"><a xlink:title=" ">
<polygon fill="white" stroke="none" points="135.12,-373.5 40.88,-373.5 40.88,-301.25 135.12,-301.25 135.12,-373.5"/>
<text xml:space="preserve" text-anchor="start" x="44.88" y="-360" font-family="Helvetica,sans-Serif" font-size="10.00">std::unordered_map</text>
<text xml:space="preserve" text-anchor="start" x="44.88" y="-348.75" font-family="Helvetica,sans-Serif" font-size="10.00">&lt; std::string, std::</text>
<text xml:space="preserve" text-anchor="start" x="71.5" y="-337.5" font-family="Helvetica,sans-Serif" font-size="10.00">string &gt;</text>
<text xml:space="preserve" text-anchor="start" x="86.5" y="-322.25" font-family="Helvetica,sans-Serif" font-size="10.00"> </text>
<text xml:space="preserve" text-anchor="start" x="86.5" y="-307" font-family="Helvetica,sans-Serif" font-size="10.00"> </text>
<polygon fill="#666666" stroke="#666666" points="40.88,-333.75 40.88,-333.75 135.12,-333.75 135.12,-333.75 40.88,-333.75"/>
<polygon fill="#666666" stroke="#666666" points="40.88,-318.5 40.88,-318.5 135.12,-318.5 135.12,-318.5 40.88,-318.5"/>
<polygon fill="none" stroke="#666666" points="40.88,-301.25 40.88,-373.5 135.12,-373.5 135.12,-301.25 40.88,-301.25"/>
</a>
</g>
</g>
<!-- Node2&#45;&gt;Node1 -->
<g id="edge1_Node000001_Node000002" class="edge">
<title>Node2&#45;&gt;Node1</title>
<g id="a_edge1_Node000001_Node000002"><a xlink:title=" ">
<path fill="none" stroke="#63b8ff" d="M88,-301.47C88,-289.56 88,-275.43 88,-260.43"/>
<polygon fill="none" stroke="#63b8ff" points="88,-260.56 84,-254.56 88,-248.56 92,-254.56 88,-260.56"/>
</a>
</g>
<text xml:space="preserve" text-anchor="start" x="91" y="-270.75" font-family="Helvetica,sans-Serif" font-size="10.00" fill="grey">&#45;_customSpriteMappings</text>
</g>
<!-- Node3 -->
<g id="Node000003" class="node">
<title>Node3</title>
<g id="a_Node000003"><a xlink:title=" ">
<polygon fill="white" stroke="none" points="68.75,-497.38 17.25,-497.38 17.25,-447.62 68.75,-447.62 68.75,-497.38"/>
<text xml:space="preserve" text-anchor="start" x="21.25" y="-483.88" font-family="Helvetica,sans-Serif" font-size="10.00">std::string</text>
<text xml:space="preserve" text-anchor="start" x="41.5" y="-468.62" font-family="Helvetica,sans-Serif" font-size="10.00"> </text>
<text xml:space="preserve" text-anchor="start" x="41.5" y="-453.38" font-family="Helvetica,sans-Serif" font-size="10.00"> </text>
<polygon fill="#666666" stroke="#666666" points="17.25,-480.12 17.25,-480.12 68.75,-480.12 68.75,-480.12 17.25,-480.12"/>
<polygon fill="#666666" stroke="#666666" points="17.25,-464.88 17.25,-464.88 68.75,-464.88 68.75,-464.88 17.25,-464.88"/>
<polygon fill="none" stroke="#666666" points="17.25,-447.62 17.25,-497.38 68.75,-497.38 68.75,-447.62 17.25,-447.62"/>
</a>
</g>
</g>
<!-- Node3&#45;&gt;Node2 -->
<g id="edge2_Node000002_Node000003" class="edge">
<title>Node3&#45;&gt;Node2</title>
<g id="a_edge2_Node000002_Node000003"><a xlink:title=" ">
<path fill="none" stroke="#63b8ff" d="M44.59,-447.8C46.23,-431.56 49.56,-409.74 56.25,-391.5 57.05,-389.32 57.94,-387.14 58.89,-384.96"/>
<polygon fill="none" stroke="#63b8ff" points="58.86,-385.04 57.93,-377.89 64.17,-374.28 65.1,-381.43 58.86,-385.04"/>
</a>
</g>
<text xml:space="preserve" text-anchor="start" x="59.25" y="-411.5" font-family="Helvetica,sans-Serif" font-size="10.00" fill="grey">+elements</text>
<text xml:space="preserve" text-anchor="start" x="59.25" y="-396.25" font-family="Helvetica,sans-Serif" font-size="10.00" fill="grey">+keys</text>
</g>
<!-- Node4 -->
<g id="Node000004" class="node">
<title>Node4</title>
<g id="a_Node000004"><a xlink:title=" ">
<polygon fill="white" stroke="none" points="86,-617.25 0,-617.25 0,-556.25 86,-556.25 86,-617.25"/>
<text xml:space="preserve" text-anchor="start" x="4" y="-603.75" font-family="Helvetica,sans-Serif" font-size="10.00">std::basic_string&lt;</text>
<text xml:space="preserve" text-anchor="start" x="26.5" y="-592.5" font-family="Helvetica,sans-Serif" font-size="10.00"> Char &gt;</text>
<text xml:space="preserve" text-anchor="start" x="41.5" y="-577.25" font-family="Helvetica,sans-Serif" font-size="10.00"> </text>
<text xml:space="preserve" text-anchor="start" x="41.5" y="-562" font-family="Helvetica,sans-Serif" font-size="10.00"> </text>
<polygon fill="#666666" stroke="#666666" points="0,-588.75 0,-588.75 86,-588.75 86,-588.75 0,-588.75"/>
<polygon fill="#666666" stroke="#666666" points="0,-573.5 0,-573.5 86,-573.5 86,-573.5 0,-573.5"/>
<polygon fill="none" stroke="#666666" points="0,-556.25 0,-617.25 86,-617.25 86,-556.25 0,-556.25"/>
</a>
</g>
</g>
<!-- Node4&#45;&gt;Node3 -->
<g id="edge3_Node000003_Node000004" class="edge">
<title>Node4&#45;&gt;Node3</title>
<g id="a_edge3_Node000003_Node000004"><a xlink:title=" ">
<path fill="none" stroke="#63b8ff" d="M43,-544.96C43,-528.89 43,-511 43,-497.14"/>
<polygon fill="none" stroke="#63b8ff" points="39.5,-544.74 43,-554.74 46.5,-544.74 39.5,-544.74"/>
</a>
</g>
</g>
<!-- Node5 -->
<g id="Node000005" class="node">
<title>Node5</title>
<g id="a_Node000005"><a xlink:title=" ">
<polygon fill="white" stroke="none" points="181.12,-503 86.88,-503 86.88,-442 181.12,-442 181.12,-503"/>
<text xml:space="preserve" text-anchor="start" x="90.88" y="-489.5" font-family="Helvetica,sans-Serif" font-size="10.00">std::unordered_map</text>
<text xml:space="preserve" text-anchor="start" x="115.62" y="-478.25" font-family="Helvetica,sans-Serif" font-size="10.00">&lt; K, T &gt;</text>
<text xml:space="preserve" text-anchor="start" x="132.5" y="-463" font-family="Helvetica,sans-Serif" font-size="10.00"> </text>
<text xml:space="preserve" text-anchor="start" x="132.5" y="-447.75" font-family="Helvetica,sans-Serif" font-size="10.00"> </text>
<polygon fill="#666666" stroke="#666666" points="86.88,-474.5 86.88,-474.5 181.12,-474.5 181.12,-474.5 86.88,-474.5"/>
<polygon fill="#666666" stroke="#666666" points="86.88,-459.25 86.88,-459.25 181.12,-459.25 181.12,-459.25 86.88,-459.25"/>
<polygon fill="none" stroke="#666666" points="86.88,-442 86.88,-503 181.12,-503 181.12,-442 86.88,-442"/>
</a>
</g>
</g>
<!-- Node5&#45;&gt;Node2 -->
<g id="edge4_Node000002_Node000005" class="edge">
<title>Node5&#45;&gt;Node2</title>
<g id="a_edge4_Node000002_Node000005"><a xlink:title=" ">
<path fill="none" stroke="orange" d="M121.34,-431.33C117.21,-418.56 112.52,-404.4 108,-391.5 105.95,-385.64 103.69,-379.45 101.46,-373.44"/>
<polygon fill="orange" stroke="orange" points="117.96,-432.24 124.35,-440.69 124.62,-430.1 117.96,-432.24"/>
</a>
</g>
<text xml:space="preserve" text-anchor="start" x="121.36" y="-411.5" font-family="Helvetica,sans-Serif" font-size="10.00" fill="grey">&lt; std::string, std</text>
<text xml:space="preserve" text-anchor="start" x="121.36" y="-396.25" font-family="Helvetica,sans-Serif" font-size="10.00" fill="grey">  ::string &gt;</text>
</g>
<!-- Node6 -->
<g id="Node000006" class="node">
<title>Node6</title>
<g id="a_Node000006"><a xlink:title=" ">
<polygon fill="white" stroke="none" points="129.38,-611.62 114.62,-611.62 114.62,-561.88 129.38,-561.88 129.38,-611.62"/>
<text xml:space="preserve" text-anchor="start" x="118.62" y="-598.12" font-family="Helvetica,sans-Serif" font-size="10.00">K</text>
<text xml:space="preserve" text-anchor="start" x="120.5" y="-582.88" font-family="Helvetica,sans-Serif" font-size="10.00"> </text>
<text xml:space="preserve" text-anchor="start" x="120.5" y="-567.62" font-family="Helvetica,sans-Serif" font-size="10.00"> </text>
<polygon fill="#666666" stroke="#666666" points="114.62,-594.38 114.62,-594.38 129.38,-594.38 129.38,-594.38 114.62,-594.38"/>
<polygon fill="#666666" stroke="#666666" points="114.62,-579.12 114.62,-579.12 129.38,-579.12 129.38,-579.12 114.62,-579.12"/>
<polygon fill="none" stroke="#666666" points="114.62,-561.88 114.62,-611.62 129.38,-611.62 129.38,-561.88 114.62,-561.88"/>
</a>
</g>
</g>
<!-- Node6&#45;&gt;Node5 -->
<g id="edge5_Node000005_Node000006" class="edge">
<title>Node6&#45;&gt;Node5</title>
<g id="a_edge5_Node000005_Node000006"><a xlink:title=" ">
<path fill="none" stroke="#63b8ff" d="M121.17,-561.99C121.04,-549.71 121.35,-534.5 123,-521 123.21,-519.25 123.46,-517.48 123.75,-515.69"/>
<polygon fill="none" stroke="#63b8ff" points="123.75,-515.65 120.94,-509.01 125.99,-503.86 128.8,-510.5 123.75,-515.65"/>
</a>
</g>
<text xml:space="preserve" text-anchor="start" x="126" y="-525.75" font-family="Helvetica,sans-Serif" font-size="10.00" fill="grey">+keys</text>
</g>
<!-- Node7 -->
<g id="Node000007" class="node">
<title>Node7</title>
<g id="a_Node000007"><a xlink:title=" ">
<polygon fill="white" stroke="none" points="185,-611.62 171,-611.62 171,-561.88 185,-561.88 185,-611.62"/>
<text xml:space="preserve" text-anchor="start" x="175" y="-598.12" font-family="Helvetica,sans-Serif" font-size="10.00">T</text>
<text xml:space="preserve" text-anchor="start" x="176.5" y="-582.88" font-family="Helvetica,sans-Serif" font-size="10.00"> </text>
<text xml:space="preserve" text-anchor="start" x="176.5" y="-567.62" font-family="Helvetica,sans-Serif" font-size="10.00"> </text>
<polygon fill="#666666" stroke="#666666" points="171,-594.38 171,-594.38 185,-594.38 185,-594.38 171,-594.38"/>
<polygon fill="#666666" stroke="#666666" points="171,-579.12 171,-579.12 185,-579.12 185,-579.12 171,-579.12"/>
<polygon fill="none" stroke="#666666" points="171,-561.88 171,-611.62 185,-611.62 185,-561.88 171,-561.88"/>
</a>
</g>
</g>
<!-- Node7&#45;&gt;Node5 -->
<g id="edge6_Node000005_Node000007" class="edge">
<title>Node7&#45;&gt;Node5</title>
<g id="a_edge6_Node000005_Node000007"><a xlink:title=" ">
<path fill="none" stroke="#63b8ff" d="M171.04,-563.36C166.97,-550.79 161.56,-534.89 156,-521 155.19,-518.97 154.33,-516.9 153.45,-514.82"/>
<polygon fill="none" stroke="#63b8ff" points="153.42,-514.74 147.34,-510.86 148.59,-503.76 154.66,-507.64 153.42,-514.74"/>
</a>
</g>
<text xml:space="preserve" text-anchor="start" x="164.98" y="-525.75" font-family="Helvetica,sans-Serif" font-size="10.00" fill="grey">+elements</text>
</g>
</g>
</svg>
