<?xml version="1.0" encoding="UTF-8" standalone="no"?>
<!DOCTYPE svg PUBLIC "-//W3C//DTD SVG 1.1//EN"
 "http://www.w3.org/Graphics/SVG/1.1/DTD/svg11.dtd">
<!-- Generated by graphviz version 14.0.5 (20251129.0259)
 -->
<!-- Title: rtp::server::EnemyShootSystem Pages: 1 -->
<svg width="156pt" height="250pt"
 viewBox="0.00 0.00 156.00 250.00" xmlns="http://www.w3.org/2000/svg" xmlns:xlink="http://www.w3.org/1999/xlink">
<g id="graph0" class="graph" transform="scale(1 1) rotate(0) translate(4 246.25)">
<title>rtp::server::EnemyShootSystem</title>
<!-- Node1 -->
<g id="Node000001" class="node">
<title>Node1</title>
<g id="a_Node000001"><a xlink:title="Spawns bullets for enemies on the server.">
<polygon fill="#999999" stroke="none" points="148.25,-141.25 0,-141.25 0,0 148.25,0 148.25,-141.25"/>
<text xml:space="preserve" text-anchor="start" x="4" y="-127.75" font-family="Helvetica,sans-Serif" font-size="10.00">rtp::server::EnemyShootSystem</text>
<text xml:space="preserve" text-anchor="start" x="14.06" y="-112.5" font-family="Helvetica,sans-Serif" font-size="10.00">&#45;</text>
<text xml:space="preserve" text-anchor="start" x="31.12" y="-112.5" font-family="Helvetica,sans-Serif" font-size="10.00">_registry</text>
<text xml:space="preserve" text-anchor="start" x="14.06" y="-97.25" font-family="Helvetica,sans-Serif" font-size="10.00">&#45;</text>
<text xml:space="preserve" text-anchor="start" x="31.12" y="-97.25" font-family="Helvetica,sans-Serif" font-size="10.00">_roomSystem</text>
<text xml:space="preserve" text-anchor="start" x="14.06" y="-82" font-family="Helvetica,sans-Serif" font-size="10.00">&#45;</text>
<text xml:space="preserve" text-anchor="start" x="31.12" y="-82" font-family="Helvetica,sans-Serif" font-size="10.00">_networkSync</text>
<text xml:space="preserve" text-anchor="start" x="14.06" y="-66.75" font-family="Helvetica,sans-Serif" font-size="10.00">&#45;</text>
<text xml:space="preserve" text-anchor="start" x="31.12" y="-66.75" font-family="Helvetica,sans-Serif" font-size="10.00">_bulletSpeed</text>
<text xml:space="preserve" text-anchor="start" x="14.06" y="-51.5" font-family="Helvetica,sans-Serif" font-size="10.00">&#45;</text>
<text xml:space="preserve" text-anchor="start" x="31.12" y="-51.5" font-family="Helvetica,sans-Serif" font-size="10.00">_spawnOffsetX</text>
<text xml:space="preserve" text-anchor="start" x="12.56" y="-36.25" font-family="Helvetica,sans-Serif" font-size="10.00">+</text>
<text xml:space="preserve" text-anchor="start" x="31.12" y="-36.25" font-family="Helvetica,sans-Serif" font-size="10.00">EnemyShootSystem()</text>
<text xml:space="preserve" text-anchor="start" x="12.56" y="-21" font-family="Helvetica,sans-Serif" font-size="10.00">+</text>
<text xml:space="preserve" text-anchor="start" x="31.12" y="-21" font-family="Helvetica,sans-Serif" font-size="10.00">update()</text>
<text xml:space="preserve" text-anchor="start" x="14.06" y="-5.75" font-family="Helvetica,sans-Serif" font-size="10.00">&#45;</text>
<text xml:space="preserve" text-anchor="start" x="31.12" y="-5.75" font-family="Helvetica,sans-Serif" font-size="10.00">spawnBullet()</text>
<polygon fill="#666666" stroke="#666666" points="0,-124 0,-124 148.25,-124 148.25,-124 0,-124"/>
<polygon fill="#666666" stroke="#666666" points="0,-47.75 0,-47.75 29.12,-47.75 29.12,-47.75 0,-47.75"/>
<polygon fill="#666666" stroke="#666666" points="29.12,-47.75 29.12,-47.75 148.25,-47.75 148.25,-47.75 29.12,-47.75"/>
<polygon fill="none" stroke="#666666" points="0,0 0,-141.25 148.25,-141.25 148.25,0 0,0"/>
</a>
</g>
</g>
<!-- Node2 -->
<g id="Node000002" class="node">
<title>Node2</title>
<g id="a_Node000002"><a xlink:href="classrtp_1_1ecs_1_1ISystem.html" target="_top" xlink:title="Abstract base class for all ECS systems.">
<polygon fill="white" stroke="none" points="116,-242.25 32.25,-242.25 32.25,-177.25 116,-177.25 116,-242.25"/>
<text xml:space="preserve" text-anchor="start" x="36.25" y="-228.75" font-family="Helvetica,sans-Serif" font-size="10.00">rtp::ecs::ISystem</text>
<text xml:space="preserve" text-anchor="start" x="72.62" y="-213.5" font-family="Helvetica,sans-Serif" font-size="10.00"> </text>
<text xml:space="preserve" text-anchor="start" x="40.5" y="-198.25" font-family="Helvetica,sans-Serif" font-size="10.00">+</text>
<text xml:space="preserve" text-anchor="start" x="54.75" y="-198.25" font-family="Helvetica,sans-Serif" font-size="10.00">~ISystem()</text>
<text xml:space="preserve" text-anchor="start" x="40.5" y="-183" font-family="Helvetica,sans-Serif" font-size="10.00">+</text>
<text xml:space="preserve" text-anchor="start" x="54.75" y="-183" font-family="Helvetica,sans-Serif" font-size="10.00">update()</text>
<polygon fill="#666666" stroke="#666666" points="32.25,-225 32.25,-225 116,-225 116,-225 32.25,-225"/>
<polygon fill="#666666" stroke="#666666" points="32.25,-209.75 32.25,-209.75 116,-209.75 116,-209.75 32.25,-209.75"/>
<polygon fill="none" stroke="#666666" points="32.25,-177.25 32.25,-242.25 116,-242.25 116,-177.25 32.25,-177.25"/>
</a>
</g>
</g>
<!-- Node2&#45;&gt;Node1 -->
<g id="edge1_Node000001_Node000002" class="edge">
<title>Node2&#45;&gt;Node1</title>
<g id="a_edge1_Node000001_Node000002"><a xlink:title=" ">
<path fill="none" stroke="#63b8ff" d="M74.12,-165.84C74.12,-157.99 74.12,-149.61 74.12,-141.21"/>
<polygon fill="none" stroke="#63b8ff" points="70.63,-165.78 74.13,-175.78 77.63,-165.78 70.63,-165.78"/>
</a>
</g>
</g>
</g>
</svg>
