<?xml version="1.0" encoding="UTF-8" standalone="no"?>
<!DOCTYPE svg PUBLIC "-//W3C//DTD SVG 1.1//EN"
 "http://www.w3.org/Graphics/SVG/1.1/DTD/svg11.dtd">
<!-- Generated by graphviz version 14.0.5 (20251129.0259)
 -->
<!-- Title: rtp::ecs::ZipView&lt; Containers &gt;::Iterator Pages: 1 -->
<!--zoomable 633 -->

<svg id="main" version="1.1" xmlns="http://www.w3.org/2000/svg" xmlns:xlink="http://www.w3.org/1999/xlink" xml:space="preserve" onload="init(evt)">

<style type="text/css"><![CDATA[
.node, .edge {opacity: 0.7;}
.node.selected, .edge.selected {opacity: 1;}
.edge:hover path { stroke: red; }
.edge:hover polygon { stroke: red; fill: red; }
]]></style>

<defs>
  <circle id="rim" cx="0" cy="0" r="7"/>
  <circle id="rim2" cx="0" cy="0" r="3.5"/>
  <g id="zoomPlus">
    <use xlink:href="#rim" fill="#404040"><set attributeName="fill" to="#808080" begin="zoomplus.mouseover" end="zoomplus.mouseout"/></use>
    <path d="M-4,0h8M0,-4v8" fill="none" stroke="white" stroke-width="1.5" pointer-events="none"/>
  </g>
  <g id="zoomMin">
    <use xlink:href="#rim" fill="#404040"><set attributeName="fill" to="#808080" begin="zoomminus.mouseover" end="zoomminus.mouseout"/></use>
    <path d="M-4,0h8" fill="none" stroke="white" stroke-width="1.5" pointer-events="none"/>
  </g>
  <g id="arrowUp" transform="translate(30 24)">
    <use xlink:href="#rim"/>
    <path pointer-events="none" fill="none" stroke="white" stroke-width="1.5" d="M0,-3.0v7 M-2.5,-0.5L0,-3.0L2.5,-0.5"/>
  </g>
  <g id="arrowRight" transform="rotate(90) translate(36 -43)">
    <use xlink:href="#rim"/>
    <path pointer-events="none" fill="none" stroke="white" stroke-width="1.5" d="M0,-3.0v7 M-2.5,-0.5L0,-3.0L2.5,-0.5"/>
  </g>
  <g id="arrowDown" transform="rotate(180) translate(-30 -48)">
    <use xlink:href="#rim"/>
    <path pointer-events="none" fill="none" stroke="white" stroke-width="1.5" d="M0,-3.0v7 M-2.5,-0.5L0,-3.0L2.5,-0.5"/>
  </g>
  <g id="arrowLeft" transform="rotate(270) translate(-36 17)">
    <use xlink:href="#rim"/>
    <path pointer-events="none" fill="none" stroke="white" stroke-width="1.5" d="M0,-3.0v7 M-2.5,-0.5L0,-3.0L2.5,-0.5"/>
  </g>
  <g id="resetDef">
    <use xlink:href="#rim2" fill="#404040"><set attributeName="fill" to="#808080" begin="reset.mouseover" end="reset.mouseout"/></use>
  </g>
</defs>
<script type="application/ecmascript">
var viewWidth = 260;
var viewHeight = 633;
var sectionId = 'dynsection-0';
</script>
<script type="application/ecmascript" xlink:href="svg.min.js"/>
<svg id="graph" class="graph">
<g id="viewport">
<title>rtp::ecs::ZipView&lt; Containers &gt;::Iterator</title>
<!-- Node1 -->
<g id="Node000001" class="node">
<title>Node1</title>
<g id="a_Node000001"><a xlink:title="The actual iterator performing the intersection logic.">
<polygon fill="#999999" stroke="none" points="147.12,-167.75 43.12,-167.75 43.12,0 147.12,0 147.12,-167.75"/>
<text xml:space="preserve" text-anchor="start" x="47.12" y="-154.25" font-family="Helvetica,sans-Serif" font-size="10.00">rtp::ecs::ZipView&lt;</text>
<text xml:space="preserve" text-anchor="start" x="47.12" y="-143" font-family="Helvetica,sans-Serif" font-size="10.00"> Containers &gt;::Iterator</text>
<text xml:space="preserve" text-anchor="start" x="56.81" y="-127.75" font-family="Helvetica,sans-Serif" font-size="10.00">&#45;</text>
<text xml:space="preserve" text-anchor="start" x="73.5" y="-127.75" font-family="Helvetica,sans-Serif" font-size="10.00">_arrays</text>
<text xml:space="preserve" text-anchor="start" x="56.81" y="-112.5" font-family="Helvetica,sans-Serif" font-size="10.00">&#45;</text>
<text xml:space="preserve" text-anchor="start" x="73.5" y="-112.5" font-family="Helvetica,sans-Serif" font-size="10.00">_index</text>
<text xml:space="preserve" text-anchor="start" x="55.31" y="-97.25" font-family="Helvetica,sans-Serif" font-size="10.00">+</text>
<text xml:space="preserve" text-anchor="start" x="73.5" y="-97.25" font-family="Helvetica,sans-Serif" font-size="10.00">Iterator()</text>
<text xml:space="preserve" text-anchor="start" x="55.31" y="-82" font-family="Helvetica,sans-Serif" font-size="10.00">+</text>
<text xml:space="preserve" text-anchor="start" x="73.5" y="-82" font-family="Helvetica,sans-Serif" font-size="10.00">operator++()</text>
<text xml:space="preserve" text-anchor="start" x="55.31" y="-66.75" font-family="Helvetica,sans-Serif" font-size="10.00">+</text>
<text xml:space="preserve" text-anchor="start" x="73.5" y="-66.75" font-family="Helvetica,sans-Serif" font-size="10.00">operator++()</text>
<text xml:space="preserve" text-anchor="start" x="55.31" y="-51.5" font-family="Helvetica,sans-Serif" font-size="10.00">+</text>
<text xml:space="preserve" text-anchor="start" x="73.5" y="-51.5" font-family="Helvetica,sans-Serif" font-size="10.00">operator==()</text>
<text xml:space="preserve" text-anchor="start" x="55.31" y="-36.25" font-family="Helvetica,sans-Serif" font-size="10.00">+</text>
<text xml:space="preserve" text-anchor="start" x="73.5" y="-36.25" font-family="Helvetica,sans-Serif" font-size="10.00">operator!=()</text>
<text xml:space="preserve" text-anchor="start" x="55.31" y="-21" font-family="Helvetica,sans-Serif" font-size="10.00">+</text>
<text xml:space="preserve" text-anchor="start" x="73.5" y="-21" font-family="Helvetica,sans-Serif" font-size="10.00">operator*()</text>
<text xml:space="preserve" text-anchor="start" x="56.81" y="-5.75" font-family="Helvetica,sans-Serif" font-size="10.00">&#45;</text>
<text xml:space="preserve" text-anchor="start" x="73.5" y="-5.75" font-family="Helvetica,sans-Serif" font-size="10.00">skipInvalid()</text>
<polygon fill="#666666" stroke="#666666" points="43.12,-139.25 43.12,-139.25 147.12,-139.25 147.12,-139.25 43.12,-139.25"/>
<polygon fill="#666666" stroke="#666666" points="43.12,-108.75 43.12,-108.75 71.5,-108.75 71.5,-108.75 43.12,-108.75"/>
<polygon fill="#666666" stroke="#666666" points="71.5,-108.75 71.5,-108.75 147.12,-108.75 147.12,-108.75 71.5,-108.75"/>
<polygon fill="none" stroke="#666666" points="43.12,0 43.12,-167.75 147.12,-167.75 147.12,0 43.12,0"/>
</a>
</g>
</g>
<!-- Node2 -->
<g id="Node000002" class="node">
<title>Node2</title>
<g id="a_Node000002"><a xlink:title=" ">
<polygon fill="white" stroke="none" points="143,-282 47.25,-282 47.25,-221 143,-221 143,-282"/>
<text xml:space="preserve" text-anchor="start" x="51.25" y="-268.5" font-family="Helvetica,sans-Serif" font-size="10.00">std::span&lt; const rtp</text>
<text xml:space="preserve" text-anchor="start" x="64" y="-257.25" font-family="Helvetica,sans-Serif" font-size="10.00">::ecs::Entity &gt;</text>
<text xml:space="preserve" text-anchor="start" x="93.62" y="-242" font-family="Helvetica,sans-Serif" font-size="10.00"> </text>
<text xml:space="preserve" text-anchor="start" x="93.62" y="-226.75" font-family="Helvetica,sans-Serif" font-size="10.00"> </text>
<polygon fill="#666666" stroke="#666666" points="47.25,-253.5 47.25,-253.5 143,-253.5 143,-253.5 47.25,-253.5"/>
<polygon fill="#666666" stroke="#666666" points="47.25,-238.25 47.25,-238.25 143,-238.25 143,-238.25 47.25,-238.25"/>
<polygon fill="none" stroke="#666666" points="47.25,-221 47.25,-282 143,-282 143,-221 47.25,-221"/>
</a>
</g>
</g>
<!-- Node2&#45;&gt;Node1 -->
<g id="edge1_Node000001_Node000002" class="edge">
<title>Node2&#45;&gt;Node1</title>
<g id="a_edge1_Node000001_Node000002"><a xlink:title=" ">
<path fill="none" stroke="#63b8ff" d="M95.12,-221.27C95.12,-209.44 95.12,-195.06 95.12,-180.13"/>
<polygon fill="none" stroke="#63b8ff" points="95.13,-180.4 91.13,-174.4 95.13,-168.4 99.13,-174.4 95.13,-180.4"/>
</a>
</g>
<text xml:space="preserve" text-anchor="start" x="98.12" y="-190.5" font-family="Helvetica,sans-Serif" font-size="10.00" fill="grey">&#45;_entities</text>
</g>
<!-- Node3 -->
<g id="Node000003" class="node">
<title>Node3</title>
<g id="a_Node000003"><a xlink:href="classrtp_1_1ecs_1_1Entity.html" target="_top" xlink:title="Represents an entity in the ECS (Entity&#45;Component&#45;System) architecture.">
<polygon fill="white" stroke="none" points="116.25,-522.25 0,-522.25 0,-335.25 116.25,-335.25 116.25,-522.25"/>
<text xml:space="preserve" text-anchor="start" x="25.88" y="-508.75" font-family="Helvetica,sans-Serif" font-size="10.00">rtp::ecs::Entity</text>
<text xml:space="preserve" text-anchor="start" x="4" y="-493.5" font-family="Helvetica,sans-Serif" font-size="10.00">+</text>
<text xml:space="preserve" text-anchor="start" x="14" y="-493.5" font-family="Helvetica,sans-Serif" font-size="10.00">MAX_INDEX</text>
<text xml:space="preserve" text-anchor="start" x="4" y="-478.25" font-family="Helvetica,sans-Serif" font-size="10.00">+</text>
<text xml:space="preserve" text-anchor="start" x="14" y="-478.25" font-family="Helvetica,sans-Serif" font-size="10.00">INDEX_MASK</text>
<text xml:space="preserve" text-anchor="start" x="4" y="-463" font-family="Helvetica,sans-Serif" font-size="10.00">+</text>
<text xml:space="preserve" text-anchor="start" x="14" y="-463" font-family="Helvetica,sans-Serif" font-size="10.00">GEN_SHIFT</text>
<text xml:space="preserve" text-anchor="start" x="5.5" y="-447.75" font-family="Helvetica,sans-Serif" font-size="10.00">&#45;</text>
<text xml:space="preserve" text-anchor="start" x="14" y="-447.75" font-family="Helvetica,sans-Serif" font-size="10.00">_id</text>
<text xml:space="preserve" text-anchor="start" x="4" y="-432.5" font-family="Helvetica,sans-Serif" font-size="10.00">+</text>
<text xml:space="preserve" text-anchor="start" x="14" y="-432.5" font-family="Helvetica,sans-Serif" font-size="10.00">Entity()</text>
<text xml:space="preserve" text-anchor="start" x="4" y="-417.25" font-family="Helvetica,sans-Serif" font-size="10.00">+</text>
<text xml:space="preserve" text-anchor="start" x="14" y="-417.25" font-family="Helvetica,sans-Serif" font-size="10.00">Entity()</text>
<text xml:space="preserve" text-anchor="start" x="4" y="-402" font-family="Helvetica,sans-Serif" font-size="10.00">+</text>
<text xml:space="preserve" text-anchor="start" x="14" y="-402" font-family="Helvetica,sans-Serif" font-size="10.00">index()</text>
<text xml:space="preserve" text-anchor="start" x="4" y="-386.75" font-family="Helvetica,sans-Serif" font-size="10.00">+</text>
<text xml:space="preserve" text-anchor="start" x="14" y="-386.75" font-family="Helvetica,sans-Serif" font-size="10.00">generation()</text>
<text xml:space="preserve" text-anchor="start" x="4" y="-371.5" font-family="Helvetica,sans-Serif" font-size="10.00">+</text>
<text xml:space="preserve" text-anchor="start" x="14" y="-371.5" font-family="Helvetica,sans-Serif" font-size="10.00">operator&lt;=&gt;()</text>
<text xml:space="preserve" text-anchor="start" x="4" y="-356.25" font-family="Helvetica,sans-Serif" font-size="10.00">+</text>
<text xml:space="preserve" text-anchor="start" x="14" y="-356.25" font-family="Helvetica,sans-Serif" font-size="10.00">operator std::uint64_t()</text>
<text xml:space="preserve" text-anchor="start" x="4" y="-341" font-family="Helvetica,sans-Serif" font-size="10.00">+</text>
<text xml:space="preserve" text-anchor="start" x="14" y="-341" font-family="Helvetica,sans-Serif" font-size="10.00">isNull()</text>
<polygon fill="#666666" stroke="#666666" points="0,-505 0,-505 116.25,-505 116.25,-505 0,-505"/>
<polygon fill="#666666" stroke="#666666" points="0,-444 0,-444 12,-444 12,-444 0,-444"/>
<polygon fill="#666666" stroke="#666666" points="12,-444 12,-444 116.25,-444 116.25,-444 12,-444"/>
<polygon fill="none" stroke="#666666" points="0,-335.25 0,-522.25 116.25,-522.25 116.25,-335.25 0,-335.25"/>
</a>
</g>
</g>
<!-- Node3&#45;&gt;Node2 -->
<g id="edge2_Node000002_Node000003" class="edge">
<title>Node3&#45;&gt;Node2</title>
<g id="a_edge2_Node000002_Node000003"><a xlink:title=" ">
<path fill="none" stroke="#63b8ff" d="M69.68,-335.52C71.87,-323.49 74.42,-311.4 77.38,-300 77.88,-298.04 78.44,-296.05 79.04,-294.06"/>
<polygon fill="none" stroke="#63b8ff" points="79.03,-294.09 77.11,-287.14 82.8,-282.7 84.71,-289.65 79.03,-294.09"/>
</a>
</g>
<text xml:space="preserve" text-anchor="start" x="80.38" y="-304.75" font-family="Helvetica,sans-Serif" font-size="10.00" fill="grey">+elements</text>
</g>
<!-- Node4 -->
<g id="Node000004" class="node">
<title>Node4</title>
<g id="a_Node000004"><a xlink:title=" ">
<polygon fill="white" stroke="none" points="206.38,-453.62 133.88,-453.62 133.88,-403.88 206.38,-403.88 206.38,-453.62"/>
<text xml:space="preserve" text-anchor="start" x="137.88" y="-440.12" font-family="Helvetica,sans-Serif" font-size="10.00">std::span&lt; T &gt;</text>
<text xml:space="preserve" text-anchor="start" x="168.62" y="-424.88" font-family="Helvetica,sans-Serif" font-size="10.00"> </text>
<text xml:space="preserve" text-anchor="start" x="168.62" y="-409.62" font-family="Helvetica,sans-Serif" font-size="10.00"> </text>
<polygon fill="#666666" stroke="#666666" points="133.88,-436.38 133.88,-436.38 206.38,-436.38 206.38,-436.38 133.88,-436.38"/>
<polygon fill="#666666" stroke="#666666" points="133.88,-421.12 133.88,-421.12 206.38,-421.12 206.38,-421.12 133.88,-421.12"/>
<polygon fill="none" stroke="#666666" points="133.88,-403.88 133.88,-453.62 206.38,-453.62 206.38,-403.88 133.88,-403.88"/>
</a>
</g>
</g>
<!-- Node4&#45;&gt;Node2 -->
<g id="edge3_Node000002_Node000004" class="edge">
<title>Node4&#45;&gt;Node2</title>
<g id="a_edge3_Node000002_Node000004"><a xlink:title=" ">
<path fill="none" stroke="orange" d="M162.19,-393.33C155.37,-366.95 144.26,-330.09 129.12,-300 126.03,-293.84 122.18,-287.6 118.19,-281.76"/>
<polygon fill="orange" stroke="orange" points="158.74,-393.97 164.56,-402.82 165.53,-392.27 158.74,-393.97"/>
</a>
</g>
<text xml:space="preserve" text-anchor="start" x="139.78" y="-304.75" font-family="Helvetica,sans-Serif" font-size="10.00" fill="grey">&lt; const rtp::ecs::Entity &gt;</text>
</g>
<!-- Node5 -->
<g id="Node000005" class="node">
<title>Node5</title>
<g id="a_Node000005"><a xlink:title=" ">
<polygon fill="white" stroke="none" points="177.12,-625.25 163.12,-625.25 163.12,-575.5 177.12,-575.5 177.12,-625.25"/>
<text xml:space="preserve" text-anchor="start" x="167.12" y="-611.75" font-family="Helvetica,sans-Serif" font-size="10.00">T</text>
<text xml:space="preserve" text-anchor="start" x="168.62" y="-596.5" font-family="Helvetica,sans-Serif" font-size="10.00"> </text>
<text xml:space="preserve" text-anchor="start" x="168.62" y="-581.25" font-family="Helvetica,sans-Serif" font-size="10.00"> </text>
<polygon fill="#666666" stroke="#666666" points="163.12,-608 163.12,-608 177.12,-608 177.12,-608 163.12,-608"/>
<polygon fill="#666666" stroke="#666666" points="163.12,-592.75 163.12,-592.75 177.12,-592.75 177.12,-592.75 163.12,-592.75"/>
<polygon fill="none" stroke="#666666" points="163.12,-575.5 163.12,-625.25 177.12,-625.25 177.12,-575.5 163.12,-575.5"/>
</a>
</g>
</g>
<!-- Node5&#45;&gt;Node4 -->
<g id="edge4_Node000004_Node000005" class="edge">
<title>Node5&#45;&gt;Node4</title>
<g id="a_edge4_Node000004_Node000005"><a xlink:title=" ">
<path fill="none" stroke="#63b8ff" d="M170.12,-575.79C170.12,-547.39 170.12,-499.37 170.12,-466.19"/>
<polygon fill="none" stroke="#63b8ff" points="170.13,-466.31 166.13,-460.31 170.13,-454.31 174.13,-460.31 170.13,-466.31"/>
</a>
</g>
<text xml:space="preserve" text-anchor="start" x="173.12" y="-545" font-family="Helvetica,sans-Serif" font-size="10.00" fill="grey">+elements</text>
</g>
</g>
</svg>

<g id="navigator" transform="translate(0 0)" fill="#404254">
  <rect fill="#f2f5e9" fill-opacity="0.5" stroke="#606060" stroke-width=".5" x="0" y="0" width="60" height="60"/>
  <use id="zoomplus" xlink:href="#zoomPlus" x="17" y="9" onmousedown="handleZoom(evt,'in')"/>
  <use id="zoomminus" xlink:href="#zoomMin" x="42" y="9" onmousedown="handleZoom(evt,'out')"/>
  <use id="reset" xlink:href="#resetDef" x="30" y="36" onmousedown="handleReset()"/>
   <use id="arrowup" xlink:href="#arrowUp" x="0" y="0" onmousedown="handlePan(0,-1)"/>
  <use id="arrowright" xlink:href="#arrowRight" x="0" y="0" onmousedown="handlePan(1,0)"/>
  <use id="arrowdown" xlink:href="#arrowDown" x="0" y="0" onmousedown="handlePan(0,1)"/>
  <use id="arrowleft" xlink:href="#arrowLeft" x="0" y="0" onmousedown="handlePan(-1,0)"/>
</g>
<svg viewBox="0 0 15 15" width="100%" height="30px" preserveAspectRatio="xMaxYMin meet">
 <g id="arrow_out" transform="scale(0.3 0.3)">
  <a xlink:href="classrtp_1_1ecs_1_1ZipView_1_1Iterator__coll__graph_org.svg" target="_base">
   <rect id="button" ry="5" rx="5" y="6" x="6" height="38" width="38"
        fill="#f2f5e9" fill-opacity="0.5" stroke="#606060" stroke-width="1.0"/>
   <path id="arrow"
     d="M 11.500037,31.436501 C 11.940474,20.09759 22.043105,11.32322 32.158766,21.979434 L 37.068811,17.246167 C 37.068811,17.246167 37.088388,32 37.088388,32 L 22.160133,31.978069 C 22.160133,31.978069 26.997745,27.140456 26.997745,27.140456 C 18.528582,18.264221 13.291696,25.230495 11.500037,31.436501 z"
     style="fill:#404040;"/>
  </a>
 </g>
</svg>

<style type='text/css'>
<![CDATA[
[data-mouse-over-selected='false'] { opacity: 0.7; }
[data-mouse-over-selected='true']  { opacity: 1.0; }
]]>
</style>
<script type="application/ecmascript"><![CDATA[
document.addEventListener('DOMContentLoaded', (event) => {
  highlightEdges();
  highlightAdjacentNodes();
});
]]></script>
</svg>
