<?xml version="1.0" encoding="UTF-8" standalone="no"?>
<!DOCTYPE svg PUBLIC "-//W3C//DTD SVG 1.1//EN"
 "http://www.w3.org/Graphics/SVG/1.1/DTD/svg11.dtd">
<!-- Generated by graphviz version 14.0.5 (20251129.0259)
 -->
<!-- Title: rtp::config::SimpleJson Pages: 1 -->
<!--zoomable 595 -->

<svg id="main" version="1.1" xmlns="http://www.w3.org/2000/svg" xmlns:xlink="http://www.w3.org/1999/xlink" xml:space="preserve" onload="init(evt)">

<style type="text/css"><![CDATA[
.node, .edge {opacity: 0.7;}
.node.selected, .edge.selected {opacity: 1;}
.edge:hover path { stroke: red; }
.edge:hover polygon { stroke: red; fill: red; }
]]></style>

<defs>
  <circle id="rim" cx="0" cy="0" r="7"/>
  <circle id="rim2" cx="0" cy="0" r="3.5"/>
  <g id="zoomPlus">
    <use xlink:href="#rim" fill="#404040"><set attributeName="fill" to="#808080" begin="zoomplus.mouseover" end="zoomplus.mouseout"/></use>
    <path d="M-4,0h8M0,-4v8" fill="none" stroke="white" stroke-width="1.5" pointer-events="none"/>
  </g>
  <g id="zoomMin">
    <use xlink:href="#rim" fill="#404040"><set attributeName="fill" to="#808080" begin="zoomminus.mouseover" end="zoomminus.mouseout"/></use>
    <path d="M-4,0h8" fill="none" stroke="white" stroke-width="1.5" pointer-events="none"/>
  </g>
  <g id="arrowUp" transform="translate(30 24)">
    <use xlink:href="#rim"/>
    <path pointer-events="none" fill="none" stroke="white" stroke-width="1.5" d="M0,-3.0v7 M-2.5,-0.5L0,-3.0L2.5,-0.5"/>
  </g>
  <g id="arrowRight" transform="rotate(90) translate(36 -43)">
    <use xlink:href="#rim"/>
    <path pointer-events="none" fill="none" stroke="white" stroke-width="1.5" d="M0,-3.0v7 M-2.5,-0.5L0,-3.0L2.5,-0.5"/>
  </g>
  <g id="arrowDown" transform="rotate(180) translate(-30 -48)">
    <use xlink:href="#rim"/>
    <path pointer-events="none" fill="none" stroke="white" stroke-width="1.5" d="M0,-3.0v7 M-2.5,-0.5L0,-3.0L2.5,-0.5"/>
  </g>
  <g id="arrowLeft" transform="rotate(270) translate(-36 17)">
    <use xlink:href="#rim"/>
    <path pointer-events="none" fill="none" stroke="white" stroke-width="1.5" d="M0,-3.0v7 M-2.5,-0.5L0,-3.0L2.5,-0.5"/>
  </g>
  <g id="resetDef">
    <use xlink:href="#rim2" fill="#404040"><set attributeName="fill" to="#808080" begin="reset.mouseover" end="reset.mouseout"/></use>
  </g>
</defs>
<script type="application/ecmascript">
var viewWidth = 222;
var viewHeight = 595;
var sectionId = 'dynsection-0';
</script>
<script type="application/ecmascript" xlink:href="svg.min.js"/>
<svg id="graph" class="graph">
<g id="viewport">
<title>rtp::config::SimpleJson</title>
<!-- Node1 -->
<g id="Node000001" class="node">
<title>Node1</title>
<g id="a_Node000001"><a xlink:title=" ">
<polygon fill="#999999" stroke="none" points="145,-217.5 31,-217.5 31,0 145,0 145,-217.5"/>
<text xml:space="preserve" text-anchor="start" x="37.75" y="-204" font-family="Helvetica,sans-Serif" font-size="10.00">rtp::config::SimpleJson</text>
<text xml:space="preserve" text-anchor="start" x="86.5" y="-188.75" font-family="Helvetica,sans-Serif" font-size="10.00"> </text>
<text xml:space="preserve" text-anchor="start" x="35" y="-173.5" font-family="Helvetica,sans-Serif" font-size="10.00">+</text>
<text xml:space="preserve" text-anchor="start" x="45" y="-173.5" font-family="Helvetica,sans-Serif" font-size="10.00">parse()</text>
<text xml:space="preserve" text-anchor="start" x="35" y="-158.25" font-family="Helvetica,sans-Serif" font-size="10.00">+</text>
<text xml:space="preserve" text-anchor="start" x="45" y="-158.25" font-family="Helvetica,sans-Serif" font-size="10.00">parseContent()</text>
<text xml:space="preserve" text-anchor="start" x="35" y="-143" font-family="Helvetica,sans-Serif" font-size="10.00">+</text>
<text xml:space="preserve" text-anchor="start" x="45" y="-143" font-family="Helvetica,sans-Serif" font-size="10.00">getString()</text>
<text xml:space="preserve" text-anchor="start" x="35" y="-127.75" font-family="Helvetica,sans-Serif" font-size="10.00">+</text>
<text xml:space="preserve" text-anchor="start" x="45" y="-127.75" font-family="Helvetica,sans-Serif" font-size="10.00">getInt()</text>
<text xml:space="preserve" text-anchor="start" x="35" y="-112.5" font-family="Helvetica,sans-Serif" font-size="10.00">+</text>
<text xml:space="preserve" text-anchor="start" x="45" y="-112.5" font-family="Helvetica,sans-Serif" font-size="10.00">getFloat()</text>
<text xml:space="preserve" text-anchor="start" x="35" y="-97.25" font-family="Helvetica,sans-Serif" font-size="10.00">+</text>
<text xml:space="preserve" text-anchor="start" x="45" y="-97.25" font-family="Helvetica,sans-Serif" font-size="10.00">getBool()</text>
<text xml:space="preserve" text-anchor="start" x="35" y="-82" font-family="Helvetica,sans-Serif" font-size="10.00">+</text>
<text xml:space="preserve" text-anchor="start" x="45" y="-82" font-family="Helvetica,sans-Serif" font-size="10.00">getData()</text>
<text xml:space="preserve" text-anchor="start" x="36.5" y="-66.75" font-family="Helvetica,sans-Serif" font-size="10.00">&#45;</text>
<text xml:space="preserve" text-anchor="start" x="45" y="-66.75" font-family="Helvetica,sans-Serif" font-size="10.00">parseObject()</text>
<text xml:space="preserve" text-anchor="start" x="36.5" y="-51.5" font-family="Helvetica,sans-Serif" font-size="10.00">&#45;</text>
<text xml:space="preserve" text-anchor="start" x="45" y="-51.5" font-family="Helvetica,sans-Serif" font-size="10.00">skipWhitespace()</text>
<text xml:space="preserve" text-anchor="start" x="36.5" y="-36.25" font-family="Helvetica,sans-Serif" font-size="10.00">&#45;</text>
<text xml:space="preserve" text-anchor="start" x="45" y="-36.25" font-family="Helvetica,sans-Serif" font-size="10.00">parseString()</text>
<text xml:space="preserve" text-anchor="start" x="36.5" y="-21" font-family="Helvetica,sans-Serif" font-size="10.00">&#45;</text>
<text xml:space="preserve" text-anchor="start" x="45" y="-21" font-family="Helvetica,sans-Serif" font-size="10.00">parseValue()</text>
<text xml:space="preserve" text-anchor="start" x="36.5" y="-5.75" font-family="Helvetica,sans-Serif" font-size="10.00">&#45;</text>
<text xml:space="preserve" text-anchor="start" x="45" y="-5.75" font-family="Helvetica,sans-Serif" font-size="10.00">extractNestedObject()</text>
<polygon fill="#666666" stroke="#666666" points="31,-200.25 31,-200.25 145,-200.25 145,-200.25 31,-200.25"/>
<polygon fill="#666666" stroke="#666666" points="31,-185 31,-185 145,-185 145,-185 31,-185"/>
<polygon fill="none" stroke="#666666" points="31,0 31,-217.5 145,-217.5 145,0 31,0"/>
</a>
</g>
</g>
<!-- Node2 -->
<g id="Node000002" class="node">
<title>Node2</title>
<g id="a_Node000002"><a xlink:title=" ">
<polygon fill="white" stroke="none" points="135.12,-343 40.88,-343 40.88,-270.75 135.12,-270.75 135.12,-343"/>
<text xml:space="preserve" text-anchor="start" x="44.88" y="-329.5" font-family="Helvetica,sans-Serif" font-size="10.00">std::unordered_map</text>
<text xml:space="preserve" text-anchor="start" x="44.88" y="-318.25" font-family="Helvetica,sans-Serif" font-size="10.00">&lt; std::string, std::</text>
<text xml:space="preserve" text-anchor="start" x="71.5" y="-307" font-family="Helvetica,sans-Serif" font-size="10.00">string &gt;</text>
<text xml:space="preserve" text-anchor="start" x="86.5" y="-291.75" font-family="Helvetica,sans-Serif" font-size="10.00"> </text>
<text xml:space="preserve" text-anchor="start" x="86.5" y="-276.5" font-family="Helvetica,sans-Serif" font-size="10.00"> </text>
<polygon fill="#666666" stroke="#666666" points="40.88,-303.25 40.88,-303.25 135.12,-303.25 135.12,-303.25 40.88,-303.25"/>
<polygon fill="#666666" stroke="#666666" points="40.88,-288 40.88,-288 135.12,-288 135.12,-288 40.88,-288"/>
<polygon fill="none" stroke="#666666" points="40.88,-270.75 40.88,-343 135.12,-343 135.12,-270.75 40.88,-270.75"/>
</a>
</g>
</g>
<!-- Node2&#45;&gt;Node1 -->
<g id="edge1_Node000001_Node000002" class="edge">
<title>Node2&#45;&gt;Node1</title>
<g id="a_edge1_Node000001_Node000002"><a xlink:title=" ">
<path fill="none" stroke="#63b8ff" d="M88,-270.81C88,-258.97 88,-244.99 88,-230.31"/>
<polygon fill="none" stroke="#63b8ff" points="88,-230.16 84,-224.16 88,-218.16 92,-224.16 88,-230.16"/>
</a>
</g>
<text xml:space="preserve" text-anchor="start" x="91" y="-240.25" font-family="Helvetica,sans-Serif" font-size="10.00" fill="grey">+data</text>
</g>
<!-- Node3 -->
<g id="Node000003" class="node">
<title>Node3</title>
<g id="a_Node000003"><a xlink:title=" ">
<polygon fill="white" stroke="none" points="68.75,-466.88 17.25,-466.88 17.25,-417.12 68.75,-417.12 68.75,-466.88"/>
<text xml:space="preserve" text-anchor="start" x="21.25" y="-453.38" font-family="Helvetica,sans-Serif" font-size="10.00">std::string</text>
<text xml:space="preserve" text-anchor="start" x="41.5" y="-438.12" font-family="Helvetica,sans-Serif" font-size="10.00"> </text>
<text xml:space="preserve" text-anchor="start" x="41.5" y="-422.88" font-family="Helvetica,sans-Serif" font-size="10.00"> </text>
<polygon fill="#666666" stroke="#666666" points="17.25,-449.62 17.25,-449.62 68.75,-449.62 68.75,-449.62 17.25,-449.62"/>
<polygon fill="#666666" stroke="#666666" points="17.25,-434.38 17.25,-434.38 68.75,-434.38 68.75,-434.38 17.25,-434.38"/>
<polygon fill="none" stroke="#666666" points="17.25,-417.12 17.25,-466.88 68.75,-466.88 68.75,-417.12 17.25,-417.12"/>
</a>
</g>
</g>
<!-- Node3&#45;&gt;Node2 -->
<g id="edge2_Node000002_Node000003" class="edge">
<title>Node3&#45;&gt;Node2</title>
<g id="a_edge2_Node000002_Node000003"><a xlink:title=" ">
<path fill="none" stroke="#63b8ff" d="M44.59,-417.3C46.23,-401.06 49.56,-379.24 56.25,-361 57.05,-358.82 57.94,-356.64 58.89,-354.46"/>
<polygon fill="none" stroke="#63b8ff" points="58.86,-354.54 57.93,-347.39 64.17,-343.78 65.1,-350.93 58.86,-354.54"/>
</a>
</g>
<text xml:space="preserve" text-anchor="start" x="59.25" y="-381" font-family="Helvetica,sans-Serif" font-size="10.00" fill="grey">+elements</text>
<text xml:space="preserve" text-anchor="start" x="59.25" y="-365.75" font-family="Helvetica,sans-Serif" font-size="10.00" fill="grey">+keys</text>
</g>
<!-- Node4 -->
<g id="Node000004" class="node">
<title>Node4</title>
<g id="a_Node000004"><a xlink:title=" ">
<polygon fill="white" stroke="none" points="86,-586.75 0,-586.75 0,-525.75 86,-525.75 86,-586.75"/>
<text xml:space="preserve" text-anchor="start" x="4" y="-573.25" font-family="Helvetica,sans-Serif" font-size="10.00">std::basic_string&lt;</text>
<text xml:space="preserve" text-anchor="start" x="26.5" y="-562" font-family="Helvetica,sans-Serif" font-size="10.00"> Char &gt;</text>
<text xml:space="preserve" text-anchor="start" x="41.5" y="-546.75" font-family="Helvetica,sans-Serif" font-size="10.00"> </text>
<text xml:space="preserve" text-anchor="start" x="41.5" y="-531.5" font-family="Helvetica,sans-Serif" font-size="10.00"> </text>
<polygon fill="#666666" stroke="#666666" points="0,-558.25 0,-558.25 86,-558.25 86,-558.25 0,-558.25"/>
<polygon fill="#666666" stroke="#666666" points="0,-543 0,-543 86,-543 86,-543 0,-543"/>
<polygon fill="none" stroke="#666666" points="0,-525.75 0,-586.75 86,-586.75 86,-525.75 0,-525.75"/>
</a>
</g>
</g>
<!-- Node4&#45;&gt;Node3 -->
<g id="edge3_Node000003_Node000004" class="edge">
<title>Node4&#45;&gt;Node3</title>
<g id="a_edge3_Node000003_Node000004"><a xlink:title=" ">
<path fill="none" stroke="#63b8ff" d="M43,-514.46C43,-498.39 43,-480.5 43,-466.64"/>
<polygon fill="none" stroke="#63b8ff" points="39.5,-514.24 43,-524.24 46.5,-514.24 39.5,-514.24"/>
</a>
</g>
</g>
<!-- Node5 -->
<g id="Node000005" class="node">
<title>Node5</title>
<g id="a_Node000005"><a xlink:title=" ">
<polygon fill="white" stroke="none" points="181.12,-472.5 86.88,-472.5 86.88,-411.5 181.12,-411.5 181.12,-472.5"/>
<text xml:space="preserve" text-anchor="start" x="90.88" y="-459" font-family="Helvetica,sans-Serif" font-size="10.00">std::unordered_map</text>
<text xml:space="preserve" text-anchor="start" x="115.62" y="-447.75" font-family="Helvetica,sans-Serif" font-size="10.00">&lt; K, T &gt;</text>
<text xml:space="preserve" text-anchor="start" x="132.5" y="-432.5" font-family="Helvetica,sans-Serif" font-size="10.00"> </text>
<text xml:space="preserve" text-anchor="start" x="132.5" y="-417.25" font-family="Helvetica,sans-Serif" font-size="10.00"> </text>
<polygon fill="#666666" stroke="#666666" points="86.88,-444 86.88,-444 181.12,-444 181.12,-444 86.88,-444"/>
<polygon fill="#666666" stroke="#666666" points="86.88,-428.75 86.88,-428.75 181.12,-428.75 181.12,-428.75 86.88,-428.75"/>
<polygon fill="none" stroke="#666666" points="86.88,-411.5 86.88,-472.5 181.12,-472.5 181.12,-411.5 86.88,-411.5"/>
</a>
</g>
</g>
<!-- Node5&#45;&gt;Node2 -->
<g id="edge4_Node000002_Node000005" class="edge">
<title>Node5&#45;&gt;Node2</title>
<g id="a_edge4_Node000002_Node000005"><a xlink:title=" ">
<path fill="none" stroke="orange" d="M121.34,-400.83C117.21,-388.06 112.52,-373.9 108,-361 105.95,-355.14 103.69,-348.95 101.46,-342.94"/>
<polygon fill="orange" stroke="orange" points="117.96,-401.74 124.35,-410.19 124.62,-399.6 117.96,-401.74"/>
</a>
</g>
<text xml:space="preserve" text-anchor="start" x="121.36" y="-381" font-family="Helvetica,sans-Serif" font-size="10.00" fill="grey">&lt; std::string, std</text>
<text xml:space="preserve" text-anchor="start" x="121.36" y="-365.75" font-family="Helvetica,sans-Serif" font-size="10.00" fill="grey">  ::string &gt;</text>
</g>
<!-- Node6 -->
<g id="Node000006" class="node">
<title>Node6</title>
<g id="a_Node000006"><a xlink:title=" ">
<polygon fill="white" stroke="none" points="129.38,-581.12 114.62,-581.12 114.62,-531.38 129.38,-531.38 129.38,-581.12"/>
<text xml:space="preserve" text-anchor="start" x="118.62" y="-567.62" font-family="Helvetica,sans-Serif" font-size="10.00">K</text>
<text xml:space="preserve" text-anchor="start" x="120.5" y="-552.38" font-family="Helvetica,sans-Serif" font-size="10.00"> </text>
<text xml:space="preserve" text-anchor="start" x="120.5" y="-537.12" font-family="Helvetica,sans-Serif" font-size="10.00"> </text>
<polygon fill="#666666" stroke="#666666" points="114.62,-563.88 114.62,-563.88 129.38,-563.88 129.38,-563.88 114.62,-563.88"/>
<polygon fill="#666666" stroke="#666666" points="114.62,-548.62 114.62,-548.62 129.38,-548.62 129.38,-548.62 114.62,-548.62"/>
<polygon fill="none" stroke="#666666" points="114.62,-531.38 114.62,-581.12 129.38,-581.12 129.38,-531.38 114.62,-531.38"/>
</a>
</g>
</g>
<!-- Node6&#45;&gt;Node5 -->
<g id="edge5_Node000005_Node000006" class="edge">
<title>Node6&#45;&gt;Node5</title>
<g id="a_edge5_Node000005_Node000006"><a xlink:title=" ">
<path fill="none" stroke="#63b8ff" d="M121.17,-531.49C121.04,-519.21 121.35,-504 123,-490.5 123.21,-488.75 123.46,-486.98 123.75,-485.19"/>
<polygon fill="none" stroke="#63b8ff" points="123.75,-485.15 120.94,-478.51 125.99,-473.36 128.8,-480 123.75,-485.15"/>
</a>
</g>
<text xml:space="preserve" text-anchor="start" x="126" y="-495.25" font-family="Helvetica,sans-Serif" font-size="10.00" fill="grey">+keys</text>
</g>
<!-- Node7 -->
<g id="Node000007" class="node">
<title>Node7</title>
<g id="a_Node000007"><a xlink:title=" ">
<polygon fill="white" stroke="none" points="185,-581.12 171,-581.12 171,-531.38 185,-531.38 185,-581.12"/>
<text xml:space="preserve" text-anchor="start" x="175" y="-567.62" font-family="Helvetica,sans-Serif" font-size="10.00">T</text>
<text xml:space="preserve" text-anchor="start" x="176.5" y="-552.38" font-family="Helvetica,sans-Serif" font-size="10.00"> </text>
<text xml:space="preserve" text-anchor="start" x="176.5" y="-537.12" font-family="Helvetica,sans-Serif" font-size="10.00"> </text>
<polygon fill="#666666" stroke="#666666" points="171,-563.88 171,-563.88 185,-563.88 185,-563.88 171,-563.88"/>
<polygon fill="#666666" stroke="#666666" points="171,-548.62 171,-548.62 185,-548.62 185,-548.62 171,-548.62"/>
<polygon fill="none" stroke="#666666" points="171,-531.38 171,-581.12 185,-581.12 185,-531.38 171,-531.38"/>
</a>
</g>
</g>
<!-- Node7&#45;&gt;Node5 -->
<g id="edge6_Node000005_Node000007" class="edge">
<title>Node7&#45;&gt;Node5</title>
<g id="a_edge6_Node000005_Node000007"><a xlink:title=" ">
<path fill="none" stroke="#63b8ff" d="M171.04,-532.86C166.97,-520.29 161.56,-504.39 156,-490.5 155.19,-488.47 154.33,-486.4 153.45,-484.32"/>
<polygon fill="none" stroke="#63b8ff" points="153.42,-484.24 147.34,-480.36 148.59,-473.26 154.66,-477.14 153.42,-484.24"/>
</a>
</g>
<text xml:space="preserve" text-anchor="start" x="164.98" y="-495.25" font-family="Helvetica,sans-Serif" font-size="10.00" fill="grey">+elements</text>
</g>
</g>
</svg>

<g id="navigator" transform="translate(0 0)" fill="#404254">
  <rect fill="#f2f5e9" fill-opacity="0.5" stroke="#606060" stroke-width=".5" x="0" y="0" width="60" height="60"/>
  <use id="zoomplus" xlink:href="#zoomPlus" x="17" y="9" onmousedown="handleZoom(evt,'in')"/>
  <use id="zoomminus" xlink:href="#zoomMin" x="42" y="9" onmousedown="handleZoom(evt,'out')"/>
  <use id="reset" xlink:href="#resetDef" x="30" y="36" onmousedown="handleReset()"/>
   <use id="arrowup" xlink:href="#arrowUp" x="0" y="0" onmousedown="handlePan(0,-1)"/>
  <use id="arrowright" xlink:href="#arrowRight" x="0" y="0" onmousedown="handlePan(1,0)"/>
  <use id="arrowdown" xlink:href="#arrowDown" x="0" y="0" onmousedown="handlePan(0,1)"/>
  <use id="arrowleft" xlink:href="#arrowLeft" x="0" y="0" onmousedown="handlePan(-1,0)"/>
</g>
<svg viewBox="0 0 15 15" width="100%" height="30px" preserveAspectRatio="xMaxYMin meet">
 <g id="arrow_out" transform="scale(0.3 0.3)">
  <a xlink:href="classrtp_1_1config_1_1SimpleJson__coll__graph_org.svg" target="_base">
   <rect id="button" ry="5" rx="5" y="6" x="6" height="38" width="38"
        fill="#f2f5e9" fill-opacity="0.5" stroke="#606060" stroke-width="1.0"/>
   <path id="arrow"
     d="M 11.500037,31.436501 C 11.940474,20.09759 22.043105,11.32322 32.158766,21.979434 L 37.068811,17.246167 C 37.068811,17.246167 37.088388,32 37.088388,32 L 22.160133,31.978069 C 22.160133,31.978069 26.997745,27.140456 26.997745,27.140456 C 18.528582,18.264221 13.291696,25.230495 11.500037,31.436501 z"
     style="fill:#404040;"/>
  </a>
 </g>
</svg>

<style type='text/css'>
<![CDATA[
[data-mouse-over-selected='false'] { opacity: 0.7; }
[data-mouse-over-selected='true']  { opacity: 1.0; }
]]>
</style>
<script type="application/ecmascript"><![CDATA[
document.addEventListener('DOMContentLoaded', (event) => {
  highlightEdges();
  highlightAdjacentNodes();
});
]]></script>
</svg>
