<?xml version="1.0" encoding="UTF-8" standalone="no"?>
<!DOCTYPE svg PUBLIC "-//W3C//DTD SVG 1.1//EN"
 "http://www.w3.org/Graphics/SVG/1.1/DTD/svg11.dtd">
<!-- Generated by graphviz version 14.0.5 (20251129.0259)
 -->
<!-- Title: rtp::client::interfaces::IScene Pages: 1 -->
<svg width="105pt" height="130pt"
 viewBox="0.00 0.00 105.00 130.00" xmlns="http://www.w3.org/2000/svg" xmlns:xlink="http://www.w3.org/1999/xlink">
<g id="graph0" class="graph" transform="scale(1 1) rotate(0) translate(4 126)">
<title>rtp::client::interfaces::IScene</title>
<!-- Node1 -->
<g id="Node000001" class="node">
<title>Node1</title>
<g id="a_Node000001"><a xlink:title="Interface for different scenes in the client application.">
<polygon fill="#999999" stroke="none" points="97.25,-122 0,-122 0,0 97.25,0 97.25,-122"/>
<text xml:space="preserve" text-anchor="start" x="4" y="-108.5" font-family="Helvetica,sans-Serif" font-size="10.00">rtp::client::interfaces</text>
<text xml:space="preserve" text-anchor="start" x="30.25" y="-97.25" font-family="Helvetica,sans-Serif" font-size="10.00">::IScene</text>
<text xml:space="preserve" text-anchor="start" x="47.12" y="-82" font-family="Helvetica,sans-Serif" font-size="10.00"> </text>
<text xml:space="preserve" text-anchor="start" x="8.81" y="-66.75" font-family="Helvetica,sans-Serif" font-size="10.00">+</text>
<text xml:space="preserve" text-anchor="start" x="23.62" y="-66.75" font-family="Helvetica,sans-Serif" font-size="10.00">~IScene()</text>
<text xml:space="preserve" text-anchor="start" x="8.81" y="-51.5" font-family="Helvetica,sans-Serif" font-size="10.00">+</text>
<text xml:space="preserve" text-anchor="start" x="23.62" y="-51.5" font-family="Helvetica,sans-Serif" font-size="10.00">onEnter()</text>
<text xml:space="preserve" text-anchor="start" x="8.81" y="-36.25" font-family="Helvetica,sans-Serif" font-size="10.00">+</text>
<text xml:space="preserve" text-anchor="start" x="23.62" y="-36.25" font-family="Helvetica,sans-Serif" font-size="10.00">onExit()</text>
<text xml:space="preserve" text-anchor="start" x="8.81" y="-21" font-family="Helvetica,sans-Serif" font-size="10.00">+</text>
<text xml:space="preserve" text-anchor="start" x="23.62" y="-21" font-family="Helvetica,sans-Serif" font-size="10.00">handleEvent()</text>
<text xml:space="preserve" text-anchor="start" x="8.81" y="-5.75" font-family="Helvetica,sans-Serif" font-size="10.00">+</text>
<text xml:space="preserve" text-anchor="start" x="23.62" y="-5.75" font-family="Helvetica,sans-Serif" font-size="10.00">update()</text>
<polygon fill="#666666" stroke="#666666" points="0,-93.5 0,-93.5 97.25,-93.5 97.25,-93.5 0,-93.5"/>
<polygon fill="#666666" stroke="#666666" points="0,-78.25 0,-78.25 97.25,-78.25 97.25,-78.25 0,-78.25"/>
<polygon fill="none" stroke="#666666" points="0,0 0,-122 97.25,-122 97.25,0 0,0"/>
</a>
</g>
</g>
</g>
</svg>
