<?xml version="1.0" encoding="UTF-8" standalone="no"?>
<!DOCTYPE svg PUBLIC "-//W3C//DTD SVG 1.1//EN"
 "http://www.w3.org/Graphics/SVG/1.1/DTD/svg11.dtd">
<!-- Generated by graphviz version 14.0.5 (20251129.0259)
 -->
<!-- Title: rtp::server::EnemyAISystem Pages: 1 -->
<svg width="141pt" height="189pt"
 viewBox="0.00 0.00 141.00 189.00" xmlns="http://www.w3.org/2000/svg" xmlns:xlink="http://www.w3.org/1999/xlink">
<g id="graph0" class="graph" transform="scale(1 1) rotate(0) translate(4 185.25)">
<title>rtp::server::EnemyAISystem</title>
<!-- Node1 -->
<g id="Node000001" class="node">
<title>Node1</title>
<g id="a_Node000001"><a xlink:title="System to handle enemy AI behavior.">
<polygon fill="#999999" stroke="none" points="132.5,-80.25 0,-80.25 0,0 132.5,0 132.5,-80.25"/>
<text xml:space="preserve" text-anchor="start" x="4" y="-66.75" font-family="Helvetica,sans-Serif" font-size="10.00">rtp::server::EnemyAISystem</text>
<text xml:space="preserve" text-anchor="start" x="14.06" y="-51.5" font-family="Helvetica,sans-Serif" font-size="10.00">&#45;</text>
<text xml:space="preserve" text-anchor="start" x="31.12" y="-51.5" font-family="Helvetica,sans-Serif" font-size="10.00">_registry</text>
<text xml:space="preserve" text-anchor="start" x="14.06" y="-36.25" font-family="Helvetica,sans-Serif" font-size="10.00">&#45;</text>
<text xml:space="preserve" text-anchor="start" x="31.12" y="-36.25" font-family="Helvetica,sans-Serif" font-size="10.00">_time</text>
<text xml:space="preserve" text-anchor="start" x="12.56" y="-21" font-family="Helvetica,sans-Serif" font-size="10.00">+</text>
<text xml:space="preserve" text-anchor="start" x="31.12" y="-21" font-family="Helvetica,sans-Serif" font-size="10.00">EnemyAISystem()</text>
<text xml:space="preserve" text-anchor="start" x="12.56" y="-5.75" font-family="Helvetica,sans-Serif" font-size="10.00">+</text>
<text xml:space="preserve" text-anchor="start" x="31.12" y="-5.75" font-family="Helvetica,sans-Serif" font-size="10.00">update()</text>
<polygon fill="#666666" stroke="#666666" points="0,-63 0,-63 132.5,-63 132.5,-63 0,-63"/>
<polygon fill="#666666" stroke="#666666" points="0,-32.5 0,-32.5 29.12,-32.5 29.12,-32.5 0,-32.5"/>
<polygon fill="#666666" stroke="#666666" points="29.12,-32.5 29.12,-32.5 132.5,-32.5 132.5,-32.5 29.12,-32.5"/>
<polygon fill="none" stroke="#666666" points="0,0 0,-80.25 132.5,-80.25 132.5,0 0,0"/>
</a>
</g>
</g>
<!-- Node2 -->
<g id="Node000002" class="node">
<title>Node2</title>
<g id="a_Node000002"><a xlink:href="classrtp_1_1ecs_1_1ISystem.html" target="_top" xlink:title="Abstract base class for all ECS systems.">
<polygon fill="white" stroke="none" points="108.12,-181.25 24.38,-181.25 24.38,-116.25 108.12,-116.25 108.12,-181.25"/>
<text xml:space="preserve" text-anchor="start" x="28.38" y="-167.75" font-family="Helvetica,sans-Serif" font-size="10.00">rtp::ecs::ISystem</text>
<text xml:space="preserve" text-anchor="start" x="64.75" y="-152.5" font-family="Helvetica,sans-Serif" font-size="10.00"> </text>
<text xml:space="preserve" text-anchor="start" x="32.62" y="-137.25" font-family="Helvetica,sans-Serif" font-size="10.00">+</text>
<text xml:space="preserve" text-anchor="start" x="46.88" y="-137.25" font-family="Helvetica,sans-Serif" font-size="10.00">~ISystem()</text>
<text xml:space="preserve" text-anchor="start" x="32.62" y="-122" font-family="Helvetica,sans-Serif" font-size="10.00">+</text>
<text xml:space="preserve" text-anchor="start" x="46.88" y="-122" font-family="Helvetica,sans-Serif" font-size="10.00">update()</text>
<polygon fill="#666666" stroke="#666666" points="24.38,-164 24.38,-164 108.12,-164 108.12,-164 24.38,-164"/>
<polygon fill="#666666" stroke="#666666" points="24.38,-148.75 24.38,-148.75 108.12,-148.75 108.12,-148.75 24.38,-148.75"/>
<polygon fill="none" stroke="#666666" points="24.38,-116.25 24.38,-181.25 108.12,-181.25 108.12,-116.25 24.38,-116.25"/>
</a>
</g>
</g>
<!-- Node2&#45;&gt;Node1 -->
<g id="edge1_Node000001_Node000002" class="edge">
<title>Node2&#45;&gt;Node1</title>
<g id="a_edge1_Node000001_Node000002"><a xlink:title=" ">
<path fill="none" stroke="#63b8ff" d="M66.25,-104.94C66.25,-96.66 66.25,-88.02 66.25,-79.87"/>
<polygon fill="none" stroke="#63b8ff" points="62.75,-104.82 66.25,-114.82 69.75,-104.82 62.75,-104.82"/>
</a>
</g>
</g>
</g>
</svg>
