<?xml version="1.0" encoding="UTF-8" standalone="no"?>
<!DOCTYPE svg PUBLIC "-//W3C//DTD SVG 1.1//EN"
 "http://www.w3.org/Graphics/SVG/1.1/DTD/svg11.dtd">
<!-- Generated by graphviz version 14.0.5 (20251129.0259)
 -->
<!-- Title: rtp::net::Session Pages: 1 -->
<svg width="532pt" height="1170pt"
 viewBox="0.00 0.00 532.00 1170.00" xmlns="http://www.w3.org/2000/svg" xmlns:xlink="http://www.w3.org/1999/xlink">
<g id="graph0" class="graph" transform="scale(1 1) rotate(0) translate(4 1165.5)">
<title>rtp::net::Session</title>
<!-- Node1 -->
<g id="Node000001" class="node">
<title>Node1</title>
<g id="a_Node000001"><a xlink:title=" ">
<polygon fill="#999999" stroke="none" points="282,-309 183,-309 183,0 282,0 282,-309"/>
<text xml:space="preserve" text-anchor="start" x="196.5" y="-295.5" font-family="Helvetica,sans-Serif" font-size="10.00">rtp::net::Session</text>
<text xml:space="preserve" text-anchor="start" x="188.5" y="-280.25" font-family="Helvetica,sans-Serif" font-size="10.00">&#45;</text>
<text xml:space="preserve" text-anchor="start" x="197" y="-280.25" font-family="Helvetica,sans-Serif" font-size="10.00">_id</text>
<text xml:space="preserve" text-anchor="start" x="188.5" y="-265" font-family="Helvetica,sans-Serif" font-size="10.00">&#45;</text>
<text xml:space="preserve" text-anchor="start" x="197" y="-265" font-family="Helvetica,sans-Serif" font-size="10.00">_stopped</text>
<text xml:space="preserve" text-anchor="start" x="188.5" y="-249.75" font-family="Helvetica,sans-Serif" font-size="10.00">&#45;</text>
<text xml:space="preserve" text-anchor="start" x="197" y="-249.75" font-family="Helvetica,sans-Serif" font-size="10.00">_socket</text>
<text xml:space="preserve" text-anchor="start" x="188.5" y="-234.5" font-family="Helvetica,sans-Serif" font-size="10.00">&#45;</text>
<text xml:space="preserve" text-anchor="start" x="197" y="-234.5" font-family="Helvetica,sans-Serif" font-size="10.00">_serverUdpSocket</text>
<text xml:space="preserve" text-anchor="start" x="188.5" y="-219.25" font-family="Helvetica,sans-Serif" font-size="10.00">&#45;</text>
<text xml:space="preserve" text-anchor="start" x="197" y="-219.25" font-family="Helvetica,sans-Serif" font-size="10.00">_udpEndpoint</text>
<text xml:space="preserve" text-anchor="start" x="188.5" y="-204" font-family="Helvetica,sans-Serif" font-size="10.00">&#45;</text>
<text xml:space="preserve" text-anchor="start" x="197" y="-204" font-family="Helvetica,sans-Serif" font-size="10.00">_hasUdp</text>
<text xml:space="preserve" text-anchor="start" x="188.5" y="-188.75" font-family="Helvetica,sans-Serif" font-size="10.00">&#45;</text>
<text xml:space="preserve" text-anchor="start" x="197" y="-188.75" font-family="Helvetica,sans-Serif" font-size="10.00">_timer</text>
<text xml:space="preserve" text-anchor="start" x="187" y="-173.5" font-family="Helvetica,sans-Serif" font-size="10.00">+</text>
<text xml:space="preserve" text-anchor="start" x="197" y="-173.5" font-family="Helvetica,sans-Serif" font-size="10.00">Session()</text>
<text xml:space="preserve" text-anchor="start" x="187" y="-158.25" font-family="Helvetica,sans-Serif" font-size="10.00">+</text>
<text xml:space="preserve" text-anchor="start" x="197" y="-158.25" font-family="Helvetica,sans-Serif" font-size="10.00">~Session()</text>
<text xml:space="preserve" text-anchor="start" x="187" y="-143" font-family="Helvetica,sans-Serif" font-size="10.00">+</text>
<text xml:space="preserve" text-anchor="start" x="197" y="-143" font-family="Helvetica,sans-Serif" font-size="10.00">start()</text>
<text xml:space="preserve" text-anchor="start" x="187" y="-127.75" font-family="Helvetica,sans-Serif" font-size="10.00">+</text>
<text xml:space="preserve" text-anchor="start" x="197" y="-127.75" font-family="Helvetica,sans-Serif" font-size="10.00">stop()</text>
<text xml:space="preserve" text-anchor="start" x="187" y="-112.5" font-family="Helvetica,sans-Serif" font-size="10.00">+</text>
<text xml:space="preserve" text-anchor="start" x="197" y="-112.5" font-family="Helvetica,sans-Serif" font-size="10.00">send()</text>
<text xml:space="preserve" text-anchor="start" x="187" y="-97.25" font-family="Helvetica,sans-Serif" font-size="10.00">+</text>
<text xml:space="preserve" text-anchor="start" x="197" y="-97.25" font-family="Helvetica,sans-Serif" font-size="10.00">setId()</text>
<text xml:space="preserve" text-anchor="start" x="187" y="-82" font-family="Helvetica,sans-Serif" font-size="10.00">+</text>
<text xml:space="preserve" text-anchor="start" x="197" y="-82" font-family="Helvetica,sans-Serif" font-size="10.00">getId()</text>
<text xml:space="preserve" text-anchor="start" x="187" y="-66.75" font-family="Helvetica,sans-Serif" font-size="10.00">+</text>
<text xml:space="preserve" text-anchor="start" x="197" y="-66.75" font-family="Helvetica,sans-Serif" font-size="10.00">getTcpEndpoint()</text>
<text xml:space="preserve" text-anchor="start" x="187" y="-51.5" font-family="Helvetica,sans-Serif" font-size="10.00">+</text>
<text xml:space="preserve" text-anchor="start" x="197" y="-51.5" font-family="Helvetica,sans-Serif" font-size="10.00">setUdpEndpoint()</text>
<text xml:space="preserve" text-anchor="start" x="187" y="-36.25" font-family="Helvetica,sans-Serif" font-size="10.00">+</text>
<text xml:space="preserve" text-anchor="start" x="197" y="-36.25" font-family="Helvetica,sans-Serif" font-size="10.00">getUdpEndpoint()</text>
<text xml:space="preserve" text-anchor="start" x="188.5" y="-21" font-family="Helvetica,sans-Serif" font-size="10.00">&#45;</text>
<text xml:space="preserve" text-anchor="start" x="197" y="-21" font-family="Helvetica,sans-Serif" font-size="10.00">reader()</text>
<text xml:space="preserve" text-anchor="start" x="188.5" y="-5.75" font-family="Helvetica,sans-Serif" font-size="10.00">&#45;</text>
<text xml:space="preserve" text-anchor="start" x="197" y="-5.75" font-family="Helvetica,sans-Serif" font-size="10.00">writer()</text>
<polygon fill="#666666" stroke="#666666" points="183,-291.75 183,-291.75 282,-291.75 282,-291.75 183,-291.75"/>
<polygon fill="#666666" stroke="#666666" points="183,-185 183,-185 195,-185 195,-185 183,-185"/>
<polygon fill="#666666" stroke="#666666" points="195,-185 195,-185 282,-185 282,-185 195,-185"/>
<polygon fill="none" stroke="#666666" points="183,0 183,-309 282,-309 282,0 183,0"/>
</a>
</g>
</g>
<!-- Node2 -->
<g id="Node000002" class="node">
<title>Node2</title>
<g id="a_Node000002"><a xlink:title=" ">
<polygon fill="white" stroke="none" points="107,-425.25 0,-425.25 0,-364.25 107,-364.25 107,-425.25"/>
<text xml:space="preserve" text-anchor="start" x="4" y="-411.75" font-family="Helvetica,sans-Serif" font-size="10.00">std::enable_shared</text>
<text xml:space="preserve" text-anchor="start" x="4" y="-400.5" font-family="Helvetica,sans-Serif" font-size="10.00">_from_this&lt; Session &gt;</text>
<text xml:space="preserve" text-anchor="start" x="52" y="-385.25" font-family="Helvetica,sans-Serif" font-size="10.00"> </text>
<text xml:space="preserve" text-anchor="start" x="52" y="-370" font-family="Helvetica,sans-Serif" font-size="10.00"> </text>
<polygon fill="#666666" stroke="#666666" points="0,-396.75 0,-396.75 107,-396.75 107,-396.75 0,-396.75"/>
<polygon fill="#666666" stroke="#666666" points="0,-381.5 0,-381.5 107,-381.5 107,-381.5 0,-381.5"/>
<polygon fill="none" stroke="#666666" points="0,-364.25 0,-425.25 107,-425.25 107,-364.25 0,-364.25"/>
</a>
</g>
</g>
<!-- Node2&#45;&gt;Node1 -->
<g id="edge1_Node000001_Node000002" class="edge">
<title>Node2&#45;&gt;Node1</title>
<g id="a_edge1_Node000001_Node000002"><a xlink:title=" ">
<path fill="none" stroke="#63b8ff" d="M82.04,-355.76C109.25,-319.54 150.78,-264.27 183.32,-220.96"/>
<polygon fill="none" stroke="#63b8ff" points="79.57,-353.23 76.36,-363.33 85.16,-357.43 79.57,-353.23"/>
</a>
</g>
</g>
<!-- Node3 -->
<g id="Node000003" class="node">
<title>Node3</title>
<g id="a_Node000003"><a xlink:href="classrtp_1_1net_1_1IEventPublisher.html" target="_top" xlink:title="Interface for network event handling.">
<polygon fill="white" stroke="none" points="238.38,-427.25 124.62,-427.25 124.62,-362.25 238.38,-362.25 238.38,-427.25"/>
<text xml:space="preserve" text-anchor="start" x="128.62" y="-413.75" font-family="Helvetica,sans-Serif" font-size="10.00">rtp::net::IEventPublisher</text>
<text xml:space="preserve" text-anchor="start" x="180" y="-398.5" font-family="Helvetica,sans-Serif" font-size="10.00"> </text>
<text xml:space="preserve" text-anchor="start" x="132.31" y="-383.25" font-family="Helvetica,sans-Serif" font-size="10.00">+</text>
<text xml:space="preserve" text-anchor="start" x="146" y="-383.25" font-family="Helvetica,sans-Serif" font-size="10.00">~IEventPublisher()</text>
<text xml:space="preserve" text-anchor="start" x="132.31" y="-368" font-family="Helvetica,sans-Serif" font-size="10.00">+</text>
<text xml:space="preserve" text-anchor="start" x="146" y="-368" font-family="Helvetica,sans-Serif" font-size="10.00">publishEvent()</text>
<polygon fill="#666666" stroke="#666666" points="124.62,-410 124.62,-410 238.38,-410 238.38,-410 124.62,-410"/>
<polygon fill="#666666" stroke="#666666" points="124.62,-394.75 124.62,-394.75 238.38,-394.75 238.38,-394.75 124.62,-394.75"/>
<polygon fill="none" stroke="#666666" points="124.62,-362.25 124.62,-427.25 238.38,-427.25 238.38,-362.25 124.62,-362.25"/>
</a>
</g>
</g>
<!-- Node3&#45;&gt;Node1 -->
<g id="edge2_Node000001_Node000003" class="edge">
<title>Node3&#45;&gt;Node1</title>
<g id="a_edge2_Node000001_Node000003"><a xlink:title=" ">
<path fill="none" stroke="#63b8ff" d="M188.17,-362.6C190.66,-350.96 193.7,-336.78 197,-321.36"/>
<polygon fill="none" stroke="#63b8ff" points="196.99,-321.37 194.34,-314.66 199.51,-309.63 202.16,-316.34 196.99,-321.37"/>
</a>
</g>
<text xml:space="preserve" text-anchor="start" x="198.18" y="-331.75" font-family="Helvetica,sans-Serif" font-size="10.00" fill="grey">&#45;_publisher</text>
</g>
<!-- Node4 -->
<g id="Node000004" class="node">
<title>Node4</title>
<g id="a_Node000004"><a xlink:title=" ">
<polygon fill="white" stroke="none" points="310.75,-419.62 256.25,-419.62 256.25,-369.88 310.75,-369.88 310.75,-419.62"/>
<text xml:space="preserve" text-anchor="start" x="260.25" y="-406.12" font-family="Helvetica,sans-Serif" font-size="10.00">std::mutex</text>
<text xml:space="preserve" text-anchor="start" x="282" y="-390.88" font-family="Helvetica,sans-Serif" font-size="10.00"> </text>
<text xml:space="preserve" text-anchor="start" x="282" y="-375.62" font-family="Helvetica,sans-Serif" font-size="10.00"> </text>
<polygon fill="#666666" stroke="#666666" points="256.25,-402.38 256.25,-402.38 310.75,-402.38 310.75,-402.38 256.25,-402.38"/>
<polygon fill="#666666" stroke="#666666" points="256.25,-387.12 256.25,-387.12 310.75,-387.12 310.75,-387.12 256.25,-387.12"/>
<polygon fill="none" stroke="#666666" points="256.25,-369.88 256.25,-419.62 310.75,-419.62 310.75,-369.88 256.25,-369.88"/>
</a>
</g>
</g>
<!-- Node4&#45;&gt;Node1 -->
<g id="edge3_Node000001_Node000004" class="edge">
<title>Node4&#45;&gt;Node1</title>
<g id="a_edge3_Node000001_Node000004"><a xlink:title=" ">
<path fill="none" stroke="#63b8ff" d="M278.42,-370.03C275.7,-357.29 272.07,-340.34 268.04,-321.53"/>
<polygon fill="none" stroke="#63b8ff" points="268.04,-321.55 262.88,-316.52 265.53,-309.82 270.7,-314.85 268.04,-321.55"/>
</a>
</g>
<text xml:space="preserve" text-anchor="start" x="275.48" y="-331.75" font-family="Helvetica,sans-Serif" font-size="10.00" fill="grey">&#45;_writeMutex</text>
</g>
<!-- Node5 -->
<g id="Node000005" class="node">
<title>Node5</title>
<g id="a_Node000005"><a xlink:title=" ">
<polygon fill="white" stroke="none" points="422.25,-425.25 328.75,-425.25 328.75,-364.25 422.25,-364.25 422.25,-425.25"/>
<text xml:space="preserve" text-anchor="start" x="332.75" y="-411.75" font-family="Helvetica,sans-Serif" font-size="10.00">std::deque&lt; rtp::net</text>
<text xml:space="preserve" text-anchor="start" x="352.62" y="-400.5" font-family="Helvetica,sans-Serif" font-size="10.00">::Packet &gt;</text>
<text xml:space="preserve" text-anchor="start" x="374" y="-385.25" font-family="Helvetica,sans-Serif" font-size="10.00"> </text>
<text xml:space="preserve" text-anchor="start" x="374" y="-370" font-family="Helvetica,sans-Serif" font-size="10.00"> </text>
<polygon fill="#666666" stroke="#666666" points="328.75,-396.75 328.75,-396.75 422.25,-396.75 422.25,-396.75 328.75,-396.75"/>
<polygon fill="#666666" stroke="#666666" points="328.75,-381.5 328.75,-381.5 422.25,-381.5 422.25,-381.5 328.75,-381.5"/>
<polygon fill="none" stroke="#666666" points="328.75,-364.25 328.75,-425.25 422.25,-425.25 422.25,-364.25 328.75,-364.25"/>
</a>
</g>
</g>
<!-- Node5&#45;&gt;Node1 -->
<g id="edge4_Node000001_Node000005" class="edge">
<title>Node5&#45;&gt;Node1</title>
<g id="a_edge4_Node000001_Node000005"><a xlink:title=" ">
<path fill="none" stroke="#63b8ff" d="M359.59,-364.34C353.16,-352.65 345.6,-339.12 338.5,-327 322.64,-299.92 304.89,-270.78 288.52,-244.34"/>
<polygon fill="none" stroke="#63b8ff" points="288.64,-244.53 282.08,-241.55 282.31,-234.34 288.87,-237.33 288.64,-244.53"/>
</a>
</g>
<text xml:space="preserve" text-anchor="start" x="350.89" y="-331.75" font-family="Helvetica,sans-Serif" font-size="10.00" fill="grey">&#45;_writeQueue</text>
</g>
<!-- Node6 -->
<g id="Node000006" class="node">
<title>Node6</title>
<g id="a_Node000006"><a xlink:href="classrtp_1_1net_1_1Packet.html" target="_top" xlink:title="Network packet with header and serializable body.">
<polygon fill="white" stroke="none" points="386.88,-713.25 254.12,-713.25 254.12,-480.5 386.88,-480.5 386.88,-713.25"/>
<text xml:space="preserve" text-anchor="start" x="286.75" y="-699.75" font-family="Helvetica,sans-Serif" font-size="10.00">rtp::net::Packet</text>
<text xml:space="preserve" text-anchor="start" x="259.62" y="-684.5" font-family="Helvetica,sans-Serif" font-size="10.00">&#45;</text>
<text xml:space="preserve" text-anchor="start" x="268.12" y="-684.5" font-family="Helvetica,sans-Serif" font-size="10.00">_readPos</text>
<text xml:space="preserve" text-anchor="start" x="258.12" y="-669.25" font-family="Helvetica,sans-Serif" font-size="10.00">+</text>
<text xml:space="preserve" text-anchor="start" x="268.12" y="-669.25" font-family="Helvetica,sans-Serif" font-size="10.00">Packet()</text>
<text xml:space="preserve" text-anchor="start" x="258.12" y="-654" font-family="Helvetica,sans-Serif" font-size="10.00">+</text>
<text xml:space="preserve" text-anchor="start" x="268.12" y="-654" font-family="Helvetica,sans-Serif" font-size="10.00">Packet()</text>
<text xml:space="preserve" text-anchor="start" x="258.12" y="-638.75" font-family="Helvetica,sans-Serif" font-size="10.00">+</text>
<text xml:space="preserve" text-anchor="start" x="268.12" y="-638.75" font-family="Helvetica,sans-Serif" font-size="10.00">resetRead()</text>
<text xml:space="preserve" text-anchor="start" x="258.12" y="-623.5" font-family="Helvetica,sans-Serif" font-size="10.00">+</text>
<text xml:space="preserve" text-anchor="start" x="268.12" y="-623.5" font-family="Helvetica,sans-Serif" font-size="10.00">getBufferSequence()</text>
<text xml:space="preserve" text-anchor="start" x="258.12" y="-608.25" font-family="Helvetica,sans-Serif" font-size="10.00">+</text>
<text xml:space="preserve" text-anchor="start" x="268.12" y="-608.25" font-family="Helvetica,sans-Serif" font-size="10.00">operator&lt;&lt;()</text>
<text xml:space="preserve" text-anchor="start" x="258.12" y="-593" font-family="Helvetica,sans-Serif" font-size="10.00">+</text>
<text xml:space="preserve" text-anchor="start" x="268.12" y="-593" font-family="Helvetica,sans-Serif" font-size="10.00">operator&lt;&lt;()</text>
<text xml:space="preserve" text-anchor="start" x="258.12" y="-577.75" font-family="Helvetica,sans-Serif" font-size="10.00">+</text>
<text xml:space="preserve" text-anchor="start" x="268.12" y="-577.75" font-family="Helvetica,sans-Serif" font-size="10.00">operator&lt;&lt;()</text>
<text xml:space="preserve" text-anchor="start" x="258.12" y="-562.5" font-family="Helvetica,sans-Serif" font-size="10.00">+</text>
<text xml:space="preserve" text-anchor="start" x="268.12" y="-562.5" font-family="Helvetica,sans-Serif" font-size="10.00">operator&gt;&gt;()</text>
<text xml:space="preserve" text-anchor="start" x="258.12" y="-547.25" font-family="Helvetica,sans-Serif" font-size="10.00">+</text>
<text xml:space="preserve" text-anchor="start" x="268.12" y="-547.25" font-family="Helvetica,sans-Serif" font-size="10.00">operator&gt;&gt;()</text>
<text xml:space="preserve" text-anchor="start" x="258.12" y="-532" font-family="Helvetica,sans-Serif" font-size="10.00">+</text>
<text xml:space="preserve" text-anchor="start" x="268.12" y="-532" font-family="Helvetica,sans-Serif" font-size="10.00">operator&gt;&gt;()</text>
<text xml:space="preserve" text-anchor="start" x="258.12" y="-516.75" font-family="Helvetica,sans-Serif" font-size="10.00">+</text>
<text xml:space="preserve" text-anchor="start" x="268.12" y="-516.75" font-family="Helvetica,sans-Serif" font-size="10.00">to_network()</text>
<text xml:space="preserve" text-anchor="start" x="258.12" y="-501.5" font-family="Helvetica,sans-Serif" font-size="10.00">+</text>
<text xml:space="preserve" text-anchor="start" x="268.12" y="-501.5" font-family="Helvetica,sans-Serif" font-size="10.00">from_network()</text>
<text xml:space="preserve" text-anchor="start" x="259.62" y="-486.25" font-family="Helvetica,sans-Serif" font-size="10.00">&#45;</text>
<text xml:space="preserve" text-anchor="start" x="268.12" y="-486.25" font-family="Helvetica,sans-Serif" font-size="10.00">_bumpBodySizeOrThrow()</text>
<polygon fill="#666666" stroke="#666666" points="254.12,-696 254.12,-696 386.88,-696 386.88,-696 254.12,-696"/>
<polygon fill="#666666" stroke="#666666" points="254.12,-680.75 254.12,-680.75 266.12,-680.75 266.12,-680.75 254.12,-680.75"/>
<polygon fill="#666666" stroke="#666666" points="266.12,-680.75 266.12,-680.75 386.88,-680.75 386.88,-680.75 266.12,-680.75"/>
<polygon fill="none" stroke="#666666" points="254.12,-480.5 254.12,-713.25 386.88,-713.25 386.88,-480.5 254.12,-480.5"/>
</a>
</g>
</g>
<!-- Node6&#45;&gt;Node5 -->
<g id="edge5_Node000005_Node000006" class="edge">
<title>Node6&#45;&gt;Node5</title>
<g id="a_edge5_Node000005_Node000006"><a xlink:title=" ">
<path fill="none" stroke="#63b8ff" d="M339.31,-480.64C342.34,-468.56 345.8,-456.57 349.75,-445.25 350.7,-442.54 351.77,-439.79 352.93,-437.05"/>
<polygon fill="none" stroke="#63b8ff" points="352.98,-436.94 351.88,-429.81 358.03,-426.05 359.13,-433.18 352.98,-436.94"/>
</a>
</g>
<text xml:space="preserve" text-anchor="start" x="352.75" y="-450" font-family="Helvetica,sans-Serif" font-size="10.00" fill="grey">+elements</text>
</g>
<!-- Node7 -->
<g id="Node000007" class="node">
<title>Node7</title>
<g id="a_Node000007"><a xlink:href="structrtp_1_1net_1_1Header.html" target="_top" xlink:title="Packet header with sequencing and acknowledgment support.">
<polygon fill="white" stroke="none" points="251.62,-923 175.38,-923 175.38,-781.75 251.62,-781.75 251.62,-923"/>
<text xml:space="preserve" text-anchor="start" x="179.38" y="-909.5" font-family="Helvetica,sans-Serif" font-size="10.00">rtp::net::Header</text>
<text xml:space="preserve" text-anchor="start" x="181.38" y="-894.25" font-family="Helvetica,sans-Serif" font-size="10.00">+</text>
<text xml:space="preserve" text-anchor="start" x="193.38" y="-894.25" font-family="Helvetica,sans-Serif" font-size="10.00">magic</text>
<text xml:space="preserve" text-anchor="start" x="181.38" y="-879" font-family="Helvetica,sans-Serif" font-size="10.00">+</text>
<text xml:space="preserve" text-anchor="start" x="193.38" y="-879" font-family="Helvetica,sans-Serif" font-size="10.00">sequenceId</text>
<text xml:space="preserve" text-anchor="start" x="181.38" y="-863.75" font-family="Helvetica,sans-Serif" font-size="10.00">+</text>
<text xml:space="preserve" text-anchor="start" x="193.38" y="-863.75" font-family="Helvetica,sans-Serif" font-size="10.00">bodySize</text>
<text xml:space="preserve" text-anchor="start" x="181.38" y="-848.5" font-family="Helvetica,sans-Serif" font-size="10.00">+</text>
<text xml:space="preserve" text-anchor="start" x="193.38" y="-848.5" font-family="Helvetica,sans-Serif" font-size="10.00">ackId</text>
<text xml:space="preserve" text-anchor="start" x="181.38" y="-833.25" font-family="Helvetica,sans-Serif" font-size="10.00">+</text>
<text xml:space="preserve" text-anchor="start" x="193.38" y="-833.25" font-family="Helvetica,sans-Serif" font-size="10.00">opCode</text>
<text xml:space="preserve" text-anchor="start" x="181.38" y="-818" font-family="Helvetica,sans-Serif" font-size="10.00">+</text>
<text xml:space="preserve" text-anchor="start" x="193.38" y="-818" font-family="Helvetica,sans-Serif" font-size="10.00">reserved</text>
<text xml:space="preserve" text-anchor="start" x="181.38" y="-802.75" font-family="Helvetica,sans-Serif" font-size="10.00">+</text>
<text xml:space="preserve" text-anchor="start" x="193.38" y="-802.75" font-family="Helvetica,sans-Serif" font-size="10.00">sessionId</text>
<text xml:space="preserve" text-anchor="start" x="212" y="-787.5" font-family="Helvetica,sans-Serif" font-size="10.00"> </text>
<polygon fill="#666666" stroke="#666666" points="175.38,-905.75 175.38,-905.75 251.62,-905.75 251.62,-905.75 175.38,-905.75"/>
<polygon fill="#666666" stroke="#666666" points="175.38,-799 175.38,-799 191.38,-799 191.38,-799 175.38,-799"/>
<polygon fill="#666666" stroke="#666666" points="191.38,-799 191.38,-799 251.62,-799 251.62,-799 191.38,-799"/>
<polygon fill="none" stroke="#666666" points="175.38,-781.75 175.38,-923 251.62,-923 251.62,-781.75 175.38,-781.75"/>
</a>
</g>
</g>
<!-- Node7&#45;&gt;Node6 -->
<g id="edge6_Node000006_Node000007" class="edge">
<title>Node7&#45;&gt;Node6</title>
<g id="a_edge6_Node000006_Node000007"><a xlink:title=" ">
<path fill="none" stroke="#63b8ff" d="M228.13,-781.75C232.57,-764.94 238.02,-747.22 244.5,-731.25 245.88,-727.83 247.34,-724.4 248.86,-720.96"/>
<polygon fill="none" stroke="#63b8ff" points="248.86,-720.96 247.72,-713.84 253.86,-710.05 254.99,-717.18 248.86,-720.96"/>
</a>
</g>
<text xml:space="preserve" text-anchor="start" x="247.5" y="-751.25" font-family="Helvetica,sans-Serif" font-size="10.00" fill="grey">+header</text>
<text xml:space="preserve" text-anchor="start" x="247.5" y="-736" font-family="Helvetica,sans-Serif" font-size="10.00" fill="grey">&#45;_cacheHeader</text>
</g>
<!-- Node8 -->
<g id="Node000008" class="node">
<title>Node8</title>
<g id="a_Node000008"><a xlink:title=" ">
<polygon fill="white" stroke="none" points="371.38,-877.25 269.62,-877.25 269.62,-827.5 371.38,-827.5 371.38,-877.25"/>
<text xml:space="preserve" text-anchor="start" x="273.62" y="-863.75" font-family="Helvetica,sans-Serif" font-size="10.00">std::vector&lt; uint8_t &gt;</text>
<text xml:space="preserve" text-anchor="start" x="284.62" y="-848.5" font-family="Helvetica,sans-Serif" font-size="10.00">+</text>
<text xml:space="preserve" text-anchor="start" x="305.62" y="-848.5" font-family="Helvetica,sans-Serif" font-size="10.00">elements</text>
<text xml:space="preserve" text-anchor="start" x="319" y="-833.25" font-family="Helvetica,sans-Serif" font-size="10.00"> </text>
<polygon fill="#666666" stroke="#666666" points="269.62,-860 269.62,-860 371.38,-860 371.38,-860 269.62,-860"/>
<polygon fill="#666666" stroke="#666666" points="269.62,-844.75 269.62,-844.75 303.62,-844.75 303.62,-844.75 269.62,-844.75"/>
<polygon fill="#666666" stroke="#666666" points="303.62,-844.75 303.62,-844.75 371.38,-844.75 371.38,-844.75 303.62,-844.75"/>
<polygon fill="none" stroke="#666666" points="269.62,-827.5 269.62,-877.25 371.38,-877.25 371.38,-827.5 269.62,-827.5"/>
</a>
</g>
</g>
<!-- Node8&#45;&gt;Node6 -->
<g id="edge7_Node000006_Node000008" class="edge">
<title>Node8&#45;&gt;Node6</title>
<g id="a_edge7_Node000006_Node000008"><a xlink:title=" ">
<path fill="none" stroke="#63b8ff" d="M320.5,-827.53C320.5,-803.61 320.5,-764.84 320.5,-725.91"/>
<polygon fill="none" stroke="#63b8ff" points="320.5,-725.9 316.5,-719.9 320.5,-713.9 324.5,-719.9 320.5,-725.9"/>
</a>
</g>
<text xml:space="preserve" text-anchor="start" x="323.5" y="-743.62" font-family="Helvetica,sans-Serif" font-size="10.00" fill="grey">+body</text>
</g>
<!-- Node9 -->
<g id="Node000009" class="node">
<title>Node9</title>
<g id="a_Node000009"><a xlink:title=" ">
<polygon fill="white" stroke="none" points="363.75,-1058.5 285.25,-1058.5 285.25,-1008.75 363.75,-1008.75 363.75,-1058.5"/>
<text xml:space="preserve" text-anchor="start" x="289.25" y="-1045" font-family="Helvetica,sans-Serif" font-size="10.00">std::vector&lt; T &gt;</text>
<text xml:space="preserve" text-anchor="start" x="323" y="-1029.75" font-family="Helvetica,sans-Serif" font-size="10.00"> </text>
<text xml:space="preserve" text-anchor="start" x="323" y="-1014.5" font-family="Helvetica,sans-Serif" font-size="10.00"> </text>
<polygon fill="#666666" stroke="#666666" points="285.25,-1041.25 285.25,-1041.25 363.75,-1041.25 363.75,-1041.25 285.25,-1041.25"/>
<polygon fill="#666666" stroke="#666666" points="285.25,-1026 285.25,-1026 363.75,-1026 363.75,-1026 285.25,-1026"/>
<polygon fill="none" stroke="#666666" points="285.25,-1008.75 285.25,-1058.5 363.75,-1058.5 363.75,-1008.75 285.25,-1008.75"/>
</a>
</g>
</g>
<!-- Node9&#45;&gt;Node8 -->
<g id="edge8_Node000008_Node000009" class="edge">
<title>Node9&#45;&gt;Node8</title>
<g id="a_edge8_Node000008_Node000009"><a xlink:title=" ">
<path fill="none" stroke="orange" d="M316.21,-997.82C315.83,-995.44 315.5,-993.06 315.25,-990.75 310.9,-950.89 314.52,-904.18 317.52,-876.78"/>
<polygon fill="orange" stroke="orange" points="312.72,-998.2 318.03,-1007.37 319.6,-996.89 312.72,-998.2"/>
</a>
</g>
<text xml:space="preserve" text-anchor="start" x="318.25" y="-962" font-family="Helvetica,sans-Serif" font-size="10.00" fill="grey">&lt; uint8_t &gt;</text>
</g>
<!-- Node10 -->
<g id="Node000010" class="node">
<title>Node10</title>
<g id="a_Node000010"><a xlink:title=" ">
<polygon fill="white" stroke="none" points="379.5,-1161.5 365.5,-1161.5 365.5,-1111.75 379.5,-1111.75 379.5,-1161.5"/>
<text xml:space="preserve" text-anchor="start" x="369.5" y="-1148" font-family="Helvetica,sans-Serif" font-size="10.00">T</text>
<text xml:space="preserve" text-anchor="start" x="371" y="-1132.75" font-family="Helvetica,sans-Serif" font-size="10.00"> </text>
<text xml:space="preserve" text-anchor="start" x="371" y="-1117.5" font-family="Helvetica,sans-Serif" font-size="10.00"> </text>
<polygon fill="#666666" stroke="#666666" points="365.5,-1144.25 365.5,-1144.25 379.5,-1144.25 379.5,-1144.25 365.5,-1144.25"/>
<polygon fill="#666666" stroke="#666666" points="365.5,-1129 365.5,-1129 379.5,-1129 379.5,-1129 365.5,-1129"/>
<polygon fill="none" stroke="#666666" points="365.5,-1111.75 365.5,-1161.5 379.5,-1161.5 379.5,-1111.75 365.5,-1111.75"/>
</a>
</g>
</g>
<!-- Node10&#45;&gt;Node9 -->
<g id="edge9_Node000009_Node000010" class="edge">
<title>Node10&#45;&gt;Node9</title>
<g id="a_edge9_Node000009_Node000010"><a xlink:title=" ">
<path fill="none" stroke="#63b8ff" d="M365.71,-1128.83C358.28,-1121.02 346.53,-1107.49 339.75,-1093.75 336.27,-1086.68 333.52,-1078.74 331.38,-1071.02"/>
<polygon fill="none" stroke="#63b8ff" points="331.37,-1070.97 326.06,-1066.09 328.53,-1059.31 333.83,-1064.2 331.37,-1070.97"/>
</a>
</g>
<text xml:space="preserve" text-anchor="start" x="342.75" y="-1081.25" font-family="Helvetica,sans-Serif" font-size="10.00" fill="grey">+elements</text>
</g>
<!-- Node11 -->
<g id="Node000011" class="node">
<title>Node11</title>
<g id="a_Node000011"><a xlink:title=" ">
<polygon fill="white" stroke="none" points="455.38,-990.75 377.62,-990.75 377.62,-941 455.38,-941 455.38,-990.75"/>
<text xml:space="preserve" text-anchor="start" x="381.62" y="-977.25" font-family="Helvetica,sans-Serif" font-size="10.00">std::deque&lt; T &gt;</text>
<text xml:space="preserve" text-anchor="start" x="415" y="-962" font-family="Helvetica,sans-Serif" font-size="10.00"> </text>
<text xml:space="preserve" text-anchor="start" x="415" y="-946.75" font-family="Helvetica,sans-Serif" font-size="10.00"> </text>
<polygon fill="#666666" stroke="#666666" points="377.62,-973.5 377.62,-973.5 455.38,-973.5 455.38,-973.5 377.62,-973.5"/>
<polygon fill="#666666" stroke="#666666" points="377.62,-958.25 377.62,-958.25 455.38,-958.25 455.38,-958.25 377.62,-958.25"/>
<polygon fill="none" stroke="#666666" points="377.62,-941 377.62,-990.75 455.38,-990.75 455.38,-941 377.62,-941"/>
</a>
</g>
</g>
<!-- Node10&#45;&gt;Node11 -->
<g id="edge11_Node000011_Node000010" class="edge">
<title>Node10&#45;&gt;Node11</title>
<g id="a_edge11_Node000011_Node000010"><a xlink:title=" ">
<path fill="none" stroke="#63b8ff" d="M379.47,-1122.36C383.48,-1114.28 388.33,-1103.63 391.5,-1093.75 401.03,-1064.03 407.58,-1029.18 411.58,-1003.53"/>
<polygon fill="none" stroke="#63b8ff" points="411.59,-1003.43 408.52,-996.91 413.36,-991.56 416.43,-998.09 411.59,-1003.43"/>
</a>
</g>
<text xml:space="preserve" text-anchor="start" x="399.46" y="-1081.25" font-family="Helvetica,sans-Serif" font-size="10.00" fill="grey">+elements</text>
</g>
<!-- Node11&#45;&gt;Node5 -->
<g id="edge10_Node000005_Node000011" class="edge">
<title>Node11&#45;&gt;Node5</title>
<g id="a_edge10_Node000005_Node000011"><a xlink:title=" ">
<path fill="none" stroke="orange" d="M420.84,-929.75C430.2,-844.82 447.88,-622.25 401.5,-445.25 399.73,-438.49 396.9,-431.62 393.74,-425.23"/>
<polygon fill="orange" stroke="orange" points="417.38,-929.2 419.73,-939.53 424.34,-929.99 417.38,-929.2"/>
</a>
</g>
<text xml:space="preserve" text-anchor="start" x="435.04" y="-743.62" font-family="Helvetica,sans-Serif" font-size="10.00" fill="grey">&lt; rtp::net::Packet &gt;</text>
</g>
</g>
</svg>
