<?xml version="1.0" encoding="UTF-8" standalone="no"?>
<!DOCTYPE svg PUBLIC "-//W3C//DTD SVG 1.1//EN"
 "http://www.w3.org/Graphics/SVG/1.1/DTD/svg11.dtd">
<!-- Generated by graphviz version 14.0.5 (20251129.0259)
 -->
<!-- Title: rtp::client::AnimationSystem Pages: 1 -->
<svg width="140pt" height="174pt"
 viewBox="0.00 0.00 140.00 174.00" xmlns="http://www.w3.org/2000/svg" xmlns:xlink="http://www.w3.org/1999/xlink">
<g id="graph0" class="graph" transform="scale(1 1) rotate(0) translate(4 170)">
<title>rtp::client::AnimationSystem</title>
<!-- Node1 -->
<g id="Node000001" class="node">
<title>Node1</title>
<g id="a_Node000001"><a xlink:title=" ">
<polygon fill="#999999" stroke="none" points="131.75,-65 0,-65 0,0 131.75,0 131.75,-65"/>
<text xml:space="preserve" text-anchor="start" x="4" y="-51.5" font-family="Helvetica,sans-Serif" font-size="10.00">rtp::client::AnimationSystem</text>
<text xml:space="preserve" text-anchor="start" x="13.12" y="-36.25" font-family="Helvetica,sans-Serif" font-size="10.00">&#45;</text>
<text xml:space="preserve" text-anchor="start" x="29.25" y="-36.25" font-family="Helvetica,sans-Serif" font-size="10.00">_r</text>
<text xml:space="preserve" text-anchor="start" x="11.62" y="-21" font-family="Helvetica,sans-Serif" font-size="10.00">+</text>
<text xml:space="preserve" text-anchor="start" x="29.25" y="-21" font-family="Helvetica,sans-Serif" font-size="10.00">AnimationSystem()</text>
<text xml:space="preserve" text-anchor="start" x="11.62" y="-5.75" font-family="Helvetica,sans-Serif" font-size="10.00">+</text>
<text xml:space="preserve" text-anchor="start" x="29.25" y="-5.75" font-family="Helvetica,sans-Serif" font-size="10.00">update()</text>
<polygon fill="#666666" stroke="#666666" points="0,-47.75 0,-47.75 131.75,-47.75 131.75,-47.75 0,-47.75"/>
<polygon fill="#666666" stroke="#666666" points="0,-32.5 0,-32.5 27.25,-32.5 27.25,-32.5 0,-32.5"/>
<polygon fill="#666666" stroke="#666666" points="27.25,-32.5 27.25,-32.5 131.75,-32.5 131.75,-32.5 27.25,-32.5"/>
<polygon fill="none" stroke="#666666" points="0,0 0,-65 131.75,-65 131.75,0 0,0"/>
</a>
</g>
</g>
<!-- Node2 -->
<g id="Node000002" class="node">
<title>Node2</title>
<g id="a_Node000002"><a xlink:href="classrtp_1_1ecs_1_1ISystem.html" target="_top" xlink:title="Abstract base class for all ECS systems.">
<polygon fill="white" stroke="none" points="107.75,-166 24,-166 24,-101 107.75,-101 107.75,-166"/>
<text xml:space="preserve" text-anchor="start" x="28" y="-152.5" font-family="Helvetica,sans-Serif" font-size="10.00">rtp::ecs::ISystem</text>
<text xml:space="preserve" text-anchor="start" x="64.38" y="-137.25" font-family="Helvetica,sans-Serif" font-size="10.00"> </text>
<text xml:space="preserve" text-anchor="start" x="32.25" y="-122" font-family="Helvetica,sans-Serif" font-size="10.00">+</text>
<text xml:space="preserve" text-anchor="start" x="46.5" y="-122" font-family="Helvetica,sans-Serif" font-size="10.00">~ISystem()</text>
<text xml:space="preserve" text-anchor="start" x="32.25" y="-106.75" font-family="Helvetica,sans-Serif" font-size="10.00">+</text>
<text xml:space="preserve" text-anchor="start" x="46.5" y="-106.75" font-family="Helvetica,sans-Serif" font-size="10.00">update()</text>
<polygon fill="#666666" stroke="#666666" points="24,-148.75 24,-148.75 107.75,-148.75 107.75,-148.75 24,-148.75"/>
<polygon fill="#666666" stroke="#666666" points="24,-133.5 24,-133.5 107.75,-133.5 107.75,-133.5 24,-133.5"/>
<polygon fill="none" stroke="#666666" points="24,-101 24,-166 107.75,-166 107.75,-101 24,-101"/>
</a>
</g>
</g>
<!-- Node2&#45;&gt;Node1 -->
<g id="edge1_Node000001_Node000002" class="edge">
<title>Node2&#45;&gt;Node1</title>
<g id="a_edge1_Node000001_Node000002"><a xlink:title=" ">
<path fill="none" stroke="#63b8ff" d="M65.88,-89.7C65.88,-81.39 65.88,-72.82 65.88,-64.96"/>
<polygon fill="none" stroke="#63b8ff" points="62.38,-89.66 65.88,-99.66 69.38,-89.66 62.38,-89.66"/>
</a>
</g>
</g>
</g>
</svg>
