<?xml version="1.0" encoding="UTF-8" standalone="no"?>
<!DOCTYPE svg PUBLIC "-//W3C//DTD SVG 1.1//EN"
 "http://www.w3.org/Graphics/SVG/1.1/DTD/svg11.dtd">
<!-- Generated by graphviz version 14.0.5 (20251129.0259)
 -->
<!-- Title: rtp::server::Player Pages: 1 -->
<!--zoomable 518 -->

<svg id="main" version="1.1" xmlns="http://www.w3.org/2000/svg" xmlns:xlink="http://www.w3.org/1999/xlink" xml:space="preserve" onload="init(evt)">

<style type="text/css"><![CDATA[
.node, .edge {opacity: 0.7;}
.node.selected, .edge.selected {opacity: 1;}
.edge:hover path { stroke: red; }
.edge:hover polygon { stroke: red; fill: red; }
]]></style>

<defs>
  <circle id="rim" cx="0" cy="0" r="7"/>
  <circle id="rim2" cx="0" cy="0" r="3.5"/>
  <g id="zoomPlus">
    <use xlink:href="#rim" fill="#404040"><set attributeName="fill" to="#808080" begin="zoomplus.mouseover" end="zoomplus.mouseout"/></use>
    <path d="M-4,0h8M0,-4v8" fill="none" stroke="white" stroke-width="1.5" pointer-events="none"/>
  </g>
  <g id="zoomMin">
    <use xlink:href="#rim" fill="#404040"><set attributeName="fill" to="#808080" begin="zoomminus.mouseover" end="zoomminus.mouseout"/></use>
    <path d="M-4,0h8" fill="none" stroke="white" stroke-width="1.5" pointer-events="none"/>
  </g>
  <g id="arrowUp" transform="translate(30 24)">
    <use xlink:href="#rim"/>
    <path pointer-events="none" fill="none" stroke="white" stroke-width="1.5" d="M0,-3.0v7 M-2.5,-0.5L0,-3.0L2.5,-0.5"/>
  </g>
  <g id="arrowRight" transform="rotate(90) translate(36 -43)">
    <use xlink:href="#rim"/>
    <path pointer-events="none" fill="none" stroke="white" stroke-width="1.5" d="M0,-3.0v7 M-2.5,-0.5L0,-3.0L2.5,-0.5"/>
  </g>
  <g id="arrowDown" transform="rotate(180) translate(-30 -48)">
    <use xlink:href="#rim"/>
    <path pointer-events="none" fill="none" stroke="white" stroke-width="1.5" d="M0,-3.0v7 M-2.5,-0.5L0,-3.0L2.5,-0.5"/>
  </g>
  <g id="arrowLeft" transform="rotate(270) translate(-36 17)">
    <use xlink:href="#rim"/>
    <path pointer-events="none" fill="none" stroke="white" stroke-width="1.5" d="M0,-3.0v7 M-2.5,-0.5L0,-3.0L2.5,-0.5"/>
  </g>
  <g id="resetDef">
    <use xlink:href="#rim2" fill="#404040"><set attributeName="fill" to="#808080" begin="reset.mouseover" end="reset.mouseout"/></use>
  </g>
</defs>
<script type="application/ecmascript">
var viewWidth = 165;
var viewHeight = 518;
var sectionId = 'dynsection-0';
</script>
<script type="application/ecmascript" xlink:href="svg.min.js"/>
<svg id="graph" class="graph">
<g id="viewport">
<title>rtp::server::Player</title>
<!-- Node1 -->
<g id="Node000001" class="node">
<title>Node1</title>
<g id="a_Node000001"><a xlink:title="Represents a player in the game server.">
<polygon fill="#999999" stroke="none" points="126,-309 40,-309 40,0 126,0 126,-309"/>
<text xml:space="preserve" text-anchor="start" x="44" y="-295.5" font-family="Helvetica,sans-Serif" font-size="10.00">rtp::server::Player</text>
<text xml:space="preserve" text-anchor="start" x="46.38" y="-280.25" font-family="Helvetica,sans-Serif" font-size="10.00">&#45;</text>
<text xml:space="preserve" text-anchor="start" x="55.75" y="-280.25" font-family="Helvetica,sans-Serif" font-size="10.00">_sessionId</text>
<text xml:space="preserve" text-anchor="start" x="46.38" y="-265" font-family="Helvetica,sans-Serif" font-size="10.00">&#45;</text>
<text xml:space="preserve" text-anchor="start" x="55.75" y="-265" font-family="Helvetica,sans-Serif" font-size="10.00">_roomId</text>
<text xml:space="preserve" text-anchor="start" x="46.38" y="-249.75" font-family="Helvetica,sans-Serif" font-size="10.00">&#45;</text>
<text xml:space="preserve" text-anchor="start" x="55.75" y="-249.75" font-family="Helvetica,sans-Serif" font-size="10.00">_state</text>
<text xml:space="preserve" text-anchor="start" x="46.38" y="-234.5" font-family="Helvetica,sans-Serif" font-size="10.00">&#45;</text>
<text xml:space="preserve" text-anchor="start" x="55.75" y="-234.5" font-family="Helvetica,sans-Serif" font-size="10.00">_isReady</text>
<text xml:space="preserve" text-anchor="start" x="46.38" y="-219.25" font-family="Helvetica,sans-Serif" font-size="10.00">&#45;</text>
<text xml:space="preserve" text-anchor="start" x="55.75" y="-219.25" font-family="Helvetica,sans-Serif" font-size="10.00">_entityId</text>
<text xml:space="preserve" text-anchor="start" x="46.38" y="-204" font-family="Helvetica,sans-Serif" font-size="10.00">&#45;</text>
<text xml:space="preserve" text-anchor="start" x="55.75" y="-204" font-family="Helvetica,sans-Serif" font-size="10.00">_isMuted</text>
<text xml:space="preserve" text-anchor="start" x="46.38" y="-188.75" font-family="Helvetica,sans-Serif" font-size="10.00">&#45;</text>
<text xml:space="preserve" text-anchor="start" x="55.75" y="-188.75" font-family="Helvetica,sans-Serif" font-size="10.00">_weaponKind</text>
<text xml:space="preserve" text-anchor="start" x="46.38" y="-173.5" font-family="Helvetica,sans-Serif" font-size="10.00">&#45;</text>
<text xml:space="preserve" text-anchor="start" x="55.75" y="-173.5" font-family="Helvetica,sans-Serif" font-size="10.00">_score</text>
<text xml:space="preserve" text-anchor="start" x="44.88" y="-158.25" font-family="Helvetica,sans-Serif" font-size="10.00">+</text>
<text xml:space="preserve" text-anchor="start" x="55.75" y="-158.25" font-family="Helvetica,sans-Serif" font-size="10.00">Player()</text>
<text xml:space="preserve" text-anchor="start" x="44.88" y="-143" font-family="Helvetica,sans-Serif" font-size="10.00">+</text>
<text xml:space="preserve" text-anchor="start" x="55.75" y="-143" font-family="Helvetica,sans-Serif" font-size="10.00">~Player()</text>
<text xml:space="preserve" text-anchor="start" x="44.88" y="-127.75" font-family="Helvetica,sans-Serif" font-size="10.00">+</text>
<text xml:space="preserve" text-anchor="start" x="55.75" y="-127.75" font-family="Helvetica,sans-Serif" font-size="10.00">setUsername()</text>
<text xml:space="preserve" text-anchor="start" x="44.88" y="-112.5" font-family="Helvetica,sans-Serif" font-size="10.00">+</text>
<text xml:space="preserve" text-anchor="start" x="55.75" y="-112.5" font-family="Helvetica,sans-Serif" font-size="10.00">getUsername()</text>
<text xml:space="preserve" text-anchor="start" x="44.88" y="-97.25" font-family="Helvetica,sans-Serif" font-size="10.00">+</text>
<text xml:space="preserve" text-anchor="start" x="55.75" y="-97.25" font-family="Helvetica,sans-Serif" font-size="10.00">setRoomId()</text>
<text xml:space="preserve" text-anchor="start" x="44.88" y="-82" font-family="Helvetica,sans-Serif" font-size="10.00">+</text>
<text xml:space="preserve" text-anchor="start" x="55.75" y="-82" font-family="Helvetica,sans-Serif" font-size="10.00">getRoomId()</text>
<text xml:space="preserve" text-anchor="start" x="44.88" y="-66.75" font-family="Helvetica,sans-Serif" font-size="10.00">+</text>
<text xml:space="preserve" text-anchor="start" x="55.75" y="-66.75" font-family="Helvetica,sans-Serif" font-size="10.00">isInRoom()</text>
<text xml:space="preserve" text-anchor="start" x="44.88" y="-51.5" font-family="Helvetica,sans-Serif" font-size="10.00">+</text>
<text xml:space="preserve" text-anchor="start" x="55.75" y="-51.5" font-family="Helvetica,sans-Serif" font-size="10.00">setState()</text>
<text xml:space="preserve" text-anchor="start" x="44.88" y="-36.25" font-family="Helvetica,sans-Serif" font-size="10.00">+</text>
<text xml:space="preserve" text-anchor="start" x="55.75" y="-36.25" font-family="Helvetica,sans-Serif" font-size="10.00">getState()</text>
<text xml:space="preserve" text-anchor="start" x="44.88" y="-21" font-family="Helvetica,sans-Serif" font-size="10.00">+</text>
<text xml:space="preserve" text-anchor="start" x="55.75" y="-21" font-family="Helvetica,sans-Serif" font-size="10.00">setReady()</text>
<text xml:space="preserve" text-anchor="start" x="55.75" y="-5.75" font-family="Helvetica,sans-Serif" font-size="10.00">and 11 more...</text>
<polygon fill="#666666" stroke="#666666" points="40,-291.75 40,-291.75 126,-291.75 126,-291.75 40,-291.75"/>
<polygon fill="#666666" stroke="#666666" points="40,-169.75 40,-169.75 53.75,-169.75 53.75,-169.75 40,-169.75"/>
<polygon fill="#666666" stroke="#666666" points="53.75,-169.75 53.75,-169.75 126,-169.75 126,-169.75 53.75,-169.75"/>
<polygon fill="none" stroke="#666666" points="40,0 40,-309 126,-309 126,0 40,0"/>
</a>
</g>
</g>
<!-- Node2 -->
<g id="Node000002" class="node">
<title>Node2</title>
<g id="a_Node000002"><a xlink:title=" ">
<polygon fill="white" stroke="none" points="68.75,-412 17.25,-412 17.25,-362.25 68.75,-362.25 68.75,-412"/>
<text xml:space="preserve" text-anchor="start" x="21.25" y="-398.5" font-family="Helvetica,sans-Serif" font-size="10.00">std::string</text>
<text xml:space="preserve" text-anchor="start" x="41.5" y="-383.25" font-family="Helvetica,sans-Serif" font-size="10.00"> </text>
<text xml:space="preserve" text-anchor="start" x="41.5" y="-368" font-family="Helvetica,sans-Serif" font-size="10.00"> </text>
<polygon fill="#666666" stroke="#666666" points="17.25,-394.75 17.25,-394.75 68.75,-394.75 68.75,-394.75 17.25,-394.75"/>
<polygon fill="#666666" stroke="#666666" points="17.25,-379.5 17.25,-379.5 68.75,-379.5 68.75,-379.5 17.25,-379.5"/>
<polygon fill="none" stroke="#666666" points="17.25,-362.25 17.25,-412 68.75,-412 68.75,-362.25 17.25,-362.25"/>
</a>
</g>
</g>
<!-- Node2&#45;&gt;Node1 -->
<g id="edge1_Node000001_Node000002" class="edge">
<title>Node2&#45;&gt;Node1</title>
<g id="a_edge1_Node000001_Node000002"><a xlink:title=" ">
<path fill="none" stroke="#63b8ff" d="M42.29,-362.46C42.24,-351.61 42.6,-338.62 44,-327 44.23,-325.11 44.47,-323.2 44.72,-321.29"/>
<polygon fill="none" stroke="#63b8ff" points="44.72,-321.34 41.61,-314.83 46.42,-309.46 49.53,-315.96 44.72,-321.34"/>
</a>
</g>
<text xml:space="preserve" text-anchor="start" x="47" y="-331.75" font-family="Helvetica,sans-Serif" font-size="10.00" fill="grey">&#45;_username</text>
</g>
<!-- Node3 -->
<g id="Node000003" class="node">
<title>Node3</title>
<g id="a_Node000003"><a xlink:title=" ">
<polygon fill="white" stroke="none" points="86,-510 0,-510 0,-449 86,-449 86,-510"/>
<text xml:space="preserve" text-anchor="start" x="4" y="-496.5" font-family="Helvetica,sans-Serif" font-size="10.00">std::basic_string&lt;</text>
<text xml:space="preserve" text-anchor="start" x="26.5" y="-485.25" font-family="Helvetica,sans-Serif" font-size="10.00"> Char &gt;</text>
<text xml:space="preserve" text-anchor="start" x="41.5" y="-470" font-family="Helvetica,sans-Serif" font-size="10.00"> </text>
<text xml:space="preserve" text-anchor="start" x="41.5" y="-454.75" font-family="Helvetica,sans-Serif" font-size="10.00"> </text>
<polygon fill="#666666" stroke="#666666" points="0,-481.5 0,-481.5 86,-481.5 86,-481.5 0,-481.5"/>
<polygon fill="#666666" stroke="#666666" points="0,-466.25 0,-466.25 86,-466.25 86,-466.25 0,-466.25"/>
<polygon fill="none" stroke="#666666" points="0,-449 0,-510 86,-510 86,-449 0,-449"/>
</a>
</g>
</g>
<!-- Node3&#45;&gt;Node2 -->
<g id="edge2_Node000002_Node000003" class="edge">
<title>Node3&#45;&gt;Node2</title>
<g id="a_edge2_Node000002_Node000003"><a xlink:title=" ">
<path fill="none" stroke="#63b8ff" d="M43,-437.9C43,-428.94 43,-419.75 43,-411.73"/>
<polygon fill="none" stroke="#63b8ff" points="39.5,-437.89 43,-447.89 46.5,-437.89 39.5,-437.89"/>
</a>
</g>
</g>
<!-- Node4 -->
<g id="Node000004" class="node">
<title>Node4</title>
<g id="a_Node000004"><a xlink:title=" ">
<polygon fill="white" stroke="none" points="150.25,-412 95.75,-412 95.75,-362.25 150.25,-362.25 150.25,-412"/>
<text xml:space="preserve" text-anchor="start" x="99.75" y="-398.5" font-family="Helvetica,sans-Serif" font-size="10.00">std::mutex</text>
<text xml:space="preserve" text-anchor="start" x="121.5" y="-383.25" font-family="Helvetica,sans-Serif" font-size="10.00"> </text>
<text xml:space="preserve" text-anchor="start" x="121.5" y="-368" font-family="Helvetica,sans-Serif" font-size="10.00"> </text>
<polygon fill="#666666" stroke="#666666" points="95.75,-394.75 95.75,-394.75 150.25,-394.75 150.25,-394.75 95.75,-394.75"/>
<polygon fill="#666666" stroke="#666666" points="95.75,-379.5 95.75,-379.5 150.25,-379.5 150.25,-379.5 95.75,-379.5"/>
<polygon fill="none" stroke="#666666" points="95.75,-362.25 95.75,-412 150.25,-412 150.25,-362.25 95.75,-362.25"/>
</a>
</g>
</g>
<!-- Node4&#45;&gt;Node1 -->
<g id="edge3_Node000001_Node000004" class="edge">
<title>Node4&#45;&gt;Node1</title>
<g id="a_edge3_Node000001_Node000004"><a xlink:title=" ">
<path fill="none" stroke="#63b8ff" d="M118.87,-362.31C116.96,-351.32 114.52,-337.24 111.81,-321.6"/>
<polygon fill="none" stroke="#63b8ff" points="111.79,-321.47 106.82,-316.24 109.74,-309.64 114.7,-314.87 111.79,-321.47"/>
</a>
</g>
<text xml:space="preserve" text-anchor="start" x="118.35" y="-331.75" font-family="Helvetica,sans-Serif" font-size="10.00" fill="grey">&#45;_mutex</text>
</g>
</g>
</svg>

<g id="navigator" transform="translate(0 0)" fill="#404254">
  <rect fill="#f2f5e9" fill-opacity="0.5" stroke="#606060" stroke-width=".5" x="0" y="0" width="60" height="60"/>
  <use id="zoomplus" xlink:href="#zoomPlus" x="17" y="9" onmousedown="handleZoom(evt,'in')"/>
  <use id="zoomminus" xlink:href="#zoomMin" x="42" y="9" onmousedown="handleZoom(evt,'out')"/>
  <use id="reset" xlink:href="#resetDef" x="30" y="36" onmousedown="handleReset()"/>
   <use id="arrowup" xlink:href="#arrowUp" x="0" y="0" onmousedown="handlePan(0,-1)"/>
  <use id="arrowright" xlink:href="#arrowRight" x="0" y="0" onmousedown="handlePan(1,0)"/>
  <use id="arrowdown" xlink:href="#arrowDown" x="0" y="0" onmousedown="handlePan(0,1)"/>
  <use id="arrowleft" xlink:href="#arrowLeft" x="0" y="0" onmousedown="handlePan(-1,0)"/>
</g>
<svg viewBox="0 0 15 15" width="100%" height="30px" preserveAspectRatio="xMaxYMin meet">
 <g id="arrow_out" transform="scale(0.3 0.3)">
  <a xlink:href="classrtp_1_1server_1_1Player__coll__graph_org.svg" target="_base">
   <rect id="button" ry="5" rx="5" y="6" x="6" height="38" width="38"
        fill="#f2f5e9" fill-opacity="0.5" stroke="#606060" stroke-width="1.0"/>
   <path id="arrow"
     d="M 11.500037,31.436501 C 11.940474,20.09759 22.043105,11.32322 32.158766,21.979434 L 37.068811,17.246167 C 37.068811,17.246167 37.088388,32 37.088388,32 L 22.160133,31.978069 C 22.160133,31.978069 26.997745,27.140456 26.997745,27.140456 C 18.528582,18.264221 13.291696,25.230495 11.500037,31.436501 z"
     style="fill:#404040;"/>
  </a>
 </g>
</svg>

<style type='text/css'>
<![CDATA[
[data-mouse-over-selected='false'] { opacity: 0.7; }
[data-mouse-over-selected='true']  { opacity: 1.0; }
]]>
</style>
<script type="application/ecmascript"><![CDATA[
document.addEventListener('DOMContentLoaded', (event) => {
  highlightEdges();
  highlightAdjacentNodes();
});
]]></script>
</svg>
