<?xml version="1.0" encoding="UTF-8" standalone="no"?>
<!DOCTYPE svg PUBLIC "-//W3C//DTD SVG 1.1//EN"
 "http://www.w3.org/Graphics/SVG/1.1/DTD/svg11.dtd">
<!-- Generated by graphviz version 14.0.5 (20251129.0259)
 -->
<!-- Title: rtp::client::ClientNetwork Pages: 1 -->
<!--zoomable 540 -->

<svg id="main" version="1.1" xmlns="http://www.w3.org/2000/svg" xmlns:xlink="http://www.w3.org/1999/xlink" xml:space="preserve" onload="init(evt)">

<style type="text/css"><![CDATA[
.node, .edge {opacity: 0.7;}
.node.selected, .edge.selected {opacity: 1;}
.edge:hover path { stroke: red; }
.edge:hover polygon { stroke: red; fill: red; }
]]></style>

<defs>
  <circle id="rim" cx="0" cy="0" r="7"/>
  <circle id="rim2" cx="0" cy="0" r="3.5"/>
  <g id="zoomPlus">
    <use xlink:href="#rim" fill="#404040"><set attributeName="fill" to="#808080" begin="zoomplus.mouseover" end="zoomplus.mouseout"/></use>
    <path d="M-4,0h8M0,-4v8" fill="none" stroke="white" stroke-width="1.5" pointer-events="none"/>
  </g>
  <g id="zoomMin">
    <use xlink:href="#rim" fill="#404040"><set attributeName="fill" to="#808080" begin="zoomminus.mouseover" end="zoomminus.mouseout"/></use>
    <path d="M-4,0h8" fill="none" stroke="white" stroke-width="1.5" pointer-events="none"/>
  </g>
  <g id="arrowUp" transform="translate(30 24)">
    <use xlink:href="#rim"/>
    <path pointer-events="none" fill="none" stroke="white" stroke-width="1.5" d="M0,-3.0v7 M-2.5,-0.5L0,-3.0L2.5,-0.5"/>
  </g>
  <g id="arrowRight" transform="rotate(90) translate(36 -43)">
    <use xlink:href="#rim"/>
    <path pointer-events="none" fill="none" stroke="white" stroke-width="1.5" d="M0,-3.0v7 M-2.5,-0.5L0,-3.0L2.5,-0.5"/>
  </g>
  <g id="arrowDown" transform="rotate(180) translate(-30 -48)">
    <use xlink:href="#rim"/>
    <path pointer-events="none" fill="none" stroke="white" stroke-width="1.5" d="M0,-3.0v7 M-2.5,-0.5L0,-3.0L2.5,-0.5"/>
  </g>
  <g id="arrowLeft" transform="rotate(270) translate(-36 17)">
    <use xlink:href="#rim"/>
    <path pointer-events="none" fill="none" stroke="white" stroke-width="1.5" d="M0,-3.0v7 M-2.5,-0.5L0,-3.0L2.5,-0.5"/>
  </g>
  <g id="resetDef">
    <use xlink:href="#rim2" fill="#404040"><set attributeName="fill" to="#808080" begin="reset.mouseover" end="reset.mouseout"/></use>
  </g>
</defs>
<script type="application/ecmascript">
var viewWidth = 224;
var viewHeight = 540;
var sectionId = 'dynsection-0';
</script>
<script type="application/ecmascript" xlink:href="svg.min.js"/>
<svg id="graph" class="graph">
<g id="viewport">
<title>rtp::client::ClientNetwork</title>
<!-- Node1 -->
<g id="Node000001" class="node">
<title>Node1</title>
<g id="a_Node000001"><a xlink:title=" ">
<polygon fill="#999999" stroke="none" points="158.62,-400.5 41.87,-400.5 41.87,0 158.62,0 158.62,-400.5"/>
<text xml:space="preserve" text-anchor="start" x="45.88" y="-387" font-family="Helvetica,sans-Serif" font-size="10.00">rtp::client::ClientNetwork</text>
<text xml:space="preserve" text-anchor="start" x="48.44" y="-371.75" font-family="Helvetica,sans-Serif" font-size="10.00">&#45;</text>
<text xml:space="preserve" text-anchor="start" x="58" y="-371.75" font-family="Helvetica,sans-Serif" font-size="10.00">_serverPort</text>
<text xml:space="preserve" text-anchor="start" x="48.44" y="-356.5" font-family="Helvetica,sans-Serif" font-size="10.00">&#45;</text>
<text xml:space="preserve" text-anchor="start" x="58" y="-356.5" font-family="Helvetica,sans-Serif" font-size="10.00">_serverIp</text>
<text xml:space="preserve" text-anchor="start" x="48.44" y="-341.25" font-family="Helvetica,sans-Serif" font-size="10.00">&#45;</text>
<text xml:space="preserve" text-anchor="start" x="58" y="-341.25" font-family="Helvetica,sans-Serif" font-size="10.00">_ioContext</text>
<text xml:space="preserve" text-anchor="start" x="48.44" y="-326" font-family="Helvetica,sans-Serif" font-size="10.00">&#45;</text>
<text xml:space="preserve" text-anchor="start" x="58" y="-326" font-family="Helvetica,sans-Serif" font-size="10.00">_tcpSocket</text>
<text xml:space="preserve" text-anchor="start" x="48.44" y="-310.75" font-family="Helvetica,sans-Serif" font-size="10.00">&#45;</text>
<text xml:space="preserve" text-anchor="start" x="58" y="-310.75" font-family="Helvetica,sans-Serif" font-size="10.00">_udpSocket</text>
<text xml:space="preserve" text-anchor="start" x="48.44" y="-295.5" font-family="Helvetica,sans-Serif" font-size="10.00">&#45;</text>
<text xml:space="preserve" text-anchor="start" x="58" y="-295.5" font-family="Helvetica,sans-Serif" font-size="10.00">_serverEndpoint</text>
<text xml:space="preserve" text-anchor="start" x="48.44" y="-280.25" font-family="Helvetica,sans-Serif" font-size="10.00">&#45;</text>
<text xml:space="preserve" text-anchor="start" x="58" y="-280.25" font-family="Helvetica,sans-Serif" font-size="10.00">_ioThread</text>
<text xml:space="preserve" text-anchor="start" x="48.44" y="-265" font-family="Helvetica,sans-Serif" font-size="10.00">&#45;</text>
<text xml:space="preserve" text-anchor="start" x="58" y="-265" font-family="Helvetica,sans-Serif" font-size="10.00">_eventQueueMutex</text>
<text xml:space="preserve" text-anchor="start" x="48.44" y="-249.75" font-family="Helvetica,sans-Serif" font-size="10.00">&#45;</text>
<text xml:space="preserve" text-anchor="start" x="58" y="-249.75" font-family="Helvetica,sans-Serif" font-size="10.00">_eventQueue</text>
<text xml:space="preserve" text-anchor="start" x="48.44" y="-234.5" font-family="Helvetica,sans-Serif" font-size="10.00">&#45;</text>
<text xml:space="preserve" text-anchor="start" x="58" y="-234.5" font-family="Helvetica,sans-Serif" font-size="10.00">_tcpHeader</text>
<text xml:space="preserve" text-anchor="start" x="58" y="-219.25" font-family="Helvetica,sans-Serif" font-size="10.00">and 6 more...</text>
<text xml:space="preserve" text-anchor="start" x="46.94" y="-204" font-family="Helvetica,sans-Serif" font-size="10.00">+</text>
<text xml:space="preserve" text-anchor="start" x="58" y="-204" font-family="Helvetica,sans-Serif" font-size="10.00">ClientNetwork()</text>
<text xml:space="preserve" text-anchor="start" x="46.94" y="-188.75" font-family="Helvetica,sans-Serif" font-size="10.00">+</text>
<text xml:space="preserve" text-anchor="start" x="58" y="-188.75" font-family="Helvetica,sans-Serif" font-size="10.00">~ClientNetwork()</text>
<text xml:space="preserve" text-anchor="start" x="46.94" y="-173.5" font-family="Helvetica,sans-Serif" font-size="10.00">+</text>
<text xml:space="preserve" text-anchor="start" x="58" y="-173.5" font-family="Helvetica,sans-Serif" font-size="10.00">start()</text>
<text xml:space="preserve" text-anchor="start" x="46.94" y="-158.25" font-family="Helvetica,sans-Serif" font-size="10.00">+</text>
<text xml:space="preserve" text-anchor="start" x="58" y="-158.25" font-family="Helvetica,sans-Serif" font-size="10.00">stop()</text>
<text xml:space="preserve" text-anchor="start" x="46.94" y="-143" font-family="Helvetica,sans-Serif" font-size="10.00">+</text>
<text xml:space="preserve" text-anchor="start" x="58" y="-143" font-family="Helvetica,sans-Serif" font-size="10.00">sendPacket()</text>
<text xml:space="preserve" text-anchor="start" x="46.94" y="-127.75" font-family="Helvetica,sans-Serif" font-size="10.00">+</text>
<text xml:space="preserve" text-anchor="start" x="58" y="-127.75" font-family="Helvetica,sans-Serif" font-size="10.00">pollEvent()</text>
<text xml:space="preserve" text-anchor="start" x="46.94" y="-112.5" font-family="Helvetica,sans-Serif" font-size="10.00">+</text>
<text xml:space="preserve" text-anchor="start" x="58" y="-112.5" font-family="Helvetica,sans-Serif" font-size="10.00">publishEvent()</text>
<text xml:space="preserve" text-anchor="start" x="46.94" y="-97.25" font-family="Helvetica,sans-Serif" font-size="10.00">+</text>
<text xml:space="preserve" text-anchor="start" x="58" y="-97.25" font-family="Helvetica,sans-Serif" font-size="10.00">hasPendingPackets()</text>
<text xml:space="preserve" text-anchor="start" x="46.94" y="-82" font-family="Helvetica,sans-Serif" font-size="10.00">+</text>
<text xml:space="preserve" text-anchor="start" x="58" y="-82" font-family="Helvetica,sans-Serif" font-size="10.00">popPacket()</text>
<text xml:space="preserve" text-anchor="start" x="46.94" y="-66.75" font-family="Helvetica,sans-Serif" font-size="10.00">+</text>
<text xml:space="preserve" text-anchor="start" x="58" y="-66.75" font-family="Helvetica,sans-Serif" font-size="10.00">readTcpHeader()</text>
<text xml:space="preserve" text-anchor="start" x="46.94" y="-51.5" font-family="Helvetica,sans-Serif" font-size="10.00">+</text>
<text xml:space="preserve" text-anchor="start" x="58" y="-51.5" font-family="Helvetica,sans-Serif" font-size="10.00">readTcpBody()</text>
<text xml:space="preserve" text-anchor="start" x="46.94" y="-36.25" font-family="Helvetica,sans-Serif" font-size="10.00">+</text>
<text xml:space="preserve" text-anchor="start" x="58" y="-36.25" font-family="Helvetica,sans-Serif" font-size="10.00">readUdp()</text>
<text xml:space="preserve" text-anchor="start" x="46.94" y="-21" font-family="Helvetica,sans-Serif" font-size="10.00">+</text>
<text xml:space="preserve" text-anchor="start" x="58" y="-21" font-family="Helvetica,sans-Serif" font-size="10.00">sendUdpHandshake()</text>
<text xml:space="preserve" text-anchor="start" x="46.94" y="-5.75" font-family="Helvetica,sans-Serif" font-size="10.00">+</text>
<text xml:space="preserve" text-anchor="start" x="58" y="-5.75" font-family="Helvetica,sans-Serif" font-size="10.00">isUdpReady()</text>
<polygon fill="#666666" stroke="#666666" points="41.88,-383.25 41.88,-383.25 158.62,-383.25 158.62,-383.25 41.88,-383.25"/>
<polygon fill="#666666" stroke="#666666" points="41.88,-215.5 41.88,-215.5 56,-215.5 56,-215.5 41.88,-215.5"/>
<polygon fill="#666666" stroke="#666666" points="56,-215.5 56,-215.5 158.62,-215.5 158.62,-215.5 56,-215.5"/>
<polygon fill="none" stroke="#666666" points="41.88,0 41.88,-400.5 158.62,-400.5 158.62,0 41.88,0"/>
</a>
</g>
</g>
<!-- Node2 -->
<g id="Node000002" class="node">
<title>Node2</title>
<g id="a_Node000002"><a xlink:href="classrtp_1_1net_1_1INetwork.html" target="_top" xlink:title="Interface for network operations.">
<polygon fill="white" stroke="none" points="84.5,-532 0,-532 0,-436.5 84.5,-436.5 84.5,-532"/>
<text xml:space="preserve" text-anchor="start" x="4" y="-518.5" font-family="Helvetica,sans-Serif" font-size="10.00">rtp::net::INetwork</text>
<text xml:space="preserve" text-anchor="start" x="40.75" y="-503.25" font-family="Helvetica,sans-Serif" font-size="10.00"> </text>
<text xml:space="preserve" text-anchor="start" x="7.69" y="-488" font-family="Helvetica,sans-Serif" font-size="10.00">+</text>
<text xml:space="preserve" text-anchor="start" x="21.38" y="-488" font-family="Helvetica,sans-Serif" font-size="10.00">~INetwork()</text>
<text xml:space="preserve" text-anchor="start" x="7.69" y="-472.75" font-family="Helvetica,sans-Serif" font-size="10.00">+</text>
<text xml:space="preserve" text-anchor="start" x="21.38" y="-472.75" font-family="Helvetica,sans-Serif" font-size="10.00">start()</text>
<text xml:space="preserve" text-anchor="start" x="7.69" y="-457.5" font-family="Helvetica,sans-Serif" font-size="10.00">+</text>
<text xml:space="preserve" text-anchor="start" x="21.38" y="-457.5" font-family="Helvetica,sans-Serif" font-size="10.00">stop()</text>
<text xml:space="preserve" text-anchor="start" x="7.69" y="-442.25" font-family="Helvetica,sans-Serif" font-size="10.00">+</text>
<text xml:space="preserve" text-anchor="start" x="21.38" y="-442.25" font-family="Helvetica,sans-Serif" font-size="10.00">pollEvent()</text>
<polygon fill="#666666" stroke="#666666" points="0,-514.75 0,-514.75 84.5,-514.75 84.5,-514.75 0,-514.75"/>
<polygon fill="#666666" stroke="#666666" points="0,-499.5 0,-499.5 84.5,-499.5 84.5,-499.5 0,-499.5"/>
<polygon fill="none" stroke="#666666" points="0,-436.5 0,-532 84.5,-532 84.5,-436.5 0,-436.5"/>
</a>
</g>
</g>
<!-- Node2&#45;&gt;Node1 -->
<g id="edge1_Node000001_Node000002" class="edge">
<title>Node2&#45;&gt;Node1</title>
<g id="a_edge1_Node000001_Node000002"><a xlink:title=" ">
<path fill="none" stroke="#63b8ff" d="M54.12,-425.55C55.74,-417.68 57.47,-409.26 59.27,-400.48"/>
<polygon fill="none" stroke="#63b8ff" points="50.72,-424.7 52.13,-435.2 57.58,-426.11 50.72,-424.7"/>
</a>
</g>
</g>
<!-- Node3 -->
<g id="Node000003" class="node">
<title>Node3</title>
<g id="a_Node000003"><a xlink:href="classrtp_1_1net_1_1IEventPublisher.html" target="_top" xlink:title="Interface for network event handling.">
<polygon fill="white" stroke="none" points="216.12,-516.75 102.38,-516.75 102.38,-451.75 216.12,-451.75 216.12,-516.75"/>
<text xml:space="preserve" text-anchor="start" x="106.38" y="-503.25" font-family="Helvetica,sans-Serif" font-size="10.00">rtp::net::IEventPublisher</text>
<text xml:space="preserve" text-anchor="start" x="157.75" y="-488" font-family="Helvetica,sans-Serif" font-size="10.00"> </text>
<text xml:space="preserve" text-anchor="start" x="110.06" y="-472.75" font-family="Helvetica,sans-Serif" font-size="10.00">+</text>
<text xml:space="preserve" text-anchor="start" x="123.75" y="-472.75" font-family="Helvetica,sans-Serif" font-size="10.00">~IEventPublisher()</text>
<text xml:space="preserve" text-anchor="start" x="110.06" y="-457.5" font-family="Helvetica,sans-Serif" font-size="10.00">+</text>
<text xml:space="preserve" text-anchor="start" x="123.75" y="-457.5" font-family="Helvetica,sans-Serif" font-size="10.00">publishEvent()</text>
<polygon fill="#666666" stroke="#666666" points="102.38,-499.5 102.38,-499.5 216.12,-499.5 216.12,-499.5 102.38,-499.5"/>
<polygon fill="#666666" stroke="#666666" points="102.38,-484.25 102.38,-484.25 216.12,-484.25 216.12,-484.25 102.38,-484.25"/>
<polygon fill="none" stroke="#666666" points="102.38,-451.75 102.38,-516.75 216.12,-516.75 216.12,-451.75 102.38,-451.75"/>
</a>
</g>
</g>
<!-- Node3&#45;&gt;Node1 -->
<g id="edge2_Node000001_Node000003" class="edge">
<title>Node3&#45;&gt;Node1</title>
<g id="a_edge2_Node000001_Node000003"><a xlink:title=" ">
<path fill="none" stroke="#63b8ff" d="M150.36,-440.77C147.88,-428.9 145,-415.16 141.91,-400.39"/>
<polygon fill="none" stroke="#63b8ff" points="146.93,-441.44 152.4,-450.51 153.78,-440.01 146.93,-441.44"/>
</a>
</g>
</g>
</g>
</svg>

<g id="navigator" transform="translate(0 0)" fill="#404254">
  <rect fill="#f2f5e9" fill-opacity="0.5" stroke="#606060" stroke-width=".5" x="0" y="0" width="60" height="60"/>
  <use id="zoomplus" xlink:href="#zoomPlus" x="17" y="9" onmousedown="handleZoom(evt,'in')"/>
  <use id="zoomminus" xlink:href="#zoomMin" x="42" y="9" onmousedown="handleZoom(evt,'out')"/>
  <use id="reset" xlink:href="#resetDef" x="30" y="36" onmousedown="handleReset()"/>
   <use id="arrowup" xlink:href="#arrowUp" x="0" y="0" onmousedown="handlePan(0,-1)"/>
  <use id="arrowright" xlink:href="#arrowRight" x="0" y="0" onmousedown="handlePan(1,0)"/>
  <use id="arrowdown" xlink:href="#arrowDown" x="0" y="0" onmousedown="handlePan(0,1)"/>
  <use id="arrowleft" xlink:href="#arrowLeft" x="0" y="0" onmousedown="handlePan(-1,0)"/>
</g>
<svg viewBox="0 0 15 15" width="100%" height="30px" preserveAspectRatio="xMaxYMin meet">
 <g id="arrow_out" transform="scale(0.3 0.3)">
  <a xlink:href="classrtp_1_1client_1_1ClientNetwork__inherit__graph_org.svg" target="_base">
   <rect id="button" ry="5" rx="5" y="6" x="6" height="38" width="38"
        fill="#f2f5e9" fill-opacity="0.5" stroke="#606060" stroke-width="1.0"/>
   <path id="arrow"
     d="M 11.500037,31.436501 C 11.940474,20.09759 22.043105,11.32322 32.158766,21.979434 L 37.068811,17.246167 C 37.068811,17.246167 37.088388,32 37.088388,32 L 22.160133,31.978069 C 22.160133,31.978069 26.997745,27.140456 26.997745,27.140456 C 18.528582,18.264221 13.291696,25.230495 11.500037,31.436501 z"
     style="fill:#404040;"/>
  </a>
 </g>
</svg>

<style type='text/css'>
<![CDATA[
[data-mouse-over-selected='false'] { opacity: 0.7; }
[data-mouse-over-selected='true']  { opacity: 1.0; }
]]>
</style>
<script type="application/ecmascript"><![CDATA[
document.addEventListener('DOMContentLoaded', (event) => {
  highlightEdges();
  highlightAdjacentNodes();
});
]]></script>
</svg>
