<?xml version="1.0" encoding="UTF-8" standalone="no"?>
<!DOCTYPE svg PUBLIC "-//W3C//DTD SVG 1.1//EN"
 "http://www.w3.org/Graphics/SVG/1.1/DTD/svg11.dtd">
<!-- Generated by graphviz version 14.0.5 (20251129.0259)
 -->
<!-- Title: rtp::net::Packet Pages: 1 -->
<svg width="206pt" height="657pt"
 viewBox="0.00 0.00 206.00 657.00" xmlns="http://www.w3.org/2000/svg" xmlns:xlink="http://www.w3.org/1999/xlink">
<g id="graph0" class="graph" transform="scale(1 1) rotate(0) translate(4 652.5)">
<title>rtp::net::Packet</title>
<!-- Node1 -->
<g id="Node000001" class="node">
<title>Node1</title>
<g id="a_Node000001"><a xlink:title="Network packet with header and serializable body.">
<polygon fill="#999999" stroke="none" points="154.5,-232.75 21.75,-232.75 21.75,0 154.5,0 154.5,-232.75"/>
<text xml:space="preserve" text-anchor="start" x="54.38" y="-219.25" font-family="Helvetica,sans-Serif" font-size="10.00">rtp::net::Packet</text>
<text xml:space="preserve" text-anchor="start" x="27.25" y="-204" font-family="Helvetica,sans-Serif" font-size="10.00">&#45;</text>
<text xml:space="preserve" text-anchor="start" x="35.75" y="-204" font-family="Helvetica,sans-Serif" font-size="10.00">_readPos</text>
<text xml:space="preserve" text-anchor="start" x="25.75" y="-188.75" font-family="Helvetica,sans-Serif" font-size="10.00">+</text>
<text xml:space="preserve" text-anchor="start" x="35.75" y="-188.75" font-family="Helvetica,sans-Serif" font-size="10.00">Packet()</text>
<text xml:space="preserve" text-anchor="start" x="25.75" y="-173.5" font-family="Helvetica,sans-Serif" font-size="10.00">+</text>
<text xml:space="preserve" text-anchor="start" x="35.75" y="-173.5" font-family="Helvetica,sans-Serif" font-size="10.00">Packet()</text>
<text xml:space="preserve" text-anchor="start" x="25.75" y="-158.25" font-family="Helvetica,sans-Serif" font-size="10.00">+</text>
<text xml:space="preserve" text-anchor="start" x="35.75" y="-158.25" font-family="Helvetica,sans-Serif" font-size="10.00">resetRead()</text>
<text xml:space="preserve" text-anchor="start" x="25.75" y="-143" font-family="Helvetica,sans-Serif" font-size="10.00">+</text>
<text xml:space="preserve" text-anchor="start" x="35.75" y="-143" font-family="Helvetica,sans-Serif" font-size="10.00">getBufferSequence()</text>
<text xml:space="preserve" text-anchor="start" x="25.75" y="-127.75" font-family="Helvetica,sans-Serif" font-size="10.00">+</text>
<text xml:space="preserve" text-anchor="start" x="35.75" y="-127.75" font-family="Helvetica,sans-Serif" font-size="10.00">operator&lt;&lt;()</text>
<text xml:space="preserve" text-anchor="start" x="25.75" y="-112.5" font-family="Helvetica,sans-Serif" font-size="10.00">+</text>
<text xml:space="preserve" text-anchor="start" x="35.75" y="-112.5" font-family="Helvetica,sans-Serif" font-size="10.00">operator&lt;&lt;()</text>
<text xml:space="preserve" text-anchor="start" x="25.75" y="-97.25" font-family="Helvetica,sans-Serif" font-size="10.00">+</text>
<text xml:space="preserve" text-anchor="start" x="35.75" y="-97.25" font-family="Helvetica,sans-Serif" font-size="10.00">operator&lt;&lt;()</text>
<text xml:space="preserve" text-anchor="start" x="25.75" y="-82" font-family="Helvetica,sans-Serif" font-size="10.00">+</text>
<text xml:space="preserve" text-anchor="start" x="35.75" y="-82" font-family="Helvetica,sans-Serif" font-size="10.00">operator&gt;&gt;()</text>
<text xml:space="preserve" text-anchor="start" x="25.75" y="-66.75" font-family="Helvetica,sans-Serif" font-size="10.00">+</text>
<text xml:space="preserve" text-anchor="start" x="35.75" y="-66.75" font-family="Helvetica,sans-Serif" font-size="10.00">operator&gt;&gt;()</text>
<text xml:space="preserve" text-anchor="start" x="25.75" y="-51.5" font-family="Helvetica,sans-Serif" font-size="10.00">+</text>
<text xml:space="preserve" text-anchor="start" x="35.75" y="-51.5" font-family="Helvetica,sans-Serif" font-size="10.00">operator&gt;&gt;()</text>
<text xml:space="preserve" text-anchor="start" x="25.75" y="-36.25" font-family="Helvetica,sans-Serif" font-size="10.00">+</text>
<text xml:space="preserve" text-anchor="start" x="35.75" y="-36.25" font-family="Helvetica,sans-Serif" font-size="10.00">to_network()</text>
<text xml:space="preserve" text-anchor="start" x="25.75" y="-21" font-family="Helvetica,sans-Serif" font-size="10.00">+</text>
<text xml:space="preserve" text-anchor="start" x="35.75" y="-21" font-family="Helvetica,sans-Serif" font-size="10.00">from_network()</text>
<text xml:space="preserve" text-anchor="start" x="27.25" y="-5.75" font-family="Helvetica,sans-Serif" font-size="10.00">&#45;</text>
<text xml:space="preserve" text-anchor="start" x="35.75" y="-5.75" font-family="Helvetica,sans-Serif" font-size="10.00">_bumpBodySizeOrThrow()</text>
<polygon fill="#666666" stroke="#666666" points="21.75,-215.5 21.75,-215.5 154.5,-215.5 154.5,-215.5 21.75,-215.5"/>
<polygon fill="#666666" stroke="#666666" points="21.75,-200.25 21.75,-200.25 33.75,-200.25 33.75,-200.25 21.75,-200.25"/>
<polygon fill="#666666" stroke="#666666" points="33.75,-200.25 33.75,-200.25 154.5,-200.25 154.5,-200.25 33.75,-200.25"/>
<polygon fill="none" stroke="#666666" points="21.75,0 21.75,-232.75 154.5,-232.75 154.5,0 21.75,0"/>
</a>
</g>
</g>
<!-- Node2 -->
<g id="Node000002" class="node">
<title>Node2</title>
<g id="a_Node000002"><a xlink:href="structrtp_1_1net_1_1Header.html" target="_top" xlink:title="Packet header with sequencing and acknowledgment support.">
<polygon fill="white" stroke="none" points="76.25,-442.5 0,-442.5 0,-301.25 76.25,-301.25 76.25,-442.5"/>
<text xml:space="preserve" text-anchor="start" x="4" y="-429" font-family="Helvetica,sans-Serif" font-size="10.00">rtp::net::Header</text>
<text xml:space="preserve" text-anchor="start" x="6" y="-413.75" font-family="Helvetica,sans-Serif" font-size="10.00">+</text>
<text xml:space="preserve" text-anchor="start" x="18" y="-413.75" font-family="Helvetica,sans-Serif" font-size="10.00">magic</text>
<text xml:space="preserve" text-anchor="start" x="6" y="-398.5" font-family="Helvetica,sans-Serif" font-size="10.00">+</text>
<text xml:space="preserve" text-anchor="start" x="18" y="-398.5" font-family="Helvetica,sans-Serif" font-size="10.00">sequenceId</text>
<text xml:space="preserve" text-anchor="start" x="6" y="-383.25" font-family="Helvetica,sans-Serif" font-size="10.00">+</text>
<text xml:space="preserve" text-anchor="start" x="18" y="-383.25" font-family="Helvetica,sans-Serif" font-size="10.00">bodySize</text>
<text xml:space="preserve" text-anchor="start" x="6" y="-368" font-family="Helvetica,sans-Serif" font-size="10.00">+</text>
<text xml:space="preserve" text-anchor="start" x="18" y="-368" font-family="Helvetica,sans-Serif" font-size="10.00">ackId</text>
<text xml:space="preserve" text-anchor="start" x="6" y="-352.75" font-family="Helvetica,sans-Serif" font-size="10.00">+</text>
<text xml:space="preserve" text-anchor="start" x="18" y="-352.75" font-family="Helvetica,sans-Serif" font-size="10.00">opCode</text>
<text xml:space="preserve" text-anchor="start" x="6" y="-337.5" font-family="Helvetica,sans-Serif" font-size="10.00">+</text>
<text xml:space="preserve" text-anchor="start" x="18" y="-337.5" font-family="Helvetica,sans-Serif" font-size="10.00">reserved</text>
<text xml:space="preserve" text-anchor="start" x="6" y="-322.25" font-family="Helvetica,sans-Serif" font-size="10.00">+</text>
<text xml:space="preserve" text-anchor="start" x="18" y="-322.25" font-family="Helvetica,sans-Serif" font-size="10.00">sessionId</text>
<text xml:space="preserve" text-anchor="start" x="36.62" y="-307" font-family="Helvetica,sans-Serif" font-size="10.00"> </text>
<polygon fill="#666666" stroke="#666666" points="0,-425.25 0,-425.25 76.25,-425.25 76.25,-425.25 0,-425.25"/>
<polygon fill="#666666" stroke="#666666" points="0,-318.5 0,-318.5 16,-318.5 16,-318.5 0,-318.5"/>
<polygon fill="#666666" stroke="#666666" points="16,-318.5 16,-318.5 76.25,-318.5 76.25,-318.5 16,-318.5"/>
<polygon fill="none" stroke="#666666" points="0,-301.25 0,-442.5 76.25,-442.5 76.25,-301.25 0,-301.25"/>
</a>
</g>
</g>
<!-- Node2&#45;&gt;Node1 -->
<g id="edge1_Node000001_Node000002" class="edge">
<title>Node2&#45;&gt;Node1</title>
<g id="a_edge1_Node000001_Node000002"><a xlink:title=" ">
<path fill="none" stroke="#63b8ff" d="M39.18,-301.27C40.26,-284.62 42.09,-266.97 45.12,-250.75 45.47,-248.88 45.84,-247 46.23,-245.12"/>
<polygon fill="none" stroke="#63b8ff" points="46.22,-245.17 43.61,-238.45 48.81,-233.46 51.42,-240.18 46.22,-245.17"/>
</a>
</g>
<text xml:space="preserve" text-anchor="start" x="48.12" y="-270.75" font-family="Helvetica,sans-Serif" font-size="10.00" fill="grey">+header</text>
<text xml:space="preserve" text-anchor="start" x="48.12" y="-255.5" font-family="Helvetica,sans-Serif" font-size="10.00" fill="grey">&#45;_cacheHeader</text>
</g>
<!-- Node3 -->
<g id="Node000003" class="node">
<title>Node3</title>
<g id="a_Node000003"><a xlink:title=" ">
<polygon fill="white" stroke="none" points="196,-396.75 94.25,-396.75 94.25,-347 196,-347 196,-396.75"/>
<text xml:space="preserve" text-anchor="start" x="98.25" y="-383.25" font-family="Helvetica,sans-Serif" font-size="10.00">std::vector&lt; uint8_t &gt;</text>
<text xml:space="preserve" text-anchor="start" x="109.25" y="-368" font-family="Helvetica,sans-Serif" font-size="10.00">+</text>
<text xml:space="preserve" text-anchor="start" x="130.25" y="-368" font-family="Helvetica,sans-Serif" font-size="10.00">elements</text>
<text xml:space="preserve" text-anchor="start" x="143.62" y="-352.75" font-family="Helvetica,sans-Serif" font-size="10.00"> </text>
<polygon fill="#666666" stroke="#666666" points="94.25,-379.5 94.25,-379.5 196,-379.5 196,-379.5 94.25,-379.5"/>
<polygon fill="#666666" stroke="#666666" points="94.25,-364.25 94.25,-364.25 128.25,-364.25 128.25,-364.25 94.25,-364.25"/>
<polygon fill="#666666" stroke="#666666" points="128.25,-364.25 128.25,-364.25 196,-364.25 196,-364.25 128.25,-364.25"/>
<polygon fill="none" stroke="#666666" points="94.25,-347 94.25,-396.75 196,-396.75 196,-347 94.25,-347"/>
</a>
</g>
</g>
<!-- Node3&#45;&gt;Node1 -->
<g id="edge2_Node000001_Node000003" class="edge">
<title>Node3&#45;&gt;Node1</title>
<g id="a_edge2_Node000001_Node000003"><a xlink:title=" ">
<path fill="none" stroke="#63b8ff" d="M139.76,-347.03C134.37,-323.06 125.63,-284.17 116.86,-245.15"/>
<polygon fill="none" stroke="#63b8ff" points="116.84,-245.09 111.62,-240.11 114.21,-233.38 119.43,-238.36 116.84,-245.09"/>
</a>
</g>
<text xml:space="preserve" text-anchor="start" x="128.06" y="-263.12" font-family="Helvetica,sans-Serif" font-size="10.00" fill="grey">+body</text>
</g>
<!-- Node4 -->
<g id="Node000004" class="node">
<title>Node4</title>
<g id="a_Node000004"><a xlink:title=" ">
<polygon fill="white" stroke="none" points="184.38,-545.5 105.88,-545.5 105.88,-495.75 184.38,-495.75 184.38,-545.5"/>
<text xml:space="preserve" text-anchor="start" x="109.88" y="-532" font-family="Helvetica,sans-Serif" font-size="10.00">std::vector&lt; T &gt;</text>
<text xml:space="preserve" text-anchor="start" x="143.62" y="-516.75" font-family="Helvetica,sans-Serif" font-size="10.00"> </text>
<text xml:space="preserve" text-anchor="start" x="143.62" y="-501.5" font-family="Helvetica,sans-Serif" font-size="10.00"> </text>
<polygon fill="#666666" stroke="#666666" points="105.88,-528.25 105.88,-528.25 184.38,-528.25 184.38,-528.25 105.88,-528.25"/>
<polygon fill="#666666" stroke="#666666" points="105.88,-513 105.88,-513 184.38,-513 184.38,-513 105.88,-513"/>
<polygon fill="none" stroke="#666666" points="105.88,-495.75 105.88,-545.5 184.38,-545.5 184.38,-495.75 105.88,-495.75"/>
</a>
</g>
</g>
<!-- Node4&#45;&gt;Node3 -->
<g id="edge3_Node000003_Node000004" class="edge">
<title>Node4&#45;&gt;Node3</title>
<g id="a_edge3_Node000003_Node000004"><a xlink:title=" ">
<path fill="none" stroke="orange" d="M145.12,-484.66C145.12,-457.38 145.12,-420.23 145.12,-396.39"/>
<polygon fill="orange" stroke="orange" points="141.63,-484.53 145.13,-494.53 148.63,-484.53 141.63,-484.53"/>
</a>
</g>
<text xml:space="preserve" text-anchor="start" x="148.12" y="-465.25" font-family="Helvetica,sans-Serif" font-size="10.00" fill="grey">&lt; uint8_t &gt;</text>
</g>
<!-- Node5 -->
<g id="Node000005" class="node">
<title>Node5</title>
<g id="a_Node000005"><a xlink:title=" ">
<polygon fill="white" stroke="none" points="152.12,-648.5 138.12,-648.5 138.12,-598.75 152.12,-598.75 152.12,-648.5"/>
<text xml:space="preserve" text-anchor="start" x="142.12" y="-635" font-family="Helvetica,sans-Serif" font-size="10.00">T</text>
<text xml:space="preserve" text-anchor="start" x="143.62" y="-619.75" font-family="Helvetica,sans-Serif" font-size="10.00"> </text>
<text xml:space="preserve" text-anchor="start" x="143.62" y="-604.5" font-family="Helvetica,sans-Serif" font-size="10.00"> </text>
<polygon fill="#666666" stroke="#666666" points="138.12,-631.25 138.12,-631.25 152.12,-631.25 152.12,-631.25 138.12,-631.25"/>
<polygon fill="#666666" stroke="#666666" points="138.12,-616 138.12,-616 152.12,-616 152.12,-616 138.12,-616"/>
<polygon fill="none" stroke="#666666" points="138.12,-598.75 138.12,-648.5 152.12,-648.5 152.12,-598.75 138.12,-598.75"/>
</a>
</g>
</g>
<!-- Node5&#45;&gt;Node4 -->
<g id="edge4_Node000004_Node000005" class="edge">
<title>Node5&#45;&gt;Node4</title>
<g id="a_edge4_Node000004_Node000005"><a xlink:title=" ">
<path fill="none" stroke="#63b8ff" d="M145.12,-598.94C145.12,-586.79 145.12,-571.71 145.12,-558.11"/>
<polygon fill="none" stroke="#63b8ff" points="145.13,-558.06 141.13,-552.06 145.13,-546.06 149.13,-552.06 145.13,-558.06"/>
</a>
</g>
<text xml:space="preserve" text-anchor="start" x="148.12" y="-568.25" font-family="Helvetica,sans-Serif" font-size="10.00" fill="grey">+elements</text>
</g>
</g>
</svg>
