<?xml version="1.0" encoding="UTF-8" standalone="no"?>
<!DOCTYPE svg PUBLIC "-//W3C//DTD SVG 1.1//EN"
 "http://www.w3.org/Graphics/SVG/1.1/DTD/svg11.dtd">
<!-- Generated by graphviz version 14.0.5 (20251129.0259)
 -->
<!-- Title: rtp::config::SimpleJson Pages: 1 -->
<svg width="222pt" height="595pt"
 viewBox="0.00 0.00 222.00 595.00" xmlns="http://www.w3.org/2000/svg" xmlns:xlink="http://www.w3.org/1999/xlink">
<g id="graph0" class="graph" transform="scale(1 1) rotate(0) translate(4 590.75)">
<title>rtp::config::SimpleJson</title>
<!-- Node1 -->
<g id="Node000001" class="node">
<title>Node1</title>
<g id="a_Node000001"><a xlink:title=" ">
<polygon fill="#999999" stroke="none" points="145,-217.5 31,-217.5 31,0 145,0 145,-217.5"/>
<text xml:space="preserve" text-anchor="start" x="37.75" y="-204" font-family="Helvetica,sans-Serif" font-size="10.00">rtp::config::SimpleJson</text>
<text xml:space="preserve" text-anchor="start" x="86.5" y="-188.75" font-family="Helvetica,sans-Serif" font-size="10.00"> </text>
<text xml:space="preserve" text-anchor="start" x="35" y="-173.5" font-family="Helvetica,sans-Serif" font-size="10.00">+</text>
<text xml:space="preserve" text-anchor="start" x="45" y="-173.5" font-family="Helvetica,sans-Serif" font-size="10.00">parse()</text>
<text xml:space="preserve" text-anchor="start" x="35" y="-158.25" font-family="Helvetica,sans-Serif" font-size="10.00">+</text>
<text xml:space="preserve" text-anchor="start" x="45" y="-158.25" font-family="Helvetica,sans-Serif" font-size="10.00">parseContent()</text>
<text xml:space="preserve" text-anchor="start" x="35" y="-143" font-family="Helvetica,sans-Serif" font-size="10.00">+</text>
<text xml:space="preserve" text-anchor="start" x="45" y="-143" font-family="Helvetica,sans-Serif" font-size="10.00">getString()</text>
<text xml:space="preserve" text-anchor="start" x="35" y="-127.75" font-family="Helvetica,sans-Serif" font-size="10.00">+</text>
<text xml:space="preserve" text-anchor="start" x="45" y="-127.75" font-family="Helvetica,sans-Serif" font-size="10.00">getInt()</text>
<text xml:space="preserve" text-anchor="start" x="35" y="-112.5" font-family="Helvetica,sans-Serif" font-size="10.00">+</text>
<text xml:space="preserve" text-anchor="start" x="45" y="-112.5" font-family="Helvetica,sans-Serif" font-size="10.00">getFloat()</text>
<text xml:space="preserve" text-anchor="start" x="35" y="-97.25" font-family="Helvetica,sans-Serif" font-size="10.00">+</text>
<text xml:space="preserve" text-anchor="start" x="45" y="-97.25" font-family="Helvetica,sans-Serif" font-size="10.00">getBool()</text>
<text xml:space="preserve" text-anchor="start" x="35" y="-82" font-family="Helvetica,sans-Serif" font-size="10.00">+</text>
<text xml:space="preserve" text-anchor="start" x="45" y="-82" font-family="Helvetica,sans-Serif" font-size="10.00">getData()</text>
<text xml:space="preserve" text-anchor="start" x="36.5" y="-66.75" font-family="Helvetica,sans-Serif" font-size="10.00">&#45;</text>
<text xml:space="preserve" text-anchor="start" x="45" y="-66.75" font-family="Helvetica,sans-Serif" font-size="10.00">parseObject()</text>
<text xml:space="preserve" text-anchor="start" x="36.5" y="-51.5" font-family="Helvetica,sans-Serif" font-size="10.00">&#45;</text>
<text xml:space="preserve" text-anchor="start" x="45" y="-51.5" font-family="Helvetica,sans-Serif" font-size="10.00">skipWhitespace()</text>
<text xml:space="preserve" text-anchor="start" x="36.5" y="-36.25" font-family="Helvetica,sans-Serif" font-size="10.00">&#45;</text>
<text xml:space="preserve" text-anchor="start" x="45" y="-36.25" font-family="Helvetica,sans-Serif" font-size="10.00">parseString()</text>
<text xml:space="preserve" text-anchor="start" x="36.5" y="-21" font-family="Helvetica,sans-Serif" font-size="10.00">&#45;</text>
<text xml:space="preserve" text-anchor="start" x="45" y="-21" font-family="Helvetica,sans-Serif" font-size="10.00">parseValue()</text>
<text xml:space="preserve" text-anchor="start" x="36.5" y="-5.75" font-family="Helvetica,sans-Serif" font-size="10.00">&#45;</text>
<text xml:space="preserve" text-anchor="start" x="45" y="-5.75" font-family="Helvetica,sans-Serif" font-size="10.00">extractNestedObject()</text>
<polygon fill="#666666" stroke="#666666" points="31,-200.25 31,-200.25 145,-200.25 145,-200.25 31,-200.25"/>
<polygon fill="#666666" stroke="#666666" points="31,-185 31,-185 145,-185 145,-185 31,-185"/>
<polygon fill="none" stroke="#666666" points="31,0 31,-217.5 145,-217.5 145,0 31,0"/>
</a>
</g>
</g>
<!-- Node2 -->
<g id="Node000002" class="node">
<title>Node2</title>
<g id="a_Node000002"><a xlink:title=" ">
<polygon fill="white" stroke="none" points="135.12,-343 40.88,-343 40.88,-270.75 135.12,-270.75 135.12,-343"/>
<text xml:space="preserve" text-anchor="start" x="44.88" y="-329.5" font-family="Helvetica,sans-Serif" font-size="10.00">std::unordered_map</text>
<text xml:space="preserve" text-anchor="start" x="44.88" y="-318.25" font-family="Helvetica,sans-Serif" font-size="10.00">&lt; std::string, std::</text>
<text xml:space="preserve" text-anchor="start" x="71.5" y="-307" font-family="Helvetica,sans-Serif" font-size="10.00">string &gt;</text>
<text xml:space="preserve" text-anchor="start" x="86.5" y="-291.75" font-family="Helvetica,sans-Serif" font-size="10.00"> </text>
<text xml:space="preserve" text-anchor="start" x="86.5" y="-276.5" font-family="Helvetica,sans-Serif" font-size="10.00"> </text>
<polygon fill="#666666" stroke="#666666" points="40.88,-303.25 40.88,-303.25 135.12,-303.25 135.12,-303.25 40.88,-303.25"/>
<polygon fill="#666666" stroke="#666666" points="40.88,-288 40.88,-288 135.12,-288 135.12,-288 40.88,-288"/>
<polygon fill="none" stroke="#666666" points="40.88,-270.75 40.88,-343 135.12,-343 135.12,-270.75 40.88,-270.75"/>
</a>
</g>
</g>
<!-- Node2&#45;&gt;Node1 -->
<g id="edge1_Node000001_Node000002" class="edge">
<title>Node2&#45;&gt;Node1</title>
<g id="a_edge1_Node000001_Node000002"><a xlink:title=" ">
<path fill="none" stroke="#63b8ff" d="M88,-270.81C88,-258.97 88,-244.99 88,-230.31"/>
<polygon fill="none" stroke="#63b8ff" points="88,-230.16 84,-224.16 88,-218.16 92,-224.16 88,-230.16"/>
</a>
</g>
<text xml:space="preserve" text-anchor="start" x="91" y="-240.25" font-family="Helvetica,sans-Serif" font-size="10.00" fill="grey">+data</text>
</g>
<!-- Node3 -->
<g id="Node000003" class="node">
<title>Node3</title>
<g id="a_Node000003"><a xlink:title=" ">
<polygon fill="white" stroke="none" points="68.75,-466.88 17.25,-466.88 17.25,-417.12 68.75,-417.12 68.75,-466.88"/>
<text xml:space="preserve" text-anchor="start" x="21.25" y="-453.38" font-family="Helvetica,sans-Serif" font-size="10.00">std::string</text>
<text xml:space="preserve" text-anchor="start" x="41.5" y="-438.12" font-family="Helvetica,sans-Serif" font-size="10.00"> </text>
<text xml:space="preserve" text-anchor="start" x="41.5" y="-422.88" font-family="Helvetica,sans-Serif" font-size="10.00"> </text>
<polygon fill="#666666" stroke="#666666" points="17.25,-449.62 17.25,-449.62 68.75,-449.62 68.75,-449.62 17.25,-449.62"/>
<polygon fill="#666666" stroke="#666666" points="17.25,-434.38 17.25,-434.38 68.75,-434.38 68.75,-434.38 17.25,-434.38"/>
<polygon fill="none" stroke="#666666" points="17.25,-417.12 17.25,-466.88 68.75,-466.88 68.75,-417.12 17.25,-417.12"/>
</a>
</g>
</g>
<!-- Node3&#45;&gt;Node2 -->
<g id="edge2_Node000002_Node000003" class="edge">
<title>Node3&#45;&gt;Node2</title>
<g id="a_edge2_Node000002_Node000003"><a xlink:title=" ">
<path fill="none" stroke="#63b8ff" d="M44.59,-417.3C46.23,-401.06 49.56,-379.24 56.25,-361 57.05,-358.82 57.94,-356.64 58.89,-354.46"/>
<polygon fill="none" stroke="#63b8ff" points="58.86,-354.54 57.93,-347.39 64.17,-343.78 65.1,-350.93 58.86,-354.54"/>
</a>
</g>
<text xml:space="preserve" text-anchor="start" x="59.25" y="-381" font-family="Helvetica,sans-Serif" font-size="10.00" fill="grey">+elements</text>
<text xml:space="preserve" text-anchor="start" x="59.25" y="-365.75" font-family="Helvetica,sans-Serif" font-size="10.00" fill="grey">+keys</text>
</g>
<!-- Node4 -->
<g id="Node000004" class="node">
<title>Node4</title>
<g id="a_Node000004"><a xlink:title=" ">
<polygon fill="white" stroke="none" points="86,-586.75 0,-586.75 0,-525.75 86,-525.75 86,-586.75"/>
<text xml:space="preserve" text-anchor="start" x="4" y="-573.25" font-family="Helvetica,sans-Serif" font-size="10.00">std::basic_string&lt;</text>
<text xml:space="preserve" text-anchor="start" x="26.5" y="-562" font-family="Helvetica,sans-Serif" font-size="10.00"> Char &gt;</text>
<text xml:space="preserve" text-anchor="start" x="41.5" y="-546.75" font-family="Helvetica,sans-Serif" font-size="10.00"> </text>
<text xml:space="preserve" text-anchor="start" x="41.5" y="-531.5" font-family="Helvetica,sans-Serif" font-size="10.00"> </text>
<polygon fill="#666666" stroke="#666666" points="0,-558.25 0,-558.25 86,-558.25 86,-558.25 0,-558.25"/>
<polygon fill="#666666" stroke="#666666" points="0,-543 0,-543 86,-543 86,-543 0,-543"/>
<polygon fill="none" stroke="#666666" points="0,-525.75 0,-586.75 86,-586.75 86,-525.75 0,-525.75"/>
</a>
</g>
</g>
<!-- Node4&#45;&gt;Node3 -->
<g id="edge3_Node000003_Node000004" class="edge">
<title>Node4&#45;&gt;Node3</title>
<g id="a_edge3_Node000003_Node000004"><a xlink:title=" ">
<path fill="none" stroke="#63b8ff" d="M43,-514.46C43,-498.39 43,-480.5 43,-466.64"/>
<polygon fill="none" stroke="#63b8ff" points="39.5,-514.24 43,-524.24 46.5,-514.24 39.5,-514.24"/>
</a>
</g>
</g>
<!-- Node5 -->
<g id="Node000005" class="node">
<title>Node5</title>
<g id="a_Node000005"><a xlink:title=" ">
<polygon fill="white" stroke="none" points="181.12,-472.5 86.88,-472.5 86.88,-411.5 181.12,-411.5 181.12,-472.5"/>
<text xml:space="preserve" text-anchor="start" x="90.88" y="-459" font-family="Helvetica,sans-Serif" font-size="10.00">std::unordered_map</text>
<text xml:space="preserve" text-anchor="start" x="115.62" y="-447.75" font-family="Helvetica,sans-Serif" font-size="10.00">&lt; K, T &gt;</text>
<text xml:space="preserve" text-anchor="start" x="132.5" y="-432.5" font-family="Helvetica,sans-Serif" font-size="10.00"> </text>
<text xml:space="preserve" text-anchor="start" x="132.5" y="-417.25" font-family="Helvetica,sans-Serif" font-size="10.00"> </text>
<polygon fill="#666666" stroke="#666666" points="86.88,-444 86.88,-444 181.12,-444 181.12,-444 86.88,-444"/>
<polygon fill="#666666" stroke="#666666" points="86.88,-428.75 86.88,-428.75 181.12,-428.75 181.12,-428.75 86.88,-428.75"/>
<polygon fill="none" stroke="#666666" points="86.88,-411.5 86.88,-472.5 181.12,-472.5 181.12,-411.5 86.88,-411.5"/>
</a>
</g>
</g>
<!-- Node5&#45;&gt;Node2 -->
<g id="edge4_Node000002_Node000005" class="edge">
<title>Node5&#45;&gt;Node2</title>
<g id="a_edge4_Node000002_Node000005"><a xlink:title=" ">
<path fill="none" stroke="orange" d="M121.34,-400.83C117.21,-388.06 112.52,-373.9 108,-361 105.95,-355.14 103.69,-348.95 101.46,-342.94"/>
<polygon fill="orange" stroke="orange" points="117.96,-401.74 124.35,-410.19 124.62,-399.6 117.96,-401.74"/>
</a>
</g>
<text xml:space="preserve" text-anchor="start" x="121.36" y="-381" font-family="Helvetica,sans-Serif" font-size="10.00" fill="grey">&lt; std::string, std</text>
<text xml:space="preserve" text-anchor="start" x="121.36" y="-365.75" font-family="Helvetica,sans-Serif" font-size="10.00" fill="grey">  ::string &gt;</text>
</g>
<!-- Node6 -->
<g id="Node000006" class="node">
<title>Node6</title>
<g id="a_Node000006"><a xlink:title=" ">
<polygon fill="white" stroke="none" points="129.38,-581.12 114.62,-581.12 114.62,-531.38 129.38,-531.38 129.38,-581.12"/>
<text xml:space="preserve" text-anchor="start" x="118.62" y="-567.62" font-family="Helvetica,sans-Serif" font-size="10.00">K</text>
<text xml:space="preserve" text-anchor="start" x="120.5" y="-552.38" font-family="Helvetica,sans-Serif" font-size="10.00"> </text>
<text xml:space="preserve" text-anchor="start" x="120.5" y="-537.12" font-family="Helvetica,sans-Serif" font-size="10.00"> </text>
<polygon fill="#666666" stroke="#666666" points="114.62,-563.88 114.62,-563.88 129.38,-563.88 129.38,-563.88 114.62,-563.88"/>
<polygon fill="#666666" stroke="#666666" points="114.62,-548.62 114.62,-548.62 129.38,-548.62 129.38,-548.62 114.62,-548.62"/>
<polygon fill="none" stroke="#666666" points="114.62,-531.38 114.62,-581.12 129.38,-581.12 129.38,-531.38 114.62,-531.38"/>
</a>
</g>
</g>
<!-- Node6&#45;&gt;Node5 -->
<g id="edge5_Node000005_Node000006" class="edge">
<title>Node6&#45;&gt;Node5</title>
<g id="a_edge5_Node000005_Node000006"><a xlink:title=" ">
<path fill="none" stroke="#63b8ff" d="M121.17,-531.49C121.04,-519.21 121.35,-504 123,-490.5 123.21,-488.75 123.46,-486.98 123.75,-485.19"/>
<polygon fill="none" stroke="#63b8ff" points="123.75,-485.15 120.94,-478.51 125.99,-473.36 128.8,-480 123.75,-485.15"/>
</a>
</g>
<text xml:space="preserve" text-anchor="start" x="126" y="-495.25" font-family="Helvetica,sans-Serif" font-size="10.00" fill="grey">+keys</text>
</g>
<!-- Node7 -->
<g id="Node000007" class="node">
<title>Node7</title>
<g id="a_Node000007"><a xlink:title=" ">
<polygon fill="white" stroke="none" points="185,-581.12 171,-581.12 171,-531.38 185,-531.38 185,-581.12"/>
<text xml:space="preserve" text-anchor="start" x="175" y="-567.62" font-family="Helvetica,sans-Serif" font-size="10.00">T</text>
<text xml:space="preserve" text-anchor="start" x="176.5" y="-552.38" font-family="Helvetica,sans-Serif" font-size="10.00"> </text>
<text xml:space="preserve" text-anchor="start" x="176.5" y="-537.12" font-family="Helvetica,sans-Serif" font-size="10.00"> </text>
<polygon fill="#666666" stroke="#666666" points="171,-563.88 171,-563.88 185,-563.88 185,-563.88 171,-563.88"/>
<polygon fill="#666666" stroke="#666666" points="171,-548.62 171,-548.62 185,-548.62 185,-548.62 171,-548.62"/>
<polygon fill="none" stroke="#666666" points="171,-531.38 171,-581.12 185,-581.12 185,-531.38 171,-531.38"/>
</a>
</g>
</g>
<!-- Node7&#45;&gt;Node5 -->
<g id="edge6_Node000005_Node000007" class="edge">
<title>Node7&#45;&gt;Node5</title>
<g id="a_edge6_Node000005_Node000007"><a xlink:title=" ">
<path fill="none" stroke="#63b8ff" d="M171.04,-532.86C166.97,-520.29 161.56,-504.39 156,-490.5 155.19,-488.47 154.33,-486.4 153.45,-484.32"/>
<polygon fill="none" stroke="#63b8ff" points="153.42,-484.24 147.34,-480.36 148.59,-473.26 154.66,-477.14 153.42,-484.24"/>
</a>
</g>
<text xml:space="preserve" text-anchor="start" x="164.98" y="-495.25" font-family="Helvetica,sans-Serif" font-size="10.00" fill="grey">+elements</text>
</g>
</g>
</svg>
