<?xml version="1.0" encoding="UTF-8" standalone="no"?>
<!DOCTYPE svg PUBLIC "-//W3C//DTD SVG 1.1//EN"
 "http://www.w3.org/Graphics/SVG/1.1/DTD/svg11.dtd">
<!-- Generated by graphviz version 14.0.5 (20251129.0259)
 -->
<!-- Title: rtp::client::EntityBuilder Pages: 1 -->
<!--zoomable 1001 -->

<svg id="main" version="1.1" xmlns="http://www.w3.org/2000/svg" xmlns:xlink="http://www.w3.org/1999/xlink" xml:space="preserve" onload="init(evt)">

<style type="text/css"><![CDATA[
.node, .edge {opacity: 0.7;}
.node.selected, .edge.selected {opacity: 1;}
.edge:hover path { stroke: red; }
.edge:hover polygon { stroke: red; fill: red; }
]]></style>

<defs>
  <circle id="rim" cx="0" cy="0" r="7"/>
  <circle id="rim2" cx="0" cy="0" r="3.5"/>
  <g id="zoomPlus">
    <use xlink:href="#rim" fill="#404040"><set attributeName="fill" to="#808080" begin="zoomplus.mouseover" end="zoomplus.mouseout"/></use>
    <path d="M-4,0h8M0,-4v8" fill="none" stroke="white" stroke-width="1.5" pointer-events="none"/>
  </g>
  <g id="zoomMin">
    <use xlink:href="#rim" fill="#404040"><set attributeName="fill" to="#808080" begin="zoomminus.mouseover" end="zoomminus.mouseout"/></use>
    <path d="M-4,0h8" fill="none" stroke="white" stroke-width="1.5" pointer-events="none"/>
  </g>
  <g id="arrowUp" transform="translate(30 24)">
    <use xlink:href="#rim"/>
    <path pointer-events="none" fill="none" stroke="white" stroke-width="1.5" d="M0,-3.0v7 M-2.5,-0.5L0,-3.0L2.5,-0.5"/>
  </g>
  <g id="arrowRight" transform="rotate(90) translate(36 -43)">
    <use xlink:href="#rim"/>
    <path pointer-events="none" fill="none" stroke="white" stroke-width="1.5" d="M0,-3.0v7 M-2.5,-0.5L0,-3.0L2.5,-0.5"/>
  </g>
  <g id="arrowDown" transform="rotate(180) translate(-30 -48)">
    <use xlink:href="#rim"/>
    <path pointer-events="none" fill="none" stroke="white" stroke-width="1.5" d="M0,-3.0v7 M-2.5,-0.5L0,-3.0L2.5,-0.5"/>
  </g>
  <g id="arrowLeft" transform="rotate(270) translate(-36 17)">
    <use xlink:href="#rim"/>
    <path pointer-events="none" fill="none" stroke="white" stroke-width="1.5" d="M0,-3.0v7 M-2.5,-0.5L0,-3.0L2.5,-0.5"/>
  </g>
  <g id="resetDef">
    <use xlink:href="#rim2" fill="#404040"><set attributeName="fill" to="#808080" begin="reset.mouseover" end="reset.mouseout"/></use>
  </g>
</defs>
<script type="application/ecmascript">
var viewWidth = 635;
var viewHeight = 1001;
var sectionId = 'dynsection-0';
</script>
<script type="application/ecmascript" xlink:href="svg.min.js"/>
<svg id="graph" class="graph">
<g id="viewport">
<title>rtp::client::EntityBuilder</title>
<!-- Node1 -->
<g id="Node000001" class="node">
<title>Node1</title>
<g id="a_Node000001"><a xlink:title=" ">
<polygon fill="#999999" stroke="none" points="461.12,-95.5 351.12,-95.5 351.12,0 461.12,0 461.12,-95.5"/>
<text xml:space="preserve" text-anchor="start" x="355.12" y="-82" font-family="Helvetica,sans-Serif" font-size="10.00">rtp::client::EntityBuilder</text>
<text xml:space="preserve" text-anchor="start" x="404.62" y="-66.75" font-family="Helvetica,sans-Serif" font-size="10.00"> </text>
<text xml:space="preserve" text-anchor="start" x="362.75" y="-51.5" font-family="Helvetica,sans-Serif" font-size="10.00">+</text>
<text xml:space="preserve" text-anchor="start" x="380.38" y="-51.5" font-family="Helvetica,sans-Serif" font-size="10.00">EntityBuilder()</text>
<text xml:space="preserve" text-anchor="start" x="362.75" y="-36.25" font-family="Helvetica,sans-Serif" font-size="10.00">+</text>
<text xml:space="preserve" text-anchor="start" x="380.38" y="-36.25" font-family="Helvetica,sans-Serif" font-size="10.00">spawn()</text>
<text xml:space="preserve" text-anchor="start" x="362.75" y="-21" font-family="Helvetica,sans-Serif" font-size="10.00">+</text>
<text xml:space="preserve" text-anchor="start" x="380.38" y="-21" font-family="Helvetica,sans-Serif" font-size="10.00">kill()</text>
<text xml:space="preserve" text-anchor="start" x="362.75" y="-5.75" font-family="Helvetica,sans-Serif" font-size="10.00">+</text>
<text xml:space="preserve" text-anchor="start" x="380.38" y="-5.75" font-family="Helvetica,sans-Serif" font-size="10.00">update()</text>
<polygon fill="#666666" stroke="#666666" points="351.12,-78.25 351.12,-78.25 461.12,-78.25 461.12,-78.25 351.12,-78.25"/>
<polygon fill="#666666" stroke="#666666" points="351.12,-63 351.12,-63 461.12,-63 461.12,-63 351.12,-63"/>
<polygon fill="none" stroke="#666666" points="351.12,0 351.12,-95.5 461.12,-95.5 461.12,0 351.12,0"/>
</a>
</g>
</g>
<!-- Node2 -->
<g id="Node000002" class="node">
<title>Node2</title>
<g id="a_Node000002"><a xlink:href="classrtp_1_1ecs_1_1Registry.html" target="_top" xlink:title=" ">
<polygon fill="white" stroke="none" points="459.38,-457.75 352.88,-457.75 352.88,-148.75 459.38,-148.75 459.38,-457.75"/>
<text xml:space="preserve" text-anchor="start" x="368.25" y="-444.25" font-family="Helvetica,sans-Serif" font-size="10.00">rtp::ecs::Registry</text>
<text xml:space="preserve" text-anchor="start" x="404.62" y="-429" font-family="Helvetica,sans-Serif" font-size="10.00"> </text>
<text xml:space="preserve" text-anchor="start" x="356.88" y="-413.75" font-family="Helvetica,sans-Serif" font-size="10.00">+</text>
<text xml:space="preserve" text-anchor="start" x="366.88" y="-413.75" font-family="Helvetica,sans-Serif" font-size="10.00">~Registry()</text>
<text xml:space="preserve" text-anchor="start" x="356.88" y="-398.5" font-family="Helvetica,sans-Serif" font-size="10.00">+</text>
<text xml:space="preserve" text-anchor="start" x="366.88" y="-398.5" font-family="Helvetica,sans-Serif" font-size="10.00">spawn()</text>
<text xml:space="preserve" text-anchor="start" x="356.88" y="-383.25" font-family="Helvetica,sans-Serif" font-size="10.00">+</text>
<text xml:space="preserve" text-anchor="start" x="366.88" y="-383.25" font-family="Helvetica,sans-Serif" font-size="10.00">kill()</text>
<text xml:space="preserve" text-anchor="start" x="356.88" y="-368" font-family="Helvetica,sans-Serif" font-size="10.00">+</text>
<text xml:space="preserve" text-anchor="start" x="366.88" y="-368" font-family="Helvetica,sans-Serif" font-size="10.00">subscribe()</text>
<text xml:space="preserve" text-anchor="start" x="356.88" y="-352.75" font-family="Helvetica,sans-Serif" font-size="10.00">+</text>
<text xml:space="preserve" text-anchor="start" x="366.88" y="-352.75" font-family="Helvetica,sans-Serif" font-size="10.00">isAlive()</text>
<text xml:space="preserve" text-anchor="start" x="356.88" y="-337.5" font-family="Helvetica,sans-Serif" font-size="10.00">+</text>
<text xml:space="preserve" text-anchor="start" x="366.88" y="-337.5" font-family="Helvetica,sans-Serif" font-size="10.00">add()</text>
<text xml:space="preserve" text-anchor="start" x="356.88" y="-322.25" font-family="Helvetica,sans-Serif" font-size="10.00">+</text>
<text xml:space="preserve" text-anchor="start" x="366.88" y="-322.25" font-family="Helvetica,sans-Serif" font-size="10.00">get()</text>
<text xml:space="preserve" text-anchor="start" x="356.88" y="-307" font-family="Helvetica,sans-Serif" font-size="10.00">+</text>
<text xml:space="preserve" text-anchor="start" x="366.88" y="-307" font-family="Helvetica,sans-Serif" font-size="10.00">has()</text>
<text xml:space="preserve" text-anchor="start" x="356.88" y="-291.75" font-family="Helvetica,sans-Serif" font-size="10.00">+</text>
<text xml:space="preserve" text-anchor="start" x="366.88" y="-291.75" font-family="Helvetica,sans-Serif" font-size="10.00">remove()</text>
<text xml:space="preserve" text-anchor="start" x="356.88" y="-276.5" font-family="Helvetica,sans-Serif" font-size="10.00">+</text>
<text xml:space="preserve" text-anchor="start" x="366.88" y="-276.5" font-family="Helvetica,sans-Serif" font-size="10.00">clear()</text>
<text xml:space="preserve" text-anchor="start" x="356.88" y="-261.25" font-family="Helvetica,sans-Serif" font-size="10.00">+</text>
<text xml:space="preserve" text-anchor="start" x="366.88" y="-261.25" font-family="Helvetica,sans-Serif" font-size="10.00">purge()</text>
<text xml:space="preserve" text-anchor="start" x="356.88" y="-246" font-family="Helvetica,sans-Serif" font-size="10.00">+</text>
<text xml:space="preserve" text-anchor="start" x="366.88" y="-246" font-family="Helvetica,sans-Serif" font-size="10.00">view()</text>
<text xml:space="preserve" text-anchor="start" x="356.88" y="-230.75" font-family="Helvetica,sans-Serif" font-size="10.00">+</text>
<text xml:space="preserve" text-anchor="start" x="366.88" y="-230.75" font-family="Helvetica,sans-Serif" font-size="10.00">zipView()</text>
<text xml:space="preserve" text-anchor="start" x="356.88" y="-215.5" font-family="Helvetica,sans-Serif" font-size="10.00">+</text>
<text xml:space="preserve" text-anchor="start" x="366.88" y="-215.5" font-family="Helvetica,sans-Serif" font-size="10.00">entityCount()</text>
<text xml:space="preserve" text-anchor="start" x="356.88" y="-200.25" font-family="Helvetica,sans-Serif" font-size="10.00">+</text>
<text xml:space="preserve" text-anchor="start" x="366.88" y="-200.25" font-family="Helvetica,sans-Serif" font-size="10.00">componentCount()</text>
<text xml:space="preserve" text-anchor="start" x="358.38" y="-185" font-family="Helvetica,sans-Serif" font-size="10.00">&#45;</text>
<text xml:space="preserve" text-anchor="start" x="366.88" y="-185" font-family="Helvetica,sans-Serif" font-size="10.00">getArray()</text>
<text xml:space="preserve" text-anchor="start" x="358.38" y="-169.75" font-family="Helvetica,sans-Serif" font-size="10.00">&#45;</text>
<text xml:space="preserve" text-anchor="start" x="366.88" y="-169.75" font-family="Helvetica,sans-Serif" font-size="10.00">getSmallestArray()</text>
<text xml:space="preserve" text-anchor="start" x="358.38" y="-154.5" font-family="Helvetica,sans-Serif" font-size="10.00">&#45;</text>
<text xml:space="preserve" text-anchor="start" x="366.88" y="-154.5" font-family="Helvetica,sans-Serif" font-size="10.00">hasAllComponents()</text>
<polygon fill="#666666" stroke="#666666" points="352.88,-440.5 352.88,-440.5 459.38,-440.5 459.38,-440.5 352.88,-440.5"/>
<polygon fill="#666666" stroke="#666666" points="352.88,-425.25 352.88,-425.25 459.38,-425.25 459.38,-425.25 352.88,-425.25"/>
<polygon fill="none" stroke="#666666" points="352.88,-148.75 352.88,-457.75 459.38,-457.75 459.38,-148.75 352.88,-148.75"/>
</a>
</g>
</g>
<!-- Node2&#45;&gt;Node1 -->
<g id="edge1_Node000001_Node000002" class="edge">
<title>Node2&#45;&gt;Node1</title>
<g id="a_edge1_Node000001_Node000002"><a xlink:title=" ">
<path fill="none" stroke="#63b8ff" d="M406.12,-148.94C406.12,-134.55 406.12,-120.63 406.12,-107.98"/>
<polygon fill="none" stroke="#63b8ff" points="406.13,-108.19 402.13,-102.19 406.13,-96.19 410.13,-102.19 406.13,-108.19"/>
</a>
</g>
<text xml:space="preserve" text-anchor="start" x="409.12" y="-118.25" font-family="Helvetica,sans-Serif" font-size="10.00" fill="grey">&#45;_registry</text>
</g>
<!-- Node3 -->
<g id="Node000003" class="node">
<title>Node3</title>
<g id="a_Node000003"><a xlink:title=" ">
<polygon fill="white" stroke="none" points="286.75,-594.5 183.5,-594.5 183.5,-511 286.75,-511 286.75,-594.5"/>
<text xml:space="preserve" text-anchor="start" x="187.5" y="-581" font-family="Helvetica,sans-Serif" font-size="10.00">std::unordered_map</text>
<text xml:space="preserve" text-anchor="start" x="187.5" y="-569.75" font-family="Helvetica,sans-Serif" font-size="10.00">&lt; std::type_index, std</text>
<text xml:space="preserve" text-anchor="start" x="187.5" y="-558.5" font-family="Helvetica,sans-Serif" font-size="10.00">::unique_ptr&lt; rtp::ecs</text>
<text xml:space="preserve" text-anchor="start" x="194.62" y="-547.25" font-family="Helvetica,sans-Serif" font-size="10.00">::ISparseArray &gt; &gt;</text>
<text xml:space="preserve" text-anchor="start" x="203.56" y="-532" font-family="Helvetica,sans-Serif" font-size="10.00">+</text>
<text xml:space="preserve" text-anchor="start" x="229.62" y="-532" font-family="Helvetica,sans-Serif" font-size="10.00">keys</text>
<text xml:space="preserve" text-anchor="start" x="233.62" y="-516.75" font-family="Helvetica,sans-Serif" font-size="10.00"> </text>
<polygon fill="#666666" stroke="#666666" points="183.5,-543.5 183.5,-543.5 286.75,-543.5 286.75,-543.5 183.5,-543.5"/>
<polygon fill="#666666" stroke="#666666" points="183.5,-528.25 183.5,-528.25 227.62,-528.25 227.62,-528.25 183.5,-528.25"/>
<polygon fill="#666666" stroke="#666666" points="227.62,-528.25 227.62,-528.25 286.75,-528.25 286.75,-528.25 227.62,-528.25"/>
<polygon fill="none" stroke="#666666" points="183.5,-511 183.5,-594.5 286.75,-594.5 286.75,-511 183.5,-511"/>
</a>
</g>
</g>
<!-- Node3&#45;&gt;Node2 -->
<g id="edge2_Node000002_Node000003" class="edge">
<title>Node3&#45;&gt;Node2</title>
<g id="a_edge2_Node000002_Node000003"><a xlink:title=" ">
<path fill="none" stroke="#63b8ff" d="M263.17,-511.16C285.53,-478.8 317.64,-432.32 345.77,-391.61"/>
<polygon fill="none" stroke="#63b8ff" points="345.68,-391.74 345.8,-384.53 352.5,-381.86 352.38,-389.07 345.68,-391.74"/>
</a>
</g>
<text xml:space="preserve" text-anchor="start" x="288.65" y="-480.5" font-family="Helvetica,sans-Serif" font-size="10.00" fill="grey">&#45;_arrays</text>
</g>
<!-- Node4 -->
<g id="Node000004" class="node">
<title>Node4</title>
<g id="a_Node000004"><a xlink:title=" ">
<polygon fill="white" stroke="none" points="286,-741.25 184.25,-741.25 184.25,-680.25 286,-680.25 286,-741.25"/>
<text xml:space="preserve" text-anchor="start" x="188.25" y="-727.75" font-family="Helvetica,sans-Serif" font-size="10.00">std::unique_ptr&lt; rtp</text>
<text xml:space="preserve" text-anchor="start" x="188.25" y="-716.5" font-family="Helvetica,sans-Serif" font-size="10.00">::ecs::ISparseArray &gt;</text>
<text xml:space="preserve" text-anchor="start" x="233.62" y="-701.25" font-family="Helvetica,sans-Serif" font-size="10.00"> </text>
<text xml:space="preserve" text-anchor="start" x="196.62" y="-686" font-family="Helvetica,sans-Serif" font-size="10.00">+</text>
<text xml:space="preserve" text-anchor="start" x="215" y="-686" font-family="Helvetica,sans-Serif" font-size="10.00">operator&#45;&gt;()</text>
<polygon fill="#666666" stroke="#666666" points="184.25,-712.75 184.25,-712.75 286,-712.75 286,-712.75 184.25,-712.75"/>
<polygon fill="#666666" stroke="#666666" points="184.25,-697.5 184.25,-697.5 286,-697.5 286,-697.5 184.25,-697.5"/>
<polygon fill="none" stroke="#666666" points="184.25,-680.25 184.25,-741.25 286,-741.25 286,-680.25 184.25,-680.25"/>
</a>
</g>
</g>
<!-- Node4&#45;&gt;Node3 -->
<g id="edge3_Node000003_Node000004" class="edge">
<title>Node4&#45;&gt;Node3</title>
<g id="a_edge3_Node000003_Node000004"><a xlink:title=" ">
<path fill="none" stroke="#63b8ff" d="M233.16,-680.37C232.83,-674.38 232.54,-668.11 232.38,-662.25 231.74,-640.15 231.86,-634.61 232.38,-612.5 232.42,-610.74 232.46,-608.96 232.52,-607.15"/>
<polygon fill="none" stroke="#63b8ff" points="232.52,-607.09 228.74,-600.95 232.95,-595.09 236.73,-601.23 232.52,-607.09"/>
</a>
</g>
<text xml:space="preserve" text-anchor="start" x="235.38" y="-633.5" font-family="Helvetica,sans-Serif" font-size="10.00" fill="grey">+elements</text>
</g>
<!-- Node5 -->
<g id="Node000005" class="node">
<title>Node5</title>
<g id="a_Node000005"><a xlink:href="classrtp_1_1ecs_1_1ISparseArray.html" target="_top" xlink:title="Type&#45;erased base interface for sparse arrays.">
<polygon fill="white" stroke="none" points="330.12,-890 226.12,-890 226.12,-794.5 330.12,-794.5 330.12,-890"/>
<text xml:space="preserve" text-anchor="start" x="230.12" y="-876.5" font-family="Helvetica,sans-Serif" font-size="10.00">rtp::ecs::ISparseArray</text>
<text xml:space="preserve" text-anchor="start" x="276.62" y="-861.25" font-family="Helvetica,sans-Serif" font-size="10.00"> </text>
<text xml:space="preserve" text-anchor="start" x="234.38" y="-846" font-family="Helvetica,sans-Serif" font-size="10.00">+</text>
<text xml:space="preserve" text-anchor="start" x="248.62" y="-846" font-family="Helvetica,sans-Serif" font-size="10.00">~ISparseArray()</text>
<text xml:space="preserve" text-anchor="start" x="234.38" y="-830.75" font-family="Helvetica,sans-Serif" font-size="10.00">+</text>
<text xml:space="preserve" text-anchor="start" x="248.62" y="-830.75" font-family="Helvetica,sans-Serif" font-size="10.00">erase()</text>
<text xml:space="preserve" text-anchor="start" x="234.38" y="-815.5" font-family="Helvetica,sans-Serif" font-size="10.00">+</text>
<text xml:space="preserve" text-anchor="start" x="248.62" y="-815.5" font-family="Helvetica,sans-Serif" font-size="10.00">has()</text>
<text xml:space="preserve" text-anchor="start" x="234.38" y="-800.25" font-family="Helvetica,sans-Serif" font-size="10.00">+</text>
<text xml:space="preserve" text-anchor="start" x="248.62" y="-800.25" font-family="Helvetica,sans-Serif" font-size="10.00">clear()</text>
<polygon fill="#666666" stroke="#666666" points="226.12,-872.75 226.12,-872.75 330.12,-872.75 330.12,-872.75 226.12,-872.75"/>
<polygon fill="#666666" stroke="#666666" points="226.12,-857.5 226.12,-857.5 330.12,-857.5 330.12,-857.5 226.12,-857.5"/>
<polygon fill="none" stroke="#666666" points="226.12,-794.5 226.12,-890 330.12,-890 330.12,-794.5 226.12,-794.5"/>
</a>
</g>
</g>
<!-- Node5&#45;&gt;Node4 -->
<g id="edge4_Node000004_Node000005" class="edge">
<title>Node5&#45;&gt;Node4</title>
<g id="a_edge4_Node000004_Node000005"><a xlink:title=" ">
<path fill="none" stroke="#63b8ff" d="M267.02,-794.9C263.85,-783.16 260.15,-770.65 256.12,-759.25 255.4,-757.2 254.63,-755.12 253.83,-753.03"/>
<polygon fill="none" stroke="#63b8ff" points="253.83,-753.05 247.86,-749.01 249.29,-741.95 255.26,-745.98 253.83,-753.05"/>
</a>
</g>
<text xml:space="preserve" text-anchor="start" x="264.2" y="-764" font-family="Helvetica,sans-Serif" font-size="10.00" fill="grey">+ptr</text>
</g>
<!-- Node6 -->
<g id="Node000006" class="node">
<title>Node6</title>
<g id="a_Node000006"><a xlink:title=" ">
<polygon fill="white" stroke="none" points="208.38,-867.12 111.88,-867.12 111.88,-817.38 208.38,-817.38 208.38,-867.12"/>
<text xml:space="preserve" text-anchor="start" x="115.88" y="-853.62" font-family="Helvetica,sans-Serif" font-size="10.00">std::unique_ptr&lt; T &gt;</text>
<text xml:space="preserve" text-anchor="start" x="158.62" y="-838.38" font-family="Helvetica,sans-Serif" font-size="10.00"> </text>
<text xml:space="preserve" text-anchor="start" x="122.94" y="-823.12" font-family="Helvetica,sans-Serif" font-size="10.00">+</text>
<text xml:space="preserve" text-anchor="start" x="140" y="-823.12" font-family="Helvetica,sans-Serif" font-size="10.00">operator&#45;&gt;()</text>
<polygon fill="#666666" stroke="#666666" points="111.88,-849.88 111.88,-849.88 208.38,-849.88 208.38,-849.88 111.88,-849.88"/>
<polygon fill="#666666" stroke="#666666" points="111.88,-834.62 111.88,-834.62 208.38,-834.62 208.38,-834.62 111.88,-834.62"/>
<polygon fill="none" stroke="#666666" points="111.88,-817.38 111.88,-867.12 208.38,-867.12 208.38,-817.38 111.88,-817.38"/>
</a>
</g>
</g>
<!-- Node6&#45;&gt;Node4 -->
<g id="edge5_Node000004_Node000006" class="edge">
<title>Node6&#45;&gt;Node4</title>
<g id="a_edge5_Node000004_Node000006"><a xlink:title=" ">
<path fill="none" stroke="orange" d="M135.82,-807.88C127.63,-792.31 122.68,-774.01 132.12,-759.25 132.97,-757.92 158.72,-746.05 184.26,-734.5"/>
<polygon fill="orange" stroke="orange" points="132.71,-809.5 140.8,-816.35 138.75,-805.95 132.71,-809.5"/>
</a>
</g>
<text xml:space="preserve" text-anchor="start" x="135.12" y="-764" font-family="Helvetica,sans-Serif" font-size="10.00" fill="grey">&lt; rtp::ecs::ISparseArray &gt;</text>
</g>
<!-- Node7 -->
<g id="Node000007" class="node">
<title>Node7</title>
<g id="a_Node000007"><a xlink:title=" ">
<polygon fill="white" stroke="none" points="340.12,-993 326.12,-993 326.12,-943.25 340.12,-943.25 340.12,-993"/>
<text xml:space="preserve" text-anchor="start" x="330.12" y="-979.5" font-family="Helvetica,sans-Serif" font-size="10.00">T</text>
<text xml:space="preserve" text-anchor="start" x="331.62" y="-964.25" font-family="Helvetica,sans-Serif" font-size="10.00"> </text>
<text xml:space="preserve" text-anchor="start" x="331.62" y="-949" font-family="Helvetica,sans-Serif" font-size="10.00"> </text>
<polygon fill="#666666" stroke="#666666" points="326.12,-975.75 326.12,-975.75 340.12,-975.75 340.12,-975.75 326.12,-975.75"/>
<polygon fill="#666666" stroke="#666666" points="326.12,-960.5 326.12,-960.5 340.12,-960.5 340.12,-960.5 326.12,-960.5"/>
<polygon fill="none" stroke="#666666" points="326.12,-943.25 326.12,-993 340.12,-993 340.12,-943.25 326.12,-943.25"/>
</a>
</g>
</g>
<!-- Node7&#45;&gt;Node6 -->
<g id="edge6_Node000006_Node000007" class="edge">
<title>Node7&#45;&gt;Node6</title>
<g id="a_edge6_Node000006_Node000007"><a xlink:title=" ">
<path fill="none" stroke="#63b8ff" d="M326.16,-962.84C307.88,-951.51 257.18,-919.63 217.12,-890 210.78,-885.31 204.18,-880.16 197.82,-875.05"/>
<polygon fill="none" stroke="#63b8ff" points="198.1,-875.27 190.92,-874.59 188.79,-867.69 195.97,-868.38 198.1,-875.27"/>
</a>
</g>
<text xml:space="preserve" text-anchor="start" x="270.25" y="-912.75" font-family="Helvetica,sans-Serif" font-size="10.00" fill="grey">+ptr</text>
</g>
<!-- Node8 -->
<g id="Node000008" class="node">
<title>Node8</title>
<g id="a_Node000008"><a xlink:title=" ">
<polygon fill="white" stroke="none" points="94.25,-872.75 0,-872.75 0,-811.75 94.25,-811.75 94.25,-872.75"/>
<text xml:space="preserve" text-anchor="start" x="4" y="-859.25" font-family="Helvetica,sans-Serif" font-size="10.00">std::unordered_map</text>
<text xml:space="preserve" text-anchor="start" x="28.75" y="-848" font-family="Helvetica,sans-Serif" font-size="10.00">&lt; K, T &gt;</text>
<text xml:space="preserve" text-anchor="start" x="45.62" y="-832.75" font-family="Helvetica,sans-Serif" font-size="10.00"> </text>
<text xml:space="preserve" text-anchor="start" x="45.62" y="-817.5" font-family="Helvetica,sans-Serif" font-size="10.00"> </text>
<polygon fill="#666666" stroke="#666666" points="0,-844.25 0,-844.25 94.25,-844.25 94.25,-844.25 0,-844.25"/>
<polygon fill="#666666" stroke="#666666" points="0,-829 0,-829 94.25,-829 94.25,-829 0,-829"/>
<polygon fill="none" stroke="#666666" points="0,-811.75 0,-872.75 94.25,-872.75 94.25,-811.75 0,-811.75"/>
</a>
</g>
</g>
<!-- Node7&#45;&gt;Node8 -->
<g id="edge9_Node000008_Node000007" class="edge">
<title>Node7&#45;&gt;Node8</title>
<g id="a_edge9_Node000008_Node000007"><a xlink:title=" ">
<path fill="none" stroke="#63b8ff" d="M326.27,-965.96C297.37,-960.81 183.23,-938.21 103.12,-890 98.49,-887.21 93.84,-884.04 89.31,-880.71"/>
<polygon fill="none" stroke="#63b8ff" points="89.21,-880.64 82.02,-880.12 79.73,-873.28 86.92,-873.8 89.21,-880.64"/>
</a>
</g>
<text xml:space="preserve" text-anchor="start" x="177.93" y="-912.75" font-family="Helvetica,sans-Serif" font-size="10.00" fill="grey">+elements</text>
</g>
<!-- Node11 -->
<g id="Node000011" class="node">
<title>Node11</title>
<g id="a_Node000011"><a xlink:title=" ">
<polygon fill="white" stroke="none" points="426.38,-867.12 347.88,-867.12 347.88,-817.38 426.38,-817.38 426.38,-867.12"/>
<text xml:space="preserve" text-anchor="start" x="351.88" y="-853.62" font-family="Helvetica,sans-Serif" font-size="10.00">std::vector&lt; T &gt;</text>
<text xml:space="preserve" text-anchor="start" x="385.62" y="-838.38" font-family="Helvetica,sans-Serif" font-size="10.00"> </text>
<text xml:space="preserve" text-anchor="start" x="385.62" y="-823.12" font-family="Helvetica,sans-Serif" font-size="10.00"> </text>
<polygon fill="#666666" stroke="#666666" points="347.88,-849.88 347.88,-849.88 426.38,-849.88 426.38,-849.88 347.88,-849.88"/>
<polygon fill="#666666" stroke="#666666" points="347.88,-834.62 347.88,-834.62 426.38,-834.62 426.38,-834.62 347.88,-834.62"/>
<polygon fill="none" stroke="#666666" points="347.88,-817.38 347.88,-867.12 426.38,-867.12 426.38,-817.38 347.88,-817.38"/>
</a>
</g>
</g>
<!-- Node7&#45;&gt;Node11 -->
<g id="edge12_Node000011_Node000007" class="edge">
<title>Node7&#45;&gt;Node11</title>
<g id="a_edge12_Node000011_Node000007"><a xlink:title=" ">
<path fill="none" stroke="#63b8ff" d="M340.07,-951.18C348.03,-932.93 361.31,-902.47 371.73,-878.56"/>
<polygon fill="none" stroke="#63b8ff" points="371.73,-878.57 370.46,-871.47 376.52,-867.57 377.79,-874.67 371.73,-878.57"/>
</a>
</g>
<text xml:space="preserve" text-anchor="start" x="361.51" y="-912.75" font-family="Helvetica,sans-Serif" font-size="10.00" fill="grey">+elements</text>
</g>
<!-- Node13 -->
<g id="Node000013" class="node">
<title>Node13</title>
<g id="a_Node000013"><a xlink:title=" ">
<polygon fill="white" stroke="none" points="522,-867.12 444.25,-867.12 444.25,-817.38 522,-817.38 522,-867.12"/>
<text xml:space="preserve" text-anchor="start" x="448.25" y="-853.62" font-family="Helvetica,sans-Serif" font-size="10.00">std::deque&lt; T &gt;</text>
<text xml:space="preserve" text-anchor="start" x="481.62" y="-838.38" font-family="Helvetica,sans-Serif" font-size="10.00"> </text>
<text xml:space="preserve" text-anchor="start" x="481.62" y="-823.12" font-family="Helvetica,sans-Serif" font-size="10.00"> </text>
<polygon fill="#666666" stroke="#666666" points="444.25,-849.88 444.25,-849.88 522,-849.88 522,-849.88 444.25,-849.88"/>
<polygon fill="#666666" stroke="#666666" points="444.25,-834.62 444.25,-834.62 522,-834.62 522,-834.62 444.25,-834.62"/>
<polygon fill="none" stroke="#666666" points="444.25,-817.38 444.25,-867.12 522,-867.12 522,-817.38 444.25,-817.38"/>
</a>
</g>
</g>
<!-- Node7&#45;&gt;Node13 -->
<g id="edge15_Node000013_Node000007" class="edge">
<title>Node7&#45;&gt;Node13</title>
<g id="a_edge15_Node000013_Node000007"><a xlink:title=" ">
<path fill="none" stroke="#63b8ff" d="M339.94,-964.66C354.57,-959.17 389.64,-944.82 414.12,-925.25 431.29,-911.53 447.31,-893.01 459.58,-877.05"/>
<polygon fill="none" stroke="#63b8ff" points="459.36,-877.34 459.75,-870.14 466.54,-867.72 466.16,-874.92 459.36,-877.34"/>
</a>
</g>
<text xml:space="preserve" text-anchor="start" x="434.46" y="-912.75" font-family="Helvetica,sans-Serif" font-size="10.00" fill="grey">+elements</text>
</g>
<!-- Node8&#45;&gt;Node3 -->
<g id="edge7_Node000003_Node000008" class="edge">
<title>Node8&#45;&gt;Node3</title>
<g id="a_edge7_Node000003_Node000008"><a xlink:title=" ">
<path fill="none" stroke="orange" d="M41.49,-800.79C38.71,-766.49 39.59,-717.13 60.38,-680.25 87.86,-631.47 142.84,-596.52 183.83,-575.89"/>
<polygon fill="orange" stroke="orange" points="37.96,-800.68 42.4,-810.3 44.93,-800.01 37.96,-800.68"/>
</a>
</g>
<text xml:space="preserve" text-anchor="start" x="63.38" y="-722.12" font-family="Helvetica,sans-Serif" font-size="10.00" fill="grey">&lt; std::type_index,</text>
<text xml:space="preserve" text-anchor="start" x="63.38" y="-706.88" font-family="Helvetica,sans-Serif" font-size="10.00" fill="grey">   std::unique_ptr&lt; rtp</text>
<text xml:space="preserve" text-anchor="start" x="63.38" y="-691.62" font-family="Helvetica,sans-Serif" font-size="10.00" fill="grey">  ::ecs::ISparseArray &gt; &gt;</text>
</g>
<!-- Node9 -->
<g id="Node000009" class="node">
<title>Node9</title>
<g id="a_Node000009"><a xlink:title=" ">
<polygon fill="white" stroke="none" points="54.5,-993 39.75,-993 39.75,-943.25 54.5,-943.25 54.5,-993"/>
<text xml:space="preserve" text-anchor="start" x="43.75" y="-979.5" font-family="Helvetica,sans-Serif" font-size="10.00">K</text>
<text xml:space="preserve" text-anchor="start" x="45.62" y="-964.25" font-family="Helvetica,sans-Serif" font-size="10.00"> </text>
<text xml:space="preserve" text-anchor="start" x="45.62" y="-949" font-family="Helvetica,sans-Serif" font-size="10.00"> </text>
<polygon fill="#666666" stroke="#666666" points="39.75,-975.75 39.75,-975.75 54.5,-975.75 54.5,-975.75 39.75,-975.75"/>
<polygon fill="#666666" stroke="#666666" points="39.75,-960.5 39.75,-960.5 54.5,-960.5 54.5,-960.5 39.75,-960.5"/>
<polygon fill="none" stroke="#666666" points="39.75,-943.25 39.75,-993 54.5,-993 54.5,-943.25 39.75,-943.25"/>
</a>
</g>
</g>
<!-- Node9&#45;&gt;Node8 -->
<g id="edge8_Node000008_Node000009" class="edge">
<title>Node9&#45;&gt;Node8</title>
<g id="a_edge8_Node000008_Node000009"><a xlink:title=" ">
<path fill="none" stroke="#63b8ff" d="M47.12,-943.53C47.12,-927.11 47.12,-904.75 47.12,-885.31"/>
<polygon fill="none" stroke="#63b8ff" points="47.13,-885.33 43.13,-879.33 47.13,-873.33 51.13,-879.33 47.13,-885.33"/>
</a>
</g>
<text xml:space="preserve" text-anchor="start" x="50.12" y="-912.75" font-family="Helvetica,sans-Serif" font-size="10.00" fill="grey">+keys</text>
</g>
<!-- Node10 -->
<g id="Node000010" class="node">
<title>Node10</title>
<g id="a_Node000010"><a xlink:title=" ">
<polygon fill="white" stroke="none" points="419.38,-662.25 292.88,-662.25 292.88,-612.5 419.38,-612.5 419.38,-662.25"/>
<text xml:space="preserve" text-anchor="start" x="296.88" y="-648.75" font-family="Helvetica,sans-Serif" font-size="10.00">std::vector&lt; std::uint32_t &gt;</text>
<text xml:space="preserve" text-anchor="start" x="314.06" y="-633.5" font-family="Helvetica,sans-Serif" font-size="10.00">+</text>
<text xml:space="preserve" text-anchor="start" x="341.25" y="-633.5" font-family="Helvetica,sans-Serif" font-size="10.00">elements</text>
<text xml:space="preserve" text-anchor="start" x="354.62" y="-618.25" font-family="Helvetica,sans-Serif" font-size="10.00"> </text>
<polygon fill="#666666" stroke="#666666" points="292.88,-645 292.88,-645 419.38,-645 419.38,-645 292.88,-645"/>
<polygon fill="#666666" stroke="#666666" points="292.88,-629.75 292.88,-629.75 339.25,-629.75 339.25,-629.75 292.88,-629.75"/>
<polygon fill="#666666" stroke="#666666" points="339.25,-629.75 339.25,-629.75 419.38,-629.75 419.38,-629.75 339.25,-629.75"/>
<polygon fill="none" stroke="#666666" points="292.88,-612.5 292.88,-662.25 419.38,-662.25 419.38,-612.5 292.88,-612.5"/>
</a>
</g>
</g>
<!-- Node10&#45;&gt;Node2 -->
<g id="edge10_Node000002_Node000010" class="edge">
<title>Node10&#45;&gt;Node2</title>
<g id="a_edge10_Node000002_Node000010"><a xlink:title=" ">
<path fill="none" stroke="#63b8ff" d="M358.47,-612.76C361.06,-587.51 365.55,-546.35 370.62,-511 372.53,-497.75 374.61,-484.05 376.8,-470.29"/>
<polygon fill="none" stroke="#63b8ff" points="376.78,-470.39 373.78,-463.83 378.68,-458.54 381.68,-465.1 376.78,-470.39"/>
</a>
</g>
<text xml:space="preserve" text-anchor="start" x="373.62" y="-548.88" font-family="Helvetica,sans-Serif" font-size="10.00" fill="grey">&#45;_generations</text>
</g>
<!-- Node11&#45;&gt;Node10 -->
<g id="edge11_Node000010_Node000011" class="edge">
<title>Node11&#45;&gt;Node10</title>
<g id="a_edge11_Node000010_Node000011"><a xlink:title=" ">
<path fill="none" stroke="orange" d="M381.77,-806.2C375.48,-765.01 365.2,-697.79 359.77,-662.21"/>
<polygon fill="orange" stroke="orange" points="378.31,-806.73 383.28,-816.08 385.23,-805.67 378.31,-806.73"/>
</a>
</g>
<text xml:space="preserve" text-anchor="start" x="379.85" y="-764" font-family="Helvetica,sans-Serif" font-size="10.00" fill="grey">&lt; std::uint32_t &gt;</text>
</g>
<!-- Node12 -->
<g id="Node000012" class="node">
<title>Node12</title>
<g id="a_Node000012"><a xlink:title=" ">
<polygon fill="white" stroke="none" points="541.88,-662.25 424.38,-662.25 424.38,-612.5 541.88,-612.5 541.88,-662.25"/>
<text xml:space="preserve" text-anchor="start" x="428.38" y="-648.75" font-family="Helvetica,sans-Serif" font-size="10.00">std::deque&lt; std::size_t &gt;</text>
<text xml:space="preserve" text-anchor="start" x="443.31" y="-633.5" font-family="Helvetica,sans-Serif" font-size="10.00">+</text>
<text xml:space="preserve" text-anchor="start" x="468.25" y="-633.5" font-family="Helvetica,sans-Serif" font-size="10.00">elements</text>
<text xml:space="preserve" text-anchor="start" x="481.62" y="-618.25" font-family="Helvetica,sans-Serif" font-size="10.00"> </text>
<polygon fill="#666666" stroke="#666666" points="424.38,-645 424.38,-645 541.88,-645 541.88,-645 424.38,-645"/>
<polygon fill="#666666" stroke="#666666" points="424.38,-629.75 424.38,-629.75 466.25,-629.75 466.25,-629.75 424.38,-629.75"/>
<polygon fill="#666666" stroke="#666666" points="466.25,-629.75 466.25,-629.75 541.88,-629.75 541.88,-629.75 466.25,-629.75"/>
<polygon fill="none" stroke="#666666" points="424.38,-612.5 424.38,-662.25 541.88,-662.25 541.88,-612.5 424.38,-612.5"/>
</a>
</g>
</g>
<!-- Node12&#45;&gt;Node2 -->
<g id="edge13_Node000002_Node000012" class="edge">
<title>Node12&#45;&gt;Node2</title>
<g id="a_edge13_Node000002_Node000012"><a xlink:title=" ">
<path fill="none" stroke="#63b8ff" d="M473.16,-612.69C470.9,-606.81 468.65,-600.48 466.88,-594.5 455.07,-554.69 444.67,-511.15 435.97,-470.19"/>
<polygon fill="none" stroke="#63b8ff" points="435.97,-470.19 430.83,-465.14 433.51,-458.45 438.66,-463.5 435.97,-470.19"/>
</a>
</g>
<text xml:space="preserve" text-anchor="start" x="469.88" y="-548.88" font-family="Helvetica,sans-Serif" font-size="10.00" fill="grey">&#45;_freeIndices</text>
</g>
<!-- Node13&#45;&gt;Node12 -->
<g id="edge14_Node000012_Node000013" class="edge">
<title>Node13&#45;&gt;Node12</title>
<g id="a_edge14_Node000012_Node000013"><a xlink:title=" ">
<path fill="none" stroke="orange" d="M483.12,-806.2C483.12,-765.01 483.12,-697.79 483.12,-662.21"/>
<polygon fill="orange" stroke="orange" points="479.63,-806.07 483.13,-816.07 486.63,-806.07 479.63,-806.07"/>
</a>
</g>
<text xml:space="preserve" text-anchor="start" x="486.12" y="-764" font-family="Helvetica,sans-Serif" font-size="10.00" fill="grey">&lt; std::size_t &gt;</text>
</g>
<!-- Node14 -->
<g id="Node000014" class="node">
<title>Node14</title>
<g id="a_Node000014"><a xlink:title=" ">
<polygon fill="white" stroke="none" points="626.62,-577.62 537.62,-577.62 537.62,-527.88 626.62,-527.88 626.62,-577.62"/>
<text xml:space="preserve" text-anchor="start" x="541.62" y="-564.12" font-family="Helvetica,sans-Serif" font-size="10.00">std::shared_mutex</text>
<text xml:space="preserve" text-anchor="start" x="580.62" y="-548.88" font-family="Helvetica,sans-Serif" font-size="10.00"> </text>
<text xml:space="preserve" text-anchor="start" x="580.62" y="-533.62" font-family="Helvetica,sans-Serif" font-size="10.00"> </text>
<polygon fill="#666666" stroke="#666666" points="537.62,-560.38 537.62,-560.38 626.62,-560.38 626.62,-560.38 537.62,-560.38"/>
<polygon fill="#666666" stroke="#666666" points="537.62,-545.12 537.62,-545.12 626.62,-545.12 626.62,-545.12 537.62,-545.12"/>
<polygon fill="none" stroke="#666666" points="537.62,-527.88 537.62,-577.62 626.62,-577.62 626.62,-527.88 537.62,-527.88"/>
</a>
</g>
</g>
<!-- Node14&#45;&gt;Node2 -->
<g id="edge16_Node000002_Node000014" class="edge">
<title>Node14&#45;&gt;Node2</title>
<g id="a_edge16_Node000002_Node000014"><a xlink:title=" ">
<path fill="none" stroke="#63b8ff" d="M565.25,-528.02C542.73,-496.34 501.63,-438.56 466.85,-389.65"/>
<polygon fill="none" stroke="#63b8ff" points="466.78,-389.55 460.05,-386.98 459.83,-379.77 466.57,-382.34 466.78,-389.55"/>
</a>
</g>
<text xml:space="preserve" text-anchor="start" x="542.59" y="-480.5" font-family="Helvetica,sans-Serif" font-size="10.00" fill="grey">&#45;_mutex</text>
</g>
</g>
</svg>

<g id="navigator" transform="translate(0 0)" fill="#404254">
  <rect fill="#f2f5e9" fill-opacity="0.5" stroke="#606060" stroke-width=".5" x="0" y="0" width="60" height="60"/>
  <use id="zoomplus" xlink:href="#zoomPlus" x="17" y="9" onmousedown="handleZoom(evt,'in')"/>
  <use id="zoomminus" xlink:href="#zoomMin" x="42" y="9" onmousedown="handleZoom(evt,'out')"/>
  <use id="reset" xlink:href="#resetDef" x="30" y="36" onmousedown="handleReset()"/>
   <use id="arrowup" xlink:href="#arrowUp" x="0" y="0" onmousedown="handlePan(0,-1)"/>
  <use id="arrowright" xlink:href="#arrowRight" x="0" y="0" onmousedown="handlePan(1,0)"/>
  <use id="arrowdown" xlink:href="#arrowDown" x="0" y="0" onmousedown="handlePan(0,1)"/>
  <use id="arrowleft" xlink:href="#arrowLeft" x="0" y="0" onmousedown="handlePan(-1,0)"/>
</g>
<svg viewBox="0 0 15 15" width="100%" height="30px" preserveAspectRatio="xMaxYMin meet">
 <g id="arrow_out" transform="scale(0.3 0.3)">
  <a xlink:href="classrtp_1_1client_1_1EntityBuilder__coll__graph_org.svg" target="_base">
   <rect id="button" ry="5" rx="5" y="6" x="6" height="38" width="38"
        fill="#f2f5e9" fill-opacity="0.5" stroke="#606060" stroke-width="1.0"/>
   <path id="arrow"
     d="M 11.500037,31.436501 C 11.940474,20.09759 22.043105,11.32322 32.158766,21.979434 L 37.068811,17.246167 C 37.068811,17.246167 37.088388,32 37.088388,32 L 22.160133,31.978069 C 22.160133,31.978069 26.997745,27.140456 26.997745,27.140456 C 18.528582,18.264221 13.291696,25.230495 11.500037,31.436501 z"
     style="fill:#404040;"/>
  </a>
 </g>
</svg>

<style type='text/css'>
<![CDATA[
[data-mouse-over-selected='false'] { opacity: 0.7; }
[data-mouse-over-selected='true']  { opacity: 1.0; }
]]>
</style>
<script type="application/ecmascript"><![CDATA[
document.addEventListener('DOMContentLoaded', (event) => {
  highlightEdges();
  highlightAdjacentNodes();
});
]]></script>
</svg>
