<?xml version="1.0" encoding="UTF-8" standalone="no"?>
<!DOCTYPE svg PUBLIC "-//W3C//DTD SVG 1.1//EN"
 "http://www.w3.org/Graphics/SVG/1.1/DTD/svg11.dtd">
<!-- Generated by graphviz version 14.0.5 (20251129.0259)
 -->
<!-- Title: rtp::client::RenderSystem Pages: 1 -->
<svg width="128pt" height="220pt"
 viewBox="0.00 0.00 128.00 220.00" xmlns="http://www.w3.org/2000/svg" xmlns:xlink="http://www.w3.org/1999/xlink">

<svg id="main" version="1.1" xmlns="http://www.w3.org/2000/svg" xmlns:xlink="http://www.w3.org/1999/xlink" xml:space="preserve">

<style type="text/css"><![CDATA[
.node, .edge {opacity: 0.7;}
.node.selected, .edge.selected {opacity: 1;}
.edge:hover path { stroke: red; }
.edge:hover polygon { stroke: red; fill: red; }
]]></style>
<script type="application/ecmascript" xlink:href="svg.min.js"/>
<svg id="graph" class="graph">
<g id="graph0" class="graph" transform="scale(1 1) rotate(0) translate(4 215.75)">
<title>rtp::client::RenderSystem</title>
<!-- Node1 -->
<g id="Node000001" class="node">
<title>Node1</title>
<g id="a_Node000001"><a xlink:title=" ">
<polygon fill="#999999" stroke="none" points="119.75,-110.75 0,-110.75 0,0 119.75,0 119.75,-110.75"/>
<text xml:space="preserve" text-anchor="start" x="4" y="-97.25" font-family="Helvetica,sans-Serif" font-size="10.00">rtp::client::RenderSystem</text>
<text xml:space="preserve" text-anchor="start" x="9" y="-82" font-family="Helvetica,sans-Serif" font-size="10.00">&#45;</text>
<text xml:space="preserve" text-anchor="start" x="21" y="-82" font-family="Helvetica,sans-Serif" font-size="10.00">_r</text>
<text xml:space="preserve" text-anchor="start" x="9" y="-66.75" font-family="Helvetica,sans-Serif" font-size="10.00">&#45;</text>
<text xml:space="preserve" text-anchor="start" x="21" y="-66.75" font-family="Helvetica,sans-Serif" font-size="10.00">_window</text>
<text xml:space="preserve" text-anchor="start" x="9" y="-51.5" font-family="Helvetica,sans-Serif" font-size="10.00">&#45;</text>
<text xml:space="preserve" text-anchor="start" x="21" y="-51.5" font-family="Helvetica,sans-Serif" font-size="10.00">_textureCache</text>
<text xml:space="preserve" text-anchor="start" x="7.5" y="-36.25" font-family="Helvetica,sans-Serif" font-size="10.00">+</text>
<text xml:space="preserve" text-anchor="start" x="21" y="-36.25" font-family="Helvetica,sans-Serif" font-size="10.00">RenderSystem()</text>
<text xml:space="preserve" text-anchor="start" x="7.5" y="-21" font-family="Helvetica,sans-Serif" font-size="10.00">+</text>
<text xml:space="preserve" text-anchor="start" x="21" y="-21" font-family="Helvetica,sans-Serif" font-size="10.00">update()</text>
<text xml:space="preserve" text-anchor="start" x="7.5" y="-5.75" font-family="Helvetica,sans-Serif" font-size="10.00">+</text>
<text xml:space="preserve" text-anchor="start" x="21" y="-5.75" font-family="Helvetica,sans-Serif" font-size="10.00">clearTextureCache()</text>
<polygon fill="#666666" stroke="#666666" points="0,-93.5 0,-93.5 119.75,-93.5 119.75,-93.5 0,-93.5"/>
<polygon fill="#666666" stroke="#666666" points="0,-47.75 0,-47.75 19,-47.75 19,-47.75 0,-47.75"/>
<polygon fill="#666666" stroke="#666666" points="19,-47.75 19,-47.75 119.75,-47.75 119.75,-47.75 19,-47.75"/>
<polygon fill="none" stroke="#666666" points="0,0 0,-110.75 119.75,-110.75 119.75,0 0,0"/>
</a>
</g>
</g>
<!-- Node2 -->
<g id="Node000002" class="node">
<title>Node2</title>
<g id="a_Node000002"><a xlink:href="classrtp_1_1ecs_1_1ISystem.html" target="_top" xlink:title="Abstract base class for all ECS systems.">
<polygon fill="white" stroke="none" points="101.75,-211.75 18,-211.75 18,-146.75 101.75,-146.75 101.75,-211.75"/>
<text xml:space="preserve" text-anchor="start" x="22" y="-198.25" font-family="Helvetica,sans-Serif" font-size="10.00">rtp::ecs::ISystem</text>
<text xml:space="preserve" text-anchor="start" x="58.38" y="-183" font-family="Helvetica,sans-Serif" font-size="10.00"> </text>
<text xml:space="preserve" text-anchor="start" x="26.25" y="-167.75" font-family="Helvetica,sans-Serif" font-size="10.00">+</text>
<text xml:space="preserve" text-anchor="start" x="40.5" y="-167.75" font-family="Helvetica,sans-Serif" font-size="10.00">~ISystem()</text>
<text xml:space="preserve" text-anchor="start" x="26.25" y="-152.5" font-family="Helvetica,sans-Serif" font-size="10.00">+</text>
<text xml:space="preserve" text-anchor="start" x="40.5" y="-152.5" font-family="Helvetica,sans-Serif" font-size="10.00">update()</text>
<polygon fill="#666666" stroke="#666666" points="18,-194.5 18,-194.5 101.75,-194.5 101.75,-194.5 18,-194.5"/>
<polygon fill="#666666" stroke="#666666" points="18,-179.25 18,-179.25 101.75,-179.25 101.75,-179.25 18,-179.25"/>
<polygon fill="none" stroke="#666666" points="18,-146.75 18,-211.75 101.75,-211.75 101.75,-146.75 18,-146.75"/>
</a>
</g>
</g>
<!-- Node2&#45;&gt;Node1 -->
<g id="edge1_Node000001_Node000002" class="edge">
<title>Node2&#45;&gt;Node1</title>
<g id="a_edge1_Node000001_Node000002"><a xlink:title=" ">
<path fill="none" stroke="#63b8ff" d="M59.88,-135.41C59.88,-127.31 59.88,-118.74 59.88,-110.35"/>
<polygon fill="none" stroke="#63b8ff" points="56.38,-135.35 59.88,-145.35 63.38,-135.35 56.38,-135.35"/>
</a>
</g>
</g>
</g>
</svg>
</svg>

<style type='text/css'>
<![CDATA[
[data-mouse-over-selected='false'] { opacity: 0.7; }
[data-mouse-over-selected='true']  { opacity: 1.0; }
]]>
</style>
<script type="application/ecmascript"><![CDATA[
document.addEventListener('DOMContentLoaded', (event) => {
  highlightEdges();
  highlightAdjacentNodes();
});
]]></script>
</svg>
