<?xml version="1.0" encoding="UTF-8" standalone="no"?>
<!DOCTYPE svg PUBLIC "-//W3C//DTD SVG 1.1//EN"
 "http://www.w3.org/Graphics/SVG/1.1/DTD/svg11.dtd">
<!-- Generated by graphviz version 14.0.5 (20251129.0259)
 -->
<!-- Title: rtp::server::PlayerMouvementSystem Pages: 1 -->
<!--zoomable 982 -->

<svg id="main" version="1.1" xmlns="http://www.w3.org/2000/svg" xmlns:xlink="http://www.w3.org/1999/xlink" xml:space="preserve" onload="init(evt)">

<style type="text/css"><![CDATA[
.node, .edge {opacity: 0.7;}
.node.selected, .edge.selected {opacity: 1;}
.edge:hover path { stroke: red; }
.edge:hover polygon { stroke: red; fill: red; }
]]></style>

<defs>
  <circle id="rim" cx="0" cy="0" r="7"/>
  <circle id="rim2" cx="0" cy="0" r="3.5"/>
  <g id="zoomPlus">
    <use xlink:href="#rim" fill="#404040"><set attributeName="fill" to="#808080" begin="zoomplus.mouseover" end="zoomplus.mouseout"/></use>
    <path d="M-4,0h8M0,-4v8" fill="none" stroke="white" stroke-width="1.5" pointer-events="none"/>
  </g>
  <g id="zoomMin">
    <use xlink:href="#rim" fill="#404040"><set attributeName="fill" to="#808080" begin="zoomminus.mouseover" end="zoomminus.mouseout"/></use>
    <path d="M-4,0h8" fill="none" stroke="white" stroke-width="1.5" pointer-events="none"/>
  </g>
  <g id="arrowUp" transform="translate(30 24)">
    <use xlink:href="#rim"/>
    <path pointer-events="none" fill="none" stroke="white" stroke-width="1.5" d="M0,-3.0v7 M-2.5,-0.5L0,-3.0L2.5,-0.5"/>
  </g>
  <g id="arrowRight" transform="rotate(90) translate(36 -43)">
    <use xlink:href="#rim"/>
    <path pointer-events="none" fill="none" stroke="white" stroke-width="1.5" d="M0,-3.0v7 M-2.5,-0.5L0,-3.0L2.5,-0.5"/>
  </g>
  <g id="arrowDown" transform="rotate(180) translate(-30 -48)">
    <use xlink:href="#rim"/>
    <path pointer-events="none" fill="none" stroke="white" stroke-width="1.5" d="M0,-3.0v7 M-2.5,-0.5L0,-3.0L2.5,-0.5"/>
  </g>
  <g id="arrowLeft" transform="rotate(270) translate(-36 17)">
    <use xlink:href="#rim"/>
    <path pointer-events="none" fill="none" stroke="white" stroke-width="1.5" d="M0,-3.0v7 M-2.5,-0.5L0,-3.0L2.5,-0.5"/>
  </g>
  <g id="resetDef">
    <use xlink:href="#rim2" fill="#404040"><set attributeName="fill" to="#808080" begin="reset.mouseover" end="reset.mouseout"/></use>
  </g>
</defs>
<script type="application/ecmascript">
var viewWidth = 635;
var viewHeight = 982;
var sectionId = 'dynsection-1';
</script>
<script type="application/ecmascript" xlink:href="svg.min.js"/>
<svg id="graph" class="graph">
<g id="viewport">
<title>rtp::server::PlayerMouvementSystem</title>
<!-- Node1 -->
<g id="Node000001" class="node">
<title>Node1</title>
<g id="a_Node000001"><a xlink:title="System to handle player entity movement based on input components.">
<polygon fill="#999999" stroke="none" points="378.62,-76.25 241.62,-76.25 241.62,0 378.62,0 378.62,-76.25"/>
<text xml:space="preserve" text-anchor="start" x="245.62" y="-62.75" font-family="Helvetica,sans-Serif" font-size="10.00">rtp::server::PlayerMouvement</text>
<text xml:space="preserve" text-anchor="start" x="293.25" y="-51.5" font-family="Helvetica,sans-Serif" font-size="10.00">System</text>
<text xml:space="preserve" text-anchor="start" x="308.62" y="-36.25" font-family="Helvetica,sans-Serif" font-size="10.00"> </text>
<text xml:space="preserve" text-anchor="start" x="245.75" y="-21" font-family="Helvetica,sans-Serif" font-size="10.00">+</text>
<text xml:space="preserve" text-anchor="start" x="255.88" y="-21" font-family="Helvetica,sans-Serif" font-size="10.00">PlayerMouvementSystem()</text>
<text xml:space="preserve" text-anchor="start" x="245.75" y="-5.75" font-family="Helvetica,sans-Serif" font-size="10.00">+</text>
<text xml:space="preserve" text-anchor="start" x="255.88" y="-5.75" font-family="Helvetica,sans-Serif" font-size="10.00">update()</text>
<polygon fill="#666666" stroke="#666666" points="241.62,-47.75 241.62,-47.75 378.62,-47.75 378.62,-47.75 241.62,-47.75"/>
<polygon fill="#666666" stroke="#666666" points="241.62,-32.5 241.62,-32.5 378.62,-32.5 378.62,-32.5 241.62,-32.5"/>
<polygon fill="none" stroke="#666666" points="241.62,0 241.62,-76.25 378.62,-76.25 378.62,0 241.62,0"/>
</a>
</g>
</g>
<!-- Node2 -->
<g id="Node000002" class="node">
<title>Node2</title>
<g id="a_Node000002"><a xlink:href="classrtp_1_1ecs_1_1ISystem.html" target="_top" xlink:title="Abstract base class for all ECS systems.">
<polygon fill="white" stroke="none" points="336,-316.5 252.25,-316.5 252.25,-251.5 336,-251.5 336,-316.5"/>
<text xml:space="preserve" text-anchor="start" x="256.25" y="-303" font-family="Helvetica,sans-Serif" font-size="10.00">rtp::ecs::ISystem</text>
<text xml:space="preserve" text-anchor="start" x="292.62" y="-287.75" font-family="Helvetica,sans-Serif" font-size="10.00"> </text>
<text xml:space="preserve" text-anchor="start" x="260.5" y="-272.5" font-family="Helvetica,sans-Serif" font-size="10.00">+</text>
<text xml:space="preserve" text-anchor="start" x="274.75" y="-272.5" font-family="Helvetica,sans-Serif" font-size="10.00">~ISystem()</text>
<text xml:space="preserve" text-anchor="start" x="260.5" y="-257.25" font-family="Helvetica,sans-Serif" font-size="10.00">+</text>
<text xml:space="preserve" text-anchor="start" x="274.75" y="-257.25" font-family="Helvetica,sans-Serif" font-size="10.00">update()</text>
<polygon fill="#666666" stroke="#666666" points="252.25,-299.25 252.25,-299.25 336,-299.25 336,-299.25 252.25,-299.25"/>
<polygon fill="#666666" stroke="#666666" points="252.25,-284 252.25,-284 336,-284 336,-284 252.25,-284"/>
<polygon fill="none" stroke="#666666" points="252.25,-251.5 252.25,-316.5 336,-316.5 336,-251.5 252.25,-251.5"/>
</a>
</g>
</g>
<!-- Node2&#45;&gt;Node1 -->
<g id="edge1_Node000001_Node000002" class="edge">
<title>Node2&#45;&gt;Node1</title>
<g id="a_edge1_Node000001_Node000002"><a xlink:title=" ">
<path fill="none" stroke="#63b8ff" d="M296.92,-240.41C299.97,-193.87 304.81,-120.09 307.71,-75.96"/>
<polygon fill="none" stroke="#63b8ff" points="293.45,-239.9 296.28,-250.11 300.43,-240.36 293.45,-239.9"/>
</a>
</g>
</g>
<!-- Node3 -->
<g id="Node000003" class="node">
<title>Node3</title>
<g id="a_Node000003"><a xlink:href="classrtp_1_1ecs_1_1Registry.html" target="_top" xlink:title=" ">
<polygon fill="white" stroke="none" points="460.38,-438.5 353.88,-438.5 353.88,-129.5 460.38,-129.5 460.38,-438.5"/>
<text xml:space="preserve" text-anchor="start" x="369.25" y="-425" font-family="Helvetica,sans-Serif" font-size="10.00">rtp::ecs::Registry</text>
<text xml:space="preserve" text-anchor="start" x="405.62" y="-409.75" font-family="Helvetica,sans-Serif" font-size="10.00"> </text>
<text xml:space="preserve" text-anchor="start" x="357.88" y="-394.5" font-family="Helvetica,sans-Serif" font-size="10.00">+</text>
<text xml:space="preserve" text-anchor="start" x="367.88" y="-394.5" font-family="Helvetica,sans-Serif" font-size="10.00">~Registry()</text>
<text xml:space="preserve" text-anchor="start" x="357.88" y="-379.25" font-family="Helvetica,sans-Serif" font-size="10.00">+</text>
<text xml:space="preserve" text-anchor="start" x="367.88" y="-379.25" font-family="Helvetica,sans-Serif" font-size="10.00">spawn()</text>
<text xml:space="preserve" text-anchor="start" x="357.88" y="-364" font-family="Helvetica,sans-Serif" font-size="10.00">+</text>
<text xml:space="preserve" text-anchor="start" x="367.88" y="-364" font-family="Helvetica,sans-Serif" font-size="10.00">kill()</text>
<text xml:space="preserve" text-anchor="start" x="357.88" y="-348.75" font-family="Helvetica,sans-Serif" font-size="10.00">+</text>
<text xml:space="preserve" text-anchor="start" x="367.88" y="-348.75" font-family="Helvetica,sans-Serif" font-size="10.00">subscribe()</text>
<text xml:space="preserve" text-anchor="start" x="357.88" y="-333.5" font-family="Helvetica,sans-Serif" font-size="10.00">+</text>
<text xml:space="preserve" text-anchor="start" x="367.88" y="-333.5" font-family="Helvetica,sans-Serif" font-size="10.00">isAlive()</text>
<text xml:space="preserve" text-anchor="start" x="357.88" y="-318.25" font-family="Helvetica,sans-Serif" font-size="10.00">+</text>
<text xml:space="preserve" text-anchor="start" x="367.88" y="-318.25" font-family="Helvetica,sans-Serif" font-size="10.00">add()</text>
<text xml:space="preserve" text-anchor="start" x="357.88" y="-303" font-family="Helvetica,sans-Serif" font-size="10.00">+</text>
<text xml:space="preserve" text-anchor="start" x="367.88" y="-303" font-family="Helvetica,sans-Serif" font-size="10.00">get()</text>
<text xml:space="preserve" text-anchor="start" x="357.88" y="-287.75" font-family="Helvetica,sans-Serif" font-size="10.00">+</text>
<text xml:space="preserve" text-anchor="start" x="367.88" y="-287.75" font-family="Helvetica,sans-Serif" font-size="10.00">has()</text>
<text xml:space="preserve" text-anchor="start" x="357.88" y="-272.5" font-family="Helvetica,sans-Serif" font-size="10.00">+</text>
<text xml:space="preserve" text-anchor="start" x="367.88" y="-272.5" font-family="Helvetica,sans-Serif" font-size="10.00">remove()</text>
<text xml:space="preserve" text-anchor="start" x="357.88" y="-257.25" font-family="Helvetica,sans-Serif" font-size="10.00">+</text>
<text xml:space="preserve" text-anchor="start" x="367.88" y="-257.25" font-family="Helvetica,sans-Serif" font-size="10.00">clear()</text>
<text xml:space="preserve" text-anchor="start" x="357.88" y="-242" font-family="Helvetica,sans-Serif" font-size="10.00">+</text>
<text xml:space="preserve" text-anchor="start" x="367.88" y="-242" font-family="Helvetica,sans-Serif" font-size="10.00">purge()</text>
<text xml:space="preserve" text-anchor="start" x="357.88" y="-226.75" font-family="Helvetica,sans-Serif" font-size="10.00">+</text>
<text xml:space="preserve" text-anchor="start" x="367.88" y="-226.75" font-family="Helvetica,sans-Serif" font-size="10.00">view()</text>
<text xml:space="preserve" text-anchor="start" x="357.88" y="-211.5" font-family="Helvetica,sans-Serif" font-size="10.00">+</text>
<text xml:space="preserve" text-anchor="start" x="367.88" y="-211.5" font-family="Helvetica,sans-Serif" font-size="10.00">zipView()</text>
<text xml:space="preserve" text-anchor="start" x="357.88" y="-196.25" font-family="Helvetica,sans-Serif" font-size="10.00">+</text>
<text xml:space="preserve" text-anchor="start" x="367.88" y="-196.25" font-family="Helvetica,sans-Serif" font-size="10.00">entityCount()</text>
<text xml:space="preserve" text-anchor="start" x="357.88" y="-181" font-family="Helvetica,sans-Serif" font-size="10.00">+</text>
<text xml:space="preserve" text-anchor="start" x="367.88" y="-181" font-family="Helvetica,sans-Serif" font-size="10.00">componentCount()</text>
<text xml:space="preserve" text-anchor="start" x="359.38" y="-165.75" font-family="Helvetica,sans-Serif" font-size="10.00">&#45;</text>
<text xml:space="preserve" text-anchor="start" x="367.88" y="-165.75" font-family="Helvetica,sans-Serif" font-size="10.00">getArray()</text>
<text xml:space="preserve" text-anchor="start" x="359.38" y="-150.5" font-family="Helvetica,sans-Serif" font-size="10.00">&#45;</text>
<text xml:space="preserve" text-anchor="start" x="367.88" y="-150.5" font-family="Helvetica,sans-Serif" font-size="10.00">getSmallestArray()</text>
<text xml:space="preserve" text-anchor="start" x="359.38" y="-135.25" font-family="Helvetica,sans-Serif" font-size="10.00">&#45;</text>
<text xml:space="preserve" text-anchor="start" x="367.88" y="-135.25" font-family="Helvetica,sans-Serif" font-size="10.00">hasAllComponents()</text>
<polygon fill="#666666" stroke="#666666" points="353.88,-421.25 353.88,-421.25 460.38,-421.25 460.38,-421.25 353.88,-421.25"/>
<polygon fill="#666666" stroke="#666666" points="353.88,-406 353.88,-406 460.38,-406 460.38,-406 353.88,-406"/>
<polygon fill="none" stroke="#666666" points="353.88,-129.5 353.88,-438.5 460.38,-438.5 460.38,-129.5 353.88,-129.5"/>
</a>
</g>
</g>
<!-- Node3&#45;&gt;Node1 -->
<g id="edge2_Node000001_Node000003" class="edge">
<title>Node3&#45;&gt;Node1</title>
<g id="a_edge2_Node000001_Node000003"><a xlink:title=" ">
<path fill="none" stroke="#63b8ff" d="M353.94,-149.29C345.19,-127.3 336.65,-105.82 329.47,-87.75"/>
<polygon fill="none" stroke="#63b8ff" points="329.49,-87.82 323.56,-83.72 325.06,-76.66 330.99,-80.76 329.49,-87.82"/>
</a>
</g>
<text xml:space="preserve" text-anchor="start" x="341.79" y="-99" font-family="Helvetica,sans-Serif" font-size="10.00" fill="grey">&#45;_registry</text>
</g>
<!-- Node4 -->
<g id="Node000004" class="node">
<title>Node4</title>
<g id="a_Node000004"><a xlink:title=" ">
<polygon fill="white" stroke="none" points="285.75,-575.25 182.5,-575.25 182.5,-491.75 285.75,-491.75 285.75,-575.25"/>
<text xml:space="preserve" text-anchor="start" x="186.5" y="-561.75" font-family="Helvetica,sans-Serif" font-size="10.00">std::unordered_map</text>
<text xml:space="preserve" text-anchor="start" x="186.5" y="-550.5" font-family="Helvetica,sans-Serif" font-size="10.00">&lt; std::type_index, std</text>
<text xml:space="preserve" text-anchor="start" x="186.5" y="-539.25" font-family="Helvetica,sans-Serif" font-size="10.00">::unique_ptr&lt; rtp::ecs</text>
<text xml:space="preserve" text-anchor="start" x="193.62" y="-528" font-family="Helvetica,sans-Serif" font-size="10.00">::ISparseArray &gt; &gt;</text>
<text xml:space="preserve" text-anchor="start" x="202.56" y="-512.75" font-family="Helvetica,sans-Serif" font-size="10.00">+</text>
<text xml:space="preserve" text-anchor="start" x="228.62" y="-512.75" font-family="Helvetica,sans-Serif" font-size="10.00">keys</text>
<text xml:space="preserve" text-anchor="start" x="232.62" y="-497.5" font-family="Helvetica,sans-Serif" font-size="10.00"> </text>
<polygon fill="#666666" stroke="#666666" points="182.5,-524.25 182.5,-524.25 285.75,-524.25 285.75,-524.25 182.5,-524.25"/>
<polygon fill="#666666" stroke="#666666" points="182.5,-509 182.5,-509 226.62,-509 226.62,-509 182.5,-509"/>
<polygon fill="#666666" stroke="#666666" points="226.62,-509 226.62,-509 285.75,-509 285.75,-509 226.62,-509"/>
<polygon fill="none" stroke="#666666" points="182.5,-491.75 182.5,-575.25 285.75,-575.25 285.75,-491.75 182.5,-491.75"/>
</a>
</g>
</g>
<!-- Node4&#45;&gt;Node3 -->
<g id="edge3_Node000003_Node000004" class="edge">
<title>Node4&#45;&gt;Node3</title>
<g id="a_edge3_Node000003_Node000004"><a xlink:title=" ">
<path fill="none" stroke="#63b8ff" d="M263.66,-492C274.32,-479.4 287.14,-466.27 300.88,-456.5 318.18,-444.19 330.13,-453.53 345.12,-438.5 345.22,-438.4 345.32,-438.3 345.42,-438.2"/>
<polygon fill="none" stroke="#63b8ff" points="345.49,-438.13 346.52,-430.99 353.51,-429.2 352.47,-436.34 345.49,-438.13"/>
</a>
</g>
<text xml:space="preserve" text-anchor="start" x="303.88" y="-461.25" font-family="Helvetica,sans-Serif" font-size="10.00" fill="grey">&#45;_arrays</text>
</g>
<!-- Node5 -->
<g id="Node000005" class="node">
<title>Node5</title>
<g id="a_Node000005"><a xlink:title=" ">
<polygon fill="white" stroke="none" points="285,-722 183.25,-722 183.25,-661 285,-661 285,-722"/>
<text xml:space="preserve" text-anchor="start" x="187.25" y="-708.5" font-family="Helvetica,sans-Serif" font-size="10.00">std::unique_ptr&lt; rtp</text>
<text xml:space="preserve" text-anchor="start" x="187.25" y="-697.25" font-family="Helvetica,sans-Serif" font-size="10.00">::ecs::ISparseArray &gt;</text>
<text xml:space="preserve" text-anchor="start" x="232.62" y="-682" font-family="Helvetica,sans-Serif" font-size="10.00"> </text>
<text xml:space="preserve" text-anchor="start" x="195.62" y="-666.75" font-family="Helvetica,sans-Serif" font-size="10.00">+</text>
<text xml:space="preserve" text-anchor="start" x="214" y="-666.75" font-family="Helvetica,sans-Serif" font-size="10.00">operator&#45;&gt;()</text>
<polygon fill="#666666" stroke="#666666" points="183.25,-693.5 183.25,-693.5 285,-693.5 285,-693.5 183.25,-693.5"/>
<polygon fill="#666666" stroke="#666666" points="183.25,-678.25 183.25,-678.25 285,-678.25 285,-678.25 183.25,-678.25"/>
<polygon fill="none" stroke="#666666" points="183.25,-661 183.25,-722 285,-722 285,-661 183.25,-661"/>
</a>
</g>
</g>
<!-- Node5&#45;&gt;Node4 -->
<g id="edge4_Node000004_Node000005" class="edge">
<title>Node5&#45;&gt;Node4</title>
<g id="a_edge4_Node000004_Node000005"><a xlink:title=" ">
<path fill="none" stroke="#63b8ff" d="M232.87,-661.11C232.67,-655.12 232.48,-648.86 232.38,-643 231.97,-620.89 232.05,-615.36 232.38,-593.25 232.4,-591.49 232.43,-589.71 232.47,-587.9"/>
<polygon fill="none" stroke="#63b8ff" points="232.47,-587.85 228.61,-581.76 232.74,-575.85 236.6,-581.94 232.47,-587.85"/>
</a>
</g>
<text xml:space="preserve" text-anchor="start" x="235.38" y="-614.25" font-family="Helvetica,sans-Serif" font-size="10.00" fill="grey">+elements</text>
</g>
<!-- Node6 -->
<g id="Node000006" class="node">
<title>Node6</title>
<g id="a_Node000006"><a xlink:href="classrtp_1_1ecs_1_1ISparseArray.html" target="_top" xlink:title="Type&#45;erased base interface for sparse arrays.">
<polygon fill="white" stroke="none" points="330.12,-870.75 226.12,-870.75 226.12,-775.25 330.12,-775.25 330.12,-870.75"/>
<text xml:space="preserve" text-anchor="start" x="230.12" y="-857.25" font-family="Helvetica,sans-Serif" font-size="10.00">rtp::ecs::ISparseArray</text>
<text xml:space="preserve" text-anchor="start" x="276.62" y="-842" font-family="Helvetica,sans-Serif" font-size="10.00"> </text>
<text xml:space="preserve" text-anchor="start" x="234.38" y="-826.75" font-family="Helvetica,sans-Serif" font-size="10.00">+</text>
<text xml:space="preserve" text-anchor="start" x="248.62" y="-826.75" font-family="Helvetica,sans-Serif" font-size="10.00">~ISparseArray()</text>
<text xml:space="preserve" text-anchor="start" x="234.38" y="-811.5" font-family="Helvetica,sans-Serif" font-size="10.00">+</text>
<text xml:space="preserve" text-anchor="start" x="248.62" y="-811.5" font-family="Helvetica,sans-Serif" font-size="10.00">erase()</text>
<text xml:space="preserve" text-anchor="start" x="234.38" y="-796.25" font-family="Helvetica,sans-Serif" font-size="10.00">+</text>
<text xml:space="preserve" text-anchor="start" x="248.62" y="-796.25" font-family="Helvetica,sans-Serif" font-size="10.00">has()</text>
<text xml:space="preserve" text-anchor="start" x="234.38" y="-781" font-family="Helvetica,sans-Serif" font-size="10.00">+</text>
<text xml:space="preserve" text-anchor="start" x="248.62" y="-781" font-family="Helvetica,sans-Serif" font-size="10.00">clear()</text>
<polygon fill="#666666" stroke="#666666" points="226.12,-853.5 226.12,-853.5 330.12,-853.5 330.12,-853.5 226.12,-853.5"/>
<polygon fill="#666666" stroke="#666666" points="226.12,-838.25 226.12,-838.25 330.12,-838.25 330.12,-838.25 226.12,-838.25"/>
<polygon fill="none" stroke="#666666" points="226.12,-775.25 226.12,-870.75 330.12,-870.75 330.12,-775.25 226.12,-775.25"/>
</a>
</g>
</g>
<!-- Node6&#45;&gt;Node5 -->
<g id="edge5_Node000005_Node000006" class="edge">
<title>Node6&#45;&gt;Node5</title>
<g id="a_edge5_Node000005_Node000006"><a xlink:title=" ">
<path fill="none" stroke="#63b8ff" d="M267.16,-775.6C263.98,-763.86 260.25,-751.36 256.12,-740 255.38,-737.94 254.58,-735.86 253.74,-733.76"/>
<polygon fill="none" stroke="#63b8ff" points="253.71,-733.69 247.68,-729.73 249.01,-722.65 255.04,-726.6 253.71,-733.69"/>
</a>
</g>
<text xml:space="preserve" text-anchor="start" x="264.29" y="-744.75" font-family="Helvetica,sans-Serif" font-size="10.00" fill="grey">+ptr</text>
</g>
<!-- Node7 -->
<g id="Node000007" class="node">
<title>Node7</title>
<g id="a_Node000007"><a xlink:title=" ">
<polygon fill="white" stroke="none" points="208.38,-847.88 111.88,-847.88 111.88,-798.12 208.38,-798.12 208.38,-847.88"/>
<text xml:space="preserve" text-anchor="start" x="115.88" y="-834.38" font-family="Helvetica,sans-Serif" font-size="10.00">std::unique_ptr&lt; T &gt;</text>
<text xml:space="preserve" text-anchor="start" x="158.62" y="-819.12" font-family="Helvetica,sans-Serif" font-size="10.00"> </text>
<text xml:space="preserve" text-anchor="start" x="122.94" y="-803.88" font-family="Helvetica,sans-Serif" font-size="10.00">+</text>
<text xml:space="preserve" text-anchor="start" x="140" y="-803.88" font-family="Helvetica,sans-Serif" font-size="10.00">operator&#45;&gt;()</text>
<polygon fill="#666666" stroke="#666666" points="111.88,-830.62 111.88,-830.62 208.38,-830.62 208.38,-830.62 111.88,-830.62"/>
<polygon fill="#666666" stroke="#666666" points="111.88,-815.38 111.88,-815.38 208.38,-815.38 208.38,-815.38 111.88,-815.38"/>
<polygon fill="none" stroke="#666666" points="111.88,-798.12 111.88,-847.88 208.38,-847.88 208.38,-798.12 111.88,-798.12"/>
</a>
</g>
</g>
<!-- Node7&#45;&gt;Node5 -->
<g id="edge6_Node000005_Node000007" class="edge">
<title>Node7&#45;&gt;Node5</title>
<g id="a_edge6_Node000005_Node000007"><a xlink:title=" ">
<path fill="none" stroke="orange" d="M135.85,-788.65C127.66,-773.08 122.71,-754.78 132.12,-740 133.79,-737.4 158.71,-725.77 183.5,-714.67"/>
<polygon fill="orange" stroke="orange" points="132.74,-790.26 140.82,-797.11 138.77,-786.71 132.74,-790.26"/>
</a>
</g>
<text xml:space="preserve" text-anchor="start" x="135.12" y="-744.75" font-family="Helvetica,sans-Serif" font-size="10.00" fill="grey">&lt; rtp::ecs::ISparseArray &gt;</text>
</g>
<!-- Node8 -->
<g id="Node000008" class="node">
<title>Node8</title>
<g id="a_Node000008"><a xlink:title=" ">
<polygon fill="white" stroke="none" points="340.12,-973.75 326.12,-973.75 326.12,-924 340.12,-924 340.12,-973.75"/>
<text xml:space="preserve" text-anchor="start" x="330.12" y="-960.25" font-family="Helvetica,sans-Serif" font-size="10.00">T</text>
<text xml:space="preserve" text-anchor="start" x="331.62" y="-945" font-family="Helvetica,sans-Serif" font-size="10.00"> </text>
<text xml:space="preserve" text-anchor="start" x="331.62" y="-929.75" font-family="Helvetica,sans-Serif" font-size="10.00"> </text>
<polygon fill="#666666" stroke="#666666" points="326.12,-956.5 326.12,-956.5 340.12,-956.5 340.12,-956.5 326.12,-956.5"/>
<polygon fill="#666666" stroke="#666666" points="326.12,-941.25 326.12,-941.25 340.12,-941.25 340.12,-941.25 326.12,-941.25"/>
<polygon fill="none" stroke="#666666" points="326.12,-924 326.12,-973.75 340.12,-973.75 340.12,-924 326.12,-924"/>
</a>
</g>
</g>
<!-- Node8&#45;&gt;Node7 -->
<g id="edge7_Node000007_Node000008" class="edge">
<title>Node8&#45;&gt;Node7</title>
<g id="a_edge7_Node000007_Node000008"><a xlink:title=" ">
<path fill="none" stroke="#63b8ff" d="M326.16,-943.59C307.88,-932.26 257.18,-900.38 217.12,-870.75 210.78,-866.06 204.18,-860.91 197.82,-855.8"/>
<polygon fill="none" stroke="#63b8ff" points="198.1,-856.02 190.92,-855.34 188.79,-848.44 195.97,-849.13 198.1,-856.02"/>
</a>
</g>
<text xml:space="preserve" text-anchor="start" x="270.25" y="-893.5" font-family="Helvetica,sans-Serif" font-size="10.00" fill="grey">+ptr</text>
</g>
<!-- Node9 -->
<g id="Node000009" class="node">
<title>Node9</title>
<g id="a_Node000009"><a xlink:title=" ">
<polygon fill="white" stroke="none" points="94.25,-853.5 0,-853.5 0,-792.5 94.25,-792.5 94.25,-853.5"/>
<text xml:space="preserve" text-anchor="start" x="4" y="-840" font-family="Helvetica,sans-Serif" font-size="10.00">std::unordered_map</text>
<text xml:space="preserve" text-anchor="start" x="28.75" y="-828.75" font-family="Helvetica,sans-Serif" font-size="10.00">&lt; K, T &gt;</text>
<text xml:space="preserve" text-anchor="start" x="45.62" y="-813.5" font-family="Helvetica,sans-Serif" font-size="10.00"> </text>
<text xml:space="preserve" text-anchor="start" x="45.62" y="-798.25" font-family="Helvetica,sans-Serif" font-size="10.00"> </text>
<polygon fill="#666666" stroke="#666666" points="0,-825 0,-825 94.25,-825 94.25,-825 0,-825"/>
<polygon fill="#666666" stroke="#666666" points="0,-809.75 0,-809.75 94.25,-809.75 94.25,-809.75 0,-809.75"/>
<polygon fill="none" stroke="#666666" points="0,-792.5 0,-853.5 94.25,-853.5 94.25,-792.5 0,-792.5"/>
</a>
</g>
</g>
<!-- Node8&#45;&gt;Node9 -->
<g id="edge10_Node000009_Node000008" class="edge">
<title>Node8&#45;&gt;Node9</title>
<g id="a_edge10_Node000009_Node000008"><a xlink:title=" ">
<path fill="none" stroke="#63b8ff" d="M326.27,-946.71C297.37,-941.56 183.23,-918.96 103.12,-870.75 98.49,-867.96 93.84,-864.79 89.31,-861.46"/>
<polygon fill="none" stroke="#63b8ff" points="89.21,-861.39 82.02,-860.87 79.73,-854.03 86.92,-854.55 89.21,-861.39"/>
</a>
</g>
<text xml:space="preserve" text-anchor="start" x="177.93" y="-893.5" font-family="Helvetica,sans-Serif" font-size="10.00" fill="grey">+elements</text>
</g>
<!-- Node12 -->
<g id="Node000012" class="node">
<title>Node12</title>
<g id="a_Node000012"><a xlink:title=" ">
<polygon fill="white" stroke="none" points="426.38,-847.88 347.88,-847.88 347.88,-798.12 426.38,-798.12 426.38,-847.88"/>
<text xml:space="preserve" text-anchor="start" x="351.88" y="-834.38" font-family="Helvetica,sans-Serif" font-size="10.00">std::vector&lt; T &gt;</text>
<text xml:space="preserve" text-anchor="start" x="385.62" y="-819.12" font-family="Helvetica,sans-Serif" font-size="10.00"> </text>
<text xml:space="preserve" text-anchor="start" x="385.62" y="-803.88" font-family="Helvetica,sans-Serif" font-size="10.00"> </text>
<polygon fill="#666666" stroke="#666666" points="347.88,-830.62 347.88,-830.62 426.38,-830.62 426.38,-830.62 347.88,-830.62"/>
<polygon fill="#666666" stroke="#666666" points="347.88,-815.38 347.88,-815.38 426.38,-815.38 426.38,-815.38 347.88,-815.38"/>
<polygon fill="none" stroke="#666666" points="347.88,-798.12 347.88,-847.88 426.38,-847.88 426.38,-798.12 347.88,-798.12"/>
</a>
</g>
</g>
<!-- Node8&#45;&gt;Node12 -->
<g id="edge13_Node000012_Node000008" class="edge">
<title>Node8&#45;&gt;Node12</title>
<g id="a_edge13_Node000012_Node000008"><a xlink:title=" ">
<path fill="none" stroke="#63b8ff" d="M340.07,-931.93C348.03,-913.68 361.31,-883.22 371.73,-859.31"/>
<polygon fill="none" stroke="#63b8ff" points="371.73,-859.32 370.46,-852.22 376.52,-848.32 377.79,-855.42 371.73,-859.32"/>
</a>
</g>
<text xml:space="preserve" text-anchor="start" x="361.51" y="-893.5" font-family="Helvetica,sans-Serif" font-size="10.00" fill="grey">+elements</text>
</g>
<!-- Node14 -->
<g id="Node000014" class="node">
<title>Node14</title>
<g id="a_Node000014"><a xlink:title=" ">
<polygon fill="white" stroke="none" points="522,-847.88 444.25,-847.88 444.25,-798.12 522,-798.12 522,-847.88"/>
<text xml:space="preserve" text-anchor="start" x="448.25" y="-834.38" font-family="Helvetica,sans-Serif" font-size="10.00">std::deque&lt; T &gt;</text>
<text xml:space="preserve" text-anchor="start" x="481.62" y="-819.12" font-family="Helvetica,sans-Serif" font-size="10.00"> </text>
<text xml:space="preserve" text-anchor="start" x="481.62" y="-803.88" font-family="Helvetica,sans-Serif" font-size="10.00"> </text>
<polygon fill="#666666" stroke="#666666" points="444.25,-830.62 444.25,-830.62 522,-830.62 522,-830.62 444.25,-830.62"/>
<polygon fill="#666666" stroke="#666666" points="444.25,-815.38 444.25,-815.38 522,-815.38 522,-815.38 444.25,-815.38"/>
<polygon fill="none" stroke="#666666" points="444.25,-798.12 444.25,-847.88 522,-847.88 522,-798.12 444.25,-798.12"/>
</a>
</g>
</g>
<!-- Node8&#45;&gt;Node14 -->
<g id="edge16_Node000014_Node000008" class="edge">
<title>Node8&#45;&gt;Node14</title>
<g id="a_edge16_Node000014_Node000008"><a xlink:title=" ">
<path fill="none" stroke="#63b8ff" d="M339.94,-945.41C354.57,-939.92 389.64,-925.57 414.12,-906 431.29,-892.28 447.31,-873.76 459.58,-857.8"/>
<polygon fill="none" stroke="#63b8ff" points="459.36,-858.09 459.75,-850.89 466.54,-848.47 466.16,-855.67 459.36,-858.09"/>
</a>
</g>
<text xml:space="preserve" text-anchor="start" x="434.46" y="-893.5" font-family="Helvetica,sans-Serif" font-size="10.00" fill="grey">+elements</text>
</g>
<!-- Node9&#45;&gt;Node4 -->
<g id="edge8_Node000004_Node000009" class="edge">
<title>Node9&#45;&gt;Node4</title>
<g id="a_edge8_Node000004_Node000009"><a xlink:title=" ">
<path fill="none" stroke="orange" d="M41.18,-781.56C38.16,-747.28 38.72,-697.93 59.38,-661 86.71,-612.13 141.72,-577.2 182.75,-556.59"/>
<polygon fill="orange" stroke="orange" points="37.66,-781.48 42.17,-791.07 44.62,-780.76 37.66,-781.48"/>
</a>
</g>
<text xml:space="preserve" text-anchor="start" x="62.38" y="-702.88" font-family="Helvetica,sans-Serif" font-size="10.00" fill="grey">&lt; std::type_index,</text>
<text xml:space="preserve" text-anchor="start" x="62.38" y="-687.62" font-family="Helvetica,sans-Serif" font-size="10.00" fill="grey">   std::unique_ptr&lt; rtp</text>
<text xml:space="preserve" text-anchor="start" x="62.38" y="-672.38" font-family="Helvetica,sans-Serif" font-size="10.00" fill="grey">  ::ecs::ISparseArray &gt; &gt;</text>
</g>
<!-- Node10 -->
<g id="Node000010" class="node">
<title>Node10</title>
<g id="a_Node000010"><a xlink:title=" ">
<polygon fill="white" stroke="none" points="54.5,-973.75 39.75,-973.75 39.75,-924 54.5,-924 54.5,-973.75"/>
<text xml:space="preserve" text-anchor="start" x="43.75" y="-960.25" font-family="Helvetica,sans-Serif" font-size="10.00">K</text>
<text xml:space="preserve" text-anchor="start" x="45.62" y="-945" font-family="Helvetica,sans-Serif" font-size="10.00"> </text>
<text xml:space="preserve" text-anchor="start" x="45.62" y="-929.75" font-family="Helvetica,sans-Serif" font-size="10.00"> </text>
<polygon fill="#666666" stroke="#666666" points="39.75,-956.5 39.75,-956.5 54.5,-956.5 54.5,-956.5 39.75,-956.5"/>
<polygon fill="#666666" stroke="#666666" points="39.75,-941.25 39.75,-941.25 54.5,-941.25 54.5,-941.25 39.75,-941.25"/>
<polygon fill="none" stroke="#666666" points="39.75,-924 39.75,-973.75 54.5,-973.75 54.5,-924 39.75,-924"/>
</a>
</g>
</g>
<!-- Node10&#45;&gt;Node9 -->
<g id="edge9_Node000009_Node000010" class="edge">
<title>Node10&#45;&gt;Node9</title>
<g id="a_edge9_Node000009_Node000010"><a xlink:title=" ">
<path fill="none" stroke="#63b8ff" d="M47.12,-924.28C47.12,-907.86 47.12,-885.5 47.12,-866.06"/>
<polygon fill="none" stroke="#63b8ff" points="47.13,-866.08 43.13,-860.08 47.13,-854.08 51.13,-860.08 47.13,-866.08"/>
</a>
</g>
<text xml:space="preserve" text-anchor="start" x="50.12" y="-893.5" font-family="Helvetica,sans-Serif" font-size="10.00" fill="grey">+keys</text>
</g>
<!-- Node11 -->
<g id="Node000011" class="node">
<title>Node11</title>
<g id="a_Node000011"><a xlink:title=" ">
<polygon fill="white" stroke="none" points="419.38,-643 292.88,-643 292.88,-593.25 419.38,-593.25 419.38,-643"/>
<text xml:space="preserve" text-anchor="start" x="296.88" y="-629.5" font-family="Helvetica,sans-Serif" font-size="10.00">std::vector&lt; std::uint32_t &gt;</text>
<text xml:space="preserve" text-anchor="start" x="314.06" y="-614.25" font-family="Helvetica,sans-Serif" font-size="10.00">+</text>
<text xml:space="preserve" text-anchor="start" x="341.25" y="-614.25" font-family="Helvetica,sans-Serif" font-size="10.00">elements</text>
<text xml:space="preserve" text-anchor="start" x="354.62" y="-599" font-family="Helvetica,sans-Serif" font-size="10.00"> </text>
<polygon fill="#666666" stroke="#666666" points="292.88,-625.75 292.88,-625.75 419.38,-625.75 419.38,-625.75 292.88,-625.75"/>
<polygon fill="#666666" stroke="#666666" points="292.88,-610.5 292.88,-610.5 339.25,-610.5 339.25,-610.5 292.88,-610.5"/>
<polygon fill="#666666" stroke="#666666" points="339.25,-610.5 339.25,-610.5 419.38,-610.5 419.38,-610.5 339.25,-610.5"/>
<polygon fill="none" stroke="#666666" points="292.88,-593.25 292.88,-643 419.38,-643 419.38,-593.25 292.88,-593.25"/>
</a>
</g>
</g>
<!-- Node11&#45;&gt;Node3 -->
<g id="edge11_Node000003_Node000011" class="edge">
<title>Node11&#45;&gt;Node3</title>
<g id="a_edge11_Node000003_Node000011"><a xlink:title=" ">
<path fill="none" stroke="#63b8ff" d="M358.43,-593.5C361,-568.26 365.47,-527.09 370.62,-491.75 372.56,-478.5 374.69,-464.79 376.92,-451.02"/>
<polygon fill="none" stroke="#63b8ff" points="376.91,-451.11 373.93,-444.55 378.85,-439.27 381.83,-445.84 376.91,-451.11"/>
</a>
</g>
<text xml:space="preserve" text-anchor="start" x="373.62" y="-529.62" font-family="Helvetica,sans-Serif" font-size="10.00" fill="grey">&#45;_generations</text>
</g>
<!-- Node12&#45;&gt;Node11 -->
<g id="edge12_Node000011_Node000012" class="edge">
<title>Node12&#45;&gt;Node11</title>
<g id="a_edge12_Node000011_Node000012"><a xlink:title=" ">
<path fill="none" stroke="orange" d="M381.77,-786.95C375.48,-745.76 365.2,-678.54 359.77,-642.96"/>
<polygon fill="orange" stroke="orange" points="378.31,-787.48 383.28,-796.83 385.23,-786.42 378.31,-787.48"/>
</a>
</g>
<text xml:space="preserve" text-anchor="start" x="379.85" y="-744.75" font-family="Helvetica,sans-Serif" font-size="10.00" fill="grey">&lt; std::uint32_t &gt;</text>
</g>
<!-- Node13 -->
<g id="Node000013" class="node">
<title>Node13</title>
<g id="a_Node000013"><a xlink:title=" ">
<polygon fill="white" stroke="none" points="541.88,-643 424.38,-643 424.38,-593.25 541.88,-593.25 541.88,-643"/>
<text xml:space="preserve" text-anchor="start" x="428.38" y="-629.5" font-family="Helvetica,sans-Serif" font-size="10.00">std::deque&lt; std::size_t &gt;</text>
<text xml:space="preserve" text-anchor="start" x="443.31" y="-614.25" font-family="Helvetica,sans-Serif" font-size="10.00">+</text>
<text xml:space="preserve" text-anchor="start" x="468.25" y="-614.25" font-family="Helvetica,sans-Serif" font-size="10.00">elements</text>
<text xml:space="preserve" text-anchor="start" x="481.62" y="-599" font-family="Helvetica,sans-Serif" font-size="10.00"> </text>
<polygon fill="#666666" stroke="#666666" points="424.38,-625.75 424.38,-625.75 541.88,-625.75 541.88,-625.75 424.38,-625.75"/>
<polygon fill="#666666" stroke="#666666" points="424.38,-610.5 424.38,-610.5 466.25,-610.5 466.25,-610.5 424.38,-610.5"/>
<polygon fill="#666666" stroke="#666666" points="466.25,-610.5 466.25,-610.5 541.88,-610.5 541.88,-610.5 466.25,-610.5"/>
<polygon fill="none" stroke="#666666" points="424.38,-593.25 424.38,-643 541.88,-643 541.88,-593.25 424.38,-593.25"/>
</a>
</g>
</g>
<!-- Node13&#45;&gt;Node3 -->
<g id="edge14_Node000003_Node000013" class="edge">
<title>Node13&#45;&gt;Node3</title>
<g id="a_edge14_Node000003_Node000013"><a xlink:title=" ">
<path fill="none" stroke="#63b8ff" d="M473.14,-593.45C470.89,-587.57 468.64,-581.23 466.88,-575.25 455.14,-535.45 444.87,-491.91 436.31,-450.95"/>
<polygon fill="none" stroke="#63b8ff" points="436.31,-450.96 431.18,-445.89 433.89,-439.21 439.02,-444.28 436.31,-450.96"/>
</a>
</g>
<text xml:space="preserve" text-anchor="start" x="469.88" y="-529.62" font-family="Helvetica,sans-Serif" font-size="10.00" fill="grey">&#45;_freeIndices</text>
</g>
<!-- Node14&#45;&gt;Node13 -->
<g id="edge15_Node000013_Node000014" class="edge">
<title>Node14&#45;&gt;Node13</title>
<g id="a_edge15_Node000013_Node000014"><a xlink:title=" ">
<path fill="none" stroke="orange" d="M483.12,-786.95C483.12,-745.76 483.12,-678.54 483.12,-642.96"/>
<polygon fill="orange" stroke="orange" points="479.63,-786.82 483.13,-796.82 486.63,-786.82 479.63,-786.82"/>
</a>
</g>
<text xml:space="preserve" text-anchor="start" x="486.12" y="-744.75" font-family="Helvetica,sans-Serif" font-size="10.00" fill="grey">&lt; std::size_t &gt;</text>
</g>
<!-- Node15 -->
<g id="Node000015" class="node">
<title>Node15</title>
<g id="a_Node000015"><a xlink:title=" ">
<polygon fill="white" stroke="none" points="626.62,-558.38 537.62,-558.38 537.62,-508.62 626.62,-508.62 626.62,-558.38"/>
<text xml:space="preserve" text-anchor="start" x="541.62" y="-544.88" font-family="Helvetica,sans-Serif" font-size="10.00">std::shared_mutex</text>
<text xml:space="preserve" text-anchor="start" x="580.62" y="-529.62" font-family="Helvetica,sans-Serif" font-size="10.00"> </text>
<text xml:space="preserve" text-anchor="start" x="580.62" y="-514.38" font-family="Helvetica,sans-Serif" font-size="10.00"> </text>
<polygon fill="#666666" stroke="#666666" points="537.62,-541.12 537.62,-541.12 626.62,-541.12 626.62,-541.12 537.62,-541.12"/>
<polygon fill="#666666" stroke="#666666" points="537.62,-525.88 537.62,-525.88 626.62,-525.88 626.62,-525.88 537.62,-525.88"/>
<polygon fill="none" stroke="#666666" points="537.62,-508.62 537.62,-558.38 626.62,-558.38 626.62,-508.62 537.62,-508.62"/>
</a>
</g>
</g>
<!-- Node15&#45;&gt;Node3 -->
<g id="edge17_Node000003_Node000015" class="edge">
<title>Node15&#45;&gt;Node3</title>
<g id="a_edge17_Node000003_Node000015"><a xlink:title=" ">
<path fill="none" stroke="#63b8ff" d="M565.35,-508.77C542.99,-477.15 502.24,-419.51 467.69,-370.66"/>
<polygon fill="none" stroke="#63b8ff" points="467.64,-370.59 460.91,-368 460.72,-360.79 467.45,-363.38 467.64,-370.59"/>
</a>
</g>
<text xml:space="preserve" text-anchor="start" x="542.83" y="-461.25" font-family="Helvetica,sans-Serif" font-size="10.00" fill="grey">&#45;_mutex</text>
</g>
</g>
</svg>

<g id="navigator" transform="translate(0 0)" fill="#404254">
  <rect fill="#f2f5e9" fill-opacity="0.5" stroke="#606060" stroke-width=".5" x="0" y="0" width="60" height="60"/>
  <use id="zoomplus" xlink:href="#zoomPlus" x="17" y="9" onmousedown="handleZoom(evt,'in')"/>
  <use id="zoomminus" xlink:href="#zoomMin" x="42" y="9" onmousedown="handleZoom(evt,'out')"/>
  <use id="reset" xlink:href="#resetDef" x="30" y="36" onmousedown="handleReset()"/>
   <use id="arrowup" xlink:href="#arrowUp" x="0" y="0" onmousedown="handlePan(0,-1)"/>
  <use id="arrowright" xlink:href="#arrowRight" x="0" y="0" onmousedown="handlePan(1,0)"/>
  <use id="arrowdown" xlink:href="#arrowDown" x="0" y="0" onmousedown="handlePan(0,1)"/>
  <use id="arrowleft" xlink:href="#arrowLeft" x="0" y="0" onmousedown="handlePan(-1,0)"/>
</g>
<svg viewBox="0 0 15 15" width="100%" height="30px" preserveAspectRatio="xMaxYMin meet">
 <g id="arrow_out" transform="scale(0.3 0.3)">
  <a xlink:href="classrtp_1_1server_1_1PlayerMouvementSystem__coll__graph_org.svg" target="_base">
   <rect id="button" ry="5" rx="5" y="6" x="6" height="38" width="38"
        fill="#f2f5e9" fill-opacity="0.5" stroke="#606060" stroke-width="1.0"/>
   <path id="arrow"
     d="M 11.500037,31.436501 C 11.940474,20.09759 22.043105,11.32322 32.158766,21.979434 L 37.068811,17.246167 C 37.068811,17.246167 37.088388,32 37.088388,32 L 22.160133,31.978069 C 22.160133,31.978069 26.997745,27.140456 26.997745,27.140456 C 18.528582,18.264221 13.291696,25.230495 11.500037,31.436501 z"
     style="fill:#404040;"/>
  </a>
 </g>
</svg>

<style type='text/css'>
<![CDATA[
[data-mouse-over-selected='false'] { opacity: 0.7; }
[data-mouse-over-selected='true']  { opacity: 1.0; }
]]>
</style>
<script type="application/ecmascript"><![CDATA[
document.addEventListener('DOMContentLoaded', (event) => {
  highlightEdges();
  highlightAdjacentNodes();
});
]]></script>
</svg>
