<?xml version="1.0" encoding="UTF-8" standalone="no"?>
<!DOCTYPE svg PUBLIC "-//W3C//DTD SVG 1.1//EN"
 "http://www.w3.org/Graphics/SVG/1.1/DTD/svg11.dtd">
<!-- Generated by graphviz version 14.0.5 (20251129.0259)
 -->
<!-- Title: rtp::server::EntitySystem Pages: 1 -->
<svg width="127pt" height="311pt"
 viewBox="0.00 0.00 127.00 311.00" xmlns="http://www.w3.org/2000/svg" xmlns:xlink="http://www.w3.org/1999/xlink">
<g id="graph0" class="graph" transform="scale(1 1) rotate(0) translate(4 307.25)">
<title>rtp::server::EntitySystem</title>
<!-- Node1 -->
<g id="Node000001" class="node">
<title>Node1</title>
<g id="a_Node000001"><a xlink:title="Base class for systems that operate on entities in the ECS.">
<polygon fill="#999999" stroke="none" points="118.5,-202.25 0,-202.25 0,0 118.5,0 118.5,-202.25"/>
<text xml:space="preserve" text-anchor="start" x="4.5" y="-188.75" font-family="Helvetica,sans-Serif" font-size="10.00">rtp::server::EntitySystem</text>
<text xml:space="preserve" text-anchor="start" x="4.38" y="-173.5" font-family="Helvetica,sans-Serif" font-size="10.00">#</text>
<text xml:space="preserve" text-anchor="start" x="14" y="-173.5" font-family="Helvetica,sans-Serif" font-size="10.00">_registry</text>
<text xml:space="preserve" text-anchor="start" x="4.38" y="-158.25" font-family="Helvetica,sans-Serif" font-size="10.00">#</text>
<text xml:space="preserve" text-anchor="start" x="14" y="-158.25" font-family="Helvetica,sans-Serif" font-size="10.00">_network</text>
<text xml:space="preserve" text-anchor="start" x="4.38" y="-143" font-family="Helvetica,sans-Serif" font-size="10.00">#</text>
<text xml:space="preserve" text-anchor="start" x="14" y="-143" font-family="Helvetica,sans-Serif" font-size="10.00">_networkSync</text>
<text xml:space="preserve" text-anchor="start" x="4" y="-127.75" font-family="Helvetica,sans-Serif" font-size="10.00">+</text>
<text xml:space="preserve" text-anchor="start" x="14" y="-127.75" font-family="Helvetica,sans-Serif" font-size="10.00">EntitySystem()</text>
<text xml:space="preserve" text-anchor="start" x="4" y="-112.5" font-family="Helvetica,sans-Serif" font-size="10.00">+</text>
<text xml:space="preserve" text-anchor="start" x="14" y="-112.5" font-family="Helvetica,sans-Serif" font-size="10.00">update()</text>
<text xml:space="preserve" text-anchor="start" x="4" y="-97.25" font-family="Helvetica,sans-Serif" font-size="10.00">+</text>
<text xml:space="preserve" text-anchor="start" x="14" y="-97.25" font-family="Helvetica,sans-Serif" font-size="10.00">createPlayerEntity()</text>
<text xml:space="preserve" text-anchor="start" x="4" y="-82" font-family="Helvetica,sans-Serif" font-size="10.00">+</text>
<text xml:space="preserve" text-anchor="start" x="14" y="-82" font-family="Helvetica,sans-Serif" font-size="10.00">createPlayerEntity()</text>
<text xml:space="preserve" text-anchor="start" x="4" y="-66.75" font-family="Helvetica,sans-Serif" font-size="10.00">+</text>
<text xml:space="preserve" text-anchor="start" x="14" y="-66.75" font-family="Helvetica,sans-Serif" font-size="10.00">createEnemyEntity()</text>
<text xml:space="preserve" text-anchor="start" x="4" y="-51.5" font-family="Helvetica,sans-Serif" font-size="10.00">+</text>
<text xml:space="preserve" text-anchor="start" x="14" y="-51.5" font-family="Helvetica,sans-Serif" font-size="10.00">creaetEnemyEntity()</text>
<text xml:space="preserve" text-anchor="start" x="4" y="-36.25" font-family="Helvetica,sans-Serif" font-size="10.00">+</text>
<text xml:space="preserve" text-anchor="start" x="14" y="-36.25" font-family="Helvetica,sans-Serif" font-size="10.00">createPowerupEntity()</text>
<text xml:space="preserve" text-anchor="start" x="4" y="-21" font-family="Helvetica,sans-Serif" font-size="10.00">+</text>
<text xml:space="preserve" text-anchor="start" x="14" y="-21" font-family="Helvetica,sans-Serif" font-size="10.00">createObstacleEntity()</text>
<text xml:space="preserve" text-anchor="start" x="4" y="-5.75" font-family="Helvetica,sans-Serif" font-size="10.00">+</text>
<text xml:space="preserve" text-anchor="start" x="14" y="-5.75" font-family="Helvetica,sans-Serif" font-size="10.00">applyWeaponToEntity()</text>
<polygon fill="#666666" stroke="#666666" points="0,-185 0,-185 118.5,-185 118.5,-185 0,-185"/>
<polygon fill="#666666" stroke="#666666" points="0,-139.25 0,-139.25 12,-139.25 12,-139.25 0,-139.25"/>
<polygon fill="#666666" stroke="#666666" points="12,-139.25 12,-139.25 118.5,-139.25 118.5,-139.25 12,-139.25"/>
<polygon fill="none" stroke="#666666" points="0,0 0,-202.25 118.5,-202.25 118.5,0 0,0"/>
</a>
</g>
</g>
<!-- Node2 -->
<g id="Node000002" class="node">
<title>Node2</title>
<g id="a_Node000002"><a xlink:href="classrtp_1_1ecs_1_1ISystem.html" target="_top" xlink:title="Abstract base class for all ECS systems.">
<polygon fill="white" stroke="none" points="101.12,-303.25 17.38,-303.25 17.38,-238.25 101.12,-238.25 101.12,-303.25"/>
<text xml:space="preserve" text-anchor="start" x="21.38" y="-289.75" font-family="Helvetica,sans-Serif" font-size="10.00">rtp::ecs::ISystem</text>
<text xml:space="preserve" text-anchor="start" x="57.75" y="-274.5" font-family="Helvetica,sans-Serif" font-size="10.00"> </text>
<text xml:space="preserve" text-anchor="start" x="25.62" y="-259.25" font-family="Helvetica,sans-Serif" font-size="10.00">+</text>
<text xml:space="preserve" text-anchor="start" x="39.88" y="-259.25" font-family="Helvetica,sans-Serif" font-size="10.00">~ISystem()</text>
<text xml:space="preserve" text-anchor="start" x="25.62" y="-244" font-family="Helvetica,sans-Serif" font-size="10.00">+</text>
<text xml:space="preserve" text-anchor="start" x="39.88" y="-244" font-family="Helvetica,sans-Serif" font-size="10.00">update()</text>
<polygon fill="#666666" stroke="#666666" points="17.38,-286 17.38,-286 101.12,-286 101.12,-286 17.38,-286"/>
<polygon fill="#666666" stroke="#666666" points="17.38,-270.75 17.38,-270.75 101.12,-270.75 101.12,-270.75 17.38,-270.75"/>
<polygon fill="none" stroke="#666666" points="17.38,-238.25 17.38,-303.25 101.12,-303.25 101.12,-238.25 17.38,-238.25"/>
</a>
</g>
</g>
<!-- Node2&#45;&gt;Node1 -->
<g id="edge1_Node000001_Node000002" class="edge">
<title>Node2&#45;&gt;Node1</title>
<g id="a_edge1_Node000001_Node000002"><a xlink:title=" ">
<path fill="none" stroke="#63b8ff" d="M59.25,-227.23C59.25,-219.37 59.25,-210.86 59.25,-202.11"/>
<polygon fill="none" stroke="#63b8ff" points="55.75,-227.1 59.25,-237.1 62.75,-227.1 55.75,-227.1"/>
</a>
</g>
</g>
</g>
</svg>
