<?xml version="1.0" encoding="UTF-8" standalone="no"?>
<!DOCTYPE svg PUBLIC "-//W3C//DTD SVG 1.1//EN"
 "http://www.w3.org/Graphics/SVG/1.1/DTD/svg11.dtd">
<!-- Generated by graphviz version 14.0.5 (20251129.0259)
 -->
<!-- Title: rtp::log::detail::LoggerBackend Pages: 1 -->
<svg width="167pt" height="587pt"
 viewBox="0.00 0.00 167.00 587.00" xmlns="http://www.w3.org/2000/svg" xmlns:xlink="http://www.w3.org/1999/xlink">
<g id="graph0" class="graph" transform="scale(1 1) rotate(0) translate(4 583.25)">
<title>rtp::log::detail::LoggerBackend</title>
<!-- Node1 -->
<g id="Node000001" class="node">
<title>Node1</title>
<g id="a_Node000001"><a xlink:title=" ">
<polygon fill="#999999" stroke="none" points="113.5,-106.75 11,-106.75 11,0 113.5,0 113.5,-106.75"/>
<text xml:space="preserve" text-anchor="start" x="15" y="-93.25" font-family="Helvetica,sans-Serif" font-size="10.00">rtp::log::detail::Logger</text>
<text xml:space="preserve" text-anchor="start" x="43.12" y="-82" font-family="Helvetica,sans-Serif" font-size="10.00">Backend</text>
<text xml:space="preserve" text-anchor="start" x="60.75" y="-66.75" font-family="Helvetica,sans-Serif" font-size="10.00"> </text>
<text xml:space="preserve" text-anchor="start" x="16.25" y="-51.5" font-family="Helvetica,sans-Serif" font-size="10.00">+</text>
<text xml:space="preserve" text-anchor="start" x="27.5" y="-51.5" font-family="Helvetica,sans-Serif" font-size="10.00">LoggerBackend()</text>
<text xml:space="preserve" text-anchor="start" x="16.25" y="-36.25" font-family="Helvetica,sans-Serif" font-size="10.00">+</text>
<text xml:space="preserve" text-anchor="start" x="27.5" y="-36.25" font-family="Helvetica,sans-Serif" font-size="10.00">~LoggerBackend()</text>
<text xml:space="preserve" text-anchor="start" x="16.25" y="-21" font-family="Helvetica,sans-Serif" font-size="10.00">+</text>
<text xml:space="preserve" text-anchor="start" x="27.5" y="-21" font-family="Helvetica,sans-Serif" font-size="10.00">setOutputFile()</text>
<text xml:space="preserve" text-anchor="start" x="16.25" y="-5.75" font-family="Helvetica,sans-Serif" font-size="10.00">+</text>
<text xml:space="preserve" text-anchor="start" x="27.5" y="-5.75" font-family="Helvetica,sans-Serif" font-size="10.00">write()</text>
<polygon fill="#666666" stroke="#666666" points="11,-78.25 11,-78.25 113.5,-78.25 113.5,-78.25 11,-78.25"/>
<polygon fill="#666666" stroke="#666666" points="11,-63 11,-63 113.5,-63 113.5,-63 11,-63"/>
<polygon fill="none" stroke="#666666" points="11,0 11,-106.75 113.5,-106.75 113.5,0 11,0"/>
</a>
</g>
</g>
<!-- Node2 -->
<g id="Node000002" class="node">
<title>Node2</title>
<g id="a_Node000002"><a xlink:title=" ">
<polygon fill="white" stroke="none" points="54.5,-209.75 0,-209.75 0,-160 54.5,-160 54.5,-209.75"/>
<text xml:space="preserve" text-anchor="start" x="4" y="-196.25" font-family="Helvetica,sans-Serif" font-size="10.00">std::mutex</text>
<text xml:space="preserve" text-anchor="start" x="25.75" y="-181" font-family="Helvetica,sans-Serif" font-size="10.00"> </text>
<text xml:space="preserve" text-anchor="start" x="25.75" y="-165.75" font-family="Helvetica,sans-Serif" font-size="10.00"> </text>
<polygon fill="#666666" stroke="#666666" points="0,-192.5 0,-192.5 54.5,-192.5 54.5,-192.5 0,-192.5"/>
<polygon fill="#666666" stroke="#666666" points="0,-177.25 0,-177.25 54.5,-177.25 54.5,-177.25 0,-177.25"/>
<polygon fill="none" stroke="#666666" points="0,-160 0,-209.75 54.5,-209.75 54.5,-160 0,-160"/>
</a>
</g>
</g>
<!-- Node2&#45;&gt;Node1 -->
<g id="edge1_Node000001_Node000002" class="edge">
<title>Node2&#45;&gt;Node1</title>
<g id="a_edge1_Node000001_Node000002"><a xlink:title=" ">
<path fill="none" stroke="#63b8ff" d="M29.06,-160.04C30.23,-149.16 32.08,-136.19 35,-124.75 35.5,-122.79 36.04,-120.81 36.61,-118.83"/>
<polygon fill="none" stroke="#63b8ff" points="36.59,-118.88 34.58,-111.96 40.19,-107.43 42.21,-114.36 36.59,-118.88"/>
</a>
</g>
<text xml:space="preserve" text-anchor="start" x="38" y="-129.5" font-family="Helvetica,sans-Serif" font-size="10.00" fill="grey">&#45;_mutex</text>
</g>
<!-- Node3 -->
<g id="Node000003" class="node">
<title>Node3</title>
<g id="a_Node000003"><a xlink:title=" ">
<polygon fill="white" stroke="none" points="138.12,-209.75 72.38,-209.75 72.38,-160 138.12,-160 138.12,-209.75"/>
<text xml:space="preserve" text-anchor="start" x="76.38" y="-196.25" font-family="Helvetica,sans-Serif" font-size="10.00">std::ofstream</text>
<text xml:space="preserve" text-anchor="start" x="103.75" y="-181" font-family="Helvetica,sans-Serif" font-size="10.00"> </text>
<text xml:space="preserve" text-anchor="start" x="103.75" y="-165.75" font-family="Helvetica,sans-Serif" font-size="10.00"> </text>
<polygon fill="#666666" stroke="#666666" points="72.38,-192.5 72.38,-192.5 138.12,-192.5 138.12,-192.5 72.38,-192.5"/>
<polygon fill="#666666" stroke="#666666" points="72.38,-177.25 72.38,-177.25 138.12,-177.25 138.12,-177.25 72.38,-177.25"/>
<polygon fill="none" stroke="#666666" points="72.38,-160 72.38,-209.75 138.12,-209.75 138.12,-160 72.38,-160"/>
</a>
</g>
</g>
<!-- Node3&#45;&gt;Node1 -->
<g id="edge2_Node000001_Node000003" class="edge">
<title>Node3&#45;&gt;Node1</title>
<g id="a_edge2_Node000001_Node000003"><a xlink:title=" ">
<path fill="none" stroke="#63b8ff" d="M97.36,-160.12C93.48,-148.43 88.59,-133.7 83.7,-118.99"/>
<polygon fill="none" stroke="#63b8ff" points="83.69,-118.94 78,-114.51 79.91,-107.55 85.59,-111.98 83.69,-118.94"/>
</a>
</g>
<text xml:space="preserve" text-anchor="start" x="94.34" y="-129.5" font-family="Helvetica,sans-Serif" font-size="10.00" fill="grey">&#45;_file</text>
</g>
<!-- Node4 -->
<g id="Node000004" class="node">
<title>Node4</title>
<g id="a_Node000004"><a xlink:title=" ">
<polygon fill="white" stroke="none" points="152.38,-307.75 58.12,-307.75 58.12,-246.75 152.38,-246.75 152.38,-307.75"/>
<text xml:space="preserve" text-anchor="start" x="62.12" y="-294.25" font-family="Helvetica,sans-Serif" font-size="10.00">std::basic_ofstream</text>
<text xml:space="preserve" text-anchor="start" x="85.75" y="-283" font-family="Helvetica,sans-Serif" font-size="10.00">&lt; Char &gt;</text>
<text xml:space="preserve" text-anchor="start" x="103.75" y="-267.75" font-family="Helvetica,sans-Serif" font-size="10.00"> </text>
<text xml:space="preserve" text-anchor="start" x="103.75" y="-252.5" font-family="Helvetica,sans-Serif" font-size="10.00"> </text>
<polygon fill="#666666" stroke="#666666" points="58.12,-279.25 58.12,-279.25 152.38,-279.25 152.38,-279.25 58.12,-279.25"/>
<polygon fill="#666666" stroke="#666666" points="58.12,-264 58.12,-264 152.38,-264 152.38,-264 58.12,-264"/>
<polygon fill="none" stroke="#666666" points="58.12,-246.75 58.12,-307.75 152.38,-307.75 152.38,-246.75 58.12,-246.75"/>
</a>
</g>
</g>
<!-- Node4&#45;&gt;Node3 -->
<g id="edge3_Node000003_Node000004" class="edge">
<title>Node4&#45;&gt;Node3</title>
<g id="a_edge3_Node000003_Node000004"><a xlink:title=" ">
<path fill="none" stroke="#63b8ff" d="M105.25,-235.65C105.25,-226.69 105.25,-217.5 105.25,-209.48"/>
<polygon fill="none" stroke="#63b8ff" points="101.75,-235.64 105.25,-245.64 108.75,-235.64 101.75,-235.64"/>
</a>
</g>
</g>
<!-- Node5 -->
<g id="Node000005" class="node">
<title>Node5</title>
<g id="a_Node000005"><a xlink:title=" ">
<polygon fill="white" stroke="none" points="150.88,-405.75 59.62,-405.75 59.62,-344.75 150.88,-344.75 150.88,-405.75"/>
<text xml:space="preserve" text-anchor="start" x="63.62" y="-392.25" font-family="Helvetica,sans-Serif" font-size="10.00">std::basic_ostream</text>
<text xml:space="preserve" text-anchor="start" x="85.75" y="-381" font-family="Helvetica,sans-Serif" font-size="10.00">&lt; Char &gt;</text>
<text xml:space="preserve" text-anchor="start" x="103.75" y="-365.75" font-family="Helvetica,sans-Serif" font-size="10.00"> </text>
<text xml:space="preserve" text-anchor="start" x="103.75" y="-350.5" font-family="Helvetica,sans-Serif" font-size="10.00"> </text>
<polygon fill="#666666" stroke="#666666" points="59.62,-377.25 59.62,-377.25 150.88,-377.25 150.88,-377.25 59.62,-377.25"/>
<polygon fill="#666666" stroke="#666666" points="59.62,-362 59.62,-362 150.88,-362 150.88,-362 59.62,-362"/>
<polygon fill="none" stroke="#666666" points="59.62,-344.75 59.62,-405.75 150.88,-405.75 150.88,-344.75 59.62,-344.75"/>
</a>
</g>
</g>
<!-- Node5&#45;&gt;Node4 -->
<g id="edge4_Node000004_Node000005" class="edge">
<title>Node5&#45;&gt;Node4</title>
<g id="a_edge4_Node000004_Node000005"><a xlink:title=" ">
<path fill="none" stroke="#63b8ff" d="M105.25,-333.45C105.25,-324.81 105.25,-315.85 105.25,-307.73"/>
<polygon fill="none" stroke="#63b8ff" points="101.75,-333.41 105.25,-343.41 108.75,-333.41 101.75,-333.41"/>
</a>
</g>
</g>
<!-- Node6 -->
<g id="Node000006" class="node">
<title>Node6</title>
<g id="a_Node000006"><a xlink:title=" ">
<polygon fill="white" stroke="none" points="159.12,-492.5 51.38,-492.5 51.38,-442.75 159.12,-442.75 159.12,-492.5"/>
<text xml:space="preserve" text-anchor="start" x="55.38" y="-479" font-family="Helvetica,sans-Serif" font-size="10.00">std::basic_ios&lt; Char &gt;</text>
<text xml:space="preserve" text-anchor="start" x="103.75" y="-463.75" font-family="Helvetica,sans-Serif" font-size="10.00"> </text>
<text xml:space="preserve" text-anchor="start" x="103.75" y="-448.5" font-family="Helvetica,sans-Serif" font-size="10.00"> </text>
<polygon fill="#666666" stroke="#666666" points="51.38,-475.25 51.38,-475.25 159.12,-475.25 159.12,-475.25 51.38,-475.25"/>
<polygon fill="#666666" stroke="#666666" points="51.38,-460 51.38,-460 159.12,-460 159.12,-460 51.38,-460"/>
<polygon fill="none" stroke="#666666" points="51.38,-442.75 51.38,-492.5 159.12,-492.5 159.12,-442.75 51.38,-442.75"/>
</a>
</g>
</g>
<!-- Node6&#45;&gt;Node5 -->
<g id="edge5_Node000005_Node000006" class="edge">
<title>Node6&#45;&gt;Node5</title>
<g id="a_edge5_Node000005_Node000006"><a xlink:title=" ">
<path fill="none" stroke="#63b8ff" d="M105.25,-431.62C105.25,-423.04 105.25,-413.94 105.25,-405.65"/>
<polygon fill="none" stroke="#63b8ff" points="101.75,-431.37 105.25,-441.37 108.75,-431.37 101.75,-431.37"/>
</a>
</g>
</g>
<!-- Node7 -->
<g id="Node000007" class="node">
<title>Node7</title>
<g id="a_Node000007"><a xlink:title=" ">
<polygon fill="white" stroke="none" points="138.5,-579.25 72,-579.25 72,-529.5 138.5,-529.5 138.5,-579.25"/>
<text xml:space="preserve" text-anchor="start" x="76" y="-565.75" font-family="Helvetica,sans-Serif" font-size="10.00">std::ios_base</text>
<text xml:space="preserve" text-anchor="start" x="103.75" y="-550.5" font-family="Helvetica,sans-Serif" font-size="10.00"> </text>
<text xml:space="preserve" text-anchor="start" x="103.75" y="-535.25" font-family="Helvetica,sans-Serif" font-size="10.00"> </text>
<polygon fill="#666666" stroke="#666666" points="72,-562 72,-562 138.5,-562 138.5,-562 72,-562"/>
<polygon fill="#666666" stroke="#666666" points="72,-546.75 72,-546.75 138.5,-546.75 138.5,-546.75 72,-546.75"/>
<polygon fill="none" stroke="#666666" points="72,-529.5 72,-579.25 138.5,-579.25 138.5,-529.5 72,-529.5"/>
</a>
</g>
</g>
<!-- Node7&#45;&gt;Node6 -->
<g id="edge6_Node000006_Node000007" class="edge">
<title>Node7&#45;&gt;Node6</title>
<g id="a_edge6_Node000006_Node000007"><a xlink:title=" ">
<path fill="none" stroke="#63b8ff" d="M105.25,-518.29C105.25,-509.57 105.25,-500.43 105.25,-492.4"/>
<polygon fill="none" stroke="#63b8ff" points="101.75,-518.25 105.25,-528.25 108.75,-518.25 101.75,-518.25"/>
</a>
</g>
</g>
</g>
</svg>
