<?xml version="1.0" encoding="UTF-8" standalone="no"?>
<!DOCTYPE svg PUBLIC "-//W3C//DTD SVG 1.1//EN"
 "http://www.w3.org/Graphics/SVG/1.1/DTD/svg11.dtd">
<!-- Generated by graphviz version 14.0.5 (20251129.0259)
 -->
<!-- Title: rtp::server::Player Pages: 1 -->
<svg width="165pt" height="518pt"
 viewBox="0.00 0.00 165.00 518.00" xmlns="http://www.w3.org/2000/svg" xmlns:xlink="http://www.w3.org/1999/xlink">
<g id="graph0" class="graph" transform="scale(1 1) rotate(0) translate(4 514)">
<title>rtp::server::Player</title>
<!-- Node1 -->
<g id="Node000001" class="node">
<title>Node1</title>
<g id="a_Node000001"><a xlink:title="Represents a player in the game server.">
<polygon fill="#999999" stroke="none" points="126,-309 40,-309 40,0 126,0 126,-309"/>
<text xml:space="preserve" text-anchor="start" x="44" y="-295.5" font-family="Helvetica,sans-Serif" font-size="10.00">rtp::server::Player</text>
<text xml:space="preserve" text-anchor="start" x="46.38" y="-280.25" font-family="Helvetica,sans-Serif" font-size="10.00">&#45;</text>
<text xml:space="preserve" text-anchor="start" x="55.75" y="-280.25" font-family="Helvetica,sans-Serif" font-size="10.00">_sessionId</text>
<text xml:space="preserve" text-anchor="start" x="46.38" y="-265" font-family="Helvetica,sans-Serif" font-size="10.00">&#45;</text>
<text xml:space="preserve" text-anchor="start" x="55.75" y="-265" font-family="Helvetica,sans-Serif" font-size="10.00">_roomId</text>
<text xml:space="preserve" text-anchor="start" x="46.38" y="-249.75" font-family="Helvetica,sans-Serif" font-size="10.00">&#45;</text>
<text xml:space="preserve" text-anchor="start" x="55.75" y="-249.75" font-family="Helvetica,sans-Serif" font-size="10.00">_state</text>
<text xml:space="preserve" text-anchor="start" x="46.38" y="-234.5" font-family="Helvetica,sans-Serif" font-size="10.00">&#45;</text>
<text xml:space="preserve" text-anchor="start" x="55.75" y="-234.5" font-family="Helvetica,sans-Serif" font-size="10.00">_isReady</text>
<text xml:space="preserve" text-anchor="start" x="46.38" y="-219.25" font-family="Helvetica,sans-Serif" font-size="10.00">&#45;</text>
<text xml:space="preserve" text-anchor="start" x="55.75" y="-219.25" font-family="Helvetica,sans-Serif" font-size="10.00">_entityId</text>
<text xml:space="preserve" text-anchor="start" x="46.38" y="-204" font-family="Helvetica,sans-Serif" font-size="10.00">&#45;</text>
<text xml:space="preserve" text-anchor="start" x="55.75" y="-204" font-family="Helvetica,sans-Serif" font-size="10.00">_isMuted</text>
<text xml:space="preserve" text-anchor="start" x="46.38" y="-188.75" font-family="Helvetica,sans-Serif" font-size="10.00">&#45;</text>
<text xml:space="preserve" text-anchor="start" x="55.75" y="-188.75" font-family="Helvetica,sans-Serif" font-size="10.00">_weaponKind</text>
<text xml:space="preserve" text-anchor="start" x="46.38" y="-173.5" font-family="Helvetica,sans-Serif" font-size="10.00">&#45;</text>
<text xml:space="preserve" text-anchor="start" x="55.75" y="-173.5" font-family="Helvetica,sans-Serif" font-size="10.00">_score</text>
<text xml:space="preserve" text-anchor="start" x="44.88" y="-158.25" font-family="Helvetica,sans-Serif" font-size="10.00">+</text>
<text xml:space="preserve" text-anchor="start" x="55.75" y="-158.25" font-family="Helvetica,sans-Serif" font-size="10.00">Player()</text>
<text xml:space="preserve" text-anchor="start" x="44.88" y="-143" font-family="Helvetica,sans-Serif" font-size="10.00">+</text>
<text xml:space="preserve" text-anchor="start" x="55.75" y="-143" font-family="Helvetica,sans-Serif" font-size="10.00">~Player()</text>
<text xml:space="preserve" text-anchor="start" x="44.88" y="-127.75" font-family="Helvetica,sans-Serif" font-size="10.00">+</text>
<text xml:space="preserve" text-anchor="start" x="55.75" y="-127.75" font-family="Helvetica,sans-Serif" font-size="10.00">setUsername()</text>
<text xml:space="preserve" text-anchor="start" x="44.88" y="-112.5" font-family="Helvetica,sans-Serif" font-size="10.00">+</text>
<text xml:space="preserve" text-anchor="start" x="55.75" y="-112.5" font-family="Helvetica,sans-Serif" font-size="10.00">getUsername()</text>
<text xml:space="preserve" text-anchor="start" x="44.88" y="-97.25" font-family="Helvetica,sans-Serif" font-size="10.00">+</text>
<text xml:space="preserve" text-anchor="start" x="55.75" y="-97.25" font-family="Helvetica,sans-Serif" font-size="10.00">setRoomId()</text>
<text xml:space="preserve" text-anchor="start" x="44.88" y="-82" font-family="Helvetica,sans-Serif" font-size="10.00">+</text>
<text xml:space="preserve" text-anchor="start" x="55.75" y="-82" font-family="Helvetica,sans-Serif" font-size="10.00">getRoomId()</text>
<text xml:space="preserve" text-anchor="start" x="44.88" y="-66.75" font-family="Helvetica,sans-Serif" font-size="10.00">+</text>
<text xml:space="preserve" text-anchor="start" x="55.75" y="-66.75" font-family="Helvetica,sans-Serif" font-size="10.00">isInRoom()</text>
<text xml:space="preserve" text-anchor="start" x="44.88" y="-51.5" font-family="Helvetica,sans-Serif" font-size="10.00">+</text>
<text xml:space="preserve" text-anchor="start" x="55.75" y="-51.5" font-family="Helvetica,sans-Serif" font-size="10.00">setState()</text>
<text xml:space="preserve" text-anchor="start" x="44.88" y="-36.25" font-family="Helvetica,sans-Serif" font-size="10.00">+</text>
<text xml:space="preserve" text-anchor="start" x="55.75" y="-36.25" font-family="Helvetica,sans-Serif" font-size="10.00">getState()</text>
<text xml:space="preserve" text-anchor="start" x="44.88" y="-21" font-family="Helvetica,sans-Serif" font-size="10.00">+</text>
<text xml:space="preserve" text-anchor="start" x="55.75" y="-21" font-family="Helvetica,sans-Serif" font-size="10.00">setReady()</text>
<text xml:space="preserve" text-anchor="start" x="55.75" y="-5.75" font-family="Helvetica,sans-Serif" font-size="10.00">and 11 more...</text>
<polygon fill="#666666" stroke="#666666" points="40,-291.75 40,-291.75 126,-291.75 126,-291.75 40,-291.75"/>
<polygon fill="#666666" stroke="#666666" points="40,-169.75 40,-169.75 53.75,-169.75 53.75,-169.75 40,-169.75"/>
<polygon fill="#666666" stroke="#666666" points="53.75,-169.75 53.75,-169.75 126,-169.75 126,-169.75 53.75,-169.75"/>
<polygon fill="none" stroke="#666666" points="40,0 40,-309 126,-309 126,0 40,0"/>
</a>
</g>
</g>
<!-- Node2 -->
<g id="Node000002" class="node">
<title>Node2</title>
<g id="a_Node000002"><a xlink:title=" ">
<polygon fill="white" stroke="none" points="68.75,-412 17.25,-412 17.25,-362.25 68.75,-362.25 68.75,-412"/>
<text xml:space="preserve" text-anchor="start" x="21.25" y="-398.5" font-family="Helvetica,sans-Serif" font-size="10.00">std::string</text>
<text xml:space="preserve" text-anchor="start" x="41.5" y="-383.25" font-family="Helvetica,sans-Serif" font-size="10.00"> </text>
<text xml:space="preserve" text-anchor="start" x="41.5" y="-368" font-family="Helvetica,sans-Serif" font-size="10.00"> </text>
<polygon fill="#666666" stroke="#666666" points="17.25,-394.75 17.25,-394.75 68.75,-394.75 68.75,-394.75 17.25,-394.75"/>
<polygon fill="#666666" stroke="#666666" points="17.25,-379.5 17.25,-379.5 68.75,-379.5 68.75,-379.5 17.25,-379.5"/>
<polygon fill="none" stroke="#666666" points="17.25,-362.25 17.25,-412 68.75,-412 68.75,-362.25 17.25,-362.25"/>
</a>
</g>
</g>
<!-- Node2&#45;&gt;Node1 -->
<g id="edge1_Node000001_Node000002" class="edge">
<title>Node2&#45;&gt;Node1</title>
<g id="a_edge1_Node000001_Node000002"><a xlink:title=" ">
<path fill="none" stroke="#63b8ff" d="M42.29,-362.46C42.24,-351.61 42.6,-338.62 44,-327 44.23,-325.11 44.47,-323.2 44.72,-321.29"/>
<polygon fill="none" stroke="#63b8ff" points="44.72,-321.34 41.61,-314.83 46.42,-309.46 49.53,-315.96 44.72,-321.34"/>
</a>
</g>
<text xml:space="preserve" text-anchor="start" x="47" y="-331.75" font-family="Helvetica,sans-Serif" font-size="10.00" fill="grey">&#45;_username</text>
</g>
<!-- Node3 -->
<g id="Node000003" class="node">
<title>Node3</title>
<g id="a_Node000003"><a xlink:title=" ">
<polygon fill="white" stroke="none" points="86,-510 0,-510 0,-449 86,-449 86,-510"/>
<text xml:space="preserve" text-anchor="start" x="4" y="-496.5" font-family="Helvetica,sans-Serif" font-size="10.00">std::basic_string&lt;</text>
<text xml:space="preserve" text-anchor="start" x="26.5" y="-485.25" font-family="Helvetica,sans-Serif" font-size="10.00"> Char &gt;</text>
<text xml:space="preserve" text-anchor="start" x="41.5" y="-470" font-family="Helvetica,sans-Serif" font-size="10.00"> </text>
<text xml:space="preserve" text-anchor="start" x="41.5" y="-454.75" font-family="Helvetica,sans-Serif" font-size="10.00"> </text>
<polygon fill="#666666" stroke="#666666" points="0,-481.5 0,-481.5 86,-481.5 86,-481.5 0,-481.5"/>
<polygon fill="#666666" stroke="#666666" points="0,-466.25 0,-466.25 86,-466.25 86,-466.25 0,-466.25"/>
<polygon fill="none" stroke="#666666" points="0,-449 0,-510 86,-510 86,-449 0,-449"/>
</a>
</g>
</g>
<!-- Node3&#45;&gt;Node2 -->
<g id="edge2_Node000002_Node000003" class="edge">
<title>Node3&#45;&gt;Node2</title>
<g id="a_edge2_Node000002_Node000003"><a xlink:title=" ">
<path fill="none" stroke="#63b8ff" d="M43,-437.9C43,-428.94 43,-419.75 43,-411.73"/>
<polygon fill="none" stroke="#63b8ff" points="39.5,-437.89 43,-447.89 46.5,-437.89 39.5,-437.89"/>
</a>
</g>
</g>
<!-- Node4 -->
<g id="Node000004" class="node">
<title>Node4</title>
<g id="a_Node000004"><a xlink:title=" ">
<polygon fill="white" stroke="none" points="150.25,-412 95.75,-412 95.75,-362.25 150.25,-362.25 150.25,-412"/>
<text xml:space="preserve" text-anchor="start" x="99.75" y="-398.5" font-family="Helvetica,sans-Serif" font-size="10.00">std::mutex</text>
<text xml:space="preserve" text-anchor="start" x="121.5" y="-383.25" font-family="Helvetica,sans-Serif" font-size="10.00"> </text>
<text xml:space="preserve" text-anchor="start" x="121.5" y="-368" font-family="Helvetica,sans-Serif" font-size="10.00"> </text>
<polygon fill="#666666" stroke="#666666" points="95.75,-394.75 95.75,-394.75 150.25,-394.75 150.25,-394.75 95.75,-394.75"/>
<polygon fill="#666666" stroke="#666666" points="95.75,-379.5 95.75,-379.5 150.25,-379.5 150.25,-379.5 95.75,-379.5"/>
<polygon fill="none" stroke="#666666" points="95.75,-362.25 95.75,-412 150.25,-412 150.25,-362.25 95.75,-362.25"/>
</a>
</g>
</g>
<!-- Node4&#45;&gt;Node1 -->
<g id="edge3_Node000001_Node000004" class="edge">
<title>Node4&#45;&gt;Node1</title>
<g id="a_edge3_Node000001_Node000004"><a xlink:title=" ">
<path fill="none" stroke="#63b8ff" d="M118.87,-362.31C116.96,-351.32 114.52,-337.24 111.81,-321.6"/>
<polygon fill="none" stroke="#63b8ff" points="111.79,-321.47 106.82,-316.24 109.74,-309.64 114.7,-314.87 111.79,-321.47"/>
</a>
</g>
<text xml:space="preserve" text-anchor="start" x="118.35" y="-331.75" font-family="Helvetica,sans-Serif" font-size="10.00" fill="grey">&#45;_mutex</text>
</g>
</g>
</svg>
