<?xml version="1.0" encoding="UTF-8" standalone="no"?>
<!DOCTYPE svg PUBLIC "-//W3C//DTD SVG 1.1//EN"
 "http://www.w3.org/Graphics/SVG/1.1/DTD/svg11.dtd">
<!-- Generated by graphviz version 14.0.5 (20251129.0259)
 -->
<!-- Title: rtp::server::HomingSystem Pages: 1 -->
<svg width="134pt" height="174pt"
 viewBox="0.00 0.00 134.00 174.00" xmlns="http://www.w3.org/2000/svg" xmlns:xlink="http://www.w3.org/1999/xlink">
<g id="graph0" class="graph" transform="scale(1 1) rotate(0) translate(4 170)">
<title>rtp::server::HomingSystem</title>
<!-- Node1 -->
<g id="Node000001" class="node">
<title>Node1</title>
<g id="a_Node000001"><a xlink:title=" ">
<polygon fill="#999999" stroke="none" points="125.75,-65 0,-65 0,0 125.75,0 125.75,-65"/>
<text xml:space="preserve" text-anchor="start" x="4" y="-51.5" font-family="Helvetica,sans-Serif" font-size="10.00">rtp::server::HomingSystem</text>
<text xml:space="preserve" text-anchor="start" x="14.06" y="-36.25" font-family="Helvetica,sans-Serif" font-size="10.00">&#45;</text>
<text xml:space="preserve" text-anchor="start" x="31.12" y="-36.25" font-family="Helvetica,sans-Serif" font-size="10.00">_registry</text>
<text xml:space="preserve" text-anchor="start" x="12.56" y="-21" font-family="Helvetica,sans-Serif" font-size="10.00">+</text>
<text xml:space="preserve" text-anchor="start" x="31.12" y="-21" font-family="Helvetica,sans-Serif" font-size="10.00">HomingSystem()</text>
<text xml:space="preserve" text-anchor="start" x="12.56" y="-5.75" font-family="Helvetica,sans-Serif" font-size="10.00">+</text>
<text xml:space="preserve" text-anchor="start" x="31.12" y="-5.75" font-family="Helvetica,sans-Serif" font-size="10.00">update()</text>
<polygon fill="#666666" stroke="#666666" points="0,-47.75 0,-47.75 125.75,-47.75 125.75,-47.75 0,-47.75"/>
<polygon fill="#666666" stroke="#666666" points="0,-32.5 0,-32.5 29.12,-32.5 29.12,-32.5 0,-32.5"/>
<polygon fill="#666666" stroke="#666666" points="29.12,-32.5 29.12,-32.5 125.75,-32.5 125.75,-32.5 29.12,-32.5"/>
<polygon fill="none" stroke="#666666" points="0,0 0,-65 125.75,-65 125.75,0 0,0"/>
</a>
</g>
</g>
<!-- Node2 -->
<g id="Node000002" class="node">
<title>Node2</title>
<g id="a_Node000002"><a xlink:href="classrtp_1_1ecs_1_1ISystem.html" target="_top" xlink:title="Abstract base class for all ECS systems.">
<polygon fill="white" stroke="none" points="104.75,-166 21,-166 21,-101 104.75,-101 104.75,-166"/>
<text xml:space="preserve" text-anchor="start" x="25" y="-152.5" font-family="Helvetica,sans-Serif" font-size="10.00">rtp::ecs::ISystem</text>
<text xml:space="preserve" text-anchor="start" x="61.38" y="-137.25" font-family="Helvetica,sans-Serif" font-size="10.00"> </text>
<text xml:space="preserve" text-anchor="start" x="29.25" y="-122" font-family="Helvetica,sans-Serif" font-size="10.00">+</text>
<text xml:space="preserve" text-anchor="start" x="43.5" y="-122" font-family="Helvetica,sans-Serif" font-size="10.00">~ISystem()</text>
<text xml:space="preserve" text-anchor="start" x="29.25" y="-106.75" font-family="Helvetica,sans-Serif" font-size="10.00">+</text>
<text xml:space="preserve" text-anchor="start" x="43.5" y="-106.75" font-family="Helvetica,sans-Serif" font-size="10.00">update()</text>
<polygon fill="#666666" stroke="#666666" points="21,-148.75 21,-148.75 104.75,-148.75 104.75,-148.75 21,-148.75"/>
<polygon fill="#666666" stroke="#666666" points="21,-133.5 21,-133.5 104.75,-133.5 104.75,-133.5 21,-133.5"/>
<polygon fill="none" stroke="#666666" points="21,-101 21,-166 104.75,-166 104.75,-101 21,-101"/>
</a>
</g>
</g>
<!-- Node2&#45;&gt;Node1 -->
<g id="edge1_Node000001_Node000002" class="edge">
<title>Node2&#45;&gt;Node1</title>
<g id="a_edge1_Node000001_Node000002"><a xlink:title=" ">
<path fill="none" stroke="#63b8ff" d="M62.88,-89.7C62.88,-81.39 62.88,-72.82 62.88,-64.96"/>
<polygon fill="none" stroke="#63b8ff" points="59.38,-89.66 62.88,-99.66 66.38,-89.66 59.38,-89.66"/>
</a>
</g>
</g>
</g>
</svg>
