<?xml version="1.0" encoding="UTF-8" standalone="no"?>
<!DOCTYPE svg PUBLIC "-//W3C//DTD SVG 1.1//EN"
 "http://www.w3.org/Graphics/SVG/1.1/DTD/svg11.dtd">
<!-- Generated by graphviz version 14.0.5 (20251129.0259)
 -->
<!-- Title: rtp::client::TranslationManager Pages: 1 -->
<svg width="222pt" height="515pt"
 viewBox="0.00 0.00 222.00 515.00" xmlns="http://www.w3.org/2000/svg" xmlns:xlink="http://www.w3.org/1999/xlink">
<g id="graph0" class="graph" transform="scale(1 1) rotate(0) translate(4 510.5)">
<title>rtp::client::TranslationManager</title>
<!-- Node1 -->
<g id="Node000001" class="node">
<title>Node1</title>
<g id="a_Node000001"><a xlink:title="Manages game translations for all UI elements.">
<polygon fill="#999999" stroke="none" points="145.75,-137.25 30.25,-137.25 30.25,0 145.75,0 145.75,-137.25"/>
<text xml:space="preserve" text-anchor="start" x="40.75" y="-123.75" font-family="Helvetica,sans-Serif" font-size="10.00">rtp::client::Translation</text>
<text xml:space="preserve" text-anchor="start" x="69.25" y="-112.5" font-family="Helvetica,sans-Serif" font-size="10.00">Manager</text>
<text xml:space="preserve" text-anchor="start" x="35.75" y="-97.25" font-family="Helvetica,sans-Serif" font-size="10.00">&#45;</text>
<text xml:space="preserve" text-anchor="start" x="44.25" y="-97.25" font-family="Helvetica,sans-Serif" font-size="10.00">_currentLanguage</text>
<text xml:space="preserve" text-anchor="start" x="34.25" y="-82" font-family="Helvetica,sans-Serif" font-size="10.00">+</text>
<text xml:space="preserve" text-anchor="start" x="44.25" y="-82" font-family="Helvetica,sans-Serif" font-size="10.00">TranslationManager()</text>
<text xml:space="preserve" text-anchor="start" x="34.25" y="-66.75" font-family="Helvetica,sans-Serif" font-size="10.00">+</text>
<text xml:space="preserve" text-anchor="start" x="44.25" y="-66.75" font-family="Helvetica,sans-Serif" font-size="10.00">loadLanguage()</text>
<text xml:space="preserve" text-anchor="start" x="34.25" y="-51.5" font-family="Helvetica,sans-Serif" font-size="10.00">+</text>
<text xml:space="preserve" text-anchor="start" x="44.25" y="-51.5" font-family="Helvetica,sans-Serif" font-size="10.00">get()</text>
<text xml:space="preserve" text-anchor="start" x="34.25" y="-36.25" font-family="Helvetica,sans-Serif" font-size="10.00">+</text>
<text xml:space="preserve" text-anchor="start" x="44.25" y="-36.25" font-family="Helvetica,sans-Serif" font-size="10.00">getf()</text>
<text xml:space="preserve" text-anchor="start" x="34.25" y="-21" font-family="Helvetica,sans-Serif" font-size="10.00">+</text>
<text xml:space="preserve" text-anchor="start" x="44.25" y="-21" font-family="Helvetica,sans-Serif" font-size="10.00">getCurrentLanguage()</text>
<text xml:space="preserve" text-anchor="start" x="35.75" y="-5.75" font-family="Helvetica,sans-Serif" font-size="10.00">&#45;</text>
<text xml:space="preserve" text-anchor="start" x="44.25" y="-5.75" font-family="Helvetica,sans-Serif" font-size="10.00">getLanguageFilePath()</text>
<polygon fill="#666666" stroke="#666666" points="30.25,-108.75 30.25,-108.75 145.75,-108.75 145.75,-108.75 30.25,-108.75"/>
<polygon fill="#666666" stroke="#666666" points="30.25,-93.5 30.25,-93.5 42.25,-93.5 42.25,-93.5 30.25,-93.5"/>
<polygon fill="#666666" stroke="#666666" points="42.25,-93.5 42.25,-93.5 145.75,-93.5 145.75,-93.5 42.25,-93.5"/>
<polygon fill="none" stroke="#666666" points="30.25,0 30.25,-137.25 145.75,-137.25 145.75,0 30.25,0"/>
</a>
</g>
</g>
<!-- Node2 -->
<g id="Node000002" class="node">
<title>Node2</title>
<g id="a_Node000002"><a xlink:title=" ">
<polygon fill="white" stroke="none" points="135.12,-262.75 40.88,-262.75 40.88,-190.5 135.12,-190.5 135.12,-262.75"/>
<text xml:space="preserve" text-anchor="start" x="44.88" y="-249.25" font-family="Helvetica,sans-Serif" font-size="10.00">std::unordered_map</text>
<text xml:space="preserve" text-anchor="start" x="44.88" y="-238" font-family="Helvetica,sans-Serif" font-size="10.00">&lt; std::string, std::</text>
<text xml:space="preserve" text-anchor="start" x="71.5" y="-226.75" font-family="Helvetica,sans-Serif" font-size="10.00">string &gt;</text>
<text xml:space="preserve" text-anchor="start" x="86.5" y="-211.5" font-family="Helvetica,sans-Serif" font-size="10.00"> </text>
<text xml:space="preserve" text-anchor="start" x="86.5" y="-196.25" font-family="Helvetica,sans-Serif" font-size="10.00"> </text>
<polygon fill="#666666" stroke="#666666" points="40.88,-223 40.88,-223 135.12,-223 135.12,-223 40.88,-223"/>
<polygon fill="#666666" stroke="#666666" points="40.88,-207.75 40.88,-207.75 135.12,-207.75 135.12,-207.75 40.88,-207.75"/>
<polygon fill="none" stroke="#666666" points="40.88,-190.5 40.88,-262.75 135.12,-262.75 135.12,-190.5 40.88,-190.5"/>
</a>
</g>
</g>
<!-- Node2&#45;&gt;Node1 -->
<g id="edge1_Node000001_Node000002" class="edge">
<title>Node2&#45;&gt;Node1</title>
<g id="a_edge1_Node000001_Node000002"><a xlink:title=" ">
<path fill="none" stroke="#63b8ff" d="M88,-190.62C88,-178.51 88,-164.4 88,-150.17"/>
<polygon fill="none" stroke="#63b8ff" points="88,-150.03 84,-144.03 88,-138.03 92,-144.03 88,-150.03"/>
</a>
</g>
<text xml:space="preserve" text-anchor="start" x="91" y="-160" font-family="Helvetica,sans-Serif" font-size="10.00" fill="grey">&#45;_translations</text>
</g>
<!-- Node3 -->
<g id="Node000003" class="node">
<title>Node3</title>
<g id="a_Node000003"><a xlink:title=" ">
<polygon fill="white" stroke="none" points="68.75,-386.62 17.25,-386.62 17.25,-336.88 68.75,-336.88 68.75,-386.62"/>
<text xml:space="preserve" text-anchor="start" x="21.25" y="-373.12" font-family="Helvetica,sans-Serif" font-size="10.00">std::string</text>
<text xml:space="preserve" text-anchor="start" x="41.5" y="-357.88" font-family="Helvetica,sans-Serif" font-size="10.00"> </text>
<text xml:space="preserve" text-anchor="start" x="41.5" y="-342.62" font-family="Helvetica,sans-Serif" font-size="10.00"> </text>
<polygon fill="#666666" stroke="#666666" points="17.25,-369.38 17.25,-369.38 68.75,-369.38 68.75,-369.38 17.25,-369.38"/>
<polygon fill="#666666" stroke="#666666" points="17.25,-354.12 17.25,-354.12 68.75,-354.12 68.75,-354.12 17.25,-354.12"/>
<polygon fill="none" stroke="#666666" points="17.25,-336.88 17.25,-386.62 68.75,-386.62 68.75,-336.88 17.25,-336.88"/>
</a>
</g>
</g>
<!-- Node3&#45;&gt;Node2 -->
<g id="edge2_Node000002_Node000003" class="edge">
<title>Node3&#45;&gt;Node2</title>
<g id="a_edge2_Node000002_Node000003"><a xlink:title=" ">
<path fill="none" stroke="#63b8ff" d="M44.59,-337.05C46.23,-320.81 49.56,-298.99 56.25,-280.75 57.05,-278.57 57.94,-276.39 58.89,-274.21"/>
<polygon fill="none" stroke="#63b8ff" points="58.86,-274.29 57.93,-267.14 64.17,-263.53 65.1,-270.68 58.86,-274.29"/>
</a>
</g>
<text xml:space="preserve" text-anchor="start" x="59.25" y="-300.75" font-family="Helvetica,sans-Serif" font-size="10.00" fill="grey">+elements</text>
<text xml:space="preserve" text-anchor="start" x="59.25" y="-285.5" font-family="Helvetica,sans-Serif" font-size="10.00" fill="grey">+keys</text>
</g>
<!-- Node4 -->
<g id="Node000004" class="node">
<title>Node4</title>
<g id="a_Node000004"><a xlink:title=" ">
<polygon fill="white" stroke="none" points="86,-506.5 0,-506.5 0,-445.5 86,-445.5 86,-506.5"/>
<text xml:space="preserve" text-anchor="start" x="4" y="-493" font-family="Helvetica,sans-Serif" font-size="10.00">std::basic_string&lt;</text>
<text xml:space="preserve" text-anchor="start" x="26.5" y="-481.75" font-family="Helvetica,sans-Serif" font-size="10.00"> Char &gt;</text>
<text xml:space="preserve" text-anchor="start" x="41.5" y="-466.5" font-family="Helvetica,sans-Serif" font-size="10.00"> </text>
<text xml:space="preserve" text-anchor="start" x="41.5" y="-451.25" font-family="Helvetica,sans-Serif" font-size="10.00"> </text>
<polygon fill="#666666" stroke="#666666" points="0,-478 0,-478 86,-478 86,-478 0,-478"/>
<polygon fill="#666666" stroke="#666666" points="0,-462.75 0,-462.75 86,-462.75 86,-462.75 0,-462.75"/>
<polygon fill="none" stroke="#666666" points="0,-445.5 0,-506.5 86,-506.5 86,-445.5 0,-445.5"/>
</a>
</g>
</g>
<!-- Node4&#45;&gt;Node3 -->
<g id="edge3_Node000003_Node000004" class="edge">
<title>Node4&#45;&gt;Node3</title>
<g id="a_edge3_Node000003_Node000004"><a xlink:title=" ">
<path fill="none" stroke="#63b8ff" d="M43,-434.21C43,-418.14 43,-400.25 43,-386.39"/>
<polygon fill="none" stroke="#63b8ff" points="39.5,-433.99 43,-443.99 46.5,-433.99 39.5,-433.99"/>
</a>
</g>
</g>
<!-- Node5 -->
<g id="Node000005" class="node">
<title>Node5</title>
<g id="a_Node000005"><a xlink:title=" ">
<polygon fill="white" stroke="none" points="181.12,-392.25 86.88,-392.25 86.88,-331.25 181.12,-331.25 181.12,-392.25"/>
<text xml:space="preserve" text-anchor="start" x="90.88" y="-378.75" font-family="Helvetica,sans-Serif" font-size="10.00">std::unordered_map</text>
<text xml:space="preserve" text-anchor="start" x="115.62" y="-367.5" font-family="Helvetica,sans-Serif" font-size="10.00">&lt; K, T &gt;</text>
<text xml:space="preserve" text-anchor="start" x="132.5" y="-352.25" font-family="Helvetica,sans-Serif" font-size="10.00"> </text>
<text xml:space="preserve" text-anchor="start" x="132.5" y="-337" font-family="Helvetica,sans-Serif" font-size="10.00"> </text>
<polygon fill="#666666" stroke="#666666" points="86.88,-363.75 86.88,-363.75 181.12,-363.75 181.12,-363.75 86.88,-363.75"/>
<polygon fill="#666666" stroke="#666666" points="86.88,-348.5 86.88,-348.5 181.12,-348.5 181.12,-348.5 86.88,-348.5"/>
<polygon fill="none" stroke="#666666" points="86.88,-331.25 86.88,-392.25 181.12,-392.25 181.12,-331.25 86.88,-331.25"/>
</a>
</g>
</g>
<!-- Node5&#45;&gt;Node2 -->
<g id="edge4_Node000002_Node000005" class="edge">
<title>Node5&#45;&gt;Node2</title>
<g id="a_edge4_Node000002_Node000005"><a xlink:title=" ">
<path fill="none" stroke="orange" d="M121.34,-320.58C117.21,-307.81 112.52,-293.65 108,-280.75 105.95,-274.89 103.69,-268.7 101.46,-262.69"/>
<polygon fill="orange" stroke="orange" points="117.96,-321.49 124.35,-329.94 124.62,-319.35 117.96,-321.49"/>
</a>
</g>
<text xml:space="preserve" text-anchor="start" x="121.36" y="-300.75" font-family="Helvetica,sans-Serif" font-size="10.00" fill="grey">&lt; std::string, std</text>
<text xml:space="preserve" text-anchor="start" x="121.36" y="-285.5" font-family="Helvetica,sans-Serif" font-size="10.00" fill="grey">  ::string &gt;</text>
</g>
<!-- Node6 -->
<g id="Node000006" class="node">
<title>Node6</title>
<g id="a_Node000006"><a xlink:title=" ">
<polygon fill="white" stroke="none" points="129.38,-500.88 114.62,-500.88 114.62,-451.12 129.38,-451.12 129.38,-500.88"/>
<text xml:space="preserve" text-anchor="start" x="118.62" y="-487.38" font-family="Helvetica,sans-Serif" font-size="10.00">K</text>
<text xml:space="preserve" text-anchor="start" x="120.5" y="-472.12" font-family="Helvetica,sans-Serif" font-size="10.00"> </text>
<text xml:space="preserve" text-anchor="start" x="120.5" y="-456.88" font-family="Helvetica,sans-Serif" font-size="10.00"> </text>
<polygon fill="#666666" stroke="#666666" points="114.62,-483.62 114.62,-483.62 129.38,-483.62 129.38,-483.62 114.62,-483.62"/>
<polygon fill="#666666" stroke="#666666" points="114.62,-468.38 114.62,-468.38 129.38,-468.38 129.38,-468.38 114.62,-468.38"/>
<polygon fill="none" stroke="#666666" points="114.62,-451.12 114.62,-500.88 129.38,-500.88 129.38,-451.12 114.62,-451.12"/>
</a>
</g>
</g>
<!-- Node6&#45;&gt;Node5 -->
<g id="edge5_Node000005_Node000006" class="edge">
<title>Node6&#45;&gt;Node5</title>
<g id="a_edge5_Node000005_Node000006"><a xlink:title=" ">
<path fill="none" stroke="#63b8ff" d="M121.17,-451.24C121.04,-438.96 121.35,-423.75 123,-410.25 123.21,-408.5 123.46,-406.73 123.75,-404.94"/>
<polygon fill="none" stroke="#63b8ff" points="123.75,-404.9 120.94,-398.26 125.99,-393.11 128.8,-399.75 123.75,-404.9"/>
</a>
</g>
<text xml:space="preserve" text-anchor="start" x="126" y="-415" font-family="Helvetica,sans-Serif" font-size="10.00" fill="grey">+keys</text>
</g>
<!-- Node7 -->
<g id="Node000007" class="node">
<title>Node7</title>
<g id="a_Node000007"><a xlink:title=" ">
<polygon fill="white" stroke="none" points="185,-500.88 171,-500.88 171,-451.12 185,-451.12 185,-500.88"/>
<text xml:space="preserve" text-anchor="start" x="175" y="-487.38" font-family="Helvetica,sans-Serif" font-size="10.00">T</text>
<text xml:space="preserve" text-anchor="start" x="176.5" y="-472.12" font-family="Helvetica,sans-Serif" font-size="10.00"> </text>
<text xml:space="preserve" text-anchor="start" x="176.5" y="-456.88" font-family="Helvetica,sans-Serif" font-size="10.00"> </text>
<polygon fill="#666666" stroke="#666666" points="171,-483.62 171,-483.62 185,-483.62 185,-483.62 171,-483.62"/>
<polygon fill="#666666" stroke="#666666" points="171,-468.38 171,-468.38 185,-468.38 185,-468.38 171,-468.38"/>
<polygon fill="none" stroke="#666666" points="171,-451.12 171,-500.88 185,-500.88 185,-451.12 171,-451.12"/>
</a>
</g>
</g>
<!-- Node7&#45;&gt;Node5 -->
<g id="edge6_Node000005_Node000007" class="edge">
<title>Node7&#45;&gt;Node5</title>
<g id="a_edge6_Node000005_Node000007"><a xlink:title=" ">
<path fill="none" stroke="#63b8ff" d="M171.04,-452.61C166.97,-440.04 161.56,-424.14 156,-410.25 155.19,-408.22 154.33,-406.15 153.45,-404.07"/>
<polygon fill="none" stroke="#63b8ff" points="153.42,-403.99 147.34,-400.11 148.59,-393.01 154.66,-396.89 153.42,-403.99"/>
</a>
</g>
<text xml:space="preserve" text-anchor="start" x="164.98" y="-415" font-family="Helvetica,sans-Serif" font-size="10.00" fill="grey">+elements</text>
</g>
</g>
</svg>
