<?xml version="1.0" encoding="UTF-8" standalone="no"?>
<!DOCTYPE svg PUBLIC "-//W3C//DTD SVG 1.1//EN"
 "http://www.w3.org/Graphics/SVG/1.1/DTD/svg11.dtd">
<!-- Generated by graphviz version 14.0.5 (20251129.0259)
 -->
<!-- Title: rtp::client::ClientNetwork Pages: 1 -->
<svg width="1032pt" height="1377pt"
 viewBox="0.00 0.00 1032.00 1377.00" xmlns="http://www.w3.org/2000/svg" xmlns:xlink="http://www.w3.org/1999/xlink">
<g id="graph0" class="graph" transform="scale(1 1) rotate(0) translate(4 1373.25)">
<title>rtp::client::ClientNetwork</title>
<!-- Node1 -->
<g id="Node000001" class="node">
<title>Node1</title>
<g id="a_Node000001"><a xlink:title=" ">
<polygon fill="#999999" stroke="none" points="464.62,-354.75 347.88,-354.75 347.88,0 464.62,0 464.62,-354.75"/>
<text xml:space="preserve" text-anchor="start" x="351.88" y="-341.25" font-family="Helvetica,sans-Serif" font-size="10.00">rtp::client::ClientNetwork</text>
<text xml:space="preserve" text-anchor="start" x="354.44" y="-326" font-family="Helvetica,sans-Serif" font-size="10.00">&#45;</text>
<text xml:space="preserve" text-anchor="start" x="364" y="-326" font-family="Helvetica,sans-Serif" font-size="10.00">_serverPort</text>
<text xml:space="preserve" text-anchor="start" x="354.44" y="-310.75" font-family="Helvetica,sans-Serif" font-size="10.00">&#45;</text>
<text xml:space="preserve" text-anchor="start" x="364" y="-310.75" font-family="Helvetica,sans-Serif" font-size="10.00">_ioContext</text>
<text xml:space="preserve" text-anchor="start" x="354.44" y="-295.5" font-family="Helvetica,sans-Serif" font-size="10.00">&#45;</text>
<text xml:space="preserve" text-anchor="start" x="364" y="-295.5" font-family="Helvetica,sans-Serif" font-size="10.00">_tcpSocket</text>
<text xml:space="preserve" text-anchor="start" x="354.44" y="-280.25" font-family="Helvetica,sans-Serif" font-size="10.00">&#45;</text>
<text xml:space="preserve" text-anchor="start" x="364" y="-280.25" font-family="Helvetica,sans-Serif" font-size="10.00">_udpSocket</text>
<text xml:space="preserve" text-anchor="start" x="354.44" y="-265" font-family="Helvetica,sans-Serif" font-size="10.00">&#45;</text>
<text xml:space="preserve" text-anchor="start" x="364" y="-265" font-family="Helvetica,sans-Serif" font-size="10.00">_serverEndpoint</text>
<text xml:space="preserve" text-anchor="start" x="354.44" y="-249.75" font-family="Helvetica,sans-Serif" font-size="10.00">&#45;</text>
<text xml:space="preserve" text-anchor="start" x="364" y="-249.75" font-family="Helvetica,sans-Serif" font-size="10.00">_sessionId</text>
<text xml:space="preserve" text-anchor="start" x="354.44" y="-234.5" font-family="Helvetica,sans-Serif" font-size="10.00">&#45;</text>
<text xml:space="preserve" text-anchor="start" x="364" y="-234.5" font-family="Helvetica,sans-Serif" font-size="10.00">_udpBound</text>
<text xml:space="preserve" text-anchor="start" x="354.44" y="-219.25" font-family="Helvetica,sans-Serif" font-size="10.00">&#45;</text>
<text xml:space="preserve" text-anchor="start" x="364" y="-219.25" font-family="Helvetica,sans-Serif" font-size="10.00">_udpSenderEndpoint</text>
<text xml:space="preserve" text-anchor="start" x="352.94" y="-204" font-family="Helvetica,sans-Serif" font-size="10.00">+</text>
<text xml:space="preserve" text-anchor="start" x="364" y="-204" font-family="Helvetica,sans-Serif" font-size="10.00">ClientNetwork()</text>
<text xml:space="preserve" text-anchor="start" x="352.94" y="-188.75" font-family="Helvetica,sans-Serif" font-size="10.00">+</text>
<text xml:space="preserve" text-anchor="start" x="364" y="-188.75" font-family="Helvetica,sans-Serif" font-size="10.00">~ClientNetwork()</text>
<text xml:space="preserve" text-anchor="start" x="352.94" y="-173.5" font-family="Helvetica,sans-Serif" font-size="10.00">+</text>
<text xml:space="preserve" text-anchor="start" x="364" y="-173.5" font-family="Helvetica,sans-Serif" font-size="10.00">start()</text>
<text xml:space="preserve" text-anchor="start" x="352.94" y="-158.25" font-family="Helvetica,sans-Serif" font-size="10.00">+</text>
<text xml:space="preserve" text-anchor="start" x="364" y="-158.25" font-family="Helvetica,sans-Serif" font-size="10.00">stop()</text>
<text xml:space="preserve" text-anchor="start" x="352.94" y="-143" font-family="Helvetica,sans-Serif" font-size="10.00">+</text>
<text xml:space="preserve" text-anchor="start" x="364" y="-143" font-family="Helvetica,sans-Serif" font-size="10.00">sendPacket()</text>
<text xml:space="preserve" text-anchor="start" x="352.94" y="-127.75" font-family="Helvetica,sans-Serif" font-size="10.00">+</text>
<text xml:space="preserve" text-anchor="start" x="364" y="-127.75" font-family="Helvetica,sans-Serif" font-size="10.00">pollEvent()</text>
<text xml:space="preserve" text-anchor="start" x="352.94" y="-112.5" font-family="Helvetica,sans-Serif" font-size="10.00">+</text>
<text xml:space="preserve" text-anchor="start" x="364" y="-112.5" font-family="Helvetica,sans-Serif" font-size="10.00">publishEvent()</text>
<text xml:space="preserve" text-anchor="start" x="352.94" y="-97.25" font-family="Helvetica,sans-Serif" font-size="10.00">+</text>
<text xml:space="preserve" text-anchor="start" x="364" y="-97.25" font-family="Helvetica,sans-Serif" font-size="10.00">hasPendingPackets()</text>
<text xml:space="preserve" text-anchor="start" x="352.94" y="-82" font-family="Helvetica,sans-Serif" font-size="10.00">+</text>
<text xml:space="preserve" text-anchor="start" x="364" y="-82" font-family="Helvetica,sans-Serif" font-size="10.00">popPacket()</text>
<text xml:space="preserve" text-anchor="start" x="352.94" y="-66.75" font-family="Helvetica,sans-Serif" font-size="10.00">+</text>
<text xml:space="preserve" text-anchor="start" x="364" y="-66.75" font-family="Helvetica,sans-Serif" font-size="10.00">readTcpHeader()</text>
<text xml:space="preserve" text-anchor="start" x="352.94" y="-51.5" font-family="Helvetica,sans-Serif" font-size="10.00">+</text>
<text xml:space="preserve" text-anchor="start" x="364" y="-51.5" font-family="Helvetica,sans-Serif" font-size="10.00">readTcpBody()</text>
<text xml:space="preserve" text-anchor="start" x="352.94" y="-36.25" font-family="Helvetica,sans-Serif" font-size="10.00">+</text>
<text xml:space="preserve" text-anchor="start" x="364" y="-36.25" font-family="Helvetica,sans-Serif" font-size="10.00">readUdp()</text>
<text xml:space="preserve" text-anchor="start" x="352.94" y="-21" font-family="Helvetica,sans-Serif" font-size="10.00">+</text>
<text xml:space="preserve" text-anchor="start" x="364" y="-21" font-family="Helvetica,sans-Serif" font-size="10.00">sendUdpHandshake()</text>
<text xml:space="preserve" text-anchor="start" x="352.94" y="-5.75" font-family="Helvetica,sans-Serif" font-size="10.00">+</text>
<text xml:space="preserve" text-anchor="start" x="364" y="-5.75" font-family="Helvetica,sans-Serif" font-size="10.00">isUdpReady()</text>
<polygon fill="#666666" stroke="#666666" points="347.88,-337.5 347.88,-337.5 464.62,-337.5 464.62,-337.5 347.88,-337.5"/>
<polygon fill="#666666" stroke="#666666" points="347.88,-215.5 347.88,-215.5 362,-215.5 362,-215.5 347.88,-215.5"/>
<polygon fill="#666666" stroke="#666666" points="362,-215.5 362,-215.5 464.62,-215.5 464.62,-215.5 362,-215.5"/>
<polygon fill="none" stroke="#666666" points="347.88,0 347.88,-354.75 464.62,-354.75 464.62,0 347.88,0"/>
</a>
</g>
</g>
<!-- Node2 -->
<g id="Node000002" class="node">
<title>Node2</title>
<g id="a_Node000002"><a xlink:href="classrtp_1_1net_1_1INetwork.html" target="_top" xlink:title="Interface for network operations.">
<polygon fill="white" stroke="none" points="84.5,-503.5 0,-503.5 0,-408 84.5,-408 84.5,-503.5"/>
<text xml:space="preserve" text-anchor="start" x="4" y="-490" font-family="Helvetica,sans-Serif" font-size="10.00">rtp::net::INetwork</text>
<text xml:space="preserve" text-anchor="start" x="40.75" y="-474.75" font-family="Helvetica,sans-Serif" font-size="10.00"> </text>
<text xml:space="preserve" text-anchor="start" x="7.69" y="-459.5" font-family="Helvetica,sans-Serif" font-size="10.00">+</text>
<text xml:space="preserve" text-anchor="start" x="21.38" y="-459.5" font-family="Helvetica,sans-Serif" font-size="10.00">~INetwork()</text>
<text xml:space="preserve" text-anchor="start" x="7.69" y="-444.25" font-family="Helvetica,sans-Serif" font-size="10.00">+</text>
<text xml:space="preserve" text-anchor="start" x="21.38" y="-444.25" font-family="Helvetica,sans-Serif" font-size="10.00">start()</text>
<text xml:space="preserve" text-anchor="start" x="7.69" y="-429" font-family="Helvetica,sans-Serif" font-size="10.00">+</text>
<text xml:space="preserve" text-anchor="start" x="21.38" y="-429" font-family="Helvetica,sans-Serif" font-size="10.00">stop()</text>
<text xml:space="preserve" text-anchor="start" x="7.69" y="-413.75" font-family="Helvetica,sans-Serif" font-size="10.00">+</text>
<text xml:space="preserve" text-anchor="start" x="21.38" y="-413.75" font-family="Helvetica,sans-Serif" font-size="10.00">pollEvent()</text>
<polygon fill="#666666" stroke="#666666" points="0,-486.25 0,-486.25 84.5,-486.25 84.5,-486.25 0,-486.25"/>
<polygon fill="#666666" stroke="#666666" points="0,-471 0,-471 84.5,-471 84.5,-471 0,-471"/>
<polygon fill="none" stroke="#666666" points="0,-408 0,-503.5 84.5,-503.5 84.5,-408 0,-408"/>
</a>
</g>
</g>
<!-- Node2&#45;&gt;Node1 -->
<g id="edge1_Node000001_Node000002" class="edge">
<title>Node2&#45;&gt;Node1</title>
<g id="a_edge1_Node000001_Node000002"><a xlink:title=" ">
<path fill="none" stroke="#63b8ff" d="M92.97,-408.23C93.06,-408.15 93.16,-408.08 93.25,-408 179.06,-337.54 284.06,-262.67 348.01,-218.24"/>
<polygon fill="none" stroke="#63b8ff" points="90.77,-405.51 85.39,-414.63 95.29,-410.85 90.77,-405.51"/>
</a>
</g>
</g>
<!-- Node3 -->
<g id="Node000003" class="node">
<title>Node3</title>
<g id="a_Node000003"><a xlink:href="classrtp_1_1net_1_1IEventPublisher.html" target="_top" xlink:title="Interface for network event handling.">
<polygon fill="white" stroke="none" points="216.12,-488.25 102.38,-488.25 102.38,-423.25 216.12,-423.25 216.12,-488.25"/>
<text xml:space="preserve" text-anchor="start" x="106.38" y="-474.75" font-family="Helvetica,sans-Serif" font-size="10.00">rtp::net::IEventPublisher</text>
<text xml:space="preserve" text-anchor="start" x="157.75" y="-459.5" font-family="Helvetica,sans-Serif" font-size="10.00"> </text>
<text xml:space="preserve" text-anchor="start" x="110.06" y="-444.25" font-family="Helvetica,sans-Serif" font-size="10.00">+</text>
<text xml:space="preserve" text-anchor="start" x="123.75" y="-444.25" font-family="Helvetica,sans-Serif" font-size="10.00">~IEventPublisher()</text>
<text xml:space="preserve" text-anchor="start" x="110.06" y="-429" font-family="Helvetica,sans-Serif" font-size="10.00">+</text>
<text xml:space="preserve" text-anchor="start" x="123.75" y="-429" font-family="Helvetica,sans-Serif" font-size="10.00">publishEvent()</text>
<polygon fill="#666666" stroke="#666666" points="102.38,-471 102.38,-471 216.12,-471 216.12,-471 102.38,-471"/>
<polygon fill="#666666" stroke="#666666" points="102.38,-455.75 102.38,-455.75 216.12,-455.75 216.12,-455.75 102.38,-455.75"/>
<polygon fill="none" stroke="#666666" points="102.38,-423.25 102.38,-488.25 216.12,-488.25 216.12,-423.25 102.38,-423.25"/>
</a>
</g>
</g>
<!-- Node3&#45;&gt;Node1 -->
<g id="edge2_Node000001_Node000003" class="edge">
<title>Node3&#45;&gt;Node1</title>
<g id="a_edge2_Node000001_Node000003"><a xlink:title=" ">
<path fill="none" stroke="#63b8ff" d="M195,-414.75C235.04,-369.95 300.53,-296.67 347.99,-243.57"/>
<polygon fill="none" stroke="#63b8ff" points="192.41,-412.4 188.35,-422.19 197.63,-417.06 192.41,-412.4"/>
</a>
</g>
</g>
<!-- Node4 -->
<g id="Node000004" class="node">
<title>Node4</title>
<g id="a_Node000004"><a xlink:title=" ">
<polygon fill="white" stroke="none" points="286,-480.62 234.5,-480.62 234.5,-430.88 286,-430.88 286,-480.62"/>
<text xml:space="preserve" text-anchor="start" x="238.5" y="-467.12" font-family="Helvetica,sans-Serif" font-size="10.00">std::string</text>
<text xml:space="preserve" text-anchor="start" x="258.75" y="-451.88" font-family="Helvetica,sans-Serif" font-size="10.00"> </text>
<text xml:space="preserve" text-anchor="start" x="258.75" y="-436.62" font-family="Helvetica,sans-Serif" font-size="10.00"> </text>
<polygon fill="#666666" stroke="#666666" points="234.5,-463.38 234.5,-463.38 286,-463.38 286,-463.38 234.5,-463.38"/>
<polygon fill="#666666" stroke="#666666" points="234.5,-448.12 234.5,-448.12 286,-448.12 286,-448.12 234.5,-448.12"/>
<polygon fill="none" stroke="#666666" points="234.5,-430.88 234.5,-480.62 286,-480.62 286,-430.88 234.5,-430.88"/>
</a>
</g>
</g>
<!-- Node4&#45;&gt;Node1 -->
<g id="edge3_Node000001_Node000004" class="edge">
<title>Node4&#45;&gt;Node1</title>
<g id="a_edge3_Node000001_Node000004"><a xlink:title=" ">
<path fill="none" stroke="#63b8ff" d="M268.57,-431.02C274.65,-414.42 283.44,-391.89 292.75,-372.75 307.24,-342.97 324.58,-311.61 341.29,-282.97"/>
<polygon fill="none" stroke="#63b8ff" points="341.36,-282.84 340.95,-275.64 347.44,-272.5 347.85,-279.7 341.36,-282.84"/>
</a>
</g>
<text xml:space="preserve" text-anchor="start" x="295.75" y="-377.5" font-family="Helvetica,sans-Serif" font-size="10.00" fill="grey">&#45;_serverIp</text>
</g>
<!-- Node5 -->
<g id="Node000005" class="node">
<title>Node5</title>
<g id="a_Node000005"><a xlink:title=" ">
<polygon fill="white" stroke="none" points="303.25,-617.75 217.25,-617.75 217.25,-556.75 303.25,-556.75 303.25,-617.75"/>
<text xml:space="preserve" text-anchor="start" x="221.25" y="-604.25" font-family="Helvetica,sans-Serif" font-size="10.00">std::basic_string&lt;</text>
<text xml:space="preserve" text-anchor="start" x="243.75" y="-593" font-family="Helvetica,sans-Serif" font-size="10.00"> Char &gt;</text>
<text xml:space="preserve" text-anchor="start" x="258.75" y="-577.75" font-family="Helvetica,sans-Serif" font-size="10.00"> </text>
<text xml:space="preserve" text-anchor="start" x="258.75" y="-562.5" font-family="Helvetica,sans-Serif" font-size="10.00"> </text>
<polygon fill="#666666" stroke="#666666" points="217.25,-589.25 217.25,-589.25 303.25,-589.25 303.25,-589.25 217.25,-589.25"/>
<polygon fill="#666666" stroke="#666666" points="217.25,-574 217.25,-574 303.25,-574 303.25,-574 217.25,-574"/>
<polygon fill="none" stroke="#666666" points="217.25,-556.75 217.25,-617.75 303.25,-617.75 303.25,-556.75 217.25,-556.75"/>
</a>
</g>
</g>
<!-- Node5&#45;&gt;Node4 -->
<g id="edge4_Node000004_Node000005" class="edge">
<title>Node5&#45;&gt;Node4</title>
<g id="a_edge4_Node000004_Node000005"><a xlink:title=" ">
<path fill="none" stroke="#63b8ff" d="M260.25,-545.46C260.25,-524.04 260.25,-498.55 260.25,-480.4"/>
<polygon fill="none" stroke="#63b8ff" points="256.75,-545.35 260.25,-555.35 263.75,-545.35 256.75,-545.35"/>
</a>
</g>
</g>
<!-- Node6 -->
<g id="Node000006" class="node">
<title>Node6</title>
<g id="a_Node000006"><a xlink:title=" ">
<polygon fill="white" stroke="none" points="358.5,-480.62 304,-480.62 304,-430.88 358.5,-430.88 358.5,-480.62"/>
<text xml:space="preserve" text-anchor="start" x="308" y="-467.12" font-family="Helvetica,sans-Serif" font-size="10.00">std::thread</text>
<text xml:space="preserve" text-anchor="start" x="329.75" y="-451.88" font-family="Helvetica,sans-Serif" font-size="10.00"> </text>
<text xml:space="preserve" text-anchor="start" x="329.75" y="-436.62" font-family="Helvetica,sans-Serif" font-size="10.00"> </text>
<polygon fill="#666666" stroke="#666666" points="304,-463.38 304,-463.38 358.5,-463.38 358.5,-463.38 304,-463.38"/>
<polygon fill="#666666" stroke="#666666" points="304,-448.12 304,-448.12 358.5,-448.12 358.5,-448.12 304,-448.12"/>
<polygon fill="none" stroke="#666666" points="304,-430.88 304,-480.62 358.5,-480.62 358.5,-430.88 304,-430.88"/>
</a>
</g>
</g>
<!-- Node6&#45;&gt;Node1 -->
<g id="edge5_Node000001_Node000006" class="edge">
<title>Node6&#45;&gt;Node1</title>
<g id="a_edge5_Node000001_Node000006"><a xlink:title=" ">
<path fill="none" stroke="#63b8ff" d="M336.51,-430.99C340.21,-414.58 345.41,-392.28 350.5,-372.75 350.98,-370.89 351.47,-369.03 351.97,-367.15"/>
<polygon fill="none" stroke="#63b8ff" points="351.97,-367.14 349.64,-360.31 355.05,-355.54 357.38,-362.37 351.97,-367.14"/>
</a>
</g>
<text xml:space="preserve" text-anchor="start" x="353.5" y="-377.5" font-family="Helvetica,sans-Serif" font-size="10.00" fill="grey">&#45;_ioThread</text>
</g>
<!-- Node7 -->
<g id="Node000007" class="node">
<title>Node7</title>
<g id="a_Node000007"><a xlink:title=" ">
<polygon fill="white" stroke="none" points="433.5,-480.62 379,-480.62 379,-430.88 433.5,-430.88 433.5,-480.62"/>
<text xml:space="preserve" text-anchor="start" x="383" y="-467.12" font-family="Helvetica,sans-Serif" font-size="10.00">std::mutex</text>
<text xml:space="preserve" text-anchor="start" x="404.75" y="-451.88" font-family="Helvetica,sans-Serif" font-size="10.00"> </text>
<text xml:space="preserve" text-anchor="start" x="404.75" y="-436.62" font-family="Helvetica,sans-Serif" font-size="10.00"> </text>
<polygon fill="#666666" stroke="#666666" points="379,-463.38 379,-463.38 433.5,-463.38 433.5,-463.38 379,-463.38"/>
<polygon fill="#666666" stroke="#666666" points="379,-448.12 379,-448.12 433.5,-448.12 433.5,-448.12 379,-448.12"/>
<polygon fill="none" stroke="#666666" points="379,-430.88 379,-480.62 433.5,-480.62 433.5,-430.88 379,-430.88"/>
</a>
</g>
</g>
<!-- Node7&#45;&gt;Node1 -->
<g id="edge6_Node000001_Node000007" class="edge">
<title>Node7&#45;&gt;Node1</title>
<g id="a_edge6_Node000001_Node000007"><a xlink:title=" ">
<path fill="none" stroke="#63b8ff" d="M406.25,-431.19C406.25,-415.33 406.25,-392.77 406.25,-367.57"/>
<polygon fill="none" stroke="#63b8ff" points="406.25,-367.5 402.25,-361.5 406.25,-355.5 410.25,-361.5 406.25,-367.5"/>
</a>
</g>
<text xml:space="preserve" text-anchor="start" x="409.25" y="-377.5" font-family="Helvetica,sans-Serif" font-size="10.00" fill="grey">&#45;_eventQueueMutex</text>
</g>
<!-- Node8 -->
<g id="Node000008" class="node">
<title>Node8</title>
<g id="a_Node000008"><a xlink:title=" ">
<polygon fill="white" stroke="none" points="695,-486.25 601.5,-486.25 601.5,-425.25 695,-425.25 695,-486.25"/>
<text xml:space="preserve" text-anchor="start" x="605.5" y="-472.75" font-family="Helvetica,sans-Serif" font-size="10.00">std::deque&lt; rtp::net</text>
<text xml:space="preserve" text-anchor="start" x="609.62" y="-461.5" font-family="Helvetica,sans-Serif" font-size="10.00">::NetworkEvent &gt;</text>
<text xml:space="preserve" text-anchor="start" x="646.75" y="-446.25" font-family="Helvetica,sans-Serif" font-size="10.00"> </text>
<text xml:space="preserve" text-anchor="start" x="646.75" y="-431" font-family="Helvetica,sans-Serif" font-size="10.00"> </text>
<polygon fill="#666666" stroke="#666666" points="601.5,-457.75 601.5,-457.75 695,-457.75 695,-457.75 601.5,-457.75"/>
<polygon fill="#666666" stroke="#666666" points="601.5,-442.5 601.5,-442.5 695,-442.5 695,-442.5 601.5,-442.5"/>
<polygon fill="none" stroke="#666666" points="601.5,-425.25 601.5,-486.25 695,-486.25 695,-425.25 601.5,-425.25"/>
</a>
</g>
</g>
<!-- Node8&#45;&gt;Node1 -->
<g id="edge7_Node000001_Node000008" class="edge">
<title>Node8&#45;&gt;Node1</title>
<g id="a_edge7_Node000001_Node000008"><a xlink:title=" ">
<path fill="none" stroke="#63b8ff" d="M622.58,-425.43C587.28,-385.12 522.49,-311.13 472.99,-254.59"/>
<polygon fill="none" stroke="#63b8ff" points="473.06,-254.67 466.1,-252.79 465.15,-245.65 472.12,-247.52 473.06,-254.67"/>
</a>
</g>
<text xml:space="preserve" text-anchor="start" x="592.77" y="-377.5" font-family="Helvetica,sans-Serif" font-size="10.00" fill="grey">&#45;_eventQueue</text>
</g>
<!-- Node9 -->
<g id="Node000009" class="node">
<title>Node9</title>
<g id="a_Node000009"><a xlink:href="structrtp_1_1net_1_1NetworkEvent.html" target="_top" xlink:title="Represents a network event containing session ID and packet data.">
<polygon fill="white" stroke="none" points="701.75,-612.12 594.75,-612.12 594.75,-562.38 701.75,-562.38 701.75,-612.12"/>
<text xml:space="preserve" text-anchor="start" x="598.75" y="-598.62" font-family="Helvetica,sans-Serif" font-size="10.00">rtp::net::NetworkEvent</text>
<text xml:space="preserve" text-anchor="start" x="610.5" y="-583.38" font-family="Helvetica,sans-Serif" font-size="10.00">+</text>
<text xml:space="preserve" text-anchor="start" x="632.25" y="-583.38" font-family="Helvetica,sans-Serif" font-size="10.00">sessionId</text>
<text xml:space="preserve" text-anchor="start" x="646.75" y="-568.12" font-family="Helvetica,sans-Serif" font-size="10.00"> </text>
<polygon fill="#666666" stroke="#666666" points="594.75,-594.88 594.75,-594.88 701.75,-594.88 701.75,-594.88 594.75,-594.88"/>
<polygon fill="#666666" stroke="#666666" points="594.75,-579.62 594.75,-579.62 630.25,-579.62 630.25,-579.62 594.75,-579.62"/>
<polygon fill="#666666" stroke="#666666" points="630.25,-579.62 630.25,-579.62 701.75,-579.62 701.75,-579.62 630.25,-579.62"/>
<polygon fill="none" stroke="#666666" points="594.75,-562.38 594.75,-612.12 701.75,-612.12 701.75,-562.38 594.75,-562.38"/>
</a>
</g>
</g>
<!-- Node9&#45;&gt;Node8 -->
<g id="edge8_Node000008_Node000009" class="edge">
<title>Node9&#45;&gt;Node8</title>
<g id="a_edge8_Node000008_Node000009"><a xlink:title=" ">
<path fill="none" stroke="#63b8ff" d="M648.25,-562.5C648.25,-544.68 648.25,-519.84 648.25,-498.7"/>
<polygon fill="none" stroke="#63b8ff" points="648.25,-498.69 644.25,-492.69 648.25,-486.69 652.25,-492.69 648.25,-498.69"/>
</a>
</g>
<text xml:space="preserve" text-anchor="start" x="651.25" y="-526.25" font-family="Helvetica,sans-Serif" font-size="10.00" fill="grey">+elements</text>
</g>
<!-- Node10 -->
<g id="Node000010" class="node">
<title>Node10</title>
<g id="a_Node000010"><a xlink:href="classrtp_1_1net_1_1Packet.html" target="_top" xlink:title="Network packet with header and serializable body.">
<polygon fill="white" stroke="none" points="710.62,-903.75 577.88,-903.75 577.88,-671 710.62,-671 710.62,-903.75"/>
<text xml:space="preserve" text-anchor="start" x="610.5" y="-890.25" font-family="Helvetica,sans-Serif" font-size="10.00">rtp::net::Packet</text>
<text xml:space="preserve" text-anchor="start" x="583.38" y="-875" font-family="Helvetica,sans-Serif" font-size="10.00">&#45;</text>
<text xml:space="preserve" text-anchor="start" x="591.88" y="-875" font-family="Helvetica,sans-Serif" font-size="10.00">_readPos</text>
<text xml:space="preserve" text-anchor="start" x="581.88" y="-859.75" font-family="Helvetica,sans-Serif" font-size="10.00">+</text>
<text xml:space="preserve" text-anchor="start" x="591.88" y="-859.75" font-family="Helvetica,sans-Serif" font-size="10.00">Packet()</text>
<text xml:space="preserve" text-anchor="start" x="581.88" y="-844.5" font-family="Helvetica,sans-Serif" font-size="10.00">+</text>
<text xml:space="preserve" text-anchor="start" x="591.88" y="-844.5" font-family="Helvetica,sans-Serif" font-size="10.00">Packet()</text>
<text xml:space="preserve" text-anchor="start" x="581.88" y="-829.25" font-family="Helvetica,sans-Serif" font-size="10.00">+</text>
<text xml:space="preserve" text-anchor="start" x="591.88" y="-829.25" font-family="Helvetica,sans-Serif" font-size="10.00">resetRead()</text>
<text xml:space="preserve" text-anchor="start" x="581.88" y="-814" font-family="Helvetica,sans-Serif" font-size="10.00">+</text>
<text xml:space="preserve" text-anchor="start" x="591.88" y="-814" font-family="Helvetica,sans-Serif" font-size="10.00">getBufferSequence()</text>
<text xml:space="preserve" text-anchor="start" x="581.88" y="-798.75" font-family="Helvetica,sans-Serif" font-size="10.00">+</text>
<text xml:space="preserve" text-anchor="start" x="591.88" y="-798.75" font-family="Helvetica,sans-Serif" font-size="10.00">operator&lt;&lt;()</text>
<text xml:space="preserve" text-anchor="start" x="581.88" y="-783.5" font-family="Helvetica,sans-Serif" font-size="10.00">+</text>
<text xml:space="preserve" text-anchor="start" x="591.88" y="-783.5" font-family="Helvetica,sans-Serif" font-size="10.00">operator&lt;&lt;()</text>
<text xml:space="preserve" text-anchor="start" x="581.88" y="-768.25" font-family="Helvetica,sans-Serif" font-size="10.00">+</text>
<text xml:space="preserve" text-anchor="start" x="591.88" y="-768.25" font-family="Helvetica,sans-Serif" font-size="10.00">operator&lt;&lt;()</text>
<text xml:space="preserve" text-anchor="start" x="581.88" y="-753" font-family="Helvetica,sans-Serif" font-size="10.00">+</text>
<text xml:space="preserve" text-anchor="start" x="591.88" y="-753" font-family="Helvetica,sans-Serif" font-size="10.00">operator&gt;&gt;()</text>
<text xml:space="preserve" text-anchor="start" x="581.88" y="-737.75" font-family="Helvetica,sans-Serif" font-size="10.00">+</text>
<text xml:space="preserve" text-anchor="start" x="591.88" y="-737.75" font-family="Helvetica,sans-Serif" font-size="10.00">operator&gt;&gt;()</text>
<text xml:space="preserve" text-anchor="start" x="581.88" y="-722.5" font-family="Helvetica,sans-Serif" font-size="10.00">+</text>
<text xml:space="preserve" text-anchor="start" x="591.88" y="-722.5" font-family="Helvetica,sans-Serif" font-size="10.00">operator&gt;&gt;()</text>
<text xml:space="preserve" text-anchor="start" x="581.88" y="-707.25" font-family="Helvetica,sans-Serif" font-size="10.00">+</text>
<text xml:space="preserve" text-anchor="start" x="591.88" y="-707.25" font-family="Helvetica,sans-Serif" font-size="10.00">to_network()</text>
<text xml:space="preserve" text-anchor="start" x="581.88" y="-692" font-family="Helvetica,sans-Serif" font-size="10.00">+</text>
<text xml:space="preserve" text-anchor="start" x="591.88" y="-692" font-family="Helvetica,sans-Serif" font-size="10.00">from_network()</text>
<text xml:space="preserve" text-anchor="start" x="583.38" y="-676.75" font-family="Helvetica,sans-Serif" font-size="10.00">&#45;</text>
<text xml:space="preserve" text-anchor="start" x="591.88" y="-676.75" font-family="Helvetica,sans-Serif" font-size="10.00">_bumpBodySizeOrThrow()</text>
<polygon fill="#666666" stroke="#666666" points="577.88,-886.5 577.88,-886.5 710.62,-886.5 710.62,-886.5 577.88,-886.5"/>
<polygon fill="#666666" stroke="#666666" points="577.88,-871.25 577.88,-871.25 589.88,-871.25 589.88,-871.25 577.88,-871.25"/>
<polygon fill="#666666" stroke="#666666" points="589.88,-871.25 589.88,-871.25 710.62,-871.25 710.62,-871.25 589.88,-871.25"/>
<polygon fill="none" stroke="#666666" points="577.88,-671 577.88,-903.75 710.62,-903.75 710.62,-671 577.88,-671"/>
</a>
</g>
</g>
<!-- Node10&#45;&gt;Node9 -->
<g id="edge9_Node000009_Node000010" class="edge">
<title>Node10&#45;&gt;Node9</title>
<g id="a_edge9_Node000009_Node000010"><a xlink:title=" ">
<path fill="none" stroke="#63b8ff" d="M646.58,-671.12C646.91,-654.44 647.24,-638.39 647.51,-624.93"/>
<polygon fill="none" stroke="#63b8ff" points="647.51,-624.83 643.63,-618.75 647.75,-612.83 651.63,-618.91 647.51,-624.83"/>
</a>
</g>
<text xml:space="preserve" text-anchor="start" x="650.28" y="-640.5" font-family="Helvetica,sans-Serif" font-size="10.00" fill="grey">+packet</text>
</g>
<!-- Node11 -->
<g id="Node000011" class="node">
<title>Node11</title>
<g id="a_Node000011"><a xlink:href="structrtp_1_1net_1_1Header.html" target="_top" xlink:title="Packet header with sequencing and acknowledgment support.">
<polygon fill="white" stroke="none" points="563.38,-1130.75 487.12,-1130.75 487.12,-989.5 563.38,-989.5 563.38,-1130.75"/>
<text xml:space="preserve" text-anchor="start" x="491.12" y="-1117.25" font-family="Helvetica,sans-Serif" font-size="10.00">rtp::net::Header</text>
<text xml:space="preserve" text-anchor="start" x="493.12" y="-1102" font-family="Helvetica,sans-Serif" font-size="10.00">+</text>
<text xml:space="preserve" text-anchor="start" x="505.12" y="-1102" font-family="Helvetica,sans-Serif" font-size="10.00">magic</text>
<text xml:space="preserve" text-anchor="start" x="493.12" y="-1086.75" font-family="Helvetica,sans-Serif" font-size="10.00">+</text>
<text xml:space="preserve" text-anchor="start" x="505.12" y="-1086.75" font-family="Helvetica,sans-Serif" font-size="10.00">sequenceId</text>
<text xml:space="preserve" text-anchor="start" x="493.12" y="-1071.5" font-family="Helvetica,sans-Serif" font-size="10.00">+</text>
<text xml:space="preserve" text-anchor="start" x="505.12" y="-1071.5" font-family="Helvetica,sans-Serif" font-size="10.00">bodySize</text>
<text xml:space="preserve" text-anchor="start" x="493.12" y="-1056.25" font-family="Helvetica,sans-Serif" font-size="10.00">+</text>
<text xml:space="preserve" text-anchor="start" x="505.12" y="-1056.25" font-family="Helvetica,sans-Serif" font-size="10.00">ackId</text>
<text xml:space="preserve" text-anchor="start" x="493.12" y="-1041" font-family="Helvetica,sans-Serif" font-size="10.00">+</text>
<text xml:space="preserve" text-anchor="start" x="505.12" y="-1041" font-family="Helvetica,sans-Serif" font-size="10.00">opCode</text>
<text xml:space="preserve" text-anchor="start" x="493.12" y="-1025.75" font-family="Helvetica,sans-Serif" font-size="10.00">+</text>
<text xml:space="preserve" text-anchor="start" x="505.12" y="-1025.75" font-family="Helvetica,sans-Serif" font-size="10.00">reserved</text>
<text xml:space="preserve" text-anchor="start" x="493.12" y="-1010.5" font-family="Helvetica,sans-Serif" font-size="10.00">+</text>
<text xml:space="preserve" text-anchor="start" x="505.12" y="-1010.5" font-family="Helvetica,sans-Serif" font-size="10.00">sessionId</text>
<text xml:space="preserve" text-anchor="start" x="523.75" y="-995.25" font-family="Helvetica,sans-Serif" font-size="10.00"> </text>
<polygon fill="#666666" stroke="#666666" points="487.12,-1113.5 487.12,-1113.5 563.38,-1113.5 563.38,-1113.5 487.12,-1113.5"/>
<polygon fill="#666666" stroke="#666666" points="487.12,-1006.75 487.12,-1006.75 503.12,-1006.75 503.12,-1006.75 487.12,-1006.75"/>
<polygon fill="#666666" stroke="#666666" points="503.12,-1006.75 503.12,-1006.75 563.38,-1006.75 563.38,-1006.75 503.12,-1006.75"/>
<polygon fill="none" stroke="#666666" points="487.12,-989.5 487.12,-1130.75 563.38,-1130.75 563.38,-989.5 487.12,-989.5"/>
</a>
</g>
</g>
<!-- Node11&#45;&gt;Node1 -->
<g id="edge16_Node000001_Node000011" class="edge">
<title>Node11&#45;&gt;Node1</title>
<g id="a_edge16_Node000001_Node000011"><a xlink:title=" ">
<path fill="none" stroke="#63b8ff" d="M521.27,-989.59C518.48,-934.92 515.25,-856.81 515.25,-788.38 515.25,-788.38 515.25,-788.38 515.25,-454.75 515.25,-396.49 494.03,-335.85 470.32,-286.26"/>
<polygon fill="none" stroke="#63b8ff" points="470.26,-286.13 464.03,-282.51 464.98,-275.36 471.21,-278.98 470.26,-286.13"/>
</a>
</g>
<text xml:space="preserve" text-anchor="start" x="518.25" y="-591" font-family="Helvetica,sans-Serif" font-size="10.00" fill="grey">&#45;_tcpHeader</text>
<text xml:space="preserve" text-anchor="start" x="518.25" y="-575.75" font-family="Helvetica,sans-Serif" font-size="10.00" fill="grey">&#45;_udpHeader</text>
</g>
<!-- Node11&#45;&gt;Node10 -->
<g id="edge10_Node000010_Node000011" class="edge">
<title>Node11&#45;&gt;Node10</title>
<g id="a_edge10_Node000010_Node000011"><a xlink:title=" ">
<path fill="none" stroke="#63b8ff" d="M555.74,-989.75C565.74,-966.99 577.19,-940.94 588.47,-915.29"/>
<polygon fill="none" stroke="#63b8ff" points="588.44,-915.36 587.19,-908.26 593.26,-904.38 594.51,-911.48 588.44,-915.36"/>
</a>
</g>
<text xml:space="preserve" text-anchor="start" x="587.75" y="-950.38" font-family="Helvetica,sans-Serif" font-size="10.00" fill="grey">+header</text>
<text xml:space="preserve" text-anchor="start" x="587.75" y="-935.12" font-family="Helvetica,sans-Serif" font-size="10.00" fill="grey">&#45;_cacheHeader</text>
</g>
<!-- Node12 -->
<g id="Node000012" class="node">
<title>Node12</title>
<g id="a_Node000012"><a xlink:title=" ">
<polygon fill="white" stroke="none" points="775.12,-1085 673.38,-1085 673.38,-1035.25 775.12,-1035.25 775.12,-1085"/>
<text xml:space="preserve" text-anchor="start" x="677.38" y="-1071.5" font-family="Helvetica,sans-Serif" font-size="10.00">std::vector&lt; uint8_t &gt;</text>
<text xml:space="preserve" text-anchor="start" x="688.38" y="-1056.25" font-family="Helvetica,sans-Serif" font-size="10.00">+</text>
<text xml:space="preserve" text-anchor="start" x="709.38" y="-1056.25" font-family="Helvetica,sans-Serif" font-size="10.00">elements</text>
<text xml:space="preserve" text-anchor="start" x="722.75" y="-1041" font-family="Helvetica,sans-Serif" font-size="10.00"> </text>
<polygon fill="#666666" stroke="#666666" points="673.38,-1067.75 673.38,-1067.75 775.12,-1067.75 775.12,-1067.75 673.38,-1067.75"/>
<polygon fill="#666666" stroke="#666666" points="673.38,-1052.5 673.38,-1052.5 707.38,-1052.5 707.38,-1052.5 673.38,-1052.5"/>
<polygon fill="#666666" stroke="#666666" points="707.38,-1052.5 707.38,-1052.5 775.12,-1052.5 775.12,-1052.5 707.38,-1052.5"/>
<polygon fill="none" stroke="#666666" points="673.38,-1035.25 673.38,-1085 775.12,-1085 775.12,-1035.25 673.38,-1035.25"/>
</a>
</g>
</g>
<!-- Node12&#45;&gt;Node1 -->
<g id="edge17_Node000001_Node000012" class="edge">
<title>Node12&#45;&gt;Node1</title>
<g id="a_edge17_Node000001_Node000012"><a xlink:title=" ">
<path fill="none" stroke="#63b8ff" d="M726.29,-1035.61C730.17,-988.65 738.25,-879.92 738.25,-788.38 738.25,-788.38 738.25,-788.38 738.25,-454.75 738.25,-319.72 574.02,-237.92 476.58,-201.26"/>
<polygon fill="none" stroke="#63b8ff" points="476.57,-201.26 469.56,-202.94 465.31,-197.12 472.32,-195.44 476.57,-201.26"/>
</a>
</g>
<text xml:space="preserve" text-anchor="start" x="741.25" y="-583.38" font-family="Helvetica,sans-Serif" font-size="10.00" fill="grey">&#45;_tcpBody</text>
</g>
<!-- Node12&#45;&gt;Node10 -->
<g id="edge11_Node000010_Node000012" class="edge">
<title>Node12&#45;&gt;Node10</title>
<g id="a_edge11_Node000010_Node000012"><a xlink:title=" ">
<path fill="none" stroke="#63b8ff" d="M714.58,-1035.57C707.59,-1018.07 698.2,-993.51 691.25,-971.5 685.64,-953.74 680.22,-934.86 675.16,-916.22"/>
<polygon fill="none" stroke="#63b8ff" points="675.14,-916.16 669.73,-911.4 672.04,-904.57 677.46,-909.33 675.14,-916.16"/>
</a>
</g>
<text xml:space="preserve" text-anchor="start" x="694.25" y="-942.75" font-family="Helvetica,sans-Serif" font-size="10.00" fill="grey">+body</text>
</g>
<!-- Node13 -->
<g id="Node000013" class="node">
<title>Node13</title>
<g id="a_Node000013"><a xlink:title=" ">
<polygon fill="white" stroke="none" points="774.5,-1266.25 696,-1266.25 696,-1216.5 774.5,-1216.5 774.5,-1266.25"/>
<text xml:space="preserve" text-anchor="start" x="700" y="-1252.75" font-family="Helvetica,sans-Serif" font-size="10.00">std::vector&lt; T &gt;</text>
<text xml:space="preserve" text-anchor="start" x="733.75" y="-1237.5" font-family="Helvetica,sans-Serif" font-size="10.00"> </text>
<text xml:space="preserve" text-anchor="start" x="733.75" y="-1222.25" font-family="Helvetica,sans-Serif" font-size="10.00"> </text>
<polygon fill="#666666" stroke="#666666" points="696,-1249 696,-1249 774.5,-1249 774.5,-1249 696,-1249"/>
<polygon fill="#666666" stroke="#666666" points="696,-1233.75 696,-1233.75 774.5,-1233.75 774.5,-1233.75 696,-1233.75"/>
<polygon fill="none" stroke="#666666" points="696,-1216.5 696,-1266.25 774.5,-1266.25 774.5,-1216.5 696,-1216.5"/>
</a>
</g>
</g>
<!-- Node13&#45;&gt;Node12 -->
<g id="edge12_Node000012_Node000013" class="edge">
<title>Node13&#45;&gt;Node12</title>
<g id="a_edge12_Node000012_Node000013"><a xlink:title=" ">
<path fill="none" stroke="orange" d="M721.67,-1206.02C721.01,-1203.5 720.44,-1200.98 720,-1198.5 713.04,-1159.02 717.04,-1112.2 720.62,-1084.67"/>
<polygon fill="orange" stroke="orange" points="718.29,-1206.91 724.61,-1215.41 724.97,-1204.82 718.29,-1206.91"/>
</a>
</g>
<text xml:space="preserve" text-anchor="start" x="723" y="-1169.75" font-family="Helvetica,sans-Serif" font-size="10.00" fill="grey">&lt; uint8_t &gt;</text>
</g>
<!-- Node14 -->
<g id="Node000014" class="node">
<title>Node14</title>
<g id="a_Node000014"><a xlink:title=" ">
<polygon fill="white" stroke="none" points="828.25,-1369.25 814.25,-1369.25 814.25,-1319.5 828.25,-1319.5 828.25,-1369.25"/>
<text xml:space="preserve" text-anchor="start" x="818.25" y="-1355.75" font-family="Helvetica,sans-Serif" font-size="10.00">T</text>
<text xml:space="preserve" text-anchor="start" x="819.75" y="-1340.5" font-family="Helvetica,sans-Serif" font-size="10.00"> </text>
<text xml:space="preserve" text-anchor="start" x="819.75" y="-1325.25" font-family="Helvetica,sans-Serif" font-size="10.00"> </text>
<polygon fill="#666666" stroke="#666666" points="814.25,-1352 814.25,-1352 828.25,-1352 828.25,-1352 814.25,-1352"/>
<polygon fill="#666666" stroke="#666666" points="814.25,-1336.75 814.25,-1336.75 828.25,-1336.75 828.25,-1336.75 814.25,-1336.75"/>
<polygon fill="none" stroke="#666666" points="814.25,-1319.5 814.25,-1369.25 828.25,-1369.25 828.25,-1319.5 814.25,-1319.5"/>
</a>
</g>
</g>
<!-- Node14&#45;&gt;Node13 -->
<g id="edge13_Node000013_Node000014" class="edge">
<title>Node14&#45;&gt;Node13</title>
<g id="a_edge13_Node000013_Node000014"><a xlink:title=" ">
<path fill="none" stroke="#63b8ff" d="M814.25,-1341.53C799.39,-1337.23 764.66,-1325.07 747.5,-1301.5 742.7,-1294.91 739.68,-1286.86 737.81,-1278.85"/>
<polygon fill="none" stroke="#63b8ff" points="737.81,-1278.82 732.87,-1273.56 735.83,-1266.98 740.76,-1272.24 737.81,-1278.82"/>
</a>
</g>
<text xml:space="preserve" text-anchor="start" x="750.5" y="-1289" font-family="Helvetica,sans-Serif" font-size="10.00" fill="grey">+elements</text>
</g>
<!-- Node15 -->
<g id="Node000015" class="node">
<title>Node15</title>
<g id="a_Node000015"><a xlink:title=" ">
<polygon fill="white" stroke="none" points="860.12,-1198.5 782.38,-1198.5 782.38,-1148.75 860.12,-1148.75 860.12,-1198.5"/>
<text xml:space="preserve" text-anchor="start" x="786.38" y="-1185" font-family="Helvetica,sans-Serif" font-size="10.00">std::deque&lt; T &gt;</text>
<text xml:space="preserve" text-anchor="start" x="819.75" y="-1169.75" font-family="Helvetica,sans-Serif" font-size="10.00"> </text>
<text xml:space="preserve" text-anchor="start" x="819.75" y="-1154.5" font-family="Helvetica,sans-Serif" font-size="10.00"> </text>
<polygon fill="#666666" stroke="#666666" points="782.38,-1181.25 782.38,-1181.25 860.12,-1181.25 860.12,-1181.25 782.38,-1181.25"/>
<polygon fill="#666666" stroke="#666666" points="782.38,-1166 782.38,-1166 860.12,-1166 860.12,-1166 782.38,-1166"/>
<polygon fill="none" stroke="#666666" points="782.38,-1148.75 782.38,-1198.5 860.12,-1198.5 860.12,-1148.75 782.38,-1148.75"/>
</a>
</g>
</g>
<!-- Node14&#45;&gt;Node15 -->
<g id="edge15_Node000015_Node000014" class="edge">
<title>Node14&#45;&gt;Node15</title>
<g id="a_edge15_Node000015_Node000014"><a xlink:title=" ">
<path fill="none" stroke="#63b8ff" d="M821.25,-1319.56C821.25,-1291.29 821.25,-1243.86 821.25,-1210.99"/>
<polygon fill="none" stroke="#63b8ff" points="821.25,-1211.23 817.25,-1205.23 821.25,-1199.23 825.25,-1205.23 821.25,-1211.23"/>
</a>
</g>
<text xml:space="preserve" text-anchor="start" x="824.25" y="-1289" font-family="Helvetica,sans-Serif" font-size="10.00" fill="grey">+elements</text>
</g>
<!-- Node17 -->
<g id="Node000017" class="node">
<title>Node17</title>
<g id="a_Node000017"><a xlink:title=" ">
<polygon fill="white" stroke="none" points="943.88,-1266.25 870.62,-1266.25 870.62,-1216.5 943.88,-1216.5 943.88,-1266.25"/>
<text xml:space="preserve" text-anchor="start" x="874.62" y="-1252.75" font-family="Helvetica,sans-Serif" font-size="10.00">std::array&lt; T &gt;</text>
<text xml:space="preserve" text-anchor="start" x="905.75" y="-1237.5" font-family="Helvetica,sans-Serif" font-size="10.00"> </text>
<text xml:space="preserve" text-anchor="start" x="905.75" y="-1222.25" font-family="Helvetica,sans-Serif" font-size="10.00"> </text>
<polygon fill="#666666" stroke="#666666" points="870.62,-1249 870.62,-1249 943.88,-1249 943.88,-1249 870.62,-1249"/>
<polygon fill="#666666" stroke="#666666" points="870.62,-1233.75 870.62,-1233.75 943.88,-1233.75 943.88,-1233.75 870.62,-1233.75"/>
<polygon fill="none" stroke="#666666" points="870.62,-1216.5 870.62,-1266.25 943.88,-1266.25 943.88,-1216.5 870.62,-1216.5"/>
</a>
</g>
</g>
<!-- Node14&#45;&gt;Node17 -->
<g id="edge20_Node000017_Node000014" class="edge">
<title>Node14&#45;&gt;Node17</title>
<g id="a_edge20_Node000017_Node000014"><a xlink:title=" ">
<path fill="none" stroke="#63b8ff" d="M827.9,-1339.78C839.25,-1333.36 862.56,-1318.97 877.25,-1301.5 883.17,-1294.46 888.32,-1286.04 892.6,-1277.81"/>
<polygon fill="none" stroke="#63b8ff" points="892.67,-1277.68 891.65,-1270.54 897.85,-1266.86 898.87,-1274 892.67,-1277.68"/>
</a>
</g>
<text xml:space="preserve" text-anchor="start" x="891.58" y="-1289" font-family="Helvetica,sans-Serif" font-size="10.00" fill="grey">+elements</text>
</g>
<!-- Node15&#45;&gt;Node8 -->
<g id="edge14_Node000008_Node000015" class="edge">
<title>Node15&#45;&gt;Node8</title>
<g id="a_edge14_Node000008_Node000015"><a xlink:title=" ">
<path fill="none" stroke="orange" d="M819.99,-1137.72C818.51,-1093.49 816.25,-1014.91 816.25,-947.62 816.25,-947.62 816.25,-947.62 816.25,-586.25 816.25,-524.57 744.33,-488.16 694.6,-470.36"/>
<polygon fill="orange" stroke="orange" points="816.49,-1137.59 820.33,-1147.47 823.48,-1137.35 816.49,-1137.59"/>
</a>
</g>
<text xml:space="preserve" text-anchor="start" x="819.25" y="-783.5" font-family="Helvetica,sans-Serif" font-size="10.00" fill="grey">&lt; rtp::net::NetworkEvent &gt;</text>
</g>
<!-- Node16 -->
<g id="Node000016" class="node">
<title>Node16</title>
<g id="a_Node000016"><a xlink:title=" ">
<polygon fill="white" stroke="none" points="1023,-971.5 905.5,-971.5 905.5,-921.75 1023,-921.75 1023,-971.5"/>
<text xml:space="preserve" text-anchor="start" x="909.5" y="-958" font-family="Helvetica,sans-Serif" font-size="10.00">std::array&lt; char, 65536 &gt;</text>
<text xml:space="preserve" text-anchor="start" x="924.44" y="-942.75" font-family="Helvetica,sans-Serif" font-size="10.00">+</text>
<text xml:space="preserve" text-anchor="start" x="949.38" y="-942.75" font-family="Helvetica,sans-Serif" font-size="10.00">elements</text>
<text xml:space="preserve" text-anchor="start" x="962.75" y="-927.5" font-family="Helvetica,sans-Serif" font-size="10.00"> </text>
<polygon fill="#666666" stroke="#666666" points="905.5,-954.25 905.5,-954.25 1023,-954.25 1023,-954.25 905.5,-954.25"/>
<polygon fill="#666666" stroke="#666666" points="905.5,-939 905.5,-939 947.38,-939 947.38,-939 905.5,-939"/>
<polygon fill="#666666" stroke="#666666" points="947.38,-939 947.38,-939 1023,-939 1023,-939 947.38,-939"/>
<polygon fill="none" stroke="#666666" points="905.5,-921.75 905.5,-971.5 1023,-971.5 1023,-921.75 905.5,-921.75"/>
</a>
</g>
</g>
<!-- Node16&#45;&gt;Node1 -->
<g id="edge18_Node000001_Node000016" class="edge">
<title>Node16&#45;&gt;Node1</title>
<g id="a_edge18_Node000001_Node000016"><a xlink:title=" ">
<path fill="none" stroke="#63b8ff" d="M964.65,-921.88C965.46,-871.13 967.25,-748.33 967.25,-645.38 967.25,-645.38 967.25,-645.38 967.25,-454.75 967.25,-238.61 628.01,-191.5 477.14,-181.23"/>
<polygon fill="none" stroke="#63b8ff" points="477.31,-181.24 471.07,-184.86 465.34,-180.48 471.58,-176.87 477.31,-181.24"/>
</a>
</g>
<text xml:space="preserve" text-anchor="start" x="970.25" y="-583.38" font-family="Helvetica,sans-Serif" font-size="10.00" fill="grey">&#45;_udpBuffer</text>
</g>
<!-- Node17&#45;&gt;Node16 -->
<g id="edge19_Node000016_Node000017" class="edge">
<title>Node17&#45;&gt;Node16</title>
<g id="a_edge19_Node000016_Node000017"><a xlink:title=" ">
<path fill="none" stroke="orange" d="M914,-1205.72C925.74,-1145.42 949.63,-1022.69 959.66,-971.2"/>
<polygon fill="orange" stroke="orange" points="910.58,-1204.94 912.11,-1215.43 917.45,-1206.28 910.58,-1204.94"/>
</a>
</g>
<text xml:space="preserve" text-anchor="start" x="928" y="-1169.75" font-family="Helvetica,sans-Serif" font-size="10.00" fill="grey">&lt; char, 65536 &gt;</text>
</g>
</g>
</svg>
