<?xml version="1.0" encoding="UTF-8" standalone="no"?>
<!DOCTYPE svg PUBLIC "-//W3C//DTD SVG 1.1//EN"
 "http://www.w3.org/Graphics/SVG/1.1/DTD/svg11.dtd">
<!-- Generated by graphviz version 14.0.5 (20251129.0259)
 -->
<!-- Title: rtp::client::ParallaxSystem Pages: 1 -->
<svg width="132pt" height="174pt"
 viewBox="0.00 0.00 132.00 174.00" xmlns="http://www.w3.org/2000/svg" xmlns:xlink="http://www.w3.org/1999/xlink">

<svg id="main" version="1.1" xmlns="http://www.w3.org/2000/svg" xmlns:xlink="http://www.w3.org/1999/xlink" xml:space="preserve">

<style type="text/css"><![CDATA[
.node, .edge {opacity: 0.7;}
.node.selected, .edge.selected {opacity: 1;}
.edge:hover path { stroke: red; }
.edge:hover polygon { stroke: red; fill: red; }
]]></style>
<script type="application/ecmascript" xlink:href="svg.min.js"/>
<svg id="graph" class="graph">
<g id="graph0" class="graph" transform="scale(1 1) rotate(0) translate(4 170)">
<title>rtp::client::ParallaxSystem</title>
<!-- Node1 -->
<g id="Node000001" class="node">
<title>Node1</title>
<g id="a_Node000001"><a xlink:title=" ">
<polygon fill="#999999" stroke="none" points="123.5,-65 0,-65 0,0 123.5,0 123.5,-65"/>
<text xml:space="preserve" text-anchor="start" x="4" y="-51.5" font-family="Helvetica,sans-Serif" font-size="10.00">rtp::client::ParallaxSystem</text>
<text xml:space="preserve" text-anchor="start" x="13.12" y="-36.25" font-family="Helvetica,sans-Serif" font-size="10.00">&#45;</text>
<text xml:space="preserve" text-anchor="start" x="29.25" y="-36.25" font-family="Helvetica,sans-Serif" font-size="10.00">_r</text>
<text xml:space="preserve" text-anchor="start" x="11.62" y="-21" font-family="Helvetica,sans-Serif" font-size="10.00">+</text>
<text xml:space="preserve" text-anchor="start" x="29.25" y="-21" font-family="Helvetica,sans-Serif" font-size="10.00">ParallaxSystem()</text>
<text xml:space="preserve" text-anchor="start" x="11.62" y="-5.75" font-family="Helvetica,sans-Serif" font-size="10.00">+</text>
<text xml:space="preserve" text-anchor="start" x="29.25" y="-5.75" font-family="Helvetica,sans-Serif" font-size="10.00">update()</text>
<polygon fill="#666666" stroke="#666666" points="0,-47.75 0,-47.75 123.5,-47.75 123.5,-47.75 0,-47.75"/>
<polygon fill="#666666" stroke="#666666" points="0,-32.5 0,-32.5 27.25,-32.5 27.25,-32.5 0,-32.5"/>
<polygon fill="#666666" stroke="#666666" points="27.25,-32.5 27.25,-32.5 123.5,-32.5 123.5,-32.5 27.25,-32.5"/>
<polygon fill="none" stroke="#666666" points="0,0 0,-65 123.5,-65 123.5,0 0,0"/>
</a>
</g>
</g>
<!-- Node2 -->
<g id="Node000002" class="node">
<title>Node2</title>
<g id="a_Node000002"><a xlink:href="classrtp_1_1ecs_1_1ISystem.html" target="_top" xlink:title="Abstract base class for all ECS systems.">
<polygon fill="white" stroke="none" points="103.62,-166 19.88,-166 19.88,-101 103.62,-101 103.62,-166"/>
<text xml:space="preserve" text-anchor="start" x="23.88" y="-152.5" font-family="Helvetica,sans-Serif" font-size="10.00">rtp::ecs::ISystem</text>
<text xml:space="preserve" text-anchor="start" x="60.25" y="-137.25" font-family="Helvetica,sans-Serif" font-size="10.00"> </text>
<text xml:space="preserve" text-anchor="start" x="28.12" y="-122" font-family="Helvetica,sans-Serif" font-size="10.00">+</text>
<text xml:space="preserve" text-anchor="start" x="42.38" y="-122" font-family="Helvetica,sans-Serif" font-size="10.00">~ISystem()</text>
<text xml:space="preserve" text-anchor="start" x="28.12" y="-106.75" font-family="Helvetica,sans-Serif" font-size="10.00">+</text>
<text xml:space="preserve" text-anchor="start" x="42.38" y="-106.75" font-family="Helvetica,sans-Serif" font-size="10.00">update()</text>
<polygon fill="#666666" stroke="#666666" points="19.88,-148.75 19.88,-148.75 103.62,-148.75 103.62,-148.75 19.88,-148.75"/>
<polygon fill="#666666" stroke="#666666" points="19.88,-133.5 19.88,-133.5 103.62,-133.5 103.62,-133.5 19.88,-133.5"/>
<polygon fill="none" stroke="#666666" points="19.88,-101 19.88,-166 103.62,-166 103.62,-101 19.88,-101"/>
</a>
</g>
</g>
<!-- Node2&#45;&gt;Node1 -->
<g id="edge1_Node000001_Node000002" class="edge">
<title>Node2&#45;&gt;Node1</title>
<g id="a_edge1_Node000001_Node000002"><a xlink:title=" ">
<path fill="none" stroke="#63b8ff" d="M61.75,-89.7C61.75,-81.39 61.75,-72.82 61.75,-64.96"/>
<polygon fill="none" stroke="#63b8ff" points="58.25,-89.66 61.75,-99.66 65.25,-89.66 58.25,-89.66"/>
</a>
</g>
</g>
</g>
</svg>
</svg>

<style type='text/css'>
<![CDATA[
[data-mouse-over-selected='false'] { opacity: 0.7; }
[data-mouse-over-selected='true']  { opacity: 1.0; }
]]>
</style>
<script type="application/ecmascript"><![CDATA[
document.addEventListener('DOMContentLoaded', (event) => {
  highlightEdges();
  highlightAdjacentNodes();
});
]]></script>
</svg>
