<?xml version="1.0" encoding="UTF-8" standalone="no"?>
<!DOCTYPE svg PUBLIC "-//W3C//DTD SVG 1.1//EN"
 "http://www.w3.org/Graphics/SVG/1.1/DTD/svg11.dtd">
<!-- Generated by graphviz version 14.0.5 (20251129.0259)
 -->
<!-- Title: rtp::server::BulletCleanupSystem Pages: 1 -->
<svg width="127pt" height="262pt"
 viewBox="0.00 0.00 127.00 262.00" xmlns="http://www.w3.org/2000/svg" xmlns:xlink="http://www.w3.org/1999/xlink">

<svg id="main" version="1.1" xmlns="http://www.w3.org/2000/svg" xmlns:xlink="http://www.w3.org/1999/xlink" xml:space="preserve">

<style type="text/css"><![CDATA[
.node, .edge {opacity: 0.7;}
.node.selected, .edge.selected {opacity: 1;}
.edge:hover path { stroke: red; }
.edge:hover polygon { stroke: red; fill: red; }
]]></style>
<script type="application/ecmascript" xlink:href="svg.min.js"/>
<svg id="graph" class="graph">
<g id="graph0" class="graph" transform="scale(1 1) rotate(0) translate(4 257.5)">
<title>rtp::server::BulletCleanupSystem</title>
<!-- Node1 -->
<g id="Node000001" class="node">
<title>Node1</title>
<g id="a_Node000001"><a xlink:title="Despawns bullets that leave the play area.">
<polygon fill="#999999" stroke="none" points="119,-152.5 0,-152.5 0,0 119,0 119,-152.5"/>
<text xml:space="preserve" text-anchor="start" x="4" y="-139" font-family="Helvetica,sans-Serif" font-size="10.00">rtp::server::BulletCleanup</text>
<text xml:space="preserve" text-anchor="start" x="42.62" y="-127.75" font-family="Helvetica,sans-Serif" font-size="10.00">System</text>
<text xml:space="preserve" text-anchor="start" x="5.62" y="-112.5" font-family="Helvetica,sans-Serif" font-size="10.00">&#45;</text>
<text xml:space="preserve" text-anchor="start" x="14.25" y="-112.5" font-family="Helvetica,sans-Serif" font-size="10.00">_registry</text>
<text xml:space="preserve" text-anchor="start" x="5.62" y="-97.25" font-family="Helvetica,sans-Serif" font-size="10.00">&#45;</text>
<text xml:space="preserve" text-anchor="start" x="14.25" y="-97.25" font-family="Helvetica,sans-Serif" font-size="10.00">_roomSystem</text>
<text xml:space="preserve" text-anchor="start" x="5.62" y="-82" font-family="Helvetica,sans-Serif" font-size="10.00">&#45;</text>
<text xml:space="preserve" text-anchor="start" x="14.25" y="-82" font-family="Helvetica,sans-Serif" font-size="10.00">_networkSync</text>
<text xml:space="preserve" text-anchor="start" x="5.62" y="-66.75" font-family="Helvetica,sans-Serif" font-size="10.00">&#45;</text>
<text xml:space="preserve" text-anchor="start" x="14.25" y="-66.75" font-family="Helvetica,sans-Serif" font-size="10.00">_minX</text>
<text xml:space="preserve" text-anchor="start" x="5.62" y="-51.5" font-family="Helvetica,sans-Serif" font-size="10.00">&#45;</text>
<text xml:space="preserve" text-anchor="start" x="14.25" y="-51.5" font-family="Helvetica,sans-Serif" font-size="10.00">_maxX</text>
<text xml:space="preserve" text-anchor="start" x="4.12" y="-36.25" font-family="Helvetica,sans-Serif" font-size="10.00">+</text>
<text xml:space="preserve" text-anchor="start" x="14.25" y="-36.25" font-family="Helvetica,sans-Serif" font-size="10.00">BulletCleanupSystem()</text>
<text xml:space="preserve" text-anchor="start" x="4.12" y="-21" font-family="Helvetica,sans-Serif" font-size="10.00">+</text>
<text xml:space="preserve" text-anchor="start" x="14.25" y="-21" font-family="Helvetica,sans-Serif" font-size="10.00">update()</text>
<text xml:space="preserve" text-anchor="start" x="5.62" y="-5.75" font-family="Helvetica,sans-Serif" font-size="10.00">&#45;</text>
<text xml:space="preserve" text-anchor="start" x="14.25" y="-5.75" font-family="Helvetica,sans-Serif" font-size="10.00">despawn()</text>
<polygon fill="#666666" stroke="#666666" points="0,-124 0,-124 119,-124 119,-124 0,-124"/>
<polygon fill="#666666" stroke="#666666" points="0,-47.75 0,-47.75 12.25,-47.75 12.25,-47.75 0,-47.75"/>
<polygon fill="#666666" stroke="#666666" points="12.25,-47.75 12.25,-47.75 119,-47.75 119,-47.75 12.25,-47.75"/>
<polygon fill="none" stroke="#666666" points="0,0 0,-152.5 119,-152.5 119,0 0,0"/>
</a>
</g>
</g>
<!-- Node2 -->
<g id="Node000002" class="node">
<title>Node2</title>
<g id="a_Node000002"><a xlink:href="classrtp_1_1ecs_1_1ISystem.html" target="_top" xlink:title="Abstract base class for all ECS systems.">
<polygon fill="white" stroke="none" points="101.38,-253.5 17.62,-253.5 17.62,-188.5 101.38,-188.5 101.38,-253.5"/>
<text xml:space="preserve" text-anchor="start" x="21.62" y="-240" font-family="Helvetica,sans-Serif" font-size="10.00">rtp::ecs::ISystem</text>
<text xml:space="preserve" text-anchor="start" x="58" y="-224.75" font-family="Helvetica,sans-Serif" font-size="10.00"> </text>
<text xml:space="preserve" text-anchor="start" x="25.88" y="-209.5" font-family="Helvetica,sans-Serif" font-size="10.00">+</text>
<text xml:space="preserve" text-anchor="start" x="40.12" y="-209.5" font-family="Helvetica,sans-Serif" font-size="10.00">~ISystem()</text>
<text xml:space="preserve" text-anchor="start" x="25.88" y="-194.25" font-family="Helvetica,sans-Serif" font-size="10.00">+</text>
<text xml:space="preserve" text-anchor="start" x="40.12" y="-194.25" font-family="Helvetica,sans-Serif" font-size="10.00">update()</text>
<polygon fill="#666666" stroke="#666666" points="17.62,-236.25 17.62,-236.25 101.38,-236.25 101.38,-236.25 17.62,-236.25"/>
<polygon fill="#666666" stroke="#666666" points="17.62,-221 17.62,-221 101.38,-221 101.38,-221 17.62,-221"/>
<polygon fill="none" stroke="#666666" points="17.62,-188.5 17.62,-253.5 101.38,-253.5 101.38,-188.5 17.62,-188.5"/>
</a>
</g>
</g>
<!-- Node2&#45;&gt;Node1 -->
<g id="edge1_Node000001_Node000002" class="edge">
<title>Node2&#45;&gt;Node1</title>
<g id="a_edge1_Node000001_Node000002"><a xlink:title=" ">
<path fill="none" stroke="#63b8ff" d="M59.5,-177.2C59.5,-169.32 59.5,-160.88 59.5,-152.37"/>
<polygon fill="none" stroke="#63b8ff" points="56,-177.16 59.5,-187.16 63,-177.16 56,-177.16"/>
</a>
</g>
</g>
</g>
</svg>
</svg>

<style type='text/css'>
<![CDATA[
[data-mouse-over-selected='false'] { opacity: 0.7; }
[data-mouse-over-selected='true']  { opacity: 1.0; }
]]>
</style>
<script type="application/ecmascript"><![CDATA[
document.addEventListener('DOMContentLoaded', (event) => {
  highlightEdges();
  highlightAdjacentNodes();
});
]]></script>
</svg>
