<?xml version="1.0" encoding="UTF-8" standalone="no"?>
<!DOCTYPE svg PUBLIC "-//W3C//DTD SVG 1.1//EN"
 "http://www.w3.org/Graphics/SVG/1.1/DTD/svg11.dtd">
<!-- Generated by graphviz version 14.0.5 (20251129.0259)
 -->
<!-- Title: rtp::Error Pages: 1 -->
<svg width="125pt" height="411pt"
 viewBox="0.00 0.00 125.00 411.00" xmlns="http://www.w3.org/2000/svg" xmlns:xlink="http://www.w3.org/1999/xlink">
<g id="graph0" class="graph" transform="scale(1 1) rotate(0) translate(4 407.25)">
<title>rtp::Error</title>
<!-- Node1 -->
<g id="Node000001" class="node">
<title>Node1</title>
<g id="a_Node000001"><a xlink:title="Comprehensive error object with severity and retry tracking.">
<polygon fill="#999999" stroke="none" points="117,-202.25 0,-202.25 0,0 117,0 117,-202.25"/>
<text xml:space="preserve" text-anchor="start" x="39.38" y="-188.75" font-family="Helvetica,sans-Serif" font-size="10.00">rtp::Error</text>
<text xml:space="preserve" text-anchor="start" x="5.5" y="-173.5" font-family="Helvetica,sans-Serif" font-size="10.00">&#45;</text>
<text xml:space="preserve" text-anchor="start" x="14" y="-173.5" font-family="Helvetica,sans-Serif" font-size="10.00">_code</text>
<text xml:space="preserve" text-anchor="start" x="5.5" y="-158.25" font-family="Helvetica,sans-Serif" font-size="10.00">&#45;</text>
<text xml:space="preserve" text-anchor="start" x="14" y="-158.25" font-family="Helvetica,sans-Serif" font-size="10.00">_severity</text>
<text xml:space="preserve" text-anchor="start" x="5.5" y="-143" font-family="Helvetica,sans-Serif" font-size="10.00">&#45;</text>
<text xml:space="preserve" text-anchor="start" x="14" y="-143" font-family="Helvetica,sans-Serif" font-size="10.00">_retryCount</text>
<text xml:space="preserve" text-anchor="start" x="4" y="-127.75" font-family="Helvetica,sans-Serif" font-size="10.00">+</text>
<text xml:space="preserve" text-anchor="start" x="14" y="-127.75" font-family="Helvetica,sans-Serif" font-size="10.00">code()</text>
<text xml:space="preserve" text-anchor="start" x="4" y="-112.5" font-family="Helvetica,sans-Serif" font-size="10.00">+</text>
<text xml:space="preserve" text-anchor="start" x="14" y="-112.5" font-family="Helvetica,sans-Serif" font-size="10.00">severity()</text>
<text xml:space="preserve" text-anchor="start" x="4" y="-97.25" font-family="Helvetica,sans-Serif" font-size="10.00">+</text>
<text xml:space="preserve" text-anchor="start" x="14" y="-97.25" font-family="Helvetica,sans-Serif" font-size="10.00">retryCount()</text>
<text xml:space="preserve" text-anchor="start" x="4" y="-82" font-family="Helvetica,sans-Serif" font-size="10.00">+</text>
<text xml:space="preserve" text-anchor="start" x="14" y="-82" font-family="Helvetica,sans-Serif" font-size="10.00">message()</text>
<text xml:space="preserve" text-anchor="start" x="4" y="-66.75" font-family="Helvetica,sans-Serif" font-size="10.00">+</text>
<text xml:space="preserve" text-anchor="start" x="14" y="-66.75" font-family="Helvetica,sans-Serif" font-size="10.00">incrementRetryCount()</text>
<text xml:space="preserve" text-anchor="start" x="4" y="-51.5" font-family="Helvetica,sans-Serif" font-size="10.00">+</text>
<text xml:space="preserve" text-anchor="start" x="14" y="-51.5" font-family="Helvetica,sans-Serif" font-size="10.00">failure()</text>
<text xml:space="preserve" text-anchor="start" x="4" y="-36.25" font-family="Helvetica,sans-Serif" font-size="10.00">+</text>
<text xml:space="preserve" text-anchor="start" x="14" y="-36.25" font-family="Helvetica,sans-Serif" font-size="10.00">warning()</text>
<text xml:space="preserve" text-anchor="start" x="4" y="-21" font-family="Helvetica,sans-Serif" font-size="10.00">+</text>
<text xml:space="preserve" text-anchor="start" x="14" y="-21" font-family="Helvetica,sans-Serif" font-size="10.00">fatal()</text>
<text xml:space="preserve" text-anchor="start" x="5.5" y="-5.75" font-family="Helvetica,sans-Serif" font-size="10.00">&#45;</text>
<text xml:space="preserve" text-anchor="start" x="14" y="-5.75" font-family="Helvetica,sans-Serif" font-size="10.00">Error()</text>
<polygon fill="#666666" stroke="#666666" points="0,-185 0,-185 117,-185 117,-185 0,-185"/>
<polygon fill="#666666" stroke="#666666" points="0,-139.25 0,-139.25 12,-139.25 12,-139.25 0,-139.25"/>
<polygon fill="#666666" stroke="#666666" points="12,-139.25 12,-139.25 117,-139.25 117,-139.25 12,-139.25"/>
<polygon fill="none" stroke="#666666" points="0,0 0,-202.25 117,-202.25 117,0 0,0"/>
</a>
</g>
</g>
<!-- Node2 -->
<g id="Node000002" class="node">
<title>Node2</title>
<g id="a_Node000002"><a xlink:title=" ">
<polygon fill="white" stroke="none" points="84.25,-305.25 32.75,-305.25 32.75,-255.5 84.25,-255.5 84.25,-305.25"/>
<text xml:space="preserve" text-anchor="start" x="36.75" y="-291.75" font-family="Helvetica,sans-Serif" font-size="10.00">std::string</text>
<text xml:space="preserve" text-anchor="start" x="57" y="-276.5" font-family="Helvetica,sans-Serif" font-size="10.00"> </text>
<text xml:space="preserve" text-anchor="start" x="57" y="-261.25" font-family="Helvetica,sans-Serif" font-size="10.00"> </text>
<polygon fill="#666666" stroke="#666666" points="32.75,-288 32.75,-288 84.25,-288 84.25,-288 32.75,-288"/>
<polygon fill="#666666" stroke="#666666" points="32.75,-272.75 32.75,-272.75 84.25,-272.75 84.25,-272.75 32.75,-272.75"/>
<polygon fill="none" stroke="#666666" points="32.75,-255.5 32.75,-305.25 84.25,-305.25 84.25,-255.5 32.75,-255.5"/>
</a>
</g>
</g>
<!-- Node2&#45;&gt;Node1 -->
<g id="edge1_Node000001_Node000002" class="edge">
<title>Node2&#45;&gt;Node1</title>
<g id="a_edge1_Node000001_Node000002"><a xlink:title=" ">
<path fill="none" stroke="#63b8ff" d="M58.5,-255.84C58.5,-244.54 58.5,-230.11 58.5,-214.62"/>
<polygon fill="none" stroke="#63b8ff" points="58.5,-214.91 54.5,-208.91 58.5,-202.91 62.5,-208.91 58.5,-214.91"/>
</a>
</g>
<text xml:space="preserve" text-anchor="start" x="61.5" y="-225" font-family="Helvetica,sans-Serif" font-size="10.00" fill="grey">&#45;_message</text>
</g>
<!-- Node3 -->
<g id="Node000003" class="node">
<title>Node3</title>
<g id="a_Node000003"><a xlink:title=" ">
<polygon fill="white" stroke="none" points="101.5,-403.25 15.5,-403.25 15.5,-342.25 101.5,-342.25 101.5,-403.25"/>
<text xml:space="preserve" text-anchor="start" x="19.5" y="-389.75" font-family="Helvetica,sans-Serif" font-size="10.00">std::basic_string&lt;</text>
<text xml:space="preserve" text-anchor="start" x="42" y="-378.5" font-family="Helvetica,sans-Serif" font-size="10.00"> Char &gt;</text>
<text xml:space="preserve" text-anchor="start" x="57" y="-363.25" font-family="Helvetica,sans-Serif" font-size="10.00"> </text>
<text xml:space="preserve" text-anchor="start" x="57" y="-348" font-family="Helvetica,sans-Serif" font-size="10.00"> </text>
<polygon fill="#666666" stroke="#666666" points="15.5,-374.75 15.5,-374.75 101.5,-374.75 101.5,-374.75 15.5,-374.75"/>
<polygon fill="#666666" stroke="#666666" points="15.5,-359.5 15.5,-359.5 101.5,-359.5 101.5,-359.5 15.5,-359.5"/>
<polygon fill="none" stroke="#666666" points="15.5,-342.25 15.5,-403.25 101.5,-403.25 101.5,-342.25 15.5,-342.25"/>
</a>
</g>
</g>
<!-- Node3&#45;&gt;Node2 -->
<g id="edge2_Node000002_Node000003" class="edge">
<title>Node3&#45;&gt;Node2</title>
<g id="a_edge2_Node000002_Node000003"><a xlink:title=" ">
<path fill="none" stroke="#63b8ff" d="M58.5,-331.15C58.5,-322.19 58.5,-313 58.5,-304.98"/>
<polygon fill="none" stroke="#63b8ff" points="55,-331.14 58.5,-341.14 62,-331.14 55,-331.14"/>
</a>
</g>
</g>
</g>
</svg>
