<?xml version="1.0" encoding="UTF-8" standalone="no"?>
<!DOCTYPE svg PUBLIC "-//W3C//DTD SVG 1.1//EN"
 "http://www.w3.org/Graphics/SVG/1.1/DTD/svg11.dtd">
<!-- Generated by graphviz version 14.0.5 (20251129.0259)
 -->
<!-- Title: rtp::server::ServerNetwork Pages: 1 -->
<!--zoomable 510 -->

<svg id="main" version="1.1" xmlns="http://www.w3.org/2000/svg" xmlns:xlink="http://www.w3.org/1999/xlink" xml:space="preserve" onload="init(evt)">

<style type="text/css"><![CDATA[
.node, .edge {opacity: 0.7;}
.node.selected, .edge.selected {opacity: 1;}
.edge:hover path { stroke: red; }
.edge:hover polygon { stroke: red; fill: red; }
]]></style>

<defs>
  <circle id="rim" cx="0" cy="0" r="7"/>
  <circle id="rim2" cx="0" cy="0" r="3.5"/>
  <g id="zoomPlus">
    <use xlink:href="#rim" fill="#404040"><set attributeName="fill" to="#808080" begin="zoomplus.mouseover" end="zoomplus.mouseout"/></use>
    <path d="M-4,0h8M0,-4v8" fill="none" stroke="white" stroke-width="1.5" pointer-events="none"/>
  </g>
  <g id="zoomMin">
    <use xlink:href="#rim" fill="#404040"><set attributeName="fill" to="#808080" begin="zoomminus.mouseover" end="zoomminus.mouseout"/></use>
    <path d="M-4,0h8" fill="none" stroke="white" stroke-width="1.5" pointer-events="none"/>
  </g>
  <g id="arrowUp" transform="translate(30 24)">
    <use xlink:href="#rim"/>
    <path pointer-events="none" fill="none" stroke="white" stroke-width="1.5" d="M0,-3.0v7 M-2.5,-0.5L0,-3.0L2.5,-0.5"/>
  </g>
  <g id="arrowRight" transform="rotate(90) translate(36 -43)">
    <use xlink:href="#rim"/>
    <path pointer-events="none" fill="none" stroke="white" stroke-width="1.5" d="M0,-3.0v7 M-2.5,-0.5L0,-3.0L2.5,-0.5"/>
  </g>
  <g id="arrowDown" transform="rotate(180) translate(-30 -48)">
    <use xlink:href="#rim"/>
    <path pointer-events="none" fill="none" stroke="white" stroke-width="1.5" d="M0,-3.0v7 M-2.5,-0.5L0,-3.0L2.5,-0.5"/>
  </g>
  <g id="arrowLeft" transform="rotate(270) translate(-36 17)">
    <use xlink:href="#rim"/>
    <path pointer-events="none" fill="none" stroke="white" stroke-width="1.5" d="M0,-3.0v7 M-2.5,-0.5L0,-3.0L2.5,-0.5"/>
  </g>
  <g id="resetDef">
    <use xlink:href="#rim2" fill="#404040"><set attributeName="fill" to="#808080" begin="reset.mouseover" end="reset.mouseout"/></use>
  </g>
</defs>
<script type="application/ecmascript">
var viewWidth = 224;
var viewHeight = 510;
var sectionId = 'dynsection-0';
</script>
<script type="application/ecmascript" xlink:href="svg.min.js"/>
<svg id="graph" class="graph">
<g id="viewport">
<title>rtp::server::ServerNetwork</title>
<!-- Node1 -->
<g id="Node000001" class="node">
<title>Node1</title>
<g id="a_Node000001"><a xlink:title="Implementation ASIO du serveur réseau (TCP + UDP).">
<polygon fill="#999999" stroke="none" points="165.88,-370 34.62,-370 34.62,0 165.88,0 165.88,-370"/>
<text xml:space="preserve" text-anchor="start" x="42.5" y="-356.5" font-family="Helvetica,sans-Serif" font-size="10.00">rtp::server::ServerNetwork</text>
<text xml:space="preserve" text-anchor="start" x="40.12" y="-341.25" font-family="Helvetica,sans-Serif" font-size="10.00">&#45;</text>
<text xml:space="preserve" text-anchor="start" x="48.62" y="-341.25" font-family="Helvetica,sans-Serif" font-size="10.00">_ioContext</text>
<text xml:space="preserve" text-anchor="start" x="40.12" y="-326" font-family="Helvetica,sans-Serif" font-size="10.00">&#45;</text>
<text xml:space="preserve" text-anchor="start" x="48.62" y="-326" font-family="Helvetica,sans-Serif" font-size="10.00">_acceptor</text>
<text xml:space="preserve" text-anchor="start" x="40.12" y="-310.75" font-family="Helvetica,sans-Serif" font-size="10.00">&#45;</text>
<text xml:space="preserve" text-anchor="start" x="48.62" y="-310.75" font-family="Helvetica,sans-Serif" font-size="10.00">_udpSocket</text>
<text xml:space="preserve" text-anchor="start" x="40.12" y="-295.5" font-family="Helvetica,sans-Serif" font-size="10.00">&#45;</text>
<text xml:space="preserve" text-anchor="start" x="48.62" y="-295.5" font-family="Helvetica,sans-Serif" font-size="10.00">_ioThread</text>
<text xml:space="preserve" text-anchor="start" x="40.12" y="-280.25" font-family="Helvetica,sans-Serif" font-size="10.00">&#45;</text>
<text xml:space="preserve" text-anchor="start" x="48.62" y="-280.25" font-family="Helvetica,sans-Serif" font-size="10.00">_sessions</text>
<text xml:space="preserve" text-anchor="start" x="40.12" y="-265" font-family="Helvetica,sans-Serif" font-size="10.00">&#45;</text>
<text xml:space="preserve" text-anchor="start" x="48.62" y="-265" font-family="Helvetica,sans-Serif" font-size="10.00">_sessionsMutex</text>
<text xml:space="preserve" text-anchor="start" x="40.12" y="-249.75" font-family="Helvetica,sans-Serif" font-size="10.00">&#45;</text>
<text xml:space="preserve" text-anchor="start" x="48.62" y="-249.75" font-family="Helvetica,sans-Serif" font-size="10.00">_eventQueue</text>
<text xml:space="preserve" text-anchor="start" x="40.12" y="-234.5" font-family="Helvetica,sans-Serif" font-size="10.00">&#45;</text>
<text xml:space="preserve" text-anchor="start" x="48.62" y="-234.5" font-family="Helvetica,sans-Serif" font-size="10.00">_eventQueueMutex</text>
<text xml:space="preserve" text-anchor="start" x="40.12" y="-219.25" font-family="Helvetica,sans-Serif" font-size="10.00">&#45;</text>
<text xml:space="preserve" text-anchor="start" x="48.62" y="-219.25" font-family="Helvetica,sans-Serif" font-size="10.00">_nextSessionId</text>
<text xml:space="preserve" text-anchor="start" x="40.12" y="-204" font-family="Helvetica,sans-Serif" font-size="10.00">&#45;</text>
<text xml:space="preserve" text-anchor="start" x="48.62" y="-204" font-family="Helvetica,sans-Serif" font-size="10.00">_udpEndpointToSessionId</text>
<text xml:space="preserve" text-anchor="start" x="40.12" y="-188.75" font-family="Helvetica,sans-Serif" font-size="10.00">&#45;</text>
<text xml:space="preserve" text-anchor="start" x="48.62" y="-188.75" font-family="Helvetica,sans-Serif" font-size="10.00">_udpMapMutex</text>
<text xml:space="preserve" text-anchor="start" x="40.12" y="-173.5" font-family="Helvetica,sans-Serif" font-size="10.00">&#45;</text>
<text xml:space="preserve" text-anchor="start" x="48.62" y="-173.5" font-family="Helvetica,sans-Serif" font-size="10.00">_udpBuffer</text>
<text xml:space="preserve" text-anchor="start" x="40.12" y="-158.25" font-family="Helvetica,sans-Serif" font-size="10.00">&#45;</text>
<text xml:space="preserve" text-anchor="start" x="48.62" y="-158.25" font-family="Helvetica,sans-Serif" font-size="10.00">_udpRemoteEndpoint</text>
<text xml:space="preserve" text-anchor="start" x="38.62" y="-143" font-family="Helvetica,sans-Serif" font-size="10.00">+</text>
<text xml:space="preserve" text-anchor="start" x="48.62" y="-143" font-family="Helvetica,sans-Serif" font-size="10.00">ServerNetwork()</text>
<text xml:space="preserve" text-anchor="start" x="38.62" y="-127.75" font-family="Helvetica,sans-Serif" font-size="10.00">+</text>
<text xml:space="preserve" text-anchor="start" x="48.62" y="-127.75" font-family="Helvetica,sans-Serif" font-size="10.00">~ServerNetwork()</text>
<text xml:space="preserve" text-anchor="start" x="38.62" y="-112.5" font-family="Helvetica,sans-Serif" font-size="10.00">+</text>
<text xml:space="preserve" text-anchor="start" x="48.62" y="-112.5" font-family="Helvetica,sans-Serif" font-size="10.00">start()</text>
<text xml:space="preserve" text-anchor="start" x="38.62" y="-97.25" font-family="Helvetica,sans-Serif" font-size="10.00">+</text>
<text xml:space="preserve" text-anchor="start" x="48.62" y="-97.25" font-family="Helvetica,sans-Serif" font-size="10.00">stop()</text>
<text xml:space="preserve" text-anchor="start" x="38.62" y="-82" font-family="Helvetica,sans-Serif" font-size="10.00">+</text>
<text xml:space="preserve" text-anchor="start" x="48.62" y="-82" font-family="Helvetica,sans-Serif" font-size="10.00">sendPacket()</text>
<text xml:space="preserve" text-anchor="start" x="38.62" y="-66.75" font-family="Helvetica,sans-Serif" font-size="10.00">+</text>
<text xml:space="preserve" text-anchor="start" x="48.62" y="-66.75" font-family="Helvetica,sans-Serif" font-size="10.00">broadcastPacket()</text>
<text xml:space="preserve" text-anchor="start" x="38.62" y="-51.5" font-family="Helvetica,sans-Serif" font-size="10.00">+</text>
<text xml:space="preserve" text-anchor="start" x="48.62" y="-51.5" font-family="Helvetica,sans-Serif" font-size="10.00">pollEvent()</text>
<text xml:space="preserve" text-anchor="start" x="38.62" y="-36.25" font-family="Helvetica,sans-Serif" font-size="10.00">+</text>
<text xml:space="preserve" text-anchor="start" x="48.62" y="-36.25" font-family="Helvetica,sans-Serif" font-size="10.00">publishEvent()</text>
<text xml:space="preserve" text-anchor="start" x="40.12" y="-21" font-family="Helvetica,sans-Serif" font-size="10.00">&#45;</text>
<text xml:space="preserve" text-anchor="start" x="48.62" y="-21" font-family="Helvetica,sans-Serif" font-size="10.00">acceptConnection()</text>
<text xml:space="preserve" text-anchor="start" x="40.12" y="-5.75" font-family="Helvetica,sans-Serif" font-size="10.00">&#45;</text>
<text xml:space="preserve" text-anchor="start" x="48.62" y="-5.75" font-family="Helvetica,sans-Serif" font-size="10.00">receiveUdpPacket()</text>
<polygon fill="#666666" stroke="#666666" points="34.62,-352.75 34.62,-352.75 165.88,-352.75 165.88,-352.75 34.62,-352.75"/>
<polygon fill="#666666" stroke="#666666" points="34.62,-154.5 34.62,-154.5 46.62,-154.5 46.62,-154.5 34.62,-154.5"/>
<polygon fill="#666666" stroke="#666666" points="46.62,-154.5 46.62,-154.5 165.88,-154.5 165.88,-154.5 46.62,-154.5"/>
<polygon fill="none" stroke="#666666" points="34.62,0 34.62,-370 165.88,-370 165.88,0 34.62,0"/>
</a>
</g>
</g>
<!-- Node2 -->
<g id="Node000002" class="node">
<title>Node2</title>
<g id="a_Node000002"><a xlink:href="classrtp_1_1net_1_1INetwork.html" target="_top" xlink:title="Interface for network operations.">
<polygon fill="white" stroke="none" points="84.5,-501.5 0,-501.5 0,-406 84.5,-406 84.5,-501.5"/>
<text xml:space="preserve" text-anchor="start" x="4" y="-488" font-family="Helvetica,sans-Serif" font-size="10.00">rtp::net::INetwork</text>
<text xml:space="preserve" text-anchor="start" x="40.75" y="-472.75" font-family="Helvetica,sans-Serif" font-size="10.00"> </text>
<text xml:space="preserve" text-anchor="start" x="7.69" y="-457.5" font-family="Helvetica,sans-Serif" font-size="10.00">+</text>
<text xml:space="preserve" text-anchor="start" x="21.38" y="-457.5" font-family="Helvetica,sans-Serif" font-size="10.00">~INetwork()</text>
<text xml:space="preserve" text-anchor="start" x="7.69" y="-442.25" font-family="Helvetica,sans-Serif" font-size="10.00">+</text>
<text xml:space="preserve" text-anchor="start" x="21.38" y="-442.25" font-family="Helvetica,sans-Serif" font-size="10.00">start()</text>
<text xml:space="preserve" text-anchor="start" x="7.69" y="-427" font-family="Helvetica,sans-Serif" font-size="10.00">+</text>
<text xml:space="preserve" text-anchor="start" x="21.38" y="-427" font-family="Helvetica,sans-Serif" font-size="10.00">stop()</text>
<text xml:space="preserve" text-anchor="start" x="7.69" y="-411.75" font-family="Helvetica,sans-Serif" font-size="10.00">+</text>
<text xml:space="preserve" text-anchor="start" x="21.38" y="-411.75" font-family="Helvetica,sans-Serif" font-size="10.00">pollEvent()</text>
<polygon fill="#666666" stroke="#666666" points="0,-484.25 0,-484.25 84.5,-484.25 84.5,-484.25 0,-484.25"/>
<polygon fill="#666666" stroke="#666666" points="0,-469 0,-469 84.5,-469 84.5,-469 0,-469"/>
<polygon fill="none" stroke="#666666" points="0,-406 0,-501.5 84.5,-501.5 84.5,-406 0,-406"/>
</a>
</g>
</g>
<!-- Node2&#45;&gt;Node1 -->
<g id="edge1_Node000001_Node000002" class="edge">
<title>Node2&#45;&gt;Node1</title>
<g id="a_edge1_Node000001_Node000002"><a xlink:title=" ">
<path fill="none" stroke="#63b8ff" d="M54.79,-395.06C56.52,-387.12 58.36,-378.65 60.28,-369.83"/>
<polygon fill="none" stroke="#63b8ff" points="51.38,-394.29 52.67,-404.81 58.22,-395.78 51.38,-394.29"/>
</a>
</g>
</g>
<!-- Node3 -->
<g id="Node000003" class="node">
<title>Node3</title>
<g id="a_Node000003"><a xlink:href="classrtp_1_1net_1_1IEventPublisher.html" target="_top" xlink:title="Interface for network event handling.">
<polygon fill="white" stroke="none" points="216.12,-486.25 102.38,-486.25 102.38,-421.25 216.12,-421.25 216.12,-486.25"/>
<text xml:space="preserve" text-anchor="start" x="106.38" y="-472.75" font-family="Helvetica,sans-Serif" font-size="10.00">rtp::net::IEventPublisher</text>
<text xml:space="preserve" text-anchor="start" x="157.75" y="-457.5" font-family="Helvetica,sans-Serif" font-size="10.00"> </text>
<text xml:space="preserve" text-anchor="start" x="110.06" y="-442.25" font-family="Helvetica,sans-Serif" font-size="10.00">+</text>
<text xml:space="preserve" text-anchor="start" x="123.75" y="-442.25" font-family="Helvetica,sans-Serif" font-size="10.00">~IEventPublisher()</text>
<text xml:space="preserve" text-anchor="start" x="110.06" y="-427" font-family="Helvetica,sans-Serif" font-size="10.00">+</text>
<text xml:space="preserve" text-anchor="start" x="123.75" y="-427" font-family="Helvetica,sans-Serif" font-size="10.00">publishEvent()</text>
<polygon fill="#666666" stroke="#666666" points="102.38,-469 102.38,-469 216.12,-469 216.12,-469 102.38,-469"/>
<polygon fill="#666666" stroke="#666666" points="102.38,-453.75 102.38,-453.75 216.12,-453.75 216.12,-453.75 102.38,-453.75"/>
<polygon fill="none" stroke="#666666" points="102.38,-421.25 102.38,-486.25 216.12,-486.25 216.12,-421.25 102.38,-421.25"/>
</a>
</g>
</g>
<!-- Node3&#45;&gt;Node1 -->
<g id="edge2_Node000001_Node000003" class="edge">
<title>Node3&#45;&gt;Node1</title>
<g id="a_edge2_Node000001_Node000003"><a xlink:title=" ">
<path fill="none" stroke="#63b8ff" d="M149.9,-410.47C147.25,-398.48 144.18,-384.61 140.89,-369.75"/>
<polygon fill="none" stroke="#63b8ff" points="146.4,-410.88 151.98,-419.89 153.24,-409.37 146.4,-410.88"/>
</a>
</g>
</g>
</g>
</svg>

<g id="navigator" transform="translate(0 0)" fill="#404254">
  <rect fill="#f2f5e9" fill-opacity="0.5" stroke="#606060" stroke-width=".5" x="0" y="0" width="60" height="60"/>
  <use id="zoomplus" xlink:href="#zoomPlus" x="17" y="9" onmousedown="handleZoom(evt,'in')"/>
  <use id="zoomminus" xlink:href="#zoomMin" x="42" y="9" onmousedown="handleZoom(evt,'out')"/>
  <use id="reset" xlink:href="#resetDef" x="30" y="36" onmousedown="handleReset()"/>
   <use id="arrowup" xlink:href="#arrowUp" x="0" y="0" onmousedown="handlePan(0,-1)"/>
  <use id="arrowright" xlink:href="#arrowRight" x="0" y="0" onmousedown="handlePan(1,0)"/>
  <use id="arrowdown" xlink:href="#arrowDown" x="0" y="0" onmousedown="handlePan(0,1)"/>
  <use id="arrowleft" xlink:href="#arrowLeft" x="0" y="0" onmousedown="handlePan(-1,0)"/>
</g>
<svg viewBox="0 0 15 15" width="100%" height="30px" preserveAspectRatio="xMaxYMin meet">
 <g id="arrow_out" transform="scale(0.3 0.3)">
  <a xlink:href="classrtp_1_1server_1_1ServerNetwork__inherit__graph_org.svg" target="_base">
   <rect id="button" ry="5" rx="5" y="6" x="6" height="38" width="38"
        fill="#f2f5e9" fill-opacity="0.5" stroke="#606060" stroke-width="1.0"/>
   <path id="arrow"
     d="M 11.500037,31.436501 C 11.940474,20.09759 22.043105,11.32322 32.158766,21.979434 L 37.068811,17.246167 C 37.068811,17.246167 37.088388,32 37.088388,32 L 22.160133,31.978069 C 22.160133,31.978069 26.997745,27.140456 26.997745,27.140456 C 18.528582,18.264221 13.291696,25.230495 11.500037,31.436501 z"
     style="fill:#404040;"/>
  </a>
 </g>
</svg>

<style type='text/css'>
<![CDATA[
[data-mouse-over-selected='false'] { opacity: 0.7; }
[data-mouse-over-selected='true']  { opacity: 1.0; }
]]>
</style>
<script type="application/ecmascript"><![CDATA[
document.addEventListener('DOMContentLoaded', (event) => {
  highlightEdges();
  highlightAdjacentNodes();
});
]]></script>
</svg>
