<?xml version="1.0" encoding="UTF-8" standalone="no"?>
<!DOCTYPE svg PUBLIC "-//W3C//DTD SVG 1.1//EN"
 "http://www.w3.org/Graphics/SVG/1.1/DTD/svg11.dtd">
<!-- Generated by graphviz version 14.0.5 (20251129.0259)
 -->
<!-- Title: rtp::ecs::ZipView&lt; Containers &gt; Pages: 1 -->
<svg width="139pt" height="145pt"
 viewBox="0.00 0.00 139.00 145.00" xmlns="http://www.w3.org/2000/svg" xmlns:xlink="http://www.w3.org/1999/xlink">
<g id="graph0" class="graph" transform="scale(1 1) rotate(0) translate(4 141.25)">
<title>rtp::ecs::ZipView&lt; Containers &gt;</title>
<!-- Node1 -->
<g id="Node000001" class="node">
<title>Node1</title>
<g id="a_Node000001"><a xlink:title="A view that iterates over entities possessing all specified components.">
<polygon fill="#999999" stroke="none" points="131.25,-137.25 0,-137.25 0,0 131.25,0 131.25,-137.25"/>
<text xml:space="preserve" text-anchor="start" x="25.5" y="-123.75" font-family="Helvetica,sans-Serif" font-size="10.00">rtp::ecs::ZipView&lt;</text>
<text xml:space="preserve" text-anchor="start" x="36" y="-112.5" font-family="Helvetica,sans-Serif" font-size="10.00"> Containers &gt;</text>
<text xml:space="preserve" text-anchor="start" x="5.5" y="-97.25" font-family="Helvetica,sans-Serif" font-size="10.00">&#45;</text>
<text xml:space="preserve" text-anchor="start" x="14" y="-97.25" font-family="Helvetica,sans-Serif" font-size="10.00">_arrays</text>
<text xml:space="preserve" text-anchor="start" x="5.5" y="-82" font-family="Helvetica,sans-Serif" font-size="10.00">&#45;</text>
<text xml:space="preserve" text-anchor="start" x="14" y="-82" font-family="Helvetica,sans-Serif" font-size="10.00">_smallest_idx</text>
<text xml:space="preserve" text-anchor="start" x="4" y="-66.75" font-family="Helvetica,sans-Serif" font-size="10.00">+</text>
<text xml:space="preserve" text-anchor="start" x="14" y="-66.75" font-family="Helvetica,sans-Serif" font-size="10.00">ZipView()</text>
<text xml:space="preserve" text-anchor="start" x="4" y="-51.5" font-family="Helvetica,sans-Serif" font-size="10.00">+</text>
<text xml:space="preserve" text-anchor="start" x="14" y="-51.5" font-family="Helvetica,sans-Serif" font-size="10.00">begin()</text>
<text xml:space="preserve" text-anchor="start" x="4" y="-36.25" font-family="Helvetica,sans-Serif" font-size="10.00">+</text>
<text xml:space="preserve" text-anchor="start" x="14" y="-36.25" font-family="Helvetica,sans-Serif" font-size="10.00">end()</text>
<text xml:space="preserve" text-anchor="start" x="5.5" y="-21" font-family="Helvetica,sans-Serif" font-size="10.00">&#45;</text>
<text xml:space="preserve" text-anchor="start" x="14" y="-21" font-family="Helvetica,sans-Serif" font-size="10.00">findSmallest()</text>
<text xml:space="preserve" text-anchor="start" x="5.5" y="-5.75" font-family="Helvetica,sans-Serif" font-size="10.00">&#45;</text>
<text xml:space="preserve" text-anchor="start" x="14" y="-5.75" font-family="Helvetica,sans-Serif" font-size="10.00">getEntitiesFromSmallest()</text>
<polygon fill="#666666" stroke="#666666" points="0,-108.75 0,-108.75 131.25,-108.75 131.25,-108.75 0,-108.75"/>
<polygon fill="#666666" stroke="#666666" points="0,-78.25 0,-78.25 12,-78.25 12,-78.25 0,-78.25"/>
<polygon fill="#666666" stroke="#666666" points="12,-78.25 12,-78.25 131.25,-78.25 131.25,-78.25 12,-78.25"/>
<polygon fill="none" stroke="#666666" points="0,0 0,-137.25 131.25,-137.25 131.25,0 0,0"/>
</a>
</g>
</g>
</g>
</svg>
