<?xml version="1.0" encoding="UTF-8" standalone="no"?>
<!DOCTYPE svg PUBLIC "-//W3C//DTD SVG 1.1//EN"
 "http://www.w3.org/Graphics/SVG/1.1/DTD/svg11.dtd">
<!-- Generated by graphviz version 14.0.5 (20251129.0259)
 -->
<!-- Title: rtp::client::AssetManager Pages: 1 -->
<!--zoomable 492 -->

<svg id="main" version="1.1" xmlns="http://www.w3.org/2000/svg" xmlns:xlink="http://www.w3.org/1999/xlink" xml:space="preserve" onload="init(evt)">

<style type="text/css"><![CDATA[
.node, .edge {opacity: 0.7;}
.node.selected, .edge.selected {opacity: 1;}
.edge:hover path { stroke: red; }
.edge:hover polygon { stroke: red; fill: red; }
]]></style>

<defs>
  <circle id="rim" cx="0" cy="0" r="7"/>
  <circle id="rim2" cx="0" cy="0" r="3.5"/>
  <g id="zoomPlus">
    <use xlink:href="#rim" fill="#404040"><set attributeName="fill" to="#808080" begin="zoomplus.mouseover" end="zoomplus.mouseout"/></use>
    <path d="M-4,0h8M0,-4v8" fill="none" stroke="white" stroke-width="1.5" pointer-events="none"/>
  </g>
  <g id="zoomMin">
    <use xlink:href="#rim" fill="#404040"><set attributeName="fill" to="#808080" begin="zoomminus.mouseover" end="zoomminus.mouseout"/></use>
    <path d="M-4,0h8" fill="none" stroke="white" stroke-width="1.5" pointer-events="none"/>
  </g>
  <g id="arrowUp" transform="translate(30 24)">
    <use xlink:href="#rim"/>
    <path pointer-events="none" fill="none" stroke="white" stroke-width="1.5" d="M0,-3.0v7 M-2.5,-0.5L0,-3.0L2.5,-0.5"/>
  </g>
  <g id="arrowRight" transform="rotate(90) translate(36 -43)">
    <use xlink:href="#rim"/>
    <path pointer-events="none" fill="none" stroke="white" stroke-width="1.5" d="M0,-3.0v7 M-2.5,-0.5L0,-3.0L2.5,-0.5"/>
  </g>
  <g id="arrowDown" transform="rotate(180) translate(-30 -48)">
    <use xlink:href="#rim"/>
    <path pointer-events="none" fill="none" stroke="white" stroke-width="1.5" d="M0,-3.0v7 M-2.5,-0.5L0,-3.0L2.5,-0.5"/>
  </g>
  <g id="arrowLeft" transform="rotate(270) translate(-36 17)">
    <use xlink:href="#rim"/>
    <path pointer-events="none" fill="none" stroke="white" stroke-width="1.5" d="M0,-3.0v7 M-2.5,-0.5L0,-3.0L2.5,-0.5"/>
  </g>
  <g id="resetDef">
    <use xlink:href="#rim2" fill="#404040"><set attributeName="fill" to="#808080" begin="reset.mouseover" end="reset.mouseout"/></use>
  </g>
</defs>
<script type="application/ecmascript">
var viewWidth = 304;
var viewHeight = 492;
var sectionId = 'dynsection-0';
</script>
<script type="application/ecmascript" xlink:href="svg.min.js"/>
<svg id="graph" class="graph">
<g id="viewport">
<title>rtp::client::AssetManager</title>
<!-- Node1 -->
<g id="Node000001" class="node">
<title>Node1</title>
<g id="a_Node000001"><a xlink:title="Manages loading and storage of graphical assets.">
<polygon fill="#999999" stroke="none" points="185.75,-126 68.25,-126 68.25,0 185.75,0 185.75,-126"/>
<text xml:space="preserve" text-anchor="start" x="72.25" y="-112.5" font-family="Helvetica,sans-Serif" font-size="10.00">rtp::client::AssetManager</text>
<text xml:space="preserve" text-anchor="start" x="125.5" y="-97.25" font-family="Helvetica,sans-Serif" font-size="10.00"> </text>
<text xml:space="preserve" text-anchor="start" x="78.38" y="-82" font-family="Helvetica,sans-Serif" font-size="10.00">+</text>
<text xml:space="preserve" text-anchor="start" x="94.5" y="-82" font-family="Helvetica,sans-Serif" font-size="10.00">AssetManager()</text>
<text xml:space="preserve" text-anchor="start" x="78.38" y="-66.75" font-family="Helvetica,sans-Serif" font-size="10.00">+</text>
<text xml:space="preserve" text-anchor="start" x="94.5" y="-66.75" font-family="Helvetica,sans-Serif" font-size="10.00">~AssetManager()</text>
<text xml:space="preserve" text-anchor="start" x="78.38" y="-51.5" font-family="Helvetica,sans-Serif" font-size="10.00">+</text>
<text xml:space="preserve" text-anchor="start" x="94.5" y="-51.5" font-family="Helvetica,sans-Serif" font-size="10.00">loadTexture()</text>
<text xml:space="preserve" text-anchor="start" x="78.38" y="-36.25" font-family="Helvetica,sans-Serif" font-size="10.00">+</text>
<text xml:space="preserve" text-anchor="start" x="94.5" y="-36.25" font-family="Helvetica,sans-Serif" font-size="10.00">loadFont()</text>
<text xml:space="preserve" text-anchor="start" x="78.38" y="-21" font-family="Helvetica,sans-Serif" font-size="10.00">+</text>
<text xml:space="preserve" text-anchor="start" x="94.5" y="-21" font-family="Helvetica,sans-Serif" font-size="10.00">getTexture()</text>
<text xml:space="preserve" text-anchor="start" x="78.38" y="-5.75" font-family="Helvetica,sans-Serif" font-size="10.00">+</text>
<text xml:space="preserve" text-anchor="start" x="94.5" y="-5.75" font-family="Helvetica,sans-Serif" font-size="10.00">getFont()</text>
<polygon fill="#666666" stroke="#666666" points="68.25,-108.75 68.25,-108.75 185.75,-108.75 185.75,-108.75 68.25,-108.75"/>
<polygon fill="#666666" stroke="#666666" points="68.25,-93.5 68.25,-93.5 185.75,-93.5 185.75,-93.5 68.25,-93.5"/>
<polygon fill="none" stroke="#666666" points="68.25,0 68.25,-126 185.75,-126 185.75,0 68.25,0"/>
</a>
</g>
</g>
<!-- Node2 -->
<g id="Node000002" class="node">
<title>Node2</title>
<g id="a_Node000002"><a xlink:title=" ">
<polygon fill="white" stroke="none" points="122,-240.25 0,-240.25 0,-179.25 122,-179.25 122,-240.25"/>
<text xml:space="preserve" text-anchor="start" x="4" y="-226.75" font-family="Helvetica,sans-Serif" font-size="10.00">std::unordered_map</text>
<text xml:space="preserve" text-anchor="start" x="4" y="-215.5" font-family="Helvetica,sans-Serif" font-size="10.00">&lt; std::string, sf::Texture &gt;</text>
<text xml:space="preserve" text-anchor="start" x="20.06" y="-200.25" font-family="Helvetica,sans-Serif" font-size="10.00">+</text>
<text xml:space="preserve" text-anchor="start" x="46.12" y="-200.25" font-family="Helvetica,sans-Serif" font-size="10.00">elements</text>
<text xml:space="preserve" text-anchor="start" x="59.5" y="-185" font-family="Helvetica,sans-Serif" font-size="10.00"> </text>
<polygon fill="#666666" stroke="#666666" points="0,-211.75 0,-211.75 122,-211.75 122,-211.75 0,-211.75"/>
<polygon fill="#666666" stroke="#666666" points="0,-196.5 0,-196.5 44.12,-196.5 44.12,-196.5 0,-196.5"/>
<polygon fill="#666666" stroke="#666666" points="44.12,-196.5 44.12,-196.5 122,-196.5 122,-196.5 44.12,-196.5"/>
<polygon fill="none" stroke="#666666" points="0,-179.25 0,-240.25 122,-240.25 122,-179.25 0,-179.25"/>
</a>
</g>
</g>
<!-- Node2&#45;&gt;Node1 -->
<g id="edge1_Node000001_Node000002" class="edge">
<title>Node2&#45;&gt;Node1</title>
<g id="a_edge1_Node000001_Node000002"><a xlink:title=" ">
<path fill="none" stroke="#63b8ff" d="M74.36,-179.46C79.91,-167.27 86.64,-152.52 93.4,-137.69"/>
<polygon fill="none" stroke="#63b8ff" points="93.46,-137.57 92.31,-130.45 98.43,-126.65 99.58,-133.77 93.46,-137.57"/>
</a>
</g>
<text xml:space="preserve" text-anchor="start" x="93.05" y="-148.75" font-family="Helvetica,sans-Serif" font-size="10.00" fill="grey">&#45;_textures</text>
</g>
<!-- Node3 -->
<g id="Node000003" class="node">
<title>Node3</title>
<g id="a_Node000003"><a xlink:title=" ">
<polygon fill="white" stroke="none" points="79.75,-364.12 28.25,-364.12 28.25,-314.38 79.75,-314.38 79.75,-364.12"/>
<text xml:space="preserve" text-anchor="start" x="32.25" y="-350.62" font-family="Helvetica,sans-Serif" font-size="10.00">std::string</text>
<text xml:space="preserve" text-anchor="start" x="52.5" y="-335.38" font-family="Helvetica,sans-Serif" font-size="10.00"> </text>
<text xml:space="preserve" text-anchor="start" x="52.5" y="-320.12" font-family="Helvetica,sans-Serif" font-size="10.00"> </text>
<polygon fill="#666666" stroke="#666666" points="28.25,-346.88 28.25,-346.88 79.75,-346.88 79.75,-346.88 28.25,-346.88"/>
<polygon fill="#666666" stroke="#666666" points="28.25,-331.62 28.25,-331.62 79.75,-331.62 79.75,-331.62 28.25,-331.62"/>
<polygon fill="none" stroke="#666666" points="28.25,-314.38 28.25,-364.12 79.75,-364.12 79.75,-314.38 28.25,-314.38"/>
</a>
</g>
</g>
<!-- Node3&#45;&gt;Node2 -->
<g id="edge2_Node000002_Node000003" class="edge">
<title>Node3&#45;&gt;Node2</title>
<g id="a_edge2_Node000002_Node000003"><a xlink:title=" ">
<path fill="none" stroke="#63b8ff" d="M34.05,-314.54C29.14,-307.35 24.56,-299.12 22,-290.75 17.78,-276.94 17.13,-271.85 22,-258.25 22.85,-255.88 23.87,-253.54 25.03,-251.24"/>
<polygon fill="none" stroke="#63b8ff" points="25.04,-251.24 24.77,-244.03 31.31,-241.01 31.59,-248.22 25.04,-251.24"/>
</a>
</g>
<text xml:space="preserve" text-anchor="start" x="25" y="-270.62" font-family="Helvetica,sans-Serif" font-size="10.00" fill="grey">+keys</text>
</g>
<!-- Node8 -->
<g id="Node000008" class="node">
<title>Node8</title>
<g id="a_Node000008"><a xlink:title=" ">
<polygon fill="white" stroke="none" points="249.62,-240.25 140.38,-240.25 140.38,-179.25 249.62,-179.25 249.62,-240.25"/>
<text xml:space="preserve" text-anchor="start" x="144.38" y="-226.75" font-family="Helvetica,sans-Serif" font-size="10.00">std::unordered_map</text>
<text xml:space="preserve" text-anchor="start" x="144.38" y="-215.5" font-family="Helvetica,sans-Serif" font-size="10.00">&lt; std::string, sf::Font &gt;</text>
<text xml:space="preserve" text-anchor="start" x="157.25" y="-200.25" font-family="Helvetica,sans-Serif" font-size="10.00">+</text>
<text xml:space="preserve" text-anchor="start" x="180.12" y="-200.25" font-family="Helvetica,sans-Serif" font-size="10.00">elements</text>
<text xml:space="preserve" text-anchor="start" x="193.5" y="-185" font-family="Helvetica,sans-Serif" font-size="10.00"> </text>
<polygon fill="#666666" stroke="#666666" points="140.38,-211.75 140.38,-211.75 249.62,-211.75 249.62,-211.75 140.38,-211.75"/>
<polygon fill="#666666" stroke="#666666" points="140.38,-196.5 140.38,-196.5 178.12,-196.5 178.12,-196.5 140.38,-196.5"/>
<polygon fill="#666666" stroke="#666666" points="178.12,-196.5 178.12,-196.5 249.62,-196.5 249.62,-196.5 178.12,-196.5"/>
<polygon fill="none" stroke="#666666" points="140.38,-179.25 140.38,-240.25 249.62,-240.25 249.62,-179.25 140.38,-179.25"/>
</a>
</g>
</g>
<!-- Node3&#45;&gt;Node8 -->
<g id="edge8_Node000008_Node000003" class="edge">
<title>Node3&#45;&gt;Node8</title>
<g id="a_edge8_Node000008_Node000003"><a xlink:title=" ">
<path fill="none" stroke="#63b8ff" d="M54,-314.7C55.25,-297.03 59.78,-273.37 74,-258.25 89.86,-241.4 102.54,-247.52 128.12,-240.55"/>
<polygon fill="none" stroke="#63b8ff" points="128.14,-240.54 132.57,-234.85 139.53,-236.76 135.09,-242.45 128.14,-240.54"/>
</a>
</g>
<text xml:space="preserve" text-anchor="start" x="77" y="-270.62" font-family="Helvetica,sans-Serif" font-size="10.00" fill="grey">+keys</text>
</g>
<!-- Node4 -->
<g id="Node000004" class="node">
<title>Node4</title>
<g id="a_Node000004"><a xlink:title=" ">
<polygon fill="white" stroke="none" points="97,-484 11,-484 11,-423 97,-423 97,-484"/>
<text xml:space="preserve" text-anchor="start" x="15" y="-470.5" font-family="Helvetica,sans-Serif" font-size="10.00">std::basic_string&lt;</text>
<text xml:space="preserve" text-anchor="start" x="37.5" y="-459.25" font-family="Helvetica,sans-Serif" font-size="10.00"> Char &gt;</text>
<text xml:space="preserve" text-anchor="start" x="52.5" y="-444" font-family="Helvetica,sans-Serif" font-size="10.00"> </text>
<text xml:space="preserve" text-anchor="start" x="52.5" y="-428.75" font-family="Helvetica,sans-Serif" font-size="10.00"> </text>
<polygon fill="#666666" stroke="#666666" points="11,-455.5 11,-455.5 97,-455.5 97,-455.5 11,-455.5"/>
<polygon fill="#666666" stroke="#666666" points="11,-440.25 11,-440.25 97,-440.25 97,-440.25 11,-440.25"/>
<polygon fill="none" stroke="#666666" points="11,-423 11,-484 97,-484 97,-423 11,-423"/>
</a>
</g>
</g>
<!-- Node4&#45;&gt;Node3 -->
<g id="edge3_Node000003_Node000004" class="edge">
<title>Node4&#45;&gt;Node3</title>
<g id="a_edge3_Node000003_Node000004"><a xlink:title=" ">
<path fill="none" stroke="#63b8ff" d="M54,-411.71C54,-395.64 54,-377.75 54,-363.89"/>
<polygon fill="none" stroke="#63b8ff" points="50.5,-411.49 54,-421.49 57.5,-411.49 50.5,-411.49"/>
</a>
</g>
</g>
<!-- Node5 -->
<g id="Node000005" class="node">
<title>Node5</title>
<g id="a_Node000005"><a xlink:title=" ">
<polygon fill="white" stroke="none" points="202.12,-369.75 107.88,-369.75 107.88,-308.75 202.12,-308.75 202.12,-369.75"/>
<text xml:space="preserve" text-anchor="start" x="111.88" y="-356.25" font-family="Helvetica,sans-Serif" font-size="10.00">std::unordered_map</text>
<text xml:space="preserve" text-anchor="start" x="136.62" y="-345" font-family="Helvetica,sans-Serif" font-size="10.00">&lt; K, T &gt;</text>
<text xml:space="preserve" text-anchor="start" x="153.5" y="-329.75" font-family="Helvetica,sans-Serif" font-size="10.00"> </text>
<text xml:space="preserve" text-anchor="start" x="153.5" y="-314.5" font-family="Helvetica,sans-Serif" font-size="10.00"> </text>
<polygon fill="#666666" stroke="#666666" points="107.88,-341.25 107.88,-341.25 202.12,-341.25 202.12,-341.25 107.88,-341.25"/>
<polygon fill="#666666" stroke="#666666" points="107.88,-326 107.88,-326 202.12,-326 202.12,-326 107.88,-326"/>
<polygon fill="none" stroke="#666666" points="107.88,-308.75 107.88,-369.75 202.12,-369.75 202.12,-308.75 107.88,-308.75"/>
</a>
</g>
</g>
<!-- Node5&#45;&gt;Node2 -->
<g id="edge4_Node000002_Node000005" class="edge">
<title>Node5&#45;&gt;Node2</title>
<g id="a_edge4_Node000002_Node000005"><a xlink:title=" ">
<path fill="none" stroke="orange" d="M134.17,-299.12C124.28,-280.79 113.98,-262.12 111,-258.25 106.17,-251.99 100.51,-245.8 94.77,-240.07"/>
<polygon fill="orange" stroke="orange" points="131.04,-300.68 138.85,-307.84 137.2,-297.37 131.04,-300.68"/>
</a>
</g>
<text xml:space="preserve" text-anchor="start" x="132.16" y="-278.25" font-family="Helvetica,sans-Serif" font-size="10.00" fill="grey">&lt; std::string, sf::</text>
<text xml:space="preserve" text-anchor="start" x="132.16" y="-263" font-family="Helvetica,sans-Serif" font-size="10.00" fill="grey">  Texture &gt;</text>
</g>
<!-- Node5&#45;&gt;Node8 -->
<g id="edge9_Node000008_Node000005" class="edge">
<title>Node5&#45;&gt;Node8</title>
<g id="a_edge9_Node000008_Node000005"><a xlink:title=" ">
<path fill="none" stroke="orange" d="M207.24,-300.33C209.46,-297.3 211.41,-294.1 213,-290.75 220.56,-274.8 216.57,-255.53 210.45,-239.9"/>
<polygon fill="orange" stroke="orange" points="204.72,-297.89 200.88,-307.77 210.04,-302.44 204.72,-297.89"/>
</a>
</g>
<text xml:space="preserve" text-anchor="start" x="220.12" y="-278.25" font-family="Helvetica,sans-Serif" font-size="10.00" fill="grey">&lt; std::string, sf::</text>
<text xml:space="preserve" text-anchor="start" x="220.12" y="-263" font-family="Helvetica,sans-Serif" font-size="10.00" fill="grey">  Font &gt;</text>
</g>
<!-- Node6 -->
<g id="Node000006" class="node">
<title>Node6</title>
<g id="a_Node000006"><a xlink:title=" ">
<polygon fill="white" stroke="none" points="215.38,-478.38 200.62,-478.38 200.62,-428.62 215.38,-428.62 215.38,-478.38"/>
<text xml:space="preserve" text-anchor="start" x="204.62" y="-464.88" font-family="Helvetica,sans-Serif" font-size="10.00">K</text>
<text xml:space="preserve" text-anchor="start" x="206.5" y="-449.62" font-family="Helvetica,sans-Serif" font-size="10.00"> </text>
<text xml:space="preserve" text-anchor="start" x="206.5" y="-434.38" font-family="Helvetica,sans-Serif" font-size="10.00"> </text>
<polygon fill="#666666" stroke="#666666" points="200.62,-461.12 200.62,-461.12 215.38,-461.12 215.38,-461.12 200.62,-461.12"/>
<polygon fill="#666666" stroke="#666666" points="200.62,-445.88 200.62,-445.88 215.38,-445.88 215.38,-445.88 200.62,-445.88"/>
<polygon fill="none" stroke="#666666" points="200.62,-428.62 200.62,-478.38 215.38,-478.38 215.38,-428.62 200.62,-428.62"/>
</a>
</g>
</g>
<!-- Node6&#45;&gt;Node5 -->
<g id="edge5_Node000005_Node000006" class="edge">
<title>Node6&#45;&gt;Node5</title>
<g id="a_edge5_Node000005_Node000006"><a xlink:title=" ">
<path fill="none" stroke="#63b8ff" d="M201.53,-428.86C197.72,-416.34 192.39,-400.88 186,-387.75 184.9,-385.49 183.71,-383.21 182.47,-380.94"/>
<polygon fill="none" stroke="#63b8ff" points="182.41,-380.85 175.92,-377.71 176.32,-370.51 182.81,-373.65 182.41,-380.85"/>
</a>
</g>
<text xml:space="preserve" text-anchor="start" x="196.39" y="-392.5" font-family="Helvetica,sans-Serif" font-size="10.00" fill="grey">+keys</text>
</g>
<!-- Node7 -->
<g id="Node000007" class="node">
<title>Node7</title>
<g id="a_Node000007"><a xlink:title=" ">
<polygon fill="white" stroke="none" points="140,-478.38 126,-478.38 126,-428.62 140,-428.62 140,-478.38"/>
<text xml:space="preserve" text-anchor="start" x="130" y="-464.88" font-family="Helvetica,sans-Serif" font-size="10.00">T</text>
<text xml:space="preserve" text-anchor="start" x="131.5" y="-449.62" font-family="Helvetica,sans-Serif" font-size="10.00"> </text>
<text xml:space="preserve" text-anchor="start" x="131.5" y="-434.38" font-family="Helvetica,sans-Serif" font-size="10.00"> </text>
<polygon fill="#666666" stroke="#666666" points="126,-461.12 126,-461.12 140,-461.12 140,-461.12 126,-461.12"/>
<polygon fill="#666666" stroke="#666666" points="126,-445.88 126,-445.88 140,-445.88 140,-445.88 126,-445.88"/>
<polygon fill="none" stroke="#666666" points="126,-428.62 126,-478.38 140,-478.38 140,-428.62 126,-428.62"/>
</a>
</g>
</g>
<!-- Node7&#45;&gt;Node5 -->
<g id="edge6_Node000005_Node000007" class="edge">
<title>Node7&#45;&gt;Node5</title>
<g id="a_edge6_Node000005_Node000007"><a xlink:title=" ">
<path fill="none" stroke="#63b8ff" d="M131.26,-428.86C130.89,-416.48 131.32,-401.15 134.25,-387.75 134.69,-385.76 135.21,-383.75 135.79,-381.74"/>
<polygon fill="none" stroke="#63b8ff" points="135.8,-381.72 134.02,-374.73 139.79,-370.4 141.57,-377.39 135.8,-381.72"/>
</a>
</g>
<text xml:space="preserve" text-anchor="start" x="137.25" y="-392.5" font-family="Helvetica,sans-Serif" font-size="10.00" fill="grey">+elements</text>
</g>
<!-- Node8&#45;&gt;Node1 -->
<g id="edge7_Node000001_Node000008" class="edge">
<title>Node8&#45;&gt;Node1</title>
<g id="a_edge7_Node000001_Node000008"><a xlink:title=" ">
<path fill="none" stroke="#63b8ff" d="M181.24,-179.46C175.46,-167.15 168.44,-152.22 161.41,-137.25"/>
<polygon fill="none" stroke="#63b8ff" points="161.53,-137.51 155.36,-133.78 156.43,-126.65 162.6,-130.38 161.53,-137.51"/>
</a>
</g>
<text xml:space="preserve" text-anchor="start" x="174.06" y="-148.75" font-family="Helvetica,sans-Serif" font-size="10.00" fill="grey">&#45;_fonts</text>
</g>
</g>
</svg>

<g id="navigator" transform="translate(0 0)" fill="#404254">
  <rect fill="#f2f5e9" fill-opacity="0.5" stroke="#606060" stroke-width=".5" x="0" y="0" width="60" height="60"/>
  <use id="zoomplus" xlink:href="#zoomPlus" x="17" y="9" onmousedown="handleZoom(evt,'in')"/>
  <use id="zoomminus" xlink:href="#zoomMin" x="42" y="9" onmousedown="handleZoom(evt,'out')"/>
  <use id="reset" xlink:href="#resetDef" x="30" y="36" onmousedown="handleReset()"/>
   <use id="arrowup" xlink:href="#arrowUp" x="0" y="0" onmousedown="handlePan(0,-1)"/>
  <use id="arrowright" xlink:href="#arrowRight" x="0" y="0" onmousedown="handlePan(1,0)"/>
  <use id="arrowdown" xlink:href="#arrowDown" x="0" y="0" onmousedown="handlePan(0,1)"/>
  <use id="arrowleft" xlink:href="#arrowLeft" x="0" y="0" onmousedown="handlePan(-1,0)"/>
</g>
<svg viewBox="0 0 15 15" width="100%" height="30px" preserveAspectRatio="xMaxYMin meet">
 <g id="arrow_out" transform="scale(0.3 0.3)">
  <a xlink:href="classrtp_1_1client_1_1AssetManager__coll__graph_org.svg" target="_base">
   <rect id="button" ry="5" rx="5" y="6" x="6" height="38" width="38"
        fill="#f2f5e9" fill-opacity="0.5" stroke="#606060" stroke-width="1.0"/>
   <path id="arrow"
     d="M 11.500037,31.436501 C 11.940474,20.09759 22.043105,11.32322 32.158766,21.979434 L 37.068811,17.246167 C 37.068811,17.246167 37.088388,32 37.088388,32 L 22.160133,31.978069 C 22.160133,31.978069 26.997745,27.140456 26.997745,27.140456 C 18.528582,18.264221 13.291696,25.230495 11.500037,31.436501 z"
     style="fill:#404040;"/>
  </a>
 </g>
</svg>

<style type='text/css'>
<![CDATA[
[data-mouse-over-selected='false'] { opacity: 0.7; }
[data-mouse-over-selected='true']  { opacity: 1.0; }
]]>
</style>
<script type="application/ecmascript"><![CDATA[
document.addEventListener('DOMContentLoaded', (event) => {
  highlightEdges();
  highlightAdjacentNodes();
});
]]></script>
</svg>
