<?xml version="1.0" encoding="UTF-8" standalone="no"?>
<!DOCTYPE svg PUBLIC "-//W3C//DTD SVG 1.1//EN"
 "http://www.w3.org/Graphics/SVG/1.1/DTD/svg11.dtd">
<!-- Generated by graphviz version 14.0.5 (20251129.0259)
 -->
<!-- Title: rtp::client::RenderSystem Pages: 1 -->
<svg width="686pt" height="986pt"
 viewBox="0.00 0.00 686.00 986.00" xmlns="http://www.w3.org/2000/svg" xmlns:xlink="http://www.w3.org/1999/xlink">
<g id="graph0" class="graph" transform="scale(1 1) rotate(0) translate(4 981.75)">
<title>rtp::client::RenderSystem</title>
<!-- Node1 -->
<g id="Node000001" class="node">
<title>Node1</title>
<g id="a_Node000001"><a xlink:title=" ">
<polygon fill="#999999" stroke="none" points="223.88,-80.25 104.12,-80.25 104.12,0 223.88,0 223.88,-80.25"/>
<text xml:space="preserve" text-anchor="start" x="108.12" y="-66.75" font-family="Helvetica,sans-Serif" font-size="10.00">rtp::client::RenderSystem</text>
<text xml:space="preserve" text-anchor="start" x="113.12" y="-51.5" font-family="Helvetica,sans-Serif" font-size="10.00">&#45;</text>
<text xml:space="preserve" text-anchor="start" x="125.12" y="-51.5" font-family="Helvetica,sans-Serif" font-size="10.00">_window</text>
<text xml:space="preserve" text-anchor="start" x="111.62" y="-36.25" font-family="Helvetica,sans-Serif" font-size="10.00">+</text>
<text xml:space="preserve" text-anchor="start" x="125.12" y="-36.25" font-family="Helvetica,sans-Serif" font-size="10.00">RenderSystem()</text>
<text xml:space="preserve" text-anchor="start" x="111.62" y="-21" font-family="Helvetica,sans-Serif" font-size="10.00">+</text>
<text xml:space="preserve" text-anchor="start" x="125.12" y="-21" font-family="Helvetica,sans-Serif" font-size="10.00">update()</text>
<text xml:space="preserve" text-anchor="start" x="111.62" y="-5.75" font-family="Helvetica,sans-Serif" font-size="10.00">+</text>
<text xml:space="preserve" text-anchor="start" x="125.12" y="-5.75" font-family="Helvetica,sans-Serif" font-size="10.00">clearTextureCache()</text>
<polygon fill="#666666" stroke="#666666" points="104.12,-63 104.12,-63 223.88,-63 223.88,-63 104.12,-63"/>
<polygon fill="#666666" stroke="#666666" points="104.12,-47.75 104.12,-47.75 123.12,-47.75 123.12,-47.75 104.12,-47.75"/>
<polygon fill="#666666" stroke="#666666" points="123.12,-47.75 123.12,-47.75 223.88,-47.75 223.88,-47.75 123.12,-47.75"/>
<polygon fill="none" stroke="#666666" points="104.12,0 104.12,-80.25 223.88,-80.25 223.88,0 104.12,0"/>
</a>
</g>
</g>
<!-- Node2 -->
<g id="Node000002" class="node">
<title>Node2</title>
<g id="a_Node000002"><a xlink:href="classrtp_1_1ecs_1_1ISystem.html" target="_top" xlink:title="Abstract base class for all ECS systems.">
<polygon fill="white" stroke="none" points="127.88,-320.5 44.12,-320.5 44.12,-255.5 127.88,-255.5 127.88,-320.5"/>
<text xml:space="preserve" text-anchor="start" x="48.12" y="-307" font-family="Helvetica,sans-Serif" font-size="10.00">rtp::ecs::ISystem</text>
<text xml:space="preserve" text-anchor="start" x="84.5" y="-291.75" font-family="Helvetica,sans-Serif" font-size="10.00"> </text>
<text xml:space="preserve" text-anchor="start" x="52.38" y="-276.5" font-family="Helvetica,sans-Serif" font-size="10.00">+</text>
<text xml:space="preserve" text-anchor="start" x="66.62" y="-276.5" font-family="Helvetica,sans-Serif" font-size="10.00">~ISystem()</text>
<text xml:space="preserve" text-anchor="start" x="52.38" y="-261.25" font-family="Helvetica,sans-Serif" font-size="10.00">+</text>
<text xml:space="preserve" text-anchor="start" x="66.62" y="-261.25" font-family="Helvetica,sans-Serif" font-size="10.00">update()</text>
<polygon fill="#666666" stroke="#666666" points="44.12,-303.25 44.12,-303.25 127.88,-303.25 127.88,-303.25 44.12,-303.25"/>
<polygon fill="#666666" stroke="#666666" points="44.12,-288 44.12,-288 127.88,-288 127.88,-288 44.12,-288"/>
<polygon fill="none" stroke="#666666" points="44.12,-255.5 44.12,-320.5 127.88,-320.5 127.88,-255.5 44.12,-255.5"/>
</a>
</g>
</g>
<!-- Node2&#45;&gt;Node1 -->
<g id="edge1_Node000001_Node000002" class="edge">
<title>Node2&#45;&gt;Node1</title>
<g id="a_edge1_Node000001_Node000002"><a xlink:title=" ">
<path fill="none" stroke="#63b8ff" d="M99.4,-244.75C114.08,-198.49 137.42,-124.91 151.66,-80.02"/>
<polygon fill="none" stroke="#63b8ff" points="96.1,-243.58 96.42,-254.17 102.78,-245.69 96.1,-243.58"/>
</a>
</g>
</g>
<!-- Node3 -->
<g id="Node000003" class="node">
<title>Node3</title>
<g id="a_Node000003"><a xlink:href="classrtp_1_1ecs_1_1Registry.html" target="_top" xlink:title=" ">
<polygon fill="white" stroke="none" points="410.25,-442.5 303.75,-442.5 303.75,-133.5 410.25,-133.5 410.25,-442.5"/>
<text xml:space="preserve" text-anchor="start" x="319.12" y="-429" font-family="Helvetica,sans-Serif" font-size="10.00">rtp::ecs::Registry</text>
<text xml:space="preserve" text-anchor="start" x="355.5" y="-413.75" font-family="Helvetica,sans-Serif" font-size="10.00"> </text>
<text xml:space="preserve" text-anchor="start" x="307.75" y="-398.5" font-family="Helvetica,sans-Serif" font-size="10.00">+</text>
<text xml:space="preserve" text-anchor="start" x="317.75" y="-398.5" font-family="Helvetica,sans-Serif" font-size="10.00">~Registry()</text>
<text xml:space="preserve" text-anchor="start" x="307.75" y="-383.25" font-family="Helvetica,sans-Serif" font-size="10.00">+</text>
<text xml:space="preserve" text-anchor="start" x="317.75" y="-383.25" font-family="Helvetica,sans-Serif" font-size="10.00">spawn()</text>
<text xml:space="preserve" text-anchor="start" x="307.75" y="-368" font-family="Helvetica,sans-Serif" font-size="10.00">+</text>
<text xml:space="preserve" text-anchor="start" x="317.75" y="-368" font-family="Helvetica,sans-Serif" font-size="10.00">kill()</text>
<text xml:space="preserve" text-anchor="start" x="307.75" y="-352.75" font-family="Helvetica,sans-Serif" font-size="10.00">+</text>
<text xml:space="preserve" text-anchor="start" x="317.75" y="-352.75" font-family="Helvetica,sans-Serif" font-size="10.00">subscribe()</text>
<text xml:space="preserve" text-anchor="start" x="307.75" y="-337.5" font-family="Helvetica,sans-Serif" font-size="10.00">+</text>
<text xml:space="preserve" text-anchor="start" x="317.75" y="-337.5" font-family="Helvetica,sans-Serif" font-size="10.00">isAlive()</text>
<text xml:space="preserve" text-anchor="start" x="307.75" y="-322.25" font-family="Helvetica,sans-Serif" font-size="10.00">+</text>
<text xml:space="preserve" text-anchor="start" x="317.75" y="-322.25" font-family="Helvetica,sans-Serif" font-size="10.00">add()</text>
<text xml:space="preserve" text-anchor="start" x="307.75" y="-307" font-family="Helvetica,sans-Serif" font-size="10.00">+</text>
<text xml:space="preserve" text-anchor="start" x="317.75" y="-307" font-family="Helvetica,sans-Serif" font-size="10.00">get()</text>
<text xml:space="preserve" text-anchor="start" x="307.75" y="-291.75" font-family="Helvetica,sans-Serif" font-size="10.00">+</text>
<text xml:space="preserve" text-anchor="start" x="317.75" y="-291.75" font-family="Helvetica,sans-Serif" font-size="10.00">has()</text>
<text xml:space="preserve" text-anchor="start" x="307.75" y="-276.5" font-family="Helvetica,sans-Serif" font-size="10.00">+</text>
<text xml:space="preserve" text-anchor="start" x="317.75" y="-276.5" font-family="Helvetica,sans-Serif" font-size="10.00">remove()</text>
<text xml:space="preserve" text-anchor="start" x="307.75" y="-261.25" font-family="Helvetica,sans-Serif" font-size="10.00">+</text>
<text xml:space="preserve" text-anchor="start" x="317.75" y="-261.25" font-family="Helvetica,sans-Serif" font-size="10.00">clear()</text>
<text xml:space="preserve" text-anchor="start" x="307.75" y="-246" font-family="Helvetica,sans-Serif" font-size="10.00">+</text>
<text xml:space="preserve" text-anchor="start" x="317.75" y="-246" font-family="Helvetica,sans-Serif" font-size="10.00">purge()</text>
<text xml:space="preserve" text-anchor="start" x="307.75" y="-230.75" font-family="Helvetica,sans-Serif" font-size="10.00">+</text>
<text xml:space="preserve" text-anchor="start" x="317.75" y="-230.75" font-family="Helvetica,sans-Serif" font-size="10.00">view()</text>
<text xml:space="preserve" text-anchor="start" x="307.75" y="-215.5" font-family="Helvetica,sans-Serif" font-size="10.00">+</text>
<text xml:space="preserve" text-anchor="start" x="317.75" y="-215.5" font-family="Helvetica,sans-Serif" font-size="10.00">zipView()</text>
<text xml:space="preserve" text-anchor="start" x="307.75" y="-200.25" font-family="Helvetica,sans-Serif" font-size="10.00">+</text>
<text xml:space="preserve" text-anchor="start" x="317.75" y="-200.25" font-family="Helvetica,sans-Serif" font-size="10.00">entityCount()</text>
<text xml:space="preserve" text-anchor="start" x="307.75" y="-185" font-family="Helvetica,sans-Serif" font-size="10.00">+</text>
<text xml:space="preserve" text-anchor="start" x="317.75" y="-185" font-family="Helvetica,sans-Serif" font-size="10.00">componentCount()</text>
<text xml:space="preserve" text-anchor="start" x="309.25" y="-169.75" font-family="Helvetica,sans-Serif" font-size="10.00">&#45;</text>
<text xml:space="preserve" text-anchor="start" x="317.75" y="-169.75" font-family="Helvetica,sans-Serif" font-size="10.00">getArray()</text>
<text xml:space="preserve" text-anchor="start" x="309.25" y="-154.5" font-family="Helvetica,sans-Serif" font-size="10.00">&#45;</text>
<text xml:space="preserve" text-anchor="start" x="317.75" y="-154.5" font-family="Helvetica,sans-Serif" font-size="10.00">getSmallestArray()</text>
<text xml:space="preserve" text-anchor="start" x="309.25" y="-139.25" font-family="Helvetica,sans-Serif" font-size="10.00">&#45;</text>
<text xml:space="preserve" text-anchor="start" x="317.75" y="-139.25" font-family="Helvetica,sans-Serif" font-size="10.00">hasAllComponents()</text>
<polygon fill="#666666" stroke="#666666" points="303.75,-425.25 303.75,-425.25 410.25,-425.25 410.25,-425.25 303.75,-425.25"/>
<polygon fill="#666666" stroke="#666666" points="303.75,-410 303.75,-410 410.25,-410 410.25,-410 303.75,-410"/>
<polygon fill="none" stroke="#666666" points="303.75,-133.5 303.75,-442.5 410.25,-442.5 410.25,-133.5 303.75,-133.5"/>
</a>
</g>
</g>
<!-- Node3&#45;&gt;Node1 -->
<g id="edge2_Node000001_Node000003" class="edge">
<title>Node3&#45;&gt;Node1</title>
<g id="a_edge2_Node000001_Node000003"><a xlink:title=" ">
<path fill="none" stroke="#63b8ff" d="M303.99,-215.39C284.46,-189.39 261.98,-159.92 241,-133.5 229.61,-119.16 216.99,-103.8 205.32,-89.81"/>
<polygon fill="none" stroke="#63b8ff" points="205.3,-89.78 198.38,-87.75 197.59,-80.58 204.51,-82.61 205.3,-89.78"/>
</a>
</g>
<text xml:space="preserve" text-anchor="start" x="227.46" y="-103" font-family="Helvetica,sans-Serif" font-size="10.00" fill="grey">&#45;_r</text>
</g>
<!-- Node4 -->
<g id="Node000004" class="node">
<title>Node4</title>
<g id="a_Node000004"><a xlink:title=" ">
<polygon fill="white" stroke="none" points="408.62,-579.25 305.38,-579.25 305.38,-495.75 408.62,-495.75 408.62,-579.25"/>
<text xml:space="preserve" text-anchor="start" x="309.38" y="-565.75" font-family="Helvetica,sans-Serif" font-size="10.00">std::unordered_map</text>
<text xml:space="preserve" text-anchor="start" x="309.38" y="-554.5" font-family="Helvetica,sans-Serif" font-size="10.00">&lt; std::type_index, std</text>
<text xml:space="preserve" text-anchor="start" x="309.38" y="-543.25" font-family="Helvetica,sans-Serif" font-size="10.00">::unique_ptr&lt; rtp::ecs</text>
<text xml:space="preserve" text-anchor="start" x="316.5" y="-532" font-family="Helvetica,sans-Serif" font-size="10.00">::ISparseArray &gt; &gt;</text>
<text xml:space="preserve" text-anchor="start" x="325.44" y="-516.75" font-family="Helvetica,sans-Serif" font-size="10.00">+</text>
<text xml:space="preserve" text-anchor="start" x="351.5" y="-516.75" font-family="Helvetica,sans-Serif" font-size="10.00">keys</text>
<text xml:space="preserve" text-anchor="start" x="355.5" y="-501.5" font-family="Helvetica,sans-Serif" font-size="10.00"> </text>
<polygon fill="#666666" stroke="#666666" points="305.38,-528.25 305.38,-528.25 408.62,-528.25 408.62,-528.25 305.38,-528.25"/>
<polygon fill="#666666" stroke="#666666" points="305.38,-513 305.38,-513 349.5,-513 349.5,-513 305.38,-513"/>
<polygon fill="#666666" stroke="#666666" points="349.5,-513 349.5,-513 408.62,-513 408.62,-513 349.5,-513"/>
<polygon fill="none" stroke="#666666" points="305.38,-495.75 305.38,-579.25 408.62,-579.25 408.62,-495.75 305.38,-495.75"/>
</a>
</g>
</g>
<!-- Node4&#45;&gt;Node3 -->
<g id="edge3_Node000003_Node000004" class="edge">
<title>Node4&#45;&gt;Node3</title>
<g id="a_edge3_Node000003_Node000004"><a xlink:title=" ">
<path fill="none" stroke="#63b8ff" d="M357,-495.91C357,-483.91 357,-469.97 357,-455.1"/>
<polygon fill="none" stroke="#63b8ff" points="357,-455.31 353,-449.31 357,-443.31 361,-449.31 357,-455.31"/>
</a>
</g>
<text xml:space="preserve" text-anchor="start" x="360" y="-465.25" font-family="Helvetica,sans-Serif" font-size="10.00" fill="grey">&#45;_arrays</text>
</g>
<!-- Node5 -->
<g id="Node000005" class="node">
<title>Node5</title>
<g id="a_Node000005"><a xlink:title=" ">
<polygon fill="white" stroke="none" points="407.88,-726 306.12,-726 306.12,-665 407.88,-665 407.88,-726"/>
<text xml:space="preserve" text-anchor="start" x="310.12" y="-712.5" font-family="Helvetica,sans-Serif" font-size="10.00">std::unique_ptr&lt; rtp</text>
<text xml:space="preserve" text-anchor="start" x="310.12" y="-701.25" font-family="Helvetica,sans-Serif" font-size="10.00">::ecs::ISparseArray &gt;</text>
<text xml:space="preserve" text-anchor="start" x="355.5" y="-686" font-family="Helvetica,sans-Serif" font-size="10.00"> </text>
<text xml:space="preserve" text-anchor="start" x="318.5" y="-670.75" font-family="Helvetica,sans-Serif" font-size="10.00">+</text>
<text xml:space="preserve" text-anchor="start" x="336.88" y="-670.75" font-family="Helvetica,sans-Serif" font-size="10.00">operator&#45;&gt;()</text>
<polygon fill="#666666" stroke="#666666" points="306.12,-697.5 306.12,-697.5 407.88,-697.5 407.88,-697.5 306.12,-697.5"/>
<polygon fill="#666666" stroke="#666666" points="306.12,-682.25 306.12,-682.25 407.88,-682.25 407.88,-682.25 306.12,-682.25"/>
<polygon fill="none" stroke="#666666" points="306.12,-665 306.12,-726 407.88,-726 407.88,-665 306.12,-665"/>
</a>
</g>
</g>
<!-- Node5&#45;&gt;Node4 -->
<g id="edge4_Node000004_Node000005" class="edge">
<title>Node5&#45;&gt;Node4</title>
<g id="a_edge4_Node000004_Node000005"><a xlink:title=" ">
<path fill="none" stroke="#63b8ff" d="M354.32,-665.13C353.87,-659.14 353.48,-652.87 353.25,-647 352.38,-624.91 352.55,-619.35 353.25,-597.25 353.31,-595.49 353.37,-593.7 353.44,-591.9"/>
<polygon fill="none" stroke="#63b8ff" points="353.45,-591.82 349.75,-585.63 354.04,-579.84 357.74,-586.03 353.45,-591.82"/>
</a>
</g>
<text xml:space="preserve" text-anchor="start" x="356.25" y="-618.25" font-family="Helvetica,sans-Serif" font-size="10.00" fill="grey">+elements</text>
</g>
<!-- Node6 -->
<g id="Node000006" class="node">
<title>Node6</title>
<g id="a_Node000006"><a xlink:href="classrtp_1_1ecs_1_1ISparseArray.html" target="_top" xlink:title="Type&#45;erased base interface for sparse arrays.">
<polygon fill="white" stroke="none" points="333,-874.75 229,-874.75 229,-779.25 333,-779.25 333,-874.75"/>
<text xml:space="preserve" text-anchor="start" x="233" y="-861.25" font-family="Helvetica,sans-Serif" font-size="10.00">rtp::ecs::ISparseArray</text>
<text xml:space="preserve" text-anchor="start" x="279.5" y="-846" font-family="Helvetica,sans-Serif" font-size="10.00"> </text>
<text xml:space="preserve" text-anchor="start" x="237.25" y="-830.75" font-family="Helvetica,sans-Serif" font-size="10.00">+</text>
<text xml:space="preserve" text-anchor="start" x="251.5" y="-830.75" font-family="Helvetica,sans-Serif" font-size="10.00">~ISparseArray()</text>
<text xml:space="preserve" text-anchor="start" x="237.25" y="-815.5" font-family="Helvetica,sans-Serif" font-size="10.00">+</text>
<text xml:space="preserve" text-anchor="start" x="251.5" y="-815.5" font-family="Helvetica,sans-Serif" font-size="10.00">erase()</text>
<text xml:space="preserve" text-anchor="start" x="237.25" y="-800.25" font-family="Helvetica,sans-Serif" font-size="10.00">+</text>
<text xml:space="preserve" text-anchor="start" x="251.5" y="-800.25" font-family="Helvetica,sans-Serif" font-size="10.00">has()</text>
<text xml:space="preserve" text-anchor="start" x="237.25" y="-785" font-family="Helvetica,sans-Serif" font-size="10.00">+</text>
<text xml:space="preserve" text-anchor="start" x="251.5" y="-785" font-family="Helvetica,sans-Serif" font-size="10.00">clear()</text>
<polygon fill="#666666" stroke="#666666" points="229,-857.5 229,-857.5 333,-857.5 333,-857.5 229,-857.5"/>
<polygon fill="#666666" stroke="#666666" points="229,-842.25 229,-842.25 333,-842.25 333,-842.25 229,-842.25"/>
<polygon fill="none" stroke="#666666" points="229,-779.25 229,-874.75 333,-874.75 333,-779.25 229,-779.25"/>
</a>
</g>
</g>
<!-- Node6&#45;&gt;Node5 -->
<g id="edge5_Node000005_Node000006" class="edge">
<title>Node6&#45;&gt;Node5</title>
<g id="a_edge5_Node000005_Node000006"><a xlink:title=" ">
<path fill="none" stroke="#63b8ff" d="M308.22,-779.61C316.48,-765.55 325.47,-750.23 333.46,-736.62"/>
<polygon fill="none" stroke="#63b8ff" points="333.36,-736.77 332.95,-729.58 339.44,-726.43 339.85,-733.62 333.36,-736.77"/>
</a>
</g>
<text xml:space="preserve" text-anchor="start" x="331.04" y="-748.75" font-family="Helvetica,sans-Serif" font-size="10.00" fill="grey">+ptr</text>
</g>
<!-- Node7 -->
<g id="Node000007" class="node">
<title>Node7</title>
<g id="a_Node000007"><a xlink:title=" ">
<polygon fill="white" stroke="none" points="447.25,-851.88 350.75,-851.88 350.75,-802.12 447.25,-802.12 447.25,-851.88"/>
<text xml:space="preserve" text-anchor="start" x="354.75" y="-838.38" font-family="Helvetica,sans-Serif" font-size="10.00">std::unique_ptr&lt; T &gt;</text>
<text xml:space="preserve" text-anchor="start" x="397.5" y="-823.12" font-family="Helvetica,sans-Serif" font-size="10.00"> </text>
<text xml:space="preserve" text-anchor="start" x="361.81" y="-807.88" font-family="Helvetica,sans-Serif" font-size="10.00">+</text>
<text xml:space="preserve" text-anchor="start" x="378.88" y="-807.88" font-family="Helvetica,sans-Serif" font-size="10.00">operator&#45;&gt;()</text>
<polygon fill="#666666" stroke="#666666" points="350.75,-834.62 350.75,-834.62 447.25,-834.62 447.25,-834.62 350.75,-834.62"/>
<polygon fill="#666666" stroke="#666666" points="350.75,-819.38 350.75,-819.38 447.25,-819.38 447.25,-819.38 350.75,-819.38"/>
<polygon fill="none" stroke="#666666" points="350.75,-802.12 350.75,-851.88 447.25,-851.88 447.25,-802.12 350.75,-802.12"/>
</a>
</g>
</g>
<!-- Node7&#45;&gt;Node5 -->
<g id="edge6_Node000005_Node000007" class="edge">
<title>Node7&#45;&gt;Node5</title>
<g id="a_edge6_Node000005_Node000007"><a xlink:title=" ">
<path fill="none" stroke="orange" d="M374.6,-792.58C368.76,-782.93 363.28,-772.06 360,-761.25 356.57,-749.94 355.45,-737.02 355.32,-725.7"/>
<polygon fill="orange" stroke="orange" points="371.57,-794.35 379.91,-800.88 377.46,-790.57 371.57,-794.35"/>
</a>
</g>
<text xml:space="preserve" text-anchor="start" x="363" y="-748.75" font-family="Helvetica,sans-Serif" font-size="10.00" fill="grey">&lt; rtp::ecs::ISparseArray &gt;</text>
</g>
<!-- Node8 -->
<g id="Node000008" class="node">
<title>Node8</title>
<g id="a_Node000008"><a xlink:title=" ">
<polygon fill="white" stroke="none" points="442,-977.75 428,-977.75 428,-928 442,-928 442,-977.75"/>
<text xml:space="preserve" text-anchor="start" x="432" y="-964.25" font-family="Helvetica,sans-Serif" font-size="10.00">T</text>
<text xml:space="preserve" text-anchor="start" x="433.5" y="-949" font-family="Helvetica,sans-Serif" font-size="10.00"> </text>
<text xml:space="preserve" text-anchor="start" x="433.5" y="-933.75" font-family="Helvetica,sans-Serif" font-size="10.00"> </text>
<polygon fill="#666666" stroke="#666666" points="428,-960.5 428,-960.5 442,-960.5 442,-960.5 428,-960.5"/>
<polygon fill="#666666" stroke="#666666" points="428,-945.25 428,-945.25 442,-945.25 442,-945.25 428,-945.25"/>
<polygon fill="none" stroke="#666666" points="428,-928 428,-977.75 442,-977.75 442,-928 428,-928"/>
</a>
</g>
</g>
<!-- Node8&#45;&gt;Node7 -->
<g id="edge7_Node000007_Node000008" class="edge">
<title>Node8&#45;&gt;Node7</title>
<g id="a_edge7_Node000007_Node000008"><a xlink:title=" ">
<path fill="none" stroke="#63b8ff" d="M428.14,-928.28C422.86,-910.12 415.48,-884.69 409.46,-863.99"/>
<polygon fill="none" stroke="#63b8ff" points="409.43,-863.89 403.92,-859.25 406.08,-852.37 411.6,-857.01 409.43,-863.89"/>
</a>
</g>
<text xml:space="preserve" text-anchor="start" x="425.33" y="-897.5" font-family="Helvetica,sans-Serif" font-size="10.00" fill="grey">+ptr</text>
</g>
<!-- Node9 -->
<g id="Node000009" class="node">
<title>Node9</title>
<g id="a_Node000009"><a xlink:title=" ">
<polygon fill="white" stroke="none" points="196.12,-726 101.88,-726 101.88,-665 196.12,-665 196.12,-726"/>
<text xml:space="preserve" text-anchor="start" x="105.88" y="-712.5" font-family="Helvetica,sans-Serif" font-size="10.00">std::unordered_map</text>
<text xml:space="preserve" text-anchor="start" x="130.62" y="-701.25" font-family="Helvetica,sans-Serif" font-size="10.00">&lt; K, T &gt;</text>
<text xml:space="preserve" text-anchor="start" x="147.5" y="-686" font-family="Helvetica,sans-Serif" font-size="10.00"> </text>
<text xml:space="preserve" text-anchor="start" x="147.5" y="-670.75" font-family="Helvetica,sans-Serif" font-size="10.00"> </text>
<polygon fill="#666666" stroke="#666666" points="101.88,-697.5 101.88,-697.5 196.12,-697.5 196.12,-697.5 101.88,-697.5"/>
<polygon fill="#666666" stroke="#666666" points="101.88,-682.25 101.88,-682.25 196.12,-682.25 196.12,-682.25 101.88,-682.25"/>
<polygon fill="none" stroke="#666666" points="101.88,-665 101.88,-726 196.12,-726 196.12,-665 101.88,-665"/>
</a>
</g>
</g>
<!-- Node8&#45;&gt;Node9 -->
<g id="edge10_Node000009_Node000008" class="edge">
<title>Node8&#45;&gt;Node9</title>
<g id="a_edge10_Node000009_Node000008"><a xlink:title=" ">
<path fill="none" stroke="#63b8ff" d="M428.41,-950.96C390.81,-945.63 203.9,-917.21 168.25,-874.75 151.49,-854.79 148.42,-784.66 148.3,-738.55"/>
<polygon fill="none" stroke="#63b8ff" points="148.3,-738.57 144.32,-732.55 148.34,-726.57 152.32,-732.58 148.3,-738.57"/>
</a>
</g>
<text xml:space="preserve" text-anchor="start" x="171.25" y="-823.12" font-family="Helvetica,sans-Serif" font-size="10.00" fill="grey">+elements</text>
</g>
<!-- Node12 -->
<g id="Node000012" class="node">
<title>Node12</title>
<g id="a_Node000012"><a xlink:title=" ">
<polygon fill="white" stroke="none" points="639.25,-851.88 560.75,-851.88 560.75,-802.12 639.25,-802.12 639.25,-851.88"/>
<text xml:space="preserve" text-anchor="start" x="564.75" y="-838.38" font-family="Helvetica,sans-Serif" font-size="10.00">std::vector&lt; T &gt;</text>
<text xml:space="preserve" text-anchor="start" x="598.5" y="-823.12" font-family="Helvetica,sans-Serif" font-size="10.00"> </text>
<text xml:space="preserve" text-anchor="start" x="598.5" y="-807.88" font-family="Helvetica,sans-Serif" font-size="10.00"> </text>
<polygon fill="#666666" stroke="#666666" points="560.75,-834.62 560.75,-834.62 639.25,-834.62 639.25,-834.62 560.75,-834.62"/>
<polygon fill="#666666" stroke="#666666" points="560.75,-819.38 560.75,-819.38 639.25,-819.38 639.25,-819.38 560.75,-819.38"/>
<polygon fill="none" stroke="#666666" points="560.75,-802.12 560.75,-851.88 639.25,-851.88 639.25,-802.12 560.75,-802.12"/>
</a>
</g>
</g>
<!-- Node8&#45;&gt;Node12 -->
<g id="edge13_Node000012_Node000008" class="edge">
<title>Node8&#45;&gt;Node12</title>
<g id="a_edge13_Node000012_Node000008"><a xlink:title=" ">
<path fill="none" stroke="#63b8ff" d="M441.87,-949.6C457.33,-944.29 495.67,-929.95 523,-910 541.81,-896.27 559.8,-877.54 573.66,-861.44"/>
<polygon fill="none" stroke="#63b8ff" points="573.43,-861.72 574.22,-854.55 581.15,-852.52 580.35,-859.69 573.43,-861.72"/>
</a>
</g>
<text xml:space="preserve" text-anchor="start" x="544.96" y="-897.5" font-family="Helvetica,sans-Serif" font-size="10.00" fill="grey">+elements</text>
</g>
<!-- Node14 -->
<g id="Node000014" class="node">
<title>Node14</title>
<g id="a_Node000014"><a xlink:title=" ">
<polygon fill="white" stroke="none" points="542.88,-851.88 465.12,-851.88 465.12,-802.12 542.88,-802.12 542.88,-851.88"/>
<text xml:space="preserve" text-anchor="start" x="469.12" y="-838.38" font-family="Helvetica,sans-Serif" font-size="10.00">std::deque&lt; T &gt;</text>
<text xml:space="preserve" text-anchor="start" x="502.5" y="-823.12" font-family="Helvetica,sans-Serif" font-size="10.00"> </text>
<text xml:space="preserve" text-anchor="start" x="502.5" y="-807.88" font-family="Helvetica,sans-Serif" font-size="10.00"> </text>
<polygon fill="#666666" stroke="#666666" points="465.12,-834.62 465.12,-834.62 542.88,-834.62 542.88,-834.62 465.12,-834.62"/>
<polygon fill="#666666" stroke="#666666" points="465.12,-819.38 465.12,-819.38 542.88,-819.38 542.88,-819.38 465.12,-819.38"/>
<polygon fill="none" stroke="#666666" points="465.12,-802.12 465.12,-851.88 542.88,-851.88 542.88,-802.12 465.12,-802.12"/>
</a>
</g>
</g>
<!-- Node8&#45;&gt;Node14 -->
<g id="edge16_Node000014_Node000008" class="edge">
<title>Node8&#45;&gt;Node14</title>
<g id="a_edge16_Node000014_Node000008"><a xlink:title=" ">
<path fill="none" stroke="#63b8ff" d="M441.87,-939.54C451.74,-921.82 470.33,-888.45 484.61,-862.81"/>
<polygon fill="none" stroke="#63b8ff" points="484.54,-862.93 483.97,-855.74 490.38,-852.45 490.96,-859.64 484.54,-862.93"/>
</a>
</g>
<text xml:space="preserve" text-anchor="start" x="470.43" y="-897.5" font-family="Helvetica,sans-Serif" font-size="10.00" fill="grey">+elements</text>
</g>
<!-- Node9&#45;&gt;Node4 -->
<g id="edge8_Node000004_Node000009" class="edge">
<title>Node9&#45;&gt;Node4</title>
<g id="a_edge8_Node000004_Node000009"><a xlink:title=" ">
<path fill="none" stroke="orange" d="M187.84,-657.07C191,-653.72 194.09,-650.34 197,-647 215.14,-626.17 211.51,-612.93 234.25,-597.25 258.13,-580.78 270.72,-591.55 297,-579.25 299.85,-577.91 302.72,-576.45 305.57,-574.9"/>
<polygon fill="orange" stroke="orange" points="185.41,-654.55 180.97,-664.17 190.44,-659.42 185.41,-654.55"/>
</a>
</g>
<text xml:space="preserve" text-anchor="start" x="237.25" y="-633.5" font-family="Helvetica,sans-Serif" font-size="10.00" fill="grey">&lt; std::type_index,</text>
<text xml:space="preserve" text-anchor="start" x="237.25" y="-618.25" font-family="Helvetica,sans-Serif" font-size="10.00" fill="grey">   std::unique_ptr&lt; rtp</text>
<text xml:space="preserve" text-anchor="start" x="237.25" y="-603" font-family="Helvetica,sans-Serif" font-size="10.00" fill="grey">  ::ecs::ISparseArray &gt; &gt;</text>
</g>
<!-- Node16 -->
<g id="Node000016" class="node">
<title>Node16</title>
<g id="a_Node000016"><a xlink:title=" ">
<polygon fill="white" stroke="none" points="178,-568 56,-568 56,-507 178,-507 178,-568"/>
<text xml:space="preserve" text-anchor="start" x="60" y="-554.5" font-family="Helvetica,sans-Serif" font-size="10.00">std::unordered_map</text>
<text xml:space="preserve" text-anchor="start" x="60" y="-543.25" font-family="Helvetica,sans-Serif" font-size="10.00">&lt; std::string, sf::Texture &gt;</text>
<text xml:space="preserve" text-anchor="start" x="76.06" y="-528" font-family="Helvetica,sans-Serif" font-size="10.00">+</text>
<text xml:space="preserve" text-anchor="start" x="102.12" y="-528" font-family="Helvetica,sans-Serif" font-size="10.00">elements</text>
<text xml:space="preserve" text-anchor="start" x="115.5" y="-512.75" font-family="Helvetica,sans-Serif" font-size="10.00"> </text>
<polygon fill="#666666" stroke="#666666" points="56,-539.5 56,-539.5 178,-539.5 178,-539.5 56,-539.5"/>
<polygon fill="#666666" stroke="#666666" points="56,-524.25 56,-524.25 100.12,-524.25 100.12,-524.25 56,-524.25"/>
<polygon fill="#666666" stroke="#666666" points="100.12,-524.25 100.12,-524.25 178,-524.25 178,-524.25 100.12,-524.25"/>
<polygon fill="none" stroke="#666666" points="56,-507 56,-568 178,-568 178,-507 56,-507"/>
</a>
</g>
</g>
<!-- Node9&#45;&gt;Node16 -->
<g id="edge21_Node000016_Node000009" class="edge">
<title>Node9&#45;&gt;Node16</title>
<g id="a_edge21_Node000016_Node000009"><a xlink:title=" ">
<path fill="none" stroke="orange" d="M121.27,-655.09C120.1,-652.42 119.07,-649.72 118.25,-647 110.41,-621.03 111,-589.95 113.01,-567.72"/>
<polygon fill="orange" stroke="orange" points="118.04,-656.47 125.73,-663.76 124.27,-653.26 118.04,-656.47"/>
</a>
</g>
<text xml:space="preserve" text-anchor="start" x="121.25" y="-625.88" font-family="Helvetica,sans-Serif" font-size="10.00" fill="grey">&lt; std::string, sf::</text>
<text xml:space="preserve" text-anchor="start" x="121.25" y="-610.62" font-family="Helvetica,sans-Serif" font-size="10.00" fill="grey">  Texture &gt;</text>
</g>
<!-- Node10 -->
<g id="Node000010" class="node">
<title>Node10</title>
<g id="a_Node000010"><a xlink:title=" ">
<polygon fill="white" stroke="none" points="118.38,-851.88 103.62,-851.88 103.62,-802.12 118.38,-802.12 118.38,-851.88"/>
<text xml:space="preserve" text-anchor="start" x="107.62" y="-838.38" font-family="Helvetica,sans-Serif" font-size="10.00">K</text>
<text xml:space="preserve" text-anchor="start" x="109.5" y="-823.12" font-family="Helvetica,sans-Serif" font-size="10.00"> </text>
<text xml:space="preserve" text-anchor="start" x="109.5" y="-807.88" font-family="Helvetica,sans-Serif" font-size="10.00"> </text>
<polygon fill="#666666" stroke="#666666" points="103.62,-834.62 103.62,-834.62 118.38,-834.62 118.38,-834.62 103.62,-834.62"/>
<polygon fill="#666666" stroke="#666666" points="103.62,-819.38 103.62,-819.38 118.38,-819.38 118.38,-819.38 103.62,-819.38"/>
<polygon fill="none" stroke="#666666" points="103.62,-802.12 103.62,-851.88 118.38,-851.88 118.38,-802.12 103.62,-802.12"/>
</a>
</g>
</g>
<!-- Node10&#45;&gt;Node9 -->
<g id="edge9_Node000009_Node000010" class="edge">
<title>Node10&#45;&gt;Node9</title>
<g id="a_edge9_Node000009_Node000010"><a xlink:title=" ">
<path fill="none" stroke="#63b8ff" d="M107.37,-802.34C105.73,-785.57 105.41,-762.81 112,-744 112.83,-741.63 113.83,-739.29 114.96,-736.99"/>
<polygon fill="none" stroke="#63b8ff" points="114.94,-737.02 114.56,-729.82 121.05,-726.7 121.44,-733.9 114.94,-737.02"/>
</a>
</g>
<text xml:space="preserve" text-anchor="start" x="115" y="-748.75" font-family="Helvetica,sans-Serif" font-size="10.00" fill="grey">+keys</text>
</g>
<!-- Node11 -->
<g id="Node000011" class="node">
<title>Node11</title>
<g id="a_Node000011"><a xlink:title=" ">
<polygon fill="white" stroke="none" points="663.25,-647 536.75,-647 536.75,-597.25 663.25,-597.25 663.25,-647"/>
<text xml:space="preserve" text-anchor="start" x="540.75" y="-633.5" font-family="Helvetica,sans-Serif" font-size="10.00">std::vector&lt; std::uint32_t &gt;</text>
<text xml:space="preserve" text-anchor="start" x="557.94" y="-618.25" font-family="Helvetica,sans-Serif" font-size="10.00">+</text>
<text xml:space="preserve" text-anchor="start" x="585.12" y="-618.25" font-family="Helvetica,sans-Serif" font-size="10.00">elements</text>
<text xml:space="preserve" text-anchor="start" x="598.5" y="-603" font-family="Helvetica,sans-Serif" font-size="10.00"> </text>
<polygon fill="#666666" stroke="#666666" points="536.75,-629.75 536.75,-629.75 663.25,-629.75 663.25,-629.75 536.75,-629.75"/>
<polygon fill="#666666" stroke="#666666" points="536.75,-614.5 536.75,-614.5 583.12,-614.5 583.12,-614.5 536.75,-614.5"/>
<polygon fill="#666666" stroke="#666666" points="583.12,-614.5 583.12,-614.5 663.25,-614.5 663.25,-614.5 583.12,-614.5"/>
<polygon fill="none" stroke="#666666" points="536.75,-597.25 536.75,-647 663.25,-647 663.25,-597.25 536.75,-597.25"/>
</a>
</g>
</g>
<!-- Node11&#45;&gt;Node3 -->
<g id="edge11_Node000003_Node000011" class="edge">
<title>Node11&#45;&gt;Node3</title>
<g id="a_edge11_Node000003_Node000011"><a xlink:title=" ">
<path fill="none" stroke="#63b8ff" d="M586.9,-597.42C572.43,-571.76 547.99,-529.91 524,-495.75 491.12,-448.93 450.92,-398.96 418.19,-359.88"/>
<polygon fill="none" stroke="#63b8ff" points="418.35,-360.06 411.42,-358.04 410.63,-350.88 417.55,-352.89 418.35,-360.06"/>
</a>
</g>
<text xml:space="preserve" text-anchor="start" x="579.04" y="-533.62" font-family="Helvetica,sans-Serif" font-size="10.00" fill="grey">&#45;_generations</text>
</g>
<!-- Node12&#45;&gt;Node11 -->
<g id="edge12_Node000011_Node000012" class="edge">
<title>Node12&#45;&gt;Node11</title>
<g id="a_edge12_Node000011_Node000012"><a xlink:title=" ">
<path fill="none" stroke="orange" d="M600,-790.95C600,-749.76 600,-682.54 600,-646.96"/>
<polygon fill="orange" stroke="orange" points="596.5,-790.82 600,-800.82 603.5,-790.82 596.5,-790.82"/>
</a>
</g>
<text xml:space="preserve" text-anchor="start" x="603" y="-748.75" font-family="Helvetica,sans-Serif" font-size="10.00" fill="grey">&lt; std::uint32_t &gt;</text>
</g>
<!-- Node13 -->
<g id="Node000013" class="node">
<title>Node13</title>
<g id="a_Node000013"><a xlink:title=" ">
<polygon fill="white" stroke="none" points="531.75,-647 414.25,-647 414.25,-597.25 531.75,-597.25 531.75,-647"/>
<text xml:space="preserve" text-anchor="start" x="418.25" y="-633.5" font-family="Helvetica,sans-Serif" font-size="10.00">std::deque&lt; std::size_t &gt;</text>
<text xml:space="preserve" text-anchor="start" x="433.19" y="-618.25" font-family="Helvetica,sans-Serif" font-size="10.00">+</text>
<text xml:space="preserve" text-anchor="start" x="458.12" y="-618.25" font-family="Helvetica,sans-Serif" font-size="10.00">elements</text>
<text xml:space="preserve" text-anchor="start" x="471.5" y="-603" font-family="Helvetica,sans-Serif" font-size="10.00"> </text>
<polygon fill="#666666" stroke="#666666" points="414.25,-629.75 414.25,-629.75 531.75,-629.75 531.75,-629.75 414.25,-629.75"/>
<polygon fill="#666666" stroke="#666666" points="414.25,-614.5 414.25,-614.5 456.12,-614.5 456.12,-614.5 414.25,-614.5"/>
<polygon fill="#666666" stroke="#666666" points="456.12,-614.5 456.12,-614.5 531.75,-614.5 531.75,-614.5 456.12,-614.5"/>
<polygon fill="none" stroke="#666666" points="414.25,-597.25 414.25,-647 531.75,-647 531.75,-597.25 414.25,-597.25"/>
</a>
</g>
</g>
<!-- Node13&#45;&gt;Node3 -->
<g id="edge14_Node000003_Node000013" class="edge">
<title>Node13&#45;&gt;Node3</title>
<g id="a_edge14_Node000003_Node000013"><a xlink:title=" ">
<path fill="none" stroke="#63b8ff" d="M464.75,-597.51C453.97,-566.65 434.15,-509.88 414.41,-453.37"/>
<polygon fill="none" stroke="#63b8ff" points="414.46,-453.51 408.7,-449.16 410.5,-442.18 416.25,-446.52 414.46,-453.51"/>
</a>
</g>
<text xml:space="preserve" text-anchor="start" x="460.59" y="-533.62" font-family="Helvetica,sans-Serif" font-size="10.00" fill="grey">&#45;_freeIndices</text>
</g>
<!-- Node14&#45;&gt;Node13 -->
<g id="edge15_Node000013_Node000014" class="edge">
<title>Node14&#45;&gt;Node13</title>
<g id="a_edge15_Node000013_Node000014"><a xlink:title=" ">
<path fill="none" stroke="orange" d="M498.64,-790.95C492.35,-749.76 482.08,-682.54 476.64,-646.96"/>
<polygon fill="orange" stroke="orange" points="495.18,-791.48 500.15,-800.83 502.1,-790.42 495.18,-791.48"/>
</a>
</g>
<text xml:space="preserve" text-anchor="start" x="496.72" y="-748.75" font-family="Helvetica,sans-Serif" font-size="10.00" fill="grey">&lt; std::size_t &gt;</text>
</g>
<!-- Node15 -->
<g id="Node000015" class="node">
<title>Node15</title>
<g id="a_Node000015"><a xlink:title=" ">
<polygon fill="white" stroke="none" points="287.5,-562.38 198.5,-562.38 198.5,-512.62 287.5,-512.62 287.5,-562.38"/>
<text xml:space="preserve" text-anchor="start" x="202.5" y="-548.88" font-family="Helvetica,sans-Serif" font-size="10.00">std::shared_mutex</text>
<text xml:space="preserve" text-anchor="start" x="241.5" y="-533.62" font-family="Helvetica,sans-Serif" font-size="10.00"> </text>
<text xml:space="preserve" text-anchor="start" x="241.5" y="-518.38" font-family="Helvetica,sans-Serif" font-size="10.00"> </text>
<polygon fill="#666666" stroke="#666666" points="198.5,-545.12 198.5,-545.12 287.5,-545.12 287.5,-545.12 198.5,-545.12"/>
<polygon fill="#666666" stroke="#666666" points="198.5,-529.88 198.5,-529.88 287.5,-529.88 287.5,-529.88 198.5,-529.88"/>
<polygon fill="none" stroke="#666666" points="198.5,-512.62 198.5,-562.38 287.5,-562.38 287.5,-512.62 198.5,-512.62"/>
</a>
</g>
</g>
<!-- Node15&#45;&gt;Node3 -->
<g id="edge17_Node000003_Node000015" class="edge">
<title>Node15&#45;&gt;Node3</title>
<g id="a_edge17_Node000003_Node000015"><a xlink:title=" ">
<path fill="none" stroke="#63b8ff" d="M253.93,-512.77C264.51,-489.8 281.42,-453.09 298.5,-416"/>
<polygon fill="none" stroke="#63b8ff" points="298.41,-416.21 297.28,-409.08 303.43,-405.31 304.55,-412.43 298.41,-416.21"/>
</a>
</g>
<text xml:space="preserve" text-anchor="start" x="279.69" y="-465.25" font-family="Helvetica,sans-Serif" font-size="10.00" fill="grey">&#45;_mutex</text>
</g>
<!-- Node16&#45;&gt;Node1 -->
<g id="edge18_Node000001_Node000016" class="edge">
<title>Node16&#45;&gt;Node1</title>
<g id="a_edge18_Node000001_Node000016"><a xlink:title=" ">
<path fill="none" stroke="#63b8ff" d="M124.39,-507.06C128.74,-488.62 133.96,-464.31 137,-442.5 154.36,-317.86 160.66,-169.84 162.87,-93.09"/>
<polygon fill="none" stroke="#63b8ff" points="162.87,-92.96 159.03,-86.85 163.2,-80.96 167.03,-87.07 162.87,-92.96"/>
</a>
</g>
<text xml:space="preserve" text-anchor="start" x="164.43" y="-284.12" font-family="Helvetica,sans-Serif" font-size="10.00" fill="grey">&#45;_textureCache</text>
</g>
<!-- Node17 -->
<g id="Node000017" class="node">
<title>Node17</title>
<g id="a_Node000017"><a xlink:title=" ">
<polygon fill="white" stroke="none" points="73.75,-720.38 22.25,-720.38 22.25,-670.62 73.75,-670.62 73.75,-720.38"/>
<text xml:space="preserve" text-anchor="start" x="26.25" y="-706.88" font-family="Helvetica,sans-Serif" font-size="10.00">std::string</text>
<text xml:space="preserve" text-anchor="start" x="46.5" y="-691.62" font-family="Helvetica,sans-Serif" font-size="10.00"> </text>
<text xml:space="preserve" text-anchor="start" x="46.5" y="-676.38" font-family="Helvetica,sans-Serif" font-size="10.00"> </text>
<polygon fill="#666666" stroke="#666666" points="22.25,-703.12 22.25,-703.12 73.75,-703.12 73.75,-703.12 22.25,-703.12"/>
<polygon fill="#666666" stroke="#666666" points="22.25,-687.88 22.25,-687.88 73.75,-687.88 73.75,-687.88 22.25,-687.88"/>
<polygon fill="none" stroke="#666666" points="22.25,-670.62 22.25,-720.38 73.75,-720.38 73.75,-670.62 22.25,-670.62"/>
</a>
</g>
</g>
<!-- Node17&#45;&gt;Node16 -->
<g id="edge19_Node000016_Node000017" class="edge">
<title>Node17&#45;&gt;Node16</title>
<g id="a_edge19_Node000016_Node000017"><a xlink:title=" ">
<path fill="none" stroke="#63b8ff" d="M52.14,-670.89C56.25,-650.67 63.59,-621.12 75,-597.25 78.04,-590.89 81.77,-584.48 85.75,-578.36"/>
<polygon fill="none" stroke="#63b8ff" points="85.75,-578.36 85.85,-571.15 92.55,-568.47 92.45,-575.68 85.75,-578.36"/>
</a>
</g>
<text xml:space="preserve" text-anchor="start" x="78" y="-618.25" font-family="Helvetica,sans-Serif" font-size="10.00" fill="grey">+keys</text>
</g>
<!-- Node18 -->
<g id="Node000018" class="node">
<title>Node18</title>
<g id="a_Node000018"><a xlink:title=" ">
<polygon fill="white" stroke="none" points="86,-857.5 0,-857.5 0,-796.5 86,-796.5 86,-857.5"/>
<text xml:space="preserve" text-anchor="start" x="4" y="-844" font-family="Helvetica,sans-Serif" font-size="10.00">std::basic_string&lt;</text>
<text xml:space="preserve" text-anchor="start" x="26.5" y="-832.75" font-family="Helvetica,sans-Serif" font-size="10.00"> Char &gt;</text>
<text xml:space="preserve" text-anchor="start" x="41.5" y="-817.5" font-family="Helvetica,sans-Serif" font-size="10.00"> </text>
<text xml:space="preserve" text-anchor="start" x="41.5" y="-802.25" font-family="Helvetica,sans-Serif" font-size="10.00"> </text>
<polygon fill="#666666" stroke="#666666" points="0,-829 0,-829 86,-829 86,-829 0,-829"/>
<polygon fill="#666666" stroke="#666666" points="0,-813.75 0,-813.75 86,-813.75 86,-813.75 0,-813.75"/>
<polygon fill="none" stroke="#666666" points="0,-796.5 0,-857.5 86,-857.5 86,-796.5 0,-796.5"/>
</a>
</g>
</g>
<!-- Node18&#45;&gt;Node17 -->
<g id="edge20_Node000017_Node000018" class="edge">
<title>Node18&#45;&gt;Node17</title>
<g id="a_edge20_Node000017_Node000018"><a xlink:title=" ">
<path fill="none" stroke="#63b8ff" d="M44.58,-785.21C45.4,-763.79 46.39,-738.3 47.09,-720.15"/>
<polygon fill="none" stroke="#63b8ff" points="41.08,-784.97 44.19,-795.1 48.08,-785.24 41.08,-784.97"/>
</a>
</g>
</g>
</g>
</svg>
