<?xml version="1.0" encoding="UTF-8" standalone="no"?>
<!DOCTYPE svg PUBLIC "-//W3C//DTD SVG 1.1//EN"
 "http://www.w3.org/Graphics/SVG/1.1/DTD/svg11.dtd">
<!-- Generated by graphviz version 14.0.5 (20251129.0259)
 -->
<!-- Title: rtp::net::Packet Pages: 1 -->
<!--zoomable 657 -->

<svg id="main" version="1.1" xmlns="http://www.w3.org/2000/svg" xmlns:xlink="http://www.w3.org/1999/xlink" xml:space="preserve" onload="init(evt)">

<style type="text/css"><![CDATA[
.node, .edge {opacity: 0.7;}
.node.selected, .edge.selected {opacity: 1;}
.edge:hover path { stroke: red; }
.edge:hover polygon { stroke: red; fill: red; }
]]></style>

<defs>
  <circle id="rim" cx="0" cy="0" r="7"/>
  <circle id="rim2" cx="0" cy="0" r="3.5"/>
  <g id="zoomPlus">
    <use xlink:href="#rim" fill="#404040"><set attributeName="fill" to="#808080" begin="zoomplus.mouseover" end="zoomplus.mouseout"/></use>
    <path d="M-4,0h8M0,-4v8" fill="none" stroke="white" stroke-width="1.5" pointer-events="none"/>
  </g>
  <g id="zoomMin">
    <use xlink:href="#rim" fill="#404040"><set attributeName="fill" to="#808080" begin="zoomminus.mouseover" end="zoomminus.mouseout"/></use>
    <path d="M-4,0h8" fill="none" stroke="white" stroke-width="1.5" pointer-events="none"/>
  </g>
  <g id="arrowUp" transform="translate(30 24)">
    <use xlink:href="#rim"/>
    <path pointer-events="none" fill="none" stroke="white" stroke-width="1.5" d="M0,-3.0v7 M-2.5,-0.5L0,-3.0L2.5,-0.5"/>
  </g>
  <g id="arrowRight" transform="rotate(90) translate(36 -43)">
    <use xlink:href="#rim"/>
    <path pointer-events="none" fill="none" stroke="white" stroke-width="1.5" d="M0,-3.0v7 M-2.5,-0.5L0,-3.0L2.5,-0.5"/>
  </g>
  <g id="arrowDown" transform="rotate(180) translate(-30 -48)">
    <use xlink:href="#rim"/>
    <path pointer-events="none" fill="none" stroke="white" stroke-width="1.5" d="M0,-3.0v7 M-2.5,-0.5L0,-3.0L2.5,-0.5"/>
  </g>
  <g id="arrowLeft" transform="rotate(270) translate(-36 17)">
    <use xlink:href="#rim"/>
    <path pointer-events="none" fill="none" stroke="white" stroke-width="1.5" d="M0,-3.0v7 M-2.5,-0.5L0,-3.0L2.5,-0.5"/>
  </g>
  <g id="resetDef">
    <use xlink:href="#rim2" fill="#404040"><set attributeName="fill" to="#808080" begin="reset.mouseover" end="reset.mouseout"/></use>
  </g>
</defs>
<script type="application/ecmascript">
var viewWidth = 206;
var viewHeight = 657;
var sectionId = 'dynsection-0';
</script>
<script type="application/ecmascript" xlink:href="svg.min.js"/>
<svg id="graph" class="graph">
<g id="viewport">
<title>rtp::net::Packet</title>
<!-- Node1 -->
<g id="Node000001" class="node">
<title>Node1</title>
<g id="a_Node000001"><a xlink:title="Network packet with header and serializable body.">
<polygon fill="#999999" stroke="none" points="154.5,-232.75 21.75,-232.75 21.75,0 154.5,0 154.5,-232.75"/>
<text xml:space="preserve" text-anchor="start" x="54.38" y="-219.25" font-family="Helvetica,sans-Serif" font-size="10.00">rtp::net::Packet</text>
<text xml:space="preserve" text-anchor="start" x="27.25" y="-204" font-family="Helvetica,sans-Serif" font-size="10.00">&#45;</text>
<text xml:space="preserve" text-anchor="start" x="35.75" y="-204" font-family="Helvetica,sans-Serif" font-size="10.00">_readPos</text>
<text xml:space="preserve" text-anchor="start" x="25.75" y="-188.75" font-family="Helvetica,sans-Serif" font-size="10.00">+</text>
<text xml:space="preserve" text-anchor="start" x="35.75" y="-188.75" font-family="Helvetica,sans-Serif" font-size="10.00">Packet()</text>
<text xml:space="preserve" text-anchor="start" x="25.75" y="-173.5" font-family="Helvetica,sans-Serif" font-size="10.00">+</text>
<text xml:space="preserve" text-anchor="start" x="35.75" y="-173.5" font-family="Helvetica,sans-Serif" font-size="10.00">Packet()</text>
<text xml:space="preserve" text-anchor="start" x="25.75" y="-158.25" font-family="Helvetica,sans-Serif" font-size="10.00">+</text>
<text xml:space="preserve" text-anchor="start" x="35.75" y="-158.25" font-family="Helvetica,sans-Serif" font-size="10.00">resetRead()</text>
<text xml:space="preserve" text-anchor="start" x="25.75" y="-143" font-family="Helvetica,sans-Serif" font-size="10.00">+</text>
<text xml:space="preserve" text-anchor="start" x="35.75" y="-143" font-family="Helvetica,sans-Serif" font-size="10.00">getBufferSequence()</text>
<text xml:space="preserve" text-anchor="start" x="25.75" y="-127.75" font-family="Helvetica,sans-Serif" font-size="10.00">+</text>
<text xml:space="preserve" text-anchor="start" x="35.75" y="-127.75" font-family="Helvetica,sans-Serif" font-size="10.00">operator&lt;&lt;()</text>
<text xml:space="preserve" text-anchor="start" x="25.75" y="-112.5" font-family="Helvetica,sans-Serif" font-size="10.00">+</text>
<text xml:space="preserve" text-anchor="start" x="35.75" y="-112.5" font-family="Helvetica,sans-Serif" font-size="10.00">operator&lt;&lt;()</text>
<text xml:space="preserve" text-anchor="start" x="25.75" y="-97.25" font-family="Helvetica,sans-Serif" font-size="10.00">+</text>
<text xml:space="preserve" text-anchor="start" x="35.75" y="-97.25" font-family="Helvetica,sans-Serif" font-size="10.00">operator&lt;&lt;()</text>
<text xml:space="preserve" text-anchor="start" x="25.75" y="-82" font-family="Helvetica,sans-Serif" font-size="10.00">+</text>
<text xml:space="preserve" text-anchor="start" x="35.75" y="-82" font-family="Helvetica,sans-Serif" font-size="10.00">operator&gt;&gt;()</text>
<text xml:space="preserve" text-anchor="start" x="25.75" y="-66.75" font-family="Helvetica,sans-Serif" font-size="10.00">+</text>
<text xml:space="preserve" text-anchor="start" x="35.75" y="-66.75" font-family="Helvetica,sans-Serif" font-size="10.00">operator&gt;&gt;()</text>
<text xml:space="preserve" text-anchor="start" x="25.75" y="-51.5" font-family="Helvetica,sans-Serif" font-size="10.00">+</text>
<text xml:space="preserve" text-anchor="start" x="35.75" y="-51.5" font-family="Helvetica,sans-Serif" font-size="10.00">operator&gt;&gt;()</text>
<text xml:space="preserve" text-anchor="start" x="25.75" y="-36.25" font-family="Helvetica,sans-Serif" font-size="10.00">+</text>
<text xml:space="preserve" text-anchor="start" x="35.75" y="-36.25" font-family="Helvetica,sans-Serif" font-size="10.00">to_network()</text>
<text xml:space="preserve" text-anchor="start" x="25.75" y="-21" font-family="Helvetica,sans-Serif" font-size="10.00">+</text>
<text xml:space="preserve" text-anchor="start" x="35.75" y="-21" font-family="Helvetica,sans-Serif" font-size="10.00">from_network()</text>
<text xml:space="preserve" text-anchor="start" x="27.25" y="-5.75" font-family="Helvetica,sans-Serif" font-size="10.00">&#45;</text>
<text xml:space="preserve" text-anchor="start" x="35.75" y="-5.75" font-family="Helvetica,sans-Serif" font-size="10.00">_bumpBodySizeOrThrow()</text>
<polygon fill="#666666" stroke="#666666" points="21.75,-215.5 21.75,-215.5 154.5,-215.5 154.5,-215.5 21.75,-215.5"/>
<polygon fill="#666666" stroke="#666666" points="21.75,-200.25 21.75,-200.25 33.75,-200.25 33.75,-200.25 21.75,-200.25"/>
<polygon fill="#666666" stroke="#666666" points="33.75,-200.25 33.75,-200.25 154.5,-200.25 154.5,-200.25 33.75,-200.25"/>
<polygon fill="none" stroke="#666666" points="21.75,0 21.75,-232.75 154.5,-232.75 154.5,0 21.75,0"/>
</a>
</g>
</g>
<!-- Node2 -->
<g id="Node000002" class="node">
<title>Node2</title>
<g id="a_Node000002"><a xlink:href="structrtp_1_1net_1_1Header.html" target="_top" xlink:title="Packet header with sequencing and acknowledgment support.">
<polygon fill="white" stroke="none" points="76.25,-442.5 0,-442.5 0,-301.25 76.25,-301.25 76.25,-442.5"/>
<text xml:space="preserve" text-anchor="start" x="4" y="-429" font-family="Helvetica,sans-Serif" font-size="10.00">rtp::net::Header</text>
<text xml:space="preserve" text-anchor="start" x="6" y="-413.75" font-family="Helvetica,sans-Serif" font-size="10.00">+</text>
<text xml:space="preserve" text-anchor="start" x="18" y="-413.75" font-family="Helvetica,sans-Serif" font-size="10.00">magic</text>
<text xml:space="preserve" text-anchor="start" x="6" y="-398.5" font-family="Helvetica,sans-Serif" font-size="10.00">+</text>
<text xml:space="preserve" text-anchor="start" x="18" y="-398.5" font-family="Helvetica,sans-Serif" font-size="10.00">sequenceId</text>
<text xml:space="preserve" text-anchor="start" x="6" y="-383.25" font-family="Helvetica,sans-Serif" font-size="10.00">+</text>
<text xml:space="preserve" text-anchor="start" x="18" y="-383.25" font-family="Helvetica,sans-Serif" font-size="10.00">bodySize</text>
<text xml:space="preserve" text-anchor="start" x="6" y="-368" font-family="Helvetica,sans-Serif" font-size="10.00">+</text>
<text xml:space="preserve" text-anchor="start" x="18" y="-368" font-family="Helvetica,sans-Serif" font-size="10.00">ackId</text>
<text xml:space="preserve" text-anchor="start" x="6" y="-352.75" font-family="Helvetica,sans-Serif" font-size="10.00">+</text>
<text xml:space="preserve" text-anchor="start" x="18" y="-352.75" font-family="Helvetica,sans-Serif" font-size="10.00">opCode</text>
<text xml:space="preserve" text-anchor="start" x="6" y="-337.5" font-family="Helvetica,sans-Serif" font-size="10.00">+</text>
<text xml:space="preserve" text-anchor="start" x="18" y="-337.5" font-family="Helvetica,sans-Serif" font-size="10.00">reserved</text>
<text xml:space="preserve" text-anchor="start" x="6" y="-322.25" font-family="Helvetica,sans-Serif" font-size="10.00">+</text>
<text xml:space="preserve" text-anchor="start" x="18" y="-322.25" font-family="Helvetica,sans-Serif" font-size="10.00">sessionId</text>
<text xml:space="preserve" text-anchor="start" x="36.62" y="-307" font-family="Helvetica,sans-Serif" font-size="10.00"> </text>
<polygon fill="#666666" stroke="#666666" points="0,-425.25 0,-425.25 76.25,-425.25 76.25,-425.25 0,-425.25"/>
<polygon fill="#666666" stroke="#666666" points="0,-318.5 0,-318.5 16,-318.5 16,-318.5 0,-318.5"/>
<polygon fill="#666666" stroke="#666666" points="16,-318.5 16,-318.5 76.25,-318.5 76.25,-318.5 16,-318.5"/>
<polygon fill="none" stroke="#666666" points="0,-301.25 0,-442.5 76.25,-442.5 76.25,-301.25 0,-301.25"/>
</a>
</g>
</g>
<!-- Node2&#45;&gt;Node1 -->
<g id="edge1_Node000001_Node000002" class="edge">
<title>Node2&#45;&gt;Node1</title>
<g id="a_edge1_Node000001_Node000002"><a xlink:title=" ">
<path fill="none" stroke="#63b8ff" d="M39.18,-301.27C40.26,-284.62 42.09,-266.97 45.12,-250.75 45.47,-248.88 45.84,-247 46.23,-245.12"/>
<polygon fill="none" stroke="#63b8ff" points="46.22,-245.17 43.61,-238.45 48.81,-233.46 51.42,-240.18 46.22,-245.17"/>
</a>
</g>
<text xml:space="preserve" text-anchor="start" x="48.12" y="-270.75" font-family="Helvetica,sans-Serif" font-size="10.00" fill="grey">+header</text>
<text xml:space="preserve" text-anchor="start" x="48.12" y="-255.5" font-family="Helvetica,sans-Serif" font-size="10.00" fill="grey">&#45;_cacheHeader</text>
</g>
<!-- Node3 -->
<g id="Node000003" class="node">
<title>Node3</title>
<g id="a_Node000003"><a xlink:title=" ">
<polygon fill="white" stroke="none" points="196,-396.75 94.25,-396.75 94.25,-347 196,-347 196,-396.75"/>
<text xml:space="preserve" text-anchor="start" x="98.25" y="-383.25" font-family="Helvetica,sans-Serif" font-size="10.00">std::vector&lt; uint8_t &gt;</text>
<text xml:space="preserve" text-anchor="start" x="109.25" y="-368" font-family="Helvetica,sans-Serif" font-size="10.00">+</text>
<text xml:space="preserve" text-anchor="start" x="130.25" y="-368" font-family="Helvetica,sans-Serif" font-size="10.00">elements</text>
<text xml:space="preserve" text-anchor="start" x="143.62" y="-352.75" font-family="Helvetica,sans-Serif" font-size="10.00"> </text>
<polygon fill="#666666" stroke="#666666" points="94.25,-379.5 94.25,-379.5 196,-379.5 196,-379.5 94.25,-379.5"/>
<polygon fill="#666666" stroke="#666666" points="94.25,-364.25 94.25,-364.25 128.25,-364.25 128.25,-364.25 94.25,-364.25"/>
<polygon fill="#666666" stroke="#666666" points="128.25,-364.25 128.25,-364.25 196,-364.25 196,-364.25 128.25,-364.25"/>
<polygon fill="none" stroke="#666666" points="94.25,-347 94.25,-396.75 196,-396.75 196,-347 94.25,-347"/>
</a>
</g>
</g>
<!-- Node3&#45;&gt;Node1 -->
<g id="edge2_Node000001_Node000003" class="edge">
<title>Node3&#45;&gt;Node1</title>
<g id="a_edge2_Node000001_Node000003"><a xlink:title=" ">
<path fill="none" stroke="#63b8ff" d="M139.76,-347.03C134.37,-323.06 125.63,-284.17 116.86,-245.15"/>
<polygon fill="none" stroke="#63b8ff" points="116.84,-245.09 111.62,-240.11 114.21,-233.38 119.43,-238.36 116.84,-245.09"/>
</a>
</g>
<text xml:space="preserve" text-anchor="start" x="128.06" y="-263.12" font-family="Helvetica,sans-Serif" font-size="10.00" fill="grey">+body</text>
</g>
<!-- Node4 -->
<g id="Node000004" class="node">
<title>Node4</title>
<g id="a_Node000004"><a xlink:title=" ">
<polygon fill="white" stroke="none" points="184.38,-545.5 105.88,-545.5 105.88,-495.75 184.38,-495.75 184.38,-545.5"/>
<text xml:space="preserve" text-anchor="start" x="109.88" y="-532" font-family="Helvetica,sans-Serif" font-size="10.00">std::vector&lt; T &gt;</text>
<text xml:space="preserve" text-anchor="start" x="143.62" y="-516.75" font-family="Helvetica,sans-Serif" font-size="10.00"> </text>
<text xml:space="preserve" text-anchor="start" x="143.62" y="-501.5" font-family="Helvetica,sans-Serif" font-size="10.00"> </text>
<polygon fill="#666666" stroke="#666666" points="105.88,-528.25 105.88,-528.25 184.38,-528.25 184.38,-528.25 105.88,-528.25"/>
<polygon fill="#666666" stroke="#666666" points="105.88,-513 105.88,-513 184.38,-513 184.38,-513 105.88,-513"/>
<polygon fill="none" stroke="#666666" points="105.88,-495.75 105.88,-545.5 184.38,-545.5 184.38,-495.75 105.88,-495.75"/>
</a>
</g>
</g>
<!-- Node4&#45;&gt;Node3 -->
<g id="edge3_Node000003_Node000004" class="edge">
<title>Node4&#45;&gt;Node3</title>
<g id="a_edge3_Node000003_Node000004"><a xlink:title=" ">
<path fill="none" stroke="orange" d="M145.12,-484.66C145.12,-457.38 145.12,-420.23 145.12,-396.39"/>
<polygon fill="orange" stroke="orange" points="141.63,-484.53 145.13,-494.53 148.63,-484.53 141.63,-484.53"/>
</a>
</g>
<text xml:space="preserve" text-anchor="start" x="148.12" y="-465.25" font-family="Helvetica,sans-Serif" font-size="10.00" fill="grey">&lt; uint8_t &gt;</text>
</g>
<!-- Node5 -->
<g id="Node000005" class="node">
<title>Node5</title>
<g id="a_Node000005"><a xlink:title=" ">
<polygon fill="white" stroke="none" points="152.12,-648.5 138.12,-648.5 138.12,-598.75 152.12,-598.75 152.12,-648.5"/>
<text xml:space="preserve" text-anchor="start" x="142.12" y="-635" font-family="Helvetica,sans-Serif" font-size="10.00">T</text>
<text xml:space="preserve" text-anchor="start" x="143.62" y="-619.75" font-family="Helvetica,sans-Serif" font-size="10.00"> </text>
<text xml:space="preserve" text-anchor="start" x="143.62" y="-604.5" font-family="Helvetica,sans-Serif" font-size="10.00"> </text>
<polygon fill="#666666" stroke="#666666" points="138.12,-631.25 138.12,-631.25 152.12,-631.25 152.12,-631.25 138.12,-631.25"/>
<polygon fill="#666666" stroke="#666666" points="138.12,-616 138.12,-616 152.12,-616 152.12,-616 138.12,-616"/>
<polygon fill="none" stroke="#666666" points="138.12,-598.75 138.12,-648.5 152.12,-648.5 152.12,-598.75 138.12,-598.75"/>
</a>
</g>
</g>
<!-- Node5&#45;&gt;Node4 -->
<g id="edge4_Node000004_Node000005" class="edge">
<title>Node5&#45;&gt;Node4</title>
<g id="a_edge4_Node000004_Node000005"><a xlink:title=" ">
<path fill="none" stroke="#63b8ff" d="M145.12,-598.94C145.12,-586.79 145.12,-571.71 145.12,-558.11"/>
<polygon fill="none" stroke="#63b8ff" points="145.13,-558.06 141.13,-552.06 145.13,-546.06 149.13,-552.06 145.13,-558.06"/>
</a>
</g>
<text xml:space="preserve" text-anchor="start" x="148.12" y="-568.25" font-family="Helvetica,sans-Serif" font-size="10.00" fill="grey">+elements</text>
</g>
</g>
</svg>

<g id="navigator" transform="translate(0 0)" fill="#404254">
  <rect fill="#f2f5e9" fill-opacity="0.5" stroke="#606060" stroke-width=".5" x="0" y="0" width="60" height="60"/>
  <use id="zoomplus" xlink:href="#zoomPlus" x="17" y="9" onmousedown="handleZoom(evt,'in')"/>
  <use id="zoomminus" xlink:href="#zoomMin" x="42" y="9" onmousedown="handleZoom(evt,'out')"/>
  <use id="reset" xlink:href="#resetDef" x="30" y="36" onmousedown="handleReset()"/>
   <use id="arrowup" xlink:href="#arrowUp" x="0" y="0" onmousedown="handlePan(0,-1)"/>
  <use id="arrowright" xlink:href="#arrowRight" x="0" y="0" onmousedown="handlePan(1,0)"/>
  <use id="arrowdown" xlink:href="#arrowDown" x="0" y="0" onmousedown="handlePan(0,1)"/>
  <use id="arrowleft" xlink:href="#arrowLeft" x="0" y="0" onmousedown="handlePan(-1,0)"/>
</g>
<svg viewBox="0 0 15 15" width="100%" height="30px" preserveAspectRatio="xMaxYMin meet">
 <g id="arrow_out" transform="scale(0.3 0.3)">
  <a xlink:href="classrtp_1_1net_1_1Packet__coll__graph_org.svg" target="_base">
   <rect id="button" ry="5" rx="5" y="6" x="6" height="38" width="38"
        fill="#f2f5e9" fill-opacity="0.5" stroke="#606060" stroke-width="1.0"/>
   <path id="arrow"
     d="M 11.500037,31.436501 C 11.940474,20.09759 22.043105,11.32322 32.158766,21.979434 L 37.068811,17.246167 C 37.068811,17.246167 37.088388,32 37.088388,32 L 22.160133,31.978069 C 22.160133,31.978069 26.997745,27.140456 26.997745,27.140456 C 18.528582,18.264221 13.291696,25.230495 11.500037,31.436501 z"
     style="fill:#404040;"/>
  </a>
 </g>
</svg>

<style type='text/css'>
<![CDATA[
[data-mouse-over-selected='false'] { opacity: 0.7; }
[data-mouse-over-selected='true']  { opacity: 1.0; }
]]>
</style>
<script type="application/ecmascript"><![CDATA[
document.addEventListener('DOMContentLoaded', (event) => {
  highlightEdges();
  highlightAdjacentNodes();
});
]]></script>
</svg>
