<?xml version="1.0" encoding="UTF-8" standalone="no"?>
<!DOCTYPE svg PUBLIC "-//W3C//DTD SVG 1.1//EN"
 "http://www.w3.org/Graphics/SVG/1.1/DTD/svg11.dtd">
<!-- Generated by graphviz version 14.0.5 (20251129.0259)
 -->
<!-- Title: rtp::server::MovementSystem Pages: 1 -->
<svg width="146pt" height="174pt"
 viewBox="0.00 0.00 146.00 174.00" xmlns="http://www.w3.org/2000/svg" xmlns:xlink="http://www.w3.org/1999/xlink">
<g id="graph0" class="graph" transform="scale(1 1) rotate(0) translate(4 170)">
<title>rtp::server::MovementSystem</title>
<!-- Node1 -->
<g id="Node000001" class="node">
<title>Node1</title>
<g id="a_Node000001"><a xlink:title="System to handle entity movement based on input components.">
<polygon fill="#999999" stroke="none" points="137.75,-65 0,-65 0,0 137.75,0 137.75,-65"/>
<text xml:space="preserve" text-anchor="start" x="4" y="-51.5" font-family="Helvetica,sans-Serif" font-size="10.00">rtp::server::MovementSystem</text>
<text xml:space="preserve" text-anchor="start" x="14.06" y="-36.25" font-family="Helvetica,sans-Serif" font-size="10.00">&#45;</text>
<text xml:space="preserve" text-anchor="start" x="31.12" y="-36.25" font-family="Helvetica,sans-Serif" font-size="10.00">_registry</text>
<text xml:space="preserve" text-anchor="start" x="12.56" y="-21" font-family="Helvetica,sans-Serif" font-size="10.00">+</text>
<text xml:space="preserve" text-anchor="start" x="31.12" y="-21" font-family="Helvetica,sans-Serif" font-size="10.00">MovementSystem()</text>
<text xml:space="preserve" text-anchor="start" x="12.56" y="-5.75" font-family="Helvetica,sans-Serif" font-size="10.00">+</text>
<text xml:space="preserve" text-anchor="start" x="31.12" y="-5.75" font-family="Helvetica,sans-Serif" font-size="10.00">update()</text>
<polygon fill="#666666" stroke="#666666" points="0,-47.75 0,-47.75 137.75,-47.75 137.75,-47.75 0,-47.75"/>
<polygon fill="#666666" stroke="#666666" points="0,-32.5 0,-32.5 29.12,-32.5 29.12,-32.5 0,-32.5"/>
<polygon fill="#666666" stroke="#666666" points="29.12,-32.5 29.12,-32.5 137.75,-32.5 137.75,-32.5 29.12,-32.5"/>
<polygon fill="none" stroke="#666666" points="0,0 0,-65 137.75,-65 137.75,0 0,0"/>
</a>
</g>
</g>
<!-- Node2 -->
<g id="Node000002" class="node">
<title>Node2</title>
<g id="a_Node000002"><a xlink:href="classrtp_1_1ecs_1_1ISystem.html" target="_top" xlink:title="Abstract base class for all ECS systems.">
<polygon fill="white" stroke="none" points="110.75,-166 27,-166 27,-101 110.75,-101 110.75,-166"/>
<text xml:space="preserve" text-anchor="start" x="31" y="-152.5" font-family="Helvetica,sans-Serif" font-size="10.00">rtp::ecs::ISystem</text>
<text xml:space="preserve" text-anchor="start" x="67.38" y="-137.25" font-family="Helvetica,sans-Serif" font-size="10.00"> </text>
<text xml:space="preserve" text-anchor="start" x="35.25" y="-122" font-family="Helvetica,sans-Serif" font-size="10.00">+</text>
<text xml:space="preserve" text-anchor="start" x="49.5" y="-122" font-family="Helvetica,sans-Serif" font-size="10.00">~ISystem()</text>
<text xml:space="preserve" text-anchor="start" x="35.25" y="-106.75" font-family="Helvetica,sans-Serif" font-size="10.00">+</text>
<text xml:space="preserve" text-anchor="start" x="49.5" y="-106.75" font-family="Helvetica,sans-Serif" font-size="10.00">update()</text>
<polygon fill="#666666" stroke="#666666" points="27,-148.75 27,-148.75 110.75,-148.75 110.75,-148.75 27,-148.75"/>
<polygon fill="#666666" stroke="#666666" points="27,-133.5 27,-133.5 110.75,-133.5 110.75,-133.5 27,-133.5"/>
<polygon fill="none" stroke="#666666" points="27,-101 27,-166 110.75,-166 110.75,-101 27,-101"/>
</a>
</g>
</g>
<!-- Node2&#45;&gt;Node1 -->
<g id="edge1_Node000001_Node000002" class="edge">
<title>Node2&#45;&gt;Node1</title>
<g id="a_edge1_Node000001_Node000002"><a xlink:title=" ">
<path fill="none" stroke="#63b8ff" d="M68.88,-89.7C68.88,-81.39 68.88,-72.82 68.88,-64.96"/>
<polygon fill="none" stroke="#63b8ff" points="65.38,-89.66 68.88,-99.66 72.38,-89.66 65.38,-89.66"/>
</a>
</g>
</g>
</g>
</svg>
