<?xml version="1.0" encoding="UTF-8" standalone="no"?>
<!DOCTYPE svg PUBLIC "-//W3C//DTD SVG 1.1//EN"
 "http://www.w3.org/Graphics/SVG/1.1/DTD/svg11.dtd">
<!-- Generated by graphviz version 14.0.5 (20251129.0259)
 -->
<!-- Title: rtp::thread::ThreadPool Pages: 1 -->
<svg width="352pt" height="527pt"
 viewBox="0.00 0.00 352.00 527.00" xmlns="http://www.w3.org/2000/svg" xmlns:xlink="http://www.w3.org/1999/xlink">
<g id="graph0" class="graph" transform="scale(1 1) rotate(0) translate(4 522.5)">
<title>rtp::thread::ThreadPool</title>
<!-- Node1 -->
<g id="Node000001" class="node">
<title>Node1</title>
<g id="a_Node000001"><a xlink:title="ThreadPool class for managing a pool of threads.">
<polygon fill="#999999" stroke="none" points="264.25,-171.75 156.5,-171.75 156.5,0 264.25,0 264.25,-171.75"/>
<text xml:space="preserve" text-anchor="start" x="160.5" y="-158.25" font-family="Helvetica,sans-Serif" font-size="10.00">rtp::thread::ThreadPool</text>
<text xml:space="preserve" text-anchor="start" x="168.12" y="-143" font-family="Helvetica,sans-Serif" font-size="10.00">&#45;</text>
<text xml:space="preserve" text-anchor="start" x="182.75" y="-143" font-family="Helvetica,sans-Serif" font-size="10.00">_condition</text>
<text xml:space="preserve" text-anchor="start" x="168.12" y="-127.75" font-family="Helvetica,sans-Serif" font-size="10.00">&#45;</text>
<text xml:space="preserve" text-anchor="start" x="182.75" y="-127.75" font-family="Helvetica,sans-Serif" font-size="10.00">_stop</text>
<text xml:space="preserve" text-anchor="start" x="166.62" y="-112.5" font-family="Helvetica,sans-Serif" font-size="10.00">+</text>
<text xml:space="preserve" text-anchor="start" x="182.75" y="-112.5" font-family="Helvetica,sans-Serif" font-size="10.00">ThreadPool()</text>
<text xml:space="preserve" text-anchor="start" x="166.62" y="-97.25" font-family="Helvetica,sans-Serif" font-size="10.00">+</text>
<text xml:space="preserve" text-anchor="start" x="182.75" y="-97.25" font-family="Helvetica,sans-Serif" font-size="10.00">operator=()</text>
<text xml:space="preserve" text-anchor="start" x="166.62" y="-82" font-family="Helvetica,sans-Serif" font-size="10.00">+</text>
<text xml:space="preserve" text-anchor="start" x="182.75" y="-82" font-family="Helvetica,sans-Serif" font-size="10.00">~ThreadPool()</text>
<text xml:space="preserve" text-anchor="start" x="166.62" y="-66.75" font-family="Helvetica,sans-Serif" font-size="10.00">+</text>
<text xml:space="preserve" text-anchor="start" x="182.75" y="-66.75" font-family="Helvetica,sans-Serif" font-size="10.00">enqueue()</text>
<text xml:space="preserve" text-anchor="start" x="166.62" y="-51.5" font-family="Helvetica,sans-Serif" font-size="10.00">+</text>
<text xml:space="preserve" text-anchor="start" x="182.75" y="-51.5" font-family="Helvetica,sans-Serif" font-size="10.00">create()</text>
<text xml:space="preserve" text-anchor="start" x="168.12" y="-36.25" font-family="Helvetica,sans-Serif" font-size="10.00">&#45;</text>
<text xml:space="preserve" text-anchor="start" x="182.75" y="-36.25" font-family="Helvetica,sans-Serif" font-size="10.00">ThreadPool()</text>
<text xml:space="preserve" text-anchor="start" x="168.12" y="-21" font-family="Helvetica,sans-Serif" font-size="10.00">&#45;</text>
<text xml:space="preserve" text-anchor="start" x="182.75" y="-21" font-family="Helvetica,sans-Serif" font-size="10.00">start()</text>
<text xml:space="preserve" text-anchor="start" x="168.12" y="-5.75" font-family="Helvetica,sans-Serif" font-size="10.00">&#45;</text>
<text xml:space="preserve" text-anchor="start" x="182.75" y="-5.75" font-family="Helvetica,sans-Serif" font-size="10.00">workerThread()</text>
<polygon fill="#666666" stroke="#666666" points="156.5,-154.5 156.5,-154.5 264.25,-154.5 264.25,-154.5 156.5,-154.5"/>
<polygon fill="#666666" stroke="#666666" points="156.5,-124 156.5,-124 180.75,-124 180.75,-124 156.5,-124"/>
<polygon fill="#666666" stroke="#666666" points="180.75,-124 180.75,-124 264.25,-124 264.25,-124 180.75,-124"/>
<polygon fill="none" stroke="#666666" points="156.5,0 156.5,-171.75 264.25,-171.75 264.25,0 156.5,0"/>
</a>
</g>
</g>
<!-- Node2 -->
<g id="Node000002" class="node">
<title>Node2</title>
<g id="a_Node000002"><a xlink:title=" ">
<polygon fill="white" stroke="none" points="139,-286 17.75,-286 17.75,-236.25 139,-236.25 139,-286"/>
<text xml:space="preserve" text-anchor="start" x="21.75" y="-272.5" font-family="Helvetica,sans-Serif" font-size="10.00">std::vector&lt; std::jthread &gt;</text>
<text xml:space="preserve" text-anchor="start" x="76.88" y="-257.25" font-family="Helvetica,sans-Serif" font-size="10.00"> </text>
<text xml:space="preserve" text-anchor="start" x="76.88" y="-242" font-family="Helvetica,sans-Serif" font-size="10.00"> </text>
<polygon fill="#666666" stroke="#666666" points="17.75,-268.75 17.75,-268.75 139,-268.75 139,-268.75 17.75,-268.75"/>
<polygon fill="#666666" stroke="#666666" points="17.75,-253.5 17.75,-253.5 139,-253.5 139,-253.5 17.75,-253.5"/>
<polygon fill="none" stroke="#666666" points="17.75,-236.25 17.75,-286 139,-286 139,-236.25 17.75,-236.25"/>
</a>
</g>
</g>
<!-- Node2&#45;&gt;Node1 -->
<g id="edge1_Node000001_Node000002" class="edge">
<title>Node2&#45;&gt;Node1</title>
<g id="a_edge1_Node000001_Node000002"><a xlink:title=" ">
<path fill="none" stroke="#63b8ff" d="M96.45,-236.4C110.11,-218.48 129.69,-192.77 148.79,-167.71"/>
<polygon fill="none" stroke="#63b8ff" points="148.82,-167.67 149.27,-160.47 156.09,-158.13 155.63,-165.32 148.82,-167.67"/>
</a>
</g>
<text xml:space="preserve" text-anchor="start" x="131.67" y="-194.5" font-family="Helvetica,sans-Serif" font-size="10.00" fill="grey">&#45;_workers</text>
</g>
<!-- Node3 -->
<g id="Node000003" class="node">
<title>Node3</title>
<g id="a_Node000003"><a xlink:title=" ">
<polygon fill="white" stroke="none" points="56.75,-415.5 0,-415.5 0,-365.75 56.75,-365.75 56.75,-415.5"/>
<text xml:space="preserve" text-anchor="start" x="4" y="-402" font-family="Helvetica,sans-Serif" font-size="10.00">std::jthread</text>
<text xml:space="preserve" text-anchor="start" x="26.88" y="-386.75" font-family="Helvetica,sans-Serif" font-size="10.00"> </text>
<text xml:space="preserve" text-anchor="start" x="26.88" y="-371.5" font-family="Helvetica,sans-Serif" font-size="10.00"> </text>
<polygon fill="#666666" stroke="#666666" points="0,-398.25 0,-398.25 56.75,-398.25 56.75,-398.25 0,-398.25"/>
<polygon fill="#666666" stroke="#666666" points="0,-383 0,-383 56.75,-383 56.75,-383 0,-383"/>
<polygon fill="none" stroke="#666666" points="0,-365.75 0,-415.5 56.75,-415.5 56.75,-365.75 0,-365.75"/>
</a>
</g>
</g>
<!-- Node3&#45;&gt;Node2 -->
<g id="edge2_Node000002_Node000003" class="edge">
<title>Node3&#45;&gt;Node2</title>
<g id="a_edge2_Node000002_Node000003"><a xlink:title=" ">
<path fill="none" stroke="#63b8ff" d="M28.62,-366.06C29.49,-351.03 31.99,-331.41 38.62,-315.25 41.31,-308.72 44.98,-302.28 49.02,-296.25"/>
<polygon fill="none" stroke="#63b8ff" points="48.94,-296.35 49.24,-289.14 56.01,-286.65 55.71,-293.86 48.94,-296.35"/>
</a>
</g>
<text xml:space="preserve" text-anchor="start" x="41.62" y="-327.62" font-family="Helvetica,sans-Serif" font-size="10.00" fill="grey">+elements</text>
</g>
<!-- Node4 -->
<g id="Node000004" class="node">
<title>Node4</title>
<g id="a_Node000004"><a xlink:title=" ">
<polygon fill="white" stroke="none" points="153.62,-415.5 75.12,-415.5 75.12,-365.75 153.62,-365.75 153.62,-415.5"/>
<text xml:space="preserve" text-anchor="start" x="79.12" y="-402" font-family="Helvetica,sans-Serif" font-size="10.00">std::vector&lt; T &gt;</text>
<text xml:space="preserve" text-anchor="start" x="112.88" y="-386.75" font-family="Helvetica,sans-Serif" font-size="10.00"> </text>
<text xml:space="preserve" text-anchor="start" x="112.88" y="-371.5" font-family="Helvetica,sans-Serif" font-size="10.00"> </text>
<polygon fill="#666666" stroke="#666666" points="75.12,-398.25 75.12,-398.25 153.62,-398.25 153.62,-398.25 75.12,-398.25"/>
<polygon fill="#666666" stroke="#666666" points="75.12,-383 75.12,-383 153.62,-383 153.62,-383 75.12,-383"/>
<polygon fill="none" stroke="#666666" points="75.12,-365.75 75.12,-415.5 153.62,-415.5 153.62,-365.75 75.12,-365.75"/>
</a>
</g>
</g>
<!-- Node4&#45;&gt;Node2 -->
<g id="edge3_Node000002_Node000004" class="edge">
<title>Node4&#45;&gt;Node2</title>
<g id="a_edge3_Node000002_Node000004"><a xlink:title=" ">
<path fill="none" stroke="orange" d="M104.61,-355.05C98.4,-333.05 90.52,-305.15 85.03,-285.68"/>
<polygon fill="orange" stroke="orange" points="101.19,-355.81 107.28,-364.49 107.93,-353.91 101.19,-355.81"/>
</a>
</g>
<text xml:space="preserve" text-anchor="start" x="104.7" y="-327.62" font-family="Helvetica,sans-Serif" font-size="10.00" fill="grey">&lt; std::jthread &gt;</text>
</g>
<!-- Node5 -->
<g id="Node000005" class="node">
<title>Node5</title>
<g id="a_Node000005"><a xlink:title=" ">
<polygon fill="white" stroke="none" points="168.38,-518.5 154.38,-518.5 154.38,-468.75 168.38,-468.75 168.38,-518.5"/>
<text xml:space="preserve" text-anchor="start" x="158.38" y="-505" font-family="Helvetica,sans-Serif" font-size="10.00">T</text>
<text xml:space="preserve" text-anchor="start" x="159.88" y="-489.75" font-family="Helvetica,sans-Serif" font-size="10.00"> </text>
<text xml:space="preserve" text-anchor="start" x="159.88" y="-474.5" font-family="Helvetica,sans-Serif" font-size="10.00"> </text>
<polygon fill="#666666" stroke="#666666" points="154.38,-501.25 154.38,-501.25 168.38,-501.25 168.38,-501.25 154.38,-501.25"/>
<polygon fill="#666666" stroke="#666666" points="154.38,-486 154.38,-486 168.38,-486 168.38,-486 154.38,-486"/>
<polygon fill="none" stroke="#666666" points="154.38,-468.75 154.38,-518.5 168.38,-518.5 168.38,-468.75 154.38,-468.75"/>
</a>
</g>
</g>
<!-- Node5&#45;&gt;Node4 -->
<g id="edge4_Node000004_Node000005" class="edge">
<title>Node5&#45;&gt;Node4</title>
<g id="a_edge4_Node000004_Node000005"><a xlink:title=" ">
<path fill="none" stroke="#63b8ff" d="M154.56,-485.15C147.61,-477.18 136.99,-463.9 130.62,-450.75 127.18,-443.63 124.36,-435.66 122.1,-427.94"/>
<polygon fill="none" stroke="#63b8ff" points="122.08,-427.84 116.69,-423.05 119.04,-416.23 124.43,-421.02 122.08,-427.84"/>
</a>
</g>
<text xml:space="preserve" text-anchor="start" x="133.62" y="-438.25" font-family="Helvetica,sans-Serif" font-size="10.00" fill="grey">+elements</text>
</g>
<!-- Node7 -->
<g id="Node000007" class="node">
<title>Node7</title>
<g id="a_Node000007"><a xlink:title=" ">
<polygon fill="white" stroke="none" points="249.25,-415.5 171.5,-415.5 171.5,-365.75 249.25,-365.75 249.25,-415.5"/>
<text xml:space="preserve" text-anchor="start" x="175.5" y="-402" font-family="Helvetica,sans-Serif" font-size="10.00">std::queue&lt; T &gt;</text>
<text xml:space="preserve" text-anchor="start" x="208.88" y="-386.75" font-family="Helvetica,sans-Serif" font-size="10.00"> </text>
<text xml:space="preserve" text-anchor="start" x="208.88" y="-371.5" font-family="Helvetica,sans-Serif" font-size="10.00"> </text>
<polygon fill="#666666" stroke="#666666" points="171.5,-398.25 171.5,-398.25 249.25,-398.25 249.25,-398.25 171.5,-398.25"/>
<polygon fill="#666666" stroke="#666666" points="171.5,-383 171.5,-383 249.25,-383 249.25,-383 171.5,-383"/>
<polygon fill="none" stroke="#666666" points="171.5,-365.75 171.5,-415.5 249.25,-415.5 249.25,-365.75 171.5,-365.75"/>
</a>
</g>
</g>
<!-- Node5&#45;&gt;Node7 -->
<g id="edge7_Node000007_Node000005" class="edge">
<title>Node5&#45;&gt;Node7</title>
<g id="a_edge7_Node000007_Node000005"><a xlink:title=" ">
<path fill="none" stroke="#63b8ff" d="M168.26,-479.09C172.4,-470.9 177.74,-460.25 182.38,-450.75 186.1,-443.11 190.04,-434.89 193.75,-427.08"/>
<polygon fill="none" stroke="#63b8ff" points="193.81,-426.94 192.76,-419.81 198.94,-416.09 199.99,-423.22 193.81,-426.94"/>
</a>
</g>
<text xml:space="preserve" text-anchor="start" x="193.18" y="-438.25" font-family="Helvetica,sans-Serif" font-size="10.00" fill="grey">+elements</text>
</g>
<!-- Node6 -->
<g id="Node000006" class="node">
<title>Node6</title>
<g id="a_Node000006"><a xlink:title=" ">
<polygon fill="white" stroke="none" points="263.5,-297.25 157.25,-297.25 157.25,-225 263.5,-225 263.5,-297.25"/>
<text xml:space="preserve" text-anchor="start" x="161.25" y="-283.75" font-family="Helvetica,sans-Serif" font-size="10.00">std::queue&lt; std::move</text>
<text xml:space="preserve" text-anchor="start" x="161.25" y="-272.5" font-family="Helvetica,sans-Serif" font-size="10.00">_only_function&lt; void</text>
<text xml:space="preserve" text-anchor="start" x="190.88" y="-261.25" font-family="Helvetica,sans-Serif" font-size="10.00">(void)&gt; &gt;</text>
<text xml:space="preserve" text-anchor="start" x="173.38" y="-246" font-family="Helvetica,sans-Serif" font-size="10.00">+</text>
<text xml:space="preserve" text-anchor="start" x="195.5" y="-246" font-family="Helvetica,sans-Serif" font-size="10.00">elements</text>
<text xml:space="preserve" text-anchor="start" x="208.88" y="-230.75" font-family="Helvetica,sans-Serif" font-size="10.00"> </text>
<polygon fill="#666666" stroke="#666666" points="157.25,-257.5 157.25,-257.5 263.5,-257.5 263.5,-257.5 157.25,-257.5"/>
<polygon fill="#666666" stroke="#666666" points="157.25,-242.25 157.25,-242.25 193.5,-242.25 193.5,-242.25 157.25,-242.25"/>
<polygon fill="#666666" stroke="#666666" points="193.5,-242.25 193.5,-242.25 263.5,-242.25 263.5,-242.25 193.5,-242.25"/>
<polygon fill="none" stroke="#666666" points="157.25,-225 157.25,-297.25 263.5,-297.25 263.5,-225 157.25,-225"/>
</a>
</g>
</g>
<!-- Node6&#45;&gt;Node1 -->
<g id="edge5_Node000001_Node000006" class="edge">
<title>Node6&#45;&gt;Node1</title>
<g id="a_edge5_Node000001_Node000006"><a xlink:title=" ">
<path fill="none" stroke="#63b8ff" d="M210.38,-225.07C210.38,-213.06 210.38,-198.97 210.38,-184.47"/>
<polygon fill="none" stroke="#63b8ff" points="210.38,-184.57 206.38,-178.57 210.38,-172.57 214.38,-178.57 210.38,-184.57"/>
</a>
</g>
<text xml:space="preserve" text-anchor="start" x="213.38" y="-194.5" font-family="Helvetica,sans-Serif" font-size="10.00" fill="grey">&#45;_tasks</text>
</g>
<!-- Node7&#45;&gt;Node6 -->
<g id="edge6_Node000006_Node000007" class="edge">
<title>Node7&#45;&gt;Node6</title>
<g id="a_edge6_Node000006_Node000007"><a xlink:title=" ">
<path fill="none" stroke="orange" d="M210.38,-354.56C210.38,-336.72 210.38,-315.09 210.38,-297.24"/>
<polygon fill="orange" stroke="orange" points="206.88,-354.43 210.38,-364.43 213.88,-354.43 206.88,-354.43"/>
</a>
</g>
<text xml:space="preserve" text-anchor="start" x="213.38" y="-335.25" font-family="Helvetica,sans-Serif" font-size="10.00" fill="grey">&lt; std::move_only_function</text>
<text xml:space="preserve" text-anchor="start" x="213.38" y="-320" font-family="Helvetica,sans-Serif" font-size="10.00" fill="grey">  &lt; void(void)&gt; &gt;</text>
</g>
<!-- Node8 -->
<g id="Node000008" class="node">
<title>Node8</title>
<g id="a_Node000008"><a xlink:title=" ">
<polygon fill="white" stroke="none" points="335.62,-286 281.12,-286 281.12,-236.25 335.62,-236.25 335.62,-286"/>
<text xml:space="preserve" text-anchor="start" x="285.12" y="-272.5" font-family="Helvetica,sans-Serif" font-size="10.00">std::mutex</text>
<text xml:space="preserve" text-anchor="start" x="306.88" y="-257.25" font-family="Helvetica,sans-Serif" font-size="10.00"> </text>
<text xml:space="preserve" text-anchor="start" x="306.88" y="-242" font-family="Helvetica,sans-Serif" font-size="10.00"> </text>
<polygon fill="#666666" stroke="#666666" points="281.12,-268.75 281.12,-268.75 335.62,-268.75 335.62,-268.75 281.12,-268.75"/>
<polygon fill="#666666" stroke="#666666" points="281.12,-253.5 281.12,-253.5 335.62,-253.5 335.62,-253.5 281.12,-253.5"/>
<polygon fill="none" stroke="#666666" points="281.12,-236.25 281.12,-286 335.62,-286 335.62,-236.25 281.12,-236.25"/>
</a>
</g>
</g>
<!-- Node8&#45;&gt;Node1 -->
<g id="edge8_Node000001_Node000008" class="edge">
<title>Node8&#45;&gt;Node1</title>
<g id="a_edge8_Node000001_Node000008"><a xlink:title=" ">
<path fill="none" stroke="#63b8ff" d="M294.95,-236.4C286.86,-222.09 275.96,-202.81 264.67,-182.86"/>
<polygon fill="none" stroke="#63b8ff" points="264.73,-182.97 258.3,-179.72 258.82,-172.53 265.26,-175.78 264.73,-182.97"/>
</a>
</g>
<text xml:space="preserve" text-anchor="start" x="279.68" y="-194.5" font-family="Helvetica,sans-Serif" font-size="10.00" fill="grey">&#45;_queueMutex</text>
</g>
</g>
</svg>
