<?xml version="1.0" encoding="UTF-8" standalone="no"?>
<!DOCTYPE svg PUBLIC "-//W3C//DTD SVG 1.1//EN"
 "http://www.w3.org/Graphics/SVG/1.1/DTD/svg11.dtd">
<!-- Generated by graphviz version 14.0.5 (20251129.0259)
 -->
<!-- Title: common/include/RType/ECS/ComponentConcept.hpp Pages: 1 -->
<svg width="210pt" height="94pt"
 viewBox="0.00 0.00 210.00 94.00" xmlns="http://www.w3.org/2000/svg" xmlns:xlink="http://www.w3.org/1999/xlink">
<g id="graph0" class="graph" transform="scale(1 1) rotate(0) translate(4 89.75)">
<title>common/include/RType/ECS/ComponentConcept.hpp</title>
<!-- Node1 -->
<g id="Node000001" class="node">
<title>Node1</title>
<g id="a_Node000001"><a xlink:title="Concepts for validating component types in the ECS.">
<polygon fill="#999999" stroke="#666666" points="179.25,-85.75 30.5,-85.75 30.5,-55.25 179.25,-55.25 179.25,-85.75"/>
<text xml:space="preserve" text-anchor="start" x="38.5" y="-72.25" font-family="Helvetica,sans-Serif" font-size="10.00">common/include/RType</text>
<text xml:space="preserve" text-anchor="middle" x="104.88" y="-61" font-family="Helvetica,sans-Serif" font-size="10.00">/ECS/ComponentConcept.hpp</text>
</a>
</g>
</g>
<!-- Node2 -->
<g id="Node000002" class="node">
<title>Node2</title>
<g id="a_Node000002"><a xlink:title=" ">
<polygon fill="#e0e0e0" stroke="#999999" points="55.75,-19.25 0,-19.25 0,0 55.75,0 55.75,-19.25"/>
<text xml:space="preserve" text-anchor="middle" x="27.88" y="-5.75" font-family="Helvetica,sans-Serif" font-size="10.00">concepts</text>
</a>
</g>
</g>
<!-- Node1&#45;&gt;Node2 -->
<g id="edge1_Node000001_Node000002" class="edge">
<title>Node1&#45;&gt;Node2</title>
<g id="a_edge1_Node000001_Node000002"><a xlink:title=" ">
<path fill="none" stroke="#63b8ff" d="M85.84,-54.95C74.57,-46.33 60.27,-35.4 48.7,-26.55"/>
<polygon fill="#63b8ff" stroke="#63b8ff" points="51.02,-23.91 40.95,-20.62 46.77,-29.48 51.02,-23.91"/>
</a>
</g>
</g>
<!-- Node3 -->
<g id="Node000003" class="node">
<title>Node3</title>
<g id="a_Node000003"><a xlink:title=" ">
<polygon fill="#e0e0e0" stroke="#999999" points="135.75,-19.25 74,-19.25 74,0 135.75,0 135.75,-19.25"/>
<text xml:space="preserve" text-anchor="middle" x="104.88" y="-5.75" font-family="Helvetica,sans-Serif" font-size="10.00">type_traits</text>
</a>
</g>
</g>
<!-- Node1&#45;&gt;Node3 -->
<g id="edge2_Node000001_Node000003" class="edge">
<title>Node1&#45;&gt;Node3</title>
<g id="a_edge2_Node000001_Node000003"><a xlink:title=" ">
<path fill="none" stroke="#63b8ff" d="M104.88,-54.95C104.88,-47.71 104.88,-38.84 104.88,-30.94"/>
<polygon fill="#63b8ff" stroke="#63b8ff" points="108.38,-31.21 104.88,-21.21 101.38,-31.21 108.38,-31.21"/>
</a>
</g>
</g>
<!-- Node4 -->
<g id="Node000004" class="node">
<title>Node4</title>
<g id="a_Node000004"><a xlink:title=" ">
<polygon fill="#e0e0e0" stroke="#999999" points="202,-19.25 153.75,-19.25 153.75,0 202,0 202,-19.25"/>
<text xml:space="preserve" text-anchor="middle" x="177.88" y="-5.75" font-family="Helvetica,sans-Serif" font-size="10.00">cstddef</text>
</a>
</g>
</g>
<!-- Node1&#45;&gt;Node4 -->
<g id="edge3_Node000001_Node000004" class="edge">
<title>Node1&#45;&gt;Node4</title>
<g id="a_edge3_Node000001_Node000004"><a xlink:title=" ">
<path fill="none" stroke="#63b8ff" d="M122.92,-54.95C133.5,-46.41 146.89,-35.62 157.8,-26.81"/>
<polygon fill="#63b8ff" stroke="#63b8ff" points="159.86,-29.65 165.44,-20.65 155.46,-24.2 159.86,-29.65"/>
</a>
</g>
</g>
</g>
</svg>
