<?xml version="1.0" encoding="UTF-8" standalone="no"?>
<!DOCTYPE svg PUBLIC "-//W3C//DTD SVG 1.1//EN"
 "http://www.w3.org/Graphics/SVG/1.1/DTD/svg11.dtd">
<!-- Generated by graphviz version 14.0.5 (20251129.0259)
 -->
<!-- Title: common/include/RType/ECS/Components/Damage.hpp Pages: 1 -->
<svg width="328pt" height="149pt"
 viewBox="0.00 0.00 328.00 149.00" xmlns="http://www.w3.org/2000/svg" xmlns:xlink="http://www.w3.org/1999/xlink">
<g id="graph0" class="graph" transform="scale(1 1) rotate(0) translate(4 145)">
<title>common/include/RType/ECS/Components/Damage.hpp</title>
<!-- Node1 -->
<g id="Node000001" class="node">
<title>Node1</title>
<g id="a_Node000001"><a xlink:title=" ">
<polygon fill="#999999" stroke="#666666" points="232.25,-141 75.25,-141 75.25,-110.5 232.25,-110.5 232.25,-141"/>
<text xml:space="preserve" text-anchor="start" x="83.25" y="-127.5" font-family="Helvetica,sans-Serif" font-size="10.00">common/include/RType</text>
<text xml:space="preserve" text-anchor="middle" x="153.75" y="-116.25" font-family="Helvetica,sans-Serif" font-size="10.00">/ECS/Components/Damage.hpp</text>
</a>
</g>
</g>
<!-- Node2 -->
<g id="Node000002" class="node">
<title>Node2</title>
<g id="a_Node000002"><a xlink:href="Entity_8hpp.html" target="_top" xlink:title="Entity identifier for ECS architecture.">
<polygon fill="white" stroke="#666666" points="210.88,-74.5 96.62,-74.5 96.62,-55.25 210.88,-55.25 210.88,-74.5"/>
<text xml:space="preserve" text-anchor="middle" x="153.75" y="-61" font-family="Helvetica,sans-Serif" font-size="10.00">RType/ECS/Entity.hpp</text>
</a>
</g>
</g>
<!-- Node1&#45;&gt;Node2 -->
<g id="edge1_Node000001_Node000002" class="edge">
<title>Node1&#45;&gt;Node2</title>
<g id="a_edge1_Node000001_Node000002"><a xlink:title=" ">
<path fill="none" stroke="#63b8ff" d="M153.75,-110.2C153.75,-102.96 153.75,-94.09 153.75,-86.19"/>
<polygon fill="#63b8ff" stroke="#63b8ff" points="157.25,-86.46 153.75,-76.46 150.25,-86.46 157.25,-86.46"/>
</a>
</g>
</g>
<!-- Node3 -->
<g id="Node000003" class="node">
<title>Node3</title>
<g id="a_Node000003"><a xlink:title=" ">
<polygon fill="#e0e0e0" stroke="#999999" points="53.5,-19.25 0,-19.25 0,0 53.5,0 53.5,-19.25"/>
<text xml:space="preserve" text-anchor="middle" x="26.75" y="-5.75" font-family="Helvetica,sans-Serif" font-size="10.00">compare</text>
</a>
</g>
</g>
<!-- Node2&#45;&gt;Node3 -->
<g id="edge2_Node000002_Node000003" class="edge">
<title>Node2&#45;&gt;Node3</title>
<g id="a_edge2_Node000002_Node000003"><a xlink:title=" ">
<path fill="none" stroke="#63b8ff" d="M132.21,-54.84C112.14,-46.43 81.95,-33.77 59,-24.15"/>
<polygon fill="#63b8ff" stroke="#63b8ff" points="60.37,-20.93 49.8,-20.29 57.66,-27.38 60.37,-20.93"/>
</a>
</g>
</g>
<!-- Node4 -->
<g id="Node000004" class="node">
<title>Node4</title>
<g id="a_Node000004"><a xlink:title=" ">
<polygon fill="#e0e0e0" stroke="#999999" points="116.38,-19.25 71.12,-19.25 71.12,0 116.38,0 116.38,-19.25"/>
<text xml:space="preserve" text-anchor="middle" x="93.75" y="-5.75" font-family="Helvetica,sans-Serif" font-size="10.00">cstdint</text>
</a>
</g>
</g>
<!-- Node2&#45;&gt;Node4 -->
<g id="edge3_Node000002_Node000004" class="edge">
<title>Node2&#45;&gt;Node4</title>
<g id="a_edge3_Node000002_Node000004"><a xlink:title=" ">
<path fill="none" stroke="#63b8ff" d="M143.57,-54.84C134.99,-47.22 122.48,-36.12 112.15,-26.95"/>
<polygon fill="#63b8ff" stroke="#63b8ff" points="114.71,-24.55 104.91,-20.53 110.07,-29.79 114.71,-24.55"/>
</a>
</g>
</g>
<!-- Node5 -->
<g id="Node000005" class="node">
<title>Node5</title>
<g id="a_Node000005"><a xlink:title=" ">
<polygon fill="#e0e0e0" stroke="#999999" points="173.38,-19.25 134.12,-19.25 134.12,0 173.38,0 173.38,-19.25"/>
<text xml:space="preserve" text-anchor="middle" x="153.75" y="-5.75" font-family="Helvetica,sans-Serif" font-size="10.00">limits</text>
</a>
</g>
</g>
<!-- Node2&#45;&gt;Node5 -->
<g id="edge4_Node000002_Node000005" class="edge">
<title>Node2&#45;&gt;Node5</title>
<g id="a_edge4_Node000002_Node000005"><a xlink:title=" ">
<path fill="none" stroke="#63b8ff" d="M153.75,-55.08C153.75,-48.57 153.75,-39.42 153.75,-31.12"/>
<polygon fill="#63b8ff" stroke="#63b8ff" points="157.25,-31.12 153.75,-21.12 150.25,-31.12 157.25,-31.12"/>
</a>
</g>
</g>
<!-- Node6 -->
<g id="Node000006" class="node">
<title>Node6</title>
<g id="a_Node000006"><a xlink:title=" ">
<polygon fill="#e0e0e0" stroke="#999999" points="249.75,-19.25 191.75,-19.25 191.75,0 249.75,0 249.75,-19.25"/>
<text xml:space="preserve" text-anchor="middle" x="220.75" y="-5.75" font-family="Helvetica,sans-Serif" font-size="10.00">functional</text>
</a>
</g>
</g>
<!-- Node2&#45;&gt;Node6 -->
<g id="edge5_Node000002_Node000006" class="edge">
<title>Node2&#45;&gt;Node6</title>
<g id="a_edge5_Node000002_Node000006"><a xlink:title=" ">
<path fill="none" stroke="#63b8ff" d="M165.12,-54.84C174.8,-47.15 188.95,-35.9 200.56,-26.68"/>
<polygon fill="#63b8ff" stroke="#63b8ff" points="202.72,-29.43 208.37,-20.47 198.36,-23.95 202.72,-29.43"/>
</a>
</g>
</g>
<!-- Node7 -->
<g id="Node000007" class="node">
<title>Node7</title>
<g id="a_Node000007"><a xlink:title=" ">
<polygon fill="#e0e0e0" stroke="#999999" points="320.12,-19.25 267.38,-19.25 267.38,0 320.12,0 320.12,-19.25"/>
<text xml:space="preserve" text-anchor="middle" x="293.75" y="-5.75" font-family="Helvetica,sans-Serif" font-size="10.00">Entity.inl</text>
</a>
</g>
</g>
<!-- Node2&#45;&gt;Node7 -->
<g id="edge6_Node000002_Node000007" class="edge">
<title>Node2&#45;&gt;Node7</title>
<g id="a_edge6_Node000002_Node000007"><a xlink:title=" ">
<path fill="none" stroke="#63b8ff" d="M177.5,-54.84C199.92,-46.31 233.81,-33.42 259.22,-23.76"/>
<polygon fill="#63b8ff" stroke="#63b8ff" points="260.37,-27.07 268.47,-20.24 257.88,-20.52 260.37,-27.07"/>
</a>
</g>
</g>
</g>
</svg>
