<?xml version="1.0" encoding="UTF-8" standalone="no"?>
<!DOCTYPE svg PUBLIC "-//W3C//DTD SVG 1.1//EN"
 "http://www.w3.org/Graphics/SVG/1.1/DTD/svg11.dtd">
<!-- Generated by graphviz version 14.0.5 (20251129.0259)
 -->
<!-- Title: common/include/RType/ECS/Components/Damage.hpp Pages: 1 -->
<svg width="829pt" height="293pt"
 viewBox="0.00 0.00 829.00 293.00" xmlns="http://www.w3.org/2000/svg" xmlns:xlink="http://www.w3.org/1999/xlink">
<g id="graph0" class="graph" transform="scale(1 1) rotate(0) translate(4 289.25)">
<title>common/include/RType/ECS/Components/Damage.hpp</title>
<!-- Node1 -->
<g id="Node000001" class="node">
<title>Node1</title>
<g id="a_Node000001"><a xlink:title=" ">
<polygon fill="#999999" stroke="#666666" points="486.58,-285.25 329.58,-285.25 329.58,-254.75 486.58,-254.75 486.58,-285.25"/>
<text xml:space="preserve" text-anchor="start" x="337.58" y="-271.75" font-family="Helvetica,sans-Serif" font-size="10.00">common/include/RType</text>
<text xml:space="preserve" text-anchor="middle" x="408.08" y="-260.5" font-family="Helvetica,sans-Serif" font-size="10.00">/ECS/Components/Damage.hpp</text>
</a>
</g>
</g>
<!-- Node2 -->
<g id="Node000002" class="node">
<title>Node2</title>
<g id="a_Node000002"><a xlink:href="GameManager_8hpp.html" target="_top" xlink:title=" ">
<polygon fill="white" stroke="#666666" points="480.08,-85.75 374.08,-85.75 374.08,-55.25 480.08,-55.25 480.08,-85.75"/>
<text xml:space="preserve" text-anchor="start" x="382.08" y="-72.25" font-family="Helvetica,sans-Serif" font-size="10.00">server/include/Game</text>
<text xml:space="preserve" text-anchor="middle" x="427.08" y="-61" font-family="Helvetica,sans-Serif" font-size="10.00">/GameManager.hpp</text>
</a>
</g>
</g>
<!-- Node1&#45;&gt;Node2 -->
<g id="edge1_Node000001_Node000002" class="edge">
<title>Node1&#45;&gt;Node2</title>
<g id="a_edge1_Node000001_Node000002"><a xlink:title=" ">
<path fill="none" stroke="#63b8ff" d="M447.33,-248.15C458.98,-240.29 470.82,-230.4 479.08,-218.75 496.85,-193.67 493.82,-182.69 498.08,-152.25 499.96,-138.83 504.31,-133.79 498.08,-121.75 490.03,-106.19 474.7,-94.42 460.33,-86.19"/>
<polygon fill="#63b8ff" stroke="#63b8ff" points="445.53,-245.14 438.95,-253.44 449.28,-251.06 445.53,-245.14"/>
</a>
</g>
</g>
<!-- Node5 -->
<g id="Node000005" class="node">
<title>Node5</title>
<g id="a_Node000005"><a xlink:href="CollisionSystem_8hpp.html" target="_top" xlink:title=" ">
<polygon fill="white" stroke="#666666" points="129.45,-218.75 10.7,-218.75 10.7,-188.25 129.45,-188.25 129.45,-218.75"/>
<text xml:space="preserve" text-anchor="start" x="18.7" y="-205.25" font-family="Helvetica,sans-Serif" font-size="10.00">server/include/Systems</text>
<text xml:space="preserve" text-anchor="middle" x="70.08" y="-194" font-family="Helvetica,sans-Serif" font-size="10.00">/CollisionSystem.hpp</text>
</a>
</g>
</g>
<!-- Node1&#45;&gt;Node5 -->
<g id="edge4_Node000001_Node000005" class="edge">
<title>Node1&#45;&gt;Node5</title>
<g id="a_edge4_Node000001_Node000005"><a xlink:title=" ">
<path fill="none" stroke="#63b8ff" d="M319.99,-252.19C260.12,-240.77 182.51,-225.95 129.77,-215.89"/>
<polygon fill="#63b8ff" stroke="#63b8ff" points="318.99,-255.56 329.47,-254 320.31,-248.69 318.99,-255.56"/>
</a>
</g>
</g>
<!-- Node7 -->
<g id="Node000007" class="node">
<title>Node7</title>
<g id="a_Node000007"><a xlink:href="EnemyShootSystem_8hpp.html" target="_top" xlink:title=" ">
<polygon fill="white" stroke="#666666" points="308.95,-218.75 181.2,-218.75 181.2,-188.25 308.95,-188.25 308.95,-218.75"/>
<text xml:space="preserve" text-anchor="start" x="189.2" y="-205.25" font-family="Helvetica,sans-Serif" font-size="10.00">server/include/Systems</text>
<text xml:space="preserve" text-anchor="middle" x="245.08" y="-194" font-family="Helvetica,sans-Serif" font-size="10.00">/EnemyShootSystem.hpp</text>
</a>
</g>
</g>
<!-- Node1&#45;&gt;Node7 -->
<g id="edge7_Node000001_Node000007" class="edge">
<title>Node1&#45;&gt;Node7</title>
<g id="a_edge7_Node000001_Node000007"><a xlink:title=" ">
<path fill="none" stroke="#63b8ff" d="M360.4,-250.13C335.46,-240.26 305.38,-228.36 282.2,-219.19"/>
<polygon fill="#63b8ff" stroke="#63b8ff" points="359.1,-253.38 369.68,-253.81 361.67,-246.87 359.1,-253.38"/>
</a>
</g>
</g>
<!-- Node9 -->
<g id="Node000009" class="node">
<title>Node9</title>
<g id="a_Node000009"><a xlink:href="EntitySystem_8hpp.html" target="_top" xlink:title=" ">
<polygon fill="white" stroke="#666666" points="698.45,-218.75 579.7,-218.75 579.7,-188.25 698.45,-188.25 698.45,-218.75"/>
<text xml:space="preserve" text-anchor="start" x="587.7" y="-205.25" font-family="Helvetica,sans-Serif" font-size="10.00">server/include/Systems</text>
<text xml:space="preserve" text-anchor="middle" x="639.08" y="-194" font-family="Helvetica,sans-Serif" font-size="10.00">/EntitySystem.hpp</text>
</a>
</g>
</g>
<!-- Node1&#45;&gt;Node9 -->
<g id="edge10_Node000001_Node000009" class="edge">
<title>Node1&#45;&gt;Node9</title>
<g id="a_edge10_Node000001_Node000009"><a xlink:title=" ">
<path fill="none" stroke="#63b8ff" d="M471.7,-251.24C507.82,-241.15 552.49,-228.68 586.6,-219.15"/>
<polygon fill="#63b8ff" stroke="#63b8ff" points="470.93,-247.82 462.24,-253.88 472.82,-254.56 470.93,-247.82"/>
</a>
</g>
</g>
<!-- Node13 -->
<g id="Node000013" class="node">
<title>Node13</title>
<g id="a_Node000013"><a xlink:href="PlayerShootSystem_8hpp.html" target="_top" xlink:title=" ">
<polygon fill="white" stroke="#666666" points="470.45,-218.75 345.7,-218.75 345.7,-188.25 470.45,-188.25 470.45,-218.75"/>
<text xml:space="preserve" text-anchor="start" x="353.7" y="-205.25" font-family="Helvetica,sans-Serif" font-size="10.00">server/include/Systems</text>
<text xml:space="preserve" text-anchor="middle" x="408.08" y="-194" font-family="Helvetica,sans-Serif" font-size="10.00">/PlayerShootSystem.hpp</text>
</a>
</g>
</g>
<!-- Node1&#45;&gt;Node13 -->
<g id="edge16_Node000001_Node000013" class="edge">
<title>Node1&#45;&gt;Node13</title>
<g id="a_edge16_Node000001_Node000013"><a xlink:title=" ">
<path fill="none" stroke="#63b8ff" d="M408.08,-243.06C408.08,-234.89 408.08,-226.16 408.08,-219.08"/>
<polygon fill="#63b8ff" stroke="#63b8ff" points="404.58,-242.85 408.08,-252.85 411.58,-242.85 404.58,-242.85"/>
</a>
</g>
</g>
<!-- Node3 -->
<g id="Node000003" class="node">
<title>Node3</title>
<g id="a_Node000003"><a xlink:href="GameManager_8cpp.html" target="_top" xlink:title=" ">
<polygon fill="white" stroke="#666666" points="435.83,-19.25 262.33,-19.25 262.33,0 435.83,0 435.83,-19.25"/>
<text xml:space="preserve" text-anchor="middle" x="349.08" y="-5.75" font-family="Helvetica,sans-Serif" font-size="10.00">server/src/Game/GameManager.cpp</text>
</a>
</g>
</g>
<!-- Node2&#45;&gt;Node3 -->
<g id="edge2_Node000002_Node000003" class="edge">
<title>Node2&#45;&gt;Node3</title>
<g id="a_edge2_Node000002_Node000003"><a xlink:title=" ">
<path fill="none" stroke="#63b8ff" d="M398.75,-48.12C385.79,-38.33 371.12,-27.26 361.1,-19.7"/>
<polygon fill="#63b8ff" stroke="#63b8ff" points="396.5,-50.8 406.59,-54.03 400.72,-45.22 396.5,-50.8"/>
</a>
</g>
</g>
<!-- Node4 -->
<g id="Node000004" class="node">
<title>Node4</title>
<g id="a_Node000004"><a xlink:href="server_2src_2main_8cpp.html" target="_top" xlink:title=" ">
<polygon fill="white" stroke="#666666" points="556.2,-19.25 453.95,-19.25 453.95,0 556.2,0 556.2,-19.25"/>
<text xml:space="preserve" text-anchor="middle" x="505.08" y="-5.75" font-family="Helvetica,sans-Serif" font-size="10.00">server/src/main.cpp</text>
</a>
</g>
</g>
<!-- Node2&#45;&gt;Node4 -->
<g id="edge3_Node000002_Node000004" class="edge">
<title>Node2&#45;&gt;Node4</title>
<g id="a_edge3_Node000002_Node000004"><a xlink:title=" ">
<path fill="none" stroke="#63b8ff" d="M455.41,-48.12C468.37,-38.33 483.04,-27.26 493.05,-19.7"/>
<polygon fill="#63b8ff" stroke="#63b8ff" points="453.44,-45.22 447.57,-54.03 457.66,-50.8 453.44,-45.22"/>
</a>
</g>
</g>
<!-- Node5&#45;&gt;Node2 -->
<g id="edge5_Node000005_Node000002" class="edge">
<title>Node5&#45;&gt;Node2</title>
<g id="a_edge5_Node000005_Node000002"><a xlink:title=" ">
<path fill="none" stroke="#63b8ff" d="M35.13,-181.37C11.96,-164.77 -11.25,-141.27 6.08,-121.75 30.12,-94.67 265.88,-79.54 373.73,-73.98"/>
<polygon fill="#63b8ff" stroke="#63b8ff" points="33.11,-184.23 43.35,-186.96 37.05,-178.44 33.11,-184.23"/>
</a>
</g>
</g>
<!-- Node6 -->
<g id="Node000006" class="node">
<title>Node6</title>
<g id="a_Node000006"><a xlink:href="CollisionSystem_8cpp.html" target="_top" xlink:title=" ">
<polygon fill="white" stroke="#666666" points="124.58,-152.25 15.58,-152.25 15.58,-121.75 124.58,-121.75 124.58,-152.25"/>
<text xml:space="preserve" text-anchor="start" x="23.58" y="-138.75" font-family="Helvetica,sans-Serif" font-size="10.00">server/src/Systems</text>
<text xml:space="preserve" text-anchor="middle" x="70.08" y="-127.5" font-family="Helvetica,sans-Serif" font-size="10.00">/CollisionSystem.cpp</text>
</a>
</g>
</g>
<!-- Node5&#45;&gt;Node6 -->
<g id="edge6_Node000005_Node000006" class="edge">
<title>Node5&#45;&gt;Node6</title>
<g id="a_edge6_Node000005_Node000006"><a xlink:title=" ">
<path fill="none" stroke="#63b8ff" d="M70.08,-176.56C70.08,-168.39 70.08,-159.66 70.08,-152.58"/>
<polygon fill="#63b8ff" stroke="#63b8ff" points="66.58,-176.35 70.08,-186.35 73.58,-176.35 66.58,-176.35"/>
</a>
</g>
</g>
<!-- Node7&#45;&gt;Node2 -->
<g id="edge8_Node000007_Node000002" class="edge">
<title>Node7&#45;&gt;Node2</title>
<g id="a_edge8_Node000007_Node000002"><a xlink:title=" ">
<path fill="none" stroke="#63b8ff" d="M205.98,-182.05C180.4,-166.01 154.68,-142.91 172.08,-121.75 197.08,-91.34 306.48,-79.04 373.6,-74.29"/>
<polygon fill="#63b8ff" stroke="#63b8ff" points="204.01,-184.95 214.39,-187.06 207.59,-178.94 204.01,-184.95"/>
</a>
</g>
</g>
<!-- Node8 -->
<g id="Node000008" class="node">
<title>Node8</title>
<g id="a_Node000008"><a xlink:href="EnemyShootSystem_8cpp.html" target="_top" xlink:title=" ">
<polygon fill="white" stroke="#666666" points="308.95,-152.25 181.2,-152.25 181.2,-121.75 308.95,-121.75 308.95,-152.25"/>
<text xml:space="preserve" text-anchor="start" x="189.2" y="-138.75" font-family="Helvetica,sans-Serif" font-size="10.00">server/src/Systems</text>
<text xml:space="preserve" text-anchor="middle" x="245.08" y="-127.5" font-family="Helvetica,sans-Serif" font-size="10.00">/EnemyShootSystem.cpp</text>
</a>
</g>
</g>
<!-- Node7&#45;&gt;Node8 -->
<g id="edge9_Node000007_Node000008" class="edge">
<title>Node7&#45;&gt;Node8</title>
<g id="a_edge9_Node000007_Node000008"><a xlink:title=" ">
<path fill="none" stroke="#63b8ff" d="M245.08,-176.56C245.08,-168.39 245.08,-159.66 245.08,-152.58"/>
<polygon fill="#63b8ff" stroke="#63b8ff" points="241.58,-176.35 245.08,-186.35 248.58,-176.35 241.58,-176.35"/>
</a>
</g>
</g>
<!-- Node9&#45;&gt;Node2 -->
<g id="edge11_Node000009_Node000002" class="edge">
<title>Node9&#45;&gt;Node2</title>
<g id="a_edge11_Node000009_Node000002"><a xlink:title=" ">
<path fill="none" stroke="#63b8ff" d="M653.84,-178.01C662.24,-160.59 668.79,-137.56 656.08,-121.75 634.46,-94.87 541.08,-81.56 480.44,-75.63"/>
<polygon fill="#63b8ff" stroke="#63b8ff" points="650.84,-176.21 649.24,-186.68 657.02,-179.49 650.84,-176.21"/>
</a>
</g>
</g>
<!-- Node10 -->
<g id="Node000010" class="node">
<title>Node10</title>
<g id="a_Node000010"><a xlink:href="LevelSystem_8hpp.html" target="_top" xlink:title=" ">
<polygon fill="white" stroke="#666666" points="821.45,-152.25 702.7,-152.25 702.7,-121.75 821.45,-121.75 821.45,-152.25"/>
<text xml:space="preserve" text-anchor="start" x="710.7" y="-138.75" font-family="Helvetica,sans-Serif" font-size="10.00">server/include/Systems</text>
<text xml:space="preserve" text-anchor="middle" x="762.08" y="-127.5" font-family="Helvetica,sans-Serif" font-size="10.00">/LevelSystem.hpp</text>
</a>
</g>
</g>
<!-- Node9&#45;&gt;Node10 -->
<g id="edge12_Node000009_Node000010" class="edge">
<title>Node9&#45;&gt;Node10</title>
<g id="a_edge12_Node000009_Node000010"><a xlink:title=" ">
<path fill="none" stroke="#63b8ff" d="M677.14,-182.54C695.61,-172.86 717.39,-161.43 734.28,-152.58"/>
<polygon fill="#63b8ff" stroke="#63b8ff" points="675.56,-179.42 668.33,-187.16 678.81,-185.62 675.56,-179.42"/>
</a>
</g>
</g>
<!-- Node12 -->
<g id="Node000012" class="node">
<title>Node12</title>
<g id="a_Node000012"><a xlink:href="EntitySystem_8cpp.html" target="_top" xlink:title=" ">
<polygon fill="white" stroke="#666666" points="646.83,-152.25 545.33,-152.25 545.33,-121.75 646.83,-121.75 646.83,-152.25"/>
<text xml:space="preserve" text-anchor="start" x="553.33" y="-138.75" font-family="Helvetica,sans-Serif" font-size="10.00">server/src/Systems</text>
<text xml:space="preserve" text-anchor="middle" x="596.08" y="-127.5" font-family="Helvetica,sans-Serif" font-size="10.00">/EntitySystem.cpp</text>
</a>
</g>
</g>
<!-- Node9&#45;&gt;Node12 -->
<g id="edge15_Node000009_Node000012" class="edge">
<title>Node9&#45;&gt;Node12</title>
<g id="a_edge15_Node000009_Node000012"><a xlink:title=" ">
<path fill="none" stroke="#63b8ff" d="M623.11,-178.54C617.29,-169.82 610.9,-160.24 605.8,-152.58"/>
<polygon fill="#63b8ff" stroke="#63b8ff" points="620.02,-180.23 628.48,-186.6 625.85,-176.34 620.02,-180.23"/>
</a>
</g>
</g>
<!-- Node10&#45;&gt;Node2 -->
<g id="edge13_Node000010_Node000002" class="edge">
<title>Node10&#45;&gt;Node2</title>
<g id="a_edge13_Node000010_Node000002"><a xlink:title=" ">
<path fill="none" stroke="#63b8ff" d="M691.11,-122.14C690.43,-122.01 689.75,-121.88 689.08,-121.75 616.89,-107.78 533.48,-91.81 480.53,-81.7"/>
<polygon fill="#63b8ff" stroke="#63b8ff" points="690.35,-125.56 700.84,-124.03 691.69,-118.69 690.35,-125.56"/>
</a>
</g>
</g>
<!-- Node11 -->
<g id="Node000011" class="node">
<title>Node11</title>
<g id="a_Node000011"><a xlink:href="LevelSystem_8cpp.html" target="_top" xlink:title=" ">
<polygon fill="white" stroke="#666666" points="812.83,-85.75 711.33,-85.75 711.33,-55.25 812.83,-55.25 812.83,-85.75"/>
<text xml:space="preserve" text-anchor="start" x="719.33" y="-72.25" font-family="Helvetica,sans-Serif" font-size="10.00">server/src/Systems</text>
<text xml:space="preserve" text-anchor="middle" x="762.08" y="-61" font-family="Helvetica,sans-Serif" font-size="10.00">/LevelSystem.cpp</text>
</a>
</g>
</g>
<!-- Node10&#45;&gt;Node11 -->
<g id="edge14_Node000010_Node000011" class="edge">
<title>Node10&#45;&gt;Node11</title>
<g id="a_edge14_Node000010_Node000011"><a xlink:title=" ">
<path fill="none" stroke="#63b8ff" d="M762.08,-110.06C762.08,-101.89 762.08,-93.16 762.08,-86.08"/>
<polygon fill="#63b8ff" stroke="#63b8ff" points="758.58,-109.85 762.08,-119.85 765.58,-109.85 758.58,-109.85"/>
</a>
</g>
</g>
<!-- Node13&#45;&gt;Node2 -->
<g id="edge17_Node000013_Node000002" class="edge">
<title>Node13&#45;&gt;Node2</title>
<g id="a_edge17_Node000013_Node000002"><a xlink:title=" ">
<path fill="none" stroke="#63b8ff" d="M377.43,-180.59C368.88,-172.72 360.68,-163.08 356.08,-152.25 350.78,-139.77 349.85,-133.79 356.08,-121.75 364.13,-106.19 379.46,-94.42 393.82,-86.19"/>
<polygon fill="#63b8ff" stroke="#63b8ff" points="374.94,-183.06 384.83,-186.86 379.47,-177.72 374.94,-183.06"/>
</a>
</g>
</g>
<!-- Node14 -->
<g id="Node000014" class="node">
<title>Node14</title>
<g id="a_Node000014"><a xlink:href="PlayerShootSystem_8cpp.html" target="_top" xlink:title=" ">
<polygon fill="white" stroke="#666666" points="489.45,-152.25 364.7,-152.25 364.7,-121.75 489.45,-121.75 489.45,-152.25"/>
<text xml:space="preserve" text-anchor="start" x="372.7" y="-138.75" font-family="Helvetica,sans-Serif" font-size="10.00">server/src/Systems</text>
<text xml:space="preserve" text-anchor="middle" x="427.08" y="-127.5" font-family="Helvetica,sans-Serif" font-size="10.00">/PlayerShootSystem.cpp</text>
</a>
</g>
</g>
<!-- Node13&#45;&gt;Node14 -->
<g id="edge18_Node000013_Node000014" class="edge">
<title>Node13&#45;&gt;Node14</title>
<g id="a_edge18_Node000013_Node000014"><a xlink:title=" ">
<path fill="none" stroke="#63b8ff" d="M415.64,-176.84C418.07,-168.59 420.67,-159.74 422.78,-152.58"/>
<polygon fill="#63b8ff" stroke="#63b8ff" points="412.29,-175.83 412.82,-186.41 419,-177.81 412.29,-175.83"/>
</a>
</g>
</g>
</g>
</svg>
