<?xml version="1.0" encoding="UTF-8" standalone="no"?>
<!DOCTYPE svg PUBLIC "-//W3C//DTD SVG 1.1//EN"
 "http://www.w3.org/Graphics/SVG/1.1/DTD/svg11.dtd">
<!-- Generated by graphviz version 14.0.5 (20251129.0259)
 -->
<!-- Title: client/src Pages: 1 -->
<!--zoomable 142 -->

<svg id="main" version="1.1" xmlns="http://www.w3.org/2000/svg" xmlns:xlink="http://www.w3.org/1999/xlink" xml:space="preserve" onload="init(evt)">

<style type="text/css"><![CDATA[
.node, .edge {opacity: 0.7;}
.node.selected, .edge.selected {opacity: 1;}
.edge:hover path { stroke: red; }
.edge:hover polygon { stroke: red; fill: red; }
]]></style>

<defs>
  <circle id="rim" cx="0" cy="0" r="7"/>
  <circle id="rim2" cx="0" cy="0" r="3.5"/>
  <g id="zoomPlus">
    <use xlink:href="#rim" fill="#404040"><set attributeName="fill" to="#808080" begin="zoomplus.mouseover" end="zoomplus.mouseout"/></use>
    <path d="M-4,0h8M0,-4v8" fill="none" stroke="white" stroke-width="1.5" pointer-events="none"/>
  </g>
  <g id="zoomMin">
    <use xlink:href="#rim" fill="#404040"><set attributeName="fill" to="#808080" begin="zoomminus.mouseover" end="zoomminus.mouseout"/></use>
    <path d="M-4,0h8" fill="none" stroke="white" stroke-width="1.5" pointer-events="none"/>
  </g>
  <g id="arrowUp" transform="translate(30 24)">
    <use xlink:href="#rim"/>
    <path pointer-events="none" fill="none" stroke="white" stroke-width="1.5" d="M0,-3.0v7 M-2.5,-0.5L0,-3.0L2.5,-0.5"/>
  </g>
  <g id="arrowRight" transform="rotate(90) translate(36 -43)">
    <use xlink:href="#rim"/>
    <path pointer-events="none" fill="none" stroke="white" stroke-width="1.5" d="M0,-3.0v7 M-2.5,-0.5L0,-3.0L2.5,-0.5"/>
  </g>
  <g id="arrowDown" transform="rotate(180) translate(-30 -48)">
    <use xlink:href="#rim"/>
    <path pointer-events="none" fill="none" stroke="white" stroke-width="1.5" d="M0,-3.0v7 M-2.5,-0.5L0,-3.0L2.5,-0.5"/>
  </g>
  <g id="arrowLeft" transform="rotate(270) translate(-36 17)">
    <use xlink:href="#rim"/>
    <path pointer-events="none" fill="none" stroke="white" stroke-width="1.5" d="M0,-3.0v7 M-2.5,-0.5L0,-3.0L2.5,-0.5"/>
  </g>
  <g id="resetDef">
    <use xlink:href="#rim2" fill="#404040"><set attributeName="fill" to="#808080" begin="reset.mouseover" end="reset.mouseout"/></use>
  </g>
</defs>
<script type="application/ecmascript">
var viewWidth = 596;
var viewHeight = 142;
var sectionId = 'dynsection-0';
</script>
<script type="application/ecmascript" xlink:href="svg.min.js"/>
<svg id="graph" class="graph">
<g id="viewport">
<title>client/src</title>
<g id="clust1" class="cluster">
<title>clusterdir_db3a54907829b36871118d03417739cd</title>
<g id="a_clust1"><a xlink:href="dir_db3a54907829b36871118d03417739cd.html" target="_top" xlink:title="client">
<polygon fill="#edf0f7" stroke="#404040" stroke-dasharray="5,2" points="8,-8 8,-125.75 526,-125.75 526,-8 8,-8"/>
<text xml:space="preserve" text-anchor="middle" x="267" y="-112.25" font-family="Helvetica,sans-Serif" font-size="10.00">client</text>
</a>
</g>
</g>
<g id="clust2" class="cluster">
<title>clusterdir_b565d458ba0ce2faccd0ea2cd60c04eb</title>
<g id="a_clust2"><a xlink:href="dir_b565d458ba0ce2faccd0ea2cd60c04eb.html" target="_top">
<polygon fill="#edf0f7" stroke="#404040" stroke-width="2" points="16,-63.25 16,-98.5 518,-98.5 518,-63.25 16,-63.25"/>
</a>
</g>
</g>
<!-- dir_5c23080e296bbe846f4ed2d01d7b595d -->
<g id="node1" class="node">
<title>dir_5c23080e296bbe846f4ed2d01d7b595d</title>
<g id="a_node1"><a xlink:href="dir_5c23080e296bbe846f4ed2d01d7b595d.html" target="_top" xlink:title="include">
<polygon fill="#a2b4d6" stroke="red" points="283.38,-35.25 236.62,-35.25 236.62,-16 283.38,-16 283.38,-35.25"/>
<text xml:space="preserve" text-anchor="middle" x="260" y="-21.75" font-family="Helvetica,sans-Serif" font-size="10.00">include</text>
</a>
</g>
</g>
<!-- dir_b565d458ba0ce2faccd0ea2cd60c04eb -->
<g id="node2" class="node">
<title>dir_b565d458ba0ce2faccd0ea2cd60c04eb</title>
<text xml:space="preserve" text-anchor="middle" x="85" y="-77" font-family="Helvetica,sans-Serif" font-size="10.00">src</text>
</g>
<!-- dir_b565d458ba0ce2faccd0ea2cd60c04eb&#45;&gt;dir_5c23080e296bbe846f4ed2d01d7b595d -->
<g id="edge1" class="edge">
<title>dir_b565d458ba0ce2faccd0ea2cd60c04eb&#45;&gt;dir_5c23080e296bbe846f4ed2d01d7b595d</title>
<g id="a_edge1"><a xlink:href="dir_000030_000015.html" target="_top">
<path fill="none" stroke="#63b8ff" d="M95.25,-71.53C99.33,-68.56 104.19,-65.41 109,-63.25 146.86,-46.26 193.75,-36.46 225.14,-31.35"/>
<polygon fill="#63b8ff" stroke="#63b8ff" points="225.52,-34.83 234.87,-29.84 224.45,-27.91 225.52,-34.83"/>
</a>
</g>
<g id="a_edge1&#45;headlabel"><a xlink:href="dir_000030_000015.html" target="_top" xlink:title="38">
<text xml:space="preserve" text-anchor="middle" x="223.9" y="-34.08" font-family="Helvetica,sans-Serif" font-size="10.00" fill="#63b8ff">38</text>
</a>
</g>
</g>
<!-- dir_4ab4b2eaf701741e1076927b05aa2c94 -->
<g id="node3" class="node">
<title>dir_4ab4b2eaf701741e1076927b05aa2c94</title>
<g id="a_node3"><a xlink:href="dir_4ab4b2eaf701741e1076927b05aa2c94.html" target="_top" xlink:title="Core">
<polygon fill="#a2b4d6" stroke="#404040" points="310.5,-90.5 273.5,-90.5 273.5,-71.25 310.5,-71.25 310.5,-90.5"/>
<text xml:space="preserve" text-anchor="middle" x="292" y="-77" font-family="Helvetica,sans-Serif" font-size="10.00">Core</text>
</a>
</g>
</g>
<!-- dir_4ab4b2eaf701741e1076927b05aa2c94&#45;&gt;dir_5c23080e296bbe846f4ed2d01d7b595d -->
<g id="edge2" class="edge">
<title>dir_4ab4b2eaf701741e1076927b05aa2c94&#45;&gt;dir_5c23080e296bbe846f4ed2d01d7b595d</title>
<g id="a_edge2"><a xlink:href="dir_000007_000015.html" target="_top">
<path fill="none" stroke="#63b8ff" d="M286.72,-71.08C282.53,-64.11 276.52,-54.12 271.27,-45.37"/>
<polygon fill="#63b8ff" stroke="#63b8ff" points="274.33,-43.68 266.18,-36.91 268.33,-47.28 274.33,-43.68"/>
</a>
</g>
<g id="a_edge2&#45;headlabel"><a xlink:href="dir_000007_000015.html" target="_top" xlink:title="3">
<text xml:space="preserve" text-anchor="middle" x="277.84" y="-40.12" font-family="Helvetica,sans-Serif" font-size="10.00" fill="#63b8ff">3</text>
</a>
</g>
</g>
<!-- dir_bdd9a5d540de89e9fe90efdfc6973a4f -->
<g id="node10" class="node">
<title>dir_bdd9a5d540de89e9fe90efdfc6973a4f</title>
<g id="a_node10"><a xlink:href="dir_bdd9a5d540de89e9fe90efdfc6973a4f.html" target="_top" xlink:title="common">
<polygon fill="#edf0f7" stroke="red" points="587.75,-35.25 534.25,-35.25 534.25,-16 587.75,-16 587.75,-35.25"/>
<text xml:space="preserve" text-anchor="middle" x="561" y="-21.75" font-family="Helvetica,sans-Serif" font-size="10.00">common</text>
</a>
</g>
</g>
<!-- dir_4ab4b2eaf701741e1076927b05aa2c94&#45;&gt;dir_bdd9a5d540de89e9fe90efdfc6973a4f -->
<g id="edge3" class="edge">
<title>dir_4ab4b2eaf701741e1076927b05aa2c94&#45;&gt;dir_bdd9a5d540de89e9fe90efdfc6973a4f</title>
<g id="a_edge3"><a xlink:href="dir_000007_000003.html" target="_top">
<path fill="none" stroke="#63b8ff" d="M304.85,-70.77C309.44,-67.93 314.77,-65.07 320,-63.25 405.39,-33.6 435.35,-52.48 522.76,-36.55"/>
<polygon fill="#63b8ff" stroke="#63b8ff" points="523.37,-40 532.52,-34.66 522.03,-33.13 523.37,-40"/>
</a>
</g>
<g id="a_edge3&#45;headlabel"><a xlink:href="dir_000007_000003.html" target="_top" xlink:title="2">
<text xml:space="preserve" text-anchor="middle" x="521.86" y="-39.31" font-family="Helvetica,sans-Serif" font-size="10.00" fill="#63b8ff">2</text>
</a>
</g>
</g>
<!-- dir_66a2a8aed81a701891a72df6656f7045 -->
<g id="node4" class="node">
<title>dir_66a2a8aed81a701891a72df6656f7045</title>
<g id="a_node4"><a xlink:href="dir_66a2a8aed81a701891a72df6656f7045.html" target="_top" xlink:title="Game">
<polygon fill="#a2b4d6" stroke="#404040" points="371.12,-90.5 328.88,-90.5 328.88,-71.25 371.12,-71.25 371.12,-90.5"/>
<text xml:space="preserve" text-anchor="middle" x="350" y="-77" font-family="Helvetica,sans-Serif" font-size="10.00">Game</text>
</a>
</g>
</g>
<!-- dir_66a2a8aed81a701891a72df6656f7045&#45;&gt;dir_5c23080e296bbe846f4ed2d01d7b595d -->
<g id="edge4" class="edge">
<title>dir_66a2a8aed81a701891a72df6656f7045&#45;&gt;dir_5c23080e296bbe846f4ed2d01d7b595d</title>
<g id="a_edge4"><a xlink:href="dir_000012_000015.html" target="_top">
<path fill="none" stroke="#63b8ff" d="M334.73,-70.84C321.16,-62.81 301.05,-50.91 285.1,-41.48"/>
<polygon fill="#63b8ff" stroke="#63b8ff" points="287.03,-38.55 276.64,-36.47 283.47,-44.58 287.03,-38.55"/>
</a>
</g>
<g id="a_edge4&#45;headlabel"><a xlink:href="dir_000012_000015.html" target="_top" xlink:title="5">
<text xml:space="preserve" text-anchor="middle" x="290.27" y="-33.29" font-family="Helvetica,sans-Serif" font-size="10.00" fill="#63b8ff">5</text>
</a>
</g>
</g>
<!-- dir_66a2a8aed81a701891a72df6656f7045&#45;&gt;dir_bdd9a5d540de89e9fe90efdfc6973a4f -->
<g id="edge5" class="edge">
<title>dir_66a2a8aed81a701891a72df6656f7045&#45;&gt;dir_bdd9a5d540de89e9fe90efdfc6973a4f</title>
<g id="a_edge5"><a xlink:href="dir_000012_000003.html" target="_top">
<path fill="none" stroke="#63b8ff" d="M364.71,-70.8C369.73,-68.02 375.47,-65.2 381,-63.25 441.07,-42.07 462.07,-49.55 522.99,-36.73"/>
<polygon fill="#63b8ff" stroke="#63b8ff" points="523.5,-40.2 532.51,-34.62 521.99,-33.37 523.5,-40.2"/>
</a>
</g>
<g id="a_edge5&#45;headlabel"><a xlink:href="dir_000012_000003.html" target="_top" xlink:title="1">
<text xml:space="preserve" text-anchor="middle" x="522.09" y="-39.55" font-family="Helvetica,sans-Serif" font-size="10.00" fill="#63b8ff">1</text>
</a>
</g>
</g>
<!-- dir_4a42a7c726def1094163ffbff6eed57d -->
<g id="node5" class="node">
<title>dir_4a42a7c726def1094163ffbff6eed57d</title>
<g id="a_node5"><a xlink:href="dir_4a42a7c726def1094163ffbff6eed57d.html" target="_top" xlink:title="Network">
<polygon fill="#a2b4d6" stroke="#404040" points="442.38,-90.5 389.62,-90.5 389.62,-71.25 442.38,-71.25 442.38,-90.5"/>
<text xml:space="preserve" text-anchor="middle" x="416" y="-77" font-family="Helvetica,sans-Serif" font-size="10.00">Network</text>
</a>
</g>
</g>
<!-- dir_4a42a7c726def1094163ffbff6eed57d&#45;&gt;dir_5c23080e296bbe846f4ed2d01d7b595d -->
<g id="edge6" class="edge">
<title>dir_4a42a7c726def1094163ffbff6eed57d&#45;&gt;dir_5c23080e296bbe846f4ed2d01d7b595d</title>
<g id="a_edge6"><a xlink:href="dir_000021_000015.html" target="_top">
<path fill="none" stroke="#63b8ff" d="M397.52,-70.76C391.96,-68.17 385.79,-65.46 380,-63.25 351.71,-52.46 318.77,-42.59 294.56,-35.82"/>
<polygon fill="#63b8ff" stroke="#63b8ff" points="295.8,-32.53 285.23,-33.25 293.94,-39.28 295.8,-32.53"/>
</a>
</g>
<g id="a_edge6&#45;headlabel"><a xlink:href="dir_000021_000015.html" target="_top" xlink:title="1">
<text xml:space="preserve" text-anchor="middle" x="298.56" y="-26.47" font-family="Helvetica,sans-Serif" font-size="10.00" fill="#63b8ff">1</text>
</a>
</g>
</g>
<!-- dir_4a42a7c726def1094163ffbff6eed57d&#45;&gt;dir_bdd9a5d540de89e9fe90efdfc6973a4f -->
<g id="edge7" class="edge">
<title>dir_4a42a7c726def1094163ffbff6eed57d&#45;&gt;dir_bdd9a5d540de89e9fe90efdfc6973a4f</title>
<g id="a_edge7"><a xlink:href="dir_000021_000003.html" target="_top">
<path fill="none" stroke="#63b8ff" d="M434.52,-70.86C440.08,-68.27 446.24,-65.54 452,-63.25 475.27,-54 501.91,-45.02 523.03,-38.27"/>
<polygon fill="#63b8ff" stroke="#63b8ff" points="523.91,-41.66 532.39,-35.31 521.8,-34.99 523.91,-41.66"/>
</a>
</g>
<g id="a_edge7&#45;headlabel"><a xlink:href="dir_000021_000003.html" target="_top" xlink:title="1">
<text xml:space="preserve" text-anchor="middle" x="522.78" y="-41.12" font-family="Helvetica,sans-Serif" font-size="10.00" fill="#63b8ff">1</text>
</a>
</g>
</g>
<!-- dir_7803c26fdf0474c0b2da91209ba8e4a4 -->
<g id="node6" class="node">
<title>dir_7803c26fdf0474c0b2da91209ba8e4a4</title>
<g id="a_node6"><a xlink:href="dir_7803c26fdf0474c0b2da91209ba8e4a4.html" target="_top" xlink:title="Scenes">
<polygon fill="#a2b4d6" stroke="#404040" points="509.5,-90.5 460.5,-90.5 460.5,-71.25 509.5,-71.25 509.5,-90.5"/>
<text xml:space="preserve" text-anchor="middle" x="485" y="-77" font-family="Helvetica,sans-Serif" font-size="10.00">Scenes</text>
</a>
</g>
</g>
<!-- dir_7803c26fdf0474c0b2da91209ba8e4a4&#45;&gt;dir_5c23080e296bbe846f4ed2d01d7b595d -->
<g id="edge8" class="edge">
<title>dir_7803c26fdf0474c0b2da91209ba8e4a4&#45;&gt;dir_5c23080e296bbe846f4ed2d01d7b595d</title>
<g id="a_edge8"><a xlink:href="dir_000026_000015.html" target="_top">
<path fill="none" stroke="#63b8ff" d="M468.77,-70.85C463.26,-68.08 456.98,-65.25 451,-63.25 398.03,-45.57 333.78,-35.45 294.94,-30.5"/>
<polygon fill="#63b8ff" stroke="#63b8ff" points="295.59,-27.05 285.24,-29.31 294.74,-34 295.59,-27.05"/>
</a>
</g>
<g id="a_edge8&#45;headlabel"><a xlink:href="dir_000026_000015.html" target="_top" xlink:title="16">
<text xml:space="preserve" text-anchor="middle" x="298" y="-20.61" font-family="Helvetica,sans-Serif" font-size="10.00" fill="#63b8ff">16</text>
</a>
</g>
</g>
<!-- dir_7803c26fdf0474c0b2da91209ba8e4a4&#45;&gt;dir_bdd9a5d540de89e9fe90efdfc6973a4f -->
<g id="edge9" class="edge">
<title>dir_7803c26fdf0474c0b2da91209ba8e4a4&#45;&gt;dir_bdd9a5d540de89e9fe90efdfc6973a4f</title>
<g id="a_edge9"><a xlink:href="dir_000026_000003.html" target="_top">
<path fill="none" stroke="#63b8ff" d="M497.89,-70.84C509.03,-63.04 525.37,-51.59 538.64,-42.29"/>
<polygon fill="#63b8ff" stroke="#63b8ff" points="540.62,-45.18 546.8,-36.57 536.61,-39.44 540.62,-45.18"/>
</a>
</g>
<g id="a_edge9&#45;headlabel"><a xlink:href="dir_000026_000003.html" target="_top" xlink:title="14">
<text xml:space="preserve" text-anchor="middle" x="540.55" y="-44.82" font-family="Helvetica,sans-Serif" font-size="10.00" fill="#63b8ff">14</text>
</a>
</g>
</g>
<!-- dir_21211c3e5828bf9c3bc89dd93b507e31 -->
<g id="node7" class="node">
<title>dir_21211c3e5828bf9c3bc89dd93b507e31</title>
<g id="a_node7"><a xlink:href="dir_21211c3e5828bf9c3bc89dd93b507e31.html" target="_top" xlink:title="Systems">
<polygon fill="#a2b4d6" stroke="#404040" points="255.5,-90.5 200.5,-90.5 200.5,-71.25 255.5,-71.25 255.5,-90.5"/>
<text xml:space="preserve" text-anchor="middle" x="228" y="-77" font-family="Helvetica,sans-Serif" font-size="10.00">Systems</text>
</a>
</g>
</g>
<!-- dir_21211c3e5828bf9c3bc89dd93b507e31&#45;&gt;dir_5c23080e296bbe846f4ed2d01d7b595d -->
<g id="edge10" class="edge">
<title>dir_21211c3e5828bf9c3bc89dd93b507e31&#45;&gt;dir_5c23080e296bbe846f4ed2d01d7b595d</title>
<g id="a_edge10"><a xlink:href="dir_000036_000015.html" target="_top">
<path fill="none" stroke="#63b8ff" d="M233.28,-71.08C237.47,-64.11 243.48,-54.12 248.73,-45.37"/>
<polygon fill="#63b8ff" stroke="#63b8ff" points="251.67,-47.28 253.82,-36.91 245.67,-43.68 251.67,-47.28"/>
</a>
</g>
<g id="a_edge10&#45;headlabel"><a xlink:href="dir_000036_000015.html" target="_top" xlink:title="10">
<text xml:space="preserve" text-anchor="middle" x="253.03" y="-46.65" font-family="Helvetica,sans-Serif" font-size="10.00" fill="#63b8ff">10</text>
</a>
</g>
</g>
<!-- dir_21211c3e5828bf9c3bc89dd93b507e31&#45;&gt;dir_bdd9a5d540de89e9fe90efdfc6973a4f -->
<g id="edge11" class="edge">
<title>dir_21211c3e5828bf9c3bc89dd93b507e31&#45;&gt;dir_bdd9a5d540de89e9fe90efdfc6973a4f</title>
<g id="a_edge11"><a xlink:href="dir_000036_000003.html" target="_top">
<path fill="none" stroke="#63b8ff" d="M244.9,-70.92C251.07,-68.02 258.2,-65.09 265,-63.25 375.76,-33.34 411.44,-55.91 522.98,-36.44"/>
<polygon fill="#63b8ff" stroke="#63b8ff" points="523.32,-39.93 532.52,-34.69 522.06,-33.05 523.32,-39.93"/>
</a>
</g>
<g id="a_edge11&#45;headlabel"><a xlink:href="dir_000036_000003.html" target="_top" xlink:title="27">
<text xml:space="preserve" text-anchor="middle" x="521.78" y="-39.23" font-family="Helvetica,sans-Serif" font-size="10.00" fill="#63b8ff">27</text>
</a>
</g>
</g>
<!-- dir_b6a6593b990924f9ad8d858108757268 -->
<g id="node8" class="node">
<title>dir_b6a6593b990924f9ad8d858108757268</title>
<g id="a_node8"><a xlink:href="dir_b6a6593b990924f9ad8d858108757268.html" target="_top" xlink:title="Translation">
<polygon fill="#a2b4d6" stroke="#404040" points="182,-90.5 118,-90.5 118,-71.25 182,-71.25 182,-90.5"/>
<text xml:space="preserve" text-anchor="middle" x="150" y="-77" font-family="Helvetica,sans-Serif" font-size="10.00">Translation</text>
</a>
</g>
</g>
<!-- dir_b6a6593b990924f9ad8d858108757268&#45;&gt;dir_5c23080e296bbe846f4ed2d01d7b595d -->
<g id="edge12" class="edge">
<title>dir_b6a6593b990924f9ad8d858108757268&#45;&gt;dir_5c23080e296bbe846f4ed2d01d7b595d</title>
<g id="a_edge12"><a xlink:href="dir_000042_000015.html" target="_top">
<path fill="none" stroke="#63b8ff" d="M168.66,-70.84C185.73,-62.58 211.24,-50.23 230.97,-40.68"/>
<polygon fill="#63b8ff" stroke="#63b8ff" points="232.41,-43.87 239.89,-36.36 229.36,-37.57 232.41,-43.87"/>
</a>
</g>
<g id="a_edge12&#45;headlabel"><a xlink:href="dir_000042_000015.html" target="_top" xlink:title="1">
<text xml:space="preserve" text-anchor="middle" x="231.77" y="-43.46" font-family="Helvetica,sans-Serif" font-size="10.00" fill="#63b8ff">1</text>
</a>
</g>
</g>
<!-- dir_40eb50d626190257733b1d130c304be8 -->
<g id="node9" class="node">
<title>dir_40eb50d626190257733b1d130c304be8</title>
<g id="a_node9"><a xlink:href="dir_40eb50d626190257733b1d130c304be8.html" target="_top" xlink:title="UI">
<polygon fill="#a2b4d6" stroke="#404040" points="52.4,-90.5 23.6,-90.5 23.6,-71.25 52.4,-71.25 52.4,-90.5"/>
<text xml:space="preserve" text-anchor="middle" x="38" y="-77" font-family="Helvetica,sans-Serif" font-size="10.00">UI</text>
</a>
</g>
</g>
<!-- dir_40eb50d626190257733b1d130c304be8&#45;&gt;dir_5c23080e296bbe846f4ed2d01d7b595d -->
<g id="edge13" class="edge">
<title>dir_40eb50d626190257733b1d130c304be8&#45;&gt;dir_5c23080e296bbe846f4ed2d01d7b595d</title>
<g id="a_edge13"><a xlink:href="dir_000044_000015.html" target="_top">
<path fill="none" stroke="#63b8ff" d="M48.17,-71.04C51.97,-68.15 56.47,-65.19 61,-63.25 115.39,-40 184.32,-31.49 225.14,-28.39"/>
<polygon fill="#63b8ff" stroke="#63b8ff" points="225.11,-31.9 234.85,-27.72 224.63,-24.92 225.11,-31.9"/>
</a>
</g>
<g id="a_edge13&#45;headlabel"><a xlink:href="dir_000044_000015.html" target="_top" xlink:title="1">
<text xml:space="preserve" text-anchor="middle" x="223.23" y="-31" font-family="Helvetica,sans-Serif" font-size="10.00" fill="#63b8ff">1</text>
</a>
</g>
</g>
</g>
</svg>

<g id="navigator" transform="translate(0 0)" fill="#404254">
  <rect fill="#f2f5e9" fill-opacity="0.5" stroke="#606060" stroke-width=".5" x="0" y="0" width="60" height="60"/>
  <use id="zoomplus" xlink:href="#zoomPlus" x="17" y="9" onmousedown="handleZoom(evt,'in')"/>
  <use id="zoomminus" xlink:href="#zoomMin" x="42" y="9" onmousedown="handleZoom(evt,'out')"/>
  <use id="reset" xlink:href="#resetDef" x="30" y="36" onmousedown="handleReset()"/>
   <use id="arrowup" xlink:href="#arrowUp" x="0" y="0" onmousedown="handlePan(0,-1)"/>
  <use id="arrowright" xlink:href="#arrowRight" x="0" y="0" onmousedown="handlePan(1,0)"/>
  <use id="arrowdown" xlink:href="#arrowDown" x="0" y="0" onmousedown="handlePan(0,1)"/>
  <use id="arrowleft" xlink:href="#arrowLeft" x="0" y="0" onmousedown="handlePan(-1,0)"/>
</g>
<svg viewBox="0 0 15 15" width="100%" height="30px" preserveAspectRatio="xMaxYMin meet">
 <g id="arrow_out" transform="scale(0.3 0.3)">
  <a xlink:href="dir_b565d458ba0ce2faccd0ea2cd60c04eb_dep_org.svg" target="_base">
   <rect id="button" ry="5" rx="5" y="6" x="6" height="38" width="38"
        fill="#f2f5e9" fill-opacity="0.5" stroke="#606060" stroke-width="1.0"/>
   <path id="arrow"
     d="M 11.500037,31.436501 C 11.940474,20.09759 22.043105,11.32322 32.158766,21.979434 L 37.068811,17.246167 C 37.068811,17.246167 37.088388,32 37.088388,32 L 22.160133,31.978069 C 22.160133,31.978069 26.997745,27.140456 26.997745,27.140456 C 18.528582,18.264221 13.291696,25.230495 11.500037,31.436501 z"
     style="fill:#404040;"/>
  </a>
 </g>
</svg>

<style type='text/css'>
<![CDATA[
[data-mouse-over-selected='false'] { opacity: 0.7; }
[data-mouse-over-selected='true']  { opacity: 1.0; }
]]>
</style>
<script type="application/ecmascript"><![CDATA[
document.addEventListener('DOMContentLoaded', (event) => {
  highlightEdges();
  highlightAdjacentNodes();
});
]]></script>
</svg>
