<?xml version="1.0" encoding="UTF-8" standalone="no"?>
<!DOCTYPE svg PUBLIC "-//W3C//DTD SVG 1.1//EN"
 "http://www.w3.org/Graphics/SVG/1.1/DTD/svg11.dtd">
<!-- Generated by graphviz version 14.0.5 (20251129.0259)
 -->
<!-- Title: client/include Pages: 1 -->
<svg width="421pt" height="292pt"
 viewBox="0.00 0.00 421.00 292.00" xmlns="http://www.w3.org/2000/svg" xmlns:xlink="http://www.w3.org/1999/xlink">
<g id="graph0" class="graph" transform="scale(1 1) rotate(0) translate(4 287.5)">
<title>client/include</title>
<g id="clust1" class="cluster">
<title>clusterdir_db3a54907829b36871118d03417739cd</title>
<g id="a_clust1"><a xlink:href="dir_db3a54907829b36871118d03417739cd.html" target="_top" xlink:title="client">
<polygon fill="#edf0f7" stroke="#404040" stroke-dasharray="5,2" points="8,-39.25 8,-275.5 396,-275.5 396,-39.25 8,-39.25"/>
<text xml:space="preserve" text-anchor="middle" x="202" y="-262" font-family="Helvetica,sans-Serif" font-size="10.00">client</text>
</a>
</g>
</g>
<g id="clust2" class="cluster">
<title>clusterdir_5c23080e296bbe846f4ed2d01d7b595d</title>
<g id="a_clust2"><a xlink:href="dir_5c23080e296bbe846f4ed2d01d7b595d.html" target="_top">
<polygon fill="#edf0f7" stroke="#404040" stroke-width="2" points="16,-47.25 16,-248.25 388,-248.25 388,-47.25 16,-47.25"/>
</a>
</g>
</g>
<!-- dir_5c23080e296bbe846f4ed2d01d7b595d -->
<g id="node1" class="node">
<title>dir_5c23080e296bbe846f4ed2d01d7b595d</title>
<text xml:space="preserve" text-anchor="middle" x="62" y="-226.75" font-family="Helvetica,sans-Serif" font-size="10.00">include</text>
</g>
<!-- dir_cd8c60f4e7137cd2c49e2e4fff9a675c -->
<g id="node2" class="node">
<title>dir_cd8c60f4e7137cd2c49e2e4fff9a675c</title>
<g id="a_node2"><a xlink:href="dir_cd8c60f4e7137cd2c49e2e4fff9a675c.html" target="_top" xlink:title="Audio">
<polygon fill="#a2b4d6" stroke="#404040" points="162.38,-240.25 121.62,-240.25 121.62,-221 162.38,-221 162.38,-240.25"/>
<text xml:space="preserve" text-anchor="middle" x="142" y="-226.75" font-family="Helvetica,sans-Serif" font-size="10.00">Audio</text>
</a>
</g>
</g>
<!-- dir_0ae39324004630113b55ec7b92cb1e77 -->
<g id="node3" class="node">
<title>dir_0ae39324004630113b55ec7b92cb1e77</title>
<g id="a_node3"><a xlink:href="dir_0ae39324004630113b55ec7b92cb1e77.html" target="_top" xlink:title="Core">
<polygon fill="#a2b4d6" stroke="#404040" points="226.5,-240.25 189.5,-240.25 189.5,-221 226.5,-221 226.5,-240.25"/>
<text xml:space="preserve" text-anchor="middle" x="208" y="-226.75" font-family="Helvetica,sans-Serif" font-size="10.00">Core</text>
</a>
</g>
</g>
<!-- dir_cfe2b9ea177a108ecd0716f569ff03d9 -->
<g id="node4" class="node">
<title>dir_cfe2b9ea177a108ecd0716f569ff03d9</title>
<g id="a_node4"><a xlink:href="dir_cfe2b9ea177a108ecd0716f569ff03d9.html" target="_top" xlink:title="Game">
<polygon fill="#a2b4d6" stroke="#404040" points="77.12,-74.5 34.88,-74.5 34.88,-55.25 77.12,-55.25 77.12,-74.5"/>
<text xml:space="preserve" text-anchor="middle" x="56" y="-61" font-family="Helvetica,sans-Serif" font-size="10.00">Game</text>
</a>
</g>
</g>
<!-- dir_0ae39324004630113b55ec7b92cb1e77&#45;&gt;dir_cfe2b9ea177a108ecd0716f569ff03d9 -->
<g id="edge7" class="edge">
<title>dir_0ae39324004630113b55ec7b92cb1e77&#45;&gt;dir_cfe2b9ea177a108ecd0716f569ff03d9</title>
<g id="a_edge7"><a xlink:href="dir_000006_000011.html" target="_top">
<path fill="none" stroke="#63b8ff" d="M189.13,-224.64C158.28,-216.22 98.78,-198.75 82,-185 59.87,-166.87 56.61,-157.32 49,-129.75 45,-115.24 47.16,-98.29 50.1,-85.5"/>
<polygon fill="#63b8ff" stroke="#63b8ff" points="53.38,-86.75 52.58,-76.18 46.62,-84.94 53.38,-86.75"/>
</a>
</g>
<g id="a_edge7&#45;headlabel"><a xlink:href="dir_000006_000011.html" target="_top" xlink:title="2">
<text xml:space="preserve" text-anchor="middle" x="55.59" y="-85.62" font-family="Helvetica,sans-Serif" font-size="10.00" fill="#63b8ff">2</text>
</a>
</g>
</g>
<!-- dir_dc9bae6eec1e5091e8742e17e225fa81 -->
<g id="node5" class="node">
<title>dir_dc9bae6eec1e5091e8742e17e225fa81</title>
<g id="a_node5"><a xlink:href="dir_dc9bae6eec1e5091e8742e17e225fa81.html" target="_top" xlink:title="Interfaces">
<polygon fill="#a2b4d6" stroke="#404040" points="196.75,-129.75 137.25,-129.75 137.25,-110.5 196.75,-110.5 196.75,-129.75"/>
<text xml:space="preserve" text-anchor="middle" x="167" y="-116.25" font-family="Helvetica,sans-Serif" font-size="10.00">Interfaces</text>
</a>
</g>
</g>
<!-- dir_0ae39324004630113b55ec7b92cb1e77&#45;&gt;dir_dc9bae6eec1e5091e8742e17e225fa81 -->
<g id="edge8" class="edge">
<title>dir_0ae39324004630113b55ec7b92cb1e77&#45;&gt;dir_dc9bae6eec1e5091e8742e17e225fa81</title>
<g id="a_edge8"><a xlink:href="dir_000006_000018.html" target="_top">
<path fill="none" stroke="#63b8ff" d="M204.64,-220.75C198.07,-203.34 183.34,-164.37 174.38,-140.66"/>
<polygon fill="#63b8ff" stroke="#63b8ff" points="177.75,-139.66 170.94,-131.54 171.2,-142.13 177.75,-139.66"/>
</a>
</g>
<g id="a_edge8&#45;headlabel"><a xlink:href="dir_000006_000018.html" target="_top" xlink:title="1">
<text xml:space="preserve" text-anchor="middle" x="181.14" y="-136.73" font-family="Helvetica,sans-Serif" font-size="10.00" fill="#63b8ff">1</text>
</a>
</g>
</g>
<!-- dir_ea5bc73e261553f9b5286910b820e2ae -->
<g id="node6" class="node">
<title>dir_ea5bc73e261553f9b5286910b820e2ae</title>
<g id="a_node6"><a xlink:href="dir_ea5bc73e261553f9b5286910b820e2ae.html" target="_top" xlink:title="Network">
<polygon fill="#a2b4d6" stroke="#404040" points="148.38,-74.5 95.62,-74.5 95.62,-55.25 148.38,-55.25 148.38,-74.5"/>
<text xml:space="preserve" text-anchor="middle" x="122" y="-61" font-family="Helvetica,sans-Serif" font-size="10.00">Network</text>
</a>
</g>
</g>
<!-- dir_0ae39324004630113b55ec7b92cb1e77&#45;&gt;dir_ea5bc73e261553f9b5286910b820e2ae -->
<g id="edge9" class="edge">
<title>dir_0ae39324004630113b55ec7b92cb1e77&#45;&gt;dir_ea5bc73e261553f9b5286910b820e2ae</title>
<g id="a_edge9"><a xlink:href="dir_000006_000020.html" target="_top">
<path fill="none" stroke="#63b8ff" d="M189.09,-223.86C155.07,-212.34 84.48,-182.91 56,-129.75 45.08,-109.36 67.72,-91.58 89.39,-79.98"/>
<polygon fill="#63b8ff" stroke="#63b8ff" points="90.74,-83.22 98.13,-75.63 87.62,-76.96 90.74,-83.22"/>
</a>
</g>
<g id="a_edge9&#45;headlabel"><a xlink:href="dir_000006_000020.html" target="_top" xlink:title="1">
<text xml:space="preserve" text-anchor="middle" x="90.14" y="-82.82" font-family="Helvetica,sans-Serif" font-size="10.00" fill="#63b8ff">1</text>
</a>
</g>
</g>
<!-- dir_4b04bb409fb83091b64c195247e453ff -->
<g id="node7" class="node">
<title>dir_4b04bb409fb83091b64c195247e453ff</title>
<g id="a_node7"><a xlink:href="dir_4b04bb409fb83091b64c195247e453ff.html" target="_top" xlink:title="Scenes">
<polygon fill="#a2b4d6" stroke="#404040" points="276.5,-185 227.5,-185 227.5,-165.75 276.5,-165.75 276.5,-185"/>
<text xml:space="preserve" text-anchor="middle" x="252" y="-171.5" font-family="Helvetica,sans-Serif" font-size="10.00">Scenes</text>
</a>
</g>
</g>
<!-- dir_0ae39324004630113b55ec7b92cb1e77&#45;&gt;dir_4b04bb409fb83091b64c195247e453ff -->
<g id="edge1" class="edge">
<title>dir_0ae39324004630113b55ec7b92cb1e77&#45;&gt;dir_4b04bb409fb83091b64c195247e453ff</title>
<g id="a_edge1"><a xlink:href="dir_000006_000025.html" target="_top">
<path fill="none" stroke="#63b8ff" d="M210.1,-220.83C214.65,-213.4 223.23,-202.54 231.58,-193.41"/>
<polygon fill="#63b8ff" stroke="#63b8ff" points="233.88,-196.07 238.32,-186.45 228.85,-191.2 233.88,-196.07"/>
</a>
</g>
<g id="a_edge1&#45;headlabel"><a xlink:href="dir_000006_000025.html" target="_top" xlink:title="12">
<text xml:space="preserve" text-anchor="middle" x="234.47" y="-195.66" font-family="Helvetica,sans-Serif" font-size="10.00" fill="#63b8ff">12</text>
</a>
</g>
</g>
<!-- dir_69ccc44cdbd99500fcb01da6b7510184 -->
<g id="node8" class="node">
<title>dir_69ccc44cdbd99500fcb01da6b7510184</title>
<g id="a_node8"><a xlink:href="dir_69ccc44cdbd99500fcb01da6b7510184.html" target="_top" xlink:title="Systems">
<polygon fill="#a2b4d6" stroke="#404040" points="119.5,-129.75 64.5,-129.75 64.5,-110.5 119.5,-110.5 119.5,-129.75"/>
<text xml:space="preserve" text-anchor="middle" x="92" y="-116.25" font-family="Helvetica,sans-Serif" font-size="10.00">Systems</text>
</a>
</g>
</g>
<!-- dir_0ae39324004630113b55ec7b92cb1e77&#45;&gt;dir_69ccc44cdbd99500fcb01da6b7510184 -->
<g id="edge3" class="edge">
<title>dir_0ae39324004630113b55ec7b92cb1e77&#45;&gt;dir_69ccc44cdbd99500fcb01da6b7510184</title>
<g id="a_edge3"><a xlink:href="dir_000006_000035.html" target="_top">
<path fill="none" stroke="#63b8ff" d="M194.6,-220.75C172.06,-202.78 127.91,-161.86 105.41,-138.44"/>
<polygon fill="#63b8ff" stroke="#63b8ff" points="108.09,-136.18 98.72,-131.24 102.96,-140.95 108.09,-136.18"/>
</a>
</g>
<g id="a_edge3&#45;headlabel"><a xlink:href="dir_000006_000035.html" target="_top" xlink:title="9">
<text xml:space="preserve" text-anchor="middle" x="111.59" y="-131.9" font-family="Helvetica,sans-Serif" font-size="10.00" fill="#63b8ff">9</text>
</a>
</g>
</g>
<!-- dir_ab9fb8acd241fdbf653a052810cecbc6 -->
<g id="node9" class="node">
<title>dir_ab9fb8acd241fdbf653a052810cecbc6</title>
<g id="a_node9"><a xlink:href="dir_ab9fb8acd241fdbf653a052810cecbc6.html" target="_top" xlink:title="Translation">
<polygon fill="#a2b4d6" stroke="#404040" points="279,-129.75 215,-129.75 215,-110.5 279,-110.5 279,-129.75"/>
<text xml:space="preserve" text-anchor="middle" x="247" y="-116.25" font-family="Helvetica,sans-Serif" font-size="10.00">Translation</text>
</a>
</g>
</g>
<!-- dir_0ae39324004630113b55ec7b92cb1e77&#45;&gt;dir_ab9fb8acd241fdbf653a052810cecbc6 -->
<g id="edge5" class="edge">
<title>dir_0ae39324004630113b55ec7b92cb1e77&#45;&gt;dir_ab9fb8acd241fdbf653a052810cecbc6</title>
<g id="a_edge5"><a xlink:href="dir_000006_000041.html" target="_top">
<path fill="none" stroke="#63b8ff" d="M202.47,-220.66C200.32,-208.03 202.84,-184.46 210,-165.75 213.63,-156.28 219.36,-146.64 225.44,-138.75"/>
<polygon fill="#63b8ff" stroke="#63b8ff" points="228.01,-141.13 231.9,-131.28 222.71,-136.55 228.01,-141.13"/>
</a>
</g>
<g id="a_edge5&#45;headlabel"><a xlink:href="dir_000006_000041.html" target="_top" xlink:title="1">
<text xml:space="preserve" text-anchor="middle" x="228.79" y="-140.69" font-family="Helvetica,sans-Serif" font-size="10.00" fill="#63b8ff">1</text>
</a>
</g>
</g>
<!-- dir_71bd709a05a3f43d1ab73ede623ec6d3 -->
<g id="node10" class="node">
<title>dir_71bd709a05a3f43d1ab73ede623ec6d3</title>
<g id="a_node10"><a xlink:href="dir_71bd709a05a3f43d1ab73ede623ec6d3.html" target="_top" xlink:title="UI">
<polygon fill="#a2b4d6" stroke="#404040" points="325.4,-129.75 296.6,-129.75 296.6,-110.5 325.4,-110.5 325.4,-129.75"/>
<text xml:space="preserve" text-anchor="middle" x="311" y="-116.25" font-family="Helvetica,sans-Serif" font-size="10.00">UI</text>
</a>
</g>
</g>
<!-- dir_0ae39324004630113b55ec7b92cb1e77&#45;&gt;dir_71bd709a05a3f43d1ab73ede623ec6d3 -->
<g id="edge4" class="edge">
<title>dir_0ae39324004630113b55ec7b92cb1e77&#45;&gt;dir_71bd709a05a3f43d1ab73ede623ec6d3</title>
<g id="a_edge4"><a xlink:href="dir_000006_000043.html" target="_top">
<path fill="none" stroke="#63b8ff" d="M226.79,-223.08C244.28,-216.12 270,-203.54 286,-185 296.84,-172.44 303.29,-154.63 306.91,-141"/>
<polygon fill="#63b8ff" stroke="#63b8ff" points="310.29,-141.95 309.15,-131.41 303.47,-140.36 310.29,-141.95"/>
</a>
</g>
<g id="a_edge4&#45;headlabel"><a xlink:href="dir_000006_000043.html" target="_top" xlink:title="1">
<text xml:space="preserve" text-anchor="middle" x="312.58" y="-140.74" font-family="Helvetica,sans-Serif" font-size="10.00" fill="#63b8ff">1</text>
</a>
</g>
</g>
<!-- dir_4d1be4222857c78a884b513c6db75374 -->
<g id="node11" class="node">
<title>dir_4d1be4222857c78a884b513c6db75374</title>
<g id="a_node11"><a xlink:href="dir_4d1be4222857c78a884b513c6db75374.html" target="_top" xlink:title="Utils">
<polygon fill="#a2b4d6" stroke="#404040" points="380.12,-129.75 343.88,-129.75 343.88,-110.5 380.12,-110.5 380.12,-129.75"/>
<text xml:space="preserve" text-anchor="middle" x="362" y="-116.25" font-family="Helvetica,sans-Serif" font-size="10.00">Utils</text>
</a>
</g>
</g>
<!-- dir_0ae39324004630113b55ec7b92cb1e77&#45;&gt;dir_4d1be4222857c78a884b513c6db75374 -->
<g id="edge2" class="edge">
<title>dir_0ae39324004630113b55ec7b92cb1e77&#45;&gt;dir_4d1be4222857c78a884b513c6db75374</title>
<g id="a_edge2"><a xlink:href="dir_000006_000046.html" target="_top">
<path fill="none" stroke="#63b8ff" d="M226.67,-222.29C245.36,-214.5 274.5,-201.09 297,-185 316.03,-171.39 334.76,-152.19 347.19,-138.4"/>
<polygon fill="#63b8ff" stroke="#63b8ff" points="349.74,-140.81 353.72,-130.99 344.48,-136.18 349.74,-140.81"/>
</a>
</g>
<g id="a_edge2&#45;headlabel"><a xlink:href="dir_000006_000046.html" target="_top" xlink:title="3">
<text xml:space="preserve" text-anchor="middle" x="350.49" y="-140.37" font-family="Helvetica,sans-Serif" font-size="10.00" fill="#63b8ff">3</text>
</a>
</g>
</g>
<!-- dir_bdd9a5d540de89e9fe90efdfc6973a4f -->
<g id="node12" class="node">
<title>dir_bdd9a5d540de89e9fe90efdfc6973a4f</title>
<g id="a_node12"><a xlink:href="dir_bdd9a5d540de89e9fe90efdfc6973a4f.html" target="_top" xlink:title="common">
<polygon fill="#edf0f7" stroke="red" points="273.75,-19.25 220.25,-19.25 220.25,0 273.75,0 273.75,-19.25"/>
<text xml:space="preserve" text-anchor="middle" x="247" y="-5.75" font-family="Helvetica,sans-Serif" font-size="10.00">common</text>
</a>
</g>
</g>
<!-- dir_0ae39324004630113b55ec7b92cb1e77&#45;&gt;dir_bdd9a5d540de89e9fe90efdfc6973a4f -->
<g id="edge6" class="edge">
<title>dir_0ae39324004630113b55ec7b92cb1e77&#45;&gt;dir_bdd9a5d540de89e9fe90efdfc6973a4f</title>
<g id="a_edge6"><a xlink:href="dir_000006_000003.html" target="_top">
<path fill="none" stroke="#63b8ff" d="M226.91,-227.02C268.81,-220.11 368.76,-196.94 407,-129.75 426.62,-95.28 388.93,-57 365,-39.25 341.9,-22.12 309.92,-15.12 285.08,-12.32"/>
<polygon fill="#63b8ff" stroke="#63b8ff" points="285.66,-8.86 275.38,-11.42 285.02,-15.83 285.66,-8.86"/>
</a>
</g>
<g id="a_edge6&#45;headlabel"><a xlink:href="dir_000006_000003.html" target="_top" xlink:title="19">
<text xml:space="preserve" text-anchor="middle" x="288" y="-2.35" font-family="Helvetica,sans-Serif" font-size="10.00" fill="#63b8ff">19</text>
</a>
</g>
</g>
<!-- dir_cfe2b9ea177a108ecd0716f569ff03d9&#45;&gt;dir_bdd9a5d540de89e9fe90efdfc6973a4f -->
<g id="edge10" class="edge">
<title>dir_cfe2b9ea177a108ecd0716f569ff03d9&#45;&gt;dir_bdd9a5d540de89e9fe90efdfc6973a4f</title>
<g id="a_edge10"><a xlink:href="dir_000011_000003.html" target="_top">
<path fill="none" stroke="#63b8ff" d="M64.95,-54.77C70.75,-49.41 78.73,-42.98 87,-39.25 126.11,-21.59 175.21,-14.81 208.64,-12.22"/>
<polygon fill="#63b8ff" stroke="#63b8ff" points="208.51,-15.73 218.25,-11.56 208.04,-8.75 208.51,-15.73"/>
</a>
</g>
<g id="a_edge10&#45;headlabel"><a xlink:href="dir_000011_000003.html" target="_top" xlink:title="10">
<text xml:space="preserve" text-anchor="middle" x="206.63" y="-14.83" font-family="Helvetica,sans-Serif" font-size="10.00" fill="#63b8ff">10</text>
</a>
</g>
</g>
<!-- dir_ea5bc73e261553f9b5286910b820e2ae&#45;&gt;dir_bdd9a5d540de89e9fe90efdfc6973a4f -->
<g id="edge11" class="edge">
<title>dir_ea5bc73e261553f9b5286910b820e2ae&#45;&gt;dir_bdd9a5d540de89e9fe90efdfc6973a4f</title>
<g id="a_edge11"><a xlink:href="dir_000020_000003.html" target="_top">
<path fill="none" stroke="#63b8ff" d="M143.2,-54.84C162.96,-46.43 192.67,-33.77 215.25,-24.15"/>
<polygon fill="#63b8ff" stroke="#63b8ff" points="216.47,-27.43 224.3,-20.3 213.73,-20.99 216.47,-27.43"/>
</a>
</g>
<g id="a_edge11&#45;headlabel"><a xlink:href="dir_000020_000003.html" target="_top" xlink:title="3">
<text xml:space="preserve" text-anchor="middle" x="215.67" y="-26.99" font-family="Helvetica,sans-Serif" font-size="10.00" fill="#63b8ff">3</text>
</a>
</g>
</g>
<!-- dir_4b04bb409fb83091b64c195247e453ff&#45;&gt;dir_0ae39324004630113b55ec7b92cb1e77 -->
<g id="edge12" class="edge">
<title>dir_4b04bb409fb83091b64c195247e453ff&#45;&gt;dir_0ae39324004630113b55ec7b92cb1e77</title>
<g id="a_edge12"><a xlink:href="dir_000025_000006.html" target="_top">
<path fill="none" stroke="#63b8ff" d="M249.78,-185.36C245.16,-192.85 236.55,-203.73 228.21,-212.82"/>
<polygon fill="#63b8ff" stroke="#63b8ff" points="225.94,-210.13 221.49,-219.75 230.96,-215.01 225.94,-210.13"/>
</a>
</g>
<g id="a_edge12&#45;headlabel"><a xlink:href="dir_000025_000006.html" target="_top" xlink:title="12">
<text xml:space="preserve" text-anchor="middle" x="225.35" y="-202.79" font-family="Helvetica,sans-Serif" font-size="10.00" fill="#63b8ff">12</text>
</a>
</g>
</g>
<!-- dir_4b04bb409fb83091b64c195247e453ff&#45;&gt;dir_dc9bae6eec1e5091e8742e17e225fa81 -->
<g id="edge18" class="edge">
<title>dir_4b04bb409fb83091b64c195247e453ff&#45;&gt;dir_dc9bae6eec1e5091e8742e17e225fa81</title>
<g id="a_edge18"><a xlink:href="dir_000025_000018.html" target="_top">
<path fill="none" stroke="#63b8ff" d="M237.58,-165.34C224.88,-157.39 206.13,-145.64 191.14,-136.25"/>
<polygon fill="#63b8ff" stroke="#63b8ff" points="193.1,-133.35 182.77,-131.01 189.39,-139.28 193.1,-133.35"/>
</a>
</g>
<g id="a_edge18&#45;headlabel"><a xlink:href="dir_000025_000018.html" target="_top" xlink:title="12">
<text xml:space="preserve" text-anchor="middle" x="196.38" y="-128.17" font-family="Helvetica,sans-Serif" font-size="10.00" fill="#63b8ff">12</text>
</a>
</g>
</g>
<!-- dir_4b04bb409fb83091b64c195247e453ff&#45;&gt;dir_69ccc44cdbd99500fcb01da6b7510184 -->
<g id="edge14" class="edge">
<title>dir_4b04bb409fb83091b64c195247e453ff&#45;&gt;dir_69ccc44cdbd99500fcb01da6b7510184</title>
<g id="a_edge14"><a xlink:href="dir_000025_000035.html" target="_top">
<path fill="none" stroke="#63b8ff" d="M227,-166.05C201.05,-157.42 160.13,-143.8 130.14,-133.82"/>
<polygon fill="#63b8ff" stroke="#63b8ff" points="131.26,-130.5 120.67,-130.67 129.05,-137.15 131.26,-130.5"/>
</a>
</g>
<g id="a_edge14&#45;headlabel"><a xlink:href="dir_000025_000035.html" target="_top" xlink:title="11">
<text xml:space="preserve" text-anchor="middle" x="134.13" y="-124.59" font-family="Helvetica,sans-Serif" font-size="10.00" fill="#63b8ff">11</text>
</a>
</g>
</g>
<!-- dir_4b04bb409fb83091b64c195247e453ff&#45;&gt;dir_ab9fb8acd241fdbf653a052810cecbc6 -->
<g id="edge16" class="edge">
<title>dir_4b04bb409fb83091b64c195247e453ff&#45;&gt;dir_ab9fb8acd241fdbf653a052810cecbc6</title>
<g id="a_edge16"><a xlink:href="dir_000025_000041.html" target="_top">
<path fill="none" stroke="#63b8ff" d="M251.17,-165.58C250.56,-158.99 249.68,-149.71 248.9,-141.32"/>
<polygon fill="#63b8ff" stroke="#63b8ff" points="252.4,-141.25 247.99,-131.62 245.44,-141.9 252.4,-141.25"/>
</a>
</g>
<g id="a_edge16&#45;headlabel"><a xlink:href="dir_000025_000041.html" target="_top" xlink:title="12">
<text xml:space="preserve" text-anchor="middle" x="255.43" y="-139.18" font-family="Helvetica,sans-Serif" font-size="10.00" fill="#63b8ff">12</text>
</a>
</g>
</g>
<!-- dir_4b04bb409fb83091b64c195247e453ff&#45;&gt;dir_71bd709a05a3f43d1ab73ede623ec6d3 -->
<g id="edge15" class="edge">
<title>dir_4b04bb409fb83091b64c195247e453ff&#45;&gt;dir_71bd709a05a3f43d1ab73ede623ec6d3</title>
<g id="a_edge15"><a xlink:href="dir_000025_000043.html" target="_top">
<path fill="none" stroke="#63b8ff" d="M262.01,-165.34C270.37,-157.8 282.5,-146.85 292.6,-137.73"/>
<polygon fill="#63b8ff" stroke="#63b8ff" points="294.94,-140.34 300.02,-131.04 290.25,-135.14 294.94,-140.34"/>
</a>
</g>
<g id="a_edge15&#45;headlabel"><a xlink:href="dir_000025_000043.html" target="_top" xlink:title="12">
<text xml:space="preserve" text-anchor="middle" x="295.29" y="-139.96" font-family="Helvetica,sans-Serif" font-size="10.00" fill="#63b8ff">12</text>
</a>
</g>
</g>
<!-- dir_4b04bb409fb83091b64c195247e453ff&#45;&gt;dir_4d1be4222857c78a884b513c6db75374 -->
<g id="edge13" class="edge">
<title>dir_4b04bb409fb83091b64c195247e453ff&#45;&gt;dir_4d1be4222857c78a884b513c6db75374</title>
<g id="a_edge13"><a xlink:href="dir_000025_000046.html" target="_top">
<path fill="none" stroke="#63b8ff" d="M270.66,-165.34C287.83,-157.03 313.55,-144.58 333.33,-135"/>
<polygon fill="#63b8ff" stroke="#63b8ff" points="334.78,-138.19 342.25,-130.68 331.73,-131.89 334.78,-138.19"/>
</a>
</g>
<g id="a_edge13&#45;headlabel"><a xlink:href="dir_000025_000046.html" target="_top" xlink:title="13">
<text xml:space="preserve" text-anchor="middle" x="334.14" y="-137.78" font-family="Helvetica,sans-Serif" font-size="10.00" fill="#63b8ff">13</text>
</a>
</g>
</g>
<!-- dir_4b04bb409fb83091b64c195247e453ff&#45;&gt;dir_bdd9a5d540de89e9fe90efdfc6973a4f -->
<g id="edge17" class="edge">
<title>dir_4b04bb409fb83091b64c195247e453ff&#45;&gt;dir_bdd9a5d540de89e9fe90efdfc6973a4f</title>
<g id="a_edge17"><a xlink:href="dir_000025_000003.html" target="_top">
<path fill="none" stroke="#63b8ff" d="M276.74,-174.44C308.71,-173.02 363.28,-165.17 389,-129.75 423.33,-82.47 337.51,-42.33 284.72,-22.98"/>
<polygon fill="#63b8ff" stroke="#63b8ff" points="286.04,-19.74 275.44,-19.68 283.69,-26.33 286.04,-19.74"/>
</a>
</g>
<g id="a_edge17&#45;headlabel"><a xlink:href="dir_000025_000003.html" target="_top" xlink:title="12">
<text xml:space="preserve" text-anchor="middle" x="288.95" y="-13.88" font-family="Helvetica,sans-Serif" font-size="10.00" fill="#63b8ff">12</text>
</a>
</g>
</g>
<!-- dir_69ccc44cdbd99500fcb01da6b7510184&#45;&gt;dir_0ae39324004630113b55ec7b92cb1e77 -->
<g id="edge19" class="edge">
<title>dir_69ccc44cdbd99500fcb01da6b7510184&#45;&gt;dir_0ae39324004630113b55ec7b92cb1e77</title>
<g id="a_edge19"><a xlink:href="dir_000035_000006.html" target="_top">
<path fill="none" stroke="#63b8ff" d="M105.56,-130.13C128.19,-148.19 172.34,-189.13 194.75,-212.47"/>
<polygon fill="#63b8ff" stroke="#63b8ff" points="192.02,-214.68 201.39,-219.64 197.16,-209.92 192.02,-214.68"/>
</a>
</g>
<g id="a_edge19&#45;headlabel"><a xlink:href="dir_000035_000006.html" target="_top" xlink:title="2">
<text xml:space="preserve" text-anchor="middle" x="188.53" y="-211.21" font-family="Helvetica,sans-Serif" font-size="10.00" fill="#63b8ff">2</text>
</a>
</g>
</g>
<!-- dir_69ccc44cdbd99500fcb01da6b7510184&#45;&gt;dir_cfe2b9ea177a108ecd0716f569ff03d9 -->
<g id="edge21" class="edge">
<title>dir_69ccc44cdbd99500fcb01da6b7510184&#45;&gt;dir_cfe2b9ea177a108ecd0716f569ff03d9</title>
<g id="a_edge21"><a xlink:href="dir_000035_000011.html" target="_top">
<path fill="none" stroke="#63b8ff" d="M86.06,-110.33C81.29,-103.28 74.44,-93.15 68.48,-84.33"/>
<polygon fill="#63b8ff" stroke="#63b8ff" points="71.42,-82.44 62.92,-76.11 65.62,-86.36 71.42,-82.44"/>
</a>
</g>
<g id="a_edge21&#45;headlabel"><a xlink:href="dir_000035_000011.html" target="_top" xlink:title="1">
<text xml:space="preserve" text-anchor="middle" x="74.94" y="-78.7" font-family="Helvetica,sans-Serif" font-size="10.00" fill="#63b8ff">1</text>
</a>
</g>
</g>
<!-- dir_69ccc44cdbd99500fcb01da6b7510184&#45;&gt;dir_ea5bc73e261553f9b5286910b820e2ae -->
<g id="edge22" class="edge">
<title>dir_69ccc44cdbd99500fcb01da6b7510184&#45;&gt;dir_ea5bc73e261553f9b5286910b820e2ae</title>
<g id="a_edge22"><a xlink:href="dir_000035_000020.html" target="_top">
<path fill="none" stroke="#63b8ff" d="M96.95,-110.33C100.88,-103.36 106.51,-93.37 111.44,-84.62"/>
<polygon fill="#63b8ff" stroke="#63b8ff" points="114.34,-86.61 116.2,-76.18 108.24,-83.17 114.34,-86.61"/>
</a>
</g>
<g id="a_edge22&#45;headlabel"><a xlink:href="dir_000035_000020.html" target="_top" xlink:title="2">
<text xml:space="preserve" text-anchor="middle" x="115.79" y="-85.94" font-family="Helvetica,sans-Serif" font-size="10.00" fill="#63b8ff">2</text>
</a>
</g>
</g>
<!-- dir_69ccc44cdbd99500fcb01da6b7510184&#45;&gt;dir_bdd9a5d540de89e9fe90efdfc6973a4f -->
<g id="edge20" class="edge">
<title>dir_69ccc44cdbd99500fcb01da6b7510184&#45;&gt;dir_bdd9a5d540de89e9fe90efdfc6973a4f</title>
<g id="a_edge20"><a xlink:href="dir_000035_000003.html" target="_top">
<path fill="none" stroke="#63b8ff" d="M105.24,-110.13C118.4,-101.16 139.15,-86.96 157,-74.5 180.46,-58.12 207.18,-39.11 225.37,-26.12"/>
<polygon fill="#63b8ff" stroke="#63b8ff" points="227.19,-29.12 233.29,-20.45 223.12,-23.42 227.19,-29.12"/>
</a>
</g>
<g id="a_edge20&#45;headlabel"><a xlink:href="dir_000035_000003.html" target="_top" xlink:title="50">
<text xml:space="preserve" text-anchor="middle" x="227.15" y="-28.76" font-family="Helvetica,sans-Serif" font-size="10.00" fill="#63b8ff">50</text>
</a>
</g>
</g>
<!-- dir_ab9fb8acd241fdbf653a052810cecbc6&#45;&gt;dir_0ae39324004630113b55ec7b92cb1e77 -->
<g id="edge23" class="edge">
<title>dir_ab9fb8acd241fdbf653a052810cecbc6&#45;&gt;dir_0ae39324004630113b55ec7b92cb1e77</title>
<g id="a_edge23"><a xlink:href="dir_000041_000006.html" target="_top">
<path fill="none" stroke="#63b8ff" d="M246.82,-130.13C242.38,-138.77 233.1,-152.42 228,-165.75 222.58,-179.93 219.81,-196.9 217.1,-209.78"/>
<polygon fill="#63b8ff" stroke="#63b8ff" points="213.77,-208.64 214.78,-219.19 220.57,-210.31 213.77,-208.64"/>
</a>
</g>
<g id="a_edge23&#45;headlabel"><a xlink:href="dir_000041_000006.html" target="_top" xlink:title="1">
<text xml:space="preserve" text-anchor="middle" x="211.51" y="-202.07" font-family="Helvetica,sans-Serif" font-size="10.00" fill="#63b8ff">1</text>
</a>
</g>
</g>
<!-- dir_ab9fb8acd241fdbf653a052810cecbc6&#45;&gt;dir_bdd9a5d540de89e9fe90efdfc6973a4f -->
<g id="edge24" class="edge">
<title>dir_ab9fb8acd241fdbf653a052810cecbc6&#45;&gt;dir_bdd9a5d540de89e9fe90efdfc6973a4f</title>
<g id="a_edge24"><a xlink:href="dir_000041_000003.html" target="_top">
<path fill="none" stroke="#63b8ff" d="M247,-110.25C247,-93 247,-54.58 247,-30.81"/>
<polygon fill="#63b8ff" stroke="#63b8ff" points="250.5,-31.14 247,-21.14 243.5,-31.14 250.5,-31.14"/>
</a>
</g>
<g id="a_edge24&#45;headlabel"><a xlink:href="dir_000041_000003.html" target="_top" xlink:title="1">
<text xml:space="preserve" text-anchor="middle" x="253.34" y="-29.35" font-family="Helvetica,sans-Serif" font-size="10.00" fill="#63b8ff">1</text>
</a>
</g>
</g>
<!-- dir_71bd709a05a3f43d1ab73ede623ec6d3&#45;&gt;dir_bdd9a5d540de89e9fe90efdfc6973a4f -->
<g id="edge25" class="edge">
<title>dir_71bd709a05a3f43d1ab73ede623ec6d3&#45;&gt;dir_bdd9a5d540de89e9fe90efdfc6973a4f</title>
<g id="a_edge25"><a xlink:href="dir_000043_000003.html" target="_top">
<path fill="none" stroke="#63b8ff" d="M305.76,-110.25C295.4,-92.68 272.09,-53.16 258.14,-29.52"/>
<polygon fill="#63b8ff" stroke="#63b8ff" points="261.17,-27.77 253.08,-20.93 255.14,-31.32 261.17,-27.77"/>
</a>
</g>
<g id="a_edge25&#45;headlabel"><a xlink:href="dir_000043_000003.html" target="_top" xlink:title="7">
<text xml:space="preserve" text-anchor="middle" x="264.68" y="-24.24" font-family="Helvetica,sans-Serif" font-size="10.00" fill="#63b8ff">7</text>
</a>
</g>
</g>
</g>
</svg>
