<?xml version="1.0" encoding="UTF-8" standalone="no"?>
<!DOCTYPE svg PUBLIC "-//W3C//DTD SVG 1.1//EN"
 "http://www.w3.org/Graphics/SVG/1.1/DTD/svg11.dtd">
<!-- Generated by graphviz version 14.0.5 (20251129.0259)
 -->
<!-- Title: common/include/RType/ECS/Components/DoubleFire.hpp Pages: 1 -->
<svg width="384pt" height="227pt"
 viewBox="0.00 0.00 384.00 227.00" xmlns="http://www.w3.org/2000/svg" xmlns:xlink="http://www.w3.org/1999/xlink">

<svg id="main" version="1.1" xmlns="http://www.w3.org/2000/svg" xmlns:xlink="http://www.w3.org/1999/xlink" xml:space="preserve">

<style type="text/css"><![CDATA[
.node, .edge {opacity: 0.7;}
.node.selected, .edge.selected {opacity: 1;}
.edge:hover path { stroke: red; }
.edge:hover polygon { stroke: red; fill: red; }
]]></style>
<script type="application/ecmascript" xlink:href="svg.min.js"/>
<svg id="graph" class="graph">
<g id="graph0" class="graph" transform="scale(1 1) rotate(0) translate(4 222.75)">
<title>common/include/RType/ECS/Components/DoubleFire.hpp</title>
<!-- Node1 -->
<g id="Node000001" class="node">
<title>Node1</title>
<g id="a_Node000001"><a xlink:title=" ">
<polygon fill="#999999" stroke="#666666" points="264.25,-218.75 96.75,-218.75 96.75,-188.25 264.25,-188.25 264.25,-218.75"/>
<text xml:space="preserve" text-anchor="start" x="104.75" y="-205.25" font-family="Helvetica,sans-Serif" font-size="10.00">common/include/RType</text>
<text xml:space="preserve" text-anchor="middle" x="180.5" y="-194" font-family="Helvetica,sans-Serif" font-size="10.00">/ECS/Components/DoubleFire.hpp</text>
</a>
</g>
</g>
<!-- Node2 -->
<g id="Node000002" class="node">
<title>Node2</title>
<g id="a_Node000002"><a xlink:href="GameManager_8hpp.html" target="_top" xlink:title=" ">
<polygon fill="white" stroke="#666666" points="233.5,-85.75 127.5,-85.75 127.5,-55.25 233.5,-55.25 233.5,-85.75"/>
<text xml:space="preserve" text-anchor="start" x="135.5" y="-72.25" font-family="Helvetica,sans-Serif" font-size="10.00">server/include/Game</text>
<text xml:space="preserve" text-anchor="middle" x="180.5" y="-61" font-family="Helvetica,sans-Serif" font-size="10.00">/GameManager.hpp</text>
</a>
</g>
</g>
<!-- Node1&#45;&gt;Node2 -->
<g id="edge1_Node000001_Node000002" class="edge">
<title>Node1&#45;&gt;Node2</title>
<g id="a_edge1_Node000001_Node000002"><a xlink:title=" ">
<path fill="none" stroke="#63b8ff" d="M180.5,-176.68C180.5,-149.59 180.5,-107.96 180.5,-86.08"/>
<polygon fill="#63b8ff" stroke="#63b8ff" points="177,-176.47 180.5,-186.47 184,-176.47 177,-176.47"/>
</a>
</g>
</g>
<!-- Node5 -->
<g id="Node000005" class="node">
<title>Node5</title>
<g id="a_Node000005"><a xlink:href="CollisionSystem_8hpp.html" target="_top" xlink:title=" ">
<polygon fill="white" stroke="#666666" points="152.88,-152.25 34.12,-152.25 34.12,-121.75 152.88,-121.75 152.88,-152.25"/>
<text xml:space="preserve" text-anchor="start" x="42.12" y="-138.75" font-family="Helvetica,sans-Serif" font-size="10.00">server/include/Systems</text>
<text xml:space="preserve" text-anchor="middle" x="93.5" y="-127.5" font-family="Helvetica,sans-Serif" font-size="10.00">/CollisionSystem.hpp</text>
</a>
</g>
</g>
<!-- Node1&#45;&gt;Node5 -->
<g id="edge4_Node000001_Node000005" class="edge">
<title>Node1&#45;&gt;Node5</title>
<g id="a_edge4_Node000001_Node000005"><a xlink:title=" ">
<path fill="none" stroke="#63b8ff" d="M151.56,-181.04C138.95,-171.69 124.5,-160.98 113.16,-152.58"/>
<polygon fill="#63b8ff" stroke="#63b8ff" points="149.42,-183.82 159.54,-186.96 153.59,-178.2 149.42,-183.82"/>
</a>
</g>
</g>
<!-- Node7 -->
<g id="Node000007" class="node">
<title>Node7</title>
<g id="a_Node000007"><a xlink:href="PlayerShootSystem_8hpp.html" target="_top" xlink:title=" ">
<polygon fill="white" stroke="#666666" points="332.88,-152.25 208.12,-152.25 208.12,-121.75 332.88,-121.75 332.88,-152.25"/>
<text xml:space="preserve" text-anchor="start" x="216.12" y="-138.75" font-family="Helvetica,sans-Serif" font-size="10.00">server/include/Systems</text>
<text xml:space="preserve" text-anchor="middle" x="270.5" y="-127.5" font-family="Helvetica,sans-Serif" font-size="10.00">/PlayerShootSystem.hpp</text>
</a>
</g>
</g>
<!-- Node1&#45;&gt;Node7 -->
<g id="edge7_Node000001_Node000007" class="edge">
<title>Node1&#45;&gt;Node7</title>
<g id="a_edge7_Node000001_Node000007"><a xlink:title=" ">
<path fill="none" stroke="#63b8ff" d="M210.06,-181.32C223.19,-171.91 238.32,-161.06 250.16,-152.58"/>
<polygon fill="#63b8ff" stroke="#63b8ff" points="208.24,-178.31 202.15,-186.98 212.32,-184 208.24,-178.31"/>
</a>
</g>
</g>
<!-- Node3 -->
<g id="Node000003" class="node">
<title>Node3</title>
<g id="a_Node000003"><a xlink:href="GameManager_8cpp.html" target="_top" xlink:title=" ">
<polygon fill="white" stroke="#666666" points="189.25,-19.25 15.75,-19.25 15.75,0 189.25,0 189.25,-19.25"/>
<text xml:space="preserve" text-anchor="middle" x="102.5" y="-5.75" font-family="Helvetica,sans-Serif" font-size="10.00">server/src/Game/GameManager.cpp</text>
</a>
</g>
</g>
<!-- Node2&#45;&gt;Node3 -->
<g id="edge2_Node000002_Node000003" class="edge">
<title>Node2&#45;&gt;Node3</title>
<g id="a_edge2_Node000002_Node000003"><a xlink:title=" ">
<path fill="none" stroke="#63b8ff" d="M152.17,-48.12C139.21,-38.33 124.54,-27.26 114.52,-19.7"/>
<polygon fill="#63b8ff" stroke="#63b8ff" points="149.92,-50.8 160.01,-54.03 154.14,-45.22 149.92,-50.8"/>
</a>
</g>
</g>
<!-- Node4 -->
<g id="Node000004" class="node">
<title>Node4</title>
<g id="a_Node000004"><a xlink:href="server_2src_2main_8cpp.html" target="_top" xlink:title=" ">
<polygon fill="white" stroke="#666666" points="309.62,-19.25 207.38,-19.25 207.38,0 309.62,0 309.62,-19.25"/>
<text xml:space="preserve" text-anchor="middle" x="258.5" y="-5.75" font-family="Helvetica,sans-Serif" font-size="10.00">server/src/main.cpp</text>
</a>
</g>
</g>
<!-- Node2&#45;&gt;Node4 -->
<g id="edge3_Node000002_Node000004" class="edge">
<title>Node2&#45;&gt;Node4</title>
<g id="a_edge3_Node000002_Node000004"><a xlink:title=" ">
<path fill="none" stroke="#63b8ff" d="M208.83,-48.12C221.79,-38.33 236.46,-27.26 246.48,-19.7"/>
<polygon fill="#63b8ff" stroke="#63b8ff" points="206.86,-45.22 200.99,-54.03 211.08,-50.8 206.86,-45.22"/>
</a>
</g>
</g>
<!-- Node5&#45;&gt;Node2 -->
<g id="edge5_Node000005_Node000002" class="edge">
<title>Node5&#45;&gt;Node2</title>
<g id="a_edge5_Node000005_Node000002"><a xlink:title=" ">
<path fill="none" stroke="#63b8ff" d="M122.44,-114.54C135.05,-105.19 149.5,-94.48 160.84,-86.08"/>
<polygon fill="#63b8ff" stroke="#63b8ff" points="120.41,-111.7 114.46,-120.46 124.58,-117.32 120.41,-111.7"/>
</a>
</g>
</g>
<!-- Node6 -->
<g id="Node000006" class="node">
<title>Node6</title>
<g id="a_Node000006"><a xlink:href="CollisionSystem_8cpp.html" target="_top" xlink:title=" ">
<polygon fill="white" stroke="#666666" points="109,-85.75 0,-85.75 0,-55.25 109,-55.25 109,-85.75"/>
<text xml:space="preserve" text-anchor="start" x="8" y="-72.25" font-family="Helvetica,sans-Serif" font-size="10.00">server/src/Systems</text>
<text xml:space="preserve" text-anchor="middle" x="54.5" y="-61" font-family="Helvetica,sans-Serif" font-size="10.00">/CollisionSystem.cpp</text>
</a>
</g>
</g>
<!-- Node5&#45;&gt;Node6 -->
<g id="edge6_Node000005_Node000006" class="edge">
<title>Node5&#45;&gt;Node6</title>
<g id="a_edge6_Node000005_Node000006"><a xlink:title=" ">
<path fill="none" stroke="#63b8ff" d="M78.84,-111.76C73.62,-103.12 67.9,-93.66 63.31,-86.08"/>
<polygon fill="#63b8ff" stroke="#63b8ff" points="75.7,-113.32 83.87,-120.07 81.69,-109.7 75.7,-113.32"/>
</a>
</g>
</g>
<!-- Node7&#45;&gt;Node2 -->
<g id="edge8_Node000007_Node000002" class="edge">
<title>Node7&#45;&gt;Node2</title>
<g id="a_edge8_Node000007_Node000002"><a xlink:title=" ">
<path fill="none" stroke="#63b8ff" d="M240.94,-114.82C227.81,-105.41 212.68,-94.56 200.84,-86.08"/>
<polygon fill="#63b8ff" stroke="#63b8ff" points="238.68,-117.5 248.85,-120.48 242.76,-111.81 238.68,-117.5"/>
</a>
</g>
</g>
<!-- Node8 -->
<g id="Node000008" class="node">
<title>Node8</title>
<g id="a_Node000008"><a xlink:href="PlayerShootSystem_8cpp.html" target="_top" xlink:title=" ">
<polygon fill="white" stroke="#666666" points="375.88,-85.75 251.12,-85.75 251.12,-55.25 375.88,-55.25 375.88,-85.75"/>
<text xml:space="preserve" text-anchor="start" x="259.12" y="-72.25" font-family="Helvetica,sans-Serif" font-size="10.00">server/src/Systems</text>
<text xml:space="preserve" text-anchor="middle" x="313.5" y="-61" font-family="Helvetica,sans-Serif" font-size="10.00">/PlayerShootSystem.cpp</text>
</a>
</g>
</g>
<!-- Node7&#45;&gt;Node8 -->
<g id="edge9_Node000007_Node000008" class="edge">
<title>Node7&#45;&gt;Node8</title>
<g id="a_edge9_Node000007_Node000008"><a xlink:title=" ">
<path fill="none" stroke="#63b8ff" d="M286.47,-112.04C292.29,-103.32 298.67,-93.74 303.78,-86.08"/>
<polygon fill="#63b8ff" stroke="#63b8ff" points="283.73,-109.84 281.1,-120.1 289.56,-113.73 283.73,-109.84"/>
</a>
</g>
</g>
</g>
</svg>
</svg>

<style type='text/css'>
<![CDATA[
[data-mouse-over-selected='false'] { opacity: 0.7; }
[data-mouse-over-selected='true']  { opacity: 1.0; }
]]>
</style>
<script type="application/ecmascript"><![CDATA[
document.addEventListener('DOMContentLoaded', (event) => {
  highlightEdges();
  highlightAdjacentNodes();
});
]]></script>
</svg>
