<?xml version="1.0" encoding="UTF-8" standalone="no"?>
<!DOCTYPE svg PUBLIC "-//W3C//DTD SVG 1.1//EN"
 "http://www.w3.org/Graphics/SVG/1.1/DTD/svg11.dtd">
<!-- Generated by graphviz version 14.0.5 (20251129.0259)
 -->
<!-- Title: common/include/RType/ECS/Components/UI/Dropdown.hpp Pages: 1 -->
<!--zoomable 293 -->

<svg id="main" version="1.1" xmlns="http://www.w3.org/2000/svg" xmlns:xlink="http://www.w3.org/1999/xlink" xml:space="preserve" onload="init(evt)">

<style type="text/css"><![CDATA[
.node, .edge {opacity: 0.7;}
.node.selected, .edge.selected {opacity: 1;}
.edge:hover path { stroke: red; }
.edge:hover polygon { stroke: red; fill: red; }
]]></style>

<defs>
  <circle id="rim" cx="0" cy="0" r="7"/>
  <circle id="rim2" cx="0" cy="0" r="3.5"/>
  <g id="zoomPlus">
    <use xlink:href="#rim" fill="#404040"><set attributeName="fill" to="#808080" begin="zoomplus.mouseover" end="zoomplus.mouseout"/></use>
    <path d="M-4,0h8M0,-4v8" fill="none" stroke="white" stroke-width="1.5" pointer-events="none"/>
  </g>
  <g id="zoomMin">
    <use xlink:href="#rim" fill="#404040"><set attributeName="fill" to="#808080" begin="zoomminus.mouseover" end="zoomminus.mouseout"/></use>
    <path d="M-4,0h8" fill="none" stroke="white" stroke-width="1.5" pointer-events="none"/>
  </g>
  <g id="arrowUp" transform="translate(30 24)">
    <use xlink:href="#rim"/>
    <path pointer-events="none" fill="none" stroke="white" stroke-width="1.5" d="M0,-3.0v7 M-2.5,-0.5L0,-3.0L2.5,-0.5"/>
  </g>
  <g id="arrowRight" transform="rotate(90) translate(36 -43)">
    <use xlink:href="#rim"/>
    <path pointer-events="none" fill="none" stroke="white" stroke-width="1.5" d="M0,-3.0v7 M-2.5,-0.5L0,-3.0L2.5,-0.5"/>
  </g>
  <g id="arrowDown" transform="rotate(180) translate(-30 -48)">
    <use xlink:href="#rim"/>
    <path pointer-events="none" fill="none" stroke="white" stroke-width="1.5" d="M0,-3.0v7 M-2.5,-0.5L0,-3.0L2.5,-0.5"/>
  </g>
  <g id="arrowLeft" transform="rotate(270) translate(-36 17)">
    <use xlink:href="#rim"/>
    <path pointer-events="none" fill="none" stroke="white" stroke-width="1.5" d="M0,-3.0v7 M-2.5,-0.5L0,-3.0L2.5,-0.5"/>
  </g>
  <g id="resetDef">
    <use xlink:href="#rim2" fill="#404040"><set attributeName="fill" to="#808080" begin="reset.mouseover" end="reset.mouseout"/></use>
  </g>
</defs>
<script type="application/ecmascript">
var viewWidth = 2361;
var viewHeight = 293;
var sectionId = 'dynsection-1';
</script>
<script type="application/ecmascript" xlink:href="svg.min.js"/>
<svg id="graph" class="graph">
<g id="viewport">
<title>common/include/RType/ECS/Components/UI/Dropdown.hpp</title>
<!-- Node1 -->
<g id="Node000001" class="node">
<title>Node1</title>
<g id="a_Node000001"><a xlink:title=" ">
<polygon fill="#999999" stroke="#666666" points="860.88,-285.25 682.88,-285.25 682.88,-254.75 860.88,-254.75 860.88,-285.25"/>
<text xml:space="preserve" text-anchor="start" x="690.88" y="-271.75" font-family="Helvetica,sans-Serif" font-size="10.00">common/include/RType</text>
<text xml:space="preserve" text-anchor="middle" x="771.88" y="-260.5" font-family="Helvetica,sans-Serif" font-size="10.00">/ECS/Components/UI/Dropdown.hpp</text>
</a>
</g>
</g>
<!-- Node2 -->
<g id="Node000002" class="node">
<title>Node2</title>
<g id="a_Node000002"><a xlink:href="Application_8hpp.html" target="_top" xlink:title=" ">
<polygon fill="white" stroke="#666666" points="1090.38,-85.75 993.38,-85.75 993.38,-55.25 1090.38,-55.25 1090.38,-85.75"/>
<text xml:space="preserve" text-anchor="start" x="1001.38" y="-72.25" font-family="Helvetica,sans-Serif" font-size="10.00">client/include/Core</text>
<text xml:space="preserve" text-anchor="middle" x="1041.88" y="-61" font-family="Helvetica,sans-Serif" font-size="10.00">/Application.hpp</text>
</a>
</g>
</g>
<!-- Node1&#45;&gt;Node2 -->
<g id="edge1_Node000001_Node000002" class="edge">
<title>Node1&#45;&gt;Node2</title>
<g id="a_edge1_Node000001_Node000002"><a xlink:title=" ">
<path fill="none" stroke="#63b8ff" d="M861.96,-251.34C919.06,-235.32 989.52,-205.7 1029.88,-152.25 1044.39,-133.02 1044.92,-103.72 1043.64,-86.21"/>
<polygon fill="#63b8ff" stroke="#63b8ff" points="861.3,-247.9 852.56,-253.88 863.13,-254.65 861.3,-247.9"/>
</a>
</g>
</g>
<!-- Node5 -->
<g id="Node000005" class="node">
<title>Node5</title>
<g id="a_Node000005"><a xlink:href="UIRenderSystem_8hpp.html" target="_top" xlink:title=" ">
<polygon fill="white" stroke="#666666" points="357.38,-218.75 242.38,-218.75 242.38,-188.25 357.38,-188.25 357.38,-218.75"/>
<text xml:space="preserve" text-anchor="start" x="250.38" y="-205.25" font-family="Helvetica,sans-Serif" font-size="10.00">client/include/Systems</text>
<text xml:space="preserve" text-anchor="middle" x="299.88" y="-194" font-family="Helvetica,sans-Serif" font-size="10.00">/UIRenderSystem.hpp</text>
</a>
</g>
</g>
<!-- Node1&#45;&gt;Node5 -->
<g id="edge4_Node000001_Node000005" class="edge">
<title>Node1&#45;&gt;Node5</title>
<g id="a_edge4_Node000001_Node000005"><a xlink:title=" ">
<path fill="none" stroke="#63b8ff" d="M671.41,-255.27C575.92,-242.22 435.64,-223.05 357.62,-212.39"/>
<polygon fill="#63b8ff" stroke="#63b8ff" points="670.66,-258.7 681.04,-256.59 671.61,-251.77 670.66,-258.7"/>
</a>
</g>
</g>
<!-- Node8 -->
<g id="Node000008" class="node">
<title>Node8</title>
<g id="a_Node000008"><a xlink:href="UISystem_8hpp.html" target="_top" xlink:title=" ">
<polygon fill="white" stroke="#666666" points="553.38,-218.75 438.38,-218.75 438.38,-188.25 553.38,-188.25 553.38,-218.75"/>
<text xml:space="preserve" text-anchor="start" x="446.38" y="-205.25" font-family="Helvetica,sans-Serif" font-size="10.00">client/include/Systems</text>
<text xml:space="preserve" text-anchor="middle" x="495.88" y="-194" font-family="Helvetica,sans-Serif" font-size="10.00">/UISystem.hpp</text>
</a>
</g>
</g>
<!-- Node1&#45;&gt;Node8 -->
<g id="edge8_Node000001_Node000008" class="edge">
<title>Node1&#45;&gt;Node8</title>
<g id="a_edge8_Node000001_Node000008"><a xlink:title=" ">
<path fill="none" stroke="#63b8ff" d="M697.69,-251.66C652.54,-241.11 595.71,-227.83 553.87,-218.05"/>
<polygon fill="#63b8ff" stroke="#63b8ff" points="696.89,-255.07 707.43,-253.94 698.49,-248.25 696.89,-255.07"/>
</a>
</g>
</g>
<!-- Node10 -->
<g id="Node000010" class="node">
<title>Node10</title>
<g id="a_Node000010"><a xlink:href="UiFactory_8hpp.html" target="_top" xlink:title=" ">
<polygon fill="white" stroke="#666666" points="1371.62,-213.12 1222.12,-213.12 1222.12,-193.88 1371.62,-193.88 1371.62,-213.12"/>
<text xml:space="preserve" text-anchor="middle" x="1296.88" y="-199.62" font-family="Helvetica,sans-Serif" font-size="10.00">client/include/UI/UiFactory.hpp</text>
</a>
</g>
</g>
<!-- Node1&#45;&gt;Node10 -->
<g id="edge11_Node000001_Node000010" class="edge">
<title>Node1&#45;&gt;Node10</title>
<g id="a_edge11_Node000001_Node000010"><a xlink:title=" ">
<path fill="none" stroke="#63b8ff" d="M872.51,-256.64C974.9,-244.06 1131.18,-224.86 1222.77,-213.6"/>
<polygon fill="#63b8ff" stroke="#63b8ff" points="872.23,-253.14 862.73,-257.84 873.09,-260.09 872.23,-253.14"/>
</a>
</g>
</g>
<!-- Node3 -->
<g id="Node000003" class="node">
<title>Node3</title>
<g id="a_Node000003"><a xlink:href="Application_8cpp.html" target="_top" xlink:title=" ">
<polygon fill="white" stroke="#666666" points="1045.62,-19.25 896.12,-19.25 896.12,0 1045.62,0 1045.62,-19.25"/>
<text xml:space="preserve" text-anchor="middle" x="970.88" y="-5.75" font-family="Helvetica,sans-Serif" font-size="10.00">client/src/Core/Application.cpp</text>
</a>
</g>
</g>
<!-- Node2&#45;&gt;Node3 -->
<g id="edge2_Node000002_Node000003" class="edge">
<title>Node2&#45;&gt;Node3</title>
<g id="a_edge2_Node000002_Node000003"><a xlink:title=" ">
<path fill="none" stroke="#63b8ff" d="M1015.74,-47.83C1004.03,-38.12 990.85,-27.19 981.82,-19.7"/>
<polygon fill="#63b8ff" stroke="#63b8ff" points="1013.23,-50.29 1023.16,-53.98 1017.7,-44.9 1013.23,-50.29"/>
</a>
</g>
</g>
<!-- Node4 -->
<g id="Node000004" class="node">
<title>Node4</title>
<g id="a_Node000004"><a xlink:href="client_2src_2main_8cpp.html" target="_top" xlink:title=" ">
<polygon fill="white" stroke="#666666" points="1162.12,-19.25 1063.62,-19.25 1063.62,0 1162.12,0 1162.12,-19.25"/>
<text xml:space="preserve" text-anchor="middle" x="1112.88" y="-5.75" font-family="Helvetica,sans-Serif" font-size="10.00">client/src/main.cpp</text>
</a>
</g>
</g>
<!-- Node2&#45;&gt;Node4 -->
<g id="edge3_Node000002_Node000004" class="edge">
<title>Node2&#45;&gt;Node4</title>
<g id="a_edge3_Node000002_Node000004"><a xlink:title=" ">
<path fill="none" stroke="#63b8ff" d="M1068.01,-47.83C1079.72,-38.12 1092.9,-27.19 1101.93,-19.7"/>
<polygon fill="#63b8ff" stroke="#63b8ff" points="1066.05,-44.9 1060.59,-53.98 1070.52,-50.29 1066.05,-44.9"/>
</a>
</g>
</g>
<!-- Node5&#45;&gt;Node2 -->
<g id="edge5_Node000005_Node000002" class="edge">
<title>Node5&#45;&gt;Node2</title>
<g id="a_edge5_Node000005_Node000002"><a xlink:title=" ">
<path fill="none" stroke="#63b8ff" d="M311.08,-177.98C321.18,-159.02 337.97,-133.99 360.88,-121.75 483.38,-56.29 847.56,-106.69 984.88,-85.75 987.6,-85.33 990.38,-84.85 993.18,-84.31"/>
<polygon fill="#63b8ff" stroke="#63b8ff" points="308.07,-176.18 306.71,-186.69 314.32,-179.32 308.07,-176.18"/>
</a>
</g>
</g>
<!-- Node6 -->
<g id="Node000006" class="node">
<title>Node6</title>
<g id="a_Node000006"><a xlink:href="SpriteCustomizer_8cpp.html" target="_top" xlink:title=" ">
<polygon fill="white" stroke="#666666" points="181.75,-146.62 0,-146.62 0,-127.38 181.75,-127.38 181.75,-146.62"/>
<text xml:space="preserve" text-anchor="middle" x="90.88" y="-133.12" font-family="Helvetica,sans-Serif" font-size="10.00">client/src/Game/SpriteCustomizer.cpp</text>
</a>
</g>
</g>
<!-- Node5&#45;&gt;Node6 -->
<g id="edge6_Node000005_Node000006" class="edge">
<title>Node5&#45;&gt;Node6</title>
<g id="a_edge6_Node000005_Node000006"><a xlink:title=" ">
<path fill="none" stroke="#63b8ff" d="M241.38,-184.45C201.95,-172.28 151.6,-156.74 120.3,-147.08"/>
<polygon fill="#63b8ff" stroke="#63b8ff" points="240.15,-187.73 250.74,-187.34 242.22,-181.04 240.15,-187.73"/>
</a>
</g>
</g>
<!-- Node7 -->
<g id="Node000007" class="node">
<title>Node7</title>
<g id="a_Node000007"><a xlink:href="UIRenderSystem_8cpp.html" target="_top" xlink:title=" ">
<polygon fill="white" stroke="#666666" points="313.62,-152.25 200.12,-152.25 200.12,-121.75 313.62,-121.75 313.62,-152.25"/>
<text xml:space="preserve" text-anchor="start" x="208.12" y="-138.75" font-family="Helvetica,sans-Serif" font-size="10.00">client/src/Systems</text>
<text xml:space="preserve" text-anchor="middle" x="256.88" y="-127.5" font-family="Helvetica,sans-Serif" font-size="10.00">/UIRenderSystem.cpp</text>
</a>
</g>
</g>
<!-- Node5&#45;&gt;Node7 -->
<g id="edge7_Node000005_Node000007" class="edge">
<title>Node5&#45;&gt;Node7</title>
<g id="a_edge7_Node000005_Node000007"><a xlink:title=" ">
<path fill="none" stroke="#63b8ff" d="M283.9,-178.54C278.09,-169.82 271.7,-160.24 266.59,-152.58"/>
<polygon fill="#63b8ff" stroke="#63b8ff" points="280.82,-180.23 289.28,-186.6 286.64,-176.34 280.82,-180.23"/>
</a>
</g>
</g>
<!-- Node8&#45;&gt;Node2 -->
<g id="edge9_Node000008_Node000002" class="edge">
<title>Node8&#45;&gt;Node2</title>
<g id="a_edge9_Node000008_Node000002"><a xlink:title=" ">
<path fill="none" stroke="#63b8ff" d="M494.93,-176.63C495.77,-158.41 500.21,-135 515.88,-121.75 555.77,-87.99 933.28,-94.12 984.88,-85.75 987.59,-85.31 990.37,-84.8 993.17,-84.25"/>
<polygon fill="#63b8ff" stroke="#63b8ff" points="491.43,-176.4 494.83,-186.44 498.43,-176.47 491.43,-176.4"/>
</a>
</g>
</g>
<!-- Node9 -->
<g id="Node000009" class="node">
<title>Node9</title>
<g id="a_Node000009"><a xlink:href="UISystem_8cpp.html" target="_top" xlink:title=" ">
<polygon fill="white" stroke="#666666" points="467.75,-152.25 370,-152.25 370,-121.75 467.75,-121.75 467.75,-152.25"/>
<text xml:space="preserve" text-anchor="start" x="378" y="-138.75" font-family="Helvetica,sans-Serif" font-size="10.00">client/src/Systems</text>
<text xml:space="preserve" text-anchor="middle" x="418.88" y="-127.5" font-family="Helvetica,sans-Serif" font-size="10.00">/UISystem.cpp</text>
</a>
</g>
</g>
<!-- Node8&#45;&gt;Node9 -->
<g id="edge10_Node000008_Node000009" class="edge">
<title>Node8&#45;&gt;Node9</title>
<g id="a_edge10_Node000008_Node000009"><a xlink:title=" ">
<path fill="none" stroke="#63b8ff" d="M469.6,-180.49C458.6,-171.28 446.11,-160.81 436.28,-152.58"/>
<polygon fill="#63b8ff" stroke="#63b8ff" points="467.33,-183.15 477.24,-186.89 471.82,-177.79 467.33,-183.15"/>
</a>
</g>
</g>
<!-- Node10&#45;&gt;Node2 -->
<g id="edge12_Node000010_Node000002" class="edge">
<title>Node10&#45;&gt;Node2</title>
<g id="a_edge12_Node000010_Node000002"><a xlink:title=" ">
<path fill="none" stroke="#63b8ff" d="M1211.05,-191.71C1176.63,-184.46 1137.86,-172.37 1106.88,-152.25 1080.76,-135.3 1060.26,-104.38 1049.71,-86.11"/>
<polygon fill="#63b8ff" stroke="#63b8ff" points="1210.08,-195.09 1220.57,-193.6 1211.45,-188.22 1210.08,-195.09"/>
</a>
</g>
</g>
<!-- Node11 -->
<g id="Node000011" class="node">
<title>Node11</title>
<g id="a_Node000011"><a xlink:href="CreateRoomScene_8hpp.html" target="_top" xlink:title=" ">
<polygon fill="white" stroke="#666666" points="1887.38,-152.25 1766.38,-152.25 1766.38,-121.75 1887.38,-121.75 1887.38,-152.25"/>
<text xml:space="preserve" text-anchor="start" x="1774.38" y="-138.75" font-family="Helvetica,sans-Serif" font-size="10.00">client/include/Scenes</text>
<text xml:space="preserve" text-anchor="middle" x="1826.88" y="-127.5" font-family="Helvetica,sans-Serif" font-size="10.00">/CreateRoomScene.hpp</text>
</a>
</g>
</g>
<!-- Node10&#45;&gt;Node11 -->
<g id="edge13_Node000010_Node000011" class="edge">
<title>Node10&#45;&gt;Node11</title>
<g id="a_edge13_Node000010_Node000011"><a xlink:title=" ">
<path fill="none" stroke="#63b8ff" d="M1383.13,-195.57C1475.99,-187.53 1627.9,-172.71 1757.88,-152.25 1760.53,-151.83 1763.24,-151.38 1765.98,-150.9"/>
<polygon fill="#63b8ff" stroke="#63b8ff" points="1382.99,-192.06 1373.33,-196.41 1383.59,-199.04 1382.99,-192.06"/>
</a>
</g>
</g>
<!-- Node13 -->
<g id="Node000013" class="node">
<title>Node13</title>
<g id="a_Node000013"><a xlink:href="GameOverScene_8hpp.html" target="_top" xlink:title=" ">
<polygon fill="white" stroke="#666666" points="2018.25,-152.25 1905.5,-152.25 1905.5,-121.75 2018.25,-121.75 2018.25,-152.25"/>
<text xml:space="preserve" text-anchor="start" x="1913.5" y="-138.75" font-family="Helvetica,sans-Serif" font-size="10.00">client/include/Scenes</text>
<text xml:space="preserve" text-anchor="middle" x="1961.88" y="-127.5" font-family="Helvetica,sans-Serif" font-size="10.00">/GameOverScene.hpp</text>
</a>
</g>
</g>
<!-- Node10&#45;&gt;Node13 -->
<g id="edge16_Node000010_Node000013" class="edge">
<title>Node10&#45;&gt;Node13</title>
<g id="a_edge16_Node000010_Node000013"><a xlink:title=" ">
<path fill="none" stroke="#63b8ff" d="M1383.44,-198.85C1500.44,-193.09 1715.32,-179.63 1896.88,-152.25 1899.62,-151.84 1902.42,-151.38 1905.24,-150.88"/>
<polygon fill="#63b8ff" stroke="#63b8ff" points="1383.41,-195.35 1373.59,-199.33 1383.75,-202.34 1383.41,-195.35"/>
</a>
</g>
</g>
<!-- Node15 -->
<g id="Node000015" class="node">
<title>Node15</title>
<g id="a_Node000015"><a xlink:href="GamepadSettingsScene_8hpp.html" target="_top" xlink:title=" ">
<polygon fill="white" stroke="#666666" points="2179.62,-152.25 2036.12,-152.25 2036.12,-121.75 2179.62,-121.75 2179.62,-152.25"/>
<text xml:space="preserve" text-anchor="start" x="2044.12" y="-138.75" font-family="Helvetica,sans-Serif" font-size="10.00">client/include/Scenes</text>
<text xml:space="preserve" text-anchor="middle" x="2107.88" y="-127.5" font-family="Helvetica,sans-Serif" font-size="10.00">/GamepadSettingsScene.hpp</text>
</a>
</g>
</g>
<!-- Node10&#45;&gt;Node15 -->
<g id="edge19_Node000010_Node000015" class="edge">
<title>Node10&#45;&gt;Node15</title>
<g id="a_edge19_Node000010_Node000015"><a xlink:title=" ">
<path fill="none" stroke="#63b8ff" d="M1383.21,-199.51C1520.11,-194.09 1795.22,-180.52 2026.88,-152.25 2029.85,-151.89 2032.88,-151.49 2035.95,-151.06"/>
<polygon fill="#63b8ff" stroke="#63b8ff" points="1383.37,-196 1373.51,-199.88 1383.64,-202.99 1383.37,-196"/>
</a>
</g>
</g>
<!-- Node17 -->
<g id="Node000017" class="node">
<title>Node17</title>
<g id="a_Node000017"><a xlink:href="KeyBindingScene_8hpp.html" target="_top" xlink:title=" ">
<polygon fill="white" stroke="#666666" points="639.38,-152.25 524.38,-152.25 524.38,-121.75 639.38,-121.75 639.38,-152.25"/>
<text xml:space="preserve" text-anchor="start" x="532.38" y="-138.75" font-family="Helvetica,sans-Serif" font-size="10.00">client/include/Scenes</text>
<text xml:space="preserve" text-anchor="middle" x="581.88" y="-127.5" font-family="Helvetica,sans-Serif" font-size="10.00">/KeyBindingScene.hpp</text>
</a>
</g>
</g>
<!-- Node10&#45;&gt;Node17 -->
<g id="edge22_Node000010_Node000017" class="edge">
<title>Node10&#45;&gt;Node17</title>
<g id="a_edge22_Node000010_Node000017"><a xlink:title=" ">
<path fill="none" stroke="#63b8ff" d="M1210.35,-199.43C1085.72,-194.18 848.68,-181.12 648.88,-152.25 645.81,-151.81 642.69,-151.31 639.53,-150.77"/>
<polygon fill="#63b8ff" stroke="#63b8ff" points="1210.04,-202.92 1220.17,-199.83 1210.33,-195.92 1210.04,-202.92"/>
</a>
</g>
</g>
<!-- Node19 -->
<g id="Node000019" class="node">
<title>Node19</title>
<g id="a_Node000019"><a xlink:href="LobbyScene_8hpp.html" target="_top" xlink:title=" ">
<polygon fill="white" stroke="#666666" points="766.38,-152.25 657.38,-152.25 657.38,-121.75 766.38,-121.75 766.38,-152.25"/>
<text xml:space="preserve" text-anchor="start" x="665.38" y="-138.75" font-family="Helvetica,sans-Serif" font-size="10.00">client/include/Scenes</text>
<text xml:space="preserve" text-anchor="middle" x="711.88" y="-127.5" font-family="Helvetica,sans-Serif" font-size="10.00">/LobbyScene.hpp</text>
</a>
</g>
</g>
<!-- Node10&#45;&gt;Node19 -->
<g id="edge25_Node000010_Node000019" class="edge">
<title>Node10&#45;&gt;Node19</title>
<g id="a_edge25_Node000010_Node000019"><a xlink:title=" ">
<path fill="none" stroke="#63b8ff" d="M1210.54,-197.43C1106.86,-190.6 927.9,-176.41 775.88,-152.25 772.84,-151.77 769.73,-151.23 766.6,-150.65"/>
<polygon fill="#63b8ff" stroke="#63b8ff" points="1210.16,-200.92 1220.37,-198.07 1210.62,-193.93 1210.16,-200.92"/>
</a>
</g>
</g>
<!-- Node21 -->
<g id="Node000021" class="node">
<title>Node21</title>
<g id="a_Node000021"><a xlink:href="LoginScene_8hpp.html" target="_top" xlink:title=" ">
<polygon fill="white" stroke="#666666" points="893.38,-152.25 784.38,-152.25 784.38,-121.75 893.38,-121.75 893.38,-152.25"/>
<text xml:space="preserve" text-anchor="start" x="792.38" y="-138.75" font-family="Helvetica,sans-Serif" font-size="10.00">client/include/Scenes</text>
<text xml:space="preserve" text-anchor="middle" x="838.88" y="-127.5" font-family="Helvetica,sans-Serif" font-size="10.00">/LoginScene.hpp</text>
</a>
</g>
</g>
<!-- Node10&#45;&gt;Node21 -->
<g id="edge28_Node000010_Node000021" class="edge">
<title>Node10&#45;&gt;Node21</title>
<g id="a_edge28_Node000010_Node000021"><a xlink:title=" ">
<path fill="none" stroke="#63b8ff" d="M1210.76,-193.83C1130.71,-185.22 1008.3,-170.67 902.88,-152.25 899.85,-151.72 896.75,-151.15 893.62,-150.54"/>
<polygon fill="#63b8ff" stroke="#63b8ff" points="1209.95,-197.26 1220.26,-194.84 1210.69,-190.3 1209.95,-197.26"/>
</a>
</g>
</g>
<!-- Node23 -->
<g id="Node000023" class="node">
<title>Node23</title>
<g id="a_Node000023"><a xlink:href="MenuScene_8hpp.html" target="_top" xlink:title=" ">
<polygon fill="white" stroke="#666666" points="1020.38,-152.25 911.38,-152.25 911.38,-121.75 1020.38,-121.75 1020.38,-152.25"/>
<text xml:space="preserve" text-anchor="start" x="919.38" y="-138.75" font-family="Helvetica,sans-Serif" font-size="10.00">client/include/Scenes</text>
<text xml:space="preserve" text-anchor="middle" x="965.88" y="-127.5" font-family="Helvetica,sans-Serif" font-size="10.00">/MenuScene.hpp</text>
</a>
</g>
</g>
<!-- Node10&#45;&gt;Node23 -->
<g id="edge31_Node000010_Node000023" class="edge">
<title>Node10&#45;&gt;Node23</title>
<g id="a_edge31_Node000010_Node000023"><a xlink:title=" ">
<path fill="none" stroke="#63b8ff" d="M1239.09,-191.24C1177.57,-179.25 1080.95,-160.42 1020.62,-148.67"/>
<polygon fill="#63b8ff" stroke="#63b8ff" points="1238.18,-194.63 1248.67,-193.11 1239.52,-187.76 1238.18,-194.63"/>
</a>
</g>
</g>
<!-- Node25 -->
<g id="Node000025" class="node">
<title>Node25</title>
<g id="a_Node000025"><a xlink:href="ModMenuScene_8hpp.html" target="_top" xlink:title=" ">
<polygon fill="white" stroke="#666666" points="1224.38,-152.25 1115.38,-152.25 1115.38,-121.75 1224.38,-121.75 1224.38,-152.25"/>
<text xml:space="preserve" text-anchor="start" x="1123.38" y="-138.75" font-family="Helvetica,sans-Serif" font-size="10.00">client/include/Scenes</text>
<text xml:space="preserve" text-anchor="middle" x="1169.88" y="-127.5" font-family="Helvetica,sans-Serif" font-size="10.00">/ModMenuScene.hpp</text>
</a>
</g>
</g>
<!-- Node10&#45;&gt;Node25 -->
<g id="edge34_Node000010_Node000025" class="edge">
<title>Node10&#45;&gt;Node25</title>
<g id="a_edge34_Node000010_Node000025"><a xlink:title=" ">
<path fill="none" stroke="#63b8ff" d="M1268.79,-188.24C1247.9,-177.63 1219.49,-163.2 1198.48,-152.53"/>
<polygon fill="#63b8ff" stroke="#63b8ff" points="1267.1,-191.3 1277.6,-192.71 1270.27,-185.06 1267.1,-191.3"/>
</a>
</g>
</g>
<!-- Node27 -->
<g id="Node000027" class="node">
<title>Node27</title>
<g id="a_Node000027"><a xlink:href="PauseScene_8hpp.html" target="_top" xlink:title=" ">
<polygon fill="white" stroke="#666666" points="1351.38,-152.25 1242.38,-152.25 1242.38,-121.75 1351.38,-121.75 1351.38,-152.25"/>
<text xml:space="preserve" text-anchor="start" x="1250.38" y="-138.75" font-family="Helvetica,sans-Serif" font-size="10.00">client/include/Scenes</text>
<text xml:space="preserve" text-anchor="middle" x="1296.88" y="-127.5" font-family="Helvetica,sans-Serif" font-size="10.00">/PauseScene.hpp</text>
</a>
</g>
</g>
<!-- Node10&#45;&gt;Node27 -->
<g id="edge37_Node000010_Node000027" class="edge">
<title>Node10&#45;&gt;Node27</title>
<g id="a_edge37_Node000010_Node000027"><a xlink:title=" ">
<path fill="none" stroke="#63b8ff" d="M1296.88,-182.12C1296.88,-172.44 1296.88,-161.1 1296.88,-152.34"/>
<polygon fill="#63b8ff" stroke="#63b8ff" points="1293.38,-182.02 1296.88,-192.02 1300.38,-182.02 1293.38,-182.02"/>
</a>
</g>
</g>
<!-- Node29 -->
<g id="Node000029" class="node">
<title>Node29</title>
<g id="a_Node000029"><a xlink:href="PlayingScene_8hpp.html" target="_top" xlink:title=" ">
<polygon fill="white" stroke="#666666" points="1478.38,-152.25 1369.38,-152.25 1369.38,-121.75 1478.38,-121.75 1478.38,-152.25"/>
<text xml:space="preserve" text-anchor="start" x="1377.38" y="-138.75" font-family="Helvetica,sans-Serif" font-size="10.00">client/include/Scenes</text>
<text xml:space="preserve" text-anchor="middle" x="1423.88" y="-127.5" font-family="Helvetica,sans-Serif" font-size="10.00">/PlayingScene.hpp</text>
</a>
</g>
</g>
<!-- Node10&#45;&gt;Node29 -->
<g id="edge40_Node000010_Node000029" class="edge">
<title>Node10&#45;&gt;Node29</title>
<g id="a_edge40_Node000010_Node000029"><a xlink:title=" ">
<path fill="none" stroke="#63b8ff" d="M1324.96,-188.24C1345.85,-177.63 1374.26,-163.2 1395.27,-152.53"/>
<polygon fill="#63b8ff" stroke="#63b8ff" points="1323.48,-185.06 1316.15,-192.71 1326.65,-191.3 1323.48,-185.06"/>
</a>
</g>
</g>
<!-- Node31 -->
<g id="Node000031" class="node">
<title>Node31</title>
<g id="a_Node000031"><a xlink:href="RoomWaitingScene_8hpp.html" target="_top" xlink:title=" ">
<polygon fill="white" stroke="#666666" points="1620.88,-152.25 1496.88,-152.25 1496.88,-121.75 1620.88,-121.75 1620.88,-152.25"/>
<text xml:space="preserve" text-anchor="start" x="1504.88" y="-138.75" font-family="Helvetica,sans-Serif" font-size="10.00">client/include/Scenes</text>
<text xml:space="preserve" text-anchor="middle" x="1558.88" y="-127.5" font-family="Helvetica,sans-Serif" font-size="10.00">/RoomWaitingScene.hpp</text>
</a>
</g>
</g>
<!-- Node10&#45;&gt;Node31 -->
<g id="edge43_Node000010_Node000031" class="edge">
<title>Node10&#45;&gt;Node31</title>
<g id="a_edge43_Node000010_Node000031"><a xlink:title=" ">
<path fill="none" stroke="#63b8ff" d="M1344.99,-190.65C1388.49,-179.95 1452.67,-164.15 1499.37,-152.65"/>
<polygon fill="#63b8ff" stroke="#63b8ff" points="1344.2,-187.24 1335.33,-193.03 1345.87,-194.04 1344.2,-187.24"/>
</a>
</g>
</g>
<!-- Node33 -->
<g id="Node000033" class="node">
<title>Node33</title>
<g id="a_Node000033"><a xlink:href="SettingsScene_8hpp.html" target="_top" xlink:title=" ">
<polygon fill="white" stroke="#666666" points="1748.38,-152.25 1639.38,-152.25 1639.38,-121.75 1748.38,-121.75 1748.38,-152.25"/>
<text xml:space="preserve" text-anchor="start" x="1647.38" y="-138.75" font-family="Helvetica,sans-Serif" font-size="10.00">client/include/Scenes</text>
<text xml:space="preserve" text-anchor="middle" x="1693.88" y="-127.5" font-family="Helvetica,sans-Serif" font-size="10.00">/SettingsScene.hpp</text>
</a>
</g>
</g>
<!-- Node10&#45;&gt;Node33 -->
<g id="edge46_Node000010_Node000033" class="edge">
<title>Node10&#45;&gt;Node33</title>
<g id="a_edge46_Node000010_Node000033"><a xlink:title=" ">
<path fill="none" stroke="#63b8ff" d="M1377.62,-191.91C1445.22,-182.66 1544.12,-168.25 1629.88,-152.25 1632.9,-151.69 1635.99,-151.08 1639.11,-150.45"/>
<polygon fill="#63b8ff" stroke="#63b8ff" points="1377.57,-188.39 1368.13,-193.2 1378.51,-195.32 1377.57,-188.39"/>
</a>
</g>
</g>
<!-- Node35 -->
<g id="Node000035" class="node">
<title>Node35</title>
<g id="a_Node000035"><a xlink:href="UiFactory_8cpp.html" target="_top" xlink:title=" ">
<polygon fill="white" stroke="#666666" points="2330,-146.62 2197.75,-146.62 2197.75,-127.38 2330,-127.38 2330,-146.62"/>
<text xml:space="preserve" text-anchor="middle" x="2263.88" y="-133.12" font-family="Helvetica,sans-Serif" font-size="10.00">client/src/UI/UiFactory.cpp</text>
</a>
</g>
</g>
<!-- Node10&#45;&gt;Node35 -->
<g id="edge49_Node000010_Node000035" class="edge">
<title>Node10&#45;&gt;Node35</title>
<g id="a_edge49_Node000010_Node000035"><a xlink:title=" ">
<path fill="none" stroke="#63b8ff" d="M1383.22,-201.4C1542.87,-198.54 1894.76,-188.32 2188.88,-152.25 2199.4,-150.96 2210.67,-149.08 2221.19,-147.11"/>
<polygon fill="#63b8ff" stroke="#63b8ff" points="1383.51,-197.9 1373.57,-201.57 1383.63,-204.9 1383.51,-197.9"/>
</a>
</g>
</g>
<!-- Node11&#45;&gt;Node2 -->
<g id="edge14_Node000011_Node000002" class="edge">
<title>Node11&#45;&gt;Node2</title>
<g id="a_edge14_Node000011_Node000002"><a xlink:title=" ">
<path fill="none" stroke="#63b8ff" d="M1754.72,-121.47C1464.97,-85.12 1385.23,-128.96 1098.88,-85.75 1096.15,-85.34 1093.37,-84.86 1090.57,-84.32"/>
<polygon fill="#63b8ff" stroke="#63b8ff" points="1754.14,-124.93 1764.5,-122.72 1755.03,-117.98 1754.14,-124.93"/>
</a>
</g>
</g>
<!-- Node12 -->
<g id="Node000012" class="node">
<title>Node12</title>
<g id="a_Node000012"><a xlink:href="CreateRoomScene_8cpp.html" target="_top" xlink:title=" ">
<polygon fill="white" stroke="#666666" points="2038.88,-85.75 1914.88,-85.75 1914.88,-55.25 2038.88,-55.25 2038.88,-85.75"/>
<text xml:space="preserve" text-anchor="start" x="1922.88" y="-72.25" font-family="Helvetica,sans-Serif" font-size="10.00">client/src/Scenes/Create</text>
<text xml:space="preserve" text-anchor="middle" x="1976.88" y="-61" font-family="Helvetica,sans-Serif" font-size="10.00">RoomScene.cpp</text>
</a>
</g>
</g>
<!-- Node11&#45;&gt;Node12 -->
<g id="edge15_Node000011_Node000012" class="edge">
<title>Node11&#45;&gt;Node12</title>
<g id="a_edge15_Node000011_Node000012"><a xlink:title=" ">
<path fill="none" stroke="#63b8ff" d="M1871.37,-116.87C1894.2,-107.05 1921.57,-95.28 1942.71,-86.19"/>
<polygon fill="#63b8ff" stroke="#63b8ff" points="1870.11,-113.6 1862.3,-120.77 1872.87,-120.03 1870.11,-113.6"/>
</a>
</g>
</g>
<!-- Node13&#45;&gt;Node2 -->
<g id="edge17_Node000013_Node000002" class="edge">
<title>Node13&#45;&gt;Node2</title>
<g id="a_edge17_Node000013_Node000002"><a xlink:title=" ">
<path fill="none" stroke="#63b8ff" d="M1893.99,-121.53C1542.85,-76.85 1446.49,-136.52 1098.88,-85.75 1096.15,-85.35 1093.37,-84.88 1090.56,-84.35"/>
<polygon fill="#63b8ff" stroke="#63b8ff" points="1893.39,-124.98 1903.75,-122.8 1894.29,-118.04 1893.39,-124.98"/>
</a>
</g>
</g>
<!-- Node14 -->
<g id="Node000014" class="node">
<title>Node14</title>
<g id="a_Node000014"><a xlink:href="GameOverScene_8cpp.html" target="_top" xlink:title=" ">
<polygon fill="white" stroke="#666666" points="2198.88,-85.75 2056.88,-85.75 2056.88,-55.25 2198.88,-55.25 2198.88,-85.75"/>
<text xml:space="preserve" text-anchor="start" x="2064.88" y="-72.25" font-family="Helvetica,sans-Serif" font-size="10.00">client/src/Scenes/GameOver</text>
<text xml:space="preserve" text-anchor="middle" x="2127.88" y="-61" font-family="Helvetica,sans-Serif" font-size="10.00">Scene.cpp</text>
</a>
</g>
</g>
<!-- Node13&#45;&gt;Node14 -->
<g id="edge18_Node000013_Node000014" class="edge">
<title>Node13&#45;&gt;Node14</title>
<g id="a_edge18_Node000013_Node000014"><a xlink:title=" ">
<path fill="none" stroke="#63b8ff" d="M2010.09,-117.26C2035.56,-107.37 2066.35,-95.4 2090.07,-86.19"/>
<polygon fill="#63b8ff" stroke="#63b8ff" points="2009.01,-113.93 2000.95,-120.82 2011.54,-120.46 2009.01,-113.93"/>
</a>
</g>
</g>
<!-- Node15&#45;&gt;Node2 -->
<g id="edge20_Node000015_Node000002" class="edge">
<title>Node15&#45;&gt;Node2</title>
<g id="a_edge20_Node000015_Node000002"><a xlink:title=" ">
<path fill="none" stroke="#63b8ff" d="M2024.67,-121.64C1614.46,-79.08 1503.79,-143.59 1098.88,-85.75 1096.25,-85.37 1093.57,-84.93 1090.87,-84.43"/>
<polygon fill="#63b8ff" stroke="#63b8ff" points="2024.14,-125.1 2034.45,-122.67 2024.87,-118.14 2024.14,-125.1"/>
</a>
</g>
</g>
<!-- Node16 -->
<g id="Node000016" class="node">
<title>Node16</title>
<g id="a_Node000016"><a xlink:href="GamepadSettingsScene_8cpp.html" target="_top" xlink:title=" ">
<polygon fill="white" stroke="#666666" points="2353.25,-85.75 2216.5,-85.75 2216.5,-55.25 2353.25,-55.25 2353.25,-85.75"/>
<text xml:space="preserve" text-anchor="start" x="2224.5" y="-72.25" font-family="Helvetica,sans-Serif" font-size="10.00">client/src/Scenes/Gamepad</text>
<text xml:space="preserve" text-anchor="middle" x="2284.88" y="-61" font-family="Helvetica,sans-Serif" font-size="10.00">SettingsScene.cpp</text>
</a>
</g>
</g>
<!-- Node15&#45;&gt;Node16 -->
<g id="edge21_Node000015_Node000016" class="edge">
<title>Node15&#45;&gt;Node16</title>
<g id="a_edge21_Node000015_Node000016"><a xlink:title=" ">
<path fill="none" stroke="#63b8ff" d="M2158.56,-117.53C2185.85,-107.58 2219.05,-95.49 2244.56,-86.19"/>
<polygon fill="#63b8ff" stroke="#63b8ff" points="2157.66,-114.13 2149.46,-120.85 2160.06,-120.71 2157.66,-114.13"/>
</a>
</g>
</g>
<!-- Node17&#45;&gt;Node2 -->
<g id="edge23_Node000017_Node000002" class="edge">
<title>Node17&#45;&gt;Node2</title>
<g id="a_edge23_Node000017_Node000002"><a xlink:title=" ">
<path fill="none" stroke="#63b8ff" d="M650.89,-121.56C799.2,-98.75 840.61,-111.38 984.88,-85.75 987.59,-85.27 990.36,-84.73 993.15,-84.15"/>
<polygon fill="#63b8ff" stroke="#63b8ff" points="650.38,-118.1 641.04,-123.11 651.47,-125.01 650.38,-118.1"/>
</a>
</g>
</g>
<!-- Node18 -->
<g id="Node000018" class="node">
<title>Node18</title>
<g id="a_Node000018"><a xlink:href="KeyBindingScene_8cpp.html" target="_top" xlink:title=" ">
<polygon fill="white" stroke="#666666" points="424,-85.75 279.75,-85.75 279.75,-55.25 424,-55.25 424,-85.75"/>
<text xml:space="preserve" text-anchor="start" x="287.75" y="-72.25" font-family="Helvetica,sans-Serif" font-size="10.00">client/src/Scenes/KeyBinding</text>
<text xml:space="preserve" text-anchor="middle" x="351.88" y="-61" font-family="Helvetica,sans-Serif" font-size="10.00">Scene.cpp</text>
</a>
</g>
</g>
<!-- Node17&#45;&gt;Node18 -->
<g id="edge24_Node000017_Node000018" class="edge">
<title>Node17&#45;&gt;Node18</title>
<g id="a_edge24_Node000017_Node000018"><a xlink:title=" ">
<path fill="none" stroke="#63b8ff" d="M518.53,-118.24C482.56,-108.15 438.08,-95.68 404.13,-86.15"/>
<polygon fill="#63b8ff" stroke="#63b8ff" points="517.37,-121.54 527.94,-120.87 519.26,-114.8 517.37,-121.54"/>
</a>
</g>
</g>
<!-- Node19&#45;&gt;Node2 -->
<g id="edge26_Node000019_Node000002" class="edge">
<title>Node19&#45;&gt;Node2</title>
<g id="a_edge26_Node000019_Node000002"><a xlink:title=" ">
<path fill="none" stroke="#63b8ff" d="M777.94,-121.41C870.3,-103.6 896.16,-104.45 984.88,-85.75 987.57,-85.18 990.33,-84.58 993.11,-83.94"/>
<polygon fill="#63b8ff" stroke="#63b8ff" points="777.28,-117.98 768.14,-123.33 778.62,-124.85 777.28,-117.98"/>
</a>
</g>
</g>
<!-- Node20 -->
<g id="Node000020" class="node">
<title>Node20</title>
<g id="a_Node000020"><a xlink:href="LobbyScene_8cpp.html" target="_top" xlink:title=" ">
<polygon fill="white" stroke="#666666" points="609.62,-80.12 442.12,-80.12 442.12,-60.88 609.62,-60.88 609.62,-80.12"/>
<text xml:space="preserve" text-anchor="middle" x="525.88" y="-66.62" font-family="Helvetica,sans-Serif" font-size="10.00">client/src/Scenes/LobbyScene.cpp</text>
</a>
</g>
</g>
<!-- Node19&#45;&gt;Node20 -->
<g id="edge27_Node000019_Node000020" class="edge">
<title>Node19&#45;&gt;Node20</title>
<g id="a_edge27_Node000019_Node000020"><a xlink:title=" ">
<path fill="none" stroke="#63b8ff" d="M659.15,-117.72C624.19,-105.59 579.82,-90.21 552.13,-80.6"/>
<polygon fill="#63b8ff" stroke="#63b8ff" points="657.64,-120.9 668.24,-120.87 659.94,-114.28 657.64,-120.9"/>
</a>
</g>
</g>
<!-- Node21&#45;&gt;Node2 -->
<g id="edge29_Node000021_Node000002" class="edge">
<title>Node21&#45;&gt;Node2</title>
<g id="a_edge29_Node000021_Node000002"><a xlink:title=" ">
<path fill="none" stroke="#63b8ff" d="M896.02,-117.84C927.54,-107.83 966.17,-95.55 995.76,-86.15"/>
<polygon fill="#63b8ff" stroke="#63b8ff" points="895.11,-114.46 886.64,-120.82 897.23,-121.13 895.11,-114.46"/>
</a>
</g>
</g>
<!-- Node22 -->
<g id="Node000022" class="node">
<title>Node22</title>
<g id="a_Node000022"><a xlink:href="LoginScene_8cpp.html" target="_top" xlink:title=" ">
<polygon fill="white" stroke="#666666" points="792.12,-80.12 627.62,-80.12 627.62,-60.88 792.12,-60.88 792.12,-80.12"/>
<text xml:space="preserve" text-anchor="middle" x="709.88" y="-66.62" font-family="Helvetica,sans-Serif" font-size="10.00">client/src/Scenes/LoginScene.cpp</text>
</a>
</g>
</g>
<!-- Node21&#45;&gt;Node22 -->
<g id="edge30_Node000021_Node000022" class="edge">
<title>Node21&#45;&gt;Node22</title>
<g id="a_edge30_Node000021_Node000022"><a xlink:title=" ">
<path fill="none" stroke="#63b8ff" d="M799.43,-116.28C775.58,-104.35 746.33,-89.73 727.89,-80.51"/>
<polygon fill="#63b8ff" stroke="#63b8ff" points="797.74,-119.35 808.25,-120.69 800.87,-113.08 797.74,-119.35"/>
</a>
</g>
</g>
<!-- Node23&#45;&gt;Node2 -->
<g id="edge32_Node000023_Node000002" class="edge">
<title>Node23&#45;&gt;Node2</title>
<g id="a_edge32_Node000023_Node000002"><a xlink:title=" ">
<path fill="none" stroke="#63b8ff" d="M991.81,-113.99C1002.67,-104.78 1014.99,-94.31 1024.7,-86.08"/>
<polygon fill="#63b8ff" stroke="#63b8ff" points="989.63,-111.25 984.27,-120.38 994.16,-116.58 989.63,-111.25"/>
</a>
</g>
</g>
<!-- Node24 -->
<g id="Node000024" class="node">
<title>Node24</title>
<g id="a_Node000024"><a xlink:href="MenuScene_8cpp.html" target="_top" xlink:title=" ">
<polygon fill="white" stroke="#666666" points="975.5,-80.12 810.25,-80.12 810.25,-60.88 975.5,-60.88 975.5,-80.12"/>
<text xml:space="preserve" text-anchor="middle" x="892.88" y="-66.62" font-family="Helvetica,sans-Serif" font-size="10.00">client/src/Scenes/MenuScene.cpp</text>
</a>
</g>
</g>
<!-- Node23&#45;&gt;Node24 -->
<g id="edge33_Node000023_Node000024" class="edge">
<title>Node23&#45;&gt;Node24</title>
<g id="a_edge33_Node000023_Node000024"><a xlink:title=" ">
<path fill="none" stroke="#63b8ff" d="M940.74,-113.79C927.72,-102.29 912.57,-88.9 902.86,-80.32"/>
<polygon fill="#63b8ff" stroke="#63b8ff" points="938.36,-116.36 948.18,-120.36 943,-111.12 938.36,-116.36"/>
</a>
</g>
</g>
<!-- Node25&#45;&gt;Node2 -->
<g id="edge35_Node000025_Node000002" class="edge">
<title>Node25&#45;&gt;Node2</title>
<g id="a_edge35_Node000025_Node000002"><a xlink:title=" ">
<path fill="none" stroke="#63b8ff" d="M1130.81,-116.31C1111.47,-106.57 1088.54,-95.01 1070.81,-86.08"/>
<polygon fill="#63b8ff" stroke="#63b8ff" points="1128.97,-119.31 1139.48,-120.68 1132.12,-113.06 1128.97,-119.31"/>
</a>
</g>
</g>
<!-- Node26 -->
<g id="Node000026" class="node">
<title>Node26</title>
<g id="a_Node000026"><a xlink:href="ModMenuScene_8cpp.html" target="_top" xlink:title=" ">
<polygon fill="white" stroke="#666666" points="1245.62,-85.75 1108.12,-85.75 1108.12,-55.25 1245.62,-55.25 1245.62,-85.75"/>
<text xml:space="preserve" text-anchor="start" x="1116.12" y="-72.25" font-family="Helvetica,sans-Serif" font-size="10.00">client/src/Scenes/ModMenu</text>
<text xml:space="preserve" text-anchor="middle" x="1176.88" y="-61" font-family="Helvetica,sans-Serif" font-size="10.00">Scene.cpp</text>
</a>
</g>
</g>
<!-- Node25&#45;&gt;Node26 -->
<g id="edge36_Node000025_Node000026" class="edge">
<title>Node25&#45;&gt;Node26</title>
<g id="a_edge36_Node000025_Node000026"><a xlink:title=" ">
<path fill="none" stroke="#63b8ff" d="M1172.69,-110.06C1173.58,-101.89 1174.52,-93.16 1175.29,-86.08"/>
<polygon fill="#63b8ff" stroke="#63b8ff" points="1169.23,-109.54 1171.63,-119.86 1176.19,-110.3 1169.23,-109.54"/>
</a>
</g>
</g>
<!-- Node27&#45;&gt;Node2 -->
<g id="edge38_Node000027_Node000002" class="edge">
<title>Node27&#45;&gt;Node2</title>
<g id="a_edge38_Node000027_Node000002"><a xlink:title=" ">
<path fill="none" stroke="#63b8ff" d="M1231.01,-119.34C1187.08,-108.23 1130.3,-93.87 1090.46,-83.79"/>
<polygon fill="#63b8ff" stroke="#63b8ff" points="1230.15,-122.73 1240.7,-121.79 1231.87,-115.95 1230.15,-122.73"/>
</a>
</g>
</g>
<!-- Node28 -->
<g id="Node000028" class="node">
<title>Node28</title>
<g id="a_Node000028"><a xlink:href="PauseScene_8cpp.html" target="_top" xlink:title=" ">
<polygon fill="white" stroke="#666666" points="1432.38,-80.12 1263.38,-80.12 1263.38,-60.88 1432.38,-60.88 1432.38,-80.12"/>
<text xml:space="preserve" text-anchor="middle" x="1347.88" y="-66.62" font-family="Helvetica,sans-Serif" font-size="10.00">client/src/Scenes/PauseScene.cpp</text>
</a>
</g>
</g>
<!-- Node27&#45;&gt;Node28 -->
<g id="edge39_Node000027_Node000028" class="edge">
<title>Node27&#45;&gt;Node28</title>
<g id="a_edge39_Node000027_Node000028"><a xlink:title=" ">
<path fill="none" stroke="#63b8ff" d="M1315.49,-112.45C1324.34,-101.27 1334.37,-88.57 1340.9,-80.32"/>
<polygon fill="#63b8ff" stroke="#63b8ff" points="1312.84,-110.16 1309.39,-120.18 1318.33,-114.5 1312.84,-110.16"/>
</a>
</g>
</g>
<!-- Node29&#45;&gt;Node2 -->
<g id="edge41_Node000029_Node000002" class="edge">
<title>Node29&#45;&gt;Node2</title>
<g id="a_edge41_Node000029_Node000002"><a xlink:title=" ">
<path fill="none" stroke="#63b8ff" d="M1357.62,-121.26C1243.21,-101.19 1210.67,-107.34 1098.88,-85.75 1096.17,-85.23 1093.4,-84.66 1090.62,-84.05"/>
<polygon fill="#63b8ff" stroke="#63b8ff" points="1357.01,-124.71 1367.47,-123.02 1358.24,-117.81 1357.01,-124.71"/>
</a>
</g>
</g>
<!-- Node30 -->
<g id="Node000030" class="node">
<title>Node30</title>
<g id="a_Node000030"><a xlink:href="PlayingScene_8cpp.html" target="_top" xlink:title=" ">
<polygon fill="white" stroke="#666666" points="1577.38,-85.75 1450.38,-85.75 1450.38,-55.25 1577.38,-55.25 1577.38,-85.75"/>
<text xml:space="preserve" text-anchor="start" x="1458.38" y="-72.25" font-family="Helvetica,sans-Serif" font-size="10.00">client/src/Scenes/Playing</text>
<text xml:space="preserve" text-anchor="middle" x="1513.88" y="-61" font-family="Helvetica,sans-Serif" font-size="10.00">Scene.cpp</text>
</a>
</g>
</g>
<!-- Node29&#45;&gt;Node30 -->
<g id="edge42_Node000029_Node000030" class="edge">
<title>Node29&#45;&gt;Node30</title>
<g id="a_edge42_Node000029_Node000030"><a xlink:title=" ">
<path fill="none" stroke="#63b8ff" d="M1453.43,-114.82C1466.57,-105.41 1481.7,-94.56 1493.53,-86.08"/>
<polygon fill="#63b8ff" stroke="#63b8ff" points="1451.62,-111.81 1445.53,-120.48 1455.69,-117.5 1451.62,-111.81"/>
</a>
</g>
</g>
<!-- Node31&#45;&gt;Node2 -->
<g id="edge44_Node000031_Node000002" class="edge">
<title>Node31&#45;&gt;Node2</title>
<g id="a_edge44_Node000031_Node000002"><a xlink:title=" ">
<path fill="none" stroke="#63b8ff" d="M1485.41,-121.5C1314.09,-97.38 1266.45,-114.28 1098.88,-85.75 1096.16,-85.29 1093.38,-84.76 1090.59,-84.2"/>
<polygon fill="#63b8ff" stroke="#63b8ff" points="1484.71,-124.94 1495.1,-122.9 1485.7,-118.01 1484.71,-124.94"/>
</a>
</g>
</g>
<!-- Node32 -->
<g id="Node000032" class="node">
<title>Node32</title>
<g id="a_Node000032"><a xlink:href="RoomWaitingScene_8cpp.html" target="_top" xlink:title=" ">
<polygon fill="white" stroke="#666666" points="1748.5,-85.75 1595.25,-85.75 1595.25,-55.25 1748.5,-55.25 1748.5,-85.75"/>
<text xml:space="preserve" text-anchor="start" x="1603.25" y="-72.25" font-family="Helvetica,sans-Serif" font-size="10.00">client/src/Scenes/RoomWaiting</text>
<text xml:space="preserve" text-anchor="middle" x="1671.88" y="-61" font-family="Helvetica,sans-Serif" font-size="10.00">Scene.cpp</text>
</a>
</g>
</g>
<!-- Node31&#45;&gt;Node32 -->
<g id="edge45_Node000031_Node000032" class="edge">
<title>Node31&#45;&gt;Node32</title>
<g id="a_edge45_Node000031_Node000032"><a xlink:title=" ">
<path fill="none" stroke="#63b8ff" d="M1594.08,-115.91C1610.99,-106.25 1630.9,-94.89 1646.34,-86.08"/>
<polygon fill="#63b8ff" stroke="#63b8ff" points="1592.78,-112.62 1585.83,-120.61 1596.25,-118.7 1592.78,-112.62"/>
</a>
</g>
</g>
<!-- Node33&#45;&gt;Node2 -->
<g id="edge47_Node000033_Node000002" class="edge">
<title>Node33&#45;&gt;Node2</title>
<g id="a_edge47_Node000033_Node000002"><a xlink:title=" ">
<path fill="none" stroke="#63b8ff" d="M1627.88,-121.64C1393.74,-89.01 1328.88,-122 1098.88,-85.75 1096.15,-85.32 1093.37,-84.82 1090.58,-84.28"/>
<polygon fill="#63b8ff" stroke="#63b8ff" points="1627.27,-125.09 1637.66,-123.03 1628.26,-118.16 1627.27,-125.09"/>
</a>
</g>
</g>
<!-- Node34 -->
<g id="Node000034" class="node">
<title>Node34</title>
<g id="a_Node000034"><a xlink:href="SettingsScene_8cpp.html" target="_top" xlink:title=" ">
<polygon fill="white" stroke="#666666" points="1897.25,-85.75 1766.5,-85.75 1766.5,-55.25 1897.25,-55.25 1897.25,-85.75"/>
<text xml:space="preserve" text-anchor="start" x="1774.5" y="-72.25" font-family="Helvetica,sans-Serif" font-size="10.00">client/src/Scenes/Settings</text>
<text xml:space="preserve" text-anchor="middle" x="1831.88" y="-61" font-family="Helvetica,sans-Serif" font-size="10.00">Scene.cpp</text>
</a>
</g>
</g>
<!-- Node33&#45;&gt;Node34 -->
<g id="edge48_Node000033_Node000034" class="edge">
<title>Node33&#45;&gt;Node34</title>
<g id="a_edge48_Node000033_Node000034"><a xlink:title=" ">
<path fill="none" stroke="#63b8ff" d="M1735.42,-116.58C1756.39,-106.78 1781.39,-95.1 1800.68,-86.08"/>
<polygon fill="#63b8ff" stroke="#63b8ff" points="1734.14,-113.32 1726.56,-120.72 1737.1,-119.66 1734.14,-113.32"/>
</a>
</g>
</g>
</g>
</svg>

<g id="navigator" transform="translate(0 0)" fill="#404254">
  <rect fill="#f2f5e9" fill-opacity="0.5" stroke="#606060" stroke-width=".5" x="0" y="0" width="60" height="60"/>
  <use id="zoomplus" xlink:href="#zoomPlus" x="17" y="9" onmousedown="handleZoom(evt,'in')"/>
  <use id="zoomminus" xlink:href="#zoomMin" x="42" y="9" onmousedown="handleZoom(evt,'out')"/>
  <use id="reset" xlink:href="#resetDef" x="30" y="36" onmousedown="handleReset()"/>
   <use id="arrowup" xlink:href="#arrowUp" x="0" y="0" onmousedown="handlePan(0,-1)"/>
  <use id="arrowright" xlink:href="#arrowRight" x="0" y="0" onmousedown="handlePan(1,0)"/>
  <use id="arrowdown" xlink:href="#arrowDown" x="0" y="0" onmousedown="handlePan(0,1)"/>
  <use id="arrowleft" xlink:href="#arrowLeft" x="0" y="0" onmousedown="handlePan(-1,0)"/>
</g>
<svg viewBox="0 0 15 15" width="100%" height="30px" preserveAspectRatio="xMaxYMin meet">
 <g id="arrow_out" transform="scale(0.3 0.3)">
  <a xlink:href="Dropdown_8hpp__dep__incl_org.svg" target="_base">
   <rect id="button" ry="5" rx="5" y="6" x="6" height="38" width="38"
        fill="#f2f5e9" fill-opacity="0.5" stroke="#606060" stroke-width="1.0"/>
   <path id="arrow"
     d="M 11.500037,31.436501 C 11.940474,20.09759 22.043105,11.32322 32.158766,21.979434 L 37.068811,17.246167 C 37.068811,17.246167 37.088388,32 37.088388,32 L 22.160133,31.978069 C 22.160133,31.978069 26.997745,27.140456 26.997745,27.140456 C 18.528582,18.264221 13.291696,25.230495 11.500037,31.436501 z"
     style="fill:#404040;"/>
  </a>
 </g>
</svg>

<style type='text/css'>
<![CDATA[
[data-mouse-over-selected='false'] { opacity: 0.7; }
[data-mouse-over-selected='true']  { opacity: 1.0; }
]]>
</style>
<script type="application/ecmascript"><![CDATA[
document.addEventListener('DOMContentLoaded', (event) => {
  highlightEdges();
  highlightAdjacentNodes();
});
]]></script>
</svg>
