<?xml version="1.0" encoding="UTF-8" standalone="no"?>
<!DOCTYPE svg PUBLIC "-//W3C//DTD SVG 1.1//EN"
 "http://www.w3.org/Graphics/SVG/1.1/DTD/svg11.dtd">
<!-- Generated by graphviz version 14.0.5 (20251129.0259)
 -->
<!-- Title: common/include/RType/System/DynamicLibrary.hpp Pages: 1 -->
<svg width="580pt" height="204pt"
 viewBox="0.00 0.00 580.00 204.00" xmlns="http://www.w3.org/2000/svg" xmlns:xlink="http://www.w3.org/1999/xlink">
<g id="graph0" class="graph" transform="scale(1 1) rotate(0) translate(4 200.25)">
<title>common/include/RType/System/DynamicLibrary.hpp</title>
<!-- Node1 -->
<g id="Node000001" class="node">
<title>Node1</title>
<g id="a_Node000001"><a xlink:title="Declaration of the DynamicLibrary class.">
<polygon fill="#999999" stroke="#666666" points="441.38,-196.25 300.12,-196.25 300.12,-165.75 441.38,-165.75 441.38,-196.25"/>
<text xml:space="preserve" text-anchor="start" x="308.12" y="-182.75" font-family="Helvetica,sans-Serif" font-size="10.00">common/include/RType</text>
<text xml:space="preserve" text-anchor="middle" x="370.75" y="-171.5" font-family="Helvetica,sans-Serif" font-size="10.00">/System/DynamicLibrary.hpp</text>
</a>
</g>
</g>
<!-- Node2 -->
<g id="Node000002" class="node">
<title>Node2</title>
<g id="a_Node000002"><a xlink:href="Error_8hpp.html" target="_top" xlink:title="Error handling system with categorized error codes.">
<polygon fill="white" stroke="#666666" points="343,-129.75 256.5,-129.75 256.5,-110.5 343,-110.5 343,-129.75"/>
<text xml:space="preserve" text-anchor="middle" x="299.75" y="-116.25" font-family="Helvetica,sans-Serif" font-size="10.00">RType/Error.hpp</text>
</a>
</g>
</g>
<!-- Node1&#45;&gt;Node2 -->
<g id="edge1_Node000001_Node000002" class="edge">
<title>Node1&#45;&gt;Node2</title>
<g id="a_edge1_Node000001_Node000002"><a xlink:title=" ">
<path fill="none" stroke="#63b8ff" d="M353.2,-165.45C342.91,-156.91 329.89,-146.12 319.27,-137.31"/>
<polygon fill="#63b8ff" stroke="#63b8ff" points="321.79,-134.86 311.86,-131.17 317.32,-140.24 321.79,-134.86"/>
</a>
</g>
</g>
<!-- Node6 -->
<g id="Node000006" class="node">
<title>Node6</title>
<g id="a_Node000006"><a xlink:title=" ">
<polygon fill="#e0e0e0" stroke="#999999" points="65.5,-19.25 0,-19.25 0,0 65.5,0 65.5,-19.25"/>
<text xml:space="preserve" text-anchor="middle" x="32.75" y="-5.75" font-family="Helvetica,sans-Serif" font-size="10.00">string_view</text>
</a>
</g>
</g>
<!-- Node1&#45;&gt;Node6 -->
<g id="edge18_Node000001_Node000006" class="edge">
<title>Node1&#45;&gt;Node6</title>
<g id="a_edge18_Node000001_Node000006"><a xlink:title=" ">
<path fill="none" stroke="#63b8ff" d="M299.69,-167.58C210.98,-150.48 66.94,-116.94 34.75,-74.5 25.41,-62.18 25.64,-44.35 27.8,-30.65"/>
<polygon fill="#63b8ff" stroke="#63b8ff" points="31.2,-31.5 29.79,-21 24.34,-30.09 31.2,-31.5"/>
</a>
</g>
</g>
<!-- Node9 -->
<g id="Node000009" class="node">
<title>Node9</title>
<g id="a_Node000009"><a xlink:title=" ">
<polygon fill="#e0e0e0" stroke="#999999" points="567.75,-74.5 527.75,-74.5 527.75,-55.25 567.75,-55.25 567.75,-74.5"/>
<text xml:space="preserve" text-anchor="middle" x="547.75" y="-61" font-family="Helvetica,sans-Serif" font-size="10.00">string</text>
</a>
</g>
</g>
<!-- Node1&#45;&gt;Node9 -->
<g id="edge17_Node000001_Node000009" class="edge">
<title>Node1&#45;&gt;Node9</title>
<g id="a_edge17_Node000001_Node000009"><a xlink:title=" ">
<path fill="none" stroke="#63b8ff" d="M370.74,-165.45C371.53,-149.79 375.22,-125.16 389.75,-110.5 394.3,-105.91 471.65,-85.44 516.4,-73.88"/>
<polygon fill="#63b8ff" stroke="#63b8ff" points="517.27,-77.28 526.08,-71.4 515.52,-70.5 517.27,-77.28"/>
</a>
</g>
</g>
<!-- Node13 -->
<g id="Node000013" class="node">
<title>Node13</title>
<g id="a_Node000013"><a xlink:title=" ">
<polygon fill="#e0e0e0" stroke="#999999" points="454.62,-129.75 398.88,-129.75 398.88,-110.5 454.62,-110.5 454.62,-129.75"/>
<text xml:space="preserve" text-anchor="middle" x="426.75" y="-116.25" font-family="Helvetica,sans-Serif" font-size="10.00">expected</text>
</a>
</g>
</g>
<!-- Node1&#45;&gt;Node13 -->
<g id="edge16_Node000001_Node000013" class="edge">
<title>Node1&#45;&gt;Node13</title>
<g id="a_edge16_Node000001_Node000013"><a xlink:title=" ">
<path fill="none" stroke="#63b8ff" d="M384.59,-165.45C392.38,-157.26 402.15,-146.98 410.33,-138.39"/>
<polygon fill="#63b8ff" stroke="#63b8ff" points="412.72,-140.96 417.07,-131.3 407.65,-136.13 412.72,-140.96"/>
</a>
</g>
</g>
<!-- Node14 -->
<g id="Node000014" class="node">
<title>Node14</title>
<g id="a_Node000014"><a xlink:href="DynamicLibrary_8tpp.html" target="_top" xlink:title=" ">
<polygon fill="white" stroke="#666666" points="572.38,-129.75 473.12,-129.75 473.12,-110.5 572.38,-110.5 572.38,-129.75"/>
<text xml:space="preserve" text-anchor="middle" x="522.75" y="-116.25" font-family="Helvetica,sans-Serif" font-size="10.00">DynamicLibrary.tpp</text>
</a>
</g>
</g>
<!-- Node1&#45;&gt;Node14 -->
<g id="edge19_Node000001_Node000014" class="edge">
<title>Node1&#45;&gt;Node14</title>
<g id="a_edge19_Node000001_Node000014"><a xlink:title=" ">
<path fill="none" stroke="#63b8ff" d="M408.71,-165.3C433.31,-155.77 465.06,-143.47 488.82,-134.27"/>
<polygon fill="#63b8ff" stroke="#63b8ff" points="489.97,-137.58 498.03,-130.7 487.44,-131.05 489.97,-137.58"/>
</a>
</g>
</g>
<!-- Node3 -->
<g id="Node000003" class="node">
<title>Node3</title>
<g id="a_Node000003"><a xlink:href="LogLevel_8hpp.html" target="_top" xlink:title="Log severity levels for the logging system.">
<polygon fill="white" stroke="#666666" points="433.38,-74.5 328.12,-74.5 328.12,-55.25 433.38,-55.25 433.38,-74.5"/>
<text xml:space="preserve" text-anchor="middle" x="380.75" y="-61" font-family="Helvetica,sans-Serif" font-size="10.00">RType/LogLevel.hpp</text>
</a>
</g>
</g>
<!-- Node2&#45;&gt;Node3 -->
<g id="edge2_Node000002_Node000003" class="edge">
<title>Node2&#45;&gt;Node3</title>
<g id="a_edge2_Node000002_Node000003"><a xlink:title=" ">
<path fill="none" stroke="#63b8ff" d="M313.49,-110.09C325.48,-102.21 343.12,-90.61 357.33,-81.27"/>
<polygon fill="#63b8ff" stroke="#63b8ff" points="359.24,-84.2 365.68,-75.78 355.4,-78.35 359.24,-84.2"/>
</a>
</g>
</g>
<!-- Node4 -->
<g id="Node000004" class="node">
<title>Node4</title>
<g id="a_Node000004"><a xlink:title=" ">
<polygon fill="#e0e0e0" stroke="#999999" points="322.38,-19.25 277.12,-19.25 277.12,0 322.38,0 322.38,-19.25"/>
<text xml:space="preserve" text-anchor="middle" x="299.75" y="-5.75" font-family="Helvetica,sans-Serif" font-size="10.00">cstdint</text>
</a>
</g>
</g>
<!-- Node2&#45;&gt;Node4 -->
<g id="edge8_Node000002_Node000004" class="edge">
<title>Node2&#45;&gt;Node4</title>
<g id="a_edge8_Node000002_Node000004"><a xlink:title=" ">
<path fill="none" stroke="#63b8ff" d="M299.75,-110.25C299.75,-93 299.75,-54.58 299.75,-30.81"/>
<polygon fill="#63b8ff" stroke="#63b8ff" points="303.25,-31.14 299.75,-21.14 296.25,-31.14 303.25,-31.14"/>
</a>
</g>
</g>
<!-- Node5 -->
<g id="Node000005" class="node">
<title>Node5</title>
<g id="a_Node000005"><a xlink:title=" ">
<polygon fill="#e0e0e0" stroke="#999999" points="470.62,-19.25 426.88,-19.25 426.88,0 470.62,0 470.62,-19.25"/>
<text xml:space="preserve" text-anchor="middle" x="448.75" y="-5.75" font-family="Helvetica,sans-Serif" font-size="10.00">format</text>
</a>
</g>
</g>
<!-- Node2&#45;&gt;Node5 -->
<g id="edge9_Node000002_Node000005" class="edge">
<title>Node2&#45;&gt;Node5</title>
<g id="a_edge9_Node000002_Node000005"><a xlink:title=" ">
<path fill="none" stroke="#63b8ff" d="M343.4,-111C380.64,-103.13 430.1,-90.11 442.75,-74.5 452.52,-62.44 453.43,-44.59 452.23,-30.82"/>
<polygon fill="#63b8ff" stroke="#63b8ff" points="455.73,-30.55 450.94,-21.1 448.79,-31.48 455.73,-30.55"/>
</a>
</g>
</g>
<!-- Node2&#45;&gt;Node6 -->
<g id="edge11_Node000002_Node000006" class="edge">
<title>Node2&#45;&gt;Node6</title>
<g id="a_edge11_Node000002_Node000006"><a xlink:title=" ">
<path fill="none" stroke="#63b8ff" d="M256.22,-116.69C193.32,-112.31 81.3,-100.93 51.75,-74.5 39.48,-63.52 34.98,-45.01 33.4,-30.73"/>
<polygon fill="#63b8ff" stroke="#63b8ff" points="36.92,-30.82 32.75,-21.08 29.93,-31.3 36.92,-30.82"/>
</a>
</g>
</g>
<!-- Node7 -->
<g id="Node000007" class="node">
<title>Node7</title>
<g id="a_Node000007"><a xlink:title=" ">
<polygon fill="#e0e0e0" stroke="#999999" points="528.38,-19.25 489.12,-19.25 489.12,0 528.38,0 528.38,-19.25"/>
<text xml:space="preserve" text-anchor="middle" x="508.75" y="-5.75" font-family="Helvetica,sans-Serif" font-size="10.00">utility</text>
</a>
</g>
</g>
<!-- Node2&#45;&gt;Node7 -->
<g id="edge13_Node000002_Node000007" class="edge">
<title>Node2&#45;&gt;Node7</title>
<g id="a_edge13_Node000002_Node000007"><a xlink:title=" ">
<path fill="none" stroke="#63b8ff" d="M343.3,-114.81C377.66,-109.67 425.52,-98.52 460.75,-74.5 477.56,-63.04 490.86,-43.76 499.15,-29.37"/>
<polygon fill="#63b8ff" stroke="#63b8ff" points="502.08,-31.32 503.78,-20.86 495.93,-27.97 502.08,-31.32"/>
</a>
</g>
</g>
<!-- Node2&#45;&gt;Node9 -->
<g id="edge10_Node000002_Node000009" class="edge">
<title>Node2&#45;&gt;Node9</title>
<g id="a_edge10_Node000002_Node000009"><a xlink:title=" ">
<path fill="none" stroke="#63b8ff" d="M343.32,-110.61C386.64,-102.01 454.95,-88.08 513.75,-74.5 514.57,-74.31 515.41,-74.11 516.25,-73.92"/>
<polygon fill="#63b8ff" stroke="#63b8ff" points="516.94,-77.35 525.82,-71.58 515.27,-70.55 516.94,-77.35"/>
</a>
</g>
</g>
<!-- Node10 -->
<g id="Node000010" class="node">
<title>Node10</title>
<g id="a_Node000010"><a xlink:title=" ">
<polygon fill="#e0e0e0" stroke="#999999" points="134.25,-74.5 61.25,-74.5 61.25,-55.25 134.25,-55.25 134.25,-74.5"/>
<text xml:space="preserve" text-anchor="middle" x="97.75" y="-61" font-family="Helvetica,sans-Serif" font-size="10.00">system_error</text>
</a>
</g>
</g>
<!-- Node2&#45;&gt;Node10 -->
<g id="edge12_Node000002_Node000010" class="edge">
<title>Node2&#45;&gt;Node10</title>
<g id="a_edge12_Node000002_Node000010"><a xlink:title=" ">
<path fill="none" stroke="#63b8ff" d="M265.48,-110.09C231.82,-101.22 180.26,-87.62 143.19,-77.85"/>
<polygon fill="#63b8ff" stroke="#63b8ff" points="144.21,-74.5 133.65,-75.34 142.43,-81.27 144.21,-74.5"/>
</a>
</g>
</g>
<!-- Node11 -->
<g id="Node000011" class="node">
<title>Node11</title>
<g id="a_Node000011"><a xlink:title=" ">
<polygon fill="#e0e0e0" stroke="#999999" points="201.25,-74.5 152.25,-74.5 152.25,-55.25 201.25,-55.25 201.25,-74.5"/>
<text xml:space="preserve" text-anchor="middle" x="176.75" y="-61" font-family="Helvetica,sans-Serif" font-size="10.00">Error.inl</text>
</a>
</g>
</g>
<!-- Node2&#45;&gt;Node11 -->
<g id="edge14_Node000002_Node000011" class="edge">
<title>Node2&#45;&gt;Node11</title>
<g id="a_edge14_Node000002_Node000011"><a xlink:title=" ">
<path fill="none" stroke="#63b8ff" d="M278.88,-110.09C259.45,-101.68 230.21,-89.02 207.99,-79.4"/>
<polygon fill="#63b8ff" stroke="#63b8ff" points="209.67,-76.31 199.11,-75.55 206.89,-82.74 209.67,-76.31"/>
</a>
</g>
</g>
<!-- Node12 -->
<g id="Node000012" class="node">
<title>Node12</title>
<g id="a_Node000012"><a xlink:href="Error_8tpp.html" target="_top" xlink:title=" ">
<polygon fill="white" stroke="#666666" points="272.12,-74.5 219.38,-74.5 219.38,-55.25 272.12,-55.25 272.12,-74.5"/>
<text xml:space="preserve" text-anchor="middle" x="245.75" y="-61" font-family="Helvetica,sans-Serif" font-size="10.00">Error.tpp</text>
</a>
</g>
</g>
<!-- Node2&#45;&gt;Node12 -->
<g id="edge15_Node000002_Node000012" class="edge">
<title>Node2&#45;&gt;Node12</title>
<g id="a_edge15_Node000002_Node000012"><a xlink:title=" ">
<path fill="none" stroke="#63b8ff" d="M290.83,-110.33C283.3,-102.9 272.28,-92.04 263.02,-82.91"/>
<polygon fill="#63b8ff" stroke="#63b8ff" points="265.52,-80.45 255.94,-75.92 260.6,-85.44 265.52,-80.45"/>
</a>
</g>
</g>
<!-- Node3&#45;&gt;Node4 -->
<g id="edge3_Node000003_Node000004" class="edge">
<title>Node3&#45;&gt;Node4</title>
<g id="a_edge3_Node000003_Node000004"><a xlink:title=" ">
<path fill="none" stroke="#63b8ff" d="M367.01,-54.84C355.02,-46.96 337.38,-35.36 323.17,-26.02"/>
<polygon fill="#63b8ff" stroke="#63b8ff" points="325.1,-23.1 314.82,-20.53 321.26,-28.95 325.1,-23.1"/>
</a>
</g>
</g>
<!-- Node3&#45;&gt;Node5 -->
<g id="edge4_Node000003_Node000005" class="edge">
<title>Node3&#45;&gt;Node5</title>
<g id="a_edge4_Node000003_Node000005"><a xlink:title=" ">
<path fill="none" stroke="#63b8ff" d="M392.29,-54.84C402.21,-47.07 416.76,-35.67 428.61,-26.4"/>
<polygon fill="#63b8ff" stroke="#63b8ff" points="430.48,-29.38 436.19,-20.46 426.16,-23.87 430.48,-29.38"/>
</a>
</g>
</g>
<!-- Node3&#45;&gt;Node6 -->
<g id="edge5_Node000003_Node000006" class="edge">
<title>Node3&#45;&gt;Node6</title>
<g id="a_edge5_Node000003_Node000006"><a xlink:title=" ">
<path fill="none" stroke="#63b8ff" d="M327.9,-55.79C259.34,-45.3 140.97,-27.18 76.95,-17.39"/>
<polygon fill="#63b8ff" stroke="#63b8ff" points="77.56,-13.94 67.14,-15.89 76.5,-20.86 77.56,-13.94"/>
</a>
</g>
</g>
<!-- Node3&#45;&gt;Node7 -->
<g id="edge6_Node000003_Node000007" class="edge">
<title>Node3&#45;&gt;Node7</title>
<g id="a_edge6_Node000003_Node000007"><a xlink:title=" ">
<path fill="none" stroke="#63b8ff" d="M402.46,-54.84C423.4,-46.13 455.26,-32.88 478.64,-23.15"/>
<polygon fill="#63b8ff" stroke="#63b8ff" points="479.75,-26.48 487.64,-19.41 477.06,-20.02 479.75,-26.48"/>
</a>
</g>
</g>
<!-- Node8 -->
<g id="Node000008" class="node">
<title>Node8</title>
<g id="a_Node000008"><a xlink:title=" ">
<polygon fill="#e0e0e0" stroke="#999999" points="408.62,-19.25 340.88,-19.25 340.88,0 408.62,0 408.62,-19.25"/>
<text xml:space="preserve" text-anchor="middle" x="374.75" y="-5.75" font-family="Helvetica,sans-Serif" font-size="10.00">LogLevel.inl</text>
</a>
</g>
</g>
<!-- Node3&#45;&gt;Node8 -->
<g id="edge7_Node000003_Node000008" class="edge">
<title>Node3&#45;&gt;Node8</title>
<g id="a_edge7_Node000003_Node000008"><a xlink:title=" ">
<path fill="none" stroke="#63b8ff" d="M379.76,-55.08C379.02,-48.49 377.97,-39.21 377.03,-30.82"/>
<polygon fill="#63b8ff" stroke="#63b8ff" points="380.53,-30.66 375.93,-21.11 373.57,-31.44 380.53,-30.66"/>
</a>
</g>
</g>
</g>
</svg>
