<?xml version="1.0" encoding="UTF-8" standalone="no"?>
<!DOCTYPE svg PUBLIC "-//W3C//DTD SVG 1.1//EN"
 "http://www.w3.org/Graphics/SVG/1.1/DTD/svg11.dtd">
<!-- Generated by graphviz version 14.0.5 (20251129.0259)
 -->
<!-- Title: common/include/RType/System/DynamicLibrary.hpp Pages: 1 -->
<svg width="316pt" height="172pt"
 viewBox="0.00 0.00 316.00 172.00" xmlns="http://www.w3.org/2000/svg" xmlns:xlink="http://www.w3.org/1999/xlink">
<g id="graph0" class="graph" transform="scale(1 1) rotate(0) translate(4 167.5)">
<title>common/include/RType/System/DynamicLibrary.hpp</title>
<!-- Node1 -->
<g id="Node000001" class="node">
<title>Node1</title>
<g id="a_Node000001"><a xlink:title="Declaration of the DynamicLibrary class.">
<polygon fill="#999999" stroke="#666666" points="221.88,-163.5 80.62,-163.5 80.62,-133 221.88,-133 221.88,-163.5"/>
<text xml:space="preserve" text-anchor="start" x="88.62" y="-150" font-family="Helvetica,sans-Serif" font-size="10.00">common/include/RType</text>
<text xml:space="preserve" text-anchor="middle" x="151.25" y="-138.75" font-family="Helvetica,sans-Serif" font-size="10.00">/System/DynamicLibrary.hpp</text>
</a>
</g>
</g>
<!-- Node2 -->
<g id="Node000002" class="node">
<title>Node2</title>
<g id="a_Node000002"><a xlink:href="LibraryManager_8hpp.html" target="_top" xlink:title="Declaration of the Dynamic Library Manager.">
<polygon fill="white" stroke="#666666" points="140.5,-97 0,-97 0,-66.5 140.5,-66.5 140.5,-97"/>
<text xml:space="preserve" text-anchor="start" x="8" y="-83.5" font-family="Helvetica,sans-Serif" font-size="10.00">common/include/RType</text>
<text xml:space="preserve" text-anchor="middle" x="70.25" y="-72.25" font-family="Helvetica,sans-Serif" font-size="10.00">/System/LibraryManager.hpp</text>
</a>
</g>
</g>
<!-- Node1&#45;&gt;Node2 -->
<g id="edge1_Node000001_Node000002" class="edge">
<title>Node1&#45;&gt;Node2</title>
<g id="a_edge1_Node000001_Node000002"><a xlink:title=" ">
<path fill="none" stroke="#63b8ff" d="M123.96,-125.52C112.3,-116.23 99,-105.65 88.56,-97.33"/>
<polygon fill="#63b8ff" stroke="#63b8ff" points="121.68,-128.18 131.69,-131.67 126.04,-122.7 121.68,-128.18"/>
</a>
</g>
</g>
<!-- Node4 -->
<g id="Node000004" class="node">
<title>Node4</title>
<g id="a_Node000004"><a xlink:href="DynamicLibrary_8cpp.html" target="_top" xlink:title="Implementation of platform&#45;independent dynamic library wrapper.">
<polygon fill="white" stroke="#666666" points="307.62,-97 158.88,-97 158.88,-66.5 307.62,-66.5 307.62,-97"/>
<text xml:space="preserve" text-anchor="start" x="166.88" y="-83.5" font-family="Helvetica,sans-Serif" font-size="10.00">common/src/System/Dynamic</text>
<text xml:space="preserve" text-anchor="middle" x="233.25" y="-72.25" font-family="Helvetica,sans-Serif" font-size="10.00">Library.cpp</text>
</a>
</g>
</g>
<!-- Node1&#45;&gt;Node4 -->
<g id="edge3_Node000001_Node000004" class="edge">
<title>Node1&#45;&gt;Node4</title>
<g id="a_edge3_Node000001_Node000004"><a xlink:title=" ">
<path fill="none" stroke="#63b8ff" d="M178.88,-125.52C190.68,-116.23 204.14,-105.65 214.72,-97.33"/>
<polygon fill="#63b8ff" stroke="#63b8ff" points="176.74,-122.74 171.05,-131.68 181.07,-128.25 176.74,-122.74"/>
</a>
</g>
</g>
<!-- Node3 -->
<g id="Node000003" class="node">
<title>Node3</title>
<g id="a_Node000003"><a xlink:href="LibraryManager_8cpp.html" target="_top" xlink:title="Implementation of the Dynamic Library Manager.">
<polygon fill="white" stroke="#666666" points="139.75,-30.5 0.75,-30.5 0.75,0 139.75,0 139.75,-30.5"/>
<text xml:space="preserve" text-anchor="start" x="8.75" y="-17" font-family="Helvetica,sans-Serif" font-size="10.00">common/src/System/Library</text>
<text xml:space="preserve" text-anchor="middle" x="70.25" y="-5.75" font-family="Helvetica,sans-Serif" font-size="10.00">Manager.cpp</text>
</a>
</g>
</g>
<!-- Node2&#45;&gt;Node3 -->
<g id="edge2_Node000002_Node000003" class="edge">
<title>Node2&#45;&gt;Node3</title>
<g id="a_edge2_Node000002_Node000003"><a xlink:title=" ">
<path fill="none" stroke="#63b8ff" d="M70.25,-54.81C70.25,-46.64 70.25,-37.91 70.25,-30.83"/>
<polygon fill="#63b8ff" stroke="#63b8ff" points="66.75,-54.6 70.25,-64.6 73.75,-54.6 66.75,-54.6"/>
</a>
</g>
</g>
</g>
</svg>
