<?xml version="1.0" encoding="UTF-8" standalone="no"?>
<!DOCTYPE svg PUBLIC "-//W3C//DTD SVG 1.1//EN"
 "http://www.w3.org/Graphics/SVG/1.1/DTD/svg11.dtd">
<!-- Generated by graphviz version 14.0.5 (20251129.0259)
 -->
<!-- Title: common/src/System/DynamicLibrary.cpp Pages: 1 -->
<!--zoomable 260 -->

<svg id="main" version="1.1" xmlns="http://www.w3.org/2000/svg" xmlns:xlink="http://www.w3.org/1999/xlink" xml:space="preserve" onload="init(evt)">

<style type="text/css"><![CDATA[
.node, .edge {opacity: 0.7;}
.node.selected, .edge.selected {opacity: 1;}
.edge:hover path { stroke: red; }
.edge:hover polygon { stroke: red; fill: red; }
]]></style>

<defs>
  <circle id="rim" cx="0" cy="0" r="7"/>
  <circle id="rim2" cx="0" cy="0" r="3.5"/>
  <g id="zoomPlus">
    <use xlink:href="#rim" fill="#404040"><set attributeName="fill" to="#808080" begin="zoomplus.mouseover" end="zoomplus.mouseout"/></use>
    <path d="M-4,0h8M0,-4v8" fill="none" stroke="white" stroke-width="1.5" pointer-events="none"/>
  </g>
  <g id="zoomMin">
    <use xlink:href="#rim" fill="#404040"><set attributeName="fill" to="#808080" begin="zoomminus.mouseover" end="zoomminus.mouseout"/></use>
    <path d="M-4,0h8" fill="none" stroke="white" stroke-width="1.5" pointer-events="none"/>
  </g>
  <g id="arrowUp" transform="translate(30 24)">
    <use xlink:href="#rim"/>
    <path pointer-events="none" fill="none" stroke="white" stroke-width="1.5" d="M0,-3.0v7 M-2.5,-0.5L0,-3.0L2.5,-0.5"/>
  </g>
  <g id="arrowRight" transform="rotate(90) translate(36 -43)">
    <use xlink:href="#rim"/>
    <path pointer-events="none" fill="none" stroke="white" stroke-width="1.5" d="M0,-3.0v7 M-2.5,-0.5L0,-3.0L2.5,-0.5"/>
  </g>
  <g id="arrowDown" transform="rotate(180) translate(-30 -48)">
    <use xlink:href="#rim"/>
    <path pointer-events="none" fill="none" stroke="white" stroke-width="1.5" d="M0,-3.0v7 M-2.5,-0.5L0,-3.0L2.5,-0.5"/>
  </g>
  <g id="arrowLeft" transform="rotate(270) translate(-36 17)">
    <use xlink:href="#rim"/>
    <path pointer-events="none" fill="none" stroke="white" stroke-width="1.5" d="M0,-3.0v7 M-2.5,-0.5L0,-3.0L2.5,-0.5"/>
  </g>
  <g id="resetDef">
    <use xlink:href="#rim2" fill="#404040"><set attributeName="fill" to="#808080" begin="reset.mouseover" end="reset.mouseout"/></use>
  </g>
</defs>
<script type="application/ecmascript">
var viewWidth = 890;
var viewHeight = 260;
var sectionId = 'dynsection-0';
</script>
<script type="application/ecmascript" xlink:href="svg.min.js"/>
<svg id="graph" class="graph">
<g id="viewport">
<title>common/src/System/DynamicLibrary.cpp</title>
<!-- Node1 -->
<g id="Node000001" class="node">
<title>Node1</title>
<g id="a_Node000001"><a xlink:title="Implementation of platform&#45;independent dynamic library wrapper.">
<polygon fill="#999999" stroke="#666666" points="732.25,-251.5 583.5,-251.5 583.5,-221 732.25,-221 732.25,-251.5"/>
<text xml:space="preserve" text-anchor="start" x="591.5" y="-238" font-family="Helvetica,sans-Serif" font-size="10.00">common/src/System/Dynamic</text>
<text xml:space="preserve" text-anchor="middle" x="657.88" y="-226.75" font-family="Helvetica,sans-Serif" font-size="10.00">Library.cpp</text>
</a>
</g>
</g>
<!-- Node2 -->
<g id="Node000002" class="node">
<title>Node2</title>
<g id="a_Node000002"><a xlink:href="Logger_8hpp.html" target="_top" xlink:title="Logger declaration with support for multiple log levels.">
<polygon fill="white" stroke="#666666" points="381.25,-185 286.5,-185 286.5,-165.75 381.25,-165.75 381.25,-185"/>
<text xml:space="preserve" text-anchor="middle" x="333.88" y="-171.5" font-family="Helvetica,sans-Serif" font-size="10.00">RType/Logger.hpp</text>
</a>
</g>
</g>
<!-- Node1&#45;&gt;Node2 -->
<g id="edge1_Node000001_Node000002" class="edge">
<title>Node1&#45;&gt;Node2</title>
<g id="a_edge1_Node000001_Node000002"><a xlink:title=" ">
<path fill="none" stroke="#63b8ff" d="M583.14,-221.67C525.21,-211.14 446.07,-196.76 392.63,-187.05"/>
<polygon fill="#63b8ff" stroke="#63b8ff" points="393.58,-183.67 383.12,-185.32 392.33,-190.55 393.58,-183.67"/>
</a>
</g>
</g>
<!-- Node18 -->
<g id="Node000018" class="node">
<title>Node18</title>
<g id="a_Node000018"><a xlink:href="DynamicLibrary_8hpp.html" target="_top" xlink:title="Declaration of the DynamicLibrary class.">
<polygon fill="white" stroke="#666666" points="742.75,-185 573,-185 573,-165.75 742.75,-165.75 742.75,-185"/>
<text xml:space="preserve" text-anchor="middle" x="657.88" y="-171.5" font-family="Helvetica,sans-Serif" font-size="10.00">RType/System/DynamicLibrary.hpp</text>
</a>
</g>
</g>
<!-- Node1&#45;&gt;Node18 -->
<g id="edge26_Node000001_Node000018" class="edge">
<title>Node1&#45;&gt;Node18</title>
<g id="a_edge26_Node000001_Node000018"><a xlink:title=" ">
<path fill="none" stroke="#63b8ff" d="M657.88,-220.7C657.88,-213.46 657.88,-204.59 657.88,-196.69"/>
<polygon fill="#63b8ff" stroke="#63b8ff" points="661.38,-196.96 657.88,-186.96 654.38,-196.96 661.38,-196.96"/>
</a>
</g>
</g>
<!-- Node20 -->
<g id="Node000020" class="node">
<title>Node20</title>
<g id="a_Node000020"><a xlink:href="LibraryBackend_8hpp.html" target="_top" xlink:title="Declarations for platform&#45;specific dynamic library handling.">
<polygon fill="white" stroke="#666666" points="864,-185 761.75,-185 761.75,-165.75 864,-165.75 864,-185"/>
<text xml:space="preserve" text-anchor="middle" x="812.88" y="-171.5" font-family="Helvetica,sans-Serif" font-size="10.00">LibraryBackend.hpp</text>
</a>
</g>
</g>
<!-- Node1&#45;&gt;Node20 -->
<g id="edge32_Node000001_Node000020" class="edge">
<title>Node1&#45;&gt;Node20</title>
<g id="a_edge32_Node000001_Node000020"><a xlink:title=" ">
<path fill="none" stroke="#63b8ff" d="M696.59,-220.55C721.78,-210.98 754.34,-198.61 778.6,-189.39"/>
<polygon fill="#63b8ff" stroke="#63b8ff" points="779.58,-192.76 787.69,-185.94 777.1,-186.22 779.58,-192.76"/>
</a>
</g>
</g>
<!-- Node3 -->
<g id="Node000003" class="node">
<title>Node3</title>
<g id="a_Node000003"><a xlink:href="LogLevel_8hpp.html" target="_top" xlink:title="Log severity levels for the logging system.">
<polygon fill="white" stroke="#666666" points="337.5,-74.5 232.25,-74.5 232.25,-55.25 337.5,-55.25 337.5,-74.5"/>
<text xml:space="preserve" text-anchor="middle" x="284.88" y="-61" font-family="Helvetica,sans-Serif" font-size="10.00">RType/LogLevel.hpp</text>
</a>
</g>
</g>
<!-- Node2&#45;&gt;Node3 -->
<g id="edge2_Node000002_Node000003" class="edge">
<title>Node2&#45;&gt;Node3</title>
<g id="a_edge2_Node000002_Node000003"><a xlink:title=" ">
<path fill="none" stroke="#63b8ff" d="M317.65,-165.4C305.56,-157.71 289.97,-145.39 282.88,-129.75 276.62,-115.97 277.6,-98.74 279.88,-85.65"/>
<polygon fill="#63b8ff" stroke="#63b8ff" points="283.25,-86.61 281.95,-76.09 276.41,-85.12 283.25,-86.61"/>
</a>
</g>
</g>
<!-- Node5 -->
<g id="Node000005" class="node">
<title>Node5</title>
<g id="a_Node000005"><a xlink:title=" ">
<polygon fill="#e0e0e0" stroke="#999999" points="149.75,-19.25 106,-19.25 106,0 149.75,0 149.75,-19.25"/>
<text xml:space="preserve" text-anchor="middle" x="127.88" y="-5.75" font-family="Helvetica,sans-Serif" font-size="10.00">format</text>
</a>
</g>
</g>
<!-- Node2&#45;&gt;Node5 -->
<g id="edge19_Node000002_Node000005" class="edge">
<title>Node2&#45;&gt;Node5</title>
<g id="a_edge19_Node000002_Node000005"><a xlink:title=" ">
<path fill="none" stroke="#63b8ff" d="M286.24,-168.31C239.31,-161.35 172.05,-148.45 153.88,-129.75 128.01,-103.14 125.37,-57.11 126.29,-30.74"/>
<polygon fill="#63b8ff" stroke="#63b8ff" points="129.76,-31.24 126.84,-21.05 122.77,-30.83 129.76,-31.24"/>
</a>
</g>
</g>
<!-- Node6 -->
<g id="Node000006" class="node">
<title>Node6</title>
<g id="a_Node000006"><a xlink:title=" ">
<polygon fill="#e0e0e0" stroke="#999999" points="474.62,-19.25 409.12,-19.25 409.12,0 474.62,0 474.62,-19.25"/>
<text xml:space="preserve" text-anchor="middle" x="441.88" y="-5.75" font-family="Helvetica,sans-Serif" font-size="10.00">string_view</text>
</a>
</g>
</g>
<!-- Node2&#45;&gt;Node6 -->
<g id="edge22_Node000002_Node000006" class="edge">
<title>Node2&#45;&gt;Node6</title>
<g id="a_edge22_Node000002_Node000006"><a xlink:title=" ">
<path fill="none" stroke="#63b8ff" d="M346.93,-165.32C358.11,-157.06 374.06,-144 384.88,-129.75 408.81,-98.2 426.4,-54.99 435.31,-30.22"/>
<polygon fill="#63b8ff" stroke="#63b8ff" points="438.5,-31.7 438.47,-21.1 431.88,-29.4 438.5,-31.7"/>
</a>
</g>
</g>
<!-- Node7 -->
<g id="Node000007" class="node">
<title>Node7</title>
<g id="a_Node000007"><a xlink:title=" ">
<polygon fill="#e0e0e0" stroke="#999999" points="223.5,-19.25 184.25,-19.25 184.25,0 223.5,0 223.5,-19.25"/>
<text xml:space="preserve" text-anchor="middle" x="203.88" y="-5.75" font-family="Helvetica,sans-Serif" font-size="10.00">utility</text>
</a>
</g>
</g>
<!-- Node2&#45;&gt;Node7 -->
<g id="edge24_Node000002_Node000007" class="edge">
<title>Node2&#45;&gt;Node7</title>
<g id="a_edge24_Node000002_Node000007"><a xlink:title=" ">
<path fill="none" stroke="#63b8ff" d="M286.09,-168.2C241.77,-161.38 180.5,-148.77 165.88,-129.75 142.28,-99.06 169.99,-53.32 188.99,-28.39"/>
<polygon fill="#63b8ff" stroke="#63b8ff" points="191.51,-30.84 195,-20.83 186.04,-26.48 191.51,-30.84"/>
</a>
</g>
</g>
<!-- Node9 -->
<g id="Node000009" class="node">
<title>Node9</title>
<g id="a_Node000009"><a xlink:href="Error_8hpp.html" target="_top" xlink:title="Error handling system with categorized error codes.">
<polygon fill="white" stroke="#666666" points="518.12,-129.75 431.62,-129.75 431.62,-110.5 518.12,-110.5 518.12,-129.75"/>
<text xml:space="preserve" text-anchor="middle" x="474.88" y="-116.25" font-family="Helvetica,sans-Serif" font-size="10.00">RType/Error.hpp</text>
</a>
</g>
</g>
<!-- Node2&#45;&gt;Node9 -->
<g id="edge8_Node000002_Node000009" class="edge">
<title>Node2&#45;&gt;Node9</title>
<g id="a_edge8_Node000002_Node000009"><a xlink:title=" ">
<path fill="none" stroke="#63b8ff" d="M357.79,-165.34C380.38,-156.81 414.51,-143.92 440.1,-134.26"/>
<polygon fill="#63b8ff" stroke="#63b8ff" points="441.3,-137.54 449.42,-130.74 438.83,-131 441.3,-137.54"/>
</a>
</g>
</g>
<!-- Node10 -->
<g id="Node000010" class="node">
<title>Node10</title>
<g id="a_Node000010"><a xlink:title=" ">
<polygon fill="#e0e0e0" stroke="#999999" points="738.88,-74.5 698.88,-74.5 698.88,-55.25 738.88,-55.25 738.88,-74.5"/>
<text xml:space="preserve" text-anchor="middle" x="718.88" y="-61" font-family="Helvetica,sans-Serif" font-size="10.00">string</text>
</a>
</g>
</g>
<!-- Node2&#45;&gt;Node10 -->
<g id="edge21_Node000002_Node000010" class="edge">
<title>Node2&#45;&gt;Node10</title>
<g id="a_edge21_Node000002_Node000010"><a xlink:title=" ">
<path fill="none" stroke="#63b8ff" d="M381.59,-166.66C421.23,-159.48 478.71,-147.23 526.88,-129.75 544.67,-123.29 547.26,-117.43 564.88,-110.5 615.53,-90.58 632.42,-90.65 687.8,-75.04"/>
<polygon fill="#63b8ff" stroke="#63b8ff" points="688.5,-78.48 697.15,-72.35 686.57,-71.75 688.5,-78.48"/>
</a>
</g>
</g>
<!-- Node14 -->
<g id="Node000014" class="node">
<title>Node14</title>
<g id="a_Node000014"><a xlink:title=" ">
<polygon fill="#e0e0e0" stroke="#999999" points="629.75,-129.75 574,-129.75 574,-110.5 629.75,-110.5 629.75,-129.75"/>
<text xml:space="preserve" text-anchor="middle" x="601.88" y="-116.25" font-family="Helvetica,sans-Serif" font-size="10.00">expected</text>
</a>
</g>
</g>
<!-- Node2&#45;&gt;Node14 -->
<g id="edge18_Node000002_Node000014" class="edge">
<title>Node2&#45;&gt;Node14</title>
<g id="a_edge18_Node000002_Node000014"><a xlink:title=" ">
<path fill="none" stroke="#63b8ff" d="M380.21,-165.33C425.91,-156.39 497.73,-142.27 559.88,-129.75 560.86,-129.55 561.87,-129.35 562.88,-129.14"/>
<polygon fill="#63b8ff" stroke="#63b8ff" points="563.28,-132.63 572.38,-127.21 561.89,-125.77 563.28,-132.63"/>
</a>
</g>
</g>
<!-- Node15 -->
<g id="Node000015" class="node">
<title>Node15</title>
<g id="a_Node000015"><a xlink:title=" ">
<polygon fill="#e0e0e0" stroke="#999999" points="376,-129.75 291.75,-129.75 291.75,-110.5 376,-110.5 376,-129.75"/>
<text xml:space="preserve" text-anchor="middle" x="333.88" y="-116.25" font-family="Helvetica,sans-Serif" font-size="10.00">source_location</text>
</a>
</g>
</g>
<!-- Node2&#45;&gt;Node15 -->
<g id="edge20_Node000002_Node000015" class="edge">
<title>Node2&#45;&gt;Node15</title>
<g id="a_edge20_Node000002_Node000015"><a xlink:title=" ">
<path fill="none" stroke="#63b8ff" d="M333.88,-165.58C333.88,-159.07 333.88,-149.92 333.88,-141.62"/>
<polygon fill="#63b8ff" stroke="#63b8ff" points="337.38,-141.62 333.88,-131.62 330.38,-141.62 337.38,-141.62"/>
</a>
</g>
</g>
<!-- Node16 -->
<g id="Node000016" class="node">
<title>Node16</title>
<g id="a_Node000016"><a xlink:title=" ">
<polygon fill="#e0e0e0" stroke="#999999" points="61.75,-129.75 0,-129.75 0,-110.5 61.75,-110.5 61.75,-129.75"/>
<text xml:space="preserve" text-anchor="middle" x="30.88" y="-116.25" font-family="Helvetica,sans-Serif" font-size="10.00">type_traits</text>
</a>
</g>
</g>
<!-- Node2&#45;&gt;Node16 -->
<g id="edge23_Node000002_Node000016" class="edge">
<title>Node2&#45;&gt;Node16</title>
<g id="a_edge23_Node000002_Node000016"><a xlink:title=" ">
<path fill="none" stroke="#63b8ff" d="M286.28,-166.41C234.47,-157.67 149.22,-143.12 75.88,-129.75 74.88,-129.57 73.88,-129.38 72.86,-129.2"/>
<polygon fill="#63b8ff" stroke="#63b8ff" points="73.81,-125.81 63.33,-127.42 72.52,-132.69 73.81,-125.81"/>
</a>
</g>
</g>
<!-- Node17 -->
<g id="Node000017" class="node">
<title>Node17</title>
<g id="a_Node000017"><a xlink:href="Logger_8tpp.html" target="_top" xlink:title=" ">
<polygon fill="white" stroke="#666666" points="235.38,-129.75 174.38,-129.75 174.38,-110.5 235.38,-110.5 235.38,-129.75"/>
<text xml:space="preserve" text-anchor="middle" x="204.88" y="-116.25" font-family="Helvetica,sans-Serif" font-size="10.00">Logger.tpp</text>
</a>
</g>
</g>
<!-- Node2&#45;&gt;Node17 -->
<g id="edge25_Node000002_Node000017" class="edge">
<title>Node2&#45;&gt;Node17</title>
<g id="a_edge25_Node000002_Node000017"><a xlink:title=" ">
<path fill="none" stroke="#63b8ff" d="M311.99,-165.34C291.51,-156.89 260.66,-144.15 237.32,-134.52"/>
<polygon fill="#63b8ff" stroke="#63b8ff" points="238.84,-131.36 228.26,-130.78 236.17,-137.83 238.84,-131.36"/>
</a>
</g>
</g>
<!-- Node4 -->
<g id="Node000004" class="node">
<title>Node4</title>
<g id="a_Node000004"><a xlink:title=" ">
<polygon fill="#e0e0e0" stroke="#999999" points="385.5,-19.25 340.25,-19.25 340.25,0 385.5,0 385.5,-19.25"/>
<text xml:space="preserve" text-anchor="middle" x="362.88" y="-5.75" font-family="Helvetica,sans-Serif" font-size="10.00">cstdint</text>
</a>
</g>
</g>
<!-- Node3&#45;&gt;Node4 -->
<g id="edge3_Node000003_Node000004" class="edge">
<title>Node3&#45;&gt;Node4</title>
<g id="a_edge3_Node000003_Node000004"><a xlink:title=" ">
<path fill="none" stroke="#63b8ff" d="M298.11,-54.84C309.65,-46.96 326.64,-35.36 340.32,-26.02"/>
<polygon fill="#63b8ff" stroke="#63b8ff" points="342.04,-29.08 348.33,-20.56 338.1,-23.3 342.04,-29.08"/>
</a>
</g>
</g>
<!-- Node3&#45;&gt;Node5 -->
<g id="edge4_Node000003_Node000005" class="edge">
<title>Node3&#45;&gt;Node5</title>
<g id="a_edge4_Node000003_Node000005"><a xlink:title=" ">
<path fill="none" stroke="#63b8ff" d="M258.24,-54.84C231.36,-45.73 189.8,-31.63 160.86,-21.81"/>
<polygon fill="#63b8ff" stroke="#63b8ff" points="162.09,-18.53 151.5,-18.64 159.84,-25.16 162.09,-18.53"/>
</a>
</g>
</g>
<!-- Node3&#45;&gt;Node6 -->
<g id="edge5_Node000003_Node000006" class="edge">
<title>Node3&#45;&gt;Node6</title>
<g id="a_edge5_Node000003_Node000006"><a xlink:title=" ">
<path fill="none" stroke="#63b8ff" d="M311.51,-54.84C337,-46.2 375.69,-33.07 404.3,-23.37"/>
<polygon fill="#63b8ff" stroke="#63b8ff" points="405.33,-26.72 413.68,-20.19 403.08,-20.09 405.33,-26.72"/>
</a>
</g>
</g>
<!-- Node3&#45;&gt;Node7 -->
<g id="edge6_Node000003_Node000007" class="edge">
<title>Node3&#45;&gt;Node7</title>
<g id="a_edge6_Node000003_Node000007"><a xlink:title=" ">
<path fill="none" stroke="#63b8ff" d="M271.13,-54.84C259.15,-46.96 241.5,-35.36 227.29,-26.02"/>
<polygon fill="#63b8ff" stroke="#63b8ff" points="229.23,-23.1 218.95,-20.53 225.38,-28.95 229.23,-23.1"/>
</a>
</g>
</g>
<!-- Node8 -->
<g id="Node000008" class="node">
<title>Node8</title>
<g id="a_Node000008"><a xlink:title=" ">
<polygon fill="#e0e0e0" stroke="#999999" points="318.75,-19.25 251,-19.25 251,0 318.75,0 318.75,-19.25"/>
<text xml:space="preserve" text-anchor="middle" x="284.88" y="-5.75" font-family="Helvetica,sans-Serif" font-size="10.00">LogLevel.inl</text>
</a>
</g>
</g>
<!-- Node3&#45;&gt;Node8 -->
<g id="edge7_Node000003_Node000008" class="edge">
<title>Node3&#45;&gt;Node8</title>
<g id="a_edge7_Node000003_Node000008"><a xlink:title=" ">
<path fill="none" stroke="#63b8ff" d="M284.88,-55.08C284.88,-48.57 284.88,-39.42 284.88,-31.12"/>
<polygon fill="#63b8ff" stroke="#63b8ff" points="288.38,-31.12 284.88,-21.12 281.38,-31.12 288.38,-31.12"/>
</a>
</g>
</g>
<!-- Node9&#45;&gt;Node3 -->
<g id="edge9_Node000009_Node000003" class="edge">
<title>Node9&#45;&gt;Node3</title>
<g id="a_edge9_Node000009_Node000003"><a xlink:title=" ">
<path fill="none" stroke="#63b8ff" d="M442.64,-110.09C411.12,-101.26 362.9,-87.74 328.06,-77.98"/>
<polygon fill="#63b8ff" stroke="#63b8ff" points="329.29,-74.69 318.72,-75.36 327.41,-81.43 329.29,-74.69"/>
</a>
</g>
</g>
<!-- Node9&#45;&gt;Node4 -->
<g id="edge10_Node000009_Node000004" class="edge">
<title>Node9&#45;&gt;Node4</title>
<g id="a_edge10_Node000009_Node000004"><a xlink:title=" ">
<path fill="none" stroke="#63b8ff" d="M465.71,-110.25C447.09,-92.21 404.55,-51 380.42,-27.63"/>
<polygon fill="#63b8ff" stroke="#63b8ff" points="382.87,-25.12 373.25,-20.68 378,-30.15 382.87,-25.12"/>
</a>
</g>
</g>
<!-- Node9&#45;&gt;Node5 -->
<g id="edge11_Node000009_Node000005" class="edge">
<title>Node9&#45;&gt;Node5</title>
<g id="a_edge11_Node000009_Node000005"><a xlink:title=" ">
<path fill="none" stroke="#63b8ff" d="M431.35,-114.67C365.84,-107.5 245.33,-92.37 205.88,-74.5 181.32,-63.38 158.07,-42.51 143.45,-27.66"/>
<polygon fill="#63b8ff" stroke="#63b8ff" points="146,-25.26 136.57,-20.42 140.93,-30.08 146,-25.26"/>
</a>
</g>
</g>
<!-- Node9&#45;&gt;Node6 -->
<g id="edge13_Node000009_Node000006" class="edge">
<title>Node9&#45;&gt;Node6</title>
<g id="a_edge13_Node000009_Node000006"><a xlink:title=" ">
<path fill="none" stroke="#63b8ff" d="M472.17,-110.25C466.9,-92.92 455.14,-54.23 447.92,-30.49"/>
<polygon fill="#63b8ff" stroke="#63b8ff" points="451.31,-29.62 445.05,-21.07 444.61,-31.66 451.31,-29.62"/>
</a>
</g>
</g>
<!-- Node9&#45;&gt;Node7 -->
<g id="edge15_Node000009_Node000007" class="edge">
<title>Node9&#45;&gt;Node7</title>
<g id="a_edge15_Node000009_Node000007"><a xlink:title=" ">
<path fill="none" stroke="#63b8ff" d="M431.29,-113.92C363.32,-105.44 238.23,-88.2 222.88,-74.5 210.59,-63.54 206.09,-45.02 204.52,-30.74"/>
<polygon fill="#63b8ff" stroke="#63b8ff" points="208.03,-30.83 203.87,-21.09 201.05,-31.3 208.03,-30.83"/>
</a>
</g>
</g>
<!-- Node9&#45;&gt;Node10 -->
<g id="edge12_Node000009_Node000010" class="edge">
<title>Node9&#45;&gt;Node10</title>
<g id="a_edge12_Node000009_Node000010"><a xlink:title=" ">
<path fill="none" stroke="#63b8ff" d="M518.36,-111.22C559.58,-103.47 623.45,-90.84 687.53,-74.92"/>
<polygon fill="#63b8ff" stroke="#63b8ff" points="688.34,-78.33 697.19,-72.5 686.63,-71.54 688.34,-78.33"/>
</a>
</g>
</g>
<!-- Node11 -->
<g id="Node000011" class="node">
<title>Node11</title>
<g id="a_Node000011"><a xlink:title=" ">
<polygon fill="#e0e0e0" stroke="#999999" points="543.38,-74.5 470.38,-74.5 470.38,-55.25 543.38,-55.25 543.38,-74.5"/>
<text xml:space="preserve" text-anchor="middle" x="506.88" y="-61" font-family="Helvetica,sans-Serif" font-size="10.00">system_error</text>
</a>
</g>
</g>
<!-- Node9&#45;&gt;Node11 -->
<g id="edge14_Node000009_Node000011" class="edge">
<title>Node9&#45;&gt;Node11</title>
<g id="a_edge14_Node000009_Node000011"><a xlink:title=" ">
<path fill="none" stroke="#63b8ff" d="M480.16,-110.33C484.35,-103.36 490.35,-93.37 495.61,-84.62"/>
<polygon fill="#63b8ff" stroke="#63b8ff" points="498.55,-86.53 500.7,-76.16 492.55,-82.93 498.55,-86.53"/>
</a>
</g>
</g>
<!-- Node12 -->
<g id="Node000012" class="node">
<title>Node12</title>
<g id="a_Node000012"><a xlink:title=" ">
<polygon fill="#e0e0e0" stroke="#999999" points="610.38,-74.5 561.38,-74.5 561.38,-55.25 610.38,-55.25 610.38,-74.5"/>
<text xml:space="preserve" text-anchor="middle" x="585.88" y="-61" font-family="Helvetica,sans-Serif" font-size="10.00">Error.inl</text>
</a>
</g>
</g>
<!-- Node9&#45;&gt;Node12 -->
<g id="edge16_Node000009_Node000012" class="edge">
<title>Node9&#45;&gt;Node12</title>
<g id="a_edge16_Node000009_Node000012"><a xlink:title=" ">
<path fill="none" stroke="#63b8ff" d="M493.7,-110.09C510.93,-101.83 536.68,-89.48 556.58,-79.93"/>
<polygon fill="#63b8ff" stroke="#63b8ff" points="558.09,-83.09 565.59,-75.61 555.06,-76.78 558.09,-83.09"/>
</a>
</g>
</g>
<!-- Node13 -->
<g id="Node000013" class="node">
<title>Node13</title>
<g id="a_Node000013"><a xlink:href="Error_8tpp.html" target="_top" xlink:title=" ">
<polygon fill="white" stroke="#666666" points="681.25,-74.5 628.5,-74.5 628.5,-55.25 681.25,-55.25 681.25,-74.5"/>
<text xml:space="preserve" text-anchor="middle" x="654.88" y="-61" font-family="Helvetica,sans-Serif" font-size="10.00">Error.tpp</text>
</a>
</g>
</g>
<!-- Node9&#45;&gt;Node13 -->
<g id="edge17_Node000009_Node000013" class="edge">
<title>Node9&#45;&gt;Node13</title>
<g id="a_edge17_Node000009_Node000013"><a xlink:title=" ">
<path fill="none" stroke="#63b8ff" d="M505.41,-110.09C536.32,-100.95 584.17,-86.79 617.37,-76.97"/>
<polygon fill="#63b8ff" stroke="#63b8ff" points="617.97,-80.44 626.57,-74.25 615.98,-73.73 617.97,-80.44"/>
</a>
</g>
</g>
<!-- Node18&#45;&gt;Node6 -->
<g id="edge30_Node000018_Node000006" class="edge">
<title>Node18&#45;&gt;Node6</title>
<g id="a_edge30_Node000018_Node000006"><a xlink:title=" ">
<path fill="none" stroke="#63b8ff" d="M738.54,-165.3C774.32,-156.98 806.11,-141.04 794.88,-110.5 783.75,-80.24 776.08,-70.86 747.88,-55.25 703.79,-30.86 559.84,-18.24 486.17,-13.25"/>
<polygon fill="#63b8ff" stroke="#63b8ff" points="486.7,-9.78 476.49,-12.61 486.24,-16.76 486.7,-9.78"/>
</a>
</g>
</g>
<!-- Node18&#45;&gt;Node9 -->
<g id="edge27_Node000018_Node000009" class="edge">
<title>Node18&#45;&gt;Node9</title>
<g id="a_edge27_Node000018_Node000009"><a xlink:title=" ">
<path fill="none" stroke="#63b8ff" d="M626.83,-165.34C596.6,-156.54 550.42,-143.11 516.91,-133.36"/>
<polygon fill="#63b8ff" stroke="#63b8ff" points="518.1,-130.06 507.52,-130.63 516.15,-136.78 518.1,-130.06"/>
</a>
</g>
</g>
<!-- Node18&#45;&gt;Node10 -->
<g id="edge29_Node000018_Node000010" class="edge">
<title>Node18&#45;&gt;Node10</title>
<g id="a_edge29_Node000018_Node000010"><a xlink:title=" ">
<path fill="none" stroke="#63b8ff" d="M659.16,-165.6C661.32,-152.8 666.49,-128.55 676.88,-110.5 682.88,-100.07 691.77,-90.15 699.83,-82.32"/>
<polygon fill="#63b8ff" stroke="#63b8ff" points="701.98,-85.1 706.96,-75.74 697.24,-79.95 701.98,-85.1"/>
</a>
</g>
</g>
<!-- Node18&#45;&gt;Node14 -->
<g id="edge28_Node000018_Node000014" class="edge">
<title>Node18&#45;&gt;Node14</title>
<g id="a_edge28_Node000018_Node000014"><a xlink:title=" ">
<path fill="none" stroke="#63b8ff" d="M648.38,-165.34C640.44,-157.8 628.93,-146.85 619.34,-137.73"/>
<polygon fill="#63b8ff" stroke="#63b8ff" points="621.99,-135.42 612.33,-131.07 617.17,-140.49 621.99,-135.42"/>
</a>
</g>
</g>
<!-- Node19 -->
<g id="Node000019" class="node">
<title>Node19</title>
<g id="a_Node000019"><a xlink:href="DynamicLibrary_8tpp.html" target="_top" xlink:title=" ">
<polygon fill="white" stroke="#666666" points="785.5,-129.75 686.25,-129.75 686.25,-110.5 785.5,-110.5 785.5,-129.75"/>
<text xml:space="preserve" text-anchor="middle" x="735.88" y="-116.25" font-family="Helvetica,sans-Serif" font-size="10.00">DynamicLibrary.tpp</text>
</a>
</g>
</g>
<!-- Node18&#45;&gt;Node19 -->
<g id="edge31_Node000018_Node000019" class="edge">
<title>Node18&#45;&gt;Node19</title>
<g id="a_edge31_Node000018_Node000019"><a xlink:title=" ">
<path fill="none" stroke="#63b8ff" d="M671.11,-165.34C682.65,-157.46 699.64,-145.86 713.32,-136.52"/>
<polygon fill="#63b8ff" stroke="#63b8ff" points="715.04,-139.58 721.33,-131.06 711.1,-133.8 715.04,-139.58"/>
</a>
</g>
</g>
<!-- Node20&#45;&gt;Node6 -->
<g id="edge35_Node000020_Node000006" class="edge">
<title>Node20&#45;&gt;Node6</title>
<g id="a_edge35_Node000020_Node000006"><a xlink:title=" ">
<path fill="none" stroke="#63b8ff" d="M813.87,-165.45C814.95,-152.86 815.82,-129.34 809.88,-110.5 801.12,-82.78 799.35,-70.93 774.88,-55.25 727.94,-25.19 565.52,-15.14 486.18,-11.98"/>
<polygon fill="#63b8ff" stroke="#63b8ff" points="486.74,-8.5 476.61,-11.62 486.47,-15.49 486.74,-8.5"/>
</a>
</g>
</g>
<!-- Node20&#45;&gt;Node10 -->
<g id="edge34_Node000020_Node000010" class="edge">
<title>Node20&#45;&gt;Node10</title>
<g id="a_edge34_Node000020_Node000010"><a xlink:title=" ">
<path fill="none" stroke="#63b8ff" d="M812.44,-165.61C811.38,-152.38 807.69,-127.1 794.88,-110.5 783.33,-95.54 765.24,-84.63 749.6,-77.34"/>
<polygon fill="#63b8ff" stroke="#63b8ff" points="751.23,-74.23 740.67,-73.47 748.45,-80.66 751.23,-74.23"/>
</a>
</g>
</g>
<!-- Node20&#45;&gt;Node14 -->
<g id="edge33_Node000020_Node000014" class="edge">
<title>Node20&#45;&gt;Node14</title>
<g id="a_edge33_Node000020_Node000014"><a xlink:title=" ">
<path fill="none" stroke="#63b8ff" d="M777.08,-165.34C739.39,-155.83 680.2,-140.89 641.22,-131.05"/>
<polygon fill="#63b8ff" stroke="#63b8ff" points="642.08,-127.66 631.53,-128.61 640.37,-134.45 642.08,-127.66"/>
</a>
</g>
</g>
<!-- Node20&#45;&gt;Node20 -->
<g id="edge36_Node000020_Node000020" class="edge">
<title>Node20&#45;&gt;Node20</title>
<g id="a_edge36_Node000020_Node000020"><a xlink:title=" ">
<path fill="none" stroke="#63b8ff" d="M849.15,-185.48C866.6,-186.73 882,-183.36 882,-175.38 882,-169.2 872.79,-165.78 860.54,-165.13"/>
<polygon fill="#63b8ff" stroke="#63b8ff" points="860.62,-161.63 850.66,-165.25 860.7,-168.63 860.62,-161.63"/>
</a>
</g>
</g>
</g>
</svg>

<g id="navigator" transform="translate(0 0)" fill="#404254">
  <rect fill="#f2f5e9" fill-opacity="0.5" stroke="#606060" stroke-width=".5" x="0" y="0" width="60" height="60"/>
  <use id="zoomplus" xlink:href="#zoomPlus" x="17" y="9" onmousedown="handleZoom(evt,'in')"/>
  <use id="zoomminus" xlink:href="#zoomMin" x="42" y="9" onmousedown="handleZoom(evt,'out')"/>
  <use id="reset" xlink:href="#resetDef" x="30" y="36" onmousedown="handleReset()"/>
   <use id="arrowup" xlink:href="#arrowUp" x="0" y="0" onmousedown="handlePan(0,-1)"/>
  <use id="arrowright" xlink:href="#arrowRight" x="0" y="0" onmousedown="handlePan(1,0)"/>
  <use id="arrowdown" xlink:href="#arrowDown" x="0" y="0" onmousedown="handlePan(0,1)"/>
  <use id="arrowleft" xlink:href="#arrowLeft" x="0" y="0" onmousedown="handlePan(-1,0)"/>
</g>
<svg viewBox="0 0 15 15" width="100%" height="30px" preserveAspectRatio="xMaxYMin meet">
 <g id="arrow_out" transform="scale(0.3 0.3)">
  <a xlink:href="DynamicLibrary_8cpp__incl_org.svg" target="_base">
   <rect id="button" ry="5" rx="5" y="6" x="6" height="38" width="38"
        fill="#f2f5e9" fill-opacity="0.5" stroke="#606060" stroke-width="1.0"/>
   <path id="arrow"
     d="M 11.500037,31.436501 C 11.940474,20.09759 22.043105,11.32322 32.158766,21.979434 L 37.068811,17.246167 C 37.068811,17.246167 37.088388,32 37.088388,32 L 22.160133,31.978069 C 22.160133,31.978069 26.997745,27.140456 26.997745,27.140456 C 18.528582,18.264221 13.291696,25.230495 11.500037,31.436501 z"
     style="fill:#404040;"/>
  </a>
 </g>
</svg>

<style type='text/css'>
<![CDATA[
[data-mouse-over-selected='false'] { opacity: 0.7; }
[data-mouse-over-selected='true']  { opacity: 1.0; }
]]>
</style>
<script type="application/ecmascript"><![CDATA[
document.addEventListener('DOMContentLoaded', (event) => {
  highlightEdges();
  highlightAdjacentNodes();
});
]]></script>
</svg>
