<?xml version="1.0" encoding="UTF-8" standalone="no"?>
<!DOCTYPE svg PUBLIC "-//W3C//DTD SVG 1.1//EN"
 "http://www.w3.org/Graphics/SVG/1.1/DTD/svg11.dtd">
<!-- Generated by graphviz version 14.0.5 (20251129.0259)
 -->
<!-- Title: common/include/RType/ECS/Components/EntityType.hpp Pages: 1 -->
<svg width="2641pt" height="293pt"
 viewBox="0.00 0.00 2641.00 293.00" xmlns="http://www.w3.org/2000/svg" xmlns:xlink="http://www.w3.org/1999/xlink">
<g id="graph0" class="graph" transform="scale(1 1) rotate(0) translate(4 289.25)">
<title>common/include/RType/ECS/Components/EntityType.hpp</title>
<!-- Node1 -->
<g id="Node000001" class="node">
<title>Node1</title>
<g id="a_Node000001"><a xlink:title=" ">
<polygon fill="#999999" stroke="#666666" points="1375.12,-285.25 1208.38,-285.25 1208.38,-254.75 1375.12,-254.75 1375.12,-285.25"/>
<text xml:space="preserve" text-anchor="start" x="1216.38" y="-271.75" font-family="Helvetica,sans-Serif" font-size="10.00">common/include/RType</text>
<text xml:space="preserve" text-anchor="middle" x="1291.75" y="-260.5" font-family="Helvetica,sans-Serif" font-size="10.00">/ECS/Components/EntityType.hpp</text>
</a>
</g>
</g>
<!-- Node2 -->
<g id="Node000002" class="node">
<title>Node2</title>
<g id="a_Node000002"><a xlink:href="RenderSystem_8hpp.html" target="_top" xlink:title=" ">
<polygon fill="white" stroke="#666666" points="440.25,-218.75 325.25,-218.75 325.25,-188.25 440.25,-188.25 440.25,-218.75"/>
<text xml:space="preserve" text-anchor="start" x="333.25" y="-205.25" font-family="Helvetica,sans-Serif" font-size="10.00">client/include/Systems</text>
<text xml:space="preserve" text-anchor="middle" x="382.75" y="-194" font-family="Helvetica,sans-Serif" font-size="10.00">/RenderSystem.hpp</text>
</a>
</g>
</g>
<!-- Node1&#45;&gt;Node2 -->
<g id="edge1_Node000001_Node000002" class="edge">
<title>Node1&#45;&gt;Node2</title>
<g id="a_edge1_Node000001_Node000002"><a xlink:title=" ">
<path fill="none" stroke="#63b8ff" d="M1197.03,-262.28C1008.92,-248.93 593.26,-219.44 440.52,-208.6"/>
<polygon fill="#63b8ff" stroke="#63b8ff" points="1196.54,-265.75 1206.76,-262.97 1197.03,-258.77 1196.54,-265.75"/>
</a>
</g>
</g>
<!-- Node8 -->
<g id="Node000008" class="node">
<title>Node8</title>
<g id="a_Node000008"><a xlink:href="client_2src_2Systems_2NetworkSyncSystem_8cpp.html" target="_top" xlink:title=" ">
<polygon fill="white" stroke="#666666" points="754.12,-218.75 623.38,-218.75 623.38,-188.25 754.12,-188.25 754.12,-218.75"/>
<text xml:space="preserve" text-anchor="start" x="631.38" y="-205.25" font-family="Helvetica,sans-Serif" font-size="10.00">client/src/Systems</text>
<text xml:space="preserve" text-anchor="middle" x="688.75" y="-194" font-family="Helvetica,sans-Serif" font-size="10.00">/NetworkSyncSystem.cpp</text>
</a>
</g>
</g>
<!-- Node1&#45;&gt;Node8 -->
<g id="edge7_Node000001_Node000008" class="edge">
<title>Node1&#45;&gt;Node8</title>
<g id="a_edge7_Node000001_Node000008"><a xlink:title=" ">
<path fill="none" stroke="#63b8ff" d="M1196.96,-262.64C1091.03,-254.92 914.6,-240.21 763.75,-218.75 760.73,-218.32 757.65,-217.85 754.54,-217.36"/>
<polygon fill="#63b8ff" stroke="#63b8ff" points="1196.51,-266.12 1206.74,-263.35 1197.02,-259.14 1196.51,-266.12"/>
</a>
</g>
</g>
<!-- Node9 -->
<g id="Node000009" class="node">
<title>Node9</title>
<g id="a_Node000009"><a xlink:href="ShieldSystem_8cpp.html" target="_top" xlink:title=" ">
<polygon fill="white" stroke="#666666" points="871,-218.75 772.5,-218.75 772.5,-188.25 871,-188.25 871,-218.75"/>
<text xml:space="preserve" text-anchor="start" x="780.5" y="-205.25" font-family="Helvetica,sans-Serif" font-size="10.00">client/src/Systems</text>
<text xml:space="preserve" text-anchor="middle" x="821.75" y="-194" font-family="Helvetica,sans-Serif" font-size="10.00">/ShieldSystem.cpp</text>
</a>
</g>
</g>
<!-- Node1&#45;&gt;Node9 -->
<g id="edge8_Node000001_Node000009" class="edge">
<title>Node1&#45;&gt;Node9</title>
<g id="a_edge8_Node000001_Node000009"><a xlink:title=" ">
<path fill="none" stroke="#63b8ff" d="M1196.58,-259.96C1113.85,-251.45 990.92,-237.26 884.75,-218.75 880.33,-217.98 875.76,-217.1 871.18,-216.17"/>
<polygon fill="#63b8ff" stroke="#63b8ff" points="1196.18,-263.44 1206.48,-260.97 1196.89,-256.47 1196.18,-263.44"/>
</a>
</g>
</g>
<!-- Node10 -->
<g id="Node000010" class="node">
<title>Node10</title>
<g id="a_Node000010"><a xlink:href="GameManager_8hpp.html" target="_top" xlink:title=" ">
<polygon fill="white" stroke="#666666" points="1389.75,-85.75 1283.75,-85.75 1283.75,-55.25 1389.75,-55.25 1389.75,-85.75"/>
<text xml:space="preserve" text-anchor="start" x="1291.75" y="-72.25" font-family="Helvetica,sans-Serif" font-size="10.00">server/include/Game</text>
<text xml:space="preserve" text-anchor="middle" x="1336.75" y="-61" font-family="Helvetica,sans-Serif" font-size="10.00">/GameManager.hpp</text>
</a>
</g>
</g>
<!-- Node1&#45;&gt;Node10 -->
<g id="edge9_Node000001_Node000010" class="edge">
<title>Node1&#45;&gt;Node10</title>
<g id="a_edge9_Node000001_Node000010"><a xlink:title=" ">
<path fill="none" stroke="#63b8ff" d="M1292.38,-242.95C1293.73,-213.06 1297.9,-162.87 1310.75,-121.75 1314.73,-109 1321.82,-95.61 1327.59,-85.87"/>
<polygon fill="#63b8ff" stroke="#63b8ff" points="1288.89,-242.8 1292.02,-252.92 1295.88,-243.05 1288.89,-242.8"/>
</a>
</g>
</g>
<!-- Node13 -->
<g id="Node000013" class="node">
<title>Node13</title>
<g id="a_Node000013"><a xlink:href="AuthSystem_8hpp.html" target="_top" xlink:title=" ">
<polygon fill="white" stroke="#666666" points="1264.12,-218.75 1145.38,-218.75 1145.38,-188.25 1264.12,-188.25 1264.12,-218.75"/>
<text xml:space="preserve" text-anchor="start" x="1153.38" y="-205.25" font-family="Helvetica,sans-Serif" font-size="10.00">server/include/Systems</text>
<text xml:space="preserve" text-anchor="middle" x="1204.75" y="-194" font-family="Helvetica,sans-Serif" font-size="10.00">/AuthSystem.hpp</text>
</a>
</g>
</g>
<!-- Node1&#45;&gt;Node13 -->
<g id="edge12_Node000001_Node000013" class="edge">
<title>Node1&#45;&gt;Node13</title>
<g id="a_edge12_Node000001_Node000013"><a xlink:title=" ">
<path fill="none" stroke="#63b8ff" d="M1262.81,-247.54C1250.2,-238.19 1235.75,-227.48 1224.41,-219.08"/>
<polygon fill="#63b8ff" stroke="#63b8ff" points="1260.67,-250.32 1270.79,-253.46 1264.84,-244.7 1260.67,-250.32"/>
</a>
</g>
</g>
<!-- Node15 -->
<g id="Node000015" class="node">
<title>Node15</title>
<g id="a_Node000015"><a xlink:href="BulletCleanupSystem_8hpp.html" target="_top" xlink:title=" ">
<polygon fill="white" stroke="#666666" points="664.88,-152.25 532.62,-152.25 532.62,-121.75 664.88,-121.75 664.88,-152.25"/>
<text xml:space="preserve" text-anchor="start" x="540.62" y="-138.75" font-family="Helvetica,sans-Serif" font-size="10.00">server/include/Systems</text>
<text xml:space="preserve" text-anchor="middle" x="598.75" y="-127.5" font-family="Helvetica,sans-Serif" font-size="10.00">/BulletCleanupSystem.hpp</text>
</a>
</g>
</g>
<!-- Node1&#45;&gt;Node15 -->
<g id="edge15_Node000001_Node000015" class="edge">
<title>Node1&#45;&gt;Node15</title>
<g id="a_edge15_Node000001_Node000015"><a xlink:title=" ">
<path fill="none" stroke="#63b8ff" d="M1196.79,-262.98C1101.36,-255.76 961.61,-241.69 912.75,-218.75 894.67,-210.26 897.65,-197.12 879.75,-188.25 796.86,-147.19 765.77,-168.77 674.75,-152.25 671.58,-151.67 668.34,-151.08 665.06,-150.48"/>
<polygon fill="#63b8ff" stroke="#63b8ff" points="1196.46,-266.46 1206.69,-263.71 1196.98,-259.48 1196.46,-266.46"/>
</a>
</g>
</g>
<!-- Node17 -->
<g id="Node000017" class="node">
<title>Node17</title>
<g id="a_Node000017"><a xlink:href="CollisionSystem_8hpp.html" target="_top" xlink:title=" ">
<polygon fill="white" stroke="#666666" points="802.12,-152.25 683.38,-152.25 683.38,-121.75 802.12,-121.75 802.12,-152.25"/>
<text xml:space="preserve" text-anchor="start" x="691.38" y="-138.75" font-family="Helvetica,sans-Serif" font-size="10.00">server/include/Systems</text>
<text xml:space="preserve" text-anchor="middle" x="742.75" y="-127.5" font-family="Helvetica,sans-Serif" font-size="10.00">/CollisionSystem.hpp</text>
</a>
</g>
</g>
<!-- Node1&#45;&gt;Node17 -->
<g id="edge18_Node000001_Node000017" class="edge">
<title>Node1&#45;&gt;Node17</title>
<g id="a_edge18_Node000001_Node000017"><a xlink:title=" ">
<path fill="none" stroke="#63b8ff" d="M1197.07,-268.28C1126.52,-264.65 1029.24,-252.99 950.75,-218.75 930.9,-210.09 931.94,-198.29 912.75,-188.25 893.18,-178.02 842.14,-163.47 801.05,-152.65"/>
<polygon fill="#63b8ff" stroke="#63b8ff" points="1196.49,-271.75 1206.64,-268.72 1196.82,-264.76 1196.49,-271.75"/>
</a>
</g>
</g>
<!-- Node19 -->
<g id="Node000019" class="node">
<title>Node19</title>
<g id="a_Node000019"><a xlink:href="EnemyAISystem_8hpp.html" target="_top" xlink:title=" ">
<polygon fill="white" stroke="#666666" points="1569.12,-218.75 1450.38,-218.75 1450.38,-188.25 1569.12,-188.25 1569.12,-218.75"/>
<text xml:space="preserve" text-anchor="start" x="1458.38" y="-205.25" font-family="Helvetica,sans-Serif" font-size="10.00">server/include/Systems</text>
<text xml:space="preserve" text-anchor="middle" x="1509.75" y="-194" font-family="Helvetica,sans-Serif" font-size="10.00">/EnemyAISystem.hpp</text>
</a>
</g>
</g>
<!-- Node1&#45;&gt;Node19 -->
<g id="edge21_Node000001_Node000019" class="edge">
<title>Node1&#45;&gt;Node19</title>
<g id="a_edge21_Node000001_Node000019"><a xlink:title=" ">
<path fill="none" stroke="#63b8ff" d="M1352.23,-251.1C1386.25,-241.04 1428.18,-228.64 1460.22,-219.15"/>
<polygon fill="#63b8ff" stroke="#63b8ff" points="1351.54,-247.66 1342.94,-253.85 1353.52,-254.37 1351.54,-247.66"/>
</a>
</g>
</g>
<!-- Node21 -->
<g id="Node000021" class="node">
<title>Node21</title>
<g id="a_Node000021"><a xlink:href="EnemyShootSystem_8hpp.html" target="_top" xlink:title=" ">
<polygon fill="white" stroke="#666666" points="947.62,-152.25 819.88,-152.25 819.88,-121.75 947.62,-121.75 947.62,-152.25"/>
<text xml:space="preserve" text-anchor="start" x="827.88" y="-138.75" font-family="Helvetica,sans-Serif" font-size="10.00">server/include/Systems</text>
<text xml:space="preserve" text-anchor="middle" x="883.75" y="-127.5" font-family="Helvetica,sans-Serif" font-size="10.00">/EnemyShootSystem.hpp</text>
</a>
</g>
</g>
<!-- Node1&#45;&gt;Node21 -->
<g id="edge24_Node000001_Node000021" class="edge">
<title>Node1&#45;&gt;Node21</title>
<g id="a_edge24_Node000001_Node000021"><a xlink:title=" ">
<path fill="none" stroke="#63b8ff" d="M1196.53,-264.22C1136.41,-258.51 1058.21,-246.02 993.75,-218.75 988.7,-216.62 933.51,-175.4 903.28,-152.7"/>
<polygon fill="#63b8ff" stroke="#63b8ff" points="1196.14,-267.7 1206.41,-265.11 1196.76,-260.73 1196.14,-267.7"/>
</a>
</g>
</g>
<!-- Node23 -->
<g id="Node000023" class="node">
<title>Node23</title>
<g id="a_Node000023"><a xlink:href="EntitySystem_8hpp.html" target="_top" xlink:title=" ">
<polygon fill="white" stroke="#666666" points="2189.12,-218.75 2070.38,-218.75 2070.38,-188.25 2189.12,-188.25 2189.12,-218.75"/>
<text xml:space="preserve" text-anchor="start" x="2078.38" y="-205.25" font-family="Helvetica,sans-Serif" font-size="10.00">server/include/Systems</text>
<text xml:space="preserve" text-anchor="middle" x="2129.75" y="-194" font-family="Helvetica,sans-Serif" font-size="10.00">/EntitySystem.hpp</text>
</a>
</g>
</g>
<!-- Node1&#45;&gt;Node23 -->
<g id="edge27_Node000001_Node000023" class="edge">
<title>Node1&#45;&gt;Node23</title>
<g id="a_edge27_Node000001_Node000023"><a xlink:title=" ">
<path fill="none" stroke="#63b8ff" d="M1386.58,-265C1527.87,-258.5 1801.9,-243.77 2033.75,-218.75 2045.48,-217.48 2057.97,-215.85 2069.93,-214.13"/>
<polygon fill="#63b8ff" stroke="#63b8ff" points="1386.74,-261.49 1376.91,-265.44 1387.06,-268.48 1386.74,-261.49"/>
</a>
</g>
</g>
<!-- Node25 -->
<g id="Node000025" class="node">
<title>Node25</title>
<g id="a_Node000025"><a xlink:href="LevelSystem_8cpp.html" target="_top" xlink:title=" ">
<polygon fill="white" stroke="#666666" points="2151.5,-85.75 2050,-85.75 2050,-55.25 2151.5,-55.25 2151.5,-85.75"/>
<text xml:space="preserve" text-anchor="start" x="2058" y="-72.25" font-family="Helvetica,sans-Serif" font-size="10.00">server/src/Systems</text>
<text xml:space="preserve" text-anchor="middle" x="2100.75" y="-61" font-family="Helvetica,sans-Serif" font-size="10.00">/LevelSystem.cpp</text>
</a>
</g>
</g>
<!-- Node1&#45;&gt;Node25 -->
<g id="edge54_Node000001_Node000025" class="edge">
<title>Node1&#45;&gt;Node25</title>
<g id="a_edge54_Node000001_Node000025"><a xlink:title=" ">
<path fill="none" stroke="#63b8ff" d="M1386.45,-268.01C1651.7,-264.82 2385.21,-252.93 2423.75,-218.75 2456.21,-189.96 2463.06,-154.63 2434.75,-121.75 2398.89,-80.09 2236.39,-72.5 2151.99,-71.42"/>
<polygon fill="#63b8ff" stroke="#63b8ff" points="1386.78,-264.51 1376.82,-268.13 1386.86,-271.51 1386.78,-264.51"/>
</a>
</g>
</g>
<!-- Node27 -->
<g id="Node000027" class="node">
<title>Node27</title>
<g id="a_Node000027"><a xlink:href="HomingSystem_8hpp.html" target="_top" xlink:title=" ">
<polygon fill="white" stroke="#666666" points="2415.12,-218.75 2296.38,-218.75 2296.38,-188.25 2415.12,-188.25 2415.12,-218.75"/>
<text xml:space="preserve" text-anchor="start" x="2304.38" y="-205.25" font-family="Helvetica,sans-Serif" font-size="10.00">server/include/Systems</text>
<text xml:space="preserve" text-anchor="middle" x="2355.75" y="-194" font-family="Helvetica,sans-Serif" font-size="10.00">/HomingSystem.hpp</text>
</a>
</g>
</g>
<!-- Node1&#45;&gt;Node27 -->
<g id="edge33_Node000001_Node000027" class="edge">
<title>Node1&#45;&gt;Node27</title>
<g id="a_edge33_Node000001_Node000027"><a xlink:title=" ">
<path fill="none" stroke="#63b8ff" d="M1386.58,-264.82C1551.56,-257.31 1902.09,-240.28 2197.75,-218.75 2230.3,-216.38 2266.57,-213.15 2296.14,-210.37"/>
<polygon fill="#63b8ff" stroke="#63b8ff" points="1386.84,-261.3 1377.01,-265.25 1387.16,-268.3 1386.84,-261.3"/>
</a>
</g>
</g>
<!-- Node29 -->
<g id="Node000029" class="node">
<title>Node29</title>
<g id="a_Node000029"><a xlink:href="MovementSystem_8hpp.html" target="_top" xlink:title=" ">
<polygon fill="white" stroke="#666666" points="1706.12,-218.75 1587.38,-218.75 1587.38,-188.25 1706.12,-188.25 1706.12,-218.75"/>
<text xml:space="preserve" text-anchor="start" x="1595.38" y="-205.25" font-family="Helvetica,sans-Serif" font-size="10.00">server/include/Systems</text>
<text xml:space="preserve" text-anchor="middle" x="1646.75" y="-194" font-family="Helvetica,sans-Serif" font-size="10.00">/MovementSystem.hpp</text>
</a>
</g>
</g>
<!-- Node1&#45;&gt;Node29 -->
<g id="edge36_Node000001_Node000029" class="edge">
<title>Node1&#45;&gt;Node29</title>
<g id="a_edge36_Node000001_Node000029"><a xlink:title=" ">
<path fill="none" stroke="#63b8ff" d="M1386.69,-253.05C1442.42,-243.5 1514.17,-230.9 1577.75,-218.75 1580.75,-218.18 1583.83,-217.58 1586.93,-216.97"/>
<polygon fill="#63b8ff" stroke="#63b8ff" points="1386.16,-249.59 1376.9,-254.72 1387.34,-256.49 1386.16,-249.59"/>
</a>
</g>
</g>
<!-- Node31 -->
<g id="Node000031" class="node">
<title>Node31</title>
<g id="a_Node000031"><a xlink:href="server_2include_2Systems_2NetworkSyncSystem_8hpp.html" target="_top" xlink:title=" ">
<polygon fill="white" stroke="#666666" points="2633.12,-218.75 2502.38,-218.75 2502.38,-188.25 2633.12,-188.25 2633.12,-218.75"/>
<text xml:space="preserve" text-anchor="start" x="2510.38" y="-205.25" font-family="Helvetica,sans-Serif" font-size="10.00">server/include/Systems</text>
<text xml:space="preserve" text-anchor="middle" x="2567.75" y="-194" font-family="Helvetica,sans-Serif" font-size="10.00">/NetworkSyncSystem.hpp</text>
</a>
</g>
</g>
<!-- Node1&#45;&gt;Node31 -->
<g id="edge39_Node000001_Node000031" class="edge">
<title>Node1&#45;&gt;Node31</title>
<g id="a_edge39_Node000001_Node000031"><a xlink:title=" ">
<path fill="none" stroke="#63b8ff" d="M1386.99,-269.41C1590.11,-269.3 2080.62,-263.91 2488.75,-218.75 2493.04,-218.27 2497.46,-217.71 2501.9,-217.07"/>
<polygon fill="#63b8ff" stroke="#63b8ff" points="1387,-265.9 1377,-269.41 1387.01,-272.9 1387,-265.9"/>
</a>
</g>
</g>
<!-- Node32 -->
<g id="Node000032" class="node">
<title>Node32</title>
<g id="a_Node000032"><a xlink:href="PlayerMouvementSystem_8hpp.html" target="_top" xlink:title=" ">
<polygon fill="white" stroke="#666666" points="2024.88,-218.75 1874.62,-218.75 1874.62,-188.25 2024.88,-188.25 2024.88,-218.75"/>
<text xml:space="preserve" text-anchor="start" x="1882.62" y="-205.25" font-family="Helvetica,sans-Serif" font-size="10.00">server/include/Systems</text>
<text xml:space="preserve" text-anchor="middle" x="1949.75" y="-194" font-family="Helvetica,sans-Serif" font-size="10.00">/PlayerMouvementSystem.hpp</text>
</a>
</g>
</g>
<!-- Node1&#45;&gt;Node32 -->
<g id="edge40_Node000001_Node000032" class="edge">
<title>Node1&#45;&gt;Node32</title>
<g id="a_edge40_Node000001_Node000032"><a xlink:title=" ">
<path fill="none" stroke="#63b8ff" d="M1386.66,-259.7C1518.36,-246.79 1753.85,-223.7 1874.29,-211.9"/>
<polygon fill="#63b8ff" stroke="#63b8ff" points="1386.54,-256.19 1376.93,-260.65 1387.22,-263.16 1386.54,-256.19"/>
</a>
</g>
</g>
<!-- Node34 -->
<g id="Node000034" class="node">
<title>Node34</title>
<g id="a_Node000034"><a xlink:href="PlayerShootSystem_8hpp.html" target="_top" xlink:title=" ">
<polygon fill="white" stroke="#666666" points="1444.12,-152.25 1319.38,-152.25 1319.38,-121.75 1444.12,-121.75 1444.12,-152.25"/>
<text xml:space="preserve" text-anchor="start" x="1327.38" y="-138.75" font-family="Helvetica,sans-Serif" font-size="10.00">server/include/Systems</text>
<text xml:space="preserve" text-anchor="middle" x="1381.75" y="-127.5" font-family="Helvetica,sans-Serif" font-size="10.00">/PlayerShootSystem.hpp</text>
</a>
</g>
</g>
<!-- Node1&#45;&gt;Node34 -->
<g id="edge43_Node000001_Node000034" class="edge">
<title>Node1&#45;&gt;Node34</title>
<g id="a_edge43_Node000001_Node000034"><a xlink:title=" ">
<path fill="none" stroke="#63b8ff" d="M1308,-245.34C1326.55,-218.35 1356.29,-175.05 1371.73,-152.58"/>
<polygon fill="#63b8ff" stroke="#63b8ff" points="1305.36,-243.01 1302.58,-253.23 1311.13,-246.97 1305.36,-243.01"/>
</a>
</g>
</g>
<!-- Node36 -->
<g id="Node000036" class="node">
<title>Node36</title>
<g id="a_Node000036"><a xlink:href="RoomSystem_8hpp.html" target="_top" xlink:title=" ">
<polygon fill="white" stroke="#666666" points="1121.12,-218.75 1002.38,-218.75 1002.38,-188.25 1121.12,-188.25 1121.12,-218.75"/>
<text xml:space="preserve" text-anchor="start" x="1010.38" y="-205.25" font-family="Helvetica,sans-Serif" font-size="10.00">server/include/Systems</text>
<text xml:space="preserve" text-anchor="middle" x="1061.75" y="-194" font-family="Helvetica,sans-Serif" font-size="10.00">/RoomSystem.hpp</text>
</a>
</g>
</g>
<!-- Node1&#45;&gt;Node36 -->
<g id="edge46_Node000001_Node000036" class="edge">
<title>Node1&#45;&gt;Node36</title>
<g id="a_edge46_Node000001_Node000036"><a xlink:title=" ">
<path fill="none" stroke="#63b8ff" d="M1228.4,-251.24C1192.44,-241.15 1147.96,-228.68 1114,-219.15"/>
<polygon fill="#63b8ff" stroke="#63b8ff" points="1227.24,-254.54 1237.81,-253.87 1229.13,-247.8 1227.24,-254.54"/>
</a>
</g>
</g>
<!-- Node3 -->
<g id="Node000003" class="node">
<title>Node3</title>
<g id="a_Node000003"><a xlink:href="Application_8hpp.html" target="_top" xlink:title=" ">
<polygon fill="white" stroke="#666666" points="194.25,-152.25 97.25,-152.25 97.25,-121.75 194.25,-121.75 194.25,-152.25"/>
<text xml:space="preserve" text-anchor="start" x="105.25" y="-138.75" font-family="Helvetica,sans-Serif" font-size="10.00">client/include/Core</text>
<text xml:space="preserve" text-anchor="middle" x="145.75" y="-127.5" font-family="Helvetica,sans-Serif" font-size="10.00">/Application.hpp</text>
</a>
</g>
</g>
<!-- Node2&#45;&gt;Node3 -->
<g id="edge2_Node000002_Node000003" class="edge">
<title>Node2&#45;&gt;Node3</title>
<g id="a_edge2_Node000002_Node000003"><a xlink:title=" ">
<path fill="none" stroke="#63b8ff" d="M317.7,-184.8C278.72,-174.19 229.98,-160.92 194.36,-151.23"/>
<polygon fill="#63b8ff" stroke="#63b8ff" points="316.65,-188.14 327.21,-187.39 318.48,-181.38 316.65,-188.14"/>
</a>
</g>
</g>
<!-- Node6 -->
<g id="Node000006" class="node">
<title>Node6</title>
<g id="a_Node000006"><a xlink:href="SpriteCustomizer_8cpp.html" target="_top" xlink:title=" ">
<polygon fill="white" stroke="#666666" points="393.62,-146.62 211.88,-146.62 211.88,-127.38 393.62,-127.38 393.62,-146.62"/>
<text xml:space="preserve" text-anchor="middle" x="302.75" y="-133.12" font-family="Helvetica,sans-Serif" font-size="10.00">client/src/Game/SpriteCustomizer.cpp</text>
</a>
</g>
</g>
<!-- Node2&#45;&gt;Node6 -->
<g id="edge5_Node000002_Node000006" class="edge">
<title>Node2&#45;&gt;Node6</title>
<g id="a_edge5_Node000002_Node000006"><a xlink:title=" ">
<path fill="none" stroke="#63b8ff" d="M356.02,-180.95C341.58,-169.31 324.54,-155.57 313.69,-146.82"/>
<polygon fill="#63b8ff" stroke="#63b8ff" points="353.44,-183.36 363.42,-186.91 357.83,-177.91 353.44,-183.36"/>
</a>
</g>
</g>
<!-- Node7 -->
<g id="Node000007" class="node">
<title>Node7</title>
<g id="a_Node000007"><a xlink:href="RenderSystem_8cpp.html" target="_top" xlink:title=" ">
<polygon fill="white" stroke="#666666" points="514.25,-152.25 411.25,-152.25 411.25,-121.75 514.25,-121.75 514.25,-152.25"/>
<text xml:space="preserve" text-anchor="start" x="419.25" y="-138.75" font-family="Helvetica,sans-Serif" font-size="10.00">client/src/Systems</text>
<text xml:space="preserve" text-anchor="middle" x="462.75" y="-127.5" font-family="Helvetica,sans-Serif" font-size="10.00">/RenderSystem.cpp</text>
</a>
</g>
</g>
<!-- Node2&#45;&gt;Node7 -->
<g id="edge6_Node000002_Node000007" class="edge">
<title>Node2&#45;&gt;Node7</title>
<g id="a_edge6_Node000002_Node000007"><a xlink:title=" ">
<path fill="none" stroke="#63b8ff" d="M409.7,-180.77C421.22,-171.48 434.35,-160.9 444.67,-152.58"/>
<polygon fill="#63b8ff" stroke="#63b8ff" points="407.67,-177.91 402.08,-186.91 412.06,-183.36 407.67,-177.91"/>
</a>
</g>
</g>
<!-- Node4 -->
<g id="Node000004" class="node">
<title>Node4</title>
<g id="a_Node000004"><a xlink:href="Application_8cpp.html" target="_top" xlink:title=" ">
<polygon fill="white" stroke="#666666" points="149.5,-80.12 0,-80.12 0,-60.88 149.5,-60.88 149.5,-80.12"/>
<text xml:space="preserve" text-anchor="middle" x="74.75" y="-66.62" font-family="Helvetica,sans-Serif" font-size="10.00">client/src/Core/Application.cpp</text>
</a>
</g>
</g>
<!-- Node3&#45;&gt;Node4 -->
<g id="edge3_Node000003_Node000004" class="edge">
<title>Node3&#45;&gt;Node4</title>
<g id="a_edge3_Node000003_Node000004"><a xlink:title=" ">
<path fill="none" stroke="#63b8ff" d="M121.3,-113.79C108.64,-102.29 93.91,-88.9 84.46,-80.32"/>
<polygon fill="#63b8ff" stroke="#63b8ff" points="118.76,-116.21 128.52,-120.35 123.47,-111.03 118.76,-116.21"/>
</a>
</g>
</g>
<!-- Node5 -->
<g id="Node000005" class="node">
<title>Node5</title>
<g id="a_Node000005"><a xlink:href="client_2src_2main_8cpp.html" target="_top" xlink:title=" ">
<polygon fill="white" stroke="#666666" points="266,-80.12 167.5,-80.12 167.5,-60.88 266,-60.88 266,-80.12"/>
<text xml:space="preserve" text-anchor="middle" x="216.75" y="-66.62" font-family="Helvetica,sans-Serif" font-size="10.00">client/src/main.cpp</text>
</a>
</g>
</g>
<!-- Node3&#45;&gt;Node5 -->
<g id="edge4_Node000003_Node000005" class="edge">
<title>Node3&#45;&gt;Node5</title>
<g id="a_edge4_Node000003_Node000005"><a xlink:title=" ">
<path fill="none" stroke="#63b8ff" d="M170.2,-113.79C182.86,-102.29 197.59,-88.9 207.04,-80.32"/>
<polygon fill="#63b8ff" stroke="#63b8ff" points="168.03,-111.03 162.98,-120.35 172.74,-116.21 168.03,-111.03"/>
</a>
</g>
</g>
<!-- Node11 -->
<g id="Node000011" class="node">
<title>Node11</title>
<g id="a_Node000011"><a xlink:href="GameManager_8cpp.html" target="_top" xlink:title=" ">
<polygon fill="white" stroke="#666666" points="1345.5,-19.25 1172,-19.25 1172,0 1345.5,0 1345.5,-19.25"/>
<text xml:space="preserve" text-anchor="middle" x="1258.75" y="-5.75" font-family="Helvetica,sans-Serif" font-size="10.00">server/src/Game/GameManager.cpp</text>
</a>
</g>
</g>
<!-- Node10&#45;&gt;Node11 -->
<g id="edge10_Node000010_Node000011" class="edge">
<title>Node10&#45;&gt;Node11</title>
<g id="a_edge10_Node000010_Node000011"><a xlink:title=" ">
<path fill="none" stroke="#63b8ff" d="M1308.42,-48.12C1295.46,-38.33 1280.79,-27.26 1270.77,-19.7"/>
<polygon fill="#63b8ff" stroke="#63b8ff" points="1306.17,-50.8 1316.26,-54.03 1310.39,-45.22 1306.17,-50.8"/>
</a>
</g>
</g>
<!-- Node12 -->
<g id="Node000012" class="node">
<title>Node12</title>
<g id="a_Node000012"><a xlink:href="server_2src_2main_8cpp.html" target="_top" xlink:title=" ">
<polygon fill="white" stroke="#666666" points="1465.88,-19.25 1363.62,-19.25 1363.62,0 1465.88,0 1465.88,-19.25"/>
<text xml:space="preserve" text-anchor="middle" x="1414.75" y="-5.75" font-family="Helvetica,sans-Serif" font-size="10.00">server/src/main.cpp</text>
</a>
</g>
</g>
<!-- Node10&#45;&gt;Node12 -->
<g id="edge11_Node000010_Node000012" class="edge">
<title>Node10&#45;&gt;Node12</title>
<g id="a_edge11_Node000010_Node000012"><a xlink:title=" ">
<path fill="none" stroke="#63b8ff" d="M1365.08,-48.12C1378.04,-38.33 1392.71,-27.26 1402.73,-19.7"/>
<polygon fill="#63b8ff" stroke="#63b8ff" points="1363.11,-45.22 1357.24,-54.03 1367.33,-50.8 1363.11,-45.22"/>
</a>
</g>
</g>
<!-- Node13&#45;&gt;Node10 -->
<g id="edge13_Node000013_Node000010" class="edge">
<title>Node13&#45;&gt;Node10</title>
<g id="a_edge13_Node000013_Node000010"><a xlink:title=" ">
<path fill="none" stroke="#63b8ff" d="M1224.16,-179.46C1238.45,-162.89 1258.64,-140.3 1277.75,-121.75 1290.78,-109.1 1306.48,-95.82 1318.4,-86.09"/>
<polygon fill="#63b8ff" stroke="#63b8ff" points="1221.7,-176.95 1217.86,-186.83 1227.02,-181.5 1221.7,-176.95"/>
</a>
</g>
</g>
<!-- Node14 -->
<g id="Node000014" class="node">
<title>Node14</title>
<g id="a_Node000014"><a xlink:href="AuthSystem_8cpp.html" target="_top" xlink:title=" ">
<polygon fill="white" stroke="#666666" points="1225.5,-152.25 1124,-152.25 1124,-121.75 1225.5,-121.75 1225.5,-152.25"/>
<text xml:space="preserve" text-anchor="start" x="1132" y="-138.75" font-family="Helvetica,sans-Serif" font-size="10.00">server/src/Systems</text>
<text xml:space="preserve" text-anchor="middle" x="1174.75" y="-127.5" font-family="Helvetica,sans-Serif" font-size="10.00">/AuthSystem.cpp</text>
</a>
</g>
</g>
<!-- Node13&#45;&gt;Node14 -->
<g id="edge14_Node000013_Node000014" class="edge">
<title>Node13&#45;&gt;Node14</title>
<g id="a_edge14_Node000013_Node000014"><a xlink:title=" ">
<path fill="none" stroke="#63b8ff" d="M1193.21,-177.69C1189.26,-169.21 1184.98,-159.99 1181.53,-152.58"/>
<polygon fill="#63b8ff" stroke="#63b8ff" points="1189.91,-178.9 1197.3,-186.49 1196.26,-175.95 1189.91,-178.9"/>
</a>
</g>
</g>
<!-- Node15&#45;&gt;Node10 -->
<g id="edge16_Node000015_Node000010" class="edge">
<title>Node15&#45;&gt;Node10</title>
<g id="a_edge16_Node000015_Node000010"><a xlink:title=" ">
<path fill="none" stroke="#63b8ff" d="M676.38,-121.65C908.56,-91.75 1172.36,-78.29 1283.34,-73.57"/>
<polygon fill="#63b8ff" stroke="#63b8ff" points="675.97,-118.18 666.5,-122.94 676.87,-125.12 675.97,-118.18"/>
</a>
</g>
</g>
<!-- Node16 -->
<g id="Node000016" class="node">
<title>Node16</title>
<g id="a_Node000016"><a xlink:href="BulletCleanupSystem_8cpp.html" target="_top" xlink:title=" ">
<polygon fill="white" stroke="#666666" points="664.88,-85.75 532.62,-85.75 532.62,-55.25 664.88,-55.25 664.88,-85.75"/>
<text xml:space="preserve" text-anchor="start" x="540.62" y="-72.25" font-family="Helvetica,sans-Serif" font-size="10.00">server/src/Systems</text>
<text xml:space="preserve" text-anchor="middle" x="598.75" y="-61" font-family="Helvetica,sans-Serif" font-size="10.00">/BulletCleanupSystem.cpp</text>
</a>
</g>
</g>
<!-- Node15&#45;&gt;Node16 -->
<g id="edge17_Node000015_Node000016" class="edge">
<title>Node15&#45;&gt;Node16</title>
<g id="a_edge17_Node000015_Node000016"><a xlink:title=" ">
<path fill="none" stroke="#63b8ff" d="M598.75,-110.06C598.75,-101.89 598.75,-93.16 598.75,-86.08"/>
<polygon fill="#63b8ff" stroke="#63b8ff" points="595.25,-109.85 598.75,-119.85 602.25,-109.85 595.25,-109.85"/>
</a>
</g>
</g>
<!-- Node17&#45;&gt;Node10 -->
<g id="edge19_Node000017_Node000010" class="edge">
<title>Node17&#45;&gt;Node10</title>
<g id="a_edge19_Node000017_Node000010"><a xlink:title=" ">
<path fill="none" stroke="#63b8ff" d="M813.77,-121.4C991.2,-94.99 1190.26,-80.51 1283.5,-74.62"/>
<polygon fill="#63b8ff" stroke="#63b8ff" points="813.25,-117.93 803.88,-122.89 814.29,-124.86 813.25,-117.93"/>
</a>
</g>
</g>
<!-- Node18 -->
<g id="Node000018" class="node">
<title>Node18</title>
<g id="a_Node000018"><a xlink:href="CollisionSystem_8cpp.html" target="_top" xlink:title=" ">
<polygon fill="white" stroke="#666666" points="797.25,-85.75 688.25,-85.75 688.25,-55.25 797.25,-55.25 797.25,-85.75"/>
<text xml:space="preserve" text-anchor="start" x="696.25" y="-72.25" font-family="Helvetica,sans-Serif" font-size="10.00">server/src/Systems</text>
<text xml:space="preserve" text-anchor="middle" x="742.75" y="-61" font-family="Helvetica,sans-Serif" font-size="10.00">/CollisionSystem.cpp</text>
</a>
</g>
</g>
<!-- Node17&#45;&gt;Node18 -->
<g id="edge20_Node000017_Node000018" class="edge">
<title>Node17&#45;&gt;Node18</title>
<g id="a_edge20_Node000017_Node000018"><a xlink:title=" ">
<path fill="none" stroke="#63b8ff" d="M742.75,-110.06C742.75,-101.89 742.75,-93.16 742.75,-86.08"/>
<polygon fill="#63b8ff" stroke="#63b8ff" points="739.25,-109.85 742.75,-119.85 746.25,-109.85 739.25,-109.85"/>
</a>
</g>
</g>
<!-- Node19&#45;&gt;Node10 -->
<g id="edge22_Node000019_Node000010" class="edge">
<title>Node19&#45;&gt;Node10</title>
<g id="a_edge22_Node000019_Node000010"><a xlink:title=" ">
<path fill="none" stroke="#63b8ff" d="M1548.86,-182.05C1574.44,-165.99 1600.16,-142.9 1582.75,-121.75 1529.79,-57.42 1480.26,-103.09 1398.75,-85.75 1395.94,-85.15 1393.06,-84.53 1390.16,-83.89"/>
<polygon fill="#63b8ff" stroke="#63b8ff" points="1547.24,-178.93 1540.45,-187.06 1550.83,-184.94 1547.24,-178.93"/>
</a>
</g>
</g>
<!-- Node20 -->
<g id="Node000020" class="node">
<title>Node20</title>
<g id="a_Node000020"><a xlink:href="EnemyAISystem_8cpp.html" target="_top" xlink:title=" ">
<polygon fill="white" stroke="#666666" points="1573.75,-152.25 1461.75,-152.25 1461.75,-121.75 1573.75,-121.75 1573.75,-152.25"/>
<text xml:space="preserve" text-anchor="start" x="1469.75" y="-138.75" font-family="Helvetica,sans-Serif" font-size="10.00">server/src/Systems</text>
<text xml:space="preserve" text-anchor="middle" x="1517.75" y="-127.5" font-family="Helvetica,sans-Serif" font-size="10.00">/EnemyAISystem.cpp</text>
</a>
</g>
</g>
<!-- Node19&#45;&gt;Node20 -->
<g id="edge23_Node000019_Node000020" class="edge">
<title>Node19&#45;&gt;Node20</title>
<g id="a_edge23_Node000019_Node000020"><a xlink:title=" ">
<path fill="none" stroke="#63b8ff" d="M1512.97,-176.56C1513.98,-168.39 1515.06,-159.66 1515.94,-152.58"/>
<polygon fill="#63b8ff" stroke="#63b8ff" points="1509.51,-176.01 1511.75,-186.36 1516.46,-176.87 1509.51,-176.01"/>
</a>
</g>
</g>
<!-- Node21&#45;&gt;Node10 -->
<g id="edge25_Node000021_Node000010" class="edge">
<title>Node21&#45;&gt;Node10</title>
<g id="a_edge25_Node000021_Node000010"><a xlink:title=" ">
<path fill="none" stroke="#63b8ff" d="M959.21,-122.15C960.06,-122.02 960.91,-121.88 961.75,-121.75 1076.1,-103.65 1210.74,-86.66 1283.54,-77.82"/>
<polygon fill="#63b8ff" stroke="#63b8ff" points="958.77,-118.68 949.48,-123.77 959.91,-125.59 958.77,-118.68"/>
</a>
</g>
</g>
<!-- Node22 -->
<g id="Node000022" class="node">
<title>Node22</title>
<g id="a_Node000022"><a xlink:href="EnemyShootSystem_8cpp.html" target="_top" xlink:title=" ">
<polygon fill="white" stroke="#666666" points="947.62,-85.75 819.88,-85.75 819.88,-55.25 947.62,-55.25 947.62,-85.75"/>
<text xml:space="preserve" text-anchor="start" x="827.88" y="-72.25" font-family="Helvetica,sans-Serif" font-size="10.00">server/src/Systems</text>
<text xml:space="preserve" text-anchor="middle" x="883.75" y="-61" font-family="Helvetica,sans-Serif" font-size="10.00">/EnemyShootSystem.cpp</text>
</a>
</g>
</g>
<!-- Node21&#45;&gt;Node22 -->
<g id="edge26_Node000021_Node000022" class="edge">
<title>Node21&#45;&gt;Node22</title>
<g id="a_edge26_Node000021_Node000022"><a xlink:title=" ">
<path fill="none" stroke="#63b8ff" d="M883.75,-110.06C883.75,-101.89 883.75,-93.16 883.75,-86.08"/>
<polygon fill="#63b8ff" stroke="#63b8ff" points="880.25,-109.85 883.75,-119.85 887.25,-109.85 880.25,-109.85"/>
</a>
</g>
</g>
<!-- Node23&#45;&gt;Node10 -->
<g id="edge28_Node000023_Node000010" class="edge">
<title>Node23&#45;&gt;Node10</title>
<g id="a_edge28_Node000023_Node000010"><a xlink:title=" ">
<path fill="none" stroke="#63b8ff" d="M2140.91,-177.24C2146.88,-159.41 2150.51,-136.2 2136.75,-121.75 2108.44,-92.03 1439.41,-91.37 1398.75,-85.75 1395.91,-85.36 1393,-84.9 1390.07,-84.39"/>
<polygon fill="#63b8ff" stroke="#63b8ff" points="2137.72,-175.78 2137.44,-186.37 2144.26,-178.26 2137.72,-175.78"/>
</a>
</g>
</g>
<!-- Node24 -->
<g id="Node000024" class="node">
<title>Node24</title>
<g id="a_Node000024"><a xlink:href="LevelSystem_8hpp.html" target="_top" xlink:title=" ">
<polygon fill="white" stroke="#666666" points="1786.12,-152.25 1667.38,-152.25 1667.38,-121.75 1786.12,-121.75 1786.12,-152.25"/>
<text xml:space="preserve" text-anchor="start" x="1675.38" y="-138.75" font-family="Helvetica,sans-Serif" font-size="10.00">server/include/Systems</text>
<text xml:space="preserve" text-anchor="middle" x="1726.75" y="-127.5" font-family="Helvetica,sans-Serif" font-size="10.00">/LevelSystem.hpp</text>
</a>
</g>
</g>
<!-- Node23&#45;&gt;Node24 -->
<g id="edge29_Node000023_Node000024" class="edge">
<title>Node23&#45;&gt;Node24</title>
<g id="a_edge29_Node000023_Node000024"><a xlink:title=" ">
<path fill="none" stroke="#63b8ff" d="M2059.01,-192C1964.58,-177.96 1807.63,-154.56 1794.75,-152.25 1792.02,-151.76 1789.23,-151.24 1786.42,-150.71"/>
<polygon fill="#63b8ff" stroke="#63b8ff" points="2058.3,-195.43 2068.71,-193.44 2059.33,-188.5 2058.3,-195.43"/>
</a>
</g>
</g>
<!-- Node26 -->
<g id="Node000026" class="node">
<title>Node26</title>
<g id="a_Node000026"><a xlink:href="EntitySystem_8cpp.html" target="_top" xlink:title=" ">
<polygon fill="white" stroke="#666666" points="2285.5,-152.25 2184,-152.25 2184,-121.75 2285.5,-121.75 2285.5,-152.25"/>
<text xml:space="preserve" text-anchor="start" x="2192" y="-138.75" font-family="Helvetica,sans-Serif" font-size="10.00">server/src/Systems</text>
<text xml:space="preserve" text-anchor="middle" x="2234.75" y="-127.5" font-family="Helvetica,sans-Serif" font-size="10.00">/EntitySystem.cpp</text>
</a>
</g>
</g>
<!-- Node23&#45;&gt;Node26 -->
<g id="edge32_Node000023_Node000026" class="edge">
<title>Node23&#45;&gt;Node26</title>
<g id="a_edge32_Node000023_Node000026"><a xlink:title=" ">
<path fill="none" stroke="#63b8ff" d="M2163.34,-181.86C2178.87,-172.33 2196.94,-161.23 2211.02,-152.58"/>
<polygon fill="#63b8ff" stroke="#63b8ff" points="2161.55,-178.86 2154.87,-187.07 2165.22,-184.82 2161.55,-178.86"/>
</a>
</g>
</g>
<!-- Node24&#45;&gt;Node10 -->
<g id="edge30_Node000024_Node000010" class="edge">
<title>Node24&#45;&gt;Node10</title>
<g id="a_edge30_Node000024_Node000010"><a xlink:title=" ">
<path fill="none" stroke="#63b8ff" d="M1655.79,-122.1C1655.11,-121.98 1654.43,-121.86 1653.75,-121.75 1540.88,-102.78 1511.29,-106.59 1398.75,-85.75 1395.93,-85.23 1393.04,-84.66 1390.12,-84.07"/>
<polygon fill="#63b8ff" stroke="#63b8ff" points="1655.09,-125.53 1665.55,-123.82 1656.31,-118.63 1655.09,-125.53"/>
</a>
</g>
</g>
<!-- Node24&#45;&gt;Node25 -->
<g id="edge31_Node000024_Node000025" class="edge">
<title>Node24&#45;&gt;Node25</title>
<g id="a_edge31_Node000024_Node000025"><a xlink:title=" ">
<path fill="none" stroke="#63b8ff" d="M1797.62,-121.26C1892.1,-103.79 1991.21,-88.14 2049.74,-79.18"/>
<polygon fill="#63b8ff" stroke="#63b8ff" points="1797.1,-117.79 1787.91,-123.06 1798.38,-124.68 1797.1,-117.79"/>
</a>
</g>
</g>
<!-- Node27&#45;&gt;Node10 -->
<g id="edge34_Node000027_Node000010" class="edge">
<title>Node27&#45;&gt;Node10</title>
<g id="a_edge34_Node000027_Node000010"><a xlink:title=" ">
<path fill="none" stroke="#63b8ff" d="M2389.4,-181.44C2412.47,-164.51 2435.88,-140.53 2417.75,-121.75 2378.41,-80.99 1454.91,-93.13 1398.75,-85.75 1395.9,-85.38 1392.99,-84.93 1390.07,-84.43"/>
<polygon fill="#63b8ff" stroke="#63b8ff" points="2387.44,-178.55 2381.24,-187.14 2391.45,-184.29 2387.44,-178.55"/>
</a>
</g>
</g>
<!-- Node28 -->
<g id="Node000028" class="node">
<title>Node28</title>
<g id="a_Node000028"><a xlink:href="HomingSystem_8cpp.html" target="_top" xlink:title=" ">
<polygon fill="white" stroke="#666666" points="2408.38,-152.25 2303.12,-152.25 2303.12,-121.75 2408.38,-121.75 2408.38,-152.25"/>
<text xml:space="preserve" text-anchor="start" x="2311.12" y="-138.75" font-family="Helvetica,sans-Serif" font-size="10.00">server/src/Systems</text>
<text xml:space="preserve" text-anchor="middle" x="2355.75" y="-127.5" font-family="Helvetica,sans-Serif" font-size="10.00">/HomingSystem.cpp</text>
</a>
</g>
</g>
<!-- Node27&#45;&gt;Node28 -->
<g id="edge35_Node000027_Node000028" class="edge">
<title>Node27&#45;&gt;Node28</title>
<g id="a_edge35_Node000027_Node000028"><a xlink:title=" ">
<path fill="none" stroke="#63b8ff" d="M2355.75,-176.56C2355.75,-168.39 2355.75,-159.66 2355.75,-152.58"/>
<polygon fill="#63b8ff" stroke="#63b8ff" points="2352.25,-176.35 2355.75,-186.35 2359.25,-176.35 2352.25,-176.35"/>
</a>
</g>
</g>
<!-- Node29&#45;&gt;Node10 -->
<g id="edge37_Node000029_Node000010" class="edge">
<title>Node29&#45;&gt;Node10</title>
<g id="a_edge37_Node000029_Node000010"><a xlink:title=" ">
<path fill="none" stroke="#63b8ff" d="M1638.53,-177.12C1631.27,-158.82 1618.81,-135.09 1599.75,-121.75 1525.39,-69.73 1487.67,-103.92 1398.75,-85.75 1395.94,-85.18 1393.06,-84.57 1390.15,-83.95"/>
<polygon fill="#63b8ff" stroke="#63b8ff" points="1635.25,-178.32 1641.97,-186.51 1641.82,-175.92 1635.25,-178.32"/>
</a>
</g>
</g>
<!-- Node30 -->
<g id="Node000030" class="node">
<title>Node30</title>
<g id="a_Node000030"><a xlink:href="MovementSystem_8cpp.html" target="_top" xlink:title=" ">
<polygon fill="white" stroke="#666666" points="1921.38,-152.25 1804.12,-152.25 1804.12,-121.75 1921.38,-121.75 1921.38,-152.25"/>
<text xml:space="preserve" text-anchor="start" x="1812.12" y="-138.75" font-family="Helvetica,sans-Serif" font-size="10.00">server/src/Systems</text>
<text xml:space="preserve" text-anchor="middle" x="1862.75" y="-127.5" font-family="Helvetica,sans-Serif" font-size="10.00">/MovementSystem.cpp</text>
</a>
</g>
</g>
<!-- Node29&#45;&gt;Node30 -->
<g id="edge38_Node000029_Node000030" class="edge">
<title>Node29&#45;&gt;Node30</title>
<g id="a_edge38_Node000029_Node000030"><a xlink:title=" ">
<path fill="none" stroke="#63b8ff" d="M1706.68,-184.6C1740.38,-174.54 1781.93,-162.14 1813.68,-152.65"/>
<polygon fill="#63b8ff" stroke="#63b8ff" points="1706.06,-181.14 1697.48,-187.35 1708.07,-187.84 1706.06,-181.14"/>
</a>
</g>
</g>
<!-- Node32&#45;&gt;Node10 -->
<g id="edge41_Node000032_Node000010" class="edge">
<title>Node32&#45;&gt;Node10</title>
<g id="a_edge41_Node000032_Node000010"><a xlink:title=" ">
<path fill="none" stroke="#63b8ff" d="M1951.08,-176.62C1950.49,-158.4 1946.35,-134.99 1930.75,-121.75 1885.58,-83.42 1457.36,-94.41 1398.75,-85.75 1395.91,-85.33 1393.01,-84.85 1390.08,-84.32"/>
<polygon fill="#63b8ff" stroke="#63b8ff" points="1947.58,-176.41 1951.04,-186.43 1954.58,-176.44 1947.58,-176.41"/>
</a>
</g>
</g>
<!-- Node33 -->
<g id="Node000033" class="node">
<title>Node33</title>
<g id="a_Node000033"><a xlink:href="PlayerMouvementSystem_8cpp.html" target="_top" xlink:title=" ">
<polygon fill="white" stroke="#666666" points="2127.88,-152.25 1977.62,-152.25 1977.62,-121.75 2127.88,-121.75 2127.88,-152.25"/>
<text xml:space="preserve" text-anchor="start" x="1985.62" y="-138.75" font-family="Helvetica,sans-Serif" font-size="10.00">server/src/Systems</text>
<text xml:space="preserve" text-anchor="middle" x="2052.75" y="-127.5" font-family="Helvetica,sans-Serif" font-size="10.00">/PlayerMouvementSystem.cpp</text>
</a>
</g>
</g>
<!-- Node32&#45;&gt;Node33 -->
<g id="edge42_Node000032_Node000033" class="edge">
<title>Node32&#45;&gt;Node33</title>
<g id="a_edge42_Node000032_Node000033"><a xlink:title=" ">
<path fill="none" stroke="#63b8ff" d="M1982.7,-181.86C1997.93,-172.33 2015.66,-161.23 2029.47,-152.58"/>
<polygon fill="#63b8ff" stroke="#63b8ff" points="1981.02,-178.79 1974.41,-187.06 1984.74,-184.72 1981.02,-178.79"/>
</a>
</g>
</g>
<!-- Node34&#45;&gt;Node10 -->
<g id="edge44_Node000034_Node000010" class="edge">
<title>Node34&#45;&gt;Node10</title>
<g id="a_edge44_Node000034_Node000010"><a xlink:title=" ">
<path fill="none" stroke="#63b8ff" d="M1365.03,-112.04C1358.95,-103.32 1352.26,-93.74 1346.92,-86.08"/>
<polygon fill="#63b8ff" stroke="#63b8ff" points="1362.08,-113.92 1370.67,-120.12 1367.82,-109.92 1362.08,-113.92"/>
</a>
</g>
</g>
<!-- Node35 -->
<g id="Node000035" class="node">
<title>Node35</title>
<g id="a_Node000035"><a xlink:href="PlayerShootSystem_8cpp.html" target="_top" xlink:title=" ">
<polygon fill="white" stroke="#666666" points="1532.12,-85.75 1407.38,-85.75 1407.38,-55.25 1532.12,-55.25 1532.12,-85.75"/>
<text xml:space="preserve" text-anchor="start" x="1415.38" y="-72.25" font-family="Helvetica,sans-Serif" font-size="10.00">server/src/Systems</text>
<text xml:space="preserve" text-anchor="middle" x="1469.75" y="-61" font-family="Helvetica,sans-Serif" font-size="10.00">/PlayerShootSystem.cpp</text>
</a>
</g>
</g>
<!-- Node34&#45;&gt;Node35 -->
<g id="edge45_Node000034_Node000035" class="edge">
<title>Node34&#45;&gt;Node35</title>
<g id="a_edge45_Node000034_Node000035"><a xlink:title=" ">
<path fill="none" stroke="#63b8ff" d="M1410.65,-114.82C1423.49,-105.41 1438.29,-94.56 1449.86,-86.08"/>
<polygon fill="#63b8ff" stroke="#63b8ff" points="1408.94,-111.73 1402.94,-120.47 1413.07,-117.38 1408.94,-111.73"/>
</a>
</g>
</g>
<!-- Node36&#45;&gt;Node10 -->
<g id="edge47_Node000036_Node000010" class="edge">
<title>Node36&#45;&gt;Node10</title>
<g id="a_edge47_Node000036_Node000010"><a xlink:title=" ">
<path fill="none" stroke="#63b8ff" d="M1025.47,-181.62C1001.49,-165.2 977.4,-141.83 994.75,-121.75 1031.38,-79.34 1196.57,-72.07 1283.25,-71.23"/>
<polygon fill="#63b8ff" stroke="#63b8ff" points="1023.36,-184.42 1033.65,-186.94 1027.18,-178.55 1023.36,-184.42"/>
</a>
</g>
</g>
<!-- Node36&#45;&gt;Node15 -->
<g id="edge48_Node000036_Node000015" class="edge">
<title>Node36&#45;&gt;Node15</title>
<g id="a_edge48_Node000036_Node000015"><a xlink:title=" ">
<path fill="none" stroke="#63b8ff" d="M990.84,-194.5C913.1,-185.46 784.77,-169.69 674.75,-152.25 671.57,-151.75 668.31,-151.21 665.03,-150.65"/>
<polygon fill="#63b8ff" stroke="#63b8ff" points="990.09,-197.94 1000.43,-195.62 990.9,-190.99 990.09,-197.94"/>
</a>
</g>
</g>
<!-- Node36&#45;&gt;Node17 -->
<g id="edge49_Node000036_Node000017" class="edge">
<title>Node36&#45;&gt;Node17</title>
<g id="a_edge49_Node000036_Node000017"><a xlink:title=" ">
<path fill="none" stroke="#63b8ff" d="M990.8,-188.47C940.51,-178.49 871.46,-164.69 810.75,-152.25 808.03,-151.69 805.25,-151.12 802.45,-150.54"/>
<polygon fill="#63b8ff" stroke="#63b8ff" points="989.9,-191.86 1000.39,-190.38 991.26,-185 989.9,-191.86"/>
</a>
</g>
</g>
<!-- Node36&#45;&gt;Node21 -->
<g id="edge50_Node000036_Node000021" class="edge">
<title>Node36&#45;&gt;Node21</title>
<g id="a_edge50_Node000036_Node000021"><a xlink:title=" ">
<path fill="none" stroke="#63b8ff" d="M1010.78,-184.03C983.33,-174.08 949.95,-161.99 924.29,-152.69"/>
<polygon fill="#63b8ff" stroke="#63b8ff" points="1009.34,-187.23 1019.94,-187.35 1011.73,-180.65 1009.34,-187.23"/>
</a>
</g>
</g>
<!-- Node36&#45;&gt;Node24 -->
<g id="edge51_Node000036_Node000024" class="edge">
<title>Node36&#45;&gt;Node24</title>
<g id="a_edge51_Node000036_Node000024"><a xlink:title=" ">
<path fill="none" stroke="#63b8ff" d="M1132.5,-188.84C1133.93,-188.64 1135.35,-188.44 1136.75,-188.25 1333.83,-161.65 1384.68,-170.04 1582.75,-152.25 1610.52,-149.76 1641.28,-146.74 1667.22,-144.13"/>
<polygon fill="#63b8ff" stroke="#63b8ff" points="1132.27,-185.34 1122.92,-190.33 1133.34,-192.26 1132.27,-185.34"/>
</a>
</g>
</g>
<!-- Node36&#45;&gt;Node34 -->
<g id="edge52_Node000036_Node000034" class="edge">
<title>Node36&#45;&gt;Node34</title>
<g id="a_edge52_Node000036_Node000034"><a xlink:title=" ">
<path fill="none" stroke="#63b8ff" d="M1132.77,-188.18C1188.53,-176.95 1265.42,-161.45 1318.95,-150.66"/>
<polygon fill="#63b8ff" stroke="#63b8ff" points="1132.16,-184.74 1123.05,-190.14 1133.54,-191.6 1132.16,-184.74"/>
</a>
</g>
</g>
<!-- Node37 -->
<g id="Node000037" class="node">
<title>Node37</title>
<g id="a_Node000037"><a xlink:href="RoomSystem_8cpp.html" target="_top" xlink:title=" ">
<polygon fill="white" stroke="#666666" points="1105.5,-152.25 1004,-152.25 1004,-121.75 1105.5,-121.75 1105.5,-152.25"/>
<text xml:space="preserve" text-anchor="start" x="1012" y="-138.75" font-family="Helvetica,sans-Serif" font-size="10.00">server/src/Systems</text>
<text xml:space="preserve" text-anchor="middle" x="1054.75" y="-127.5" font-family="Helvetica,sans-Serif" font-size="10.00">/RoomSystem.cpp</text>
</a>
</g>
</g>
<!-- Node36&#45;&gt;Node37 -->
<g id="edge53_Node000036_Node000037" class="edge">
<title>Node36&#45;&gt;Node37</title>
<g id="a_edge53_Node000036_Node000037"><a xlink:title=" ">
<path fill="none" stroke="#63b8ff" d="M1058.93,-176.56C1058.05,-168.39 1057.1,-159.66 1056.33,-152.58"/>
<polygon fill="#63b8ff" stroke="#63b8ff" points="1055.44,-176.8 1060,-186.36 1062.4,-176.04 1055.44,-176.8"/>
</a>
</g>
</g>
</g>
</svg>
