<?xml version="1.0" encoding="UTF-8" standalone="no"?>
<!DOCTYPE svg PUBLIC "-//W3C//DTD SVG 1.1//EN"
 "http://www.w3.org/Graphics/SVG/1.1/DTD/svg11.dtd">
<!-- Generated by graphviz version 14.0.5 (20251129.0259)
 -->
<!-- Title: common/include/RType/ECS/Components/EntityType.hpp Pages: 1 -->
<!--zoomable 448 -->

<svg id="main" version="1.1" xmlns="http://www.w3.org/2000/svg" xmlns:xlink="http://www.w3.org/1999/xlink" xml:space="preserve" onload="init(evt)">

<style type="text/css"><![CDATA[
.node, .edge {opacity: 0.7;}
.node.selected, .edge.selected {opacity: 1;}
.edge:hover path { stroke: red; }
.edge:hover polygon { stroke: red; fill: red; }
]]></style>

<defs>
  <circle id="rim" cx="0" cy="0" r="7"/>
  <circle id="rim2" cx="0" cy="0" r="3.5"/>
  <g id="zoomPlus">
    <use xlink:href="#rim" fill="#404040"><set attributeName="fill" to="#808080" begin="zoomplus.mouseover" end="zoomplus.mouseout"/></use>
    <path d="M-4,0h8M0,-4v8" fill="none" stroke="white" stroke-width="1.5" pointer-events="none"/>
  </g>
  <g id="zoomMin">
    <use xlink:href="#rim" fill="#404040"><set attributeName="fill" to="#808080" begin="zoomminus.mouseover" end="zoomminus.mouseout"/></use>
    <path d="M-4,0h8" fill="none" stroke="white" stroke-width="1.5" pointer-events="none"/>
  </g>
  <g id="arrowUp" transform="translate(30 24)">
    <use xlink:href="#rim"/>
    <path pointer-events="none" fill="none" stroke="white" stroke-width="1.5" d="M0,-3.0v7 M-2.5,-0.5L0,-3.0L2.5,-0.5"/>
  </g>
  <g id="arrowRight" transform="rotate(90) translate(36 -43)">
    <use xlink:href="#rim"/>
    <path pointer-events="none" fill="none" stroke="white" stroke-width="1.5" d="M0,-3.0v7 M-2.5,-0.5L0,-3.0L2.5,-0.5"/>
  </g>
  <g id="arrowDown" transform="rotate(180) translate(-30 -48)">
    <use xlink:href="#rim"/>
    <path pointer-events="none" fill="none" stroke="white" stroke-width="1.5" d="M0,-3.0v7 M-2.5,-0.5L0,-3.0L2.5,-0.5"/>
  </g>
  <g id="arrowLeft" transform="rotate(270) translate(-36 17)">
    <use xlink:href="#rim"/>
    <path pointer-events="none" fill="none" stroke="white" stroke-width="1.5" d="M0,-3.0v7 M-2.5,-0.5L0,-3.0L2.5,-0.5"/>
  </g>
  <g id="resetDef">
    <use xlink:href="#rim2" fill="#404040"><set attributeName="fill" to="#808080" begin="reset.mouseover" end="reset.mouseout"/></use>
  </g>
</defs>
<script type="application/ecmascript">
var viewWidth = 1371;
var viewHeight = 448;
var sectionId = 'dynsection-0';
</script>
<script type="application/ecmascript" xlink:href="svg.min.js"/>
<svg id="graph" class="graph">
<g id="viewport">
<title>common/include/RType/ECS/Components/EntityType.hpp</title>
<!-- Node1 -->
<g id="Node000001" class="node">
<title>Node1</title>
<g id="a_Node000001"><a xlink:title=" ">
<polygon fill="#999999" stroke="#666666" points="577.47,-439.75 410.72,-439.75 410.72,-409.25 577.47,-409.25 577.47,-439.75"/>
<text xml:space="preserve" text-anchor="start" x="418.72" y="-426.25" font-family="Helvetica,sans-Serif" font-size="10.00">common/include/RType</text>
<text xml:space="preserve" text-anchor="middle" x="494.1" y="-415" font-family="Helvetica,sans-Serif" font-size="10.00">/ECS/Components/EntityType.hpp</text>
</a>
</g>
</g>
<!-- Node2 -->
<g id="Node000002" class="node">
<title>Node2</title>
<g id="a_Node000002"><a xlink:href="Vec2_8hpp.html" target="_top" xlink:title="Declaration of the 2&#45;dimensional vector class.">
<polygon fill="white" stroke="#666666" points="831.85,-318 718.35,-318 718.35,-298.75 831.85,-298.75 831.85,-318"/>
<text xml:space="preserve" text-anchor="middle" x="775.1" y="-304.5" font-family="Helvetica,sans-Serif" font-size="10.00">RType/Math/Vec2.hpp</text>
</a>
</g>
</g>
<!-- Node1&#45;&gt;Node2 -->
<g id="edge1_Node000001_Node000002" class="edge">
<title>Node1&#45;&gt;Node2</title>
<g id="a_edge1_Node000001_Node000002"><a xlink:title=" ">
<path fill="none" stroke="#63b8ff" d="M530.26,-408.81C585.34,-386.44 689.42,-344.17 742.38,-322.66"/>
<polygon fill="#63b8ff" stroke="#63b8ff" points="743.51,-325.98 751.46,-318.97 740.88,-319.5 743.51,-325.98"/>
</a>
</g>
</g>
<!-- Node28 -->
<g id="Node000028" class="node">
<title>Node28</title>
<g id="a_Node000028"><a xlink:href="Packet_8hpp.html" target="_top" xlink:title="Network packet implementation for R&#45;Type protocol.">
<polygon fill="white" stroke="#666666" points="514.47,-373.25 377.72,-373.25 377.72,-354 514.47,-354 514.47,-373.25"/>
<text xml:space="preserve" text-anchor="middle" x="446.1" y="-359.75" font-family="Helvetica,sans-Serif" font-size="10.00">RType/Network/Packet.hpp</text>
</a>
</g>
</g>
<!-- Node1&#45;&gt;Node28 -->
<g id="edge37_Node000001_Node000028" class="edge">
<title>Node1&#45;&gt;Node28</title>
<g id="a_edge37_Node000001_Node000028"><a xlink:title=" ">
<path fill="none" stroke="#63b8ff" d="M482.23,-408.95C475.7,-400.93 467.53,-390.92 460.62,-382.44"/>
<polygon fill="#63b8ff" stroke="#63b8ff" points="463.49,-380.41 454.45,-374.87 458.06,-384.84 463.49,-380.41"/>
</a>
</g>
</g>
<!-- Node3 -->
<g id="Node000003" class="node">
<title>Node3</title>
<g id="a_Node000003"><a xlink:href="Assert_8hpp.html" target="_top" xlink:title="Assertion and verification macros for runtime checks.">
<polygon fill="white" stroke="#666666" points="817.47,-257.12 722.72,-257.12 722.72,-237.88 817.47,-237.88 817.47,-257.12"/>
<text xml:space="preserve" text-anchor="middle" x="770.1" y="-243.62" font-family="Helvetica,sans-Serif" font-size="10.00">RType/Assert.hpp</text>
</a>
</g>
</g>
<!-- Node2&#45;&gt;Node3 -->
<g id="edge2_Node000002_Node000003" class="edge">
<title>Node2&#45;&gt;Node3</title>
<g id="a_edge2_Node000002_Node000003"><a xlink:title=" ">
<path fill="none" stroke="#63b8ff" d="M774.34,-298.43C773.67,-290.57 772.67,-278.82 771.81,-268.7"/>
<polygon fill="#63b8ff" stroke="#63b8ff" points="775.33,-268.7 770.99,-259.03 768.35,-269.29 775.33,-268.7"/>
</a>
</g>
</g>
<!-- Node21 -->
<g id="Node000021" class="node">
<title>Node21</title>
<g id="a_Node000021"><a xlink:href="VecBase_8hpp.html" target="_top" xlink:title="Declaration of the CRTP base vector class.">
<polygon fill="white" stroke="#666666" points="1056.47,-262.75 955.72,-262.75 955.72,-232.25 1056.47,-232.25 1056.47,-262.75"/>
<text xml:space="preserve" text-anchor="start" x="963.72" y="-249.25" font-family="Helvetica,sans-Serif" font-size="10.00">RType/Math/details</text>
<text xml:space="preserve" text-anchor="middle" x="1006.1" y="-238" font-family="Helvetica,sans-Serif" font-size="10.00">/VecBase.hpp</text>
</a>
</g>
</g>
<!-- Node2&#45;&gt;Node21 -->
<g id="edge29_Node000002_Node000021" class="edge">
<title>Node2&#45;&gt;Node21</title>
<g id="a_edge29_Node000002_Node000021"><a xlink:title=" ">
<path fill="none" stroke="#63b8ff" d="M810.69,-298.3C846.24,-289.24 901.6,-275.13 944.33,-264.24"/>
<polygon fill="#63b8ff" stroke="#63b8ff" points="945.17,-267.64 953.99,-261.78 943.44,-260.86 945.17,-267.64"/>
</a>
</g>
</g>
<!-- Node27 -->
<g id="Node000027" class="node">
<title>Node27</title>
<g id="a_Node000027"><a xlink:href="Vec2_8tpp.html" target="_top" xlink:title=" ">
<polygon fill="white" stroke="#666666" points="890.6,-257.12 835.6,-257.12 835.6,-237.88 890.6,-237.88 890.6,-257.12"/>
<text xml:space="preserve" text-anchor="middle" x="863.1" y="-243.62" font-family="Helvetica,sans-Serif" font-size="10.00">Vec2.tpp</text>
</a>
</g>
</g>
<!-- Node2&#45;&gt;Node27 -->
<g id="edge36_Node000002_Node000027" class="edge">
<title>Node2&#45;&gt;Node27</title>
<g id="a_edge36_Node000002_Node000027"><a xlink:title=" ">
<path fill="none" stroke="#63b8ff" d="M788.46,-298.43C802.16,-289.27 823.72,-274.84 840.15,-263.85"/>
<polygon fill="#63b8ff" stroke="#63b8ff" points="841.98,-266.84 848.35,-258.37 838.09,-261.02 841.98,-266.84"/>
</a>
</g>
</g>
<!-- Node4 -->
<g id="Node000004" class="node">
<title>Node4</title>
<g id="a_Node000004"><a xlink:href="Logger_8hpp.html" target="_top" xlink:title="Logger declaration with support for multiple log levels.">
<polygon fill="white" stroke="#666666" points="966.47,-190.62 871.72,-190.62 871.72,-171.38 966.47,-171.38 966.47,-190.62"/>
<text xml:space="preserve" text-anchor="middle" x="919.1" y="-177.12" font-family="Helvetica,sans-Serif" font-size="10.00">RType/Logger.hpp</text>
</a>
</g>
</g>
<!-- Node3&#45;&gt;Node4 -->
<g id="edge3_Node000003_Node000004" class="edge">
<title>Node3&#45;&gt;Node4</title>
<g id="a_edge3_Node000003_Node000004"><a xlink:title=" ">
<path fill="none" stroke="#63b8ff" d="M791.13,-237.4C816.31,-226.5 858.72,-208.14 887.76,-195.57"/>
<polygon fill="#63b8ff" stroke="#63b8ff" points="889,-198.84 896.78,-191.66 886.22,-192.42 889,-198.84"/>
</a>
</g>
</g>
<!-- Node20 -->
<g id="Node000020" class="node">
<title>Node20</title>
<g id="a_Node000020"><a xlink:title=" ">
<polygon fill="#e0e0e0" stroke="#999999" points="724.35,-190.62 679.85,-190.62 679.85,-171.38 724.35,-171.38 724.35,-190.62"/>
<text xml:space="preserve" text-anchor="middle" x="702.1" y="-177.12" font-family="Helvetica,sans-Serif" font-size="10.00">cstdlib</text>
</a>
</g>
</g>
<!-- Node3&#45;&gt;Node20 -->
<g id="edge28_Node000003_Node000020" class="edge">
<title>Node3&#45;&gt;Node20</title>
<g id="a_edge28_Node000003_Node000020"><a xlink:title=" ">
<path fill="none" stroke="#63b8ff" d="M760.64,-237.53C750.09,-227.52 732.77,-211.1 719.71,-198.7"/>
<polygon fill="#63b8ff" stroke="#63b8ff" points="722.24,-196.28 712.57,-191.93 717.42,-201.36 722.24,-196.28"/>
</a>
</g>
</g>
<!-- Node5 -->
<g id="Node000005" class="node">
<title>Node5</title>
<g id="a_Node000005"><a xlink:href="LogLevel_8hpp.html" target="_top" xlink:title="Log severity levels for the logging system.">
<polygon fill="white" stroke="#666666" points="953.72,-74.5 848.47,-74.5 848.47,-55.25 953.72,-55.25 953.72,-74.5"/>
<text xml:space="preserve" text-anchor="middle" x="901.1" y="-61" font-family="Helvetica,sans-Serif" font-size="10.00">RType/LogLevel.hpp</text>
</a>
</g>
</g>
<!-- Node4&#45;&gt;Node5 -->
<g id="edge4_Node000004_Node000005" class="edge">
<title>Node4&#45;&gt;Node5</title>
<g id="a_edge4_Node000004_Node000005"><a xlink:title=" ">
<path fill="none" stroke="#63b8ff" d="M906.05,-170.98C894.39,-162.06 878.1,-147.22 871.1,-129.75 864.71,-113.8 874.32,-96.16 884.32,-83.46"/>
<polygon fill="#63b8ff" stroke="#63b8ff" points="886.91,-85.82 890.8,-75.97 881.61,-81.25 886.91,-85.82"/>
</a>
</g>
</g>
<!-- Node7 -->
<g id="Node000007" class="node">
<title>Node7</title>
<g id="a_Node000007"><a xlink:title=" ">
<polygon fill="#e0e0e0" stroke="#999999" points="1270.97,-19.25 1227.22,-19.25 1227.22,0 1270.97,0 1270.97,-19.25"/>
<text xml:space="preserve" text-anchor="middle" x="1249.1" y="-5.75" font-family="Helvetica,sans-Serif" font-size="10.00">format</text>
</a>
</g>
</g>
<!-- Node4&#45;&gt;Node7 -->
<g id="edge21_Node000004_Node000007" class="edge">
<title>Node4&#45;&gt;Node7</title>
<g id="a_edge21_Node000004_Node000007"><a xlink:title=" ">
<path fill="none" stroke="#63b8ff" d="M953.34,-170.9C960.82,-169.06 968.7,-167.24 976.1,-165.75 1078.81,-145.02 1121.07,-186.59 1209.1,-129.75 1233.72,-113.85 1235.88,-102.32 1245.1,-74.5 1249.76,-60.42 1250.65,-43.65 1250.43,-30.83"/>
<polygon fill="#63b8ff" stroke="#63b8ff" points="1253.94,-30.92 1250.01,-21.08 1246.95,-31.23 1253.94,-30.92"/>
</a>
</g>
</g>
<!-- Node8 -->
<g id="Node000008" class="node">
<title>Node8</title>
<g id="a_Node000008"><a xlink:title=" ">
<polygon fill="#e0e0e0" stroke="#999999" points="749.85,-19.25 684.35,-19.25 684.35,0 749.85,0 749.85,-19.25"/>
<text xml:space="preserve" text-anchor="middle" x="717.1" y="-5.75" font-family="Helvetica,sans-Serif" font-size="10.00">string_view</text>
</a>
</g>
</g>
<!-- Node4&#45;&gt;Node8 -->
<g id="edge24_Node000004_Node000008" class="edge">
<title>Node4&#45;&gt;Node8</title>
<g id="a_edge24_Node000004_Node000008"><a xlink:title=" ">
<path fill="none" stroke="#63b8ff" d="M883.95,-170.96C832.99,-157.75 744,-134.25 738.1,-129.75 715.36,-112.4 712.71,-102.07 705.1,-74.5 701.05,-59.83 704.6,-42.88 708.86,-30.13"/>
<polygon fill="#63b8ff" stroke="#63b8ff" points="712.12,-31.41 712.41,-20.82 705.58,-28.92 712.12,-31.41"/>
</a>
</g>
</g>
<!-- Node9 -->
<g id="Node000009" class="node">
<title>Node9</title>
<g id="a_Node000009"><a xlink:title=" ">
<polygon fill="#e0e0e0" stroke="#999999" points="1173.72,-19.25 1134.47,-19.25 1134.47,0 1173.72,0 1173.72,-19.25"/>
<text xml:space="preserve" text-anchor="middle" x="1154.1" y="-5.75" font-family="Helvetica,sans-Serif" font-size="10.00">utility</text>
</a>
</g>
</g>
<!-- Node4&#45;&gt;Node9 -->
<g id="edge26_Node000004_Node000009" class="edge">
<title>Node4&#45;&gt;Node9</title>
<g id="a_edge26_Node000004_Node000009"><a xlink:title=" ">
<path fill="none" stroke="#63b8ff" d="M954.31,-170.95C961.51,-169.17 969.04,-167.36 976.1,-165.75 1093.06,-139.11 1174.68,-180.88 1230.1,-74.5 1242.7,-50.32 1210.7,-31.63 1184.41,-20.88"/>
<polygon fill="#63b8ff" stroke="#63b8ff" points="1186.01,-17.74 1175.42,-17.44 1183.51,-24.28 1186.01,-17.74"/>
</a>
</g>
</g>
<!-- Node11 -->
<g id="Node000011" class="node">
<title>Node11</title>
<g id="a_Node000011"><a xlink:href="Error_8hpp.html" target="_top" xlink:title="Error handling system with categorized error codes.">
<polygon fill="white" stroke="#666666" points="1142.35,-129.75 1055.85,-129.75 1055.85,-110.5 1142.35,-110.5 1142.35,-129.75"/>
<text xml:space="preserve" text-anchor="middle" x="1099.1" y="-116.25" font-family="Helvetica,sans-Serif" font-size="10.00">RType/Error.hpp</text>
</a>
</g>
</g>
<!-- Node4&#45;&gt;Node11 -->
<g id="edge10_Node000004_Node000011" class="edge">
<title>Node4&#45;&gt;Node11</title>
<g id="a_edge10_Node000004_Node000011"><a xlink:title=" ">
<path fill="none" stroke="#63b8ff" d="M946.83,-170.93C977.35,-160.95 1026.61,-144.83 1060.81,-133.65"/>
<polygon fill="#63b8ff" stroke="#63b8ff" points="1061.48,-137.11 1069.9,-130.68 1059.31,-130.46 1061.48,-137.11"/>
</a>
</g>
</g>
<!-- Node12 -->
<g id="Node000012" class="node">
<title>Node12</title>
<g id="a_Node000012"><a xlink:title=" ">
<polygon fill="#e0e0e0" stroke="#999999" points="754.1,-74.5 714.1,-74.5 714.1,-55.25 754.1,-55.25 754.1,-74.5"/>
<text xml:space="preserve" text-anchor="middle" x="734.1" y="-61" font-family="Helvetica,sans-Serif" font-size="10.00">string</text>
</a>
</g>
</g>
<!-- Node4&#45;&gt;Node12 -->
<g id="edge23_Node000004_Node000012" class="edge">
<title>Node4&#45;&gt;Node12</title>
<g id="a_edge23_Node000004_Node000012"><a xlink:title=" ">
<path fill="none" stroke="#63b8ff" d="M883.18,-170.96C837.51,-159.19 763.43,-139 754.1,-129.75 742.48,-118.22 737.59,-100.04 735.54,-86.01"/>
<polygon fill="#63b8ff" stroke="#63b8ff" points="739.03,-85.7 734.51,-76.12 732.07,-86.43 739.03,-85.7"/>
</a>
</g>
</g>
<!-- Node16 -->
<g id="Node000016" class="node">
<title>Node16</title>
<g id="a_Node000016"><a xlink:title=" ">
<polygon fill="#e0e0e0" stroke="#999999" points="935.97,-129.75 880.22,-129.75 880.22,-110.5 935.97,-110.5 935.97,-129.75"/>
<text xml:space="preserve" text-anchor="middle" x="908.1" y="-116.25" font-family="Helvetica,sans-Serif" font-size="10.00">expected</text>
</a>
</g>
</g>
<!-- Node4&#45;&gt;Node16 -->
<g id="edge20_Node000004_Node000016" class="edge">
<title>Node4&#45;&gt;Node16</title>
<g id="a_edge20_Node000004_Node000016"><a xlink:title=" ">
<path fill="none" stroke="#63b8ff" d="M917.43,-171.06C915.96,-163.19 913.76,-151.45 911.87,-141.32"/>
<polygon fill="#63b8ff" stroke="#63b8ff" points="915.34,-140.83 910.06,-131.64 908.46,-142.11 915.34,-140.83"/>
</a>
</g>
</g>
<!-- Node17 -->
<g id="Node000017" class="node">
<title>Node17</title>
<g id="a_Node000017"><a xlink:title=" ">
<polygon fill="#e0e0e0" stroke="#999999" points="1038.22,-129.75 953.97,-129.75 953.97,-110.5 1038.22,-110.5 1038.22,-129.75"/>
<text xml:space="preserve" text-anchor="middle" x="996.1" y="-116.25" font-family="Helvetica,sans-Serif" font-size="10.00">source_location</text>
</a>
</g>
</g>
<!-- Node4&#45;&gt;Node17 -->
<g id="edge22_Node000004_Node000017" class="edge">
<title>Node4&#45;&gt;Node17</title>
<g id="a_edge22_Node000004_Node000017"><a xlink:title=" ">
<path fill="none" stroke="#63b8ff" d="M930.79,-171.06C942.55,-162.07 960.93,-148.01 975.2,-137.1"/>
<polygon fill="#63b8ff" stroke="#63b8ff" points="977.27,-139.92 983.09,-131.07 973.02,-134.36 977.27,-139.92"/>
</a>
</g>
</g>
<!-- Node18 -->
<g id="Node000018" class="node">
<title>Node18</title>
<g id="a_Node000018"><a xlink:title=" ">
<polygon fill="#e0e0e0" stroke="#999999" points="662.97,-129.75 601.22,-129.75 601.22,-110.5 662.97,-110.5 662.97,-129.75"/>
<text xml:space="preserve" text-anchor="middle" x="632.1" y="-116.25" font-family="Helvetica,sans-Serif" font-size="10.00">type_traits</text>
</a>
</g>
</g>
<!-- Node4&#45;&gt;Node18 -->
<g id="edge25_Node000004_Node000018" class="edge">
<title>Node4&#45;&gt;Node18</title>
<g id="a_edge25_Node000004_Node000018"><a xlink:title=" ">
<path fill="none" stroke="#63b8ff" d="M884.82,-170.94C877.66,-169.14 870.15,-167.33 863.1,-165.75 853.91,-163.7 738.07,-141.44 674.02,-129.16"/>
<polygon fill="#63b8ff" stroke="#63b8ff" points="675.04,-125.79 664.56,-127.34 673.72,-132.66 675.04,-125.79"/>
</a>
</g>
</g>
<!-- Node19 -->
<g id="Node000019" class="node">
<title>Node19</title>
<g id="a_Node000019"><a xlink:href="Logger_8tpp.html" target="_top" xlink:title=" ">
<polygon fill="white" stroke="#666666" points="823.6,-129.75 762.6,-129.75 762.6,-110.5 823.6,-110.5 823.6,-129.75"/>
<text xml:space="preserve" text-anchor="middle" x="793.1" y="-116.25" font-family="Helvetica,sans-Serif" font-size="10.00">Logger.tpp</text>
</a>
</g>
</g>
<!-- Node4&#45;&gt;Node19 -->
<g id="edge27_Node000004_Node000019" class="edge">
<title>Node4&#45;&gt;Node19</title>
<g id="a_edge27_Node000004_Node000019"><a xlink:title=" ">
<path fill="none" stroke="#63b8ff" d="M899.69,-170.93C879.09,-161.31 846.31,-145.99 822.54,-134.88"/>
<polygon fill="#63b8ff" stroke="#63b8ff" points="824.24,-131.81 813.7,-130.75 821.27,-138.15 824.24,-131.81"/>
</a>
</g>
</g>
<!-- Node6 -->
<g id="Node000006" class="node">
<title>Node6</title>
<g id="a_Node000006"><a xlink:title=" ">
<polygon fill="#e0e0e0" stroke="#999999" points="842.72,-19.25 797.47,-19.25 797.47,0 842.72,0 842.72,-19.25"/>
<text xml:space="preserve" text-anchor="middle" x="820.1" y="-5.75" font-family="Helvetica,sans-Serif" font-size="10.00">cstdint</text>
</a>
</g>
</g>
<!-- Node5&#45;&gt;Node6 -->
<g id="edge5_Node000005_Node000006" class="edge">
<title>Node5&#45;&gt;Node6</title>
<g id="a_edge5_Node000005_Node000006"><a xlink:title=" ">
<path fill="none" stroke="#63b8ff" d="M887.36,-54.84C875.37,-46.96 857.73,-35.36 843.52,-26.02"/>
<polygon fill="#63b8ff" stroke="#63b8ff" points="845.45,-23.1 835.17,-20.53 841.6,-28.95 845.45,-23.1"/>
</a>
</g>
</g>
<!-- Node5&#45;&gt;Node7 -->
<g id="edge6_Node000005_Node000007" class="edge">
<title>Node5&#45;&gt;Node7</title>
<g id="a_edge6_Node000005_Node000007"><a xlink:title=" ">
<path fill="none" stroke="#63b8ff" d="M953.95,-55.79C1026.68,-44.66 1155.47,-24.95 1215.96,-15.7"/>
<polygon fill="#63b8ff" stroke="#63b8ff" points="1216.26,-19.19 1225.62,-14.22 1215.2,-12.27 1216.26,-19.19"/>
</a>
</g>
</g>
<!-- Node5&#45;&gt;Node8 -->
<g id="edge7_Node000005_Node000008" class="edge">
<title>Node5&#45;&gt;Node8</title>
<g id="a_edge7_Node000005_Node000008"><a xlink:title=" ">
<path fill="none" stroke="#63b8ff" d="M869.89,-54.84C839.49,-46.04 793.06,-32.61 759.36,-22.86"/>
<polygon fill="#63b8ff" stroke="#63b8ff" points="760.5,-19.54 749.92,-20.12 758.55,-26.27 760.5,-19.54"/>
</a>
</g>
</g>
<!-- Node5&#45;&gt;Node9 -->
<g id="edge8_Node000005_Node000009" class="edge">
<title>Node5&#45;&gt;Node9</title>
<g id="a_edge8_Node000005_Node000009"><a xlink:title=" ">
<path fill="none" stroke="#63b8ff" d="M944.3,-54.78C995.09,-44.09 1078.12,-26.62 1122.98,-17.17"/>
<polygon fill="#63b8ff" stroke="#63b8ff" points="1123.5,-20.64 1132.56,-15.16 1122.06,-13.79 1123.5,-20.64"/>
</a>
</g>
</g>
<!-- Node10 -->
<g id="Node000010" class="node">
<title>Node10</title>
<g id="a_Node000010"><a xlink:title=" ">
<polygon fill="#e0e0e0" stroke="#999999" points="934.97,-19.25 867.22,-19.25 867.22,0 934.97,0 934.97,-19.25"/>
<text xml:space="preserve" text-anchor="middle" x="901.1" y="-5.75" font-family="Helvetica,sans-Serif" font-size="10.00">LogLevel.inl</text>
</a>
</g>
</g>
<!-- Node5&#45;&gt;Node10 -->
<g id="edge9_Node000005_Node000010" class="edge">
<title>Node5&#45;&gt;Node10</title>
<g id="a_edge9_Node000005_Node000010"><a xlink:title=" ">
<path fill="none" stroke="#63b8ff" d="M901.1,-55.08C901.1,-48.57 901.1,-39.42 901.1,-31.12"/>
<polygon fill="#63b8ff" stroke="#63b8ff" points="904.6,-31.12 901.1,-21.12 897.6,-31.12 904.6,-31.12"/>
</a>
</g>
</g>
<!-- Node11&#45;&gt;Node5 -->
<g id="edge11_Node000011_Node000005" class="edge">
<title>Node11&#45;&gt;Node5</title>
<g id="a_edge11_Node000011_Node000005"><a xlink:title=" ">
<path fill="none" stroke="#63b8ff" d="M1065.51,-110.09C1032.51,-101.22 981.97,-87.62 945.64,-77.85"/>
<polygon fill="#63b8ff" stroke="#63b8ff" points="946.88,-74.56 936.31,-75.35 945.06,-81.32 946.88,-74.56"/>
</a>
</g>
</g>
<!-- Node11&#45;&gt;Node6 -->
<g id="edge12_Node000011_Node000006" class="edge">
<title>Node11&#45;&gt;Node6</title>
<g id="a_edge12_Node000011_Node000006"><a xlink:title=" ">
<path fill="none" stroke="#63b8ff" d="M1055.49,-111.79C981.72,-99.36 840.11,-75.4 839.1,-74.5 826.78,-63.57 822.29,-45.05 820.73,-30.76"/>
<polygon fill="#63b8ff" stroke="#63b8ff" points="824.24,-30.84 820.08,-21.1 817.25,-31.31 824.24,-30.84"/>
</a>
</g>
</g>
<!-- Node11&#45;&gt;Node7 -->
<g id="edge13_Node000011_Node000007" class="edge">
<title>Node11&#45;&gt;Node7</title>
<g id="a_edge13_Node000011_Node000007"><a xlink:title=" ">
<path fill="none" stroke="#63b8ff" d="M1142.6,-114.6C1171.11,-109.42 1207.2,-98.31 1230.1,-74.5 1241.27,-62.88 1245.91,-44.98 1247.82,-31.09"/>
<polygon fill="#63b8ff" stroke="#63b8ff" points="1251.29,-31.54 1248.77,-21.25 1244.32,-30.87 1251.29,-31.54"/>
</a>
</g>
</g>
<!-- Node11&#45;&gt;Node8 -->
<g id="edge15_Node000011_Node000008" class="edge">
<title>Node11&#45;&gt;Node8</title>
<g id="a_edge15_Node000011_Node000008"><a xlink:title=" ">
<path fill="none" stroke="#63b8ff" d="M1055.41,-111.86C1052.6,-111.4 1049.81,-110.94 1047.1,-110.5 947.14,-94.21 917.14,-109.47 822.1,-74.5 790.58,-62.9 758.12,-41.42 737.8,-26.59"/>
<polygon fill="#63b8ff" stroke="#63b8ff" points="739.92,-23.81 729.81,-20.63 735.73,-29.41 739.92,-23.81"/>
</a>
</g>
</g>
<!-- Node11&#45;&gt;Node9 -->
<g id="edge17_Node000011_Node000009" class="edge">
<title>Node11&#45;&gt;Node9</title>
<g id="a_edge17_Node000011_Node000009"><a xlink:title=" ">
<path fill="none" stroke="#63b8ff" d="M1103.6,-110.25C1112.46,-92.76 1132.36,-53.52 1144.36,-29.84"/>
<polygon fill="#63b8ff" stroke="#63b8ff" points="1147.45,-31.48 1148.85,-20.98 1141.21,-28.31 1147.45,-31.48"/>
</a>
</g>
</g>
<!-- Node11&#45;&gt;Node12 -->
<g id="edge14_Node000011_Node000012" class="edge">
<title>Node11&#45;&gt;Node12</title>
<g id="a_edge14_Node000011_Node000012"><a xlink:title=" ">
<path fill="none" stroke="#63b8ff" d="M1055.42,-111.76C1052.61,-111.33 1049.81,-110.9 1047.1,-110.5 923.41,-92.27 890.91,-97.91 768.1,-74.5 767.27,-74.34 766.43,-74.18 765.58,-74"/>
<polygon fill="#63b8ff" stroke="#63b8ff" points="766.51,-70.62 755.98,-71.81 764.95,-77.45 766.51,-70.62"/>
</a>
</g>
</g>
<!-- Node13 -->
<g id="Node000013" class="node">
<title>Node13</title>
<g id="a_Node000013"><a xlink:title=" ">
<polygon fill="#e0e0e0" stroke="#999999" points="1220.6,-74.5 1147.6,-74.5 1147.6,-55.25 1220.6,-55.25 1220.6,-74.5"/>
<text xml:space="preserve" text-anchor="middle" x="1184.1" y="-61" font-family="Helvetica,sans-Serif" font-size="10.00">system_error</text>
</a>
</g>
</g>
<!-- Node11&#45;&gt;Node13 -->
<g id="edge16_Node000011_Node000013" class="edge">
<title>Node11&#45;&gt;Node13</title>
<g id="a_edge16_Node000011_Node000013"><a xlink:title=" ">
<path fill="none" stroke="#63b8ff" d="M1113.52,-110.09C1126.22,-102.14 1144.97,-90.39 1159.96,-81"/>
<polygon fill="#63b8ff" stroke="#63b8ff" points="1161.71,-84.03 1168.33,-75.76 1157.99,-78.1 1161.71,-84.03"/>
</a>
</g>
</g>
<!-- Node14 -->
<g id="Node000014" class="node">
<title>Node14</title>
<g id="a_Node000014"><a xlink:title=" ">
<polygon fill="#e0e0e0" stroke="#999999" points="1020.6,-74.5 971.6,-74.5 971.6,-55.25 1020.6,-55.25 1020.6,-74.5"/>
<text xml:space="preserve" text-anchor="middle" x="996.1" y="-61" font-family="Helvetica,sans-Serif" font-size="10.00">Error.inl</text>
</a>
</g>
</g>
<!-- Node11&#45;&gt;Node14 -->
<g id="edge18_Node000011_Node000014" class="edge">
<title>Node11&#45;&gt;Node14</title>
<g id="a_edge18_Node000011_Node000014"><a xlink:title=" ">
<path fill="none" stroke="#63b8ff" d="M1081.63,-110.09C1065.79,-101.91 1042.19,-89.71 1023.79,-80.19"/>
<polygon fill="#63b8ff" stroke="#63b8ff" points="1025.49,-77.13 1015,-75.65 1022.28,-83.35 1025.49,-77.13"/>
</a>
</g>
</g>
<!-- Node15 -->
<g id="Node000015" class="node">
<title>Node15</title>
<g id="a_Node000015"><a xlink:href="Error_8tpp.html" target="_top" xlink:title=" ">
<polygon fill="white" stroke="#666666" points="1091.47,-74.5 1038.72,-74.5 1038.72,-55.25 1091.47,-55.25 1091.47,-74.5"/>
<text xml:space="preserve" text-anchor="middle" x="1065.1" y="-61" font-family="Helvetica,sans-Serif" font-size="10.00">Error.tpp</text>
</a>
</g>
</g>
<!-- Node11&#45;&gt;Node15 -->
<g id="edge19_Node000011_Node000015" class="edge">
<title>Node11&#45;&gt;Node15</title>
<g id="a_edge19_Node000011_Node000015"><a xlink:title=" ">
<path fill="none" stroke="#63b8ff" d="M1093.48,-110.33C1088.98,-103.28 1082.51,-93.15 1076.88,-84.33"/>
<polygon fill="#63b8ff" stroke="#63b8ff" points="1079.98,-82.68 1071.65,-76.13 1074.08,-86.45 1079.98,-82.68"/>
</a>
</g>
</g>
<!-- Node22 -->
<g id="Node000022" class="node">
<title>Node22</title>
<g id="a_Node000022"><a xlink:href="NumericConcept_8hpp.html" target="_top" xlink:title="Definition of the Numeric concept.">
<polygon fill="white" stroke="#666666" points="853.72,-196.25 742.47,-196.25 742.47,-165.75 853.72,-165.75 853.72,-196.25"/>
<text xml:space="preserve" text-anchor="start" x="750.47" y="-182.75" font-family="Helvetica,sans-Serif" font-size="10.00">RType/Math/details</text>
<text xml:space="preserve" text-anchor="middle" x="798.1" y="-171.5" font-family="Helvetica,sans-Serif" font-size="10.00">/NumericConcept.hpp</text>
</a>
</g>
</g>
<!-- Node21&#45;&gt;Node22 -->
<g id="edge30_Node000021_Node000022" class="edge">
<title>Node21&#45;&gt;Node22</title>
<g id="a_edge30_Node000021_Node000022"><a xlink:title=" ">
<path fill="none" stroke="#63b8ff" d="M958.64,-231.78C928.15,-222.33 888.36,-209.99 856.01,-199.96"/>
<polygon fill="#63b8ff" stroke="#63b8ff" points="857.39,-196.72 846.8,-197.1 855.31,-203.41 857.39,-196.72"/>
</a>
</g>
</g>
<!-- Node24 -->
<g id="Node000024" class="node">
<title>Node24</title>
<g id="a_Node000024"><a xlink:title=" ">
<polygon fill="#e0e0e0" stroke="#999999" points="1027.6,-190.62 984.6,-190.62 984.6,-171.38 1027.6,-171.38 1027.6,-190.62"/>
<text xml:space="preserve" text-anchor="middle" x="1006.1" y="-177.12" font-family="Helvetica,sans-Serif" font-size="10.00">cmath</text>
</a>
</g>
</g>
<!-- Node21&#45;&gt;Node24 -->
<g id="edge33_Node000021_Node000024" class="edge">
<title>Node21&#45;&gt;Node24</title>
<g id="a_edge33_Node000021_Node000024"><a xlink:title=" ">
<path fill="none" stroke="#63b8ff" d="M1006.1,-231.86C1006.1,-223.08 1006.1,-211.77 1006.1,-202.15"/>
<polygon fill="#63b8ff" stroke="#63b8ff" points="1009.6,-202.34 1006.1,-192.34 1002.6,-202.34 1009.6,-202.34"/>
</a>
</g>
</g>
<!-- Node25 -->
<g id="Node000025" class="node">
<title>Node25</title>
<g id="a_Node000025"><a xlink:title=" ">
<polygon fill="#e0e0e0" stroke="#999999" points="1098.85,-190.62 1045.35,-190.62 1045.35,-171.38 1098.85,-171.38 1098.85,-190.62"/>
<text xml:space="preserve" text-anchor="middle" x="1072.1" y="-177.12" font-family="Helvetica,sans-Serif" font-size="10.00">iostream</text>
</a>
</g>
</g>
<!-- Node21&#45;&gt;Node25 -->
<g id="edge34_Node000021_Node000025" class="edge">
<title>Node21&#45;&gt;Node25</title>
<g id="a_edge34_Node000021_Node000025"><a xlink:title=" ">
<path fill="none" stroke="#63b8ff" d="M1021.08,-231.86C1031.18,-221.99 1044.53,-208.94 1055.04,-198.67"/>
<polygon fill="#63b8ff" stroke="#63b8ff" points="1057.28,-201.37 1061.99,-191.88 1052.39,-196.37 1057.28,-201.37"/>
</a>
</g>
</g>
<!-- Node26 -->
<g id="Node000026" class="node">
<title>Node26</title>
<g id="a_Node000026"><a xlink:href="VecBase_8tpp.html" target="_top" xlink:title=" ">
<polygon fill="white" stroke="#666666" points="1189.22,-190.62 1116.97,-190.62 1116.97,-171.38 1189.22,-171.38 1189.22,-190.62"/>
<text xml:space="preserve" text-anchor="middle" x="1153.1" y="-177.12" font-family="Helvetica,sans-Serif" font-size="10.00">VecBase.tpp</text>
</a>
</g>
</g>
<!-- Node21&#45;&gt;Node26 -->
<g id="edge35_Node000021_Node000026" class="edge">
<title>Node21&#45;&gt;Node26</title>
<g id="a_edge35_Node000021_Node000026"><a xlink:title=" ">
<path fill="none" stroke="#63b8ff" d="M1039.46,-231.86C1064.28,-220.97 1097.93,-206.21 1122.16,-195.58"/>
<polygon fill="#63b8ff" stroke="#63b8ff" points="1123.43,-198.84 1131.18,-191.62 1120.61,-192.43 1123.43,-198.84"/>
</a>
</g>
</g>
<!-- Node22&#45;&gt;Node18 -->
<g id="edge32_Node000022_Node000018" class="edge">
<title>Node22&#45;&gt;Node18</title>
<g id="a_edge32_Node000022_Node000018"><a xlink:title=" ">
<path fill="none" stroke="#63b8ff" d="M756.64,-165.3C729.41,-155.64 694.15,-143.13 668.11,-133.9"/>
<polygon fill="#63b8ff" stroke="#63b8ff" points="669.58,-130.7 658.98,-130.66 667.24,-137.3 669.58,-130.7"/>
</a>
</g>
</g>
<!-- Node23 -->
<g id="Node000023" class="node">
<title>Node23</title>
<g id="a_Node000023"><a xlink:title=" ">
<polygon fill="#e0e0e0" stroke="#999999" points="582.97,-129.75 527.22,-129.75 527.22,-110.5 582.97,-110.5 582.97,-129.75"/>
<text xml:space="preserve" text-anchor="middle" x="555.1" y="-116.25" font-family="Helvetica,sans-Serif" font-size="10.00">concepts</text>
</a>
</g>
</g>
<!-- Node22&#45;&gt;Node23 -->
<g id="edge31_Node000022_Node000023" class="edge">
<title>Node22&#45;&gt;Node23</title>
<g id="a_edge31_Node000022_Node000023"><a xlink:title=" ">
<path fill="none" stroke="#63b8ff" d="M742.04,-166.42C696.88,-155.48 634.53,-140.37 594.51,-130.67"/>
<polygon fill="#63b8ff" stroke="#63b8ff" points="595.36,-127.28 584.82,-128.32 593.71,-134.08 595.36,-127.28"/>
</a>
</g>
</g>
<!-- Node28&#45;&gt;Node2 -->
<g id="edge42_Node000028_Node000002" class="edge">
<title>Node28&#45;&gt;Node2</title>
<g id="a_edge42_Node000028_Node000002"><a xlink:title=" ">
<path fill="none" stroke="#63b8ff" d="M502.28,-353.53C559.09,-344.34 646.93,-330.12 707.51,-320.31"/>
<polygon fill="#63b8ff" stroke="#63b8ff" points="708.07,-323.77 717.38,-318.72 706.95,-316.86 708.07,-323.77"/>
</a>
</g>
</g>
<!-- Node28&#45;&gt;Node6 -->
<g id="edge44_Node000028_Node000006" class="edge">
<title>Node28&#45;&gt;Node6</title>
<g id="a_edge44_Node000028_Node000006"><a xlink:title=" ">
<path fill="none" stroke="#63b8ff" d="M377.58,-358.9C272.44,-352.58 80.9,-338.42 57.1,-318 32.79,-297.15 38.1,-280.52 38.1,-248.5 38.1,-248.5 38.1,-248.5 38.1,-119.12 38.1,-38.25 679,-30.46 759.1,-19.25 767.76,-18.04 777.12,-16.72 785.84,-15.49"/>
<polygon fill="#63b8ff" stroke="#63b8ff" points="786.31,-18.96 795.72,-14.09 785.33,-12.02 786.31,-18.96"/>
</a>
</g>
</g>
<!-- Node28&#45;&gt;Node8 -->
<g id="edge49_Node000028_Node000008" class="edge">
<title>Node28&#45;&gt;Node8</title>
<g id="a_edge49_Node000028_Node000008"><a xlink:title=" ">
<path fill="none" stroke="#63b8ff" d="M377.43,-359.37C264.94,-353.44 51.13,-339.49 24.1,-318 -1.48,-297.66 0.1,-281.18 0.1,-248.5 0.1,-248.5 0.1,-248.5 0.1,-119.12 0.1,-88.8 -0.27,-73.31 24.1,-55.25 76.03,-16.76 527.34,-11.44 672.4,-10.73"/>
<polygon fill="#63b8ff" stroke="#63b8ff" points="672.4,-14.23 682.38,-10.68 672.37,-7.23 672.4,-14.23"/>
</a>
</g>
</g>
<!-- Node28&#45;&gt;Node9 -->
<g id="edge50_Node000028_Node000009" class="edge">
<title>Node28&#45;&gt;Node9</title>
<g id="a_edge50_Node000028_Node000009"><a xlink:title=" ">
<path fill="none" stroke="#63b8ff" d="M514.65,-361.29C727.54,-356.23 1363.1,-333.98 1363.1,-248.5 1363.1,-248.5 1363.1,-248.5 1363.1,-180 1363.1,-89.37 1243,-38.81 1184.88,-19.65"/>
<polygon fill="#63b8ff" stroke="#63b8ff" points="1186.17,-16.39 1175.58,-16.7 1184.05,-23.06 1186.17,-16.39"/>
</a>
</g>
</g>
<!-- Node28&#45;&gt;Node12 -->
<g id="edge48_Node000028_Node000012" class="edge">
<title>Node28&#45;&gt;Node12</title>
<g id="a_edge48_Node000028_Node000012"><a xlink:title=" ">
<path fill="none" stroke="#63b8ff" d="M514.65,-359.66C544.33,-354.55 576.48,-343.02 595.1,-318 600.21,-311.14 599.18,-306.27 595.1,-298.75 555.14,-225.2 477.06,-269.8 437.1,-196.25 418.63,-162.25 423.3,-136.34 452.1,-110.5 488.57,-77.78 636.89,-68.98 702.55,-66.67"/>
<polygon fill="#63b8ff" stroke="#63b8ff" points="702.41,-70.18 712.29,-66.36 702.19,-63.18 702.41,-70.18"/>
</a>
</g>
</g>
<!-- Node28&#45;&gt;Node18 -->
<g id="edge54_Node000028_Node000018" class="edge">
<title>Node28&#45;&gt;Node18</title>
<g id="a_edge54_Node000028_Node000018"><a xlink:title=" ">
<path fill="none" stroke="#63b8ff" d="M514.97,-354.37C560.22,-347.4 613.63,-335.69 628.1,-318 670.29,-266.43 650.56,-179.26 638.73,-140.6"/>
<polygon fill="#63b8ff" stroke="#63b8ff" points="642.13,-139.74 635.73,-131.3 635.47,-141.89 642.13,-139.74"/>
</a>
</g>
</g>
<!-- Node29 -->
<g id="Node000029" class="node">
<title>Node29</title>
<g id="a_Node000029"><a xlink:href="ComponentConcept_8hpp.html" target="_top" xlink:title="Concepts for validating component types in the ECS.">
<polygon fill="white" stroke="#666666" points="623.72,-190.62 446.47,-190.62 446.47,-171.38 623.72,-171.38 623.72,-190.62"/>
<text xml:space="preserve" text-anchor="middle" x="535.1" y="-177.12" font-family="Helvetica,sans-Serif" font-size="10.00">RType/ECS/ComponentConcept.hpp</text>
</a>
</g>
</g>
<!-- Node28&#45;&gt;Node29 -->
<g id="edge38_Node000028_Node000029" class="edge">
<title>Node28&#45;&gt;Node29</title>
<g id="a_edge38_Node000028_Node000029"><a xlink:title=" ">
<path fill="none" stroke="#63b8ff" d="M514.71,-354.62C560.17,-347.75 613.94,-336.05 628.1,-318 661.08,-275.96 596.41,-222.86 559.04,-197.22"/>
<polygon fill="#63b8ff" stroke="#63b8ff" points="561.28,-194.51 551.02,-191.87 557.4,-200.34 561.28,-194.51"/>
</a>
</g>
</g>
<!-- Node31 -->
<g id="Node000031" class="node">
<title>Node31</title>
<g id="a_Node000031"><a xlink:title=" ">
<polygon fill="#e0e0e0" stroke="#999999" points="94.5,-318 65.7,-318 65.7,-298.75 94.5,-298.75 94.5,-318"/>
<text xml:space="preserve" text-anchor="middle" x="80.1" y="-304.5" font-family="Helvetica,sans-Serif" font-size="10.00">bit</text>
</a>
</g>
</g>
<!-- Node28&#45;&gt;Node31 -->
<g id="edge43_Node000028_Node000031" class="edge">
<title>Node28&#45;&gt;Node31</title>
<g id="a_edge43_Node000028_Node000031"><a xlink:title=" ">
<path fill="none" stroke="#63b8ff" d="M377.23,-358.33C309.88,-353.08 204.44,-342.09 105.62,-318.11"/>
<polygon fill="#63b8ff" stroke="#63b8ff" points="106.56,-314.74 96.01,-315.73 104.87,-321.53 106.56,-314.74"/>
</a>
</g>
</g>
<!-- Node32 -->
<g id="Node000032" class="node">
<title>Node32</title>
<g id="a_Node000032"><a xlink:title=" ">
<polygon fill="#e0e0e0" stroke="#999999" points="157.72,-318 112.47,-318 112.47,-298.75 157.72,-298.75 157.72,-318"/>
<text xml:space="preserve" text-anchor="middle" x="135.1" y="-304.5" font-family="Helvetica,sans-Serif" font-size="10.00">cstring</text>
</a>
</g>
</g>
<!-- Node28&#45;&gt;Node32 -->
<g id="edge45_Node000028_Node000032" class="edge">
<title>Node28&#45;&gt;Node32</title>
<g id="a_edge45_Node000028_Node000032"><a xlink:title=" ">
<path fill="none" stroke="#63b8ff" d="M377.23,-353.87C322.97,-346.46 245.22,-334.74 169.24,-318.5"/>
<polygon fill="#63b8ff" stroke="#63b8ff" points="170.04,-315.09 159.53,-316.39 168.56,-321.93 170.04,-315.09"/>
</a>
</g>
</g>
<!-- Node33 -->
<g id="Node000033" class="node">
<title>Node33</title>
<g id="a_Node000033"><a xlink:title=" ">
<polygon fill="#e0e0e0" stroke="#999999" points="212.6,-318 175.6,-318 175.6,-298.75 212.6,-298.75 212.6,-318"/>
<text xml:space="preserve" text-anchor="middle" x="194.1" y="-304.5" font-family="Helvetica,sans-Serif" font-size="10.00">span</text>
</a>
</g>
</g>
<!-- Node28&#45;&gt;Node33 -->
<g id="edge46_Node000028_Node000033" class="edge">
<title>Node28&#45;&gt;Node33</title>
<g id="a_edge46_Node000028_Node000033"><a xlink:title=" ">
<path fill="none" stroke="#63b8ff" d="M392.35,-353.51C349.25,-345.84 287.03,-333.97 223.95,-318.25"/>
<polygon fill="#63b8ff" stroke="#63b8ff" points="225.02,-314.91 214.47,-315.86 223.31,-321.7 225.02,-314.91"/>
</a>
</g>
</g>
<!-- Node34 -->
<g id="Node000034" class="node">
<title>Node34</title>
<g id="a_Node000034"><a xlink:title=" ">
<polygon fill="#e0e0e0" stroke="#999999" points="289.47,-318 230.72,-318 230.72,-298.75 289.47,-298.75 289.47,-318"/>
<text xml:space="preserve" text-anchor="middle" x="260.1" y="-304.5" font-family="Helvetica,sans-Serif" font-size="10.00">stdexcept</text>
</a>
</g>
</g>
<!-- Node28&#45;&gt;Node34 -->
<g id="edge47_Node000028_Node000034" class="edge">
<title>Node28&#45;&gt;Node34</title>
<g id="a_edge47_Node000028_Node000034"><a xlink:title=" ">
<path fill="none" stroke="#63b8ff" d="M414.55,-353.59C383.26,-344.63 335.17,-330.87 300.98,-321.08"/>
<polygon fill="#63b8ff" stroke="#63b8ff" points="301.99,-317.73 291.41,-318.34 300.06,-324.46 301.99,-317.73"/>
</a>
</g>
</g>
<!-- Node35 -->
<g id="Node000035" class="node">
<title>Node35</title>
<g id="a_Node000035"><a xlink:title=" ">
<polygon fill="#e0e0e0" stroke="#999999" points="350.6,-318 307.6,-318 307.6,-298.75 350.6,-298.75 350.6,-318"/>
<text xml:space="preserve" text-anchor="middle" x="329.1" y="-304.5" font-family="Helvetica,sans-Serif" font-size="10.00">vector</text>
</a>
</g>
</g>
<!-- Node28&#45;&gt;Node35 -->
<g id="edge51_Node000028_Node000035" class="edge">
<title>Node28&#45;&gt;Node35</title>
<g id="a_edge51_Node000028_Node000035"><a xlink:title=" ">
<path fill="none" stroke="#63b8ff" d="M426.25,-353.59C407.93,-345.25 380.45,-332.75 359.39,-323.16"/>
<polygon fill="#63b8ff" stroke="#63b8ff" points="360.97,-320.04 350.42,-319.08 358.07,-326.41 360.97,-320.04"/>
</a>
</g>
</g>
<!-- Node36 -->
<g id="Node000036" class="node">
<title>Node36</title>
<g id="a_Node000036"><a xlink:title=" ">
<polygon fill="#e0e0e0" stroke="#999999" points="447.97,-318 368.22,-318 368.22,-298.75 447.97,-298.75 447.97,-318"/>
<text xml:space="preserve" text-anchor="middle" x="408.1" y="-304.5" font-family="Helvetica,sans-Serif" font-size="10.00">asio/buffer.hpp</text>
</a>
</g>
</g>
<!-- Node28&#45;&gt;Node36 -->
<g id="edge52_Node000028_Node000036" class="edge">
<title>Node28&#45;&gt;Node36</title>
<g id="a_edge52_Node000028_Node000036"><a xlink:title=" ">
<path fill="none" stroke="#63b8ff" d="M439.82,-353.83C434.74,-346.71 427.4,-336.43 421.07,-327.55"/>
<polygon fill="#63b8ff" stroke="#63b8ff" points="424.05,-325.7 415.39,-319.59 418.35,-329.76 424.05,-325.7"/>
</a>
</g>
</g>
<!-- Node37 -->
<g id="Node000037" class="node">
<title>Node37</title>
<g id="a_Node000037"><a xlink:title=" ">
<polygon fill="#e0e0e0" stroke="#999999" points="503.97,-318 466.22,-318 466.22,-298.75 503.97,-298.75 503.97,-318"/>
<text xml:space="preserve" text-anchor="middle" x="485.1" y="-304.5" font-family="Helvetica,sans-Serif" font-size="10.00">array</text>
</a>
</g>
</g>
<!-- Node28&#45;&gt;Node37 -->
<g id="edge53_Node000028_Node000037" class="edge">
<title>Node28&#45;&gt;Node37</title>
<g id="a_edge53_Node000028_Node000037"><a xlink:title=" ">
<path fill="none" stroke="#63b8ff" d="M452.54,-353.83C457.76,-346.71 465.29,-336.43 471.79,-327.55"/>
<polygon fill="#63b8ff" stroke="#63b8ff" points="474.54,-329.72 477.62,-319.58 468.89,-325.58 474.54,-329.72"/>
</a>
</g>
</g>
<!-- Node38 -->
<g id="Node000038" class="node">
<title>Node38</title>
<g id="a_Node000038"><a xlink:href="Packet_8tpp.html" target="_top" xlink:title=" ">
<polygon fill="white" stroke="#666666" points="585.72,-318 522.47,-318 522.47,-298.75 585.72,-298.75 585.72,-318"/>
<text xml:space="preserve" text-anchor="middle" x="554.1" y="-304.5" font-family="Helvetica,sans-Serif" font-size="10.00">Packet.tpp</text>
</a>
</g>
</g>
<!-- Node28&#45;&gt;Node38 -->
<g id="edge55_Node000028_Node000038" class="edge">
<title>Node28&#45;&gt;Node38</title>
<g id="a_edge55_Node000028_Node000038"><a xlink:title=" ">
<path fill="none" stroke="#63b8ff" d="M464.42,-353.59C481.18,-345.33 506.23,-332.98 525.6,-323.43"/>
<polygon fill="#63b8ff" stroke="#63b8ff" points="526.91,-326.68 534.33,-319.12 523.81,-320.4 526.91,-326.68"/>
</a>
</g>
</g>
<!-- Node29&#45;&gt;Node18 -->
<g id="edge40_Node000029_Node000018" class="edge">
<title>Node29&#45;&gt;Node18</title>
<g id="a_edge40_Node000029_Node000018"><a xlink:title=" ">
<path fill="none" stroke="#63b8ff" d="M549.83,-171.06C565.14,-161.76 589.37,-147.06 607.57,-136.01"/>
<polygon fill="#63b8ff" stroke="#63b8ff" points="609.2,-139.12 615.93,-130.94 605.57,-133.13 609.2,-139.12"/>
</a>
</g>
</g>
<!-- Node29&#45;&gt;Node23 -->
<g id="edge39_Node000029_Node000023" class="edge">
<title>Node29&#45;&gt;Node23</title>
<g id="a_edge39_Node000029_Node000023"><a xlink:title=" ">
<path fill="none" stroke="#63b8ff" d="M538.14,-171.06C540.84,-163.1 544.89,-151.19 548.35,-140.99"/>
<polygon fill="#63b8ff" stroke="#63b8ff" points="551.64,-142.18 551.55,-131.58 545.02,-139.93 551.64,-142.18"/>
</a>
</g>
</g>
<!-- Node30 -->
<g id="Node000030" class="node">
<title>Node30</title>
<g id="a_Node000030"><a xlink:title=" ">
<polygon fill="#e0e0e0" stroke="#999999" points="509.22,-129.75 460.97,-129.75 460.97,-110.5 509.22,-110.5 509.22,-129.75"/>
<text xml:space="preserve" text-anchor="middle" x="485.1" y="-116.25" font-family="Helvetica,sans-Serif" font-size="10.00">cstddef</text>
</a>
</g>
</g>
<!-- Node29&#45;&gt;Node30 -->
<g id="edge41_Node000029_Node000030" class="edge">
<title>Node29&#45;&gt;Node30</title>
<g id="a_edge41_Node000029_Node000030"><a xlink:title=" ">
<path fill="none" stroke="#63b8ff" d="M527.5,-171.06C520.24,-162.5 509.07,-149.35 500.02,-138.7"/>
<polygon fill="#63b8ff" stroke="#63b8ff" points="502.88,-136.66 493.74,-131.3 497.55,-141.19 502.88,-136.66"/>
</a>
</g>
</g>
</g>
</svg>

<g id="navigator" transform="translate(0 0)" fill="#404254">
  <rect fill="#f2f5e9" fill-opacity="0.5" stroke="#606060" stroke-width=".5" x="0" y="0" width="60" height="60"/>
  <use id="zoomplus" xlink:href="#zoomPlus" x="17" y="9" onmousedown="handleZoom(evt,'in')"/>
  <use id="zoomminus" xlink:href="#zoomMin" x="42" y="9" onmousedown="handleZoom(evt,'out')"/>
  <use id="reset" xlink:href="#resetDef" x="30" y="36" onmousedown="handleReset()"/>
   <use id="arrowup" xlink:href="#arrowUp" x="0" y="0" onmousedown="handlePan(0,-1)"/>
  <use id="arrowright" xlink:href="#arrowRight" x="0" y="0" onmousedown="handlePan(1,0)"/>
  <use id="arrowdown" xlink:href="#arrowDown" x="0" y="0" onmousedown="handlePan(0,1)"/>
  <use id="arrowleft" xlink:href="#arrowLeft" x="0" y="0" onmousedown="handlePan(-1,0)"/>
</g>
<svg viewBox="0 0 15 15" width="100%" height="30px" preserveAspectRatio="xMaxYMin meet">
 <g id="arrow_out" transform="scale(0.3 0.3)">
  <a xlink:href="EntityType_8hpp__incl_org.svg" target="_base">
   <rect id="button" ry="5" rx="5" y="6" x="6" height="38" width="38"
        fill="#f2f5e9" fill-opacity="0.5" stroke="#606060" stroke-width="1.0"/>
   <path id="arrow"
     d="M 11.500037,31.436501 C 11.940474,20.09759 22.043105,11.32322 32.158766,21.979434 L 37.068811,17.246167 C 37.068811,17.246167 37.088388,32 37.088388,32 L 22.160133,31.978069 C 22.160133,31.978069 26.997745,27.140456 26.997745,27.140456 C 18.528582,18.264221 13.291696,25.230495 11.500037,31.436501 z"
     style="fill:#404040;"/>
  </a>
 </g>
</svg>

<style type='text/css'>
<![CDATA[
[data-mouse-over-selected='false'] { opacity: 0.7; }
[data-mouse-over-selected='true']  { opacity: 1.0; }
]]>
</style>
<script type="application/ecmascript"><![CDATA[
document.addEventListener('DOMContentLoaded', (event) => {
  highlightEdges();
  highlightAdjacentNodes();
});
]]></script>
</svg>
