<?xml version="1.0" encoding="UTF-8" standalone="no"?>
<!DOCTYPE svg PUBLIC "-//W3C//DTD SVG 1.1//EN"
 "http://www.w3.org/Graphics/SVG/1.1/DTD/svg11.dtd">
<!-- Generated by graphviz version 14.0.5 (20251129.0259)
 -->
<!-- Title: common/include/RType/Error.hpp Pages: 1 -->
<svg width="588pt" height="149pt"
 viewBox="0.00 0.00 588.00 149.00" xmlns="http://www.w3.org/2000/svg" xmlns:xlink="http://www.w3.org/1999/xlink">
<g id="graph0" class="graph" transform="scale(1 1) rotate(0) translate(4 145)">
<title>common/include/RType/Error.hpp</title>
<!-- Node1 -->
<g id="Node000001" class="node">
<title>Node1</title>
<g id="a_Node000001"><a xlink:title="Error handling system with categorized error codes.">
<polygon fill="#999999" stroke="#666666" points="342,-141 223.25,-141 223.25,-110.5 342,-110.5 342,-141"/>
<text xml:space="preserve" text-anchor="start" x="231.25" y="-127.5" font-family="Helvetica,sans-Serif" font-size="10.00">common/include/RType</text>
<text xml:space="preserve" text-anchor="middle" x="282.62" y="-116.25" font-family="Helvetica,sans-Serif" font-size="10.00">/Error.hpp</text>
</a>
</g>
</g>
<!-- Node2 -->
<g id="Node000002" class="node">
<title>Node2</title>
<g id="a_Node000002"><a xlink:href="LogLevel_8hpp.html" target="_top" xlink:title="Log severity levels for the logging system.">
<polygon fill="white" stroke="#666666" points="216.25,-74.5 111,-74.5 111,-55.25 216.25,-55.25 216.25,-74.5"/>
<text xml:space="preserve" text-anchor="middle" x="163.62" y="-61" font-family="Helvetica,sans-Serif" font-size="10.00">RType/LogLevel.hpp</text>
</a>
</g>
</g>
<!-- Node1&#45;&gt;Node2 -->
<g id="edge1_Node000001_Node000002" class="edge">
<title>Node1&#45;&gt;Node2</title>
<g id="a_edge1_Node000001_Node000002"><a xlink:title=" ">
<path fill="none" stroke="#63b8ff" d="M252.9,-110.05C234.26,-100.82 210.36,-89 191.98,-79.9"/>
<polygon fill="#63b8ff" stroke="#63b8ff" points="193.75,-76.87 183.23,-75.58 190.64,-83.15 193.75,-76.87"/>
</a>
</g>
</g>
<!-- Node3 -->
<g id="Node000003" class="node">
<title>Node3</title>
<g id="a_Node000003"><a xlink:title=" ">
<polygon fill="#e0e0e0" stroke="#999999" points="45.25,-19.25 0,-19.25 0,0 45.25,0 45.25,-19.25"/>
<text xml:space="preserve" text-anchor="middle" x="22.62" y="-5.75" font-family="Helvetica,sans-Serif" font-size="10.00">cstdint</text>
</a>
</g>
</g>
<!-- Node1&#45;&gt;Node3 -->
<g id="edge7_Node000001_Node000003" class="edge">
<title>Node1&#45;&gt;Node3</title>
<g id="a_edge7_Node000001_Node000003"><a xlink:title=" ">
<path fill="none" stroke="#63b8ff" d="M222.94,-117.85C182.41,-111.22 128.75,-98.49 86.62,-74.5 66.23,-62.89 47.83,-43.05 36.05,-28.56"/>
<polygon fill="#63b8ff" stroke="#63b8ff" points="38.86,-26.47 29.94,-20.74 33.34,-30.78 38.86,-26.47"/>
</a>
</g>
</g>
<!-- Node4 -->
<g id="Node000004" class="node">
<title>Node4</title>
<g id="a_Node000004"><a xlink:title=" ">
<polygon fill="#e0e0e0" stroke="#999999" points="107.5,-19.25 63.75,-19.25 63.75,0 107.5,0 107.5,-19.25"/>
<text xml:space="preserve" text-anchor="middle" x="85.62" y="-5.75" font-family="Helvetica,sans-Serif" font-size="10.00">format</text>
</a>
</g>
</g>
<!-- Node1&#45;&gt;Node4 -->
<g id="edge8_Node000001_Node000004" class="edge">
<title>Node1&#45;&gt;Node4</title>
<g id="a_edge8_Node000001_Node000004"><a xlink:title=" ">
<path fill="none" stroke="#63b8ff" d="M223.16,-123.15C183.55,-118.9 133.16,-106.84 101.62,-74.5 90.38,-62.97 86.67,-44.79 85.6,-30.76"/>
<polygon fill="#63b8ff" stroke="#63b8ff" points="89.1,-30.76 85.28,-20.88 82.11,-30.99 89.1,-30.76"/>
</a>
</g>
</g>
<!-- Node5 -->
<g id="Node000005" class="node">
<title>Node5</title>
<g id="a_Node000005"><a xlink:title=" ">
<polygon fill="#e0e0e0" stroke="#999999" points="277.38,-19.25 211.88,-19.25 211.88,0 277.38,0 277.38,-19.25"/>
<text xml:space="preserve" text-anchor="middle" x="244.62" y="-5.75" font-family="Helvetica,sans-Serif" font-size="10.00">string_view</text>
</a>
</g>
</g>
<!-- Node1&#45;&gt;Node5 -->
<g id="edge10_Node000001_Node000005" class="edge">
<title>Node1&#45;&gt;Node5</title>
<g id="a_edge10_Node000001_Node000005"><a xlink:title=" ">
<path fill="none" stroke="#63b8ff" d="M277.81,-110.3C271.07,-90.06 258.81,-53.22 251.22,-30.44"/>
<polygon fill="#63b8ff" stroke="#63b8ff" points="254.6,-29.52 248.12,-21.13 247.96,-31.73 254.6,-29.52"/>
</a>
</g>
</g>
<!-- Node6 -->
<g id="Node000006" class="node">
<title>Node6</title>
<g id="a_Node000006"><a xlink:title=" ">
<polygon fill="#e0e0e0" stroke="#999999" points="334.25,-19.25 295,-19.25 295,0 334.25,0 334.25,-19.25"/>
<text xml:space="preserve" text-anchor="middle" x="314.62" y="-5.75" font-family="Helvetica,sans-Serif" font-size="10.00">utility</text>
</a>
</g>
</g>
<!-- Node1&#45;&gt;Node6 -->
<g id="edge12_Node000001_Node000006" class="edge">
<title>Node1&#45;&gt;Node6</title>
<g id="a_edge12_Node000001_Node000006"><a xlink:title=" ">
<path fill="none" stroke="#63b8ff" d="M286.56,-110.09C290.35,-96.01 296.29,-74.15 301.62,-55.25 303.93,-47.1 306.53,-38.12 308.79,-30.38"/>
<polygon fill="#63b8ff" stroke="#63b8ff" points="312.1,-31.54 311.56,-20.95 305.39,-29.56 312.1,-31.54"/>
</a>
</g>
</g>
<!-- Node8 -->
<g id="Node000008" class="node">
<title>Node8</title>
<g id="a_Node000008"><a xlink:title=" ">
<polygon fill="#e0e0e0" stroke="#999999" points="350.62,-74.5 310.62,-74.5 310.62,-55.25 350.62,-55.25 350.62,-74.5"/>
<text xml:space="preserve" text-anchor="middle" x="330.62" y="-61" font-family="Helvetica,sans-Serif" font-size="10.00">string</text>
</a>
</g>
</g>
<!-- Node1&#45;&gt;Node8 -->
<g id="edge9_Node000001_Node000008" class="edge">
<title>Node1&#45;&gt;Node8</title>
<g id="a_edge9_Node000001_Node000008"><a xlink:title=" ">
<path fill="none" stroke="#63b8ff" d="M294.49,-110.2C301.03,-102.18 309.19,-92.17 316.1,-83.69"/>
<polygon fill="#63b8ff" stroke="#63b8ff" points="318.66,-86.09 322.27,-76.12 313.24,-81.66 318.66,-86.09"/>
</a>
</g>
</g>
<!-- Node9 -->
<g id="Node000009" class="node">
<title>Node9</title>
<g id="a_Node000009"><a xlink:title=" ">
<polygon fill="#e0e0e0" stroke="#999999" points="442.12,-74.5 369.12,-74.5 369.12,-55.25 442.12,-55.25 442.12,-74.5"/>
<text xml:space="preserve" text-anchor="middle" x="405.62" y="-61" font-family="Helvetica,sans-Serif" font-size="10.00">system_error</text>
</a>
</g>
</g>
<!-- Node1&#45;&gt;Node9 -->
<g id="edge11_Node000001_Node000009" class="edge">
<title>Node1&#45;&gt;Node9</title>
<g id="a_edge11_Node000001_Node000009"><a xlink:title=" ">
<path fill="none" stroke="#63b8ff" d="M313.35,-110.05C332.71,-100.78 357.55,-88.88 376.59,-79.77"/>
<polygon fill="#63b8ff" stroke="#63b8ff" points="377.89,-83.03 385.4,-75.56 374.87,-76.72 377.89,-83.03"/>
</a>
</g>
</g>
<!-- Node10 -->
<g id="Node000010" class="node">
<title>Node10</title>
<g id="a_Node000010"><a xlink:title=" ">
<polygon fill="#e0e0e0" stroke="#999999" points="509.12,-74.5 460.12,-74.5 460.12,-55.25 509.12,-55.25 509.12,-74.5"/>
<text xml:space="preserve" text-anchor="middle" x="484.62" y="-61" font-family="Helvetica,sans-Serif" font-size="10.00">Error.inl</text>
</a>
</g>
</g>
<!-- Node1&#45;&gt;Node10 -->
<g id="edge13_Node000001_Node000010" class="edge">
<title>Node1&#45;&gt;Node10</title>
<g id="a_edge13_Node000001_Node000010"><a xlink:title=" ">
<path fill="none" stroke="#63b8ff" d="M333.08,-110.05C369.14,-99.53 416.79,-85.65 448.95,-76.27"/>
<polygon fill="#63b8ff" stroke="#63b8ff" points="449.57,-79.74 458.19,-73.58 447.61,-73.02 449.57,-79.74"/>
</a>
</g>
</g>
<!-- Node11 -->
<g id="Node000011" class="node">
<title>Node11</title>
<g id="a_Node000011"><a xlink:href="Error_8tpp.html" target="_top" xlink:title=" ">
<polygon fill="white" stroke="#666666" points="580,-74.5 527.25,-74.5 527.25,-55.25 580,-55.25 580,-74.5"/>
<text xml:space="preserve" text-anchor="middle" x="553.62" y="-61" font-family="Helvetica,sans-Serif" font-size="10.00">Error.tpp</text>
</a>
</g>
</g>
<!-- Node1&#45;&gt;Node11 -->
<g id="edge14_Node000001_Node000011" class="edge">
<title>Node1&#45;&gt;Node11</title>
<g id="a_edge14_Node000001_Node000011"><a xlink:title=" ">
<path fill="none" stroke="#63b8ff" d="M342.39,-112.57C387.56,-103.24 451.37,-89.8 515.72,-75.12"/>
<polygon fill="#63b8ff" stroke="#63b8ff" points="516.45,-78.54 525.42,-72.89 514.89,-71.72 516.45,-78.54"/>
</a>
</g>
</g>
<!-- Node2&#45;&gt;Node3 -->
<g id="edge2_Node000002_Node000003" class="edge">
<title>Node2&#45;&gt;Node3</title>
<g id="a_edge2_Node000002_Node000003"><a xlink:title=" ">
<path fill="none" stroke="#63b8ff" d="M139.71,-54.84C116.85,-46.21 82.16,-33.11 56.47,-23.41"/>
<polygon fill="#63b8ff" stroke="#63b8ff" points="57.73,-20.14 47.14,-19.88 55.26,-26.69 57.73,-20.14"/>
</a>
</g>
</g>
<!-- Node2&#45;&gt;Node4 -->
<g id="edge3_Node000002_Node000004" class="edge">
<title>Node2&#45;&gt;Node4</title>
<g id="a_edge3_Node000002_Node000004"><a xlink:title=" ">
<path fill="none" stroke="#63b8ff" d="M150.39,-54.84C138.85,-46.96 121.86,-35.36 108.18,-26.02"/>
<polygon fill="#63b8ff" stroke="#63b8ff" points="110.4,-23.3 100.17,-20.56 106.46,-29.08 110.4,-23.3"/>
</a>
</g>
</g>
<!-- Node2&#45;&gt;Node5 -->
<g id="edge4_Node000002_Node000005" class="edge">
<title>Node2&#45;&gt;Node5</title>
<g id="a_edge4_Node000002_Node000005"><a xlink:title=" ">
<path fill="none" stroke="#63b8ff" d="M177.37,-54.84C189.35,-46.96 207,-35.36 221.21,-26.02"/>
<polygon fill="#63b8ff" stroke="#63b8ff" points="223.12,-28.95 229.55,-20.53 219.27,-23.1 223.12,-28.95"/>
</a>
</g>
</g>
<!-- Node2&#45;&gt;Node6 -->
<g id="edge5_Node000002_Node000006" class="edge">
<title>Node2&#45;&gt;Node6</title>
<g id="a_edge5_Node000002_Node000006"><a xlink:title=" ">
<path fill="none" stroke="#63b8ff" d="M189.24,-54.84C215.42,-45.61 256.08,-31.27 283.96,-21.44"/>
<polygon fill="#63b8ff" stroke="#63b8ff" points="284.99,-24.79 293.26,-18.16 282.66,-18.19 284.99,-24.79"/>
</a>
</g>
</g>
<!-- Node7 -->
<g id="Node000007" class="node">
<title>Node7</title>
<g id="a_Node000007"><a xlink:title=" ">
<polygon fill="#e0e0e0" stroke="#999999" points="193.5,-19.25 125.75,-19.25 125.75,0 193.5,0 193.5,-19.25"/>
<text xml:space="preserve" text-anchor="middle" x="159.62" y="-5.75" font-family="Helvetica,sans-Serif" font-size="10.00">LogLevel.inl</text>
</a>
</g>
</g>
<!-- Node2&#45;&gt;Node7 -->
<g id="edge6_Node000002_Node000007" class="edge">
<title>Node2&#45;&gt;Node7</title>
<g id="a_edge6_Node000002_Node000007"><a xlink:title=" ">
<path fill="none" stroke="#63b8ff" d="M162.96,-55.08C162.47,-48.49 161.77,-39.21 161.14,-30.82"/>
<polygon fill="#63b8ff" stroke="#63b8ff" points="164.65,-30.83 160.41,-21.12 157.67,-31.35 164.65,-30.83"/>
</a>
</g>
</g>
</g>
</svg>
