<?xml version="1.0" encoding="UTF-8" standalone="no"?>
<!DOCTYPE svg PUBLIC "-//W3C//DTD SVG 1.1//EN"
 "http://www.w3.org/Graphics/SVG/1.1/DTD/svg11.dtd">
<!-- Generated by graphviz version 14.0.5 (20251129.0259)
 -->
<!-- Title: client/include/Scenes/GameOverScene.hpp Pages: 1 -->
<svg width="363pt" height="160pt"
 viewBox="0.00 0.00 363.00 160.00" xmlns="http://www.w3.org/2000/svg" xmlns:xlink="http://www.w3.org/1999/xlink">
<g id="graph0" class="graph" transform="scale(1 1) rotate(0) translate(4 156.25)">
<title>client/include/Scenes/GameOverScene.hpp</title>
<!-- Node1 -->
<g id="Node000001" class="node">
<title>Node1</title>
<g id="a_Node000001"><a xlink:title=" ">
<polygon fill="#999999" stroke="#666666" points="271.12,-152.25 158.38,-152.25 158.38,-121.75 271.12,-121.75 271.12,-152.25"/>
<text xml:space="preserve" text-anchor="start" x="166.38" y="-138.75" font-family="Helvetica,sans-Serif" font-size="10.00">client/include/Scenes</text>
<text xml:space="preserve" text-anchor="middle" x="214.75" y="-127.5" font-family="Helvetica,sans-Serif" font-size="10.00">/GameOverScene.hpp</text>
</a>
</g>
</g>
<!-- Node2 -->
<g id="Node000002" class="node">
<title>Node2</title>
<g id="a_Node000002"><a xlink:href="Application_8hpp.html" target="_top" xlink:title=" ">
<polygon fill="white" stroke="#666666" points="194.25,-85.75 97.25,-85.75 97.25,-55.25 194.25,-55.25 194.25,-85.75"/>
<text xml:space="preserve" text-anchor="start" x="105.25" y="-72.25" font-family="Helvetica,sans-Serif" font-size="10.00">client/include/Core</text>
<text xml:space="preserve" text-anchor="middle" x="145.75" y="-61" font-family="Helvetica,sans-Serif" font-size="10.00">/Application.hpp</text>
</a>
</g>
</g>
<!-- Node1&#45;&gt;Node2 -->
<g id="edge1_Node000001_Node000002" class="edge">
<title>Node1&#45;&gt;Node2</title>
<g id="a_edge1_Node000001_Node000002"><a xlink:title=" ">
<path fill="none" stroke="#63b8ff" d="M190.91,-113.71C181.12,-104.57 170.07,-94.23 161.35,-86.08"/>
<polygon fill="#63b8ff" stroke="#63b8ff" points="188.29,-116.06 197.99,-120.33 193.07,-110.94 188.29,-116.06"/>
</a>
</g>
</g>
<!-- Node5 -->
<g id="Node000005" class="node">
<title>Node5</title>
<g id="a_Node000005"><a xlink:href="GameOverScene_8cpp.html" target="_top" xlink:title=" ">
<polygon fill="white" stroke="#666666" points="354.75,-85.75 212.75,-85.75 212.75,-55.25 354.75,-55.25 354.75,-85.75"/>
<text xml:space="preserve" text-anchor="start" x="220.75" y="-72.25" font-family="Helvetica,sans-Serif" font-size="10.00">client/src/Scenes/GameOver</text>
<text xml:space="preserve" text-anchor="middle" x="283.75" y="-61" font-family="Helvetica,sans-Serif" font-size="10.00">Scene.cpp</text>
</a>
</g>
</g>
<!-- Node1&#45;&gt;Node5 -->
<g id="edge4_Node000001_Node000005" class="edge">
<title>Node1&#45;&gt;Node5</title>
<g id="a_edge4_Node000001_Node000005"><a xlink:title=" ">
<path fill="none" stroke="#63b8ff" d="M238.59,-113.71C248.38,-104.57 259.43,-94.23 268.15,-86.08"/>
<polygon fill="#63b8ff" stroke="#63b8ff" points="236.43,-110.94 231.51,-120.33 241.21,-116.06 236.43,-110.94"/>
</a>
</g>
</g>
<!-- Node3 -->
<g id="Node000003" class="node">
<title>Node3</title>
<g id="a_Node000003"><a xlink:href="Application_8cpp.html" target="_top" xlink:title=" ">
<polygon fill="white" stroke="#666666" points="149.5,-19.25 0,-19.25 0,0 149.5,0 149.5,-19.25"/>
<text xml:space="preserve" text-anchor="middle" x="74.75" y="-5.75" font-family="Helvetica,sans-Serif" font-size="10.00">client/src/Core/Application.cpp</text>
</a>
</g>
</g>
<!-- Node2&#45;&gt;Node3 -->
<g id="edge2_Node000002_Node000003" class="edge">
<title>Node2&#45;&gt;Node3</title>
<g id="a_edge2_Node000002_Node000003"><a xlink:title=" ">
<path fill="none" stroke="#63b8ff" d="M119.62,-47.83C107.9,-38.12 94.72,-27.19 85.7,-19.7"/>
<polygon fill="#63b8ff" stroke="#63b8ff" points="117.1,-50.29 127.03,-53.98 121.57,-44.9 117.1,-50.29"/>
</a>
</g>
</g>
<!-- Node4 -->
<g id="Node000004" class="node">
<title>Node4</title>
<g id="a_Node000004"><a xlink:href="client_2src_2main_8cpp.html" target="_top" xlink:title=" ">
<polygon fill="white" stroke="#666666" points="266,-19.25 167.5,-19.25 167.5,0 266,0 266,-19.25"/>
<text xml:space="preserve" text-anchor="middle" x="216.75" y="-5.75" font-family="Helvetica,sans-Serif" font-size="10.00">client/src/main.cpp</text>
</a>
</g>
</g>
<!-- Node2&#45;&gt;Node4 -->
<g id="edge3_Node000002_Node000004" class="edge">
<title>Node2&#45;&gt;Node4</title>
<g id="a_edge3_Node000002_Node000004"><a xlink:title=" ">
<path fill="none" stroke="#63b8ff" d="M171.88,-47.83C183.6,-38.12 196.78,-27.19 205.8,-19.7"/>
<polygon fill="#63b8ff" stroke="#63b8ff" points="169.93,-44.9 164.47,-53.98 174.4,-50.29 169.93,-44.9"/>
</a>
</g>
</g>
</g>
</svg>
