<?xml version="1.0" encoding="UTF-8" standalone="no"?>
<!DOCTYPE svg PUBLIC "-//W3C//DTD SVG 1.1//EN"
 "http://www.w3.org/Graphics/SVG/1.1/DTD/svg11.dtd">
<!-- Generated by graphviz version 14.0.5 (20251129.0259)
 -->
<!-- Title: common/include/RType/Network/IEventPublisher.hpp Pages: 1 -->
<!--zoomable 503 -->

<svg id="main" version="1.1" xmlns="http://www.w3.org/2000/svg" xmlns:xlink="http://www.w3.org/1999/xlink" xml:space="preserve" onload="init(evt)">

<style type="text/css"><![CDATA[
.node, .edge {opacity: 0.7;}
.node.selected, .edge.selected {opacity: 1;}
.edge:hover path { stroke: red; }
.edge:hover polygon { stroke: red; fill: red; }
]]></style>

<defs>
  <circle id="rim" cx="0" cy="0" r="7"/>
  <circle id="rim2" cx="0" cy="0" r="3.5"/>
  <g id="zoomPlus">
    <use xlink:href="#rim" fill="#404040"><set attributeName="fill" to="#808080" begin="zoomplus.mouseover" end="zoomplus.mouseout"/></use>
    <path d="M-4,0h8M0,-4v8" fill="none" stroke="white" stroke-width="1.5" pointer-events="none"/>
  </g>
  <g id="zoomMin">
    <use xlink:href="#rim" fill="#404040"><set attributeName="fill" to="#808080" begin="zoomminus.mouseover" end="zoomminus.mouseout"/></use>
    <path d="M-4,0h8" fill="none" stroke="white" stroke-width="1.5" pointer-events="none"/>
  </g>
  <g id="arrowUp" transform="translate(30 24)">
    <use xlink:href="#rim"/>
    <path pointer-events="none" fill="none" stroke="white" stroke-width="1.5" d="M0,-3.0v7 M-2.5,-0.5L0,-3.0L2.5,-0.5"/>
  </g>
  <g id="arrowRight" transform="rotate(90) translate(36 -43)">
    <use xlink:href="#rim"/>
    <path pointer-events="none" fill="none" stroke="white" stroke-width="1.5" d="M0,-3.0v7 M-2.5,-0.5L0,-3.0L2.5,-0.5"/>
  </g>
  <g id="arrowDown" transform="rotate(180) translate(-30 -48)">
    <use xlink:href="#rim"/>
    <path pointer-events="none" fill="none" stroke="white" stroke-width="1.5" d="M0,-3.0v7 M-2.5,-0.5L0,-3.0L2.5,-0.5"/>
  </g>
  <g id="arrowLeft" transform="rotate(270) translate(-36 17)">
    <use xlink:href="#rim"/>
    <path pointer-events="none" fill="none" stroke="white" stroke-width="1.5" d="M0,-3.0v7 M-2.5,-0.5L0,-3.0L2.5,-0.5"/>
  </g>
  <g id="resetDef">
    <use xlink:href="#rim2" fill="#404040"><set attributeName="fill" to="#808080" begin="reset.mouseover" end="reset.mouseout"/></use>
  </g>
</defs>
<script type="application/ecmascript">
var viewWidth = 1235;
var viewHeight = 503;
var sectionId = 'dynsection-0';
</script>
<script type="application/ecmascript" xlink:href="svg.min.js"/>
<svg id="graph" class="graph">
<g id="viewport">
<title>common/include/RType/Network/IEventPublisher.hpp</title>
<!-- Node1 -->
<g id="Node000001" class="node">
<title>Node1</title>
<g id="a_Node000001"><a xlink:title=" ">
<polygon fill="#999999" stroke="#666666" points="843.88,-495 698.12,-495 698.12,-464.5 843.88,-464.5 843.88,-495"/>
<text xml:space="preserve" text-anchor="start" x="706.12" y="-481.5" font-family="Helvetica,sans-Serif" font-size="10.00">common/include/RType</text>
<text xml:space="preserve" text-anchor="middle" x="771" y="-470.25" font-family="Helvetica,sans-Serif" font-size="10.00">/Network/IEventPublisher.hpp</text>
</a>
</g>
</g>
<!-- Node2 -->
<g id="Node000002" class="node">
<title>Node2</title>
<g id="a_Node000002"><a xlink:href="Packet_8hpp.html" target="_top" xlink:title="Network packet implementation for R&#45;Type protocol.">
<polygon fill="white" stroke="#666666" points="789.38,-373.25 652.62,-373.25 652.62,-354 789.38,-354 789.38,-373.25"/>
<text xml:space="preserve" text-anchor="middle" x="721" y="-359.75" font-family="Helvetica,sans-Serif" font-size="10.00">RType/Network/Packet.hpp</text>
</a>
</g>
</g>
<!-- Node1&#45;&gt;Node2 -->
<g id="edge1_Node000001_Node000002" class="edge">
<title>Node1&#45;&gt;Node2</title>
<g id="a_edge1_Node000001_Node000002"><a xlink:title=" ">
<path fill="none" stroke="#63b8ff" d="M760.71,-464.36C754.09,-454.61 745.7,-441.22 740,-428.5 733.62,-414.26 728.69,-397.29 725.45,-384.42"/>
<polygon fill="#63b8ff" stroke="#63b8ff" points="728.94,-383.96 723.22,-375.04 722.13,-385.58 728.94,-383.96"/>
</a>
</g>
</g>
<!-- Node39 -->
<g id="Node000039" class="node">
<title>Node39</title>
<g id="a_Node000039"><a xlink:href="INetwork_8hpp.html" target="_top" xlink:title=" ">
<polygon fill="white" stroke="#666666" points="894.88,-428.5 749.12,-428.5 749.12,-409.25 894.88,-409.25 894.88,-428.5"/>
<text xml:space="preserve" text-anchor="middle" x="822" y="-415" font-family="Helvetica,sans-Serif" font-size="10.00">RType/Network/INetwork.hpp</text>
</a>
</g>
</g>
<!-- Node1&#45;&gt;Node39 -->
<g id="edge55_Node000001_Node000039" class="edge">
<title>Node1&#45;&gt;Node39</title>
<g id="a_edge55_Node000001_Node000039"><a xlink:title=" ">
<path fill="none" stroke="#63b8ff" d="M783.61,-464.2C790.63,-456.09 799.41,-445.95 806.81,-437.41"/>
<polygon fill="#63b8ff" stroke="#63b8ff" points="809.24,-439.95 813.15,-430.1 803.95,-435.36 809.24,-439.95"/>
</a>
</g>
</g>
<!-- Node3 -->
<g id="Node000003" class="node">
<title>Node3</title>
<g id="a_Node000003"><a xlink:href="ComponentConcept_8hpp.html" target="_top" xlink:title="Concepts for validating component types in the ECS.">
<polygon fill="white" stroke="#666666" points="281.62,-190.62 104.38,-190.62 104.38,-171.38 281.62,-171.38 281.62,-190.62"/>
<text xml:space="preserve" text-anchor="middle" x="193" y="-177.12" font-family="Helvetica,sans-Serif" font-size="10.00">RType/ECS/ComponentConcept.hpp</text>
</a>
</g>
</g>
<!-- Node2&#45;&gt;Node3 -->
<g id="edge2_Node000002_Node000003" class="edge">
<title>Node2&#45;&gt;Node3</title>
<g id="a_edge2_Node000002_Node000003"><a xlink:title=" ">
<path fill="none" stroke="#63b8ff" d="M652.21,-359.64C591.05,-355.27 499.96,-344.51 425,-318 340.19,-288.01 251.63,-226.12 213,-197.34"/>
<polygon fill="#63b8ff" stroke="#63b8ff" points="215.59,-194.91 205.49,-191.69 211.38,-200.5 215.59,-194.91"/>
</a>
</g>
</g>
<!-- Node5 -->
<g id="Node000005" class="node">
<title>Node5</title>
<g id="a_Node000005"><a xlink:title=" ">
<polygon fill="#e0e0e0" stroke="#999999" points="305.88,-129.75 244.12,-129.75 244.12,-110.5 305.88,-110.5 305.88,-129.75"/>
<text xml:space="preserve" text-anchor="middle" x="275" y="-116.25" font-family="Helvetica,sans-Serif" font-size="10.00">type_traits</text>
</a>
</g>
</g>
<!-- Node2&#45;&gt;Node5 -->
<g id="edge53_Node000002_Node000005" class="edge">
<title>Node2&#45;&gt;Node5</title>
<g id="a_edge53_Node000002_Node000005"><a xlink:title=" ">
<path fill="none" stroke="#63b8ff" d="M652.55,-357.85C614.75,-352.52 568.43,-341.35 533,-318 462.64,-271.63 488.81,-214.4 420,-165.75 411.39,-159.66 356.86,-143.74 317.19,-132.66"/>
<polygon fill="#63b8ff" stroke="#63b8ff" points="318.23,-129.32 307.66,-130.01 316.35,-136.06 318.23,-129.32"/>
</a>
</g>
</g>
<!-- Node7 -->
<g id="Node000007" class="node">
<title>Node7</title>
<g id="a_Node000007"><a xlink:href="Vec2_8hpp.html" target="_top" xlink:title="Declaration of the 2&#45;dimensional vector class.">
<polygon fill="white" stroke="#666666" points="688.75,-318 575.25,-318 575.25,-298.75 688.75,-298.75 688.75,-318"/>
<text xml:space="preserve" text-anchor="middle" x="632" y="-304.5" font-family="Helvetica,sans-Serif" font-size="10.00">RType/Math/Vec2.hpp</text>
</a>
</g>
</g>
<!-- Node2&#45;&gt;Node7 -->
<g id="edge6_Node000002_Node000007" class="edge">
<title>Node2&#45;&gt;Node7</title>
<g id="a_edge6_Node000002_Node000007"><a xlink:title=" ">
<path fill="none" stroke="#63b8ff" d="M705.9,-353.59C692.48,-345.56 672.59,-333.66 656.83,-324.23"/>
<polygon fill="#63b8ff" stroke="#63b8ff" points="658.85,-321.36 648.47,-319.23 655.25,-327.37 658.85,-321.36"/>
</a>
</g>
</g>
<!-- Node11 -->
<g id="Node000011" class="node">
<title>Node11</title>
<g id="a_Node000011"><a xlink:title=" ">
<polygon fill="#e0e0e0" stroke="#999999" points="351.62,-19.25 306.38,-19.25 306.38,0 351.62,0 351.62,-19.25"/>
<text xml:space="preserve" text-anchor="middle" x="329" y="-5.75" font-family="Helvetica,sans-Serif" font-size="10.00">cstdint</text>
</a>
</g>
</g>
<!-- Node2&#45;&gt;Node11 -->
<g id="edge43_Node000002_Node000011" class="edge">
<title>Node2&#45;&gt;Node11</title>
<g id="a_edge43_Node000002_Node000011"><a xlink:title=" ">
<path fill="none" stroke="#63b8ff" d="M652.41,-359.63C530.2,-353.83 279.68,-339.68 195,-318 121.08,-299.07 38,-324.81 38,-248.5 38,-248.5 38,-248.5 38,-119.12 38,-64.76 218.55,-28.72 295.22,-15.87"/>
<polygon fill="#63b8ff" stroke="#63b8ff" points="295.37,-19.39 304.67,-14.32 294.24,-12.48 295.37,-19.39"/>
</a>
</g>
</g>
<!-- Node13 -->
<g id="Node000013" class="node">
<title>Node13</title>
<g id="a_Node000013"><a xlink:title=" ">
<polygon fill="#e0e0e0" stroke="#999999" points="258.75,-19.25 193.25,-19.25 193.25,0 258.75,0 258.75,-19.25"/>
<text xml:space="preserve" text-anchor="middle" x="226" y="-5.75" font-family="Helvetica,sans-Serif" font-size="10.00">string_view</text>
</a>
</g>
</g>
<!-- Node2&#45;&gt;Node13 -->
<g id="edge48_Node000002_Node000013" class="edge">
<title>Node2&#45;&gt;Node13</title>
<g id="a_edge48_Node000002_Node000013"><a xlink:title=" ">
<path fill="none" stroke="#63b8ff" d="M652.41,-360.8C494.94,-356.2 117.04,-342.72 65,-318 26.8,-299.86 0,-290.79 0,-248.5 0,-248.5 0,-248.5 0,-119.12 0,-39.27 116.1,-18.15 181.87,-12.59"/>
<polygon fill="#63b8ff" stroke="#63b8ff" points="181.92,-16.09 191.63,-11.86 181.4,-9.11 181.92,-16.09"/>
</a>
</g>
</g>
<!-- Node14 -->
<g id="Node000014" class="node">
<title>Node14</title>
<g id="a_Node000014"><a xlink:title=" ">
<polygon fill="#e0e0e0" stroke="#999999" points="719.62,-19.25 680.38,-19.25 680.38,0 719.62,0 719.62,-19.25"/>
<text xml:space="preserve" text-anchor="middle" x="700" y="-5.75" font-family="Helvetica,sans-Serif" font-size="10.00">utility</text>
</a>
</g>
</g>
<!-- Node2&#45;&gt;Node14 -->
<g id="edge49_Node000002_Node000014" class="edge">
<title>Node2&#45;&gt;Node14</title>
<g id="a_edge49_Node000002_Node000014"><a xlink:title=" ">
<path fill="none" stroke="#63b8ff" d="M652.29,-359.18C603.23,-353.39 548.72,-338.21 566,-298.75 575.46,-277.14 589.6,-280.62 605,-262.75 639.05,-223.25 627.34,-194.26 671,-165.75 744.43,-117.81 808.93,-197.18 865,-129.75 886.5,-103.89 851.8,-72.47 830,-55.25 801,-32.35 759.51,-20.82 731.25,-15.29"/>
<polygon fill="#63b8ff" stroke="#63b8ff" points="731.98,-11.87 721.52,-13.54 730.74,-18.76 731.98,-11.87"/>
</a>
</g>
</g>
<!-- Node17 -->
<g id="Node000017" class="node">
<title>Node17</title>
<g id="a_Node000017"><a xlink:title=" ">
<polygon fill="#e0e0e0" stroke="#999999" points="263,-74.5 223,-74.5 223,-55.25 263,-55.25 263,-74.5"/>
<text xml:space="preserve" text-anchor="middle" x="243" y="-61" font-family="Helvetica,sans-Serif" font-size="10.00">string</text>
</a>
</g>
</g>
<!-- Node2&#45;&gt;Node17 -->
<g id="edge47_Node000002_Node000017" class="edge">
<title>Node2&#45;&gt;Node17</title>
<g id="a_edge47_Node000002_Node000017"><a xlink:title=" ">
<path fill="none" stroke="#63b8ff" d="M652.28,-357.61C486.08,-344.58 76,-306.53 76,-248.5 76,-248.5 76,-248.5 76,-180 76,-147.98 72.65,-133.44 95,-110.5 125.69,-79 177.74,-69.54 211.22,-66.82"/>
<polygon fill="#63b8ff" stroke="#63b8ff" points="211.37,-70.31 221.13,-66.18 210.93,-63.33 211.37,-70.31"/>
</a>
</g>
</g>
<!-- Node31 -->
<g id="Node000031" class="node">
<title>Node31</title>
<g id="a_Node000031"><a xlink:title=" ">
<polygon fill="#e0e0e0" stroke="#999999" points="735.4,-318 706.6,-318 706.6,-298.75 735.4,-298.75 735.4,-318"/>
<text xml:space="preserve" text-anchor="middle" x="721" y="-304.5" font-family="Helvetica,sans-Serif" font-size="10.00">bit</text>
</a>
</g>
</g>
<!-- Node2&#45;&gt;Node31 -->
<g id="edge42_Node000002_Node000031" class="edge">
<title>Node2&#45;&gt;Node31</title>
<g id="a_edge42_Node000002_Node000031"><a xlink:title=" ">
<path fill="none" stroke="#63b8ff" d="M721,-353.83C721,-347.32 721,-338.17 721,-329.87"/>
<polygon fill="#63b8ff" stroke="#63b8ff" points="724.5,-329.87 721,-319.87 717.5,-329.87 724.5,-329.87"/>
</a>
</g>
</g>
<!-- Node32 -->
<g id="Node000032" class="node">
<title>Node32</title>
<g id="a_Node000032"><a xlink:title=" ">
<polygon fill="#e0e0e0" stroke="#999999" points="798.62,-318 753.38,-318 753.38,-298.75 798.62,-298.75 798.62,-318"/>
<text xml:space="preserve" text-anchor="middle" x="776" y="-304.5" font-family="Helvetica,sans-Serif" font-size="10.00">cstring</text>
</a>
</g>
</g>
<!-- Node2&#45;&gt;Node32 -->
<g id="edge44_Node000002_Node000032" class="edge">
<title>Node2&#45;&gt;Node32</title>
<g id="a_edge44_Node000002_Node000032"><a xlink:title=" ">
<path fill="none" stroke="#63b8ff" d="M730.08,-353.83C737.84,-346.32 749.21,-335.31 758.7,-326.13"/>
<polygon fill="#63b8ff" stroke="#63b8ff" points="760.88,-328.88 765.63,-319.41 756.01,-323.85 760.88,-328.88"/>
</a>
</g>
</g>
<!-- Node33 -->
<g id="Node000033" class="node">
<title>Node33</title>
<g id="a_Node000033"><a xlink:title=" ">
<polygon fill="#e0e0e0" stroke="#999999" points="853.5,-318 816.5,-318 816.5,-298.75 853.5,-298.75 853.5,-318"/>
<text xml:space="preserve" text-anchor="middle" x="835" y="-304.5" font-family="Helvetica,sans-Serif" font-size="10.00">span</text>
</a>
</g>
</g>
<!-- Node2&#45;&gt;Node33 -->
<g id="edge45_Node000002_Node000033" class="edge">
<title>Node2&#45;&gt;Node33</title>
<g id="a_edge45_Node000002_Node000033"><a xlink:title=" ">
<path fill="none" stroke="#63b8ff" d="M740.34,-353.59C758.32,-345.19 785.36,-332.56 805.94,-322.95"/>
<polygon fill="#63b8ff" stroke="#63b8ff" points="807.37,-326.14 814.95,-318.74 804.41,-319.8 807.37,-326.14"/>
</a>
</g>
</g>
<!-- Node34 -->
<g id="Node000034" class="node">
<title>Node34</title>
<g id="a_Node000034"><a xlink:title=" ">
<polygon fill="#e0e0e0" stroke="#999999" points="930.38,-318 871.62,-318 871.62,-298.75 930.38,-298.75 930.38,-318"/>
<text xml:space="preserve" text-anchor="middle" x="901" y="-304.5" font-family="Helvetica,sans-Serif" font-size="10.00">stdexcept</text>
</a>
</g>
</g>
<!-- Node2&#45;&gt;Node34 -->
<g id="edge46_Node000002_Node000034" class="edge">
<title>Node2&#45;&gt;Node34</title>
<g id="a_edge46_Node000002_Node000034"><a xlink:title=" ">
<path fill="none" stroke="#63b8ff" d="M751.53,-353.59C781.54,-344.71 827.52,-331.11 860.55,-321.34"/>
<polygon fill="#63b8ff" stroke="#63b8ff" points="861.17,-324.81 869.76,-318.62 859.18,-318.1 861.17,-324.81"/>
</a>
</g>
</g>
<!-- Node35 -->
<g id="Node000035" class="node">
<title>Node35</title>
<g id="a_Node000035"><a xlink:title=" ">
<polygon fill="#e0e0e0" stroke="#999999" points="991.5,-318 948.5,-318 948.5,-298.75 991.5,-298.75 991.5,-318"/>
<text xml:space="preserve" text-anchor="middle" x="970" y="-304.5" font-family="Helvetica,sans-Serif" font-size="10.00">vector</text>
</a>
</g>
</g>
<!-- Node2&#45;&gt;Node35 -->
<g id="edge50_Node000002_Node000035" class="edge">
<title>Node2&#45;&gt;Node35</title>
<g id="a_edge50_Node000002_Node000035"><a xlink:title=" ">
<path fill="none" stroke="#63b8ff" d="M770.13,-353.58C812.04,-345.64 874.1,-333.34 937.1,-318.32"/>
<polygon fill="#63b8ff" stroke="#63b8ff" points="937.66,-321.79 946.56,-316.04 936.02,-314.98 937.66,-321.79"/>
</a>
</g>
</g>
<!-- Node36 -->
<g id="Node000036" class="node">
<title>Node36</title>
<g id="a_Node000036"><a xlink:title=" ">
<polygon fill="#e0e0e0" stroke="#999999" points="1088.88,-318 1009.12,-318 1009.12,-298.75 1088.88,-298.75 1088.88,-318"/>
<text xml:space="preserve" text-anchor="middle" x="1049" y="-304.5" font-family="Helvetica,sans-Serif" font-size="10.00">asio/buffer.hpp</text>
</a>
</g>
</g>
<!-- Node2&#45;&gt;Node36 -->
<g id="edge51_Node000002_Node000036" class="edge">
<title>Node2&#45;&gt;Node36</title>
<g id="a_edge51_Node000002_Node000036"><a xlink:title=" ">
<path fill="none" stroke="#63b8ff" d="M780.32,-353.52C834.49,-345.12 917.09,-332.13 997.37,-318.59"/>
<polygon fill="#63b8ff" stroke="#63b8ff" points="997.91,-322.05 1007.19,-316.93 996.74,-315.15 997.91,-322.05"/>
</a>
</g>
</g>
<!-- Node37 -->
<g id="Node000037" class="node">
<title>Node37</title>
<g id="a_Node000037"><a xlink:title=" ">
<polygon fill="#e0e0e0" stroke="#999999" points="1144.88,-318 1107.12,-318 1107.12,-298.75 1144.88,-298.75 1144.88,-318"/>
<text xml:space="preserve" text-anchor="middle" x="1126" y="-304.5" font-family="Helvetica,sans-Serif" font-size="10.00">array</text>
</a>
</g>
</g>
<!-- Node2&#45;&gt;Node37 -->
<g id="edge52_Node000002_Node000037" class="edge">
<title>Node2&#45;&gt;Node37</title>
<g id="a_edge52_Node000002_Node000037"><a xlink:title=" ">
<path fill="none" stroke="#63b8ff" d="M789.74,-354.81C884.37,-344.02 1047.79,-325.21 1095.72,-317.74"/>
<polygon fill="#63b8ff" stroke="#63b8ff" points="1096.11,-321.23 1105.35,-316.04 1094.89,-314.34 1096.11,-321.23"/>
</a>
</g>
</g>
<!-- Node38 -->
<g id="Node000038" class="node">
<title>Node38</title>
<g id="a_Node000038"><a xlink:href="Packet_8tpp.html" target="_top" xlink:title=" ">
<polygon fill="white" stroke="#666666" points="1226.62,-318 1163.38,-318 1163.38,-298.75 1226.62,-298.75 1226.62,-318"/>
<text xml:space="preserve" text-anchor="middle" x="1195" y="-304.5" font-family="Helvetica,sans-Serif" font-size="10.00">Packet.tpp</text>
</a>
</g>
</g>
<!-- Node2&#45;&gt;Node38 -->
<g id="edge54_Node000002_Node000038" class="edge">
<title>Node2&#45;&gt;Node38</title>
<g id="a_edge54_Node000002_Node000038"><a xlink:title=" ">
<path fill="none" stroke="#63b8ff" d="M789.84,-354.88C792.6,-354.58 795.32,-354.29 798,-354 952.58,-337.53 994.97,-342.18 1152.25,-318.1"/>
<polygon fill="#63b8ff" stroke="#63b8ff" points="1152.43,-321.62 1161.78,-316.63 1151.36,-314.7 1152.43,-321.62"/>
</a>
</g>
</g>
<!-- Node4 -->
<g id="Node000004" class="node">
<title>Node4</title>
<g id="a_Node000004"><a xlink:title=" ">
<polygon fill="#e0e0e0" stroke="#999999" points="225.88,-129.75 170.12,-129.75 170.12,-110.5 225.88,-110.5 225.88,-129.75"/>
<text xml:space="preserve" text-anchor="middle" x="198" y="-116.25" font-family="Helvetica,sans-Serif" font-size="10.00">concepts</text>
</a>
</g>
</g>
<!-- Node3&#45;&gt;Node4 -->
<g id="edge3_Node000003_Node000004" class="edge">
<title>Node3&#45;&gt;Node4</title>
<g id="a_edge3_Node000003_Node000004"><a xlink:title=" ">
<path fill="none" stroke="#63b8ff" d="M193.76,-171.06C194.43,-163.19 195.42,-151.45 196.28,-141.32"/>
<polygon fill="#63b8ff" stroke="#63b8ff" points="199.75,-141.92 197.11,-131.66 192.77,-141.33 199.75,-141.92"/>
</a>
</g>
</g>
<!-- Node3&#45;&gt;Node5 -->
<g id="edge4_Node000003_Node000005" class="edge">
<title>Node3&#45;&gt;Node5</title>
<g id="a_edge4_Node000003_Node000005"><a xlink:title=" ">
<path fill="none" stroke="#63b8ff" d="M205.45,-171.06C218.1,-161.98 237.93,-147.74 253.19,-136.79"/>
<polygon fill="#63b8ff" stroke="#63b8ff" points="255.12,-139.71 261.2,-131.03 251.03,-134.02 255.12,-139.71"/>
</a>
</g>
</g>
<!-- Node6 -->
<g id="Node000006" class="node">
<title>Node6</title>
<g id="a_Node000006"><a xlink:title=" ">
<polygon fill="#e0e0e0" stroke="#999999" points="152.12,-129.75 103.88,-129.75 103.88,-110.5 152.12,-110.5 152.12,-129.75"/>
<text xml:space="preserve" text-anchor="middle" x="128" y="-116.25" font-family="Helvetica,sans-Serif" font-size="10.00">cstddef</text>
</a>
</g>
</g>
<!-- Node3&#45;&gt;Node6 -->
<g id="edge5_Node000003_Node000006" class="edge">
<title>Node3&#45;&gt;Node6</title>
<g id="a_edge5_Node000003_Node000006"><a xlink:title=" ">
<path fill="none" stroke="#63b8ff" d="M183.13,-171.06C173.39,-162.24 158.28,-148.55 146.34,-137.73"/>
<polygon fill="#63b8ff" stroke="#63b8ff" points="148.85,-135.29 139.09,-131.17 144.15,-140.47 148.85,-135.29"/>
</a>
</g>
</g>
<!-- Node8 -->
<g id="Node000008" class="node">
<title>Node8</title>
<g id="a_Node000008"><a xlink:href="Assert_8hpp.html" target="_top" xlink:title="Assertion and verification macros for runtime checks.">
<polygon fill="white" stroke="#666666" points="596.38,-257.12 501.62,-257.12 501.62,-237.88 596.38,-237.88 596.38,-257.12"/>
<text xml:space="preserve" text-anchor="middle" x="549" y="-243.62" font-family="Helvetica,sans-Serif" font-size="10.00">RType/Assert.hpp</text>
</a>
</g>
</g>
<!-- Node7&#45;&gt;Node8 -->
<g id="edge7_Node000007_Node000008" class="edge">
<title>Node7&#45;&gt;Node8</title>
<g id="a_edge7_Node000007_Node000008"><a xlink:title=" ">
<path fill="none" stroke="#63b8ff" d="M619.39,-298.43C606.6,-289.36 586.52,-275.12 571.08,-264.16"/>
<polygon fill="#63b8ff" stroke="#63b8ff" points="573.14,-261.33 562.96,-258.4 569.09,-267.04 573.14,-261.33"/>
</a>
</g>
</g>
<!-- Node25 -->
<g id="Node000025" class="node">
<title>Node25</title>
<g id="a_Node000025"><a xlink:href="VecBase_8hpp.html" target="_top" xlink:title="Declaration of the CRTP base vector class.">
<polygon fill="white" stroke="#666666" points="752.38,-262.75 651.62,-262.75 651.62,-232.25 752.38,-232.25 752.38,-262.75"/>
<text xml:space="preserve" text-anchor="start" x="659.62" y="-249.25" font-family="Helvetica,sans-Serif" font-size="10.00">RType/Math/details</text>
<text xml:space="preserve" text-anchor="middle" x="702" y="-238" font-family="Helvetica,sans-Serif" font-size="10.00">/VecBase.hpp</text>
</a>
</g>
</g>
<!-- Node7&#45;&gt;Node25 -->
<g id="edge34_Node000007_Node000025" class="edge">
<title>Node7&#45;&gt;Node25</title>
<g id="a_edge34_Node000007_Node000025"><a xlink:title=" ">
<path fill="none" stroke="#63b8ff" d="M642.63,-298.43C651.53,-290.95 664.6,-279.95 676.22,-270.18"/>
<polygon fill="#63b8ff" stroke="#63b8ff" points="678.16,-273.12 683.56,-264.01 673.66,-267.76 678.16,-273.12"/>
</a>
</g>
</g>
<!-- Node30 -->
<g id="Node000030" class="node">
<title>Node30</title>
<g id="a_Node000030"><a xlink:href="Vec2_8tpp.html" target="_top" xlink:title=" ">
<polygon fill="white" stroke="#666666" points="825.5,-257.12 770.5,-257.12 770.5,-237.88 825.5,-237.88 825.5,-257.12"/>
<text xml:space="preserve" text-anchor="middle" x="798" y="-243.62" font-family="Helvetica,sans-Serif" font-size="10.00">Vec2.tpp</text>
</a>
</g>
</g>
<!-- Node7&#45;&gt;Node30 -->
<g id="edge41_Node000007_Node000030" class="edge">
<title>Node7&#45;&gt;Node30</title>
<g id="a_edge41_Node000007_Node000030"><a xlink:title=" ">
<path fill="none" stroke="#63b8ff" d="M658.78,-298.41C684.94,-289.59 725.83,-275.6 761,-262.75 762.13,-262.34 763.28,-261.91 764.44,-261.48"/>
<polygon fill="#63b8ff" stroke="#63b8ff" points="765.42,-264.86 773.54,-258.05 762.95,-258.31 765.42,-264.86"/>
</a>
</g>
</g>
<!-- Node9 -->
<g id="Node000009" class="node">
<title>Node9</title>
<g id="a_Node000009"><a xlink:href="Logger_8hpp.html" target="_top" xlink:title="Logger declaration with support for multiple log levels.">
<polygon fill="white" stroke="#666666" points="561.38,-190.62 466.62,-190.62 466.62,-171.38 561.38,-171.38 561.38,-190.62"/>
<text xml:space="preserve" text-anchor="middle" x="514" y="-177.12" font-family="Helvetica,sans-Serif" font-size="10.00">RType/Logger.hpp</text>
</a>
</g>
</g>
<!-- Node8&#45;&gt;Node9 -->
<g id="edge8_Node000008_Node000009" class="edge">
<title>Node8&#45;&gt;Node9</title>
<g id="a_edge8_Node000008_Node000009"><a xlink:title=" ">
<path fill="none" stroke="#63b8ff" d="M544.13,-237.53C539.01,-228.1 530.81,-212.97 524.25,-200.88"/>
<polygon fill="#63b8ff" stroke="#63b8ff" points="527.39,-199.34 519.55,-192.22 521.24,-202.68 527.39,-199.34"/>
</a>
</g>
</g>
<!-- Node24 -->
<g id="Node000024" class="node">
<title>Node24</title>
<g id="a_Node000024"><a xlink:title=" ">
<polygon fill="#e0e0e0" stroke="#999999" points="624.25,-190.62 579.75,-190.62 579.75,-171.38 624.25,-171.38 624.25,-190.62"/>
<text xml:space="preserve" text-anchor="middle" x="602" y="-177.12" font-family="Helvetica,sans-Serif" font-size="10.00">cstdlib</text>
</a>
</g>
</g>
<!-- Node8&#45;&gt;Node24 -->
<g id="edge33_Node000008_Node000024" class="edge">
<title>Node8&#45;&gt;Node24</title>
<g id="a_edge33_Node000008_Node000024"><a xlink:title=" ">
<path fill="none" stroke="#63b8ff" d="M556.37,-237.53C564.36,-227.81 577.32,-212.04 587.39,-199.78"/>
<polygon fill="#63b8ff" stroke="#63b8ff" points="590.09,-202.01 593.73,-192.06 584.68,-197.57 590.09,-202.01"/>
</a>
</g>
</g>
<!-- Node9&#45;&gt;Node5 -->
<g id="edge30_Node000009_Node000005" class="edge">
<title>Node9&#45;&gt;Node5</title>
<g id="a_edge30_Node000009_Node000005"><a xlink:title=" ">
<path fill="none" stroke="#63b8ff" d="M477.18,-170.93C433.97,-160.28 362.46,-142.67 317.09,-131.49"/>
<polygon fill="#63b8ff" stroke="#63b8ff" points="318.16,-128.15 307.62,-129.16 316.49,-134.95 318.16,-128.15"/>
</a>
</g>
</g>
<!-- Node10 -->
<g id="Node000010" class="node">
<title>Node10</title>
<g id="a_Node000010"><a xlink:href="LogLevel_8hpp.html" target="_top" xlink:title="Log severity levels for the logging system.">
<polygon fill="white" stroke="#666666" points="462.62,-74.5 357.38,-74.5 357.38,-55.25 462.62,-55.25 462.62,-74.5"/>
<text xml:space="preserve" text-anchor="middle" x="410" y="-61" font-family="Helvetica,sans-Serif" font-size="10.00">RType/LogLevel.hpp</text>
</a>
</g>
</g>
<!-- Node9&#45;&gt;Node10 -->
<g id="edge9_Node000009_Node000010" class="edge">
<title>Node9&#45;&gt;Node10</title>
<g id="a_edge9_Node000009_Node000010"><a xlink:title=" ">
<path fill="none" stroke="#63b8ff" d="M491.86,-170.92C474.02,-162.6 449.46,-148.68 434,-129.75 423.56,-116.96 417.38,-99.17 413.91,-85.61"/>
<polygon fill="#63b8ff" stroke="#63b8ff" points="417.37,-85.08 411.77,-76.09 410.54,-86.62 417.37,-85.08"/>
</a>
</g>
</g>
<!-- Node12 -->
<g id="Node000012" class="node">
<title>Node12</title>
<g id="a_Node000012"><a xlink:title=" ">
<polygon fill="#e0e0e0" stroke="#999999" points="512.88,-19.25 469.12,-19.25 469.12,0 512.88,0 512.88,-19.25"/>
<text xml:space="preserve" text-anchor="middle" x="491" y="-5.75" font-family="Helvetica,sans-Serif" font-size="10.00">format</text>
</a>
</g>
</g>
<!-- Node9&#45;&gt;Node12 -->
<g id="edge26_Node000009_Node000012" class="edge">
<title>Node9&#45;&gt;Node12</title>
<g id="a_edge26_Node000009_Node000012"><a xlink:title=" ">
<path fill="none" stroke="#63b8ff" d="M501.22,-170.92C489.8,-161.95 473.84,-147.08 467,-129.75 463.86,-121.79 465.99,-119 467,-110.5 470.35,-82.2 478.87,-50.3 484.8,-30.34"/>
<polygon fill="#63b8ff" stroke="#63b8ff" points="488.07,-31.62 487.65,-21.03 481.38,-29.57 488.07,-31.62"/>
</a>
</g>
</g>
<!-- Node9&#45;&gt;Node13 -->
<g id="edge29_Node000009_Node000013" class="edge">
<title>Node9&#45;&gt;Node13</title>
<g id="a_edge29_Node000009_Node000013"><a xlink:title=" ">
<path fill="none" stroke="#63b8ff" d="M476.76,-170.93C443.01,-162.17 392.24,-147.61 350,-129.75 333.65,-122.84 331.19,-117.78 315,-110.5 271.54,-90.95 241.46,-113.45 214,-74.5 204.75,-61.39 209.48,-43.14 215.51,-29.5"/>
<polygon fill="#63b8ff" stroke="#63b8ff" points="218.57,-31.2 219.93,-20.7 212.31,-28.07 218.57,-31.2"/>
</a>
</g>
</g>
<!-- Node9&#45;&gt;Node14 -->
<g id="edge31_Node000009_Node000014" class="edge">
<title>Node9&#45;&gt;Node14</title>
<g id="a_edge31_Node000009_Node000014"><a xlink:title=" ">
<path fill="none" stroke="#63b8ff" d="M549.21,-170.91C556.4,-169.13 563.93,-167.33 571,-165.75 651.47,-147.75 679.17,-166.47 753,-129.75 786.05,-113.31 799.9,-108.18 815,-74.5 831.5,-37.69 770.48,-21.26 731.06,-14.62"/>
<polygon fill="#63b8ff" stroke="#63b8ff" points="731.78,-11.19 721.36,-13.13 730.71,-18.11 731.78,-11.19"/>
</a>
</g>
</g>
<!-- Node16 -->
<g id="Node000016" class="node">
<title>Node16</title>
<g id="a_Node000016"><a xlink:href="Error_8hpp.html" target="_top" xlink:title="Error handling system with categorized error codes.">
<polygon fill="white" stroke="#666666" points="744.25,-129.75 657.75,-129.75 657.75,-110.5 744.25,-110.5 744.25,-129.75"/>
<text xml:space="preserve" text-anchor="middle" x="701" y="-116.25" font-family="Helvetica,sans-Serif" font-size="10.00">RType/Error.hpp</text>
</a>
</g>
</g>
<!-- Node9&#45;&gt;Node16 -->
<g id="edge15_Node000009_Node000016" class="edge">
<title>Node9&#45;&gt;Node16</title>
<g id="a_edge15_Node000009_Node000016"><a xlink:title=" ">
<path fill="none" stroke="#63b8ff" d="M542.81,-170.93C574.52,-160.95 625.7,-144.83 661.22,-133.65"/>
<polygon fill="#63b8ff" stroke="#63b8ff" points="662.23,-137 670.71,-130.66 660.13,-130.32 662.23,-137"/>
</a>
</g>
</g>
<!-- Node9&#45;&gt;Node17 -->
<g id="edge28_Node000009_Node000017" class="edge">
<title>Node9&#45;&gt;Node17</title>
<g id="a_edge28_Node000009_Node000017"><a xlink:title=" ">
<path fill="none" stroke="#63b8ff" d="M492.74,-171.04C445.11,-150.99 329.69,-102.38 274.04,-78.94"/>
<polygon fill="#63b8ff" stroke="#63b8ff" points="275.39,-75.72 264.82,-75.06 272.68,-82.17 275.39,-75.72"/>
</a>
</g>
</g>
<!-- Node21 -->
<g id="Node000021" class="node">
<title>Node21</title>
<g id="a_Node000021"><a xlink:title=" ">
<polygon fill="#e0e0e0" stroke="#999999" points="855.88,-129.75 800.12,-129.75 800.12,-110.5 855.88,-110.5 855.88,-129.75"/>
<text xml:space="preserve" text-anchor="middle" x="828" y="-116.25" font-family="Helvetica,sans-Serif" font-size="10.00">expected</text>
</a>
</g>
</g>
<!-- Node9&#45;&gt;Node21 -->
<g id="edge25_Node000009_Node000021" class="edge">
<title>Node9&#45;&gt;Node21</title>
<g id="a_edge25_Node000009_Node000021"><a xlink:title=" ">
<path fill="none" stroke="#63b8ff" d="M548.56,-170.89C555.94,-169.08 563.71,-167.27 571,-165.75 665.85,-145.99 690.75,-147.5 786,-129.75 786.99,-129.57 788,-129.38 789.01,-129.18"/>
<polygon fill="#63b8ff" stroke="#63b8ff" points="789.39,-132.67 798.53,-127.31 788.04,-125.81 789.39,-132.67"/>
</a>
</g>
</g>
<!-- Node22 -->
<g id="Node000022" class="node">
<title>Node22</title>
<g id="a_Node000022"><a xlink:title=" ">
<polygon fill="#e0e0e0" stroke="#999999" points="560.12,-129.75 475.88,-129.75 475.88,-110.5 560.12,-110.5 560.12,-129.75"/>
<text xml:space="preserve" text-anchor="middle" x="518" y="-116.25" font-family="Helvetica,sans-Serif" font-size="10.00">source_location</text>
</a>
</g>
</g>
<!-- Node9&#45;&gt;Node22 -->
<g id="edge27_Node000009_Node000022" class="edge">
<title>Node9&#45;&gt;Node22</title>
<g id="a_edge27_Node000009_Node000022"><a xlink:title=" ">
<path fill="none" stroke="#63b8ff" d="M514.61,-171.06C515.14,-163.19 515.94,-151.45 516.63,-141.32"/>
<polygon fill="#63b8ff" stroke="#63b8ff" points="520.1,-141.88 517.28,-131.66 513.11,-141.4 520.1,-141.88"/>
</a>
</g>
</g>
<!-- Node23 -->
<g id="Node000023" class="node">
<title>Node23</title>
<g id="a_Node000023"><a xlink:href="Logger_8tpp.html" target="_top" xlink:title=" ">
<polygon fill="white" stroke="#666666" points="639.5,-129.75 578.5,-129.75 578.5,-110.5 639.5,-110.5 639.5,-129.75"/>
<text xml:space="preserve" text-anchor="middle" x="609" y="-116.25" font-family="Helvetica,sans-Serif" font-size="10.00">Logger.tpp</text>
</a>
</g>
</g>
<!-- Node9&#45;&gt;Node23 -->
<g id="edge32_Node000009_Node000023" class="edge">
<title>Node9&#45;&gt;Node23</title>
<g id="a_edge32_Node000009_Node000023"><a xlink:title=" ">
<path fill="none" stroke="#63b8ff" d="M528.43,-171.06C543.35,-161.81 566.93,-147.2 584.73,-136.17"/>
<polygon fill="#63b8ff" stroke="#63b8ff" points="586.49,-139.19 593.15,-130.95 582.81,-133.24 586.49,-139.19"/>
</a>
</g>
</g>
<!-- Node10&#45;&gt;Node11 -->
<g id="edge10_Node000010_Node000011" class="edge">
<title>Node10&#45;&gt;Node11</title>
<g id="a_edge10_Node000010_Node000011"><a xlink:title=" ">
<path fill="none" stroke="#63b8ff" d="M396.26,-54.84C384.27,-46.96 366.63,-35.36 352.42,-26.02"/>
<polygon fill="#63b8ff" stroke="#63b8ff" points="354.35,-23.1 344.07,-20.53 350.51,-28.95 354.35,-23.1"/>
</a>
</g>
</g>
<!-- Node10&#45;&gt;Node12 -->
<g id="edge11_Node000010_Node000012" class="edge">
<title>Node10&#45;&gt;Node12</title>
<g id="a_edge11_Node000010_Node000012"><a xlink:title=" ">
<path fill="none" stroke="#63b8ff" d="M423.74,-54.84C435.73,-46.96 453.37,-35.36 467.58,-26.02"/>
<polygon fill="#63b8ff" stroke="#63b8ff" points="469.49,-28.95 475.93,-20.53 465.65,-23.1 469.49,-28.95"/>
</a>
</g>
</g>
<!-- Node10&#45;&gt;Node13 -->
<g id="edge12_Node000010_Node000013" class="edge">
<title>Node10&#45;&gt;Node13</title>
<g id="a_edge12_Node000010_Node000013"><a xlink:title=" ">
<path fill="none" stroke="#63b8ff" d="M378.79,-54.84C348.39,-46.04 301.96,-32.61 268.26,-22.86"/>
<polygon fill="#63b8ff" stroke="#63b8ff" points="269.4,-19.54 258.82,-20.12 267.45,-26.27 269.4,-19.54"/>
</a>
</g>
</g>
<!-- Node10&#45;&gt;Node14 -->
<g id="edge13_Node000010_Node000014" class="edge">
<title>Node10&#45;&gt;Node14</title>
<g id="a_edge13_Node000010_Node000014"><a xlink:title=" ">
<path fill="none" stroke="#63b8ff" d="M459.52,-54.78C519.58,-43.75 618.97,-25.5 669.08,-16.3"/>
<polygon fill="#63b8ff" stroke="#63b8ff" points="669.45,-19.79 678.65,-14.55 668.18,-12.91 669.45,-19.79"/>
</a>
</g>
</g>
<!-- Node15 -->
<g id="Node000015" class="node">
<title>Node15</title>
<g id="a_Node000015"><a xlink:title=" ">
<polygon fill="#e0e0e0" stroke="#999999" points="443.88,-19.25 376.12,-19.25 376.12,0 443.88,0 443.88,-19.25"/>
<text xml:space="preserve" text-anchor="middle" x="410" y="-5.75" font-family="Helvetica,sans-Serif" font-size="10.00">LogLevel.inl</text>
</a>
</g>
</g>
<!-- Node10&#45;&gt;Node15 -->
<g id="edge14_Node000010_Node000015" class="edge">
<title>Node10&#45;&gt;Node15</title>
<g id="a_edge14_Node000010_Node000015"><a xlink:title=" ">
<path fill="none" stroke="#63b8ff" d="M410,-55.08C410,-48.57 410,-39.42 410,-31.12"/>
<polygon fill="#63b8ff" stroke="#63b8ff" points="413.5,-31.12 410,-21.12 406.5,-31.12 413.5,-31.12"/>
</a>
</g>
</g>
<!-- Node16&#45;&gt;Node10 -->
<g id="edge16_Node000016_Node000010" class="edge">
<title>Node16&#45;&gt;Node10</title>
<g id="a_edge16_Node000016_Node000010"><a xlink:title=" ">
<path fill="none" stroke="#63b8ff" d="M657.43,-111.15C607.89,-102.09 526.66,-87.22 470.87,-77.01"/>
<polygon fill="#63b8ff" stroke="#63b8ff" points="471.68,-73.6 461.21,-75.25 470.42,-80.49 471.68,-73.6"/>
</a>
</g>
</g>
<!-- Node16&#45;&gt;Node11 -->
<g id="edge17_Node000016_Node000011" class="edge">
<title>Node16&#45;&gt;Node11</title>
<g id="a_edge17_Node000016_Node000011"><a xlink:title=" ">
<path fill="none" stroke="#63b8ff" d="M657.35,-111.87C654.19,-111.39 651.05,-110.93 648,-110.5 581.52,-101.11 399.33,-117.78 348,-74.5 335.41,-63.89 330.95,-45.33 329.47,-30.95"/>
<polygon fill="#63b8ff" stroke="#63b8ff" points="332.97,-30.97 328.89,-21.2 325.99,-31.38 332.97,-30.97"/>
</a>
</g>
</g>
<!-- Node16&#45;&gt;Node12 -->
<g id="edge18_Node000016_Node000012" class="edge">
<title>Node16&#45;&gt;Node12</title>
<g id="a_edge18_Node000016_Node000012"><a xlink:title=" ">
<path fill="none" stroke="#63b8ff" d="M667.77,-110.07C642.14,-102.41 606.24,-90.18 577,-74.5 552.06,-61.13 526.39,-41.09 509.67,-27.03"/>
<polygon fill="#63b8ff" stroke="#63b8ff" points="511.95,-24.38 502.07,-20.53 507.39,-29.69 511.95,-24.38"/>
</a>
</g>
</g>
<!-- Node16&#45;&gt;Node13 -->
<g id="edge20_Node000016_Node000013" class="edge">
<title>Node16&#45;&gt;Node13</title>
<g id="a_edge20_Node000016_Node000013"><a xlink:title=" ">
<path fill="none" stroke="#63b8ff" d="M657.35,-111.85C654.19,-111.38 651.05,-110.92 648,-110.5 507.54,-91.11 465.15,-120.42 331,-74.5 299.05,-63.56 266.48,-41.74 246.26,-26.67"/>
<polygon fill="#63b8ff" stroke="#63b8ff" points="248.4,-23.9 238.33,-20.61 244.15,-29.46 248.4,-23.9"/>
</a>
</g>
</g>
<!-- Node16&#45;&gt;Node14 -->
<g id="edge22_Node000016_Node000014" class="edge">
<title>Node16&#45;&gt;Node14</title>
<g id="a_edge22_Node000016_Node000014"><a xlink:title=" ">
<path fill="none" stroke="#63b8ff" d="M665.51,-110.08C635.3,-101.58 595.35,-88.15 586,-74.5 563.09,-41.03 627.77,-23.16 668.88,-15.42"/>
<polygon fill="#63b8ff" stroke="#63b8ff" points="669.28,-18.9 678.52,-13.72 668.06,-12.01 669.28,-18.9"/>
</a>
</g>
</g>
<!-- Node16&#45;&gt;Node17 -->
<g id="edge19_Node000016_Node000017" class="edge">
<title>Node16&#45;&gt;Node17</title>
<g id="a_edge19_Node000016_Node000017"><a xlink:title=" ">
<path fill="none" stroke="#63b8ff" d="M657.36,-111.79C654.2,-111.33 651.05,-110.9 648,-110.5 483.71,-89.18 440.2,-102.95 277,-74.5 276.17,-74.35 275.33,-74.2 274.48,-74.04"/>
<polygon fill="#63b8ff" stroke="#63b8ff" points="275.39,-70.65 264.87,-71.91 273.87,-77.49 275.39,-70.65"/>
</a>
</g>
</g>
<!-- Node18 -->
<g id="Node000018" class="node">
<title>Node18</title>
<g id="a_Node000018"><a xlink:title=" ">
<polygon fill="#e0e0e0" stroke="#999999" points="668.5,-74.5 595.5,-74.5 595.5,-55.25 668.5,-55.25 668.5,-74.5"/>
<text xml:space="preserve" text-anchor="middle" x="632" y="-61" font-family="Helvetica,sans-Serif" font-size="10.00">system_error</text>
</a>
</g>
</g>
<!-- Node16&#45;&gt;Node18 -->
<g id="edge21_Node000016_Node000018" class="edge">
<title>Node16&#45;&gt;Node18</title>
<g id="a_edge21_Node000016_Node000018"><a xlink:title=" ">
<path fill="none" stroke="#63b8ff" d="M689.3,-110.09C679.22,-102.32 664.46,-90.92 652.44,-81.65"/>
<polygon fill="#63b8ff" stroke="#63b8ff" points="654.79,-79.04 644.73,-75.7 650.51,-84.58 654.79,-79.04"/>
</a>
</g>
</g>
<!-- Node19 -->
<g id="Node000019" class="node">
<title>Node19</title>
<g id="a_Node000019"><a xlink:title=" ">
<polygon fill="#e0e0e0" stroke="#999999" points="735.5,-74.5 686.5,-74.5 686.5,-55.25 735.5,-55.25 735.5,-74.5"/>
<text xml:space="preserve" text-anchor="middle" x="711" y="-61" font-family="Helvetica,sans-Serif" font-size="10.00">Error.inl</text>
</a>
</g>
</g>
<!-- Node16&#45;&gt;Node19 -->
<g id="edge23_Node000016_Node000019" class="edge">
<title>Node16&#45;&gt;Node19</title>
<g id="a_edge23_Node000016_Node000019"><a xlink:title=" ">
<path fill="none" stroke="#63b8ff" d="M702.65,-110.33C703.89,-103.74 705.63,-94.46 707.21,-86.07"/>
<polygon fill="#63b8ff" stroke="#63b8ff" points="710.63,-86.82 709.03,-76.35 703.75,-85.53 710.63,-86.82"/>
</a>
</g>
</g>
<!-- Node20 -->
<g id="Node000020" class="node">
<title>Node20</title>
<g id="a_Node000020"><a xlink:href="Error_8tpp.html" target="_top" xlink:title=" ">
<polygon fill="white" stroke="#666666" points="806.38,-74.5 753.62,-74.5 753.62,-55.25 806.38,-55.25 806.38,-74.5"/>
<text xml:space="preserve" text-anchor="middle" x="780" y="-61" font-family="Helvetica,sans-Serif" font-size="10.00">Error.tpp</text>
</a>
</g>
</g>
<!-- Node16&#45;&gt;Node20 -->
<g id="edge24_Node000016_Node000020" class="edge">
<title>Node16&#45;&gt;Node20</title>
<g id="a_edge24_Node000016_Node000020"><a xlink:title=" ">
<path fill="none" stroke="#63b8ff" d="M714.4,-110.09C726.09,-102.21 743.3,-90.61 757.16,-81.27"/>
<polygon fill="#63b8ff" stroke="#63b8ff" points="758.94,-84.29 765.28,-75.8 755.03,-78.49 758.94,-84.29"/>
</a>
</g>
</g>
<!-- Node26 -->
<g id="Node000026" class="node">
<title>Node26</title>
<g id="a_Node000026"><a xlink:href="NumericConcept_8hpp.html" target="_top" xlink:title="Definition of the Numeric concept.">
<polygon fill="white" stroke="#666666" points="410.62,-196.25 299.38,-196.25 299.38,-165.75 410.62,-165.75 410.62,-196.25"/>
<text xml:space="preserve" text-anchor="start" x="307.38" y="-182.75" font-family="Helvetica,sans-Serif" font-size="10.00">RType/Math/details</text>
<text xml:space="preserve" text-anchor="middle" x="355" y="-171.5" font-family="Helvetica,sans-Serif" font-size="10.00">/NumericConcept.hpp</text>
</a>
</g>
</g>
<!-- Node25&#45;&gt;Node26 -->
<g id="edge35_Node000025_Node000026" class="edge">
<title>Node25&#45;&gt;Node26</title>
<g id="a_edge35_Node000025_Node000026"><a xlink:title=" ">
<path fill="none" stroke="#63b8ff" d="M651.17,-237.05C590.58,-225.79 489.12,-206.93 422.12,-194.48"/>
<polygon fill="#63b8ff" stroke="#63b8ff" points="422.81,-191.05 412.34,-192.66 421.53,-197.93 422.81,-191.05"/>
</a>
</g>
</g>
<!-- Node27 -->
<g id="Node000027" class="node">
<title>Node27</title>
<g id="a_Node000027"><a xlink:title=" ">
<polygon fill="#e0e0e0" stroke="#999999" points="723.5,-190.62 680.5,-190.62 680.5,-171.38 723.5,-171.38 723.5,-190.62"/>
<text xml:space="preserve" text-anchor="middle" x="702" y="-177.12" font-family="Helvetica,sans-Serif" font-size="10.00">cmath</text>
</a>
</g>
</g>
<!-- Node25&#45;&gt;Node27 -->
<g id="edge38_Node000025_Node000027" class="edge">
<title>Node25&#45;&gt;Node27</title>
<g id="a_edge38_Node000025_Node000027"><a xlink:title=" ">
<path fill="none" stroke="#63b8ff" d="M702,-231.86C702,-223.08 702,-211.77 702,-202.15"/>
<polygon fill="#63b8ff" stroke="#63b8ff" points="705.5,-202.34 702,-192.34 698.5,-202.34 705.5,-202.34"/>
</a>
</g>
</g>
<!-- Node28 -->
<g id="Node000028" class="node">
<title>Node28</title>
<g id="a_Node000028"><a xlink:title=" ">
<polygon fill="#e0e0e0" stroke="#999999" points="794.75,-190.62 741.25,-190.62 741.25,-171.38 794.75,-171.38 794.75,-190.62"/>
<text xml:space="preserve" text-anchor="middle" x="768" y="-177.12" font-family="Helvetica,sans-Serif" font-size="10.00">iostream</text>
</a>
</g>
</g>
<!-- Node25&#45;&gt;Node28 -->
<g id="edge39_Node000025_Node000028" class="edge">
<title>Node25&#45;&gt;Node28</title>
<g id="a_edge39_Node000025_Node000028"><a xlink:title=" ">
<path fill="none" stroke="#63b8ff" d="M716.98,-231.86C727.08,-221.99 740.43,-208.94 750.94,-198.67"/>
<polygon fill="#63b8ff" stroke="#63b8ff" points="753.18,-201.37 757.89,-191.88 748.29,-196.37 753.18,-201.37"/>
</a>
</g>
</g>
<!-- Node29 -->
<g id="Node000029" class="node">
<title>Node29</title>
<g id="a_Node000029"><a xlink:href="VecBase_8tpp.html" target="_top" xlink:title=" ">
<polygon fill="white" stroke="#666666" points="885.12,-190.62 812.88,-190.62 812.88,-171.38 885.12,-171.38 885.12,-190.62"/>
<text xml:space="preserve" text-anchor="middle" x="849" y="-177.12" font-family="Helvetica,sans-Serif" font-size="10.00">VecBase.tpp</text>
</a>
</g>
</g>
<!-- Node25&#45;&gt;Node29 -->
<g id="edge40_Node000025_Node000029" class="edge">
<title>Node25&#45;&gt;Node29</title>
<g id="a_edge40_Node000025_Node000029"><a xlink:title=" ">
<path fill="none" stroke="#63b8ff" d="M735.36,-231.86C760.19,-220.97 793.83,-206.21 818.06,-195.58"/>
<polygon fill="#63b8ff" stroke="#63b8ff" points="819.33,-198.84 827.08,-191.62 816.52,-192.43 819.33,-198.84"/>
</a>
</g>
</g>
<!-- Node26&#45;&gt;Node4 -->
<g id="edge36_Node000026_Node000004" class="edge">
<title>Node26&#45;&gt;Node4</title>
<g id="a_edge36_Node000026_Node000004"><a xlink:title=" ">
<path fill="none" stroke="#63b8ff" d="M315.79,-165.3C290.27,-155.73 257.29,-143.36 232.72,-134.14"/>
<polygon fill="#63b8ff" stroke="#63b8ff" points="234.09,-130.92 223.49,-130.69 231.63,-137.47 234.09,-130.92"/>
</a>
</g>
</g>
<!-- Node26&#45;&gt;Node5 -->
<g id="edge37_Node000026_Node000005" class="edge">
<title>Node26&#45;&gt;Node5</title>
<g id="a_edge37_Node000026_Node000005"><a xlink:title=" ">
<path fill="none" stroke="#63b8ff" d="M335.22,-165.45C323.4,-156.74 308.36,-145.68 296.28,-136.78"/>
<polygon fill="#63b8ff" stroke="#63b8ff" points="298.68,-134.21 288.55,-131.1 294.53,-139.84 298.68,-134.21"/>
</a>
</g>
</g>
<!-- Node39&#45;&gt;Node2 -->
<g id="edge57_Node000039_Node000002" class="edge">
<title>Node39&#45;&gt;Node2</title>
<g id="a_edge57_Node000039_Node000002"><a xlink:title=" ">
<path fill="none" stroke="#63b8ff" d="M804.87,-408.84C789.34,-400.66 766.2,-388.46 748.16,-378.94"/>
<polygon fill="#63b8ff" stroke="#63b8ff" points="750.03,-375.98 739.56,-374.41 746.77,-382.17 750.03,-375.98"/>
</a>
</g>
</g>
<!-- Node40 -->
<g id="Node000040" class="node">
<title>Node40</title>
<g id="a_Node000040"><a xlink:title=" ">
<polygon fill="#e0e0e0" stroke="#999999" points="856.88,-373.25 807.12,-373.25 807.12,-354 856.88,-354 856.88,-373.25"/>
<text xml:space="preserve" text-anchor="middle" x="832" y="-359.75" font-family="Helvetica,sans-Serif" font-size="10.00">optional</text>
</a>
</g>
</g>
<!-- Node39&#45;&gt;Node40 -->
<g id="edge56_Node000039_Node000040" class="edge">
<title>Node39&#45;&gt;Node40</title>
<g id="a_edge56_Node000039_Node000040"><a xlink:title=" ">
<path fill="none" stroke="#63b8ff" d="M823.65,-409.08C824.89,-402.49 826.63,-393.21 828.21,-384.82"/>
<polygon fill="#63b8ff" stroke="#63b8ff" points="831.63,-385.57 830.03,-375.1 824.75,-384.28 831.63,-385.57"/>
</a>
</g>
</g>
</g>
</svg>

<g id="navigator" transform="translate(0 0)" fill="#404254">
  <rect fill="#f2f5e9" fill-opacity="0.5" stroke="#606060" stroke-width=".5" x="0" y="0" width="60" height="60"/>
  <use id="zoomplus" xlink:href="#zoomPlus" x="17" y="9" onmousedown="handleZoom(evt,'in')"/>
  <use id="zoomminus" xlink:href="#zoomMin" x="42" y="9" onmousedown="handleZoom(evt,'out')"/>
  <use id="reset" xlink:href="#resetDef" x="30" y="36" onmousedown="handleReset()"/>
   <use id="arrowup" xlink:href="#arrowUp" x="0" y="0" onmousedown="handlePan(0,-1)"/>
  <use id="arrowright" xlink:href="#arrowRight" x="0" y="0" onmousedown="handlePan(1,0)"/>
  <use id="arrowdown" xlink:href="#arrowDown" x="0" y="0" onmousedown="handlePan(0,1)"/>
  <use id="arrowleft" xlink:href="#arrowLeft" x="0" y="0" onmousedown="handlePan(-1,0)"/>
</g>
<svg viewBox="0 0 15 15" width="100%" height="30px" preserveAspectRatio="xMaxYMin meet">
 <g id="arrow_out" transform="scale(0.3 0.3)">
  <a xlink:href="IEventPublisher_8hpp__incl_org.svg" target="_base">
   <rect id="button" ry="5" rx="5" y="6" x="6" height="38" width="38"
        fill="#f2f5e9" fill-opacity="0.5" stroke="#606060" stroke-width="1.0"/>
   <path id="arrow"
     d="M 11.500037,31.436501 C 11.940474,20.09759 22.043105,11.32322 32.158766,21.979434 L 37.068811,17.246167 C 37.068811,17.246167 37.088388,32 37.088388,32 L 22.160133,31.978069 C 22.160133,31.978069 26.997745,27.140456 26.997745,27.140456 C 18.528582,18.264221 13.291696,25.230495 11.500037,31.436501 z"
     style="fill:#404040;"/>
  </a>
 </g>
</svg>

<style type='text/css'>
<![CDATA[
[data-mouse-over-selected='false'] { opacity: 0.7; }
[data-mouse-over-selected='true']  { opacity: 1.0; }
]]>
</style>
<script type="application/ecmascript"><![CDATA[
document.addEventListener('DOMContentLoaded', (event) => {
  highlightEdges();
  highlightAdjacentNodes();
});
]]></script>
</svg>
