<?xml version="1.0" encoding="UTF-8" standalone="no"?>
<!DOCTYPE svg PUBLIC "-//W3C//DTD SVG 1.1//EN"
 "http://www.w3.org/Graphics/SVG/1.1/DTD/svg11.dtd">
<!-- Generated by graphviz version 14.0.5 (20251129.0259)
 -->
<!-- Title: Graphical Class Hierarchy Pages: 1 -->
<svg width="213pt" height="137pt"
 viewBox="0.00 0.00 213.00 137.00" xmlns="http://www.w3.org/2000/svg" xmlns:xlink="http://www.w3.org/1999/xlink">
<g id="graph0" class="graph" transform="scale(1 1) rotate(0) translate(4 132.5)">
<title>Graphical Class Hierarchy</title>
<!-- Node0 -->
<g id="Node000000" class="node">
<title>Node0</title>
<g id="a_Node000000"><a xlink:title=" ">
<polygon fill="#e0e0e0" stroke="#999999" points="74.5,-73.88 0,-73.88 0,-54.62 74.5,-54.62 74.5,-73.88"/>
<text xml:space="preserve" text-anchor="middle" x="37.25" y="-60.38" font-family="Helvetica,sans-Serif" font-size="10.00">std::formatter</text>
</a>
</g>
</g>
<!-- Node1 -->
<g id="Node000001" class="node">
<title>Node1</title>
<g id="a_Node000001"><a xlink:href="structstd_1_1formatter_3_01rtp_1_1Error_01_4.html" target="_top" xlink:title="Formatter specialization for Error objects.">
<polygon fill="white" stroke="#666666" points="205.25,-128.5 110.5,-128.5 110.5,-98 205.25,-98 205.25,-128.5"/>
<text xml:space="preserve" text-anchor="start" x="118.5" y="-115" font-family="Helvetica,sans-Serif" font-size="10.00">std::formatter&lt; rtp</text>
<text xml:space="preserve" text-anchor="middle" x="157.88" y="-103.75" font-family="Helvetica,sans-Serif" font-size="10.00">::Error &gt;</text>
</a>
</g>
</g>
<!-- Node0&#45;&gt;Node1 -->
<g id="edge58_Node000000_Node000001" class="edge">
<title>Node0&#45;&gt;Node1</title>
<g id="a_edge58_Node000000_Node000001"><a xlink:title=" ">
<path fill="none" stroke="#63b8ff" d="M73.06,-78.63C87.51,-84.6 104.31,-91.54 119.07,-97.63"/>
<polygon fill="#63b8ff" stroke="#63b8ff" points="74.52,-75.44 63.94,-74.86 71.85,-81.91 74.52,-75.44"/>
</a>
</g>
</g>
<!-- Node2 -->
<g id="Node000002" class="node">
<title>Node2</title>
<g id="a_Node000002"><a xlink:href="structstd_1_1formatter_3_01rtp_1_1ErrorCode_01_4.html" target="_top" xlink:title=" ">
<polygon fill="white" stroke="#666666" points="205.25,-79.5 110.5,-79.5 110.5,-49 205.25,-49 205.25,-79.5"/>
<text xml:space="preserve" text-anchor="start" x="118.5" y="-66" font-family="Helvetica,sans-Serif" font-size="10.00">std::formatter&lt; rtp</text>
<text xml:space="preserve" text-anchor="middle" x="157.88" y="-54.75" font-family="Helvetica,sans-Serif" font-size="10.00">::ErrorCode &gt;</text>
</a>
</g>
</g>
<!-- Node0&#45;&gt;Node2 -->
<g id="edge59_Node000000_Node000002" class="edge">
<title>Node0&#45;&gt;Node2</title>
<g id="a_edge59_Node000000_Node000002"><a xlink:title=" ">
<path fill="none" stroke="#63b8ff" d="M86.14,-64.25C94.06,-64.25 102.26,-64.25 110.15,-64.25"/>
<polygon fill="#63b8ff" stroke="#63b8ff" points="86.32,-60.75 76.32,-64.25 86.32,-67.75 86.32,-60.75"/>
</a>
</g>
</g>
<!-- Node3 -->
<g id="Node000003" class="node">
<title>Node3</title>
<g id="a_Node000003"><a xlink:href="structstd_1_1formatter_3_01rtp_1_1log_1_1Level_01_4.html" target="_top" xlink:title=" ">
<polygon fill="white" stroke="#666666" points="205.25,-30.5 110.5,-30.5 110.5,0 205.25,0 205.25,-30.5"/>
<text xml:space="preserve" text-anchor="start" x="118.5" y="-17" font-family="Helvetica,sans-Serif" font-size="10.00">std::formatter&lt; rtp</text>
<text xml:space="preserve" text-anchor="middle" x="157.88" y="-5.75" font-family="Helvetica,sans-Serif" font-size="10.00">::log::Level &gt;</text>
</a>
</g>
</g>
<!-- Node0&#45;&gt;Node3 -->
<g id="edge60_Node000000_Node000003" class="edge">
<title>Node0&#45;&gt;Node3</title>
<g id="a_edge60_Node000000_Node000003"><a xlink:title=" ">
<path fill="none" stroke="#63b8ff" d="M73.06,-49.87C87.51,-43.9 104.31,-36.96 119.07,-30.87"/>
<polygon fill="#63b8ff" stroke="#63b8ff" points="71.85,-46.59 63.94,-53.64 74.52,-53.06 71.85,-46.59"/>
</a>
</g>
</g>
</g>
</svg>
