<?xml version="1.0" encoding="UTF-8" standalone="no"?>
<!DOCTYPE svg PUBLIC "-//W3C//DTD SVG 1.1//EN"
 "http://www.w3.org/Graphics/SVG/1.1/DTD/svg11.dtd">
<!-- Generated by graphviz version 14.0.5 (20251129.0259)
 -->
<!-- Title: Graphical Class Hierarchy Pages: 1 -->
<svg width="292pt" height="950pt"
 viewBox="0.00 0.00 292.00 950.00" xmlns="http://www.w3.org/2000/svg" xmlns:xlink="http://www.w3.org/1999/xlink">
<g id="graph0" class="graph" transform="scale(1 1) rotate(0) translate(4 946.25)">
<title>Graphical Class Hierarchy</title>
<!-- Node0 -->
<g id="Node000000" class="node">
<title>Node0</title>
<g id="a_Node000000"><a xlink:href="classrtp_1_1ecs_1_1ISystem.html" target="_top" xlink:title="Abstract base class for all ECS systems.">
<polygon fill="white" stroke="#666666" points="91.75,-489.25 0,-489.25 0,-470 91.75,-470 91.75,-489.25"/>
<text xml:space="preserve" text-anchor="middle" x="45.88" y="-475.75" font-family="Helvetica,sans-Serif" font-size="10.00">rtp::ecs::ISystem</text>
</a>
</g>
</g>
<!-- Node1 -->
<g id="Node000001" class="node">
<title>Node1</title>
<g id="a_Node000001"><a xlink:href="classrtp_1_1client_1_1AnimationSystem.html" target="_top" xlink:title=" ">
<polygon fill="white" stroke="#666666" points="275.75,-942.25 136,-942.25 136,-923 275.75,-923 275.75,-942.25"/>
<text xml:space="preserve" text-anchor="middle" x="205.88" y="-928.75" font-family="Helvetica,sans-Serif" font-size="10.00">rtp::client::AnimationSystem</text>
</a>
</g>
</g>
<!-- Node0&#45;&gt;Node1 -->
<g id="edge29_Node000000_Node000001" class="edge">
<title>Node0&#45;&gt;Node1</title>
<g id="a_edge29_Node000000_Node000001"><a xlink:title=" ">
<path fill="none" stroke="#63b8ff" d="M47.82,-500.64C51.8,-579.16 69.69,-853.86 127.75,-914.62 130.79,-917.81 134.27,-920.47 138.05,-922.7"/>
<polygon fill="#63b8ff" stroke="#63b8ff" points="51.33,-500.76 47.36,-490.94 44.34,-501.09 51.33,-500.76"/>
</a>
</g>
</g>
<!-- Node2 -->
<g id="Node000002" class="node">
<title>Node2</title>
<g id="a_Node000002"><a xlink:href="classrtp_1_1client_1_1AudioSystem.html" target="_top" xlink:title="System responsible for handling audio playback (music, SFX, ambient).">
<polygon fill="white" stroke="#666666" points="266.38,-905.25 145.38,-905.25 145.38,-886 266.38,-886 266.38,-905.25"/>
<text xml:space="preserve" text-anchor="middle" x="205.88" y="-891.75" font-family="Helvetica,sans-Serif" font-size="10.00">rtp::client::AudioSystem</text>
</a>
</g>
</g>
<!-- Node0&#45;&gt;Node2 -->
<g id="edge30_Node000000_Node000002" class="edge">
<title>Node0&#45;&gt;Node2</title>
<g id="a_edge30_Node000000_Node000002"><a xlink:title=" ">
<path fill="none" stroke="#63b8ff" d="M48.23,-500.75C53.41,-575.05 74.45,-822.77 127.75,-877.62 132.64,-882.65 138.64,-886.39 145.11,-889.16"/>
<polygon fill="#63b8ff" stroke="#63b8ff" points="51.75,-500.92 47.58,-491.18 44.76,-501.39 51.75,-500.92"/>
</a>
</g>
</g>
<!-- Node3 -->
<g id="Node000003" class="node">
<title>Node3</title>
<g id="a_Node000003"><a xlink:href="classrtp_1_1client_1_1InputSystem.html" target="_top" xlink:title=" ">
<polygon fill="white" stroke="#666666" points="264.88,-868.25 146.88,-868.25 146.88,-849 264.88,-849 264.88,-868.25"/>
<text xml:space="preserve" text-anchor="middle" x="205.88" y="-854.75" font-family="Helvetica,sans-Serif" font-size="10.00">rtp::client::InputSystem</text>
</a>
</g>
</g>
<!-- Node0&#45;&gt;Node3 -->
<g id="edge31_Node000000_Node000003" class="edge">
<title>Node0&#45;&gt;Node3</title>
<g id="a_edge31_Node000000_Node000003"><a xlink:title=" ">
<path fill="none" stroke="#63b8ff" d="M48.76,-500.93C55.35,-570.68 79.64,-790.52 127.75,-839.62 133.06,-845.04 139.64,-849.01 146.72,-851.9"/>
<polygon fill="#63b8ff" stroke="#63b8ff" points="52.27,-500.88 47.87,-491.24 45.3,-501.52 52.27,-500.88"/>
</a>
</g>
</g>
<!-- Node4 -->
<g id="Node000004" class="node">
<title>Node4</title>
<g id="a_Node000004"><a xlink:href="classrtp_1_1client_1_1NetworkSyncSystem.html" target="_top" xlink:title="System to handle network&#45;related operations on the client side.">
<polygon fill="white" stroke="#666666" points="266.75,-830.88 145,-830.88 145,-800.38 266.75,-800.38 266.75,-830.88"/>
<text xml:space="preserve" text-anchor="start" x="153" y="-817.38" font-family="Helvetica,sans-Serif" font-size="10.00">rtp::client::NetworkSync</text>
<text xml:space="preserve" text-anchor="middle" x="205.88" y="-806.12" font-family="Helvetica,sans-Serif" font-size="10.00">System</text>
</a>
</g>
</g>
<!-- Node0&#45;&gt;Node4 -->
<g id="edge32_Node000000_Node000004" class="edge">
<title>Node0&#45;&gt;Node4</title>
<g id="a_edge32_Node000000_Node000004"><a xlink:title=" ">
<path fill="none" stroke="#63b8ff" d="M49.66,-500.81C58.37,-563.89 86.94,-748.8 127.75,-791.62 132.59,-796.7 138.48,-800.71 144.82,-803.87"/>
<polygon fill="#63b8ff" stroke="#63b8ff" points="53.16,-500.53 48.35,-491.09 46.22,-501.47 53.16,-500.53"/>
</a>
</g>
</g>
<!-- Node5 -->
<g id="Node000005" class="node">
<title>Node5</title>
<g id="a_Node000005"><a xlink:href="classrtp_1_1client_1_1ParallaxSystem.html" target="_top" xlink:title=" ">
<polygon fill="white" stroke="#666666" points="271.62,-782.25 140.12,-782.25 140.12,-763 271.62,-763 271.62,-782.25"/>
<text xml:space="preserve" text-anchor="middle" x="205.88" y="-768.75" font-family="Helvetica,sans-Serif" font-size="10.00">rtp::client::ParallaxSystem</text>
</a>
</g>
</g>
<!-- Node0&#45;&gt;Node5 -->
<g id="edge33_Node000000_Node000005" class="edge">
<title>Node0&#45;&gt;Node5</title>
<g id="a_edge33_Node000000_Node000005"><a xlink:title=" ">
<path fill="none" stroke="#63b8ff" d="M46.4,-500.98C46.47,-552.62 54.22,-685.15 127.75,-754.62 131.35,-758.02 135.46,-760.82 139.87,-763.12"/>
<polygon fill="#63b8ff" stroke="#63b8ff" points="49.89,-501.22 46.49,-491.19 42.89,-501.15 49.89,-501.22"/>
</a>
</g>
</g>
<!-- Node6 -->
<g id="Node000006" class="node">
<title>Node6</title>
<g id="a_Node000006"><a xlink:href="classrtp_1_1client_1_1RenderSystem.html" target="_top" xlink:title=" ">
<polygon fill="white" stroke="#666666" points="269.75,-745.25 142,-745.25 142,-726 269.75,-726 269.75,-745.25"/>
<text xml:space="preserve" text-anchor="middle" x="205.88" y="-731.75" font-family="Helvetica,sans-Serif" font-size="10.00">rtp::client::RenderSystem</text>
</a>
</g>
</g>
<!-- Node0&#45;&gt;Node6 -->
<g id="edge34_Node000000_Node000006" class="edge">
<title>Node0&#45;&gt;Node6</title>
<g id="a_edge34_Node000000_Node000006"><a xlink:title=" ">
<path fill="none" stroke="#63b8ff" d="M47.54,-500.91C50.19,-547.54 63.31,-659.23 127.75,-717.62 131.83,-721.32 136.51,-724.3 141.51,-726.69"/>
<polygon fill="#63b8ff" stroke="#63b8ff" points="51.04,-500.92 47.1,-491.09 44.05,-501.24 51.04,-500.92"/>
</a>
</g>
</g>
<!-- Node7 -->
<g id="Node000007" class="node">
<title>Node7</title>
<g id="a_Node000007"><a xlink:href="classrtp_1_1client_1_1ScoreSystem.html" target="_top" xlink:title=" ">
<polygon fill="white" stroke="#666666" points="266.75,-708.25 145,-708.25 145,-689 266.75,-689 266.75,-708.25"/>
<text xml:space="preserve" text-anchor="middle" x="205.88" y="-694.75" font-family="Helvetica,sans-Serif" font-size="10.00">rtp::client::ScoreSystem</text>
</a>
</g>
</g>
<!-- Node0&#45;&gt;Node7 -->
<g id="edge35_Node000000_Node000007" class="edge">
<title>Node0&#45;&gt;Node7</title>
<g id="a_edge35_Node000000_Node000007"><a xlink:title=" ">
<path fill="none" stroke="#63b8ff" d="M49.03,-500.66C54.39,-541.79 72.23,-633.02 127.75,-680.62 132.76,-684.92 138.6,-688.24 144.79,-690.79"/>
<polygon fill="#63b8ff" stroke="#63b8ff" points="52.52,-500.42 47.89,-490.89 45.57,-501.23 52.52,-500.42"/>
</a>
</g>
</g>
<!-- Node8 -->
<g id="Node000008" class="node">
<title>Node8</title>
<g id="a_Node000008"><a xlink:href="classrtp_1_1client_1_1ShieldSystem.html" target="_top" xlink:title="System responsible for managing shield visual effects.">
<polygon fill="white" stroke="#666666" points="267.5,-671.25 144.25,-671.25 144.25,-652 267.5,-652 267.5,-671.25"/>
<text xml:space="preserve" text-anchor="middle" x="205.88" y="-657.75" font-family="Helvetica,sans-Serif" font-size="10.00">rtp::client::ShieldSystem</text>
</a>
</g>
</g>
<!-- Node0&#45;&gt;Node8 -->
<g id="edge36_Node000000_Node000008" class="edge">
<title>Node0&#45;&gt;Node8</title>
<g id="a_edge36_Node000000_Node000008"><a xlink:title=" ">
<path fill="none" stroke="#63b8ff" d="M51.09,-500.42C59.33,-535.58 81.04,-606.55 127.75,-643.62 132.6,-647.47 138.12,-650.52 143.94,-652.94"/>
<polygon fill="#63b8ff" stroke="#63b8ff" points="54.6,-500.09 49.04,-491.07 47.76,-501.59 54.6,-500.09"/>
</a>
</g>
</g>
<!-- Node9 -->
<g id="Node000009" class="node">
<title>Node9</title>
<g id="a_Node000009"><a xlink:href="classrtp_1_1client_1_1UISystem.html" target="_top" xlink:title="System responsible for handling menu interactions.">
<polygon fill="white" stroke="#666666" points="259.25,-634.25 152.5,-634.25 152.5,-615 259.25,-615 259.25,-634.25"/>
<text xml:space="preserve" text-anchor="middle" x="205.88" y="-620.75" font-family="Helvetica,sans-Serif" font-size="10.00">rtp::client::UISystem</text>
</a>
</g>
</g>
<!-- Node0&#45;&gt;Node9 -->
<g id="edge37_Node000000_Node000009" class="edge">
<title>Node0&#45;&gt;Node9</title>
<g id="a_edge37_Node000000_Node000009"><a xlink:title=" ">
<path fill="none" stroke="#63b8ff" d="M54.41,-500.27C65.82,-528.52 90.2,-578.77 127.75,-605.62 135.04,-610.84 143.6,-614.63 152.32,-617.39"/>
<polygon fill="#63b8ff" stroke="#63b8ff" points="57.73,-499.13 50.86,-491.06 51.19,-501.65 57.73,-499.13"/>
</a>
</g>
</g>
<!-- Node10 -->
<g id="Node000010" class="node">
<title>Node10</title>
<g id="a_Node000010"><a xlink:href="classrtp_1_1client_1_1systems_1_1UIRenderSystem.html" target="_top" xlink:title=" ">
<polygon fill="white" stroke="#666666" points="255.88,-596.88 155.88,-596.88 155.88,-566.38 255.88,-566.38 255.88,-596.88"/>
<text xml:space="preserve" text-anchor="start" x="163.88" y="-583.38" font-family="Helvetica,sans-Serif" font-size="10.00">rtp::client::systems</text>
<text xml:space="preserve" text-anchor="middle" x="205.88" y="-572.12" font-family="Helvetica,sans-Serif" font-size="10.00">::UIRenderSystem</text>
</a>
</g>
</g>
<!-- Node0&#45;&gt;Node10 -->
<g id="edge38_Node000000_Node000010" class="edge">
<title>Node0&#45;&gt;Node10</title>
<g id="a_edge38_Node000000_Node000010"><a xlink:title=" ">
<path fill="none" stroke="#63b8ff" d="M61.76,-498.34C76.71,-515.96 101.26,-541.95 127.75,-557.62 136.32,-562.7 146.07,-566.8 155.68,-570.09"/>
<polygon fill="#63b8ff" stroke="#63b8ff" points="64.52,-496.18 55.46,-490.69 59.11,-500.63 64.52,-496.18"/>
</a>
</g>
</g>
<!-- Node11 -->
<g id="Node000011" class="node">
<title>Node11</title>
<g id="a_Node000011"><a xlink:href="classrtp_1_1server_1_1AuthSystem.html" target="_top" xlink:title="System to handle player login operations on the server side.">
<polygon fill="white" stroke="#666666" points="266,-548.25 145.75,-548.25 145.75,-529 266,-529 266,-548.25"/>
<text xml:space="preserve" text-anchor="middle" x="205.88" y="-534.75" font-family="Helvetica,sans-Serif" font-size="10.00">rtp::server::AuthSystem</text>
</a>
</g>
</g>
<!-- Node0&#45;&gt;Node11 -->
<g id="edge39_Node000000_Node000011" class="edge">
<title>Node0&#45;&gt;Node11</title>
<g id="a_edge39_Node000000_Node000011"><a xlink:title=" ">
<path fill="none" stroke="#63b8ff" d="M73.57,-495.2C88.99,-503.68 109,-513.8 127.75,-520.62 136.02,-523.64 144.97,-526.27 153.75,-528.52"/>
<polygon fill="#63b8ff" stroke="#63b8ff" points="75.45,-492.24 65.01,-490.4 72.02,-498.35 75.45,-492.24"/>
</a>
</g>
</g>
<!-- Node12 -->
<g id="Node000012" class="node">
<title>Node12</title>
<g id="a_Node000012"><a xlink:href="classrtp_1_1server_1_1BoomerangSystem.html" target="_top" xlink:title=" ">
<polygon fill="white" stroke="#666666" points="280.62,-511.25 131.12,-511.25 131.12,-492 280.62,-492 280.62,-511.25"/>
<text xml:space="preserve" text-anchor="middle" x="205.88" y="-497.75" font-family="Helvetica,sans-Serif" font-size="10.00">rtp::server::BoomerangSystem</text>
</a>
</g>
</g>
<!-- Node0&#45;&gt;Node12 -->
<g id="edge40_Node000000_Node000012" class="edge">
<title>Node0&#45;&gt;Node12</title>
<g id="a_edge40_Node000000_Node000012"><a xlink:title=" ">
<path fill="none" stroke="#63b8ff" d="M103.38,-487.49C112.8,-488.8 122.69,-490.18 132.45,-491.54"/>
<polygon fill="#63b8ff" stroke="#63b8ff" points="104.04,-484.05 93.65,-486.14 103.07,-490.98 104.04,-484.05"/>
</a>
</g>
</g>
<!-- Node13 -->
<g id="Node000013" class="node">
<title>Node13</title>
<g id="a_Node000013"><a xlink:href="classrtp_1_1server_1_1BulletCleanupSystem.html" target="_top" xlink:title="Despawns bullets that leave the play area.">
<polygon fill="white" stroke="#666666" points="269.38,-473.88 142.38,-473.88 142.38,-443.38 269.38,-443.38 269.38,-473.88"/>
<text xml:space="preserve" text-anchor="start" x="150.38" y="-460.38" font-family="Helvetica,sans-Serif" font-size="10.00">rtp::server::BulletCleanup</text>
<text xml:space="preserve" text-anchor="middle" x="205.88" y="-449.12" font-family="Helvetica,sans-Serif" font-size="10.00">System</text>
</a>
</g>
</g>
<!-- Node0&#45;&gt;Node13 -->
<g id="edge41_Node000000_Node000013" class="edge">
<title>Node0&#45;&gt;Node13</title>
<g id="a_edge41_Node000000_Node000013"><a xlink:title=" ">
<path fill="none" stroke="#63b8ff" d="M103.36,-472.12C115.87,-470.46 129.19,-468.68 141.93,-466.99"/>
<polygon fill="#63b8ff" stroke="#63b8ff" points="103.1,-468.62 93.65,-473.41 104.03,-475.56 103.1,-468.62"/>
</a>
</g>
</g>
<!-- Node14 -->
<g id="Node000014" class="node">
<title>Node14</title>
<g id="a_Node000014"><a xlink:href="classrtp_1_1server_1_1CollisionSystem.html" target="_top" xlink:title=" ">
<polygon fill="white" stroke="#666666" points="274.62,-425.25 137.12,-425.25 137.12,-406 274.62,-406 274.62,-425.25"/>
<text xml:space="preserve" text-anchor="middle" x="205.88" y="-411.75" font-family="Helvetica,sans-Serif" font-size="10.00">rtp::server::CollisionSystem</text>
</a>
</g>
</g>
<!-- Node0&#45;&gt;Node14 -->
<g id="edge42_Node000000_Node000014" class="edge">
<title>Node0&#45;&gt;Node14</title>
<g id="a_edge42_Node000000_Node000014"><a xlink:title=" ">
<path fill="none" stroke="#63b8ff" d="M71.5,-463.66C87.1,-454.12 108,-442.39 127.75,-434.62 136.61,-431.14 146.29,-428.16 155.71,-425.65"/>
<polygon fill="#63b8ff" stroke="#63b8ff" points="69.99,-460.48 63.36,-468.74 73.69,-466.41 69.99,-460.48"/>
</a>
</g>
</g>
<!-- Node15 -->
<g id="Node000015" class="node">
<title>Node15</title>
<g id="a_Node000015"><a xlink:href="classrtp_1_1server_1_1EnemyAISystem.html" target="_top" xlink:title="System to handle enemy AI behavior.">
<polygon fill="white" stroke="#666666" points="276.12,-388.25 135.62,-388.25 135.62,-369 276.12,-369 276.12,-388.25"/>
<text xml:space="preserve" text-anchor="middle" x="205.88" y="-374.75" font-family="Helvetica,sans-Serif" font-size="10.00">rtp::server::EnemyAISystem</text>
</a>
</g>
</g>
<!-- Node0&#45;&gt;Node15 -->
<g id="edge43_Node000000_Node000015" class="edge">
<title>Node0&#45;&gt;Node15</title>
<g id="a_edge43_Node000000_Node000015"><a xlink:title=" ">
<path fill="none" stroke="#63b8ff" d="M60.35,-460.42C74.81,-441.29 99.53,-412.55 127.75,-396.62 133.38,-393.45 139.54,-390.83 145.85,-388.68"/>
<polygon fill="#63b8ff" stroke="#63b8ff" points="57.56,-458.3 54.48,-468.44 63.21,-462.44 57.56,-458.3"/>
</a>
</g>
</g>
<!-- Node16 -->
<g id="Node000016" class="node">
<title>Node16</title>
<g id="a_Node000016"><a xlink:href="classrtp_1_1server_1_1EnemyShootSystem.html" target="_top" xlink:title="Spawns bullets for enemies on the server.">
<polygon fill="white" stroke="#666666" points="284,-351.25 127.75,-351.25 127.75,-332 284,-332 284,-351.25"/>
<text xml:space="preserve" text-anchor="middle" x="205.88" y="-337.75" font-family="Helvetica,sans-Serif" font-size="10.00">rtp::server::EnemyShootSystem</text>
</a>
</g>
</g>
<!-- Node0&#45;&gt;Node16 -->
<g id="edge44_Node000000_Node000016" class="edge">
<title>Node0&#45;&gt;Node16</title>
<g id="a_edge44_Node000000_Node000016"><a xlink:title=" ">
<path fill="none" stroke="#63b8ff" d="M54.97,-459.13C66.78,-432.01 91.35,-384.71 127.75,-359.62 132.39,-356.43 137.52,-353.79 142.87,-351.62"/>
<polygon fill="#63b8ff" stroke="#63b8ff" points="51.77,-457.73 51.16,-468.31 58.23,-460.42 51.77,-457.73"/>
</a>
</g>
</g>
<!-- Node17 -->
<g id="Node000017" class="node">
<title>Node17</title>
<g id="a_Node000017"><a xlink:href="classrtp_1_1server_1_1EntitySystem.html" target="_top" xlink:title="Base class for systems that operate on entities in the ECS.">
<polygon fill="white" stroke="#666666" points="268.62,-314.25 143.12,-314.25 143.12,-295 268.62,-295 268.62,-314.25"/>
<text xml:space="preserve" text-anchor="middle" x="205.88" y="-300.75" font-family="Helvetica,sans-Serif" font-size="10.00">rtp::server::EntitySystem</text>
</a>
</g>
</g>
<!-- Node0&#45;&gt;Node17 -->
<g id="edge45_Node000000_Node000017" class="edge">
<title>Node0&#45;&gt;Node17</title>
<g id="a_edge45_Node000000_Node000017"><a xlink:title=" ">
<path fill="none" stroke="#63b8ff" d="M51.6,-458.77C60.43,-424.78 82.74,-357.72 127.75,-322.62 132.3,-319.07 137.44,-316.2 142.84,-313.89"/>
<polygon fill="#63b8ff" stroke="#63b8ff" points="48.27,-457.66 49.3,-468.21 55.07,-459.32 48.27,-457.66"/>
</a>
</g>
</g>
<!-- Node18 -->
<g id="Node000018" class="node">
<title>Node18</title>
<g id="a_Node000018"><a xlink:href="classrtp_1_1server_1_1HomingSystem.html" target="_top" xlink:title=" ">
<polygon fill="white" stroke="#666666" points="272.75,-277.25 139,-277.25 139,-258 272.75,-258 272.75,-277.25"/>
<text xml:space="preserve" text-anchor="middle" x="205.88" y="-263.75" font-family="Helvetica,sans-Serif" font-size="10.00">rtp::server::HomingSystem</text>
</a>
</g>
</g>
<!-- Node0&#45;&gt;Node18 -->
<g id="edge46_Node000000_Node000018" class="edge">
<title>Node0&#45;&gt;Node18</title>
<g id="a_edge46_Node000000_Node000018"><a xlink:title=" ">
<path fill="none" stroke="#63b8ff" d="M49.38,-458.49C55.31,-418.38 73.97,-331.16 127.75,-285.62 131.53,-282.43 135.77,-279.77 140.27,-277.57"/>
<polygon fill="#63b8ff" stroke="#63b8ff" points="45.94,-457.87 48.08,-468.25 52.87,-458.8 45.94,-457.87"/>
</a>
</g>
</g>
<!-- Node19 -->
<g id="Node000019" class="node">
<title>Node19</title>
<g id="a_Node000019"><a xlink:href="classrtp_1_1server_1_1MovementSystem.html" target="_top" xlink:title="System to handle entity movement based on input components.">
<polygon fill="white" stroke="#666666" points="278.75,-240.25 133,-240.25 133,-221 278.75,-221 278.75,-240.25"/>
<text xml:space="preserve" text-anchor="middle" x="205.88" y="-226.75" font-family="Helvetica,sans-Serif" font-size="10.00">rtp::server::MovementSystem</text>
</a>
</g>
</g>
<!-- Node0&#45;&gt;Node19 -->
<g id="edge47_Node000000_Node000019" class="edge">
<title>Node0&#45;&gt;Node19</title>
<g id="a_edge47_Node000000_Node000019"><a xlink:title=" ">
<path fill="none" stroke="#63b8ff" d="M47.77,-458.66C50.89,-413.19 64.88,-305.07 127.75,-248.62 131.23,-245.5 135.14,-242.89 139.32,-240.71"/>
<polygon fill="#63b8ff" stroke="#63b8ff" points="44.28,-458.27 47.22,-468.45 51.27,-458.66 44.28,-458.27"/>
</a>
</g>
</g>
<!-- Node20 -->
<g id="Node000020" class="node">
<title>Node20</title>
<g id="a_Node000020"><a xlink:href="classrtp_1_1server_1_1NetworkSyncSystem.html" target="_top" xlink:title="System to handle network&#45;related operations on the server side.">
<polygon fill="white" stroke="#666666" points="268.62,-202.88 143.12,-202.88 143.12,-172.38 268.62,-172.38 268.62,-202.88"/>
<text xml:space="preserve" text-anchor="start" x="151.12" y="-189.38" font-family="Helvetica,sans-Serif" font-size="10.00">rtp::server::NetworkSync</text>
<text xml:space="preserve" text-anchor="middle" x="205.88" y="-178.12" font-family="Helvetica,sans-Serif" font-size="10.00">System</text>
</a>
</g>
</g>
<!-- Node0&#45;&gt;Node20 -->
<g id="edge48_Node000000_Node000020" class="edge">
<title>Node0&#45;&gt;Node20</title>
<g id="a_edge48_Node000000_Node000020"><a xlink:title=" ">
<path fill="none" stroke="#63b8ff" d="M46.92,-458.47C48.2,-408.38 58.5,-281.47 127.75,-211.62 132.09,-207.24 137.22,-203.66 142.74,-200.73"/>
<polygon fill="#63b8ff" stroke="#63b8ff" points="43.42,-458.16 46.78,-468.21 50.42,-458.26 43.42,-458.16"/>
</a>
</g>
</g>
<!-- Node21 -->
<g id="Node000021" class="node">
<title>Node21</title>
<g id="a_Node000021"><a xlink:href="classrtp_1_1server_1_1PlayerMouvementSystem.html" target="_top" xlink:title="System to handle player entity movement based on input components.">
<polygon fill="white" stroke="#666666" points="278.38,-153.88 133.38,-153.88 133.38,-123.38 278.38,-123.38 278.38,-153.88"/>
<text xml:space="preserve" text-anchor="start" x="141.38" y="-140.38" font-family="Helvetica,sans-Serif" font-size="10.00">rtp::server::PlayerMouvement</text>
<text xml:space="preserve" text-anchor="middle" x="205.88" y="-129.12" font-family="Helvetica,sans-Serif" font-size="10.00">System</text>
</a>
</g>
</g>
<!-- Node0&#45;&gt;Node21 -->
<g id="edge49_Node000000_Node000021" class="edge">
<title>Node0&#45;&gt;Node21</title>
<g id="a_edge49_Node000000_Node000021"><a xlink:title=" ">
<path fill="none" stroke="#63b8ff" d="M49.65,-458.2C58.31,-394.37 86.77,-207.27 127.75,-163.62 131.12,-160.03 135.01,-156.96 139.22,-154.32"/>
<polygon fill="#63b8ff" stroke="#63b8ff" points="46.19,-457.67 48.34,-468.04 53.13,-458.59 46.19,-457.67"/>
</a>
</g>
</g>
<!-- Node22 -->
<g id="Node000022" class="node">
<title>Node22</title>
<g id="a_Node000022"><a xlink:href="classrtp_1_1server_1_1PlayerShootSystem.html" target="_top" xlink:title="Spawns bullets from player input on the server.">
<polygon fill="white" stroke="#666666" points="265.62,-104.88 146.12,-104.88 146.12,-74.38 265.62,-74.38 265.62,-104.88"/>
<text xml:space="preserve" text-anchor="start" x="154.12" y="-91.38" font-family="Helvetica,sans-Serif" font-size="10.00">rtp::server::PlayerShoot</text>
<text xml:space="preserve" text-anchor="middle" x="205.88" y="-80.12" font-family="Helvetica,sans-Serif" font-size="10.00">System</text>
</a>
</g>
</g>
<!-- Node0&#45;&gt;Node22 -->
<g id="edge50_Node000000_Node000022" class="edge">
<title>Node0&#45;&gt;Node22</title>
<g id="a_edge50_Node000000_Node000022"><a xlink:title=" ">
<path fill="none" stroke="#63b8ff" d="M48.81,-458.62C55.65,-388.84 80.8,-166.29 127.75,-114.62 132.77,-109.1 139.01,-104.8 145.76,-101.44"/>
<polygon fill="#63b8ff" stroke="#63b8ff" points="45.36,-458 47.89,-468.29 52.32,-458.66 45.36,-458"/>
</a>
</g>
</g>
<!-- Node23 -->
<g id="Node000023" class="node">
<title>Node23</title>
<g id="a_Node000023"><a xlink:href="classrtp_1_1server_1_1PlayerSystem.html" target="_top" xlink:title="System to handle player&#45;related operations on the server side.">
<polygon fill="white" stroke="#666666" points="269.75,-56.25 142,-56.25 142,-37 269.75,-37 269.75,-56.25"/>
<text xml:space="preserve" text-anchor="middle" x="205.88" y="-42.75" font-family="Helvetica,sans-Serif" font-size="10.00">rtp::server::PlayerSystem</text>
</a>
</g>
</g>
<!-- Node0&#45;&gt;Node23 -->
<g id="edge51_Node000000_Node000023" class="edge">
<title>Node0&#45;&gt;Node23</title>
<g id="a_edge51_Node000000_Node000023"><a xlink:title=" ">
<path fill="none" stroke="#63b8ff" d="M48.09,-458.18C52.86,-381.62 72.84,-123.27 127.75,-65.62 131.74,-61.43 136.5,-58.1 141.67,-55.47"/>
<polygon fill="#63b8ff" stroke="#63b8ff" points="44.6,-457.87 47.5,-468.06 51.59,-458.28 44.6,-457.87"/>
</a>
</g>
</g>
<!-- Node24 -->
<g id="Node000024" class="node">
<title>Node24</title>
<g id="a_Node000024"><a xlink:href="classrtp_1_1server_1_1RoomSystem.html" target="_top" xlink:title="System to handle room&#45;related operations on the server side.">
<polygon fill="white" stroke="#666666" points="269,-19.25 142.75,-19.25 142.75,0 269,0 269,-19.25"/>
<text xml:space="preserve" text-anchor="middle" x="205.88" y="-5.75" font-family="Helvetica,sans-Serif" font-size="10.00">rtp::server::RoomSystem</text>
</a>
</g>
</g>
<!-- Node0&#45;&gt;Node24 -->
<g id="edge52_Node000000_Node000024" class="edge">
<title>Node0&#45;&gt;Node24</title>
<g id="a_edge52_Node000000_Node000024"><a xlink:title=" ">
<path fill="none" stroke="#63b8ff" d="M47.65,-458.82C51.08,-378.66 67.45,-91.16 127.75,-27.62 131.91,-23.24 136.93,-19.83 142.37,-17.18"/>
<polygon fill="#63b8ff" stroke="#63b8ff" points="44.18,-458.19 47.27,-468.32 51.17,-458.47 44.18,-458.19"/>
</a>
</g>
</g>
</g>
</svg>
