<?xml version="1.0" encoding="UTF-8" standalone="no"?>
<!DOCTYPE svg PUBLIC "-//W3C//DTD SVG 1.1//EN"
 "http://www.w3.org/Graphics/SVG/1.1/DTD/svg11.dtd">
<!-- Generated by graphviz version 14.0.5 (20251129.0259)
 -->
<!-- Title: Graphical Class Hierarchy Pages: 1 -->
<svg width="277pt" height="578pt"
 viewBox="0.00 0.00 277.00 578.00" xmlns="http://www.w3.org/2000/svg" xmlns:xlink="http://www.w3.org/1999/xlink">
<g id="graph0" class="graph" transform="scale(1 1) rotate(0) translate(4 573.5)">
<title>Graphical Class Hierarchy</title>
<!-- Node0 -->
<g id="Node000000" class="node">
<title>Node0</title>
<g id="a_Node000000"><a xlink:href="classrtp_1_1client_1_1interfaces_1_1IScene.html" target="_top" xlink:title="Interface for different scenes in the client application.">
<polygon fill="white" stroke="#666666" points="105.25,-299.5 0,-299.5 0,-269 105.25,-269 105.25,-299.5"/>
<text xml:space="preserve" text-anchor="start" x="8" y="-286" font-family="Helvetica,sans-Serif" font-size="10.00">rtp::client::interfaces</text>
<text xml:space="preserve" text-anchor="middle" x="52.62" y="-274.75" font-family="Helvetica,sans-Serif" font-size="10.00">::IScene</text>
</a>
</g>
</g>
<!-- Node1 -->
<g id="Node000001" class="node">
<title>Node1</title>
<g id="a_Node000001"><a xlink:href="classrtp_1_1client_1_1scenes_1_1CreateRoomScene.html" target="_top" xlink:title="Scene for creating a new game room.">
<polygon fill="white" stroke="#666666" points="257.75,-569.5 152.5,-569.5 152.5,-539 257.75,-539 257.75,-569.5"/>
<text xml:space="preserve" text-anchor="start" x="160.5" y="-556" font-family="Helvetica,sans-Serif" font-size="10.00">rtp::client::scenes</text>
<text xml:space="preserve" text-anchor="middle" x="205.12" y="-544.75" font-family="Helvetica,sans-Serif" font-size="10.00">::CreateRoomScene</text>
</a>
</g>
</g>
<!-- Node0&#45;&gt;Node1 -->
<g id="edge1_Node000000_Node000001" class="edge">
<title>Node0&#45;&gt;Node1</title>
<g id="a_edge1_Node000000_Node000001"><a xlink:title=" ">
<path fill="none" stroke="#63b8ff" d="M56.04,-311.03C61.89,-360.52 81.08,-466.94 141.25,-529.25 144.76,-532.88 148.86,-536 153.26,-538.68"/>
<polygon fill="#63b8ff" stroke="#63b8ff" points="59.54,-310.8 54.99,-301.24 52.58,-311.55 59.54,-310.8"/>
</a>
</g>
</g>
<!-- Node2 -->
<g id="Node000002" class="node">
<title>Node2</title>
<g id="a_Node000002"><a xlink:href="classrtp_1_1client_1_1scenes_1_1GameOverScene.html" target="_top" xlink:title=" ">
<polygon fill="white" stroke="#666666" points="253.62,-520.5 156.62,-520.5 156.62,-490 253.62,-490 253.62,-520.5"/>
<text xml:space="preserve" text-anchor="start" x="164.62" y="-507" font-family="Helvetica,sans-Serif" font-size="10.00">rtp::client::scenes</text>
<text xml:space="preserve" text-anchor="middle" x="205.12" y="-495.75" font-family="Helvetica,sans-Serif" font-size="10.00">::GameOverScene</text>
</a>
</g>
</g>
<!-- Node0&#45;&gt;Node2 -->
<g id="edge2_Node000000_Node000002" class="edge">
<title>Node0&#45;&gt;Node2</title>
<g id="a_edge2_Node000000_Node000002"><a xlink:title=" ">
<path fill="none" stroke="#63b8ff" d="M58.8,-310.88C68.18,-352.43 91.79,-432.82 141.25,-480.25 145.66,-484.48 150.87,-488.02 156.38,-490.98"/>
<polygon fill="#63b8ff" stroke="#63b8ff" points="62.25,-310.31 56.74,-301.26 55.41,-311.77 62.25,-310.31"/>
</a>
</g>
</g>
<!-- Node3 -->
<g id="Node000003" class="node">
<title>Node3</title>
<g id="a_Node000003"><a xlink:href="classrtp_1_1client_1_1scenes_1_1GamepadSettingsScene.html" target="_top" xlink:title="Scene for configuring gamepad settings.">
<polygon fill="white" stroke="#666666" points="269,-471.5 141.25,-471.5 141.25,-441 269,-441 269,-471.5"/>
<text xml:space="preserve" text-anchor="start" x="149.25" y="-458" font-family="Helvetica,sans-Serif" font-size="10.00">rtp::client::scenes</text>
<text xml:space="preserve" text-anchor="middle" x="205.12" y="-446.75" font-family="Helvetica,sans-Serif" font-size="10.00">::GamepadSettingsScene</text>
</a>
</g>
</g>
<!-- Node0&#45;&gt;Node3 -->
<g id="edge3_Node000000_Node000003" class="edge">
<title>Node0&#45;&gt;Node3</title>
<g id="a_edge3_Node000000_Node000003"><a xlink:title=" ">
<path fill="none" stroke="#63b8ff" d="M63.03,-310.27C75.98,-342.73 102.21,-397.98 141.25,-431.25 145.45,-434.83 150.23,-437.94 155.23,-440.63"/>
<polygon fill="#63b8ff" stroke="#63b8ff" points="66.41,-309.31 59.55,-301.23 59.87,-311.82 66.41,-309.31"/>
</a>
</g>
</g>
<!-- Node4 -->
<g id="Node000004" class="node">
<title>Node4</title>
<g id="a_Node000004"><a xlink:href="classrtp_1_1client_1_1scenes_1_1KeyBindingScene.html" target="_top" xlink:title=" ">
<polygon fill="white" stroke="#666666" points="254.75,-422.5 155.5,-422.5 155.5,-392 254.75,-392 254.75,-422.5"/>
<text xml:space="preserve" text-anchor="start" x="163.5" y="-409" font-family="Helvetica,sans-Serif" font-size="10.00">rtp::client::scenes</text>
<text xml:space="preserve" text-anchor="middle" x="205.12" y="-397.75" font-family="Helvetica,sans-Serif" font-size="10.00">::KeyBindingScene</text>
</a>
</g>
</g>
<!-- Node0&#45;&gt;Node4 -->
<g id="edge4_Node000000_Node000004" class="edge">
<title>Node0&#45;&gt;Node4</title>
<g id="a_edge4_Node000000_Node000004"><a xlink:title=" ">
<path fill="none" stroke="#63b8ff" d="M70.71,-309.15C86.75,-330.95 112.53,-362.19 141.25,-382.25 146.26,-385.75 151.82,-388.86 157.52,-391.59"/>
<polygon fill="#63b8ff" stroke="#63b8ff" points="73.61,-307.19 64.93,-301.11 67.92,-311.27 73.61,-307.19"/>
</a>
</g>
</g>
<!-- Node5 -->
<g id="Node000005" class="node">
<title>Node5</title>
<g id="a_Node000005"><a xlink:href="classrtp_1_1client_1_1scenes_1_1LobbyScene.html" target="_top" xlink:title="Scene for the game lobby.">
<polygon fill="white" stroke="#666666" points="252.12,-373.5 158.12,-373.5 158.12,-343 252.12,-343 252.12,-373.5"/>
<text xml:space="preserve" text-anchor="start" x="166.12" y="-360" font-family="Helvetica,sans-Serif" font-size="10.00">rtp::client::scenes</text>
<text xml:space="preserve" text-anchor="middle" x="205.12" y="-348.75" font-family="Helvetica,sans-Serif" font-size="10.00">::LobbyScene</text>
</a>
</g>
</g>
<!-- Node0&#45;&gt;Node5 -->
<g id="edge5_Node000000_Node000005" class="edge">
<title>Node0&#45;&gt;Node5</title>
<g id="a_edge5_Node000000_Node000005"><a xlink:title=" ">
<path fill="none" stroke="#63b8ff" d="M89.41,-305.66C105.07,-314.67 123.82,-324.96 141.25,-333.25 148.04,-336.48 155.36,-339.66 162.53,-342.61"/>
<polygon fill="#63b8ff" stroke="#63b8ff" points="91.32,-302.73 80.92,-300.73 87.8,-308.78 91.32,-302.73"/>
</a>
</g>
</g>
<!-- Node6 -->
<g id="Node000006" class="node">
<title>Node6</title>
<g id="a_Node000006"><a xlink:href="classrtp_1_1client_1_1scenes_1_1LoginScene.html" target="_top" xlink:title="Scene for user login.">
<polygon fill="white" stroke="#666666" points="252.12,-324.5 158.12,-324.5 158.12,-294 252.12,-294 252.12,-324.5"/>
<text xml:space="preserve" text-anchor="start" x="166.12" y="-311" font-family="Helvetica,sans-Serif" font-size="10.00">rtp::client::scenes</text>
<text xml:space="preserve" text-anchor="middle" x="205.12" y="-299.75" font-family="Helvetica,sans-Serif" font-size="10.00">::LoginScene</text>
</a>
</g>
</g>
<!-- Node0&#45;&gt;Node6 -->
<g id="edge6_Node000000_Node000006" class="edge">
<title>Node0&#45;&gt;Node6</title>
<g id="a_edge6_Node000000_Node000006"><a xlink:title=" ">
<path fill="none" stroke="#63b8ff" d="M116.38,-294.67C130.25,-296.98 144.7,-299.38 157.78,-301.55"/>
<polygon fill="#63b8ff" stroke="#63b8ff" points="117.35,-291.29 106.91,-293.1 116.2,-298.19 117.35,-291.29"/>
</a>
</g>
</g>
<!-- Node7 -->
<g id="Node000007" class="node">
<title>Node7</title>
<g id="a_Node000007"><a xlink:href="classrtp_1_1client_1_1scenes_1_1MenuScene.html" target="_top" xlink:title="Scene for the main menu.">
<polygon fill="white" stroke="#666666" points="252.12,-275.5 158.12,-275.5 158.12,-245 252.12,-245 252.12,-275.5"/>
<text xml:space="preserve" text-anchor="start" x="166.12" y="-262" font-family="Helvetica,sans-Serif" font-size="10.00">rtp::client::scenes</text>
<text xml:space="preserve" text-anchor="middle" x="205.12" y="-250.75" font-family="Helvetica,sans-Serif" font-size="10.00">::MenuScene</text>
</a>
</g>
</g>
<!-- Node0&#45;&gt;Node7 -->
<g id="edge7_Node000000_Node000007" class="edge">
<title>Node0&#45;&gt;Node7</title>
<g id="a_edge7_Node000000_Node000007"><a xlink:title=" ">
<path fill="none" stroke="#63b8ff" d="M116.38,-274.24C130.25,-272.03 144.7,-269.73 157.78,-267.64"/>
<polygon fill="#63b8ff" stroke="#63b8ff" points="116.24,-270.72 106.91,-275.75 117.34,-277.63 116.24,-270.72"/>
</a>
</g>
</g>
<!-- Node8 -->
<g id="Node000008" class="node">
<title>Node8</title>
<g id="a_Node000008"><a xlink:href="classrtp_1_1client_1_1scenes_1_1ModMenuScene.html" target="_top" xlink:title="Scene for customizing game sprites.">
<polygon fill="white" stroke="#666666" points="252.12,-226.5 158.12,-226.5 158.12,-196 252.12,-196 252.12,-226.5"/>
<text xml:space="preserve" text-anchor="start" x="166.12" y="-213" font-family="Helvetica,sans-Serif" font-size="10.00">rtp::client::scenes</text>
<text xml:space="preserve" text-anchor="middle" x="205.12" y="-201.75" font-family="Helvetica,sans-Serif" font-size="10.00">::ModMenuScene</text>
</a>
</g>
</g>
<!-- Node0&#45;&gt;Node8 -->
<g id="edge8_Node000000_Node000008" class="edge">
<title>Node0&#45;&gt;Node8</title>
<g id="a_edge8_Node000000_Node000008"><a xlink:title=" ">
<path fill="none" stroke="#63b8ff" d="M89.81,-263.13C105.41,-254.36 124,-244.37 141.25,-236.25 148.05,-233.05 155.38,-229.89 162.55,-226.94"/>
<polygon fill="#63b8ff" stroke="#63b8ff" points="88.31,-259.95 81.35,-267.93 91.77,-266.04 88.31,-259.95"/>
</a>
</g>
</g>
<!-- Node9 -->
<g id="Node000009" class="node">
<title>Node9</title>
<g id="a_Node000009"><a xlink:href="classrtp_1_1client_1_1scenes_1_1PauseScene.html" target="_top" xlink:title="Scene for the pause menu.">
<polygon fill="white" stroke="#666666" points="252.12,-177.5 158.12,-177.5 158.12,-147 252.12,-147 252.12,-177.5"/>
<text xml:space="preserve" text-anchor="start" x="166.12" y="-164" font-family="Helvetica,sans-Serif" font-size="10.00">rtp::client::scenes</text>
<text xml:space="preserve" text-anchor="middle" x="205.12" y="-152.75" font-family="Helvetica,sans-Serif" font-size="10.00">::PauseScene</text>
</a>
</g>
</g>
<!-- Node0&#45;&gt;Node9 -->
<g id="edge9_Node000000_Node000009" class="edge">
<title>Node0&#45;&gt;Node9</title>
<g id="a_edge9_Node000000_Node000009"><a xlink:title=" ">
<path fill="none" stroke="#63b8ff" d="M70.76,-259.61C86.84,-238.04 112.64,-207.13 141.25,-187.25 146.36,-183.7 152.05,-180.54 157.86,-177.78"/>
<polygon fill="#63b8ff" stroke="#63b8ff" points="68.03,-257.42 64.98,-267.56 73.69,-261.54 68.03,-257.42"/>
</a>
</g>
</g>
<!-- Node10 -->
<g id="Node000010" class="node">
<title>Node10</title>
<g id="a_Node000010"><a xlink:href="classrtp_1_1client_1_1scenes_1_1PlayingScene.html" target="_top" xlink:title="Scene for the main gameplay.">
<polygon fill="white" stroke="#666666" points="252.12,-128.5 158.12,-128.5 158.12,-98 252.12,-98 252.12,-128.5"/>
<text xml:space="preserve" text-anchor="start" x="166.12" y="-115" font-family="Helvetica,sans-Serif" font-size="10.00">rtp::client::scenes</text>
<text xml:space="preserve" text-anchor="middle" x="205.12" y="-103.75" font-family="Helvetica,sans-Serif" font-size="10.00">::PlayingScene</text>
</a>
</g>
</g>
<!-- Node0&#45;&gt;Node10 -->
<g id="edge10_Node000000_Node000010" class="edge">
<title>Node0&#45;&gt;Node10</title>
<g id="a_edge10_Node000000_Node000010"><a xlink:title=" ">
<path fill="none" stroke="#63b8ff" d="M63.08,-258.4C76.07,-226.17 102.36,-171.3 141.25,-138.25 146.17,-134.07 151.88,-130.53 157.81,-127.55"/>
<polygon fill="#63b8ff" stroke="#63b8ff" points="59.95,-256.79 59.58,-267.38 66.47,-259.33 59.95,-256.79"/>
</a>
</g>
</g>
<!-- Node11 -->
<g id="Node000011" class="node">
<title>Node11</title>
<g id="a_Node000011"><a xlink:href="classrtp_1_1client_1_1scenes_1_1RoomWaitingScene.html" target="_top" xlink:title="Scene for waiting in a game room.">
<polygon fill="white" stroke="#666666" points="259.25,-79.5 151,-79.5 151,-49 259.25,-49 259.25,-79.5"/>
<text xml:space="preserve" text-anchor="start" x="159" y="-66" font-family="Helvetica,sans-Serif" font-size="10.00">rtp::client::scenes</text>
<text xml:space="preserve" text-anchor="middle" x="205.12" y="-54.75" font-family="Helvetica,sans-Serif" font-size="10.00">::RoomWaitingScene</text>
</a>
</g>
</g>
<!-- Node0&#45;&gt;Node11 -->
<g id="edge11_Node000000_Node000011" class="edge">
<title>Node0&#45;&gt;Node11</title>
<g id="a_edge11_Node000000_Node000011"><a xlink:title=" ">
<path fill="none" stroke="#63b8ff" d="M58.91,-257.45C68.39,-216.02 92.07,-136.31 141.25,-89.25 144.98,-85.68 149.29,-82.59 153.87,-79.94"/>
<polygon fill="#63b8ff" stroke="#63b8ff" points="55.52,-256.54 56.82,-267.05 62.36,-258.02 55.52,-256.54"/>
</a>
</g>
</g>
<!-- Node12 -->
<g id="Node000012" class="node">
<title>Node12</title>
<g id="a_Node000012"><a xlink:href="classrtp_1_1client_1_1scenes_1_1SettingsScene.html" target="_top" xlink:title="Scene for the settings menu.">
<polygon fill="white" stroke="#666666" points="252.12,-30.5 158.12,-30.5 158.12,0 252.12,0 252.12,-30.5"/>
<text xml:space="preserve" text-anchor="start" x="166.12" y="-17" font-family="Helvetica,sans-Serif" font-size="10.00">rtp::client::scenes</text>
<text xml:space="preserve" text-anchor="middle" x="205.12" y="-5.75" font-family="Helvetica,sans-Serif" font-size="10.00">::SettingsScene</text>
</a>
</g>
</g>
<!-- Node0&#45;&gt;Node12 -->
<g id="edge12_Node000000_Node000012" class="edge">
<title>Node0&#45;&gt;Node12</title>
<g id="a_edge12_Node000000_Node000012"><a xlink:title=" ">
<path fill="none" stroke="#63b8ff" d="M56.12,-257.22C62.07,-207.78 81.4,-102.15 141.25,-40.25 145.9,-35.44 151.6,-31.53 157.65,-28.36"/>
<polygon fill="#63b8ff" stroke="#63b8ff" points="52.66,-256.7 55.04,-267.02 59.61,-257.46 52.66,-256.7"/>
</a>
</g>
</g>
</g>
</svg>
