<?xml version="1.0" encoding="UTF-8" standalone="no"?>
<!DOCTYPE svg PUBLIC "-//W3C//DTD SVG 1.1//EN"
 "http://www.w3.org/Graphics/SVG/1.1/DTD/svg11.dtd">
<!-- Generated by graphviz version 14.0.5 (20251129.0259)
 -->
<!-- Title: Graphical Class Hierarchy Pages: 1 -->
<svg width="297pt" height="64pt"
 viewBox="0.00 0.00 297.00 64.00" xmlns="http://www.w3.org/2000/svg" xmlns:xlink="http://www.w3.org/1999/xlink">
<g id="graph0" class="graph" transform="scale(1 1) rotate(0) translate(4 60.25)">
<title>Graphical Class Hierarchy</title>
<!-- Node0 -->
<g id="Node000000" class="node">
<title>Node0</title>
<g id="a_Node000000"><a xlink:href="classrtp_1_1net_1_1IEventPublisher.html" target="_top" xlink:title="Interface for network event handling.">
<polygon fill="white" stroke="#666666" points="121.75,-56.25 0,-56.25 0,-37 121.75,-37 121.75,-56.25"/>
<text xml:space="preserve" text-anchor="middle" x="60.88" y="-42.75" font-family="Helvetica,sans-Serif" font-size="10.00">rtp::net::IEventPublisher</text>
</a>
</g>
</g>
<!-- Node1 -->
<g id="Node000001" class="node">
<title>Node1</title>
<g id="a_Node000001"><a xlink:href="classrtp_1_1client_1_1ClientNetwork.html" target="_top" xlink:title=" ">
<polygon fill="white" stroke="#666666" points="285.88,-56.25 161.12,-56.25 161.12,-37 285.88,-37 285.88,-56.25"/>
<text xml:space="preserve" text-anchor="middle" x="223.5" y="-42.75" font-family="Helvetica,sans-Serif" font-size="10.00">rtp::client::ClientNetwork</text>
</a>
</g>
</g>
<!-- Node0&#45;&gt;Node1 -->
<g id="edge53_Node000000_Node000001" class="edge">
<title>Node0&#45;&gt;Node1</title>
<g id="a_edge53_Node000000_Node000001"><a xlink:title=" ">
<path fill="none" stroke="#63b8ff" d="M133.55,-46.62C142.65,-46.62 151.9,-46.62 160.82,-46.62"/>
<polygon fill="#63b8ff" stroke="#63b8ff" points="133.66,-43.13 123.66,-46.63 133.66,-50.13 133.66,-43.13"/>
</a>
</g>
</g>
<!-- Node3 -->
<g id="Node000003" class="node">
<title>Node3</title>
<g id="a_Node000003"><a xlink:href="classrtp_1_1server_1_1ServerNetwork.html" target="_top" xlink:title="Implementation ASIO du serveur réseau (TCP + UDP).">
<polygon fill="white" stroke="#666666" points="289.25,-19.25 157.75,-19.25 157.75,0 289.25,0 289.25,-19.25"/>
<text xml:space="preserve" text-anchor="middle" x="223.5" y="-5.75" font-family="Helvetica,sans-Serif" font-size="10.00">rtp::server::ServerNetwork</text>
</a>
</g>
</g>
<!-- Node0&#45;&gt;Node3 -->
<g id="edge54_Node000000_Node000003" class="edge">
<title>Node0&#45;&gt;Node3</title>
<g id="a_edge54_Node000000_Node000003"><a xlink:title=" ">
<path fill="none" stroke="#63b8ff" d="M116.71,-33.99C136.93,-29.34 159.54,-24.13 178.66,-19.72"/>
<polygon fill="#63b8ff" stroke="#63b8ff" points="116.2,-30.52 107.24,-36.17 117.77,-37.34 116.2,-30.52"/>
</a>
</g>
</g>
<!-- Node2 -->
<g id="Node000002" class="node">
<title>Node2</title>
<g id="a_Node000002"><a xlink:href="classrtp_1_1net_1_1INetwork.html" target="_top" xlink:title="Interface for network operations.">
<polygon fill="white" stroke="#666666" points="107.12,-19.25 14.62,-19.25 14.62,0 107.12,0 107.12,-19.25"/>
<text xml:space="preserve" text-anchor="middle" x="60.88" y="-5.75" font-family="Helvetica,sans-Serif" font-size="10.00">rtp::net::INetwork</text>
</a>
</g>
</g>
<!-- Node2&#45;&gt;Node1 -->
<g id="edge55_Node000002_Node000001" class="edge">
<title>Node2&#45;&gt;Node1</title>
<g id="a_edge55_Node000002_Node000001"><a xlink:title=" ">
<path fill="none" stroke="#63b8ff" d="M116.71,-22.26C136.93,-26.91 159.54,-32.12 178.66,-36.53"/>
<polygon fill="#63b8ff" stroke="#63b8ff" points="117.77,-18.91 107.24,-20.08 116.2,-25.73 117.77,-18.91"/>
</a>
</g>
</g>
<!-- Node2&#45;&gt;Node3 -->
<g id="edge56_Node000002_Node000003" class="edge">
<title>Node2&#45;&gt;Node3</title>
<g id="a_edge56_Node000002_Node000003"><a xlink:title=" ">
<path fill="none" stroke="#63b8ff" d="M118.68,-9.62C131.17,-9.62 144.5,-9.62 157.3,-9.62"/>
<polygon fill="#63b8ff" stroke="#63b8ff" points="118.99,-6.13 108.99,-9.63 118.99,-13.13 118.99,-6.13"/>
</a>
</g>
</g>
</g>
</svg>
