<?xml version="1.0" encoding="UTF-8" standalone="no"?>
<!DOCTYPE svg PUBLIC "-//W3C//DTD SVG 1.1//EN"
 "http://www.w3.org/Graphics/SVG/1.1/DTD/svg11.dtd">
<!-- Generated by graphviz version 14.0.5 (20251129.0259)
 -->
<!-- Title: Graphical Class Hierarchy Pages: 1 -->
<svg width="255pt" height="187pt"
 viewBox="0.00 0.00 255.00 187.00" xmlns="http://www.w3.org/2000/svg" xmlns:xlink="http://www.w3.org/1999/xlink">
<g id="graph0" class="graph" transform="scale(1 1) rotate(0) translate(4 183.25)">
<title>Graphical Class Hierarchy</title>
<!-- Node0 -->
<g id="Node000000" class="node">
<title>Node0</title>
<g id="a_Node000000"><a xlink:href="structrtp_1_1details_1_1VecBase.html" target="_top" xlink:title=" ">
<polygon fill="white" stroke="#666666" points="107.5,-110.88 0,-110.88 0,-80.38 107.5,-80.38 107.5,-110.88"/>
<text xml:space="preserve" text-anchor="start" x="8" y="-97.38" font-family="Helvetica,sans-Serif" font-size="10.00">rtp::details::VecBase</text>
<text xml:space="preserve" text-anchor="middle" x="53.75" y="-86.12" font-family="Helvetica,sans-Serif" font-size="10.00">&lt; T, 2 &gt;</text>
</a>
</g>
</g>
<!-- Node1 -->
<g id="Node000001" class="node">
<title>Node1</title>
<g id="a_Node000001"><a xlink:href="structrtp_1_1Vec2.html" target="_top" xlink:title=" ">
<polygon fill="white" stroke="#666666" points="241.62,-179.25 149.12,-179.25 149.12,-160 241.62,-160 241.62,-179.25"/>
<text xml:space="preserve" text-anchor="middle" x="195.38" y="-165.75" font-family="Helvetica,sans-Serif" font-size="10.00">rtp::Vec2&lt; float &gt;</text>
</a>
</g>
</g>
<!-- Node0&#45;&gt;Node1 -->
<g id="edge13_Node000000_Node000001" class="edge">
<title>Node0&#45;&gt;Node1</title>
<g id="a_edge13_Node000000_Node000001"><a xlink:title=" ">
<path fill="none" stroke="#63b8ff" d="M85.78,-117.61C102.39,-128.74 123.49,-141.92 143.5,-151.62 149.49,-154.53 156.06,-157.2 162.45,-159.56"/>
<polygon fill="#63b8ff" stroke="#63b8ff" points="88.05,-114.92 77.82,-112.18 84.11,-120.71 88.05,-114.92"/>
</a>
</g>
</g>
<!-- Node2 -->
<g id="Node000002" class="node">
<title>Node2</title>
<g id="a_Node000002"><a xlink:href="structrtp_1_1Vec2.html" target="_top" xlink:title=" ">
<polygon fill="white" stroke="#666666" points="246.5,-142.25 144.25,-142.25 144.25,-123 246.5,-123 246.5,-142.25"/>
<text xml:space="preserve" text-anchor="middle" x="195.38" y="-128.75" font-family="Helvetica,sans-Serif" font-size="10.00">rtp::Vec2&lt; double &gt;</text>
</a>
</g>
</g>
<!-- Node0&#45;&gt;Node2 -->
<g id="edge14_Node000000_Node000002" class="edge">
<title>Node0&#45;&gt;Node2</title>
<g id="a_edge14_Node000000_Node000002"><a xlink:title=" ">
<path fill="none" stroke="#63b8ff" d="M118.7,-112.57C131.63,-116 144.84,-119.5 156.52,-122.59"/>
<polygon fill="#63b8ff" stroke="#63b8ff" points="119.96,-109.28 109.4,-110.11 118.17,-116.05 119.96,-109.28"/>
</a>
</g>
</g>
<!-- Node3 -->
<g id="Node000003" class="node">
<title>Node3</title>
<g id="a_Node000003"><a xlink:href="structrtp_1_1Vec2.html" target="_top" xlink:title=" ">
<polygon fill="white" stroke="#666666" points="237.5,-105.25 153.25,-105.25 153.25,-86 237.5,-86 237.5,-105.25"/>
<text xml:space="preserve" text-anchor="middle" x="195.38" y="-91.75" font-family="Helvetica,sans-Serif" font-size="10.00">rtp::Vec2&lt; int &gt;</text>
</a>
</g>
</g>
<!-- Node0&#45;&gt;Node3 -->
<g id="edge15_Node000000_Node000003" class="edge">
<title>Node0&#45;&gt;Node3</title>
<g id="a_edge15_Node000000_Node000003"><a xlink:title=" ">
<path fill="none" stroke="#63b8ff" d="M119.3,-95.62C130.78,-95.62 142.45,-95.62 153.06,-95.62"/>
<polygon fill="#63b8ff" stroke="#63b8ff" points="119.45,-92.13 109.45,-95.63 119.45,-99.13 119.45,-92.13"/>
</a>
</g>
</g>
<!-- Node4 -->
<g id="Node000004" class="node">
<title>Node4</title>
<g id="a_Node000004"><a xlink:href="structrtp_1_1Vec2.html" target="_top" xlink:title=" ">
<polygon fill="white" stroke="#666666" points="247.25,-67.88 143.5,-67.88 143.5,-37.38 247.25,-37.38 247.25,-67.88"/>
<text xml:space="preserve" text-anchor="start" x="151.5" y="-54.38" font-family="Helvetica,sans-Serif" font-size="10.00">rtp::Vec2&lt; unsigned</text>
<text xml:space="preserve" text-anchor="middle" x="195.38" y="-43.12" font-family="Helvetica,sans-Serif" font-size="10.00"> int &gt;</text>
</a>
</g>
</g>
<!-- Node0&#45;&gt;Node4 -->
<g id="edge16_Node000000_Node000004" class="edge">
<title>Node0&#45;&gt;Node4</title>
<g id="a_edge16_Node000000_Node000004"><a xlink:title=" ">
<path fill="none" stroke="#63b8ff" d="M116.41,-76.64C125.42,-73.86 134.61,-71.03 143.38,-68.33"/>
<polygon fill="#63b8ff" stroke="#63b8ff" points="115.53,-73.25 107,-79.53 117.59,-79.94 115.53,-73.25"/>
</a>
</g>
</g>
<!-- Node5 -->
<g id="Node000005" class="node">
<title>Node5</title>
<g id="a_Node000005"><a xlink:href="structrtp_1_1Vec2.html" target="_top" xlink:title="A 2&#45;dimensional vector.">
<polygon fill="white" stroke="#666666" points="235.25,-19.25 155.5,-19.25 155.5,0 235.25,0 235.25,-19.25"/>
<text xml:space="preserve" text-anchor="middle" x="195.38" y="-5.75" font-family="Helvetica,sans-Serif" font-size="10.00">rtp::Vec2&lt; T &gt;</text>
</a>
</g>
</g>
<!-- Node0&#45;&gt;Node5 -->
<g id="edge17_Node000000_Node000005" class="edge">
<title>Node0&#45;&gt;Node5</title>
<g id="a_edge17_Node000000_Node000005"><a xlink:title=" ">
<path fill="none" stroke="#63b8ff" d="M80.82,-72.74C97.81,-58.67 120.94,-41.01 143.5,-28.62 149.62,-25.27 156.45,-22.26 163.07,-19.69"/>
<polygon fill="#63b8ff" stroke="#63b8ff" points="78.6,-70.04 73.21,-79.16 83.11,-75.39 78.6,-70.04"/>
</a>
</g>
</g>
</g>
</svg>
