<?xml version="1.0" encoding="UTF-8" standalone="no"?>
<!DOCTYPE svg PUBLIC "-//W3C//DTD SVG 1.1//EN"
 "http://www.w3.org/Graphics/SVG/1.1/DTD/svg11.dtd">
<!-- Generated by graphviz version 14.0.5 (20251129.0259)
 -->
<!-- Title: server/include/Game/LevelData.hpp Pages: 1 -->
<!--zoomable 459 -->

<svg id="main" version="1.1" xmlns="http://www.w3.org/2000/svg" xmlns:xlink="http://www.w3.org/1999/xlink" xml:space="preserve" onload="init(evt)">

<style type="text/css"><![CDATA[
.node, .edge {opacity: 0.7;}
.node.selected, .edge.selected {opacity: 1;}
.edge:hover path { stroke: red; }
.edge:hover polygon { stroke: red; fill: red; }
]]></style>

<defs>
  <circle id="rim" cx="0" cy="0" r="7"/>
  <circle id="rim2" cx="0" cy="0" r="3.5"/>
  <g id="zoomPlus">
    <use xlink:href="#rim" fill="#404040"><set attributeName="fill" to="#808080" begin="zoomplus.mouseover" end="zoomplus.mouseout"/></use>
    <path d="M-4,0h8M0,-4v8" fill="none" stroke="white" stroke-width="1.5" pointer-events="none"/>
  </g>
  <g id="zoomMin">
    <use xlink:href="#rim" fill="#404040"><set attributeName="fill" to="#808080" begin="zoomminus.mouseover" end="zoomminus.mouseout"/></use>
    <path d="M-4,0h8" fill="none" stroke="white" stroke-width="1.5" pointer-events="none"/>
  </g>
  <g id="arrowUp" transform="translate(30 24)">
    <use xlink:href="#rim"/>
    <path pointer-events="none" fill="none" stroke="white" stroke-width="1.5" d="M0,-3.0v7 M-2.5,-0.5L0,-3.0L2.5,-0.5"/>
  </g>
  <g id="arrowRight" transform="rotate(90) translate(36 -43)">
    <use xlink:href="#rim"/>
    <path pointer-events="none" fill="none" stroke="white" stroke-width="1.5" d="M0,-3.0v7 M-2.5,-0.5L0,-3.0L2.5,-0.5"/>
  </g>
  <g id="arrowDown" transform="rotate(180) translate(-30 -48)">
    <use xlink:href="#rim"/>
    <path pointer-events="none" fill="none" stroke="white" stroke-width="1.5" d="M0,-3.0v7 M-2.5,-0.5L0,-3.0L2.5,-0.5"/>
  </g>
  <g id="arrowLeft" transform="rotate(270) translate(-36 17)">
    <use xlink:href="#rim"/>
    <path pointer-events="none" fill="none" stroke="white" stroke-width="1.5" d="M0,-3.0v7 M-2.5,-0.5L0,-3.0L2.5,-0.5"/>
  </g>
  <g id="resetDef">
    <use xlink:href="#rim2" fill="#404040"><set attributeName="fill" to="#808080" begin="reset.mouseover" end="reset.mouseout"/></use>
  </g>
</defs>
<script type="application/ecmascript">
var viewWidth = 1308;
var viewHeight = 459;
var sectionId = 'dynsection-0';
</script>
<script type="application/ecmascript" xlink:href="svg.min.js"/>
<svg id="graph" class="graph">
<g id="viewport">
<title>server/include/Game/LevelData.hpp</title>
<!-- Node1 -->
<g id="Node000001" class="node">
<title>Node1</title>
<g id="a_Node000001"><a xlink:title=" ">
<polygon fill="#999999" stroke="#666666" points="606.88,-451 500.88,-451 500.88,-420.5 606.88,-420.5 606.88,-451"/>
<text xml:space="preserve" text-anchor="start" x="508.88" y="-437.5" font-family="Helvetica,sans-Serif" font-size="10.00">server/include/Game</text>
<text xml:space="preserve" text-anchor="middle" x="553.88" y="-426.25" font-family="Helvetica,sans-Serif" font-size="10.00">/LevelData.hpp</text>
</a>
</g>
</g>
<!-- Node2 -->
<g id="Node000002" class="node">
<title>Node2</title>
<g id="a_Node000002"><a xlink:title=" ">
<polygon fill="#e0e0e0" stroke="#999999" points="49.75,-378.88 0,-378.88 0,-359.62 49.75,-359.62 49.75,-378.88"/>
<text xml:space="preserve" text-anchor="middle" x="24.88" y="-365.38" font-family="Helvetica,sans-Serif" font-size="10.00">optional</text>
</a>
</g>
</g>
<!-- Node1&#45;&gt;Node2 -->
<g id="edge1_Node000001_Node000002" class="edge">
<title>Node1&#45;&gt;Node2</title>
<g id="a_edge1_Node000001_Node000002"><a xlink:title=" ">
<path fill="none" stroke="#63b8ff" d="M500.6,-433.6C409.85,-430.68 219.92,-420.42 63.88,-384.5 61.86,-384.04 59.8,-383.49 57.74,-382.9"/>
<polygon fill="#63b8ff" stroke="#63b8ff" points="58.89,-379.6 48.3,-379.83 56.72,-386.25 58.89,-379.6"/>
</a>
</g>
</g>
<!-- Node3 -->
<g id="Node000003" class="node">
<title>Node3</title>
<g id="a_Node000003"><a xlink:title=" ">
<polygon fill="#e0e0e0" stroke="#999999" points="420.88,-74.5 380.88,-74.5 380.88,-55.25 420.88,-55.25 420.88,-74.5"/>
<text xml:space="preserve" text-anchor="middle" x="400.88" y="-61" font-family="Helvetica,sans-Serif" font-size="10.00">string</text>
</a>
</g>
</g>
<!-- Node1&#45;&gt;Node3 -->
<g id="edge2_Node000001_Node000003" class="edge">
<title>Node1&#45;&gt;Node3</title>
<g id="a_edge2_Node000001_Node000003"><a xlink:title=" ">
<path fill="none" stroke="#63b8ff" d="M500.51,-429.58C390.24,-417.65 143.61,-383.99 96.88,-318 12.89,-199.41 276.32,-104.38 369.49,-75.17"/>
<polygon fill="#63b8ff" stroke="#63b8ff" points="370.5,-78.52 379.02,-72.24 368.44,-71.83 370.5,-78.52"/>
</a>
</g>
</g>
<!-- Node4 -->
<g id="Node000004" class="node">
<title>Node4</title>
<g id="a_Node000004"><a xlink:title=" ">
<polygon fill="#e0e0e0" stroke="#999999" points="149.38,-318 106.38,-318 106.38,-298.75 149.38,-298.75 149.38,-318"/>
<text xml:space="preserve" text-anchor="middle" x="127.88" y="-304.5" font-family="Helvetica,sans-Serif" font-size="10.00">vector</text>
</a>
</g>
</g>
<!-- Node1&#45;&gt;Node4 -->
<g id="edge3_Node000001_Node000004" class="edge">
<title>Node1&#45;&gt;Node4</title>
<g id="a_edge3_Node000001_Node000004"><a xlink:title=" ">
<path fill="none" stroke="#63b8ff" d="M504.17,-420.12C416.05,-394.19 234.72,-340.82 160.57,-319"/>
<polygon fill="#63b8ff" stroke="#63b8ff" points="161.65,-315.67 151.07,-316.2 159.67,-322.38 161.65,-315.67"/>
</a>
</g>
</g>
<!-- Node5 -->
<g id="Node000005" class="node">
<title>Node5</title>
<g id="a_Node000005"><a xlink:href="Vec2_8hpp.html" target="_top" xlink:title="Declaration of the 2&#45;dimensional vector class.">
<polygon fill="white" stroke="#666666" points="1074.62,-318 961.12,-318 961.12,-298.75 1074.62,-298.75 1074.62,-318"/>
<text xml:space="preserve" text-anchor="middle" x="1017.88" y="-304.5" font-family="Helvetica,sans-Serif" font-size="10.00">RType/Math/Vec2.hpp</text>
</a>
</g>
</g>
<!-- Node1&#45;&gt;Node5 -->
<g id="edge4_Node000001_Node000005" class="edge">
<title>Node1&#45;&gt;Node5</title>
<g id="a_edge4_Node000001_Node000005"><a xlink:title=" ">
<path fill="none" stroke="#63b8ff" d="M577.53,-420.16C592.97,-410.43 613.43,-397.15 630.88,-384.5 648.41,-371.79 648.94,-362.47 668.88,-354 672.09,-352.63 848.95,-330.43 949.62,-317.87"/>
<polygon fill="#63b8ff" stroke="#63b8ff" points="949.92,-321.36 959.41,-316.65 949.05,-314.41 949.92,-321.36"/>
</a>
</g>
</g>
<!-- Node30 -->
<g id="Node000030" class="node">
<title>Node30</title>
<g id="a_Node000030"><a xlink:href="Packet_8hpp.html" target="_top" xlink:title="Network packet implementation for R&#45;Type protocol.">
<polygon fill="white" stroke="#666666" points="622.25,-378.88 485.5,-378.88 485.5,-359.62 622.25,-359.62 622.25,-378.88"/>
<text xml:space="preserve" text-anchor="middle" x="553.88" y="-365.38" font-family="Helvetica,sans-Serif" font-size="10.00">RType/Network/Packet.hpp</text>
</a>
</g>
</g>
<!-- Node1&#45;&gt;Node30 -->
<g id="edge40_Node000001_Node000030" class="edge">
<title>Node1&#45;&gt;Node30</title>
<g id="a_edge40_Node000001_Node000030"><a xlink:title=" ">
<path fill="none" stroke="#63b8ff" d="M553.88,-420.11C553.88,-411.33 553.88,-400.02 553.88,-390.4"/>
<polygon fill="#63b8ff" stroke="#63b8ff" points="557.38,-390.59 553.88,-380.59 550.38,-390.59 557.38,-390.59"/>
</a>
</g>
</g>
<!-- Node40 -->
<g id="Node000040" class="node">
<title>Node40</title>
<g id="a_Node000040"><a xlink:href="MouvementPattern_8hpp.html" target="_top" xlink:title=" ">
<polygon fill="white" stroke="#666666" points="805.38,-384.5 678.38,-384.5 678.38,-354 805.38,-354 805.38,-384.5"/>
<text xml:space="preserve" text-anchor="start" x="686.38" y="-371" font-family="Helvetica,sans-Serif" font-size="10.00">RType/ECS/Components</text>
<text xml:space="preserve" text-anchor="middle" x="741.88" y="-359.75" font-family="Helvetica,sans-Serif" font-size="10.00">/MouvementPattern.hpp</text>
</a>
</g>
</g>
<!-- Node1&#45;&gt;Node40 -->
<g id="edge59_Node000001_Node000040" class="edge">
<title>Node1&#45;&gt;Node40</title>
<g id="a_edge59_Node000001_Node000040"><a xlink:title=" ">
<path fill="none" stroke="#63b8ff" d="M596.54,-420.11C623.72,-410.79 659.17,-398.62 688.25,-388.65"/>
<polygon fill="#63b8ff" stroke="#63b8ff" points="689.3,-391.99 697.63,-385.43 687.03,-385.37 689.3,-391.99"/>
</a>
</g>
</g>
<!-- Node41 -->
<g id="Node000041" class="node">
<title>Node41</title>
<g id="a_Node000041"><a xlink:href="Powerup_8hpp.html" target="_top" xlink:title=" ">
<polygon fill="white" stroke="#666666" points="1300.38,-262.75 1173.38,-262.75 1173.38,-232.25 1300.38,-232.25 1300.38,-262.75"/>
<text xml:space="preserve" text-anchor="start" x="1181.38" y="-249.25" font-family="Helvetica,sans-Serif" font-size="10.00">RType/ECS/Components</text>
<text xml:space="preserve" text-anchor="middle" x="1236.88" y="-238" font-family="Helvetica,sans-Serif" font-size="10.00">/Powerup.hpp</text>
</a>
</g>
</g>
<!-- Node1&#45;&gt;Node41 -->
<g id="edge60_Node000001_Node000041" class="edge">
<title>Node1&#45;&gt;Node41</title>
<g id="a_edge60_Node000001_Node000041"><a xlink:title=" ">
<path fill="none" stroke="#63b8ff" d="M607.29,-427.24C704.18,-412.7 914.55,-376.83 1083.88,-318 1124.06,-304.04 1168.1,-283.44 1198.57,-268.29"/>
<polygon fill="#63b8ff" stroke="#63b8ff" points="1200.04,-271.47 1207.4,-263.85 1196.89,-265.21 1200.04,-271.47"/>
</a>
</g>
</g>
<!-- Node6 -->
<g id="Node000006" class="node">
<title>Node6</title>
<g id="a_Node000006"><a xlink:href="Assert_8hpp.html" target="_top" xlink:title="Assertion and verification macros for runtime checks.">
<polygon fill="white" stroke="#666666" points="1144.25,-257.12 1049.5,-257.12 1049.5,-237.88 1144.25,-237.88 1144.25,-257.12"/>
<text xml:space="preserve" text-anchor="middle" x="1096.88" y="-243.62" font-family="Helvetica,sans-Serif" font-size="10.00">RType/Assert.hpp</text>
</a>
</g>
</g>
<!-- Node5&#45;&gt;Node6 -->
<g id="edge5_Node000005_Node000006" class="edge">
<title>Node5&#45;&gt;Node6</title>
<g id="a_edge5_Node000005_Node000006"><a xlink:title=" ">
<path fill="none" stroke="#63b8ff" d="M1029.87,-298.43C1042.05,-289.36 1061.16,-275.12 1075.86,-264.16"/>
<polygon fill="#63b8ff" stroke="#63b8ff" points="1077.62,-267.21 1083.55,-258.43 1073.44,-261.6 1077.62,-267.21"/>
</a>
</g>
</g>
<!-- Node23 -->
<g id="Node000023" class="node">
<title>Node23</title>
<g id="a_Node000023"><a xlink:href="VecBase_8hpp.html" target="_top" xlink:title="Declaration of the CRTP base vector class.">
<polygon fill="white" stroke="#666666" points="884.25,-262.75 783.5,-262.75 783.5,-232.25 884.25,-232.25 884.25,-262.75"/>
<text xml:space="preserve" text-anchor="start" x="791.5" y="-249.25" font-family="Helvetica,sans-Serif" font-size="10.00">RType/Math/details</text>
<text xml:space="preserve" text-anchor="middle" x="833.88" y="-238" font-family="Helvetica,sans-Serif" font-size="10.00">/VecBase.hpp</text>
</a>
</g>
</g>
<!-- Node5&#45;&gt;Node23 -->
<g id="edge32_Node000005_Node000023" class="edge">
<title>Node5&#45;&gt;Node23</title>
<g id="a_edge32_Node000005_Node000023"><a xlink:title=" ">
<path fill="none" stroke="#63b8ff" d="M989.53,-298.3C963.26,-289.9 923.42,-277.15 890.62,-266.66"/>
<polygon fill="#63b8ff" stroke="#63b8ff" points="891.83,-263.37 881.24,-263.66 889.7,-270.04 891.83,-263.37"/>
</a>
</g>
</g>
<!-- Node29 -->
<g id="Node000029" class="node">
<title>Node29</title>
<g id="a_Node000029"><a xlink:href="Vec2_8tpp.html" target="_top" xlink:title=" ">
<polygon fill="white" stroke="#666666" points="1031.38,-257.12 976.38,-257.12 976.38,-237.88 1031.38,-237.88 1031.38,-257.12"/>
<text xml:space="preserve" text-anchor="middle" x="1003.88" y="-243.62" font-family="Helvetica,sans-Serif" font-size="10.00">Vec2.tpp</text>
</a>
</g>
</g>
<!-- Node5&#45;&gt;Node29 -->
<g id="edge39_Node000005_Node000029" class="edge">
<title>Node5&#45;&gt;Node29</title>
<g id="a_edge39_Node000005_Node000029"><a xlink:title=" ">
<path fill="none" stroke="#63b8ff" d="M1015.75,-298.43C1013.88,-290.57 1011.09,-278.82 1008.68,-268.7"/>
<polygon fill="#63b8ff" stroke="#63b8ff" points="1012.09,-267.92 1006.37,-259 1005.28,-269.54 1012.09,-267.92"/>
</a>
</g>
</g>
<!-- Node7 -->
<g id="Node000007" class="node">
<title>Node7</title>
<g id="a_Node000007"><a xlink:href="Logger_8hpp.html" target="_top" xlink:title="Logger declaration with support for multiple log levels.">
<polygon fill="white" stroke="#666666" points="1044.25,-190.62 949.5,-190.62 949.5,-171.38 1044.25,-171.38 1044.25,-190.62"/>
<text xml:space="preserve" text-anchor="middle" x="996.88" y="-177.12" font-family="Helvetica,sans-Serif" font-size="10.00">RType/Logger.hpp</text>
</a>
</g>
</g>
<!-- Node6&#45;&gt;Node7 -->
<g id="edge6_Node000006_Node000007" class="edge">
<title>Node6&#45;&gt;Node7</title>
<g id="a_edge6_Node000006_Node000007"><a xlink:title=" ">
<path fill="none" stroke="#63b8ff" d="M1082.97,-237.53C1066.87,-227.14 1040.07,-209.86 1020.64,-197.33"/>
<polygon fill="#63b8ff" stroke="#63b8ff" points="1022.56,-194.4 1012.26,-191.92 1018.76,-200.28 1022.56,-194.4"/>
</a>
</g>
</g>
<!-- Node22 -->
<g id="Node000022" class="node">
<title>Node22</title>
<g id="a_Node000022"><a xlink:title=" ">
<polygon fill="#e0e0e0" stroke="#999999" points="1144.12,-190.62 1099.62,-190.62 1099.62,-171.38 1144.12,-171.38 1144.12,-190.62"/>
<text xml:space="preserve" text-anchor="middle" x="1121.88" y="-177.12" font-family="Helvetica,sans-Serif" font-size="10.00">cstdlib</text>
</a>
</g>
</g>
<!-- Node6&#45;&gt;Node22 -->
<g id="edge31_Node000006_Node000022" class="edge">
<title>Node6&#45;&gt;Node22</title>
<g id="a_edge31_Node000006_Node000022"><a xlink:title=" ">
<path fill="none" stroke="#63b8ff" d="M1100.35,-237.53C1103.97,-228.19 1109.75,-213.28 1114.41,-201.26"/>
<polygon fill="#63b8ff" stroke="#63b8ff" points="1117.53,-202.89 1117.88,-192.3 1111,-200.36 1117.53,-202.89"/>
</a>
</g>
</g>
<!-- Node7&#45;&gt;Node3 -->
<g id="edge26_Node000007_Node000003" class="edge">
<title>Node7&#45;&gt;Node3</title>
<g id="a_edge26_Node000007_Node000003"><a xlink:title=" ">
<path fill="none" stroke="#63b8ff" d="M964.47,-170.93C956.78,-169.01 948.57,-167.14 940.88,-165.75 796.13,-139.55 753.84,-168.27 611.88,-129.75 591.67,-124.27 588.61,-117.49 568.88,-110.5 522.31,-94.01 466.6,-80.36 432.48,-72.67"/>
<polygon fill="#63b8ff" stroke="#63b8ff" points="433.37,-69.28 422.84,-70.52 431.85,-76.11 433.37,-69.28"/>
</a>
</g>
</g>
<!-- Node8 -->
<g id="Node000008" class="node">
<title>Node8</title>
<g id="a_Node000008"><a xlink:href="LogLevel_8hpp.html" target="_top" xlink:title="Log severity levels for the logging system.">
<polygon fill="white" stroke="#666666" points="1105.5,-74.5 1000.25,-74.5 1000.25,-55.25 1105.5,-55.25 1105.5,-74.5"/>
<text xml:space="preserve" text-anchor="middle" x="1052.88" y="-61" font-family="Helvetica,sans-Serif" font-size="10.00">RType/LogLevel.hpp</text>
</a>
</g>
</g>
<!-- Node7&#45;&gt;Node8 -->
<g id="edge7_Node000007_Node000008" class="edge">
<title>Node7&#45;&gt;Node8</title>
<g id="a_edge7_Node000007_Node000008"><a xlink:title=" ">
<path fill="none" stroke="#63b8ff" d="M961.64,-170.96C924.94,-159.8 875.55,-138.78 896.88,-110.5 908.34,-95.3 951.18,-83.71 989.07,-76.16"/>
<polygon fill="#63b8ff" stroke="#63b8ff" points="989.47,-79.65 998.63,-74.32 988.15,-72.77 989.47,-79.65"/>
</a>
</g>
</g>
<!-- Node10 -->
<g id="Node000010" class="node">
<title>Node10</title>
<g id="a_Node000010"><a xlink:title=" ">
<polygon fill="#e0e0e0" stroke="#999999" points="688.75,-19.25 645,-19.25 645,0 688.75,0 688.75,-19.25"/>
<text xml:space="preserve" text-anchor="middle" x="666.88" y="-5.75" font-family="Helvetica,sans-Serif" font-size="10.00">format</text>
</a>
</g>
</g>
<!-- Node7&#45;&gt;Node10 -->
<g id="edge24_Node000007_Node000010" class="edge">
<title>Node7&#45;&gt;Node10</title>
<g id="a_edge24_Node000007_Node000010"><a xlink:title=" ">
<path fill="none" stroke="#63b8ff" d="M962.6,-170.94C955.44,-169.14 947.92,-167.33 940.88,-165.75 858.71,-147.36 826.09,-174.68 754.88,-129.75 716.04,-105.25 688.57,-56.97 675.5,-30"/>
<polygon fill="#63b8ff" stroke="#63b8ff" points="678.68,-28.54 671.29,-20.95 672.33,-31.49 678.68,-28.54"/>
</a>
</g>
</g>
<!-- Node11 -->
<g id="Node000011" class="node">
<title>Node11</title>
<g id="a_Node000011"><a xlink:title=" ">
<polygon fill="#e0e0e0" stroke="#999999" points="887.62,-19.25 822.12,-19.25 822.12,0 887.62,0 887.62,-19.25"/>
<text xml:space="preserve" text-anchor="middle" x="854.88" y="-5.75" font-family="Helvetica,sans-Serif" font-size="10.00">string_view</text>
</a>
</g>
</g>
<!-- Node7&#45;&gt;Node11 -->
<g id="edge27_Node000007_Node000011" class="edge">
<title>Node7&#45;&gt;Node11</title>
<g id="a_edge27_Node000007_Node000011"><a xlink:title=" ">
<path fill="none" stroke="#63b8ff" d="M1032.4,-170.92C1076.14,-159.37 1145.59,-139.75 1152.88,-129.75 1157.91,-122.83 1155.41,-118.67 1152.88,-110.5 1144.03,-82.04 1139.98,-71.31 1114.88,-55.25 1079.92,-32.89 964.16,-19.82 899.52,-14.1"/>
<polygon fill="#63b8ff" stroke="#63b8ff" points="899.85,-10.61 889.58,-13.24 899.25,-17.59 899.85,-10.61"/>
</a>
</g>
</g>
<!-- Node12 -->
<g id="Node000012" class="node">
<title>Node12</title>
<g id="a_Node000012"><a xlink:title=" ">
<polygon fill="#e0e0e0" stroke="#999999" points="599.5,-19.25 560.25,-19.25 560.25,0 599.5,0 599.5,-19.25"/>
<text xml:space="preserve" text-anchor="middle" x="579.88" y="-5.75" font-family="Helvetica,sans-Serif" font-size="10.00">utility</text>
</a>
</g>
</g>
<!-- Node7&#45;&gt;Node12 -->
<g id="edge29_Node000007_Node000012" class="edge">
<title>Node7&#45;&gt;Node12</title>
<g id="a_edge29_Node000007_Node000012"><a xlink:title=" ">
<path fill="none" stroke="#63b8ff" d="M962.92,-170.89C955.67,-169.08 948.04,-167.27 940.88,-165.75 847.38,-145.95 816.09,-168.84 728.88,-129.75 673.45,-104.91 620.98,-54.53 595.66,-27.95"/>
<polygon fill="#63b8ff" stroke="#63b8ff" points="598.3,-25.64 588.92,-20.72 593.18,-30.42 598.3,-25.64"/>
</a>
</g>
</g>
<!-- Node14 -->
<g id="Node000014" class="node">
<title>Node14</title>
<g id="a_Node000014"><a xlink:href="Error_8hpp.html" target="_top" xlink:title="Error handling system with categorized error codes.">
<polygon fill="white" stroke="#666666" points="850.12,-129.75 763.62,-129.75 763.62,-110.5 850.12,-110.5 850.12,-129.75"/>
<text xml:space="preserve" text-anchor="middle" x="806.88" y="-116.25" font-family="Helvetica,sans-Serif" font-size="10.00">RType/Error.hpp</text>
</a>
</g>
</g>
<!-- Node7&#45;&gt;Node14 -->
<g id="edge13_Node000007_Node000014" class="edge">
<title>Node7&#45;&gt;Node14</title>
<g id="a_edge13_Node000007_Node000014"><a xlink:title=" ">
<path fill="none" stroke="#63b8ff" d="M967.6,-170.93C935.25,-160.9 882.94,-144.69 846.83,-133.5"/>
<polygon fill="#63b8ff" stroke="#63b8ff" points="848.21,-130.27 837.63,-130.65 846.14,-136.96 848.21,-130.27"/>
</a>
</g>
</g>
<!-- Node18 -->
<g id="Node000018" class="node">
<title>Node18</title>
<g id="a_Node000018"><a xlink:title=" ">
<polygon fill="#e0e0e0" stroke="#999999" points="961.75,-129.75 906,-129.75 906,-110.5 961.75,-110.5 961.75,-129.75"/>
<text xml:space="preserve" text-anchor="middle" x="933.88" y="-116.25" font-family="Helvetica,sans-Serif" font-size="10.00">expected</text>
</a>
</g>
</g>
<!-- Node7&#45;&gt;Node18 -->
<g id="edge23_Node000007_Node000018" class="edge">
<title>Node7&#45;&gt;Node18</title>
<g id="a_edge23_Node000007_Node000018"><a xlink:title=" ">
<path fill="none" stroke="#63b8ff" d="M987.31,-171.06C977.87,-162.24 963.22,-148.55 951.65,-137.73"/>
<polygon fill="#63b8ff" stroke="#63b8ff" points="954.34,-135.46 944.64,-131.18 949.56,-140.57 954.34,-135.46"/>
</a>
</g>
</g>
<!-- Node19 -->
<g id="Node000019" class="node">
<title>Node19</title>
<g id="a_Node000019"><a xlink:title=" ">
<polygon fill="#e0e0e0" stroke="#999999" points="1064,-129.75 979.75,-129.75 979.75,-110.5 1064,-110.5 1064,-129.75"/>
<text xml:space="preserve" text-anchor="middle" x="1021.88" y="-116.25" font-family="Helvetica,sans-Serif" font-size="10.00">source_location</text>
</a>
</g>
</g>
<!-- Node7&#45;&gt;Node19 -->
<g id="edge25_Node000007_Node000019" class="edge">
<title>Node7&#45;&gt;Node19</title>
<g id="a_edge25_Node000007_Node000019"><a xlink:title=" ">
<path fill="none" stroke="#63b8ff" d="M1000.67,-171.06C1004.09,-163.02 1009.22,-150.93 1013.58,-140.66"/>
<polygon fill="#63b8ff" stroke="#63b8ff" points="1016.76,-142.12 1017.45,-131.54 1010.32,-139.38 1016.76,-142.12"/>
</a>
</g>
</g>
<!-- Node20 -->
<g id="Node000020" class="node">
<title>Node20</title>
<g id="a_Node000020"><a xlink:title=" ">
<polygon fill="#e0e0e0" stroke="#999999" points="559.75,-129.75 498,-129.75 498,-110.5 559.75,-110.5 559.75,-129.75"/>
<text xml:space="preserve" text-anchor="middle" x="528.88" y="-116.25" font-family="Helvetica,sans-Serif" font-size="10.00">type_traits</text>
</a>
</g>
</g>
<!-- Node7&#45;&gt;Node20 -->
<g id="edge28_Node000007_Node000020" class="edge">
<title>Node7&#45;&gt;Node20</title>
<g id="a_edge28_Node000007_Node000020"><a xlink:title=" ">
<path fill="none" stroke="#63b8ff" d="M964.78,-170.95C957,-169 948.68,-167.12 940.88,-165.75 779.44,-137.46 736.08,-153.2 573.88,-129.75 572.88,-129.61 571.87,-129.45 570.85,-129.3"/>
<polygon fill="#63b8ff" stroke="#63b8ff" points="571.73,-125.9 561.29,-127.69 570.57,-132.8 571.73,-125.9"/>
</a>
</g>
</g>
<!-- Node21 -->
<g id="Node000021" class="node">
<title>Node21</title>
<g id="a_Node000021"><a xlink:href="Logger_8tpp.html" target="_top" xlink:title=" ">
<polygon fill="white" stroke="#666666" points="1143.38,-129.75 1082.38,-129.75 1082.38,-110.5 1143.38,-110.5 1143.38,-129.75"/>
<text xml:space="preserve" text-anchor="middle" x="1112.88" y="-116.25" font-family="Helvetica,sans-Serif" font-size="10.00">Logger.tpp</text>
</a>
</g>
</g>
<!-- Node7&#45;&gt;Node21 -->
<g id="edge30_Node000007_Node000021" class="edge">
<title>Node7&#45;&gt;Node21</title>
<g id="a_edge30_Node000007_Node000021"><a xlink:title=" ">
<path fill="none" stroke="#63b8ff" d="M1014.75,-170.93C1033.53,-161.39 1063.34,-146.27 1085.18,-135.18"/>
<polygon fill="#63b8ff" stroke="#63b8ff" points="1086.49,-138.44 1093.82,-130.79 1083.32,-132.2 1086.49,-138.44"/>
</a>
</g>
</g>
<!-- Node9 -->
<g id="Node000009" class="node">
<title>Node9</title>
<g id="a_Node000009"><a xlink:title=" ">
<polygon fill="#e0e0e0" stroke="#999999" points="1194.5,-19.25 1149.25,-19.25 1149.25,0 1194.5,0 1194.5,-19.25"/>
<text xml:space="preserve" text-anchor="middle" x="1171.88" y="-5.75" font-family="Helvetica,sans-Serif" font-size="10.00">cstdint</text>
</a>
</g>
</g>
<!-- Node8&#45;&gt;Node9 -->
<g id="edge8_Node000008_Node000009" class="edge">
<title>Node8&#45;&gt;Node9</title>
<g id="a_edge8_Node000008_Node000009"><a xlink:title=" ">
<path fill="none" stroke="#63b8ff" d="M1073.06,-54.84C1091.78,-46.47 1119.9,-33.88 1141.36,-24.28"/>
<polygon fill="#63b8ff" stroke="#63b8ff" points="1142.51,-27.6 1150.21,-20.32 1139.65,-21.21 1142.51,-27.6"/>
</a>
</g>
</g>
<!-- Node8&#45;&gt;Node10 -->
<g id="edge9_Node000008_Node000010" class="edge">
<title>Node8&#45;&gt;Node10</title>
<g id="a_edge9_Node000008_Node000010"><a xlink:title=" ">
<path fill="none" stroke="#63b8ff" d="M999.78,-56.48C996.76,-56.07 993.78,-55.65 990.88,-55.25 884.58,-40.54 758.66,-23.23 700.01,-15.17"/>
<polygon fill="#63b8ff" stroke="#63b8ff" points="700.76,-11.74 690.38,-13.85 699.81,-18.68 700.76,-11.74"/>
</a>
</g>
</g>
<!-- Node8&#45;&gt;Node11 -->
<g id="edge10_Node000008_Node000011" class="edge">
<title>Node8&#45;&gt;Node11</title>
<g id="a_edge10_Node000008_Node000011"><a xlink:title=" ">
<path fill="none" stroke="#63b8ff" d="M1019.29,-54.84C986.09,-45.91 935.13,-32.21 898.75,-22.43"/>
<polygon fill="#63b8ff" stroke="#63b8ff" points="899.99,-19.14 889.43,-19.92 898.18,-25.89 899.99,-19.14"/>
</a>
</g>
</g>
<!-- Node8&#45;&gt;Node12 -->
<g id="edge11_Node000008_Node000012" class="edge">
<title>Node8&#45;&gt;Node12</title>
<g id="a_edge11_Node000008_Node000012"><a xlink:title=" ">
<path fill="none" stroke="#63b8ff" d="M999.79,-56.36C996.78,-55.97 993.79,-55.6 990.88,-55.25 833.42,-36.32 793.19,-39.33 635.88,-19.25 627.81,-18.22 619.12,-16.96 611.04,-15.72"/>
<polygon fill="#63b8ff" stroke="#63b8ff" points="611.71,-12.28 601.29,-14.18 610.63,-19.2 611.71,-12.28"/>
</a>
</g>
</g>
<!-- Node13 -->
<g id="Node000013" class="node">
<title>Node13</title>
<g id="a_Node000013"><a xlink:title=" ">
<polygon fill="#e0e0e0" stroke="#999999" points="1086.75,-19.25 1019,-19.25 1019,0 1086.75,0 1086.75,-19.25"/>
<text xml:space="preserve" text-anchor="middle" x="1052.88" y="-5.75" font-family="Helvetica,sans-Serif" font-size="10.00">LogLevel.inl</text>
</a>
</g>
</g>
<!-- Node8&#45;&gt;Node13 -->
<g id="edge12_Node000008_Node000013" class="edge">
<title>Node8&#45;&gt;Node13</title>
<g id="a_edge12_Node000008_Node000013"><a xlink:title=" ">
<path fill="none" stroke="#63b8ff" d="M1052.88,-55.08C1052.88,-48.57 1052.88,-39.42 1052.88,-31.12"/>
<polygon fill="#63b8ff" stroke="#63b8ff" points="1056.38,-31.12 1052.88,-21.12 1049.38,-31.12 1056.38,-31.12"/>
</a>
</g>
</g>
<!-- Node14&#45;&gt;Node3 -->
<g id="edge17_Node000014_Node000003" class="edge">
<title>Node14&#45;&gt;Node3</title>
<g id="a_edge17_Node000014_Node000003"><a xlink:title=" ">
<path fill="none" stroke="#63b8ff" d="M763.43,-113.43C681.07,-102.62 504.07,-79.41 432.19,-69.98"/>
<polygon fill="#63b8ff" stroke="#63b8ff" points="433.06,-66.57 422.69,-68.74 432.15,-73.51 433.06,-66.57"/>
</a>
</g>
</g>
<!-- Node14&#45;&gt;Node8 -->
<g id="edge14_Node000014_Node000008" class="edge">
<title>Node14&#45;&gt;Node8</title>
<g id="a_edge14_Node000014_Node000008"><a xlink:title=" ">
<path fill="none" stroke="#63b8ff" d="M848.88,-110.03C890.63,-100.99 954.79,-87.11 999.98,-77.32"/>
<polygon fill="#63b8ff" stroke="#63b8ff" points="1000.53,-80.79 1009.56,-75.25 999.05,-73.95 1000.53,-80.79"/>
</a>
</g>
</g>
<!-- Node14&#45;&gt;Node9 -->
<g id="edge15_Node000014_Node000009" class="edge">
<title>Node14&#45;&gt;Node9</title>
<g id="a_edge15_Node000014_Node000009"><a xlink:title=" ">
<path fill="none" stroke="#63b8ff" d="M850.41,-114.49C929.78,-105.79 1092,-86.79 1114.88,-74.5 1134.47,-63.97 1150.64,-43.92 1160.69,-29.08"/>
<polygon fill="#63b8ff" stroke="#63b8ff" points="1163.62,-30.99 1166.07,-20.68 1157.72,-27.21 1163.62,-30.99"/>
</a>
</g>
</g>
<!-- Node14&#45;&gt;Node10 -->
<g id="edge16_Node000014_Node000010" class="edge">
<title>Node14&#45;&gt;Node10</title>
<g id="a_edge16_Node000014_Node000010"><a xlink:title=" ">
<path fill="none" stroke="#63b8ff" d="M795.42,-110.25C771.73,-91.89 717.09,-49.54 687.24,-26.41"/>
<polygon fill="#63b8ff" stroke="#63b8ff" points="689.73,-23.91 679.69,-20.55 685.45,-29.45 689.73,-23.91"/>
</a>
</g>
</g>
<!-- Node14&#45;&gt;Node11 -->
<g id="edge18_Node000014_Node000011" class="edge">
<title>Node14&#45;&gt;Node11</title>
<g id="a_edge18_Node000014_Node000011"><a xlink:title=" ">
<path fill="none" stroke="#63b8ff" d="M792.98,-110.19C775.81,-97.99 750.29,-75.33 762.88,-55.25 773.54,-38.23 792.75,-27.53 810.87,-20.9"/>
<polygon fill="#63b8ff" stroke="#63b8ff" points="811.79,-24.28 820.19,-17.83 809.6,-17.63 811.79,-24.28"/>
</a>
</g>
</g>
<!-- Node14&#45;&gt;Node12 -->
<g id="edge20_Node000014_Node000012" class="edge">
<title>Node14&#45;&gt;Node12</title>
<g id="a_edge20_Node000014_Node000012"><a xlink:title=" ">
<path fill="none" stroke="#63b8ff" d="M787.91,-110.06C748.27,-91.11 656.4,-47.2 609.13,-24.61"/>
<polygon fill="#63b8ff" stroke="#63b8ff" points="610.84,-21.55 600.31,-20.39 607.82,-27.86 610.84,-21.55"/>
</a>
</g>
</g>
<!-- Node15 -->
<g id="Node000015" class="node">
<title>Node15</title>
<g id="a_Node000015"><a xlink:title=" ">
<polygon fill="#e0e0e0" stroke="#999999" points="844.38,-74.5 771.38,-74.5 771.38,-55.25 844.38,-55.25 844.38,-74.5"/>
<text xml:space="preserve" text-anchor="middle" x="807.88" y="-61" font-family="Helvetica,sans-Serif" font-size="10.00">system_error</text>
</a>
</g>
</g>
<!-- Node14&#45;&gt;Node15 -->
<g id="edge19_Node000014_Node000015" class="edge">
<title>Node14&#45;&gt;Node15</title>
<g id="a_edge19_Node000014_Node000015"><a xlink:title=" ">
<path fill="none" stroke="#63b8ff" d="M807.04,-110.33C807.16,-103.82 807.33,-94.67 807.49,-86.37"/>
<polygon fill="#63b8ff" stroke="#63b8ff" points="810.99,-86.44 807.68,-76.37 803.99,-86.3 810.99,-86.44"/>
</a>
</g>
</g>
<!-- Node16 -->
<g id="Node000016" class="node">
<title>Node16</title>
<g id="a_Node000016"><a xlink:title=" ">
<polygon fill="#e0e0e0" stroke="#999999" points="911.38,-74.5 862.38,-74.5 862.38,-55.25 911.38,-55.25 911.38,-74.5"/>
<text xml:space="preserve" text-anchor="middle" x="886.88" y="-61" font-family="Helvetica,sans-Serif" font-size="10.00">Error.inl</text>
</a>
</g>
</g>
<!-- Node14&#45;&gt;Node16 -->
<g id="edge21_Node000014_Node000016" class="edge">
<title>Node14&#45;&gt;Node16</title>
<g id="a_edge21_Node000014_Node000016"><a xlink:title=" ">
<path fill="none" stroke="#63b8ff" d="M820.45,-110.09C832.28,-102.21 849.71,-90.61 863.75,-81.27"/>
<polygon fill="#63b8ff" stroke="#63b8ff" points="865.59,-84.25 871.98,-75.79 861.71,-78.42 865.59,-84.25"/>
</a>
</g>
</g>
<!-- Node17 -->
<g id="Node000017" class="node">
<title>Node17</title>
<g id="a_Node000017"><a xlink:href="Error_8tpp.html" target="_top" xlink:title=" ">
<polygon fill="white" stroke="#666666" points="982.25,-74.5 929.5,-74.5 929.5,-55.25 982.25,-55.25 982.25,-74.5"/>
<text xml:space="preserve" text-anchor="middle" x="955.88" y="-61" font-family="Helvetica,sans-Serif" font-size="10.00">Error.tpp</text>
</a>
</g>
</g>
<!-- Node14&#45;&gt;Node17 -->
<g id="edge22_Node000014_Node000017" class="edge">
<title>Node14&#45;&gt;Node17</title>
<g id="a_edge22_Node000014_Node000017"><a xlink:title=" ">
<path fill="none" stroke="#63b8ff" d="M832.15,-110.09C856.23,-101.49 892.73,-88.44 919.86,-78.75"/>
<polygon fill="#63b8ff" stroke="#63b8ff" points="920.81,-82.12 929.05,-75.46 918.46,-75.53 920.81,-82.12"/>
</a>
</g>
</g>
<!-- Node24 -->
<g id="Node000024" class="node">
<title>Node24</title>
<g id="a_Node000024"><a xlink:href="NumericConcept_8hpp.html" target="_top" xlink:title="Definition of the Numeric concept.">
<polygon fill="white" stroke="#666666" points="631.5,-196.25 520.25,-196.25 520.25,-165.75 631.5,-165.75 631.5,-196.25"/>
<text xml:space="preserve" text-anchor="start" x="528.25" y="-182.75" font-family="Helvetica,sans-Serif" font-size="10.00">RType/Math/details</text>
<text xml:space="preserve" text-anchor="middle" x="575.88" y="-171.5" font-family="Helvetica,sans-Serif" font-size="10.00">/NumericConcept.hpp</text>
</a>
</g>
</g>
<!-- Node23&#45;&gt;Node24 -->
<g id="edge33_Node000023_Node000024" class="edge">
<title>Node23&#45;&gt;Node24</title>
<g id="a_edge33_Node000023_Node000024"><a xlink:title=" ">
<path fill="none" stroke="#63b8ff" d="M783.21,-233.83C743.12,-223.81 686.77,-209.72 642.94,-198.77"/>
<polygon fill="#63b8ff" stroke="#63b8ff" points="643.81,-195.38 633.26,-196.35 642.12,-202.17 643.81,-195.38"/>
</a>
</g>
</g>
<!-- Node26 -->
<g id="Node000026" class="node">
<title>Node26</title>
<g id="a_Node000026"><a xlink:title=" ">
<polygon fill="#e0e0e0" stroke="#999999" points="931.38,-190.62 888.38,-190.62 888.38,-171.38 931.38,-171.38 931.38,-190.62"/>
<text xml:space="preserve" text-anchor="middle" x="909.88" y="-177.12" font-family="Helvetica,sans-Serif" font-size="10.00">cmath</text>
</a>
</g>
</g>
<!-- Node23&#45;&gt;Node26 -->
<g id="edge36_Node000023_Node000026" class="edge">
<title>Node23&#45;&gt;Node26</title>
<g id="a_edge36_Node000023_Node000026"><a xlink:title=" ">
<path fill="none" stroke="#63b8ff" d="M851.12,-231.86C862.99,-221.79 878.75,-208.42 890.96,-198.06"/>
<polygon fill="#63b8ff" stroke="#63b8ff" points="892.97,-200.94 898.33,-191.8 888.44,-195.6 892.97,-200.94"/>
</a>
</g>
</g>
<!-- Node27 -->
<g id="Node000027" class="node">
<title>Node27</title>
<g id="a_Node000027"><a xlink:title=" ">
<polygon fill="#e0e0e0" stroke="#999999" points="779.62,-190.62 726.12,-190.62 726.12,-171.38 779.62,-171.38 779.62,-190.62"/>
<text xml:space="preserve" text-anchor="middle" x="752.88" y="-177.12" font-family="Helvetica,sans-Serif" font-size="10.00">iostream</text>
</a>
</g>
</g>
<!-- Node23&#45;&gt;Node27 -->
<g id="edge37_Node000023_Node000027" class="edge">
<title>Node23&#45;&gt;Node27</title>
<g id="a_edge37_Node000023_Node000027"><a xlink:title=" ">
<path fill="none" stroke="#63b8ff" d="M815.49,-231.86C802.72,-221.69 785.72,-208.16 772.66,-197.75"/>
<polygon fill="#63b8ff" stroke="#63b8ff" points="775.14,-195.26 765.14,-191.77 770.78,-200.73 775.14,-195.26"/>
</a>
</g>
</g>
<!-- Node28 -->
<g id="Node000028" class="node">
<title>Node28</title>
<g id="a_Node000028"><a xlink:href="VecBase_8tpp.html" target="_top" xlink:title=" ">
<polygon fill="white" stroke="#666666" points="870,-190.62 797.75,-190.62 797.75,-171.38 870,-171.38 870,-190.62"/>
<text xml:space="preserve" text-anchor="middle" x="833.88" y="-177.12" font-family="Helvetica,sans-Serif" font-size="10.00">VecBase.tpp</text>
</a>
</g>
</g>
<!-- Node23&#45;&gt;Node28 -->
<g id="edge38_Node000023_Node000028" class="edge">
<title>Node23&#45;&gt;Node28</title>
<g id="a_edge38_Node000023_Node000028"><a xlink:title=" ">
<path fill="none" stroke="#63b8ff" d="M833.88,-231.86C833.88,-223.08 833.88,-211.77 833.88,-202.15"/>
<polygon fill="#63b8ff" stroke="#63b8ff" points="837.38,-202.34 833.88,-192.34 830.38,-202.34 837.38,-202.34"/>
</a>
</g>
</g>
<!-- Node24&#45;&gt;Node20 -->
<g id="edge35_Node000024_Node000020" class="edge">
<title>Node24&#45;&gt;Node20</title>
<g id="a_edge35_Node000024_Node000020"><a xlink:title=" ">
<path fill="none" stroke="#63b8ff" d="M564.26,-165.45C557.86,-157.43 549.86,-147.42 543.09,-138.94"/>
<polygon fill="#63b8ff" stroke="#63b8ff" points="546.04,-137.02 537.06,-131.38 540.57,-141.38 546.04,-137.02"/>
</a>
</g>
</g>
<!-- Node25 -->
<g id="Node000025" class="node">
<title>Node25</title>
<g id="a_Node000025"><a xlink:title=" ">
<polygon fill="#e0e0e0" stroke="#999999" points="479.75,-129.75 424,-129.75 424,-110.5 479.75,-110.5 479.75,-129.75"/>
<text xml:space="preserve" text-anchor="middle" x="451.88" y="-116.25" font-family="Helvetica,sans-Serif" font-size="10.00">concepts</text>
</a>
</g>
</g>
<!-- Node24&#45;&gt;Node25 -->
<g id="edge34_Node000024_Node000025" class="edge">
<title>Node24&#45;&gt;Node25</title>
<g id="a_edge34_Node000024_Node000025"><a xlink:title=" ">
<path fill="none" stroke="#63b8ff" d="M544.9,-165.3C525.38,-156.03 500.34,-144.13 481.15,-135.02"/>
<polygon fill="#63b8ff" stroke="#63b8ff" points="482.79,-131.93 472.26,-130.8 479.79,-138.25 482.79,-131.93"/>
</a>
</g>
</g>
<!-- Node30&#45;&gt;Node3 -->
<g id="edge51_Node000030_Node000003" class="edge">
<title>Node30&#45;&gt;Node3</title>
<g id="a_edge51_Node000030_Node000003"><a xlink:title=" ">
<path fill="none" stroke="#63b8ff" d="M558.96,-359.28C566.23,-345.16 577.38,-317.43 564.88,-298.75 498.28,-199.32 382.47,-295.68 315.88,-196.25 288.23,-154.98 344.13,-105.74 377.84,-81.27"/>
<polygon fill="#63b8ff" stroke="#63b8ff" points="379.67,-84.26 385.83,-75.65 375.64,-78.54 379.67,-84.26"/>
</a>
</g>
</g>
<!-- Node30&#45;&gt;Node4 -->
<g id="edge54_Node000030_Node000004" class="edge">
<title>Node30&#45;&gt;Node4</title>
<g id="a_edge54_Node000030_Node000004"><a xlink:title=" ">
<path fill="none" stroke="#63b8ff" d="M485.19,-361.65C407.02,-353.61 275.67,-338.53 163.88,-318 162.71,-317.79 161.52,-317.56 160.32,-317.32"/>
<polygon fill="#63b8ff" stroke="#63b8ff" points="161.49,-313.99 150.98,-315.28 160,-320.83 161.49,-313.99"/>
</a>
</g>
</g>
<!-- Node30&#45;&gt;Node5 -->
<g id="edge45_Node000030_Node000005" class="edge">
<title>Node30&#45;&gt;Node5</title>
<g id="a_edge45_Node000030_Node000005"><a xlink:title=" ">
<path fill="none" stroke="#63b8ff" d="M603.67,-359.13C614.28,-357.32 625.44,-355.51 635.88,-354 773.59,-334.08 808.7,-334.39 946.88,-318 947.87,-317.88 948.88,-317.76 949.89,-317.64"/>
<polygon fill="#63b8ff" stroke="#63b8ff" points="949.9,-321.17 959.41,-316.5 949.06,-314.22 949.9,-321.17"/>
</a>
</g>
</g>
<!-- Node30&#45;&gt;Node9 -->
<g id="edge47_Node000030_Node000009" class="edge">
<title>Node30&#45;&gt;Node9</title>
<g id="a_edge47_Node000030_Node000009"><a xlink:title=" ">
<path fill="none" stroke="#63b8ff" d="M599.81,-359.18C608.78,-357.44 618.12,-355.64 626.88,-354 715.64,-337.35 742.42,-350.01 826.88,-318 895.46,-292.01 902.6,-265.7 967.88,-232.25 1004.39,-213.54 1017.65,-217.29 1052.88,-196.25 1071.47,-185.14 1072.49,-177.2 1090.88,-165.75 1122.95,-145.78 1147.06,-161.28 1167.88,-129.75 1187.58,-99.91 1182.5,-56.07 1177.12,-30.74"/>
<polygon fill="#63b8ff" stroke="#63b8ff" points="1180.55,-30.03 1174.84,-21.11 1173.74,-31.64 1180.55,-30.03"/>
</a>
</g>
</g>
<!-- Node30&#45;&gt;Node11 -->
<g id="edge52_Node000030_Node000011" class="edge">
<title>Node30&#45;&gt;Node11</title>
<g id="a_edge52_Node000030_Node000011"><a xlink:title=" ">
<path fill="none" stroke="#63b8ff" d="M581.98,-359.23C623.89,-343.82 697.88,-308.16 697.88,-248.5 697.88,-248.5 697.88,-248.5 697.88,-180 697.88,-118.86 712.39,-98.23 755.88,-55.25 771.12,-40.18 792.35,-29.7 811.24,-22.7"/>
<polygon fill="#63b8ff" stroke="#63b8ff" points="812.29,-26.04 820.6,-19.46 810.01,-19.42 812.29,-26.04"/>
</a>
</g>
</g>
<!-- Node30&#45;&gt;Node12 -->
<g id="edge53_Node000030_Node000012" class="edge">
<title>Node30&#45;&gt;Node12</title>
<g id="a_edge53_Node000030_Node000012"><a xlink:title=" ">
<path fill="none" stroke="#63b8ff" d="M485.38,-362.66C387.79,-354.09 218.13,-336.72 196.88,-318 172.84,-296.84 177.88,-280.52 177.88,-248.5 177.88,-248.5 177.88,-248.5 177.88,-119.12 177.88,-42.43 454.08,-18.33 548.6,-12.33"/>
<polygon fill="#63b8ff" stroke="#63b8ff" points="548.66,-15.83 558.43,-11.74 548.24,-8.85 548.66,-15.83"/>
</a>
</g>
</g>
<!-- Node30&#45;&gt;Node20 -->
<g id="edge57_Node000030_Node000020" class="edge">
<title>Node30&#45;&gt;Node20</title>
<g id="a_edge57_Node000030_Node000020"><a xlink:title=" ">
<path fill="none" stroke="#63b8ff" d="M569.69,-359.19C583.51,-350.43 603.01,-335.88 613.88,-318 649.56,-259.27 679.44,-222.63 640.88,-165.75 632.55,-153.48 599.13,-141.12 570.95,-132.53"/>
<polygon fill="#63b8ff" stroke="#63b8ff" points="572.1,-129.22 561.52,-129.75 570.12,-135.94 572.1,-129.22"/>
</a>
</g>
</g>
<!-- Node31 -->
<g id="Node000031" class="node">
<title>Node31</title>
<g id="a_Node000031"><a xlink:href="ComponentConcept_8hpp.html" target="_top" xlink:title="Concepts for validating component types in the ECS.">
<polygon fill="white" stroke="#666666" points="502.5,-190.62 325.25,-190.62 325.25,-171.38 502.5,-171.38 502.5,-190.62"/>
<text xml:space="preserve" text-anchor="middle" x="413.88" y="-177.12" font-family="Helvetica,sans-Serif" font-size="10.00">RType/ECS/ComponentConcept.hpp</text>
</a>
</g>
</g>
<!-- Node30&#45;&gt;Node31 -->
<g id="edge41_Node000030_Node000031" class="edge">
<title>Node30&#45;&gt;Node31</title>
<g id="a_edge41_Node000030_Node000031"><a xlink:title=" ">
<path fill="none" stroke="#63b8ff" d="M566.76,-359.25C583.77,-346.2 610.19,-321.15 597.88,-298.75 567.71,-243.89 499.66,-211.17 455.31,-194.89"/>
<polygon fill="#63b8ff" stroke="#63b8ff" points="456.6,-191.64 446.01,-191.61 454.27,-198.24 456.6,-191.64"/>
</a>
</g>
</g>
<!-- Node33 -->
<g id="Node000033" class="node">
<title>Node33</title>
<g id="a_Node000033"><a xlink:title=" ">
<polygon fill="#e0e0e0" stroke="#999999" points="754.27,-318 725.48,-318 725.48,-298.75 754.27,-298.75 754.27,-318"/>
<text xml:space="preserve" text-anchor="middle" x="739.88" y="-304.5" font-family="Helvetica,sans-Serif" font-size="10.00">bit</text>
</a>
</g>
</g>
<!-- Node30&#45;&gt;Node33 -->
<g id="edge46_Node000030_Node000033" class="edge">
<title>Node30&#45;&gt;Node33</title>
<g id="a_edge46_Node000030_Node000033"><a xlink:title=" ">
<path fill="none" stroke="#63b8ff" d="M582.53,-359.18C618.6,-347.76 680.01,-328.33 714.47,-317.42"/>
<polygon fill="#63b8ff" stroke="#63b8ff" points="715.13,-320.88 723.61,-314.52 713.02,-314.2 715.13,-320.88"/>
</a>
</g>
</g>
<!-- Node34 -->
<g id="Node000034" class="node">
<title>Node34</title>
<g id="a_Node000034"><a xlink:title=" ">
<polygon fill="#e0e0e0" stroke="#999999" points="817.5,-318 772.25,-318 772.25,-298.75 817.5,-298.75 817.5,-318"/>
<text xml:space="preserve" text-anchor="middle" x="794.88" y="-304.5" font-family="Helvetica,sans-Serif" font-size="10.00">cstring</text>
</a>
</g>
</g>
<!-- Node30&#45;&gt;Node34 -->
<g id="edge48_Node000030_Node000034" class="edge">
<title>Node30&#45;&gt;Node34</title>
<g id="a_edge48_Node000030_Node000034"><a xlink:title=" ">
<path fill="none" stroke="#63b8ff" d="M592.86,-359.21C632.68,-349.91 696.56,-334.78 761.05,-318.41"/>
<polygon fill="#63b8ff" stroke="#63b8ff" points="761.53,-321.9 770.36,-316.04 759.8,-315.12 761.53,-321.9"/>
</a>
</g>
</g>
<!-- Node35 -->
<g id="Node000035" class="node">
<title>Node35</title>
<g id="a_Node000035"><a xlink:title=" ">
<polygon fill="#e0e0e0" stroke="#999999" points="243.38,-318 206.38,-318 206.38,-298.75 243.38,-298.75 243.38,-318"/>
<text xml:space="preserve" text-anchor="middle" x="224.88" y="-304.5" font-family="Helvetica,sans-Serif" font-size="10.00">span</text>
</a>
</g>
</g>
<!-- Node30&#45;&gt;Node35 -->
<g id="edge49_Node000030_Node000035" class="edge">
<title>Node30&#45;&gt;Node35</title>
<g id="a_edge49_Node000030_Node000035"><a xlink:title=" ">
<path fill="none" stroke="#63b8ff" d="M485.22,-359.45C426.44,-351.31 339.44,-337.84 254.86,-318.19"/>
<polygon fill="#63b8ff" stroke="#63b8ff" points="255.77,-314.8 245.23,-315.91 254.16,-321.62 255.77,-314.8"/>
</a>
</g>
</g>
<!-- Node36 -->
<g id="Node000036" class="node">
<title>Node36</title>
<g id="a_Node000036"><a xlink:title=" ">
<polygon fill="#e0e0e0" stroke="#999999" points="320.25,-318 261.5,-318 261.5,-298.75 320.25,-298.75 320.25,-318"/>
<text xml:space="preserve" text-anchor="middle" x="290.88" y="-304.5" font-family="Helvetica,sans-Serif" font-size="10.00">stdexcept</text>
</a>
</g>
</g>
<!-- Node30&#45;&gt;Node36 -->
<g id="edge50_Node000030_Node000036" class="edge">
<title>Node30&#45;&gt;Node36</title>
<g id="a_edge50_Node000030_Node000036"><a xlink:title=" ">
<path fill="none" stroke="#63b8ff" d="M513.22,-359.21C470.44,-349.7 400.83,-334.18 331.81,-318.66"/>
<polygon fill="#63b8ff" stroke="#63b8ff" points="332.74,-315.28 322.22,-316.5 331.21,-322.11 332.74,-315.28"/>
</a>
</g>
</g>
<!-- Node37 -->
<g id="Node000037" class="node">
<title>Node37</title>
<g id="a_Node000037"><a xlink:title=" ">
<polygon fill="#e0e0e0" stroke="#999999" points="417.75,-318 338,-318 338,-298.75 417.75,-298.75 417.75,-318"/>
<text xml:space="preserve" text-anchor="middle" x="377.88" y="-304.5" font-family="Helvetica,sans-Serif" font-size="10.00">asio/buffer.hpp</text>
</a>
</g>
</g>
<!-- Node30&#45;&gt;Node37 -->
<g id="edge55_Node000030_Node000037" class="edge">
<title>Node30&#45;&gt;Node37</title>
<g id="a_edge55_Node000030_Node000037"><a xlink:title=" ">
<path fill="none" stroke="#63b8ff" d="M526.76,-359.18C497.05,-349.24 449.17,-333.22 415.75,-322.04"/>
<polygon fill="#63b8ff" stroke="#63b8ff" points="417.05,-318.79 406.46,-318.94 414.83,-325.43 417.05,-318.79"/>
</a>
</g>
</g>
<!-- Node38 -->
<g id="Node000038" class="node">
<title>Node38</title>
<g id="a_Node000038"><a xlink:title=" ">
<polygon fill="#e0e0e0" stroke="#999999" points="473.75,-318 436,-318 436,-298.75 473.75,-298.75 473.75,-318"/>
<text xml:space="preserve" text-anchor="middle" x="454.88" y="-304.5" font-family="Helvetica,sans-Serif" font-size="10.00">array</text>
</a>
</g>
</g>
<!-- Node30&#45;&gt;Node38 -->
<g id="edge56_Node000030_Node000038" class="edge">
<title>Node30&#45;&gt;Node38</title>
<g id="a_edge56_Node000030_Node000038"><a xlink:title=" ">
<path fill="none" stroke="#63b8ff" d="M538.84,-359.31C523.21,-350.01 498.49,-335.31 479.91,-324.26"/>
<polygon fill="#63b8ff" stroke="#63b8ff" points="481.74,-321.28 471.35,-319.17 478.16,-327.29 481.74,-321.28"/>
</a>
</g>
</g>
<!-- Node39 -->
<g id="Node000039" class="node">
<title>Node39</title>
<g id="a_Node000039"><a xlink:href="Packet_8tpp.html" target="_top" xlink:title=" ">
<polygon fill="white" stroke="#666666" points="555.5,-318 492.25,-318 492.25,-298.75 555.5,-298.75 555.5,-318"/>
<text xml:space="preserve" text-anchor="middle" x="523.88" y="-304.5" font-family="Helvetica,sans-Serif" font-size="10.00">Packet.tpp</text>
</a>
</g>
</g>
<!-- Node30&#45;&gt;Node39 -->
<g id="edge58_Node000030_Node000039" class="edge">
<title>Node30&#45;&gt;Node39</title>
<g id="a_edge58_Node000030_Node000039"><a xlink:title=" ">
<path fill="none" stroke="#63b8ff" d="M549.32,-359.31C545.18,-351.18 538.93,-338.92 533.66,-328.58"/>
<polygon fill="#63b8ff" stroke="#63b8ff" points="536.82,-327.07 529.16,-319.75 530.58,-330.25 536.82,-327.07"/>
</a>
</g>
</g>
<!-- Node31&#45;&gt;Node20 -->
<g id="edge43_Node000031_Node000020" class="edge">
<title>Node31&#45;&gt;Node20</title>
<g id="a_edge43_Node000031_Node000020"><a xlink:title=" ">
<path fill="none" stroke="#63b8ff" d="M431.34,-171.06C449.92,-161.55 479.56,-146.37 501.29,-135.25"/>
<polygon fill="#63b8ff" stroke="#63b8ff" points="502.59,-138.51 509.9,-130.84 499.4,-132.28 502.59,-138.51"/>
</a>
</g>
</g>
<!-- Node31&#45;&gt;Node25 -->
<g id="edge42_Node000031_Node000025" class="edge">
<title>Node31&#45;&gt;Node25</title>
<g id="a_edge42_Node000031_Node000025"><a xlink:title=" ">
<path fill="none" stroke="#63b8ff" d="M419.65,-171.06C425,-162.76 433.14,-150.14 439.9,-139.67"/>
<polygon fill="#63b8ff" stroke="#63b8ff" points="442.75,-141.72 445.23,-131.42 436.86,-137.93 442.75,-141.72"/>
</a>
</g>
</g>
<!-- Node32 -->
<g id="Node000032" class="node">
<title>Node32</title>
<g id="a_Node000032"><a xlink:title=" ">
<polygon fill="#e0e0e0" stroke="#999999" points="406,-129.75 357.75,-129.75 357.75,-110.5 406,-110.5 406,-129.75"/>
<text xml:space="preserve" text-anchor="middle" x="381.88" y="-116.25" font-family="Helvetica,sans-Serif" font-size="10.00">cstddef</text>
</a>
</g>
</g>
<!-- Node31&#45;&gt;Node32 -->
<g id="edge44_Node000031_Node000032" class="edge">
<title>Node31&#45;&gt;Node32</title>
<g id="a_edge44_Node000031_Node000032"><a xlink:title=" ">
<path fill="none" stroke="#63b8ff" d="M409.01,-171.06C404.55,-162.85 397.79,-150.41 392.13,-140"/>
<polygon fill="#63b8ff" stroke="#63b8ff" points="395.35,-138.6 387.5,-131.48 389.2,-141.94 395.35,-138.6"/>
</a>
</g>
</g>
<!-- Node41&#45;&gt;Node9 -->
<g id="edge61_Node000041_Node000009" class="edge">
<title>Node41&#45;&gt;Node9</title>
<g id="a_edge61_Node000041_Node000009"><a xlink:title=" ">
<path fill="none" stroke="#63b8ff" d="M1239.48,-232.09C1244.77,-198.84 1253.85,-115.05 1223.88,-55.25 1217.98,-43.48 1207.46,-33.55 1197.43,-26.07"/>
<polygon fill="#63b8ff" stroke="#63b8ff" points="1199.58,-23.3 1189.36,-20.52 1195.62,-29.07 1199.58,-23.3"/>
</a>
</g>
</g>
</g>
</svg>

<g id="navigator" transform="translate(0 0)" fill="#404254">
  <rect fill="#f2f5e9" fill-opacity="0.5" stroke="#606060" stroke-width=".5" x="0" y="0" width="60" height="60"/>
  <use id="zoomplus" xlink:href="#zoomPlus" x="17" y="9" onmousedown="handleZoom(evt,'in')"/>
  <use id="zoomminus" xlink:href="#zoomMin" x="42" y="9" onmousedown="handleZoom(evt,'out')"/>
  <use id="reset" xlink:href="#resetDef" x="30" y="36" onmousedown="handleReset()"/>
   <use id="arrowup" xlink:href="#arrowUp" x="0" y="0" onmousedown="handlePan(0,-1)"/>
  <use id="arrowright" xlink:href="#arrowRight" x="0" y="0" onmousedown="handlePan(1,0)"/>
  <use id="arrowdown" xlink:href="#arrowDown" x="0" y="0" onmousedown="handlePan(0,1)"/>
  <use id="arrowleft" xlink:href="#arrowLeft" x="0" y="0" onmousedown="handlePan(-1,0)"/>
</g>
<svg viewBox="0 0 15 15" width="100%" height="30px" preserveAspectRatio="xMaxYMin meet">
 <g id="arrow_out" transform="scale(0.3 0.3)">
  <a xlink:href="LevelData_8hpp__incl_org.svg" target="_base">
   <rect id="button" ry="5" rx="5" y="6" x="6" height="38" width="38"
        fill="#f2f5e9" fill-opacity="0.5" stroke="#606060" stroke-width="1.0"/>
   <path id="arrow"
     d="M 11.500037,31.436501 C 11.940474,20.09759 22.043105,11.32322 32.158766,21.979434 L 37.068811,17.246167 C 37.068811,17.246167 37.088388,32 37.088388,32 L 22.160133,31.978069 C 22.160133,31.978069 26.997745,27.140456 26.997745,27.140456 C 18.528582,18.264221 13.291696,25.230495 11.500037,31.436501 z"
     style="fill:#404040;"/>
  </a>
 </g>
</svg>

<style type='text/css'>
<![CDATA[
[data-mouse-over-selected='false'] { opacity: 0.7; }
[data-mouse-over-selected='true']  { opacity: 1.0; }
]]>
</style>
<script type="application/ecmascript"><![CDATA[
document.addEventListener('DOMContentLoaded', (event) => {
  highlightEdges();
  highlightAdjacentNodes();
});
]]></script>
</svg>
