<?xml version="1.0" encoding="UTF-8" standalone="no"?>
<!DOCTYPE svg PUBLIC "-//W3C//DTD SVG 1.1//EN"
 "http://www.w3.org/Graphics/SVG/1.1/DTD/svg11.dtd">
<!-- Generated by graphviz version 14.0.5 (20251129.0259)
 -->
<!-- Title: server/include/Game/LevelData.hpp Pages: 1 -->
<svg width="466pt" height="227pt"
 viewBox="0.00 0.00 466.00 227.00" xmlns="http://www.w3.org/2000/svg" xmlns:xlink="http://www.w3.org/1999/xlink">
<g id="graph0" class="graph" transform="scale(1 1) rotate(0) translate(4 222.75)">
<title>server/include/Game/LevelData.hpp</title>
<!-- Node1 -->
<g id="Node000001" class="node">
<title>Node1</title>
<g id="a_Node000001"><a xlink:title=" ">
<polygon fill="#999999" stroke="#666666" points="355.75,-218.75 249.75,-218.75 249.75,-188.25 355.75,-188.25 355.75,-218.75"/>
<text xml:space="preserve" text-anchor="start" x="257.75" y="-205.25" font-family="Helvetica,sans-Serif" font-size="10.00">server/include/Game</text>
<text xml:space="preserve" text-anchor="middle" x="302.75" y="-194" font-family="Helvetica,sans-Serif" font-size="10.00">/LevelData.hpp</text>
</a>
</g>
</g>
<!-- Node2 -->
<g id="Node000002" class="node">
<title>Node2</title>
<g id="a_Node000002"><a xlink:href="LevelSystem_8hpp.html" target="_top" xlink:title=" ">
<polygon fill="white" stroke="#666666" points="285.12,-152.25 166.38,-152.25 166.38,-121.75 285.12,-121.75 285.12,-152.25"/>
<text xml:space="preserve" text-anchor="start" x="174.38" y="-138.75" font-family="Helvetica,sans-Serif" font-size="10.00">server/include/Systems</text>
<text xml:space="preserve" text-anchor="middle" x="225.75" y="-127.5" font-family="Helvetica,sans-Serif" font-size="10.00">/LevelSystem.hpp</text>
</a>
</g>
</g>
<!-- Node1&#45;&gt;Node2 -->
<g id="edge1_Node000001_Node000002" class="edge">
<title>Node1&#45;&gt;Node2</title>
<g id="a_edge1_Node000001_Node000002"><a xlink:title=" ">
<path fill="none" stroke="#63b8ff" d="M276.48,-180.49C265.47,-171.28 252.99,-160.81 243.15,-152.58"/>
<polygon fill="#63b8ff" stroke="#63b8ff" points="274.2,-183.15 284.12,-186.89 278.7,-177.79 274.2,-183.15"/>
</a>
</g>
</g>
<!-- Node7 -->
<g id="Node000007" class="node">
<title>Node7</title>
<g id="a_Node000007"><a xlink:href="LevelData_8cpp.html" target="_top" xlink:title=" ">
<polygon fill="white" stroke="#666666" points="458.12,-146.62 303.38,-146.62 303.38,-127.38 458.12,-127.38 458.12,-146.62"/>
<text xml:space="preserve" text-anchor="middle" x="380.75" y="-133.12" font-family="Helvetica,sans-Serif" font-size="10.00">server/src/Game/LevelData.cpp</text>
</a>
</g>
</g>
<!-- Node1&#45;&gt;Node7 -->
<g id="edge6_Node000001_Node000007" class="edge">
<title>Node1&#45;&gt;Node7</title>
<g id="a_edge6_Node000001_Node000007"><a xlink:title=" ">
<path fill="none" stroke="#63b8ff" d="M329.21,-180.62C343.2,-169.05 359.6,-155.49 370.08,-146.82"/>
<polygon fill="#63b8ff" stroke="#63b8ff" points="327.09,-177.83 321.62,-186.9 331.55,-183.22 327.09,-177.83"/>
</a>
</g>
</g>
<!-- Node3 -->
<g id="Node000003" class="node">
<title>Node3</title>
<g id="a_Node000003"><a xlink:href="GameManager_8hpp.html" target="_top" xlink:title=" ">
<polygon fill="white" stroke="#666666" points="217.75,-85.75 111.75,-85.75 111.75,-55.25 217.75,-55.25 217.75,-85.75"/>
<text xml:space="preserve" text-anchor="start" x="119.75" y="-72.25" font-family="Helvetica,sans-Serif" font-size="10.00">server/include/Game</text>
<text xml:space="preserve" text-anchor="middle" x="164.75" y="-61" font-family="Helvetica,sans-Serif" font-size="10.00">/GameManager.hpp</text>
</a>
</g>
</g>
<!-- Node2&#45;&gt;Node3 -->
<g id="edge2_Node000002_Node000003" class="edge">
<title>Node2&#45;&gt;Node3</title>
<g id="a_edge2_Node000002_Node000003"><a xlink:title=" ">
<path fill="none" stroke="#63b8ff" d="M204.15,-113.16C195.63,-104.15 186.09,-94.07 178.54,-86.08"/>
<polygon fill="#63b8ff" stroke="#63b8ff" points="201.45,-115.4 210.87,-120.26 206.54,-110.59 201.45,-115.4"/>
</a>
</g>
</g>
<!-- Node6 -->
<g id="Node000006" class="node">
<title>Node6</title>
<g id="a_Node000006"><a xlink:href="LevelSystem_8cpp.html" target="_top" xlink:title=" ">
<polygon fill="white" stroke="#666666" points="337.5,-85.75 236,-85.75 236,-55.25 337.5,-55.25 337.5,-85.75"/>
<text xml:space="preserve" text-anchor="start" x="244" y="-72.25" font-family="Helvetica,sans-Serif" font-size="10.00">server/src/Systems</text>
<text xml:space="preserve" text-anchor="middle" x="286.75" y="-61" font-family="Helvetica,sans-Serif" font-size="10.00">/LevelSystem.cpp</text>
</a>
</g>
</g>
<!-- Node2&#45;&gt;Node6 -->
<g id="edge5_Node000002_Node000006" class="edge">
<title>Node2&#45;&gt;Node6</title>
<g id="a_edge5_Node000002_Node000006"><a xlink:title=" ">
<path fill="none" stroke="#63b8ff" d="M247.35,-113.16C255.87,-104.15 265.41,-94.07 272.96,-86.08"/>
<polygon fill="#63b8ff" stroke="#63b8ff" points="244.96,-110.59 240.63,-120.26 250.05,-115.4 244.96,-110.59"/>
</a>
</g>
</g>
<!-- Node4 -->
<g id="Node000004" class="node">
<title>Node4</title>
<g id="a_Node000004"><a xlink:href="GameManager_8cpp.html" target="_top" xlink:title=" ">
<polygon fill="white" stroke="#666666" points="173.5,-19.25 0,-19.25 0,0 173.5,0 173.5,-19.25"/>
<text xml:space="preserve" text-anchor="middle" x="86.75" y="-5.75" font-family="Helvetica,sans-Serif" font-size="10.00">server/src/Game/GameManager.cpp</text>
</a>
</g>
</g>
<!-- Node3&#45;&gt;Node4 -->
<g id="edge3_Node000003_Node000004" class="edge">
<title>Node3&#45;&gt;Node4</title>
<g id="a_edge3_Node000003_Node000004"><a xlink:title=" ">
<path fill="none" stroke="#63b8ff" d="M136.42,-48.12C123.46,-38.33 108.79,-27.26 98.77,-19.7"/>
<polygon fill="#63b8ff" stroke="#63b8ff" points="134.17,-50.8 144.26,-54.03 138.39,-45.22 134.17,-50.8"/>
</a>
</g>
</g>
<!-- Node5 -->
<g id="Node000005" class="node">
<title>Node5</title>
<g id="a_Node000005"><a xlink:href="server_2src_2main_8cpp.html" target="_top" xlink:title=" ">
<polygon fill="white" stroke="#666666" points="293.88,-19.25 191.62,-19.25 191.62,0 293.88,0 293.88,-19.25"/>
<text xml:space="preserve" text-anchor="middle" x="242.75" y="-5.75" font-family="Helvetica,sans-Serif" font-size="10.00">server/src/main.cpp</text>
</a>
</g>
</g>
<!-- Node3&#45;&gt;Node5 -->
<g id="edge4_Node000003_Node000005" class="edge">
<title>Node3&#45;&gt;Node5</title>
<g id="a_edge4_Node000003_Node000005"><a xlink:title=" ">
<path fill="none" stroke="#63b8ff" d="M193.08,-48.12C206.04,-38.33 220.71,-27.26 230.73,-19.7"/>
<polygon fill="#63b8ff" stroke="#63b8ff" points="191.11,-45.22 185.24,-54.03 195.33,-50.8 191.11,-45.22"/>
</a>
</g>
</g>
</g>
</svg>
