<?xml version="1.0" encoding="UTF-8" standalone="no"?>
<!DOCTYPE svg PUBLIC "-//W3C//DTD SVG 1.1//EN"
 "http://www.w3.org/Graphics/SVG/1.1/DTD/svg11.dtd">
<!-- Generated by graphviz version 14.0.5 (20251129.0259)
 -->
<!-- Title: common/src/System/LibraryBackend_Win.cpp Pages: 1 -->
<svg width="883pt" height="315pt"
 viewBox="0.00 0.00 883.00 315.00" xmlns="http://www.w3.org/2000/svg" xmlns:xlink="http://www.w3.org/1999/xlink">
<g id="graph0" class="graph" transform="scale(1 1) rotate(0) translate(4 310.75)">
<title>common/src/System/LibraryBackend_Win.cpp</title>
<!-- Node1 -->
<g id="Node000001" class="node">
<title>Node1</title>
<g id="a_Node000001"><a xlink:title="Windows&#45;specific dynamic library handling implementation.">
<polygon fill="#999999" stroke="#666666" points="828.88,-306.75 689.88,-306.75 689.88,-276.25 828.88,-276.25 828.88,-306.75"/>
<text xml:space="preserve" text-anchor="start" x="697.88" y="-293.25" font-family="Helvetica,sans-Serif" font-size="10.00">common/src/System/Library</text>
<text xml:space="preserve" text-anchor="middle" x="759.38" y="-282" font-family="Helvetica,sans-Serif" font-size="10.00">Backend_Win.cpp</text>
</a>
</g>
</g>
<!-- Node2 -->
<g id="Node000002" class="node">
<title>Node2</title>
<g id="a_Node000002"><a xlink:href="Assert_8hpp.html" target="_top" xlink:title="Assertion and verification macros for runtime checks.">
<polygon fill="white" stroke="#666666" points="553.76,-240.25 459.01,-240.25 459.01,-221 553.76,-221 553.76,-240.25"/>
<text xml:space="preserve" text-anchor="middle" x="506.38" y="-226.75" font-family="Helvetica,sans-Serif" font-size="10.00">RType/Assert.hpp</text>
</a>
</g>
</g>
<!-- Node1&#45;&gt;Node2 -->
<g id="edge1_Node000001_Node000002" class="edge">
<title>Node1&#45;&gt;Node2</title>
<g id="a_edge1_Node000001_Node000002"><a xlink:title=" ">
<path fill="none" stroke="#63b8ff" d="M696.19,-275.8C653.07,-265.76 596.73,-252.65 556.66,-243.32"/>
<polygon fill="#63b8ff" stroke="#63b8ff" points="557.56,-239.94 547.03,-241.08 555.97,-246.76 557.56,-239.94"/>
</a>
</g>
</g>
<!-- Node12 -->
<g id="Node000012" class="node">
<title>Node12</title>
<g id="a_Node000012"><a xlink:title=" ">
<polygon fill="#e0e0e0" stroke="#999999" points="717.88,-74.5 644.88,-74.5 644.88,-55.25 717.88,-55.25 717.88,-74.5"/>
<text xml:space="preserve" text-anchor="middle" x="681.38" y="-61" font-family="Helvetica,sans-Serif" font-size="10.00">system_error</text>
</a>
</g>
</g>
<!-- Node1&#45;&gt;Node12 -->
<g id="edge33_Node000001_Node000012" class="edge">
<title>Node1&#45;&gt;Node12</title>
<g id="a_edge33_Node000001_Node000012"><a xlink:title=" ">
<path fill="none" stroke="#63b8ff" d="M763.58,-276.12C769.77,-252.33 779.2,-203.64 765.38,-165.75 752.73,-131.05 722.12,-100.04 701.56,-82.09"/>
<polygon fill="#63b8ff" stroke="#63b8ff" points="703.98,-79.55 694.08,-75.78 699.46,-84.9 703.98,-79.55"/>
</a>
</g>
</g>
<!-- Node20 -->
<g id="Node000020" class="node">
<title>Node20</title>
<g id="a_Node000020"><a xlink:href="LibraryBackend_8hpp.html" target="_top" xlink:title="Declarations for platform&#45;specific dynamic library handling.">
<polygon fill="white" stroke="#666666" points="738.51,-185 636.26,-185 636.26,-165.75 738.51,-165.75 738.51,-185"/>
<text xml:space="preserve" text-anchor="middle" x="687.38" y="-171.5" font-family="Helvetica,sans-Serif" font-size="10.00">LibraryBackend.hpp</text>
</a>
</g>
</g>
<!-- Node1&#45;&gt;Node20 -->
<g id="edge28_Node000001_Node000020" class="edge">
<title>Node1&#45;&gt;Node20</title>
<g id="a_edge28_Node000001_Node000020"><a xlink:title=" ">
<path fill="none" stroke="#63b8ff" d="M750.26,-276.05C737.26,-255.44 713.39,-217.6 699.1,-194.94"/>
<polygon fill="#63b8ff" stroke="#63b8ff" points="702.21,-193.32 693.91,-186.73 696.29,-197.05 702.21,-193.32"/>
</a>
</g>
</g>
<!-- Node21 -->
<g id="Node000021" class="node">
<title>Node21</title>
<g id="a_Node000021"><a xlink:title=" ">
<polygon fill="#e0e0e0" stroke="#999999" points="874.63,-240.25 812.13,-240.25 812.13,-221 874.63,-221 874.63,-240.25"/>
<text xml:space="preserve" text-anchor="middle" x="843.38" y="-226.75" font-family="Helvetica,sans-Serif" font-size="10.00">windows.h</text>
</a>
</g>
</g>
<!-- Node1&#45;&gt;Node21 -->
<g id="edge34_Node000001_Node000021" class="edge">
<title>Node1&#45;&gt;Node21</title>
<g id="a_edge34_Node000001_Node000021"><a xlink:title=" ">
<path fill="none" stroke="#63b8ff" d="M780.14,-275.95C792.57,-267.24 808.35,-256.18 821.04,-247.28"/>
<polygon fill="#63b8ff" stroke="#63b8ff" points="823.01,-250.18 829.19,-241.57 818.99,-244.44 823.01,-250.18"/>
</a>
</g>
</g>
<!-- Node3 -->
<g id="Node000003" class="node">
<title>Node3</title>
<g id="a_Node000003"><a xlink:href="Logger_8hpp.html" target="_top" xlink:title="Logger declaration with support for multiple log levels.">
<polygon fill="white" stroke="#666666" points="374.76,-185 280.01,-185 280.01,-165.75 374.76,-165.75 374.76,-185"/>
<text xml:space="preserve" text-anchor="middle" x="327.38" y="-171.5" font-family="Helvetica,sans-Serif" font-size="10.00">RType/Logger.hpp</text>
</a>
</g>
</g>
<!-- Node2&#45;&gt;Node3 -->
<g id="edge2_Node000002_Node000003" class="edge">
<title>Node2&#45;&gt;Node3</title>
<g id="a_edge2_Node000002_Node000003"><a xlink:title=" ">
<path fill="none" stroke="#63b8ff" d="M476.02,-220.59C446.57,-211.83 401.67,-198.48 368.92,-188.73"/>
<polygon fill="#63b8ff" stroke="#63b8ff" points="369.93,-185.38 359.34,-185.88 367.93,-192.09 369.93,-185.38"/>
</a>
</g>
</g>
<!-- Node19 -->
<g id="Node000019" class="node">
<title>Node19</title>
<g id="a_Node000019"><a xlink:title=" ">
<polygon fill="#e0e0e0" stroke="#999999" points="528.63,-185 484.13,-185 484.13,-165.75 528.63,-165.75 528.63,-185"/>
<text xml:space="preserve" text-anchor="middle" x="506.38" y="-171.5" font-family="Helvetica,sans-Serif" font-size="10.00">cstdlib</text>
</a>
</g>
</g>
<!-- Node2&#45;&gt;Node19 -->
<g id="edge27_Node000002_Node000019" class="edge">
<title>Node2&#45;&gt;Node19</title>
<g id="a_edge27_Node000002_Node000019"><a xlink:title=" ">
<path fill="none" stroke="#63b8ff" d="M506.38,-220.83C506.38,-214.32 506.38,-205.17 506.38,-196.87"/>
<polygon fill="#63b8ff" stroke="#63b8ff" points="509.88,-196.87 506.38,-186.87 502.88,-196.87 509.88,-196.87"/>
</a>
</g>
</g>
<!-- Node4 -->
<g id="Node000004" class="node">
<title>Node4</title>
<g id="a_Node000004"><a xlink:href="LogLevel_8hpp.html" target="_top" xlink:title="Log severity levels for the logging system.">
<polygon fill="white" stroke="#666666" points="316.01,-74.5 210.76,-74.5 210.76,-55.25 316.01,-55.25 316.01,-74.5"/>
<text xml:space="preserve" text-anchor="middle" x="263.38" y="-61" font-family="Helvetica,sans-Serif" font-size="10.00">RType/LogLevel.hpp</text>
</a>
</g>
</g>
<!-- Node3&#45;&gt;Node4 -->
<g id="edge3_Node000003_Node000004" class="edge">
<title>Node3&#45;&gt;Node4</title>
<g id="a_edge3_Node000003_Node000004"><a xlink:title=" ">
<path fill="none" stroke="#63b8ff" d="M325.21,-165.65C321.81,-152.9 314.44,-128.73 303.38,-110.5 297.34,-100.55 288.94,-90.77 281.4,-82.91"/>
<polygon fill="#63b8ff" stroke="#63b8ff" points="284.04,-80.61 274.49,-76.03 279.1,-85.56 284.04,-80.61"/>
</a>
</g>
</g>
<!-- Node6 -->
<g id="Node000006" class="node">
<title>Node6</title>
<g id="a_Node000006"><a xlink:title=" ">
<polygon fill="#e0e0e0" stroke="#999999" points="207.26,-19.25 163.51,-19.25 163.51,0 207.26,0 207.26,-19.25"/>
<text xml:space="preserve" text-anchor="middle" x="185.38" y="-5.75" font-family="Helvetica,sans-Serif" font-size="10.00">format</text>
</a>
</g>
</g>
<!-- Node3&#45;&gt;Node6 -->
<g id="edge20_Node000003_Node000006" class="edge">
<title>Node3&#45;&gt;Node6</title>
<g id="a_edge20_Node000003_Node000006"><a xlink:title=" ">
<path fill="none" stroke="#63b8ff" d="M321.2,-165.43C311.51,-151.96 291.55,-126.37 269.38,-110.5 236.69,-87.09 208.7,-107.94 186.38,-74.5 177.8,-61.65 178.26,-43.86 180.47,-30.32"/>
<polygon fill="#63b8ff" stroke="#63b8ff" points="183.83,-31.33 182.46,-20.82 176.98,-29.89 183.83,-31.33"/>
</a>
</g>
</g>
<!-- Node7 -->
<g id="Node000007" class="node">
<title>Node7</title>
<g id="a_Node000007"><a xlink:title=" ">
<polygon fill="#e0e0e0" stroke="#999999" points="567.13,-19.25 501.63,-19.25 501.63,0 567.13,0 567.13,-19.25"/>
<text xml:space="preserve" text-anchor="middle" x="534.38" y="-5.75" font-family="Helvetica,sans-Serif" font-size="10.00">string_view</text>
</a>
</g>
</g>
<!-- Node3&#45;&gt;Node7 -->
<g id="edge23_Node000003_Node000007" class="edge">
<title>Node3&#45;&gt;Node7</title>
<g id="a_edge23_Node000003_Node000007"><a xlink:title=" ">
<path fill="none" stroke="#63b8ff" d="M375.19,-173.1C439.24,-168.46 550.28,-149.38 597.38,-74.5 609.62,-55.04 586.8,-36.78 565.28,-24.81"/>
<polygon fill="#63b8ff" stroke="#63b8ff" points="567.12,-21.83 556.64,-20.32 563.89,-28.04 567.12,-21.83"/>
</a>
</g>
</g>
<!-- Node8 -->
<g id="Node000008" class="node">
<title>Node8</title>
<g id="a_Node000008"><a xlink:title=" ">
<polygon fill="#e0e0e0" stroke="#999999" points="145.01,-19.25 105.76,-19.25 105.76,0 145.01,0 145.01,-19.25"/>
<text xml:space="preserve" text-anchor="middle" x="125.38" y="-5.75" font-family="Helvetica,sans-Serif" font-size="10.00">utility</text>
</a>
</g>
</g>
<!-- Node3&#45;&gt;Node8 -->
<g id="edge25_Node000003_Node000008" class="edge">
<title>Node3&#45;&gt;Node8</title>
<g id="a_edge25_Node000003_Node000008"><a xlink:title=" ">
<path fill="none" stroke="#63b8ff" d="M279.59,-174.97C199.56,-174.84 43.81,-169.35 9.38,-129.75 -25.53,-89.6 49.95,-45.52 94.97,-23.97"/>
<polygon fill="#63b8ff" stroke="#63b8ff" points="96.44,-27.15 104.03,-19.76 93.49,-20.8 96.44,-27.15"/>
</a>
</g>
</g>
<!-- Node10 -->
<g id="Node000010" class="node">
<title>Node10</title>
<g id="a_Node000010"><a xlink:href="Error_8hpp.html" target="_top" xlink:title="Error handling system with categorized error codes.">
<polygon fill="white" stroke="#666666" points="441.63,-129.75 355.13,-129.75 355.13,-110.5 441.63,-110.5 441.63,-129.75"/>
<text xml:space="preserve" text-anchor="middle" x="398.38" y="-116.25" font-family="Helvetica,sans-Serif" font-size="10.00">RType/Error.hpp</text>
</a>
</g>
</g>
<!-- Node3&#45;&gt;Node10 -->
<g id="edge9_Node000003_Node000010" class="edge">
<title>Node3&#45;&gt;Node10</title>
<g id="a_edge9_Node000003_Node000010"><a xlink:title=" ">
<path fill="none" stroke="#63b8ff" d="M339.42,-165.34C349.79,-157.57 364.98,-146.17 377.35,-136.9"/>
<polygon fill="#63b8ff" stroke="#63b8ff" points="379.4,-139.73 385.3,-130.93 375.2,-134.13 379.4,-139.73"/>
</a>
</g>
</g>
<!-- Node11 -->
<g id="Node000011" class="node">
<title>Node11</title>
<g id="a_Node000011"><a xlink:title=" ">
<polygon fill="#e0e0e0" stroke="#999999" points="588.38,-74.5 548.38,-74.5 548.38,-55.25 588.38,-55.25 588.38,-74.5"/>
<text xml:space="preserve" text-anchor="middle" x="568.38" y="-61" font-family="Helvetica,sans-Serif" font-size="10.00">string</text>
</a>
</g>
</g>
<!-- Node3&#45;&gt;Node11 -->
<g id="edge22_Node000003_Node000011" class="edge">
<title>Node3&#45;&gt;Node11</title>
<g id="a_edge22_Node000003_Node000011"><a xlink:title=" ">
<path fill="none" stroke="#63b8ff" d="M356.19,-165.27C381.43,-156.98 418.88,-143.9 450.38,-129.75 483.55,-114.85 520.14,-94.38 543.65,-80.66"/>
<polygon fill="#63b8ff" stroke="#63b8ff" points="545.32,-83.74 552.16,-75.65 541.77,-77.7 545.32,-83.74"/>
</a>
</g>
</g>
<!-- Node15 -->
<g id="Node000015" class="node">
<title>Node15</title>
<g id="a_Node000015"><a xlink:title=" ">
<polygon fill="#e0e0e0" stroke="#999999" points="680.26,-129.75 624.51,-129.75 624.51,-110.5 680.26,-110.5 680.26,-129.75"/>
<text xml:space="preserve" text-anchor="middle" x="652.38" y="-116.25" font-family="Helvetica,sans-Serif" font-size="10.00">expected</text>
</a>
</g>
</g>
<!-- Node3&#45;&gt;Node15 -->
<g id="edge19_Node000003_Node000015" class="edge">
<title>Node3&#45;&gt;Node15</title>
<g id="a_edge19_Node000003_Node000015"><a xlink:title=" ">
<path fill="none" stroke="#63b8ff" d="M375.06,-167.54C431.4,-159.31 527.92,-144.71 610.38,-129.75 611.37,-129.57 612.38,-129.38 613.39,-129.2"/>
<polygon fill="#63b8ff" stroke="#63b8ff" points="613.77,-132.69 622.92,-127.35 612.43,-125.82 613.77,-132.69"/>
</a>
</g>
</g>
<!-- Node16 -->
<g id="Node000016" class="node">
<title>Node16</title>
<g id="a_Node000016"><a xlink:title=" ">
<polygon fill="#e0e0e0" stroke="#999999" points="102.51,-129.75 18.26,-129.75 18.26,-110.5 102.51,-110.5 102.51,-129.75"/>
<text xml:space="preserve" text-anchor="middle" x="60.38" y="-116.25" font-family="Helvetica,sans-Serif" font-size="10.00">source_location</text>
</a>
</g>
</g>
<!-- Node3&#45;&gt;Node16 -->
<g id="edge21_Node000003_Node000016" class="edge">
<title>Node3&#45;&gt;Node16</title>
<g id="a_edge21_Node000003_Node000016"><a xlink:title=" ">
<path fill="none" stroke="#63b8ff" d="M281.78,-165.28C235.22,-155.99 162.97,-141.58 113.76,-131.77"/>
<polygon fill="#63b8ff" stroke="#63b8ff" points="114.68,-128.39 104.19,-129.86 113.31,-135.25 114.68,-128.39"/>
</a>
</g>
</g>
<!-- Node17 -->
<g id="Node000017" class="node">
<title>Node17</title>
<g id="a_Node000017"><a xlink:title=" ">
<polygon fill="#e0e0e0" stroke="#999999" points="182.26,-129.75 120.51,-129.75 120.51,-110.5 182.26,-110.5 182.26,-129.75"/>
<text xml:space="preserve" text-anchor="middle" x="151.38" y="-116.25" font-family="Helvetica,sans-Serif" font-size="10.00">type_traits</text>
</a>
</g>
</g>
<!-- Node3&#45;&gt;Node17 -->
<g id="edge24_Node000003_Node000017" class="edge">
<title>Node3&#45;&gt;Node17</title>
<g id="a_edge24_Node000003_Node000017"><a xlink:title=" ">
<path fill="none" stroke="#63b8ff" d="M297.52,-165.34C268.57,-156.58 224.43,-143.23 192.23,-133.48"/>
<polygon fill="#63b8ff" stroke="#63b8ff" points="193.42,-130.19 182.83,-130.64 191.39,-136.89 193.42,-130.19"/>
</a>
</g>
</g>
<!-- Node18 -->
<g id="Node000018" class="node">
<title>Node18</title>
<g id="a_Node000018"><a xlink:href="Logger_8tpp.html" target="_top" xlink:title=" ">
<polygon fill="white" stroke="#666666" points="260.88,-129.75 199.88,-129.75 199.88,-110.5 260.88,-110.5 260.88,-129.75"/>
<text xml:space="preserve" text-anchor="middle" x="230.38" y="-116.25" font-family="Helvetica,sans-Serif" font-size="10.00">Logger.tpp</text>
</a>
</g>
</g>
<!-- Node3&#45;&gt;Node18 -->
<g id="edge26_Node000003_Node000018" class="edge">
<title>Node3&#45;&gt;Node18</title>
<g id="a_edge26_Node000003_Node000018"><a xlink:title=" ">
<path fill="none" stroke="#63b8ff" d="M310.93,-165.34C296.15,-157.23 274.2,-145.18 256.95,-135.71"/>
<polygon fill="#63b8ff" stroke="#63b8ff" points="258.69,-132.68 248.24,-130.93 255.32,-138.81 258.69,-132.68"/>
</a>
</g>
</g>
<!-- Node5 -->
<g id="Node000005" class="node">
<title>Node5</title>
<g id="a_Node000005"><a xlink:title=" ">
<polygon fill="#e0e0e0" stroke="#999999" points="364.01,-19.25 318.76,-19.25 318.76,0 364.01,0 364.01,-19.25"/>
<text xml:space="preserve" text-anchor="middle" x="341.38" y="-5.75" font-family="Helvetica,sans-Serif" font-size="10.00">cstdint</text>
</a>
</g>
</g>
<!-- Node4&#45;&gt;Node5 -->
<g id="edge4_Node000004_Node000005" class="edge">
<title>Node4&#45;&gt;Node5</title>
<g id="a_edge4_Node000004_Node000005"><a xlink:title=" ">
<path fill="none" stroke="#63b8ff" d="M276.61,-54.84C288.15,-46.96 305.15,-35.36 318.83,-26.02"/>
<polygon fill="#63b8ff" stroke="#63b8ff" points="320.55,-29.08 326.83,-20.56 316.6,-23.3 320.55,-29.08"/>
</a>
</g>
</g>
<!-- Node4&#45;&gt;Node6 -->
<g id="edge5_Node000004_Node000006" class="edge">
<title>Node4&#45;&gt;Node6</title>
<g id="a_edge5_Node000004_Node000006"><a xlink:title=" ">
<path fill="none" stroke="#63b8ff" d="M250.15,-54.84C238.61,-46.96 221.61,-35.36 207.93,-26.02"/>
<polygon fill="#63b8ff" stroke="#63b8ff" points="210.16,-23.3 199.93,-20.56 206.21,-29.08 210.16,-23.3"/>
</a>
</g>
</g>
<!-- Node4&#45;&gt;Node7 -->
<g id="edge6_Node000004_Node000007" class="edge">
<title>Node4&#45;&gt;Node7</title>
<g id="a_edge6_Node000004_Node000007"><a xlink:title=" ">
<path fill="none" stroke="#63b8ff" d="M309.66,-54.78C360.29,-44.83 440.84,-29.01 490.5,-19.25"/>
<polygon fill="#63b8ff" stroke="#63b8ff" points="490.89,-22.74 500.03,-17.38 489.54,-15.87 490.89,-22.74"/>
</a>
</g>
</g>
<!-- Node4&#45;&gt;Node8 -->
<g id="edge7_Node000004_Node000008" class="edge">
<title>Node4&#45;&gt;Node8</title>
<g id="a_edge7_Node000004_Node000008"><a xlink:title=" ">
<path fill="none" stroke="#63b8ff" d="M239.97,-54.84C216.79,-45.9 181.19,-32.16 155.83,-22.37"/>
<polygon fill="#63b8ff" stroke="#63b8ff" points="157.32,-19.2 146.73,-18.86 154.8,-25.73 157.32,-19.2"/>
</a>
</g>
</g>
<!-- Node9 -->
<g id="Node000009" class="node">
<title>Node9</title>
<g id="a_Node000009"><a xlink:title=" ">
<polygon fill="#e0e0e0" stroke="#999999" points="297.26,-19.25 229.51,-19.25 229.51,0 297.26,0 297.26,-19.25"/>
<text xml:space="preserve" text-anchor="middle" x="263.38" y="-5.75" font-family="Helvetica,sans-Serif" font-size="10.00">LogLevel.inl</text>
</a>
</g>
</g>
<!-- Node4&#45;&gt;Node9 -->
<g id="edge8_Node000004_Node000009" class="edge">
<title>Node4&#45;&gt;Node9</title>
<g id="a_edge8_Node000004_Node000009"><a xlink:title=" ">
<path fill="none" stroke="#63b8ff" d="M263.38,-55.08C263.38,-48.57 263.38,-39.42 263.38,-31.12"/>
<polygon fill="#63b8ff" stroke="#63b8ff" points="266.88,-31.12 263.38,-21.12 259.88,-31.12 266.88,-31.12"/>
</a>
</g>
</g>
<!-- Node10&#45;&gt;Node4 -->
<g id="edge10_Node000010_Node000004" class="edge">
<title>Node10&#45;&gt;Node4</title>
<g id="a_edge10_Node000010_Node000004"><a xlink:title=" ">
<path fill="none" stroke="#63b8ff" d="M375.48,-110.09C353.95,-101.6 321.47,-88.79 297,-79.14"/>
<polygon fill="#63b8ff" stroke="#63b8ff" points="298.39,-75.92 287.8,-75.51 295.82,-82.43 298.39,-75.92"/>
</a>
</g>
</g>
<!-- Node10&#45;&gt;Node5 -->
<g id="edge11_Node000010_Node000005" class="edge">
<title>Node10&#45;&gt;Node5</title>
<g id="a_edge11_Node000010_Node000005"><a xlink:title=" ">
<path fill="none" stroke="#63b8ff" d="M389.89,-110.19C382.11,-101.61 370.72,-87.99 363.38,-74.5 355.82,-60.6 350.12,-43.62 346.42,-30.66"/>
<polygon fill="#63b8ff" stroke="#63b8ff" points="349.84,-29.91 343.87,-21.16 343.08,-31.72 349.84,-29.91"/>
</a>
</g>
</g>
<!-- Node10&#45;&gt;Node6 -->
<g id="edge12_Node000010_Node000006" class="edge">
<title>Node10&#45;&gt;Node6</title>
<g id="a_edge12_Node000010_Node000006"><a xlink:title=" ">
<path fill="none" stroke="#63b8ff" d="M354.74,-114.56C303.52,-108.33 222.82,-95.46 201.38,-74.5 189.86,-63.24 186.18,-45.03 185.19,-30.93"/>
<polygon fill="#63b8ff" stroke="#63b8ff" points="188.69,-30.87 184.93,-20.96 181.69,-31.05 188.69,-30.87"/>
</a>
</g>
</g>
<!-- Node10&#45;&gt;Node7 -->
<g id="edge14_Node000010_Node000007" class="edge">
<title>Node10&#45;&gt;Node7</title>
<g id="a_edge14_Node000010_Node000007"><a xlink:title=" ">
<path fill="none" stroke="#63b8ff" d="M408.03,-110.12C421.74,-97.44 447.84,-73.81 471.38,-55.25 484.37,-45.01 499.48,-34.27 511.65,-25.89"/>
<polygon fill="#63b8ff" stroke="#63b8ff" points="513.52,-28.85 519.81,-20.33 509.58,-23.07 513.52,-28.85"/>
</a>
</g>
</g>
<!-- Node10&#45;&gt;Node8 -->
<g id="edge16_Node000010_Node000008" class="edge">
<title>Node10&#45;&gt;Node8</title>
<g id="a_edge16_Node000010_Node000008"><a xlink:title=" ">
<path fill="none" stroke="#63b8ff" d="M354.74,-117.45C309.94,-114.07 239.45,-104.04 186.38,-74.5 166.35,-63.35 148.91,-43.44 137.87,-28.8"/>
<polygon fill="#63b8ff" stroke="#63b8ff" points="140.87,-26.97 132.18,-20.91 135.19,-31.07 140.87,-26.97"/>
</a>
</g>
</g>
<!-- Node10&#45;&gt;Node11 -->
<g id="edge13_Node000010_Node000011" class="edge">
<title>Node10&#45;&gt;Node11</title>
<g id="a_edge13_Node000010_Node000011"><a xlink:title=" ">
<path fill="none" stroke="#63b8ff" d="M427.22,-110.09C457.76,-100.53 505.81,-85.47 537.21,-75.64"/>
<polygon fill="#63b8ff" stroke="#63b8ff" points="538.02,-79.05 546.52,-72.72 535.93,-72.37 538.02,-79.05"/>
</a>
</g>
</g>
<!-- Node10&#45;&gt;Node12 -->
<g id="edge15_Node000010_Node000012" class="edge">
<title>Node10&#45;&gt;Node12</title>
<g id="a_edge15_Node000010_Node000012"><a xlink:title=" ">
<path fill="none" stroke="#63b8ff" d="M441.98,-110.92C493.69,-101.19 579.62,-85.02 633.24,-74.93"/>
<polygon fill="#63b8ff" stroke="#63b8ff" points="633.83,-78.38 643.01,-73.09 632.54,-71.5 633.83,-78.38"/>
</a>
</g>
</g>
<!-- Node13 -->
<g id="Node000013" class="node">
<title>Node13</title>
<g id="a_Node000013"><a xlink:title=" ">
<polygon fill="#e0e0e0" stroke="#999999" points="529.88,-74.5 480.88,-74.5 480.88,-55.25 529.88,-55.25 529.88,-74.5"/>
<text xml:space="preserve" text-anchor="middle" x="505.38" y="-61" font-family="Helvetica,sans-Serif" font-size="10.00">Error.inl</text>
</a>
</g>
</g>
<!-- Node10&#45;&gt;Node13 -->
<g id="edge17_Node000010_Node000013" class="edge">
<title>Node10&#45;&gt;Node13</title>
<g id="a_edge17_Node000010_Node000013"><a xlink:title=" ">
<path fill="none" stroke="#63b8ff" d="M416.53,-110.09C433.06,-101.87 457.72,-89.59 476.88,-80.06"/>
<polygon fill="#63b8ff" stroke="#63b8ff" points="478.39,-83.22 485.79,-75.63 475.27,-76.95 478.39,-83.22"/>
</a>
</g>
</g>
<!-- Node14 -->
<g id="Node000014" class="node">
<title>Node14</title>
<g id="a_Node000014"><a xlink:href="Error_8tpp.html" target="_top" xlink:title=" ">
<polygon fill="white" stroke="#666666" points="424.76,-74.5 372.01,-74.5 372.01,-55.25 424.76,-55.25 424.76,-74.5"/>
<text xml:space="preserve" text-anchor="middle" x="398.38" y="-61" font-family="Helvetica,sans-Serif" font-size="10.00">Error.tpp</text>
</a>
</g>
</g>
<!-- Node10&#45;&gt;Node14 -->
<g id="edge18_Node000010_Node000014" class="edge">
<title>Node10&#45;&gt;Node14</title>
<g id="a_edge18_Node000010_Node000014"><a xlink:title=" ">
<path fill="none" stroke="#63b8ff" d="M398.38,-110.33C398.38,-103.82 398.38,-94.67 398.38,-86.37"/>
<polygon fill="#63b8ff" stroke="#63b8ff" points="401.88,-86.37 398.38,-76.37 394.88,-86.37 401.88,-86.37"/>
</a>
</g>
</g>
<!-- Node20&#45;&gt;Node7 -->
<g id="edge31_Node000020_Node000007" class="edge">
<title>Node20&#45;&gt;Node7</title>
<g id="a_edge31_Node000020_Node000007"><a xlink:title=" ">
<path fill="none" stroke="#63b8ff" d="M695.63,-165.31C714.05,-143.97 754.81,-89.74 727.38,-55.25 709.16,-32.34 629.82,-20.16 578.71,-14.58"/>
<polygon fill="#63b8ff" stroke="#63b8ff" points="579.14,-11.11 568.83,-13.55 578.41,-18.07 579.14,-11.11"/>
</a>
</g>
</g>
<!-- Node20&#45;&gt;Node11 -->
<g id="edge30_Node000020_Node000011" class="edge">
<title>Node20&#45;&gt;Node11</title>
<g id="a_edge30_Node000020_Node000011"><a xlink:title=" ">
<path fill="none" stroke="#63b8ff" d="M690.68,-165.6C695.04,-152.36 700.93,-127.07 689.38,-110.5 669.33,-81.73 628.52,-71.46 599.86,-67.82"/>
<polygon fill="#63b8ff" stroke="#63b8ff" points="600.23,-64.34 589.92,-66.79 599.51,-71.3 600.23,-64.34"/>
</a>
</g>
</g>
<!-- Node20&#45;&gt;Node15 -->
<g id="edge29_Node000020_Node000015" class="edge">
<title>Node20&#45;&gt;Node15</title>
<g id="a_edge29_Node000020_Node000015"><a xlink:title=" ">
<path fill="none" stroke="#63b8ff" d="M681.6,-165.58C676.97,-158.53 670.31,-148.4 664.51,-139.58"/>
<polygon fill="#63b8ff" stroke="#63b8ff" points="667.53,-137.81 659.12,-131.37 661.68,-141.65 667.53,-137.81"/>
</a>
</g>
</g>
<!-- Node20&#45;&gt;Node20 -->
<g id="edge32_Node000020_Node000020" class="edge">
<title>Node20&#45;&gt;Node20</title>
<g id="a_edge32_Node000020_Node000020"><a xlink:title=" ">
<path fill="none" stroke="#63b8ff" d="M723.65,-185.48C741.1,-186.73 756.51,-183.36 756.51,-175.38 756.51,-169.2 747.29,-165.78 735.04,-165.13"/>
<polygon fill="#63b8ff" stroke="#63b8ff" points="735.13,-161.63 725.17,-165.25 735.21,-168.63 735.13,-161.63"/>
</a>
</g>
</g>
</g>
</svg>
