<?xml version="1.0" encoding="UTF-8" standalone="no"?>
<!DOCTYPE svg PUBLIC "-//W3C//DTD SVG 1.1//EN"
 "http://www.w3.org/Graphics/SVG/1.1/DTD/svg11.dtd">
<!-- Generated by graphviz version 14.0.5 (20251129.0259)
 -->
<!-- Title: common/src/System/LibraryBackend.hpp Pages: 1 -->
<svg width="628pt" height="105pt"
 viewBox="0.00 0.00 628.00 105.00" xmlns="http://www.w3.org/2000/svg" xmlns:xlink="http://www.w3.org/1999/xlink">
<g id="graph0" class="graph" transform="scale(1 1) rotate(0) translate(4 101)">
<title>common/src/System/LibraryBackend.hpp</title>
<!-- Node1 -->
<g id="Node000001" class="node">
<title>Node1</title>
<g id="a_Node000001"><a xlink:title="Declarations for platform&#45;specific dynamic library handling.">
<polygon fill="#999999" stroke="#666666" points="383.88,-97 244.88,-97 244.88,-66.5 383.88,-66.5 383.88,-97"/>
<text xml:space="preserve" text-anchor="start" x="252.88" y="-83.5" font-family="Helvetica,sans-Serif" font-size="10.00">common/src/System/Library</text>
<text xml:space="preserve" text-anchor="middle" x="314.38" y="-72.25" font-family="Helvetica,sans-Serif" font-size="10.00">Backend.hpp</text>
</a>
</g>
</g>
<!-- Node1&#45;&gt;Node1 -->
<g id="edge2_Node000001_Node000001" class="edge">
<title>Node1&#45;&gt;Node1</title>
<g id="a_edge2_Node000001_Node000001"><a xlink:title=" ">
<path fill="none" stroke="#63b8ff" d="M395.05,-89.99C399.33,-87.97 401.88,-85.22 401.88,-81.75 401.88,-75.91 394.67,-72.12 384.05,-70.38"/>
<polygon fill="#63b8ff" stroke="#63b8ff" points="394.16,-86.6 385.5,-92.71 396.08,-93.33 394.16,-86.6"/>
</a>
</g>
</g>
<!-- Node2 -->
<g id="Node000002" class="node">
<title>Node2</title>
<g id="a_Node000002"><a xlink:href="DynamicLibrary_8cpp.html" target="_top" xlink:title="Implementation of platform&#45;independent dynamic library wrapper.">
<polygon fill="white" stroke="#666666" points="148.75,-30.5 0,-30.5 0,0 148.75,0 148.75,-30.5"/>
<text xml:space="preserve" text-anchor="start" x="8" y="-17" font-family="Helvetica,sans-Serif" font-size="10.00">common/src/System/Dynamic</text>
<text xml:space="preserve" text-anchor="middle" x="74.38" y="-5.75" font-family="Helvetica,sans-Serif" font-size="10.00">Library.cpp</text>
</a>
</g>
</g>
<!-- Node1&#45;&gt;Node2 -->
<g id="edge1_Node000001_Node000002" class="edge">
<title>Node1&#45;&gt;Node2</title>
<g id="a_edge1_Node000001_Node000002"><a xlink:title=" ">
<path fill="none" stroke="#63b8ff" d="M248.76,-63.12C211.14,-53.01 164.49,-40.47 128.9,-30.9"/>
<polygon fill="#63b8ff" stroke="#63b8ff" points="247.59,-66.43 258.15,-65.64 249.4,-59.66 247.59,-66.43"/>
</a>
</g>
</g>
<!-- Node3 -->
<g id="Node000003" class="node">
<title>Node3</title>
<g id="a_Node000003"><a xlink:href="LibraryBackend__Unix_8cpp.html" target="_top" xlink:title="Unix&#45;based dynamic library handling implementation.">
<polygon fill="white" stroke="#666666" points="305.88,-30.5 166.88,-30.5 166.88,0 305.88,0 305.88,-30.5"/>
<text xml:space="preserve" text-anchor="start" x="174.88" y="-17" font-family="Helvetica,sans-Serif" font-size="10.00">common/src/System/Library</text>
<text xml:space="preserve" text-anchor="middle" x="236.38" y="-5.75" font-family="Helvetica,sans-Serif" font-size="10.00">Backend_Unix.cpp</text>
</a>
</g>
</g>
<!-- Node1&#45;&gt;Node3 -->
<g id="edge3_Node000001_Node000003" class="edge">
<title>Node1&#45;&gt;Node3</title>
<g id="a_edge3_Node000001_Node000003"><a xlink:title=" ">
<path fill="none" stroke="#63b8ff" d="M288.09,-59.02C276.87,-49.73 264.06,-39.15 254,-30.83"/>
<polygon fill="#63b8ff" stroke="#63b8ff" points="285.57,-61.47 295.51,-65.15 290.03,-56.08 285.57,-61.47"/>
</a>
</g>
</g>
<!-- Node4 -->
<g id="Node000004" class="node">
<title>Node4</title>
<g id="a_Node000004"><a xlink:href="LibraryBackend__Win_8cpp.html" target="_top" xlink:title="Windows&#45;specific dynamic library handling implementation.">
<polygon fill="white" stroke="#666666" points="462.88,-30.5 323.88,-30.5 323.88,0 462.88,0 462.88,-30.5"/>
<text xml:space="preserve" text-anchor="start" x="331.88" y="-17" font-family="Helvetica,sans-Serif" font-size="10.00">common/src/System/Library</text>
<text xml:space="preserve" text-anchor="middle" x="393.38" y="-5.75" font-family="Helvetica,sans-Serif" font-size="10.00">Backend_Win.cpp</text>
</a>
</g>
</g>
<!-- Node1&#45;&gt;Node4 -->
<g id="edge4_Node000001_Node000004" class="edge">
<title>Node1&#45;&gt;Node4</title>
<g id="a_edge4_Node000001_Node000004"><a xlink:title=" ">
<path fill="none" stroke="#63b8ff" d="M340.99,-59.02C352.36,-49.73 365.33,-39.15 375.52,-30.83"/>
<polygon fill="#63b8ff" stroke="#63b8ff" points="339.01,-56.12 333.47,-65.16 343.43,-61.54 339.01,-56.12"/>
</a>
</g>
</g>
<!-- Node5 -->
<g id="Node000005" class="node">
<title>Node5</title>
<g id="a_Node000005"><a xlink:href="LibraryManager_8cpp.html" target="_top" xlink:title="Implementation of the Dynamic Library Manager.">
<polygon fill="white" stroke="#666666" points="619.88,-30.5 480.88,-30.5 480.88,0 619.88,0 619.88,-30.5"/>
<text xml:space="preserve" text-anchor="start" x="488.88" y="-17" font-family="Helvetica,sans-Serif" font-size="10.00">common/src/System/Library</text>
<text xml:space="preserve" text-anchor="middle" x="550.38" y="-5.75" font-family="Helvetica,sans-Serif" font-size="10.00">Manager.cpp</text>
</a>
</g>
</g>
<!-- Node1&#45;&gt;Node5 -->
<g id="edge5_Node000001_Node000005" class="edge">
<title>Node1&#45;&gt;Node5</title>
<g id="a_edge5_Node000001_Node000005"><a xlink:title=" ">
<path fill="none" stroke="#63b8ff" d="M378.9,-63.12C415.89,-53.01 461.77,-40.47 496.76,-30.9"/>
<polygon fill="#63b8ff" stroke="#63b8ff" points="378.41,-59.62 369.68,-65.63 380.25,-66.37 378.41,-59.62"/>
</a>
</g>
</g>
</g>
</svg>
