<?xml version="1.0" encoding="UTF-8" standalone="no"?>
<!DOCTYPE svg PUBLIC "-//W3C//DTD SVG 1.1//EN"
 "http://www.w3.org/Graphics/SVG/1.1/DTD/svg11.dtd">
<!-- Generated by graphviz version 14.0.5 (20251129.0259)
 -->
<!-- Title: common/src/System/LibraryBackend.hpp Pages: 1 -->
<svg width="206pt" height="94pt"
 viewBox="0.00 0.00 206.00 94.00" xmlns="http://www.w3.org/2000/svg" xmlns:xlink="http://www.w3.org/1999/xlink">
<g id="graph0" class="graph" transform="scale(1 1) rotate(0) translate(4 89.75)">
<title>common/src/System/LibraryBackend.hpp</title>
<!-- Node1 -->
<g id="Node000001" class="node">
<title>Node1</title>
<g id="a_Node000001"><a xlink:title="Declarations for platform&#45;specific dynamic library handling.">
<polygon fill="#999999" stroke="#666666" points="163.38,-85.75 24.38,-85.75 24.38,-55.25 163.38,-55.25 163.38,-85.75"/>
<text xml:space="preserve" text-anchor="start" x="32.38" y="-72.25" font-family="Helvetica,sans-Serif" font-size="10.00">common/src/System/Library</text>
<text xml:space="preserve" text-anchor="middle" x="93.88" y="-61" font-family="Helvetica,sans-Serif" font-size="10.00">Backend.hpp</text>
</a>
</g>
</g>
<!-- Node1&#45;&gt;Node1 -->
<g id="edge4_Node000001_Node000001" class="edge">
<title>Node1&#45;&gt;Node1</title>
<g id="a_edge4_Node000001_Node000001"><a xlink:title=" ">
<path fill="none" stroke="#63b8ff" d="M163.55,-80.91C174.17,-79.32 181.38,-75.85 181.38,-70.5 181.38,-67.32 178.83,-64.81 174.55,-62.96"/>
<polygon fill="#63b8ff" stroke="#63b8ff" points="175.57,-59.61 165.01,-60.47 173.81,-66.38 175.57,-59.61"/>
</a>
</g>
</g>
<!-- Node2 -->
<g id="Node000002" class="node">
<title>Node2</title>
<g id="a_Node000002"><a xlink:title=" ">
<polygon fill="#e0e0e0" stroke="#999999" points="55.75,-19.25 0,-19.25 0,0 55.75,0 55.75,-19.25"/>
<text xml:space="preserve" text-anchor="middle" x="27.88" y="-5.75" font-family="Helvetica,sans-Serif" font-size="10.00">expected</text>
</a>
</g>
</g>
<!-- Node1&#45;&gt;Node2 -->
<g id="edge1_Node000001_Node000002" class="edge">
<title>Node1&#45;&gt;Node2</title>
<g id="a_edge1_Node000001_Node000002"><a xlink:title=" ">
<path fill="none" stroke="#63b8ff" d="M77.56,-54.95C68.19,-46.59 56.38,-36.05 46.62,-27.35"/>
<polygon fill="#63b8ff" stroke="#63b8ff" points="48.97,-24.75 39.18,-20.71 44.31,-29.98 48.97,-24.75"/>
</a>
</g>
</g>
<!-- Node3 -->
<g id="Node000003" class="node">
<title>Node3</title>
<g id="a_Node000003"><a xlink:title=" ">
<polygon fill="#e0e0e0" stroke="#999999" points="113.88,-19.25 73.88,-19.25 73.88,0 113.88,0 113.88,-19.25"/>
<text xml:space="preserve" text-anchor="middle" x="93.88" y="-5.75" font-family="Helvetica,sans-Serif" font-size="10.00">string</text>
</a>
</g>
</g>
<!-- Node1&#45;&gt;Node3 -->
<g id="edge2_Node000001_Node000003" class="edge">
<title>Node1&#45;&gt;Node3</title>
<g id="a_edge2_Node000001_Node000003"><a xlink:title=" ">
<path fill="none" stroke="#63b8ff" d="M93.88,-54.95C93.88,-47.71 93.88,-38.84 93.88,-30.94"/>
<polygon fill="#63b8ff" stroke="#63b8ff" points="97.38,-31.21 93.88,-21.21 90.38,-31.21 97.38,-31.21"/>
</a>
</g>
</g>
<!-- Node4 -->
<g id="Node000004" class="node">
<title>Node4</title>
<g id="a_Node000004"><a xlink:title=" ">
<polygon fill="#e0e0e0" stroke="#999999" points="197.62,-19.25 132.12,-19.25 132.12,0 197.62,0 197.62,-19.25"/>
<text xml:space="preserve" text-anchor="middle" x="164.88" y="-5.75" font-family="Helvetica,sans-Serif" font-size="10.00">string_view</text>
</a>
</g>
</g>
<!-- Node1&#45;&gt;Node4 -->
<g id="edge3_Node000001_Node000004" class="edge">
<title>Node1&#45;&gt;Node4</title>
<g id="a_edge3_Node000001_Node000004"><a xlink:title=" ">
<path fill="none" stroke="#63b8ff" d="M111.43,-54.95C121.72,-46.41 134.74,-35.62 145.35,-26.81"/>
<polygon fill="#63b8ff" stroke="#63b8ff" points="147.3,-29.74 152.76,-20.67 142.83,-24.36 147.3,-29.74"/>
</a>
</g>
</g>
</g>
</svg>
