<?xml version="1.0" encoding="UTF-8" standalone="no"?>
<!DOCTYPE svg PUBLIC "-//W3C//DTD SVG 1.1//EN"
 "http://www.w3.org/Graphics/SVG/1.1/DTD/svg11.dtd">
<!-- Generated by graphviz version 14.0.5 (20251129.0259)
 -->
<!-- Title: common/src/System/LibraryBackend_Unix.cpp Pages: 1 -->
<!--zoomable 315 -->

<svg id="main" version="1.1" xmlns="http://www.w3.org/2000/svg" xmlns:xlink="http://www.w3.org/1999/xlink" xml:space="preserve" onload="init(evt)">

<style type="text/css"><![CDATA[
.node, .edge {opacity: 0.7;}
.node.selected, .edge.selected {opacity: 1;}
.edge:hover path { stroke: red; }
.edge:hover polygon { stroke: red; fill: red; }
]]></style>

<defs>
  <circle id="rim" cx="0" cy="0" r="7"/>
  <circle id="rim2" cx="0" cy="0" r="3.5"/>
  <g id="zoomPlus">
    <use xlink:href="#rim" fill="#404040"><set attributeName="fill" to="#808080" begin="zoomplus.mouseover" end="zoomplus.mouseout"/></use>
    <path d="M-4,0h8M0,-4v8" fill="none" stroke="white" stroke-width="1.5" pointer-events="none"/>
  </g>
  <g id="zoomMin">
    <use xlink:href="#rim" fill="#404040"><set attributeName="fill" to="#808080" begin="zoomminus.mouseover" end="zoomminus.mouseout"/></use>
    <path d="M-4,0h8" fill="none" stroke="white" stroke-width="1.5" pointer-events="none"/>
  </g>
  <g id="arrowUp" transform="translate(30 24)">
    <use xlink:href="#rim"/>
    <path pointer-events="none" fill="none" stroke="white" stroke-width="1.5" d="M0,-3.0v7 M-2.5,-0.5L0,-3.0L2.5,-0.5"/>
  </g>
  <g id="arrowRight" transform="rotate(90) translate(36 -43)">
    <use xlink:href="#rim"/>
    <path pointer-events="none" fill="none" stroke="white" stroke-width="1.5" d="M0,-3.0v7 M-2.5,-0.5L0,-3.0L2.5,-0.5"/>
  </g>
  <g id="arrowDown" transform="rotate(180) translate(-30 -48)">
    <use xlink:href="#rim"/>
    <path pointer-events="none" fill="none" stroke="white" stroke-width="1.5" d="M0,-3.0v7 M-2.5,-0.5L0,-3.0L2.5,-0.5"/>
  </g>
  <g id="arrowLeft" transform="rotate(270) translate(-36 17)">
    <use xlink:href="#rim"/>
    <path pointer-events="none" fill="none" stroke="white" stroke-width="1.5" d="M0,-3.0v7 M-2.5,-0.5L0,-3.0L2.5,-0.5"/>
  </g>
  <g id="resetDef">
    <use xlink:href="#rim2" fill="#404040"><set attributeName="fill" to="#808080" begin="reset.mouseover" end="reset.mouseout"/></use>
  </g>
</defs>
<script type="application/ecmascript">
var viewWidth = 654;
var viewHeight = 315;
var sectionId = 'dynsection-0';
</script>
<script type="application/ecmascript" xlink:href="svg.min.js"/>
<svg id="graph" class="graph">
<g id="viewport">
<title>common/src/System/LibraryBackend_Unix.cpp</title>
<!-- Node1 -->
<g id="Node000001" class="node">
<title>Node1</title>
<g id="a_Node000001"><a xlink:title="Unix&#45;based dynamic library handling implementation.">
<polygon fill="#999999" stroke="#666666" points="592.86,-306.75 453.86,-306.75 453.86,-276.25 592.86,-276.25 592.86,-306.75"/>
<text xml:space="preserve" text-anchor="start" x="461.86" y="-293.25" font-family="Helvetica,sans-Serif" font-size="10.00">common/src/System/Library</text>
<text xml:space="preserve" text-anchor="middle" x="523.36" y="-282" font-family="Helvetica,sans-Serif" font-size="10.00">Backend_Unix.cpp</text>
</a>
</g>
</g>
<!-- Node2 -->
<g id="Node000002" class="node">
<title>Node2</title>
<g id="a_Node000002"><a xlink:href="Assert_8hpp.html" target="_top" xlink:title="Assertion and verification macros for runtime checks.">
<polygon fill="white" stroke="#666666" points="459.73,-240.25 364.98,-240.25 364.98,-221 459.73,-221 459.73,-240.25"/>
<text xml:space="preserve" text-anchor="middle" x="412.36" y="-226.75" font-family="Helvetica,sans-Serif" font-size="10.00">RType/Assert.hpp</text>
</a>
</g>
</g>
<!-- Node1&#45;&gt;Node2 -->
<g id="edge1_Node000001_Node000002" class="edge">
<title>Node1&#45;&gt;Node2</title>
<g id="a_edge1_Node000001_Node000002"><a xlink:title=" ">
<path fill="none" stroke="#63b8ff" d="M495.63,-275.8C478.41,-266.66 456.36,-254.97 439.29,-245.91"/>
<polygon fill="#63b8ff" stroke="#63b8ff" points="441.19,-242.96 430.72,-241.36 437.91,-249.14 441.19,-242.96"/>
</a>
</g>
</g>
<!-- Node20 -->
<g id="Node000020" class="node">
<title>Node20</title>
<g id="a_Node000020"><a xlink:href="LibraryBackend_8hpp.html" target="_top" xlink:title="Declarations for platform&#45;specific dynamic library handling.">
<polygon fill="white" stroke="#666666" points="628.48,-185 526.23,-185 526.23,-165.75 628.48,-165.75 628.48,-185"/>
<text xml:space="preserve" text-anchor="middle" x="577.36" y="-171.5" font-family="Helvetica,sans-Serif" font-size="10.00">LibraryBackend.hpp</text>
</a>
</g>
</g>
<!-- Node1&#45;&gt;Node20 -->
<g id="edge28_Node000001_Node000020" class="edge">
<title>Node1&#45;&gt;Node20</title>
<g id="a_edge28_Node000001_Node000020"><a xlink:title=" ">
<path fill="none" stroke="#63b8ff" d="M525.63,-275.78C528.26,-261.28 533.42,-238.77 542.36,-221 547.26,-211.24 554.49,-201.57 561.1,-193.73"/>
<polygon fill="#63b8ff" stroke="#63b8ff" points="563.64,-196.14 567.66,-186.33 558.41,-191.49 563.64,-196.14"/>
</a>
</g>
</g>
<!-- Node21 -->
<g id="Node000021" class="node">
<title>Node21</title>
<g id="a_Node000021"><a xlink:title=" ">
<polygon fill="#e0e0e0" stroke="#999999" points="596.98,-240.25 551.73,-240.25 551.73,-221 596.98,-221 596.98,-240.25"/>
<text xml:space="preserve" text-anchor="middle" x="574.36" y="-226.75" font-family="Helvetica,sans-Serif" font-size="10.00">dlfcn.h</text>
</a>
</g>
</g>
<!-- Node1&#45;&gt;Node21 -->
<g id="edge33_Node000001_Node000021" class="edge">
<title>Node1&#45;&gt;Node21</title>
<g id="a_edge33_Node000001_Node000021"><a xlink:title=" ">
<path fill="none" stroke="#63b8ff" d="M535.97,-275.95C542.98,-267.84 551.77,-257.7 559.17,-249.16"/>
<polygon fill="#63b8ff" stroke="#63b8ff" points="561.6,-251.7 565.51,-241.85 556.31,-247.11 561.6,-251.7"/>
</a>
</g>
</g>
<!-- Node3 -->
<g id="Node000003" class="node">
<title>Node3</title>
<g id="a_Node000003"><a xlink:href="Logger_8hpp.html" target="_top" xlink:title="Logger declaration with support for multiple log levels.">
<polygon fill="white" stroke="#666666" points="353.73,-185 258.98,-185 258.98,-165.75 353.73,-165.75 353.73,-185"/>
<text xml:space="preserve" text-anchor="middle" x="306.36" y="-171.5" font-family="Helvetica,sans-Serif" font-size="10.00">RType/Logger.hpp</text>
</a>
</g>
</g>
<!-- Node2&#45;&gt;Node3 -->
<g id="edge2_Node000002_Node000003" class="edge">
<title>Node2&#45;&gt;Node3</title>
<g id="a_edge2_Node000002_Node000003"><a xlink:title=" ">
<path fill="none" stroke="#63b8ff" d="M394.38,-220.59C378.01,-212.37 353.57,-200.09 334.59,-190.56"/>
<polygon fill="#63b8ff" stroke="#63b8ff" points="336.29,-187.49 325.78,-186.13 333.15,-193.75 336.29,-187.49"/>
</a>
</g>
</g>
<!-- Node19 -->
<g id="Node000019" class="node">
<title>Node19</title>
<g id="a_Node000019"><a xlink:title=" ">
<polygon fill="#e0e0e0" stroke="#999999" points="434.61,-185 390.11,-185 390.11,-165.75 434.61,-165.75 434.61,-185"/>
<text xml:space="preserve" text-anchor="middle" x="412.36" y="-171.5" font-family="Helvetica,sans-Serif" font-size="10.00">cstdlib</text>
</a>
</g>
</g>
<!-- Node2&#45;&gt;Node19 -->
<g id="edge27_Node000002_Node000019" class="edge">
<title>Node2&#45;&gt;Node19</title>
<g id="a_edge27_Node000002_Node000019"><a xlink:title=" ">
<path fill="none" stroke="#63b8ff" d="M412.36,-220.83C412.36,-214.32 412.36,-205.17 412.36,-196.87"/>
<polygon fill="#63b8ff" stroke="#63b8ff" points="415.86,-196.87 412.36,-186.87 408.86,-196.87 415.86,-196.87"/>
</a>
</g>
</g>
<!-- Node4 -->
<g id="Node000004" class="node">
<title>Node4</title>
<g id="a_Node000004"><a xlink:href="LogLevel_8hpp.html" target="_top" xlink:title="Log severity levels for the logging system.">
<polygon fill="white" stroke="#666666" points="213.98,-74.5 108.73,-74.5 108.73,-55.25 213.98,-55.25 213.98,-74.5"/>
<text xml:space="preserve" text-anchor="middle" x="161.36" y="-61" font-family="Helvetica,sans-Serif" font-size="10.00">RType/LogLevel.hpp</text>
</a>
</g>
</g>
<!-- Node3&#45;&gt;Node4 -->
<g id="edge3_Node000003_Node000004" class="edge">
<title>Node3&#45;&gt;Node4</title>
<g id="a_edge3_Node000003_Node000004"><a xlink:title=" ">
<path fill="none" stroke="#63b8ff" d="M306.15,-165.28C305.35,-151.61 301.86,-125.77 287.36,-110.5 271.02,-93.3 247.64,-82.72 225.44,-76.22"/>
<polygon fill="#63b8ff" stroke="#63b8ff" points="226.36,-72.84 215.8,-73.65 224.56,-79.6 226.36,-72.84"/>
</a>
</g>
</g>
<!-- Node6 -->
<g id="Node000006" class="node">
<title>Node6</title>
<g id="a_Node000006"><a xlink:title=" ">
<polygon fill="#e0e0e0" stroke="#999999" points="46.23,-19.25 2.48,-19.25 2.48,0 46.23,0 46.23,-19.25"/>
<text xml:space="preserve" text-anchor="middle" x="24.36" y="-5.75" font-family="Helvetica,sans-Serif" font-size="10.00">format</text>
</a>
</g>
</g>
<!-- Node3&#45;&gt;Node6 -->
<g id="edge20_Node000003_Node000006" class="edge">
<title>Node3&#45;&gt;Node6</title>
<g id="a_edge20_Node000003_Node000006"><a xlink:title=" ">
<path fill="none" stroke="#63b8ff" d="M258.71,-174.32C183.95,-173.1 44.42,-165.9 13.36,-129.75 -10.47,-102.02 3.67,-56.1 14.84,-30.11"/>
<polygon fill="#63b8ff" stroke="#63b8ff" points="17.99,-31.64 18.97,-21.09 11.62,-28.72 17.99,-31.64"/>
</a>
</g>
</g>
<!-- Node7 -->
<g id="Node000007" class="node">
<title>Node7</title>
<g id="a_Node000007"><a xlink:title=" ">
<polygon fill="#e0e0e0" stroke="#999999" points="590.11,-19.25 524.61,-19.25 524.61,0 590.11,0 590.11,-19.25"/>
<text xml:space="preserve" text-anchor="middle" x="557.36" y="-5.75" font-family="Helvetica,sans-Serif" font-size="10.00">string_view</text>
</a>
</g>
</g>
<!-- Node3&#45;&gt;Node7 -->
<g id="edge23_Node000003_Node000007" class="edge">
<title>Node3&#45;&gt;Node7</title>
<g id="a_edge23_Node000003_Node000007"><a xlink:title=" ">
<path fill="none" stroke="#63b8ff" d="M343.96,-165.33C376.07,-157.21 423.29,-144.36 463.36,-129.75 470.4,-127.18 582.29,-80.79 586.36,-74.5 595.93,-59.71 585.43,-41.25 574.48,-27.98"/>
<polygon fill="#63b8ff" stroke="#63b8ff" points="577.37,-25.96 568.09,-20.86 572.17,-30.64 577.37,-25.96"/>
</a>
</g>
</g>
<!-- Node8 -->
<g id="Node000008" class="node">
<title>Node8</title>
<g id="a_Node000008"><a xlink:title=" ">
<polygon fill="#e0e0e0" stroke="#999999" points="103.98,-19.25 64.73,-19.25 64.73,0 103.98,0 103.98,-19.25"/>
<text xml:space="preserve" text-anchor="middle" x="84.36" y="-5.75" font-family="Helvetica,sans-Serif" font-size="10.00">utility</text>
</a>
</g>
</g>
<!-- Node3&#45;&gt;Node8 -->
<g id="edge25_Node000003_Node000008" class="edge">
<title>Node3&#45;&gt;Node8</title>
<g id="a_edge25_Node000003_Node000008"><a xlink:title=" ">
<path fill="none" stroke="#63b8ff" d="M258.76,-173.93C186.83,-172.14 55.67,-164.11 26.36,-129.75 -0.62,-98.13 39.38,-51.8 65.25,-27.28"/>
<polygon fill="#63b8ff" stroke="#63b8ff" points="67.54,-29.92 72.56,-20.59 62.82,-24.76 67.54,-29.92"/>
</a>
</g>
</g>
<!-- Node10 -->
<g id="Node000010" class="node">
<title>Node10</title>
<g id="a_Node000010"><a xlink:href="Error_8hpp.html" target="_top" xlink:title="Error handling system with categorized error codes.">
<polygon fill="white" stroke="#666666" points="420.61,-129.75 334.11,-129.75 334.11,-110.5 420.61,-110.5 420.61,-129.75"/>
<text xml:space="preserve" text-anchor="middle" x="377.36" y="-116.25" font-family="Helvetica,sans-Serif" font-size="10.00">RType/Error.hpp</text>
</a>
</g>
</g>
<!-- Node3&#45;&gt;Node10 -->
<g id="edge9_Node000003_Node000010" class="edge">
<title>Node3&#45;&gt;Node10</title>
<g id="a_edge9_Node000003_Node000010"><a xlink:title=" ">
<path fill="none" stroke="#63b8ff" d="M318.4,-165.34C328.77,-157.57 343.96,-146.17 356.33,-136.9"/>
<polygon fill="#63b8ff" stroke="#63b8ff" points="358.38,-139.73 364.28,-130.93 354.18,-134.13 358.38,-139.73"/>
</a>
</g>
</g>
<!-- Node11 -->
<g id="Node000011" class="node">
<title>Node11</title>
<g id="a_Node000011"><a xlink:title=" ">
<polygon fill="#e0e0e0" stroke="#999999" points="577.36,-74.5 537.36,-74.5 537.36,-55.25 577.36,-55.25 577.36,-74.5"/>
<text xml:space="preserve" text-anchor="middle" x="557.36" y="-61" font-family="Helvetica,sans-Serif" font-size="10.00">string</text>
</a>
</g>
</g>
<!-- Node3&#45;&gt;Node11 -->
<g id="edge22_Node000003_Node000011" class="edge">
<title>Node3&#45;&gt;Node11</title>
<g id="a_edge22_Node000003_Node000011"><a xlink:title=" ">
<path fill="none" stroke="#63b8ff" d="M334.07,-165.34C359.23,-156.89 397.21,-143.55 429.36,-129.75 465.1,-114.41 505.02,-93.93 530.63,-80.34"/>
<polygon fill="#63b8ff" stroke="#63b8ff" points="532.17,-83.49 539.34,-75.69 528.87,-77.31 532.17,-83.49"/>
</a>
</g>
</g>
<!-- Node15 -->
<g id="Node000015" class="node">
<title>Node15</title>
<g id="a_Node000015"><a xlink:title=" ">
<polygon fill="#e0e0e0" stroke="#999999" points="577.23,-129.75 521.48,-129.75 521.48,-110.5 577.23,-110.5 577.23,-129.75"/>
<text xml:space="preserve" text-anchor="middle" x="549.36" y="-116.25" font-family="Helvetica,sans-Serif" font-size="10.00">expected</text>
</a>
</g>
</g>
<!-- Node3&#45;&gt;Node15 -->
<g id="edge19_Node000003_Node000015" class="edge">
<title>Node3&#45;&gt;Node15</title>
<g id="a_edge19_Node000003_Node000015"><a xlink:title=" ">
<path fill="none" stroke="#63b8ff" d="M347.86,-165.28C393.27,-155.33 465.54,-139.49 510.07,-129.73"/>
<polygon fill="#63b8ff" stroke="#63b8ff" points="510.8,-133.16 519.82,-127.6 509.31,-126.32 510.8,-133.16"/>
</a>
</g>
</g>
<!-- Node16 -->
<g id="Node000016" class="node">
<title>Node16</title>
<g id="a_Node000016"><a xlink:title=" ">
<polygon fill="#e0e0e0" stroke="#999999" points="119.48,-129.75 35.23,-129.75 35.23,-110.5 119.48,-110.5 119.48,-129.75"/>
<text xml:space="preserve" text-anchor="middle" x="77.36" y="-116.25" font-family="Helvetica,sans-Serif" font-size="10.00">source_location</text>
</a>
</g>
</g>
<!-- Node3&#45;&gt;Node16 -->
<g id="edge21_Node000003_Node000016" class="edge">
<title>Node3&#45;&gt;Node16</title>
<g id="a_edge21_Node000003_Node000016"><a xlink:title=" ">
<path fill="none" stroke="#63b8ff" d="M267.25,-165.28C228.64,-156.3 169.43,-142.53 127.4,-132.76"/>
<polygon fill="#63b8ff" stroke="#63b8ff" points="128.31,-129.38 117.78,-130.52 126.73,-136.2 128.31,-129.38"/>
</a>
</g>
</g>
<!-- Node17 -->
<g id="Node000017" class="node">
<title>Node17</title>
<g id="a_Node000017"><a xlink:title=" ">
<polygon fill="#e0e0e0" stroke="#999999" points="199.23,-129.75 137.48,-129.75 137.48,-110.5 199.23,-110.5 199.23,-129.75"/>
<text xml:space="preserve" text-anchor="middle" x="168.36" y="-116.25" font-family="Helvetica,sans-Serif" font-size="10.00">type_traits</text>
</a>
</g>
</g>
<!-- Node3&#45;&gt;Node17 -->
<g id="edge24_Node000003_Node000017" class="edge">
<title>Node3&#45;&gt;Node17</title>
<g id="a_edge24_Node000003_Node000017"><a xlink:title=" ">
<path fill="none" stroke="#63b8ff" d="M282.95,-165.34C260.84,-156.81 227.44,-143.92 202.39,-134.26"/>
<polygon fill="#63b8ff" stroke="#63b8ff" points="203.88,-131.08 193.3,-130.75 201.36,-137.61 203.88,-131.08"/>
</a>
</g>
</g>
<!-- Node18 -->
<g id="Node000018" class="node">
<title>Node18</title>
<g id="a_Node000018"><a xlink:href="Logger_8tpp.html" target="_top" xlink:title=" ">
<polygon fill="white" stroke="#666666" points="277.86,-129.75 216.86,-129.75 216.86,-110.5 277.86,-110.5 277.86,-129.75"/>
<text xml:space="preserve" text-anchor="middle" x="247.36" y="-116.25" font-family="Helvetica,sans-Serif" font-size="10.00">Logger.tpp</text>
</a>
</g>
</g>
<!-- Node3&#45;&gt;Node18 -->
<g id="edge26_Node000003_Node000018" class="edge">
<title>Node3&#45;&gt;Node18</title>
<g id="a_edge26_Node000003_Node000018"><a xlink:title=" ">
<path fill="none" stroke="#63b8ff" d="M296.35,-165.34C287.99,-157.8 275.86,-146.85 265.76,-137.73"/>
<polygon fill="#63b8ff" stroke="#63b8ff" points="268.11,-135.14 258.34,-131.04 263.42,-140.34 268.11,-135.14"/>
</a>
</g>
</g>
<!-- Node5 -->
<g id="Node000005" class="node">
<title>Node5</title>
<g id="a_Node000005"><a xlink:title=" ">
<polygon fill="#e0e0e0" stroke="#999999" points="261.98,-19.25 216.73,-19.25 216.73,0 261.98,0 261.98,-19.25"/>
<text xml:space="preserve" text-anchor="middle" x="239.36" y="-5.75" font-family="Helvetica,sans-Serif" font-size="10.00">cstdint</text>
</a>
</g>
</g>
<!-- Node4&#45;&gt;Node5 -->
<g id="edge4_Node000004_Node000005" class="edge">
<title>Node4&#45;&gt;Node5</title>
<g id="a_edge4_Node000004_Node000005"><a xlink:title=" ">
<path fill="none" stroke="#63b8ff" d="M174.59,-54.84C186.13,-46.96 203.12,-35.36 216.81,-26.02"/>
<polygon fill="#63b8ff" stroke="#63b8ff" points="218.53,-29.08 224.81,-20.56 214.58,-23.3 218.53,-29.08"/>
</a>
</g>
</g>
<!-- Node4&#45;&gt;Node6 -->
<g id="edge5_Node000004_Node000006" class="edge">
<title>Node4&#45;&gt;Node6</title>
<g id="a_edge5_Node000004_Node000006"><a xlink:title=" ">
<path fill="none" stroke="#63b8ff" d="M138.12,-54.84C115.77,-46.16 81.8,-32.95 56.8,-23.23"/>
<polygon fill="#63b8ff" stroke="#63b8ff" points="58.35,-20.08 47.76,-19.72 55.81,-26.61 58.35,-20.08"/>
</a>
</g>
</g>
<!-- Node4&#45;&gt;Node7 -->
<g id="edge6_Node000004_Node000007" class="edge">
<title>Node4&#45;&gt;Node7</title>
<g id="a_edge6_Node000004_Node000007"><a xlink:title=" ">
<path fill="none" stroke="#63b8ff" d="M214.35,-56.75C293.17,-46.15 439.86,-26.43 513.21,-16.56"/>
<polygon fill="#63b8ff" stroke="#63b8ff" points="513.39,-20.07 522.83,-15.27 512.45,-13.13 513.39,-20.07"/>
</a>
</g>
</g>
<!-- Node4&#45;&gt;Node8 -->
<g id="edge7_Node000004_Node000008" class="edge">
<title>Node4&#45;&gt;Node8</title>
<g id="a_edge7_Node000004_Node000008"><a xlink:title=" ">
<path fill="none" stroke="#63b8ff" d="M148.3,-54.84C136.9,-46.96 120.13,-35.36 106.62,-26.02"/>
<polygon fill="#63b8ff" stroke="#63b8ff" points="108.94,-23.37 98.73,-20.56 104.96,-29.13 108.94,-23.37"/>
</a>
</g>
</g>
<!-- Node9 -->
<g id="Node000009" class="node">
<title>Node9</title>
<g id="a_Node000009"><a xlink:title=" ">
<polygon fill="#e0e0e0" stroke="#999999" points="195.23,-19.25 127.48,-19.25 127.48,0 195.23,0 195.23,-19.25"/>
<text xml:space="preserve" text-anchor="middle" x="161.36" y="-5.75" font-family="Helvetica,sans-Serif" font-size="10.00">LogLevel.inl</text>
</a>
</g>
</g>
<!-- Node4&#45;&gt;Node9 -->
<g id="edge8_Node000004_Node000009" class="edge">
<title>Node4&#45;&gt;Node9</title>
<g id="a_edge8_Node000004_Node000009"><a xlink:title=" ">
<path fill="none" stroke="#63b8ff" d="M161.36,-55.08C161.36,-48.57 161.36,-39.42 161.36,-31.12"/>
<polygon fill="#63b8ff" stroke="#63b8ff" points="164.86,-31.12 161.36,-21.12 157.86,-31.12 164.86,-31.12"/>
</a>
</g>
</g>
<!-- Node10&#45;&gt;Node4 -->
<g id="edge10_Node000010_Node000004" class="edge">
<title>Node10&#45;&gt;Node4</title>
<g id="a_edge10_Node000010_Node000004"><a xlink:title=" ">
<path fill="none" stroke="#63b8ff" d="M340.72,-110.09C304.49,-101.16 248.87,-87.45 209.18,-77.66"/>
<polygon fill="#63b8ff" stroke="#63b8ff" points="210.2,-74.31 199.65,-75.31 208.52,-81.11 210.2,-74.31"/>
</a>
</g>
</g>
<!-- Node10&#45;&gt;Node5 -->
<g id="edge11_Node000010_Node000005" class="edge">
<title>Node10&#45;&gt;Node5</title>
<g id="a_edge11_Node000010_Node000005"><a xlink:title=" ">
<path fill="none" stroke="#63b8ff" d="M333.65,-111.38C309.8,-105.1 281.35,-93.97 262.36,-74.5 250.89,-62.75 245.09,-44.86 242.19,-31.01"/>
<polygon fill="#63b8ff" stroke="#63b8ff" points="245.65,-30.46 240.51,-21.19 238.75,-31.64 245.65,-30.46"/>
</a>
</g>
</g>
<!-- Node10&#45;&gt;Node6 -->
<g id="edge12_Node000010_Node000006" class="edge">
<title>Node10&#45;&gt;Node6</title>
<g id="a_edge12_Node000010_Node000006"><a xlink:title=" ">
<path fill="none" stroke="#63b8ff" d="M333.73,-114.12C257.27,-105.11 105.08,-86.02 83.36,-74.5 63.21,-63.81 46.29,-43.48 35.8,-28.62"/>
<polygon fill="#63b8ff" stroke="#63b8ff" points="38.94,-27 30.46,-20.65 33.12,-30.9 38.94,-27"/>
</a>
</g>
</g>
<!-- Node10&#45;&gt;Node7 -->
<g id="edge14_Node000010_Node000007" class="edge">
<title>Node10&#45;&gt;Node7</title>
<g id="a_edge14_Node000010_Node000007"><a xlink:title=" ">
<path fill="none" stroke="#63b8ff" d="M409.61,-110.06C433.12,-102.6 465.12,-90.63 490.36,-74.5 510.57,-61.58 530,-42 542.68,-27.93"/>
<polygon fill="#63b8ff" stroke="#63b8ff" points="545.02,-30.57 548.98,-20.74 539.76,-25.95 545.02,-30.57"/>
</a>
</g>
</g>
<!-- Node10&#45;&gt;Node8 -->
<g id="edge16_Node000010_Node000008" class="edge">
<title>Node10&#45;&gt;Node8</title>
<g id="a_edge16_Node000010_Node000008"><a xlink:title=" ">
<path fill="none" stroke="#63b8ff" d="M333.67,-114.79C259.73,-107.06 116.26,-90.24 99.36,-74.5 87.49,-63.45 84.18,-44.95 83.59,-30.69"/>
<polygon fill="#63b8ff" stroke="#63b8ff" points="87.08,-31.07 83.61,-21.07 80.08,-31.06 87.08,-31.07"/>
</a>
</g>
</g>
<!-- Node10&#45;&gt;Node11 -->
<g id="edge13_Node000010_Node000011" class="edge">
<title>Node10&#45;&gt;Node11</title>
<g id="a_edge13_Node000010_Node000011"><a xlink:title=" ">
<path fill="none" stroke="#63b8ff" d="M407.89,-110.09C440.82,-100.35 492.97,-84.92 526.16,-75.11"/>
<polygon fill="#63b8ff" stroke="#63b8ff" points="526.99,-78.51 535.59,-72.31 525.01,-71.8 526.99,-78.51"/>
</a>
</g>
</g>
<!-- Node12 -->
<g id="Node000012" class="node">
<title>Node12</title>
<g id="a_Node000012"><a xlink:title=" ">
<polygon fill="#e0e0e0" stroke="#999999" points="343.86,-74.5 270.86,-74.5 270.86,-55.25 343.86,-55.25 343.86,-74.5"/>
<text xml:space="preserve" text-anchor="middle" x="307.36" y="-61" font-family="Helvetica,sans-Serif" font-size="10.00">system_error</text>
</a>
</g>
</g>
<!-- Node10&#45;&gt;Node12 -->
<g id="edge15_Node000010_Node000012" class="edge">
<title>Node10&#45;&gt;Node12</title>
<g id="a_edge15_Node000010_Node000012"><a xlink:title=" ">
<path fill="none" stroke="#63b8ff" d="M365.48,-110.09C355.27,-102.32 340.29,-90.92 328.09,-81.65"/>
<polygon fill="#63b8ff" stroke="#63b8ff" points="330.34,-78.96 320.26,-75.69 326.1,-84.53 330.34,-78.96"/>
</a>
</g>
</g>
<!-- Node13 -->
<g id="Node000013" class="node">
<title>Node13</title>
<g id="a_Node000013"><a xlink:title=" ">
<polygon fill="#e0e0e0" stroke="#999999" points="410.86,-74.5 361.86,-74.5 361.86,-55.25 410.86,-55.25 410.86,-74.5"/>
<text xml:space="preserve" text-anchor="middle" x="386.36" y="-61" font-family="Helvetica,sans-Serif" font-size="10.00">Error.inl</text>
</a>
</g>
</g>
<!-- Node10&#45;&gt;Node13 -->
<g id="edge17_Node000010_Node000013" class="edge">
<title>Node10&#45;&gt;Node13</title>
<g id="a_edge17_Node000010_Node000013"><a xlink:title=" ">
<path fill="none" stroke="#63b8ff" d="M378.84,-110.33C379.96,-103.74 381.53,-94.46 382.94,-86.07"/>
<polygon fill="#63b8ff" stroke="#63b8ff" points="386.37,-86.8 384.59,-76.35 379.47,-85.63 386.37,-86.8"/>
</a>
</g>
</g>
<!-- Node14 -->
<g id="Node000014" class="node">
<title>Node14</title>
<g id="a_Node000014"><a xlink:href="Error_8tpp.html" target="_top" xlink:title=" ">
<polygon fill="white" stroke="#666666" points="481.73,-74.5 428.98,-74.5 428.98,-55.25 481.73,-55.25 481.73,-74.5"/>
<text xml:space="preserve" text-anchor="middle" x="455.36" y="-61" font-family="Helvetica,sans-Serif" font-size="10.00">Error.tpp</text>
</a>
</g>
</g>
<!-- Node10&#45;&gt;Node14 -->
<g id="edge18_Node000010_Node000014" class="edge">
<title>Node10&#45;&gt;Node14</title>
<g id="a_edge18_Node000010_Node000014"><a xlink:title=" ">
<path fill="none" stroke="#63b8ff" d="M390.59,-110.09C402.13,-102.21 419.12,-90.61 432.81,-81.27"/>
<polygon fill="#63b8ff" stroke="#63b8ff" points="434.53,-84.33 440.81,-75.81 430.58,-78.55 434.53,-84.33"/>
</a>
</g>
</g>
<!-- Node20&#45;&gt;Node7 -->
<g id="edge31_Node000020_Node000007" class="edge">
<title>Node20&#45;&gt;Node7</title>
<g id="a_edge31_Node000020_Node000007"><a xlink:title=" ">
<path fill="none" stroke="#63b8ff" d="M585.38,-165.37C602.47,-145.04 639.36,-94.28 619.36,-55.25 612.74,-42.34 600.46,-32.32 588.57,-25.07"/>
<polygon fill="#63b8ff" stroke="#63b8ff" points="590.56,-22.17 580.12,-20.37 587.16,-28.29 590.56,-22.17"/>
</a>
</g>
</g>
<!-- Node20&#45;&gt;Node11 -->
<g id="edge30_Node000020_Node000011" class="edge">
<title>Node20&#45;&gt;Node11</title>
<g id="a_edge30_Node000020_Node000011"><a xlink:title=" ">
<path fill="none" stroke="#63b8ff" d="M580.93,-165.52C585.46,-153.03 592.02,-129.61 586.36,-110.5 583.55,-101.01 578.01,-91.66 572.53,-83.98"/>
<polygon fill="#63b8ff" stroke="#63b8ff" points="575.39,-81.95 566.5,-76.18 569.85,-86.24 575.39,-81.95"/>
</a>
</g>
</g>
<!-- Node20&#45;&gt;Node15 -->
<g id="edge29_Node000020_Node000015" class="edge">
<title>Node20&#45;&gt;Node15</title>
<g id="a_edge29_Node000020_Node000015"><a xlink:title=" ">
<path fill="none" stroke="#63b8ff" d="M572.73,-165.58C569.11,-158.69 563.93,-148.84 559.37,-140.16"/>
<polygon fill="#63b8ff" stroke="#63b8ff" points="562.54,-138.67 554.79,-131.45 556.34,-141.93 562.54,-138.67"/>
</a>
</g>
</g>
<!-- Node20&#45;&gt;Node20 -->
<g id="edge32_Node000020_Node000020" class="edge">
<title>Node20&#45;&gt;Node20</title>
<g id="a_edge32_Node000020_Node000020"><a xlink:title=" ">
<path fill="none" stroke="#63b8ff" d="M613.63,-185.48C631.08,-186.73 646.48,-183.36 646.48,-175.38 646.48,-169.2 637.27,-165.78 625.02,-165.13"/>
<polygon fill="#63b8ff" stroke="#63b8ff" points="625.1,-161.63 615.15,-165.25 625.19,-168.63 625.1,-161.63"/>
</a>
</g>
</g>
</g>
</svg>

<g id="navigator" transform="translate(0 0)" fill="#404254">
  <rect fill="#f2f5e9" fill-opacity="0.5" stroke="#606060" stroke-width=".5" x="0" y="0" width="60" height="60"/>
  <use id="zoomplus" xlink:href="#zoomPlus" x="17" y="9" onmousedown="handleZoom(evt,'in')"/>
  <use id="zoomminus" xlink:href="#zoomMin" x="42" y="9" onmousedown="handleZoom(evt,'out')"/>
  <use id="reset" xlink:href="#resetDef" x="30" y="36" onmousedown="handleReset()"/>
   <use id="arrowup" xlink:href="#arrowUp" x="0" y="0" onmousedown="handlePan(0,-1)"/>
  <use id="arrowright" xlink:href="#arrowRight" x="0" y="0" onmousedown="handlePan(1,0)"/>
  <use id="arrowdown" xlink:href="#arrowDown" x="0" y="0" onmousedown="handlePan(0,1)"/>
  <use id="arrowleft" xlink:href="#arrowLeft" x="0" y="0" onmousedown="handlePan(-1,0)"/>
</g>
<svg viewBox="0 0 15 15" width="100%" height="30px" preserveAspectRatio="xMaxYMin meet">
 <g id="arrow_out" transform="scale(0.3 0.3)">
  <a xlink:href="LibraryBackend__Unix_8cpp__incl_org.svg" target="_base">
   <rect id="button" ry="5" rx="5" y="6" x="6" height="38" width="38"
        fill="#f2f5e9" fill-opacity="0.5" stroke="#606060" stroke-width="1.0"/>
   <path id="arrow"
     d="M 11.500037,31.436501 C 11.940474,20.09759 22.043105,11.32322 32.158766,21.979434 L 37.068811,17.246167 C 37.068811,17.246167 37.088388,32 37.088388,32 L 22.160133,31.978069 C 22.160133,31.978069 26.997745,27.140456 26.997745,27.140456 C 18.528582,18.264221 13.291696,25.230495 11.500037,31.436501 z"
     style="fill:#404040;"/>
  </a>
 </g>
</svg>

<style type='text/css'>
<![CDATA[
[data-mouse-over-selected='false'] { opacity: 0.7; }
[data-mouse-over-selected='true']  { opacity: 1.0; }
]]>
</style>
<script type="application/ecmascript"><![CDATA[
document.addEventListener('DOMContentLoaded', (event) => {
  highlightEdges();
  highlightAdjacentNodes();
});
]]></script>
</svg>
