<?xml version="1.0" encoding="UTF-8" standalone="no"?>
<!DOCTYPE svg PUBLIC "-//W3C//DTD SVG 1.1//EN"
 "http://www.w3.org/Graphics/SVG/1.1/DTD/svg11.dtd">
<!-- Generated by graphviz version 14.0.5 (20251129.0259)
 -->
<!-- Title: common/src/System/LibraryBackend.hpp Pages: 1 -->
<!--zoomable 105 -->

<svg id="main" version="1.1" xmlns="http://www.w3.org/2000/svg" xmlns:xlink="http://www.w3.org/1999/xlink" xml:space="preserve" onload="init(evt)">

<style type="text/css"><![CDATA[
.node, .edge {opacity: 0.7;}
.node.selected, .edge.selected {opacity: 1;}
.edge:hover path { stroke: red; }
.edge:hover polygon { stroke: red; fill: red; }
]]></style>

<defs>
  <circle id="rim" cx="0" cy="0" r="7"/>
  <circle id="rim2" cx="0" cy="0" r="3.5"/>
  <g id="zoomPlus">
    <use xlink:href="#rim" fill="#404040"><set attributeName="fill" to="#808080" begin="zoomplus.mouseover" end="zoomplus.mouseout"/></use>
    <path d="M-4,0h8M0,-4v8" fill="none" stroke="white" stroke-width="1.5" pointer-events="none"/>
  </g>
  <g id="zoomMin">
    <use xlink:href="#rim" fill="#404040"><set attributeName="fill" to="#808080" begin="zoomminus.mouseover" end="zoomminus.mouseout"/></use>
    <path d="M-4,0h8" fill="none" stroke="white" stroke-width="1.5" pointer-events="none"/>
  </g>
  <g id="arrowUp" transform="translate(30 24)">
    <use xlink:href="#rim"/>
    <path pointer-events="none" fill="none" stroke="white" stroke-width="1.5" d="M0,-3.0v7 M-2.5,-0.5L0,-3.0L2.5,-0.5"/>
  </g>
  <g id="arrowRight" transform="rotate(90) translate(36 -43)">
    <use xlink:href="#rim"/>
    <path pointer-events="none" fill="none" stroke="white" stroke-width="1.5" d="M0,-3.0v7 M-2.5,-0.5L0,-3.0L2.5,-0.5"/>
  </g>
  <g id="arrowDown" transform="rotate(180) translate(-30 -48)">
    <use xlink:href="#rim"/>
    <path pointer-events="none" fill="none" stroke="white" stroke-width="1.5" d="M0,-3.0v7 M-2.5,-0.5L0,-3.0L2.5,-0.5"/>
  </g>
  <g id="arrowLeft" transform="rotate(270) translate(-36 17)">
    <use xlink:href="#rim"/>
    <path pointer-events="none" fill="none" stroke="white" stroke-width="1.5" d="M0,-3.0v7 M-2.5,-0.5L0,-3.0L2.5,-0.5"/>
  </g>
  <g id="resetDef">
    <use xlink:href="#rim2" fill="#404040"><set attributeName="fill" to="#808080" begin="reset.mouseover" end="reset.mouseout"/></use>
  </g>
</defs>
<script type="application/ecmascript">
var viewWidth = 628;
var viewHeight = 105;
var sectionId = 'dynsection-1';
</script>
<script type="application/ecmascript" xlink:href="svg.min.js"/>
<svg id="graph" class="graph">
<g id="viewport">
<title>common/src/System/LibraryBackend.hpp</title>
<!-- Node1 -->
<g id="Node000001" class="node">
<title>Node1</title>
<g id="a_Node000001"><a xlink:title="Declarations for platform&#45;specific dynamic library handling.">
<polygon fill="#999999" stroke="#666666" points="383.88,-97 244.88,-97 244.88,-66.5 383.88,-66.5 383.88,-97"/>
<text xml:space="preserve" text-anchor="start" x="252.88" y="-83.5" font-family="Helvetica,sans-Serif" font-size="10.00">common/src/System/Library</text>
<text xml:space="preserve" text-anchor="middle" x="314.38" y="-72.25" font-family="Helvetica,sans-Serif" font-size="10.00">Backend.hpp</text>
</a>
</g>
</g>
<!-- Node1&#45;&gt;Node1 -->
<g id="edge2_Node000001_Node000001" class="edge">
<title>Node1&#45;&gt;Node1</title>
<g id="a_edge2_Node000001_Node000001"><a xlink:title=" ">
<path fill="none" stroke="#63b8ff" d="M395.05,-89.99C399.33,-87.97 401.88,-85.22 401.88,-81.75 401.88,-75.91 394.67,-72.12 384.05,-70.38"/>
<polygon fill="#63b8ff" stroke="#63b8ff" points="394.16,-86.6 385.5,-92.71 396.08,-93.33 394.16,-86.6"/>
</a>
</g>
</g>
<!-- Node2 -->
<g id="Node000002" class="node">
<title>Node2</title>
<g id="a_Node000002"><a xlink:href="DynamicLibrary_8cpp.html" target="_top" xlink:title="Implementation of platform&#45;independent dynamic library wrapper.">
<polygon fill="white" stroke="#666666" points="148.75,-30.5 0,-30.5 0,0 148.75,0 148.75,-30.5"/>
<text xml:space="preserve" text-anchor="start" x="8" y="-17" font-family="Helvetica,sans-Serif" font-size="10.00">common/src/System/Dynamic</text>
<text xml:space="preserve" text-anchor="middle" x="74.38" y="-5.75" font-family="Helvetica,sans-Serif" font-size="10.00">Library.cpp</text>
</a>
</g>
</g>
<!-- Node1&#45;&gt;Node2 -->
<g id="edge1_Node000001_Node000002" class="edge">
<title>Node1&#45;&gt;Node2</title>
<g id="a_edge1_Node000001_Node000002"><a xlink:title=" ">
<path fill="none" stroke="#63b8ff" d="M248.76,-63.12C211.14,-53.01 164.49,-40.47 128.9,-30.9"/>
<polygon fill="#63b8ff" stroke="#63b8ff" points="247.59,-66.43 258.15,-65.64 249.4,-59.66 247.59,-66.43"/>
</a>
</g>
</g>
<!-- Node3 -->
<g id="Node000003" class="node">
<title>Node3</title>
<g id="a_Node000003"><a xlink:href="LibraryBackend__Unix_8cpp.html" target="_top" xlink:title="Unix&#45;based dynamic library handling implementation.">
<polygon fill="white" stroke="#666666" points="305.88,-30.5 166.88,-30.5 166.88,0 305.88,0 305.88,-30.5"/>
<text xml:space="preserve" text-anchor="start" x="174.88" y="-17" font-family="Helvetica,sans-Serif" font-size="10.00">common/src/System/Library</text>
<text xml:space="preserve" text-anchor="middle" x="236.38" y="-5.75" font-family="Helvetica,sans-Serif" font-size="10.00">Backend_Unix.cpp</text>
</a>
</g>
</g>
<!-- Node1&#45;&gt;Node3 -->
<g id="edge3_Node000001_Node000003" class="edge">
<title>Node1&#45;&gt;Node3</title>
<g id="a_edge3_Node000001_Node000003"><a xlink:title=" ">
<path fill="none" stroke="#63b8ff" d="M288.09,-59.02C276.87,-49.73 264.06,-39.15 254,-30.83"/>
<polygon fill="#63b8ff" stroke="#63b8ff" points="285.57,-61.47 295.51,-65.15 290.03,-56.08 285.57,-61.47"/>
</a>
</g>
</g>
<!-- Node4 -->
<g id="Node000004" class="node">
<title>Node4</title>
<g id="a_Node000004"><a xlink:href="LibraryBackend__Win_8cpp.html" target="_top" xlink:title="Windows&#45;specific dynamic library handling implementation.">
<polygon fill="white" stroke="#666666" points="462.88,-30.5 323.88,-30.5 323.88,0 462.88,0 462.88,-30.5"/>
<text xml:space="preserve" text-anchor="start" x="331.88" y="-17" font-family="Helvetica,sans-Serif" font-size="10.00">common/src/System/Library</text>
<text xml:space="preserve" text-anchor="middle" x="393.38" y="-5.75" font-family="Helvetica,sans-Serif" font-size="10.00">Backend_Win.cpp</text>
</a>
</g>
</g>
<!-- Node1&#45;&gt;Node4 -->
<g id="edge4_Node000001_Node000004" class="edge">
<title>Node1&#45;&gt;Node4</title>
<g id="a_edge4_Node000001_Node000004"><a xlink:title=" ">
<path fill="none" stroke="#63b8ff" d="M340.99,-59.02C352.36,-49.73 365.33,-39.15 375.52,-30.83"/>
<polygon fill="#63b8ff" stroke="#63b8ff" points="339.01,-56.12 333.47,-65.16 343.43,-61.54 339.01,-56.12"/>
</a>
</g>
</g>
<!-- Node5 -->
<g id="Node000005" class="node">
<title>Node5</title>
<g id="a_Node000005"><a xlink:href="LibraryManager_8cpp.html" target="_top" xlink:title="Implementation of the Dynamic Library Manager.">
<polygon fill="white" stroke="#666666" points="619.88,-30.5 480.88,-30.5 480.88,0 619.88,0 619.88,-30.5"/>
<text xml:space="preserve" text-anchor="start" x="488.88" y="-17" font-family="Helvetica,sans-Serif" font-size="10.00">common/src/System/Library</text>
<text xml:space="preserve" text-anchor="middle" x="550.38" y="-5.75" font-family="Helvetica,sans-Serif" font-size="10.00">Manager.cpp</text>
</a>
</g>
</g>
<!-- Node1&#45;&gt;Node5 -->
<g id="edge5_Node000001_Node000005" class="edge">
<title>Node1&#45;&gt;Node5</title>
<g id="a_edge5_Node000001_Node000005"><a xlink:title=" ">
<path fill="none" stroke="#63b8ff" d="M378.9,-63.12C415.89,-53.01 461.77,-40.47 496.76,-30.9"/>
<polygon fill="#63b8ff" stroke="#63b8ff" points="378.41,-59.62 369.68,-65.63 380.25,-66.37 378.41,-59.62"/>
</a>
</g>
</g>
</g>
</svg>

<g id="navigator" transform="translate(0 0)" fill="#404254">
  <rect fill="#f2f5e9" fill-opacity="0.5" stroke="#606060" stroke-width=".5" x="0" y="0" width="60" height="60"/>
  <use id="zoomplus" xlink:href="#zoomPlus" x="17" y="9" onmousedown="handleZoom(evt,'in')"/>
  <use id="zoomminus" xlink:href="#zoomMin" x="42" y="9" onmousedown="handleZoom(evt,'out')"/>
  <use id="reset" xlink:href="#resetDef" x="30" y="36" onmousedown="handleReset()"/>
   <use id="arrowup" xlink:href="#arrowUp" x="0" y="0" onmousedown="handlePan(0,-1)"/>
  <use id="arrowright" xlink:href="#arrowRight" x="0" y="0" onmousedown="handlePan(1,0)"/>
  <use id="arrowdown" xlink:href="#arrowDown" x="0" y="0" onmousedown="handlePan(0,1)"/>
  <use id="arrowleft" xlink:href="#arrowLeft" x="0" y="0" onmousedown="handlePan(-1,0)"/>
</g>
<svg viewBox="0 0 15 15" width="100%" height="30px" preserveAspectRatio="xMaxYMin meet">
 <g id="arrow_out" transform="scale(0.3 0.3)">
  <a xlink:href="LibraryBackend_8hpp__dep__incl_org.svg" target="_base">
   <rect id="button" ry="5" rx="5" y="6" x="6" height="38" width="38"
        fill="#f2f5e9" fill-opacity="0.5" stroke="#606060" stroke-width="1.0"/>
   <path id="arrow"
     d="M 11.500037,31.436501 C 11.940474,20.09759 22.043105,11.32322 32.158766,21.979434 L 37.068811,17.246167 C 37.068811,17.246167 37.088388,32 37.088388,32 L 22.160133,31.978069 C 22.160133,31.978069 26.997745,27.140456 26.997745,27.140456 C 18.528582,18.264221 13.291696,25.230495 11.500037,31.436501 z"
     style="fill:#404040;"/>
  </a>
 </g>
</svg>

<style type='text/css'>
<![CDATA[
[data-mouse-over-selected='false'] { opacity: 0.7; }
[data-mouse-over-selected='true']  { opacity: 1.0; }
]]>
</style>
<script type="application/ecmascript"><![CDATA[
document.addEventListener('DOMContentLoaded', (event) => {
  highlightEdges();
  highlightAdjacentNodes();
});
]]></script>
</svg>
