<?xml version="1.0" encoding="UTF-8" standalone="no"?>
<!DOCTYPE svg PUBLIC "-//W3C//DTD SVG 1.1//EN"
 "http://www.w3.org/Graphics/SVG/1.1/DTD/svg11.dtd">
<!-- Generated by graphviz version 14.0.5 (20251129.0259)
 -->
<!-- Title: common/src/System/LibraryManager.cpp Pages: 1 -->
<!--zoomable 315 -->

<svg id="main" version="1.1" xmlns="http://www.w3.org/2000/svg" xmlns:xlink="http://www.w3.org/1999/xlink" xml:space="preserve" onload="init(evt)">

<style type="text/css"><![CDATA[
.node, .edge {opacity: 0.7;}
.node.selected, .edge.selected {opacity: 1;}
.edge:hover path { stroke: red; }
.edge:hover polygon { stroke: red; fill: red; }
]]></style>

<defs>
  <circle id="rim" cx="0" cy="0" r="7"/>
  <circle id="rim2" cx="0" cy="0" r="3.5"/>
  <g id="zoomPlus">
    <use xlink:href="#rim" fill="#404040"><set attributeName="fill" to="#808080" begin="zoomplus.mouseover" end="zoomplus.mouseout"/></use>
    <path d="M-4,0h8M0,-4v8" fill="none" stroke="white" stroke-width="1.5" pointer-events="none"/>
  </g>
  <g id="zoomMin">
    <use xlink:href="#rim" fill="#404040"><set attributeName="fill" to="#808080" begin="zoomminus.mouseover" end="zoomminus.mouseout"/></use>
    <path d="M-4,0h8" fill="none" stroke="white" stroke-width="1.5" pointer-events="none"/>
  </g>
  <g id="arrowUp" transform="translate(30 24)">
    <use xlink:href="#rim"/>
    <path pointer-events="none" fill="none" stroke="white" stroke-width="1.5" d="M0,-3.0v7 M-2.5,-0.5L0,-3.0L2.5,-0.5"/>
  </g>
  <g id="arrowRight" transform="rotate(90) translate(36 -43)">
    <use xlink:href="#rim"/>
    <path pointer-events="none" fill="none" stroke="white" stroke-width="1.5" d="M0,-3.0v7 M-2.5,-0.5L0,-3.0L2.5,-0.5"/>
  </g>
  <g id="arrowDown" transform="rotate(180) translate(-30 -48)">
    <use xlink:href="#rim"/>
    <path pointer-events="none" fill="none" stroke="white" stroke-width="1.5" d="M0,-3.0v7 M-2.5,-0.5L0,-3.0L2.5,-0.5"/>
  </g>
  <g id="arrowLeft" transform="rotate(270) translate(-36 17)">
    <use xlink:href="#rim"/>
    <path pointer-events="none" fill="none" stroke="white" stroke-width="1.5" d="M0,-3.0v7 M-2.5,-0.5L0,-3.0L2.5,-0.5"/>
  </g>
  <g id="resetDef">
    <use xlink:href="#rim2" fill="#404040"><set attributeName="fill" to="#808080" begin="reset.mouseover" end="reset.mouseout"/></use>
  </g>
</defs>
<script type="application/ecmascript">
var viewWidth = 927;
var viewHeight = 315;
var sectionId = 'dynsection-0';
</script>
<script type="application/ecmascript" xlink:href="svg.min.js"/>
<svg id="graph" class="graph">
<g id="viewport">
<title>common/src/System/LibraryManager.cpp</title>
<!-- Node1 -->
<g id="Node000001" class="node">
<title>Node1</title>
<g id="a_Node000001"><a xlink:title="Implementation of the Dynamic Library Manager.">
<polygon fill="#999999" stroke="#666666" points="674.5,-306.75 535.5,-306.75 535.5,-276.25 674.5,-276.25 674.5,-306.75"/>
<text xml:space="preserve" text-anchor="start" x="543.5" y="-293.25" font-family="Helvetica,sans-Serif" font-size="10.00">common/src/System/Library</text>
<text xml:space="preserve" text-anchor="middle" x="605" y="-282" font-family="Helvetica,sans-Serif" font-size="10.00">Manager.cpp</text>
</a>
</g>
</g>
<!-- Node2 -->
<g id="Node000002" class="node">
<title>Node2</title>
<g id="a_Node000002"><a xlink:href="LibraryManager_8hpp.html" target="_top" xlink:title="Declaration of the Dynamic Library Manager.">
<polygon fill="white" stroke="#666666" points="633.5,-240.25 464.5,-240.25 464.5,-221 633.5,-221 633.5,-240.25"/>
<text xml:space="preserve" text-anchor="middle" x="549" y="-226.75" font-family="Helvetica,sans-Serif" font-size="10.00">RType/System/LibraryManager.hpp</text>
</a>
</g>
</g>
<!-- Node1&#45;&gt;Node2 -->
<g id="edge1_Node000001_Node000002" class="edge">
<title>Node1&#45;&gt;Node2</title>
<g id="a_edge1_Node000001_Node000002"><a xlink:title=" ">
<path fill="none" stroke="#63b8ff" d="M591.16,-275.95C583.37,-267.76 573.6,-257.48 565.42,-248.89"/>
<polygon fill="#63b8ff" stroke="#63b8ff" points="568.1,-246.63 558.68,-241.8 563.03,-251.46 568.1,-246.63"/>
</a>
</g>
</g>
<!-- Node6 -->
<g id="Node000006" class="node">
<title>Node6</title>
<g id="a_Node000006"><a xlink:title=" ">
<polygon fill="#e0e0e0" stroke="#999999" points="59.88,-19.25 16.12,-19.25 16.12,0 59.88,0 59.88,-19.25"/>
<text xml:space="preserve" text-anchor="middle" x="38" y="-5.75" font-family="Helvetica,sans-Serif" font-size="10.00">format</text>
</a>
</g>
</g>
<!-- Node1&#45;&gt;Node6 -->
<g id="edge34_Node000001_Node000006" class="edge">
<title>Node1&#45;&gt;Node6</title>
<g id="a_edge34_Node000001_Node000006"><a xlink:title=" ">
<path fill="none" stroke="#63b8ff" d="M535.01,-284.56C375.75,-270.1 0,-230.29 0,-176.38 0,-176.38 0,-176.38 0,-119.12 0,-86.13 15.84,-50.51 27.07,-29.41"/>
<polygon fill="#63b8ff" stroke="#63b8ff" points="30.02,-31.3 31.82,-20.86 23.9,-27.9 30.02,-31.3"/>
</a>
</g>
</g>
<!-- Node20 -->
<g id="Node000020" class="node">
<title>Node20</title>
<g id="a_Node000020"><a xlink:href="LibraryBackend_8hpp.html" target="_top" xlink:title="Declarations for platform&#45;specific dynamic library handling.">
<polygon fill="white" stroke="#666666" points="901.12,-185 798.88,-185 798.88,-165.75 901.12,-165.75 901.12,-185"/>
<text xml:space="preserve" text-anchor="middle" x="850" y="-171.5" font-family="Helvetica,sans-Serif" font-size="10.00">LibraryBackend.hpp</text>
</a>
</g>
</g>
<!-- Node1&#45;&gt;Node20 -->
<g id="edge29_Node000001_Node000020" class="edge">
<title>Node1&#45;&gt;Node20</title>
<g id="a_edge29_Node000001_Node000020"><a xlink:title=" ">
<path fill="none" stroke="#63b8ff" d="M617.37,-275.77C631.44,-259.94 655.88,-235.17 682,-221 714.51,-203.37 754.39,-192.39 787.14,-185.74"/>
<polygon fill="#63b8ff" stroke="#63b8ff" points="787.76,-189.18 796.92,-183.85 786.44,-182.31 787.76,-189.18"/>
</a>
</g>
</g>
<!-- Node21 -->
<g id="Node000021" class="node">
<title>Node21</title>
<g id="a_Node000021"><a xlink:title=" ">
<polygon fill="#e0e0e0" stroke="#999999" points="733.5,-240.25 690.5,-240.25 690.5,-221 733.5,-221 733.5,-240.25"/>
<text xml:space="preserve" text-anchor="middle" x="712" y="-226.75" font-family="Helvetica,sans-Serif" font-size="10.00">mutex</text>
</a>
</g>
</g>
<!-- Node1&#45;&gt;Node21 -->
<g id="edge35_Node000001_Node000021" class="edge">
<title>Node1&#45;&gt;Node21</title>
<g id="a_edge35_Node000001_Node000021"><a xlink:title=" ">
<path fill="none" stroke="#63b8ff" d="M631.72,-275.8C648.18,-266.74 669.18,-255.19 685.58,-246.16"/>
<polygon fill="#63b8ff" stroke="#63b8ff" points="687.19,-249.27 694.26,-241.38 683.82,-243.14 687.19,-249.27"/>
</a>
</g>
</g>
<!-- Node3 -->
<g id="Node000003" class="node">
<title>Node3</title>
<g id="a_Node000003"><a xlink:href="Error_8hpp.html" target="_top" xlink:title="Error handling system with categorized error codes.">
<polygon fill="white" stroke="#666666" points="348.25,-129.75 261.75,-129.75 261.75,-110.5 348.25,-110.5 348.25,-129.75"/>
<text xml:space="preserve" text-anchor="middle" x="305" y="-116.25" font-family="Helvetica,sans-Serif" font-size="10.00">RType/Error.hpp</text>
</a>
</g>
</g>
<!-- Node2&#45;&gt;Node3 -->
<g id="edge2_Node000002_Node000003" class="edge">
<title>Node2&#45;&gt;Node3</title>
<g id="a_edge2_Node000002_Node000003"><a xlink:title=" ">
<path fill="none" stroke="#63b8ff" d="M464.22,-222.1C409,-215.52 343.53,-203.96 323,-185 310.95,-173.88 306.74,-155.38 305.37,-141.15"/>
<polygon fill="#63b8ff" stroke="#63b8ff" points="308.88,-141.34 304.86,-131.54 301.89,-141.71 308.88,-141.34"/>
</a>
</g>
</g>
<!-- Node7 -->
<g id="Node000007" class="node">
<title>Node7</title>
<g id="a_Node000007"><a xlink:title=" ">
<polygon fill="#e0e0e0" stroke="#999999" points="575.75,-19.25 510.25,-19.25 510.25,0 575.75,0 575.75,-19.25"/>
<text xml:space="preserve" text-anchor="middle" x="543" y="-5.75" font-family="Helvetica,sans-Serif" font-size="10.00">string_view</text>
</a>
</g>
</g>
<!-- Node2&#45;&gt;Node7 -->
<g id="edge27_Node000002_Node000007" class="edge">
<title>Node2&#45;&gt;Node7</title>
<g id="a_edge27_Node000002_Node000007"><a xlink:title=" ">
<path fill="none" stroke="#63b8ff" d="M633.87,-221.61C682.55,-215.06 736.94,-203.74 752,-185 809.79,-113.13 658.02,-49.5 582.6,-23.32"/>
<polygon fill="#63b8ff" stroke="#63b8ff" points="584.09,-20.12 573.5,-20.21 581.84,-26.75 584.09,-20.12"/>
</a>
</g>
</g>
<!-- Node10 -->
<g id="Node000010" class="node">
<title>Node10</title>
<g id="a_Node000010"><a xlink:title=" ">
<polygon fill="#e0e0e0" stroke="#999999" points="639,-74.5 599,-74.5 599,-55.25 639,-55.25 639,-74.5"/>
<text xml:space="preserve" text-anchor="middle" x="619" y="-61" font-family="Helvetica,sans-Serif" font-size="10.00">string</text>
</a>
</g>
</g>
<!-- Node2&#45;&gt;Node10 -->
<g id="edge26_Node000002_Node000010" class="edge">
<title>Node2&#45;&gt;Node10</title>
<g id="a_edge26_Node000002_Node000010"><a xlink:title=" ">
<path fill="none" stroke="#63b8ff" d="M553.16,-220.83C559.46,-207.99 572.26,-183.7 587,-165.75 602.18,-147.26 617.27,-151.6 627,-129.75 633.2,-115.84 630.53,-98.63 626.68,-85.59"/>
<polygon fill="#63b8ff" stroke="#63b8ff" points="630.09,-84.74 623.52,-76.42 623.47,-87.02 630.09,-84.74"/>
</a>
</g>
</g>
<!-- Node14 -->
<g id="Node000014" class="node">
<title>Node14</title>
<g id="a_Node000014"><a xlink:href="DynamicLibrary_8hpp.html" target="_top" xlink:title="Declaration of the DynamicLibrary class.">
<polygon fill="white" stroke="#666666" points="501.88,-185 332.12,-185 332.12,-165.75 501.88,-165.75 501.88,-185"/>
<text xml:space="preserve" text-anchor="middle" x="417" y="-171.5" font-family="Helvetica,sans-Serif" font-size="10.00">RType/System/DynamicLibrary.hpp</text>
</a>
</g>
</g>
<!-- Node2&#45;&gt;Node14 -->
<g id="edge17_Node000002_Node000014" class="edge">
<title>Node2&#45;&gt;Node14</title>
<g id="a_edge17_Node000002_Node000014"><a xlink:title=" ">
<path fill="none" stroke="#63b8ff" d="M526.61,-220.59C505.56,-212.1 473.8,-199.29 449.88,-189.64"/>
<polygon fill="#63b8ff" stroke="#63b8ff" points="451.49,-186.51 440.91,-186.02 448.87,-193.01 451.49,-186.51"/>
</a>
</g>
</g>
<!-- Node15 -->
<g id="Node000015" class="node">
<title>Node15</title>
<g id="a_Node000015"><a xlink:title=" ">
<polygon fill="#e0e0e0" stroke="#999999" points="617.88,-129.75 562.12,-129.75 562.12,-110.5 617.88,-110.5 617.88,-129.75"/>
<text xml:space="preserve" text-anchor="middle" x="590" y="-116.25" font-family="Helvetica,sans-Serif" font-size="10.00">expected</text>
</a>
</g>
</g>
<!-- Node2&#45;&gt;Node15 -->
<g id="edge23_Node000002_Node000015" class="edge">
<title>Node2&#45;&gt;Node15</title>
<g id="a_edge23_Node000002_Node000015"><a xlink:title=" ">
<path fill="none" stroke="#63b8ff" d="M548.07,-220.57C547.12,-207.84 546.68,-184.15 554,-165.75 558.07,-155.51 565.35,-145.78 572.31,-138.04"/>
<polygon fill="#63b8ff" stroke="#63b8ff" points="574.64,-140.67 579.06,-131.04 569.6,-135.81 574.64,-140.67"/>
</a>
</g>
</g>
<!-- Node17 -->
<g id="Node000017" class="node">
<title>Node17</title>
<g id="a_Node000017"><a xlink:title=" ">
<polygon fill="#e0e0e0" stroke="#999999" points="647.62,-185 596.38,-185 596.38,-165.75 647.62,-165.75 647.62,-185"/>
<text xml:space="preserve" text-anchor="middle" x="622" y="-171.5" font-family="Helvetica,sans-Serif" font-size="10.00">memory</text>
</a>
</g>
</g>
<!-- Node2&#45;&gt;Node17 -->
<g id="edge24_Node000002_Node000017" class="edge">
<title>Node2&#45;&gt;Node17</title>
<g id="a_edge24_Node000002_Node000017"><a xlink:title=" ">
<path fill="none" stroke="#63b8ff" d="M561.38,-220.59C572.15,-212.74 587.97,-201.2 600.75,-191.87"/>
<polygon fill="#63b8ff" stroke="#63b8ff" points="602.56,-194.89 608.58,-186.17 598.44,-189.23 602.56,-194.89"/>
</a>
</g>
</g>
<!-- Node18 -->
<g id="Node000018" class="node">
<title>Node18</title>
<g id="a_Node000018"><a xlink:title=" ">
<polygon fill="#e0e0e0" stroke="#999999" points="742.75,-185 665.25,-185 665.25,-165.75 742.75,-165.75 742.75,-185"/>
<text xml:space="preserve" text-anchor="middle" x="704" y="-171.5" font-family="Helvetica,sans-Serif" font-size="10.00">shared_mutex</text>
</a>
</g>
</g>
<!-- Node2&#45;&gt;Node18 -->
<g id="edge25_Node000002_Node000018" class="edge">
<title>Node2&#45;&gt;Node18</title>
<g id="a_edge25_Node000002_Node000018"><a xlink:title=" ">
<path fill="none" stroke="#63b8ff" d="M575.29,-220.59C600.46,-211.95 638.65,-198.82 666.91,-189.12"/>
<polygon fill="#63b8ff" stroke="#63b8ff" points="667.83,-192.5 676.15,-185.94 665.55,-185.88 667.83,-192.5"/>
</a>
</g>
</g>
<!-- Node19 -->
<g id="Node000019" class="node">
<title>Node19</title>
<g id="a_Node000019"><a xlink:title=" ">
<polygon fill="#e0e0e0" stroke="#999999" points="276.38,-185 193.62,-185 193.62,-165.75 276.38,-165.75 276.38,-185"/>
<text xml:space="preserve" text-anchor="middle" x="235" y="-171.5" font-family="Helvetica,sans-Serif" font-size="10.00">unordered_map</text>
</a>
</g>
</g>
<!-- Node2&#45;&gt;Node19 -->
<g id="edge28_Node000002_Node000019" class="edge">
<title>Node2&#45;&gt;Node19</title>
<g id="a_edge28_Node000002_Node000019"><a xlink:title=" ">
<path fill="none" stroke="#63b8ff" d="M495.38,-220.53C437.41,-210.7 345.6,-195.13 287.91,-185.35"/>
<polygon fill="#63b8ff" stroke="#63b8ff" points="288.78,-181.95 278.34,-183.72 287.61,-188.85 288.78,-181.95"/>
</a>
</g>
</g>
<!-- Node4 -->
<g id="Node000004" class="node">
<title>Node4</title>
<g id="a_Node000004"><a xlink:href="LogLevel_8hpp.html" target="_top" xlink:title="Log severity levels for the logging system.">
<polygon fill="white" stroke="#666666" points="438.62,-74.5 333.38,-74.5 333.38,-55.25 438.62,-55.25 438.62,-74.5"/>
<text xml:space="preserve" text-anchor="middle" x="386" y="-61" font-family="Helvetica,sans-Serif" font-size="10.00">RType/LogLevel.hpp</text>
</a>
</g>
</g>
<!-- Node3&#45;&gt;Node4 -->
<g id="edge3_Node000003_Node000004" class="edge">
<title>Node3&#45;&gt;Node4</title>
<g id="a_edge3_Node000003_Node000004"><a xlink:title=" ">
<path fill="none" stroke="#63b8ff" d="M318.74,-110.09C330.73,-102.21 348.37,-90.61 362.58,-81.27"/>
<polygon fill="#63b8ff" stroke="#63b8ff" points="364.49,-84.2 370.93,-75.78 360.65,-78.35 364.49,-84.2"/>
</a>
</g>
</g>
<!-- Node5 -->
<g id="Node000005" class="node">
<title>Node5</title>
<g id="a_Node000005"><a xlink:title=" ">
<polygon fill="#e0e0e0" stroke="#999999" points="330.62,-19.25 285.38,-19.25 285.38,0 330.62,0 330.62,-19.25"/>
<text xml:space="preserve" text-anchor="middle" x="308" y="-5.75" font-family="Helvetica,sans-Serif" font-size="10.00">cstdint</text>
</a>
</g>
</g>
<!-- Node3&#45;&gt;Node5 -->
<g id="edge9_Node000003_Node000005" class="edge">
<title>Node3&#45;&gt;Node5</title>
<g id="a_edge9_Node000003_Node000005"><a xlink:title=" ">
<path fill="none" stroke="#63b8ff" d="M305.25,-110.25C305.72,-93 306.78,-54.58 307.44,-30.81"/>
<polygon fill="#63b8ff" stroke="#63b8ff" points="310.93,-31.23 307.71,-21.14 303.93,-31.04 310.93,-31.23"/>
</a>
</g>
</g>
<!-- Node3&#45;&gt;Node6 -->
<g id="edge10_Node000003_Node000006" class="edge">
<title>Node3&#45;&gt;Node6</title>
<g id="a_edge10_Node000003_Node000006"><a xlink:title=" ">
<path fill="none" stroke="#63b8ff" d="M261.47,-116.69C198.57,-112.31 86.55,-100.93 57,-74.5 44.73,-63.52 40.23,-45.01 38.65,-30.73"/>
<polygon fill="#63b8ff" stroke="#63b8ff" points="42.17,-30.82 38,-21.08 35.18,-31.3 42.17,-30.82"/>
</a>
</g>
</g>
<!-- Node3&#45;&gt;Node7 -->
<g id="edge12_Node000003_Node000007" class="edge">
<title>Node3&#45;&gt;Node7</title>
<g id="a_edge12_Node000003_Node000007"><a xlink:title=" ">
<path fill="none" stroke="#63b8ff" d="M348.49,-112.4C382.23,-105.96 429.43,-94.25 467,-74.5 490.25,-62.28 512.75,-41.98 527.15,-27.54"/>
<polygon fill="#63b8ff" stroke="#63b8ff" points="529.51,-30.14 533.95,-20.53 524.48,-25.27 529.51,-30.14"/>
</a>
</g>
</g>
<!-- Node8 -->
<g id="Node000008" class="node">
<title>Node8</title>
<g id="a_Node000008"><a xlink:title=" ">
<polygon fill="#e0e0e0" stroke="#999999" points="482.62,-19.25 443.38,-19.25 443.38,0 482.62,0 482.62,-19.25"/>
<text xml:space="preserve" text-anchor="middle" x="463" y="-5.75" font-family="Helvetica,sans-Serif" font-size="10.00">utility</text>
</a>
</g>
</g>
<!-- Node3&#45;&gt;Node8 -->
<g id="edge14_Node000003_Node000008" class="edge">
<title>Node3&#45;&gt;Node8</title>
<g id="a_edge14_Node000003_Node000008"><a xlink:title=" ">
<path fill="none" stroke="#63b8ff" d="M348.52,-110.5C385.38,-102.33 434.36,-89.16 448,-74.5 458.81,-62.88 462.3,-44.99 463.23,-31.09"/>
<polygon fill="#63b8ff" stroke="#63b8ff" points="466.73,-31.34 463.47,-21.26 459.73,-31.17 466.73,-31.34"/>
</a>
</g>
</g>
<!-- Node3&#45;&gt;Node10 -->
<g id="edge11_Node000003_Node000010" class="edge">
<title>Node3&#45;&gt;Node10</title>
<g id="a_edge11_Node000003_Node000010"><a xlink:title=" ">
<path fill="none" stroke="#63b8ff" d="M348.66,-111.72C412.85,-100.84 531.16,-80.77 587.53,-71.21"/>
<polygon fill="#63b8ff" stroke="#63b8ff" points="587.81,-74.71 597.09,-69.59 586.64,-67.81 587.81,-74.71"/>
</a>
</g>
</g>
<!-- Node11 -->
<g id="Node000011" class="node">
<title>Node11</title>
<g id="a_Node000011"><a xlink:title=" ">
<polygon fill="#e0e0e0" stroke="#999999" points="139.5,-74.5 66.5,-74.5 66.5,-55.25 139.5,-55.25 139.5,-74.5"/>
<text xml:space="preserve" text-anchor="middle" x="103" y="-61" font-family="Helvetica,sans-Serif" font-size="10.00">system_error</text>
</a>
</g>
</g>
<!-- Node3&#45;&gt;Node11 -->
<g id="edge13_Node000003_Node000011" class="edge">
<title>Node3&#45;&gt;Node11</title>
<g id="a_edge13_Node000003_Node000011"><a xlink:title=" ">
<path fill="none" stroke="#63b8ff" d="M270.73,-110.09C237.07,-101.22 185.51,-87.62 148.44,-77.85"/>
<polygon fill="#63b8ff" stroke="#63b8ff" points="149.46,-74.5 138.9,-75.34 147.68,-81.27 149.46,-74.5"/>
</a>
</g>
</g>
<!-- Node12 -->
<g id="Node000012" class="node">
<title>Node12</title>
<g id="a_Node000012"><a xlink:title=" ">
<polygon fill="#e0e0e0" stroke="#999999" points="206.5,-74.5 157.5,-74.5 157.5,-55.25 206.5,-55.25 206.5,-74.5"/>
<text xml:space="preserve" text-anchor="middle" x="182" y="-61" font-family="Helvetica,sans-Serif" font-size="10.00">Error.inl</text>
</a>
</g>
</g>
<!-- Node3&#45;&gt;Node12 -->
<g id="edge15_Node000003_Node000012" class="edge">
<title>Node3&#45;&gt;Node12</title>
<g id="a_edge15_Node000003_Node000012"><a xlink:title=" ">
<path fill="none" stroke="#63b8ff" d="M284.13,-110.09C264.7,-101.68 235.46,-89.02 213.24,-79.4"/>
<polygon fill="#63b8ff" stroke="#63b8ff" points="214.92,-76.31 204.36,-75.55 212.14,-82.74 214.92,-76.31"/>
</a>
</g>
</g>
<!-- Node13 -->
<g id="Node000013" class="node">
<title>Node13</title>
<g id="a_Node000013"><a xlink:href="Error_8tpp.html" target="_top" xlink:title=" ">
<polygon fill="white" stroke="#666666" points="277.38,-74.5 224.62,-74.5 224.62,-55.25 277.38,-55.25 277.38,-74.5"/>
<text xml:space="preserve" text-anchor="middle" x="251" y="-61" font-family="Helvetica,sans-Serif" font-size="10.00">Error.tpp</text>
</a>
</g>
</g>
<!-- Node3&#45;&gt;Node13 -->
<g id="edge16_Node000003_Node000013" class="edge">
<title>Node3&#45;&gt;Node13</title>
<g id="a_edge16_Node000003_Node000013"><a xlink:title=" ">
<path fill="none" stroke="#63b8ff" d="M296.08,-110.33C288.55,-102.9 277.53,-92.04 268.27,-82.91"/>
<polygon fill="#63b8ff" stroke="#63b8ff" points="270.77,-80.45 261.19,-75.92 265.85,-85.44 270.77,-80.45"/>
</a>
</g>
</g>
<!-- Node4&#45;&gt;Node5 -->
<g id="edge4_Node000004_Node000005" class="edge">
<title>Node4&#45;&gt;Node5</title>
<g id="a_edge4_Node000004_Node000005"><a xlink:title=" ">
<path fill="none" stroke="#63b8ff" d="M372.77,-54.84C361.23,-46.96 344.23,-35.36 330.55,-26.02"/>
<polygon fill="#63b8ff" stroke="#63b8ff" points="332.78,-23.3 322.55,-20.56 328.83,-29.08 332.78,-23.3"/>
</a>
</g>
</g>
<!-- Node4&#45;&gt;Node6 -->
<g id="edge5_Node000004_Node000006" class="edge">
<title>Node4&#45;&gt;Node6</title>
<g id="a_edge5_Node000004_Node000006"><a xlink:title=" ">
<path fill="none" stroke="#63b8ff" d="M333.15,-55.79C260.42,-44.66 131.63,-24.95 71.14,-15.7"/>
<polygon fill="#63b8ff" stroke="#63b8ff" points="71.89,-12.27 61.48,-14.22 70.84,-19.19 71.89,-12.27"/>
</a>
</g>
</g>
<!-- Node4&#45;&gt;Node7 -->
<g id="edge6_Node000004_Node000007" class="edge">
<title>Node4&#45;&gt;Node7</title>
<g id="a_edge6_Node000004_Node000007"><a xlink:title=" ">
<path fill="none" stroke="#63b8ff" d="M412.63,-54.84C438.12,-46.2 476.81,-33.07 505.43,-23.37"/>
<polygon fill="#63b8ff" stroke="#63b8ff" points="506.46,-26.72 514.8,-20.19 504.21,-20.09 506.46,-26.72"/>
</a>
</g>
</g>
<!-- Node4&#45;&gt;Node8 -->
<g id="edge7_Node000004_Node000008" class="edge">
<title>Node4&#45;&gt;Node8</title>
<g id="a_edge7_Node000004_Node000008"><a xlink:title=" ">
<path fill="none" stroke="#63b8ff" d="M399.06,-54.84C410.46,-46.96 427.23,-35.36 440.74,-26.02"/>
<polygon fill="#63b8ff" stroke="#63b8ff" points="442.4,-29.13 448.63,-20.56 438.41,-23.37 442.4,-29.13"/>
</a>
</g>
</g>
<!-- Node9 -->
<g id="Node000009" class="node">
<title>Node9</title>
<g id="a_Node000009"><a xlink:title=" ">
<polygon fill="#e0e0e0" stroke="#999999" points="419.88,-19.25 352.12,-19.25 352.12,0 419.88,0 419.88,-19.25"/>
<text xml:space="preserve" text-anchor="middle" x="386" y="-5.75" font-family="Helvetica,sans-Serif" font-size="10.00">LogLevel.inl</text>
</a>
</g>
</g>
<!-- Node4&#45;&gt;Node9 -->
<g id="edge8_Node000004_Node000009" class="edge">
<title>Node4&#45;&gt;Node9</title>
<g id="a_edge8_Node000004_Node000009"><a xlink:title=" ">
<path fill="none" stroke="#63b8ff" d="M386,-55.08C386,-48.57 386,-39.42 386,-31.12"/>
<polygon fill="#63b8ff" stroke="#63b8ff" points="389.5,-31.12 386,-21.12 382.5,-31.12 389.5,-31.12"/>
</a>
</g>
</g>
<!-- Node14&#45;&gt;Node3 -->
<g id="edge18_Node000014_Node000003" class="edge">
<title>Node14&#45;&gt;Node3</title>
<g id="a_edge18_Node000014_Node000003"><a xlink:title=" ">
<path fill="none" stroke="#63b8ff" d="M398,-165.34C380.54,-157.04 354.4,-144.61 334.28,-135.04"/>
<polygon fill="#63b8ff" stroke="#63b8ff" points="335.99,-131.99 325.46,-130.85 332.99,-138.31 335.99,-131.99"/>
</a>
</g>
</g>
<!-- Node14&#45;&gt;Node7 -->
<g id="edge21_Node000014_Node000007" class="edge">
<title>Node14&#45;&gt;Node7</title>
<g id="a_edge21_Node000014_Node000007"><a xlink:title=" ">
<path fill="none" stroke="#63b8ff" d="M414.81,-165.67C412.03,-152.52 408.84,-127.34 420,-110.5 440.42,-79.68 466.41,-97.95 495,-74.5 510.56,-61.74 523.89,-42.94 532.53,-29.03"/>
<polygon fill="#63b8ff" stroke="#63b8ff" points="535.3,-31.22 537.41,-20.84 529.28,-27.64 535.3,-31.22"/>
</a>
</g>
</g>
<!-- Node14&#45;&gt;Node10 -->
<g id="edge20_Node000014_Node000010" class="edge">
<title>Node14&#45;&gt;Node10</title>
<g id="a_edge20_Node000014_Node000010"><a xlink:title=" ">
<path fill="none" stroke="#63b8ff" d="M416.85,-165.55C417.12,-151.77 419.74,-125.21 435,-110.5 446.01,-99.89 538.23,-81.13 587.79,-71.67"/>
<polygon fill="#63b8ff" stroke="#63b8ff" points="588.15,-75.16 597.33,-69.86 586.85,-68.28 588.15,-75.16"/>
</a>
</g>
</g>
<!-- Node14&#45;&gt;Node15 -->
<g id="edge19_Node000014_Node000015" class="edge">
<title>Node14&#45;&gt;Node15</title>
<g id="a_edge19_Node000014_Node000015"><a xlink:title=" ">
<path fill="none" stroke="#63b8ff" d="M446.35,-165.34C475.15,-156.48 519.25,-142.9 550.99,-133.13"/>
<polygon fill="#63b8ff" stroke="#63b8ff" points="551.69,-136.58 560.21,-130.29 549.63,-129.89 551.69,-136.58"/>
</a>
</g>
</g>
<!-- Node16 -->
<g id="Node000016" class="node">
<title>Node16</title>
<g id="a_Node000016"><a xlink:href="DynamicLibrary_8tpp.html" target="_top" xlink:title=" ">
<polygon fill="white" stroke="#666666" points="543.62,-129.75 444.38,-129.75 444.38,-110.5 543.62,-110.5 543.62,-129.75"/>
<text xml:space="preserve" text-anchor="middle" x="494" y="-116.25" font-family="Helvetica,sans-Serif" font-size="10.00">DynamicLibrary.tpp</text>
</a>
</g>
</g>
<!-- Node14&#45;&gt;Node16 -->
<g id="edge22_Node000014_Node000016" class="edge">
<title>Node14&#45;&gt;Node16</title>
<g id="a_edge22_Node000014_Node000016"><a xlink:title=" ">
<path fill="none" stroke="#63b8ff" d="M430.06,-165.34C441.46,-157.46 458.23,-145.86 471.74,-136.52"/>
<polygon fill="#63b8ff" stroke="#63b8ff" points="473.4,-139.63 479.63,-131.06 469.41,-133.87 473.4,-139.63"/>
</a>
</g>
</g>
<!-- Node20&#45;&gt;Node7 -->
<g id="edge32_Node000020_Node000007" class="edge">
<title>Node20&#45;&gt;Node7</title>
<g id="a_edge32_Node000020_Node000007"><a xlink:title=" ">
<path fill="none" stroke="#63b8ff" d="M847.95,-165.45C842.27,-142.93 824.12,-83.58 785,-55.25 754.04,-32.83 648.1,-19.95 587.14,-14.22"/>
<polygon fill="#63b8ff" stroke="#63b8ff" points="587.73,-10.76 577.45,-13.34 587.1,-17.73 587.73,-10.76"/>
</a>
</g>
</g>
<!-- Node20&#45;&gt;Node10 -->
<g id="edge31_Node000020_Node000010" class="edge">
<title>Node20&#45;&gt;Node10</title>
<g id="a_edge31_Node000020_Node000010"><a xlink:title=" ">
<path fill="none" stroke="#63b8ff" d="M830.7,-165.31C790.36,-146.36 696.88,-102.45 648.77,-79.86"/>
<polygon fill="#63b8ff" stroke="#63b8ff" points="650.31,-76.72 639.78,-75.63 647.34,-83.05 650.31,-76.72"/>
</a>
</g>
</g>
<!-- Node20&#45;&gt;Node15 -->
<g id="edge30_Node000020_Node000015" class="edge">
<title>Node20&#45;&gt;Node15</title>
<g id="a_edge30_Node000020_Node000015"><a xlink:title=" ">
<path fill="none" stroke="#63b8ff" d="M805.6,-165.28C756.02,-155.13 676.55,-138.85 629.19,-129.15"/>
<polygon fill="#63b8ff" stroke="#63b8ff" points="630.15,-125.78 619.65,-127.2 628.75,-132.63 630.15,-125.78"/>
</a>
</g>
</g>
<!-- Node20&#45;&gt;Node20 -->
<g id="edge33_Node000020_Node000020" class="edge">
<title>Node20&#45;&gt;Node20</title>
<g id="a_edge33_Node000020_Node000020"><a xlink:title=" ">
<path fill="none" stroke="#63b8ff" d="M886.27,-185.48C903.72,-186.73 919.12,-183.36 919.12,-175.38 919.12,-169.2 909.91,-165.78 897.66,-165.13"/>
<polygon fill="#63b8ff" stroke="#63b8ff" points="897.75,-161.63 887.79,-165.25 897.83,-168.63 897.75,-161.63"/>
</a>
</g>
</g>
</g>
</svg>

<g id="navigator" transform="translate(0 0)" fill="#404254">
  <rect fill="#f2f5e9" fill-opacity="0.5" stroke="#606060" stroke-width=".5" x="0" y="0" width="60" height="60"/>
  <use id="zoomplus" xlink:href="#zoomPlus" x="17" y="9" onmousedown="handleZoom(evt,'in')"/>
  <use id="zoomminus" xlink:href="#zoomMin" x="42" y="9" onmousedown="handleZoom(evt,'out')"/>
  <use id="reset" xlink:href="#resetDef" x="30" y="36" onmousedown="handleReset()"/>
   <use id="arrowup" xlink:href="#arrowUp" x="0" y="0" onmousedown="handlePan(0,-1)"/>
  <use id="arrowright" xlink:href="#arrowRight" x="0" y="0" onmousedown="handlePan(1,0)"/>
  <use id="arrowdown" xlink:href="#arrowDown" x="0" y="0" onmousedown="handlePan(0,1)"/>
  <use id="arrowleft" xlink:href="#arrowLeft" x="0" y="0" onmousedown="handlePan(-1,0)"/>
</g>
<svg viewBox="0 0 15 15" width="100%" height="30px" preserveAspectRatio="xMaxYMin meet">
 <g id="arrow_out" transform="scale(0.3 0.3)">
  <a xlink:href="LibraryManager_8cpp__incl_org.svg" target="_base">
   <rect id="button" ry="5" rx="5" y="6" x="6" height="38" width="38"
        fill="#f2f5e9" fill-opacity="0.5" stroke="#606060" stroke-width="1.0"/>
   <path id="arrow"
     d="M 11.500037,31.436501 C 11.940474,20.09759 22.043105,11.32322 32.158766,21.979434 L 37.068811,17.246167 C 37.068811,17.246167 37.088388,32 37.088388,32 L 22.160133,31.978069 C 22.160133,31.978069 26.997745,27.140456 26.997745,27.140456 C 18.528582,18.264221 13.291696,25.230495 11.500037,31.436501 z"
     style="fill:#404040;"/>
  </a>
 </g>
</svg>

<style type='text/css'>
<![CDATA[
[data-mouse-over-selected='false'] { opacity: 0.7; }
[data-mouse-over-selected='true']  { opacity: 1.0; }
]]>
</style>
<script type="application/ecmascript"><![CDATA[
document.addEventListener('DOMContentLoaded', (event) => {
  highlightEdges();
  highlightAdjacentNodes();
});
]]></script>
</svg>
