<?xml version="1.0" encoding="UTF-8" standalone="no"?>
<!DOCTYPE svg PUBLIC "-//W3C//DTD SVG 1.1//EN"
 "http://www.w3.org/Graphics/SVG/1.1/DTD/svg11.dtd">
<!-- Generated by graphviz version 14.0.5 (20251129.0259)
 -->
<!-- Title: common/include/RType/System/LibraryManager.hpp Pages: 1 -->
<!--zoomable 260 -->

<svg id="main" version="1.1" xmlns="http://www.w3.org/2000/svg" xmlns:xlink="http://www.w3.org/1999/xlink" xml:space="preserve" onload="init(evt)">

<style type="text/css"><![CDATA[
.node, .edge {opacity: 0.7;}
.node.selected, .edge.selected {opacity: 1;}
.edge:hover path { stroke: red; }
.edge:hover polygon { stroke: red; fill: red; }
]]></style>

<defs>
  <circle id="rim" cx="0" cy="0" r="7"/>
  <circle id="rim2" cx="0" cy="0" r="3.5"/>
  <g id="zoomPlus">
    <use xlink:href="#rim" fill="#404040"><set attributeName="fill" to="#808080" begin="zoomplus.mouseover" end="zoomplus.mouseout"/></use>
    <path d="M-4,0h8M0,-4v8" fill="none" stroke="white" stroke-width="1.5" pointer-events="none"/>
  </g>
  <g id="zoomMin">
    <use xlink:href="#rim" fill="#404040"><set attributeName="fill" to="#808080" begin="zoomminus.mouseover" end="zoomminus.mouseout"/></use>
    <path d="M-4,0h8" fill="none" stroke="white" stroke-width="1.5" pointer-events="none"/>
  </g>
  <g id="arrowUp" transform="translate(30 24)">
    <use xlink:href="#rim"/>
    <path pointer-events="none" fill="none" stroke="white" stroke-width="1.5" d="M0,-3.0v7 M-2.5,-0.5L0,-3.0L2.5,-0.5"/>
  </g>
  <g id="arrowRight" transform="rotate(90) translate(36 -43)">
    <use xlink:href="#rim"/>
    <path pointer-events="none" fill="none" stroke="white" stroke-width="1.5" d="M0,-3.0v7 M-2.5,-0.5L0,-3.0L2.5,-0.5"/>
  </g>
  <g id="arrowDown" transform="rotate(180) translate(-30 -48)">
    <use xlink:href="#rim"/>
    <path pointer-events="none" fill="none" stroke="white" stroke-width="1.5" d="M0,-3.0v7 M-2.5,-0.5L0,-3.0L2.5,-0.5"/>
  </g>
  <g id="arrowLeft" transform="rotate(270) translate(-36 17)">
    <use xlink:href="#rim"/>
    <path pointer-events="none" fill="none" stroke="white" stroke-width="1.5" d="M0,-3.0v7 M-2.5,-0.5L0,-3.0L2.5,-0.5"/>
  </g>
  <g id="resetDef">
    <use xlink:href="#rim2" fill="#404040"><set attributeName="fill" to="#808080" begin="reset.mouseover" end="reset.mouseout"/></use>
  </g>
</defs>
<script type="application/ecmascript">
var viewWidth = 845;
var viewHeight = 260;
var sectionId = 'dynsection-0';
</script>
<script type="application/ecmascript" xlink:href="svg.min.js"/>
<svg id="graph" class="graph">
<g id="viewport">
<title>common/include/RType/System/LibraryManager.hpp</title>
<!-- Node1 -->
<g id="Node000001" class="node">
<title>Node1</title>
<g id="a_Node000001"><a xlink:title="Declaration of the Dynamic Library Manager.">
<polygon fill="#999999" stroke="#666666" points="604,-251.5 463.5,-251.5 463.5,-221 604,-221 604,-251.5"/>
<text xml:space="preserve" text-anchor="start" x="471.5" y="-238" font-family="Helvetica,sans-Serif" font-size="10.00">common/include/RType</text>
<text xml:space="preserve" text-anchor="middle" x="533.75" y="-226.75" font-family="Helvetica,sans-Serif" font-size="10.00">/System/LibraryManager.hpp</text>
</a>
</g>
</g>
<!-- Node2 -->
<g id="Node000002" class="node">
<title>Node2</title>
<g id="a_Node000002"><a xlink:href="Error_8hpp.html" target="_top" xlink:title="Error handling system with categorized error codes.">
<polygon fill="white" stroke="#666666" points="309,-129.75 222.5,-129.75 222.5,-110.5 309,-110.5 309,-129.75"/>
<text xml:space="preserve" text-anchor="middle" x="265.75" y="-116.25" font-family="Helvetica,sans-Serif" font-size="10.00">RType/Error.hpp</text>
</a>
</g>
</g>
<!-- Node1&#45;&gt;Node2 -->
<g id="edge1_Node000001_Node000002" class="edge">
<title>Node1&#45;&gt;Node2</title>
<g id="a_edge1_Node000001_Node000002"><a xlink:title=" ">
<path fill="none" stroke="#63b8ff" d="M463.14,-226.88C403.62,-218.63 324.2,-204.44 298.75,-185 284.49,-174.11 275.84,-155.31 271,-140.92"/>
<polygon fill="#63b8ff" stroke="#63b8ff" points="274.42,-140.17 268.21,-131.58 267.72,-142.17 274.42,-140.17"/>
</a>
</g>
</g>
<!-- Node6 -->
<g id="Node000006" class="node">
<title>Node6</title>
<g id="a_Node000006"><a xlink:title=" ">
<polygon fill="#e0e0e0" stroke="#999999" points="65.5,-19.25 0,-19.25 0,0 65.5,0 65.5,-19.25"/>
<text xml:space="preserve" text-anchor="middle" x="32.75" y="-5.75" font-family="Helvetica,sans-Serif" font-size="10.00">string_view</text>
</a>
</g>
</g>
<!-- Node1&#45;&gt;Node6 -->
<g id="edge26_Node000001_Node000006" class="edge">
<title>Node1&#45;&gt;Node6</title>
<g id="a_edge26_Node000001_Node000006"><a xlink:title=" ">
<path fill="none" stroke="#63b8ff" d="M463.33,-230.86C372.07,-222.5 210.59,-198.46 91.75,-129.75 60.93,-111.93 48.03,-107.11 33.75,-74.5 27.68,-60.64 27.8,-43.42 29.23,-30.35"/>
<polygon fill="#63b8ff" stroke="#63b8ff" points="32.64,-31.24 30.63,-20.83 25.71,-30.22 32.64,-31.24"/>
</a>
</g>
</g>
<!-- Node9 -->
<g id="Node000009" class="node">
<title>Node9</title>
<g id="a_Node000009"><a xlink:title=" ">
<polygon fill="#e0e0e0" stroke="#999999" points="586.75,-74.5 546.75,-74.5 546.75,-55.25 586.75,-55.25 586.75,-74.5"/>
<text xml:space="preserve" text-anchor="middle" x="566.75" y="-61" font-family="Helvetica,sans-Serif" font-size="10.00">string</text>
</a>
</g>
</g>
<!-- Node1&#45;&gt;Node9 -->
<g id="edge25_Node000001_Node000009" class="edge">
<title>Node1&#45;&gt;Node9</title>
<g id="a_edge25_Node000001_Node000009"><a xlink:title=" ">
<path fill="none" stroke="#63b8ff" d="M536.62,-220.52C542.54,-190.12 556.12,-120.44 562.84,-85.96"/>
<polygon fill="#63b8ff" stroke="#63b8ff" points="566.21,-86.96 564.69,-76.47 559.34,-85.62 566.21,-86.96"/>
</a>
</g>
</g>
<!-- Node13 -->
<g id="Node000013" class="node">
<title>Node13</title>
<g id="a_Node000013"><a xlink:href="DynamicLibrary_8hpp.html" target="_top" xlink:title="Declaration of the DynamicLibrary class.">
<polygon fill="white" stroke="#666666" points="477.62,-185 307.88,-185 307.88,-165.75 477.62,-165.75 477.62,-185"/>
<text xml:space="preserve" text-anchor="middle" x="392.75" y="-171.5" font-family="Helvetica,sans-Serif" font-size="10.00">RType/System/DynamicLibrary.hpp</text>
</a>
</g>
</g>
<!-- Node1&#45;&gt;Node13 -->
<g id="edge16_Node000001_Node000013" class="edge">
<title>Node1&#45;&gt;Node13</title>
<g id="a_edge16_Node000001_Node000013"><a xlink:title=" ">
<path fill="none" stroke="#63b8ff" d="M498.53,-220.55C475.92,-211.1 446.79,-198.94 424.83,-189.77"/>
<polygon fill="#63b8ff" stroke="#63b8ff" points="426.35,-186.61 415.77,-185.99 423.65,-193.07 426.35,-186.61"/>
</a>
</g>
</g>
<!-- Node14 -->
<g id="Node000014" class="node">
<title>Node14</title>
<g id="a_Node000014"><a xlink:title=" ">
<polygon fill="#e0e0e0" stroke="#999999" points="538.62,-129.75 482.88,-129.75 482.88,-110.5 538.62,-110.5 538.62,-129.75"/>
<text xml:space="preserve" text-anchor="middle" x="510.75" y="-116.25" font-family="Helvetica,sans-Serif" font-size="10.00">expected</text>
</a>
</g>
</g>
<!-- Node1&#45;&gt;Node14 -->
<g id="edge22_Node000001_Node000014" class="edge">
<title>Node1&#45;&gt;Node14</title>
<g id="a_edge22_Node000001_Node000014"><a xlink:title=" ">
<path fill="none" stroke="#63b8ff" d="M530.84,-220.8C526.78,-200.65 519.4,-164.06 514.81,-141.25"/>
<polygon fill="#63b8ff" stroke="#63b8ff" points="518.28,-140.79 512.88,-131.68 511.42,-142.18 518.28,-140.79"/>
</a>
</g>
</g>
<!-- Node16 -->
<g id="Node000016" class="node">
<title>Node16</title>
<g id="a_Node000016"><a xlink:title=" ">
<polygon fill="#e0e0e0" stroke="#999999" points="641.38,-185 590.12,-185 590.12,-165.75 641.38,-165.75 641.38,-185"/>
<text xml:space="preserve" text-anchor="middle" x="615.75" y="-171.5" font-family="Helvetica,sans-Serif" font-size="10.00">memory</text>
</a>
</g>
</g>
<!-- Node1&#45;&gt;Node16 -->
<g id="edge23_Node000001_Node000016" class="edge">
<title>Node1&#45;&gt;Node16</title>
<g id="a_edge23_Node000001_Node000016"><a xlink:title=" ">
<path fill="none" stroke="#63b8ff" d="M554.02,-220.7C566.14,-211.99 581.55,-200.93 593.94,-192.03"/>
<polygon fill="#63b8ff" stroke="#63b8ff" points="595.8,-195.01 601.88,-186.33 591.71,-189.32 595.8,-195.01"/>
</a>
</g>
</g>
<!-- Node17 -->
<g id="Node000017" class="node">
<title>Node17</title>
<g id="a_Node000017"><a xlink:title=" ">
<polygon fill="#e0e0e0" stroke="#999999" points="736.5,-185 659,-185 659,-165.75 736.5,-165.75 736.5,-185"/>
<text xml:space="preserve" text-anchor="middle" x="697.75" y="-171.5" font-family="Helvetica,sans-Serif" font-size="10.00">shared_mutex</text>
</a>
</g>
</g>
<!-- Node1&#45;&gt;Node17 -->
<g id="edge24_Node000001_Node000017" class="edge">
<title>Node1&#45;&gt;Node17</title>
<g id="a_edge24_Node000001_Node000017"><a xlink:title=" ">
<path fill="none" stroke="#63b8ff" d="M574.71,-220.55C601.49,-210.93 636.13,-198.5 661.83,-189.27"/>
<polygon fill="#63b8ff" stroke="#63b8ff" points="662.95,-192.59 671.17,-185.92 660.58,-186 662.95,-192.59"/>
</a>
</g>
</g>
<!-- Node18 -->
<g id="Node000018" class="node">
<title>Node18</title>
<g id="a_Node000018"><a xlink:title=" ">
<polygon fill="#e0e0e0" stroke="#999999" points="837.12,-185 754.38,-185 754.38,-165.75 837.12,-165.75 837.12,-185"/>
<text xml:space="preserve" text-anchor="middle" x="795.75" y="-171.5" font-family="Helvetica,sans-Serif" font-size="10.00">unordered_map</text>
</a>
</g>
</g>
<!-- Node1&#45;&gt;Node18 -->
<g id="edge27_Node000001_Node000018" class="edge">
<title>Node1&#45;&gt;Node18</title>
<g id="a_edge27_Node000001_Node000018"><a xlink:title=" ">
<path fill="none" stroke="#63b8ff" d="M599.19,-220.55C643.94,-210.49 702.44,-197.34 743.95,-188.01"/>
<polygon fill="#63b8ff" stroke="#63b8ff" points="744.72,-191.43 753.71,-185.82 743.18,-184.6 744.72,-191.43"/>
</a>
</g>
</g>
<!-- Node3 -->
<g id="Node000003" class="node">
<title>Node3</title>
<g id="a_Node000003"><a xlink:href="LogLevel_8hpp.html" target="_top" xlink:title="Log severity levels for the logging system.">
<polygon fill="white" stroke="#666666" points="452.38,-74.5 347.12,-74.5 347.12,-55.25 452.38,-55.25 452.38,-74.5"/>
<text xml:space="preserve" text-anchor="middle" x="399.75" y="-61" font-family="Helvetica,sans-Serif" font-size="10.00">RType/LogLevel.hpp</text>
</a>
</g>
</g>
<!-- Node2&#45;&gt;Node3 -->
<g id="edge2_Node000002_Node000003" class="edge">
<title>Node2&#45;&gt;Node3</title>
<g id="a_edge2_Node000002_Node000003"><a xlink:title=" ">
<path fill="none" stroke="#63b8ff" d="M288.48,-110.09C309.85,-101.6 342.09,-88.79 366.38,-79.14"/>
<polygon fill="#63b8ff" stroke="#63b8ff" points="367.5,-82.46 375.5,-75.51 364.91,-75.95 367.5,-82.46"/>
</a>
</g>
</g>
<!-- Node4 -->
<g id="Node000004" class="node">
<title>Node4</title>
<g id="a_Node000004"><a xlink:title=" ">
<polygon fill="#e0e0e0" stroke="#999999" points="341.38,-19.25 296.12,-19.25 296.12,0 341.38,0 341.38,-19.25"/>
<text xml:space="preserve" text-anchor="middle" x="318.75" y="-5.75" font-family="Helvetica,sans-Serif" font-size="10.00">cstdint</text>
</a>
</g>
</g>
<!-- Node2&#45;&gt;Node4 -->
<g id="edge8_Node000002_Node000004" class="edge">
<title>Node2&#45;&gt;Node4</title>
<g id="a_edge8_Node000002_Node000004"><a xlink:title=" ">
<path fill="none" stroke="#63b8ff" d="M274.11,-110.22C281.75,-101.65 292.87,-88.05 299.75,-74.5 306.82,-60.59 311.71,-43.6 314.76,-30.64"/>
<polygon fill="#63b8ff" stroke="#63b8ff" points="318.12,-31.68 316.81,-21.17 311.28,-30.2 318.12,-31.68"/>
</a>
</g>
</g>
<!-- Node5 -->
<g id="Node000005" class="node">
<title>Node5</title>
<g id="a_Node000005"><a xlink:title=" ">
<polygon fill="#e0e0e0" stroke="#999999" points="547.62,-19.25 503.88,-19.25 503.88,0 547.62,0 547.62,-19.25"/>
<text xml:space="preserve" text-anchor="middle" x="525.75" y="-5.75" font-family="Helvetica,sans-Serif" font-size="10.00">format</text>
</a>
</g>
</g>
<!-- Node2&#45;&gt;Node5 -->
<g id="edge9_Node000002_Node000005" class="edge">
<title>Node2&#45;&gt;Node5</title>
<g id="a_edge9_Node000002_Node000005"><a xlink:title=" ">
<path fill="none" stroke="#63b8ff" d="M309.5,-113.8C363.66,-106.56 452.14,-92.44 479.75,-74.5 496.55,-63.58 509.2,-44.22 516.94,-29.66"/>
<polygon fill="#63b8ff" stroke="#63b8ff" points="519.9,-31.56 521.21,-21.05 513.63,-28.45 519.9,-31.56"/>
</a>
</g>
</g>
<!-- Node2&#45;&gt;Node6 -->
<g id="edge11_Node000002_Node000006" class="edge">
<title>Node2&#45;&gt;Node6</title>
<g id="a_edge11_Node000002_Node000006"><a xlink:title=" ">
<path fill="none" stroke="#63b8ff" d="M222.2,-118.76C179.8,-116.35 115.38,-107.01 70.75,-74.5 55.61,-63.47 45.42,-44.41 39.43,-29.97"/>
<polygon fill="#63b8ff" stroke="#63b8ff" points="42.87,-29.15 36.06,-21.04 36.32,-31.63 42.87,-29.15"/>
</a>
</g>
</g>
<!-- Node7 -->
<g id="Node000007" class="node">
<title>Node7</title>
<g id="a_Node000007"><a xlink:title=" ">
<polygon fill="#e0e0e0" stroke="#999999" points="485.38,-19.25 446.12,-19.25 446.12,0 485.38,0 485.38,-19.25"/>
<text xml:space="preserve" text-anchor="middle" x="465.75" y="-5.75" font-family="Helvetica,sans-Serif" font-size="10.00">utility</text>
</a>
</g>
</g>
<!-- Node2&#45;&gt;Node7 -->
<g id="edge13_Node000002_Node000007" class="edge">
<title>Node2&#45;&gt;Node7</title>
<g id="a_edge13_Node000002_Node000007"><a xlink:title=" ">
<path fill="none" stroke="#63b8ff" d="M309.38,-115.2C360.99,-109.58 442.36,-97.3 461.75,-74.5 471.78,-62.71 472.08,-44.83 470.26,-30.98"/>
<polygon fill="#63b8ff" stroke="#63b8ff" points="473.71,-30.4 468.49,-21.18 466.83,-31.64 473.71,-30.4"/>
</a>
</g>
</g>
<!-- Node2&#45;&gt;Node9 -->
<g id="edge10_Node000002_Node000009" class="edge">
<title>Node2&#45;&gt;Node9</title>
<g id="a_edge10_Node000002_Node000009"><a xlink:title=" ">
<path fill="none" stroke="#63b8ff" d="M309.29,-112.3C373.6,-102.14 490.9,-83.29 532.75,-74.5 533.58,-74.33 534.41,-74.15 535.26,-73.96"/>
<polygon fill="#63b8ff" stroke="#63b8ff" points="535.92,-77.4 544.84,-71.7 534.31,-70.59 535.92,-77.4"/>
</a>
</g>
</g>
<!-- Node10 -->
<g id="Node000010" class="node">
<title>Node10</title>
<g id="a_Node000010"><a xlink:title=" ">
<polygon fill="#e0e0e0" stroke="#999999" points="153.25,-74.5 80.25,-74.5 80.25,-55.25 153.25,-55.25 153.25,-74.5"/>
<text xml:space="preserve" text-anchor="middle" x="116.75" y="-61" font-family="Helvetica,sans-Serif" font-size="10.00">system_error</text>
</a>
</g>
</g>
<!-- Node2&#45;&gt;Node10 -->
<g id="edge12_Node000002_Node000010" class="edge">
<title>Node2&#45;&gt;Node10</title>
<g id="a_edge12_Node000002_Node000010"><a xlink:title=" ">
<path fill="none" stroke="#63b8ff" d="M240.47,-110.09C216.39,-101.49 179.89,-88.44 152.77,-78.75"/>
<polygon fill="#63b8ff" stroke="#63b8ff" points="154.17,-75.53 143.58,-75.46 151.81,-82.12 154.17,-75.53"/>
</a>
</g>
</g>
<!-- Node11 -->
<g id="Node000011" class="node">
<title>Node11</title>
<g id="a_Node000011"><a xlink:title=" ">
<polygon fill="#e0e0e0" stroke="#999999" points="220.25,-74.5 171.25,-74.5 171.25,-55.25 220.25,-55.25 220.25,-74.5"/>
<text xml:space="preserve" text-anchor="middle" x="195.75" y="-61" font-family="Helvetica,sans-Serif" font-size="10.00">Error.inl</text>
</a>
</g>
</g>
<!-- Node2&#45;&gt;Node11 -->
<g id="edge14_Node000002_Node000011" class="edge">
<title>Node2&#45;&gt;Node11</title>
<g id="a_edge14_Node000002_Node000011"><a xlink:title=" ">
<path fill="none" stroke="#63b8ff" d="M253.88,-110.09C243.66,-102.32 228.68,-90.92 216.49,-81.65"/>
<polygon fill="#63b8ff" stroke="#63b8ff" points="218.73,-78.96 208.65,-75.69 214.49,-84.53 218.73,-78.96"/>
</a>
</g>
</g>
<!-- Node12 -->
<g id="Node000012" class="node">
<title>Node12</title>
<g id="a_Node000012"><a xlink:href="Error_8tpp.html" target="_top" xlink:title=" ">
<polygon fill="white" stroke="#666666" points="291.12,-74.5 238.38,-74.5 238.38,-55.25 291.12,-55.25 291.12,-74.5"/>
<text xml:space="preserve" text-anchor="middle" x="264.75" y="-61" font-family="Helvetica,sans-Serif" font-size="10.00">Error.tpp</text>
</a>
</g>
</g>
<!-- Node2&#45;&gt;Node12 -->
<g id="edge15_Node000002_Node000012" class="edge">
<title>Node2&#45;&gt;Node12</title>
<g id="a_edge15_Node000002_Node000012"><a xlink:title=" ">
<path fill="none" stroke="#63b8ff" d="M265.58,-110.33C265.46,-103.82 265.29,-94.67 265.13,-86.37"/>
<polygon fill="#63b8ff" stroke="#63b8ff" points="268.63,-86.3 264.95,-76.37 261.64,-86.44 268.63,-86.3"/>
</a>
</g>
</g>
<!-- Node3&#45;&gt;Node4 -->
<g id="edge3_Node000003_Node000004" class="edge">
<title>Node3&#45;&gt;Node4</title>
<g id="a_edge3_Node000003_Node000004"><a xlink:title=" ">
<path fill="none" stroke="#63b8ff" d="M386.01,-54.84C374.02,-46.96 356.38,-35.36 342.17,-26.02"/>
<polygon fill="#63b8ff" stroke="#63b8ff" points="344.1,-23.1 333.82,-20.53 340.26,-28.95 344.1,-23.1"/>
</a>
</g>
</g>
<!-- Node3&#45;&gt;Node5 -->
<g id="edge4_Node000003_Node000005" class="edge">
<title>Node3&#45;&gt;Node5</title>
<g id="a_edge4_Node000003_Node000005"><a xlink:title=" ">
<path fill="none" stroke="#63b8ff" d="M421.12,-54.84C441.04,-46.43 470.99,-33.77 493.75,-24.15"/>
<polygon fill="#63b8ff" stroke="#63b8ff" points="495.03,-27.41 502.88,-20.29 492.3,-20.96 495.03,-27.41"/>
</a>
</g>
</g>
<!-- Node3&#45;&gt;Node6 -->
<g id="edge5_Node000003_Node000006" class="edge">
<title>Node3&#45;&gt;Node6</title>
<g id="a_edge5_Node000003_Node000006"><a xlink:title=" ">
<path fill="none" stroke="#63b8ff" d="M346.78,-56.19C273.97,-45.62 144.32,-26.81 76.64,-16.99"/>
<polygon fill="#63b8ff" stroke="#63b8ff" points="77.43,-13.57 67.03,-15.6 76.42,-20.5 77.43,-13.57"/>
</a>
</g>
</g>
<!-- Node3&#45;&gt;Node7 -->
<g id="edge6_Node000003_Node000007" class="edge">
<title>Node3&#45;&gt;Node7</title>
<g id="a_edge6_Node000003_Node000007"><a xlink:title=" ">
<path fill="none" stroke="#63b8ff" d="M410.95,-54.84C420.49,-47.15 434.42,-35.9 445.86,-26.68"/>
<polygon fill="#63b8ff" stroke="#63b8ff" points="447.96,-29.48 453.54,-20.48 443.56,-24.03 447.96,-29.48"/>
</a>
</g>
</g>
<!-- Node8 -->
<g id="Node000008" class="node">
<title>Node8</title>
<g id="a_Node000008"><a xlink:title=" ">
<polygon fill="#e0e0e0" stroke="#999999" points="427.62,-19.25 359.88,-19.25 359.88,0 427.62,0 427.62,-19.25"/>
<text xml:space="preserve" text-anchor="middle" x="393.75" y="-5.75" font-family="Helvetica,sans-Serif" font-size="10.00">LogLevel.inl</text>
</a>
</g>
</g>
<!-- Node3&#45;&gt;Node8 -->
<g id="edge7_Node000003_Node000008" class="edge">
<title>Node3&#45;&gt;Node8</title>
<g id="a_edge7_Node000003_Node000008"><a xlink:title=" ">
<path fill="none" stroke="#63b8ff" d="M398.76,-55.08C398.02,-48.49 396.97,-39.21 396.03,-30.82"/>
<polygon fill="#63b8ff" stroke="#63b8ff" points="399.53,-30.66 394.93,-21.11 392.57,-31.44 399.53,-30.66"/>
</a>
</g>
</g>
<!-- Node13&#45;&gt;Node2 -->
<g id="edge17_Node000013_Node000002" class="edge">
<title>Node13&#45;&gt;Node2</title>
<g id="a_edge17_Node000013_Node000002"><a xlink:title=" ">
<path fill="none" stroke="#63b8ff" d="M371.21,-165.34C351.14,-156.93 320.95,-144.27 298,-134.65"/>
<polygon fill="#63b8ff" stroke="#63b8ff" points="299.37,-131.43 288.8,-130.79 296.66,-137.88 299.37,-131.43"/>
</a>
</g>
</g>
<!-- Node13&#45;&gt;Node6 -->
<g id="edge20_Node000013_Node000006" class="edge">
<title>Node13&#45;&gt;Node6</title>
<g id="a_edge20_Node000013_Node000006"><a xlink:title=" ">
<path fill="none" stroke="#63b8ff" d="M307.58,-173.24C229.05,-167.43 114.95,-146.05 48.75,-74.5 37.93,-62.81 34.15,-44.92 32.95,-31.04"/>
<polygon fill="#63b8ff" stroke="#63b8ff" points="36.45,-31.07 32.51,-21.23 29.46,-31.38 36.45,-31.07"/>
</a>
</g>
</g>
<!-- Node13&#45;&gt;Node9 -->
<g id="edge19_Node000013_Node000009" class="edge">
<title>Node13&#45;&gt;Node9</title>
<g id="a_edge19_Node000013_Node000009"><a xlink:title=" ">
<path fill="none" stroke="#63b8ff" d="M380.78,-165.34C365.11,-152.42 341.24,-128.26 355.75,-110.5 406.54,-48.34 454.49,-92.37 532.75,-74.5 533.57,-74.31 534.41,-74.12 535.25,-73.92"/>
<polygon fill="#63b8ff" stroke="#63b8ff" points="535.93,-77.36 544.82,-71.59 534.28,-70.56 535.93,-77.36"/>
</a>
</g>
</g>
<!-- Node13&#45;&gt;Node14 -->
<g id="edge18_Node000013_Node000014" class="edge">
<title>Node13&#45;&gt;Node14</title>
<g id="a_edge18_Node000013_Node000014"><a xlink:title=" ">
<path fill="none" stroke="#63b8ff" d="M412.77,-165.34C431.24,-157 458.96,-144.5 480.2,-134.91"/>
<polygon fill="#63b8ff" stroke="#63b8ff" points="481.58,-138.13 489.26,-130.83 478.7,-131.75 481.58,-138.13"/>
</a>
</g>
</g>
<!-- Node15 -->
<g id="Node000015" class="node">
<title>Node15</title>
<g id="a_Node000015"><a xlink:href="DynamicLibrary_8tpp.html" target="_top" xlink:title=" ">
<polygon fill="white" stroke="#666666" points="464.38,-129.75 365.12,-129.75 365.12,-110.5 464.38,-110.5 464.38,-129.75"/>
<text xml:space="preserve" text-anchor="middle" x="414.75" y="-116.25" font-family="Helvetica,sans-Serif" font-size="10.00">DynamicLibrary.tpp</text>
</a>
</g>
</g>
<!-- Node13&#45;&gt;Node15 -->
<g id="edge21_Node000013_Node000015" class="edge">
<title>Node13&#45;&gt;Node15</title>
<g id="a_edge21_Node000013_Node000015"><a xlink:title=" ">
<path fill="none" stroke="#63b8ff" d="M396.38,-165.58C399.17,-158.84 403.12,-149.27 406.65,-140.74"/>
<polygon fill="#63b8ff" stroke="#63b8ff" points="409.88,-142.09 410.46,-131.51 403.41,-139.41 409.88,-142.09"/>
</a>
</g>
</g>
</g>
</svg>

<g id="navigator" transform="translate(0 0)" fill="#404254">
  <rect fill="#f2f5e9" fill-opacity="0.5" stroke="#606060" stroke-width=".5" x="0" y="0" width="60" height="60"/>
  <use id="zoomplus" xlink:href="#zoomPlus" x="17" y="9" onmousedown="handleZoom(evt,'in')"/>
  <use id="zoomminus" xlink:href="#zoomMin" x="42" y="9" onmousedown="handleZoom(evt,'out')"/>
  <use id="reset" xlink:href="#resetDef" x="30" y="36" onmousedown="handleReset()"/>
   <use id="arrowup" xlink:href="#arrowUp" x="0" y="0" onmousedown="handlePan(0,-1)"/>
  <use id="arrowright" xlink:href="#arrowRight" x="0" y="0" onmousedown="handlePan(1,0)"/>
  <use id="arrowdown" xlink:href="#arrowDown" x="0" y="0" onmousedown="handlePan(0,1)"/>
  <use id="arrowleft" xlink:href="#arrowLeft" x="0" y="0" onmousedown="handlePan(-1,0)"/>
</g>
<svg viewBox="0 0 15 15" width="100%" height="30px" preserveAspectRatio="xMaxYMin meet">
 <g id="arrow_out" transform="scale(0.3 0.3)">
  <a xlink:href="LibraryManager_8hpp__incl_org.svg" target="_base">
   <rect id="button" ry="5" rx="5" y="6" x="6" height="38" width="38"
        fill="#f2f5e9" fill-opacity="0.5" stroke="#606060" stroke-width="1.0"/>
   <path id="arrow"
     d="M 11.500037,31.436501 C 11.940474,20.09759 22.043105,11.32322 32.158766,21.979434 L 37.068811,17.246167 C 37.068811,17.246167 37.088388,32 37.088388,32 L 22.160133,31.978069 C 22.160133,31.978069 26.997745,27.140456 26.997745,27.140456 C 18.528582,18.264221 13.291696,25.230495 11.500037,31.436501 z"
     style="fill:#404040;"/>
  </a>
 </g>
</svg>

<style type='text/css'>
<![CDATA[
[data-mouse-over-selected='false'] { opacity: 0.7; }
[data-mouse-over-selected='true']  { opacity: 1.0; }
]]>
</style>
<script type="application/ecmascript"><![CDATA[
document.addEventListener('DOMContentLoaded', (event) => {
  highlightEdges();
  highlightAdjacentNodes();
});
]]></script>
</svg>
