<?xml version="1.0" encoding="UTF-8" standalone="no"?>
<!DOCTYPE svg PUBLIC "-//W3C//DTD SVG 1.1//EN"
 "http://www.w3.org/Graphics/SVG/1.1/DTD/svg11.dtd">
<!-- Generated by graphviz version 14.0.5 (20251129.0259)
 -->
<!-- Title: client/include/Scenes/LobbyScene.hpp Pages: 1 -->
<svg width="388pt" height="160pt"
 viewBox="0.00 0.00 388.00 160.00" xmlns="http://www.w3.org/2000/svg" xmlns:xlink="http://www.w3.org/1999/xlink">
<g id="graph0" class="graph" transform="scale(1 1) rotate(0) translate(4 156.25)">
<title>client/include/Scenes/LobbyScene.hpp</title>
<!-- Node1 -->
<g id="Node000001" class="node">
<title>Node1</title>
<g id="a_Node000001"><a xlink:title=" ">
<polygon fill="#999999" stroke="#666666" points="275.25,-152.25 166.25,-152.25 166.25,-121.75 275.25,-121.75 275.25,-152.25"/>
<text xml:space="preserve" text-anchor="start" x="174.25" y="-138.75" font-family="Helvetica,sans-Serif" font-size="10.00">client/include/Scenes</text>
<text xml:space="preserve" text-anchor="middle" x="220.75" y="-127.5" font-family="Helvetica,sans-Serif" font-size="10.00">/LobbyScene.hpp</text>
</a>
</g>
</g>
<!-- Node2 -->
<g id="Node000002" class="node">
<title>Node2</title>
<g id="a_Node000002"><a xlink:href="Application_8hpp.html" target="_top" xlink:title=" ">
<polygon fill="white" stroke="#666666" points="194.25,-85.75 97.25,-85.75 97.25,-55.25 194.25,-55.25 194.25,-85.75"/>
<text xml:space="preserve" text-anchor="start" x="105.25" y="-72.25" font-family="Helvetica,sans-Serif" font-size="10.00">client/include/Core</text>
<text xml:space="preserve" text-anchor="middle" x="145.75" y="-61" font-family="Helvetica,sans-Serif" font-size="10.00">/Application.hpp</text>
</a>
</g>
</g>
<!-- Node1&#45;&gt;Node2 -->
<g id="edge1_Node000001_Node000002" class="edge">
<title>Node1&#45;&gt;Node2</title>
<g id="a_edge1_Node000001_Node000002"><a xlink:title=" ">
<path fill="none" stroke="#63b8ff" d="M195.16,-113.99C184.44,-104.78 172.28,-94.31 162.7,-86.08"/>
<polygon fill="#63b8ff" stroke="#63b8ff" points="192.72,-116.51 202.58,-120.38 197.28,-111.2 192.72,-116.51"/>
</a>
</g>
</g>
<!-- Node5 -->
<g id="Node000005" class="node">
<title>Node5</title>
<g id="a_Node000005"><a xlink:href="LobbyScene_8cpp.html" target="_top" xlink:title=" ">
<polygon fill="white" stroke="#666666" points="379.5,-80.12 212,-80.12 212,-60.88 379.5,-60.88 379.5,-80.12"/>
<text xml:space="preserve" text-anchor="middle" x="295.75" y="-66.62" font-family="Helvetica,sans-Serif" font-size="10.00">client/src/Scenes/LobbyScene.cpp</text>
</a>
</g>
</g>
<!-- Node1&#45;&gt;Node5 -->
<g id="edge4_Node000001_Node000005" class="edge">
<title>Node1&#45;&gt;Node5</title>
<g id="a_edge4_Node000001_Node000005"><a xlink:title=" ">
<path fill="none" stroke="#63b8ff" d="M246.19,-114.12C259.65,-102.55 275.42,-88.99 285.49,-80.32"/>
<polygon fill="#63b8ff" stroke="#63b8ff" points="244.22,-111.2 238.92,-120.38 248.78,-116.51 244.22,-111.2"/>
</a>
</g>
</g>
<!-- Node3 -->
<g id="Node000003" class="node">
<title>Node3</title>
<g id="a_Node000003"><a xlink:href="Application_8cpp.html" target="_top" xlink:title=" ">
<polygon fill="white" stroke="#666666" points="149.5,-19.25 0,-19.25 0,0 149.5,0 149.5,-19.25"/>
<text xml:space="preserve" text-anchor="middle" x="74.75" y="-5.75" font-family="Helvetica,sans-Serif" font-size="10.00">client/src/Core/Application.cpp</text>
</a>
</g>
</g>
<!-- Node2&#45;&gt;Node3 -->
<g id="edge2_Node000002_Node000003" class="edge">
<title>Node2&#45;&gt;Node3</title>
<g id="a_edge2_Node000002_Node000003"><a xlink:title=" ">
<path fill="none" stroke="#63b8ff" d="M119.62,-47.83C107.9,-38.12 94.72,-27.19 85.7,-19.7"/>
<polygon fill="#63b8ff" stroke="#63b8ff" points="117.1,-50.29 127.03,-53.98 121.57,-44.9 117.1,-50.29"/>
</a>
</g>
</g>
<!-- Node4 -->
<g id="Node000004" class="node">
<title>Node4</title>
<g id="a_Node000004"><a xlink:href="client_2src_2main_8cpp.html" target="_top" xlink:title=" ">
<polygon fill="white" stroke="#666666" points="266,-19.25 167.5,-19.25 167.5,0 266,0 266,-19.25"/>
<text xml:space="preserve" text-anchor="middle" x="216.75" y="-5.75" font-family="Helvetica,sans-Serif" font-size="10.00">client/src/main.cpp</text>
</a>
</g>
</g>
<!-- Node2&#45;&gt;Node4 -->
<g id="edge3_Node000002_Node000004" class="edge">
<title>Node2&#45;&gt;Node4</title>
<g id="a_edge3_Node000002_Node000004"><a xlink:title=" ">
<path fill="none" stroke="#63b8ff" d="M171.88,-47.83C183.6,-38.12 196.78,-27.19 205.8,-19.7"/>
<polygon fill="#63b8ff" stroke="#63b8ff" points="169.93,-44.9 164.47,-53.98 174.4,-50.29 169.93,-44.9"/>
</a>
</g>
</g>
</g>
</svg>
