<?xml version="1.0" encoding="UTF-8" standalone="no"?>
<!DOCTYPE svg PUBLIC "-//W3C//DTD SVG 1.1//EN"
 "http://www.w3.org/Graphics/SVG/1.1/DTD/svg11.dtd">
<!-- Generated by graphviz version 14.0.5 (20251129.0259)
 -->
<!-- Title: common/include/RType/Logger.hpp Pages: 1 -->
<!--zoomable 204 -->

<svg id="main" version="1.1" xmlns="http://www.w3.org/2000/svg" xmlns:xlink="http://www.w3.org/1999/xlink" xml:space="preserve" onload="init(evt)">

<style type="text/css"><![CDATA[
.node, .edge {opacity: 0.7;}
.node.selected, .edge.selected {opacity: 1;}
.edge:hover path { stroke: red; }
.edge:hover polygon { stroke: red; fill: red; }
]]></style>

<defs>
  <circle id="rim" cx="0" cy="0" r="7"/>
  <circle id="rim2" cx="0" cy="0" r="3.5"/>
  <g id="zoomPlus">
    <use xlink:href="#rim" fill="#404040"><set attributeName="fill" to="#808080" begin="zoomplus.mouseover" end="zoomplus.mouseout"/></use>
    <path d="M-4,0h8M0,-4v8" fill="none" stroke="white" stroke-width="1.5" pointer-events="none"/>
  </g>
  <g id="zoomMin">
    <use xlink:href="#rim" fill="#404040"><set attributeName="fill" to="#808080" begin="zoomminus.mouseover" end="zoomminus.mouseout"/></use>
    <path d="M-4,0h8" fill="none" stroke="white" stroke-width="1.5" pointer-events="none"/>
  </g>
  <g id="arrowUp" transform="translate(30 24)">
    <use xlink:href="#rim"/>
    <path pointer-events="none" fill="none" stroke="white" stroke-width="1.5" d="M0,-3.0v7 M-2.5,-0.5L0,-3.0L2.5,-0.5"/>
  </g>
  <g id="arrowRight" transform="rotate(90) translate(36 -43)">
    <use xlink:href="#rim"/>
    <path pointer-events="none" fill="none" stroke="white" stroke-width="1.5" d="M0,-3.0v7 M-2.5,-0.5L0,-3.0L2.5,-0.5"/>
  </g>
  <g id="arrowDown" transform="rotate(180) translate(-30 -48)">
    <use xlink:href="#rim"/>
    <path pointer-events="none" fill="none" stroke="white" stroke-width="1.5" d="M0,-3.0v7 M-2.5,-0.5L0,-3.0L2.5,-0.5"/>
  </g>
  <g id="arrowLeft" transform="rotate(270) translate(-36 17)">
    <use xlink:href="#rim"/>
    <path pointer-events="none" fill="none" stroke="white" stroke-width="1.5" d="M0,-3.0v7 M-2.5,-0.5L0,-3.0L2.5,-0.5"/>
  </g>
  <g id="resetDef">
    <use xlink:href="#rim2" fill="#404040"><set attributeName="fill" to="#808080" begin="reset.mouseover" end="reset.mouseout"/></use>
  </g>
</defs>
<script type="application/ecmascript">
var viewWidth = 976;
var viewHeight = 204;
var sectionId = 'dynsection-0';
</script>
<script type="application/ecmascript" xlink:href="svg.min.js"/>
<svg id="graph" class="graph">
<g id="viewport">
<title>common/include/RType/Logger.hpp</title>
<!-- Node1 -->
<g id="Node000001" class="node">
<title>Node1</title>
<g id="a_Node000001"><a xlink:title="Logger declaration with support for multiple log levels.">
<polygon fill="#999999" stroke="#666666" points="664.25,-196.25 545.5,-196.25 545.5,-165.75 664.25,-165.75 664.25,-196.25"/>
<text xml:space="preserve" text-anchor="start" x="553.5" y="-182.75" font-family="Helvetica,sans-Serif" font-size="10.00">common/include/RType</text>
<text xml:space="preserve" text-anchor="middle" x="604.88" y="-171.5" font-family="Helvetica,sans-Serif" font-size="10.00">/Logger.hpp</text>
</a>
</g>
</g>
<!-- Node2 -->
<g id="Node000002" class="node">
<title>Node2</title>
<g id="a_Node000002"><a xlink:href="LogLevel_8hpp.html" target="_top" xlink:title="Log severity levels for the logging system.">
<polygon fill="white" stroke="#666666" points="155.5,-74.5 50.25,-74.5 50.25,-55.25 155.5,-55.25 155.5,-74.5"/>
<text xml:space="preserve" text-anchor="middle" x="102.88" y="-61" font-family="Helvetica,sans-Serif" font-size="10.00">RType/LogLevel.hpp</text>
</a>
</g>
</g>
<!-- Node1&#45;&gt;Node2 -->
<g id="edge1_Node000001_Node000002" class="edge">
<title>Node1&#45;&gt;Node2</title>
<g id="a_edge1_Node000001_Node000002"><a xlink:title=" ">
<path fill="none" stroke="#63b8ff" d="M545.07,-174.18C479.53,-167.01 371.62,-152.84 280.88,-129.75 228.48,-116.42 169.84,-93.8 134.66,-79.37"/>
<polygon fill="#63b8ff" stroke="#63b8ff" points="136.08,-76.17 125.51,-75.57 133.4,-82.64 136.08,-76.17"/>
</a>
</g>
</g>
<!-- Node4 -->
<g id="Node000004" class="node">
<title>Node4</title>
<g id="a_Node000004"><a xlink:title=" ">
<polygon fill="#e0e0e0" stroke="#999999" points="43.75,-19.25 0,-19.25 0,0 43.75,0 43.75,-19.25"/>
<text xml:space="preserve" text-anchor="middle" x="21.88" y="-5.75" font-family="Helvetica,sans-Serif" font-size="10.00">format</text>
</a>
</g>
</g>
<!-- Node1&#45;&gt;Node4 -->
<g id="edge18_Node000001_Node000004" class="edge">
<title>Node1&#45;&gt;Node4</title>
<g id="a_edge18_Node000001_Node000004"><a xlink:title=" ">
<path fill="none" stroke="#63b8ff" d="M545.22,-178.76C410.05,-174.51 87.26,-155.89 23.88,-74.5 14.38,-62.3 14.63,-44.46 16.83,-30.73"/>
<polygon fill="#63b8ff" stroke="#63b8ff" points="20.23,-31.54 18.86,-21.04 13.38,-30.11 20.23,-31.54"/>
</a>
</g>
</g>
<!-- Node5 -->
<g id="Node000005" class="node">
<title>Node5</title>
<g id="a_Node000005"><a xlink:title=" ">
<polygon fill="#e0e0e0" stroke="#999999" points="392.62,-19.25 327.12,-19.25 327.12,0 392.62,0 392.62,-19.25"/>
<text xml:space="preserve" text-anchor="middle" x="359.88" y="-5.75" font-family="Helvetica,sans-Serif" font-size="10.00">string_view</text>
</a>
</g>
</g>
<!-- Node1&#45;&gt;Node5 -->
<g id="edge21_Node000001_Node000005" class="edge">
<title>Node1&#45;&gt;Node5</title>
<g id="a_edge21_Node000001_Node000005"><a xlink:title=" ">
<path fill="none" stroke="#63b8ff" d="M604.92,-165.62C604.19,-139.56 598.7,-84.53 566.88,-55.25 543.56,-33.8 457.81,-21.01 404.26,-14.93"/>
<polygon fill="#63b8ff" stroke="#63b8ff" points="404.86,-11.48 394.54,-13.87 404.1,-18.44 404.86,-11.48"/>
</a>
</g>
</g>
<!-- Node6 -->
<g id="Node000006" class="node">
<title>Node6</title>
<g id="a_Node000006"><a xlink:title=" ">
<polygon fill="#e0e0e0" stroke="#999999" points="509.5,-19.25 470.25,-19.25 470.25,0 509.5,0 509.5,-19.25"/>
<text xml:space="preserve" text-anchor="middle" x="489.88" y="-5.75" font-family="Helvetica,sans-Serif" font-size="10.00">utility</text>
</a>
</g>
</g>
<!-- Node1&#45;&gt;Node6 -->
<g id="edge23_Node000001_Node000006" class="edge">
<title>Node1&#45;&gt;Node6</title>
<g id="a_edge23_Node000001_Node000006"><a xlink:title=" ">
<path fill="none" stroke="#63b8ff" d="M608.96,-165.33C615.02,-140.24 623.31,-88.59 599.88,-55.25 581.89,-29.66 546.57,-18.73 520.79,-14.07"/>
<polygon fill="#63b8ff" stroke="#63b8ff" points="521.63,-10.66 511.21,-12.57 520.55,-17.57 521.63,-10.66"/>
</a>
</g>
</g>
<!-- Node8 -->
<g id="Node000008" class="node">
<title>Node8</title>
<g id="a_Node000008"><a xlink:href="Error_8hpp.html" target="_top" xlink:title="Error handling system with categorized error codes.">
<polygon fill="white" stroke="#666666" points="376.12,-129.75 289.62,-129.75 289.62,-110.5 376.12,-110.5 376.12,-129.75"/>
<text xml:space="preserve" text-anchor="middle" x="332.88" y="-116.25" font-family="Helvetica,sans-Serif" font-size="10.00">RType/Error.hpp</text>
</a>
</g>
</g>
<!-- Node1&#45;&gt;Node8 -->
<g id="edge7_Node000001_Node000008" class="edge">
<title>Node1&#45;&gt;Node8</title>
<g id="a_edge7_Node000001_Node000008"><a xlink:title=" ">
<path fill="none" stroke="#63b8ff" d="M545.18,-167.08C497.61,-156.78 431.62,-142.5 385.89,-132.6"/>
<polygon fill="#63b8ff" stroke="#63b8ff" points="386.71,-129.2 376.2,-130.5 385.23,-136.04 386.71,-129.2"/>
</a>
</g>
</g>
<!-- Node9 -->
<g id="Node000009" class="node">
<title>Node9</title>
<g id="a_Node000009"><a xlink:title=" ">
<polygon fill="#e0e0e0" stroke="#999999" points="557.88,-74.5 517.88,-74.5 517.88,-55.25 557.88,-55.25 557.88,-74.5"/>
<text xml:space="preserve" text-anchor="middle" x="537.88" y="-61" font-family="Helvetica,sans-Serif" font-size="10.00">string</text>
</a>
</g>
</g>
<!-- Node1&#45;&gt;Node9 -->
<g id="edge20_Node000001_Node000009" class="edge">
<title>Node1&#45;&gt;Node9</title>
<g id="a_edge20_Node000001_Node000009"><a xlink:title=" ">
<path fill="none" stroke="#63b8ff" d="M594.69,-165.28C587.97,-155.38 579.11,-141.96 571.88,-129.75 563.06,-114.87 553.89,-97.52 547.3,-84.66"/>
<polygon fill="#63b8ff" stroke="#63b8ff" points="550.57,-83.38 542.93,-76.04 544.33,-86.55 550.57,-83.38"/>
</a>
</g>
</g>
<!-- Node13 -->
<g id="Node000013" class="node">
<title>Node13</title>
<g id="a_Node000013"><a xlink:title=" ">
<polygon fill="#e0e0e0" stroke="#999999" points="707.75,-129.75 652,-129.75 652,-110.5 707.75,-110.5 707.75,-129.75"/>
<text xml:space="preserve" text-anchor="middle" x="679.88" y="-116.25" font-family="Helvetica,sans-Serif" font-size="10.00">expected</text>
</a>
</g>
</g>
<!-- Node1&#45;&gt;Node13 -->
<g id="edge17_Node000001_Node000013" class="edge">
<title>Node1&#45;&gt;Node13</title>
<g id="a_edge17_Node000001_Node000013"><a xlink:title=" ">
<path fill="none" stroke="#63b8ff" d="M623.41,-165.45C634.39,-156.83 648.32,-145.9 659.59,-137.05"/>
<polygon fill="#63b8ff" stroke="#63b8ff" points="661.42,-140.06 667.12,-131.14 657.1,-134.56 661.42,-140.06"/>
</a>
</g>
</g>
<!-- Node14 -->
<g id="Node000014" class="node">
<title>Node14</title>
<g id="a_Node000014"><a xlink:title=" ">
<polygon fill="#e0e0e0" stroke="#999999" points="810,-129.75 725.75,-129.75 725.75,-110.5 810,-110.5 810,-129.75"/>
<text xml:space="preserve" text-anchor="middle" x="767.88" y="-116.25" font-family="Helvetica,sans-Serif" font-size="10.00">source_location</text>
</a>
</g>
</g>
<!-- Node1&#45;&gt;Node14 -->
<g id="edge19_Node000001_Node000014" class="edge">
<title>Node1&#45;&gt;Node14</title>
<g id="a_edge19_Node000001_Node000014"><a xlink:title=" ">
<path fill="none" stroke="#63b8ff" d="M645.59,-165.3C672.2,-155.68 706.63,-143.25 732.18,-134.02"/>
<polygon fill="#63b8ff" stroke="#63b8ff" points="733.24,-137.36 741.45,-130.67 730.86,-130.77 733.24,-137.36"/>
</a>
</g>
</g>
<!-- Node15 -->
<g id="Node000015" class="node">
<title>Node15</title>
<g id="a_Node000015"><a xlink:title=" ">
<polygon fill="#e0e0e0" stroke="#999999" points="889.75,-129.75 828,-129.75 828,-110.5 889.75,-110.5 889.75,-129.75"/>
<text xml:space="preserve" text-anchor="middle" x="858.88" y="-116.25" font-family="Helvetica,sans-Serif" font-size="10.00">type_traits</text>
</a>
</g>
</g>
<!-- Node1&#45;&gt;Node15 -->
<g id="edge22_Node000001_Node000015" class="edge">
<title>Node1&#45;&gt;Node15</title>
<g id="a_edge22_Node000001_Node000015"><a xlink:title=" ">
<path fill="none" stroke="#63b8ff" d="M664.75,-166.12C711.4,-155.31 775.02,-140.56 816.51,-130.95"/>
<polygon fill="#63b8ff" stroke="#63b8ff" points="817.17,-134.39 826.12,-128.72 815.59,-127.57 817.17,-134.39"/>
</a>
</g>
</g>
<!-- Node16 -->
<g id="Node000016" class="node">
<title>Node16</title>
<g id="a_Node000016"><a xlink:href="Logger_8tpp.html" target="_top" xlink:title=" ">
<polygon fill="white" stroke="#666666" points="968.38,-129.75 907.38,-129.75 907.38,-110.5 968.38,-110.5 968.38,-129.75"/>
<text xml:space="preserve" text-anchor="middle" x="937.88" y="-116.25" font-family="Helvetica,sans-Serif" font-size="10.00">Logger.tpp</text>
</a>
</g>
</g>
<!-- Node1&#45;&gt;Node16 -->
<g id="edge24_Node000001_Node000016" class="edge">
<title>Node1&#45;&gt;Node16</title>
<g id="a_edge24_Node000001_Node000016"><a xlink:title=" ">
<path fill="none" stroke="#63b8ff" d="M664.72,-170.64C721.73,-161.53 810.26,-146.87 895.99,-130.24"/>
<polygon fill="#63b8ff" stroke="#63b8ff" points="896.62,-133.69 905.76,-128.34 895.28,-126.82 896.62,-133.69"/>
</a>
</g>
</g>
<!-- Node3 -->
<g id="Node000003" class="node">
<title>Node3</title>
<g id="a_Node000003"><a xlink:title=" ">
<polygon fill="#e0e0e0" stroke="#999999" points="203.5,-19.25 158.25,-19.25 158.25,0 203.5,0 203.5,-19.25"/>
<text xml:space="preserve" text-anchor="middle" x="180.88" y="-5.75" font-family="Helvetica,sans-Serif" font-size="10.00">cstdint</text>
</a>
</g>
</g>
<!-- Node2&#45;&gt;Node3 -->
<g id="edge2_Node000002_Node000003" class="edge">
<title>Node2&#45;&gt;Node3</title>
<g id="a_edge2_Node000002_Node000003"><a xlink:title=" ">
<path fill="none" stroke="#63b8ff" d="M116.11,-54.84C127.65,-46.96 144.64,-35.36 158.32,-26.02"/>
<polygon fill="#63b8ff" stroke="#63b8ff" points="160.04,-29.08 166.33,-20.56 156.1,-23.3 160.04,-29.08"/>
</a>
</g>
</g>
<!-- Node2&#45;&gt;Node4 -->
<g id="edge3_Node000002_Node000004" class="edge">
<title>Node2&#45;&gt;Node4</title>
<g id="a_edge3_Node000002_Node000004"><a xlink:title=" ">
<path fill="none" stroke="#63b8ff" d="M89.13,-54.84C77.15,-46.96 59.5,-35.36 45.29,-26.02"/>
<polygon fill="#63b8ff" stroke="#63b8ff" points="47.23,-23.1 36.95,-20.53 43.38,-28.95 47.23,-23.1"/>
</a>
</g>
</g>
<!-- Node2&#45;&gt;Node5 -->
<g id="edge4_Node000002_Node000005" class="edge">
<title>Node2&#45;&gt;Node5</title>
<g id="a_edge4_Node000002_Node000005"><a xlink:title=" ">
<path fill="none" stroke="#63b8ff" d="M146.76,-54.78C193.91,-45.01 268.42,-29.57 315.69,-19.78"/>
<polygon fill="#63b8ff" stroke="#63b8ff" points="316.23,-23.24 325.31,-17.79 314.81,-16.39 316.23,-23.24"/>
</a>
</g>
</g>
<!-- Node2&#45;&gt;Node6 -->
<g id="edge5_Node000002_Node000006" class="edge">
<title>Node2&#45;&gt;Node6</title>
<g id="a_edge5_Node000002_Node000006"><a xlink:title=" ">
<path fill="none" stroke="#63b8ff" d="M155.87,-56.58C237.72,-45.32 392.34,-24.04 458.53,-14.94"/>
<polygon fill="#63b8ff" stroke="#63b8ff" points="458.89,-18.42 468.32,-13.59 457.94,-11.49 458.89,-18.42"/>
</a>
</g>
</g>
<!-- Node7 -->
<g id="Node000007" class="node">
<title>Node7</title>
<g id="a_Node000007"><a xlink:title=" ">
<polygon fill="#e0e0e0" stroke="#999999" points="136.75,-19.25 69,-19.25 69,0 136.75,0 136.75,-19.25"/>
<text xml:space="preserve" text-anchor="middle" x="102.88" y="-5.75" font-family="Helvetica,sans-Serif" font-size="10.00">LogLevel.inl</text>
</a>
</g>
</g>
<!-- Node2&#45;&gt;Node7 -->
<g id="edge6_Node000002_Node000007" class="edge">
<title>Node2&#45;&gt;Node7</title>
<g id="a_edge6_Node000002_Node000007"><a xlink:title=" ">
<path fill="none" stroke="#63b8ff" d="M102.88,-55.08C102.88,-48.57 102.88,-39.42 102.88,-31.12"/>
<polygon fill="#63b8ff" stroke="#63b8ff" points="106.38,-31.12 102.88,-21.12 99.38,-31.12 106.38,-31.12"/>
</a>
</g>
</g>
<!-- Node8&#45;&gt;Node2 -->
<g id="edge8_Node000008_Node000002" class="edge">
<title>Node8&#45;&gt;Node2</title>
<g id="a_edge8_Node000008_Node000002"><a xlink:title=" ">
<path fill="none" stroke="#63b8ff" d="M293.6,-110.03C254.81,-101.05 195.35,-87.28 153.14,-77.51"/>
<polygon fill="#63b8ff" stroke="#63b8ff" points="154,-74.12 143.46,-75.27 152.42,-80.94 154,-74.12"/>
</a>
</g>
</g>
<!-- Node8&#45;&gt;Node3 -->
<g id="edge9_Node000008_Node000003" class="edge">
<title>Node8&#45;&gt;Node3</title>
<g id="a_edge9_Node000008_Node000003"><a xlink:title=" ">
<path fill="none" stroke="#63b8ff" d="M289.4,-114.08C261.35,-108.68 225.92,-97.52 202.88,-74.5 191.19,-62.82 185.7,-44.65 183.13,-30.68"/>
<polygon fill="#63b8ff" stroke="#63b8ff" points="186.6,-30.22 181.71,-20.82 179.67,-31.22 186.6,-30.22"/>
</a>
</g>
</g>
<!-- Node8&#45;&gt;Node4 -->
<g id="edge10_Node000008_Node000004" class="edge">
<title>Node8&#45;&gt;Node4</title>
<g id="a_edge10_Node000008_Node000004"><a xlink:title=" ">
<path fill="none" stroke="#63b8ff" d="M289.13,-118.03C216.92,-115.34 77.13,-106.08 40.88,-74.5 28.46,-63.68 23.98,-45.15 22.44,-30.83"/>
<polygon fill="#63b8ff" stroke="#63b8ff" points="25.95,-30.89 21.83,-21.13 18.97,-31.34 25.95,-30.89"/>
</a>
</g>
</g>
<!-- Node8&#45;&gt;Node5 -->
<g id="edge12_Node000008_Node000005" class="edge">
<title>Node8&#45;&gt;Node5</title>
<g id="a_edge12_Node000008_Node000005"><a xlink:title=" ">
<path fill="none" stroke="#63b8ff" d="M335.08,-110.25C339.4,-92.92 349.02,-54.23 354.93,-30.49"/>
<polygon fill="#63b8ff" stroke="#63b8ff" points="358.25,-31.64 357.27,-21.1 351.46,-29.95 358.25,-31.64"/>
</a>
</g>
</g>
<!-- Node8&#45;&gt;Node6 -->
<g id="edge14_Node000008_Node000006" class="edge">
<title>Node8&#45;&gt;Node6</title>
<g id="a_edge14_Node000008_Node000006"><a xlink:title=" ">
<path fill="none" stroke="#63b8ff" d="M376.38,-115.58C406.72,-110.86 446.07,-99.9 470.88,-74.5 482.26,-62.84 486.87,-44.67 488.71,-30.69"/>
<polygon fill="#63b8ff" stroke="#63b8ff" points="492.19,-31.11 489.6,-20.83 485.22,-30.48 492.19,-31.11"/>
</a>
</g>
</g>
<!-- Node8&#45;&gt;Node9 -->
<g id="edge11_Node000008_Node000009" class="edge">
<title>Node8&#45;&gt;Node9</title>
<g id="a_edge11_Node000008_Node000009"><a xlink:title=" ">
<path fill="none" stroke="#63b8ff" d="M367.65,-110.09C406.68,-99.95 469.42,-83.66 506.85,-73.93"/>
<polygon fill="#63b8ff" stroke="#63b8ff" points="507.33,-77.43 516.13,-71.52 505.57,-70.65 507.33,-77.43"/>
</a>
</g>
</g>
<!-- Node10 -->
<g id="Node000010" class="node">
<title>Node10</title>
<g id="a_Node000010"><a xlink:title=" ">
<polygon fill="#e0e0e0" stroke="#999999" points="461.38,-74.5 388.38,-74.5 388.38,-55.25 461.38,-55.25 461.38,-74.5"/>
<text xml:space="preserve" text-anchor="middle" x="424.88" y="-61" font-family="Helvetica,sans-Serif" font-size="10.00">system_error</text>
</a>
</g>
</g>
<!-- Node8&#45;&gt;Node10 -->
<g id="edge13_Node000008_Node000010" class="edge">
<title>Node8&#45;&gt;Node10</title>
<g id="a_edge13_Node000008_Node000010"><a xlink:title=" ">
<path fill="none" stroke="#63b8ff" d="M348.48,-110.09C362.49,-101.98 383.31,-89.93 399.68,-80.46"/>
<polygon fill="#63b8ff" stroke="#63b8ff" points="400.98,-83.75 407.88,-75.71 397.47,-77.69 400.98,-83.75"/>
</a>
</g>
</g>
<!-- Node11 -->
<g id="Node000011" class="node">
<title>Node11</title>
<g id="a_Node000011"><a xlink:title=" ">
<polygon fill="#e0e0e0" stroke="#999999" points="261.38,-74.5 212.38,-74.5 212.38,-55.25 261.38,-55.25 261.38,-74.5"/>
<text xml:space="preserve" text-anchor="middle" x="236.88" y="-61" font-family="Helvetica,sans-Serif" font-size="10.00">Error.inl</text>
</a>
</g>
</g>
<!-- Node8&#45;&gt;Node11 -->
<g id="edge15_Node000008_Node000011" class="edge">
<title>Node8&#45;&gt;Node11</title>
<g id="a_edge15_Node000008_Node000011"><a xlink:title=" ">
<path fill="none" stroke="#63b8ff" d="M316.59,-110.09C301.97,-101.98 280.25,-89.93 263.17,-80.46"/>
<polygon fill="#63b8ff" stroke="#63b8ff" points="265.01,-77.48 254.56,-75.69 261.61,-83.6 265.01,-77.48"/>
</a>
</g>
</g>
<!-- Node12 -->
<g id="Node000012" class="node">
<title>Node12</title>
<g id="a_Node000012"><a xlink:href="Error_8tpp.html" target="_top" xlink:title=" ">
<polygon fill="white" stroke="#666666" points="332.25,-74.5 279.5,-74.5 279.5,-55.25 332.25,-55.25 332.25,-74.5"/>
<text xml:space="preserve" text-anchor="middle" x="305.88" y="-61" font-family="Helvetica,sans-Serif" font-size="10.00">Error.tpp</text>
</a>
</g>
</g>
<!-- Node8&#45;&gt;Node12 -->
<g id="edge16_Node000008_Node000012" class="edge">
<title>Node8&#45;&gt;Node12</title>
<g id="a_edge16_Node000008_Node000012"><a xlink:title=" ">
<path fill="none" stroke="#63b8ff" d="M328.42,-110.33C324.92,-103.44 319.93,-93.59 315.53,-84.91"/>
<polygon fill="#63b8ff" stroke="#63b8ff" points="318.76,-83.55 311.11,-76.21 312.52,-86.71 318.76,-83.55"/>
</a>
</g>
</g>
</g>
</svg>

<g id="navigator" transform="translate(0 0)" fill="#404254">
  <rect fill="#f2f5e9" fill-opacity="0.5" stroke="#606060" stroke-width=".5" x="0" y="0" width="60" height="60"/>
  <use id="zoomplus" xlink:href="#zoomPlus" x="17" y="9" onmousedown="handleZoom(evt,'in')"/>
  <use id="zoomminus" xlink:href="#zoomMin" x="42" y="9" onmousedown="handleZoom(evt,'out')"/>
  <use id="reset" xlink:href="#resetDef" x="30" y="36" onmousedown="handleReset()"/>
   <use id="arrowup" xlink:href="#arrowUp" x="0" y="0" onmousedown="handlePan(0,-1)"/>
  <use id="arrowright" xlink:href="#arrowRight" x="0" y="0" onmousedown="handlePan(1,0)"/>
  <use id="arrowdown" xlink:href="#arrowDown" x="0" y="0" onmousedown="handlePan(0,1)"/>
  <use id="arrowleft" xlink:href="#arrowLeft" x="0" y="0" onmousedown="handlePan(-1,0)"/>
</g>
<svg viewBox="0 0 15 15" width="100%" height="30px" preserveAspectRatio="xMaxYMin meet">
 <g id="arrow_out" transform="scale(0.3 0.3)">
  <a xlink:href="Logger_8hpp__incl_org.svg" target="_base">
   <rect id="button" ry="5" rx="5" y="6" x="6" height="38" width="38"
        fill="#f2f5e9" fill-opacity="0.5" stroke="#606060" stroke-width="1.0"/>
   <path id="arrow"
     d="M 11.500037,31.436501 C 11.940474,20.09759 22.043105,11.32322 32.158766,21.979434 L 37.068811,17.246167 C 37.068811,17.246167 37.088388,32 37.088388,32 L 22.160133,31.978069 C 22.160133,31.978069 26.997745,27.140456 26.997745,27.140456 C 18.528582,18.264221 13.291696,25.230495 11.500037,31.436501 z"
     style="fill:#404040;"/>
  </a>
 </g>
</svg>

<style type='text/css'>
<![CDATA[
[data-mouse-over-selected='false'] { opacity: 0.7; }
[data-mouse-over-selected='true']  { opacity: 1.0; }
]]>
</style>
<script type="application/ecmascript"><![CDATA[
document.addEventListener('DOMContentLoaded', (event) => {
  highlightEdges();
  highlightAdjacentNodes();
});
]]></script>
</svg>
