<?xml version="1.0" encoding="UTF-8" standalone="no"?>
<!DOCTYPE svg PUBLIC "-//W3C//DTD SVG 1.1//EN"
 "http://www.w3.org/Graphics/SVG/1.1/DTD/svg11.dtd">
<!-- Generated by graphviz version 14.0.5 (20251129.0259)
 -->
<!-- Title: common/include/RType/LogLevel.hpp Pages: 1 -->
<svg width="343pt" height="94pt"
 viewBox="0.00 0.00 343.00 94.00" xmlns="http://www.w3.org/2000/svg" xmlns:xlink="http://www.w3.org/1999/xlink">
<g id="graph0" class="graph" transform="scale(1 1) rotate(0) translate(4 89.75)">
<title>common/include/RType/LogLevel.hpp</title>
<!-- Node1 -->
<g id="Node000001" class="node">
<title>Node1</title>
<g id="a_Node000001"><a xlink:title="Log severity levels for the logging system.">
<polygon fill="#999999" stroke="#666666" points="218,-85.75 99.25,-85.75 99.25,-55.25 218,-55.25 218,-85.75"/>
<text xml:space="preserve" text-anchor="start" x="107.25" y="-72.25" font-family="Helvetica,sans-Serif" font-size="10.00">common/include/RType</text>
<text xml:space="preserve" text-anchor="middle" x="158.62" y="-61" font-family="Helvetica,sans-Serif" font-size="10.00">/LogLevel.hpp</text>
</a>
</g>
</g>
<!-- Node2 -->
<g id="Node000002" class="node">
<title>Node2</title>
<g id="a_Node000002"><a xlink:title=" ">
<polygon fill="#e0e0e0" stroke="#999999" points="45.25,-19.25 0,-19.25 0,0 45.25,0 45.25,-19.25"/>
<text xml:space="preserve" text-anchor="middle" x="22.62" y="-5.75" font-family="Helvetica,sans-Serif" font-size="10.00">cstdint</text>
</a>
</g>
</g>
<!-- Node1&#45;&gt;Node2 -->
<g id="edge1_Node000001_Node000002" class="edge">
<title>Node1&#45;&gt;Node2</title>
<g id="a_edge1_Node000001_Node000002"><a xlink:title=" ">
<path fill="none" stroke="#63b8ff" d="M124.66,-54.8C102.95,-45.4 75.01,-33.3 53.86,-24.14"/>
<polygon fill="#63b8ff" stroke="#63b8ff" points="55.44,-21.02 44.87,-20.26 52.66,-27.44 55.44,-21.02"/>
</a>
</g>
</g>
<!-- Node3 -->
<g id="Node000003" class="node">
<title>Node3</title>
<g id="a_Node000003"><a xlink:title=" ">
<polygon fill="#e0e0e0" stroke="#999999" points="107.5,-19.25 63.75,-19.25 63.75,0 107.5,0 107.5,-19.25"/>
<text xml:space="preserve" text-anchor="middle" x="85.62" y="-5.75" font-family="Helvetica,sans-Serif" font-size="10.00">format</text>
</a>
</g>
</g>
<!-- Node1&#45;&gt;Node3 -->
<g id="edge2_Node000001_Node000003" class="edge">
<title>Node1&#45;&gt;Node3</title>
<g id="a_edge2_Node000001_Node000003"><a xlink:title=" ">
<path fill="none" stroke="#63b8ff" d="M140.58,-54.95C130,-46.41 116.61,-35.62 105.7,-26.81"/>
<polygon fill="#63b8ff" stroke="#63b8ff" points="108.04,-24.2 98.06,-20.65 103.64,-29.65 108.04,-24.2"/>
</a>
</g>
</g>
<!-- Node4 -->
<g id="Node000004" class="node">
<title>Node4</title>
<g id="a_Node000004"><a xlink:title=" ">
<polygon fill="#e0e0e0" stroke="#999999" points="191.38,-19.25 125.88,-19.25 125.88,0 191.38,0 191.38,-19.25"/>
<text xml:space="preserve" text-anchor="middle" x="158.62" y="-5.75" font-family="Helvetica,sans-Serif" font-size="10.00">string_view</text>
</a>
</g>
</g>
<!-- Node1&#45;&gt;Node4 -->
<g id="edge3_Node000001_Node000004" class="edge">
<title>Node1&#45;&gt;Node4</title>
<g id="a_edge3_Node000001_Node000004"><a xlink:title=" ">
<path fill="none" stroke="#63b8ff" d="M158.62,-54.95C158.62,-47.71 158.62,-38.84 158.62,-30.94"/>
<polygon fill="#63b8ff" stroke="#63b8ff" points="162.13,-31.21 158.63,-21.21 155.13,-31.21 162.13,-31.21"/>
</a>
</g>
</g>
<!-- Node5 -->
<g id="Node000005" class="node">
<title>Node5</title>
<g id="a_Node000005"><a xlink:title=" ">
<polygon fill="#e0e0e0" stroke="#999999" points="248.25,-19.25 209,-19.25 209,0 248.25,0 248.25,-19.25"/>
<text xml:space="preserve" text-anchor="middle" x="228.62" y="-5.75" font-family="Helvetica,sans-Serif" font-size="10.00">utility</text>
</a>
</g>
</g>
<!-- Node1&#45;&gt;Node5 -->
<g id="edge4_Node000001_Node000005" class="edge">
<title>Node1&#45;&gt;Node5</title>
<g id="a_edge4_Node000001_Node000005"><a xlink:title=" ">
<path fill="none" stroke="#63b8ff" d="M175.93,-54.95C185.97,-46.5 198.65,-35.83 209.06,-27.08"/>
<polygon fill="#63b8ff" stroke="#63b8ff" points="211.28,-29.79 216.68,-20.68 206.77,-24.43 211.28,-29.79"/>
</a>
</g>
</g>
<!-- Node6 -->
<g id="Node000006" class="node">
<title>Node6</title>
<g id="a_Node000006"><a xlink:title=" ">
<polygon fill="#e0e0e0" stroke="#999999" points="334.5,-19.25 266.75,-19.25 266.75,0 334.5,0 334.5,-19.25"/>
<text xml:space="preserve" text-anchor="middle" x="300.62" y="-5.75" font-family="Helvetica,sans-Serif" font-size="10.00">LogLevel.inl</text>
</a>
</g>
</g>
<!-- Node1&#45;&gt;Node6 -->
<g id="edge5_Node000001_Node000006" class="edge">
<title>Node1&#45;&gt;Node6</title>
<g id="a_edge5_Node000001_Node000006"><a xlink:title=" ">
<path fill="none" stroke="#63b8ff" d="M194.09,-54.8C216.86,-45.35 246.2,-33.19 268.32,-24.02"/>
<polygon fill="#63b8ff" stroke="#63b8ff" points="269.55,-27.3 277.45,-20.23 266.87,-20.83 269.55,-27.3"/>
</a>
</g>
</g>
</g>
</svg>
