<?xml version="1.0" encoding="UTF-8" standalone="no"?>
<!DOCTYPE svg PUBLIC "-//W3C//DTD SVG 1.1//EN"
 "http://www.w3.org/Graphics/SVG/1.1/DTD/svg11.dtd">
<!-- Generated by graphviz version 14.0.5 (20251129.0259)
 -->
<!-- Title: common/include/RType/ECS/Components/MouvementPattern.hpp Pages: 1 -->
<svg width="646pt" height="293pt"
 viewBox="0.00 0.00 646.00 293.00" xmlns="http://www.w3.org/2000/svg" xmlns:xlink="http://www.w3.org/1999/xlink">
<g id="graph0" class="graph" transform="scale(1 1) rotate(0) translate(4 289.25)">
<title>common/include/RType/ECS/Components/MouvementPattern.hpp</title>
<!-- Node1 -->
<g id="Node000001" class="node">
<title>Node1</title>
<g id="a_Node000001"><a xlink:title=" ">
<polygon fill="#999999" stroke="#666666" points="520.75,-285.25 318,-285.25 318,-254.75 520.75,-254.75 520.75,-285.25"/>
<text xml:space="preserve" text-anchor="start" x="326" y="-271.75" font-family="Helvetica,sans-Serif" font-size="10.00">common/include/RType</text>
<text xml:space="preserve" text-anchor="middle" x="419.38" y="-260.5" font-family="Helvetica,sans-Serif" font-size="10.00">/ECS/Components/MouvementPattern.hpp</text>
</a>
</g>
</g>
<!-- Node2 -->
<g id="Node000002" class="node">
<title>Node2</title>
<g id="a_Node000002"><a xlink:href="GameManager_8hpp.html" target="_top" xlink:title=" ">
<polygon fill="white" stroke="#666666" points="468.38,-85.75 362.38,-85.75 362.38,-55.25 468.38,-55.25 468.38,-85.75"/>
<text xml:space="preserve" text-anchor="start" x="370.38" y="-72.25" font-family="Helvetica,sans-Serif" font-size="10.00">server/include/Game</text>
<text xml:space="preserve" text-anchor="middle" x="415.38" y="-61" font-family="Helvetica,sans-Serif" font-size="10.00">/GameManager.hpp</text>
</a>
</g>
</g>
<!-- Node1&#45;&gt;Node2 -->
<g id="edge1_Node000001_Node000002" class="edge">
<title>Node1&#45;&gt;Node2</title>
<g id="a_edge1_Node000001_Node000002"><a xlink:title=" ">
<path fill="none" stroke="#63b8ff" d="M486.59,-251.13C563.59,-227.37 673.43,-181.33 626.38,-121.75 607.09,-97.33 524.78,-83.5 468.85,-76.76"/>
<polygon fill="#63b8ff" stroke="#63b8ff" points="485.98,-247.66 477.41,-253.9 488,-254.37 485.98,-247.66"/>
</a>
</g>
</g>
<!-- Node5 -->
<g id="Node000005" class="node">
<title>Node5</title>
<g id="a_Node000005"><a xlink:href="LevelData_8hpp.html" target="_top" xlink:title=" ">
<polygon fill="white" stroke="#666666" points="274.38,-218.75 168.38,-218.75 168.38,-188.25 274.38,-188.25 274.38,-218.75"/>
<text xml:space="preserve" text-anchor="start" x="176.38" y="-205.25" font-family="Helvetica,sans-Serif" font-size="10.00">server/include/Game</text>
<text xml:space="preserve" text-anchor="middle" x="221.38" y="-194" font-family="Helvetica,sans-Serif" font-size="10.00">/LevelData.hpp</text>
</a>
</g>
</g>
<!-- Node1&#45;&gt;Node5 -->
<g id="edge4_Node000001_Node000005" class="edge">
<title>Node1&#45;&gt;Node5</title>
<g id="a_edge4_Node000001_Node000005"><a xlink:title=" ">
<path fill="none" stroke="#63b8ff" d="M363.89,-250.92C333.13,-240.91 295.39,-228.61 266.47,-219.19"/>
<polygon fill="#63b8ff" stroke="#63b8ff" points="362.41,-254.13 373.01,-253.9 364.58,-247.47 362.41,-254.13"/>
</a>
</g>
</g>
<!-- Node9 -->
<g id="Node000009" class="node">
<title>Node9</title>
<g id="a_Node000009"><a xlink:href="EnemyAISystem_8hpp.html" target="_top" xlink:title=" ">
<polygon fill="white" stroke="#666666" points="547.75,-218.75 429,-218.75 429,-188.25 547.75,-188.25 547.75,-218.75"/>
<text xml:space="preserve" text-anchor="start" x="437" y="-205.25" font-family="Helvetica,sans-Serif" font-size="10.00">server/include/Systems</text>
<text xml:space="preserve" text-anchor="middle" x="488.38" y="-194" font-family="Helvetica,sans-Serif" font-size="10.00">/EnemyAISystem.hpp</text>
</a>
</g>
</g>
<!-- Node1&#45;&gt;Node9 -->
<g id="edge9_Node000001_Node000009" class="edge">
<title>Node1&#45;&gt;Node9</title>
<g id="a_edge9_Node000001_Node000009"><a xlink:title=" ">
<path fill="none" stroke="#63b8ff" d="M443.22,-246.71C453,-237.57 464.06,-227.23 472.78,-219.08"/>
<polygon fill="#63b8ff" stroke="#63b8ff" points="441.05,-243.94 436.14,-253.33 445.83,-249.06 441.05,-243.94"/>
</a>
</g>
</g>
<!-- Node11 -->
<g id="Node000011" class="node">
<title>Node11</title>
<g id="a_Node000011"><a xlink:href="EntitySystem_8hpp.html" target="_top" xlink:title=" ">
<polygon fill="white" stroke="#666666" points="410.75,-218.75 292,-218.75 292,-188.25 410.75,-188.25 410.75,-218.75"/>
<text xml:space="preserve" text-anchor="start" x="300" y="-205.25" font-family="Helvetica,sans-Serif" font-size="10.00">server/include/Systems</text>
<text xml:space="preserve" text-anchor="middle" x="351.38" y="-194" font-family="Helvetica,sans-Serif" font-size="10.00">/EntitySystem.hpp</text>
</a>
</g>
</g>
<!-- Node1&#45;&gt;Node11 -->
<g id="edge12_Node000001_Node000011" class="edge">
<title>Node1&#45;&gt;Node11</title>
<g id="a_edge12_Node000001_Node000011"><a xlink:title=" ">
<path fill="none" stroke="#63b8ff" d="M395.88,-246.71C386.24,-237.57 375.34,-227.23 366.74,-219.08"/>
<polygon fill="#63b8ff" stroke="#63b8ff" points="393.18,-248.98 402.85,-253.32 398,-243.9 393.18,-248.98"/>
</a>
</g>
</g>
<!-- Node3 -->
<g id="Node000003" class="node">
<title>Node3</title>
<g id="a_Node000003"><a xlink:href="GameManager_8cpp.html" target="_top" xlink:title=" ">
<polygon fill="white" stroke="#666666" points="424.12,-19.25 250.62,-19.25 250.62,0 424.12,0 424.12,-19.25"/>
<text xml:space="preserve" text-anchor="middle" x="337.38" y="-5.75" font-family="Helvetica,sans-Serif" font-size="10.00">server/src/Game/GameManager.cpp</text>
</a>
</g>
</g>
<!-- Node2&#45;&gt;Node3 -->
<g id="edge2_Node000002_Node000003" class="edge">
<title>Node2&#45;&gt;Node3</title>
<g id="a_edge2_Node000002_Node000003"><a xlink:title=" ">
<path fill="none" stroke="#63b8ff" d="M387.05,-48.12C374.08,-38.33 359.41,-27.26 349.4,-19.7"/>
<polygon fill="#63b8ff" stroke="#63b8ff" points="384.8,-50.8 394.89,-54.03 389.01,-45.22 384.8,-50.8"/>
</a>
</g>
</g>
<!-- Node4 -->
<g id="Node000004" class="node">
<title>Node4</title>
<g id="a_Node000004"><a xlink:href="server_2src_2main_8cpp.html" target="_top" xlink:title=" ">
<polygon fill="white" stroke="#666666" points="544.5,-19.25 442.25,-19.25 442.25,0 544.5,0 544.5,-19.25"/>
<text xml:space="preserve" text-anchor="middle" x="493.38" y="-5.75" font-family="Helvetica,sans-Serif" font-size="10.00">server/src/main.cpp</text>
</a>
</g>
</g>
<!-- Node2&#45;&gt;Node4 -->
<g id="edge3_Node000002_Node000004" class="edge">
<title>Node2&#45;&gt;Node4</title>
<g id="a_edge3_Node000002_Node000004"><a xlink:title=" ">
<path fill="none" stroke="#63b8ff" d="M443.7,-48.12C456.67,-38.33 471.34,-27.26 481.35,-19.7"/>
<polygon fill="#63b8ff" stroke="#63b8ff" points="441.74,-45.22 435.86,-54.03 445.95,-50.8 441.74,-45.22"/>
</a>
</g>
</g>
<!-- Node6 -->
<g id="Node000006" class="node">
<title>Node6</title>
<g id="a_Node000006"><a xlink:href="LevelSystem_8hpp.html" target="_top" xlink:title=" ">
<polygon fill="white" stroke="#666666" points="291.75,-152.25 173,-152.25 173,-121.75 291.75,-121.75 291.75,-152.25"/>
<text xml:space="preserve" text-anchor="start" x="181" y="-138.75" font-family="Helvetica,sans-Serif" font-size="10.00">server/include/Systems</text>
<text xml:space="preserve" text-anchor="middle" x="232.38" y="-127.5" font-family="Helvetica,sans-Serif" font-size="10.00">/LevelSystem.hpp</text>
</a>
</g>
</g>
<!-- Node5&#45;&gt;Node6 -->
<g id="edge5_Node000005_Node000006" class="edge">
<title>Node5&#45;&gt;Node6</title>
<g id="a_edge5_Node000005_Node000006"><a xlink:title=" ">
<path fill="none" stroke="#63b8ff" d="M225.8,-176.56C227.19,-168.39 228.68,-159.66 229.89,-152.58"/>
<polygon fill="#63b8ff" stroke="#63b8ff" points="222.36,-175.93 224.13,-186.37 229.26,-177.1 222.36,-175.93"/>
</a>
</g>
</g>
<!-- Node8 -->
<g id="Node000008" class="node">
<title>Node8</title>
<g id="a_Node000008"><a xlink:href="LevelData_8cpp.html" target="_top" xlink:title=" ">
<polygon fill="white" stroke="#666666" points="154.75,-146.62 0,-146.62 0,-127.38 154.75,-127.38 154.75,-146.62"/>
<text xml:space="preserve" text-anchor="middle" x="77.38" y="-133.12" font-family="Helvetica,sans-Serif" font-size="10.00">server/src/Game/LevelData.cpp</text>
</a>
</g>
</g>
<!-- Node5&#45;&gt;Node8 -->
<g id="edge8_Node000005_Node000008" class="edge">
<title>Node5&#45;&gt;Node8</title>
<g id="a_edge8_Node000005_Node000008"><a xlink:title=" ">
<path fill="none" stroke="#63b8ff" d="M178.41,-183.26C151.6,-171.25 118.35,-156.35 97.49,-147.01"/>
<polygon fill="#63b8ff" stroke="#63b8ff" points="176.76,-186.35 187.32,-187.25 179.62,-179.96 176.76,-186.35"/>
</a>
</g>
</g>
<!-- Node6&#45;&gt;Node2 -->
<g id="edge6_Node000006_Node000002" class="edge">
<title>Node6&#45;&gt;Node2</title>
<g id="a_edge6_Node000006_Node000002"><a xlink:title=" ">
<path fill="none" stroke="#63b8ff" d="M284.41,-117.66C312.69,-107.69 347.2,-95.53 373.7,-86.19"/>
<polygon fill="#63b8ff" stroke="#63b8ff" points="283.6,-114.24 275.33,-120.86 285.92,-120.84 283.6,-114.24"/>
</a>
</g>
</g>
<!-- Node7 -->
<g id="Node000007" class="node">
<title>Node7</title>
<g id="a_Node000007"><a xlink:href="LevelSystem_8cpp.html" target="_top" xlink:title=" ">
<polygon fill="white" stroke="#666666" points="283.12,-85.75 181.62,-85.75 181.62,-55.25 283.12,-55.25 283.12,-85.75"/>
<text xml:space="preserve" text-anchor="start" x="189.62" y="-72.25" font-family="Helvetica,sans-Serif" font-size="10.00">server/src/Systems</text>
<text xml:space="preserve" text-anchor="middle" x="232.38" y="-61" font-family="Helvetica,sans-Serif" font-size="10.00">/LevelSystem.cpp</text>
</a>
</g>
</g>
<!-- Node6&#45;&gt;Node7 -->
<g id="edge7_Node000006_Node000007" class="edge">
<title>Node6&#45;&gt;Node7</title>
<g id="a_edge7_Node000006_Node000007"><a xlink:title=" ">
<path fill="none" stroke="#63b8ff" d="M232.38,-110.06C232.38,-101.89 232.38,-93.16 232.38,-86.08"/>
<polygon fill="#63b8ff" stroke="#63b8ff" points="228.88,-109.85 232.38,-119.85 235.88,-109.85 228.88,-109.85"/>
</a>
</g>
</g>
<!-- Node9&#45;&gt;Node2 -->
<g id="edge10_Node000009_Node000002" class="edge">
<title>Node9&#45;&gt;Node2</title>
<g id="a_edge10_Node000009_Node000002"><a xlink:title=" ">
<path fill="none" stroke="#63b8ff" d="M481.4,-176.87C476.32,-160.46 468.57,-139.07 458.38,-121.75 450.57,-108.49 439.16,-95.34 430.05,-85.82"/>
<polygon fill="#63b8ff" stroke="#63b8ff" points="478.01,-177.75 484.18,-186.36 484.72,-175.78 478.01,-177.75"/>
</a>
</g>
</g>
<!-- Node10 -->
<g id="Node000010" class="node">
<title>Node10</title>
<g id="a_Node000010"><a xlink:href="EnemyAISystem_8cpp.html" target="_top" xlink:title=" ">
<polygon fill="white" stroke="#666666" points="617.38,-152.25 505.38,-152.25 505.38,-121.75 617.38,-121.75 617.38,-152.25"/>
<text xml:space="preserve" text-anchor="start" x="513.38" y="-138.75" font-family="Helvetica,sans-Serif" font-size="10.00">server/src/Systems</text>
<text xml:space="preserve" text-anchor="middle" x="561.38" y="-127.5" font-family="Helvetica,sans-Serif" font-size="10.00">/EnemyAISystem.cpp</text>
</a>
</g>
</g>
<!-- Node9&#45;&gt;Node10 -->
<g id="edge11_Node000009_Node000010" class="edge">
<title>Node9&#45;&gt;Node10</title>
<g id="a_edge11_Node000009_Node000010"><a xlink:title=" ">
<path fill="none" stroke="#63b8ff" d="M513.28,-180.49C523.71,-171.28 535.55,-160.81 544.88,-152.58"/>
<polygon fill="#63b8ff" stroke="#63b8ff" points="511.25,-177.62 506.07,-186.86 515.89,-182.86 511.25,-177.62"/>
</a>
</g>
</g>
<!-- Node11&#45;&gt;Node2 -->
<g id="edge13_Node000011_Node000002" class="edge">
<title>Node11&#45;&gt;Node2</title>
<g id="a_edge13_Node000011_Node000002"><a xlink:title=" ">
<path fill="none" stroke="#63b8ff" d="M339.49,-177.28C333.45,-160.62 329.15,-138.79 338.38,-121.75 346.96,-105.89 362.97,-94.24 378.18,-86.17"/>
<polygon fill="#63b8ff" stroke="#63b8ff" points="336.22,-178.53 343.23,-186.47 342.7,-175.89 336.22,-178.53"/>
</a>
</g>
</g>
<!-- Node11&#45;&gt;Node6 -->
<g id="edge14_Node000011_Node000006" class="edge">
<title>Node11&#45;&gt;Node6</title>
<g id="a_edge14_Node000011_Node000006"><a xlink:title=" ">
<path fill="none" stroke="#63b8ff" d="M314.3,-182.41C296.49,-172.75 275.53,-161.39 259.27,-152.58"/>
<polygon fill="#63b8ff" stroke="#63b8ff" points="312.58,-185.45 323.04,-187.14 315.92,-179.3 312.58,-185.45"/>
</a>
</g>
</g>
<!-- Node12 -->
<g id="Node000012" class="node">
<title>Node12</title>
<g id="a_Node000012"><a xlink:href="EntitySystem_8cpp.html" target="_top" xlink:title=" ">
<polygon fill="white" stroke="#666666" points="449.12,-152.25 347.62,-152.25 347.62,-121.75 449.12,-121.75 449.12,-152.25"/>
<text xml:space="preserve" text-anchor="start" x="355.62" y="-138.75" font-family="Helvetica,sans-Serif" font-size="10.00">server/src/Systems</text>
<text xml:space="preserve" text-anchor="middle" x="398.38" y="-127.5" font-family="Helvetica,sans-Serif" font-size="10.00">/EntitySystem.cpp</text>
</a>
</g>
</g>
<!-- Node11&#45;&gt;Node12 -->
<g id="edge15_Node000011_Node000012" class="edge">
<title>Node11&#45;&gt;Node12</title>
<g id="a_edge15_Node000011_Node000012"><a xlink:title=" ">
<path fill="none" stroke="#63b8ff" d="M368.63,-178.82C375.04,-170.03 382.11,-160.32 387.75,-152.58"/>
<polygon fill="#63b8ff" stroke="#63b8ff" points="365.99,-176.5 362.93,-186.64 371.65,-180.62 365.99,-176.5"/>
</a>
</g>
</g>
</g>
</svg>
