<?xml version="1.0" encoding="UTF-8" standalone="no"?>
<!DOCTYPE svg PUBLIC "-//W3C//DTD SVG 1.1//EN"
 "http://www.w3.org/Graphics/SVG/1.1/DTD/svg11.dtd">
<!-- Generated by graphviz version 14.0.5 (20251129.0259)
 -->
<!-- Title: common/include/RType/ECS/Components/MovementSpeed.hpp Pages: 1 -->
<!--zoomable 293 -->

<svg id="main" version="1.1" xmlns="http://www.w3.org/2000/svg" xmlns:xlink="http://www.w3.org/1999/xlink" xml:space="preserve" onload="init(evt)">

<style type="text/css"><![CDATA[
.node, .edge {opacity: 0.7;}
.node.selected, .edge.selected {opacity: 1;}
.edge:hover path { stroke: red; }
.edge:hover polygon { stroke: red; fill: red; }
]]></style>

<defs>
  <circle id="rim" cx="0" cy="0" r="7"/>
  <circle id="rim2" cx="0" cy="0" r="3.5"/>
  <g id="zoomPlus">
    <use xlink:href="#rim" fill="#404040"><set attributeName="fill" to="#808080" begin="zoomplus.mouseover" end="zoomplus.mouseout"/></use>
    <path d="M-4,0h8M0,-4v8" fill="none" stroke="white" stroke-width="1.5" pointer-events="none"/>
  </g>
  <g id="zoomMin">
    <use xlink:href="#rim" fill="#404040"><set attributeName="fill" to="#808080" begin="zoomminus.mouseover" end="zoomminus.mouseout"/></use>
    <path d="M-4,0h8" fill="none" stroke="white" stroke-width="1.5" pointer-events="none"/>
  </g>
  <g id="arrowUp" transform="translate(30 24)">
    <use xlink:href="#rim"/>
    <path pointer-events="none" fill="none" stroke="white" stroke-width="1.5" d="M0,-3.0v7 M-2.5,-0.5L0,-3.0L2.5,-0.5"/>
  </g>
  <g id="arrowRight" transform="rotate(90) translate(36 -43)">
    <use xlink:href="#rim"/>
    <path pointer-events="none" fill="none" stroke="white" stroke-width="1.5" d="M0,-3.0v7 M-2.5,-0.5L0,-3.0L2.5,-0.5"/>
  </g>
  <g id="arrowDown" transform="rotate(180) translate(-30 -48)">
    <use xlink:href="#rim"/>
    <path pointer-events="none" fill="none" stroke="white" stroke-width="1.5" d="M0,-3.0v7 M-2.5,-0.5L0,-3.0L2.5,-0.5"/>
  </g>
  <g id="arrowLeft" transform="rotate(270) translate(-36 17)">
    <use xlink:href="#rim"/>
    <path pointer-events="none" fill="none" stroke="white" stroke-width="1.5" d="M0,-3.0v7 M-2.5,-0.5L0,-3.0L2.5,-0.5"/>
  </g>
  <g id="resetDef">
    <use xlink:href="#rim2" fill="#404040"><set attributeName="fill" to="#808080" begin="reset.mouseover" end="reset.mouseout"/></use>
  </g>
</defs>
<script type="application/ecmascript">
var viewWidth = 676;
var viewHeight = 293;
var sectionId = 'dynsection-0';
</script>
<script type="application/ecmascript" xlink:href="svg.min.js"/>
<svg id="graph" class="graph">
<g id="viewport">
<title>common/include/RType/ECS/Components/MovementSpeed.hpp</title>
<!-- Node1 -->
<g id="Node000001" class="node">
<title>Node1</title>
<g id="a_Node000001"><a xlink:title=" ">
<polygon fill="#999999" stroke="#666666" points="299.18,-285.25 105.43,-285.25 105.43,-254.75 299.18,-254.75 299.18,-285.25"/>
<text xml:space="preserve" text-anchor="start" x="113.43" y="-271.75" font-family="Helvetica,sans-Serif" font-size="10.00">common/include/RType</text>
<text xml:space="preserve" text-anchor="middle" x="202.31" y="-260.5" font-family="Helvetica,sans-Serif" font-size="10.00">/ECS/Components/MovementSpeed.hpp</text>
</a>
</g>
</g>
<!-- Node2 -->
<g id="Node000002" class="node">
<title>Node2</title>
<g id="a_Node000002"><a xlink:href="GameManager_8hpp.html" target="_top" xlink:title=" ">
<polygon fill="white" stroke="#666666" points="248.31,-85.75 142.31,-85.75 142.31,-55.25 248.31,-55.25 248.31,-85.75"/>
<text xml:space="preserve" text-anchor="start" x="150.31" y="-72.25" font-family="Helvetica,sans-Serif" font-size="10.00">server/include/Game</text>
<text xml:space="preserve" text-anchor="middle" x="195.31" y="-61" font-family="Helvetica,sans-Serif" font-size="10.00">/GameManager.hpp</text>
</a>
</g>
</g>
<!-- Node1&#45;&gt;Node2 -->
<g id="edge1_Node000001_Node000002" class="edge">
<title>Node1&#45;&gt;Node2</title>
<g id="a_edge1_Node000001_Node000002"><a xlink:title=" ">
<path fill="none" stroke="#63b8ff" d="M122.82,-250.83C100.56,-243.29 77.28,-232.9 58.31,-218.75 19.75,-190 -18.91,-159.96 10.31,-121.75 26.33,-100.8 93.43,-86.53 142.21,-78.7"/>
<polygon fill="#63b8ff" stroke="#63b8ff" points="121.61,-254.11 132.2,-253.84 123.75,-247.45 121.61,-254.11"/>
</a>
</g>
</g>
<!-- Node5 -->
<g id="Node000005" class="node">
<title>Node5</title>
<g id="a_Node000005"><a xlink:href="CollisionSystem_8hpp.html" target="_top" xlink:title=" ">
<polygon fill="white" stroke="#666666" points="185.68,-218.75 66.93,-218.75 66.93,-188.25 185.68,-188.25 185.68,-218.75"/>
<text xml:space="preserve" text-anchor="start" x="74.93" y="-205.25" font-family="Helvetica,sans-Serif" font-size="10.00">server/include/Systems</text>
<text xml:space="preserve" text-anchor="middle" x="126.31" y="-194" font-family="Helvetica,sans-Serif" font-size="10.00">/CollisionSystem.hpp</text>
</a>
</g>
</g>
<!-- Node1&#45;&gt;Node5 -->
<g id="edge4_Node000001_Node000005" class="edge">
<title>Node1&#45;&gt;Node5</title>
<g id="a_edge4_Node000001_Node000005"><a xlink:title=" ">
<path fill="none" stroke="#63b8ff" d="M176.37,-246.99C165.52,-237.78 153.19,-227.31 143.48,-219.08"/>
<polygon fill="#63b8ff" stroke="#63b8ff" points="174.02,-249.58 183.91,-253.38 178.55,-244.25 174.02,-249.58"/>
</a>
</g>
</g>
<!-- Node7 -->
<g id="Node000007" class="node">
<title>Node7</title>
<g id="a_Node000007"><a xlink:href="EntitySystem_8hpp.html" target="_top" xlink:title=" ">
<polygon fill="white" stroke="#666666" points="520.68,-218.75 401.93,-218.75 401.93,-188.25 520.68,-188.25 520.68,-218.75"/>
<text xml:space="preserve" text-anchor="start" x="409.93" y="-205.25" font-family="Helvetica,sans-Serif" font-size="10.00">server/include/Systems</text>
<text xml:space="preserve" text-anchor="middle" x="461.31" y="-194" font-family="Helvetica,sans-Serif" font-size="10.00">/EntitySystem.hpp</text>
</a>
</g>
</g>
<!-- Node1&#45;&gt;Node7 -->
<g id="edge7_Node000001_Node000007" class="edge">
<title>Node1&#45;&gt;Node7</title>
<g id="a_edge7_Node000001_Node000007"><a xlink:title=" ">
<path fill="none" stroke="#63b8ff" d="M272.34,-251.56C313.06,-241.42 363.82,-228.78 402.47,-219.15"/>
<polygon fill="#63b8ff" stroke="#63b8ff" points="271.73,-248.1 262.87,-253.92 273.42,-254.9 271.73,-248.1"/>
</a>
</g>
</g>
<!-- Node11 -->
<g id="Node000011" class="node">
<title>Node11</title>
<g id="a_Node000011"><a xlink:href="PlayerMouvementSystem_8hpp.html" target="_top" xlink:title=" ">
<polygon fill="white" stroke="#666666" points="354.43,-218.75 204.18,-218.75 204.18,-188.25 354.43,-188.25 354.43,-218.75"/>
<text xml:space="preserve" text-anchor="start" x="212.18" y="-205.25" font-family="Helvetica,sans-Serif" font-size="10.00">server/include/Systems</text>
<text xml:space="preserve" text-anchor="middle" x="279.31" y="-194" font-family="Helvetica,sans-Serif" font-size="10.00">/PlayerMouvementSystem.hpp</text>
</a>
</g>
</g>
<!-- Node1&#45;&gt;Node11 -->
<g id="edge13_Node000001_Node000011" class="edge">
<title>Node1&#45;&gt;Node11</title>
<g id="a_edge13_Node000001_Node000011"><a xlink:title=" ">
<path fill="none" stroke="#63b8ff" d="M228.58,-246.99C239.58,-237.78 252.07,-227.31 261.9,-219.08"/>
<polygon fill="#63b8ff" stroke="#63b8ff" points="226.36,-244.29 220.94,-253.39 230.85,-249.65 226.36,-244.29"/>
</a>
</g>
</g>
<!-- Node3 -->
<g id="Node000003" class="node">
<title>Node3</title>
<g id="a_Node000003"><a xlink:href="GameManager_8cpp.html" target="_top" xlink:title=" ">
<polygon fill="white" stroke="#666666" points="204.06,-19.25 30.56,-19.25 30.56,0 204.06,0 204.06,-19.25"/>
<text xml:space="preserve" text-anchor="middle" x="117.31" y="-5.75" font-family="Helvetica,sans-Serif" font-size="10.00">server/src/Game/GameManager.cpp</text>
</a>
</g>
</g>
<!-- Node2&#45;&gt;Node3 -->
<g id="edge2_Node000002_Node000003" class="edge">
<title>Node2&#45;&gt;Node3</title>
<g id="a_edge2_Node000002_Node000003"><a xlink:title=" ">
<path fill="none" stroke="#63b8ff" d="M166.98,-48.12C154.02,-38.33 139.35,-27.26 129.33,-19.7"/>
<polygon fill="#63b8ff" stroke="#63b8ff" points="164.73,-50.8 174.82,-54.03 168.95,-45.22 164.73,-50.8"/>
</a>
</g>
</g>
<!-- Node4 -->
<g id="Node000004" class="node">
<title>Node4</title>
<g id="a_Node000004"><a xlink:href="server_2src_2main_8cpp.html" target="_top" xlink:title=" ">
<polygon fill="white" stroke="#666666" points="324.43,-19.25 222.18,-19.25 222.18,0 324.43,0 324.43,-19.25"/>
<text xml:space="preserve" text-anchor="middle" x="273.31" y="-5.75" font-family="Helvetica,sans-Serif" font-size="10.00">server/src/main.cpp</text>
</a>
</g>
</g>
<!-- Node2&#45;&gt;Node4 -->
<g id="edge3_Node000002_Node000004" class="edge">
<title>Node2&#45;&gt;Node4</title>
<g id="a_edge3_Node000002_Node000004"><a xlink:title=" ">
<path fill="none" stroke="#63b8ff" d="M223.64,-48.12C236.6,-38.33 251.27,-27.26 261.28,-19.7"/>
<polygon fill="#63b8ff" stroke="#63b8ff" points="221.67,-45.22 215.8,-54.03 225.89,-50.8 221.67,-45.22"/>
</a>
</g>
</g>
<!-- Node5&#45;&gt;Node2 -->
<g id="edge5_Node000005_Node000002" class="edge">
<title>Node5&#45;&gt;Node2</title>
<g id="a_edge5_Node000005_Node000002"><a xlink:title=" ">
<path fill="none" stroke="#63b8ff" d="M139.14,-178.13C153.38,-151.09 175.9,-108.35 187.63,-86.08"/>
<polygon fill="#63b8ff" stroke="#63b8ff" points="136.22,-176.16 134.66,-186.64 142.42,-179.42 136.22,-176.16"/>
</a>
</g>
</g>
<!-- Node6 -->
<g id="Node000006" class="node">
<title>Node6</title>
<g id="a_Node000006"><a xlink:href="CollisionSystem_8cpp.html" target="_top" xlink:title=" ">
<polygon fill="white" stroke="#666666" points="128.81,-152.25 19.81,-152.25 19.81,-121.75 128.81,-121.75 128.81,-152.25"/>
<text xml:space="preserve" text-anchor="start" x="27.81" y="-138.75" font-family="Helvetica,sans-Serif" font-size="10.00">server/src/Systems</text>
<text xml:space="preserve" text-anchor="middle" x="74.31" y="-127.5" font-family="Helvetica,sans-Serif" font-size="10.00">/CollisionSystem.cpp</text>
</a>
</g>
</g>
<!-- Node5&#45;&gt;Node6 -->
<g id="edge6_Node000005_Node000006" class="edge">
<title>Node5&#45;&gt;Node6</title>
<g id="a_edge6_Node000005_Node000006"><a xlink:title=" ">
<path fill="none" stroke="#63b8ff" d="M107.44,-179.1C100.3,-170.23 92.37,-160.4 86.06,-152.58"/>
<polygon fill="#63b8ff" stroke="#63b8ff" points="104.56,-181.1 113.56,-186.69 110.01,-176.7 104.56,-181.1"/>
</a>
</g>
</g>
<!-- Node7&#45;&gt;Node2 -->
<g id="edge8_Node000007_Node000002" class="edge">
<title>Node7&#45;&gt;Node2</title>
<g id="a_edge8_Node000007_Node000002"><a xlink:title=" ">
<path fill="none" stroke="#63b8ff" d="M486,-180C501.91,-162.8 517.09,-139.15 502.31,-121.75 470.4,-84.19 327.96,-74.65 248.8,-72.26"/>
<polygon fill="#63b8ff" stroke="#63b8ff" points="483.83,-177.21 479.32,-186.8 488.82,-182.12 483.83,-177.21"/>
</a>
</g>
</g>
<!-- Node8 -->
<g id="Node000008" class="node">
<title>Node8</title>
<g id="a_Node000008"><a xlink:href="LevelSystem_8hpp.html" target="_top" xlink:title=" ">
<polygon fill="white" stroke="#666666" points="667.68,-152.25 548.93,-152.25 548.93,-121.75 667.68,-121.75 667.68,-152.25"/>
<text xml:space="preserve" text-anchor="start" x="556.93" y="-138.75" font-family="Helvetica,sans-Serif" font-size="10.00">server/include/Systems</text>
<text xml:space="preserve" text-anchor="middle" x="608.31" y="-127.5" font-family="Helvetica,sans-Serif" font-size="10.00">/LevelSystem.hpp</text>
</a>
</g>
</g>
<!-- Node7&#45;&gt;Node8 -->
<g id="edge9_Node000007_Node000008" class="edge">
<title>Node7&#45;&gt;Node8</title>
<g id="a_edge9_Node000007_Node000008"><a xlink:title=" ">
<path fill="none" stroke="#63b8ff" d="M504.92,-183.37C527.29,-173.55 554.11,-161.78 574.83,-152.69"/>
<polygon fill="#63b8ff" stroke="#63b8ff" points="503.8,-180.03 496.05,-187.26 506.61,-186.44 503.8,-180.03"/>
</a>
</g>
</g>
<!-- Node10 -->
<g id="Node000010" class="node">
<title>Node10</title>
<g id="a_Node000010"><a xlink:href="EntitySystem_8cpp.html" target="_top" xlink:title=" ">
<polygon fill="white" stroke="#666666" points="493.06,-152.25 391.56,-152.25 391.56,-121.75 493.06,-121.75 493.06,-152.25"/>
<text xml:space="preserve" text-anchor="start" x="399.56" y="-138.75" font-family="Helvetica,sans-Serif" font-size="10.00">server/src/Systems</text>
<text xml:space="preserve" text-anchor="middle" x="442.31" y="-127.5" font-family="Helvetica,sans-Serif" font-size="10.00">/EntitySystem.cpp</text>
</a>
</g>
</g>
<!-- Node7&#45;&gt;Node10 -->
<g id="edge12_Node000007_Node000010" class="edge">
<title>Node7&#45;&gt;Node10</title>
<g id="a_edge12_Node000007_Node000010"><a xlink:title=" ">
<path fill="none" stroke="#63b8ff" d="M453.75,-176.84C451.32,-168.59 448.71,-159.74 446.6,-152.58"/>
<polygon fill="#63b8ff" stroke="#63b8ff" points="450.39,-177.81 456.57,-186.41 457.1,-175.83 450.39,-177.81"/>
</a>
</g>
</g>
<!-- Node8&#45;&gt;Node2 -->
<g id="edge10_Node000008_Node000002" class="edge">
<title>Node8&#45;&gt;Node2</title>
<g id="a_edge10_Node000008_Node000002"><a xlink:title=" ">
<path fill="none" stroke="#63b8ff" d="M537.35,-122.1C536.66,-121.98 535.98,-121.87 535.31,-121.75 434.3,-104.44 315.79,-87.74 248.72,-78.62"/>
<polygon fill="#63b8ff" stroke="#63b8ff" points="536.64,-125.53 547.1,-123.84 537.87,-118.64 536.64,-125.53"/>
</a>
</g>
</g>
<!-- Node9 -->
<g id="Node000009" class="node">
<title>Node9</title>
<g id="a_Node000009"><a xlink:href="LevelSystem_8cpp.html" target="_top" xlink:title=" ">
<polygon fill="white" stroke="#666666" points="659.06,-85.75 557.56,-85.75 557.56,-55.25 659.06,-55.25 659.06,-85.75"/>
<text xml:space="preserve" text-anchor="start" x="565.56" y="-72.25" font-family="Helvetica,sans-Serif" font-size="10.00">server/src/Systems</text>
<text xml:space="preserve" text-anchor="middle" x="608.31" y="-61" font-family="Helvetica,sans-Serif" font-size="10.00">/LevelSystem.cpp</text>
</a>
</g>
</g>
<!-- Node8&#45;&gt;Node9 -->
<g id="edge11_Node000008_Node000009" class="edge">
<title>Node8&#45;&gt;Node9</title>
<g id="a_edge11_Node000008_Node000009"><a xlink:title=" ">
<path fill="none" stroke="#63b8ff" d="M608.31,-110.06C608.31,-101.89 608.31,-93.16 608.31,-86.08"/>
<polygon fill="#63b8ff" stroke="#63b8ff" points="604.81,-109.85 608.31,-119.85 611.81,-109.85 604.81,-109.85"/>
</a>
</g>
</g>
<!-- Node11&#45;&gt;Node2 -->
<g id="edge14_Node000011_Node000002" class="edge">
<title>Node11&#45;&gt;Node2</title>
<g id="a_edge14_Node000011_Node000002"><a xlink:title=" ">
<path fill="none" stroke="#63b8ff" d="M243.26,-181.43C232.51,-173.53 221.65,-163.66 214.31,-152.25 201.13,-131.78 197.07,-103.15 195.83,-86.05"/>
<polygon fill="#63b8ff" stroke="#63b8ff" points="241.12,-184.2 251.35,-186.99 245.09,-178.44 241.12,-184.2"/>
</a>
</g>
</g>
<!-- Node12 -->
<g id="Node000012" class="node">
<title>Node12</title>
<g id="a_Node000012"><a xlink:href="PlayerMouvementSystem_8cpp.html" target="_top" xlink:title=" ">
<polygon fill="white" stroke="#666666" points="373.43,-152.25 223.18,-152.25 223.18,-121.75 373.43,-121.75 373.43,-152.25"/>
<text xml:space="preserve" text-anchor="start" x="231.18" y="-138.75" font-family="Helvetica,sans-Serif" font-size="10.00">server/src/Systems</text>
<text xml:space="preserve" text-anchor="middle" x="298.31" y="-127.5" font-family="Helvetica,sans-Serif" font-size="10.00">/PlayerMouvementSystem.cpp</text>
</a>
</g>
</g>
<!-- Node11&#45;&gt;Node12 -->
<g id="edge15_Node000011_Node000012" class="edge">
<title>Node11&#45;&gt;Node12</title>
<g id="a_edge15_Node000011_Node000012"><a xlink:title=" ">
<path fill="none" stroke="#63b8ff" d="M286.87,-176.84C289.3,-168.59 291.9,-159.74 294.01,-152.58"/>
<polygon fill="#63b8ff" stroke="#63b8ff" points="283.51,-175.83 284.05,-186.41 290.23,-177.81 283.51,-175.83"/>
</a>
</g>
</g>
</g>
</svg>

<g id="navigator" transform="translate(0 0)" fill="#404254">
  <rect fill="#f2f5e9" fill-opacity="0.5" stroke="#606060" stroke-width=".5" x="0" y="0" width="60" height="60"/>
  <use id="zoomplus" xlink:href="#zoomPlus" x="17" y="9" onmousedown="handleZoom(evt,'in')"/>
  <use id="zoomminus" xlink:href="#zoomMin" x="42" y="9" onmousedown="handleZoom(evt,'out')"/>
  <use id="reset" xlink:href="#resetDef" x="30" y="36" onmousedown="handleReset()"/>
   <use id="arrowup" xlink:href="#arrowUp" x="0" y="0" onmousedown="handlePan(0,-1)"/>
  <use id="arrowright" xlink:href="#arrowRight" x="0" y="0" onmousedown="handlePan(1,0)"/>
  <use id="arrowdown" xlink:href="#arrowDown" x="0" y="0" onmousedown="handlePan(0,1)"/>
  <use id="arrowleft" xlink:href="#arrowLeft" x="0" y="0" onmousedown="handlePan(-1,0)"/>
</g>
<svg viewBox="0 0 15 15" width="100%" height="30px" preserveAspectRatio="xMaxYMin meet">
 <g id="arrow_out" transform="scale(0.3 0.3)">
  <a xlink:href="MovementSpeed_8hpp__dep__incl_org.svg" target="_base">
   <rect id="button" ry="5" rx="5" y="6" x="6" height="38" width="38"
        fill="#f2f5e9" fill-opacity="0.5" stroke="#606060" stroke-width="1.0"/>
   <path id="arrow"
     d="M 11.500037,31.436501 C 11.940474,20.09759 22.043105,11.32322 32.158766,21.979434 L 37.068811,17.246167 C 37.068811,17.246167 37.088388,32 37.088388,32 L 22.160133,31.978069 C 22.160133,31.978069 26.997745,27.140456 26.997745,27.140456 C 18.528582,18.264221 13.291696,25.230495 11.500037,31.436501 z"
     style="fill:#404040;"/>
  </a>
 </g>
</svg>

<style type='text/css'>
<![CDATA[
[data-mouse-over-selected='false'] { opacity: 0.7; }
[data-mouse-over-selected='true']  { opacity: 1.0; }
]]>
</style>
<script type="application/ecmascript"><![CDATA[
document.addEventListener('DOMContentLoaded', (event) => {
  highlightEdges();
  highlightAdjacentNodes();
});
]]></script>
</svg>
