<?xml version="1.0" encoding="UTF-8" standalone="no"?>
<!DOCTYPE svg PUBLIC "-//W3C//DTD SVG 1.1//EN"
 "http://www.w3.org/Graphics/SVG/1.1/DTD/svg11.dtd">
<!-- Generated by graphviz version 14.0.5 (20251129.0259)
 -->
<!-- Title: server/include/Game/Player.hpp Pages: 1 -->
<svg width="1165pt" height="360pt"
 viewBox="0.00 0.00 1165.00 360.00" xmlns="http://www.w3.org/2000/svg" xmlns:xlink="http://www.w3.org/1999/xlink">
<g id="graph0" class="graph" transform="scale(1 1) rotate(0) translate(4 355.75)">
<title>server/include/Game/Player.hpp</title>
<!-- Node1 -->
<g id="Node000001" class="node">
<title>Node1</title>
<g id="a_Node000001"><a xlink:title=" ">
<polygon fill="#999999" stroke="#666666" points="392.75,-351.75 286.75,-351.75 286.75,-321.25 392.75,-321.25 392.75,-351.75"/>
<text xml:space="preserve" text-anchor="start" x="294.75" y="-338.25" font-family="Helvetica,sans-Serif" font-size="10.00">server/include/Game</text>
<text xml:space="preserve" text-anchor="middle" x="339.75" y="-327" font-family="Helvetica,sans-Serif" font-size="10.00">/Player.hpp</text>
</a>
</g>
</g>
<!-- Node2 -->
<g id="Node000002" class="node">
<title>Node2</title>
<g id="a_Node000002"><a xlink:href="GameManager_8hpp.html" target="_top" xlink:title=" ">
<polygon fill="white" stroke="#666666" points="462.75,-85.75 356.75,-85.75 356.75,-55.25 462.75,-55.25 462.75,-85.75"/>
<text xml:space="preserve" text-anchor="start" x="364.75" y="-72.25" font-family="Helvetica,sans-Serif" font-size="10.00">server/include/Game</text>
<text xml:space="preserve" text-anchor="middle" x="409.75" y="-61" font-family="Helvetica,sans-Serif" font-size="10.00">/GameManager.hpp</text>
</a>
</g>
</g>
<!-- Node1&#45;&gt;Node2 -->
<g id="edge1_Node000001_Node000002" class="edge">
<title>Node1&#45;&gt;Node2</title>
<g id="a_edge1_Node000001_Node000002"><a xlink:title=" ">
<path fill="none" stroke="#63b8ff" d="M306.72,-314.67C267.41,-287.09 210.12,-236.32 235.75,-188.25 239.95,-180.37 340.22,-115.8 386.6,-86.21"/>
<polygon fill="#63b8ff" stroke="#63b8ff" points="304.29,-317.25 314.52,-319.99 308.23,-311.46 304.29,-317.25"/>
</a>
</g>
</g>
<!-- Node5 -->
<g id="Node000005" class="node">
<title>Node5</title>
<g id="a_Node000005"><a xlink:href="Room_8hpp.html" target="_top" xlink:title=" ">
<polygon fill="white" stroke="#666666" points="558.75,-285.25 452.75,-285.25 452.75,-254.75 558.75,-254.75 558.75,-285.25"/>
<text xml:space="preserve" text-anchor="start" x="460.75" y="-271.75" font-family="Helvetica,sans-Serif" font-size="10.00">server/include/Game</text>
<text xml:space="preserve" text-anchor="middle" x="505.75" y="-260.5" font-family="Helvetica,sans-Serif" font-size="10.00">/Room.hpp</text>
</a>
</g>
</g>
<!-- Node1&#45;&gt;Node5 -->
<g id="edge4_Node000001_Node000005" class="edge">
<title>Node1&#45;&gt;Node5</title>
<g id="a_edge4_Node000001_Node000005"><a xlink:title=" ">
<path fill="none" stroke="#63b8ff" d="M387.97,-316.76C413.43,-306.87 444.23,-294.9 467.94,-285.69"/>
<polygon fill="#63b8ff" stroke="#63b8ff" points="386.88,-313.43 378.83,-320.32 389.42,-319.96 386.88,-313.43"/>
</a>
</g>
</g>
<!-- Node21 -->
<g id="Node000021" class="node">
<title>Node21</title>
<g id="a_Node000021"><a xlink:href="EntitySystem_8hpp.html" target="_top" xlink:title=" ">
<polygon fill="white" stroke="#666666" points="189.12,-218.75 70.38,-218.75 70.38,-188.25 189.12,-188.25 189.12,-218.75"/>
<text xml:space="preserve" text-anchor="start" x="78.38" y="-205.25" font-family="Helvetica,sans-Serif" font-size="10.00">server/include/Systems</text>
<text xml:space="preserve" text-anchor="middle" x="129.75" y="-194" font-family="Helvetica,sans-Serif" font-size="10.00">/EntitySystem.hpp</text>
</a>
</g>
</g>
<!-- Node1&#45;&gt;Node21 -->
<g id="edge27_Node000001_Node000021" class="edge">
<title>Node1&#45;&gt;Node21</title>
<g id="a_edge27_Node000001_Node000021"><a xlink:title=" ">
<path fill="none" stroke="#63b8ff" d="M275.65,-319.09C251.55,-311.15 224.69,-300.06 202.75,-285.25 175.81,-267.07 152.11,-236.87 139.47,-219"/>
<polygon fill="#63b8ff" stroke="#63b8ff" points="274.47,-322.39 285.06,-322.07 276.58,-315.72 274.47,-322.39"/>
</a>
</g>
</g>
<!-- Node23 -->
<g id="Node000023" class="node">
<title>Node23</title>
<g id="a_Node000023"><a xlink:href="PlayerSystem_8hpp.html" target="_top" xlink:title=" ">
<polygon fill="white" stroke="#666666" points="399.12,-285.25 280.38,-285.25 280.38,-254.75 399.12,-254.75 399.12,-285.25"/>
<text xml:space="preserve" text-anchor="start" x="288.38" y="-271.75" font-family="Helvetica,sans-Serif" font-size="10.00">server/include/Systems</text>
<text xml:space="preserve" text-anchor="middle" x="339.75" y="-260.5" font-family="Helvetica,sans-Serif" font-size="10.00">/PlayerSystem.hpp</text>
</a>
</g>
</g>
<!-- Node1&#45;&gt;Node23 -->
<g id="edge31_Node000001_Node000023" class="edge">
<title>Node1&#45;&gt;Node23</title>
<g id="a_edge31_Node000001_Node000023"><a xlink:title=" ">
<path fill="none" stroke="#63b8ff" d="M339.75,-309.56C339.75,-301.39 339.75,-292.66 339.75,-285.58"/>
<polygon fill="#63b8ff" stroke="#63b8ff" points="336.25,-309.35 339.75,-319.35 343.25,-309.35 336.25,-309.35"/>
</a>
</g>
</g>
<!-- Node25 -->
<g id="Node000025" class="node">
<title>Node25</title>
<g id="a_Node000025"><a xlink:href="Player_8cpp.html" target="_top" xlink:title=" ">
<polygon fill="white" stroke="#666666" points="714.5,-279.62 577,-279.62 577,-260.38 714.5,-260.38 714.5,-279.62"/>
<text xml:space="preserve" text-anchor="middle" x="645.75" y="-266.12" font-family="Helvetica,sans-Serif" font-size="10.00">server/src/Game/Player.cpp</text>
</a>
</g>
</g>
<!-- Node1&#45;&gt;Node25 -->
<g id="edge34_Node000001_Node000025" class="edge">
<title>Node1&#45;&gt;Node25</title>
<g id="a_edge34_Node000001_Node000025"><a xlink:title=" ">
<path fill="none" stroke="#63b8ff" d="M404.25,-321.9C464.04,-309.3 551.29,-290.91 602.92,-280.03"/>
<polygon fill="#63b8ff" stroke="#63b8ff" points="403.6,-318.47 394.53,-323.95 405.04,-325.31 403.6,-318.47"/>
</a>
</g>
</g>
<!-- Node3 -->
<g id="Node000003" class="node">
<title>Node3</title>
<g id="a_Node000003"><a xlink:href="GameManager_8cpp.html" target="_top" xlink:title=" ">
<polygon fill="white" stroke="#666666" points="418.5,-19.25 245,-19.25 245,0 418.5,0 418.5,-19.25"/>
<text xml:space="preserve" text-anchor="middle" x="331.75" y="-5.75" font-family="Helvetica,sans-Serif" font-size="10.00">server/src/Game/GameManager.cpp</text>
</a>
</g>
</g>
<!-- Node2&#45;&gt;Node3 -->
<g id="edge2_Node000002_Node000003" class="edge">
<title>Node2&#45;&gt;Node3</title>
<g id="a_edge2_Node000002_Node000003"><a xlink:title=" ">
<path fill="none" stroke="#63b8ff" d="M381.42,-48.12C368.46,-38.33 353.79,-27.26 343.77,-19.7"/>
<polygon fill="#63b8ff" stroke="#63b8ff" points="379.17,-50.8 389.26,-54.03 383.39,-45.22 379.17,-50.8"/>
</a>
</g>
</g>
<!-- Node4 -->
<g id="Node000004" class="node">
<title>Node4</title>
<g id="a_Node000004"><a xlink:href="server_2src_2main_8cpp.html" target="_top" xlink:title=" ">
<polygon fill="white" stroke="#666666" points="538.88,-19.25 436.62,-19.25 436.62,0 538.88,0 538.88,-19.25"/>
<text xml:space="preserve" text-anchor="middle" x="487.75" y="-5.75" font-family="Helvetica,sans-Serif" font-size="10.00">server/src/main.cpp</text>
</a>
</g>
</g>
<!-- Node2&#45;&gt;Node4 -->
<g id="edge3_Node000002_Node000004" class="edge">
<title>Node2&#45;&gt;Node4</title>
<g id="a_edge3_Node000002_Node000004"><a xlink:title=" ">
<path fill="none" stroke="#63b8ff" d="M438.08,-48.12C451.04,-38.33 465.71,-27.26 475.73,-19.7"/>
<polygon fill="#63b8ff" stroke="#63b8ff" points="436.11,-45.22 430.24,-54.03 440.33,-50.8 436.11,-45.22"/>
</a>
</g>
</g>
<!-- Node5&#45;&gt;Node2 -->
<g id="edge5_Node000005_Node000002" class="edge">
<title>Node5&#45;&gt;Node2</title>
<g id="a_edge5_Node000005_Node000002"><a xlink:title=" ">
<path fill="none" stroke="#63b8ff" d="M463.34,-248.72C451.33,-240.97 439.45,-230.99 431.75,-218.75 405.2,-176.52 406.18,-114.27 408.27,-86.19"/>
<polygon fill="#63b8ff" stroke="#63b8ff" points="461.25,-251.55 471.63,-253.68 464.85,-245.54 461.25,-251.55"/>
</a>
</g>
</g>
<!-- Node6 -->
<g id="Node000006" class="node">
<title>Node6</title>
<g id="a_Node000006"><a xlink:href="RoomSystem_8hpp.html" target="_top" xlink:title=" ">
<polygon fill="white" stroke="#666666" points="863.12,-218.75 744.38,-218.75 744.38,-188.25 863.12,-188.25 863.12,-218.75"/>
<text xml:space="preserve" text-anchor="start" x="752.38" y="-205.25" font-family="Helvetica,sans-Serif" font-size="10.00">server/include/Systems</text>
<text xml:space="preserve" text-anchor="middle" x="803.75" y="-194" font-family="Helvetica,sans-Serif" font-size="10.00">/RoomSystem.hpp</text>
</a>
</g>
</g>
<!-- Node5&#45;&gt;Node6 -->
<g id="edge6_Node000005_Node000006" class="edge">
<title>Node5&#45;&gt;Node6</title>
<g id="a_edge6_Node000005_Node000006"><a xlink:title=" ">
<path fill="none" stroke="#63b8ff" d="M570.41,-254.18C635.11,-239.91 698.91,-226.4 744.04,-216.94"/>
<polygon fill="#63b8ff" stroke="#63b8ff" points="569.66,-250.76 560.65,-256.34 571.17,-257.6 569.66,-250.76"/>
</a>
</g>
</g>
<!-- Node18 -->
<g id="Node000018" class="node">
<title>Node18</title>
<g id="a_Node000018"><a xlink:href="Room_8cpp.html" target="_top" xlink:title=" ">
<polygon fill="white" stroke="#666666" points="1018.12,-213.12 881.38,-213.12 881.38,-193.88 1018.12,-193.88 1018.12,-213.12"/>
<text xml:space="preserve" text-anchor="middle" x="949.75" y="-199.62" font-family="Helvetica,sans-Serif" font-size="10.00">server/src/Game/Room.cpp</text>
</a>
</g>
</g>
<!-- Node5&#45;&gt;Node18 -->
<g id="edge24_Node000005_Node000018" class="edge">
<title>Node5&#45;&gt;Node18</title>
<g id="a_edge24_Node000005_Node000018"><a xlink:title=" ">
<path fill="none" stroke="#63b8ff" d="M570.18,-254.45C703.74,-231.85 740.76,-238.45 871.75,-218.75 881.82,-217.23 892.59,-215.41 902.81,-213.57"/>
<polygon fill="#63b8ff" stroke="#63b8ff" points="569.86,-250.95 560.6,-256.09 571.05,-257.85 569.86,-250.95"/>
</a>
</g>
</g>
<!-- Node19 -->
<g id="Node000019" class="node">
<title>Node19</title>
<g id="a_Node000019"><a xlink:href="server_2src_2Systems_2NetworkSyncSystem_8cpp.html" target="_top" xlink:title=" ">
<polygon fill="white" stroke="#666666" points="571.12,-218.75 440.38,-218.75 440.38,-188.25 571.12,-188.25 571.12,-218.75"/>
<text xml:space="preserve" text-anchor="start" x="448.38" y="-205.25" font-family="Helvetica,sans-Serif" font-size="10.00">server/src/Systems</text>
<text xml:space="preserve" text-anchor="middle" x="505.75" y="-194" font-family="Helvetica,sans-Serif" font-size="10.00">/NetworkSyncSystem.cpp</text>
</a>
</g>
</g>
<!-- Node5&#45;&gt;Node19 -->
<g id="edge25_Node000005_Node000019" class="edge">
<title>Node5&#45;&gt;Node19</title>
<g id="a_edge25_Node000005_Node000019"><a xlink:title=" ">
<path fill="none" stroke="#63b8ff" d="M505.75,-243.06C505.75,-234.89 505.75,-226.16 505.75,-219.08"/>
<polygon fill="#63b8ff" stroke="#63b8ff" points="502.25,-242.85 505.75,-252.85 509.25,-242.85 502.25,-242.85"/>
</a>
</g>
</g>
<!-- Node20 -->
<g id="Node000020" class="node">
<title>Node20</title>
<g id="a_Node000020"><a xlink:href="ServerNetworkSystem_8cpp.html" target="_top" xlink:title=" ">
<polygon fill="white" stroke="#666666" points="726.12,-218.75 589.38,-218.75 589.38,-188.25 726.12,-188.25 726.12,-218.75"/>
<text xml:space="preserve" text-anchor="start" x="597.38" y="-205.25" font-family="Helvetica,sans-Serif" font-size="10.00">server/src/Systems</text>
<text xml:space="preserve" text-anchor="middle" x="657.75" y="-194" font-family="Helvetica,sans-Serif" font-size="10.00">/ServerNetworkSystem.cpp</text>
</a>
</g>
</g>
<!-- Node5&#45;&gt;Node20 -->
<g id="edge26_Node000005_Node000020" class="edge">
<title>Node5&#45;&gt;Node20</title>
<g id="a_edge26_Node000005_Node000020"><a xlink:title=" ">
<path fill="none" stroke="#63b8ff" d="M550.53,-250C573.72,-240.16 601.61,-228.32 623.13,-219.19"/>
<polygon fill="#63b8ff" stroke="#63b8ff" points="549.47,-246.64 541.63,-253.77 552.21,-253.09 549.47,-246.64"/>
</a>
</g>
</g>
<!-- Node6&#45;&gt;Node2 -->
<g id="edge7_Node000006_Node000002" class="edge">
<title>Node6&#45;&gt;Node2</title>
<g id="a_edge7_Node000006_Node000002"><a xlink:title=" ">
<path fill="none" stroke="#63b8ff" d="M732.7,-188.1C614.78,-170.81 569,-210.86 469.75,-152.25 443.43,-136.71 425.06,-104.68 416.06,-85.97"/>
<polygon fill="#63b8ff" stroke="#63b8ff" points="732.04,-191.54 742.46,-189.65 733.14,-184.62 732.04,-191.54"/>
</a>
</g>
</g>
<!-- Node7 -->
<g id="Node000007" class="node">
<title>Node7</title>
<g id="a_Node000007"><a xlink:href="BulletCleanupSystem_8hpp.html" target="_top" xlink:title=" ">
<polygon fill="white" stroke="#666666" points="753.88,-152.25 621.62,-152.25 621.62,-121.75 753.88,-121.75 753.88,-152.25"/>
<text xml:space="preserve" text-anchor="start" x="629.62" y="-138.75" font-family="Helvetica,sans-Serif" font-size="10.00">server/include/Systems</text>
<text xml:space="preserve" text-anchor="middle" x="687.75" y="-127.5" font-family="Helvetica,sans-Serif" font-size="10.00">/BulletCleanupSystem.hpp</text>
</a>
</g>
</g>
<!-- Node6&#45;&gt;Node7 -->
<g id="edge8_Node000006_Node000007" class="edge">
<title>Node6&#45;&gt;Node7</title>
<g id="a_edge8_Node000006_Node000007"><a xlink:title=" ">
<path fill="none" stroke="#63b8ff" d="M767.61,-182.41C750.25,-172.75 729.82,-161.39 713.97,-152.58"/>
<polygon fill="#63b8ff" stroke="#63b8ff" points="765.66,-185.33 776.11,-187.13 769.07,-179.21 765.66,-185.33"/>
</a>
</g>
</g>
<!-- Node9 -->
<g id="Node000009" class="node">
<title>Node9</title>
<g id="a_Node000009"><a xlink:href="CollisionSystem_8hpp.html" target="_top" xlink:title=" ">
<polygon fill="white" stroke="#666666" points="891.12,-152.25 772.38,-152.25 772.38,-121.75 891.12,-121.75 891.12,-152.25"/>
<text xml:space="preserve" text-anchor="start" x="780.38" y="-138.75" font-family="Helvetica,sans-Serif" font-size="10.00">server/include/Systems</text>
<text xml:space="preserve" text-anchor="middle" x="831.75" y="-127.5" font-family="Helvetica,sans-Serif" font-size="10.00">/CollisionSystem.hpp</text>
</a>
</g>
</g>
<!-- Node6&#45;&gt;Node9 -->
<g id="edge11_Node000006_Node000009" class="edge">
<title>Node6&#45;&gt;Node9</title>
<g id="a_edge11_Node000006_Node000009"><a xlink:title=" ">
<path fill="none" stroke="#63b8ff" d="M814.64,-177.41C818.29,-169 822.24,-159.91 825.42,-152.58"/>
<polygon fill="#63b8ff" stroke="#63b8ff" points="811.48,-175.91 810.71,-186.48 817.9,-178.7 811.48,-175.91"/>
</a>
</g>
</g>
<!-- Node11 -->
<g id="Node000011" class="node">
<title>Node11</title>
<g id="a_Node000011"><a xlink:href="EnemyShootSystem_8hpp.html" target="_top" xlink:title=" ">
<polygon fill="white" stroke="#666666" points="1156.62,-152.25 1028.88,-152.25 1028.88,-121.75 1156.62,-121.75 1156.62,-152.25"/>
<text xml:space="preserve" text-anchor="start" x="1036.88" y="-138.75" font-family="Helvetica,sans-Serif" font-size="10.00">server/include/Systems</text>
<text xml:space="preserve" text-anchor="middle" x="1092.75" y="-127.5" font-family="Helvetica,sans-Serif" font-size="10.00">/EnemyShootSystem.hpp</text>
</a>
</g>
</g>
<!-- Node6&#45;&gt;Node11 -->
<g id="edge14_Node000006_Node000011" class="edge">
<title>Node6&#45;&gt;Node11</title>
<g id="a_edge14_Node000006_Node000011"><a xlink:title=" ">
<path fill="none" stroke="#63b8ff" d="M874.31,-186.75C921.4,-176.24 982.81,-162.54 1028.53,-152.33"/>
<polygon fill="#63b8ff" stroke="#63b8ff" points="873.76,-183.29 864.76,-188.88 875.28,-190.12 873.76,-183.29"/>
</a>
</g>
</g>
<!-- Node13 -->
<g id="Node000013" class="node">
<title>Node13</title>
<g id="a_Node000013"><a xlink:href="LevelSystem_8hpp.html" target="_top" xlink:title=" ">
<polygon fill="white" stroke="#666666" points="276.12,-152.25 157.38,-152.25 157.38,-121.75 276.12,-121.75 276.12,-152.25"/>
<text xml:space="preserve" text-anchor="start" x="165.38" y="-138.75" font-family="Helvetica,sans-Serif" font-size="10.00">server/include/Systems</text>
<text xml:space="preserve" text-anchor="middle" x="216.75" y="-127.5" font-family="Helvetica,sans-Serif" font-size="10.00">/LevelSystem.hpp</text>
</a>
</g>
</g>
<!-- Node6&#45;&gt;Node13 -->
<g id="edge17_Node000006_Node000013" class="edge">
<title>Node6&#45;&gt;Node13</title>
<g id="a_edge17_Node000006_Node000013"><a xlink:title=" ">
<path fill="none" stroke="#63b8ff" d="M732.72,-188.06C561.3,-162.63 371.02,-148.04 276.44,-141.71"/>
<polygon fill="#63b8ff" stroke="#63b8ff" points="732.08,-191.5 742.48,-189.52 733.11,-184.58 732.08,-191.5"/>
</a>
</g>
</g>
<!-- Node15 -->
<g id="Node000015" class="node">
<title>Node15</title>
<g id="a_Node000015"><a xlink:href="PlayerShootSystem_8hpp.html" target="_top" xlink:title=" ">
<polygon fill="white" stroke="#666666" points="603.12,-152.25 478.38,-152.25 478.38,-121.75 603.12,-121.75 603.12,-152.25"/>
<text xml:space="preserve" text-anchor="start" x="486.38" y="-138.75" font-family="Helvetica,sans-Serif" font-size="10.00">server/include/Systems</text>
<text xml:space="preserve" text-anchor="middle" x="540.75" y="-127.5" font-family="Helvetica,sans-Serif" font-size="10.00">/PlayerShootSystem.hpp</text>
</a>
</g>
</g>
<!-- Node6&#45;&gt;Node15 -->
<g id="edge20_Node000006_Node000015" class="edge">
<title>Node6&#45;&gt;Node15</title>
<g id="a_edge20_Node000006_Node000015"><a xlink:title=" ">
<path fill="none" stroke="#63b8ff" d="M732.97,-185.14C691.61,-175 639.98,-162.34 600.65,-152.69"/>
<polygon fill="#63b8ff" stroke="#63b8ff" points="732.06,-188.52 742.6,-187.5 733.72,-181.72 732.06,-188.52"/>
</a>
</g>
</g>
<!-- Node17 -->
<g id="Node000017" class="node">
<title>Node17</title>
<g id="a_Node000017"><a xlink:href="RoomSystem_8cpp.html" target="_top" xlink:title=" ">
<polygon fill="white" stroke="#666666" points="1010.5,-152.25 909,-152.25 909,-121.75 1010.5,-121.75 1010.5,-152.25"/>
<text xml:space="preserve" text-anchor="start" x="917" y="-138.75" font-family="Helvetica,sans-Serif" font-size="10.00">server/src/Systems</text>
<text xml:space="preserve" text-anchor="middle" x="959.75" y="-127.5" font-family="Helvetica,sans-Serif" font-size="10.00">/RoomSystem.cpp</text>
</a>
</g>
</g>
<!-- Node6&#45;&gt;Node17 -->
<g id="edge23_Node000006_Node000017" class="edge">
<title>Node6&#45;&gt;Node17</title>
<g id="a_edge23_Node000006_Node000017"><a xlink:title=" ">
<path fill="none" stroke="#63b8ff" d="M849.71,-183.5C873.51,-173.66 902.13,-161.82 924.22,-152.69"/>
<polygon fill="#63b8ff" stroke="#63b8ff" points="848.45,-180.23 840.55,-187.29 851.13,-186.7 848.45,-180.23"/>
</a>
</g>
</g>
<!-- Node7&#45;&gt;Node2 -->
<g id="edge9_Node000007_Node000002" class="edge">
<title>Node7&#45;&gt;Node2</title>
<g id="a_edge9_Node000007_Node000002"><a xlink:title=" ">
<path fill="none" stroke="#63b8ff" d="M613.19,-118.7C565.84,-107.72 505.68,-93.76 463.09,-83.88"/>
<polygon fill="#63b8ff" stroke="#63b8ff" points="612.31,-122.09 622.85,-120.94 613.9,-115.27 612.31,-122.09"/>
</a>
</g>
</g>
<!-- Node8 -->
<g id="Node000008" class="node">
<title>Node8</title>
<g id="a_Node000008"><a xlink:href="BulletCleanupSystem_8cpp.html" target="_top" xlink:title=" ">
<polygon fill="white" stroke="#666666" points="755.88,-85.75 623.62,-85.75 623.62,-55.25 755.88,-55.25 755.88,-85.75"/>
<text xml:space="preserve" text-anchor="start" x="631.62" y="-72.25" font-family="Helvetica,sans-Serif" font-size="10.00">server/src/Systems</text>
<text xml:space="preserve" text-anchor="middle" x="689.75" y="-61" font-family="Helvetica,sans-Serif" font-size="10.00">/BulletCleanupSystem.cpp</text>
</a>
</g>
</g>
<!-- Node7&#45;&gt;Node8 -->
<g id="edge10_Node000007_Node000008" class="edge">
<title>Node7&#45;&gt;Node8</title>
<g id="a_edge10_Node000007_Node000008"><a xlink:title=" ">
<path fill="none" stroke="#63b8ff" d="M688.55,-110.06C688.81,-101.89 689.08,-93.16 689.3,-86.08"/>
<polygon fill="#63b8ff" stroke="#63b8ff" points="685.06,-109.75 688.25,-119.85 692.06,-109.96 685.06,-109.75"/>
</a>
</g>
</g>
<!-- Node9&#45;&gt;Node2 -->
<g id="edge12_Node000009_Node000002" class="edge">
<title>Node9&#45;&gt;Node2</title>
<g id="a_edge12_Node000009_Node000002"><a xlink:title=" ">
<path fill="none" stroke="#63b8ff" d="M760.89,-121.54C632.23,-100.96 596.58,-107.76 471.75,-85.75 468.92,-85.25 466.03,-84.71 463.11,-84.13"/>
<polygon fill="#63b8ff" stroke="#63b8ff" points="760.04,-124.95 770.47,-123.1 761.16,-118.04 760.04,-124.95"/>
</a>
</g>
</g>
<!-- Node10 -->
<g id="Node000010" class="node">
<title>Node10</title>
<g id="a_Node000010"><a xlink:href="CollisionSystem_8cpp.html" target="_top" xlink:title=" ">
<polygon fill="white" stroke="#666666" points="886.25,-85.75 777.25,-85.75 777.25,-55.25 886.25,-55.25 886.25,-85.75"/>
<text xml:space="preserve" text-anchor="start" x="785.25" y="-72.25" font-family="Helvetica,sans-Serif" font-size="10.00">server/src/Systems</text>
<text xml:space="preserve" text-anchor="middle" x="831.75" y="-61" font-family="Helvetica,sans-Serif" font-size="10.00">/CollisionSystem.cpp</text>
</a>
</g>
</g>
<!-- Node9&#45;&gt;Node10 -->
<g id="edge13_Node000009_Node000010" class="edge">
<title>Node9&#45;&gt;Node10</title>
<g id="a_edge13_Node000009_Node000010"><a xlink:title=" ">
<path fill="none" stroke="#63b8ff" d="M831.75,-110.06C831.75,-101.89 831.75,-93.16 831.75,-86.08"/>
<polygon fill="#63b8ff" stroke="#63b8ff" points="828.25,-109.85 831.75,-119.85 835.25,-109.85 828.25,-109.85"/>
</a>
</g>
</g>
<!-- Node11&#45;&gt;Node2 -->
<g id="edge15_Node000011_Node000002" class="edge">
<title>Node11&#45;&gt;Node2</title>
<g id="a_edge15_Node000011_Node000002"><a xlink:title=" ">
<path fill="none" stroke="#63b8ff" d="M1017.46,-121.58C775.71,-91.22 709.59,-120.66 471.75,-85.75 468.91,-85.33 466.01,-84.85 463.08,-84.33"/>
<polygon fill="#63b8ff" stroke="#63b8ff" points="1016.87,-125.04 1027.23,-122.83 1017.76,-118.09 1016.87,-125.04"/>
</a>
</g>
</g>
<!-- Node12 -->
<g id="Node000012" class="node">
<title>Node12</title>
<g id="a_Node000012"><a xlink:href="EnemyShootSystem_8cpp.html" target="_top" xlink:title=" ">
<polygon fill="white" stroke="#666666" points="1156.62,-85.75 1028.88,-85.75 1028.88,-55.25 1156.62,-55.25 1156.62,-85.75"/>
<text xml:space="preserve" text-anchor="start" x="1036.88" y="-72.25" font-family="Helvetica,sans-Serif" font-size="10.00">server/src/Systems</text>
<text xml:space="preserve" text-anchor="middle" x="1092.75" y="-61" font-family="Helvetica,sans-Serif" font-size="10.00">/EnemyShootSystem.cpp</text>
</a>
</g>
</g>
<!-- Node11&#45;&gt;Node12 -->
<g id="edge16_Node000011_Node000012" class="edge">
<title>Node11&#45;&gt;Node12</title>
<g id="a_edge16_Node000011_Node000012"><a xlink:title=" ">
<path fill="none" stroke="#63b8ff" d="M1092.75,-110.06C1092.75,-101.89 1092.75,-93.16 1092.75,-86.08"/>
<polygon fill="#63b8ff" stroke="#63b8ff" points="1089.25,-109.85 1092.75,-119.85 1096.25,-109.85 1089.25,-109.85"/>
</a>
</g>
</g>
<!-- Node13&#45;&gt;Node2 -->
<g id="edge18_Node000013_Node000002" class="edge">
<title>Node13&#45;&gt;Node2</title>
<g id="a_edge18_Node000013_Node000002"><a xlink:title=" ">
<path fill="none" stroke="#63b8ff" d="M271.23,-117.79C301.14,-107.8 337.73,-95.57 365.79,-86.19"/>
<polygon fill="#63b8ff" stroke="#63b8ff" points="270.36,-114.39 261.98,-120.88 272.57,-121.03 270.36,-114.39"/>
</a>
</g>
</g>
<!-- Node14 -->
<g id="Node000014" class="node">
<title>Node14</title>
<g id="a_Node000014"><a xlink:href="LevelSystem_8cpp.html" target="_top" xlink:title=" ">
<polygon fill="white" stroke="#666666" points="267.5,-85.75 166,-85.75 166,-55.25 267.5,-55.25 267.5,-85.75"/>
<text xml:space="preserve" text-anchor="start" x="174" y="-72.25" font-family="Helvetica,sans-Serif" font-size="10.00">server/src/Systems</text>
<text xml:space="preserve" text-anchor="middle" x="216.75" y="-61" font-family="Helvetica,sans-Serif" font-size="10.00">/LevelSystem.cpp</text>
</a>
</g>
</g>
<!-- Node13&#45;&gt;Node14 -->
<g id="edge19_Node000013_Node000014" class="edge">
<title>Node13&#45;&gt;Node14</title>
<g id="a_edge19_Node000013_Node000014"><a xlink:title=" ">
<path fill="none" stroke="#63b8ff" d="M216.75,-110.06C216.75,-101.89 216.75,-93.16 216.75,-86.08"/>
<polygon fill="#63b8ff" stroke="#63b8ff" points="213.25,-109.85 216.75,-119.85 220.25,-109.85 213.25,-109.85"/>
</a>
</g>
</g>
<!-- Node15&#45;&gt;Node2 -->
<g id="edge21_Node000015_Node000002" class="edge">
<title>Node15&#45;&gt;Node2</title>
<g id="a_edge21_Node000015_Node000002"><a xlink:title=" ">
<path fill="none" stroke="#63b8ff" d="M500.76,-116.31C480.98,-106.57 457.51,-95.01 439.36,-86.08"/>
<polygon fill="#63b8ff" stroke="#63b8ff" points="499.15,-119.42 509.67,-120.7 502.24,-113.14 499.15,-119.42"/>
</a>
</g>
</g>
<!-- Node16 -->
<g id="Node000016" class="node">
<title>Node16</title>
<g id="a_Node000016"><a xlink:href="PlayerShootSystem_8cpp.html" target="_top" xlink:title=" ">
<polygon fill="white" stroke="#666666" points="605.12,-85.75 480.38,-85.75 480.38,-55.25 605.12,-55.25 605.12,-85.75"/>
<text xml:space="preserve" text-anchor="start" x="488.38" y="-72.25" font-family="Helvetica,sans-Serif" font-size="10.00">server/src/Systems</text>
<text xml:space="preserve" text-anchor="middle" x="542.75" y="-61" font-family="Helvetica,sans-Serif" font-size="10.00">/PlayerShootSystem.cpp</text>
</a>
</g>
</g>
<!-- Node15&#45;&gt;Node16 -->
<g id="edge22_Node000015_Node000016" class="edge">
<title>Node15&#45;&gt;Node16</title>
<g id="a_edge22_Node000015_Node000016"><a xlink:title=" ">
<path fill="none" stroke="#63b8ff" d="M541.55,-110.06C541.81,-101.89 542.08,-93.16 542.3,-86.08"/>
<polygon fill="#63b8ff" stroke="#63b8ff" points="538.06,-109.75 541.25,-119.85 545.06,-109.96 538.06,-109.75"/>
</a>
</g>
</g>
<!-- Node21&#45;&gt;Node2 -->
<g id="edge28_Node000021_Node000002" class="edge">
<title>Node21&#45;&gt;Node2</title>
<g id="a_edge28_Node000021_Node000002"><a xlink:title=" ">
<path fill="none" stroke="#63b8ff" d="M128.95,-176.6C129.85,-158.74 134.15,-135.77 148.75,-121.75 163.58,-107.51 284.3,-88.74 356.25,-78.65"/>
<polygon fill="#63b8ff" stroke="#63b8ff" points="125.45,-176.42 128.8,-186.47 132.45,-176.52 125.45,-176.42"/>
</a>
</g>
</g>
<!-- Node21&#45;&gt;Node13 -->
<g id="edge29_Node000021_Node000013" class="edge">
<title>Node21&#45;&gt;Node13</title>
<g id="a_edge29_Node000021_Node000013"><a xlink:title=" ">
<path fill="none" stroke="#63b8ff" d="M158.69,-181.04C171.3,-171.69 185.75,-160.98 197.09,-152.58"/>
<polygon fill="#63b8ff" stroke="#63b8ff" points="156.66,-178.2 150.71,-186.96 160.83,-183.82 156.66,-178.2"/>
</a>
</g>
</g>
<!-- Node22 -->
<g id="Node000022" class="node">
<title>Node22</title>
<g id="a_Node000022"><a xlink:href="EntitySystem_8cpp.html" target="_top" xlink:title=" ">
<polygon fill="white" stroke="#666666" points="101.5,-152.25 0,-152.25 0,-121.75 101.5,-121.75 101.5,-152.25"/>
<text xml:space="preserve" text-anchor="start" x="8" y="-138.75" font-family="Helvetica,sans-Serif" font-size="10.00">server/src/Systems</text>
<text xml:space="preserve" text-anchor="middle" x="50.75" y="-127.5" font-family="Helvetica,sans-Serif" font-size="10.00">/EntitySystem.cpp</text>
</a>
</g>
</g>
<!-- Node21&#45;&gt;Node22 -->
<g id="edge30_Node000021_Node000022" class="edge">
<title>Node21&#45;&gt;Node22</title>
<g id="a_edge30_Node000021_Node000022"><a xlink:title=" ">
<path fill="none" stroke="#63b8ff" d="M103.13,-180.77C91.76,-171.48 78.79,-160.9 68.61,-152.58"/>
<polygon fill="#63b8ff" stroke="#63b8ff" points="100.69,-183.29 110.65,-186.91 105.12,-177.87 100.69,-183.29"/>
</a>
</g>
</g>
<!-- Node23&#45;&gt;Node2 -->
<g id="edge32_Node000023_Node000002" class="edge">
<title>Node23&#45;&gt;Node2</title>
<g id="a_edge32_Node000023_Node000002"><a xlink:title=" ">
<path fill="none" stroke="#63b8ff" d="M348.67,-243.83C363.5,-202 392.76,-119.45 404.6,-86.04"/>
<polygon fill="#63b8ff" stroke="#63b8ff" points="345.44,-242.46 345.4,-253.05 352.04,-244.79 345.44,-242.46"/>
</a>
</g>
</g>
<!-- Node24 -->
<g id="Node000024" class="node">
<title>Node24</title>
<g id="a_Node000024"><a xlink:href="PlayerSystem_8cpp.html" target="_top" xlink:title=" ">
<polygon fill="white" stroke="#666666" points="346.5,-218.75 245,-218.75 245,-188.25 346.5,-188.25 346.5,-218.75"/>
<text xml:space="preserve" text-anchor="start" x="253" y="-205.25" font-family="Helvetica,sans-Serif" font-size="10.00">server/src/Systems</text>
<text xml:space="preserve" text-anchor="middle" x="295.75" y="-194" font-family="Helvetica,sans-Serif" font-size="10.00">/PlayerSystem.cpp</text>
</a>
</g>
</g>
<!-- Node23&#45;&gt;Node24 -->
<g id="edge33_Node000023_Node000024" class="edge">
<title>Node23&#45;&gt;Node24</title>
<g id="a_edge33_Node000023_Node000024"><a xlink:title=" ">
<path fill="none" stroke="#63b8ff" d="M323.4,-245.04C317.46,-236.32 310.92,-226.74 305.69,-219.08"/>
<polygon fill="#63b8ff" stroke="#63b8ff" points="320.39,-246.83 328.91,-253.11 326.17,-242.88 320.39,-246.83"/>
</a>
</g>
</g>
</g>
</svg>
