<?xml version="1.0" encoding="UTF-8" standalone="no"?>
<!DOCTYPE svg PUBLIC "-//W3C//DTD SVG 1.1//EN"
 "http://www.w3.org/Graphics/SVG/1.1/DTD/svg11.dtd">
<!-- Generated by graphviz version 14.0.5 (20251129.0259)
 -->
<!-- Title: common/include/RType/ECS/Components/Powerup.hpp Pages: 1 -->
<!--zoomable 293 -->

<svg id="main" version="1.1" xmlns="http://www.w3.org/2000/svg" xmlns:xlink="http://www.w3.org/1999/xlink" xml:space="preserve" onload="init(evt)">

<style type="text/css"><![CDATA[
.node, .edge {opacity: 0.7;}
.node.selected, .edge.selected {opacity: 1;}
.edge:hover path { stroke: red; }
.edge:hover polygon { stroke: red; fill: red; }
]]></style>

<defs>
  <circle id="rim" cx="0" cy="0" r="7"/>
  <circle id="rim2" cx="0" cy="0" r="3.5"/>
  <g id="zoomPlus">
    <use xlink:href="#rim" fill="#404040"><set attributeName="fill" to="#808080" begin="zoomplus.mouseover" end="zoomplus.mouseout"/></use>
    <path d="M-4,0h8M0,-4v8" fill="none" stroke="white" stroke-width="1.5" pointer-events="none"/>
  </g>
  <g id="zoomMin">
    <use xlink:href="#rim" fill="#404040"><set attributeName="fill" to="#808080" begin="zoomminus.mouseover" end="zoomminus.mouseout"/></use>
    <path d="M-4,0h8" fill="none" stroke="white" stroke-width="1.5" pointer-events="none"/>
  </g>
  <g id="arrowUp" transform="translate(30 24)">
    <use xlink:href="#rim"/>
    <path pointer-events="none" fill="none" stroke="white" stroke-width="1.5" d="M0,-3.0v7 M-2.5,-0.5L0,-3.0L2.5,-0.5"/>
  </g>
  <g id="arrowRight" transform="rotate(90) translate(36 -43)">
    <use xlink:href="#rim"/>
    <path pointer-events="none" fill="none" stroke="white" stroke-width="1.5" d="M0,-3.0v7 M-2.5,-0.5L0,-3.0L2.5,-0.5"/>
  </g>
  <g id="arrowDown" transform="rotate(180) translate(-30 -48)">
    <use xlink:href="#rim"/>
    <path pointer-events="none" fill="none" stroke="white" stroke-width="1.5" d="M0,-3.0v7 M-2.5,-0.5L0,-3.0L2.5,-0.5"/>
  </g>
  <g id="arrowLeft" transform="rotate(270) translate(-36 17)">
    <use xlink:href="#rim"/>
    <path pointer-events="none" fill="none" stroke="white" stroke-width="1.5" d="M0,-3.0v7 M-2.5,-0.5L0,-3.0L2.5,-0.5"/>
  </g>
  <g id="resetDef">
    <use xlink:href="#rim2" fill="#404040"><set attributeName="fill" to="#808080" begin="reset.mouseover" end="reset.mouseout"/></use>
  </g>
</defs>
<script type="application/ecmascript">
var viewWidth = 804;
var viewHeight = 293;
var sectionId = 'dynsection-1';
</script>
<script type="application/ecmascript" xlink:href="svg.min.js"/>
<svg id="graph" class="graph">
<g id="viewport">
<title>common/include/RType/ECS/Components/Powerup.hpp</title>
<!-- Node1 -->
<g id="Node000001" class="node">
<title>Node1</title>
<g id="a_Node000001"><a xlink:title=" ">
<polygon fill="#999999" stroke="#666666" points="615.62,-285.25 457.12,-285.25 457.12,-254.75 615.62,-254.75 615.62,-285.25"/>
<text xml:space="preserve" text-anchor="start" x="465.12" y="-271.75" font-family="Helvetica,sans-Serif" font-size="10.00">common/include/RType</text>
<text xml:space="preserve" text-anchor="middle" x="536.38" y="-260.5" font-family="Helvetica,sans-Serif" font-size="10.00">/ECS/Components/Powerup.hpp</text>
</a>
</g>
</g>
<!-- Node2 -->
<g id="Node000002" class="node">
<title>Node2</title>
<g id="a_Node000002"><a xlink:href="GameManager_8hpp.html" target="_top" xlink:title=" ">
<polygon fill="white" stroke="#666666" points="468.38,-85.75 362.38,-85.75 362.38,-55.25 468.38,-55.25 468.38,-85.75"/>
<text xml:space="preserve" text-anchor="start" x="370.38" y="-72.25" font-family="Helvetica,sans-Serif" font-size="10.00">server/include/Game</text>
<text xml:space="preserve" text-anchor="middle" x="415.38" y="-61" font-family="Helvetica,sans-Serif" font-size="10.00">/GameManager.hpp</text>
</a>
</g>
</g>
<!-- Node1&#45;&gt;Node2 -->
<g id="edge1_Node000001_Node000002" class="edge">
<title>Node1&#45;&gt;Node2</title>
<g id="a_edge1_Node000001_Node000002"><a xlink:title=" ">
<path fill="none" stroke="#63b8ff" d="M573.32,-248.18C584.65,-240.24 596.26,-230.29 604.38,-218.75 629.71,-182.75 651.62,-156.32 624.38,-121.75 605.35,-97.61 524.25,-83.73 468.85,-76.9"/>
<polygon fill="#63b8ff" stroke="#63b8ff" points="571.63,-245.1 565.21,-253.53 575.49,-250.94 571.63,-245.1"/>
</a>
</g>
</g>
<!-- Node5 -->
<g id="Node000005" class="node">
<title>Node5</title>
<g id="a_Node000005"><a xlink:href="LevelData_8hpp.html" target="_top" xlink:title=" ">
<polygon fill="white" stroke="#666666" points="285.38,-218.75 179.38,-218.75 179.38,-188.25 285.38,-188.25 285.38,-218.75"/>
<text xml:space="preserve" text-anchor="start" x="187.38" y="-205.25" font-family="Helvetica,sans-Serif" font-size="10.00">server/include/Game</text>
<text xml:space="preserve" text-anchor="middle" x="232.38" y="-194" font-family="Helvetica,sans-Serif" font-size="10.00">/LevelData.hpp</text>
</a>
</g>
</g>
<!-- Node1&#45;&gt;Node5 -->
<g id="edge4_Node000001_Node000005" class="edge">
<title>Node1&#45;&gt;Node5</title>
<g id="a_edge4_Node000001_Node000005"><a xlink:title=" ">
<path fill="none" stroke="#63b8ff" d="M455.79,-251.9C402.03,-240.5 332.86,-225.82 285.82,-215.84"/>
<polygon fill="#63b8ff" stroke="#63b8ff" points="455.02,-255.32 465.53,-253.97 456.48,-248.47 455.02,-255.32"/>
</a>
</g>
</g>
<!-- Node9 -->
<g id="Node000009" class="node">
<title>Node9</title>
<g id="a_Node000009"><a xlink:href="CollisionSystem_8hpp.html" target="_top" xlink:title=" ">
<polygon fill="white" stroke="#666666" points="595.75,-218.75 477,-218.75 477,-188.25 595.75,-188.25 595.75,-218.75"/>
<text xml:space="preserve" text-anchor="start" x="485" y="-205.25" font-family="Helvetica,sans-Serif" font-size="10.00">server/include/Systems</text>
<text xml:space="preserve" text-anchor="middle" x="536.38" y="-194" font-family="Helvetica,sans-Serif" font-size="10.00">/CollisionSystem.hpp</text>
</a>
</g>
</g>
<!-- Node1&#45;&gt;Node9 -->
<g id="edge9_Node000001_Node000009" class="edge">
<title>Node1&#45;&gt;Node9</title>
<g id="a_edge9_Node000001_Node000009"><a xlink:title=" ">
<path fill="none" stroke="#63b8ff" d="M536.38,-243.06C536.38,-234.89 536.38,-226.16 536.38,-219.08"/>
<polygon fill="#63b8ff" stroke="#63b8ff" points="532.88,-242.85 536.38,-252.85 539.88,-242.85 532.88,-242.85"/>
</a>
</g>
</g>
<!-- Node11 -->
<g id="Node000011" class="node">
<title>Node11</title>
<g id="a_Node000011"><a xlink:href="EntitySystem_8hpp.html" target="_top" xlink:title=" ">
<polygon fill="white" stroke="#666666" points="439.75,-218.75 321,-218.75 321,-188.25 439.75,-188.25 439.75,-218.75"/>
<text xml:space="preserve" text-anchor="start" x="329" y="-205.25" font-family="Helvetica,sans-Serif" font-size="10.00">server/include/Systems</text>
<text xml:space="preserve" text-anchor="middle" x="380.38" y="-194" font-family="Helvetica,sans-Serif" font-size="10.00">/EntitySystem.hpp</text>
</a>
</g>
</g>
<!-- Node1&#45;&gt;Node11 -->
<g id="edge12_Node000001_Node000011" class="edge">
<title>Node1&#45;&gt;Node11</title>
<g id="a_edge12_Node000001_Node000011"><a xlink:title=" ">
<path fill="none" stroke="#63b8ff" d="M490.42,-250C466.61,-240.16 437.99,-228.32 415.9,-219.19"/>
<polygon fill="#63b8ff" stroke="#63b8ff" points="489,-253.2 499.58,-253.79 491.67,-246.73 489,-253.2"/>
</a>
</g>
</g>
<!-- Node13 -->
<g id="Node000013" class="node">
<title>Node13</title>
<g id="a_Node000013"><a xlink:href="PlayerShootSystem_8cpp.html" target="_top" xlink:title=" ">
<polygon fill="white" stroke="#666666" points="795.75,-218.75 671,-218.75 671,-188.25 795.75,-188.25 795.75,-218.75"/>
<text xml:space="preserve" text-anchor="start" x="679" y="-205.25" font-family="Helvetica,sans-Serif" font-size="10.00">server/src/Systems</text>
<text xml:space="preserve" text-anchor="middle" x="733.38" y="-194" font-family="Helvetica,sans-Serif" font-size="10.00">/PlayerShootSystem.cpp</text>
</a>
</g>
</g>
<!-- Node1&#45;&gt;Node13 -->
<g id="edge16_Node000001_Node000013" class="edge">
<title>Node1&#45;&gt;Node13</title>
<g id="a_edge16_Node000001_Node000013"><a xlink:title=" ">
<path fill="none" stroke="#63b8ff" d="M591.99,-250.79C622.51,-240.8 659.86,-228.57 688.51,-219.19"/>
<polygon fill="#63b8ff" stroke="#63b8ff" points="590.93,-247.46 582.52,-253.89 593.11,-254.11 590.93,-247.46"/>
</a>
</g>
</g>
<!-- Node3 -->
<g id="Node000003" class="node">
<title>Node3</title>
<g id="a_Node000003"><a xlink:href="GameManager_8cpp.html" target="_top" xlink:title=" ">
<polygon fill="white" stroke="#666666" points="424.12,-19.25 250.62,-19.25 250.62,0 424.12,0 424.12,-19.25"/>
<text xml:space="preserve" text-anchor="middle" x="337.38" y="-5.75" font-family="Helvetica,sans-Serif" font-size="10.00">server/src/Game/GameManager.cpp</text>
</a>
</g>
</g>
<!-- Node2&#45;&gt;Node3 -->
<g id="edge2_Node000002_Node000003" class="edge">
<title>Node2&#45;&gt;Node3</title>
<g id="a_edge2_Node000002_Node000003"><a xlink:title=" ">
<path fill="none" stroke="#63b8ff" d="M387.05,-48.12C374.08,-38.33 359.41,-27.26 349.4,-19.7"/>
<polygon fill="#63b8ff" stroke="#63b8ff" points="384.8,-50.8 394.89,-54.03 389.01,-45.22 384.8,-50.8"/>
</a>
</g>
</g>
<!-- Node4 -->
<g id="Node000004" class="node">
<title>Node4</title>
<g id="a_Node000004"><a xlink:href="server_2src_2main_8cpp.html" target="_top" xlink:title=" ">
<polygon fill="white" stroke="#666666" points="544.5,-19.25 442.25,-19.25 442.25,0 544.5,0 544.5,-19.25"/>
<text xml:space="preserve" text-anchor="middle" x="493.38" y="-5.75" font-family="Helvetica,sans-Serif" font-size="10.00">server/src/main.cpp</text>
</a>
</g>
</g>
<!-- Node2&#45;&gt;Node4 -->
<g id="edge3_Node000002_Node000004" class="edge">
<title>Node2&#45;&gt;Node4</title>
<g id="a_edge3_Node000002_Node000004"><a xlink:title=" ">
<path fill="none" stroke="#63b8ff" d="M443.7,-48.12C456.67,-38.33 471.34,-27.26 481.35,-19.7"/>
<polygon fill="#63b8ff" stroke="#63b8ff" points="441.74,-45.22 435.86,-54.03 445.95,-50.8 441.74,-45.22"/>
</a>
</g>
</g>
<!-- Node6 -->
<g id="Node000006" class="node">
<title>Node6</title>
<g id="a_Node000006"><a xlink:href="LevelSystem_8hpp.html" target="_top" xlink:title=" ">
<polygon fill="white" stroke="#666666" points="291.75,-152.25 173,-152.25 173,-121.75 291.75,-121.75 291.75,-152.25"/>
<text xml:space="preserve" text-anchor="start" x="181" y="-138.75" font-family="Helvetica,sans-Serif" font-size="10.00">server/include/Systems</text>
<text xml:space="preserve" text-anchor="middle" x="232.38" y="-127.5" font-family="Helvetica,sans-Serif" font-size="10.00">/LevelSystem.hpp</text>
</a>
</g>
</g>
<!-- Node5&#45;&gt;Node6 -->
<g id="edge5_Node000005_Node000006" class="edge">
<title>Node5&#45;&gt;Node6</title>
<g id="a_edge5_Node000005_Node000006"><a xlink:title=" ">
<path fill="none" stroke="#63b8ff" d="M232.38,-176.56C232.38,-168.39 232.38,-159.66 232.38,-152.58"/>
<polygon fill="#63b8ff" stroke="#63b8ff" points="228.88,-176.35 232.38,-186.35 235.88,-176.35 228.88,-176.35"/>
</a>
</g>
</g>
<!-- Node8 -->
<g id="Node000008" class="node">
<title>Node8</title>
<g id="a_Node000008"><a xlink:href="LevelData_8cpp.html" target="_top" xlink:title=" ">
<polygon fill="white" stroke="#666666" points="154.75,-146.62 0,-146.62 0,-127.38 154.75,-127.38 154.75,-146.62"/>
<text xml:space="preserve" text-anchor="middle" x="77.38" y="-133.12" font-family="Helvetica,sans-Serif" font-size="10.00">server/src/Game/LevelData.cpp</text>
</a>
</g>
</g>
<!-- Node5&#45;&gt;Node8 -->
<g id="edge8_Node000005_Node000008" class="edge">
<title>Node5&#45;&gt;Node8</title>
<g id="a_edge8_Node000005_Node000008"><a xlink:title=" ">
<path fill="none" stroke="#63b8ff" d="M186.89,-183.57C157.91,-171.51 121.68,-156.44 99.03,-147.01"/>
<polygon fill="#63b8ff" stroke="#63b8ff" points="185.23,-186.67 195.81,-187.28 187.92,-180.21 185.23,-186.67"/>
</a>
</g>
</g>
<!-- Node6&#45;&gt;Node2 -->
<g id="edge6_Node000006_Node000002" class="edge">
<title>Node6&#45;&gt;Node2</title>
<g id="a_edge6_Node000006_Node000002"><a xlink:title=" ">
<path fill="none" stroke="#63b8ff" d="M284.41,-117.66C312.69,-107.69 347.2,-95.53 373.7,-86.19"/>
<polygon fill="#63b8ff" stroke="#63b8ff" points="283.6,-114.24 275.33,-120.86 285.92,-120.84 283.6,-114.24"/>
</a>
</g>
</g>
<!-- Node7 -->
<g id="Node000007" class="node">
<title>Node7</title>
<g id="a_Node000007"><a xlink:href="LevelSystem_8cpp.html" target="_top" xlink:title=" ">
<polygon fill="white" stroke="#666666" points="283.12,-85.75 181.62,-85.75 181.62,-55.25 283.12,-55.25 283.12,-85.75"/>
<text xml:space="preserve" text-anchor="start" x="189.62" y="-72.25" font-family="Helvetica,sans-Serif" font-size="10.00">server/src/Systems</text>
<text xml:space="preserve" text-anchor="middle" x="232.38" y="-61" font-family="Helvetica,sans-Serif" font-size="10.00">/LevelSystem.cpp</text>
</a>
</g>
</g>
<!-- Node6&#45;&gt;Node7 -->
<g id="edge7_Node000006_Node000007" class="edge">
<title>Node6&#45;&gt;Node7</title>
<g id="a_edge7_Node000006_Node000007"><a xlink:title=" ">
<path fill="none" stroke="#63b8ff" d="M232.38,-110.06C232.38,-101.89 232.38,-93.16 232.38,-86.08"/>
<polygon fill="#63b8ff" stroke="#63b8ff" points="228.88,-109.85 232.38,-119.85 235.88,-109.85 228.88,-109.85"/>
</a>
</g>
</g>
<!-- Node9&#45;&gt;Node2 -->
<g id="edge10_Node000009_Node000002" class="edge">
<title>Node9&#45;&gt;Node2</title>
<g id="a_edge10_Node000009_Node000002"><a xlink:title=" ">
<path fill="none" stroke="#63b8ff" d="M515.18,-179.55C490.29,-152.61 449.78,-108.75 428.85,-86.08"/>
<polygon fill="#63b8ff" stroke="#63b8ff" points="512.58,-181.9 521.94,-186.87 517.72,-177.15 512.58,-181.9"/>
</a>
</g>
</g>
<!-- Node10 -->
<g id="Node000010" class="node">
<title>Node10</title>
<g id="a_Node000010"><a xlink:href="CollisionSystem_8cpp.html" target="_top" xlink:title=" ">
<polygon fill="white" stroke="#666666" points="614.88,-152.25 505.88,-152.25 505.88,-121.75 614.88,-121.75 614.88,-152.25"/>
<text xml:space="preserve" text-anchor="start" x="513.88" y="-138.75" font-family="Helvetica,sans-Serif" font-size="10.00">server/src/Systems</text>
<text xml:space="preserve" text-anchor="middle" x="560.38" y="-127.5" font-family="Helvetica,sans-Serif" font-size="10.00">/CollisionSystem.cpp</text>
</a>
</g>
</g>
<!-- Node9&#45;&gt;Node10 -->
<g id="edge11_Node000009_Node000010" class="edge">
<title>Node9&#45;&gt;Node10</title>
<g id="a_edge11_Node000009_Node000010"><a xlink:title=" ">
<path fill="none" stroke="#63b8ff" d="M545.82,-177.13C548.92,-168.8 552.25,-159.83 554.95,-152.58"/>
<polygon fill="#63b8ff" stroke="#63b8ff" points="542.56,-175.85 542.35,-186.45 549.12,-178.29 542.56,-175.85"/>
</a>
</g>
</g>
<!-- Node11&#45;&gt;Node2 -->
<g id="edge13_Node000011_Node000002" class="edge">
<title>Node11&#45;&gt;Node2</title>
<g id="a_edge13_Node000011_Node000002"><a xlink:title=" ">
<path fill="none" stroke="#63b8ff" d="M355.59,-179.5C341.24,-163.28 327.9,-141.1 338.38,-121.75 346.96,-105.89 362.97,-94.24 378.18,-86.17"/>
<polygon fill="#63b8ff" stroke="#63b8ff" points="353.05,-181.9 362.48,-186.74 358.12,-177.08 353.05,-181.9"/>
</a>
</g>
</g>
<!-- Node11&#45;&gt;Node6 -->
<g id="edge14_Node000011_Node000006" class="edge">
<title>Node11&#45;&gt;Node6</title>
<g id="a_edge14_Node000011_Node000006"><a xlink:title=" ">
<path fill="none" stroke="#63b8ff" d="M336.47,-183.37C313.95,-173.55 286.94,-161.78 266.08,-152.69"/>
<polygon fill="#63b8ff" stroke="#63b8ff" points="334.84,-186.47 345.4,-187.26 337.64,-180.06 334.84,-186.47"/>
</a>
</g>
</g>
<!-- Node12 -->
<g id="Node000012" class="node">
<title>Node12</title>
<g id="a_Node000012"><a xlink:href="EntitySystem_8cpp.html" target="_top" xlink:title=" ">
<polygon fill="white" stroke="#666666" points="449.12,-152.25 347.62,-152.25 347.62,-121.75 449.12,-121.75 449.12,-152.25"/>
<text xml:space="preserve" text-anchor="start" x="355.62" y="-138.75" font-family="Helvetica,sans-Serif" font-size="10.00">server/src/Systems</text>
<text xml:space="preserve" text-anchor="middle" x="398.38" y="-127.5" font-family="Helvetica,sans-Serif" font-size="10.00">/EntitySystem.cpp</text>
</a>
</g>
</g>
<!-- Node11&#45;&gt;Node12 -->
<g id="edge15_Node000011_Node000012" class="edge">
<title>Node11&#45;&gt;Node12</title>
<g id="a_edge15_Node000011_Node000012"><a xlink:title=" ">
<path fill="none" stroke="#63b8ff" d="M387.54,-176.84C389.84,-168.59 392.31,-159.74 394.31,-152.58"/>
<polygon fill="#63b8ff" stroke="#63b8ff" points="384.18,-175.83 384.87,-186.41 390.93,-177.71 384.18,-175.83"/>
</a>
</g>
</g>
</g>
</svg>

<g id="navigator" transform="translate(0 0)" fill="#404254">
  <rect fill="#f2f5e9" fill-opacity="0.5" stroke="#606060" stroke-width=".5" x="0" y="0" width="60" height="60"/>
  <use id="zoomplus" xlink:href="#zoomPlus" x="17" y="9" onmousedown="handleZoom(evt,'in')"/>
  <use id="zoomminus" xlink:href="#zoomMin" x="42" y="9" onmousedown="handleZoom(evt,'out')"/>
  <use id="reset" xlink:href="#resetDef" x="30" y="36" onmousedown="handleReset()"/>
   <use id="arrowup" xlink:href="#arrowUp" x="0" y="0" onmousedown="handlePan(0,-1)"/>
  <use id="arrowright" xlink:href="#arrowRight" x="0" y="0" onmousedown="handlePan(1,0)"/>
  <use id="arrowdown" xlink:href="#arrowDown" x="0" y="0" onmousedown="handlePan(0,1)"/>
  <use id="arrowleft" xlink:href="#arrowLeft" x="0" y="0" onmousedown="handlePan(-1,0)"/>
</g>
<svg viewBox="0 0 15 15" width="100%" height="30px" preserveAspectRatio="xMaxYMin meet">
 <g id="arrow_out" transform="scale(0.3 0.3)">
  <a xlink:href="Powerup_8hpp__dep__incl_org.svg" target="_base">
   <rect id="button" ry="5" rx="5" y="6" x="6" height="38" width="38"
        fill="#f2f5e9" fill-opacity="0.5" stroke="#606060" stroke-width="1.0"/>
   <path id="arrow"
     d="M 11.500037,31.436501 C 11.940474,20.09759 22.043105,11.32322 32.158766,21.979434 L 37.068811,17.246167 C 37.068811,17.246167 37.088388,32 37.088388,32 L 22.160133,31.978069 C 22.160133,31.978069 26.997745,27.140456 26.997745,27.140456 C 18.528582,18.264221 13.291696,25.230495 11.500037,31.436501 z"
     style="fill:#404040;"/>
  </a>
 </g>
</svg>

<style type='text/css'>
<![CDATA[
[data-mouse-over-selected='false'] { opacity: 0.7; }
[data-mouse-over-selected='true']  { opacity: 1.0; }
]]>
</style>
<script type="application/ecmascript"><![CDATA[
document.addEventListener('DOMContentLoaded', (event) => {
  highlightEdges();
  highlightAdjacentNodes();
});
]]></script>
</svg>
