<?xml version="1.0" encoding="UTF-8" standalone="no"?>
<!DOCTYPE svg PUBLIC "-//W3C//DTD SVG 1.1//EN"
 "http://www.w3.org/Graphics/SVG/1.1/DTD/svg11.dtd">
<!-- Generated by graphviz version 14.0.5 (20251129.0259)
 -->
<!-- Title: common/include/RType/ECS/Registry.hpp Pages: 1 -->
<svg width="1662pt" height="425pt"
 viewBox="0.00 0.00 1662.00 425.00" xmlns="http://www.w3.org/2000/svg" xmlns:xlink="http://www.w3.org/1999/xlink">
<g id="graph0" class="graph" transform="scale(1 1) rotate(0) translate(4 421.25)">
<title>common/include/RType/ECS/Registry.hpp</title>
<!-- Node1 -->
<g id="Node000001" class="node">
<title>Node1</title>
<g id="a_Node000001"><a xlink:title=" ">
<polygon fill="#999999" stroke="#666666" points="960.43,-417.25 841.68,-417.25 841.68,-386.75 960.43,-386.75 960.43,-417.25"/>
<text xml:space="preserve" text-anchor="start" x="849.68" y="-403.75" font-family="Helvetica,sans-Serif" font-size="10.00">common/include/RType</text>
<text xml:space="preserve" text-anchor="middle" x="901.06" y="-392.5" font-family="Helvetica,sans-Serif" font-size="10.00">/ECS/Registry.hpp</text>
</a>
</g>
</g>
<!-- Node2 -->
<g id="Node000002" class="node">
<title>Node2</title>
<g id="a_Node000002"><a xlink:href="ComponentConcept_8hpp.html" target="_top" xlink:title="Concepts for validating component types in the ECS.">
<polygon fill="white" stroke="#666666" points="252.68,-240.25 75.43,-240.25 75.43,-221 252.68,-221 252.68,-240.25"/>
<text xml:space="preserve" text-anchor="middle" x="164.06" y="-226.75" font-family="Helvetica,sans-Serif" font-size="10.00">RType/ECS/ComponentConcept.hpp</text>
</a>
</g>
</g>
<!-- Node1&#45;&gt;Node2 -->
<g id="edge1_Node000001_Node000002" class="edge">
<title>Node1&#45;&gt;Node2</title>
<g id="a_edge1_Node000001_Node000002"><a xlink:title=" ">
<path fill="none" stroke="#63b8ff" d="M841.34,-398.84C693.27,-393.13 317.52,-376.29 267.06,-350.75 222.89,-328.4 189.68,-278.08 174.01,-250.53"/>
<polygon fill="#63b8ff" stroke="#63b8ff" points="177.16,-248.99 169.28,-241.9 171.02,-252.35 177.16,-248.99"/>
</a>
</g>
</g>
<!-- Node3 -->
<g id="Node000003" class="node">
<title>Node3</title>
<g id="a_Node000003"><a xlink:title=" ">
<polygon fill="#e0e0e0" stroke="#999999" points="83.93,-185 28.18,-185 28.18,-165.75 83.93,-165.75 83.93,-185"/>
<text xml:space="preserve" text-anchor="middle" x="56.06" y="-171.5" font-family="Helvetica,sans-Serif" font-size="10.00">concepts</text>
</a>
</g>
</g>
<!-- Node1&#45;&gt;Node3 -->
<g id="edge55_Node000001_Node000003" class="edge">
<title>Node1&#45;&gt;Node3</title>
<g id="a_edge55_Node000001_Node000003"><a xlink:title=" ">
<path fill="none" stroke="#63b8ff" d="M841.31,-400.29C699.55,-398 346.44,-388.55 235.06,-350.75 150.07,-321.91 114.75,-315.63 66.06,-240.25 57.75,-227.39 55.45,-210.1 55.12,-196.75"/>
<polygon fill="#63b8ff" stroke="#63b8ff" points="58.62,-196.99 55.26,-186.95 51.62,-196.9 58.62,-196.99"/>
</a>
</g>
</g>
<!-- Node4 -->
<g id="Node000004" class="node">
<title>Node4</title>
<g id="a_Node000004"><a xlink:title=" ">
<polygon fill="#e0e0e0" stroke="#999999" points="142.93,-129.75 81.18,-129.75 81.18,-110.5 142.93,-110.5 142.93,-129.75"/>
<text xml:space="preserve" text-anchor="middle" x="112.06" y="-116.25" font-family="Helvetica,sans-Serif" font-size="10.00">type_traits</text>
</a>
</g>
</g>
<!-- Node1&#45;&gt;Node4 -->
<g id="edge66_Node000001_Node000004" class="edge">
<title>Node1&#45;&gt;Node4</title>
<g id="a_edge66_Node000001_Node000004"><a xlink:title=" ">
<path fill="none" stroke="#63b8ff" d="M841.24,-399.73C640.01,-394.68 0.06,-371.92 0.06,-286.88 0.06,-286.88 0.06,-286.88 0.06,-229.62 0.06,-200.01 -0.17,-188.28 19.06,-165.75 32.24,-150.29 52.01,-139.77 69.93,-132.85"/>
<polygon fill="#63b8ff" stroke="#63b8ff" points="71.1,-136.15 79.35,-129.5 68.75,-129.55 71.1,-136.15"/>
</a>
</g>
</g>
<!-- Node6 -->
<g id="Node000006" class="node">
<title>Node6</title>
<g id="a_Node000006"><a xlink:href="Entity_8hpp.html" target="_top" xlink:title="Entity identifier for ECS architecture.">
<polygon fill="white" stroke="#666666" points="423.18,-240.25 308.93,-240.25 308.93,-221 423.18,-221 423.18,-240.25"/>
<text xml:space="preserve" text-anchor="middle" x="366.06" y="-226.75" font-family="Helvetica,sans-Serif" font-size="10.00">RType/ECS/Entity.hpp</text>
</a>
</g>
</g>
<!-- Node1&#45;&gt;Node6 -->
<g id="edge5_Node000001_Node000006" class="edge">
<title>Node1&#45;&gt;Node6</title>
<g id="a_edge5_Node000001_Node000006"><a xlink:title=" ">
<path fill="none" stroke="#63b8ff" d="M841.36,-398.89C736.32,-394.43 523.2,-381.75 456.06,-350.75 423.44,-335.69 418.37,-324.42 397.06,-295.5 386.98,-281.82 378.77,-264.36 373.33,-251.15"/>
<polygon fill="#63b8ff" stroke="#63b8ff" points="376.6,-249.9 369.7,-241.86 370.08,-252.45 376.6,-249.9"/>
</a>
</g>
</g>
<!-- Node10 -->
<g id="Node000010" class="node">
<title>Node10</title>
<g id="a_Node000010"><a xlink:title=" ">
<polygon fill="#e0e0e0" stroke="#999999" points="605.06,-185 547.06,-185 547.06,-165.75 605.06,-165.75 605.06,-185"/>
<text xml:space="preserve" text-anchor="middle" x="576.06" y="-171.5" font-family="Helvetica,sans-Serif" font-size="10.00">functional</text>
</a>
</g>
</g>
<!-- Node1&#45;&gt;Node10 -->
<g id="edge58_Node000001_Node000010" class="edge">
<title>Node1&#45;&gt;Node10</title>
<g id="a_edge58_Node000001_Node000010"><a xlink:title=" ">
<path fill="none" stroke="#63b8ff" d="M895.43,-386.31C885.21,-361.19 861.53,-309.49 828.06,-276.25 819.32,-267.58 743.39,-225.8 732.06,-221 711.28,-212.21 655.42,-196.94 616.52,-186.75"/>
<polygon fill="#63b8ff" stroke="#63b8ff" points="617.57,-183.41 607.01,-184.28 615.81,-190.18 617.57,-183.41"/>
</a>
</g>
</g>
<!-- Node12 -->
<g id="Node000012" class="node">
<title>Node12</title>
<g id="a_Node000012"><a xlink:href="SparseArray_8hpp.html" target="_top" xlink:title="Sparse array container for efficient component storage in ECS.">
<polygon fill="white" stroke="#666666" points="565.43,-295.5 422.68,-295.5 422.68,-276.25 565.43,-276.25 565.43,-295.5"/>
<text xml:space="preserve" text-anchor="middle" x="494.06" y="-282" font-family="Helvetica,sans-Serif" font-size="10.00">RType/ECS/SparseArray.hpp</text>
</a>
</g>
</g>
<!-- Node1&#45;&gt;Node12 -->
<g id="edge11_Node000001_Node000012" class="edge">
<title>Node1&#45;&gt;Node12</title>
<g id="a_edge11_Node000001_Node000012"><a xlink:title=" ">
<path fill="none" stroke="#63b8ff" d="M841.41,-396.64C781.34,-390.89 686.68,-378.1 609.06,-350.75 574.84,-338.7 538.81,-317.01 516.39,-302.28"/>
<polygon fill="#63b8ff" stroke="#63b8ff" points="518.34,-299.38 508.08,-296.72 514.44,-305.19 518.34,-299.38"/>
</a>
</g>
</g>
<!-- Node14 -->
<g id="Node000014" class="node">
<title>Node14</title>
<g id="a_Node000014"><a xlink:href="Logger_8hpp.html" target="_top" xlink:title="Logger declaration with support for multiple log levels.">
<polygon fill="white" stroke="#666666" points="782.43,-185 687.68,-185 687.68,-165.75 782.43,-165.75 782.43,-185"/>
<text xml:space="preserve" text-anchor="middle" x="735.06" y="-171.5" font-family="Helvetica,sans-Serif" font-size="10.00">RType/Logger.hpp</text>
</a>
</g>
</g>
<!-- Node1&#45;&gt;Node14 -->
<g id="edge52_Node000001_Node000014" class="edge">
<title>Node1&#45;&gt;Node14</title>
<g id="a_edge52_Node000001_Node000014"><a xlink:title=" ">
<path fill="none" stroke="#63b8ff" d="M904.37,-386.39C911.06,-352.89 922.29,-269.69 882.06,-221 860.72,-195.18 824.94,-183.96 794.03,-179.22"/>
<polygon fill="#63b8ff" stroke="#63b8ff" points="794.77,-175.78 784.39,-177.95 793.85,-182.72 794.77,-175.78"/>
</a>
</g>
</g>
<!-- Node18 -->
<g id="Node000018" class="node">
<title>Node18</title>
<g id="a_Node000018"><a xlink:title=" ">
<polygon fill="#e0e0e0" stroke="#999999" points="848.68,-19.25 809.43,-19.25 809.43,0 848.68,0 848.68,-19.25"/>
<text xml:space="preserve" text-anchor="middle" x="829.06" y="-5.75" font-family="Helvetica,sans-Serif" font-size="10.00">utility</text>
</a>
</g>
</g>
<!-- Node1&#45;&gt;Node18 -->
<g id="edge68_Node000001_Node000018" class="edge">
<title>Node1&#45;&gt;Node18</title>
<g id="a_edge68_Node000001_Node000018"><a xlink:title=" ">
<path fill="none" stroke="#63b8ff" d="M916.59,-386.62C925.73,-377.28 936.7,-364.34 943.06,-350.75 988.79,-253.01 1028.85,-205.7 978.06,-110.5 953.08,-63.69 895.35,-34.95 859.53,-20.96"/>
<polygon fill="#63b8ff" stroke="#63b8ff" points="861.19,-17.84 850.59,-17.62 858.73,-24.4 861.19,-17.84"/>
</a>
</g>
</g>
<!-- Node20 -->
<g id="Node000020" class="node">
<title>Node20</title>
<g id="a_Node000020"><a xlink:href="Error_8hpp.html" target="_top" xlink:title="Error handling system with categorized error codes.">
<polygon fill="white" stroke="#666666" points="523.31,-129.75 436.81,-129.75 436.81,-110.5 523.31,-110.5 523.31,-129.75"/>
<text xml:space="preserve" text-anchor="middle" x="480.06" y="-116.25" font-family="Helvetica,sans-Serif" font-size="10.00">RType/Error.hpp</text>
</a>
</g>
</g>
<!-- Node1&#45;&gt;Node20 -->
<g id="edge53_Node000001_Node000020" class="edge">
<title>Node1&#45;&gt;Node20</title>
<g id="a_edge53_Node000001_Node000020"><a xlink:title=" ">
<path fill="none" stroke="#63b8ff" d="M841.32,-400.83C749.56,-399.21 569.13,-390.65 422.06,-350.75 355.66,-332.74 281.06,-355.67 281.06,-286.88 281.06,-286.88 281.06,-286.88 281.06,-229.62 281.06,-197.46 289.91,-185.79 315.06,-165.75 346.33,-140.83 390.4,-129.78 425.13,-124.9"/>
<polygon fill="#63b8ff" stroke="#63b8ff" points="425.53,-128.38 435.02,-123.66 424.66,-121.43 425.53,-128.38"/>
</a>
</g>
</g>
<!-- Node25 -->
<g id="Node000025" class="node">
<title>Node25</title>
<g id="a_Node000025"><a xlink:title=" ">
<polygon fill="#e0e0e0" stroke="#999999" points="968.93,-129.75 913.18,-129.75 913.18,-110.5 968.93,-110.5 968.93,-129.75"/>
<text xml:space="preserve" text-anchor="middle" x="941.06" y="-116.25" font-family="Helvetica,sans-Serif" font-size="10.00">expected</text>
</a>
</g>
</g>
<!-- Node1&#45;&gt;Node25 -->
<g id="edge57_Node000001_Node000025" class="edge">
<title>Node1&#45;&gt;Node25</title>
<g id="a_edge57_Node000001_Node000025"><a xlink:title=" ">
<path fill="none" stroke="#63b8ff" d="M909.3,-386.38C920.48,-365.16 939.06,-324.26 939.06,-286.88 939.06,-286.88 939.06,-286.88 939.06,-229.62 939.06,-198.9 939.87,-163.29 940.46,-141.49"/>
<polygon fill="#63b8ff" stroke="#63b8ff" points="943.95,-141.73 940.73,-131.64 936.95,-141.54 943.95,-141.73"/>
</a>
</g>
</g>
<!-- Node29 -->
<g id="Node000029" class="node">
<title>Node29</title>
<g id="a_Node000029"><a xlink:title=" ">
<polygon fill="#e0e0e0" stroke="#999999" points="484.56,-240.25 441.56,-240.25 441.56,-221 484.56,-221 484.56,-240.25"/>
<text xml:space="preserve" text-anchor="middle" x="463.06" y="-226.75" font-family="Helvetica,sans-Serif" font-size="10.00">vector</text>
</a>
</g>
</g>
<!-- Node1&#45;&gt;Node29 -->
<g id="edge69_Node000001_Node000029" class="edge">
<title>Node1&#45;&gt;Node29</title>
<g id="a_edge69_Node000001_Node000029"><a xlink:title=" ">
<path fill="none" stroke="#63b8ff" d="M841.23,-397.99C720.52,-390.47 455.05,-366.09 405.06,-295.5 392.18,-277.33 413.83,-258.72 434.23,-246.31"/>
<polygon fill="#63b8ff" stroke="#63b8ff" points="435.73,-249.49 442.68,-241.49 432.26,-243.41 435.73,-249.49"/>
</a>
</g>
</g>
<!-- Node30 -->
<g id="Node000030" class="node">
<title>Node30</title>
<g id="a_Node000030"><a xlink:title=" ">
<polygon fill="#e0e0e0" stroke="#999999" points="722.56,-240.25 685.56,-240.25 685.56,-221 722.56,-221 722.56,-240.25"/>
<text xml:space="preserve" text-anchor="middle" x="704.06" y="-226.75" font-family="Helvetica,sans-Serif" font-size="10.00">span</text>
</a>
</g>
</g>
<!-- Node1&#45;&gt;Node30 -->
<g id="edge63_Node000001_Node000030" class="edge">
<title>Node1&#45;&gt;Node30</title>
<g id="a_edge63_Node000001_Node000030"><a xlink:title=" ">
<path fill="none" stroke="#63b8ff" d="M883.94,-386.67C873.17,-377.16 859.41,-364.01 849.06,-350.75 825.53,-320.62 834.55,-301.74 806.06,-276.25 794.82,-266.2 759.43,-251.84 733.48,-242.15"/>
<polygon fill="#63b8ff" stroke="#63b8ff" points="734.7,-238.87 724.11,-238.7 732.29,-245.44 734.7,-238.87"/>
</a>
</g>
</g>
<!-- Node32 -->
<g id="Node000032" class="node">
<title>Node32</title>
<g id="a_Node000032"><a xlink:href="ZipView_8hpp.html" target="_top" xlink:title=" ">
<polygon fill="white" stroke="#666666" points="742.06,-350.75 618.06,-350.75 618.06,-331.5 742.06,-331.5 742.06,-350.75"/>
<text xml:space="preserve" text-anchor="middle" x="680.06" y="-337.25" font-family="Helvetica,sans-Serif" font-size="10.00">RType/ECS/ZipView.hpp</text>
</a>
</g>
</g>
<!-- Node1&#45;&gt;Node32 -->
<g id="edge45_Node000001_Node000032" class="edge">
<title>Node1&#45;&gt;Node32</title>
<g id="a_edge45_Node000001_Node000032"><a xlink:title=" ">
<path fill="none" stroke="#63b8ff" d="M845.86,-386.3C808.6,-376.37 760.03,-363.43 725.1,-354.13"/>
<polygon fill="#63b8ff" stroke="#63b8ff" points="726.3,-350.82 715.74,-351.63 724.5,-357.59 726.3,-350.82"/>
</a>
</g>
</g>
<!-- Node33 -->
<g id="Node000033" class="node">
<title>Node33</title>
<g id="a_Node000033"><a xlink:title=" ">
<polygon fill="#e0e0e0" stroke="#999999" points="796.56,-295.5 759.56,-295.5 759.56,-276.25 796.56,-276.25 796.56,-295.5"/>
<text xml:space="preserve" text-anchor="middle" x="778.06" y="-282" font-family="Helvetica,sans-Serif" font-size="10.00">tuple</text>
</a>
</g>
</g>
<!-- Node1&#45;&gt;Node33 -->
<g id="edge64_Node000001_Node000033" class="edge">
<title>Node1&#45;&gt;Node33</title>
<g id="a_edge64_Node000001_Node000033"><a xlink:title=" ">
<path fill="none" stroke="#63b8ff" d="M864.04,-386.37C846.36,-377.98 825.87,-366.05 811.06,-350.75 798.83,-338.13 790.08,-320.07 784.67,-306.38"/>
<polygon fill="#63b8ff" stroke="#63b8ff" points="788.01,-305.33 781.29,-297.13 781.43,-307.73 788.01,-305.33"/>
</a>
</g>
</g>
<!-- Node36 -->
<g id="Node000036" class="node">
<title>Node36</title>
<g id="a_Node000036"><a xlink:title=" ">
<polygon fill="#e0e0e0" stroke="#999999" points="1042.93,-350.75 1005.18,-350.75 1005.18,-331.5 1042.93,-331.5 1042.93,-350.75"/>
<text xml:space="preserve" text-anchor="middle" x="1024.06" y="-337.25" font-family="Helvetica,sans-Serif" font-size="10.00">array</text>
</a>
</g>
</g>
<!-- Node1&#45;&gt;Node36 -->
<g id="edge54_Node000001_Node000036" class="edge">
<title>Node1&#45;&gt;Node36</title>
<g id="a_edge54_Node000001_Node000036"><a xlink:title=" ">
<path fill="none" stroke="#63b8ff" d="M931.78,-386.3C951.14,-377.03 975.98,-365.13 995.02,-356.02"/>
<polygon fill="#63b8ff" stroke="#63b8ff" points="996.32,-359.28 1003.83,-351.81 993.3,-352.97 996.32,-359.28"/>
</a>
</g>
</g>
<!-- Node37 -->
<g id="Node000037" class="node">
<title>Node37</title>
<g id="a_Node000037"><a xlink:title=" ">
<polygon fill="#e0e0e0" stroke="#999999" points="1103.18,-350.75 1060.93,-350.75 1060.93,-331.5 1103.18,-331.5 1103.18,-350.75"/>
<text xml:space="preserve" text-anchor="middle" x="1082.06" y="-337.25" font-family="Helvetica,sans-Serif" font-size="10.00">deque</text>
</a>
</g>
</g>
<!-- Node1&#45;&gt;Node37 -->
<g id="edge56_Node000001_Node000037" class="edge">
<title>Node1&#45;&gt;Node37</title>
<g id="a_edge56_Node000001_Node000037"><a xlink:title=" ">
<path fill="none" stroke="#63b8ff" d="M946.26,-386.3C978.62,-375.77 1021.37,-361.86 1050.2,-352.49"/>
<polygon fill="#63b8ff" stroke="#63b8ff" points="1051.02,-355.9 1059.44,-349.48 1048.85,-349.25 1051.02,-355.9"/>
</a>
</g>
</g>
<!-- Node38 -->
<g id="Node000038" class="node">
<title>Node38</title>
<g id="a_Node000038"><a xlink:title=" ">
<polygon fill="#e0e0e0" stroke="#999999" points="1172.68,-350.75 1121.43,-350.75 1121.43,-331.5 1172.68,-331.5 1172.68,-350.75"/>
<text xml:space="preserve" text-anchor="middle" x="1147.06" y="-337.25" font-family="Helvetica,sans-Serif" font-size="10.00">memory</text>
</a>
</g>
</g>
<!-- Node1&#45;&gt;Node38 -->
<g id="edge59_Node000001_Node000038" class="edge">
<title>Node1&#45;&gt;Node38</title>
<g id="a_edge59_Node000001_Node000038"><a xlink:title=" ">
<path fill="none" stroke="#63b8ff" d="M960.66,-386.94C1000.37,-377.54 1054.03,-364.78 1110.18,-351.19"/>
<polygon fill="#63b8ff" stroke="#63b8ff" points="1110.7,-354.67 1119.6,-348.91 1109.05,-347.86 1110.7,-354.67"/>
</a>
</g>
</g>
<!-- Node39 -->
<g id="Node000039" class="node">
<title>Node39</title>
<g id="a_Node000039"><a xlink:title=" ">
<polygon fill="#e0e0e0" stroke="#999999" points="1233.56,-350.75 1190.56,-350.75 1190.56,-331.5 1233.56,-331.5 1233.56,-350.75"/>
<text xml:space="preserve" text-anchor="middle" x="1212.06" y="-337.25" font-family="Helvetica,sans-Serif" font-size="10.00">mutex</text>
</a>
</g>
</g>
<!-- Node1&#45;&gt;Node39 -->
<g id="edge60_Node000001_Node000039" class="edge">
<title>Node1&#45;&gt;Node39</title>
<g id="a_edge60_Node000001_Node000039"><a xlink:title=" ">
<path fill="none" stroke="#63b8ff" d="M960.9,-392.13C1015.58,-383.61 1098.86,-369.61 1179.35,-351.21"/>
<polygon fill="#63b8ff" stroke="#63b8ff" points="1179.74,-354.71 1188.69,-349.04 1178.16,-347.89 1179.74,-354.71"/>
</a>
</g>
</g>
<!-- Node40 -->
<g id="Node000040" class="node">
<title>Node40</title>
<g id="a_Node000040"><a xlink:title=" ">
<polygon fill="#e0e0e0" stroke="#999999" points="1296.68,-350.75 1251.43,-350.75 1251.43,-331.5 1296.68,-331.5 1296.68,-350.75"/>
<text xml:space="preserve" text-anchor="middle" x="1274.06" y="-337.25" font-family="Helvetica,sans-Serif" font-size="10.00">ranges</text>
</a>
</g>
</g>
<!-- Node1&#45;&gt;Node40 -->
<g id="edge61_Node000001_Node000040" class="edge">
<title>Node1&#45;&gt;Node40</title>
<g id="a_edge61_Node000001_Node000040"><a xlink:title=" ">
<path fill="none" stroke="#63b8ff" d="M960.77,-394.53C1026.93,-386.85 1136.93,-372.56 1239.89,-351.22"/>
<polygon fill="#63b8ff" stroke="#63b8ff" points="1240.57,-354.65 1249.63,-349.17 1239.12,-347.8 1240.57,-354.65"/>
</a>
</g>
</g>
<!-- Node41 -->
<g id="Node000041" class="node">
<title>Node41</title>
<g id="a_Node000041"><a xlink:title=" ">
<polygon fill="#e0e0e0" stroke="#999999" points="1391.81,-350.75 1314.31,-350.75 1314.31,-331.5 1391.81,-331.5 1391.81,-350.75"/>
<text xml:space="preserve" text-anchor="middle" x="1353.06" y="-337.25" font-family="Helvetica,sans-Serif" font-size="10.00">shared_mutex</text>
</a>
</g>
</g>
<!-- Node1&#45;&gt;Node41 -->
<g id="edge62_Node000001_Node000041" class="edge">
<title>Node1&#45;&gt;Node41</title>
<g id="a_edge62_Node000001_Node000041"><a xlink:title=" ">
<path fill="none" stroke="#63b8ff" d="M960.91,-394.67C1037.83,-386.3 1175.76,-370.46 1302.77,-351.19"/>
<polygon fill="#63b8ff" stroke="#63b8ff" points="1302.99,-354.7 1312.35,-349.72 1301.94,-347.78 1302.99,-354.7"/>
</a>
</g>
</g>
<!-- Node42 -->
<g id="Node000042" class="node">
<title>Node42</title>
<g id="a_Node000042"><a xlink:title=" ">
<polygon fill="#e0e0e0" stroke="#999999" points="1468.06,-350.75 1410.06,-350.75 1410.06,-331.5 1468.06,-331.5 1468.06,-350.75"/>
<text xml:space="preserve" text-anchor="middle" x="1439.06" y="-337.25" font-family="Helvetica,sans-Serif" font-size="10.00">typeindex</text>
</a>
</g>
</g>
<!-- Node1&#45;&gt;Node42 -->
<g id="edge65_Node000001_Node000042" class="edge">
<title>Node1&#45;&gt;Node42</title>
<g id="a_edge65_Node000001_Node000042"><a xlink:title=" ">
<path fill="none" stroke="#63b8ff" d="M960.63,-397.39C1052.55,-391.3 1234.64,-377.17 1398.41,-350.99"/>
<polygon fill="#63b8ff" stroke="#63b8ff" points="1398.86,-354.47 1408.17,-349.41 1397.74,-347.56 1398.86,-354.47"/>
</a>
</g>
</g>
<!-- Node43 -->
<g id="Node000043" class="node">
<title>Node43</title>
<g id="a_Node000043"><a xlink:title=" ">
<polygon fill="#e0e0e0" stroke="#999999" points="1568.43,-350.75 1485.68,-350.75 1485.68,-331.5 1568.43,-331.5 1568.43,-350.75"/>
<text xml:space="preserve" text-anchor="middle" x="1527.06" y="-337.25" font-family="Helvetica,sans-Serif" font-size="10.00">unordered_map</text>
</a>
</g>
</g>
<!-- Node1&#45;&gt;Node43 -->
<g id="edge67_Node000001_Node000043" class="edge">
<title>Node1&#45;&gt;Node43</title>
<g id="a_edge67_Node000001_Node000043"><a xlink:title=" ">
<path fill="none" stroke="#63b8ff" d="M960.52,-397.46C1063.22,-390.99 1280.67,-375.71 1474.12,-351.03"/>
<polygon fill="#63b8ff" stroke="#63b8ff" points="1474.38,-354.53 1483.85,-349.78 1473.49,-347.59 1474.38,-354.53"/>
</a>
</g>
</g>
<!-- Node44 -->
<g id="Node000044" class="node">
<title>Node44</title>
<g id="a_Node000044"><a xlink:href="Registry_8tpp.html" target="_top" xlink:title=" ">
<polygon fill="white" stroke="#666666" points="1653.93,-350.75 1586.18,-350.75 1586.18,-331.5 1653.93,-331.5 1653.93,-350.75"/>
<text xml:space="preserve" text-anchor="middle" x="1620.06" y="-337.25" font-family="Helvetica,sans-Serif" font-size="10.00">Registry.tpp</text>
</a>
</g>
</g>
<!-- Node1&#45;&gt;Node44 -->
<g id="edge70_Node000001_Node000044" class="edge">
<title>Node1&#45;&gt;Node44</title>
<g id="a_edge70_Node000001_Node000044"><a xlink:title=" ">
<path fill="none" stroke="#63b8ff" d="M960.54,-399.05C1076.68,-394.71 1341.84,-382.17 1574.45,-350.93"/>
<polygon fill="#63b8ff" stroke="#63b8ff" points="1574.92,-354.4 1584.35,-349.59 1573.97,-347.47 1574.92,-354.4"/>
</a>
</g>
</g>
<!-- Node2&#45;&gt;Node3 -->
<g id="edge2_Node000002_Node000003" class="edge">
<title>Node2&#45;&gt;Node3</title>
<g id="a_edge2_Node000002_Node000003"><a xlink:title=" ">
<path fill="none" stroke="#63b8ff" d="M145.73,-220.59C128.98,-212.33 103.92,-199.98 84.55,-190.43"/>
<polygon fill="#63b8ff" stroke="#63b8ff" points="86.34,-187.4 75.82,-186.12 83.24,-193.68 86.34,-187.4"/>
</a>
</g>
</g>
<!-- Node2&#45;&gt;Node4 -->
<g id="edge3_Node000002_Node000004" class="edge">
<title>Node2&#45;&gt;Node4</title>
<g id="a_edge3_Node000002_Node000004"><a xlink:title=" ">
<path fill="none" stroke="#63b8ff" d="M155.96,-220.67C148.55,-212.08 137.77,-198.45 131.06,-185 124.09,-171.04 119.19,-154.05 116.11,-141.11"/>
<polygon fill="#63b8ff" stroke="#63b8ff" points="119.6,-140.67 114.04,-131.65 112.76,-142.17 119.6,-140.67"/>
</a>
</g>
</g>
<!-- Node5 -->
<g id="Node000005" class="node">
<title>Node5</title>
<g id="a_Node000005"><a xlink:title=" ">
<polygon fill="#e0e0e0" stroke="#999999" points="188.18,-185 139.93,-185 139.93,-165.75 188.18,-165.75 188.18,-185"/>
<text xml:space="preserve" text-anchor="middle" x="164.06" y="-171.5" font-family="Helvetica,sans-Serif" font-size="10.00">cstddef</text>
</a>
</g>
</g>
<!-- Node2&#45;&gt;Node5 -->
<g id="edge4_Node000002_Node000005" class="edge">
<title>Node2&#45;&gt;Node5</title>
<g id="a_edge4_Node000002_Node000005"><a xlink:title=" ">
<path fill="none" stroke="#63b8ff" d="M164.06,-220.83C164.06,-214.32 164.06,-205.17 164.06,-196.87"/>
<polygon fill="#63b8ff" stroke="#63b8ff" points="167.56,-196.87 164.06,-186.87 160.56,-196.87 167.56,-196.87"/>
</a>
</g>
</g>
<!-- Node7 -->
<g id="Node000007" class="node">
<title>Node7</title>
<g id="a_Node000007"><a xlink:title=" ">
<polygon fill="#e0e0e0" stroke="#999999" points="377.81,-185 324.31,-185 324.31,-165.75 377.81,-165.75 377.81,-185"/>
<text xml:space="preserve" text-anchor="middle" x="351.06" y="-171.5" font-family="Helvetica,sans-Serif" font-size="10.00">compare</text>
</a>
</g>
</g>
<!-- Node6&#45;&gt;Node7 -->
<g id="edge6_Node000006_Node000007" class="edge">
<title>Node6&#45;&gt;Node7</title>
<g id="a_edge6_Node000006_Node000007"><a xlink:title=" ">
<path fill="none" stroke="#63b8ff" d="M363.58,-220.83C361.7,-214.17 359.05,-204.74 356.66,-196.28"/>
<polygon fill="#63b8ff" stroke="#63b8ff" points="360.08,-195.49 354,-186.82 353.34,-197.39 360.08,-195.49"/>
</a>
</g>
</g>
<!-- Node8 -->
<g id="Node000008" class="node">
<title>Node8</title>
<g id="a_Node000008"><a xlink:title=" ">
<polygon fill="#e0e0e0" stroke="#999999" points="268.68,-19.25 223.43,-19.25 223.43,0 268.68,0 268.68,-19.25"/>
<text xml:space="preserve" text-anchor="middle" x="246.06" y="-5.75" font-family="Helvetica,sans-Serif" font-size="10.00">cstdint</text>
</a>
</g>
</g>
<!-- Node6&#45;&gt;Node8 -->
<g id="edge7_Node000006_Node000008" class="edge">
<title>Node6&#45;&gt;Node8</title>
<g id="a_edge7_Node000006_Node000008"><a xlink:title=" ">
<path fill="none" stroke="#63b8ff" d="M352.87,-220.66C341.61,-212.47 325.6,-199.44 315.06,-185 278.95,-135.58 258.67,-64.71 250.43,-30.55"/>
<polygon fill="#63b8ff" stroke="#63b8ff" points="253.86,-29.8 248.2,-20.84 247.03,-31.37 253.86,-29.8"/>
</a>
</g>
</g>
<!-- Node9 -->
<g id="Node000009" class="node">
<title>Node9</title>
<g id="a_Node000009"><a xlink:title=" ">
<polygon fill="#e0e0e0" stroke="#999999" points="524.68,-185 485.43,-185 485.43,-165.75 524.68,-165.75 524.68,-185"/>
<text xml:space="preserve" text-anchor="middle" x="505.06" y="-171.5" font-family="Helvetica,sans-Serif" font-size="10.00">limits</text>
</a>
</g>
</g>
<!-- Node6&#45;&gt;Node9 -->
<g id="edge8_Node000006_Node000009" class="edge">
<title>Node6&#45;&gt;Node9</title>
<g id="a_edge8_Node000006_Node000009"><a xlink:title=" ">
<path fill="none" stroke="#63b8ff" d="M389.63,-220.59C412.98,-211.65 448.84,-197.91 474.39,-188.12"/>
<polygon fill="#63b8ff" stroke="#63b8ff" points="475.48,-191.45 483.56,-184.61 472.97,-184.92 475.48,-191.45"/>
</a>
</g>
</g>
<!-- Node6&#45;&gt;Node10 -->
<g id="edge9_Node000006_Node000010" class="edge">
<title>Node6&#45;&gt;Node10</title>
<g id="a_edge9_Node000006_Node000010"><a xlink:title=" ">
<path fill="none" stroke="#63b8ff" d="M401.68,-220.59C438.85,-211.17 497.02,-196.42 535.82,-186.58"/>
<polygon fill="#63b8ff" stroke="#63b8ff" points="536.41,-190.04 545.24,-184.19 534.69,-183.25 536.41,-190.04"/>
</a>
</g>
</g>
<!-- Node11 -->
<g id="Node000011" class="node">
<title>Node11</title>
<g id="a_Node000011"><a xlink:title=" ">
<polygon fill="#e0e0e0" stroke="#999999" points="448.43,-185 395.68,-185 395.68,-165.75 448.43,-165.75 448.43,-185"/>
<text xml:space="preserve" text-anchor="middle" x="422.06" y="-171.5" font-family="Helvetica,sans-Serif" font-size="10.00">Entity.inl</text>
</a>
</g>
</g>
<!-- Node6&#45;&gt;Node11 -->
<g id="edge10_Node000006_Node000011" class="edge">
<title>Node6&#45;&gt;Node11</title>
<g id="a_edge10_Node000006_Node000011"><a xlink:title=" ">
<path fill="none" stroke="#63b8ff" d="M375.56,-220.59C383.49,-213.05 395,-202.1 404.59,-192.98"/>
<polygon fill="#63b8ff" stroke="#63b8ff" points="406.76,-195.74 411.6,-186.32 401.94,-190.67 406.76,-195.74"/>
</a>
</g>
</g>
<!-- Node12&#45;&gt;Node2 -->
<g id="edge39_Node000012_Node000002" class="edge">
<title>Node12&#45;&gt;Node2</title>
<g id="a_edge39_Node000012_Node000002"><a xlink:title=" ">
<path fill="none" stroke="#63b8ff" d="M437.7,-275.78C380.6,-266.57 292.25,-252.31 231.47,-242.5"/>
<polygon fill="#63b8ff" stroke="#63b8ff" points="232.38,-239.1 221.95,-240.97 231.26,-246.02 232.38,-239.1"/>
</a>
</g>
</g>
<!-- Node12&#45;&gt;Node6 -->
<g id="edge40_Node000012_Node000006" class="edge">
<title>Node12&#45;&gt;Node6</title>
<g id="a_edge40_Node000012_Node000006"><a xlink:title=" ">
<path fill="none" stroke="#63b8ff" d="M472.34,-275.84C452.02,-267.39 421.41,-254.65 398.25,-245.02"/>
<polygon fill="#63b8ff" stroke="#63b8ff" points="399.85,-241.89 389.27,-241.28 397.16,-248.36 399.85,-241.89"/>
</a>
</g>
</g>
<!-- Node12&#45;&gt;Node9 -->
<g id="edge42_Node000012_Node000009" class="edge">
<title>Node12&#45;&gt;Node9</title>
<g id="a_edge42_Node000012_Node000009"><a xlink:title=" ">
<path fill="none" stroke="#63b8ff" d="M543.52,-275.81C563.67,-269.41 585.02,-258.58 597.06,-240.25 601.75,-233.1 601.6,-228.25 597.06,-221 589.98,-209.7 559.53,-196.3 535.58,-187.15"/>
<polygon fill="#63b8ff" stroke="#63b8ff" points="536.81,-183.88 526.22,-183.68 534.38,-190.44 536.81,-183.88"/>
</a>
</g>
</g>
<!-- Node13 -->
<g id="Node000013" class="node">
<title>Node13</title>
<g id="a_Node000013"><a xlink:href="Assert_8hpp.html" target="_top" xlink:title="Assertion and verification macros for runtime checks.">
<polygon fill="white" stroke="#666666" points="873.43,-240.25 778.68,-240.25 778.68,-221 873.43,-221 873.43,-240.25"/>
<text xml:space="preserve" text-anchor="middle" x="826.06" y="-226.75" font-family="Helvetica,sans-Serif" font-size="10.00">RType/Assert.hpp</text>
</a>
</g>
</g>
<!-- Node12&#45;&gt;Node13 -->
<g id="edge12_Node000012_Node000013" class="edge">
<title>Node12&#45;&gt;Node13</title>
<g id="a_edge12_Node000012_Node000013"><a xlink:title=" ">
<path fill="none" stroke="#63b8ff" d="M550.75,-275.78C611.08,-266.11 706.07,-250.87 767.21,-241.06"/>
<polygon fill="#63b8ff" stroke="#63b8ff" points="767.4,-244.58 776.72,-239.54 766.29,-237.67 767.4,-244.58"/>
</a>
</g>
</g>
<!-- Node12&#45;&gt;Node29 -->
<g id="edge41_Node000012_Node000029" class="edge">
<title>Node12&#45;&gt;Node29</title>
<g id="a_edge41_Node000012_Node000029"><a xlink:title=" ">
<path fill="none" stroke="#63b8ff" d="M488.94,-276.08C484.88,-269.11 479.06,-259.12 473.97,-250.37"/>
<polygon fill="#63b8ff" stroke="#63b8ff" points="477.1,-248.8 469.05,-241.92 471.05,-252.32 477.1,-248.8"/>
</a>
</g>
</g>
<!-- Node12&#45;&gt;Node30 -->
<g id="edge43_Node000012_Node000030" class="edge">
<title>Node12&#45;&gt;Node30</title>
<g id="a_edge43_Node000012_Node000030"><a xlink:title=" ">
<path fill="none" stroke="#63b8ff" d="M529.68,-275.84C570.4,-265.52 636.32,-248.8 674.38,-239.15"/>
<polygon fill="#63b8ff" stroke="#63b8ff" points="674.93,-242.62 683.77,-236.77 673.21,-235.83 674.93,-242.62"/>
</a>
</g>
</g>
<!-- Node31 -->
<g id="Node000031" class="node">
<title>Node31</title>
<g id="a_Node000031"><a xlink:href="SparseArray_8tpp.html" target="_top" xlink:title=" ">
<polygon fill="white" stroke="#666666" points="587.56,-240.25 502.56,-240.25 502.56,-221 587.56,-221 587.56,-240.25"/>
<text xml:space="preserve" text-anchor="middle" x="545.06" y="-226.75" font-family="Helvetica,sans-Serif" font-size="10.00">SparseArray.tpp</text>
</a>
</g>
</g>
<!-- Node12&#45;&gt;Node31 -->
<g id="edge44_Node000012_Node000031" class="edge">
<title>Node12&#45;&gt;Node31</title>
<g id="a_edge44_Node000012_Node000031"><a xlink:title=" ">
<path fill="none" stroke="#63b8ff" d="M502.48,-276.08C509.6,-268.65 520,-257.79 528.74,-248.66"/>
<polygon fill="#63b8ff" stroke="#63b8ff" points="531.01,-251.35 535.4,-241.7 525.96,-246.5 531.01,-251.35"/>
</a>
</g>
</g>
<!-- Node13&#45;&gt;Node14 -->
<g id="edge13_Node000013_Node000014" class="edge">
<title>Node13&#45;&gt;Node14</title>
<g id="a_edge13_Node000013_Node000014"><a xlink:title=" ">
<path fill="none" stroke="#63b8ff" d="M810.62,-220.59C796.89,-212.56 776.56,-200.66 760.44,-191.23"/>
<polygon fill="#63b8ff" stroke="#63b8ff" points="762.27,-188.25 751.87,-186.22 758.74,-194.29 762.27,-188.25"/>
</a>
</g>
</g>
<!-- Node28 -->
<g id="Node000028" class="node">
<title>Node28</title>
<g id="a_Node000028"><a xlink:title=" ">
<polygon fill="#e0e0e0" stroke="#999999" points="669.31,-185 624.81,-185 624.81,-165.75 669.31,-165.75 669.31,-185"/>
<text xml:space="preserve" text-anchor="middle" x="647.06" y="-171.5" font-family="Helvetica,sans-Serif" font-size="10.00">cstdlib</text>
</a>
</g>
</g>
<!-- Node13&#45;&gt;Node28 -->
<g id="edge38_Node000013_Node000028" class="edge">
<title>Node13&#45;&gt;Node28</title>
<g id="a_edge38_Node000013_Node000028"><a xlink:title=" ">
<path fill="none" stroke="#63b8ff" d="M795.69,-220.59C763.75,-211.09 713.62,-196.18 680.54,-186.34"/>
<polygon fill="#63b8ff" stroke="#63b8ff" points="681.65,-183.01 671.07,-183.52 679.65,-189.72 681.65,-183.01"/>
</a>
</g>
</g>
<!-- Node14&#45;&gt;Node4 -->
<g id="edge35_Node000014_Node000004" class="edge">
<title>Node14&#45;&gt;Node4</title>
<g id="a_edge35_Node000014_Node000004"><a xlink:title=" ">
<path fill="none" stroke="#63b8ff" d="M687.19,-166.88C684.1,-166.47 681.04,-166.09 678.06,-165.75 483.2,-143.35 249.29,-128.81 154.77,-123.45"/>
<polygon fill="#63b8ff" stroke="#63b8ff" points="155.12,-119.96 144.94,-122.89 154.72,-126.95 155.12,-119.96"/>
</a>
</g>
</g>
<!-- Node15 -->
<g id="Node000015" class="node">
<title>Node15</title>
<g id="a_Node000015"><a xlink:href="LogLevel_8hpp.html" target="_top" xlink:title="Log severity levels for the logging system.">
<polygon fill="white" stroke="#666666" points="684.68,-74.5 579.43,-74.5 579.43,-55.25 684.68,-55.25 684.68,-74.5"/>
<text xml:space="preserve" text-anchor="middle" x="632.06" y="-61" font-family="Helvetica,sans-Serif" font-size="10.00">RType/LogLevel.hpp</text>
</a>
</g>
</g>
<!-- Node14&#45;&gt;Node15 -->
<g id="edge14_Node000014_Node000015" class="edge">
<title>Node14&#45;&gt;Node15</title>
<g id="a_edge14_Node000014_Node000015"><a xlink:title=" ">
<path fill="none" stroke="#63b8ff" d="M698.38,-165.37C679,-158.72 656.5,-147.63 643.06,-129.75 633.73,-117.35 631.26,-99.77 630.96,-86.19"/>
<polygon fill="#63b8ff" stroke="#63b8ff" points="634.46,-86.28 631.17,-76.21 627.46,-86.14 634.46,-86.28"/>
</a>
</g>
</g>
<!-- Node16 -->
<g id="Node000016" class="node">
<title>Node16</title>
<g id="a_Node000016"><a xlink:title=" ">
<polygon fill="#e0e0e0" stroke="#999999" points="734.93,-19.25 691.18,-19.25 691.18,0 734.93,0 734.93,-19.25"/>
<text xml:space="preserve" text-anchor="middle" x="713.06" y="-5.75" font-family="Helvetica,sans-Serif" font-size="10.00">format</text>
</a>
</g>
</g>
<!-- Node14&#45;&gt;Node16 -->
<g id="edge31_Node000014_Node000016" class="edge">
<title>Node14&#45;&gt;Node16</title>
<g id="a_edge31_Node000014_Node000016"><a xlink:title=" ">
<path fill="none" stroke="#63b8ff" d="M718.72,-165.33C698.55,-152.99 668.69,-130.19 684.06,-110.5 726.24,-56.47 866.78,-111.81 828.06,-55.25 809.93,-28.77 773.63,-18 746.64,-13.62"/>
<polygon fill="#63b8ff" stroke="#63b8ff" points="747.24,-10.17 736.85,-12.27 746.28,-17.11 747.24,-10.17"/>
</a>
</g>
</g>
<!-- Node17 -->
<g id="Node000017" class="node">
<title>Node17</title>
<g id="a_Node000017"><a xlink:title=" ">
<polygon fill="#e0e0e0" stroke="#999999" points="581.81,-19.25 516.31,-19.25 516.31,0 581.81,0 581.81,-19.25"/>
<text xml:space="preserve" text-anchor="middle" x="549.06" y="-5.75" font-family="Helvetica,sans-Serif" font-size="10.00">string_view</text>
</a>
</g>
</g>
<!-- Node14&#45;&gt;Node17 -->
<g id="edge34_Node000014_Node000017" class="edge">
<title>Node14&#45;&gt;Node17</title>
<g id="a_edge34_Node000014_Node000017"><a xlink:title=" ">
<path fill="none" stroke="#63b8ff" d="M704.82,-165.28C666.49,-152.02 601.6,-123.49 570.06,-74.5 561.43,-61.11 556.04,-43.86 552.88,-30.66"/>
<polygon fill="#63b8ff" stroke="#63b8ff" points="556.32,-30.03 550.82,-20.98 549.48,-31.49 556.32,-30.03"/>
</a>
</g>
</g>
<!-- Node14&#45;&gt;Node18 -->
<g id="edge36_Node000014_Node000018" class="edge">
<title>Node14&#45;&gt;Node18</title>
<g id="a_edge36_Node000014_Node000018"><a xlink:title=" ">
<path fill="none" stroke="#63b8ff" d="M782.86,-171.52C812.04,-167.01 847.25,-156.03 866.06,-129.75 888.43,-98.49 861.98,-53.29 843.66,-28.53"/>
<polygon fill="#63b8ff" stroke="#63b8ff" points="846.52,-26.5 837.63,-20.74 840.98,-30.79 846.52,-26.5"/>
</a>
</g>
</g>
<!-- Node14&#45;&gt;Node20 -->
<g id="edge20_Node000014_Node000020" class="edge">
<title>Node14&#45;&gt;Node20</title>
<g id="a_edge20_Node000014_Node000020"><a xlink:title=" ">
<path fill="none" stroke="#63b8ff" d="M691.51,-165.28C648.14,-156.23 581.45,-142.3 534.59,-132.51"/>
<polygon fill="#63b8ff" stroke="#63b8ff" points="535.41,-129.11 524.9,-130.49 533.98,-135.96 535.41,-129.11"/>
</a>
</g>
</g>
<!-- Node21 -->
<g id="Node000021" class="node">
<title>Node21</title>
<g id="a_Node000021"><a xlink:title=" ">
<polygon fill="#e0e0e0" stroke="#999999" points="819.06,-74.5 779.06,-74.5 779.06,-55.25 819.06,-55.25 819.06,-74.5"/>
<text xml:space="preserve" text-anchor="middle" x="799.06" y="-61" font-family="Helvetica,sans-Serif" font-size="10.00">string</text>
</a>
</g>
</g>
<!-- Node14&#45;&gt;Node21 -->
<g id="edge33_Node000014_Node000021" class="edge">
<title>Node14&#45;&gt;Node21</title>
<g id="a_edge33_Node000014_Node000021"><a xlink:title=" ">
<path fill="none" stroke="#63b8ff" d="M704.48,-165.29C673.62,-154.52 632.92,-134.91 651.06,-110.5 654.64,-105.68 725.63,-85.76 767.97,-74.23"/>
<polygon fill="#63b8ff" stroke="#63b8ff" points="768.62,-77.68 777.36,-71.69 766.79,-70.93 768.62,-77.68"/>
</a>
</g>
</g>
<!-- Node14&#45;&gt;Node25 -->
<g id="edge30_Node000014_Node000025" class="edge">
<title>Node14&#45;&gt;Node25</title>
<g id="a_edge30_Node000014_Node000025"><a xlink:title=" ">
<path fill="none" stroke="#63b8ff" d="M770,-165.34C806.67,-155.86 864.18,-141 902.24,-131.16"/>
<polygon fill="#63b8ff" stroke="#63b8ff" points="902.63,-134.67 911.44,-128.78 900.88,-127.9 902.63,-134.67"/>
</a>
</g>
</g>
<!-- Node26 -->
<g id="Node000026" class="node">
<title>Node26</title>
<g id="a_Node000026"><a xlink:title=" ">
<polygon fill="#e0e0e0" stroke="#999999" points="777.18,-129.75 692.93,-129.75 692.93,-110.5 777.18,-110.5 777.18,-129.75"/>
<text xml:space="preserve" text-anchor="middle" x="735.06" y="-116.25" font-family="Helvetica,sans-Serif" font-size="10.00">source_location</text>
</a>
</g>
</g>
<!-- Node14&#45;&gt;Node26 -->
<g id="edge32_Node000014_Node000026" class="edge">
<title>Node14&#45;&gt;Node26</title>
<g id="a_edge32_Node000014_Node000026"><a xlink:title=" ">
<path fill="none" stroke="#63b8ff" d="M735.06,-165.58C735.06,-159.07 735.06,-149.92 735.06,-141.62"/>
<polygon fill="#63b8ff" stroke="#63b8ff" points="738.56,-141.62 735.06,-131.62 731.56,-141.62 738.56,-141.62"/>
</a>
</g>
</g>
<!-- Node27 -->
<g id="Node000027" class="node">
<title>Node27</title>
<g id="a_Node000027"><a xlink:href="Logger_8tpp.html" target="_top" xlink:title=" ">
<polygon fill="white" stroke="#666666" points="856.56,-129.75 795.56,-129.75 795.56,-110.5 856.56,-110.5 856.56,-129.75"/>
<text xml:space="preserve" text-anchor="middle" x="826.06" y="-116.25" font-family="Helvetica,sans-Serif" font-size="10.00">Logger.tpp</text>
</a>
</g>
</g>
<!-- Node14&#45;&gt;Node27 -->
<g id="edge37_Node000014_Node000027" class="edge">
<title>Node14&#45;&gt;Node27</title>
<g id="a_edge37_Node000014_Node000027"><a xlink:title=" ">
<path fill="none" stroke="#63b8ff" d="M750.49,-165.34C764.22,-157.31 784.55,-145.41 800.67,-135.98"/>
<polygon fill="#63b8ff" stroke="#63b8ff" points="802.37,-139.04 809.24,-130.97 798.84,-133 802.37,-139.04"/>
</a>
</g>
</g>
<!-- Node15&#45;&gt;Node8 -->
<g id="edge15_Node000015_Node000008" class="edge">
<title>Node15&#45;&gt;Node8</title>
<g id="a_edge15_Node000015_Node000008"><a xlink:title=" ">
<path fill="none" stroke="#63b8ff" d="M579.19,-56.58C498.75,-45.48 347.83,-24.67 280.27,-15.35"/>
<polygon fill="#63b8ff" stroke="#63b8ff" points="280.92,-11.9 270.54,-14 279.97,-18.84 280.92,-11.9"/>
</a>
</g>
</g>
<!-- Node15&#45;&gt;Node16 -->
<g id="edge16_Node000015_Node000016" class="edge">
<title>Node15&#45;&gt;Node16</title>
<g id="a_edge16_Node000015_Node000016"><a xlink:title=" ">
<path fill="none" stroke="#63b8ff" d="M645.8,-54.84C657.78,-46.96 675.43,-35.36 689.64,-26.02"/>
<polygon fill="#63b8ff" stroke="#63b8ff" points="691.55,-28.95 697.98,-20.53 687.7,-23.1 691.55,-28.95"/>
</a>
</g>
</g>
<!-- Node15&#45;&gt;Node17 -->
<g id="edge17_Node000015_Node000017" class="edge">
<title>Node15&#45;&gt;Node17</title>
<g id="a_edge17_Node000015_Node000017"><a xlink:title=" ">
<path fill="none" stroke="#63b8ff" d="M617.98,-54.84C605.57,-46.89 587.26,-35.14 572.63,-25.75"/>
<polygon fill="#63b8ff" stroke="#63b8ff" points="574.79,-22.97 564.48,-20.52 571.01,-28.87 574.79,-22.97"/>
</a>
</g>
</g>
<!-- Node15&#45;&gt;Node18 -->
<g id="edge18_Node000015_Node000018" class="edge">
<title>Node15&#45;&gt;Node18</title>
<g id="a_edge18_Node000015_Node000018"><a xlink:title=" ">
<path fill="none" stroke="#63b8ff" d="M665.47,-54.84C702.62,-44.8 762.12,-28.72 798.2,-18.97"/>
<polygon fill="#63b8ff" stroke="#63b8ff" points="798.83,-22.42 807.57,-16.43 797,-15.66 798.83,-22.42"/>
</a>
</g>
</g>
<!-- Node19 -->
<g id="Node000019" class="node">
<title>Node19</title>
<g id="a_Node000019"><a xlink:title=" ">
<polygon fill="#e0e0e0" stroke="#999999" points="667.93,-19.25 600.18,-19.25 600.18,0 667.93,0 667.93,-19.25"/>
<text xml:space="preserve" text-anchor="middle" x="634.06" y="-5.75" font-family="Helvetica,sans-Serif" font-size="10.00">LogLevel.inl</text>
</a>
</g>
</g>
<!-- Node15&#45;&gt;Node19 -->
<g id="edge19_Node000015_Node000019" class="edge">
<title>Node15&#45;&gt;Node19</title>
<g id="a_edge19_Node000015_Node000019"><a xlink:title=" ">
<path fill="none" stroke="#63b8ff" d="M632.39,-55.08C632.63,-48.49 632.98,-39.21 633.3,-30.82"/>
<polygon fill="#63b8ff" stroke="#63b8ff" points="636.78,-31.25 633.66,-21.12 629.79,-30.98 636.78,-31.25"/>
</a>
</g>
</g>
<!-- Node20&#45;&gt;Node8 -->
<g id="edge22_Node000020_Node000008" class="edge">
<title>Node20&#45;&gt;Node8</title>
<g id="a_edge22_Node000020_Node000008"><a xlink:title=" ">
<path fill="none" stroke="#63b8ff" d="M436.41,-117.53C395.67,-114.15 334.77,-104.05 291.06,-74.5 274.58,-63.36 262.21,-44.03 254.66,-29.54"/>
<polygon fill="#63b8ff" stroke="#63b8ff" points="258.01,-28.44 250.49,-20.98 251.72,-31.51 258.01,-28.44"/>
</a>
</g>
</g>
<!-- Node20&#45;&gt;Node15 -->
<g id="edge21_Node000020_Node000015" class="edge">
<title>Node20&#45;&gt;Node15</title>
<g id="a_edge21_Node000020_Node000015"><a xlink:title=" ">
<path fill="none" stroke="#63b8ff" d="M505.84,-110.09C530.41,-101.49 567.64,-88.44 595.31,-78.75"/>
<polygon fill="#63b8ff" stroke="#63b8ff" points="596.44,-82.06 604.72,-75.45 594.12,-75.46 596.44,-82.06"/>
</a>
</g>
</g>
<!-- Node20&#45;&gt;Node16 -->
<g id="edge23_Node000020_Node000016" class="edge">
<title>Node20&#45;&gt;Node16</title>
<g id="a_edge23_Node000020_Node000016"><a xlink:title=" ">
<path fill="none" stroke="#63b8ff" d="M523.43,-115.3C578.59,-109.58 669.61,-96.98 694.06,-74.5 706.17,-63.35 710.69,-44.86 712.31,-30.63"/>
<polygon fill="#63b8ff" stroke="#63b8ff" points="715.78,-31.26 713,-21.03 708.79,-30.75 715.78,-31.26"/>
</a>
</g>
</g>
<!-- Node20&#45;&gt;Node17 -->
<g id="edge25_Node000020_Node000017" class="edge">
<title>Node20&#45;&gt;Node17</title>
<g id="a_edge25_Node000020_Node000017"><a xlink:title=" ">
<path fill="none" stroke="#63b8ff" d="M436.52,-117.74C372.53,-114.17 264.58,-101.33 303.06,-55.25 328.26,-25.06 441.06,-15.25 504.8,-12.1"/>
<polygon fill="#63b8ff" stroke="#63b8ff" points="504.76,-15.6 514.59,-11.65 504.44,-8.61 504.76,-15.6"/>
</a>
</g>
</g>
<!-- Node20&#45;&gt;Node18 -->
<g id="edge27_Node000020_Node000018" class="edge">
<title>Node20&#45;&gt;Node18</title>
<g id="a_edge27_Node000020_Node000018"><a xlink:title=" ">
<path fill="none" stroke="#63b8ff" d="M523.42,-115.03C571.24,-109.57 649.9,-97.75 714.06,-74.5 748.16,-62.14 784.22,-40.53 806.67,-25.9"/>
<polygon fill="#63b8ff" stroke="#63b8ff" points="808.6,-28.82 815,-20.38 804.73,-22.99 808.6,-28.82"/>
</a>
</g>
</g>
<!-- Node20&#45;&gt;Node21 -->
<g id="edge24_Node000020_Node000021" class="edge">
<title>Node20&#45;&gt;Node21</title>
<g id="a_edge24_Node000020_Node000021"><a xlink:title=" ">
<path fill="none" stroke="#63b8ff" d="M523.74,-113.57C579.86,-106.14 680.17,-91.87 765.06,-74.5 765.88,-74.33 766.72,-74.15 767.57,-73.97"/>
<polygon fill="#63b8ff" stroke="#63b8ff" points="768.22,-77.41 777.16,-71.73 766.62,-70.6 768.22,-77.41"/>
</a>
</g>
</g>
<!-- Node22 -->
<g id="Node000022" class="node">
<title>Node22</title>
<g id="a_Node000022"><a xlink:title=" ">
<polygon fill="#e0e0e0" stroke="#999999" points="455.56,-74.5 382.56,-74.5 382.56,-55.25 455.56,-55.25 455.56,-74.5"/>
<text xml:space="preserve" text-anchor="middle" x="419.06" y="-61" font-family="Helvetica,sans-Serif" font-size="10.00">system_error</text>
</a>
</g>
</g>
<!-- Node20&#45;&gt;Node22 -->
<g id="edge26_Node000020_Node000022" class="edge">
<title>Node20&#45;&gt;Node22</title>
<g id="a_edge26_Node000020_Node000022"><a xlink:title=" ">
<path fill="none" stroke="#63b8ff" d="M469.71,-110.09C460.98,-102.47 448.27,-91.37 437.76,-82.2"/>
<polygon fill="#63b8ff" stroke="#63b8ff" points="440.23,-79.71 430.39,-75.77 435.62,-84.98 440.23,-79.71"/>
</a>
</g>
</g>
<!-- Node23 -->
<g id="Node000023" class="node">
<title>Node23</title>
<g id="a_Node000023"><a xlink:title=" ">
<polygon fill="#e0e0e0" stroke="#999999" points="522.56,-74.5 473.56,-74.5 473.56,-55.25 522.56,-55.25 522.56,-74.5"/>
<text xml:space="preserve" text-anchor="middle" x="498.06" y="-61" font-family="Helvetica,sans-Serif" font-size="10.00">Error.inl</text>
</a>
</g>
</g>
<!-- Node20&#45;&gt;Node23 -->
<g id="edge28_Node000020_Node000023" class="edge">
<title>Node20&#45;&gt;Node23</title>
<g id="a_edge28_Node000020_Node000023"><a xlink:title=" ">
<path fill="none" stroke="#63b8ff" d="M483.03,-110.33C485.31,-103.59 488.54,-94.02 491.42,-85.49"/>
<polygon fill="#63b8ff" stroke="#63b8ff" points="494.65,-86.89 494.53,-76.29 488.02,-84.65 494.65,-86.89"/>
</a>
</g>
</g>
<!-- Node24 -->
<g id="Node000024" class="node">
<title>Node24</title>
<g id="a_Node000024"><a xlink:href="Error_8tpp.html" target="_top" xlink:title=" ">
<polygon fill="white" stroke="#666666" points="364.43,-74.5 311.68,-74.5 311.68,-55.25 364.43,-55.25 364.43,-74.5"/>
<text xml:space="preserve" text-anchor="middle" x="338.06" y="-61" font-family="Helvetica,sans-Serif" font-size="10.00">Error.tpp</text>
</a>
</g>
</g>
<!-- Node20&#45;&gt;Node24 -->
<g id="edge29_Node000020_Node000024" class="edge">
<title>Node20&#45;&gt;Node24</title>
<g id="a_edge29_Node000020_Node000024"><a xlink:title=" ">
<path fill="none" stroke="#63b8ff" d="M455.97,-110.09C433.12,-101.52 398.54,-88.56 372.73,-78.88"/>
<polygon fill="#63b8ff" stroke="#63b8ff" points="374.27,-75.72 363.68,-75.48 371.81,-82.27 374.27,-75.72"/>
</a>
</g>
</g>
<!-- Node32&#45;&gt;Node12 -->
<g id="edge46_Node000032_Node000012" class="edge">
<title>Node32&#45;&gt;Node12</title>
<g id="a_edge46_Node000032_Node000012"><a xlink:title=" ">
<path fill="none" stroke="#63b8ff" d="M648.5,-331.09C617.77,-322.29 570.84,-308.86 536.78,-299.11"/>
<polygon fill="#63b8ff" stroke="#63b8ff" points="537.79,-295.76 527.22,-296.37 535.87,-302.49 537.79,-295.76"/>
</a>
</g>
</g>
<!-- Node32&#45;&gt;Node29 -->
<g id="edge48_Node000032_Node000029" class="edge">
<title>Node32&#45;&gt;Node29</title>
<g id="a_edge48_Node000032_Node000029"><a xlink:title=" ">
<path fill="none" stroke="#63b8ff" d="M617.63,-338.63C547.35,-335.48 439.62,-325.7 414.06,-295.5 400.51,-279.49 419.67,-260.31 437.86,-247.17"/>
<polygon fill="#63b8ff" stroke="#63b8ff" points="439.8,-250.08 446.12,-241.57 435.88,-244.28 439.8,-250.08"/>
</a>
</g>
</g>
<!-- Node32&#45;&gt;Node30 -->
<g id="edge51_Node000032_Node000030" class="edge">
<title>Node32&#45;&gt;Node30</title>
<g id="a_edge51_Node000032_Node000030"><a xlink:title=" ">
<path fill="none" stroke="#63b8ff" d="M689.11,-331.17C696.89,-322.79 707.56,-309.48 712.06,-295.5 716.67,-281.15 714.2,-264.19 710.83,-251.35"/>
<polygon fill="#63b8ff" stroke="#63b8ff" points="714.24,-250.52 707.97,-241.97 707.54,-252.56 714.24,-250.52"/>
</a>
</g>
</g>
<!-- Node32&#45;&gt;Node33 -->
<g id="edge47_Node000032_Node000033" class="edge">
<title>Node32&#45;&gt;Node33</title>
<g id="a_edge47_Node000032_Node000033"><a xlink:title=" ">
<path fill="none" stroke="#63b8ff" d="M696.68,-331.09C711.74,-322.91 734.2,-310.71 751.71,-301.19"/>
<polygon fill="#63b8ff" stroke="#63b8ff" points="752.9,-304.52 760.02,-296.68 749.56,-298.37 752.9,-304.52"/>
</a>
</g>
</g>
<!-- Node34 -->
<g id="Node000034" class="node">
<title>Node34</title>
<g id="a_Node000034"><a xlink:title=" ">
<polygon fill="#e0e0e0" stroke="#999999" points="638.93,-295.5 583.18,-295.5 583.18,-276.25 638.93,-276.25 638.93,-295.5"/>
<text xml:space="preserve" text-anchor="middle" x="611.06" y="-282" font-family="Helvetica,sans-Serif" font-size="10.00">algorithm</text>
</a>
</g>
</g>
<!-- Node32&#45;&gt;Node34 -->
<g id="edge49_Node000032_Node000034" class="edge">
<title>Node32&#45;&gt;Node34</title>
<g id="a_edge49_Node000032_Node000034"><a xlink:title=" ">
<path fill="none" stroke="#63b8ff" d="M668.35,-331.09C658.28,-323.32 643.51,-311.92 631.5,-302.65"/>
<polygon fill="#63b8ff" stroke="#63b8ff" points="633.84,-300.04 623.79,-296.7 629.56,-305.58 633.84,-300.04"/>
</a>
</g>
</g>
<!-- Node35 -->
<g id="Node000035" class="node">
<title>Node35</title>
<g id="a_Node000035"><a xlink:title=" ">
<polygon fill="#e0e0e0" stroke="#999999" points="703.06,-295.5 657.06,-295.5 657.06,-276.25 703.06,-276.25 703.06,-295.5"/>
<text xml:space="preserve" text-anchor="middle" x="680.06" y="-282" font-family="Helvetica,sans-Serif" font-size="10.00">iterator</text>
</a>
</g>
</g>
<!-- Node32&#45;&gt;Node35 -->
<g id="edge50_Node000032_Node000035" class="edge">
<title>Node32&#45;&gt;Node35</title>
<g id="a_edge50_Node000032_Node000035"><a xlink:title=" ">
<path fill="none" stroke="#63b8ff" d="M680.06,-331.33C680.06,-324.82 680.06,-315.67 680.06,-307.37"/>
<polygon fill="#63b8ff" stroke="#63b8ff" points="683.56,-307.37 680.06,-297.37 676.56,-307.37 683.56,-307.37"/>
</a>
</g>
</g>
</g>
</svg>
