<?xml version="1.0" encoding="UTF-8" standalone="no"?>
<!DOCTYPE svg PUBLIC "-//W3C//DTD SVG 1.1//EN"
 "http://www.w3.org/Graphics/SVG/1.1/DTD/svg11.dtd">
<!-- Generated by graphviz version 14.0.5 (20251129.0259)
 -->
<!-- Title: server/include/Systems/RoomSystem.hpp Pages: 1 -->
<svg width="894pt" height="227pt"
 viewBox="0.00 0.00 894.00 227.00" xmlns="http://www.w3.org/2000/svg" xmlns:xlink="http://www.w3.org/1999/xlink">
<g id="graph0" class="graph" transform="scale(1 1) rotate(0) translate(4 222.75)">
<title>server/include/Systems/RoomSystem.hpp</title>
<!-- Node1 -->
<g id="Node000001" class="node">
<title>Node1</title>
<g id="a_Node000001"><a xlink:title=" ">
<polygon fill="#999999" stroke="#666666" points="482.5,-218.75 363.75,-218.75 363.75,-188.25 482.5,-188.25 482.5,-218.75"/>
<text xml:space="preserve" text-anchor="start" x="371.75" y="-205.25" font-family="Helvetica,sans-Serif" font-size="10.00">server/include/Systems</text>
<text xml:space="preserve" text-anchor="middle" x="423.12" y="-194" font-family="Helvetica,sans-Serif" font-size="10.00">/RoomSystem.hpp</text>
</a>
</g>
</g>
<!-- Node2 -->
<g id="Node000002" class="node">
<title>Node2</title>
<g id="a_Node000002"><a xlink:href="GameManager_8hpp.html" target="_top" xlink:title=" ">
<polygon fill="white" stroke="#666666" points="384.12,-85.75 278.12,-85.75 278.12,-55.25 384.12,-55.25 384.12,-85.75"/>
<text xml:space="preserve" text-anchor="start" x="286.12" y="-72.25" font-family="Helvetica,sans-Serif" font-size="10.00">server/include/Game</text>
<text xml:space="preserve" text-anchor="middle" x="331.12" y="-61" font-family="Helvetica,sans-Serif" font-size="10.00">/GameManager.hpp</text>
</a>
</g>
</g>
<!-- Node1&#45;&gt;Node2 -->
<g id="edge1_Node000001_Node000002" class="edge">
<title>Node1&#45;&gt;Node2</title>
<g id="a_edge1_Node000001_Node000002"><a xlink:title=" ">
<path fill="none" stroke="#63b8ff" d="M382.49,-182.12C370.47,-174.28 358.35,-164.28 350.12,-152.25 336.39,-132.16 332.51,-103.4 331.46,-86.18"/>
<polygon fill="#63b8ff" stroke="#63b8ff" points="380.37,-184.93 390.74,-187.14 384.02,-178.95 380.37,-184.93"/>
</a>
</g>
</g>
<!-- Node5 -->
<g id="Node000005" class="node">
<title>Node5</title>
<g id="a_Node000005"><a xlink:href="BulletCleanupSystem_8hpp.html" target="_top" xlink:title=" ">
<polygon fill="white" stroke="#666666" points="166.25,-152.25 34,-152.25 34,-121.75 166.25,-121.75 166.25,-152.25"/>
<text xml:space="preserve" text-anchor="start" x="42" y="-138.75" font-family="Helvetica,sans-Serif" font-size="10.00">server/include/Systems</text>
<text xml:space="preserve" text-anchor="middle" x="100.12" y="-127.5" font-family="Helvetica,sans-Serif" font-size="10.00">/BulletCleanupSystem.hpp</text>
</a>
</g>
</g>
<!-- Node1&#45;&gt;Node5 -->
<g id="edge4_Node000001_Node000005" class="edge">
<title>Node1&#45;&gt;Node5</title>
<g id="a_edge4_Node000001_Node000005"><a xlink:title=" ">
<path fill="none" stroke="#63b8ff" d="M352.39,-188.38C297.11,-177.34 220.81,-162.1 166.64,-151.28"/>
<polygon fill="#63b8ff" stroke="#63b8ff" points="351.53,-191.77 362.02,-190.3 352.9,-184.91 351.53,-191.77"/>
</a>
</g>
</g>
<!-- Node7 -->
<g id="Node000007" class="node">
<title>Node7</title>
<g id="a_Node000007"><a xlink:href="CollisionSystem_8hpp.html" target="_top" xlink:title=" ">
<polygon fill="white" stroke="#666666" points="303.5,-152.25 184.75,-152.25 184.75,-121.75 303.5,-121.75 303.5,-152.25"/>
<text xml:space="preserve" text-anchor="start" x="192.75" y="-138.75" font-family="Helvetica,sans-Serif" font-size="10.00">server/include/Systems</text>
<text xml:space="preserve" text-anchor="middle" x="244.12" y="-127.5" font-family="Helvetica,sans-Serif" font-size="10.00">/CollisionSystem.hpp</text>
</a>
</g>
</g>
<!-- Node1&#45;&gt;Node7 -->
<g id="edge7_Node000001_Node000007" class="edge">
<title>Node1&#45;&gt;Node7</title>
<g id="a_edge7_Node000001_Node000007"><a xlink:title=" ">
<path fill="none" stroke="#63b8ff" d="M371.86,-184.03C344.27,-174.08 310.69,-161.99 284.89,-152.69"/>
<polygon fill="#63b8ff" stroke="#63b8ff" points="370.49,-187.25 381.08,-187.35 372.86,-180.67 370.49,-187.25"/>
</a>
</g>
</g>
<!-- Node9 -->
<g id="Node000009" class="node">
<title>Node9</title>
<g id="a_Node000009"><a xlink:href="EnemyShootSystem_8hpp.html" target="_top" xlink:title=" ">
<polygon fill="white" stroke="#666666" points="487,-152.25 359.25,-152.25 359.25,-121.75 487,-121.75 487,-152.25"/>
<text xml:space="preserve" text-anchor="start" x="367.25" y="-138.75" font-family="Helvetica,sans-Serif" font-size="10.00">server/include/Systems</text>
<text xml:space="preserve" text-anchor="middle" x="423.12" y="-127.5" font-family="Helvetica,sans-Serif" font-size="10.00">/EnemyShootSystem.hpp</text>
</a>
</g>
</g>
<!-- Node1&#45;&gt;Node9 -->
<g id="edge10_Node000001_Node000009" class="edge">
<title>Node1&#45;&gt;Node9</title>
<g id="a_edge10_Node000001_Node000009"><a xlink:title=" ">
<path fill="none" stroke="#63b8ff" d="M423.12,-176.56C423.12,-168.39 423.12,-159.66 423.12,-152.58"/>
<polygon fill="#63b8ff" stroke="#63b8ff" points="419.63,-176.35 423.13,-186.35 426.63,-176.35 419.63,-176.35"/>
</a>
</g>
</g>
<!-- Node11 -->
<g id="Node000011" class="node">
<title>Node11</title>
<g id="a_Node000011"><a xlink:href="LevelSystem_8hpp.html" target="_top" xlink:title=" ">
<polygon fill="white" stroke="#666666" points="623.5,-152.25 504.75,-152.25 504.75,-121.75 623.5,-121.75 623.5,-152.25"/>
<text xml:space="preserve" text-anchor="start" x="512.75" y="-138.75" font-family="Helvetica,sans-Serif" font-size="10.00">server/include/Systems</text>
<text xml:space="preserve" text-anchor="middle" x="564.12" y="-127.5" font-family="Helvetica,sans-Serif" font-size="10.00">/LevelSystem.hpp</text>
</a>
</g>
</g>
<!-- Node1&#45;&gt;Node11 -->
<g id="edge13_Node000001_Node000011" class="edge">
<title>Node1&#45;&gt;Node11</title>
<g id="a_edge13_Node000001_Node000011"><a xlink:title=" ">
<path fill="none" stroke="#63b8ff" d="M465.57,-183.08C486.99,-173.28 512.54,-161.6 532.26,-152.58"/>
<polygon fill="#63b8ff" stroke="#63b8ff" points="464.13,-179.89 456.5,-187.23 467.05,-186.26 464.13,-179.89"/>
</a>
</g>
</g>
<!-- Node13 -->
<g id="Node000013" class="node">
<title>Node13</title>
<g id="a_Node000013"><a xlink:href="PlayerShootSystem_8hpp.html" target="_top" xlink:title=" ">
<polygon fill="white" stroke="#666666" points="766.5,-152.25 641.75,-152.25 641.75,-121.75 766.5,-121.75 766.5,-152.25"/>
<text xml:space="preserve" text-anchor="start" x="649.75" y="-138.75" font-family="Helvetica,sans-Serif" font-size="10.00">server/include/Systems</text>
<text xml:space="preserve" text-anchor="middle" x="704.12" y="-127.5" font-family="Helvetica,sans-Serif" font-size="10.00">/PlayerShootSystem.hpp</text>
</a>
</g>
</g>
<!-- Node1&#45;&gt;Node13 -->
<g id="edge16_Node000001_Node000013" class="edge">
<title>Node1&#45;&gt;Node13</title>
<g id="a_edge16_Node000001_Node000013"><a xlink:title=" ">
<path fill="none" stroke="#63b8ff" d="M493.69,-186.3C539.21,-175.85 597.88,-162.39 641.7,-152.33"/>
<polygon fill="#63b8ff" stroke="#63b8ff" points="493.16,-182.83 484.19,-188.48 494.72,-189.66 493.16,-182.83"/>
</a>
</g>
</g>
<!-- Node15 -->
<g id="Node000015" class="node">
<title>Node15</title>
<g id="a_Node000015"><a xlink:href="RoomSystem_8cpp.html" target="_top" xlink:title=" ">
<polygon fill="white" stroke="#666666" points="885.88,-152.25 784.38,-152.25 784.38,-121.75 885.88,-121.75 885.88,-152.25"/>
<text xml:space="preserve" text-anchor="start" x="792.38" y="-138.75" font-family="Helvetica,sans-Serif" font-size="10.00">server/src/Systems</text>
<text xml:space="preserve" text-anchor="middle" x="835.12" y="-127.5" font-family="Helvetica,sans-Serif" font-size="10.00">/RoomSystem.cpp</text>
</a>
</g>
</g>
<!-- Node1&#45;&gt;Node15 -->
<g id="edge19_Node000001_Node000015" class="edge">
<title>Node1&#45;&gt;Node15</title>
<g id="a_edge19_Node000001_Node000015"><a xlink:title=" ">
<path fill="none" stroke="#63b8ff" d="M493.96,-194.32C565.26,-185.63 678.27,-170.63 775.12,-152.25 778.07,-151.69 781.09,-151.08 784.13,-150.45"/>
<polygon fill="#63b8ff" stroke="#63b8ff" points="493.89,-190.8 484.38,-195.48 494.73,-197.75 493.89,-190.8"/>
</a>
</g>
</g>
<!-- Node3 -->
<g id="Node000003" class="node">
<title>Node3</title>
<g id="a_Node000003"><a xlink:href="GameManager_8cpp.html" target="_top" xlink:title=" ">
<polygon fill="white" stroke="#666666" points="339.88,-19.25 166.38,-19.25 166.38,0 339.88,0 339.88,-19.25"/>
<text xml:space="preserve" text-anchor="middle" x="253.12" y="-5.75" font-family="Helvetica,sans-Serif" font-size="10.00">server/src/Game/GameManager.cpp</text>
</a>
</g>
</g>
<!-- Node2&#45;&gt;Node3 -->
<g id="edge2_Node000002_Node000003" class="edge">
<title>Node2&#45;&gt;Node3</title>
<g id="a_edge2_Node000002_Node000003"><a xlink:title=" ">
<path fill="none" stroke="#63b8ff" d="M302.8,-48.12C289.83,-38.33 275.16,-27.26 265.15,-19.7"/>
<polygon fill="#63b8ff" stroke="#63b8ff" points="300.55,-50.8 310.64,-54.03 304.76,-45.22 300.55,-50.8"/>
</a>
</g>
</g>
<!-- Node4 -->
<g id="Node000004" class="node">
<title>Node4</title>
<g id="a_Node000004"><a xlink:href="server_2src_2main_8cpp.html" target="_top" xlink:title=" ">
<polygon fill="white" stroke="#666666" points="460.25,-19.25 358,-19.25 358,0 460.25,0 460.25,-19.25"/>
<text xml:space="preserve" text-anchor="middle" x="409.12" y="-5.75" font-family="Helvetica,sans-Serif" font-size="10.00">server/src/main.cpp</text>
</a>
</g>
</g>
<!-- Node2&#45;&gt;Node4 -->
<g id="edge3_Node000002_Node000004" class="edge">
<title>Node2&#45;&gt;Node4</title>
<g id="a_edge3_Node000002_Node000004"><a xlink:title=" ">
<path fill="none" stroke="#63b8ff" d="M359.45,-48.12C372.42,-38.33 387.09,-27.26 397.1,-19.7"/>
<polygon fill="#63b8ff" stroke="#63b8ff" points="357.49,-45.22 351.61,-54.03 361.7,-50.8 357.49,-45.22"/>
</a>
</g>
</g>
<!-- Node5&#45;&gt;Node2 -->
<g id="edge5_Node000005_Node000002" class="edge">
<title>Node5&#45;&gt;Node2</title>
<g id="a_edge5_Node000005_Node000002"><a xlink:title=" ">
<path fill="none" stroke="#63b8ff" d="M163.75,-118.24C199.87,-108.15 244.54,-95.68 278.64,-86.15"/>
<polygon fill="#63b8ff" stroke="#63b8ff" points="162.98,-114.82 154.29,-120.88 164.86,-121.56 162.98,-114.82"/>
</a>
</g>
</g>
<!-- Node6 -->
<g id="Node000006" class="node">
<title>Node6</title>
<g id="a_Node000006"><a xlink:href="BulletCleanupSystem_8cpp.html" target="_top" xlink:title=" ">
<polygon fill="white" stroke="#666666" points="132.25,-85.75 0,-85.75 0,-55.25 132.25,-55.25 132.25,-85.75"/>
<text xml:space="preserve" text-anchor="start" x="8" y="-72.25" font-family="Helvetica,sans-Serif" font-size="10.00">server/src/Systems</text>
<text xml:space="preserve" text-anchor="middle" x="66.12" y="-61" font-family="Helvetica,sans-Serif" font-size="10.00">/BulletCleanupSystem.cpp</text>
</a>
</g>
</g>
<!-- Node5&#45;&gt;Node6 -->
<g id="edge6_Node000005_Node000006" class="edge">
<title>Node5&#45;&gt;Node6</title>
<g id="a_edge6_Node000005_Node000006"><a xlink:title=" ">
<path fill="none" stroke="#63b8ff" d="M87.05,-111.19C82.57,-102.71 77.72,-93.49 73.81,-86.08"/>
<polygon fill="#63b8ff" stroke="#63b8ff" points="83.94,-112.81 91.7,-120.03 90.14,-109.55 83.94,-112.81"/>
</a>
</g>
</g>
<!-- Node7&#45;&gt;Node2 -->
<g id="edge8_Node000007_Node000002" class="edge">
<title>Node7&#45;&gt;Node2</title>
<g id="a_edge8_Node000007_Node000002"><a xlink:title=" ">
<path fill="none" stroke="#63b8ff" d="M273.07,-114.54C285.68,-105.19 300.13,-94.48 311.46,-86.08"/>
<polygon fill="#63b8ff" stroke="#63b8ff" points="271.03,-111.7 265.08,-120.46 275.2,-117.32 271.03,-111.7"/>
</a>
</g>
</g>
<!-- Node8 -->
<g id="Node000008" class="node">
<title>Node8</title>
<g id="a_Node000008"><a xlink:href="CollisionSystem_8cpp.html" target="_top" xlink:title=" ">
<polygon fill="white" stroke="#666666" points="259.62,-85.75 150.62,-85.75 150.62,-55.25 259.62,-55.25 259.62,-85.75"/>
<text xml:space="preserve" text-anchor="start" x="158.62" y="-72.25" font-family="Helvetica,sans-Serif" font-size="10.00">server/src/Systems</text>
<text xml:space="preserve" text-anchor="middle" x="205.12" y="-61" font-family="Helvetica,sans-Serif" font-size="10.00">/CollisionSystem.cpp</text>
</a>
</g>
</g>
<!-- Node7&#45;&gt;Node8 -->
<g id="edge9_Node000007_Node000008" class="edge">
<title>Node7&#45;&gt;Node8</title>
<g id="a_edge9_Node000007_Node000008"><a xlink:title=" ">
<path fill="none" stroke="#63b8ff" d="M229.47,-111.76C224.24,-103.12 218.52,-93.66 213.94,-86.08"/>
<polygon fill="#63b8ff" stroke="#63b8ff" points="226.32,-113.32 234.49,-120.07 232.31,-109.7 226.32,-113.32"/>
</a>
</g>
</g>
<!-- Node9&#45;&gt;Node2 -->
<g id="edge11_Node000009_Node000002" class="edge">
<title>Node9&#45;&gt;Node2</title>
<g id="a_edge11_Node000009_Node000002"><a xlink:title=" ">
<path fill="none" stroke="#63b8ff" d="M392.91,-114.82C379.49,-105.41 364.02,-94.56 351.92,-86.08"/>
<polygon fill="#63b8ff" stroke="#63b8ff" points="390.81,-117.62 401.01,-120.5 394.83,-111.89 390.81,-117.62"/>
</a>
</g>
</g>
<!-- Node10 -->
<g id="Node000010" class="node">
<title>Node10</title>
<g id="a_Node000010"><a xlink:href="EnemyShootSystem_8cpp.html" target="_top" xlink:title=" ">
<polygon fill="white" stroke="#666666" points="530,-85.75 402.25,-85.75 402.25,-55.25 530,-55.25 530,-85.75"/>
<text xml:space="preserve" text-anchor="start" x="410.25" y="-72.25" font-family="Helvetica,sans-Serif" font-size="10.00">server/src/Systems</text>
<text xml:space="preserve" text-anchor="middle" x="466.12" y="-61" font-family="Helvetica,sans-Serif" font-size="10.00">/EnemyShootSystem.cpp</text>
</a>
</g>
</g>
<!-- Node9&#45;&gt;Node10 -->
<g id="edge12_Node000009_Node000010" class="edge">
<title>Node9&#45;&gt;Node10</title>
<g id="a_edge12_Node000009_Node000010"><a xlink:title=" ">
<path fill="none" stroke="#63b8ff" d="M439.1,-112.04C444.91,-103.32 451.3,-93.74 456.41,-86.08"/>
<polygon fill="#63b8ff" stroke="#63b8ff" points="436.36,-109.84 433.72,-120.1 442.18,-113.73 436.36,-109.84"/>
</a>
</g>
</g>
<!-- Node11&#45;&gt;Node2 -->
<g id="edge14_Node000011_Node000002" class="edge">
<title>Node11&#45;&gt;Node2</title>
<g id="a_edge14_Node000011_Node000002"><a xlink:title=" ">
<path fill="none" stroke="#63b8ff" d="M499.95,-118.24C463.52,-108.15 418.46,-95.68 384.06,-86.15"/>
<polygon fill="#63b8ff" stroke="#63b8ff" points="498.93,-121.58 509.5,-120.88 500.8,-114.84 498.93,-121.58"/>
</a>
</g>
</g>
<!-- Node12 -->
<g id="Node000012" class="node">
<title>Node12</title>
<g id="a_Node000012"><a xlink:href="LevelSystem_8cpp.html" target="_top" xlink:title=" ">
<polygon fill="white" stroke="#666666" points="649.88,-85.75 548.38,-85.75 548.38,-55.25 649.88,-55.25 649.88,-85.75"/>
<text xml:space="preserve" text-anchor="start" x="556.38" y="-72.25" font-family="Helvetica,sans-Serif" font-size="10.00">server/src/Systems</text>
<text xml:space="preserve" text-anchor="middle" x="599.12" y="-61" font-family="Helvetica,sans-Serif" font-size="10.00">/LevelSystem.cpp</text>
</a>
</g>
</g>
<!-- Node11&#45;&gt;Node12 -->
<g id="edge15_Node000011_Node000012" class="edge">
<title>Node11&#45;&gt;Node12</title>
<g id="a_edge15_Node000011_Node000012"><a xlink:title=" ">
<path fill="none" stroke="#63b8ff" d="M577.43,-111.48C582.08,-102.91 587.15,-93.57 591.21,-86.08"/>
<polygon fill="#63b8ff" stroke="#63b8ff" points="574.48,-109.57 572.79,-120.03 580.63,-112.91 574.48,-109.57"/>
</a>
</g>
</g>
<!-- Node13&#45;&gt;Node2 -->
<g id="edge17_Node000013_Node000002" class="edge">
<title>Node13&#45;&gt;Node2</title>
<g id="a_edge17_Node000013_Node000002"><a xlink:title=" ">
<path fill="none" stroke="#63b8ff" d="M630.15,-121.47C524.38,-103.46 495.15,-105.13 393.12,-85.75 390.3,-85.21 387.42,-84.64 384.5,-84.04"/>
<polygon fill="#63b8ff" stroke="#63b8ff" points="629.39,-124.89 639.84,-123.14 630.58,-117.99 629.39,-124.89"/>
</a>
</g>
</g>
<!-- Node14 -->
<g id="Node000014" class="node">
<title>Node14</title>
<g id="a_Node000014"><a xlink:href="PlayerShootSystem_8cpp.html" target="_top" xlink:title=" ">
<polygon fill="white" stroke="#666666" points="792.5,-85.75 667.75,-85.75 667.75,-55.25 792.5,-55.25 792.5,-85.75"/>
<text xml:space="preserve" text-anchor="start" x="675.75" y="-72.25" font-family="Helvetica,sans-Serif" font-size="10.00">server/src/Systems</text>
<text xml:space="preserve" text-anchor="middle" x="730.12" y="-61" font-family="Helvetica,sans-Serif" font-size="10.00">/PlayerShootSystem.cpp</text>
</a>
</g>
</g>
<!-- Node13&#45;&gt;Node14 -->
<g id="edge18_Node000013_Node000014" class="edge">
<title>Node13&#45;&gt;Node14</title>
<g id="a_edge18_Node000013_Node000014"><a xlink:title=" ">
<path fill="none" stroke="#63b8ff" d="M714.24,-110.91C717.63,-102.5 721.29,-93.41 724.25,-86.08"/>
<polygon fill="#63b8ff" stroke="#63b8ff" points="711.08,-109.38 710.59,-119.96 717.58,-111.99 711.08,-109.38"/>
</a>
</g>
</g>
</g>
</svg>
