<?xml version="1.0" encoding="UTF-8" standalone="no"?>
<!DOCTYPE svg PUBLIC "-//W3C//DTD SVG 1.1//EN"
 "http://www.w3.org/Graphics/SVG/1.1/DTD/svg11.dtd">
<!-- Generated by graphviz version 14.0.5 (20251129.0259)
 -->
<!-- Title: common/include/RType/ECS/Components/RoomId.hpp Pages: 1 -->
<!--zoomable 293 -->

<svg id="main" version="1.1" xmlns="http://www.w3.org/2000/svg" xmlns:xlink="http://www.w3.org/1999/xlink" xml:space="preserve" onload="init(evt)">

<style type="text/css"><![CDATA[
.node, .edge {opacity: 0.7;}
.node.selected, .edge.selected {opacity: 1;}
.edge:hover path { stroke: red; }
.edge:hover polygon { stroke: red; fill: red; }
]]></style>

<defs>
  <circle id="rim" cx="0" cy="0" r="7"/>
  <circle id="rim2" cx="0" cy="0" r="3.5"/>
  <g id="zoomPlus">
    <use xlink:href="#rim" fill="#404040"><set attributeName="fill" to="#808080" begin="zoomplus.mouseover" end="zoomplus.mouseout"/></use>
    <path d="M-4,0h8M0,-4v8" fill="none" stroke="white" stroke-width="1.5" pointer-events="none"/>
  </g>
  <g id="zoomMin">
    <use xlink:href="#rim" fill="#404040"><set attributeName="fill" to="#808080" begin="zoomminus.mouseover" end="zoomminus.mouseout"/></use>
    <path d="M-4,0h8" fill="none" stroke="white" stroke-width="1.5" pointer-events="none"/>
  </g>
  <g id="arrowUp" transform="translate(30 24)">
    <use xlink:href="#rim"/>
    <path pointer-events="none" fill="none" stroke="white" stroke-width="1.5" d="M0,-3.0v7 M-2.5,-0.5L0,-3.0L2.5,-0.5"/>
  </g>
  <g id="arrowRight" transform="rotate(90) translate(36 -43)">
    <use xlink:href="#rim"/>
    <path pointer-events="none" fill="none" stroke="white" stroke-width="1.5" d="M0,-3.0v7 M-2.5,-0.5L0,-3.0L2.5,-0.5"/>
  </g>
  <g id="arrowDown" transform="rotate(180) translate(-30 -48)">
    <use xlink:href="#rim"/>
    <path pointer-events="none" fill="none" stroke="white" stroke-width="1.5" d="M0,-3.0v7 M-2.5,-0.5L0,-3.0L2.5,-0.5"/>
  </g>
  <g id="arrowLeft" transform="rotate(270) translate(-36 17)">
    <use xlink:href="#rim"/>
    <path pointer-events="none" fill="none" stroke="white" stroke-width="1.5" d="M0,-3.0v7 M-2.5,-0.5L0,-3.0L2.5,-0.5"/>
  </g>
  <g id="resetDef">
    <use xlink:href="#rim2" fill="#404040"><set attributeName="fill" to="#808080" begin="reset.mouseover" end="reset.mouseout"/></use>
  </g>
</defs>
<script type="application/ecmascript">
var viewWidth = 1922;
var viewHeight = 293;
var sectionId = 'dynsection-1';
</script>
<script type="application/ecmascript" xlink:href="svg.min.js"/>
<svg id="graph" class="graph">
<g id="viewport">
<title>common/include/RType/ECS/Components/RoomId.hpp</title>
<!-- Node1 -->
<g id="Node000001" class="node">
<title>Node1</title>
<g id="a_Node000001"><a xlink:title=" ">
<polygon fill="#999999" stroke="#666666" points="1028.75,-285.25 874,-285.25 874,-254.75 1028.75,-254.75 1028.75,-285.25"/>
<text xml:space="preserve" text-anchor="start" x="882" y="-271.75" font-family="Helvetica,sans-Serif" font-size="10.00">common/include/RType</text>
<text xml:space="preserve" text-anchor="middle" x="951.37" y="-260.5" font-family="Helvetica,sans-Serif" font-size="10.00">/ECS/Components/RoomId.hpp</text>
</a>
</g>
</g>
<!-- Node2 -->
<g id="Node000002" class="node">
<title>Node2</title>
<g id="a_Node000002"><a xlink:href="BoomerangSystem_8hpp.html" target="_top" xlink:title=" ">
<polygon fill="white" stroke="#666666" points="719.87,-218.75 598.87,-218.75 598.87,-188.25 719.87,-188.25 719.87,-218.75"/>
<text xml:space="preserve" text-anchor="start" x="606.87" y="-205.25" font-family="Helvetica,sans-Serif" font-size="10.00">server/include/Systems</text>
<text xml:space="preserve" text-anchor="middle" x="659.37" y="-194" font-family="Helvetica,sans-Serif" font-size="10.00">/BoomerangSystem.hpp</text>
</a>
</g>
</g>
<!-- Node1&#45;&gt;Node2 -->
<g id="edge1_Node000001_Node000002" class="edge">
<title>Node1&#45;&gt;Node2</title>
<g id="a_edge1_Node000001_Node000002"><a xlink:title=" ">
<path fill="none" stroke="#63b8ff" d="M873.76,-251.86C825.68,-241.24 764.82,-227.79 720.24,-217.94"/>
<polygon fill="#63b8ff" stroke="#63b8ff" points="872.75,-255.22 883.27,-253.96 874.26,-248.38 872.75,-255.22"/>
</a>
</g>
</g>
<!-- Node4 -->
<g id="Node000004" class="node">
<title>Node4</title>
<g id="a_Node000004"><a xlink:href="GameManager_8cpp.html" target="_top" xlink:title=" ">
<polygon fill="white" stroke="#666666" points="346.12,-19.25 172.62,-19.25 172.62,0 346.12,0 346.12,-19.25"/>
<text xml:space="preserve" text-anchor="middle" x="259.37" y="-5.75" font-family="Helvetica,sans-Serif" font-size="10.00">server/src/Game/GameManager.cpp</text>
</a>
</g>
</g>
<!-- Node1&#45;&gt;Node4 -->
<g id="edge31_Node000001_Node000004" class="edge">
<title>Node1&#45;&gt;Node4</title>
<g id="a_edge31_Node000001_Node000004"><a xlink:title=" ">
<path fill="none" stroke="#63b8ff" d="M862.28,-267.26C635.92,-262.45 54.44,-247.33 24.37,-218.75 -6.96,-188.97 -5.96,-158.14 17.37,-121.75 57.05,-59.87 140.79,-31.99 198.56,-19.74"/>
<polygon fill="#63b8ff" stroke="#63b8ff" points="862.17,-270.76 872.24,-267.47 862.32,-263.76 862.17,-270.76"/>
</a>
</g>
</g>
<!-- Node7 -->
<g id="Node000007" class="node">
<title>Node7</title>
<g id="a_Node000007"><a xlink:href="BulletCleanupSystem_8hpp.html" target="_top" xlink:title=" ">
<polygon fill="white" stroke="#666666" points="380.5,-218.75 248.25,-218.75 248.25,-188.25 380.5,-188.25 380.5,-218.75"/>
<text xml:space="preserve" text-anchor="start" x="256.25" y="-205.25" font-family="Helvetica,sans-Serif" font-size="10.00">server/include/Systems</text>
<text xml:space="preserve" text-anchor="middle" x="314.37" y="-194" font-family="Helvetica,sans-Serif" font-size="10.00">/BulletCleanupSystem.hpp</text>
</a>
</g>
</g>
<!-- Node1&#45;&gt;Node7 -->
<g id="edge6_Node000001_Node000007" class="edge">
<title>Node1&#45;&gt;Node7</title>
<g id="a_edge6_Node000001_Node000007"><a xlink:title=" ">
<path fill="none" stroke="#63b8ff" d="M862.06,-263.66C751.11,-256.41 556.2,-241.67 390.37,-218.75 387.18,-218.31 383.92,-217.83 380.63,-217.31"/>
<polygon fill="#63b8ff" stroke="#63b8ff" points="861.8,-267.15 872,-264.3 862.25,-260.16 861.8,-267.15"/>
</a>
</g>
</g>
<!-- Node9 -->
<g id="Node000009" class="node">
<title>Node9</title>
<g id="a_Node000009"><a xlink:href="CollisionSystem_8hpp.html" target="_top" xlink:title=" ">
<polygon fill="white" stroke="#666666" points="1010.75,-218.75 892,-218.75 892,-188.25 1010.75,-188.25 1010.75,-218.75"/>
<text xml:space="preserve" text-anchor="start" x="900" y="-205.25" font-family="Helvetica,sans-Serif" font-size="10.00">server/include/Systems</text>
<text xml:space="preserve" text-anchor="middle" x="951.37" y="-194" font-family="Helvetica,sans-Serif" font-size="10.00">/CollisionSystem.hpp</text>
</a>
</g>
</g>
<!-- Node1&#45;&gt;Node9 -->
<g id="edge9_Node000001_Node000009" class="edge">
<title>Node1&#45;&gt;Node9</title>
<g id="a_edge9_Node000001_Node000009"><a xlink:title=" ">
<path fill="none" stroke="#63b8ff" d="M951.37,-243.06C951.37,-234.89 951.37,-226.16 951.37,-219.08"/>
<polygon fill="#63b8ff" stroke="#63b8ff" points="947.87,-242.85 951.37,-252.85 954.87,-242.85 947.87,-242.85"/>
</a>
</g>
</g>
<!-- Node11 -->
<g id="Node000011" class="node">
<title>Node11</title>
<g id="a_Node000011"><a xlink:href="EnemyAISystem_8hpp.html" target="_top" xlink:title=" ">
<polygon fill="white" stroke="#666666" points="151.75,-218.75 33,-218.75 33,-188.25 151.75,-188.25 151.75,-218.75"/>
<text xml:space="preserve" text-anchor="start" x="41" y="-205.25" font-family="Helvetica,sans-Serif" font-size="10.00">server/include/Systems</text>
<text xml:space="preserve" text-anchor="middle" x="92.37" y="-194" font-family="Helvetica,sans-Serif" font-size="10.00">/EnemyAISystem.hpp</text>
</a>
</g>
</g>
<!-- Node1&#45;&gt;Node11 -->
<g id="edge12_Node000001_Node000011" class="edge">
<title>Node1&#45;&gt;Node11</title>
<g id="a_edge12_Node000001_Node000011"><a xlink:title=" ">
<path fill="none" stroke="#63b8ff" d="M862.16,-263.46C727.25,-254.9 463.3,-237.5 239.37,-218.75 210.63,-216.34 178.76,-213.3 152.06,-210.64"/>
<polygon fill="#63b8ff" stroke="#63b8ff" points="861.91,-266.95 872.11,-264.09 862.35,-259.96 861.91,-266.95"/>
</a>
</g>
</g>
<!-- Node13 -->
<g id="Node000013" class="node">
<title>Node13</title>
<g id="a_Node000013"><a xlink:href="EnemyShootSystem_8hpp.html" target="_top" xlink:title=" ">
<polygon fill="white" stroke="#666666" points="865.25,-218.75 737.5,-218.75 737.5,-188.25 865.25,-188.25 865.25,-218.75"/>
<text xml:space="preserve" text-anchor="start" x="745.5" y="-205.25" font-family="Helvetica,sans-Serif" font-size="10.00">server/include/Systems</text>
<text xml:space="preserve" text-anchor="middle" x="801.37" y="-194" font-family="Helvetica,sans-Serif" font-size="10.00">/EnemyShootSystem.hpp</text>
</a>
</g>
</g>
<!-- Node1&#45;&gt;Node13 -->
<g id="edge15_Node000001_Node000013" class="edge">
<title>Node1&#45;&gt;Node13</title>
<g id="a_edge15_Node000001_Node000013"><a xlink:title=" ">
<path fill="none" stroke="#63b8ff" d="M906.87,-249.87C884.05,-240.05 856.68,-228.28 835.53,-219.19"/>
<polygon fill="#63b8ff" stroke="#63b8ff" points="905.38,-253.03 915.94,-253.77 908.14,-246.6 905.38,-253.03"/>
</a>
</g>
</g>
<!-- Node15 -->
<g id="Node000015" class="node">
<title>Node15</title>
<g id="a_Node000015"><a xlink:href="EntitySystem_8hpp.html" target="_top" xlink:title=" ">
<polygon fill="white" stroke="#666666" points="1161.75,-218.75 1043,-218.75 1043,-188.25 1161.75,-188.25 1161.75,-218.75"/>
<text xml:space="preserve" text-anchor="start" x="1051" y="-205.25" font-family="Helvetica,sans-Serif" font-size="10.00">server/include/Systems</text>
<text xml:space="preserve" text-anchor="middle" x="1102.37" y="-194" font-family="Helvetica,sans-Serif" font-size="10.00">/EntitySystem.hpp</text>
</a>
</g>
</g>
<!-- Node1&#45;&gt;Node15 -->
<g id="edge18_Node000001_Node000015" class="edge">
<title>Node1&#45;&gt;Node15</title>
<g id="a_edge18_Node000001_Node000015"><a xlink:title=" ">
<path fill="none" stroke="#63b8ff" d="M996.17,-249.87C1019.15,-240.05 1046.7,-228.28 1067.98,-219.19"/>
<polygon fill="#63b8ff" stroke="#63b8ff" points="994.85,-246.62 987.03,-253.77 997.6,-253.06 994.85,-246.62"/>
</a>
</g>
</g>
<!-- Node17 -->
<g id="Node000017" class="node">
<title>Node17</title>
<g id="a_Node000017"><a xlink:href="LevelSystem_8cpp.html" target="_top" xlink:title=" ">
<polygon fill="white" stroke="#666666" points="1443.12,-85.75 1341.62,-85.75 1341.62,-55.25 1443.12,-55.25 1443.12,-85.75"/>
<text xml:space="preserve" text-anchor="start" x="1349.62" y="-72.25" font-family="Helvetica,sans-Serif" font-size="10.00">server/src/Systems</text>
<text xml:space="preserve" text-anchor="middle" x="1392.37" y="-61" font-family="Helvetica,sans-Serif" font-size="10.00">/LevelSystem.cpp</text>
</a>
</g>
</g>
<!-- Node1&#45;&gt;Node17 -->
<g id="edge33_Node000001_Node000017" class="edge">
<title>Node1&#45;&gt;Node17</title>
<g id="a_edge33_Node000001_Node000017"><a xlink:title=" ">
<path fill="none" stroke="#63b8ff" d="M1040.12,-264.96C1155.66,-258.75 1350.7,-244.75 1417.37,-218.75 1472.16,-197.38 1539.57,-170.96 1507.37,-121.75 1493.12,-99.96 1467.11,-87.57 1443.43,-80.54"/>
<polygon fill="#63b8ff" stroke="#63b8ff" points="1040.16,-261.45 1030.36,-265.47 1040.53,-268.44 1040.16,-261.45"/>
</a>
</g>
</g>
<!-- Node19 -->
<g id="Node000019" class="node">
<title>Node19</title>
<g id="a_Node000019"><a xlink:href="HomingSystem_8hpp.html" target="_top" xlink:title=" ">
<polygon fill="white" stroke="#666666" points="517.75,-218.75 399,-218.75 399,-188.25 517.75,-188.25 517.75,-218.75"/>
<text xml:space="preserve" text-anchor="start" x="407" y="-205.25" font-family="Helvetica,sans-Serif" font-size="10.00">server/include/Systems</text>
<text xml:space="preserve" text-anchor="middle" x="458.37" y="-194" font-family="Helvetica,sans-Serif" font-size="10.00">/HomingSystem.hpp</text>
</a>
</g>
</g>
<!-- Node1&#45;&gt;Node19 -->
<g id="edge24_Node000001_Node000019" class="edge">
<title>Node1&#45;&gt;Node19</title>
<g id="a_edge24_Node000001_Node000019"><a xlink:title=" ">
<path fill="none" stroke="#63b8ff" d="M862.27,-257.34C762.55,-244.3 603.75,-223.52 517.99,-212.3"/>
<polygon fill="#63b8ff" stroke="#63b8ff" points="861.66,-260.79 872.03,-258.62 862.56,-253.85 861.66,-260.79"/>
</a>
</g>
</g>
<!-- Node21 -->
<g id="Node000021" class="node">
<title>Node21</title>
<g id="a_Node000021"><a xlink:href="server_2include_2Systems_2NetworkSyncSystem_8hpp.html" target="_top" xlink:title=" ">
<polygon fill="white" stroke="#666666" points="1639.75,-218.75 1509,-218.75 1509,-188.25 1639.75,-188.25 1639.75,-218.75"/>
<text xml:space="preserve" text-anchor="start" x="1517" y="-205.25" font-family="Helvetica,sans-Serif" font-size="10.00">server/include/Systems</text>
<text xml:space="preserve" text-anchor="middle" x="1574.37" y="-194" font-family="Helvetica,sans-Serif" font-size="10.00">/NetworkSyncSystem.hpp</text>
</a>
</g>
</g>
<!-- Node1&#45;&gt;Node21 -->
<g id="edge27_Node000001_Node000021" class="edge">
<title>Node1&#45;&gt;Node21</title>
<g id="a_edge27_Node000001_Node000021"><a xlink:title=" ">
<path fill="none" stroke="#63b8ff" d="M1040.57,-263.13C1148.55,-255.49 1335.78,-240.47 1495.37,-218.75 1499.79,-218.15 1504.34,-217.47 1508.92,-216.76"/>
<polygon fill="#63b8ff" stroke="#63b8ff" points="1040.33,-259.64 1030.6,-263.84 1040.82,-266.63 1040.33,-259.64"/>
</a>
</g>
</g>
<!-- Node22 -->
<g id="Node000022" class="node">
<title>Node22</title>
<g id="a_Node000022"><a xlink:href="PlayerShootSystem_8hpp.html" target="_top" xlink:title=" ">
<polygon fill="white" stroke="#666666" points="1408.75,-218.75 1284,-218.75 1284,-188.25 1408.75,-188.25 1408.75,-218.75"/>
<text xml:space="preserve" text-anchor="start" x="1292" y="-205.25" font-family="Helvetica,sans-Serif" font-size="10.00">server/include/Systems</text>
<text xml:space="preserve" text-anchor="middle" x="1346.37" y="-194" font-family="Helvetica,sans-Serif" font-size="10.00">/PlayerShootSystem.hpp</text>
</a>
</g>
</g>
<!-- Node1&#45;&gt;Node22 -->
<g id="edge28_Node000001_Node000022" class="edge">
<title>Node1&#45;&gt;Node22</title>
<g id="a_edge28_Node000001_Node000022"><a xlink:title=" ">
<path fill="none" stroke="#63b8ff" d="M1040.1,-254.51C1114.17,-242.42 1217.9,-225.48 1283.6,-214.75"/>
<polygon fill="#63b8ff" stroke="#63b8ff" points="1039.74,-251.02 1030.43,-256.09 1040.87,-257.93 1039.74,-251.02"/>
</a>
</g>
</g>
<!-- Node24 -->
<g id="Node000024" class="node">
<title>Node24</title>
<g id="a_Node000024"><a xlink:href="Room_8cpp.html" target="_top" xlink:title=" ">
<polygon fill="white" stroke="#666666" points="1794.75,-213.12 1658,-213.12 1658,-193.88 1794.75,-193.88 1794.75,-213.12"/>
<text xml:space="preserve" text-anchor="middle" x="1726.37" y="-199.62" font-family="Helvetica,sans-Serif" font-size="10.00">server/src/Game/Room.cpp</text>
</a>
</g>
</g>
<!-- Node1&#45;&gt;Node24 -->
<g id="edge32_Node000001_Node000024" class="edge">
<title>Node1&#45;&gt;Node24</title>
<g id="a_edge32_Node000001_Node000024"><a xlink:title=" ">
<path fill="none" stroke="#63b8ff" d="M1040.29,-265.69C1173.07,-260.04 1430.85,-246.38 1648.37,-218.75 1659.16,-217.38 1670.72,-215.5 1681.54,-213.55"/>
<polygon fill="#63b8ff" stroke="#63b8ff" points="1040.36,-262.18 1030.51,-266.1 1040.65,-269.18 1040.36,-262.18"/>
</a>
</g>
</g>
<!-- Node25 -->
<g id="Node000025" class="node">
<title>Node25</title>
<g id="a_Node000025"><a xlink:href="RoomSystem_8cpp.html" target="_top" xlink:title=" ">
<polygon fill="white" stroke="#666666" points="1914.12,-218.75 1812.62,-218.75 1812.62,-188.25 1914.12,-188.25 1914.12,-218.75"/>
<text xml:space="preserve" text-anchor="start" x="1820.62" y="-205.25" font-family="Helvetica,sans-Serif" font-size="10.00">server/src/Systems</text>
<text xml:space="preserve" text-anchor="middle" x="1863.37" y="-194" font-family="Helvetica,sans-Serif" font-size="10.00">/RoomSystem.cpp</text>
</a>
</g>
</g>
<!-- Node1&#45;&gt;Node25 -->
<g id="edge34_Node000001_Node000025" class="edge">
<title>Node1&#45;&gt;Node25</title>
<g id="a_edge34_Node000001_Node000025"><a xlink:title=" ">
<path fill="none" stroke="#63b8ff" d="M1040.42,-268.84C1196.03,-267.42 1527.17,-259.38 1803.37,-218.75 1806.34,-218.31 1809.37,-217.8 1812.43,-217.24"/>
<polygon fill="#63b8ff" stroke="#63b8ff" points="1040.56,-265.34 1030.59,-268.92 1040.62,-272.34 1040.56,-265.34"/>
</a>
</g>
</g>
<!-- Node3 -->
<g id="Node000003" class="node">
<title>Node3</title>
<g id="a_Node000003"><a xlink:href="GameManager_8hpp.html" target="_top" xlink:title=" ">
<polygon fill="white" stroke="#666666" points="737.37,-85.75 631.37,-85.75 631.37,-55.25 737.37,-55.25 737.37,-85.75"/>
<text xml:space="preserve" text-anchor="start" x="639.37" y="-72.25" font-family="Helvetica,sans-Serif" font-size="10.00">server/include/Game</text>
<text xml:space="preserve" text-anchor="middle" x="684.37" y="-61" font-family="Helvetica,sans-Serif" font-size="10.00">/GameManager.hpp</text>
</a>
</g>
</g>
<!-- Node2&#45;&gt;Node3 -->
<g id="edge2_Node000002_Node000003" class="edge">
<title>Node2&#45;&gt;Node3</title>
<g id="a_edge2_Node000002_Node000003"><a xlink:title=" ">
<path fill="none" stroke="#63b8ff" d="M664.3,-176.68C669.47,-149.59 677.41,-107.96 681.59,-86.08"/>
<polygon fill="#63b8ff" stroke="#63b8ff" points="660.86,-176.01 662.43,-186.49 667.74,-177.33 660.86,-176.01"/>
</a>
</g>
</g>
<!-- Node6 -->
<g id="Node000006" class="node">
<title>Node6</title>
<g id="a_Node000006"><a xlink:href="BoomerangSystem_8cpp.html" target="_top" xlink:title=" ">
<polygon fill="white" stroke="#666666" points="636.87,-152.25 515.87,-152.25 515.87,-121.75 636.87,-121.75 636.87,-152.25"/>
<text xml:space="preserve" text-anchor="start" x="523.87" y="-138.75" font-family="Helvetica,sans-Serif" font-size="10.00">server/src/Systems</text>
<text xml:space="preserve" text-anchor="middle" x="576.37" y="-127.5" font-family="Helvetica,sans-Serif" font-size="10.00">/BoomerangSystem.cpp</text>
</a>
</g>
</g>
<!-- Node2&#45;&gt;Node6 -->
<g id="edge5_Node000002_Node000006" class="edge">
<title>Node2&#45;&gt;Node6</title>
<g id="a_edge5_Node000002_Node000006"><a xlink:title=" ">
<path fill="none" stroke="#63b8ff" d="M631.76,-181.04C619.73,-171.69 605.94,-160.98 595.13,-152.58"/>
<polygon fill="#63b8ff" stroke="#63b8ff" points="629.3,-183.56 639.34,-186.94 633.59,-178.04 629.3,-183.56"/>
</a>
</g>
</g>
<!-- Node3&#45;&gt;Node4 -->
<g id="edge3_Node000003_Node000004" class="edge">
<title>Node3&#45;&gt;Node4</title>
<g id="a_edge3_Node000003_Node000004"><a xlink:title=" ">
<path fill="none" stroke="#63b8ff" d="M619.63,-60.53C539.9,-49.49 405.25,-30.83 325.08,-19.73"/>
<polygon fill="#63b8ff" stroke="#63b8ff" points="619.09,-63.99 629.48,-61.9 620.05,-57.06 619.09,-63.99"/>
</a>
</g>
</g>
<!-- Node5 -->
<g id="Node000005" class="node">
<title>Node5</title>
<g id="a_Node000005"><a xlink:href="server_2src_2main_8cpp.html" target="_top" xlink:title=" ">
<polygon fill="white" stroke="#666666" points="735.5,-19.25 633.25,-19.25 633.25,0 735.5,0 735.5,-19.25"/>
<text xml:space="preserve" text-anchor="middle" x="684.37" y="-5.75" font-family="Helvetica,sans-Serif" font-size="10.00">server/src/main.cpp</text>
</a>
</g>
</g>
<!-- Node3&#45;&gt;Node5 -->
<g id="edge4_Node000003_Node000005" class="edge">
<title>Node3&#45;&gt;Node5</title>
<g id="a_edge4_Node000003_Node000005"><a xlink:title=" ">
<path fill="none" stroke="#63b8ff" d="M684.37,-43.48C684.37,-34.98 684.37,-26.09 684.37,-19.7"/>
<polygon fill="#63b8ff" stroke="#63b8ff" points="680.87,-43.43 684.37,-53.43 687.87,-43.43 680.87,-43.43"/>
</a>
</g>
</g>
<!-- Node7&#45;&gt;Node3 -->
<g id="edge7_Node000007_Node000003" class="edge">
<title>Node7&#45;&gt;Node3</title>
<g id="a_edge7_Node000007_Node000003"><a xlink:title=" ">
<path fill="none" stroke="#63b8ff" d="M325.83,-177.72C335.73,-159.22 351.84,-134.95 373.37,-121.75 415.63,-95.84 553.95,-81.43 631.12,-75.22"/>
<polygon fill="#63b8ff" stroke="#63b8ff" points="322.8,-175.96 321.41,-186.46 329.05,-179.12 322.8,-175.96"/>
</a>
</g>
</g>
<!-- Node8 -->
<g id="Node000008" class="node">
<title>Node8</title>
<g id="a_Node000008"><a xlink:href="BulletCleanupSystem_8cpp.html" target="_top" xlink:title=" ">
<polygon fill="white" stroke="#666666" points="298.5,-152.25 166.25,-152.25 166.25,-121.75 298.5,-121.75 298.5,-152.25"/>
<text xml:space="preserve" text-anchor="start" x="174.25" y="-138.75" font-family="Helvetica,sans-Serif" font-size="10.00">server/src/Systems</text>
<text xml:space="preserve" text-anchor="middle" x="232.37" y="-127.5" font-family="Helvetica,sans-Serif" font-size="10.00">/BulletCleanupSystem.cpp</text>
</a>
</g>
</g>
<!-- Node7&#45;&gt;Node8 -->
<g id="edge8_Node000007_Node000008" class="edge">
<title>Node7&#45;&gt;Node8</title>
<g id="a_edge8_Node000007_Node000008"><a xlink:title=" ">
<path fill="none" stroke="#63b8ff" d="M286.74,-180.77C274.94,-171.48 261.48,-160.9 250.91,-152.58"/>
<polygon fill="#63b8ff" stroke="#63b8ff" points="284.55,-183.5 294.58,-186.93 288.88,-177.99 284.55,-183.5"/>
</a>
</g>
</g>
<!-- Node9&#45;&gt;Node3 -->
<g id="edge10_Node000009_Node000003" class="edge">
<title>Node9&#45;&gt;Node3</title>
<g id="a_edge10_Node000009_Node000003"><a xlink:title=" ">
<path fill="none" stroke="#63b8ff" d="M977.4,-180.15C994.22,-163.02 1010.4,-139.4 995.37,-121.75 962.89,-83.59 817.55,-74.32 737.57,-72.12"/>
<polygon fill="#63b8ff" stroke="#63b8ff" points="975.12,-177.49 970.32,-186.93 979.96,-182.54 975.12,-177.49"/>
</a>
</g>
</g>
<!-- Node10 -->
<g id="Node000010" class="node">
<title>Node10</title>
<g id="a_Node000010"><a xlink:href="CollisionSystem_8cpp.html" target="_top" xlink:title=" ">
<polygon fill="white" stroke="#666666" points="985.87,-152.25 876.87,-152.25 876.87,-121.75 985.87,-121.75 985.87,-152.25"/>
<text xml:space="preserve" text-anchor="start" x="884.87" y="-138.75" font-family="Helvetica,sans-Serif" font-size="10.00">server/src/Systems</text>
<text xml:space="preserve" text-anchor="middle" x="931.37" y="-127.5" font-family="Helvetica,sans-Serif" font-size="10.00">/CollisionSystem.cpp</text>
</a>
</g>
</g>
<!-- Node9&#45;&gt;Node10 -->
<g id="edge11_Node000009_Node000010" class="edge">
<title>Node9&#45;&gt;Node10</title>
<g id="a_edge11_Node000009_Node000010"><a xlink:title=" ">
<path fill="none" stroke="#63b8ff" d="M943.5,-177.13C940.92,-168.8 938.14,-159.83 935.89,-152.58"/>
<polygon fill="#63b8ff" stroke="#63b8ff" points="940.08,-177.9 946.39,-186.42 946.77,-175.83 940.08,-177.9"/>
</a>
</g>
</g>
<!-- Node11&#45;&gt;Node3 -->
<g id="edge13_Node000011_Node000003" class="edge">
<title>Node11&#45;&gt;Node3</title>
<g id="a_edge13_Node000011_Node000003"><a xlink:title=" ">
<path fill="none" stroke="#63b8ff" d="M57.49,-181.75C33.64,-165.04 9.34,-141.21 27.37,-121.75 68.07,-77.82 481.67,-72.14 630.98,-71.52"/>
<polygon fill="#63b8ff" stroke="#63b8ff" points="55.34,-184.53 65.6,-187.16 59.22,-178.7 55.34,-184.53"/>
</a>
</g>
</g>
<!-- Node12 -->
<g id="Node000012" class="node">
<title>Node12</title>
<g id="a_Node000012"><a xlink:href="EnemyAISystem_8cpp.html" target="_top" xlink:title=" ">
<polygon fill="white" stroke="#666666" points="148.37,-152.25 36.37,-152.25 36.37,-121.75 148.37,-121.75 148.37,-152.25"/>
<text xml:space="preserve" text-anchor="start" x="44.37" y="-138.75" font-family="Helvetica,sans-Serif" font-size="10.00">server/src/Systems</text>
<text xml:space="preserve" text-anchor="middle" x="92.37" y="-127.5" font-family="Helvetica,sans-Serif" font-size="10.00">/EnemyAISystem.cpp</text>
</a>
</g>
</g>
<!-- Node11&#45;&gt;Node12 -->
<g id="edge14_Node000011_Node000012" class="edge">
<title>Node11&#45;&gt;Node12</title>
<g id="a_edge14_Node000011_Node000012"><a xlink:title=" ">
<path fill="none" stroke="#63b8ff" d="M92.37,-176.56C92.37,-168.39 92.37,-159.66 92.37,-152.58"/>
<polygon fill="#63b8ff" stroke="#63b8ff" points="88.87,-176.35 92.37,-186.35 95.87,-176.35 88.87,-176.35"/>
</a>
</g>
</g>
<!-- Node13&#45;&gt;Node3 -->
<g id="edge16_Node000013_Node000003" class="edge">
<title>Node13&#45;&gt;Node3</title>
<g id="a_edge16_Node000013_Node000003"><a xlink:title=" ">
<path fill="none" stroke="#63b8ff" d="M759.95,-182.17C746.72,-174.21 732.82,-164.11 722.37,-152.25 704.96,-132.48 693.92,-103.36 688.46,-86.02"/>
<polygon fill="#63b8ff" stroke="#63b8ff" points="758.14,-185.17 768.56,-187.09 761.61,-179.09 758.14,-185.17"/>
</a>
</g>
</g>
<!-- Node14 -->
<g id="Node000014" class="node">
<title>Node14</title>
<g id="a_Node000014"><a xlink:href="EnemyShootSystem_8cpp.html" target="_top" xlink:title=" ">
<polygon fill="white" stroke="#666666" points="859.25,-152.25 731.5,-152.25 731.5,-121.75 859.25,-121.75 859.25,-152.25"/>
<text xml:space="preserve" text-anchor="start" x="739.5" y="-138.75" font-family="Helvetica,sans-Serif" font-size="10.00">server/src/Systems</text>
<text xml:space="preserve" text-anchor="middle" x="795.37" y="-127.5" font-family="Helvetica,sans-Serif" font-size="10.00">/EnemyShootSystem.cpp</text>
</a>
</g>
</g>
<!-- Node13&#45;&gt;Node14 -->
<g id="edge17_Node000013_Node000014" class="edge">
<title>Node13&#45;&gt;Node14</title>
<g id="a_edge17_Node000013_Node000014"><a xlink:title=" ">
<path fill="none" stroke="#63b8ff" d="M798.96,-176.56C798.2,-168.39 797.39,-159.66 796.73,-152.58"/>
<polygon fill="#63b8ff" stroke="#63b8ff" points="795.46,-176.72 799.87,-186.36 802.43,-176.08 795.46,-176.72"/>
</a>
</g>
</g>
<!-- Node15&#45;&gt;Node3 -->
<g id="edge19_Node000015_Node000003" class="edge">
<title>Node15&#45;&gt;Node3</title>
<g id="a_edge19_Node000015_Node000003"><a xlink:title=" ">
<path fill="none" stroke="#63b8ff" d="M1083.35,-179.18C1066.68,-160.46 1040.75,-135.17 1012.37,-121.75 964.72,-99.22 817.59,-83.22 737.55,-75.93"/>
<polygon fill="#63b8ff" stroke="#63b8ff" points="1080.58,-181.33 1089.76,-186.61 1085.88,-176.76 1080.58,-181.33"/>
</a>
</g>
</g>
<!-- Node16 -->
<g id="Node000016" class="node">
<title>Node16</title>
<g id="a_Node000016"><a xlink:href="LevelSystem_8hpp.html" target="_top" xlink:title=" ">
<polygon fill="white" stroke="#666666" points="1318.75,-152.25 1200,-152.25 1200,-121.75 1318.75,-121.75 1318.75,-152.25"/>
<text xml:space="preserve" text-anchor="start" x="1208" y="-138.75" font-family="Helvetica,sans-Serif" font-size="10.00">server/include/Systems</text>
<text xml:space="preserve" text-anchor="middle" x="1259.37" y="-127.5" font-family="Helvetica,sans-Serif" font-size="10.00">/LevelSystem.hpp</text>
</a>
</g>
</g>
<!-- Node15&#45;&gt;Node16 -->
<g id="edge20_Node000015_Node000016" class="edge">
<title>Node15&#45;&gt;Node16</title>
<g id="a_edge20_Node000015_Node000016"><a xlink:title=" ">
<path fill="none" stroke="#63b8ff" d="M1148.62,-183.5C1172.58,-173.66 1201.39,-161.82 1223.62,-152.69"/>
<polygon fill="#63b8ff" stroke="#63b8ff" points="1147.32,-180.25 1139.4,-187.29 1149.98,-186.73 1147.32,-180.25"/>
</a>
</g>
</g>
<!-- Node18 -->
<g id="Node000018" class="node">
<title>Node18</title>
<g id="a_Node000018"><a xlink:href="EntitySystem_8cpp.html" target="_top" xlink:title=" ">
<polygon fill="white" stroke="#666666" points="1182.12,-152.25 1080.62,-152.25 1080.62,-121.75 1182.12,-121.75 1182.12,-152.25"/>
<text xml:space="preserve" text-anchor="start" x="1088.62" y="-138.75" font-family="Helvetica,sans-Serif" font-size="10.00">server/src/Systems</text>
<text xml:space="preserve" text-anchor="middle" x="1131.37" y="-127.5" font-family="Helvetica,sans-Serif" font-size="10.00">/EntitySystem.cpp</text>
</a>
</g>
</g>
<!-- Node15&#45;&gt;Node18 -->
<g id="edge23_Node000015_Node000018" class="edge">
<title>Node15&#45;&gt;Node18</title>
<g id="a_edge23_Node000015_Node000018"><a xlink:title=" ">
<path fill="none" stroke="#63b8ff" d="M1113.65,-177.41C1117.43,-169 1121.52,-159.91 1124.82,-152.58"/>
<polygon fill="#63b8ff" stroke="#63b8ff" points="1110.48,-175.93 1109.57,-186.48 1116.87,-178.8 1110.48,-175.93"/>
</a>
</g>
</g>
<!-- Node16&#45;&gt;Node3 -->
<g id="edge21_Node000016_Node000003" class="edge">
<title>Node16&#45;&gt;Node3</title>
<g id="a_edge21_Node000016_Node000003"><a xlink:title=" ">
<path fill="none" stroke="#63b8ff" d="M1188.56,-121.42C1018.39,-95.77 828.12,-81.04 737.53,-74.87"/>
<polygon fill="#63b8ff" stroke="#63b8ff" points="1187.82,-124.85 1198.24,-122.89 1188.88,-117.93 1187.82,-124.85"/>
</a>
</g>
</g>
<!-- Node16&#45;&gt;Node17 -->
<g id="edge22_Node000016_Node000017" class="edge">
<title>Node16&#45;&gt;Node17</title>
<g id="a_edge22_Node000016_Node000017"><a xlink:title=" ">
<path fill="none" stroke="#63b8ff" d="M1299.69,-116.45C1319.84,-106.68 1343.8,-95.06 1362.31,-86.08"/>
<polygon fill="#63b8ff" stroke="#63b8ff" points="1298.38,-113.19 1290.91,-120.7 1301.44,-119.49 1298.38,-113.19"/>
</a>
</g>
</g>
<!-- Node19&#45;&gt;Node3 -->
<g id="edge25_Node000019_Node000003" class="edge">
<title>Node19&#45;&gt;Node3</title>
<g id="a_edge25_Node000019_Node000003"><a xlink:title=" ">
<path fill="none" stroke="#63b8ff" d="M418.52,-182.27C392.11,-166.21 365.37,-143.01 383.37,-121.75 414.49,-85.01 553.14,-75.11 630.95,-72.46"/>
<polygon fill="#63b8ff" stroke="#63b8ff" points="416.44,-185.1 426.84,-187.08 419.94,-179.04 416.44,-185.1"/>
</a>
</g>
</g>
<!-- Node20 -->
<g id="Node000020" class="node">
<title>Node20</title>
<g id="a_Node000020"><a xlink:href="HomingSystem_8cpp.html" target="_top" xlink:title=" ">
<polygon fill="white" stroke="#666666" points="498,-152.25 392.75,-152.25 392.75,-121.75 498,-121.75 498,-152.25"/>
<text xml:space="preserve" text-anchor="start" x="400.75" y="-138.75" font-family="Helvetica,sans-Serif" font-size="10.00">server/src/Systems</text>
<text xml:space="preserve" text-anchor="middle" x="445.37" y="-127.5" font-family="Helvetica,sans-Serif" font-size="10.00">/HomingSystem.cpp</text>
</a>
</g>
</g>
<!-- Node19&#45;&gt;Node20 -->
<g id="edge26_Node000019_Node000020" class="edge">
<title>Node19&#45;&gt;Node20</title>
<g id="a_edge26_Node000019_Node000020"><a xlink:title=" ">
<path fill="none" stroke="#63b8ff" d="M453.2,-176.84C451.54,-168.59 449.75,-159.74 448.31,-152.58"/>
<polygon fill="#63b8ff" stroke="#63b8ff" points="449.72,-177.27 455.12,-186.38 456.58,-175.89 449.72,-177.27"/>
</a>
</g>
</g>
<!-- Node22&#45;&gt;Node3 -->
<g id="edge29_Node000022_Node000003" class="edge">
<title>Node22&#45;&gt;Node3</title>
<g id="a_edge29_Node000022_Node000003"><a xlink:title=" ">
<path fill="none" stroke="#63b8ff" d="M1347.66,-176.66C1347.05,-158.47 1342.9,-135.07 1327.37,-121.75 1283.04,-83.73 883.93,-74.31 737.73,-72.12"/>
<polygon fill="#63b8ff" stroke="#63b8ff" points="1344.16,-176.45 1347.63,-186.46 1351.16,-176.47 1344.16,-176.45"/>
</a>
</g>
</g>
<!-- Node23 -->
<g id="Node000023" class="node">
<title>Node23</title>
<g id="a_Node000023"><a xlink:href="PlayerShootSystem_8cpp.html" target="_top" xlink:title=" ">
<polygon fill="white" stroke="#666666" points="1498.75,-152.25 1374,-152.25 1374,-121.75 1498.75,-121.75 1498.75,-152.25"/>
<text xml:space="preserve" text-anchor="start" x="1382" y="-138.75" font-family="Helvetica,sans-Serif" font-size="10.00">server/src/Systems</text>
<text xml:space="preserve" text-anchor="middle" x="1436.37" y="-127.5" font-family="Helvetica,sans-Serif" font-size="10.00">/PlayerShootSystem.cpp</text>
</a>
</g>
</g>
<!-- Node22&#45;&gt;Node23 -->
<g id="edge30_Node000022_Node000023" class="edge">
<title>Node22&#45;&gt;Node23</title>
<g id="a_edge30_Node000022_Node000023"><a xlink:title=" ">
<path fill="none" stroke="#63b8ff" d="M1375.93,-181.32C1389.06,-171.91 1404.19,-161.06 1416.03,-152.58"/>
<polygon fill="#63b8ff" stroke="#63b8ff" points="1374.11,-178.31 1368.02,-186.98 1378.19,-184 1374.11,-178.31"/>
</a>
</g>
</g>
</g>
</svg>

<g id="navigator" transform="translate(0 0)" fill="#404254">
  <rect fill="#f2f5e9" fill-opacity="0.5" stroke="#606060" stroke-width=".5" x="0" y="0" width="60" height="60"/>
  <use id="zoomplus" xlink:href="#zoomPlus" x="17" y="9" onmousedown="handleZoom(evt,'in')"/>
  <use id="zoomminus" xlink:href="#zoomMin" x="42" y="9" onmousedown="handleZoom(evt,'out')"/>
  <use id="reset" xlink:href="#resetDef" x="30" y="36" onmousedown="handleReset()"/>
   <use id="arrowup" xlink:href="#arrowUp" x="0" y="0" onmousedown="handlePan(0,-1)"/>
  <use id="arrowright" xlink:href="#arrowRight" x="0" y="0" onmousedown="handlePan(1,0)"/>
  <use id="arrowdown" xlink:href="#arrowDown" x="0" y="0" onmousedown="handlePan(0,1)"/>
  <use id="arrowleft" xlink:href="#arrowLeft" x="0" y="0" onmousedown="handlePan(-1,0)"/>
</g>
<svg viewBox="0 0 15 15" width="100%" height="30px" preserveAspectRatio="xMaxYMin meet">
 <g id="arrow_out" transform="scale(0.3 0.3)">
  <a xlink:href="RoomId_8hpp__dep__incl_org.svg" target="_base">
   <rect id="button" ry="5" rx="5" y="6" x="6" height="38" width="38"
        fill="#f2f5e9" fill-opacity="0.5" stroke="#606060" stroke-width="1.0"/>
   <path id="arrow"
     d="M 11.500037,31.436501 C 11.940474,20.09759 22.043105,11.32322 32.158766,21.979434 L 37.068811,17.246167 C 37.068811,17.246167 37.088388,32 37.088388,32 L 22.160133,31.978069 C 22.160133,31.978069 26.997745,27.140456 26.997745,27.140456 C 18.528582,18.264221 13.291696,25.230495 11.500037,31.436501 z"
     style="fill:#404040;"/>
  </a>
 </g>
</svg>

<style type='text/css'>
<![CDATA[
[data-mouse-over-selected='false'] { opacity: 0.7; }
[data-mouse-over-selected='true']  { opacity: 1.0; }
]]>
</style>
<script type="application/ecmascript"><![CDATA[
document.addEventListener('DOMContentLoaded', (event) => {
  highlightEdges();
  highlightAdjacentNodes();
});
]]></script>
</svg>
