<?xml version="1.0" encoding="UTF-8" standalone="no"?>
<!DOCTYPE svg PUBLIC "-//W3C//DTD SVG 1.1//EN"
 "http://www.w3.org/Graphics/SVG/1.1/DTD/svg11.dtd">
<!-- Generated by graphviz version 14.0.5 (20251129.0259)
 -->
<!-- Title: server/include/Game/Room.hpp Pages: 1 -->
<!--zoomable 293 -->

<svg id="main" version="1.1" xmlns="http://www.w3.org/2000/svg" xmlns:xlink="http://www.w3.org/1999/xlink" xml:space="preserve" onload="init(evt)">

<style type="text/css"><![CDATA[
.node, .edge {opacity: 0.7;}
.node.selected, .edge.selected {opacity: 1;}
.edge:hover path { stroke: red; }
.edge:hover polygon { stroke: red; fill: red; }
]]></style>

<defs>
  <circle id="rim" cx="0" cy="0" r="7"/>
  <circle id="rim2" cx="0" cy="0" r="3.5"/>
  <g id="zoomPlus">
    <use xlink:href="#rim" fill="#404040"><set attributeName="fill" to="#808080" begin="zoomplus.mouseover" end="zoomplus.mouseout"/></use>
    <path d="M-4,0h8M0,-4v8" fill="none" stroke="white" stroke-width="1.5" pointer-events="none"/>
  </g>
  <g id="zoomMin">
    <use xlink:href="#rim" fill="#404040"><set attributeName="fill" to="#808080" begin="zoomminus.mouseover" end="zoomminus.mouseout"/></use>
    <path d="M-4,0h8" fill="none" stroke="white" stroke-width="1.5" pointer-events="none"/>
  </g>
  <g id="arrowUp" transform="translate(30 24)">
    <use xlink:href="#rim"/>
    <path pointer-events="none" fill="none" stroke="white" stroke-width="1.5" d="M0,-3.0v7 M-2.5,-0.5L0,-3.0L2.5,-0.5"/>
  </g>
  <g id="arrowRight" transform="rotate(90) translate(36 -43)">
    <use xlink:href="#rim"/>
    <path pointer-events="none" fill="none" stroke="white" stroke-width="1.5" d="M0,-3.0v7 M-2.5,-0.5L0,-3.0L2.5,-0.5"/>
  </g>
  <g id="arrowDown" transform="rotate(180) translate(-30 -48)">
    <use xlink:href="#rim"/>
    <path pointer-events="none" fill="none" stroke="white" stroke-width="1.5" d="M0,-3.0v7 M-2.5,-0.5L0,-3.0L2.5,-0.5"/>
  </g>
  <g id="arrowLeft" transform="rotate(270) translate(-36 17)">
    <use xlink:href="#rim"/>
    <path pointer-events="none" fill="none" stroke="white" stroke-width="1.5" d="M0,-3.0v7 M-2.5,-0.5L0,-3.0L2.5,-0.5"/>
  </g>
  <g id="resetDef">
    <use xlink:href="#rim2" fill="#404040"><set attributeName="fill" to="#808080" begin="reset.mouseover" end="reset.mouseout"/></use>
  </g>
</defs>
<script type="application/ecmascript">
var viewWidth = 897;
var viewHeight = 293;
var sectionId = 'dynsection-1';
</script>
<script type="application/ecmascript" xlink:href="svg.min.js"/>
<svg id="graph" class="graph">
<g id="viewport">
<title>server/include/Game/Room.hpp</title>
<!-- Node1 -->
<g id="Node000001" class="node">
<title>Node1</title>
<g id="a_Node000001"><a xlink:title=" ">
<polygon fill="#999999" stroke="#666666" points="564.38,-285.25 458.38,-285.25 458.38,-254.75 564.38,-254.75 564.38,-285.25"/>
<text xml:space="preserve" text-anchor="start" x="466.38" y="-271.75" font-family="Helvetica,sans-Serif" font-size="10.00">server/include/Game</text>
<text xml:space="preserve" text-anchor="middle" x="511.38" y="-260.5" font-family="Helvetica,sans-Serif" font-size="10.00">/Room.hpp</text>
</a>
</g>
</g>
<!-- Node2 -->
<g id="Node000002" class="node">
<title>Node2</title>
<g id="a_Node000002"><a xlink:href="GameManager_8hpp.html" target="_top" xlink:title=" ">
<polygon fill="white" stroke="#666666" points="400.38,-85.75 294.38,-85.75 294.38,-55.25 400.38,-55.25 400.38,-85.75"/>
<text xml:space="preserve" text-anchor="start" x="302.38" y="-72.25" font-family="Helvetica,sans-Serif" font-size="10.00">server/include/Game</text>
<text xml:space="preserve" text-anchor="middle" x="347.38" y="-61" font-family="Helvetica,sans-Serif" font-size="10.00">/GameManager.hpp</text>
</a>
</g>
</g>
<!-- Node1&#45;&gt;Node2 -->
<g id="edge1_Node000001_Node000002" class="edge">
<title>Node1&#45;&gt;Node2</title>
<g id="a_edge1_Node000001_Node000002"><a xlink:title=" ">
<path fill="none" stroke="#63b8ff" d="M447,-257.3C355.46,-239.12 195.42,-201.02 165.38,-152.25 158.27,-140.71 157.16,-132.54 165.38,-121.75 169.41,-116.45 241.65,-97.63 293.89,-84.59"/>
<polygon fill="#63b8ff" stroke="#63b8ff" points="446.11,-260.69 456.59,-259.18 447.45,-253.82 446.11,-260.69"/>
</a>
</g>
</g>
<!-- Node5 -->
<g id="Node000005" class="node">
<title>Node5</title>
<g id="a_Node000005"><a xlink:href="RoomSystem_8hpp.html" target="_top" xlink:title=" ">
<polygon fill="white" stroke="#666666" points="424.75,-218.75 306,-218.75 306,-188.25 424.75,-188.25 424.75,-218.75"/>
<text xml:space="preserve" text-anchor="start" x="314" y="-205.25" font-family="Helvetica,sans-Serif" font-size="10.00">server/include/Systems</text>
<text xml:space="preserve" text-anchor="middle" x="365.38" y="-194" font-family="Helvetica,sans-Serif" font-size="10.00">/RoomSystem.hpp</text>
</a>
</g>
</g>
<!-- Node1&#45;&gt;Node5 -->
<g id="edge4_Node000001_Node000005" class="edge">
<title>Node1&#45;&gt;Node5</title>
<g id="a_edge4_Node000001_Node000005"><a xlink:title=" ">
<path fill="none" stroke="#63b8ff" d="M467.76,-249.73C445.6,-239.94 419.11,-228.24 398.63,-219.19"/>
<polygon fill="#63b8ff" stroke="#63b8ff" points="466.3,-252.91 476.86,-253.75 469.13,-246.51 466.3,-252.91"/>
</a>
</g>
</g>
<!-- Node17 -->
<g id="Node000017" class="node">
<title>Node17</title>
<g id="a_Node000017"><a xlink:href="Room_8cpp.html" target="_top" xlink:title=" ">
<polygon fill="white" stroke="#666666" points="579.75,-213.12 443,-213.12 443,-193.88 579.75,-193.88 579.75,-213.12"/>
<text xml:space="preserve" text-anchor="middle" x="511.38" y="-199.62" font-family="Helvetica,sans-Serif" font-size="10.00">server/src/Game/Room.cpp</text>
</a>
</g>
</g>
<!-- Node1&#45;&gt;Node17 -->
<g id="edge22_Node000001_Node000017" class="edge">
<title>Node1&#45;&gt;Node17</title>
<g id="a_edge22_Node000001_Node000017"><a xlink:title=" ">
<path fill="none" stroke="#63b8ff" d="M511.38,-243.09C511.38,-232.51 511.38,-221 511.38,-213.32"/>
<polygon fill="#63b8ff" stroke="#63b8ff" points="507.88,-242.85 511.38,-252.85 514.88,-242.85 507.88,-242.85"/>
</a>
</g>
</g>
<!-- Node18 -->
<g id="Node000018" class="node">
<title>Node18</title>
<g id="a_Node000018"><a xlink:href="server_2src_2Systems_2NetworkSyncSystem_8cpp.html" target="_top" xlink:title=" ">
<polygon fill="white" stroke="#666666" points="728.75,-218.75 598,-218.75 598,-188.25 728.75,-188.25 728.75,-218.75"/>
<text xml:space="preserve" text-anchor="start" x="606" y="-205.25" font-family="Helvetica,sans-Serif" font-size="10.00">server/src/Systems</text>
<text xml:space="preserve" text-anchor="middle" x="663.38" y="-194" font-family="Helvetica,sans-Serif" font-size="10.00">/NetworkSyncSystem.cpp</text>
</a>
</g>
</g>
<!-- Node1&#45;&gt;Node18 -->
<g id="edge23_Node000001_Node000018" class="edge">
<title>Node1&#45;&gt;Node18</title>
<g id="a_edge23_Node000001_Node000018"><a xlink:title=" ">
<path fill="none" stroke="#63b8ff" d="M556.15,-250C579.35,-240.16 607.24,-228.32 628.76,-219.19"/>
<polygon fill="#63b8ff" stroke="#63b8ff" points="555.1,-246.64 547.26,-253.77 557.83,-253.09 555.1,-246.64"/>
</a>
</g>
</g>
<!-- Node19 -->
<g id="Node000019" class="node">
<title>Node19</title>
<g id="a_Node000019"><a xlink:href="ServerNetworkSystem_8cpp.html" target="_top" xlink:title=" ">
<polygon fill="white" stroke="#666666" points="883.75,-218.75 747,-218.75 747,-188.25 883.75,-188.25 883.75,-218.75"/>
<text xml:space="preserve" text-anchor="start" x="755" y="-205.25" font-family="Helvetica,sans-Serif" font-size="10.00">server/src/Systems</text>
<text xml:space="preserve" text-anchor="middle" x="815.38" y="-194" font-family="Helvetica,sans-Serif" font-size="10.00">/ServerNetworkSystem.cpp</text>
</a>
</g>
</g>
<!-- Node1&#45;&gt;Node19 -->
<g id="edge24_Node000001_Node000019" class="edge">
<title>Node1&#45;&gt;Node19</title>
<g id="a_edge24_Node000001_Node000019"><a xlink:title=" ">
<path fill="none" stroke="#63b8ff" d="M575.71,-255.35C625.87,-244.71 695.38,-229.96 746.64,-219.08"/>
<polygon fill="#63b8ff" stroke="#63b8ff" points="575.21,-251.88 566.16,-257.38 576.66,-258.73 575.21,-251.88"/>
</a>
</g>
</g>
<!-- Node3 -->
<g id="Node000003" class="node">
<title>Node3</title>
<g id="a_Node000003"><a xlink:href="GameManager_8cpp.html" target="_top" xlink:title=" ">
<polygon fill="white" stroke="#666666" points="356.12,-19.25 182.62,-19.25 182.62,0 356.12,0 356.12,-19.25"/>
<text xml:space="preserve" text-anchor="middle" x="269.38" y="-5.75" font-family="Helvetica,sans-Serif" font-size="10.00">server/src/Game/GameManager.cpp</text>
</a>
</g>
</g>
<!-- Node2&#45;&gt;Node3 -->
<g id="edge2_Node000002_Node000003" class="edge">
<title>Node2&#45;&gt;Node3</title>
<g id="a_edge2_Node000002_Node000003"><a xlink:title=" ">
<path fill="none" stroke="#63b8ff" d="M319.05,-48.12C306.08,-38.33 291.41,-27.26 281.4,-19.7"/>
<polygon fill="#63b8ff" stroke="#63b8ff" points="316.8,-50.8 326.89,-54.03 321.01,-45.22 316.8,-50.8"/>
</a>
</g>
</g>
<!-- Node4 -->
<g id="Node000004" class="node">
<title>Node4</title>
<g id="a_Node000004"><a xlink:href="server_2src_2main_8cpp.html" target="_top" xlink:title=" ">
<polygon fill="white" stroke="#666666" points="476.5,-19.25 374.25,-19.25 374.25,0 476.5,0 476.5,-19.25"/>
<text xml:space="preserve" text-anchor="middle" x="425.38" y="-5.75" font-family="Helvetica,sans-Serif" font-size="10.00">server/src/main.cpp</text>
</a>
</g>
</g>
<!-- Node2&#45;&gt;Node4 -->
<g id="edge3_Node000002_Node000004" class="edge">
<title>Node2&#45;&gt;Node4</title>
<g id="a_edge3_Node000002_Node000004"><a xlink:title=" ">
<path fill="none" stroke="#63b8ff" d="M375.7,-48.12C388.67,-38.33 403.34,-27.26 413.35,-19.7"/>
<polygon fill="#63b8ff" stroke="#63b8ff" points="373.74,-45.22 367.86,-54.03 377.95,-50.8 373.74,-45.22"/>
</a>
</g>
</g>
<!-- Node5&#45;&gt;Node2 -->
<g id="edge5_Node000005_Node000002" class="edge">
<title>Node5&#45;&gt;Node2</title>
<g id="a_edge5_Node000005_Node000002"><a xlink:title=" ">
<path fill="none" stroke="#63b8ff" d="M353.32,-177.61C350.07,-169.69 347.01,-160.77 345.38,-152.25 341.02,-129.53 343.11,-102.55 345.15,-86.24"/>
<polygon fill="#63b8ff" stroke="#63b8ff" points="350.05,-178.87 357.29,-186.61 356.45,-176.05 350.05,-178.87"/>
</a>
</g>
</g>
<!-- Node6 -->
<g id="Node000006" class="node">
<title>Node6</title>
<g id="a_Node000006"><a xlink:href="BulletCleanupSystem_8hpp.html" target="_top" xlink:title=" ">
<polygon fill="white" stroke="#666666" points="606.5,-152.25 474.25,-152.25 474.25,-121.75 606.5,-121.75 606.5,-152.25"/>
<text xml:space="preserve" text-anchor="start" x="482.25" y="-138.75" font-family="Helvetica,sans-Serif" font-size="10.00">server/include/Systems</text>
<text xml:space="preserve" text-anchor="middle" x="540.38" y="-127.5" font-family="Helvetica,sans-Serif" font-size="10.00">/BulletCleanupSystem.hpp</text>
</a>
</g>
</g>
<!-- Node5&#45;&gt;Node6 -->
<g id="edge6_Node000005_Node000006" class="edge">
<title>Node5&#45;&gt;Node6</title>
<g id="a_edge6_Node000005_Node000006"><a xlink:title=" ">
<path fill="none" stroke="#63b8ff" d="M415.85,-183.9C442.76,-173.98 475.41,-161.95 500.52,-152.69"/>
<polygon fill="#63b8ff" stroke="#63b8ff" points="414.68,-180.6 406.51,-187.34 417.1,-187.17 414.68,-180.6"/>
</a>
</g>
</g>
<!-- Node8 -->
<g id="Node000008" class="node">
<title>Node8</title>
<g id="a_Node000008"><a xlink:href="CollisionSystem_8hpp.html" target="_top" xlink:title=" ">
<polygon fill="white" stroke="#666666" points="743.75,-152.25 625,-152.25 625,-121.75 743.75,-121.75 743.75,-152.25"/>
<text xml:space="preserve" text-anchor="start" x="633" y="-138.75" font-family="Helvetica,sans-Serif" font-size="10.00">server/include/Systems</text>
<text xml:space="preserve" text-anchor="middle" x="684.38" y="-127.5" font-family="Helvetica,sans-Serif" font-size="10.00">/CollisionSystem.hpp</text>
</a>
</g>
</g>
<!-- Node5&#45;&gt;Node8 -->
<g id="edge9_Node000005_Node000008" class="edge">
<title>Node5&#45;&gt;Node8</title>
<g id="a_edge9_Node000005_Node000008"><a xlink:title=" ">
<path fill="none" stroke="#63b8ff" d="M436.38,-187.85C516.61,-171.64 538.44,-167.84 615.38,-152.25 618.37,-151.64 621.44,-151.02 624.54,-150.38"/>
<polygon fill="#63b8ff" stroke="#63b8ff" points="435.8,-184.4 426.69,-189.81 437.19,-191.26 435.8,-184.4"/>
</a>
</g>
</g>
<!-- Node10 -->
<g id="Node000010" class="node">
<title>Node10</title>
<g id="a_Node000010"><a xlink:href="EnemyShootSystem_8hpp.html" target="_top" xlink:title=" ">
<polygon fill="white" stroke="#666666" points="889.25,-152.25 761.5,-152.25 761.5,-121.75 889.25,-121.75 889.25,-152.25"/>
<text xml:space="preserve" text-anchor="start" x="769.5" y="-138.75" font-family="Helvetica,sans-Serif" font-size="10.00">server/include/Systems</text>
<text xml:space="preserve" text-anchor="middle" x="825.38" y="-127.5" font-family="Helvetica,sans-Serif" font-size="10.00">/EnemyShootSystem.hpp</text>
</a>
</g>
</g>
<!-- Node5&#45;&gt;Node10 -->
<g id="edge12_Node000005_Node000010" class="edge">
<title>Node5&#45;&gt;Node10</title>
<g id="a_edge12_Node000005_Node000010"><a xlink:title=" ">
<path fill="none" stroke="#63b8ff" d="M436.34,-188.04C576.78,-166.23 615.36,-173.34 752.38,-152.25 755.31,-151.8 758.31,-151.31 761.33,-150.8"/>
<polygon fill="#63b8ff" stroke="#63b8ff" points="435.98,-184.56 426.65,-189.57 437.07,-191.47 435.98,-184.56"/>
</a>
</g>
</g>
<!-- Node12 -->
<g id="Node000012" class="node">
<title>Node12</title>
<g id="a_Node000012"><a xlink:href="LevelSystem_8hpp.html" target="_top" xlink:title=" ">
<polygon fill="white" stroke="#666666" points="118.75,-152.25 0,-152.25 0,-121.75 118.75,-121.75 118.75,-152.25"/>
<text xml:space="preserve" text-anchor="start" x="8" y="-138.75" font-family="Helvetica,sans-Serif" font-size="10.00">server/include/Systems</text>
<text xml:space="preserve" text-anchor="middle" x="59.38" y="-127.5" font-family="Helvetica,sans-Serif" font-size="10.00">/LevelSystem.hpp</text>
</a>
</g>
</g>
<!-- Node5&#45;&gt;Node12 -->
<g id="edge15_Node000005_Node000012" class="edge">
<title>Node5&#45;&gt;Node12</title>
<g id="a_edge15_Node000005_Node000012"><a xlink:title=" ">
<path fill="none" stroke="#63b8ff" d="M294.61,-187.58C241.47,-176.38 169.5,-161.21 119.21,-150.61"/>
<polygon fill="#63b8ff" stroke="#63b8ff" points="293.66,-190.96 304.17,-189.6 295.1,-184.11 293.66,-190.96"/>
</a>
</g>
</g>
<!-- Node14 -->
<g id="Node000014" class="node">
<title>Node14</title>
<g id="a_Node000014"><a xlink:href="PlayerShootSystem_8hpp.html" target="_top" xlink:title=" ">
<polygon fill="white" stroke="#666666" points="298.75,-152.25 174,-152.25 174,-121.75 298.75,-121.75 298.75,-152.25"/>
<text xml:space="preserve" text-anchor="start" x="182" y="-138.75" font-family="Helvetica,sans-Serif" font-size="10.00">server/include/Systems</text>
<text xml:space="preserve" text-anchor="middle" x="236.38" y="-127.5" font-family="Helvetica,sans-Serif" font-size="10.00">/PlayerShootSystem.hpp</text>
</a>
</g>
</g>
<!-- Node5&#45;&gt;Node14 -->
<g id="edge18_Node000005_Node000014" class="edge">
<title>Node5&#45;&gt;Node14</title>
<g id="a_edge18_Node000005_Node000014"><a xlink:title=" ">
<path fill="none" stroke="#63b8ff" d="M326,-182.81C306.51,-173.07 283.4,-161.51 265.53,-152.58"/>
<polygon fill="#63b8ff" stroke="#63b8ff" points="324.24,-185.85 334.75,-187.19 327.37,-179.58 324.24,-185.85"/>
</a>
</g>
</g>
<!-- Node16 -->
<g id="Node000016" class="node">
<title>Node16</title>
<g id="a_Node000016"><a xlink:href="RoomSystem_8cpp.html" target="_top" xlink:title=" ">
<polygon fill="white" stroke="#666666" points="456.12,-152.25 354.62,-152.25 354.62,-121.75 456.12,-121.75 456.12,-152.25"/>
<text xml:space="preserve" text-anchor="start" x="362.62" y="-138.75" font-family="Helvetica,sans-Serif" font-size="10.00">server/src/Systems</text>
<text xml:space="preserve" text-anchor="middle" x="405.38" y="-127.5" font-family="Helvetica,sans-Serif" font-size="10.00">/RoomSystem.cpp</text>
</a>
</g>
</g>
<!-- Node5&#45;&gt;Node16 -->
<g id="edge21_Node000005_Node000016" class="edge">
<title>Node5&#45;&gt;Node16</title>
<g id="a_edge21_Node000005_Node000016"><a xlink:title=" ">
<path fill="none" stroke="#63b8ff" d="M380.41,-178.26C385.77,-169.62 391.64,-160.16 396.33,-152.58"/>
<polygon fill="#63b8ff" stroke="#63b8ff" points="377.55,-176.23 375.25,-186.58 383.49,-179.92 377.55,-176.23"/>
</a>
</g>
</g>
<!-- Node6&#45;&gt;Node2 -->
<g id="edge7_Node000006_Node000002" class="edge">
<title>Node6&#45;&gt;Node2</title>
<g id="a_edge7_Node000006_Node000002"><a xlink:title=" ">
<path fill="none" stroke="#63b8ff" d="M485.89,-117.79C455.99,-107.8 419.39,-95.57 391.33,-86.19"/>
<polygon fill="#63b8ff" stroke="#63b8ff" points="484.55,-121.03 495.14,-120.88 486.77,-114.39 484.55,-121.03"/>
</a>
</g>
</g>
<!-- Node7 -->
<g id="Node000007" class="node">
<title>Node7</title>
<g id="a_Node000007"><a xlink:href="BulletCleanupSystem_8cpp.html" target="_top" xlink:title=" ">
<polygon fill="white" stroke="#666666" points="606.5,-85.75 474.25,-85.75 474.25,-55.25 606.5,-55.25 606.5,-85.75"/>
<text xml:space="preserve" text-anchor="start" x="482.25" y="-72.25" font-family="Helvetica,sans-Serif" font-size="10.00">server/src/Systems</text>
<text xml:space="preserve" text-anchor="middle" x="540.38" y="-61" font-family="Helvetica,sans-Serif" font-size="10.00">/BulletCleanupSystem.cpp</text>
</a>
</g>
</g>
<!-- Node6&#45;&gt;Node7 -->
<g id="edge8_Node000006_Node000007" class="edge">
<title>Node6&#45;&gt;Node7</title>
<g id="a_edge8_Node000006_Node000007"><a xlink:title=" ">
<path fill="none" stroke="#63b8ff" d="M540.38,-110.06C540.38,-101.89 540.38,-93.16 540.38,-86.08"/>
<polygon fill="#63b8ff" stroke="#63b8ff" points="536.88,-109.85 540.38,-119.85 543.88,-109.85 536.88,-109.85"/>
</a>
</g>
</g>
<!-- Node8&#45;&gt;Node2 -->
<g id="edge10_Node000008_Node000002" class="edge">
<title>Node8&#45;&gt;Node2</title>
<g id="a_edge10_Node000008_Node000002"><a xlink:title=" ">
<path fill="none" stroke="#63b8ff" d="M613.29,-121.36C533.39,-105.69 452.52,-90.7 400.82,-81.22"/>
<polygon fill="#63b8ff" stroke="#63b8ff" points="612.58,-124.79 623.06,-123.28 613.93,-117.92 612.58,-124.79"/>
</a>
</g>
</g>
<!-- Node9 -->
<g id="Node000009" class="node">
<title>Node9</title>
<g id="a_Node000009"><a xlink:href="CollisionSystem_8cpp.html" target="_top" xlink:title=" ">
<polygon fill="white" stroke="#666666" points="738.88,-85.75 629.88,-85.75 629.88,-55.25 738.88,-55.25 738.88,-85.75"/>
<text xml:space="preserve" text-anchor="start" x="637.88" y="-72.25" font-family="Helvetica,sans-Serif" font-size="10.00">server/src/Systems</text>
<text xml:space="preserve" text-anchor="middle" x="684.38" y="-61" font-family="Helvetica,sans-Serif" font-size="10.00">/CollisionSystem.cpp</text>
</a>
</g>
</g>
<!-- Node8&#45;&gt;Node9 -->
<g id="edge11_Node000008_Node000009" class="edge">
<title>Node8&#45;&gt;Node9</title>
<g id="a_edge11_Node000008_Node000009"><a xlink:title=" ">
<path fill="none" stroke="#63b8ff" d="M684.38,-110.06C684.38,-101.89 684.38,-93.16 684.38,-86.08"/>
<polygon fill="#63b8ff" stroke="#63b8ff" points="680.88,-109.85 684.38,-119.85 687.88,-109.85 680.88,-109.85"/>
</a>
</g>
</g>
<!-- Node10&#45;&gt;Node2 -->
<g id="edge13_Node000010_Node000002" class="edge">
<title>Node10&#45;&gt;Node2</title>
<g id="a_edge13_Node000010_Node000002"><a xlink:title=" ">
<path fill="none" stroke="#63b8ff" d="M749.98,-121.6C696.05,-114.21 497.61,-89.87 400.86,-78.04"/>
<polygon fill="#63b8ff" stroke="#63b8ff" points="749.43,-125.06 759.83,-123.02 750.43,-118.13 749.43,-125.06"/>
</a>
</g>
</g>
<!-- Node11 -->
<g id="Node000011" class="node">
<title>Node11</title>
<g id="a_Node000011"><a xlink:href="EnemyShootSystem_8cpp.html" target="_top" xlink:title=" ">
<polygon fill="white" stroke="#666666" points="889.25,-85.75 761.5,-85.75 761.5,-55.25 889.25,-55.25 889.25,-85.75"/>
<text xml:space="preserve" text-anchor="start" x="769.5" y="-72.25" font-family="Helvetica,sans-Serif" font-size="10.00">server/src/Systems</text>
<text xml:space="preserve" text-anchor="middle" x="825.38" y="-61" font-family="Helvetica,sans-Serif" font-size="10.00">/EnemyShootSystem.cpp</text>
</a>
</g>
</g>
<!-- Node10&#45;&gt;Node11 -->
<g id="edge14_Node000010_Node000011" class="edge">
<title>Node10&#45;&gt;Node11</title>
<g id="a_edge14_Node000010_Node000011"><a xlink:title=" ">
<path fill="none" stroke="#63b8ff" d="M825.38,-110.06C825.38,-101.89 825.38,-93.16 825.38,-86.08"/>
<polygon fill="#63b8ff" stroke="#63b8ff" points="821.88,-109.85 825.38,-119.85 828.88,-109.85 821.88,-109.85"/>
</a>
</g>
</g>
<!-- Node12&#45;&gt;Node2 -->
<g id="edge16_Node000012_Node000002" class="edge">
<title>Node12&#45;&gt;Node2</title>
<g id="a_edge16_Node000012_Node000002"><a xlink:title=" ">
<path fill="none" stroke="#63b8ff" d="M129.9,-120.46C174.49,-110.59 233.33,-97.52 285.38,-85.75 288.18,-85.12 291.05,-84.47 293.95,-83.81"/>
<polygon fill="#63b8ff" stroke="#63b8ff" points="129.37,-116.99 120.36,-122.56 130.88,-123.82 129.37,-116.99"/>
</a>
</g>
</g>
<!-- Node13 -->
<g id="Node000013" class="node">
<title>Node13</title>
<g id="a_Node000013"><a xlink:href="LevelSystem_8cpp.html" target="_top" xlink:title=" ">
<polygon fill="white" stroke="#666666" points="110.12,-85.75 8.62,-85.75 8.62,-55.25 110.12,-55.25 110.12,-85.75"/>
<text xml:space="preserve" text-anchor="start" x="16.62" y="-72.25" font-family="Helvetica,sans-Serif" font-size="10.00">server/src/Systems</text>
<text xml:space="preserve" text-anchor="middle" x="59.38" y="-61" font-family="Helvetica,sans-Serif" font-size="10.00">/LevelSystem.cpp</text>
</a>
</g>
</g>
<!-- Node12&#45;&gt;Node13 -->
<g id="edge17_Node000012_Node000013" class="edge">
<title>Node12&#45;&gt;Node13</title>
<g id="a_edge17_Node000012_Node000013"><a xlink:title=" ">
<path fill="none" stroke="#63b8ff" d="M59.38,-110.06C59.38,-101.89 59.38,-93.16 59.38,-86.08"/>
<polygon fill="#63b8ff" stroke="#63b8ff" points="55.88,-109.85 59.38,-119.85 62.88,-109.85 55.88,-109.85"/>
</a>
</g>
</g>
<!-- Node14&#45;&gt;Node2 -->
<g id="edge19_Node000014_Node000002" class="edge">
<title>Node14&#45;&gt;Node2</title>
<g id="a_edge19_Node000014_Node000002"><a xlink:title=" ">
<path fill="none" stroke="#63b8ff" d="M271.42,-115.64C287.94,-106.04 307.26,-94.81 322.29,-86.08"/>
<polygon fill="#63b8ff" stroke="#63b8ff" points="269.76,-112.55 262.87,-120.6 273.28,-118.61 269.76,-112.55"/>
</a>
</g>
</g>
<!-- Node15 -->
<g id="Node000015" class="node">
<title>Node15</title>
<g id="a_Node000015"><a xlink:href="PlayerShootSystem_8cpp.html" target="_top" xlink:title=" ">
<polygon fill="white" stroke="#666666" points="276.75,-85.75 152,-85.75 152,-55.25 276.75,-55.25 276.75,-85.75"/>
<text xml:space="preserve" text-anchor="start" x="160" y="-72.25" font-family="Helvetica,sans-Serif" font-size="10.00">server/src/Systems</text>
<text xml:space="preserve" text-anchor="middle" x="214.38" y="-61" font-family="Helvetica,sans-Serif" font-size="10.00">/PlayerShootSystem.cpp</text>
</a>
</g>
</g>
<!-- Node14&#45;&gt;Node15 -->
<g id="edge20_Node000014_Node000015" class="edge">
<title>Node14&#45;&gt;Node15</title>
<g id="a_edge20_Node000014_Node000015"><a xlink:title=" ">
<path fill="none" stroke="#63b8ff" d="M227.72,-110.63C224.88,-102.3 221.82,-93.33 219.35,-86.08"/>
<polygon fill="#63b8ff" stroke="#63b8ff" points="224.35,-111.6 230.89,-119.93 230.98,-109.34 224.35,-111.6"/>
</a>
</g>
</g>
</g>
</svg>

<g id="navigator" transform="translate(0 0)" fill="#404254">
  <rect fill="#f2f5e9" fill-opacity="0.5" stroke="#606060" stroke-width=".5" x="0" y="0" width="60" height="60"/>
  <use id="zoomplus" xlink:href="#zoomPlus" x="17" y="9" onmousedown="handleZoom(evt,'in')"/>
  <use id="zoomminus" xlink:href="#zoomMin" x="42" y="9" onmousedown="handleZoom(evt,'out')"/>
  <use id="reset" xlink:href="#resetDef" x="30" y="36" onmousedown="handleReset()"/>
   <use id="arrowup" xlink:href="#arrowUp" x="0" y="0" onmousedown="handlePan(0,-1)"/>
  <use id="arrowright" xlink:href="#arrowRight" x="0" y="0" onmousedown="handlePan(1,0)"/>
  <use id="arrowdown" xlink:href="#arrowDown" x="0" y="0" onmousedown="handlePan(0,1)"/>
  <use id="arrowleft" xlink:href="#arrowLeft" x="0" y="0" onmousedown="handlePan(-1,0)"/>
</g>
<svg viewBox="0 0 15 15" width="100%" height="30px" preserveAspectRatio="xMaxYMin meet">
 <g id="arrow_out" transform="scale(0.3 0.3)">
  <a xlink:href="Room_8hpp__dep__incl_org.svg" target="_base">
   <rect id="button" ry="5" rx="5" y="6" x="6" height="38" width="38"
        fill="#f2f5e9" fill-opacity="0.5" stroke="#606060" stroke-width="1.0"/>
   <path id="arrow"
     d="M 11.500037,31.436501 C 11.940474,20.09759 22.043105,11.32322 32.158766,21.979434 L 37.068811,17.246167 C 37.068811,17.246167 37.088388,32 37.088388,32 L 22.160133,31.978069 C 22.160133,31.978069 26.997745,27.140456 26.997745,27.140456 C 18.528582,18.264221 13.291696,25.230495 11.500037,31.436501 z"
     style="fill:#404040;"/>
  </a>
 </g>
</svg>

<style type='text/css'>
<![CDATA[
[data-mouse-over-selected='false'] { opacity: 0.7; }
[data-mouse-over-selected='true']  { opacity: 1.0; }
]]>
</style>
<script type="application/ecmascript"><![CDATA[
document.addEventListener('DOMContentLoaded', (event) => {
  highlightEdges();
  highlightAdjacentNodes();
});
]]></script>
</svg>
