<?xml version="1.0" encoding="UTF-8" standalone="no"?>
<!DOCTYPE svg PUBLIC "-//W3C//DTD SVG 1.1//EN"
 "http://www.w3.org/Graphics/SVG/1.1/DTD/svg11.dtd">
<!-- Generated by graphviz version 14.0.5 (20251129.0259)
 -->
<!-- Title: server/include/ServerNetwork/ServerNetwork.hpp Pages: 1 -->
<!--zoomable 293 -->

<svg id="main" version="1.1" xmlns="http://www.w3.org/2000/svg" xmlns:xlink="http://www.w3.org/1999/xlink" xml:space="preserve" onload="init(evt)">

<style type="text/css"><![CDATA[
.node, .edge {opacity: 0.7;}
.node.selected, .edge.selected {opacity: 1;}
.edge:hover path { stroke: red; }
.edge:hover polygon { stroke: red; fill: red; }
]]></style>

<defs>
  <circle id="rim" cx="0" cy="0" r="7"/>
  <circle id="rim2" cx="0" cy="0" r="3.5"/>
  <g id="zoomPlus">
    <use xlink:href="#rim" fill="#404040"><set attributeName="fill" to="#808080" begin="zoomplus.mouseover" end="zoomplus.mouseout"/></use>
    <path d="M-4,0h8M0,-4v8" fill="none" stroke="white" stroke-width="1.5" pointer-events="none"/>
  </g>
  <g id="zoomMin">
    <use xlink:href="#rim" fill="#404040"><set attributeName="fill" to="#808080" begin="zoomminus.mouseover" end="zoomminus.mouseout"/></use>
    <path d="M-4,0h8" fill="none" stroke="white" stroke-width="1.5" pointer-events="none"/>
  </g>
  <g id="arrowUp" transform="translate(30 24)">
    <use xlink:href="#rim"/>
    <path pointer-events="none" fill="none" stroke="white" stroke-width="1.5" d="M0,-3.0v7 M-2.5,-0.5L0,-3.0L2.5,-0.5"/>
  </g>
  <g id="arrowRight" transform="rotate(90) translate(36 -43)">
    <use xlink:href="#rim"/>
    <path pointer-events="none" fill="none" stroke="white" stroke-width="1.5" d="M0,-3.0v7 M-2.5,-0.5L0,-3.0L2.5,-0.5"/>
  </g>
  <g id="arrowDown" transform="rotate(180) translate(-30 -48)">
    <use xlink:href="#rim"/>
    <path pointer-events="none" fill="none" stroke="white" stroke-width="1.5" d="M0,-3.0v7 M-2.5,-0.5L0,-3.0L2.5,-0.5"/>
  </g>
  <g id="arrowLeft" transform="rotate(270) translate(-36 17)">
    <use xlink:href="#rim"/>
    <path pointer-events="none" fill="none" stroke="white" stroke-width="1.5" d="M0,-3.0v7 M-2.5,-0.5L0,-3.0L2.5,-0.5"/>
  </g>
  <g id="resetDef">
    <use xlink:href="#rim2" fill="#404040"><set attributeName="fill" to="#808080" begin="reset.mouseover" end="reset.mouseout"/></use>
  </g>
</defs>
<script type="application/ecmascript">
var viewWidth = 1386;
var viewHeight = 293;
var sectionId = 'dynsection-1';
</script>
<script type="application/ecmascript" xlink:href="svg.min.js"/>
<svg id="graph" class="graph">
<g id="viewport">
<title>server/include/ServerNetwork/ServerNetwork.hpp</title>
<!-- Node1 -->
<g id="Node000001" class="node">
<title>Node1</title>
<g id="a_Node000001"><a xlink:title=" ">
<polygon fill="#999999" stroke="#666666" points="551.32,-285.25 406.32,-285.25 406.32,-254.75 551.32,-254.75 551.32,-285.25"/>
<text xml:space="preserve" text-anchor="start" x="414.32" y="-271.75" font-family="Helvetica,sans-Serif" font-size="10.00">server/include/ServerNetwork</text>
<text xml:space="preserve" text-anchor="middle" x="478.82" y="-260.5" font-family="Helvetica,sans-Serif" font-size="10.00">/ServerNetwork.hpp</text>
</a>
</g>
</g>
<!-- Node2 -->
<g id="Node000002" class="node">
<title>Node2</title>
<g id="a_Node000002"><a xlink:href="GameManager_8hpp.html" target="_top" xlink:title=" ">
<polygon fill="white" stroke="#666666" points="681.82,-85.75 575.82,-85.75 575.82,-55.25 681.82,-55.25 681.82,-85.75"/>
<text xml:space="preserve" text-anchor="start" x="583.82" y="-72.25" font-family="Helvetica,sans-Serif" font-size="10.00">server/include/Game</text>
<text xml:space="preserve" text-anchor="middle" x="628.82" y="-61" font-family="Helvetica,sans-Serif" font-size="10.00">/GameManager.hpp</text>
</a>
</g>
</g>
<!-- Node1&#45;&gt;Node2 -->
<g id="edge1_Node000001_Node000002" class="edge">
<title>Node1&#45;&gt;Node2</title>
<g id="a_edge1_Node000001_Node000002"><a xlink:title=" ">
<path fill="none" stroke="#63b8ff" d="M562.57,-258.42C586.43,-251.14 609.96,-238.99 624.82,-218.75 654.18,-178.76 641.34,-114.82 633.39,-86.19"/>
<polygon fill="#63b8ff" stroke="#63b8ff" points="561.78,-255.01 553.07,-261.03 563.64,-261.76 561.78,-255.01"/>
</a>
</g>
</g>
<!-- Node4 -->
<g id="Node000004" class="node">
<title>Node4</title>
<g id="a_Node000004"><a xlink:href="server_2src_2main_8cpp.html" target="_top" xlink:title=" ">
<polygon fill="white" stroke="#666666" points="280.94,-19.25 178.69,-19.25 178.69,0 280.94,0 280.94,-19.25"/>
<text xml:space="preserve" text-anchor="middle" x="229.82" y="-5.75" font-family="Helvetica,sans-Serif" font-size="10.00">server/src/main.cpp</text>
</a>
</g>
</g>
<!-- Node1&#45;&gt;Node4 -->
<g id="edge34_Node000001_Node000004" class="edge">
<title>Node1&#45;&gt;Node4</title>
<g id="a_edge34_Node000001_Node000004"><a xlink:title=" ">
<path fill="none" stroke="#63b8ff" d="M394.71,-265.61C290.96,-260.26 121.47,-247.35 65.82,-218.75 30.15,-200.42 19.36,-189.63 4.82,-152.25 -25.86,-73.43 102.67,-34.88 178.2,-19.34"/>
<polygon fill="#63b8ff" stroke="#63b8ff" points="394.42,-269.1 404.58,-266.1 394.77,-262.11 394.42,-269.1"/>
</a>
</g>
</g>
<!-- Node5 -->
<g id="Node000005" class="node">
<title>Node5</title>
<g id="a_Node000005"><a xlink:href="AuthSystem_8hpp.html" target="_top" xlink:title=" ">
<polygon fill="white" stroke="#666666" points="193.19,-218.75 74.44,-218.75 74.44,-188.25 193.19,-188.25 193.19,-218.75"/>
<text xml:space="preserve" text-anchor="start" x="82.44" y="-205.25" font-family="Helvetica,sans-Serif" font-size="10.00">server/include/Systems</text>
<text xml:space="preserve" text-anchor="middle" x="133.82" y="-194" font-family="Helvetica,sans-Serif" font-size="10.00">/AuthSystem.hpp</text>
</a>
</g>
</g>
<!-- Node1&#45;&gt;Node5 -->
<g id="edge4_Node000001_Node000005" class="edge">
<title>Node1&#45;&gt;Node5</title>
<g id="a_edge4_Node000001_Node000005"><a xlink:title=" ">
<path fill="none" stroke="#63b8ff" d="M395.04,-254.28C340.28,-244.52 267.23,-231.26 202.82,-218.75 199.82,-218.17 196.74,-217.56 193.64,-216.94"/>
<polygon fill="#63b8ff" stroke="#63b8ff" points="394.14,-257.67 404.6,-255.98 395.37,-250.78 394.14,-257.67"/>
</a>
</g>
</g>
<!-- Node7 -->
<g id="Node000007" class="node">
<title>Node7</title>
<g id="a_Node000007"><a xlink:href="EntitySystem_8hpp.html" target="_top" xlink:title=" ">
<polygon fill="white" stroke="#666666" points="330.19,-218.75 211.44,-218.75 211.44,-188.25 330.19,-188.25 330.19,-218.75"/>
<text xml:space="preserve" text-anchor="start" x="219.44" y="-205.25" font-family="Helvetica,sans-Serif" font-size="10.00">server/include/Systems</text>
<text xml:space="preserve" text-anchor="middle" x="270.82" y="-194" font-family="Helvetica,sans-Serif" font-size="10.00">/EntitySystem.hpp</text>
</a>
</g>
</g>
<!-- Node1&#45;&gt;Node7 -->
<g id="edge7_Node000001_Node000007" class="edge">
<title>Node1&#45;&gt;Node7</title>
<g id="a_edge7_Node000001_Node000007"><a xlink:title=" ">
<path fill="none" stroke="#63b8ff" d="M420.69,-250.97C388.31,-240.93 348.52,-228.59 318.07,-219.15"/>
<polygon fill="#63b8ff" stroke="#63b8ff" points="419.33,-254.22 429.91,-253.83 421.4,-247.53 419.33,-254.22"/>
</a>
</g>
</g>
<!-- Node11 -->
<g id="Node000011" class="node">
<title>Node11</title>
<g id="a_Node000011"><a xlink:href="server_2include_2Systems_2NetworkSyncSystem_8hpp.html" target="_top" xlink:title=" ">
<polygon fill="white" stroke="#666666" points="616.19,-218.75 485.44,-218.75 485.44,-188.25 616.19,-188.25 616.19,-218.75"/>
<text xml:space="preserve" text-anchor="start" x="493.44" y="-205.25" font-family="Helvetica,sans-Serif" font-size="10.00">server/include/Systems</text>
<text xml:space="preserve" text-anchor="middle" x="550.82" y="-194" font-family="Helvetica,sans-Serif" font-size="10.00">/NetworkSyncSystem.hpp</text>
</a>
</g>
</g>
<!-- Node1&#45;&gt;Node11 -->
<g id="edge13_Node000001_Node000011" class="edge">
<title>Node1&#45;&gt;Node11</title>
<g id="a_edge13_Node000001_Node000011"><a xlink:title=" ">
<path fill="none" stroke="#63b8ff" d="M503.7,-246.71C513.91,-237.57 525.44,-227.23 534.55,-219.08"/>
<polygon fill="#63b8ff" stroke="#63b8ff" points="501.4,-244.07 496.28,-253.35 506.07,-249.29 501.4,-244.07"/>
</a>
</g>
</g>
<!-- Node12 -->
<g id="Node000012" class="node">
<title>Node12</title>
<g id="a_Node000012"><a xlink:href="PlayerSystem_8hpp.html" target="_top" xlink:title=" ">
<polygon fill="white" stroke="#666666" points="467.19,-218.75 348.44,-218.75 348.44,-188.25 467.19,-188.25 467.19,-218.75"/>
<text xml:space="preserve" text-anchor="start" x="356.44" y="-205.25" font-family="Helvetica,sans-Serif" font-size="10.00">server/include/Systems</text>
<text xml:space="preserve" text-anchor="middle" x="407.82" y="-194" font-family="Helvetica,sans-Serif" font-size="10.00">/PlayerSystem.hpp</text>
</a>
</g>
</g>
<!-- Node1&#45;&gt;Node12 -->
<g id="edge14_Node000001_Node000012" class="edge">
<title>Node1&#45;&gt;Node12</title>
<g id="a_edge14_Node000001_Node000012"><a xlink:title=" ">
<path fill="none" stroke="#63b8ff" d="M454.29,-246.71C444.22,-237.57 432.84,-227.23 423.87,-219.08"/>
<polygon fill="#63b8ff" stroke="#63b8ff" points="451.83,-249.21 461.59,-253.35 456.54,-244.03 451.83,-249.21"/>
</a>
</g>
</g>
<!-- Node14 -->
<g id="Node000014" class="node">
<title>Node14</title>
<g id="a_Node000014"><a xlink:href="RoomSystem_8hpp.html" target="_top" xlink:title=" ">
<polygon fill="white" stroke="#666666" points="821.19,-218.75 702.44,-218.75 702.44,-188.25 821.19,-188.25 821.19,-218.75"/>
<text xml:space="preserve" text-anchor="start" x="710.44" y="-205.25" font-family="Helvetica,sans-Serif" font-size="10.00">server/include/Systems</text>
<text xml:space="preserve" text-anchor="middle" x="761.82" y="-194" font-family="Helvetica,sans-Serif" font-size="10.00">/RoomSystem.hpp</text>
</a>
</g>
</g>
<!-- Node1&#45;&gt;Node14 -->
<g id="edge17_Node000001_Node000014" class="edge">
<title>Node1&#45;&gt;Node14</title>
<g id="a_edge17_Node000001_Node000014"><a xlink:title=" ">
<path fill="none" stroke="#63b8ff" d="M554.59,-251.73C600.93,-241.17 659.36,-227.85 702.35,-218.05"/>
<polygon fill="#63b8ff" stroke="#63b8ff" points="553.84,-248.31 544.87,-253.95 555.39,-255.14 553.84,-248.31"/>
</a>
</g>
</g>
<!-- Node24 -->
<g id="Node000024" class="node">
<title>Node24</title>
<g id="a_Node000024"><a xlink:href="ServerNetwork_8cpp.html" target="_top" xlink:title=" ">
<polygon fill="white" stroke="#666666" points="966.69,-218.75 838.94,-218.75 838.94,-188.25 966.69,-188.25 966.69,-218.75"/>
<text xml:space="preserve" text-anchor="start" x="846.94" y="-205.25" font-family="Helvetica,sans-Serif" font-size="10.00">server/src/ServerNetwork</text>
<text xml:space="preserve" text-anchor="middle" x="902.82" y="-194" font-family="Helvetica,sans-Serif" font-size="10.00">/ServerNetwork.cpp</text>
</a>
</g>
</g>
<!-- Node1&#45;&gt;Node24 -->
<g id="edge33_Node000001_Node000024" class="edge">
<title>Node1&#45;&gt;Node24</title>
<g id="a_edge33_Node000001_Node000024"><a xlink:title=" ">
<path fill="none" stroke="#63b8ff" d="M562.72,-258.2C633.95,-248.75 738.79,-234.14 829.82,-218.75 832.75,-218.25 835.74,-217.73 838.76,-217.2"/>
<polygon fill="#63b8ff" stroke="#63b8ff" points="562.54,-254.7 553.09,-259.48 563.46,-261.63 562.54,-254.7"/>
</a>
</g>
</g>
<!-- Node3 -->
<g id="Node000003" class="node">
<title>Node3</title>
<g id="a_Node000003"><a xlink:href="GameManager_8cpp.html" target="_top" xlink:title=" ">
<polygon fill="white" stroke="#666666" points="715.57,-19.25 542.07,-19.25 542.07,0 715.57,0 715.57,-19.25"/>
<text xml:space="preserve" text-anchor="middle" x="628.82" y="-5.75" font-family="Helvetica,sans-Serif" font-size="10.00">server/src/Game/GameManager.cpp</text>
</a>
</g>
</g>
<!-- Node2&#45;&gt;Node3 -->
<g id="edge2_Node000002_Node000003" class="edge">
<title>Node2&#45;&gt;Node3</title>
<g id="a_edge2_Node000002_Node000003"><a xlink:title=" ">
<path fill="none" stroke="#63b8ff" d="M628.82,-43.48C628.82,-34.98 628.82,-26.09 628.82,-19.7"/>
<polygon fill="#63b8ff" stroke="#63b8ff" points="625.32,-43.43 628.82,-53.43 632.32,-43.43 625.32,-43.43"/>
</a>
</g>
</g>
<!-- Node2&#45;&gt;Node4 -->
<g id="edge3_Node000002_Node000004" class="edge">
<title>Node2&#45;&gt;Node4</title>
<g id="a_edge3_Node000002_Node000004"><a xlink:title=" ">
<path fill="none" stroke="#63b8ff" d="M564.19,-59.96C485.35,-48.33 353.67,-28.9 281.32,-18.22"/>
<polygon fill="#63b8ff" stroke="#63b8ff" points="563.52,-63.4 573.92,-61.4 564.54,-56.48 563.52,-63.4"/>
</a>
</g>
</g>
<!-- Node5&#45;&gt;Node2 -->
<g id="edge5_Node000005_Node000002" class="edge">
<title>Node5&#45;&gt;Node2</title>
<g id="a_edge5_Node000005_Node000002"><a xlink:title=" ">
<path fill="none" stroke="#63b8ff" d="M136.06,-176.53C139.09,-158.26 146.19,-134.84 162.82,-121.75 178.88,-109.11 457,-85.34 575.76,-75.71"/>
<polygon fill="#63b8ff" stroke="#63b8ff" points="132.59,-176.02 134.77,-186.39 139.53,-176.92 132.59,-176.02"/>
</a>
</g>
</g>
<!-- Node6 -->
<g id="Node000006" class="node">
<title>Node6</title>
<g id="a_Node000006"><a xlink:href="AuthSystem_8cpp.html" target="_top" xlink:title=" ">
<polygon fill="white" stroke="#666666" points="115.57,-152.25 14.07,-152.25 14.07,-121.75 115.57,-121.75 115.57,-152.25"/>
<text xml:space="preserve" text-anchor="start" x="22.07" y="-138.75" font-family="Helvetica,sans-Serif" font-size="10.00">server/src/Systems</text>
<text xml:space="preserve" text-anchor="middle" x="64.82" y="-127.5" font-family="Helvetica,sans-Serif" font-size="10.00">/AuthSystem.cpp</text>
</a>
</g>
</g>
<!-- Node5&#45;&gt;Node6 -->
<g id="edge6_Node000005_Node000006" class="edge">
<title>Node5&#45;&gt;Node6</title>
<g id="a_edge6_Node000005_Node000006"><a xlink:title=" ">
<path fill="none" stroke="#63b8ff" d="M109.98,-180.21C100.19,-171.07 89.14,-160.73 80.41,-152.58"/>
<polygon fill="#63b8ff" stroke="#63b8ff" points="107.36,-182.56 117.06,-186.83 112.14,-177.44 107.36,-182.56"/>
</a>
</g>
</g>
<!-- Node7&#45;&gt;Node2 -->
<g id="edge8_Node000007_Node000002" class="edge">
<title>Node7&#45;&gt;Node2</title>
<g id="a_edge8_Node000007_Node000002"><a xlink:title=" ">
<path fill="none" stroke="#63b8ff" d="M340.11,-184.47C365.68,-176.42 394.36,-165.67 418.82,-152.25 437.8,-141.83 437.61,-131.76 456.82,-121.75 494.34,-102.2 540.54,-89.24 575.6,-81.39"/>
<polygon fill="#63b8ff" stroke="#63b8ff" points="339.34,-181.04 330.81,-187.31 341.39,-187.74 339.34,-181.04"/>
</a>
</g>
</g>
<!-- Node8 -->
<g id="Node000008" class="node">
<title>Node8</title>
<g id="a_Node000008"><a xlink:href="LevelSystem_8hpp.html" target="_top" xlink:title=" ">
<polygon fill="white" stroke="#666666" points="410.19,-152.25 291.44,-152.25 291.44,-121.75 410.19,-121.75 410.19,-152.25"/>
<text xml:space="preserve" text-anchor="start" x="299.44" y="-138.75" font-family="Helvetica,sans-Serif" font-size="10.00">server/include/Systems</text>
<text xml:space="preserve" text-anchor="middle" x="350.82" y="-127.5" font-family="Helvetica,sans-Serif" font-size="10.00">/LevelSystem.hpp</text>
</a>
</g>
</g>
<!-- Node7&#45;&gt;Node8 -->
<g id="edge9_Node000007_Node000008" class="edge">
<title>Node7&#45;&gt;Node8</title>
<g id="a_edge9_Node000007_Node000008"><a xlink:title=" ">
<path fill="none" stroke="#63b8ff" d="M297.77,-180.77C309.29,-171.48 322.42,-160.9 332.74,-152.58"/>
<polygon fill="#63b8ff" stroke="#63b8ff" points="295.74,-177.91 290.15,-186.91 300.13,-183.36 295.74,-177.91"/>
</a>
</g>
</g>
<!-- Node10 -->
<g id="Node000010" class="node">
<title>Node10</title>
<g id="a_Node000010"><a xlink:href="EntitySystem_8cpp.html" target="_top" xlink:title=" ">
<polygon fill="white" stroke="#666666" points="273.57,-152.25 172.07,-152.25 172.07,-121.75 273.57,-121.75 273.57,-152.25"/>
<text xml:space="preserve" text-anchor="start" x="180.07" y="-138.75" font-family="Helvetica,sans-Serif" font-size="10.00">server/src/Systems</text>
<text xml:space="preserve" text-anchor="middle" x="222.82" y="-127.5" font-family="Helvetica,sans-Serif" font-size="10.00">/EntitySystem.cpp</text>
</a>
</g>
</g>
<!-- Node7&#45;&gt;Node10 -->
<g id="edge12_Node000007_Node000010" class="edge">
<title>Node7&#45;&gt;Node10</title>
<g id="a_edge12_Node000007_Node000010"><a xlink:title=" ">
<path fill="none" stroke="#63b8ff" d="M253.2,-178.82C246.65,-170.03 239.43,-160.32 233.67,-152.58"/>
<polygon fill="#63b8ff" stroke="#63b8ff" points="250.24,-180.72 259.02,-186.65 255.86,-176.54 250.24,-180.72"/>
</a>
</g>
</g>
<!-- Node8&#45;&gt;Node2 -->
<g id="edge10_Node000008_Node000002" class="edge">
<title>Node8&#45;&gt;Node2</title>
<g id="a_edge10_Node000008_Node000002"><a xlink:title=" ">
<path fill="none" stroke="#63b8ff" d="M421.67,-119.56C469.52,-108.46 531.69,-94.04 575.39,-83.9"/>
<polygon fill="#63b8ff" stroke="#63b8ff" points="420.88,-116.15 411.93,-121.82 422.46,-122.97 420.88,-116.15"/>
</a>
</g>
</g>
<!-- Node9 -->
<g id="Node000009" class="node">
<title>Node9</title>
<g id="a_Node000009"><a xlink:href="LevelSystem_8cpp.html" target="_top" xlink:title=" ">
<polygon fill="white" stroke="#666666" points="401.57,-85.75 300.07,-85.75 300.07,-55.25 401.57,-55.25 401.57,-85.75"/>
<text xml:space="preserve" text-anchor="start" x="308.07" y="-72.25" font-family="Helvetica,sans-Serif" font-size="10.00">server/src/Systems</text>
<text xml:space="preserve" text-anchor="middle" x="350.82" y="-61" font-family="Helvetica,sans-Serif" font-size="10.00">/LevelSystem.cpp</text>
</a>
</g>
</g>
<!-- Node8&#45;&gt;Node9 -->
<g id="edge11_Node000008_Node000009" class="edge">
<title>Node8&#45;&gt;Node9</title>
<g id="a_edge11_Node000008_Node000009"><a xlink:title=" ">
<path fill="none" stroke="#63b8ff" d="M350.82,-110.06C350.82,-101.89 350.82,-93.16 350.82,-86.08"/>
<polygon fill="#63b8ff" stroke="#63b8ff" points="347.32,-109.85 350.82,-119.85 354.32,-109.85 347.32,-109.85"/>
</a>
</g>
</g>
<!-- Node12&#45;&gt;Node2 -->
<g id="edge15_Node000012_Node000002" class="edge">
<title>Node12&#45;&gt;Node2</title>
<g id="a_edge15_Node000012_Node000002"><a xlink:title=" ">
<path fill="none" stroke="#63b8ff" d="M478.14,-186.8C517.1,-177.1 560.82,-164.26 576.82,-152.25 599.89,-134.93 615.53,-104.14 623.24,-86"/>
<polygon fill="#63b8ff" stroke="#63b8ff" points="477.65,-183.32 468.77,-189.09 479.32,-190.12 477.65,-183.32"/>
</a>
</g>
</g>
<!-- Node13 -->
<g id="Node000013" class="node">
<title>Node13</title>
<g id="a_Node000013"><a xlink:href="PlayerSystem_8cpp.html" target="_top" xlink:title=" ">
<polygon fill="white" stroke="#666666" points="567.57,-152.25 466.07,-152.25 466.07,-121.75 567.57,-121.75 567.57,-152.25"/>
<text xml:space="preserve" text-anchor="start" x="474.07" y="-138.75" font-family="Helvetica,sans-Serif" font-size="10.00">server/src/Systems</text>
<text xml:space="preserve" text-anchor="middle" x="516.82" y="-127.5" font-family="Helvetica,sans-Serif" font-size="10.00">/PlayerSystem.cpp</text>
</a>
</g>
</g>
<!-- Node12&#45;&gt;Node13 -->
<g id="edge16_Node000012_Node000013" class="edge">
<title>Node12&#45;&gt;Node13</title>
<g id="a_edge16_Node000012_Node000013"><a xlink:title=" ">
<path fill="none" stroke="#63b8ff" d="M442.23,-182.14C458.45,-172.54 477.43,-161.31 492.18,-152.58"/>
<polygon fill="#63b8ff" stroke="#63b8ff" points="440.68,-178.99 433.85,-187.09 444.24,-185.01 440.68,-178.99"/>
</a>
</g>
</g>
<!-- Node14&#45;&gt;Node2 -->
<g id="edge18_Node000014_Node000002" class="edge">
<title>Node14&#45;&gt;Node2</title>
<g id="a_edge18_Node000014_Node000002"><a xlink:title=" ">
<path fill="none" stroke="#63b8ff" d="M727.91,-181.56C715.6,-173.19 701.98,-162.99 690.82,-152.25 669.29,-131.54 649.17,-102.98 637.97,-85.96"/>
<polygon fill="#63b8ff" stroke="#63b8ff" points="725.9,-184.42 736.17,-187.02 729.76,-178.58 725.9,-184.42"/>
</a>
</g>
</g>
<!-- Node14&#45;&gt;Node8 -->
<g id="edge28_Node000014_Node000008" class="edge">
<title>Node14&#45;&gt;Node8</title>
<g id="a_edge28_Node000014_Node000008"><a xlink:title=" ">
<path fill="none" stroke="#63b8ff" d="M690.73,-191.34C611.55,-178.92 484.96,-159.05 410.65,-147.39"/>
<polygon fill="#63b8ff" stroke="#63b8ff" points="690.14,-194.79 700.56,-192.89 691.22,-187.88 690.14,-194.79"/>
</a>
</g>
</g>
<!-- Node15 -->
<g id="Node000015" class="node">
<title>Node15</title>
<g id="a_Node000015"><a xlink:href="BulletCleanupSystem_8hpp.html" target="_top" xlink:title=" ">
<polygon fill="white" stroke="#666666" points="974.94,-152.25 842.69,-152.25 842.69,-121.75 974.94,-121.75 974.94,-152.25"/>
<text xml:space="preserve" text-anchor="start" x="850.69" y="-138.75" font-family="Helvetica,sans-Serif" font-size="10.00">server/include/Systems</text>
<text xml:space="preserve" text-anchor="middle" x="908.82" y="-127.5" font-family="Helvetica,sans-Serif" font-size="10.00">/BulletCleanupSystem.hpp</text>
</a>
</g>
</g>
<!-- Node14&#45;&gt;Node15 -->
<g id="edge19_Node000014_Node000015" class="edge">
<title>Node14&#45;&gt;Node15</title>
<g id="a_edge19_Node000014_Node000015"><a xlink:title=" ">
<path fill="none" stroke="#63b8ff" d="M805.43,-183.37C827.8,-173.55 854.62,-161.78 875.34,-152.69"/>
<polygon fill="#63b8ff" stroke="#63b8ff" points="804.31,-180.03 796.56,-187.26 807.12,-186.44 804.31,-180.03"/>
</a>
</g>
</g>
<!-- Node17 -->
<g id="Node000017" class="node">
<title>Node17</title>
<g id="a_Node000017"><a xlink:href="CollisionSystem_8hpp.html" target="_top" xlink:title=" ">
<polygon fill="white" stroke="#666666" points="1112.19,-152.25 993.44,-152.25 993.44,-121.75 1112.19,-121.75 1112.19,-152.25"/>
<text xml:space="preserve" text-anchor="start" x="1001.44" y="-138.75" font-family="Helvetica,sans-Serif" font-size="10.00">server/include/Systems</text>
<text xml:space="preserve" text-anchor="middle" x="1052.82" y="-127.5" font-family="Helvetica,sans-Serif" font-size="10.00">/CollisionSystem.hpp</text>
</a>
</g>
</g>
<!-- Node14&#45;&gt;Node17 -->
<g id="edge22_Node000014_Node000017" class="edge">
<title>Node14&#45;&gt;Node17</title>
<g id="a_edge22_Node000014_Node000017"><a xlink:title=" ">
<path fill="none" stroke="#63b8ff" d="M832.61,-186.81C881.85,-175.9 946.74,-161.51 993.31,-151.19"/>
<polygon fill="#63b8ff" stroke="#63b8ff" points="831.89,-183.38 822.89,-188.96 833.41,-190.22 831.89,-183.38"/>
</a>
</g>
</g>
<!-- Node19 -->
<g id="Node000019" class="node">
<title>Node19</title>
<g id="a_Node000019"><a xlink:href="EnemyShootSystem_8hpp.html" target="_top" xlink:title=" ">
<polygon fill="white" stroke="#666666" points="1257.69,-152.25 1129.94,-152.25 1129.94,-121.75 1257.69,-121.75 1257.69,-152.25"/>
<text xml:space="preserve" text-anchor="start" x="1137.94" y="-138.75" font-family="Helvetica,sans-Serif" font-size="10.00">server/include/Systems</text>
<text xml:space="preserve" text-anchor="middle" x="1193.82" y="-127.5" font-family="Helvetica,sans-Serif" font-size="10.00">/EnemyShootSystem.hpp</text>
</a>
</g>
</g>
<!-- Node14&#45;&gt;Node19 -->
<g id="edge25_Node000014_Node000019" class="edge">
<title>Node14&#45;&gt;Node19</title>
<g id="a_edge25_Node000014_Node000019"><a xlink:title=" ">
<path fill="none" stroke="#63b8ff" d="M832.47,-187.9C960.29,-167.17 995.64,-172.19 1120.82,-152.25 1123.75,-151.78 1126.75,-151.28 1129.77,-150.76"/>
<polygon fill="#63b8ff" stroke="#63b8ff" points="832.26,-184.38 822.96,-189.46 833.4,-191.29 832.26,-184.38"/>
</a>
</g>
</g>
<!-- Node21 -->
<g id="Node000021" class="node">
<title>Node21</title>
<g id="a_Node000021"><a xlink:href="PlayerShootSystem_8hpp.html" target="_top" xlink:title=" ">
<polygon fill="white" stroke="#666666" points="824.19,-152.25 699.44,-152.25 699.44,-121.75 824.19,-121.75 824.19,-152.25"/>
<text xml:space="preserve" text-anchor="start" x="707.44" y="-138.75" font-family="Helvetica,sans-Serif" font-size="10.00">server/include/Systems</text>
<text xml:space="preserve" text-anchor="middle" x="761.82" y="-127.5" font-family="Helvetica,sans-Serif" font-size="10.00">/PlayerShootSystem.hpp</text>
</a>
</g>
</g>
<!-- Node14&#45;&gt;Node21 -->
<g id="edge29_Node000014_Node000021" class="edge">
<title>Node14&#45;&gt;Node21</title>
<g id="a_edge29_Node000014_Node000021"><a xlink:title=" ">
<path fill="none" stroke="#63b8ff" d="M761.82,-176.56C761.82,-168.39 761.82,-159.66 761.82,-152.58"/>
<polygon fill="#63b8ff" stroke="#63b8ff" points="758.32,-176.35 761.82,-186.35 765.32,-176.35 758.32,-176.35"/>
</a>
</g>
</g>
<!-- Node23 -->
<g id="Node000023" class="node">
<title>Node23</title>
<g id="a_Node000023"><a xlink:href="RoomSystem_8cpp.html" target="_top" xlink:title=" ">
<polygon fill="white" stroke="#666666" points="1377.57,-152.25 1276.07,-152.25 1276.07,-121.75 1377.57,-121.75 1377.57,-152.25"/>
<text xml:space="preserve" text-anchor="start" x="1284.07" y="-138.75" font-family="Helvetica,sans-Serif" font-size="10.00">server/src/Systems</text>
<text xml:space="preserve" text-anchor="middle" x="1326.82" y="-127.5" font-family="Helvetica,sans-Serif" font-size="10.00">/RoomSystem.cpp</text>
</a>
</g>
</g>
<!-- Node14&#45;&gt;Node23 -->
<g id="edge32_Node000014_Node000023" class="edge">
<title>Node14&#45;&gt;Node23</title>
<g id="a_edge32_Node000014_Node000023"><a xlink:title=" ">
<path fill="none" stroke="#63b8ff" d="M832.78,-187.95C1024.69,-161.05 1078.02,-182.27 1266.82,-152.25 1269.78,-151.78 1272.81,-151.24 1275.86,-150.66"/>
<polygon fill="#63b8ff" stroke="#63b8ff" points="832.35,-184.47 822.95,-189.35 833.34,-191.4 832.35,-184.47"/>
</a>
</g>
</g>
<!-- Node15&#45;&gt;Node2 -->
<g id="edge20_Node000015_Node000002" class="edge">
<title>Node15&#45;&gt;Node2</title>
<g id="a_edge20_Node000015_Node000002"><a xlink:title=" ">
<path fill="none" stroke="#63b8ff" d="M833.99,-118.76C786.09,-107.73 725.09,-93.68 682.09,-83.77"/>
<polygon fill="#63b8ff" stroke="#63b8ff" points="832.93,-122.11 843.46,-120.94 834.5,-115.29 832.93,-122.11"/>
</a>
</g>
</g>
<!-- Node16 -->
<g id="Node000016" class="node">
<title>Node16</title>
<g id="a_Node000016"><a xlink:href="BulletCleanupSystem_8cpp.html" target="_top" xlink:title=" ">
<polygon fill="white" stroke="#666666" points="974.94,-85.75 842.69,-85.75 842.69,-55.25 974.94,-55.25 974.94,-85.75"/>
<text xml:space="preserve" text-anchor="start" x="850.69" y="-72.25" font-family="Helvetica,sans-Serif" font-size="10.00">server/src/Systems</text>
<text xml:space="preserve" text-anchor="middle" x="908.82" y="-61" font-family="Helvetica,sans-Serif" font-size="10.00">/BulletCleanupSystem.cpp</text>
</a>
</g>
</g>
<!-- Node15&#45;&gt;Node16 -->
<g id="edge21_Node000015_Node000016" class="edge">
<title>Node15&#45;&gt;Node16</title>
<g id="a_edge21_Node000015_Node000016"><a xlink:title=" ">
<path fill="none" stroke="#63b8ff" d="M908.82,-110.06C908.82,-101.89 908.82,-93.16 908.82,-86.08"/>
<polygon fill="#63b8ff" stroke="#63b8ff" points="905.32,-109.85 908.82,-119.85 912.32,-109.85 905.32,-109.85"/>
</a>
</g>
</g>
<!-- Node17&#45;&gt;Node2 -->
<g id="edge23_Node000017_Node000002" class="edge">
<title>Node17&#45;&gt;Node2</title>
<g id="a_edge23_Node000017_Node000002"><a xlink:title=" ">
<path fill="none" stroke="#63b8ff" d="M981.89,-121.53C852.41,-100.88 816.5,-107.85 690.82,-85.75 687.99,-85.25 685.1,-84.71 682.18,-84.13"/>
<polygon fill="#63b8ff" stroke="#63b8ff" points="981.11,-124.95 991.54,-123.1 982.23,-118.04 981.11,-124.95"/>
</a>
</g>
</g>
<!-- Node18 -->
<g id="Node000018" class="node">
<title>Node18</title>
<g id="a_Node000018"><a xlink:href="CollisionSystem_8cpp.html" target="_top" xlink:title=" ">
<polygon fill="white" stroke="#666666" points="1107.32,-85.75 998.32,-85.75 998.32,-55.25 1107.32,-55.25 1107.32,-85.75"/>
<text xml:space="preserve" text-anchor="start" x="1006.32" y="-72.25" font-family="Helvetica,sans-Serif" font-size="10.00">server/src/Systems</text>
<text xml:space="preserve" text-anchor="middle" x="1052.82" y="-61" font-family="Helvetica,sans-Serif" font-size="10.00">/CollisionSystem.cpp</text>
</a>
</g>
</g>
<!-- Node17&#45;&gt;Node18 -->
<g id="edge24_Node000017_Node000018" class="edge">
<title>Node17&#45;&gt;Node18</title>
<g id="a_edge24_Node000017_Node000018"><a xlink:title=" ">
<path fill="none" stroke="#63b8ff" d="M1052.82,-110.06C1052.82,-101.89 1052.82,-93.16 1052.82,-86.08"/>
<polygon fill="#63b8ff" stroke="#63b8ff" points="1049.32,-109.85 1052.82,-119.85 1056.32,-109.85 1049.32,-109.85"/>
</a>
</g>
</g>
<!-- Node19&#45;&gt;Node2 -->
<g id="edge26_Node000019_Node000002" class="edge">
<title>Node19&#45;&gt;Node2</title>
<g id="a_edge26_Node000019_Node000002"><a xlink:title=" ">
<path fill="none" stroke="#63b8ff" d="M1118.59,-121.56C928.89,-96.08 876.7,-114.74 690.82,-85.75 687.98,-85.31 685.08,-84.81 682.16,-84.27"/>
<polygon fill="#63b8ff" stroke="#63b8ff" points="1117.91,-125 1128.29,-122.89 1118.86,-118.06 1117.91,-125"/>
</a>
</g>
</g>
<!-- Node20 -->
<g id="Node000020" class="node">
<title>Node20</title>
<g id="a_Node000020"><a xlink:href="EnemyShootSystem_8cpp.html" target="_top" xlink:title=" ">
<polygon fill="white" stroke="#666666" points="1257.69,-85.75 1129.94,-85.75 1129.94,-55.25 1257.69,-55.25 1257.69,-85.75"/>
<text xml:space="preserve" text-anchor="start" x="1137.94" y="-72.25" font-family="Helvetica,sans-Serif" font-size="10.00">server/src/Systems</text>
<text xml:space="preserve" text-anchor="middle" x="1193.82" y="-61" font-family="Helvetica,sans-Serif" font-size="10.00">/EnemyShootSystem.cpp</text>
</a>
</g>
</g>
<!-- Node19&#45;&gt;Node20 -->
<g id="edge27_Node000019_Node000020" class="edge">
<title>Node19&#45;&gt;Node20</title>
<g id="a_edge27_Node000019_Node000020"><a xlink:title=" ">
<path fill="none" stroke="#63b8ff" d="M1193.82,-110.06C1193.82,-101.89 1193.82,-93.16 1193.82,-86.08"/>
<polygon fill="#63b8ff" stroke="#63b8ff" points="1190.32,-109.85 1193.82,-119.85 1197.32,-109.85 1190.32,-109.85"/>
</a>
</g>
</g>
<!-- Node21&#45;&gt;Node2 -->
<g id="edge30_Node000021_Node000002" class="edge">
<title>Node21&#45;&gt;Node2</title>
<g id="a_edge30_Node000021_Node000002"><a xlink:title=" ">
<path fill="none" stroke="#63b8ff" d="M721.5,-116.45C701.35,-106.68 677.39,-95.06 658.88,-86.08"/>
<polygon fill="#63b8ff" stroke="#63b8ff" points="719.75,-119.49 730.28,-120.7 722.81,-113.19 719.75,-119.49"/>
</a>
</g>
</g>
<!-- Node22 -->
<g id="Node000022" class="node">
<title>Node22</title>
<g id="a_Node000022"><a xlink:href="PlayerShootSystem_8cpp.html" target="_top" xlink:title=" ">
<polygon fill="white" stroke="#666666" points="824.19,-85.75 699.44,-85.75 699.44,-55.25 824.19,-55.25 824.19,-85.75"/>
<text xml:space="preserve" text-anchor="start" x="707.44" y="-72.25" font-family="Helvetica,sans-Serif" font-size="10.00">server/src/Systems</text>
<text xml:space="preserve" text-anchor="middle" x="761.82" y="-61" font-family="Helvetica,sans-Serif" font-size="10.00">/PlayerShootSystem.cpp</text>
</a>
</g>
</g>
<!-- Node21&#45;&gt;Node22 -->
<g id="edge31_Node000021_Node000022" class="edge">
<title>Node21&#45;&gt;Node22</title>
<g id="a_edge31_Node000021_Node000022"><a xlink:title=" ">
<path fill="none" stroke="#63b8ff" d="M761.82,-110.06C761.82,-101.89 761.82,-93.16 761.82,-86.08"/>
<polygon fill="#63b8ff" stroke="#63b8ff" points="758.32,-109.85 761.82,-119.85 765.32,-109.85 758.32,-109.85"/>
</a>
</g>
</g>
</g>
</svg>

<g id="navigator" transform="translate(0 0)" fill="#404254">
  <rect fill="#f2f5e9" fill-opacity="0.5" stroke="#606060" stroke-width=".5" x="0" y="0" width="60" height="60"/>
  <use id="zoomplus" xlink:href="#zoomPlus" x="17" y="9" onmousedown="handleZoom(evt,'in')"/>
  <use id="zoomminus" xlink:href="#zoomMin" x="42" y="9" onmousedown="handleZoom(evt,'out')"/>
  <use id="reset" xlink:href="#resetDef" x="30" y="36" onmousedown="handleReset()"/>
   <use id="arrowup" xlink:href="#arrowUp" x="0" y="0" onmousedown="handlePan(0,-1)"/>
  <use id="arrowright" xlink:href="#arrowRight" x="0" y="0" onmousedown="handlePan(1,0)"/>
  <use id="arrowdown" xlink:href="#arrowDown" x="0" y="0" onmousedown="handlePan(0,1)"/>
  <use id="arrowleft" xlink:href="#arrowLeft" x="0" y="0" onmousedown="handlePan(-1,0)"/>
</g>
<svg viewBox="0 0 15 15" width="100%" height="30px" preserveAspectRatio="xMaxYMin meet">
 <g id="arrow_out" transform="scale(0.3 0.3)">
  <a xlink:href="ServerNetwork_8hpp__dep__incl_org.svg" target="_base">
   <rect id="button" ry="5" rx="5" y="6" x="6" height="38" width="38"
        fill="#f2f5e9" fill-opacity="0.5" stroke="#606060" stroke-width="1.0"/>
   <path id="arrow"
     d="M 11.500037,31.436501 C 11.940474,20.09759 22.043105,11.32322 32.158766,21.979434 L 37.068811,17.246167 C 37.068811,17.246167 37.088388,32 37.088388,32 L 22.160133,31.978069 C 22.160133,31.978069 26.997745,27.140456 26.997745,27.140456 C 18.528582,18.264221 13.291696,25.230495 11.500037,31.436501 z"
     style="fill:#404040;"/>
  </a>
 </g>
</svg>

<style type='text/css'>
<![CDATA[
[data-mouse-over-selected='false'] { opacity: 0.7; }
[data-mouse-over-selected='true']  { opacity: 1.0; }
]]>
</style>
<script type="application/ecmascript"><![CDATA[
document.addEventListener('DOMContentLoaded', (event) => {
  highlightEdges();
  highlightAdjacentNodes();
});
]]></script>
</svg>
