<?xml version="1.0" encoding="UTF-8" standalone="no"?>
<!DOCTYPE svg PUBLIC "-//W3C//DTD SVG 1.1//EN"
 "http://www.w3.org/Graphics/SVG/1.1/DTD/svg11.dtd">
<!-- Generated by graphviz version 14.0.5 (20251129.0259)
 -->
<!-- Title: common/include/RType/Network/Session.hpp Pages: 1 -->
<!--zoomable 426 -->

<svg id="main" version="1.1" xmlns="http://www.w3.org/2000/svg" xmlns:xlink="http://www.w3.org/1999/xlink" xml:space="preserve" onload="init(evt)">

<style type="text/css"><![CDATA[
.node, .edge {opacity: 0.7;}
.node.selected, .edge.selected {opacity: 1;}
.edge:hover path { stroke: red; }
.edge:hover polygon { stroke: red; fill: red; }
]]></style>

<defs>
  <circle id="rim" cx="0" cy="0" r="7"/>
  <circle id="rim2" cx="0" cy="0" r="3.5"/>
  <g id="zoomPlus">
    <use xlink:href="#rim" fill="#404040"><set attributeName="fill" to="#808080" begin="zoomplus.mouseover" end="zoomplus.mouseout"/></use>
    <path d="M-4,0h8M0,-4v8" fill="none" stroke="white" stroke-width="1.5" pointer-events="none"/>
  </g>
  <g id="zoomMin">
    <use xlink:href="#rim" fill="#404040"><set attributeName="fill" to="#808080" begin="zoomminus.mouseover" end="zoomminus.mouseout"/></use>
    <path d="M-4,0h8" fill="none" stroke="white" stroke-width="1.5" pointer-events="none"/>
  </g>
  <g id="arrowUp" transform="translate(30 24)">
    <use xlink:href="#rim"/>
    <path pointer-events="none" fill="none" stroke="white" stroke-width="1.5" d="M0,-3.0v7 M-2.5,-0.5L0,-3.0L2.5,-0.5"/>
  </g>
  <g id="arrowRight" transform="rotate(90) translate(36 -43)">
    <use xlink:href="#rim"/>
    <path pointer-events="none" fill="none" stroke="white" stroke-width="1.5" d="M0,-3.0v7 M-2.5,-0.5L0,-3.0L2.5,-0.5"/>
  </g>
  <g id="arrowDown" transform="rotate(180) translate(-30 -48)">
    <use xlink:href="#rim"/>
    <path pointer-events="none" fill="none" stroke="white" stroke-width="1.5" d="M0,-3.0v7 M-2.5,-0.5L0,-3.0L2.5,-0.5"/>
  </g>
  <g id="arrowLeft" transform="rotate(270) translate(-36 17)">
    <use xlink:href="#rim"/>
    <path pointer-events="none" fill="none" stroke="white" stroke-width="1.5" d="M0,-3.0v7 M-2.5,-0.5L0,-3.0L2.5,-0.5"/>
  </g>
  <g id="resetDef">
    <use xlink:href="#rim2" fill="#404040"><set attributeName="fill" to="#808080" begin="reset.mouseover" end="reset.mouseout"/></use>
  </g>
</defs>
<script type="application/ecmascript">
var viewWidth = 1679;
var viewHeight = 426;
var sectionId = 'dynsection-1';
</script>
<script type="application/ecmascript" xlink:href="svg.min.js"/>
<svg id="graph" class="graph">
<g id="viewport">
<title>common/include/RType/Network/Session.hpp</title>
<!-- Node1 -->
<g id="Node000001" class="node">
<title>Node1</title>
<g id="a_Node000001"><a xlink:title=" ">
<polygon fill="#999999" stroke="#666666" points="1007.75,-418.25 889,-418.25 889,-387.75 1007.75,-387.75 1007.75,-418.25"/>
<text xml:space="preserve" text-anchor="start" x="897" y="-404.75" font-family="Helvetica,sans-Serif" font-size="10.00">common/include/RType</text>
<text xml:space="preserve" text-anchor="middle" x="948.38" y="-393.5" font-family="Helvetica,sans-Serif" font-size="10.00">/Network/Session.hpp</text>
</a>
</g>
</g>
<!-- Node2 -->
<g id="Node000002" class="node">
<title>Node2</title>
<g id="a_Node000002"><a xlink:href="Packet_8cpp.html" target="_top" xlink:title=" ">
<polygon fill="white" stroke="#666666" points="812.25,-351.75 702.5,-351.75 702.5,-321.25 812.25,-321.25 812.25,-351.75"/>
<text xml:space="preserve" text-anchor="start" x="710.5" y="-338.25" font-family="Helvetica,sans-Serif" font-size="10.00">common/src/Network</text>
<text xml:space="preserve" text-anchor="middle" x="757.38" y="-327" font-family="Helvetica,sans-Serif" font-size="10.00">/Packet.cpp</text>
</a>
</g>
</g>
<!-- Node1&#45;&gt;Node2 -->
<g id="edge1_Node000001_Node000002" class="edge">
<title>Node1&#45;&gt;Node2</title>
<g id="a_edge1_Node000001_Node000002"><a xlink:title=" ">
<path fill="none" stroke="#63b8ff" d="M894.46,-383.79C864.86,-373.8 828.65,-361.57 800.87,-352.19"/>
<polygon fill="#63b8ff" stroke="#63b8ff" points="893.01,-387 903.6,-386.88 895.25,-380.36 893.01,-387"/>
</a>
</g>
</g>
<!-- Node3 -->
<g id="Node000003" class="node">
<title>Node3</title>
<g id="a_Node000003"><a xlink:href="Session_8cpp.html" target="_top" xlink:title=" ">
<polygon fill="white" stroke="#666666" points="940.25,-351.75 830.5,-351.75 830.5,-321.25 940.25,-321.25 940.25,-351.75"/>
<text xml:space="preserve" text-anchor="start" x="838.5" y="-338.25" font-family="Helvetica,sans-Serif" font-size="10.00">common/src/Network</text>
<text xml:space="preserve" text-anchor="middle" x="885.38" y="-327" font-family="Helvetica,sans-Serif" font-size="10.00">/Session.cpp</text>
</a>
</g>
</g>
<!-- Node1&#45;&gt;Node3 -->
<g id="edge2_Node000001_Node000003" class="edge">
<title>Node1&#45;&gt;Node3</title>
<g id="a_edge2_Node000001_Node000003"><a xlink:title=" ">
<path fill="none" stroke="#63b8ff" d="M926.07,-379.16C917.27,-370.15 907.42,-360.07 899.61,-352.08"/>
<polygon fill="#63b8ff" stroke="#63b8ff" points="923.53,-381.57 933.02,-386.28 928.54,-376.68 923.53,-381.57"/>
</a>
</g>
</g>
<!-- Node4 -->
<g id="Node000004" class="node">
<title>Node4</title>
<g id="a_Node000004"><a xlink:href="Player_8hpp.html" target="_top" xlink:title=" ">
<polygon fill="white" stroke="#666666" points="1064.38,-351.75 958.38,-351.75 958.38,-321.25 1064.38,-321.25 1064.38,-351.75"/>
<text xml:space="preserve" text-anchor="start" x="966.38" y="-338.25" font-family="Helvetica,sans-Serif" font-size="10.00">server/include/Game</text>
<text xml:space="preserve" text-anchor="middle" x="1011.38" y="-327" font-family="Helvetica,sans-Serif" font-size="10.00">/Player.hpp</text>
</a>
</g>
</g>
<!-- Node1&#45;&gt;Node4 -->
<g id="edge3_Node000001_Node000004" class="edge">
<title>Node1&#45;&gt;Node4</title>
<g id="a_edge3_Node000001_Node000004"><a xlink:title=" ">
<path fill="none" stroke="#63b8ff" d="M970.68,-379.16C979.48,-370.15 989.33,-360.07 997.14,-352.08"/>
<polygon fill="#63b8ff" stroke="#63b8ff" points="968.21,-376.68 963.73,-386.28 973.22,-381.57 968.21,-376.68"/>
</a>
</g>
</g>
<!-- Node29 -->
<g id="Node000029" class="node">
<title>Node29</title>
<g id="a_Node000029"><a xlink:href="ServerNetwork_8hpp.html" target="_top" xlink:title=" ">
<polygon fill="white" stroke="#666666" points="1329.88,-285.25 1184.88,-285.25 1184.88,-254.75 1329.88,-254.75 1329.88,-285.25"/>
<text xml:space="preserve" text-anchor="start" x="1192.88" y="-271.75" font-family="Helvetica,sans-Serif" font-size="10.00">server/include/ServerNetwork</text>
<text xml:space="preserve" text-anchor="middle" x="1257.38" y="-260.5" font-family="Helvetica,sans-Serif" font-size="10.00">/ServerNetwork.hpp</text>
</a>
</g>
</g>
<!-- Node1&#45;&gt;Node29 -->
<g id="edge38_Node000001_Node000029" class="edge">
<title>Node1&#45;&gt;Node29</title>
<g id="a_edge38_Node000001_Node000029"><a xlink:title=" ">
<path fill="none" stroke="#63b8ff" d="M996.36,-383.12C1019.67,-373.84 1048.06,-362.39 1073.38,-351.75 1126.76,-329.31 1188.28,-302.02 1224.93,-285.6"/>
<polygon fill="#63b8ff" stroke="#63b8ff" points="995.1,-379.85 987.1,-386.79 997.69,-386.36 995.1,-379.85"/>
</a>
</g>
</g>
<!-- Node5 -->
<g id="Node000005" class="node">
<title>Node5</title>
<g id="a_Node000005"><a xlink:href="GameManager_8hpp.html" target="_top" xlink:title=" ">
<polygon fill="white" stroke="#666666" points="840.38,-85.75 734.38,-85.75 734.38,-55.25 840.38,-55.25 840.38,-85.75"/>
<text xml:space="preserve" text-anchor="start" x="742.38" y="-72.25" font-family="Helvetica,sans-Serif" font-size="10.00">server/include/Game</text>
<text xml:space="preserve" text-anchor="middle" x="787.38" y="-61" font-family="Helvetica,sans-Serif" font-size="10.00">/GameManager.hpp</text>
</a>
</g>
</g>
<!-- Node4&#45;&gt;Node5 -->
<g id="edge4_Node000004_Node000005" class="edge">
<title>Node4&#45;&gt;Node5</title>
<g id="a_edge4_Node000004_Node000005"><a xlink:title=" ">
<path fill="none" stroke="#63b8ff" d="M1069.93,-317.18C1097.77,-307.49 1127.18,-295.51 1137.38,-285.25 1170.01,-252.41 1149.01,-226.31 1175.38,-188.25 1188.99,-168.59 1205.64,-174.1 1215.38,-152.25 1220.89,-139.87 1224.48,-131.79 1215.38,-121.75 1160.49,-61.2 930.03,-98.93 849.38,-85.75 846.54,-85.29 843.64,-84.77 840.72,-84.22"/>
<polygon fill="#63b8ff" stroke="#63b8ff" points="1069.15,-313.75 1060.81,-320.28 1071.4,-320.37 1069.15,-313.75"/>
</a>
</g>
</g>
<!-- Node8 -->
<g id="Node000008" class="node">
<title>Node8</title>
<g id="a_Node000008"><a xlink:href="Room_8hpp.html" target="_top" xlink:title=" ">
<polygon fill="white" stroke="#666666" points="622.38,-285.25 516.38,-285.25 516.38,-254.75 622.38,-254.75 622.38,-285.25"/>
<text xml:space="preserve" text-anchor="start" x="524.38" y="-271.75" font-family="Helvetica,sans-Serif" font-size="10.00">server/include/Game</text>
<text xml:space="preserve" text-anchor="middle" x="569.38" y="-260.5" font-family="Helvetica,sans-Serif" font-size="10.00">/Room.hpp</text>
</a>
</g>
</g>
<!-- Node4&#45;&gt;Node8 -->
<g id="edge7_Node000004_Node000008" class="edge">
<title>Node4&#45;&gt;Node8</title>
<g id="a_edge7_Node000004_Node000008"><a xlink:title=" ">
<path fill="none" stroke="#63b8ff" d="M946.68,-320.87C825.39,-299.38 694.33,-284.11 622.8,-276.45"/>
<polygon fill="#63b8ff" stroke="#63b8ff" points="946.06,-324.31 956.52,-322.63 947.29,-317.42 946.06,-324.31"/>
</a>
</g>
</g>
<!-- Node24 -->
<g id="Node000024" class="node">
<title>Node24</title>
<g id="a_Node000024"><a xlink:href="EntitySystem_8hpp.html" target="_top" xlink:title=" ">
<polygon fill="white" stroke="#666666" points="983.75,-218.75 865,-218.75 865,-188.25 983.75,-188.25 983.75,-218.75"/>
<text xml:space="preserve" text-anchor="start" x="873" y="-205.25" font-family="Helvetica,sans-Serif" font-size="10.00">server/include/Systems</text>
<text xml:space="preserve" text-anchor="middle" x="924.38" y="-194" font-family="Helvetica,sans-Serif" font-size="10.00">/EntitySystem.hpp</text>
</a>
</g>
</g>
<!-- Node4&#45;&gt;Node24 -->
<g id="edge30_Node000004_Node000024" class="edge">
<title>Node4&#45;&gt;Node24</title>
<g id="a_edge30_Node000004_Node000024"><a xlink:title=" ">
<path fill="none" stroke="#63b8ff" d="M992.65,-311.77C986.34,-303.51 979.38,-294.1 973.38,-285.25 958.08,-262.73 942.02,-235.46 932.62,-219.07"/>
<polygon fill="#63b8ff" stroke="#63b8ff" points="989.85,-313.87 998.74,-319.64 995.39,-309.59 989.85,-313.87"/>
</a>
</g>
</g>
<!-- Node26 -->
<g id="Node000026" class="node">
<title>Node26</title>
<g id="a_Node000026"><a xlink:href="PlayerSystem_8hpp.html" target="_top" xlink:title=" ">
<polygon fill="white" stroke="#666666" points="1128.75,-218.75 1010,-218.75 1010,-188.25 1128.75,-188.25 1128.75,-218.75"/>
<text xml:space="preserve" text-anchor="start" x="1018" y="-205.25" font-family="Helvetica,sans-Serif" font-size="10.00">server/include/Systems</text>
<text xml:space="preserve" text-anchor="middle" x="1069.38" y="-194" font-family="Helvetica,sans-Serif" font-size="10.00">/PlayerSystem.hpp</text>
</a>
</g>
</g>
<!-- Node4&#45;&gt;Node26 -->
<g id="edge34_Node000004_Node000026" class="edge">
<title>Node4&#45;&gt;Node26</title>
<g id="a_edge34_Node000004_Node000026"><a xlink:title=" ">
<path fill="none" stroke="#63b8ff" d="M991.91,-311.8C980.76,-295.18 970.89,-272.81 981.38,-254.75 990.83,-238.47 1007.75,-227.02 1024.25,-219.21"/>
<polygon fill="#63b8ff" stroke="#63b8ff" points="988.88,-313.58 997.58,-319.61 994.54,-309.47 988.88,-313.58"/>
</a>
</g>
</g>
<!-- Node28 -->
<g id="Node000028" class="node">
<title>Node28</title>
<g id="a_Node000028"><a xlink:href="Player_8cpp.html" target="_top" xlink:title=" ">
<polygon fill="white" stroke="#666666" points="1128.12,-279.62 990.62,-279.62 990.62,-260.38 1128.12,-260.38 1128.12,-279.62"/>
<text xml:space="preserve" text-anchor="middle" x="1059.38" y="-266.12" font-family="Helvetica,sans-Serif" font-size="10.00">server/src/Game/Player.cpp</text>
</a>
</g>
</g>
<!-- Node4&#45;&gt;Node28 -->
<g id="edge37_Node000004_Node000028" class="edge">
<title>Node4&#45;&gt;Node28</title>
<g id="a_edge37_Node000004_Node000028"><a xlink:title=" ">
<path fill="none" stroke="#63b8ff" d="M1028.9,-311.95C1037.22,-300.77 1046.67,-288.07 1052.81,-279.82"/>
<polygon fill="#63b8ff" stroke="#63b8ff" points="1026.33,-309.54 1023.17,-319.65 1031.95,-313.72 1026.33,-309.54"/>
</a>
</g>
</g>
<!-- Node6 -->
<g id="Node000006" class="node">
<title>Node6</title>
<g id="a_Node000006"><a xlink:href="GameManager_8cpp.html" target="_top" xlink:title=" ">
<polygon fill="white" stroke="#666666" points="874.12,-19.25 700.62,-19.25 700.62,0 874.12,0 874.12,-19.25"/>
<text xml:space="preserve" text-anchor="middle" x="787.38" y="-5.75" font-family="Helvetica,sans-Serif" font-size="10.00">server/src/Game/GameManager.cpp</text>
</a>
</g>
</g>
<!-- Node5&#45;&gt;Node6 -->
<g id="edge5_Node000005_Node000006" class="edge">
<title>Node5&#45;&gt;Node6</title>
<g id="a_edge5_Node000005_Node000006"><a xlink:title=" ">
<path fill="none" stroke="#63b8ff" d="M787.38,-43.48C787.38,-34.98 787.38,-26.09 787.38,-19.7"/>
<polygon fill="#63b8ff" stroke="#63b8ff" points="783.88,-43.43 787.38,-53.43 790.88,-43.43 783.88,-43.43"/>
</a>
</g>
</g>
<!-- Node7 -->
<g id="Node000007" class="node">
<title>Node7</title>
<g id="a_Node000007"><a xlink:href="server_2src_2main_8cpp.html" target="_top" xlink:title=" ">
<polygon fill="white" stroke="#666666" points="1377.5,-19.25 1275.25,-19.25 1275.25,0 1377.5,0 1377.5,-19.25"/>
<text xml:space="preserve" text-anchor="middle" x="1326.38" y="-5.75" font-family="Helvetica,sans-Serif" font-size="10.00">server/src/main.cpp</text>
</a>
</g>
</g>
<!-- Node5&#45;&gt;Node7 -->
<g id="edge6_Node000005_Node000007" class="edge">
<title>Node5&#45;&gt;Node7</title>
<g id="a_edge6_Node000005_Node000007"><a xlink:title=" ">
<path fill="none" stroke="#63b8ff" d="M851.7,-55.02C1011.36,-29.94 1189.14,-17.97 1274.92,-13.2"/>
<polygon fill="#63b8ff" stroke="#63b8ff" points="851.54,-51.5 842.22,-56.53 852.64,-58.41 851.54,-51.5"/>
</a>
</g>
</g>
<!-- Node8&#45;&gt;Node5 -->
<g id="edge8_Node000008_Node000005" class="edge">
<title>Node8&#45;&gt;Node5</title>
<g id="a_edge8_Node000008_Node000005"><a xlink:title=" ">
<path fill="none" stroke="#63b8ff" d="M633.73,-256.87C659.83,-249.38 688.84,-237.47 710.38,-218.75 721.48,-209.1 763.78,-121.32 780.51,-86.06"/>
<polygon fill="#63b8ff" stroke="#63b8ff" points="632.96,-253.46 624.21,-259.43 634.78,-260.22 632.96,-253.46"/>
</a>
</g>
</g>
<!-- Node9 -->
<g id="Node000009" class="node">
<title>Node9</title>
<g id="a_Node000009"><a xlink:href="RoomSystem_8hpp.html" target="_top" xlink:title=" ">
<polygon fill="white" stroke="#666666" points="701.75,-218.75 583,-218.75 583,-188.25 701.75,-188.25 701.75,-218.75"/>
<text xml:space="preserve" text-anchor="start" x="591" y="-205.25" font-family="Helvetica,sans-Serif" font-size="10.00">server/include/Systems</text>
<text xml:space="preserve" text-anchor="middle" x="642.38" y="-194" font-family="Helvetica,sans-Serif" font-size="10.00">/RoomSystem.hpp</text>
</a>
</g>
</g>
<!-- Node8&#45;&gt;Node9 -->
<g id="edge9_Node000008_Node000009" class="edge">
<title>Node8&#45;&gt;Node9</title>
<g id="a_edge9_Node000008_Node000009"><a xlink:title=" ">
<path fill="none" stroke="#63b8ff" d="M594.28,-246.99C604.71,-237.78 616.55,-227.31 625.88,-219.08"/>
<polygon fill="#63b8ff" stroke="#63b8ff" points="592.25,-244.12 587.07,-253.36 596.89,-249.36 592.25,-244.12"/>
</a>
</g>
</g>
<!-- Node21 -->
<g id="Node000021" class="node">
<title>Node21</title>
<g id="a_Node000021"><a xlink:href="Room_8cpp.html" target="_top" xlink:title=" ">
<polygon fill="white" stroke="#666666" points="260.75,-213.12 124,-213.12 124,-193.88 260.75,-193.88 260.75,-213.12"/>
<text xml:space="preserve" text-anchor="middle" x="192.38" y="-199.62" font-family="Helvetica,sans-Serif" font-size="10.00">server/src/Game/Room.cpp</text>
</a>
</g>
</g>
<!-- Node8&#45;&gt;Node21 -->
<g id="edge27_Node000008_Node000021" class="edge">
<title>Node8&#45;&gt;Node21</title>
<g id="a_edge27_Node000008_Node000021"><a xlink:title=" ">
<path fill="none" stroke="#63b8ff" d="M504.84,-258.43C444.25,-248.43 351.11,-232.91 270.38,-218.75 261.02,-217.11 251.04,-215.32 241.45,-213.58"/>
<polygon fill="#63b8ff" stroke="#63b8ff" points="504.21,-261.87 514.64,-260.04 505.34,-254.96 504.21,-261.87"/>
</a>
</g>
</g>
<!-- Node22 -->
<g id="Node000022" class="node">
<title>Node22</title>
<g id="a_Node000022"><a xlink:href="server_2src_2Systems_2NetworkSyncSystem_8cpp.html" target="_top" xlink:title=" ">
<polygon fill="white" stroke="#666666" points="409.75,-218.75 279,-218.75 279,-188.25 409.75,-188.25 409.75,-218.75"/>
<text xml:space="preserve" text-anchor="start" x="287" y="-205.25" font-family="Helvetica,sans-Serif" font-size="10.00">server/src/Systems</text>
<text xml:space="preserve" text-anchor="middle" x="344.38" y="-194" font-family="Helvetica,sans-Serif" font-size="10.00">/NetworkSyncSystem.cpp</text>
</a>
</g>
</g>
<!-- Node8&#45;&gt;Node22 -->
<g id="edge28_Node000008_Node000022" class="edge">
<title>Node8&#45;&gt;Node22</title>
<g id="a_edge28_Node000008_Node000022"><a xlink:title=" ">
<path fill="none" stroke="#63b8ff" d="M507.41,-251.24C472.22,-241.15 428.71,-228.68 395.49,-219.15"/>
<polygon fill="#63b8ff" stroke="#63b8ff" points="506.01,-254.47 516.58,-253.87 507.93,-247.75 506.01,-254.47"/>
</a>
</g>
</g>
<!-- Node23 -->
<g id="Node000023" class="node">
<title>Node23</title>
<g id="a_Node000023"><a xlink:href="ServerNetworkSystem_8cpp.html" target="_top" xlink:title=" ">
<polygon fill="white" stroke="#666666" points="564.75,-218.75 428,-218.75 428,-188.25 564.75,-188.25 564.75,-218.75"/>
<text xml:space="preserve" text-anchor="start" x="436" y="-205.25" font-family="Helvetica,sans-Serif" font-size="10.00">server/src/Systems</text>
<text xml:space="preserve" text-anchor="middle" x="496.38" y="-194" font-family="Helvetica,sans-Serif" font-size="10.00">/ServerNetworkSystem.cpp</text>
</a>
</g>
</g>
<!-- Node8&#45;&gt;Node23 -->
<g id="edge29_Node000008_Node000023" class="edge">
<title>Node8&#45;&gt;Node23</title>
<g id="a_edge29_Node000008_Node000023"><a xlink:title=" ">
<path fill="none" stroke="#63b8ff" d="M544.47,-246.99C534.04,-237.78 522.2,-227.31 512.87,-219.08"/>
<polygon fill="#63b8ff" stroke="#63b8ff" points="541.86,-249.36 551.68,-253.36 546.5,-244.12 541.86,-249.36"/>
</a>
</g>
</g>
<!-- Node9&#45;&gt;Node5 -->
<g id="edge10_Node000009_Node000005" class="edge">
<title>Node9&#45;&gt;Node5</title>
<g id="a_edge10_Node000009_Node000005"><a xlink:title=" ">
<path fill="none" stroke="#63b8ff" d="M666.24,-180.37C683.87,-164.07 708.51,-141.41 730.38,-121.75 743.91,-109.58 759.42,-95.92 770.84,-85.93"/>
<polygon fill="#63b8ff" stroke="#63b8ff" points="664.26,-177.43 659.3,-186.79 669.01,-182.57 664.26,-177.43"/>
</a>
</g>
</g>
<!-- Node10 -->
<g id="Node000010" class="node">
<title>Node10</title>
<g id="a_Node000010"><a xlink:href="BulletCleanupSystem_8hpp.html" target="_top" xlink:title=" ">
<polygon fill="white" stroke="#666666" points="275.5,-152.25 143.25,-152.25 143.25,-121.75 275.5,-121.75 275.5,-152.25"/>
<text xml:space="preserve" text-anchor="start" x="151.25" y="-138.75" font-family="Helvetica,sans-Serif" font-size="10.00">server/include/Systems</text>
<text xml:space="preserve" text-anchor="middle" x="209.38" y="-127.5" font-family="Helvetica,sans-Serif" font-size="10.00">/BulletCleanupSystem.hpp</text>
</a>
</g>
</g>
<!-- Node9&#45;&gt;Node10 -->
<g id="edge11_Node000009_Node000010" class="edge">
<title>Node9&#45;&gt;Node10</title>
<g id="a_edge11_Node000009_Node000010"><a xlink:title=" ">
<path fill="none" stroke="#63b8ff" d="M571.24,-187.99C444.15,-167.45 409.22,-171.58 285.38,-152.25 282.19,-151.75 278.94,-151.22 275.65,-150.67"/>
<polygon fill="#63b8ff" stroke="#63b8ff" points="570.66,-191.44 581.1,-189.61 571.79,-184.53 570.66,-191.44"/>
</a>
</g>
</g>
<!-- Node12 -->
<g id="Node000012" class="node">
<title>Node12</title>
<g id="a_Node000012"><a xlink:href="CollisionSystem_8hpp.html" target="_top" xlink:title=" ">
<polygon fill="white" stroke="#666666" points="412.75,-152.25 294,-152.25 294,-121.75 412.75,-121.75 412.75,-152.25"/>
<text xml:space="preserve" text-anchor="start" x="302" y="-138.75" font-family="Helvetica,sans-Serif" font-size="10.00">server/include/Systems</text>
<text xml:space="preserve" text-anchor="middle" x="353.38" y="-127.5" font-family="Helvetica,sans-Serif" font-size="10.00">/CollisionSystem.hpp</text>
</a>
</g>
</g>
<!-- Node9&#45;&gt;Node12 -->
<g id="edge14_Node000009_Node000012" class="edge">
<title>Node9&#45;&gt;Node12</title>
<g id="a_edge14_Node000009_Node000012"><a xlink:title=" ">
<path fill="none" stroke="#63b8ff" d="M571.75,-186.74C523.02,-175.86 458.95,-161.56 412.83,-151.27"/>
<polygon fill="#63b8ff" stroke="#63b8ff" points="570.84,-190.12 581.37,-188.88 572.37,-183.29 570.84,-190.12"/>
</a>
</g>
</g>
<!-- Node14 -->
<g id="Node000014" class="node">
<title>Node14</title>
<g id="a_Node000014"><a xlink:href="EnemyShootSystem_8hpp.html" target="_top" xlink:title=" ">
<polygon fill="white" stroke="#666666" points="558.25,-152.25 430.5,-152.25 430.5,-121.75 558.25,-121.75 558.25,-152.25"/>
<text xml:space="preserve" text-anchor="start" x="438.5" y="-138.75" font-family="Helvetica,sans-Serif" font-size="10.00">server/include/Systems</text>
<text xml:space="preserve" text-anchor="middle" x="494.38" y="-127.5" font-family="Helvetica,sans-Serif" font-size="10.00">/EnemyShootSystem.hpp</text>
</a>
</g>
</g>
<!-- Node9&#45;&gt;Node14 -->
<g id="edge17_Node000009_Node000014" class="edge">
<title>Node9&#45;&gt;Node14</title>
<g id="a_edge17_Node000009_Node000014"><a xlink:title=" ">
<path fill="none" stroke="#63b8ff" d="M598.47,-183.37C575.95,-173.55 548.94,-161.78 528.08,-152.69"/>
<polygon fill="#63b8ff" stroke="#63b8ff" points="596.84,-186.47 607.4,-187.26 599.64,-180.06 596.84,-186.47"/>
</a>
</g>
</g>
<!-- Node16 -->
<g id="Node000016" class="node">
<title>Node16</title>
<g id="a_Node000016"><a xlink:href="LevelSystem_8hpp.html" target="_top" xlink:title=" ">
<polygon fill="white" stroke="#666666" points="890.75,-152.25 772,-152.25 772,-121.75 890.75,-121.75 890.75,-152.25"/>
<text xml:space="preserve" text-anchor="start" x="780" y="-138.75" font-family="Helvetica,sans-Serif" font-size="10.00">server/include/Systems</text>
<text xml:space="preserve" text-anchor="middle" x="831.38" y="-127.5" font-family="Helvetica,sans-Serif" font-size="10.00">/LevelSystem.hpp</text>
</a>
</g>
</g>
<!-- Node9&#45;&gt;Node16 -->
<g id="edge20_Node000009_Node000016" class="edge">
<title>Node9&#45;&gt;Node16</title>
<g id="a_edge20_Node000009_Node000016"><a xlink:title=" ">
<path fill="none" stroke="#63b8ff" d="M696.11,-184.16C725.33,-174.19 760.97,-162.03 788.33,-152.69"/>
<polygon fill="#63b8ff" stroke="#63b8ff" points="695.03,-180.83 686.69,-187.38 697.29,-187.46 695.03,-180.83"/>
</a>
</g>
</g>
<!-- Node18 -->
<g id="Node000018" class="node">
<title>Node18</title>
<g id="a_Node000018"><a xlink:href="PlayerShootSystem_8hpp.html" target="_top" xlink:title=" ">
<polygon fill="white" stroke="#666666" points="124.75,-152.25 0,-152.25 0,-121.75 124.75,-121.75 124.75,-152.25"/>
<text xml:space="preserve" text-anchor="start" x="8" y="-138.75" font-family="Helvetica,sans-Serif" font-size="10.00">server/include/Systems</text>
<text xml:space="preserve" text-anchor="middle" x="62.38" y="-127.5" font-family="Helvetica,sans-Serif" font-size="10.00">/PlayerShootSystem.hpp</text>
</a>
</g>
</g>
<!-- Node9&#45;&gt;Node18 -->
<g id="edge23_Node000009_Node000018" class="edge">
<title>Node9&#45;&gt;Node18</title>
<g id="a_edge23_Node000009_Node000018"><a xlink:title=" ">
<path fill="none" stroke="#63b8ff" d="M571.47,-188.11C377.65,-161.09 324.67,-178.8 134.38,-152.25 131.35,-151.83 128.25,-151.36 125.13,-150.86"/>
<polygon fill="#63b8ff" stroke="#63b8ff" points="570.72,-191.54 581.12,-189.48 571.71,-184.61 570.72,-191.54"/>
</a>
</g>
</g>
<!-- Node20 -->
<g id="Node000020" class="node">
<title>Node20</title>
<g id="a_Node000020"><a xlink:href="RoomSystem_8cpp.html" target="_top" xlink:title=" ">
<polygon fill="white" stroke="#666666" points="678.12,-152.25 576.62,-152.25 576.62,-121.75 678.12,-121.75 678.12,-152.25"/>
<text xml:space="preserve" text-anchor="start" x="584.62" y="-138.75" font-family="Helvetica,sans-Serif" font-size="10.00">server/src/Systems</text>
<text xml:space="preserve" text-anchor="middle" x="627.38" y="-127.5" font-family="Helvetica,sans-Serif" font-size="10.00">/RoomSystem.cpp</text>
</a>
</g>
</g>
<!-- Node9&#45;&gt;Node20 -->
<g id="edge26_Node000009_Node000020" class="edge">
<title>Node9&#45;&gt;Node20</title>
<g id="a_edge26_Node000009_Node000020"><a xlink:title=" ">
<path fill="none" stroke="#63b8ff" d="M636.41,-176.84C634.49,-168.59 632.43,-159.74 630.77,-152.58"/>
<polygon fill="#63b8ff" stroke="#63b8ff" points="632.95,-177.44 638.63,-186.39 639.77,-175.86 632.95,-177.44"/>
</a>
</g>
</g>
<!-- Node10&#45;&gt;Node5 -->
<g id="edge12_Node000010_Node000005" class="edge">
<title>Node10&#45;&gt;Node5</title>
<g id="a_edge12_Node000010_Node000005"><a xlink:title=" ">
<path fill="none" stroke="#63b8ff" d="M286.79,-121.64C456.44,-97.7 644.16,-82.12 734.07,-75.33"/>
<polygon fill="#63b8ff" stroke="#63b8ff" points="286.54,-118.14 277.14,-123.02 287.53,-125.07 286.54,-118.14"/>
</a>
</g>
</g>
<!-- Node11 -->
<g id="Node000011" class="node">
<title>Node11</title>
<g id="a_Node000011"><a xlink:href="BulletCleanupSystem_8cpp.html" target="_top" xlink:title=" ">
<polygon fill="white" stroke="#666666" points="275.5,-85.75 143.25,-85.75 143.25,-55.25 275.5,-55.25 275.5,-85.75"/>
<text xml:space="preserve" text-anchor="start" x="151.25" y="-72.25" font-family="Helvetica,sans-Serif" font-size="10.00">server/src/Systems</text>
<text xml:space="preserve" text-anchor="middle" x="209.38" y="-61" font-family="Helvetica,sans-Serif" font-size="10.00">/BulletCleanupSystem.cpp</text>
</a>
</g>
</g>
<!-- Node10&#45;&gt;Node11 -->
<g id="edge13_Node000010_Node000011" class="edge">
<title>Node10&#45;&gt;Node11</title>
<g id="a_edge13_Node000010_Node000011"><a xlink:title=" ">
<path fill="none" stroke="#63b8ff" d="M209.38,-110.06C209.38,-101.89 209.38,-93.16 209.38,-86.08"/>
<polygon fill="#63b8ff" stroke="#63b8ff" points="205.88,-109.85 209.38,-119.85 212.88,-109.85 205.88,-109.85"/>
</a>
</g>
</g>
<!-- Node12&#45;&gt;Node5 -->
<g id="edge15_Node000012_Node000005" class="edge">
<title>Node12&#45;&gt;Node5</title>
<g id="a_edge15_Node000012_Node000005"><a xlink:title=" ">
<path fill="none" stroke="#63b8ff" d="M424.23,-121.32C540.23,-101.55 665,-85.83 734.16,-77.62"/>
<polygon fill="#63b8ff" stroke="#63b8ff" points="423.79,-117.85 414.53,-122.99 424.97,-124.75 423.79,-117.85"/>
</a>
</g>
</g>
<!-- Node13 -->
<g id="Node000013" class="node">
<title>Node13</title>
<g id="a_Node000013"><a xlink:href="CollisionSystem_8cpp.html" target="_top" xlink:title=" ">
<polygon fill="white" stroke="#666666" points="407.88,-85.75 298.88,-85.75 298.88,-55.25 407.88,-55.25 407.88,-85.75"/>
<text xml:space="preserve" text-anchor="start" x="306.88" y="-72.25" font-family="Helvetica,sans-Serif" font-size="10.00">server/src/Systems</text>
<text xml:space="preserve" text-anchor="middle" x="353.38" y="-61" font-family="Helvetica,sans-Serif" font-size="10.00">/CollisionSystem.cpp</text>
</a>
</g>
</g>
<!-- Node12&#45;&gt;Node13 -->
<g id="edge16_Node000012_Node000013" class="edge">
<title>Node12&#45;&gt;Node13</title>
<g id="a_edge16_Node000012_Node000013"><a xlink:title=" ">
<path fill="none" stroke="#63b8ff" d="M353.38,-110.06C353.38,-101.89 353.38,-93.16 353.38,-86.08"/>
<polygon fill="#63b8ff" stroke="#63b8ff" points="349.88,-109.85 353.38,-119.85 356.88,-109.85 349.88,-109.85"/>
</a>
</g>
</g>
<!-- Node14&#45;&gt;Node5 -->
<g id="edge18_Node000014_Node000005" class="edge">
<title>Node14&#45;&gt;Node5</title>
<g id="a_edge18_Node000014_Node000005"><a xlink:title=" ">
<path fill="none" stroke="#63b8ff" d="M569.73,-119.41C621.16,-108.09 688.03,-93.37 734.01,-83.25"/>
<polygon fill="#63b8ff" stroke="#63b8ff" points="569.17,-115.95 560.15,-121.52 570.67,-122.79 569.17,-115.95"/>
</a>
</g>
</g>
<!-- Node15 -->
<g id="Node000015" class="node">
<title>Node15</title>
<g id="a_Node000015"><a xlink:href="EnemyShootSystem_8cpp.html" target="_top" xlink:title=" ">
<polygon fill="white" stroke="#666666" points="558.25,-85.75 430.5,-85.75 430.5,-55.25 558.25,-55.25 558.25,-85.75"/>
<text xml:space="preserve" text-anchor="start" x="438.5" y="-72.25" font-family="Helvetica,sans-Serif" font-size="10.00">server/src/Systems</text>
<text xml:space="preserve" text-anchor="middle" x="494.38" y="-61" font-family="Helvetica,sans-Serif" font-size="10.00">/EnemyShootSystem.cpp</text>
</a>
</g>
</g>
<!-- Node14&#45;&gt;Node15 -->
<g id="edge19_Node000014_Node000015" class="edge">
<title>Node14&#45;&gt;Node15</title>
<g id="a_edge19_Node000014_Node000015"><a xlink:title=" ">
<path fill="none" stroke="#63b8ff" d="M494.38,-110.06C494.38,-101.89 494.38,-93.16 494.38,-86.08"/>
<polygon fill="#63b8ff" stroke="#63b8ff" points="490.88,-109.85 494.38,-119.85 497.88,-109.85 490.88,-109.85"/>
</a>
</g>
</g>
<!-- Node16&#45;&gt;Node5 -->
<g id="edge21_Node000016_Node000005" class="edge">
<title>Node16&#45;&gt;Node5</title>
<g id="a_edge21_Node000016_Node000005"><a xlink:title=" ">
<path fill="none" stroke="#63b8ff" d="M815.03,-112.04C809.08,-103.32 802.55,-93.74 797.32,-86.08"/>
<polygon fill="#63b8ff" stroke="#63b8ff" points="812.01,-113.83 820.54,-120.11 817.79,-109.88 812.01,-113.83"/>
</a>
</g>
</g>
<!-- Node17 -->
<g id="Node000017" class="node">
<title>Node17</title>
<g id="a_Node000017"><a xlink:href="LevelSystem_8cpp.html" target="_top" xlink:title=" ">
<polygon fill="white" stroke="#666666" points="960.12,-85.75 858.62,-85.75 858.62,-55.25 960.12,-55.25 960.12,-85.75"/>
<text xml:space="preserve" text-anchor="start" x="866.62" y="-72.25" font-family="Helvetica,sans-Serif" font-size="10.00">server/src/Systems</text>
<text xml:space="preserve" text-anchor="middle" x="909.38" y="-61" font-family="Helvetica,sans-Serif" font-size="10.00">/LevelSystem.cpp</text>
</a>
</g>
</g>
<!-- Node16&#45;&gt;Node17 -->
<g id="edge22_Node000016_Node000017" class="edge">
<title>Node16&#45;&gt;Node17</title>
<g id="a_edge22_Node000016_Node000017"><a xlink:title=" ">
<path fill="none" stroke="#63b8ff" d="M857.66,-114.27C868.88,-104.98 881.69,-94.4 891.75,-86.08"/>
<polygon fill="#63b8ff" stroke="#63b8ff" points="855.72,-111.33 850.24,-120.4 860.18,-116.72 855.72,-111.33"/>
</a>
</g>
</g>
<!-- Node18&#45;&gt;Node5 -->
<g id="edge24_Node000018_Node000005" class="edge">
<title>Node18&#45;&gt;Node5</title>
<g id="a_edge24_Node000018_Node000005"><a xlink:title=" ">
<path fill="none" stroke="#63b8ff" d="M136.5,-121.71C228.86,-111.16 595.51,-85 734.08,-75.24"/>
<polygon fill="#63b8ff" stroke="#63b8ff" points="136.12,-118.23 126.63,-122.94 136.99,-125.18 136.12,-118.23"/>
</a>
</g>
</g>
<!-- Node19 -->
<g id="Node000019" class="node">
<title>Node19</title>
<g id="a_Node000019"><a xlink:href="PlayerShootSystem_8cpp.html" target="_top" xlink:title=" ">
<polygon fill="white" stroke="#666666" points="124.75,-85.75 0,-85.75 0,-55.25 124.75,-55.25 124.75,-85.75"/>
<text xml:space="preserve" text-anchor="start" x="8" y="-72.25" font-family="Helvetica,sans-Serif" font-size="10.00">server/src/Systems</text>
<text xml:space="preserve" text-anchor="middle" x="62.38" y="-61" font-family="Helvetica,sans-Serif" font-size="10.00">/PlayerShootSystem.cpp</text>
</a>
</g>
</g>
<!-- Node18&#45;&gt;Node19 -->
<g id="edge25_Node000018_Node000019" class="edge">
<title>Node18&#45;&gt;Node19</title>
<g id="a_edge25_Node000018_Node000019"><a xlink:title=" ">
<path fill="none" stroke="#63b8ff" d="M62.38,-110.06C62.38,-101.89 62.38,-93.16 62.38,-86.08"/>
<polygon fill="#63b8ff" stroke="#63b8ff" points="58.88,-109.85 62.38,-119.85 65.88,-109.85 58.88,-109.85"/>
</a>
</g>
</g>
<!-- Node24&#45;&gt;Node5 -->
<g id="edge31_Node000024_Node000005" class="edge">
<title>Node24&#45;&gt;Node5</title>
<g id="a_edge31_Node000024_Node000005"><a xlink:title=" ">
<path fill="none" stroke="#63b8ff" d="M921.91,-176.61C919.04,-159.28 912.83,-136.94 899.38,-121.75 884.05,-104.44 861.59,-92.77 840.81,-85.08"/>
<polygon fill="#63b8ff" stroke="#63b8ff" points="918.43,-176.98 923.24,-186.42 925.36,-176.04 918.43,-176.98"/>
</a>
</g>
</g>
<!-- Node24&#45;&gt;Node16 -->
<g id="edge32_Node000024_Node000016" class="edge">
<title>Node24&#45;&gt;Node16</title>
<g id="a_edge32_Node000024_Node000016"><a xlink:title=" ">
<path fill="none" stroke="#63b8ff" d="M893.83,-181.32C880.26,-171.91 864.63,-161.06 852.39,-152.58"/>
<polygon fill="#63b8ff" stroke="#63b8ff" points="891.82,-184.18 902.03,-187 895.81,-178.43 891.82,-184.18"/>
</a>
</g>
</g>
<!-- Node25 -->
<g id="Node000025" class="node">
<title>Node25</title>
<g id="a_Node000025"><a xlink:href="EntitySystem_8cpp.html" target="_top" xlink:title=" ">
<polygon fill="white" stroke="#666666" points="1048.12,-152.25 946.62,-152.25 946.62,-121.75 1048.12,-121.75 1048.12,-152.25"/>
<text xml:space="preserve" text-anchor="start" x="954.62" y="-138.75" font-family="Helvetica,sans-Serif" font-size="10.00">server/src/Systems</text>
<text xml:space="preserve" text-anchor="middle" x="997.38" y="-127.5" font-family="Helvetica,sans-Serif" font-size="10.00">/EntitySystem.cpp</text>
</a>
</g>
</g>
<!-- Node24&#45;&gt;Node25 -->
<g id="edge33_Node000024_Node000025" class="edge">
<title>Node24&#45;&gt;Node25</title>
<g id="a_edge33_Node000024_Node000025"><a xlink:title=" ">
<path fill="none" stroke="#63b8ff" d="M949.28,-180.49C959.71,-171.28 971.55,-160.81 980.88,-152.58"/>
<polygon fill="#63b8ff" stroke="#63b8ff" points="947.25,-177.62 942.07,-186.86 951.89,-182.86 947.25,-177.62"/>
</a>
</g>
</g>
<!-- Node26&#45;&gt;Node5 -->
<g id="edge35_Node000026_Node000005" class="edge">
<title>Node26&#45;&gt;Node5</title>
<g id="a_edge35_Node000026_Node000005"><a xlink:title=" ">
<path fill="none" stroke="#63b8ff" d="M1072.76,-176.44C1073.52,-158.68 1071.21,-135.92 1057.38,-121.75 1024.6,-88.19 895.36,-95.01 849.38,-85.75 846.56,-85.18 843.68,-84.58 840.77,-83.97"/>
<polygon fill="#63b8ff" stroke="#63b8ff" points="1069.28,-176 1071.97,-186.25 1076.26,-176.56 1069.28,-176"/>
</a>
</g>
</g>
<!-- Node27 -->
<g id="Node000027" class="node">
<title>Node27</title>
<g id="a_Node000027"><a xlink:href="PlayerSystem_8cpp.html" target="_top" xlink:title=" ">
<polygon fill="white" stroke="#666666" points="1206.12,-152.25 1104.62,-152.25 1104.62,-121.75 1206.12,-121.75 1206.12,-152.25"/>
<text xml:space="preserve" text-anchor="start" x="1112.62" y="-138.75" font-family="Helvetica,sans-Serif" font-size="10.00">server/src/Systems</text>
<text xml:space="preserve" text-anchor="middle" x="1155.38" y="-127.5" font-family="Helvetica,sans-Serif" font-size="10.00">/PlayerSystem.cpp</text>
</a>
</g>
</g>
<!-- Node26&#45;&gt;Node27 -->
<g id="edge36_Node000026_Node000027" class="edge">
<title>Node26&#45;&gt;Node27</title>
<g id="a_edge36_Node000026_Node000027"><a xlink:title=" ">
<path fill="none" stroke="#63b8ff" d="M1097.98,-181.04C1110.45,-171.69 1124.74,-160.98 1135.94,-152.58"/>
<polygon fill="#63b8ff" stroke="#63b8ff" points="1096,-178.16 1090.1,-186.96 1100.2,-183.76 1096,-178.16"/>
</a>
</g>
</g>
<!-- Node29&#45;&gt;Node5 -->
<g id="edge39_Node000029_Node000005" class="edge">
<title>Node29&#45;&gt;Node5</title>
<g id="a_edge39_Node000029_Node000005"><a xlink:title=" ">
<path fill="none" stroke="#63b8ff" d="M1341.59,-264.66C1415.81,-257.51 1506.75,-238.53 1469.38,-188.25 1392.55,-84.91 889.34,-92.11 849.38,-85.75 846.54,-85.3 843.64,-84.79 840.72,-84.25"/>
<polygon fill="#63b8ff" stroke="#63b8ff" points="1341.47,-261.16 1331.82,-265.54 1342.1,-268.13 1341.47,-261.16"/>
</a>
</g>
</g>
<!-- Node29&#45;&gt;Node7 -->
<g id="edge48_Node000029_Node000007" class="edge">
<title>Node29&#45;&gt;Node7</title>
<g id="a_edge48_Node000029_Node000007"><a xlink:title=" ">
<path fill="none" stroke="#63b8ff" d="M1341.5,-269.36C1441.93,-267.92 1601.61,-259.1 1643.38,-218.75 1674.58,-188.6 1679.66,-157.01 1654.38,-121.75 1590.87,-33.19 1452.87,-14.33 1377.7,-10.86"/>
<polygon fill="#63b8ff" stroke="#63b8ff" points="1341.63,-265.86 1331.67,-269.48 1341.71,-272.86 1341.63,-265.86"/>
</a>
</g>
</g>
<!-- Node29&#45;&gt;Node9 -->
<g id="edge46_Node000029_Node000009" class="edge">
<title>Node29&#45;&gt;Node9</title>
<g id="a_edge46_Node000029_Node000009"><a xlink:title=" ">
<path fill="none" stroke="#63b8ff" d="M1173.03,-258.8C1161.07,-257.41 1148.91,-256.02 1137.38,-254.75 980.47,-237.47 795.33,-219.25 702.22,-210.24"/>
<polygon fill="#63b8ff" stroke="#63b8ff" points="1172.58,-262.27 1182.92,-259.96 1173.39,-255.32 1172.58,-262.27"/>
</a>
</g>
</g>
<!-- Node29&#45;&gt;Node24 -->
<g id="edge43_Node000029_Node000024" class="edge">
<title>Node29&#45;&gt;Node24</title>
<g id="a_edge43_Node000029_Node000024"><a xlink:title=" ">
<path fill="none" stroke="#63b8ff" d="M1173.54,-252.76C1114.51,-241.33 1036.91,-226.3 984.1,-216.07"/>
<polygon fill="#63b8ff" stroke="#63b8ff" points="1172.74,-256.17 1183.22,-254.64 1174.07,-249.3 1172.74,-256.17"/>
</a>
</g>
</g>
<!-- Node29&#45;&gt;Node26 -->
<g id="edge45_Node000029_Node000026" class="edge">
<title>Node29&#45;&gt;Node26</title>
<g id="a_edge45_Node000029_Node000026"><a xlink:title=" ">
<path fill="none" stroke="#63b8ff" d="M1203.92,-250.66C1174.86,-240.69 1139.41,-228.53 1112.19,-219.19"/>
<polygon fill="#63b8ff" stroke="#63b8ff" points="1202.69,-253.94 1213.28,-253.87 1204.96,-247.32 1202.69,-253.94"/>
</a>
</g>
</g>
<!-- Node30 -->
<g id="Node000030" class="node">
<title>Node30</title>
<g id="a_Node000030"><a xlink:href="AuthSystem_8hpp.html" target="_top" xlink:title=" ">
<polygon fill="white" stroke="#666666" points="1634.75,-218.75 1516,-218.75 1516,-188.25 1634.75,-188.25 1634.75,-218.75"/>
<text xml:space="preserve" text-anchor="start" x="1524" y="-205.25" font-family="Helvetica,sans-Serif" font-size="10.00">server/include/Systems</text>
<text xml:space="preserve" text-anchor="middle" x="1575.38" y="-194" font-family="Helvetica,sans-Serif" font-size="10.00">/AuthSystem.hpp</text>
</a>
</g>
</g>
<!-- Node29&#45;&gt;Node30 -->
<g id="edge40_Node000029_Node000030" class="edge">
<title>Node29&#45;&gt;Node30</title>
<g id="a_edge40_Node000029_Node000030"><a xlink:title=" ">
<path fill="none" stroke="#63b8ff" d="M1341.04,-252.03C1395.93,-240.9 1466.38,-226.61 1515.65,-216.61"/>
<polygon fill="#63b8ff" stroke="#63b8ff" points="1340.52,-248.56 1331.42,-253.98 1341.91,-255.42 1340.52,-248.56"/>
</a>
</g>
</g>
<!-- Node32 -->
<g id="Node000032" class="node">
<title>Node32</title>
<g id="a_Node000032"><a xlink:href="server_2include_2Systems_2NetworkSyncSystem_8hpp.html" target="_top" xlink:title=" ">
<polygon fill="white" stroke="#666666" points="1314.75,-218.75 1184,-218.75 1184,-188.25 1314.75,-188.25 1314.75,-218.75"/>
<text xml:space="preserve" text-anchor="start" x="1192" y="-205.25" font-family="Helvetica,sans-Serif" font-size="10.00">server/include/Systems</text>
<text xml:space="preserve" text-anchor="middle" x="1249.38" y="-194" font-family="Helvetica,sans-Serif" font-size="10.00">/NetworkSyncSystem.hpp</text>
</a>
</g>
</g>
<!-- Node29&#45;&gt;Node32 -->
<g id="edge44_Node000029_Node000032" class="edge">
<title>Node29&#45;&gt;Node32</title>
<g id="a_edge44_Node000029_Node000032"><a xlink:title=" ">
<path fill="none" stroke="#63b8ff" d="M1254.16,-243.06C1253.14,-234.89 1252.06,-226.16 1251.18,-219.08"/>
<polygon fill="#63b8ff" stroke="#63b8ff" points="1250.67,-243.37 1255.37,-252.86 1257.62,-242.51 1250.67,-243.37"/>
</a>
</g>
</g>
<!-- Node33 -->
<g id="Node000033" class="node">
<title>Node33</title>
<g id="a_Node000033"><a xlink:href="ServerNetwork_8cpp.html" target="_top" xlink:title=" ">
<polygon fill="white" stroke="#666666" points="1460.25,-218.75 1332.5,-218.75 1332.5,-188.25 1460.25,-188.25 1460.25,-218.75"/>
<text xml:space="preserve" text-anchor="start" x="1340.5" y="-205.25" font-family="Helvetica,sans-Serif" font-size="10.00">server/src/ServerNetwork</text>
<text xml:space="preserve" text-anchor="middle" x="1396.38" y="-194" font-family="Helvetica,sans-Serif" font-size="10.00">/ServerNetwork.cpp</text>
</a>
</g>
</g>
<!-- Node29&#45;&gt;Node33 -->
<g id="edge47_Node000029_Node000033" class="edge">
<title>Node29&#45;&gt;Node33</title>
<g id="a_edge47_Node000029_Node000033"><a xlink:title=" ">
<path fill="none" stroke="#63b8ff" d="M1299.22,-249.58C1320.34,-239.78 1345.52,-228.1 1364.96,-219.08"/>
<polygon fill="#63b8ff" stroke="#63b8ff" points="1297.89,-246.34 1290.29,-253.73 1300.83,-252.69 1297.89,-246.34"/>
</a>
</g>
</g>
<!-- Node30&#45;&gt;Node5 -->
<g id="edge41_Node000030_Node000005" class="edge">
<title>Node30&#45;&gt;Node5</title>
<g id="a_edge41_Node000030_Node000005"><a xlink:title=" ">
<path fill="none" stroke="#63b8ff" d="M1555.04,-179.66C1535.3,-158.13 1506.21,-128.21 1491.38,-121.75 1360.38,-64.68 990.85,-105.83 849.38,-85.75 846.53,-85.35 843.63,-84.88 840.7,-84.36"/>
<polygon fill="#63b8ff" stroke="#63b8ff" points="1552.28,-181.83 1561.59,-186.88 1557.46,-177.12 1552.28,-181.83"/>
</a>
</g>
</g>
<!-- Node31 -->
<g id="Node000031" class="node">
<title>Node31</title>
<g id="a_Node000031"><a xlink:href="AuthSystem_8cpp.html" target="_top" xlink:title=" ">
<polygon fill="white" stroke="#666666" points="1645.12,-152.25 1543.62,-152.25 1543.62,-121.75 1645.12,-121.75 1645.12,-152.25"/>
<text xml:space="preserve" text-anchor="start" x="1551.62" y="-138.75" font-family="Helvetica,sans-Serif" font-size="10.00">server/src/Systems</text>
<text xml:space="preserve" text-anchor="middle" x="1594.38" y="-127.5" font-family="Helvetica,sans-Serif" font-size="10.00">/AuthSystem.cpp</text>
</a>
</g>
</g>
<!-- Node30&#45;&gt;Node31 -->
<g id="edge42_Node000030_Node000031" class="edge">
<title>Node30&#45;&gt;Node31</title>
<g id="a_edge42_Node000030_Node000031"><a xlink:title=" ">
<path fill="none" stroke="#63b8ff" d="M1582.93,-176.84C1585.36,-168.59 1587.97,-159.74 1590.08,-152.58"/>
<polygon fill="#63b8ff" stroke="#63b8ff" points="1579.58,-175.83 1580.11,-186.41 1586.3,-177.81 1579.58,-175.83"/>
</a>
</g>
</g>
</g>
</svg>

<g id="navigator" transform="translate(0 0)" fill="#404254">
  <rect fill="#f2f5e9" fill-opacity="0.5" stroke="#606060" stroke-width=".5" x="0" y="0" width="60" height="60"/>
  <use id="zoomplus" xlink:href="#zoomPlus" x="17" y="9" onmousedown="handleZoom(evt,'in')"/>
  <use id="zoomminus" xlink:href="#zoomMin" x="42" y="9" onmousedown="handleZoom(evt,'out')"/>
  <use id="reset" xlink:href="#resetDef" x="30" y="36" onmousedown="handleReset()"/>
   <use id="arrowup" xlink:href="#arrowUp" x="0" y="0" onmousedown="handlePan(0,-1)"/>
  <use id="arrowright" xlink:href="#arrowRight" x="0" y="0" onmousedown="handlePan(1,0)"/>
  <use id="arrowdown" xlink:href="#arrowDown" x="0" y="0" onmousedown="handlePan(0,1)"/>
  <use id="arrowleft" xlink:href="#arrowLeft" x="0" y="0" onmousedown="handlePan(-1,0)"/>
</g>
<svg viewBox="0 0 15 15" width="100%" height="30px" preserveAspectRatio="xMaxYMin meet">
 <g id="arrow_out" transform="scale(0.3 0.3)">
  <a xlink:href="Session_8hpp__dep__incl_org.svg" target="_base">
   <rect id="button" ry="5" rx="5" y="6" x="6" height="38" width="38"
        fill="#f2f5e9" fill-opacity="0.5" stroke="#606060" stroke-width="1.0"/>
   <path id="arrow"
     d="M 11.500037,31.436501 C 11.940474,20.09759 22.043105,11.32322 32.158766,21.979434 L 37.068811,17.246167 C 37.068811,17.246167 37.088388,32 37.088388,32 L 22.160133,31.978069 C 22.160133,31.978069 26.997745,27.140456 26.997745,27.140456 C 18.528582,18.264221 13.291696,25.230495 11.500037,31.436501 z"
     style="fill:#404040;"/>
  </a>
 </g>
</svg>

<style type='text/css'>
<![CDATA[
[data-mouse-over-selected='false'] { opacity: 0.7; }
[data-mouse-over-selected='true']  { opacity: 1.0; }
]]>
</style>
<script type="application/ecmascript"><![CDATA[
document.addEventListener('DOMContentLoaded', (event) => {
  highlightEdges();
  highlightAdjacentNodes();
});
]]></script>
</svg>
