<?xml version="1.0" encoding="UTF-8" standalone="no"?>
<!DOCTYPE svg PUBLIC "-//W3C//DTD SVG 1.1//EN"
 "http://www.w3.org/Graphics/SVG/1.1/DTD/svg11.dtd">
<!-- Generated by graphviz version 14.0.5 (20251129.0259)
 -->
<!-- Title: client/src/Core/Settings.cpp Pages: 1 -->
<!--zoomable 315 -->

<svg id="main" version="1.1" xmlns="http://www.w3.org/2000/svg" xmlns:xlink="http://www.w3.org/1999/xlink" xml:space="preserve" onload="init(evt)">

<style type="text/css"><![CDATA[
.node, .edge {opacity: 0.7;}
.node.selected, .edge.selected {opacity: 1;}
.edge:hover path { stroke: red; }
.edge:hover polygon { stroke: red; fill: red; }
]]></style>

<defs>
  <circle id="rim" cx="0" cy="0" r="7"/>
  <circle id="rim2" cx="0" cy="0" r="3.5"/>
  <g id="zoomPlus">
    <use xlink:href="#rim" fill="#404040"><set attributeName="fill" to="#808080" begin="zoomplus.mouseover" end="zoomplus.mouseout"/></use>
    <path d="M-4,0h8M0,-4v8" fill="none" stroke="white" stroke-width="1.5" pointer-events="none"/>
  </g>
  <g id="zoomMin">
    <use xlink:href="#rim" fill="#404040"><set attributeName="fill" to="#808080" begin="zoomminus.mouseover" end="zoomminus.mouseout"/></use>
    <path d="M-4,0h8" fill="none" stroke="white" stroke-width="1.5" pointer-events="none"/>
  </g>
  <g id="arrowUp" transform="translate(30 24)">
    <use xlink:href="#rim"/>
    <path pointer-events="none" fill="none" stroke="white" stroke-width="1.5" d="M0,-3.0v7 M-2.5,-0.5L0,-3.0L2.5,-0.5"/>
  </g>
  <g id="arrowRight" transform="rotate(90) translate(36 -43)">
    <use xlink:href="#rim"/>
    <path pointer-events="none" fill="none" stroke="white" stroke-width="1.5" d="M0,-3.0v7 M-2.5,-0.5L0,-3.0L2.5,-0.5"/>
  </g>
  <g id="arrowDown" transform="rotate(180) translate(-30 -48)">
    <use xlink:href="#rim"/>
    <path pointer-events="none" fill="none" stroke="white" stroke-width="1.5" d="M0,-3.0v7 M-2.5,-0.5L0,-3.0L2.5,-0.5"/>
  </g>
  <g id="arrowLeft" transform="rotate(270) translate(-36 17)">
    <use xlink:href="#rim"/>
    <path pointer-events="none" fill="none" stroke="white" stroke-width="1.5" d="M0,-3.0v7 M-2.5,-0.5L0,-3.0L2.5,-0.5"/>
  </g>
  <g id="resetDef">
    <use xlink:href="#rim2" fill="#404040"><set attributeName="fill" to="#808080" begin="reset.mouseover" end="reset.mouseout"/></use>
  </g>
</defs>
<script type="application/ecmascript">
var viewWidth = 1862;
var viewHeight = 315;
var sectionId = 'dynsection-0';
</script>
<script type="application/ecmascript" xlink:href="svg.min.js"/>
<svg id="graph" class="graph">
<g id="viewport">
<title>client/src/Core/Settings.cpp</title>
<!-- Node1 -->
<g id="Node000001" class="node">
<title>Node1</title>
<g id="a_Node000001"><a xlink:title=" ">
<polygon fill="#999999" stroke="#666666" points="1095.38,-306.75 957.88,-306.75 957.88,-287.5 1095.38,-287.5 1095.38,-306.75"/>
<text xml:space="preserve" text-anchor="middle" x="1026.62" y="-293.25" font-family="Helvetica,sans-Serif" font-size="10.00">client/src/Core/Settings.cpp</text>
</a>
</g>
</g>
<!-- Node2 -->
<g id="Node000002" class="node">
<title>Node2</title>
<g id="a_Node000002"><a xlink:href="Settings_8hpp.html" target="_top" xlink:title=" ">
<polygon fill="white" stroke="#666666" points="1287,-251.5 1192.25,-251.5 1192.25,-232.25 1287,-232.25 1287,-251.5"/>
<text xml:space="preserve" text-anchor="middle" x="1239.62" y="-238" font-family="Helvetica,sans-Serif" font-size="10.00">Core/Settings.hpp</text>
</a>
</g>
</g>
<!-- Node1&#45;&gt;Node2 -->
<g id="edge1_Node000001_Node000002" class="edge">
<title>Node1&#45;&gt;Node2</title>
<g id="a_edge1_Node000001_Node000002"><a xlink:title=" ">
<path fill="none" stroke="#63b8ff" d="M1062.76,-287.09C1098.41,-278.18 1153.1,-264.51 1192.22,-254.73"/>
<polygon fill="#63b8ff" stroke="#63b8ff" points="1192.99,-258.14 1201.85,-252.32 1191.3,-251.35 1192.99,-258.14"/>
</a>
</g>
</g>
<!-- Node30 -->
<g id="Node000030" class="node">
<title>Node30</title>
<g id="a_Node000030"><a xlink:href="WeaponConfig_8hpp.html" target="_top" xlink:title=" ">
<polygon fill="white" stroke="#666666" points="953.38,-251.5 791.88,-251.5 791.88,-232.25 953.38,-232.25 953.38,-251.5"/>
<text xml:space="preserve" text-anchor="middle" x="872.62" y="-238" font-family="Helvetica,sans-Serif" font-size="10.00">RType/Config/WeaponConfig.hpp</text>
</a>
</g>
</g>
<!-- Node1&#45;&gt;Node30 -->
<g id="edge40_Node000001_Node000030" class="edge">
<title>Node1&#45;&gt;Node30</title>
<g id="a_edge40_Node000001_Node000030"><a xlink:title=" ">
<path fill="none" stroke="#63b8ff" d="M1000.5,-287.09C975.5,-278.45 937.55,-265.32 909.48,-255.62"/>
<polygon fill="#63b8ff" stroke="#63b8ff" points="910.9,-252.41 900.31,-252.45 908.61,-259.02 910.9,-252.41"/>
</a>
</g>
</g>
<!-- Node3 -->
<g id="Node000003" class="node">
<title>Node3</title>
<g id="a_Node000003"><a xlink:href="Logger_8hpp.html" target="_top" xlink:title="Logger declaration with support for multiple log levels.">
<polygon fill="white" stroke="#666666" points="546,-190.62 451.25,-190.62 451.25,-171.38 546,-171.38 546,-190.62"/>
<text xml:space="preserve" text-anchor="middle" x="498.62" y="-177.12" font-family="Helvetica,sans-Serif" font-size="10.00">RType/Logger.hpp</text>
</a>
</g>
</g>
<!-- Node2&#45;&gt;Node3 -->
<g id="edge2_Node000002_Node000003" class="edge">
<title>Node2&#45;&gt;Node3</title>
<g id="a_edge2_Node000002_Node000003"><a xlink:title=" ">
<path fill="none" stroke="#63b8ff" d="M1191.86,-237.08C1061.44,-226.72 699.55,-197.96 557.21,-186.65"/>
<polygon fill="#63b8ff" stroke="#63b8ff" points="557.89,-183.2 547.65,-185.89 557.34,-190.18 557.89,-183.2"/>
</a>
</g>
</g>
<!-- Node11 -->
<g id="Node000011" class="node">
<title>Node11</title>
<g id="a_Node000011"><a xlink:title=" ">
<polygon fill="#e0e0e0" stroke="#999999" points="835.62,-74.5 795.62,-74.5 795.62,-55.25 835.62,-55.25 835.62,-74.5"/>
<text xml:space="preserve" text-anchor="middle" x="815.62" y="-61" font-family="Helvetica,sans-Serif" font-size="10.00">string</text>
</a>
</g>
</g>
<!-- Node2&#45;&gt;Node11 -->
<g id="edge37_Node000002_Node000011" class="edge">
<title>Node2&#45;&gt;Node11</title>
<g id="a_edge37_Node000002_Node000011"><a xlink:title=" ">
<path fill="none" stroke="#63b8ff" d="M1191.8,-238.14C1115.95,-233.12 972.12,-220.65 927.62,-196.25 879.37,-169.79 842.51,-113.78 825.68,-84.54"/>
<polygon fill="#63b8ff" stroke="#63b8ff" points="828.89,-83.11 820.96,-76.08 822.77,-86.52 828.89,-83.11"/>
</a>
</g>
</g>
<!-- Node19 -->
<g id="Node000019" class="node">
<title>Node19</title>
<g id="a_Node000019"><a xlink:href="SimpleWeapon_8hpp.html" target="_top" xlink:title=" ">
<polygon fill="white" stroke="#666666" points="433.12,-196.25 306.12,-196.25 306.12,-165.75 433.12,-165.75 433.12,-196.25"/>
<text xml:space="preserve" text-anchor="start" x="314.12" y="-182.75" font-family="Helvetica,sans-Serif" font-size="10.00">RType/ECS/Components</text>
<text xml:space="preserve" text-anchor="middle" x="369.62" y="-171.5" font-family="Helvetica,sans-Serif" font-size="10.00">/SimpleWeapon.hpp</text>
</a>
</g>
</g>
<!-- Node2&#45;&gt;Node19 -->
<g id="edge27_Node000002_Node000019" class="edge">
<title>Node2&#45;&gt;Node19</title>
<g id="a_edge27_Node000002_Node000019"><a xlink:title=" ">
<path fill="none" stroke="#63b8ff" d="M1191.85,-239.06C1046.38,-233.4 609.23,-215.38 444.18,-196.27"/>
<polygon fill="#63b8ff" stroke="#63b8ff" points="445.09,-192.85 434.75,-195.13 444.26,-199.8 445.09,-192.85"/>
</a>
</g>
</g>
<!-- Node20 -->
<g id="Node000020" class="node">
<title>Node20</title>
<g id="a_Node000020"><a xlink:href="KeyAction_8hpp.html" target="_top" xlink:title=" ">
<polygon fill="white" stroke="#666666" points="1331.12,-190.62 1228.12,-190.62 1228.12,-171.38 1331.12,-171.38 1331.12,-190.62"/>
<text xml:space="preserve" text-anchor="middle" x="1279.62" y="-177.12" font-family="Helvetica,sans-Serif" font-size="10.00">Utils/KeyAction.hpp</text>
</a>
</g>
</g>
<!-- Node2&#45;&gt;Node20 -->
<g id="edge29_Node000002_Node000020" class="edge">
<title>Node2&#45;&gt;Node20</title>
<g id="a_edge29_Node000002_Node000020"><a xlink:title=" ">
<path fill="none" stroke="#63b8ff" d="M1245.7,-231.93C1251.34,-223.63 1259.91,-211.02 1267.02,-200.55"/>
<polygon fill="#63b8ff" stroke="#63b8ff" points="1269.92,-202.52 1272.64,-192.28 1264.13,-198.58 1269.92,-202.52"/>
</a>
</g>
</g>
<!-- Node21 -->
<g id="Node000021" class="node">
<title>Node21</title>
<g id="a_Node000021"><a xlink:title=" ">
<polygon fill="#e0e0e0" stroke="#999999" points="1492.38,-190.62 1348.88,-190.62 1348.88,-171.38 1492.38,-171.38 1492.38,-190.62"/>
<text xml:space="preserve" text-anchor="middle" x="1420.62" y="-177.12" font-family="Helvetica,sans-Serif" font-size="10.00">SFML/Window/Keyboard.hpp</text>
</a>
</g>
</g>
<!-- Node2&#45;&gt;Node21 -->
<g id="edge30_Node000002_Node000021" class="edge">
<title>Node2&#45;&gt;Node21</title>
<g id="a_edge30_Node000002_Node000021"><a xlink:title=" ">
<path fill="none" stroke="#63b8ff" d="M1267.51,-231.8C1298.2,-221.82 1347.74,-205.71 1382.12,-194.52"/>
<polygon fill="#63b8ff" stroke="#63b8ff" points="1382.84,-197.97 1391.27,-191.55 1380.68,-191.31 1382.84,-197.97"/>
</a>
</g>
</g>
<!-- Node22 -->
<g id="Node000022" class="node">
<title>Node22</title>
<g id="a_Node000022"><a xlink:title=" ">
<polygon fill="#e0e0e0" stroke="#999999" points="1566.5,-190.62 1510.75,-190.62 1510.75,-171.38 1566.5,-171.38 1566.5,-190.62"/>
<text xml:space="preserve" text-anchor="middle" x="1538.62" y="-177.12" font-family="Helvetica,sans-Serif" font-size="10.00">algorithm</text>
</a>
</g>
</g>
<!-- Node2&#45;&gt;Node22 -->
<g id="edge31_Node000002_Node000022" class="edge">
<title>Node2&#45;&gt;Node22</title>
<g id="a_edge31_Node000002_Node000022"><a xlink:title=" ">
<path fill="none" stroke="#63b8ff" d="M1287.1,-235.67C1340.06,-229.21 1427.99,-216.48 1501.62,-196.25 1503.24,-195.81 1504.89,-195.32 1506.54,-194.8"/>
<polygon fill="#63b8ff" stroke="#63b8ff" points="1507.63,-198.12 1515.92,-191.52 1505.32,-191.51 1507.63,-198.12"/>
</a>
</g>
</g>
<!-- Node23 -->
<g id="Node000023" class="node">
<title>Node23</title>
<g id="a_Node000023"><a xlink:title=" ">
<polygon fill="#e0e0e0" stroke="#999999" points="1645.12,-190.62 1584.12,-190.62 1584.12,-171.38 1645.12,-171.38 1645.12,-190.62"/>
<text xml:space="preserve" text-anchor="middle" x="1614.62" y="-177.12" font-family="Helvetica,sans-Serif" font-size="10.00">filesystem</text>
</a>
</g>
</g>
<!-- Node2&#45;&gt;Node23 -->
<g id="edge32_Node000002_Node000023" class="edge">
<title>Node2&#45;&gt;Node23</title>
<g id="a_edge32_Node000002_Node000023"><a xlink:title=" ">
<path fill="none" stroke="#63b8ff" d="M1287.25,-237.84C1352.92,-232.9 1474.63,-221.09 1575.62,-196.25 1577.64,-195.75 1579.69,-195.19 1581.75,-194.58"/>
<polygon fill="#63b8ff" stroke="#63b8ff" points="1582.78,-197.93 1591.17,-191.47 1580.58,-191.28 1582.78,-197.93"/>
</a>
</g>
</g>
<!-- Node24 -->
<g id="Node000024" class="node">
<title>Node24</title>
<g id="a_Node000024"><a xlink:title=" ">
<polygon fill="#e0e0e0" stroke="#999999" points="1144.12,-129.75 1095.12,-129.75 1095.12,-110.5 1144.12,-110.5 1144.12,-129.75"/>
<text xml:space="preserve" text-anchor="middle" x="1119.62" y="-116.25" font-family="Helvetica,sans-Serif" font-size="10.00">fstream</text>
</a>
</g>
</g>
<!-- Node2&#45;&gt;Node24 -->
<g id="edge33_Node000002_Node000024" class="edge">
<title>Node2&#45;&gt;Node24</title>
<g id="a_edge33_Node000002_Node000024"><a xlink:title=" ">
<path fill="none" stroke="#63b8ff" d="M1230.61,-231.87C1210.63,-211.94 1162.37,-163.78 1136.57,-138.03"/>
<polygon fill="#63b8ff" stroke="#63b8ff" points="1139.37,-135.89 1129.82,-131.3 1134.43,-140.84 1139.37,-135.89"/>
</a>
</g>
</g>
<!-- Node25 -->
<g id="Node000025" class="node">
<title>Node25</title>
<g id="a_Node000025"><a xlink:title=" ">
<polygon fill="#e0e0e0" stroke="#999999" points="1721.62,-190.62 1663.62,-190.62 1663.62,-171.38 1721.62,-171.38 1721.62,-190.62"/>
<text xml:space="preserve" text-anchor="middle" x="1692.62" y="-177.12" font-family="Helvetica,sans-Serif" font-size="10.00">functional</text>
</a>
</g>
</g>
<!-- Node2&#45;&gt;Node25 -->
<g id="edge34_Node000002_Node000025" class="edge">
<title>Node2&#45;&gt;Node25</title>
<g id="a_edge34_Node000002_Node000025"><a xlink:title=" ">
<path fill="none" stroke="#63b8ff" d="M1287.27,-239.63C1365.12,-236.75 1524.01,-227.24 1654.62,-196.25 1656.51,-195.8 1658.43,-195.29 1660.35,-194.72"/>
<polygon fill="#63b8ff" stroke="#63b8ff" points="1661.4,-198.06 1669.78,-191.58 1659.19,-191.42 1661.4,-198.06"/>
</a>
</g>
</g>
<!-- Node26 -->
<g id="Node000026" class="node">
<title>Node26</title>
<g id="a_Node000026"><a xlink:title=" ">
<polygon fill="#e0e0e0" stroke="#999999" points="1793.38,-190.62 1739.88,-190.62 1739.88,-171.38 1793.38,-171.38 1793.38,-190.62"/>
<text xml:space="preserve" text-anchor="middle" x="1766.62" y="-177.12" font-family="Helvetica,sans-Serif" font-size="10.00">iostream</text>
</a>
</g>
</g>
<!-- Node2&#45;&gt;Node26 -->
<g id="edge35_Node000002_Node000026" class="edge">
<title>Node2&#45;&gt;Node26</title>
<g id="a_edge35_Node000002_Node000026"><a xlink:title=" ">
<path fill="none" stroke="#63b8ff" d="M1287.41,-241.03C1376.03,-240.34 1571.38,-234.17 1730.62,-196.25 1732.38,-195.83 1734.17,-195.34 1735.96,-194.8"/>
<polygon fill="#63b8ff" stroke="#63b8ff" points="1737.05,-198.13 1745.34,-191.53 1734.75,-191.52 1737.05,-198.13"/>
</a>
</g>
</g>
<!-- Node27 -->
<g id="Node000027" class="node">
<title>Node27</title>
<g id="a_Node000027"><a xlink:title=" ">
<polygon fill="#e0e0e0" stroke="#999999" points="1221.25,-129.75 1170,-129.75 1170,-110.5 1221.25,-110.5 1221.25,-129.75"/>
<text xml:space="preserve" text-anchor="middle" x="1195.62" y="-116.25" font-family="Helvetica,sans-Serif" font-size="10.00">sstream</text>
</a>
</g>
</g>
<!-- Node2&#45;&gt;Node27 -->
<g id="edge36_Node000002_Node000027" class="edge">
<title>Node2&#45;&gt;Node27</title>
<g id="a_edge36_Node000002_Node000027"><a xlink:title=" ">
<path fill="none" stroke="#63b8ff" d="M1235.18,-231.77C1230.91,-222.84 1224.42,-208.78 1219.62,-196.25 1212.52,-177.68 1205.76,-156.01 1201.23,-140.73"/>
<polygon fill="#63b8ff" stroke="#63b8ff" points="1204.69,-140.1 1198.54,-131.48 1197.97,-142.06 1204.69,-140.1"/>
</a>
</g>
</g>
<!-- Node28 -->
<g id="Node000028" class="node">
<title>Node28</title>
<g id="a_Node000028"><a xlink:title=" ">
<polygon fill="#e0e0e0" stroke="#999999" points="969,-129.75 886.25,-129.75 886.25,-110.5 969,-110.5 969,-129.75"/>
<text xml:space="preserve" text-anchor="middle" x="927.62" y="-116.25" font-family="Helvetica,sans-Serif" font-size="10.00">unordered_map</text>
</a>
</g>
</g>
<!-- Node2&#45;&gt;Node28 -->
<g id="edge38_Node000002_Node000028" class="edge">
<title>Node2&#45;&gt;Node28</title>
<g id="a_edge38_Node000002_Node000028"><a xlink:title=" ">
<path fill="none" stroke="#63b8ff" d="M1191.87,-239.67C1118.75,-236.85 983.82,-227.44 948.62,-196.25 933.21,-182.58 928.7,-158.63 927.58,-141.44"/>
<polygon fill="#63b8ff" stroke="#63b8ff" points="931.08,-141.54 927.3,-131.64 924.08,-141.74 931.08,-141.54"/>
</a>
</g>
</g>
<!-- Node29 -->
<g id="Node000029" class="node">
<title>Node29</title>
<g id="a_Node000029"><a xlink:title=" ">
<polygon fill="#e0e0e0" stroke="#999999" points="1854.12,-190.62 1811.12,-190.62 1811.12,-171.38 1854.12,-171.38 1854.12,-190.62"/>
<text xml:space="preserve" text-anchor="middle" x="1832.62" y="-177.12" font-family="Helvetica,sans-Serif" font-size="10.00">vector</text>
</a>
</g>
</g>
<!-- Node2&#45;&gt;Node29 -->
<g id="edge39_Node000002_Node000029" class="edge">
<title>Node2&#45;&gt;Node29</title>
<g id="a_edge39_Node000002_Node000029"><a xlink:title=" ">
<path fill="none" stroke="#63b8ff" d="M1287.48,-239.31C1405.13,-235.11 1705.89,-222.12 1802.62,-196.25 1803.62,-195.98 1804.63,-195.68 1805.64,-195.36"/>
<polygon fill="#63b8ff" stroke="#63b8ff" points="1806.84,-198.65 1814.81,-191.67 1804.23,-192.15 1806.84,-198.65"/>
</a>
</g>
</g>
<!-- Node4 -->
<g id="Node000004" class="node">
<title>Node4</title>
<g id="a_Node000004"><a xlink:href="LogLevel_8hpp.html" target="_top" xlink:title="Log severity levels for the logging system.">
<polygon fill="white" stroke="#666666" points="232.25,-74.5 127,-74.5 127,-55.25 232.25,-55.25 232.25,-74.5"/>
<text xml:space="preserve" text-anchor="middle" x="179.62" y="-61" font-family="Helvetica,sans-Serif" font-size="10.00">RType/LogLevel.hpp</text>
</a>
</g>
</g>
<!-- Node3&#45;&gt;Node4 -->
<g id="edge3_Node000003_Node000004" class="edge">
<title>Node3&#45;&gt;Node4</title>
<g id="a_edge3_Node000003_Node000004"><a xlink:title=" ">
<path fill="none" stroke="#63b8ff" d="M463.74,-170.91C456.45,-169.12 448.8,-167.31 441.62,-165.75 355.5,-147.05 325.12,-169.82 246.62,-129.75 225.02,-118.72 205.6,-98.49 193.3,-83.75"/>
<polygon fill="#63b8ff" stroke="#63b8ff" points="196.22,-81.8 187.24,-76.18 190.76,-86.17 196.22,-81.8"/>
</a>
</g>
</g>
<!-- Node6 -->
<g id="Node000006" class="node">
<title>Node6</title>
<g id="a_Node000006"><a xlink:title=" ">
<polygon fill="#e0e0e0" stroke="#999999" points="120.5,-19.25 76.75,-19.25 76.75,0 120.5,0 120.5,-19.25"/>
<text xml:space="preserve" text-anchor="middle" x="98.62" y="-5.75" font-family="Helvetica,sans-Serif" font-size="10.00">format</text>
</a>
</g>
</g>
<!-- Node3&#45;&gt;Node6 -->
<g id="edge20_Node000003_Node000006" class="edge">
<title>Node3&#45;&gt;Node6</title>
<g id="a_edge20_Node000003_Node000006"><a xlink:title=" ">
<path fill="none" stroke="#63b8ff" d="M464.37,-170.92C456.9,-169.09 449.02,-167.26 441.62,-165.75 341.97,-145.4 312.7,-160.09 215.62,-129.75 161.5,-112.83 131.56,-122.02 100.62,-74.5 92.28,-61.69 92.34,-44.16 94.18,-30.7"/>
<polygon fill="#63b8ff" stroke="#63b8ff" points="97.55,-31.7 95.9,-21.24 90.67,-30.45 97.55,-31.7"/>
</a>
</g>
</g>
<!-- Node7 -->
<g id="Node000007" class="node">
<title>Node7</title>
<g id="a_Node000007"><a xlink:title=" ">
<polygon fill="#e0e0e0" stroke="#999999" points="295.38,-19.25 229.88,-19.25 229.88,0 295.38,0 295.38,-19.25"/>
<text xml:space="preserve" text-anchor="middle" x="262.62" y="-5.75" font-family="Helvetica,sans-Serif" font-size="10.00">string_view</text>
</a>
</g>
</g>
<!-- Node3&#45;&gt;Node7 -->
<g id="edge23_Node000003_Node000007" class="edge">
<title>Node3&#45;&gt;Node7</title>
<g id="a_edge23_Node000003_Node000007"><a xlink:title=" ">
<path fill="none" stroke="#63b8ff" d="M462.3,-170.94C407.46,-157.21 309.56,-132.41 306.62,-129.75 277.99,-103.79 267.94,-57.52 264.45,-30.93"/>
<polygon fill="#63b8ff" stroke="#63b8ff" points="267.94,-30.7 263.37,-21.14 260.99,-31.46 267.94,-30.7"/>
</a>
</g>
</g>
<!-- Node8 -->
<g id="Node000008" class="node">
<title>Node8</title>
<g id="a_Node000008"><a xlink:title=" ">
<polygon fill="#e0e0e0" stroke="#999999" points="356.25,-19.25 317,-19.25 317,0 356.25,0 356.25,-19.25"/>
<text xml:space="preserve" text-anchor="middle" x="336.62" y="-5.75" font-family="Helvetica,sans-Serif" font-size="10.00">utility</text>
</a>
</g>
</g>
<!-- Node3&#45;&gt;Node8 -->
<g id="edge25_Node000003_Node000008" class="edge">
<title>Node3&#45;&gt;Node8</title>
<g id="a_edge25_Node000003_Node000008"><a xlink:title=" ">
<path fill="none" stroke="#63b8ff" d="M464.23,-170.9C412.86,-157.24 321.86,-132.7 319.62,-129.75 297.41,-100.44 313.79,-55.11 326.18,-29.65"/>
<polygon fill="#63b8ff" stroke="#63b8ff" points="329.26,-31.32 330.75,-20.83 323.05,-28.1 329.26,-31.32"/>
</a>
</g>
</g>
<!-- Node10 -->
<g id="Node000010" class="node">
<title>Node10</title>
<g id="a_Node000010"><a xlink:href="Error_8hpp.html" target="_top" xlink:title="Error handling system with categorized error codes.">
<polygon fill="white" stroke="#666666" points="414.88,-129.75 328.38,-129.75 328.38,-110.5 414.88,-110.5 414.88,-129.75"/>
<text xml:space="preserve" text-anchor="middle" x="371.62" y="-116.25" font-family="Helvetica,sans-Serif" font-size="10.00">RType/Error.hpp</text>
</a>
</g>
</g>
<!-- Node3&#45;&gt;Node10 -->
<g id="edge9_Node000003_Node000010" class="edge">
<title>Node3&#45;&gt;Node10</title>
<g id="a_edge9_Node000003_Node000010"><a xlink:title=" ">
<path fill="none" stroke="#63b8ff" d="M479.06,-170.93C458.3,-161.31 425.26,-145.99 401.3,-134.88"/>
<polygon fill="#63b8ff" stroke="#63b8ff" points="402.92,-131.78 392.38,-130.75 399.98,-138.13 402.92,-131.78"/>
</a>
</g>
</g>
<!-- Node3&#45;&gt;Node11 -->
<g id="edge22_Node000003_Node000011" class="edge">
<title>Node3&#45;&gt;Node11</title>
<g id="a_edge22_Node000003_Node000011"><a xlink:title=" ">
<path fill="none" stroke="#63b8ff" d="M487.54,-171.08C471.38,-157.01 444.99,-129.36 461.62,-110.5 482.84,-86.45 701.39,-72.11 784.12,-67.51"/>
<polygon fill="#63b8ff" stroke="#63b8ff" points="784.22,-71.01 794.01,-66.97 783.84,-64.02 784.22,-71.01"/>
</a>
</g>
</g>
<!-- Node15 -->
<g id="Node000015" class="node">
<title>Node15</title>
<g id="a_Node000015"><a xlink:title=" ">
<polygon fill="#e0e0e0" stroke="#999999" points="526.5,-129.75 470.75,-129.75 470.75,-110.5 526.5,-110.5 526.5,-129.75"/>
<text xml:space="preserve" text-anchor="middle" x="498.62" y="-116.25" font-family="Helvetica,sans-Serif" font-size="10.00">expected</text>
</a>
</g>
</g>
<!-- Node3&#45;&gt;Node15 -->
<g id="edge19_Node000003_Node000015" class="edge">
<title>Node3&#45;&gt;Node15</title>
<g id="a_edge19_Node000003_Node000015"><a xlink:title=" ">
<path fill="none" stroke="#63b8ff" d="M498.62,-171.06C498.62,-163.28 498.62,-151.7 498.62,-141.66"/>
<polygon fill="#63b8ff" stroke="#63b8ff" points="502.13,-141.66 498.63,-131.66 495.13,-141.66 502.13,-141.66"/>
</a>
</g>
</g>
<!-- Node16 -->
<g id="Node000016" class="node">
<title>Node16</title>
<g id="a_Node000016"><a xlink:title=" ">
<polygon fill="#e0e0e0" stroke="#999999" points="628.75,-129.75 544.5,-129.75 544.5,-110.5 628.75,-110.5 628.75,-129.75"/>
<text xml:space="preserve" text-anchor="middle" x="586.62" y="-116.25" font-family="Helvetica,sans-Serif" font-size="10.00">source_location</text>
</a>
</g>
</g>
<!-- Node3&#45;&gt;Node16 -->
<g id="edge21_Node000003_Node000016" class="edge">
<title>Node3&#45;&gt;Node16</title>
<g id="a_edge21_Node000003_Node000016"><a xlink:title=" ">
<path fill="none" stroke="#63b8ff" d="M511.99,-171.06C525.69,-161.89 547.25,-147.47 563.68,-136.48"/>
<polygon fill="#63b8ff" stroke="#63b8ff" points="565.51,-139.46 571.88,-130.99 561.62,-133.64 565.51,-139.46"/>
</a>
</g>
</g>
<!-- Node17 -->
<g id="Node000017" class="node">
<title>Node17</title>
<g id="a_Node000017"><a xlink:title=" ">
<polygon fill="#e0e0e0" stroke="#999999" points="708.5,-129.75 646.75,-129.75 646.75,-110.5 708.5,-110.5 708.5,-129.75"/>
<text xml:space="preserve" text-anchor="middle" x="677.62" y="-116.25" font-family="Helvetica,sans-Serif" font-size="10.00">type_traits</text>
</a>
</g>
</g>
<!-- Node3&#45;&gt;Node17 -->
<g id="edge24_Node000003_Node000017" class="edge">
<title>Node3&#45;&gt;Node17</title>
<g id="a_edge24_Node000003_Node000017"><a xlink:title=" ">
<path fill="none" stroke="#63b8ff" d="M526.2,-170.93C556.42,-160.99 605.12,-144.97 639.1,-133.79"/>
<polygon fill="#63b8ff" stroke="#63b8ff" points="640.17,-137.13 648.58,-130.68 637.99,-130.48 640.17,-137.13"/>
</a>
</g>
</g>
<!-- Node18 -->
<g id="Node000018" class="node">
<title>Node18</title>
<g id="a_Node000018"><a xlink:href="Logger_8tpp.html" target="_top" xlink:title=" ">
<polygon fill="white" stroke="#666666" points="787.12,-129.75 726.12,-129.75 726.12,-110.5 787.12,-110.5 787.12,-129.75"/>
<text xml:space="preserve" text-anchor="middle" x="756.62" y="-116.25" font-family="Helvetica,sans-Serif" font-size="10.00">Logger.tpp</text>
</a>
</g>
</g>
<!-- Node3&#45;&gt;Node18 -->
<g id="edge26_Node000003_Node000018" class="edge">
<title>Node3&#45;&gt;Node18</title>
<g id="a_edge26_Node000003_Node000018"><a xlink:title=" ">
<path fill="none" stroke="#63b8ff" d="M538.37,-170.93C586.14,-160.03 665.92,-141.82 714.65,-130.7"/>
<polygon fill="#63b8ff" stroke="#63b8ff" points="715.3,-134.15 724.27,-128.51 713.74,-127.32 715.3,-134.15"/>
</a>
</g>
</g>
<!-- Node5 -->
<g id="Node000005" class="node">
<title>Node5</title>
<g id="a_Node000005"><a xlink:title=" ">
<polygon fill="#e0e0e0" stroke="#999999" points="45.25,-19.25 0,-19.25 0,0 45.25,0 45.25,-19.25"/>
<text xml:space="preserve" text-anchor="middle" x="22.62" y="-5.75" font-family="Helvetica,sans-Serif" font-size="10.00">cstdint</text>
</a>
</g>
</g>
<!-- Node4&#45;&gt;Node5 -->
<g id="edge4_Node000004_Node000005" class="edge">
<title>Node4&#45;&gt;Node5</title>
<g id="a_edge4_Node000004_Node000005"><a xlink:title=" ">
<path fill="none" stroke="#63b8ff" d="M152.99,-54.84C126.27,-45.78 85.03,-31.79 56.11,-21.98"/>
<polygon fill="#63b8ff" stroke="#63b8ff" points="57.33,-18.7 46.74,-18.8 55.08,-25.33 57.33,-18.7"/>
</a>
</g>
</g>
<!-- Node4&#45;&gt;Node6 -->
<g id="edge5_Node000004_Node000006" class="edge">
<title>Node4&#45;&gt;Node6</title>
<g id="a_edge5_Node000004_Node000006"><a xlink:title=" ">
<path fill="none" stroke="#63b8ff" d="M165.88,-54.84C153.9,-46.96 136.25,-35.36 122.04,-26.02"/>
<polygon fill="#63b8ff" stroke="#63b8ff" points="123.98,-23.1 113.7,-20.53 120.13,-28.95 123.98,-23.1"/>
</a>
</g>
</g>
<!-- Node4&#45;&gt;Node7 -->
<g id="edge6_Node000004_Node000007" class="edge">
<title>Node4&#45;&gt;Node7</title>
<g id="a_edge6_Node000004_Node000007"><a xlink:title=" ">
<path fill="none" stroke="#63b8ff" d="M193.7,-54.84C206.11,-46.89 224.42,-35.14 239.05,-25.75"/>
<polygon fill="#63b8ff" stroke="#63b8ff" points="240.68,-28.87 247.2,-20.52 236.9,-22.97 240.68,-28.87"/>
</a>
</g>
</g>
<!-- Node4&#45;&gt;Node8 -->
<g id="edge7_Node000004_Node000008" class="edge">
<title>Node4&#45;&gt;Node8</title>
<g id="a_edge7_Node000004_Node000008"><a xlink:title=" ">
<path fill="none" stroke="#63b8ff" d="M206.26,-54.84C233.91,-45.46 277.1,-30.82 306.1,-20.98"/>
<polygon fill="#63b8ff" stroke="#63b8ff" points="307.06,-24.35 315.4,-17.82 304.81,-17.72 307.06,-24.35"/>
</a>
</g>
</g>
<!-- Node9 -->
<g id="Node000009" class="node">
<title>Node9</title>
<g id="a_Node000009"><a xlink:title=" ">
<polygon fill="#e0e0e0" stroke="#999999" points="211.5,-19.25 143.75,-19.25 143.75,0 211.5,0 211.5,-19.25"/>
<text xml:space="preserve" text-anchor="middle" x="177.62" y="-5.75" font-family="Helvetica,sans-Serif" font-size="10.00">LogLevel.inl</text>
</a>
</g>
</g>
<!-- Node4&#45;&gt;Node9 -->
<g id="edge8_Node000004_Node000009" class="edge">
<title>Node4&#45;&gt;Node9</title>
<g id="a_edge8_Node000004_Node000009"><a xlink:title=" ">
<path fill="none" stroke="#63b8ff" d="M179.29,-55.08C179.05,-48.49 178.7,-39.21 178.38,-30.82"/>
<polygon fill="#63b8ff" stroke="#63b8ff" points="181.89,-30.98 178.02,-21.12 174.9,-31.25 181.89,-30.98"/>
</a>
</g>
</g>
<!-- Node10&#45;&gt;Node4 -->
<g id="edge10_Node000010_Node000004" class="edge">
<title>Node10&#45;&gt;Node4</title>
<g id="a_edge10_Node000010_Node000004"><a xlink:title=" ">
<path fill="none" stroke="#63b8ff" d="M339.05,-110.09C307.2,-101.26 258.47,-87.74 223.27,-77.98"/>
<polygon fill="#63b8ff" stroke="#63b8ff" points="224.39,-74.66 213.81,-75.36 222.51,-81.4 224.39,-74.66"/>
</a>
</g>
</g>
<!-- Node10&#45;&gt;Node5 -->
<g id="edge11_Node000010_Node000005" class="edge">
<title>Node10&#45;&gt;Node5</title>
<g id="a_edge11_Node000010_Node000005"><a xlink:title=" ">
<path fill="none" stroke="#63b8ff" d="M328.34,-118.81C273.12,-116.92 175.79,-108.49 100.62,-74.5 76.06,-63.39 52.82,-42.53 38.2,-27.67"/>
<polygon fill="#63b8ff" stroke="#63b8ff" points="40.75,-25.27 31.32,-20.43 35.67,-30.09 40.75,-25.27"/>
</a>
</g>
</g>
<!-- Node10&#45;&gt;Node6 -->
<g id="edge12_Node000010_Node000006" class="edge">
<title>Node10&#45;&gt;Node6</title>
<g id="a_edge12_Node000010_Node000006"><a xlink:title=" ">
<path fill="none" stroke="#63b8ff" d="M328.11,-116.91C263.91,-112.75 148.09,-101.64 117.62,-74.5 105.33,-63.55 100.83,-45.03 99.26,-30.75"/>
<polygon fill="#63b8ff" stroke="#63b8ff" points="102.78,-30.83 98.62,-21.09 95.79,-31.3 102.78,-30.83"/>
</a>
</g>
</g>
<!-- Node10&#45;&gt;Node7 -->
<g id="edge14_Node000010_Node000007" class="edge">
<title>Node10&#45;&gt;Node7</title>
<g id="a_edge14_Node000010_Node000007"><a xlink:title=" ">
<path fill="none" stroke="#63b8ff" d="M362.71,-110.25C344.58,-92.21 303.18,-51 279.7,-27.63"/>
<polygon fill="#63b8ff" stroke="#63b8ff" points="282.3,-25.27 272.74,-20.69 277.36,-30.23 282.3,-25.27"/>
</a>
</g>
</g>
<!-- Node10&#45;&gt;Node8 -->
<g id="edge16_Node000010_Node000008" class="edge">
<title>Node10&#45;&gt;Node8</title>
<g id="a_edge16_Node000010_Node000008"><a xlink:title=" ">
<path fill="none" stroke="#63b8ff" d="M368.76,-110.25C363.17,-92.92 350.69,-54.23 343.03,-30.49"/>
<polygon fill="#63b8ff" stroke="#63b8ff" points="346.39,-29.51 339.99,-21.07 339.73,-31.66 346.39,-29.51"/>
</a>
</g>
</g>
<!-- Node10&#45;&gt;Node11 -->
<g id="edge13_Node000010_Node000011" class="edge">
<title>Node10&#45;&gt;Node11</title>
<g id="a_edge13_Node000010_Node000011"><a xlink:title=" ">
<path fill="none" stroke="#63b8ff" d="M415.17,-112.37C419.71,-111.72 424.26,-111.08 428.62,-110.5 560.53,-92.92 718.28,-76 784.23,-69.11"/>
<polygon fill="#63b8ff" stroke="#63b8ff" points="784.36,-72.62 793.94,-68.1 783.64,-65.66 784.36,-72.62"/>
</a>
</g>
</g>
<!-- Node12 -->
<g id="Node000012" class="node">
<title>Node12</title>
<g id="a_Node000012"><a xlink:title=" ">
<polygon fill="#e0e0e0" stroke="#999999" points="476.12,-74.5 403.12,-74.5 403.12,-55.25 476.12,-55.25 476.12,-74.5"/>
<text xml:space="preserve" text-anchor="middle" x="439.62" y="-61" font-family="Helvetica,sans-Serif" font-size="10.00">system_error</text>
</a>
</g>
</g>
<!-- Node10&#45;&gt;Node12 -->
<g id="edge15_Node000010_Node000012" class="edge">
<title>Node10&#45;&gt;Node12</title>
<g id="a_edge15_Node000010_Node000012"><a xlink:title=" ">
<path fill="none" stroke="#63b8ff" d="M383.16,-110.09C393.09,-102.32 407.64,-90.92 419.48,-81.65"/>
<polygon fill="#63b8ff" stroke="#63b8ff" points="421.35,-84.63 427.07,-75.71 417.04,-79.12 421.35,-84.63"/>
</a>
</g>
</g>
<!-- Node13 -->
<g id="Node000013" class="node">
<title>Node13</title>
<g id="a_Node000013"><a xlink:title=" ">
<polygon fill="#e0e0e0" stroke="#999999" points="543.12,-74.5 494.12,-74.5 494.12,-55.25 543.12,-55.25 543.12,-74.5"/>
<text xml:space="preserve" text-anchor="middle" x="518.62" y="-61" font-family="Helvetica,sans-Serif" font-size="10.00">Error.inl</text>
</a>
</g>
</g>
<!-- Node10&#45;&gt;Node13 -->
<g id="edge17_Node000010_Node000013" class="edge">
<title>Node10&#45;&gt;Node13</title>
<g id="a_edge17_Node000010_Node000013"><a xlink:title=" ">
<path fill="none" stroke="#63b8ff" d="M396.56,-110.09C420.46,-101.43 456.77,-88.28 483.57,-78.57"/>
<polygon fill="#63b8ff" stroke="#63b8ff" points="484.42,-81.99 492.63,-75.29 482.04,-75.41 484.42,-81.99"/>
</a>
</g>
</g>
<!-- Node14 -->
<g id="Node000014" class="node">
<title>Node14</title>
<g id="a_Node000014"><a xlink:href="Error_8tpp.html" target="_top" xlink:title=" ">
<polygon fill="white" stroke="#666666" points="614,-74.5 561.25,-74.5 561.25,-55.25 614,-55.25 614,-74.5"/>
<text xml:space="preserve" text-anchor="middle" x="587.62" y="-61" font-family="Helvetica,sans-Serif" font-size="10.00">Error.tpp</text>
</a>
</g>
</g>
<!-- Node10&#45;&gt;Node14 -->
<g id="edge18_Node000010_Node000014" class="edge">
<title>Node10&#45;&gt;Node14</title>
<g id="a_edge18_Node000010_Node000014"><a xlink:title=" ">
<path fill="none" stroke="#63b8ff" d="M408.27,-110.09C447.7,-100.37 510.12,-84.98 549.95,-75.16"/>
<polygon fill="#63b8ff" stroke="#63b8ff" points="550.7,-78.58 559.57,-72.79 549.03,-71.79 550.7,-78.58"/>
</a>
</g>
</g>
<!-- Node19&#45;&gt;Node5 -->
<g id="edge28_Node000019_Node000005" class="edge">
<title>Node19&#45;&gt;Node5</title>
<g id="a_edge28_Node000019_Node000005"><a xlink:title=" ">
<path fill="none" stroke="#63b8ff" d="M305.64,-178.47C222.24,-175.11 82.77,-164.32 46.62,-129.75 19.9,-104.19 18.52,-57.77 20.31,-31.05"/>
<polygon fill="#63b8ff" stroke="#63b8ff" points="23.78,-31.47 21.21,-21.2 16.81,-30.84 23.78,-31.47"/>
</a>
</g>
</g>
<!-- Node30&#45;&gt;Node3 -->
<g id="edge48_Node000030_Node000003" class="edge">
<title>Node30&#45;&gt;Node3</title>
<g id="a_edge48_Node000030_Node000003"><a xlink:title=" ">
<path fill="none" stroke="#63b8ff" d="M815.01,-231.8C745.13,-220.81 627.98,-202.36 557.53,-191.27"/>
<polygon fill="#63b8ff" stroke="#63b8ff" points="558.14,-187.83 547.71,-189.73 557.05,-194.74 558.14,-187.83"/>
</a>
</g>
</g>
<!-- Node30&#45;&gt;Node11 -->
<g id="edge50_Node000030_Node000011" class="edge">
<title>Node30&#45;&gt;Node11</title>
<g id="a_edge50_Node000030_Node000011"><a xlink:title=" ">
<path fill="none" stroke="#63b8ff" d="M869.72,-231.96C860.92,-204.93 834.39,-123.49 822.06,-85.62"/>
<polygon fill="#63b8ff" stroke="#63b8ff" points="825.49,-84.85 819.06,-76.42 818.83,-87.02 825.49,-84.85"/>
</a>
</g>
</g>
<!-- Node30&#45;&gt;Node19 -->
<g id="edge41_Node000030_Node000019" class="edge">
<title>Node30&#45;&gt;Node19</title>
<g id="a_edge41_Node000030_Node000019"><a xlink:title=" ">
<path fill="none" stroke="#63b8ff" d="M791.52,-234.63C707.32,-227.66 571.58,-215.04 444.37,-196.42"/>
<polygon fill="#63b8ff" stroke="#63b8ff" points="445.17,-193 434.77,-194.99 444.14,-199.92 445.17,-193"/>
</a>
</g>
</g>
<!-- Node30&#45;&gt;Node28 -->
<g id="edge49_Node000030_Node000028" class="edge">
<title>Node30&#45;&gt;Node28</title>
<g id="a_edge49_Node000030_Node000028"><a xlink:title=" ">
<path fill="none" stroke="#63b8ff" d="M876.76,-231.87C885.64,-212.54 906.7,-166.68 918.75,-140.44"/>
<polygon fill="#63b8ff" stroke="#63b8ff" points="921.82,-142.15 922.81,-131.61 915.46,-139.23 921.82,-142.15"/>
</a>
</g>
</g>
<!-- Node31 -->
<g id="Node000031" class="node">
<title>Node31</title>
<g id="a_Node000031"><a xlink:href="SimpleJsonParser_8hpp.html" target="_top" xlink:title=" ">
<polygon fill="white" stroke="#666666" points="1133.88,-190.62 957.38,-190.62 957.38,-171.38 1133.88,-171.38 1133.88,-190.62"/>
<text xml:space="preserve" text-anchor="middle" x="1045.62" y="-177.12" font-family="Helvetica,sans-Serif" font-size="10.00">RType/Config/SimpleJsonParser.hpp</text>
</a>
</g>
</g>
<!-- Node30&#45;&gt;Node31 -->
<g id="edge42_Node000030_Node000031" class="edge">
<title>Node30&#45;&gt;Node31</title>
<g id="a_edge42_Node000030_Node000031"><a xlink:title=" ">
<path fill="none" stroke="#63b8ff" d="M899.28,-231.8C928.49,-221.86 975.55,-205.85 1008.4,-194.67"/>
<polygon fill="#63b8ff" stroke="#63b8ff" points="1009.17,-198.1 1017.51,-191.57 1006.92,-191.48 1009.17,-198.1"/>
</a>
</g>
</g>
<!-- Node31&#45;&gt;Node11 -->
<g id="edge43_Node000031_Node000011" class="edge">
<title>Node31&#45;&gt;Node11</title>
<g id="a_edge43_Node000031_Node000011"><a xlink:title=" ">
<path fill="none" stroke="#63b8ff" d="M1039.57,-171.3C1028.82,-156.54 1004.97,-126.61 977.62,-110.5 936.26,-86.12 881.12,-74.64 847.01,-69.56"/>
<polygon fill="#63b8ff" stroke="#63b8ff" points="847.77,-66.13 837.39,-68.22 846.81,-73.06 847.77,-66.13"/>
</a>
</g>
</g>
<!-- Node31&#45;&gt;Node24 -->
<g id="edge45_Node000031_Node000024" class="edge">
<title>Node31&#45;&gt;Node24</title>
<g id="a_edge45_Node000031_Node000024"><a xlink:title=" ">
<path fill="none" stroke="#63b8ff" d="M1056.86,-171.06C1068.16,-162.07 1085.83,-148.01 1099.54,-137.1"/>
<polygon fill="#63b8ff" stroke="#63b8ff" points="1101.45,-140.06 1107.1,-131.09 1097.09,-134.58 1101.45,-140.06"/>
</a>
</g>
</g>
<!-- Node31&#45;&gt;Node27 -->
<g id="edge46_Node000031_Node000027" class="edge">
<title>Node31&#45;&gt;Node27</title>
<g id="a_edge46_Node000031_Node000027"><a xlink:title=" ">
<path fill="none" stroke="#63b8ff" d="M1068.73,-170.93C1093.69,-161.13 1133.68,-145.44 1162.1,-134.29"/>
<polygon fill="#63b8ff" stroke="#63b8ff" points="1163.3,-137.57 1171.33,-130.66 1160.74,-131.06 1163.3,-137.57"/>
</a>
</g>
</g>
<!-- Node31&#45;&gt;Node28 -->
<g id="edge44_Node000031_Node000028" class="edge">
<title>Node31&#45;&gt;Node28</title>
<g id="a_edge44_Node000031_Node000028"><a xlink:title=" ">
<path fill="none" stroke="#63b8ff" d="M1027.45,-170.93C1008.33,-161.39 978.01,-146.27 955.8,-135.18"/>
<polygon fill="#63b8ff" stroke="#63b8ff" points="957.5,-132.12 946.99,-130.78 954.37,-138.38 957.5,-132.12"/>
</a>
</g>
</g>
<!-- Node32 -->
<g id="Node000032" class="node">
<title>Node32</title>
<g id="a_Node000032"><a xlink:title=" ">
<polygon fill="#e0e0e0" stroke="#999999" points="1070.25,-129.75 1025,-129.75 1025,-110.5 1070.25,-110.5 1070.25,-129.75"/>
<text xml:space="preserve" text-anchor="middle" x="1047.62" y="-116.25" font-family="Helvetica,sans-Serif" font-size="10.00">cctype</text>
</a>
</g>
</g>
<!-- Node31&#45;&gt;Node32 -->
<g id="edge47_Node000031_Node000032" class="edge">
<title>Node31&#45;&gt;Node32</title>
<g id="a_edge47_Node000031_Node000032"><a xlink:title=" ">
<path fill="none" stroke="#63b8ff" d="M1045.93,-171.06C1046.2,-163.19 1046.59,-151.45 1046.94,-141.32"/>
<polygon fill="#63b8ff" stroke="#63b8ff" points="1050.43,-141.78 1047.27,-131.66 1043.43,-141.54 1050.43,-141.78"/>
</a>
</g>
</g>
</g>
</svg>

<g id="navigator" transform="translate(0 0)" fill="#404254">
  <rect fill="#f2f5e9" fill-opacity="0.5" stroke="#606060" stroke-width=".5" x="0" y="0" width="60" height="60"/>
  <use id="zoomplus" xlink:href="#zoomPlus" x="17" y="9" onmousedown="handleZoom(evt,'in')"/>
  <use id="zoomminus" xlink:href="#zoomMin" x="42" y="9" onmousedown="handleZoom(evt,'out')"/>
  <use id="reset" xlink:href="#resetDef" x="30" y="36" onmousedown="handleReset()"/>
   <use id="arrowup" xlink:href="#arrowUp" x="0" y="0" onmousedown="handlePan(0,-1)"/>
  <use id="arrowright" xlink:href="#arrowRight" x="0" y="0" onmousedown="handlePan(1,0)"/>
  <use id="arrowdown" xlink:href="#arrowDown" x="0" y="0" onmousedown="handlePan(0,1)"/>
  <use id="arrowleft" xlink:href="#arrowLeft" x="0" y="0" onmousedown="handlePan(-1,0)"/>
</g>
<svg viewBox="0 0 15 15" width="100%" height="30px" preserveAspectRatio="xMaxYMin meet">
 <g id="arrow_out" transform="scale(0.3 0.3)">
  <a xlink:href="Settings_8cpp__incl_org.svg" target="_base">
   <rect id="button" ry="5" rx="5" y="6" x="6" height="38" width="38"
        fill="#f2f5e9" fill-opacity="0.5" stroke="#606060" stroke-width="1.0"/>
   <path id="arrow"
     d="M 11.500037,31.436501 C 11.940474,20.09759 22.043105,11.32322 32.158766,21.979434 L 37.068811,17.246167 C 37.068811,17.246167 37.088388,32 37.088388,32 L 22.160133,31.978069 C 22.160133,31.978069 26.997745,27.140456 26.997745,27.140456 C 18.528582,18.264221 13.291696,25.230495 11.500037,31.436501 z"
     style="fill:#404040;"/>
  </a>
 </g>
</svg>

<style type='text/css'>
<![CDATA[
[data-mouse-over-selected='false'] { opacity: 0.7; }
[data-mouse-over-selected='true']  { opacity: 1.0; }
]]>
</style>
<script type="application/ecmascript"><![CDATA[
document.addEventListener('DOMContentLoaded', (event) => {
  highlightEdges();
  highlightAdjacentNodes();
});
]]></script>
</svg>
