<?xml version="1.0" encoding="UTF-8" standalone="no"?>
<!DOCTYPE svg PUBLIC "-//W3C//DTD SVG 1.1//EN"
 "http://www.w3.org/Graphics/SVG/1.1/DTD/svg11.dtd">
<!-- Generated by graphviz version 14.0.5 (20251129.0259)
 -->
<!-- Title: client/include/Core/Settings.hpp Pages: 1 -->
<!--zoomable 271 -->

<svg id="main" version="1.1" xmlns="http://www.w3.org/2000/svg" xmlns:xlink="http://www.w3.org/1999/xlink" xml:space="preserve" onload="init(evt)">

<style type="text/css"><![CDATA[
.node, .edge {opacity: 0.7;}
.node.selected, .edge.selected {opacity: 1;}
.edge:hover path { stroke: red; }
.edge:hover polygon { stroke: red; fill: red; }
]]></style>

<defs>
  <circle id="rim" cx="0" cy="0" r="7"/>
  <circle id="rim2" cx="0" cy="0" r="3.5"/>
  <g id="zoomPlus">
    <use xlink:href="#rim" fill="#404040"><set attributeName="fill" to="#808080" begin="zoomplus.mouseover" end="zoomplus.mouseout"/></use>
    <path d="M-4,0h8M0,-4v8" fill="none" stroke="white" stroke-width="1.5" pointer-events="none"/>
  </g>
  <g id="zoomMin">
    <use xlink:href="#rim" fill="#404040"><set attributeName="fill" to="#808080" begin="zoomminus.mouseover" end="zoomminus.mouseout"/></use>
    <path d="M-4,0h8" fill="none" stroke="white" stroke-width="1.5" pointer-events="none"/>
  </g>
  <g id="arrowUp" transform="translate(30 24)">
    <use xlink:href="#rim"/>
    <path pointer-events="none" fill="none" stroke="white" stroke-width="1.5" d="M0,-3.0v7 M-2.5,-0.5L0,-3.0L2.5,-0.5"/>
  </g>
  <g id="arrowRight" transform="rotate(90) translate(36 -43)">
    <use xlink:href="#rim"/>
    <path pointer-events="none" fill="none" stroke="white" stroke-width="1.5" d="M0,-3.0v7 M-2.5,-0.5L0,-3.0L2.5,-0.5"/>
  </g>
  <g id="arrowDown" transform="rotate(180) translate(-30 -48)">
    <use xlink:href="#rim"/>
    <path pointer-events="none" fill="none" stroke="white" stroke-width="1.5" d="M0,-3.0v7 M-2.5,-0.5L0,-3.0L2.5,-0.5"/>
  </g>
  <g id="arrowLeft" transform="rotate(270) translate(-36 17)">
    <use xlink:href="#rim"/>
    <path pointer-events="none" fill="none" stroke="white" stroke-width="1.5" d="M0,-3.0v7 M-2.5,-0.5L0,-3.0L2.5,-0.5"/>
  </g>
  <g id="resetDef">
    <use xlink:href="#rim2" fill="#404040"><set attributeName="fill" to="#808080" begin="reset.mouseover" end="reset.mouseout"/></use>
  </g>
</defs>
<script type="application/ecmascript">
var viewWidth = 1735;
var viewHeight = 271;
var sectionId = 'dynsection-0';
</script>
<script type="application/ecmascript" xlink:href="svg.min.js"/>
<svg id="graph" class="graph">
<g id="viewport">
<title>client/include/Core/Settings.hpp</title>
<!-- Node1 -->
<g id="Node000001" class="node">
<title>Node1</title>
<g id="a_Node000001"><a xlink:title=" ">
<polygon fill="#999999" stroke="#666666" points="1299.38,-262.75 1202.38,-262.75 1202.38,-232.25 1299.38,-232.25 1299.38,-262.75"/>
<text xml:space="preserve" text-anchor="start" x="1210.38" y="-249.25" font-family="Helvetica,sans-Serif" font-size="10.00">client/include/Core</text>
<text xml:space="preserve" text-anchor="middle" x="1250.88" y="-238" font-family="Helvetica,sans-Serif" font-size="10.00">/Settings.hpp</text>
</a>
</g>
</g>
<!-- Node2 -->
<g id="Node000002" class="node">
<title>Node2</title>
<g id="a_Node000002"><a xlink:href="Logger_8hpp.html" target="_top" xlink:title="Logger declaration with support for multiple log levels.">
<polygon fill="white" stroke="#666666" points="522.25,-196.25 427.5,-196.25 427.5,-177 522.25,-177 522.25,-196.25"/>
<text xml:space="preserve" text-anchor="middle" x="474.88" y="-182.75" font-family="Helvetica,sans-Serif" font-size="10.00">RType/Logger.hpp</text>
</a>
</g>
</g>
<!-- Node1&#45;&gt;Node2 -->
<g id="edge1_Node000001_Node000002" class="edge">
<title>Node1&#45;&gt;Node2</title>
<g id="a_edge1_Node000001_Node000002"><a xlink:title=" ">
<path fill="none" stroke="#63b8ff" d="M1202.04,-242.79C1065.75,-232.45 681.62,-203.31 533.83,-192.1"/>
<polygon fill="#63b8ff" stroke="#63b8ff" points="534.1,-188.61 523.87,-191.34 533.57,-195.59 534.1,-188.61"/>
</a>
</g>
</g>
<!-- Node10 -->
<g id="Node000010" class="node">
<title>Node10</title>
<g id="a_Node000010"><a xlink:title=" ">
<polygon fill="#e0e0e0" stroke="#999999" points="817.88,-74.5 777.88,-74.5 777.88,-55.25 817.88,-55.25 817.88,-74.5"/>
<text xml:space="preserve" text-anchor="middle" x="797.88" y="-61" font-family="Helvetica,sans-Serif" font-size="10.00">string</text>
</a>
</g>
</g>
<!-- Node1&#45;&gt;Node10 -->
<g id="edge36_Node000001_Node000010" class="edge">
<title>Node1&#45;&gt;Node10</title>
<g id="a_edge36_Node000001_Node000010"><a xlink:title=" ">
<path fill="none" stroke="#63b8ff" d="M1201.91,-245.97C1107.23,-244.06 903.39,-235.38 846.88,-196.25 810.69,-171.2 801.19,-115.87 798.72,-85.98"/>
<polygon fill="#63b8ff" stroke="#63b8ff" points="802.24,-86.16 798.13,-76.4 795.25,-86.59 802.24,-86.16"/>
</a>
</g>
</g>
<!-- Node18 -->
<g id="Node000018" class="node">
<title>Node18</title>
<g id="a_Node000018"><a xlink:href="SimpleWeapon_8hpp.html" target="_top" xlink:title=" ">
<polygon fill="white" stroke="#666666" points="953.38,-141 826.38,-141 826.38,-110.5 953.38,-110.5 953.38,-141"/>
<text xml:space="preserve" text-anchor="start" x="834.38" y="-127.5" font-family="Helvetica,sans-Serif" font-size="10.00">RType/ECS/Components</text>
<text xml:space="preserve" text-anchor="middle" x="889.88" y="-116.25" font-family="Helvetica,sans-Serif" font-size="10.00">/SimpleWeapon.hpp</text>
</a>
</g>
</g>
<!-- Node1&#45;&gt;Node18 -->
<g id="edge26_Node000001_Node000018" class="edge">
<title>Node1&#45;&gt;Node18</title>
<g id="a_edge26_Node000001_Node000018"><a xlink:title=" ">
<path fill="none" stroke="#63b8ff" d="M1201.96,-243.84C1101.29,-237.86 878.44,-221.86 855.88,-196.25 843.96,-182.73 853.87,-164.29 866.01,-149.81"/>
<polygon fill="#63b8ff" stroke="#63b8ff" points="868.51,-152.25 872.65,-142.49 863.34,-147.54 868.51,-152.25"/>
</a>
</g>
</g>
<!-- Node19 -->
<g id="Node000019" class="node">
<title>Node19</title>
<g id="a_Node000019"><a xlink:href="KeyAction_8hpp.html" target="_top" xlink:title=" ">
<polygon fill="white" stroke="#666666" points="967.38,-196.25 864.38,-196.25 864.38,-177 967.38,-177 967.38,-196.25"/>
<text xml:space="preserve" text-anchor="middle" x="915.88" y="-182.75" font-family="Helvetica,sans-Serif" font-size="10.00">Utils/KeyAction.hpp</text>
</a>
</g>
</g>
<!-- Node1&#45;&gt;Node19 -->
<g id="edge28_Node000001_Node000019" class="edge">
<title>Node1&#45;&gt;Node19</title>
<g id="a_edge28_Node000001_Node000019"><a xlink:title=" ">
<path fill="none" stroke="#63b8ff" d="M1202.16,-237.94C1143.19,-227.57 1043.74,-210.1 978.95,-198.71"/>
<polygon fill="#63b8ff" stroke="#63b8ff" points="979.62,-195.27 969.17,-196.99 978.41,-202.17 979.62,-195.27"/>
</a>
</g>
</g>
<!-- Node20 -->
<g id="Node000020" class="node">
<title>Node20</title>
<g id="a_Node000020"><a xlink:title=" ">
<polygon fill="#e0e0e0" stroke="#999999" points="1128.62,-196.25 985.12,-196.25 985.12,-177 1128.62,-177 1128.62,-196.25"/>
<text xml:space="preserve" text-anchor="middle" x="1056.88" y="-182.75" font-family="Helvetica,sans-Serif" font-size="10.00">SFML/Window/Keyboard.hpp</text>
</a>
</g>
</g>
<!-- Node1&#45;&gt;Node20 -->
<g id="edge29_Node000001_Node000020" class="edge">
<title>Node1&#45;&gt;Node20</title>
<g id="a_edge29_Node000001_Node000020"><a xlink:title=" ">
<path fill="none" stroke="#63b8ff" d="M1202.42,-231.8C1170.14,-222 1128.18,-209.27 1097.62,-199.99"/>
<polygon fill="#63b8ff" stroke="#63b8ff" points="1098.95,-196.74 1088.36,-197.18 1096.91,-203.43 1098.95,-196.74"/>
</a>
</g>
</g>
<!-- Node21 -->
<g id="Node000021" class="node">
<title>Node21</title>
<g id="a_Node000021"><a xlink:title=" ">
<polygon fill="#e0e0e0" stroke="#999999" points="1202.75,-196.25 1147,-196.25 1147,-177 1202.75,-177 1202.75,-196.25"/>
<text xml:space="preserve" text-anchor="middle" x="1174.88" y="-182.75" font-family="Helvetica,sans-Serif" font-size="10.00">algorithm</text>
</a>
</g>
</g>
<!-- Node1&#45;&gt;Node21 -->
<g id="edge30_Node000001_Node000021" class="edge">
<title>Node1&#45;&gt;Node21</title>
<g id="a_edge30_Node000001_Node000021"><a xlink:title=" ">
<path fill="none" stroke="#63b8ff" d="M1232.09,-231.95C1220.96,-223.33 1206.85,-212.4 1195.43,-203.55"/>
<polygon fill="#63b8ff" stroke="#63b8ff" points="1197.84,-200.99 1187.79,-197.63 1193.55,-206.52 1197.84,-200.99"/>
</a>
</g>
</g>
<!-- Node22 -->
<g id="Node000022" class="node">
<title>Node22</title>
<g id="a_Node000022"><a xlink:title=" ">
<polygon fill="#e0e0e0" stroke="#999999" points="1281.38,-196.25 1220.38,-196.25 1220.38,-177 1281.38,-177 1281.38,-196.25"/>
<text xml:space="preserve" text-anchor="middle" x="1250.88" y="-182.75" font-family="Helvetica,sans-Serif" font-size="10.00">filesystem</text>
</a>
</g>
</g>
<!-- Node1&#45;&gt;Node22 -->
<g id="edge31_Node000001_Node000022" class="edge">
<title>Node1&#45;&gt;Node22</title>
<g id="a_edge31_Node000001_Node000022"><a xlink:title=" ">
<path fill="none" stroke="#63b8ff" d="M1250.88,-231.95C1250.88,-224.71 1250.88,-215.84 1250.88,-207.94"/>
<polygon fill="#63b8ff" stroke="#63b8ff" points="1254.38,-208.21 1250.88,-198.21 1247.38,-208.21 1254.38,-208.21"/>
</a>
</g>
</g>
<!-- Node23 -->
<g id="Node000023" class="node">
<title>Node23</title>
<g id="a_Node000023"><a xlink:title=" ">
<polygon fill="#e0e0e0" stroke="#999999" points="1348.38,-196.25 1299.38,-196.25 1299.38,-177 1348.38,-177 1348.38,-196.25"/>
<text xml:space="preserve" text-anchor="middle" x="1323.88" y="-182.75" font-family="Helvetica,sans-Serif" font-size="10.00">fstream</text>
</a>
</g>
</g>
<!-- Node1&#45;&gt;Node23 -->
<g id="edge32_Node000001_Node000023" class="edge">
<title>Node1&#45;&gt;Node23</title>
<g id="a_edge32_Node000001_Node000023"><a xlink:title=" ">
<path fill="none" stroke="#63b8ff" d="M1268.92,-231.95C1279.5,-223.41 1292.89,-212.62 1303.8,-203.81"/>
<polygon fill="#63b8ff" stroke="#63b8ff" points="1305.86,-206.65 1311.44,-197.65 1301.46,-201.2 1305.86,-206.65"/>
</a>
</g>
</g>
<!-- Node24 -->
<g id="Node000024" class="node">
<title>Node24</title>
<g id="a_Node000024"><a xlink:title=" ">
<polygon fill="#e0e0e0" stroke="#999999" points="1424.88,-196.25 1366.88,-196.25 1366.88,-177 1424.88,-177 1424.88,-196.25"/>
<text xml:space="preserve" text-anchor="middle" x="1395.88" y="-182.75" font-family="Helvetica,sans-Serif" font-size="10.00">functional</text>
</a>
</g>
</g>
<!-- Node1&#45;&gt;Node24 -->
<g id="edge33_Node000001_Node000024" class="edge">
<title>Node1&#45;&gt;Node24</title>
<g id="a_edge33_Node000001_Node000024"><a xlink:title=" ">
<path fill="none" stroke="#63b8ff" d="M1287.09,-231.8C1310.45,-222.31 1340.57,-210.08 1363.2,-200.89"/>
<polygon fill="#63b8ff" stroke="#63b8ff" points="1364.29,-204.23 1372.24,-197.22 1361.65,-197.74 1364.29,-204.23"/>
</a>
</g>
</g>
<!-- Node25 -->
<g id="Node000025" class="node">
<title>Node25</title>
<g id="a_Node000025"><a xlink:title=" ">
<polygon fill="#e0e0e0" stroke="#999999" points="1496.62,-196.25 1443.12,-196.25 1443.12,-177 1496.62,-177 1496.62,-196.25"/>
<text xml:space="preserve" text-anchor="middle" x="1469.88" y="-182.75" font-family="Helvetica,sans-Serif" font-size="10.00">iostream</text>
</a>
</g>
</g>
<!-- Node1&#45;&gt;Node25 -->
<g id="edge34_Node000001_Node000025" class="edge">
<title>Node1&#45;&gt;Node25</title>
<g id="a_edge34_Node000001_Node000025"><a xlink:title=" ">
<path fill="none" stroke="#63b8ff" d="M1299.75,-233.36C1339.74,-222.61 1395.47,-207.63 1432.1,-197.78"/>
<polygon fill="#63b8ff" stroke="#63b8ff" points="1432.6,-201.27 1441.35,-195.29 1430.78,-194.51 1432.6,-201.27"/>
</a>
</g>
</g>
<!-- Node26 -->
<g id="Node000026" class="node">
<title>Node26</title>
<g id="a_Node000026"><a xlink:title=" ">
<polygon fill="#e0e0e0" stroke="#999999" points="1565.5,-196.25 1514.25,-196.25 1514.25,-177 1565.5,-177 1565.5,-196.25"/>
<text xml:space="preserve" text-anchor="middle" x="1539.88" y="-182.75" font-family="Helvetica,sans-Serif" font-size="10.00">sstream</text>
</a>
</g>
</g>
<!-- Node1&#45;&gt;Node26 -->
<g id="edge35_Node000001_Node000026" class="edge">
<title>Node1&#45;&gt;Node26</title>
<g id="a_edge35_Node000001_Node000026"><a xlink:title=" ">
<path fill="none" stroke="#63b8ff" d="M1299.45,-237.73C1348.47,-228.71 1426.59,-213.84 1502.71,-196.88"/>
<polygon fill="#63b8ff" stroke="#63b8ff" points="1503.45,-200.3 1512.44,-194.69 1501.92,-193.47 1503.45,-200.3"/>
</a>
</g>
</g>
<!-- Node27 -->
<g id="Node000027" class="node">
<title>Node27</title>
<g id="a_Node000027"><a xlink:title=" ">
<polygon fill="#e0e0e0" stroke="#999999" points="1666.25,-196.25 1583.5,-196.25 1583.5,-177 1666.25,-177 1666.25,-196.25"/>
<text xml:space="preserve" text-anchor="middle" x="1624.88" y="-182.75" font-family="Helvetica,sans-Serif" font-size="10.00">unordered_map</text>
</a>
</g>
</g>
<!-- Node1&#45;&gt;Node27 -->
<g id="edge37_Node000001_Node000027" class="edge">
<title>Node1&#45;&gt;Node27</title>
<g id="a_edge37_Node000001_Node000027"><a xlink:title=" ">
<path fill="none" stroke="#63b8ff" d="M1299.77,-239.18C1361.01,-229.96 1469.45,-213.43 1571.96,-196.71"/>
<polygon fill="#63b8ff" stroke="#63b8ff" points="1572.34,-200.19 1581.65,-195.12 1571.21,-193.28 1572.34,-200.19"/>
</a>
</g>
</g>
<!-- Node28 -->
<g id="Node000028" class="node">
<title>Node28</title>
<g id="a_Node000028"><a xlink:title=" ">
<polygon fill="#e0e0e0" stroke="#999999" points="1727.38,-196.25 1684.38,-196.25 1684.38,-177 1727.38,-177 1727.38,-196.25"/>
<text xml:space="preserve" text-anchor="middle" x="1705.88" y="-182.75" font-family="Helvetica,sans-Serif" font-size="10.00">vector</text>
</a>
</g>
</g>
<!-- Node1&#45;&gt;Node28 -->
<g id="edge38_Node000001_Node000028" class="edge">
<title>Node1&#45;&gt;Node28</title>
<g id="a_edge38_Node000001_Node000028"><a xlink:title=" ">
<path fill="none" stroke="#63b8ff" d="M1299.58,-243.17C1376.81,-237.36 1532.18,-223.5 1672.99,-196.32"/>
<polygon fill="#63b8ff" stroke="#63b8ff" points="1673.33,-199.82 1682.47,-194.46 1671.99,-192.95 1673.33,-199.82"/>
</a>
</g>
</g>
<!-- Node3 -->
<g id="Node000003" class="node">
<title>Node3</title>
<g id="a_Node000003"><a xlink:href="LogLevel_8hpp.html" target="_top" xlink:title="Log severity levels for the logging system.">
<polygon fill="white" stroke="#666666" points="416.5,-74.5 311.25,-74.5 311.25,-55.25 416.5,-55.25 416.5,-74.5"/>
<text xml:space="preserve" text-anchor="middle" x="363.88" y="-61" font-family="Helvetica,sans-Serif" font-size="10.00">RType/LogLevel.hpp</text>
</a>
</g>
</g>
<!-- Node2&#45;&gt;Node3 -->
<g id="edge2_Node000002_Node000003" class="edge">
<title>Node2&#45;&gt;Node3</title>
<g id="a_edge2_Node000002_Node000003"><a xlink:title=" ">
<path fill="none" stroke="#63b8ff" d="M463.15,-176.65C452.21,-168.04 435.71,-154.4 422.88,-141 405.38,-122.72 387.78,-99.55 376.41,-83.8"/>
<polygon fill="#63b8ff" stroke="#63b8ff" points="379.44,-82.01 370.79,-75.89 373.73,-86.07 379.44,-82.01"/>
</a>
</g>
</g>
<!-- Node5 -->
<g id="Node000005" class="node">
<title>Node5</title>
<g id="a_Node000005"><a xlink:title=" ">
<polygon fill="#e0e0e0" stroke="#999999" points="695.75,-19.25 652,-19.25 652,0 695.75,0 695.75,-19.25"/>
<text xml:space="preserve" text-anchor="middle" x="673.88" y="-5.75" font-family="Helvetica,sans-Serif" font-size="10.00">format</text>
</a>
</g>
</g>
<!-- Node2&#45;&gt;Node5 -->
<g id="edge19_Node000002_Node000005" class="edge">
<title>Node2&#45;&gt;Node5</title>
<g id="a_edge19_Node000002_Node000005"><a xlink:title=" ">
<path fill="none" stroke="#63b8ff" d="M485.27,-176.77C508,-157.43 560.43,-112.97 564.88,-110.5 609.47,-85.72 643.99,-115.85 673.88,-74.5 682.93,-61.98 682.13,-44.16 679.51,-30.53"/>
<polygon fill="#63b8ff" stroke="#63b8ff" points="682.94,-29.82 677.19,-20.92 676.14,-31.46 682.94,-29.82"/>
</a>
</g>
</g>
<!-- Node6 -->
<g id="Node000006" class="node">
<title>Node6</title>
<g id="a_Node000006"><a xlink:title=" ">
<polygon fill="#e0e0e0" stroke="#999999" points="313.62,-19.25 248.12,-19.25 248.12,0 313.62,0 313.62,-19.25"/>
<text xml:space="preserve" text-anchor="middle" x="280.88" y="-5.75" font-family="Helvetica,sans-Serif" font-size="10.00">string_view</text>
</a>
</g>
</g>
<!-- Node2&#45;&gt;Node6 -->
<g id="edge22_Node000002_Node000006" class="edge">
<title>Node2&#45;&gt;Node6</title>
<g id="a_edge22_Node000002_Node000006"><a xlink:title=" ">
<path fill="none" stroke="#63b8ff" d="M440.86,-176.5C396.53,-162.62 320.59,-131.58 285.88,-74.5 277.99,-61.54 277.09,-44.25 277.97,-30.93"/>
<polygon fill="#63b8ff" stroke="#63b8ff" points="281.43,-31.47 279.02,-21.15 274.47,-30.72 281.43,-31.47"/>
</a>
</g>
</g>
<!-- Node7 -->
<g id="Node000007" class="node">
<title>Node7</title>
<g id="a_Node000007"><a xlink:title=" ">
<polygon fill="#e0e0e0" stroke="#999999" points="226.5,-19.25 187.25,-19.25 187.25,0 226.5,0 226.5,-19.25"/>
<text xml:space="preserve" text-anchor="middle" x="206.88" y="-5.75" font-family="Helvetica,sans-Serif" font-size="10.00">utility</text>
</a>
</g>
</g>
<!-- Node2&#45;&gt;Node7 -->
<g id="edge24_Node000002_Node000007" class="edge">
<title>Node2&#45;&gt;Node7</title>
<g id="a_edge24_Node000002_Node000007"><a xlink:title=" ">
<path fill="none" stroke="#63b8ff" d="M427.29,-179.44C393.91,-173.48 349.29,-162.11 314.88,-141 269.09,-112.91 233.64,-58.49 217.1,-29.64"/>
<polygon fill="#63b8ff" stroke="#63b8ff" points="220.18,-27.99 212.27,-20.95 214.07,-31.39 220.18,-27.99"/>
</a>
</g>
</g>
<!-- Node9 -->
<g id="Node000009" class="node">
<title>Node9</title>
<g id="a_Node000009"><a xlink:href="Error_8hpp.html" target="_top" xlink:title="Error handling system with categorized error codes.">
<polygon fill="white" stroke="#666666" points="518.12,-135.38 431.62,-135.38 431.62,-116.12 518.12,-116.12 518.12,-135.38"/>
<text xml:space="preserve" text-anchor="middle" x="474.88" y="-121.88" font-family="Helvetica,sans-Serif" font-size="10.00">RType/Error.hpp</text>
</a>
</g>
</g>
<!-- Node2&#45;&gt;Node9 -->
<g id="edge8_Node000002_Node000009" class="edge">
<title>Node2&#45;&gt;Node9</title>
<g id="a_edge8_Node000002_Node000009"><a xlink:title=" ">
<path fill="none" stroke="#63b8ff" d="M474.88,-176.68C474.88,-168.9 474.88,-157.33 474.88,-147.28"/>
<polygon fill="#63b8ff" stroke="#63b8ff" points="478.38,-147.29 474.88,-137.29 471.38,-147.29 478.38,-147.29"/>
</a>
</g>
</g>
<!-- Node2&#45;&gt;Node10 -->
<g id="edge21_Node000002_Node000010" class="edge">
<title>Node2&#45;&gt;Node10</title>
<g id="a_edge21_Node000002_Node000010"><a xlink:title=" ">
<path fill="none" stroke="#63b8ff" d="M522.7,-177.99C556.47,-171.33 602.06,-159.75 638.88,-141 658.17,-131.17 658.03,-121.16 676.88,-110.5 705.77,-94.15 741.79,-81.77 766.99,-74.24"/>
<polygon fill="#63b8ff" stroke="#63b8ff" points="767.65,-77.7 776.28,-71.55 765.7,-70.97 767.65,-77.7"/>
</a>
</g>
</g>
<!-- Node14 -->
<g id="Node000014" class="node">
<title>Node14</title>
<g id="a_Node000014"><a xlink:title=" ">
<polygon fill="#e0e0e0" stroke="#999999" points="629.75,-135.38 574,-135.38 574,-116.12 629.75,-116.12 629.75,-135.38"/>
<text xml:space="preserve" text-anchor="middle" x="601.88" y="-121.88" font-family="Helvetica,sans-Serif" font-size="10.00">expected</text>
</a>
</g>
</g>
<!-- Node2&#45;&gt;Node14 -->
<g id="edge18_Node000002_Node000014" class="edge">
<title>Node2&#45;&gt;Node14</title>
<g id="a_edge18_Node000002_Node000014"><a xlink:title=" ">
<path fill="none" stroke="#63b8ff" d="M494.44,-176.55C515.2,-166.93 548.24,-151.62 572.2,-140.51"/>
<polygon fill="#63b8ff" stroke="#63b8ff" points="573.52,-143.75 581.12,-136.37 570.58,-137.4 573.52,-143.75"/>
</a>
</g>
</g>
<!-- Node15 -->
<g id="Node000015" class="node">
<title>Node15</title>
<g id="a_Node000015"><a xlink:title=" ">
<polygon fill="#e0e0e0" stroke="#999999" points="770,-135.38 685.75,-135.38 685.75,-116.12 770,-116.12 770,-135.38"/>
<text xml:space="preserve" text-anchor="middle" x="727.88" y="-121.88" font-family="Helvetica,sans-Serif" font-size="10.00">source_location</text>
</a>
</g>
</g>
<!-- Node2&#45;&gt;Node15 -->
<g id="edge20_Node000002_Node000015" class="edge">
<title>Node2&#45;&gt;Node15</title>
<g id="a_edge20_Node000002_Node000015"><a xlink:title=" ">
<path fill="none" stroke="#63b8ff" d="M516.46,-176.54C556.38,-167.74 618.34,-153.87 671.88,-141 675.03,-140.24 678.28,-139.45 681.55,-138.64"/>
<polygon fill="#63b8ff" stroke="#63b8ff" points="682.34,-142.05 691.19,-136.23 680.64,-135.26 682.34,-142.05"/>
</a>
</g>
</g>
<!-- Node16 -->
<g id="Node000016" class="node">
<title>Node16</title>
<g id="a_Node000016"><a xlink:title=" ">
<polygon fill="#e0e0e0" stroke="#999999" points="61.75,-135.38 0,-135.38 0,-116.12 61.75,-116.12 61.75,-135.38"/>
<text xml:space="preserve" text-anchor="middle" x="30.88" y="-121.88" font-family="Helvetica,sans-Serif" font-size="10.00">type_traits</text>
</a>
</g>
</g>
<!-- Node2&#45;&gt;Node16 -->
<g id="edge23_Node000002_Node000016" class="edge">
<title>Node2&#45;&gt;Node16</title>
<g id="a_edge23_Node000002_Node000016"><a xlink:title=" ">
<path fill="none" stroke="#63b8ff" d="M427.17,-184.08C350.8,-180.77 196.78,-170.72 69.88,-141 67.86,-140.53 65.8,-139.98 63.74,-139.38"/>
<polygon fill="#63b8ff" stroke="#63b8ff" points="64.9,-136.08 54.31,-136.3 62.72,-142.73 64.9,-136.08"/>
</a>
</g>
</g>
<!-- Node17 -->
<g id="Node000017" class="node">
<title>Node17</title>
<g id="a_Node000017"><a xlink:href="Logger_8tpp.html" target="_top" xlink:title=" ">
<polygon fill="white" stroke="#666666" points="140.38,-135.38 79.38,-135.38 79.38,-116.12 140.38,-116.12 140.38,-135.38"/>
<text xml:space="preserve" text-anchor="middle" x="109.88" y="-121.88" font-family="Helvetica,sans-Serif" font-size="10.00">Logger.tpp</text>
</a>
</g>
</g>
<!-- Node2&#45;&gt;Node17 -->
<g id="edge25_Node000002_Node000017" class="edge">
<title>Node2&#45;&gt;Node17</title>
<g id="a_edge25_Node000002_Node000017"><a xlink:title=" ">
<path fill="none" stroke="#63b8ff" d="M427.25,-181.51C364.34,-175.49 250.34,-162.61 154.88,-141 152.24,-140.4 149.55,-139.73 146.84,-139"/>
<polygon fill="#63b8ff" stroke="#63b8ff" points="147.88,-135.65 137.3,-136.21 145.92,-142.37 147.88,-135.65"/>
</a>
</g>
</g>
<!-- Node4 -->
<g id="Node000004" class="node">
<title>Node4</title>
<g id="a_Node000004"><a xlink:title=" ">
<polygon fill="#e0e0e0" stroke="#999999" points="772.5,-19.25 727.25,-19.25 727.25,0 772.5,0 772.5,-19.25"/>
<text xml:space="preserve" text-anchor="middle" x="749.88" y="-5.75" font-family="Helvetica,sans-Serif" font-size="10.00">cstdint</text>
</a>
</g>
</g>
<!-- Node3&#45;&gt;Node4 -->
<g id="edge3_Node000003_Node000004" class="edge">
<title>Node3&#45;&gt;Node4</title>
<g id="a_edge3_Node000003_Node000004"><a xlink:title=" ">
<path fill="none" stroke="#63b8ff" d="M416.97,-56.45C419.98,-56.04 422.97,-55.64 425.88,-55.25 549.79,-38.64 581.42,-39.03 704.88,-19.25 708.49,-18.67 712.26,-18.02 716.01,-17.35"/>
<polygon fill="#63b8ff" stroke="#63b8ff" points="716.36,-20.84 725.54,-15.56 715.07,-13.96 716.36,-20.84"/>
</a>
</g>
</g>
<!-- Node3&#45;&gt;Node5 -->
<g id="edge4_Node000003_Node000005" class="edge">
<title>Node3&#45;&gt;Node5</title>
<g id="a_edge4_Node000003_Node000005"><a xlink:title=" ">
<path fill="none" stroke="#63b8ff" d="M416.81,-54.78C480.8,-43.79 586.56,-25.62 640.3,-16.39"/>
<polygon fill="#63b8ff" stroke="#63b8ff" points="640.8,-19.86 650.06,-14.72 639.61,-12.96 640.8,-19.86"/>
</a>
</g>
</g>
<!-- Node3&#45;&gt;Node6 -->
<g id="edge5_Node000003_Node000006" class="edge">
<title>Node3&#45;&gt;Node6</title>
<g id="a_edge5_Node000003_Node000006"><a xlink:title=" ">
<path fill="none" stroke="#63b8ff" d="M349.8,-54.84C337.39,-46.89 319.08,-35.14 304.45,-25.75"/>
<polygon fill="#63b8ff" stroke="#63b8ff" points="306.6,-22.97 296.3,-20.52 302.82,-28.87 306.6,-22.97"/>
</a>
</g>
</g>
<!-- Node3&#45;&gt;Node7 -->
<g id="edge6_Node000003_Node000007" class="edge">
<title>Node3&#45;&gt;Node7</title>
<g id="a_edge6_Node000003_Node000007"><a xlink:title=" ">
<path fill="none" stroke="#63b8ff" d="M337.24,-54.84C309.59,-45.46 266.4,-30.82 237.4,-20.98"/>
<polygon fill="#63b8ff" stroke="#63b8ff" points="238.69,-17.72 228.1,-17.82 236.44,-24.35 238.69,-17.72"/>
</a>
</g>
</g>
<!-- Node8 -->
<g id="Node000008" class="node">
<title>Node8</title>
<g id="a_Node000008"><a xlink:title=" ">
<polygon fill="#e0e0e0" stroke="#999999" points="399.75,-19.25 332,-19.25 332,0 399.75,0 399.75,-19.25"/>
<text xml:space="preserve" text-anchor="middle" x="365.88" y="-5.75" font-family="Helvetica,sans-Serif" font-size="10.00">LogLevel.inl</text>
</a>
</g>
</g>
<!-- Node3&#45;&gt;Node8 -->
<g id="edge7_Node000003_Node000008" class="edge">
<title>Node3&#45;&gt;Node8</title>
<g id="a_edge7_Node000003_Node000008"><a xlink:title=" ">
<path fill="none" stroke="#63b8ff" d="M364.21,-55.08C364.45,-48.49 364.8,-39.21 365.12,-30.82"/>
<polygon fill="#63b8ff" stroke="#63b8ff" points="368.6,-31.25 365.48,-21.12 361.61,-30.98 368.6,-31.25"/>
</a>
</g>
</g>
<!-- Node9&#45;&gt;Node3 -->
<g id="edge9_Node000009_Node000003" class="edge">
<title>Node9&#45;&gt;Node3</title>
<g id="a_edge9_Node000009_Node000003"><a xlink:title=" ">
<path fill="none" stroke="#63b8ff" d="M458.02,-115.81C440.17,-106.34 411.74,-91.26 390.78,-80.15"/>
<polygon fill="#63b8ff" stroke="#63b8ff" points="392.7,-77.2 382.23,-75.61 389.42,-83.39 392.7,-77.2"/>
</a>
</g>
</g>
<!-- Node9&#45;&gt;Node4 -->
<g id="edge10_Node000009_Node000004" class="edge">
<title>Node9&#45;&gt;Node4</title>
<g id="a_edge10_Node000009_Node000004"><a xlink:title=" ">
<path fill="none" stroke="#63b8ff" d="M518.47,-116.13C568.47,-105.83 646.99,-88.26 673.88,-74.5 697.25,-62.53 719.73,-42.18 734.09,-27.67"/>
<polygon fill="#63b8ff" stroke="#63b8ff" points="736.47,-30.24 740.87,-20.6 731.42,-25.39 736.47,-30.24"/>
</a>
</g>
</g>
<!-- Node9&#45;&gt;Node5 -->
<g id="edge11_Node000009_Node000005" class="edge">
<title>Node9&#45;&gt;Node5</title>
<g id="a_edge11_Node000009_Node000005"><a xlink:title=" ">
<path fill="none" stroke="#63b8ff" d="M510.61,-115.65C561.32,-102.6 648.63,-79.59 653.88,-74.5 665.62,-63.1 670.5,-44.9 672.51,-30.84"/>
<polygon fill="#63b8ff" stroke="#63b8ff" points="675.99,-31.21 673.51,-20.91 669.02,-30.51 675.99,-31.21"/>
</a>
</g>
</g>
<!-- Node9&#45;&gt;Node6 -->
<g id="edge13_Node000009_Node000006" class="edge">
<title>Node9&#45;&gt;Node6</title>
<g id="a_edge13_Node000009_Node000006"><a xlink:title=" ">
<path fill="none" stroke="#63b8ff" d="M431.25,-123.15C392.45,-119.42 336.64,-108.07 301.88,-74.5 290.05,-63.08 284.88,-44.88 282.62,-30.83"/>
<polygon fill="#63b8ff" stroke="#63b8ff" points="286.09,-30.42 281.44,-20.9 279.14,-31.25 286.09,-30.42"/>
</a>
</g>
</g>
<!-- Node9&#45;&gt;Node7 -->
<g id="edge15_Node000009_Node000007" class="edge">
<title>Node9&#45;&gt;Node7</title>
<g id="a_edge15_Node000009_Node000007"><a xlink:title=" ">
<path fill="none" stroke="#63b8ff" d="M431.36,-118.52C391.8,-111.64 332.65,-98.25 285.88,-74.5 261.69,-62.22 238.05,-41.63 223.03,-27.16"/>
<polygon fill="#63b8ff" stroke="#63b8ff" points="225.89,-25.07 216.32,-20.52 220.96,-30.04 225.89,-25.07"/>
</a>
</g>
</g>
<!-- Node9&#45;&gt;Node10 -->
<g id="edge12_Node000009_Node000010" class="edge">
<title>Node9&#45;&gt;Node10</title>
<g id="a_edge12_Node000009_Node000010"><a xlink:title=" ">
<path fill="none" stroke="#63b8ff" d="M518.6,-117.57C587.4,-106.2 717.81,-84.33 763.88,-74.5 764.7,-74.32 765.54,-74.14 766.38,-73.95"/>
<polygon fill="#63b8ff" stroke="#63b8ff" points="767.04,-77.39 775.97,-71.68 765.43,-70.58 767.04,-77.39"/>
</a>
</g>
</g>
<!-- Node11 -->
<g id="Node000011" class="node">
<title>Node11</title>
<g id="a_Node000011"><a xlink:title=" ">
<polygon fill="#e0e0e0" stroke="#999999" points="578.38,-74.5 505.38,-74.5 505.38,-55.25 578.38,-55.25 578.38,-74.5"/>
<text xml:space="preserve" text-anchor="middle" x="541.88" y="-61" font-family="Helvetica,sans-Serif" font-size="10.00">system_error</text>
</a>
</g>
</g>
<!-- Node9&#45;&gt;Node11 -->
<g id="edge14_Node000009_Node000011" class="edge">
<title>Node9&#45;&gt;Node11</title>
<g id="a_edge14_Node000009_Node000011"><a xlink:title=" ">
<path fill="none" stroke="#63b8ff" d="M485.05,-115.81C495.09,-106.99 510.66,-93.3 522.97,-82.48"/>
<polygon fill="#63b8ff" stroke="#63b8ff" points="525.26,-85.13 530.47,-75.9 520.64,-79.87 525.26,-85.13"/>
</a>
</g>
</g>
<!-- Node12 -->
<g id="Node000012" class="node">
<title>Node12</title>
<g id="a_Node000012"><a xlink:title=" ">
<polygon fill="#e0e0e0" stroke="#999999" points="645.38,-74.5 596.38,-74.5 596.38,-55.25 645.38,-55.25 645.38,-74.5"/>
<text xml:space="preserve" text-anchor="middle" x="620.88" y="-61" font-family="Helvetica,sans-Serif" font-size="10.00">Error.inl</text>
</a>
</g>
</g>
<!-- Node9&#45;&gt;Node12 -->
<g id="edge16_Node000009_Node000012" class="edge">
<title>Node9&#45;&gt;Node12</title>
<g id="a_edge16_Node000009_Node000012"><a xlink:title=" ">
<path fill="none" stroke="#63b8ff" d="M497.37,-115.68C521.66,-105.88 560.59,-90.19 588.24,-79.04"/>
<polygon fill="#63b8ff" stroke="#63b8ff" points="589.23,-82.41 597.19,-75.42 586.61,-75.92 589.23,-82.41"/>
</a>
</g>
</g>
<!-- Node13 -->
<g id="Node000013" class="node">
<title>Node13</title>
<g id="a_Node000013"><a xlink:href="Error_8tpp.html" target="_top" xlink:title=" ">
<polygon fill="white" stroke="#666666" points="487.25,-74.5 434.5,-74.5 434.5,-55.25 487.25,-55.25 487.25,-74.5"/>
<text xml:space="preserve" text-anchor="middle" x="460.88" y="-61" font-family="Helvetica,sans-Serif" font-size="10.00">Error.tpp</text>
</a>
</g>
</g>
<!-- Node9&#45;&gt;Node13 -->
<g id="edge17_Node000009_Node000013" class="edge">
<title>Node9&#45;&gt;Node13</title>
<g id="a_edge17_Node000009_Node000013"><a xlink:title=" ">
<path fill="none" stroke="#63b8ff" d="M472.75,-115.81C470.88,-107.94 468.09,-96.2 465.68,-86.07"/>
<polygon fill="#63b8ff" stroke="#63b8ff" points="469.09,-85.29 463.37,-76.37 462.28,-86.91 469.09,-85.29"/>
</a>
</g>
</g>
<!-- Node18&#45;&gt;Node4 -->
<g id="edge27_Node000018_Node000004" class="edge">
<title>Node18&#45;&gt;Node4</title>
<g id="a_edge27_Node000018_Node000004"><a xlink:title=" ">
<path fill="none" stroke="#63b8ff" d="M878.93,-110.23C867.17,-95.26 847.39,-71.84 826.88,-55.25 812.37,-43.53 794.43,-32.94 779.51,-25.02"/>
<polygon fill="#63b8ff" stroke="#63b8ff" points="781.11,-21.91 770.62,-20.44 777.91,-28.13 781.11,-21.91"/>
</a>
</g>
</g>
</g>
</svg>

<g id="navigator" transform="translate(0 0)" fill="#404254">
  <rect fill="#f2f5e9" fill-opacity="0.5" stroke="#606060" stroke-width=".5" x="0" y="0" width="60" height="60"/>
  <use id="zoomplus" xlink:href="#zoomPlus" x="17" y="9" onmousedown="handleZoom(evt,'in')"/>
  <use id="zoomminus" xlink:href="#zoomMin" x="42" y="9" onmousedown="handleZoom(evt,'out')"/>
  <use id="reset" xlink:href="#resetDef" x="30" y="36" onmousedown="handleReset()"/>
   <use id="arrowup" xlink:href="#arrowUp" x="0" y="0" onmousedown="handlePan(0,-1)"/>
  <use id="arrowright" xlink:href="#arrowRight" x="0" y="0" onmousedown="handlePan(1,0)"/>
  <use id="arrowdown" xlink:href="#arrowDown" x="0" y="0" onmousedown="handlePan(0,1)"/>
  <use id="arrowleft" xlink:href="#arrowLeft" x="0" y="0" onmousedown="handlePan(-1,0)"/>
</g>
<svg viewBox="0 0 15 15" width="100%" height="30px" preserveAspectRatio="xMaxYMin meet">
 <g id="arrow_out" transform="scale(0.3 0.3)">
  <a xlink:href="Settings_8hpp__incl_org.svg" target="_base">
   <rect id="button" ry="5" rx="5" y="6" x="6" height="38" width="38"
        fill="#f2f5e9" fill-opacity="0.5" stroke="#606060" stroke-width="1.0"/>
   <path id="arrow"
     d="M 11.500037,31.436501 C 11.940474,20.09759 22.043105,11.32322 32.158766,21.979434 L 37.068811,17.246167 C 37.068811,17.246167 37.088388,32 37.088388,32 L 22.160133,31.978069 C 22.160133,31.978069 26.997745,27.140456 26.997745,27.140456 C 18.528582,18.264221 13.291696,25.230495 11.500037,31.436501 z"
     style="fill:#404040;"/>
  </a>
 </g>
</svg>

<style type='text/css'>
<![CDATA[
[data-mouse-over-selected='false'] { opacity: 0.7; }
[data-mouse-over-selected='true']  { opacity: 1.0; }
]]>
</style>
<script type="application/ecmascript"><![CDATA[
document.addEventListener('DOMContentLoaded', (event) => {
  highlightEdges();
  highlightAdjacentNodes();
});
]]></script>
</svg>
