<?xml version="1.0" encoding="UTF-8" standalone="no"?>
<!DOCTYPE svg PUBLIC "-//W3C//DTD SVG 1.1//EN"
 "http://www.w3.org/Graphics/SVG/1.1/DTD/svg11.dtd">
<!-- Generated by graphviz version 14.0.5 (20251129.0259)
 -->
<!-- Title: common/include/RType/ECS/Components/ShieldVisual.hpp Pages: 1 -->
<svg width="544pt" height="105pt"
 viewBox="0.00 0.00 544.00 105.00" xmlns="http://www.w3.org/2000/svg" xmlns:xlink="http://www.w3.org/1999/xlink">
<g id="graph0" class="graph" transform="scale(1 1) rotate(0) translate(4 101)">
<title>common/include/RType/ECS/Components/ShieldVisual.hpp</title>
<!-- Node1 -->
<g id="Node000001" class="node">
<title>Node1</title>
<g id="a_Node000001"><a xlink:title=" ">
<polygon fill="#999999" stroke="#666666" points="386.88,-97 212.62,-97 212.62,-66.5 386.88,-66.5 386.88,-97"/>
<text xml:space="preserve" text-anchor="start" x="220.62" y="-83.5" font-family="Helvetica,sans-Serif" font-size="10.00">common/include/RType</text>
<text xml:space="preserve" text-anchor="middle" x="299.75" y="-72.25" font-family="Helvetica,sans-Serif" font-size="10.00">/ECS/Components/ShieldVisual.hpp</text>
</a>
</g>
</g>
<!-- Node2 -->
<g id="Node000002" class="node">
<title>Node2</title>
<g id="a_Node000002"><a xlink:href="Application_8cpp.html" target="_top" xlink:title=" ">
<polygon fill="white" stroke="#666666" points="149.5,-24.88 0,-24.88 0,-5.63 149.5,-5.63 149.5,-24.88"/>
<text xml:space="preserve" text-anchor="middle" x="74.75" y="-11.38" font-family="Helvetica,sans-Serif" font-size="10.00">client/src/Core/Application.cpp</text>
</a>
</g>
</g>
<!-- Node1&#45;&gt;Node2 -->
<g id="edge1_Node000001_Node000002" class="edge">
<title>Node1&#45;&gt;Node2</title>
<g id="a_edge1_Node000001_Node000002"><a xlink:title=" ">
<path fill="none" stroke="#63b8ff" d="M237.59,-62.93C195.03,-50.73 140.34,-35.05 106.43,-25.33"/>
<polygon fill="#63b8ff" stroke="#63b8ff" points="236.38,-66.22 246.96,-65.62 238.31,-59.5 236.38,-66.22"/>
</a>
</g>
</g>
<!-- Node3 -->
<g id="Node000003" class="node">
<title>Node3</title>
<g id="a_Node000003"><a xlink:href="client_2src_2Systems_2NetworkSyncSystem_8cpp.html" target="_top" xlink:title=" ">
<polygon fill="white" stroke="#666666" points="298.12,-30.5 167.38,-30.5 167.38,0 298.12,0 298.12,-30.5"/>
<text xml:space="preserve" text-anchor="start" x="175.38" y="-17" font-family="Helvetica,sans-Serif" font-size="10.00">client/src/Systems</text>
<text xml:space="preserve" text-anchor="middle" x="232.75" y="-5.75" font-family="Helvetica,sans-Serif" font-size="10.00">/NetworkSyncSystem.cpp</text>
</a>
</g>
</g>
<!-- Node1&#45;&gt;Node3 -->
<g id="edge2_Node000001_Node000003" class="edge">
<title>Node1&#45;&gt;Node3</title>
<g id="a_edge2_Node000001_Node000003"><a xlink:title=" ">
<path fill="none" stroke="#63b8ff" d="M276.31,-58.19C266.88,-49.11 256.28,-38.9 247.89,-30.83"/>
<polygon fill="#63b8ff" stroke="#63b8ff" points="273.82,-60.65 283.46,-65.06 278.68,-55.61 273.82,-60.65"/>
</a>
</g>
</g>
<!-- Node4 -->
<g id="Node000004" class="node">
<title>Node4</title>
<g id="a_Node000004"><a xlink:href="RenderSystem_8cpp.html" target="_top" xlink:title=" ">
<polygon fill="white" stroke="#666666" points="419.25,-30.5 316.25,-30.5 316.25,0 419.25,0 419.25,-30.5"/>
<text xml:space="preserve" text-anchor="start" x="324.25" y="-17" font-family="Helvetica,sans-Serif" font-size="10.00">client/src/Systems</text>
<text xml:space="preserve" text-anchor="middle" x="367.75" y="-5.75" font-family="Helvetica,sans-Serif" font-size="10.00">/RenderSystem.cpp</text>
</a>
</g>
</g>
<!-- Node1&#45;&gt;Node4 -->
<g id="edge3_Node000001_Node000004" class="edge">
<title>Node1&#45;&gt;Node4</title>
<g id="a_edge3_Node000001_Node000004"><a xlink:title=" ">
<path fill="none" stroke="#63b8ff" d="M323.24,-58.46C332.89,-49.32 343.78,-38.98 352.38,-30.83"/>
<polygon fill="#63b8ff" stroke="#63b8ff" points="321.13,-55.65 316.28,-65.07 325.94,-60.73 321.13,-55.65"/>
</a>
</g>
</g>
<!-- Node5 -->
<g id="Node000005" class="node">
<title>Node5</title>
<g id="a_Node000005"><a xlink:href="ShieldSystem_8cpp.html" target="_top" xlink:title=" ">
<polygon fill="white" stroke="#666666" points="536,-30.5 437.5,-30.5 437.5,0 536,0 536,-30.5"/>
<text xml:space="preserve" text-anchor="start" x="445.5" y="-17" font-family="Helvetica,sans-Serif" font-size="10.00">client/src/Systems</text>
<text xml:space="preserve" text-anchor="middle" x="486.75" y="-5.75" font-family="Helvetica,sans-Serif" font-size="10.00">/ShieldSystem.cpp</text>
</a>
</g>
</g>
<!-- Node1&#45;&gt;Node5 -->
<g id="edge4_Node000001_Node000005" class="edge">
<title>Node1&#45;&gt;Node5</title>
<g id="a_edge4_Node000001_Node000005"><a xlink:title=" ">
<path fill="none" stroke="#63b8ff" d="M352.92,-62.41C381.82,-52.44 417.09,-40.28 444.16,-30.94"/>
<polygon fill="#63b8ff" stroke="#63b8ff" points="351.93,-59.05 343.61,-65.62 354.21,-65.67 351.93,-59.05"/>
</a>
</g>
</g>
</g>
</svg>
