<?xml version="1.0" encoding="UTF-8" standalone="no"?>
<!DOCTYPE svg PUBLIC "-//W3C//DTD SVG 1.1//EN"
 "http://www.w3.org/Graphics/SVG/1.1/DTD/svg11.dtd">
<!-- Generated by graphviz version 14.0.5 (20251129.0259)
 -->
<!-- Title: common/include/RType/Config/SimpleJsonParser.hpp Pages: 1 -->
<svg width="1438pt" height="238pt"
 viewBox="0.00 0.00 1438.00 238.00" xmlns="http://www.w3.org/2000/svg" xmlns:xlink="http://www.w3.org/1999/xlink">
<g id="graph0" class="graph" transform="scale(1 1) rotate(0) translate(4 234)">
<title>common/include/RType/Config/SimpleJsonParser.hpp</title>
<!-- Node1 -->
<g id="Node000001" class="node">
<title>Node1</title>
<g id="a_Node000001"><a xlink:title=" ">
<polygon fill="#999999" stroke="#666666" points="1019.75,-230 871.75,-230 871.75,-199.5 1019.75,-199.5 1019.75,-230"/>
<text xml:space="preserve" text-anchor="start" x="879.75" y="-216.5" font-family="Helvetica,sans-Serif" font-size="10.00">common/include/RType</text>
<text xml:space="preserve" text-anchor="middle" x="945.75" y="-205.25" font-family="Helvetica,sans-Serif" font-size="10.00">/Config/SimpleJsonParser.hpp</text>
</a>
</g>
</g>
<!-- Node2 -->
<g id="Node000002" class="node">
<title>Node2</title>
<g id="a_Node000002"><a xlink:href="SpriteMapConfig_8hpp.html" target="_top" xlink:title=" ">
<polygon fill="white" stroke="#666666" points="883.75,-163.5 741.75,-163.5 741.75,-133 883.75,-133 883.75,-163.5"/>
<text xml:space="preserve" text-anchor="start" x="749.75" y="-150" font-family="Helvetica,sans-Serif" font-size="10.00">common/include/RType</text>
<text xml:space="preserve" text-anchor="middle" x="812.75" y="-138.75" font-family="Helvetica,sans-Serif" font-size="10.00">/Config/SpriteMapConfig.hpp</text>
</a>
</g>
</g>
<!-- Node1&#45;&gt;Node2 -->
<g id="edge1_Node000001_Node000002" class="edge">
<title>Node1&#45;&gt;Node2</title>
<g id="a_edge1_Node000001_Node000002"><a xlink:title=" ">
<path fill="none" stroke="#63b8ff" d="M905.43,-194.2C885.28,-184.43 861.32,-172.81 842.81,-163.83"/>
<polygon fill="#63b8ff" stroke="#63b8ff" points="903.68,-197.24 914.21,-198.45 906.74,-190.94 903.68,-197.24"/>
</a>
</g>
</g>
<!-- Node10 -->
<g id="Node000010" class="node">
<title>Node10</title>
<g id="a_Node000010"><a xlink:href="WeaponConfig_8hpp.html" target="_top" xlink:title=" ">
<polygon fill="white" stroke="#666666" points="1145.25,-163.5 1012.25,-163.5 1012.25,-133 1145.25,-133 1145.25,-163.5"/>
<text xml:space="preserve" text-anchor="start" x="1020.25" y="-150" font-family="Helvetica,sans-Serif" font-size="10.00">common/include/RType</text>
<text xml:space="preserve" text-anchor="middle" x="1078.75" y="-138.75" font-family="Helvetica,sans-Serif" font-size="10.00">/Config/WeaponConfig.hpp</text>
</a>
</g>
</g>
<!-- Node1&#45;&gt;Node10 -->
<g id="edge10_Node000001_Node000010" class="edge">
<title>Node1&#45;&gt;Node10</title>
<g id="a_edge10_Node000001_Node000010"><a xlink:title=" ">
<path fill="none" stroke="#63b8ff" d="M986.07,-194.2C1006.22,-184.43 1030.18,-172.81 1048.69,-163.83"/>
<polygon fill="#63b8ff" stroke="#63b8ff" points="984.76,-190.94 977.29,-198.45 987.82,-197.24 984.76,-190.94"/>
</a>
</g>
</g>
<!-- Node3 -->
<g id="Node000003" class="node">
<title>Node3</title>
<g id="a_Node000003"><a xlink:href="SpriteCustomizer_8hpp.html" target="_top" xlink:title=" ">
<polygon fill="white" stroke="#666666" points="667.12,-97 554.38,-97 554.38,-66.5 667.12,-66.5 667.12,-97"/>
<text xml:space="preserve" text-anchor="start" x="562.38" y="-83.5" font-family="Helvetica,sans-Serif" font-size="10.00">client/include/Game</text>
<text xml:space="preserve" text-anchor="middle" x="610.75" y="-72.25" font-family="Helvetica,sans-Serif" font-size="10.00">/SpriteCustomizer.hpp</text>
</a>
</g>
</g>
<!-- Node2&#45;&gt;Node3 -->
<g id="edge2_Node000002_Node000003" class="edge">
<title>Node2&#45;&gt;Node3</title>
<g id="a_edge2_Node000002_Node000003"><a xlink:title=" ">
<path fill="none" stroke="#63b8ff" d="M755.89,-129.09C724.52,-119.08 686.08,-106.8 656.64,-97.4"/>
<polygon fill="#63b8ff" stroke="#63b8ff" points="754.63,-132.37 765.22,-132.07 756.76,-125.7 754.63,-132.37"/>
</a>
</g>
</g>
<!-- Node7 -->
<g id="Node000007" class="node">
<title>Node7</title>
<g id="a_Node000007"><a xlink:href="ModMenuScene_8cpp.html" target="_top" xlink:title=" ">
<polygon fill="white" stroke="#666666" points="1000.5,-30.5 863,-30.5 863,0 1000.5,0 1000.5,-30.5"/>
<text xml:space="preserve" text-anchor="start" x="871" y="-17" font-family="Helvetica,sans-Serif" font-size="10.00">client/src/Scenes/ModMenu</text>
<text xml:space="preserve" text-anchor="middle" x="931.75" y="-5.75" font-family="Helvetica,sans-Serif" font-size="10.00">Scene.cpp</text>
</a>
</g>
</g>
<!-- Node2&#45;&gt;Node7 -->
<g id="edge9_Node000002_Node000007" class="edge">
<title>Node2&#45;&gt;Node7</title>
<g id="a_edge9_Node000002_Node000007"><a xlink:title=" ">
<path fill="none" stroke="#63b8ff" d="M813.33,-121.09C814.96,-103.96 819.54,-81.97 831.75,-66.5 844.63,-50.18 864.21,-38.72 882.64,-30.92"/>
<polygon fill="#63b8ff" stroke="#63b8ff" points="809.84,-120.83 812.7,-131.03 816.83,-121.27 809.84,-120.83"/>
</a>
</g>
</g>
<!-- Node4 -->
<g id="Node000004" class="node">
<title>Node4</title>
<g id="a_Node000004"><a xlink:href="Application_8cpp.html" target="_top" xlink:title=" ">
<polygon fill="white" stroke="#666666" points="149.5,-24.88 0,-24.88 0,-5.63 149.5,-5.63 149.5,-24.88"/>
<text xml:space="preserve" text-anchor="middle" x="74.75" y="-11.38" font-family="Helvetica,sans-Serif" font-size="10.00">client/src/Core/Application.cpp</text>
</a>
</g>
</g>
<!-- Node3&#45;&gt;Node4 -->
<g id="edge3_Node000003_Node000004" class="edge">
<title>Node3&#45;&gt;Node4</title>
<g id="a_edge3_Node000003_Node000004"><a xlink:title=" ">
<path fill="none" stroke="#63b8ff" d="M542.66,-74.41C454.06,-65.87 294.52,-49.55 158.75,-30.5 147.91,-28.98 136.32,-27.15 125.32,-25.31"/>
<polygon fill="#63b8ff" stroke="#63b8ff" points="542.1,-77.87 552.39,-75.34 542.77,-70.9 542.1,-77.87"/>
</a>
</g>
</g>
<!-- Node5 -->
<g id="Node000005" class="node">
<title>Node5</title>
<g id="a_Node000005"><a xlink:href="EntityBuilder_8cpp.html" target="_top" xlink:title=" ">
<polygon fill="white" stroke="#666666" points="329.5,-24.88 168,-24.88 168,-5.63 329.5,-5.63 329.5,-24.88"/>
<text xml:space="preserve" text-anchor="middle" x="248.75" y="-11.38" font-family="Helvetica,sans-Serif" font-size="10.00">client/src/Game/EntityBuilder.cpp</text>
</a>
</g>
</g>
<!-- Node3&#45;&gt;Node5 -->
<g id="edge4_Node000003_Node000005" class="edge">
<title>Node3&#45;&gt;Node5</title>
<g id="a_edge4_Node000003_Node000005"><a xlink:title=" ">
<path fill="none" stroke="#63b8ff" d="M543.21,-68.72C472.69,-56.15 363.67,-36.73 299.94,-25.37"/>
<polygon fill="#63b8ff" stroke="#63b8ff" points="542.24,-72.1 552.7,-70.41 543.47,-65.21 542.24,-72.1"/>
</a>
</g>
</g>
<!-- Node6 -->
<g id="Node000006" class="node">
<title>Node6</title>
<g id="a_Node000006"><a xlink:href="SpriteCustomizer_8cpp.html" target="_top" xlink:title=" ">
<polygon fill="white" stroke="#666666" points="529.62,-24.88 347.88,-24.88 347.88,-5.63 529.62,-5.63 529.62,-24.88"/>
<text xml:space="preserve" text-anchor="middle" x="438.75" y="-11.38" font-family="Helvetica,sans-Serif" font-size="10.00">client/src/Game/SpriteCustomizer.cpp</text>
</a>
</g>
</g>
<!-- Node3&#45;&gt;Node6 -->
<g id="edge5_Node000003_Node000006" class="edge">
<title>Node3&#45;&gt;Node6</title>
<g id="a_edge5_Node000003_Node000006"><a xlink:title=" ">
<path fill="none" stroke="#63b8ff" d="M561.12,-62.14C528.82,-50.03 488.13,-34.77 462.78,-25.26"/>
<polygon fill="#63b8ff" stroke="#63b8ff" points="559.71,-65.35 570.3,-65.58 562.17,-58.79 559.71,-65.35"/>
</a>
</g>
</g>
<!-- Node3&#45;&gt;Node7 -->
<g id="edge6_Node000003_Node000007" class="edge">
<title>Node3&#45;&gt;Node7</title>
<g id="a_edge6_Node000003_Node000007"><a xlink:title=" ">
<path fill="none" stroke="#63b8ff" d="M678.6,-67.12C732.68,-56.25 808.1,-41.09 862.54,-30.16"/>
<polygon fill="#63b8ff" stroke="#63b8ff" points="678,-63.67 668.88,-69.07 679.38,-70.53 678,-63.67"/>
</a>
</g>
</g>
<!-- Node8 -->
<g id="Node000008" class="node">
<title>Node8</title>
<g id="a_Node000008"><a xlink:href="PlayingScene_8cpp.html" target="_top" xlink:title=" ">
<polygon fill="white" stroke="#666666" points="674.25,-30.5 547.25,-30.5 547.25,0 674.25,0 674.25,-30.5"/>
<text xml:space="preserve" text-anchor="start" x="555.25" y="-17" font-family="Helvetica,sans-Serif" font-size="10.00">client/src/Scenes/Playing</text>
<text xml:space="preserve" text-anchor="middle" x="610.75" y="-5.75" font-family="Helvetica,sans-Serif" font-size="10.00">Scene.cpp</text>
</a>
</g>
</g>
<!-- Node3&#45;&gt;Node8 -->
<g id="edge7_Node000003_Node000008" class="edge">
<title>Node3&#45;&gt;Node8</title>
<g id="a_edge7_Node000003_Node000008"><a xlink:title=" ">
<path fill="none" stroke="#63b8ff" d="M610.75,-54.81C610.75,-46.64 610.75,-37.91 610.75,-30.83"/>
<polygon fill="#63b8ff" stroke="#63b8ff" points="607.25,-54.6 610.75,-64.6 614.25,-54.6 607.25,-54.6"/>
</a>
</g>
</g>
<!-- Node9 -->
<g id="Node000009" class="node">
<title>Node9</title>
<g id="a_Node000009"><a xlink:href="RoomWaitingScene_8cpp.html" target="_top" xlink:title=" ">
<polygon fill="white" stroke="#666666" points="845.38,-30.5 692.12,-30.5 692.12,0 845.38,0 845.38,-30.5"/>
<text xml:space="preserve" text-anchor="start" x="700.12" y="-17" font-family="Helvetica,sans-Serif" font-size="10.00">client/src/Scenes/RoomWaiting</text>
<text xml:space="preserve" text-anchor="middle" x="768.75" y="-5.75" font-family="Helvetica,sans-Serif" font-size="10.00">Scene.cpp</text>
</a>
</g>
</g>
<!-- Node3&#45;&gt;Node9 -->
<g id="edge8_Node000003_Node000009" class="edge">
<title>Node3&#45;&gt;Node9</title>
<g id="a_edge8_Node000003_Node000009"><a xlink:title=" ">
<path fill="none" stroke="#63b8ff" d="M656.97,-61.88C681.14,-52.01 710.29,-40.11 732.77,-30.94"/>
<polygon fill="#63b8ff" stroke="#63b8ff" points="655.94,-58.52 648,-65.54 658.59,-65 655.94,-58.52"/>
</a>
</g>
</g>
<!-- Node11 -->
<g id="Node000011" class="node">
<title>Node11</title>
<g id="a_Node000011"><a xlink:href="Settings_8cpp.html" target="_top" xlink:title=" ">
<polygon fill="white" stroke="#666666" points="978.5,-91.38 841,-91.38 841,-72.12 978.5,-72.12 978.5,-91.38"/>
<text xml:space="preserve" text-anchor="middle" x="909.75" y="-77.88" font-family="Helvetica,sans-Serif" font-size="10.00">client/src/Core/Settings.cpp</text>
</a>
</g>
</g>
<!-- Node10&#45;&gt;Node11 -->
<g id="edge11_Node000010_Node000011" class="edge">
<title>Node10&#45;&gt;Node11</title>
<g id="a_edge11_Node000010_Node000011"><a xlink:title=" ">
<path fill="none" stroke="#63b8ff" d="M1029.99,-128.64C998.25,-116.53 958.27,-101.27 933.36,-91.76"/>
<polygon fill="#63b8ff" stroke="#63b8ff" points="1028.4,-131.78 1038.99,-132.07 1030.89,-125.24 1028.4,-131.78"/>
</a>
</g>
</g>
<!-- Node12 -->
<g id="Node000012" class="node">
<title>Node12</title>
<g id="a_Node000012"><a xlink:href="MenuScene_8cpp.html" target="_top" xlink:title=" ">
<polygon fill="white" stroke="#666666" points="1161.38,-91.38 996.12,-91.38 996.12,-72.12 1161.38,-72.12 1161.38,-91.38"/>
<text xml:space="preserve" text-anchor="middle" x="1078.75" y="-77.88" font-family="Helvetica,sans-Serif" font-size="10.00">client/src/Scenes/MenuScene.cpp</text>
</a>
</g>
</g>
<!-- Node10&#45;&gt;Node12 -->
<g id="edge12_Node000010_Node000012" class="edge">
<title>Node10&#45;&gt;Node12</title>
<g id="a_edge12_Node000010_Node000012"><a xlink:title=" ">
<path fill="none" stroke="#63b8ff" d="M1078.75,-121.34C1078.75,-110.76 1078.75,-99.25 1078.75,-91.57"/>
<polygon fill="#63b8ff" stroke="#63b8ff" points="1075.25,-121.1 1078.75,-131.1 1082.25,-121.1 1075.25,-121.1"/>
</a>
</g>
</g>
<!-- Node13 -->
<g id="Node000013" class="node">
<title>Node13</title>
<g id="a_Node000013"><a xlink:href="client_2src_2Systems_2NetworkSyncSystem_8cpp.html" target="_top" xlink:title=" ">
<polygon fill="white" stroke="#666666" points="1310.12,-97 1179.38,-97 1179.38,-66.5 1310.12,-66.5 1310.12,-97"/>
<text xml:space="preserve" text-anchor="start" x="1187.38" y="-83.5" font-family="Helvetica,sans-Serif" font-size="10.00">client/src/Systems</text>
<text xml:space="preserve" text-anchor="middle" x="1244.75" y="-72.25" font-family="Helvetica,sans-Serif" font-size="10.00">/NetworkSyncSystem.cpp</text>
</a>
</g>
</g>
<!-- Node10&#45;&gt;Node13 -->
<g id="edge13_Node000010_Node000013" class="edge">
<title>Node10&#45;&gt;Node13</title>
<g id="a_edge13_Node000010_Node000013"><a xlink:title=" ">
<path fill="none" stroke="#63b8ff" d="M1126.97,-128.51C1152.43,-118.62 1183.23,-106.65 1206.94,-97.44"/>
<polygon fill="#63b8ff" stroke="#63b8ff" points="1125.88,-125.18 1117.83,-132.07 1128.42,-131.71 1125.88,-125.18"/>
</a>
</g>
</g>
<!-- Node14 -->
<g id="Node000014" class="node">
<title>Node14</title>
<g id="a_Node000014"><a xlink:href="EntitySystem_8cpp.html" target="_top" xlink:title=" ">
<polygon fill="white" stroke="#666666" points="1429.5,-97 1328,-97 1328,-66.5 1429.5,-66.5 1429.5,-97"/>
<text xml:space="preserve" text-anchor="start" x="1336" y="-83.5" font-family="Helvetica,sans-Serif" font-size="10.00">server/src/Systems</text>
<text xml:space="preserve" text-anchor="middle" x="1378.75" y="-72.25" font-family="Helvetica,sans-Serif" font-size="10.00">/EntitySystem.cpp</text>
</a>
</g>
</g>
<!-- Node10&#45;&gt;Node14 -->
<g id="edge14_Node000010_Node000014" class="edge">
<title>Node10&#45;&gt;Node14</title>
<g id="a_edge14_Node000010_Node000014"><a xlink:title=" ">
<path fill="none" stroke="#63b8ff" d="M1156.61,-131.5C1203.63,-121.85 1264.71,-109.07 1318.75,-97 1321.68,-96.35 1324.68,-95.67 1327.71,-94.97"/>
<polygon fill="#63b8ff" stroke="#63b8ff" points="1156.16,-128.02 1147.06,-133.45 1157.56,-134.88 1156.16,-128.02"/>
</a>
</g>
</g>
</g>
</svg>
