<?xml version="1.0" encoding="UTF-8" standalone="no"?>
<!DOCTYPE svg PUBLIC "-//W3C//DTD SVG 1.1//EN"
 "http://www.w3.org/Graphics/SVG/1.1/DTD/svg11.dtd">
<!-- Generated by graphviz version 14.0.5 (20251129.0259)
 -->
<!-- Title: common/include/RType/Config/SimpleJsonParser.hpp Pages: 1 -->
<svg width="348pt" height="94pt"
 viewBox="0.00 0.00 348.00 94.00" xmlns="http://www.w3.org/2000/svg" xmlns:xlink="http://www.w3.org/1999/xlink">
<g id="graph0" class="graph" transform="scale(1 1) rotate(0) translate(4 89.75)">
<title>common/include/RType/Config/SimpleJsonParser.hpp</title>
<!-- Node1 -->
<g id="Node000001" class="node">
<title>Node1</title>
<g id="a_Node000001"><a xlink:title=" ">
<polygon fill="#999999" stroke="#666666" points="257,-85.75 109,-85.75 109,-55.25 257,-55.25 257,-85.75"/>
<text xml:space="preserve" text-anchor="start" x="117" y="-72.25" font-family="Helvetica,sans-Serif" font-size="10.00">common/include/RType</text>
<text xml:space="preserve" text-anchor="middle" x="183" y="-61" font-family="Helvetica,sans-Serif" font-size="10.00">/Config/SimpleJsonParser.hpp</text>
</a>
</g>
</g>
<!-- Node2 -->
<g id="Node000002" class="node">
<title>Node2</title>
<g id="a_Node000002"><a xlink:title=" ">
<polygon fill="#e0e0e0" stroke="#999999" points="40,-19.25 0,-19.25 0,0 40,0 40,-19.25"/>
<text xml:space="preserve" text-anchor="middle" x="20" y="-5.75" font-family="Helvetica,sans-Serif" font-size="10.00">string</text>
</a>
</g>
</g>
<!-- Node1&#45;&gt;Node2 -->
<g id="edge1_Node000001_Node000002" class="edge">
<title>Node1&#45;&gt;Node2</title>
<g id="a_edge1_Node000001_Node000002"><a xlink:title=" ">
<path fill="none" stroke="#63b8ff" d="M142.29,-54.8C114.03,-44.59 76.96,-31.2 51.07,-21.85"/>
<polygon fill="#63b8ff" stroke="#63b8ff" points="52.4,-18.61 41.8,-18.5 50.02,-25.19 52.4,-18.61"/>
</a>
</g>
</g>
<!-- Node3 -->
<g id="Node000003" class="node">
<title>Node3</title>
<g id="a_Node000003"><a xlink:title=" ">
<polygon fill="#e0e0e0" stroke="#999999" points="140.38,-19.25 57.62,-19.25 57.62,0 140.38,0 140.38,-19.25"/>
<text xml:space="preserve" text-anchor="middle" x="99" y="-5.75" font-family="Helvetica,sans-Serif" font-size="10.00">unordered_map</text>
</a>
</g>
</g>
<!-- Node1&#45;&gt;Node3 -->
<g id="edge2_Node000001_Node000003" class="edge">
<title>Node1&#45;&gt;Node3</title>
<g id="a_edge2_Node000001_Node000003"><a xlink:title=" ">
<path fill="none" stroke="#63b8ff" d="M162.24,-54.95C149.82,-46.24 134.03,-35.18 121.34,-26.28"/>
<polygon fill="#63b8ff" stroke="#63b8ff" points="123.39,-23.44 113.19,-20.57 119.37,-29.18 123.39,-23.44"/>
</a>
</g>
</g>
<!-- Node4 -->
<g id="Node000004" class="node">
<title>Node4</title>
<g id="a_Node000004"><a xlink:title=" ">
<polygon fill="#e0e0e0" stroke="#999999" points="207.5,-19.25 158.5,-19.25 158.5,0 207.5,0 207.5,-19.25"/>
<text xml:space="preserve" text-anchor="middle" x="183" y="-5.75" font-family="Helvetica,sans-Serif" font-size="10.00">fstream</text>
</a>
</g>
</g>
<!-- Node1&#45;&gt;Node4 -->
<g id="edge3_Node000001_Node000004" class="edge">
<title>Node1&#45;&gt;Node4</title>
<g id="a_edge3_Node000001_Node000004"><a xlink:title=" ">
<path fill="none" stroke="#63b8ff" d="M183,-54.95C183,-47.71 183,-38.84 183,-30.94"/>
<polygon fill="#63b8ff" stroke="#63b8ff" points="186.5,-31.21 183,-21.21 179.5,-31.21 186.5,-31.21"/>
</a>
</g>
</g>
<!-- Node5 -->
<g id="Node000005" class="node">
<title>Node5</title>
<g id="a_Node000005"><a xlink:title=" ">
<polygon fill="#e0e0e0" stroke="#999999" points="276.62,-19.25 225.38,-19.25 225.38,0 276.62,0 276.62,-19.25"/>
<text xml:space="preserve" text-anchor="middle" x="251" y="-5.75" font-family="Helvetica,sans-Serif" font-size="10.00">sstream</text>
</a>
</g>
</g>
<!-- Node1&#45;&gt;Node5 -->
<g id="edge4_Node000001_Node000005" class="edge">
<title>Node1&#45;&gt;Node5</title>
<g id="a_edge4_Node000001_Node000005"><a xlink:title=" ">
<path fill="none" stroke="#63b8ff" d="M199.81,-54.95C209.57,-46.5 221.88,-35.83 231.99,-27.08"/>
<polygon fill="#63b8ff" stroke="#63b8ff" points="234.1,-29.88 239.37,-20.69 229.52,-24.59 234.1,-29.88"/>
</a>
</g>
</g>
<!-- Node6 -->
<g id="Node000006" class="node">
<title>Node6</title>
<g id="a_Node000006"><a xlink:title=" ">
<polygon fill="#e0e0e0" stroke="#999999" points="339.62,-19.25 294.38,-19.25 294.38,0 339.62,0 339.62,-19.25"/>
<text xml:space="preserve" text-anchor="middle" x="317" y="-5.75" font-family="Helvetica,sans-Serif" font-size="10.00">cctype</text>
</a>
</g>
</g>
<!-- Node1&#45;&gt;Node6 -->
<g id="edge5_Node000001_Node000006" class="edge">
<title>Node1&#45;&gt;Node6</title>
<g id="a_edge5_Node000001_Node000006"><a xlink:title=" ">
<path fill="none" stroke="#63b8ff" d="M216.47,-54.8C237.76,-45.44 265.13,-33.41 285.94,-24.27"/>
<polygon fill="#63b8ff" stroke="#63b8ff" points="287.32,-27.49 295.06,-20.26 284.5,-21.08 287.32,-27.49"/>
</a>
</g>
</g>
</g>
</svg>
