<?xml version="1.0" encoding="UTF-8" standalone="no"?>
<!DOCTYPE svg PUBLIC "-//W3C//DTD SVG 1.1//EN"
 "http://www.w3.org/Graphics/SVG/1.1/DTD/svg11.dtd">
<!-- Generated by graphviz version 14.0.5 (20251129.0259)
 -->
<!-- Title: common/include/RType/ECS/Components/UI/Slider.hpp Pages: 1 -->
<!--zoomable 293 -->

<svg id="main" version="1.1" xmlns="http://www.w3.org/2000/svg" xmlns:xlink="http://www.w3.org/1999/xlink" xml:space="preserve" onload="init(evt)">

<style type="text/css"><![CDATA[
.node, .edge {opacity: 0.7;}
.node.selected, .edge.selected {opacity: 1;}
.edge:hover path { stroke: red; }
.edge:hover polygon { stroke: red; fill: red; }
]]></style>

<defs>
  <circle id="rim" cx="0" cy="0" r="7"/>
  <circle id="rim2" cx="0" cy="0" r="3.5"/>
  <g id="zoomPlus">
    <use xlink:href="#rim" fill="#404040"><set attributeName="fill" to="#808080" begin="zoomplus.mouseover" end="zoomplus.mouseout"/></use>
    <path d="M-4,0h8M0,-4v8" fill="none" stroke="white" stroke-width="1.5" pointer-events="none"/>
  </g>
  <g id="zoomMin">
    <use xlink:href="#rim" fill="#404040"><set attributeName="fill" to="#808080" begin="zoomminus.mouseover" end="zoomminus.mouseout"/></use>
    <path d="M-4,0h8" fill="none" stroke="white" stroke-width="1.5" pointer-events="none"/>
  </g>
  <g id="arrowUp" transform="translate(30 24)">
    <use xlink:href="#rim"/>
    <path pointer-events="none" fill="none" stroke="white" stroke-width="1.5" d="M0,-3.0v7 M-2.5,-0.5L0,-3.0L2.5,-0.5"/>
  </g>
  <g id="arrowRight" transform="rotate(90) translate(36 -43)">
    <use xlink:href="#rim"/>
    <path pointer-events="none" fill="none" stroke="white" stroke-width="1.5" d="M0,-3.0v7 M-2.5,-0.5L0,-3.0L2.5,-0.5"/>
  </g>
  <g id="arrowDown" transform="rotate(180) translate(-30 -48)">
    <use xlink:href="#rim"/>
    <path pointer-events="none" fill="none" stroke="white" stroke-width="1.5" d="M0,-3.0v7 M-2.5,-0.5L0,-3.0L2.5,-0.5"/>
  </g>
  <g id="arrowLeft" transform="rotate(270) translate(-36 17)">
    <use xlink:href="#rim"/>
    <path pointer-events="none" fill="none" stroke="white" stroke-width="1.5" d="M0,-3.0v7 M-2.5,-0.5L0,-3.0L2.5,-0.5"/>
  </g>
  <g id="resetDef">
    <use xlink:href="#rim2" fill="#404040"><set attributeName="fill" to="#808080" begin="reset.mouseover" end="reset.mouseout"/></use>
  </g>
</defs>
<script type="application/ecmascript">
var viewWidth = 2468;
var viewHeight = 293;
var sectionId = 'dynsection-1';
</script>
<script type="application/ecmascript" xlink:href="svg.min.js"/>
<svg id="graph" class="graph">
<g id="viewport">
<title>common/include/RType/ECS/Components/UI/Slider.hpp</title>
<!-- Node1 -->
<g id="Node000001" class="node">
<title>Node1</title>
<g id="a_Node000001"><a xlink:title=" ">
<polygon fill="#999999" stroke="#666666" points="1135.75,-285.25 978,-285.25 978,-254.75 1135.75,-254.75 1135.75,-285.25"/>
<text xml:space="preserve" text-anchor="start" x="986" y="-271.75" font-family="Helvetica,sans-Serif" font-size="10.00">common/include/RType</text>
<text xml:space="preserve" text-anchor="middle" x="1056.88" y="-260.5" font-family="Helvetica,sans-Serif" font-size="10.00">/ECS/Components/UI/Slider.hpp</text>
</a>
</g>
</g>
<!-- Node2 -->
<g id="Node000002" class="node">
<title>Node2</title>
<g id="a_Node000002"><a xlink:href="Application_8hpp.html" target="_top" xlink:title=" ">
<polygon fill="white" stroke="#666666" points="1313.38,-85.75 1216.38,-85.75 1216.38,-55.25 1313.38,-55.25 1313.38,-85.75"/>
<text xml:space="preserve" text-anchor="start" x="1224.38" y="-72.25" font-family="Helvetica,sans-Serif" font-size="10.00">client/include/Core</text>
<text xml:space="preserve" text-anchor="middle" x="1264.88" y="-61" font-family="Helvetica,sans-Serif" font-size="10.00">/Application.hpp</text>
</a>
</g>
</g>
<!-- Node1&#45;&gt;Node2 -->
<g id="edge1_Node000001_Node000002" class="edge">
<title>Node1&#45;&gt;Node2</title>
<g id="a_edge1_Node000001_Node000002"><a xlink:title=" ">
<path fill="none" stroke="#63b8ff" d="M1052.51,-243.11C1048.61,-210.65 1047.38,-155.22 1076.88,-121.75 1079.25,-119.06 1161.37,-97.78 1216.28,-83.79"/>
<polygon fill="#63b8ff" stroke="#63b8ff" points="1049.02,-243.41 1053.87,-252.83 1055.95,-242.44 1049.02,-243.41"/>
</a>
</g>
</g>
<!-- Node5 -->
<g id="Node000005" class="node">
<title>Node5</title>
<g id="a_Node000005"><a xlink:href="UIRenderSystem_8hpp.html" target="_top" xlink:title=" ">
<polygon fill="white" stroke="#666666" points="357.38,-218.75 242.38,-218.75 242.38,-188.25 357.38,-188.25 357.38,-218.75"/>
<text xml:space="preserve" text-anchor="start" x="250.38" y="-205.25" font-family="Helvetica,sans-Serif" font-size="10.00">client/include/Systems</text>
<text xml:space="preserve" text-anchor="middle" x="299.88" y="-194" font-family="Helvetica,sans-Serif" font-size="10.00">/UIRenderSystem.hpp</text>
</a>
</g>
</g>
<!-- Node1&#45;&gt;Node5 -->
<g id="edge4_Node000001_Node000005" class="edge">
<title>Node1&#45;&gt;Node5</title>
<g id="a_edge4_Node000001_Node000005"><a xlink:title=" ">
<path fill="none" stroke="#63b8ff" d="M966.6,-261.31C809.17,-247.89 488.71,-220.59 357.68,-209.42"/>
<polygon fill="#63b8ff" stroke="#63b8ff" points="965.88,-264.76 976.14,-262.12 966.47,-257.78 965.88,-264.76"/>
</a>
</g>
</g>
<!-- Node8 -->
<g id="Node000008" class="node">
<title>Node8</title>
<g id="a_Node000008"><a xlink:href="UISystem_8hpp.html" target="_top" xlink:title=" ">
<polygon fill="white" stroke="#666666" points="1028.38,-218.75 913.38,-218.75 913.38,-188.25 1028.38,-188.25 1028.38,-218.75"/>
<text xml:space="preserve" text-anchor="start" x="921.38" y="-205.25" font-family="Helvetica,sans-Serif" font-size="10.00">client/include/Systems</text>
<text xml:space="preserve" text-anchor="middle" x="970.88" y="-194" font-family="Helvetica,sans-Serif" font-size="10.00">/UISystem.hpp</text>
</a>
</g>
</g>
<!-- Node1&#45;&gt;Node8 -->
<g id="edge8_Node000001_Node000008" class="edge">
<title>Node1&#45;&gt;Node8</title>
<g id="a_edge8_Node000001_Node000008"><a xlink:title=" ">
<path fill="none" stroke="#63b8ff" d="M1028.27,-247.54C1015.8,-238.19 1001.51,-227.48 990.31,-219.08"/>
<polygon fill="#63b8ff" stroke="#63b8ff" points="1026.05,-250.26 1036.15,-253.46 1030.25,-244.66 1026.05,-250.26"/>
</a>
</g>
</g>
<!-- Node10 -->
<g id="Node000010" class="node">
<title>Node10</title>
<g id="a_Node000010"><a xlink:href="UiFactory_8hpp.html" target="_top" xlink:title=" ">
<polygon fill="white" stroke="#666666" points="1391.62,-213.12 1242.12,-213.12 1242.12,-193.88 1391.62,-193.88 1391.62,-213.12"/>
<text xml:space="preserve" text-anchor="middle" x="1316.88" y="-199.62" font-family="Helvetica,sans-Serif" font-size="10.00">client/include/UI/UiFactory.hpp</text>
</a>
</g>
</g>
<!-- Node1&#45;&gt;Node10 -->
<g id="edge11_Node000001_Node000010" class="edge">
<title>Node1&#45;&gt;Node10</title>
<g id="a_edge11_Node000001_Node000010"><a xlink:title=" ">
<path fill="none" stroke="#63b8ff" d="M1127.14,-251.57C1176.54,-239.31 1240.66,-223.41 1280.27,-213.58"/>
<polygon fill="#63b8ff" stroke="#63b8ff" points="1126.53,-248.11 1117.67,-253.92 1128.22,-254.91 1126.53,-248.11"/>
</a>
</g>
</g>
<!-- Node30 -->
<g id="Node000030" class="node">
<title>Node30</title>
<g id="a_Node000030"><a xlink:href="PlayingScene_8cpp.html" target="_top" xlink:title=" ">
<polygon fill="white" stroke="#666666" points="2460.38,-85.75 2333.38,-85.75 2333.38,-55.25 2460.38,-55.25 2460.38,-85.75"/>
<text xml:space="preserve" text-anchor="start" x="2341.38" y="-72.25" font-family="Helvetica,sans-Serif" font-size="10.00">client/src/Scenes/Playing</text>
<text xml:space="preserve" text-anchor="middle" x="2396.88" y="-61" font-family="Helvetica,sans-Serif" font-size="10.00">Scene.cpp</text>
</a>
</g>
</g>
<!-- Node1&#45;&gt;Node30 -->
<g id="edge50_Node000001_Node000030" class="edge">
<title>Node1&#45;&gt;Node30</title>
<g id="a_edge50_Node000001_Node000030"><a xlink:title=" ">
<path fill="none" stroke="#63b8ff" d="M1147.07,-265.06C1421.62,-252.49 2234.74,-210.67 2337.88,-152.25 2364.31,-137.28 2382.18,-105.04 2390.83,-86.14"/>
<polygon fill="#63b8ff" stroke="#63b8ff" points="1147.31,-261.55 1137.48,-265.5 1147.63,-268.54 1147.31,-261.55"/>
</a>
</g>
</g>
<!-- Node3 -->
<g id="Node000003" class="node">
<title>Node3</title>
<g id="a_Node000003"><a xlink:href="Application_8cpp.html" target="_top" xlink:title=" ">
<polygon fill="white" stroke="#666666" points="1268.62,-19.25 1119.12,-19.25 1119.12,0 1268.62,0 1268.62,-19.25"/>
<text xml:space="preserve" text-anchor="middle" x="1193.88" y="-5.75" font-family="Helvetica,sans-Serif" font-size="10.00">client/src/Core/Application.cpp</text>
</a>
</g>
</g>
<!-- Node2&#45;&gt;Node3 -->
<g id="edge2_Node000002_Node000003" class="edge">
<title>Node2&#45;&gt;Node3</title>
<g id="a_edge2_Node000002_Node000003"><a xlink:title=" ">
<path fill="none" stroke="#63b8ff" d="M1238.74,-47.83C1227.03,-38.12 1213.85,-27.19 1204.82,-19.7"/>
<polygon fill="#63b8ff" stroke="#63b8ff" points="1236.23,-50.29 1246.16,-53.98 1240.7,-44.9 1236.23,-50.29"/>
</a>
</g>
</g>
<!-- Node4 -->
<g id="Node000004" class="node">
<title>Node4</title>
<g id="a_Node000004"><a xlink:href="client_2src_2main_8cpp.html" target="_top" xlink:title=" ">
<polygon fill="white" stroke="#666666" points="1385.12,-19.25 1286.62,-19.25 1286.62,0 1385.12,0 1385.12,-19.25"/>
<text xml:space="preserve" text-anchor="middle" x="1335.88" y="-5.75" font-family="Helvetica,sans-Serif" font-size="10.00">client/src/main.cpp</text>
</a>
</g>
</g>
<!-- Node2&#45;&gt;Node4 -->
<g id="edge3_Node000002_Node000004" class="edge">
<title>Node2&#45;&gt;Node4</title>
<g id="a_edge3_Node000002_Node000004"><a xlink:title=" ">
<path fill="none" stroke="#63b8ff" d="M1291.01,-47.83C1302.72,-38.12 1315.9,-27.19 1324.93,-19.7"/>
<polygon fill="#63b8ff" stroke="#63b8ff" points="1289.05,-44.9 1283.59,-53.98 1293.52,-50.29 1289.05,-44.9"/>
</a>
</g>
</g>
<!-- Node5&#45;&gt;Node2 -->
<g id="edge5_Node000005_Node000002" class="edge">
<title>Node5&#45;&gt;Node2</title>
<g id="a_edge5_Node000005_Node000002"><a xlink:title=" ">
<path fill="none" stroke="#63b8ff" d="M311.03,-177.89C321.1,-158.87 337.88,-133.82 360.88,-121.75 444.19,-78.04 1113.73,-99.04 1206.88,-85.75 1209.85,-85.33 1212.9,-84.81 1215.96,-84.24"/>
<polygon fill="#63b8ff" stroke="#63b8ff" points="308,-176.11 306.68,-186.63 314.27,-179.24 308,-176.11"/>
</a>
</g>
</g>
<!-- Node6 -->
<g id="Node000006" class="node">
<title>Node6</title>
<g id="a_Node000006"><a xlink:href="SpriteCustomizer_8cpp.html" target="_top" xlink:title=" ">
<polygon fill="white" stroke="#666666" points="181.75,-146.62 0,-146.62 0,-127.38 181.75,-127.38 181.75,-146.62"/>
<text xml:space="preserve" text-anchor="middle" x="90.88" y="-133.12" font-family="Helvetica,sans-Serif" font-size="10.00">client/src/Game/SpriteCustomizer.cpp</text>
</a>
</g>
</g>
<!-- Node5&#45;&gt;Node6 -->
<g id="edge6_Node000005_Node000006" class="edge">
<title>Node5&#45;&gt;Node6</title>
<g id="a_edge6_Node000005_Node000006"><a xlink:title=" ">
<path fill="none" stroke="#63b8ff" d="M241.38,-184.45C201.95,-172.28 151.6,-156.74 120.3,-147.08"/>
<polygon fill="#63b8ff" stroke="#63b8ff" points="240.15,-187.73 250.74,-187.34 242.22,-181.04 240.15,-187.73"/>
</a>
</g>
</g>
<!-- Node7 -->
<g id="Node000007" class="node">
<title>Node7</title>
<g id="a_Node000007"><a xlink:href="UIRenderSystem_8cpp.html" target="_top" xlink:title=" ">
<polygon fill="white" stroke="#666666" points="313.62,-152.25 200.12,-152.25 200.12,-121.75 313.62,-121.75 313.62,-152.25"/>
<text xml:space="preserve" text-anchor="start" x="208.12" y="-138.75" font-family="Helvetica,sans-Serif" font-size="10.00">client/src/Systems</text>
<text xml:space="preserve" text-anchor="middle" x="256.88" y="-127.5" font-family="Helvetica,sans-Serif" font-size="10.00">/UIRenderSystem.cpp</text>
</a>
</g>
</g>
<!-- Node5&#45;&gt;Node7 -->
<g id="edge7_Node000005_Node000007" class="edge">
<title>Node5&#45;&gt;Node7</title>
<g id="a_edge7_Node000005_Node000007"><a xlink:title=" ">
<path fill="none" stroke="#63b8ff" d="M283.9,-178.54C278.09,-169.82 271.7,-160.24 266.59,-152.58"/>
<polygon fill="#63b8ff" stroke="#63b8ff" points="280.82,-180.23 289.28,-186.6 286.64,-176.34 280.82,-180.23"/>
</a>
</g>
</g>
<!-- Node8&#45;&gt;Node2 -->
<g id="edge9_Node000008_Node000002" class="edge">
<title>Node8&#45;&gt;Node2</title>
<g id="a_edge9_Node000008_Node000002"><a xlink:title=" ">
<path fill="none" stroke="#63b8ff" d="M986.01,-178.56C998.89,-160.19 1019.07,-135.67 1042.88,-121.75 1107.29,-84.07 1134.19,-102.65 1206.88,-85.75 1209.9,-85.05 1213.02,-84.31 1216.16,-83.56"/>
<polygon fill="#63b8ff" stroke="#63b8ff" points="983.16,-176.53 980.47,-186.78 988.96,-180.44 983.16,-176.53"/>
</a>
</g>
</g>
<!-- Node9 -->
<g id="Node000009" class="node">
<title>Node9</title>
<g id="a_Node000009"><a xlink:href="UISystem_8cpp.html" target="_top" xlink:title=" ">
<polygon fill="white" stroke="#666666" points="467.75,-152.25 370,-152.25 370,-121.75 467.75,-121.75 467.75,-152.25"/>
<text xml:space="preserve" text-anchor="start" x="378" y="-138.75" font-family="Helvetica,sans-Serif" font-size="10.00">client/src/Systems</text>
<text xml:space="preserve" text-anchor="middle" x="418.88" y="-127.5" font-family="Helvetica,sans-Serif" font-size="10.00">/UISystem.cpp</text>
</a>
</g>
</g>
<!-- Node8&#45;&gt;Node9 -->
<g id="edge10_Node000008_Node000009" class="edge">
<title>Node8&#45;&gt;Node9</title>
<g id="a_edge10_Node000008_Node000009"><a xlink:title=" ">
<path fill="none" stroke="#63b8ff" d="M901.82,-198.53C805.93,-192.32 627.28,-178.24 476.88,-152.25 474.01,-151.76 471.09,-151.2 468.14,-150.6"/>
<polygon fill="#63b8ff" stroke="#63b8ff" points="901.38,-202.01 911.59,-199.15 901.83,-195.02 901.38,-202.01"/>
</a>
</g>
</g>
<!-- Node10&#45;&gt;Node2 -->
<g id="edge12_Node000010_Node000002" class="edge">
<title>Node10&#45;&gt;Node2</title>
<g id="a_edge12_Node000010_Node000002"><a xlink:title=" ">
<path fill="none" stroke="#63b8ff" d="M1282.19,-188.45C1266.92,-180.31 1250.51,-168.43 1241.88,-152.25 1230.41,-130.77 1243.69,-102.95 1254.31,-86.21"/>
<polygon fill="#63b8ff" stroke="#63b8ff" points="1280.59,-191.57 1291.11,-192.83 1283.68,-185.28 1280.59,-191.57"/>
</a>
</g>
</g>
<!-- Node11 -->
<g id="Node000011" class="node">
<title>Node11</title>
<g id="a_Node000011"><a xlink:href="CreateRoomScene_8hpp.html" target="_top" xlink:title=" ">
<polygon fill="white" stroke="#666666" points="1522.38,-152.25 1401.38,-152.25 1401.38,-121.75 1522.38,-121.75 1522.38,-152.25"/>
<text xml:space="preserve" text-anchor="start" x="1409.38" y="-138.75" font-family="Helvetica,sans-Serif" font-size="10.00">client/include/Scenes</text>
<text xml:space="preserve" text-anchor="middle" x="1461.88" y="-127.5" font-family="Helvetica,sans-Serif" font-size="10.00">/CreateRoomScene.hpp</text>
</a>
</g>
</g>
<!-- Node10&#45;&gt;Node11 -->
<g id="edge13_Node000010_Node000011" class="edge">
<title>Node10&#45;&gt;Node11</title>
<g id="a_edge13_Node000010_Node000011"><a xlink:title=" ">
<path fill="none" stroke="#63b8ff" d="M1347.6,-188.83C1371.48,-178.21 1404.53,-163.51 1428.94,-152.65"/>
<polygon fill="#63b8ff" stroke="#63b8ff" points="1346.44,-185.52 1338.73,-192.78 1349.28,-191.91 1346.44,-185.52"/>
</a>
</g>
</g>
<!-- Node13 -->
<g id="Node000013" class="node">
<title>Node13</title>
<g id="a_Node000013"><a xlink:href="GameOverScene_8hpp.html" target="_top" xlink:title=" ">
<polygon fill="white" stroke="#666666" points="1653.25,-152.25 1540.5,-152.25 1540.5,-121.75 1653.25,-121.75 1653.25,-152.25"/>
<text xml:space="preserve" text-anchor="start" x="1548.5" y="-138.75" font-family="Helvetica,sans-Serif" font-size="10.00">client/include/Scenes</text>
<text xml:space="preserve" text-anchor="middle" x="1596.88" y="-127.5" font-family="Helvetica,sans-Serif" font-size="10.00">/GameOverScene.hpp</text>
</a>
</g>
</g>
<!-- Node10&#45;&gt;Node13 -->
<g id="edge16_Node000010_Node000013" class="edge">
<title>Node10&#45;&gt;Node13</title>
<g id="a_edge16_Node000010_Node000013"><a xlink:title=" ">
<path fill="none" stroke="#63b8ff" d="M1367.6,-190.82C1416.24,-179.61 1489.55,-162.72 1540.11,-151.08"/>
<polygon fill="#63b8ff" stroke="#63b8ff" points="1366.83,-187.4 1357.87,-193.06 1368.4,-194.22 1366.83,-187.4"/>
</a>
</g>
</g>
<!-- Node15 -->
<g id="Node000015" class="node">
<title>Node15</title>
<g id="a_Node000015"><a xlink:href="GamepadSettingsScene_8hpp.html" target="_top" xlink:title=" ">
<polygon fill="white" stroke="#666666" points="1814.62,-152.25 1671.12,-152.25 1671.12,-121.75 1814.62,-121.75 1814.62,-152.25"/>
<text xml:space="preserve" text-anchor="start" x="1679.12" y="-138.75" font-family="Helvetica,sans-Serif" font-size="10.00">client/include/Scenes</text>
<text xml:space="preserve" text-anchor="middle" x="1742.88" y="-127.5" font-family="Helvetica,sans-Serif" font-size="10.00">/GamepadSettingsScene.hpp</text>
</a>
</g>
</g>
<!-- Node10&#45;&gt;Node15 -->
<g id="edge19_Node000010_Node000015" class="edge">
<title>Node10&#45;&gt;Node15</title>
<g id="a_edge19_Node000010_Node000015"><a xlink:title=" ">
<path fill="none" stroke="#63b8ff" d="M1394.77,-191.82C1464.76,-182.07 1570.31,-166.97 1661.88,-152.25 1664.84,-151.77 1667.86,-151.28 1670.9,-150.77"/>
<polygon fill="#63b8ff" stroke="#63b8ff" points="1394.35,-188.35 1384.92,-193.19 1395.31,-195.28 1394.35,-188.35"/>
</a>
</g>
</g>
<!-- Node17 -->
<g id="Node000017" class="node">
<title>Node17</title>
<g id="a_Node000017"><a xlink:href="KeyBindingScene_8hpp.html" target="_top" xlink:title=" ">
<polygon fill="white" stroke="#666666" points="1947.38,-152.25 1832.38,-152.25 1832.38,-121.75 1947.38,-121.75 1947.38,-152.25"/>
<text xml:space="preserve" text-anchor="start" x="1840.38" y="-138.75" font-family="Helvetica,sans-Serif" font-size="10.00">client/include/Scenes</text>
<text xml:space="preserve" text-anchor="middle" x="1889.88" y="-127.5" font-family="Helvetica,sans-Serif" font-size="10.00">/KeyBindingScene.hpp</text>
</a>
</g>
</g>
<!-- Node10&#45;&gt;Node17 -->
<g id="edge22_Node000010_Node000017" class="edge">
<title>Node10&#45;&gt;Node17</title>
<g id="a_edge22_Node000010_Node000017"><a xlink:title=" ">
<path fill="none" stroke="#63b8ff" d="M1403.33,-196.94C1504.55,-189.74 1677.05,-175.3 1823.88,-152.25 1826.54,-151.83 1829.26,-151.37 1832,-150.89"/>
<polygon fill="#63b8ff" stroke="#63b8ff" points="1403.19,-193.44 1393.46,-197.64 1403.68,-200.43 1403.19,-193.44"/>
</a>
</g>
</g>
<!-- Node19 -->
<g id="Node000019" class="node">
<title>Node19</title>
<g id="a_Node000019"><a xlink:href="LobbyScene_8hpp.html" target="_top" xlink:title=" ">
<polygon fill="white" stroke="#666666" points="2074.38,-152.25 1965.38,-152.25 1965.38,-121.75 2074.38,-121.75 2074.38,-152.25"/>
<text xml:space="preserve" text-anchor="start" x="1973.38" y="-138.75" font-family="Helvetica,sans-Serif" font-size="10.00">client/include/Scenes</text>
<text xml:space="preserve" text-anchor="middle" x="2019.88" y="-127.5" font-family="Helvetica,sans-Serif" font-size="10.00">/LobbyScene.hpp</text>
</a>
</g>
</g>
<!-- Node10&#45;&gt;Node19 -->
<g id="edge25_Node000010_Node000019" class="edge">
<title>Node10&#45;&gt;Node19</title>
<g id="a_edge25_Node000010_Node000019"><a xlink:title=" ">
<path fill="none" stroke="#63b8ff" d="M1402.89,-199.68C1526.18,-194.75 1759.99,-182.09 1956.88,-152.25 1959.54,-151.85 1962.25,-151.39 1964.99,-150.9"/>
<polygon fill="#63b8ff" stroke="#63b8ff" points="1403.04,-196.17 1393.18,-200.06 1403.31,-203.17 1403.04,-196.17"/>
</a>
</g>
</g>
<!-- Node21 -->
<g id="Node000021" class="node">
<title>Node21</title>
<g id="a_Node000021"><a xlink:href="LoginScene_8hpp.html" target="_top" xlink:title=" ">
<polygon fill="white" stroke="#666666" points="2201.38,-152.25 2092.38,-152.25 2092.38,-121.75 2201.38,-121.75 2201.38,-152.25"/>
<text xml:space="preserve" text-anchor="start" x="2100.38" y="-138.75" font-family="Helvetica,sans-Serif" font-size="10.00">client/include/Scenes</text>
<text xml:space="preserve" text-anchor="middle" x="2146.88" y="-127.5" font-family="Helvetica,sans-Serif" font-size="10.00">/LoginScene.hpp</text>
</a>
</g>
</g>
<!-- Node10&#45;&gt;Node21 -->
<g id="edge28_Node000010_Node000021" class="edge">
<title>Node10&#45;&gt;Node21</title>
<g id="a_edge28_Node000010_Node000021"><a xlink:title=" ">
<path fill="none" stroke="#63b8ff" d="M1403.1,-201.26C1545.53,-198.22 1838.6,-187.8 2083.88,-152.25 2086.54,-151.86 2089.26,-151.43 2091.99,-150.95"/>
<polygon fill="#63b8ff" stroke="#63b8ff" points="1403.3,-197.75 1393.38,-201.46 1403.45,-204.75 1403.3,-197.75"/>
</a>
</g>
</g>
<!-- Node23 -->
<g id="Node000023" class="node">
<title>Node23</title>
<g id="a_Node000023"><a xlink:href="MenuScene_8hpp.html" target="_top" xlink:title=" ">
<polygon fill="white" stroke="#666666" points="594.38,-152.25 485.38,-152.25 485.38,-121.75 594.38,-121.75 594.38,-152.25"/>
<text xml:space="preserve" text-anchor="start" x="493.38" y="-138.75" font-family="Helvetica,sans-Serif" font-size="10.00">client/include/Scenes</text>
<text xml:space="preserve" text-anchor="middle" x="539.88" y="-127.5" font-family="Helvetica,sans-Serif" font-size="10.00">/MenuScene.hpp</text>
</a>
</g>
</g>
<!-- Node10&#45;&gt;Node23 -->
<g id="edge31_Node000010_Node000023" class="edge">
<title>Node10&#45;&gt;Node23</title>
<g id="a_edge31_Node000010_Node000023"><a xlink:title=" ">
<path fill="none" stroke="#63b8ff" d="M1230.41,-198.02C1067.86,-189.33 722.44,-169.53 603.88,-152.25 600.83,-151.81 597.72,-151.3 594.59,-150.74"/>
<polygon fill="#63b8ff" stroke="#63b8ff" points="1230.1,-201.51 1240.28,-198.55 1230.48,-194.52 1230.1,-201.51"/>
</a>
</g>
</g>
<!-- Node25 -->
<g id="Node000025" class="node">
<title>Node25</title>
<g id="a_Node000025"><a xlink:href="ModMenuScene_8hpp.html" target="_top" xlink:title=" ">
<polygon fill="white" stroke="#666666" points="721.38,-152.25 612.38,-152.25 612.38,-121.75 721.38,-121.75 721.38,-152.25"/>
<text xml:space="preserve" text-anchor="start" x="620.38" y="-138.75" font-family="Helvetica,sans-Serif" font-size="10.00">client/include/Scenes</text>
<text xml:space="preserve" text-anchor="middle" x="666.88" y="-127.5" font-family="Helvetica,sans-Serif" font-size="10.00">/ModMenuScene.hpp</text>
</a>
</g>
</g>
<!-- Node10&#45;&gt;Node25 -->
<g id="edge34_Node000010_Node000025" class="edge">
<title>Node10&#45;&gt;Node25</title>
<g id="a_edge34_Node000010_Node000025"><a xlink:title=" ">
<path fill="none" stroke="#63b8ff" d="M1230.55,-198.71C1115.88,-192.85 907.24,-179.32 730.88,-152.25 727.84,-151.78 724.73,-151.26 721.6,-150.69"/>
<polygon fill="#63b8ff" stroke="#63b8ff" points="1230.36,-202.2 1240.52,-199.21 1230.71,-195.21 1230.36,-202.2"/>
</a>
</g>
</g>
<!-- Node27 -->
<g id="Node000027" class="node">
<title>Node27</title>
<g id="a_Node000027"><a xlink:href="PauseScene_8hpp.html" target="_top" xlink:title=" ">
<polygon fill="white" stroke="#666666" points="848.38,-152.25 739.38,-152.25 739.38,-121.75 848.38,-121.75 848.38,-152.25"/>
<text xml:space="preserve" text-anchor="start" x="747.38" y="-138.75" font-family="Helvetica,sans-Serif" font-size="10.00">client/include/Scenes</text>
<text xml:space="preserve" text-anchor="middle" x="793.88" y="-127.5" font-family="Helvetica,sans-Serif" font-size="10.00">/PauseScene.hpp</text>
</a>
</g>
</g>
<!-- Node10&#45;&gt;Node27 -->
<g id="edge37_Node000010_Node000027" class="edge">
<title>Node10&#45;&gt;Node27</title>
<g id="a_edge37_Node000010_Node000027"><a xlink:title=" ">
<path fill="none" stroke="#63b8ff" d="M1230.53,-195.9C1137.98,-188.16 986.94,-173.62 857.88,-152.25 854.84,-151.75 851.74,-151.19 848.61,-150.6"/>
<polygon fill="#63b8ff" stroke="#63b8ff" points="1230.03,-199.37 1240.29,-196.71 1230.61,-192.4 1230.03,-199.37"/>
</a>
</g>
</g>
<!-- Node29 -->
<g id="Node000029" class="node">
<title>Node29</title>
<g id="a_Node000029"><a xlink:href="PlayingScene_8hpp.html" target="_top" xlink:title=" ">
<polygon fill="white" stroke="#666666" points="2328.38,-152.25 2219.38,-152.25 2219.38,-121.75 2328.38,-121.75 2328.38,-152.25"/>
<text xml:space="preserve" text-anchor="start" x="2227.38" y="-138.75" font-family="Helvetica,sans-Serif" font-size="10.00">client/include/Scenes</text>
<text xml:space="preserve" text-anchor="middle" x="2273.88" y="-127.5" font-family="Helvetica,sans-Serif" font-size="10.00">/PlayingScene.hpp</text>
</a>
</g>
</g>
<!-- Node10&#45;&gt;Node29 -->
<g id="edge40_Node000010_Node000029" class="edge">
<title>Node10&#45;&gt;Node29</title>
<g id="a_edge40_Node000010_Node000029"><a xlink:title=" ">
<path fill="none" stroke="#63b8ff" d="M1403.24,-202.4C1563.31,-201.17 1916.59,-193.51 2210.88,-152.25 2213.54,-151.88 2216.26,-151.45 2219,-150.98"/>
<polygon fill="#63b8ff" stroke="#63b8ff" points="1403.54,-198.9 1393.56,-202.47 1403.58,-205.9 1403.54,-198.9"/>
</a>
</g>
</g>
<!-- Node31 -->
<g id="Node000031" class="node">
<title>Node31</title>
<g id="a_Node000031"><a xlink:href="RoomWaitingScene_8hpp.html" target="_top" xlink:title=" ">
<polygon fill="white" stroke="#666666" points="990.88,-152.25 866.88,-152.25 866.88,-121.75 990.88,-121.75 990.88,-152.25"/>
<text xml:space="preserve" text-anchor="start" x="874.88" y="-138.75" font-family="Helvetica,sans-Serif" font-size="10.00">client/include/Scenes</text>
<text xml:space="preserve" text-anchor="middle" x="928.88" y="-127.5" font-family="Helvetica,sans-Serif" font-size="10.00">/RoomWaitingScene.hpp</text>
</a>
</g>
</g>
<!-- Node10&#45;&gt;Node31 -->
<g id="edge43_Node000010_Node000031" class="edge">
<title>Node10&#45;&gt;Node31</title>
<g id="a_edge43_Node000010_Node000031"><a xlink:title=" ">
<path fill="none" stroke="#63b8ff" d="M1250.83,-191.52C1178.13,-179.44 1062.18,-160.16 991.06,-148.34"/>
<polygon fill="#63b8ff" stroke="#63b8ff" points="1250.18,-194.96 1260.61,-193.15 1251.32,-188.05 1250.18,-194.96"/>
</a>
</g>
</g>
<!-- Node33 -->
<g id="Node000033" class="node">
<title>Node33</title>
<g id="a_Node000033"><a xlink:href="SettingsScene_8hpp.html" target="_top" xlink:title=" ">
<polygon fill="white" stroke="#666666" points="1194.38,-152.25 1085.38,-152.25 1085.38,-121.75 1194.38,-121.75 1194.38,-152.25"/>
<text xml:space="preserve" text-anchor="start" x="1093.38" y="-138.75" font-family="Helvetica,sans-Serif" font-size="10.00">client/include/Scenes</text>
<text xml:space="preserve" text-anchor="middle" x="1139.88" y="-127.5" font-family="Helvetica,sans-Serif" font-size="10.00">/SettingsScene.hpp</text>
</a>
</g>
</g>
<!-- Node10&#45;&gt;Node33 -->
<g id="edge46_Node000010_Node000033" class="edge">
<title>Node10&#45;&gt;Node33</title>
<g id="a_edge46_Node000010_Node000033"><a xlink:title=" ">
<path fill="none" stroke="#63b8ff" d="M1281.32,-189.54C1252.04,-178.88 1210.55,-163.75 1180.07,-152.65"/>
<polygon fill="#63b8ff" stroke="#63b8ff" points="1279.87,-192.74 1290.47,-192.88 1282.27,-186.16 1279.87,-192.74"/>
</a>
</g>
</g>
<!-- Node35 -->
<g id="Node000035" class="node">
<title>Node35</title>
<g id="a_Node000035"><a xlink:href="UiFactory_8cpp.html" target="_top" xlink:title=" ">
<polygon fill="white" stroke="#666666" points="1383,-146.62 1250.75,-146.62 1250.75,-127.38 1383,-127.38 1383,-146.62"/>
<text xml:space="preserve" text-anchor="middle" x="1316.88" y="-133.12" font-family="Helvetica,sans-Serif" font-size="10.00">client/src/UI/UiFactory.cpp</text>
</a>
</g>
</g>
<!-- Node10&#45;&gt;Node35 -->
<g id="edge49_Node000010_Node000035" class="edge">
<title>Node10&#45;&gt;Node35</title>
<g id="a_edge49_Node000010_Node000035"><a xlink:title=" ">
<path fill="none" stroke="#63b8ff" d="M1316.88,-182.02C1316.88,-170.19 1316.88,-155.91 1316.88,-146.89"/>
<polygon fill="#63b8ff" stroke="#63b8ff" points="1313.38,-182.02 1316.88,-192.02 1320.38,-182.02 1313.38,-182.02"/>
</a>
</g>
</g>
<!-- Node11&#45;&gt;Node2 -->
<g id="edge14_Node000011_Node000002" class="edge">
<title>Node11&#45;&gt;Node2</title>
<g id="a_edge14_Node000011_Node000002"><a xlink:title=" ">
<path fill="none" stroke="#63b8ff" d="M1406.26,-117.79C1375.74,-107.8 1338.39,-95.57 1309.74,-86.19"/>
<polygon fill="#63b8ff" stroke="#63b8ff" points="1405.14,-121.11 1415.73,-120.89 1407.32,-114.46 1405.14,-121.11"/>
</a>
</g>
</g>
<!-- Node12 -->
<g id="Node000012" class="node">
<title>Node12</title>
<g id="a_Node000012"><a xlink:href="CreateRoomScene_8cpp.html" target="_top" xlink:title=" ">
<polygon fill="white" stroke="#666666" points="1469.88,-85.75 1345.88,-85.75 1345.88,-55.25 1469.88,-55.25 1469.88,-85.75"/>
<text xml:space="preserve" text-anchor="start" x="1353.88" y="-72.25" font-family="Helvetica,sans-Serif" font-size="10.00">client/src/Scenes/Create</text>
<text xml:space="preserve" text-anchor="middle" x="1407.88" y="-61" font-family="Helvetica,sans-Serif" font-size="10.00">RoomScene.cpp</text>
</a>
</g>
</g>
<!-- Node11&#45;&gt;Node12 -->
<g id="edge15_Node000011_Node000012" class="edge">
<title>Node11&#45;&gt;Node12</title>
<g id="a_edge15_Node000011_Node000012"><a xlink:title=" ">
<path fill="none" stroke="#63b8ff" d="M1442.28,-112.6C1434.86,-103.73 1426.63,-93.9 1420.08,-86.08"/>
<polygon fill="#63b8ff" stroke="#63b8ff" points="1439.55,-114.78 1448.65,-120.2 1444.91,-110.29 1439.55,-114.78"/>
</a>
</g>
</g>
<!-- Node13&#45;&gt;Node2 -->
<g id="edge17_Node000013_Node000002" class="edge">
<title>Node13&#45;&gt;Node2</title>
<g id="a_edge17_Node000013_Node000002"><a xlink:title=" ">
<path fill="none" stroke="#63b8ff" d="M1529.14,-121.24C1443.62,-104.13 1419.97,-101.64 1336.88,-85.75 1329.37,-84.31 1321.42,-82.77 1313.66,-81.24"/>
<polygon fill="#63b8ff" stroke="#63b8ff" points="1528.2,-124.62 1538.69,-123.16 1529.58,-117.75 1528.2,-124.62"/>
</a>
</g>
</g>
<!-- Node14 -->
<g id="Node000014" class="node">
<title>Node14</title>
<g id="a_Node000014"><a xlink:href="GameOverScene_8cpp.html" target="_top" xlink:title=" ">
<polygon fill="white" stroke="#666666" points="1629.88,-85.75 1487.88,-85.75 1487.88,-55.25 1629.88,-55.25 1629.88,-85.75"/>
<text xml:space="preserve" text-anchor="start" x="1495.88" y="-72.25" font-family="Helvetica,sans-Serif" font-size="10.00">client/src/Scenes/GameOver</text>
<text xml:space="preserve" text-anchor="middle" x="1558.88" y="-61" font-family="Helvetica,sans-Serif" font-size="10.00">Scene.cpp</text>
</a>
</g>
</g>
<!-- Node13&#45;&gt;Node14 -->
<g id="edge18_Node000013_Node000014" class="edge">
<title>Node13&#45;&gt;Node14</title>
<g id="a_edge18_Node000013_Node000014"><a xlink:title=" ">
<path fill="none" stroke="#63b8ff" d="M1582.43,-111.48C1577.38,-102.91 1571.88,-93.57 1567.46,-86.08"/>
<polygon fill="#63b8ff" stroke="#63b8ff" points="1579.39,-113.22 1587.48,-120.06 1585.42,-109.67 1579.39,-113.22"/>
</a>
</g>
</g>
<!-- Node15&#45;&gt;Node2 -->
<g id="edge20_Node000015_Node000002" class="edge">
<title>Node15&#45;&gt;Node2</title>
<g id="a_edge20_Node000015_Node000002"><a xlink:title=" ">
<path fill="none" stroke="#63b8ff" d="M1659.93,-121.54C1516.12,-101.46 1477,-107.34 1336.88,-85.75 1329.32,-84.59 1321.35,-83.18 1313.58,-81.72"/>
<polygon fill="#63b8ff" stroke="#63b8ff" points="1659.03,-124.95 1669.43,-122.88 1660.02,-118.02 1659.03,-124.95"/>
</a>
</g>
</g>
<!-- Node16 -->
<g id="Node000016" class="node">
<title>Node16</title>
<g id="a_Node000016"><a xlink:href="GamepadSettingsScene_8cpp.html" target="_top" xlink:title=" ">
<polygon fill="white" stroke="#666666" points="1784.25,-85.75 1647.5,-85.75 1647.5,-55.25 1784.25,-55.25 1784.25,-85.75"/>
<text xml:space="preserve" text-anchor="start" x="1655.5" y="-72.25" font-family="Helvetica,sans-Serif" font-size="10.00">client/src/Scenes/Gamepad</text>
<text xml:space="preserve" text-anchor="middle" x="1715.88" y="-61" font-family="Helvetica,sans-Serif" font-size="10.00">SettingsScene.cpp</text>
</a>
</g>
</g>
<!-- Node15&#45;&gt;Node16 -->
<g id="edge21_Node000015_Node000016" class="edge">
<title>Node15&#45;&gt;Node16</title>
<g id="a_edge21_Node000015_Node000016"><a xlink:title=" ">
<path fill="none" stroke="#63b8ff" d="M1732.37,-110.91C1728.85,-102.5 1725.05,-93.41 1721.98,-86.08"/>
<polygon fill="#63b8ff" stroke="#63b8ff" points="1729.07,-112.09 1736.16,-119.97 1735.53,-109.39 1729.07,-112.09"/>
</a>
</g>
</g>
<!-- Node17&#45;&gt;Node2 -->
<g id="edge23_Node000017_Node000002" class="edge">
<title>Node17&#45;&gt;Node2</title>
<g id="a_edge23_Node000017_Node000002"><a xlink:title=" ">
<path fill="none" stroke="#63b8ff" d="M1820.72,-121.43C1607.06,-91.58 1548.27,-114.37 1336.88,-85.75 1329.3,-84.72 1321.32,-83.4 1313.54,-81.96"/>
<polygon fill="#63b8ff" stroke="#63b8ff" points="1820.12,-124.87 1830.51,-122.82 1821.1,-117.94 1820.12,-124.87"/>
</a>
</g>
</g>
<!-- Node18 -->
<g id="Node000018" class="node">
<title>Node18</title>
<g id="a_Node000018"><a xlink:href="KeyBindingScene_8cpp.html" target="_top" xlink:title=" ">
<polygon fill="white" stroke="#666666" points="1947,-85.75 1802.75,-85.75 1802.75,-55.25 1947,-55.25 1947,-85.75"/>
<text xml:space="preserve" text-anchor="start" x="1810.75" y="-72.25" font-family="Helvetica,sans-Serif" font-size="10.00">client/src/Scenes/KeyBinding</text>
<text xml:space="preserve" text-anchor="middle" x="1874.88" y="-61" font-family="Helvetica,sans-Serif" font-size="10.00">Scene.cpp</text>
</a>
</g>
</g>
<!-- Node17&#45;&gt;Node18 -->
<g id="edge24_Node000017_Node000018" class="edge">
<title>Node17&#45;&gt;Node18</title>
<g id="a_edge24_Node000017_Node000018"><a xlink:title=" ">
<path fill="none" stroke="#63b8ff" d="M1883.91,-110.34C1881.99,-102.09 1879.93,-93.24 1878.27,-86.08"/>
<polygon fill="#63b8ff" stroke="#63b8ff" points="1880.45,-110.94 1886.13,-119.89 1887.27,-109.36 1880.45,-110.94"/>
</a>
</g>
</g>
<!-- Node19&#45;&gt;Node2 -->
<g id="edge26_Node000019_Node000002" class="edge">
<title>Node19&#45;&gt;Node2</title>
<g id="a_edge26_Node000019_Node000002"><a xlink:title=" ">
<path fill="none" stroke="#63b8ff" d="M1953.98,-121.49C1681.61,-84.15 1607.07,-120.17 1336.88,-85.75 1329.29,-84.78 1321.31,-83.49 1313.53,-82.07"/>
<polygon fill="#63b8ff" stroke="#63b8ff" points="1953.11,-124.91 1963.5,-122.82 1954.08,-117.97 1953.11,-124.91"/>
</a>
</g>
</g>
<!-- Node20 -->
<g id="Node000020" class="node">
<title>Node20</title>
<g id="a_Node000020"><a xlink:href="LobbyScene_8cpp.html" target="_top" xlink:title=" ">
<polygon fill="white" stroke="#666666" points="2132.62,-80.12 1965.12,-80.12 1965.12,-60.88 2132.62,-60.88 2132.62,-80.12"/>
<text xml:space="preserve" text-anchor="middle" x="2048.88" y="-66.62" font-family="Helvetica,sans-Serif" font-size="10.00">client/src/Scenes/LobbyScene.cpp</text>
</a>
</g>
</g>
<!-- Node19&#45;&gt;Node20 -->
<g id="edge27_Node000019_Node000020" class="edge">
<title>Node19&#45;&gt;Node20</title>
<g id="a_edge27_Node000019_Node000020"><a xlink:title=" ">
<path fill="none" stroke="#63b8ff" d="M2031.07,-111.11C2035.94,-100.26 2041.35,-88.24 2044.91,-80.32"/>
<polygon fill="#63b8ff" stroke="#63b8ff" points="2027.98,-109.43 2027.08,-119.98 2034.37,-112.3 2027.98,-109.43"/>
</a>
</g>
</g>
<!-- Node21&#45;&gt;Node2 -->
<g id="edge29_Node000021_Node000002" class="edge">
<title>Node21&#45;&gt;Node2</title>
<g id="a_edge29_Node000021_Node000002"><a xlink:title=" ">
<path fill="none" stroke="#63b8ff" d="M2080.73,-121.48C1752.53,-78.01 1663.09,-125.67 1336.88,-85.75 1329.29,-84.82 1321.3,-83.55 1313.52,-82.14"/>
<polygon fill="#63b8ff" stroke="#63b8ff" points="2080.13,-124.93 2090.5,-122.79 2081.06,-117.99 2080.13,-124.93"/>
</a>
</g>
</g>
<!-- Node22 -->
<g id="Node000022" class="node">
<title>Node22</title>
<g id="a_Node000022"><a xlink:href="LoginScene_8cpp.html" target="_top" xlink:title=" ">
<polygon fill="white" stroke="#666666" points="2315.12,-80.12 2150.62,-80.12 2150.62,-60.88 2315.12,-60.88 2315.12,-80.12"/>
<text xml:space="preserve" text-anchor="middle" x="2232.88" y="-66.62" font-family="Helvetica,sans-Serif" font-size="10.00">client/src/Scenes/LoginScene.cpp</text>
</a>
</g>
</g>
<!-- Node21&#45;&gt;Node22 -->
<g id="edge30_Node000021_Node000022" class="edge">
<title>Node21&#45;&gt;Node22</title>
<g id="a_edge30_Node000021_Node000022"><a xlink:title=" ">
<path fill="none" stroke="#63b8ff" d="M2175.17,-114.78C2190.78,-103.07 2209.34,-89.15 2221.11,-80.32"/>
<polygon fill="#63b8ff" stroke="#63b8ff" points="2173.5,-111.66 2167.6,-120.46 2177.7,-117.26 2173.5,-111.66"/>
</a>
</g>
</g>
<!-- Node23&#45;&gt;Node2 -->
<g id="edge32_Node000023_Node000002" class="edge">
<title>Node23&#45;&gt;Node2</title>
<g id="a_edge32_Node000023_Node000002"><a xlink:title=" ">
<path fill="none" stroke="#63b8ff" d="M605.76,-121.67C871.75,-85.58 945.05,-125.39 1206.88,-85.75 1209.85,-85.3 1212.89,-84.77 1215.95,-84.18"/>
<polygon fill="#63b8ff" stroke="#63b8ff" points="605.51,-118.17 596.08,-123.01 606.47,-125.11 605.51,-118.17"/>
</a>
</g>
</g>
<!-- Node24 -->
<g id="Node000024" class="node">
<title>Node24</title>
<g id="a_Node000024"><a xlink:href="MenuScene_8cpp.html" target="_top" xlink:title=" ">
<polygon fill="white" stroke="#666666" points="536.5,-80.12 371.25,-80.12 371.25,-60.88 536.5,-60.88 536.5,-80.12"/>
<text xml:space="preserve" text-anchor="middle" x="453.88" y="-66.62" font-family="Helvetica,sans-Serif" font-size="10.00">client/src/Scenes/MenuScene.cpp</text>
</a>
</g>
</g>
<!-- Node23&#45;&gt;Node24 -->
<g id="edge33_Node000023_Node000024" class="edge">
<title>Node23&#45;&gt;Node24</title>
<g id="a_edge33_Node000023_Node000024"><a xlink:title=" ">
<path fill="none" stroke="#63b8ff" d="M511.58,-114.78C495.97,-103.07 477.41,-89.15 465.64,-80.32"/>
<polygon fill="#63b8ff" stroke="#63b8ff" points="509.05,-117.26 519.15,-120.46 513.25,-111.66 509.05,-117.26"/>
</a>
</g>
</g>
<!-- Node25&#45;&gt;Node2 -->
<g id="edge35_Node000025_Node000002" class="edge">
<title>Node25&#45;&gt;Node2</title>
<g id="a_edge35_Node000025_Node000002"><a xlink:title=" ">
<path fill="none" stroke="#63b8ff" d="M732.69,-121.65C942.72,-91.57 1000.95,-118.6 1206.88,-85.75 1209.84,-85.28 1212.89,-84.73 1215.94,-84.13"/>
<polygon fill="#63b8ff" stroke="#63b8ff" points="732.48,-118.15 723.09,-123.06 733.49,-125.07 732.48,-118.15"/>
</a>
</g>
</g>
<!-- Node26 -->
<g id="Node000026" class="node">
<title>Node26</title>
<g id="a_Node000026"><a xlink:href="ModMenuScene_8cpp.html" target="_top" xlink:title=" ">
<polygon fill="white" stroke="#666666" points="691.62,-85.75 554.12,-85.75 554.12,-55.25 691.62,-55.25 691.62,-85.75"/>
<text xml:space="preserve" text-anchor="start" x="562.12" y="-72.25" font-family="Helvetica,sans-Serif" font-size="10.00">client/src/Scenes/ModMenu</text>
<text xml:space="preserve" text-anchor="middle" x="622.88" y="-61" font-family="Helvetica,sans-Serif" font-size="10.00">Scene.cpp</text>
</a>
</g>
</g>
<!-- Node25&#45;&gt;Node26 -->
<g id="edge36_Node000025_Node000026" class="edge">
<title>Node25&#45;&gt;Node26</title>
<g id="a_edge36_Node000025_Node000026"><a xlink:title=" ">
<path fill="none" stroke="#63b8ff" d="M650.53,-112.04C644.58,-103.32 638.05,-93.74 632.82,-86.08"/>
<polygon fill="#63b8ff" stroke="#63b8ff" points="647.51,-113.83 656.04,-120.11 653.29,-109.88 647.51,-113.83"/>
</a>
</g>
</g>
<!-- Node27&#45;&gt;Node2 -->
<g id="edge38_Node000027_Node000002" class="edge">
<title>Node27&#45;&gt;Node2</title>
<g id="a_edge38_Node000027_Node000002"><a xlink:title=" ">
<path fill="none" stroke="#63b8ff" d="M859.88,-121.57C1013.8,-97.47 1056.84,-111.79 1206.88,-85.75 1209.84,-85.24 1212.87,-84.66 1215.93,-84.03"/>
<polygon fill="#63b8ff" stroke="#63b8ff" points="859.42,-118.1 850.1,-123.14 860.53,-125.01 859.42,-118.1"/>
</a>
</g>
</g>
<!-- Node28 -->
<g id="Node000028" class="node">
<title>Node28</title>
<g id="a_Node000028"><a xlink:href="PauseScene_8cpp.html" target="_top" xlink:title=" ">
<polygon fill="white" stroke="#666666" points="878.38,-80.12 709.38,-80.12 709.38,-60.88 878.38,-60.88 878.38,-80.12"/>
<text xml:space="preserve" text-anchor="middle" x="793.88" y="-66.62" font-family="Helvetica,sans-Serif" font-size="10.00">client/src/Scenes/PauseScene.cpp</text>
</a>
</g>
</g>
<!-- Node27&#45;&gt;Node28 -->
<g id="edge39_Node000027_Node000028" class="edge">
<title>Node27&#45;&gt;Node28</title>
<g id="a_edge39_Node000027_Node000028"><a xlink:title=" ">
<path fill="none" stroke="#63b8ff" d="M793.88,-110.09C793.88,-99.51 793.88,-88 793.88,-80.32"/>
<polygon fill="#63b8ff" stroke="#63b8ff" points="790.38,-109.85 793.88,-119.85 797.38,-109.85 790.38,-109.85"/>
</a>
</g>
</g>
<!-- Node29&#45;&gt;Node2 -->
<g id="edge41_Node000029_Node000002" class="edge">
<title>Node29&#45;&gt;Node2</title>
<g id="a_edge41_Node000029_Node000002"><a xlink:title=" ">
<path fill="none" stroke="#63b8ff" d="M2207.84,-121.51C1823.5,-71.81 1719.26,-131.19 1336.88,-85.75 1329.28,-84.85 1321.29,-83.59 1313.51,-82.18"/>
<polygon fill="#63b8ff" stroke="#63b8ff" points="2207.13,-124.95 2217.51,-122.78 2208.05,-118.01 2207.13,-124.95"/>
</a>
</g>
</g>
<!-- Node29&#45;&gt;Node30 -->
<g id="edge42_Node000029_Node000030" class="edge">
<title>Node29&#45;&gt;Node30</title>
<g id="a_edge42_Node000029_Node000030"><a xlink:title=" ">
<path fill="none" stroke="#63b8ff" d="M2311.93,-116.04C2330.4,-106.36 2352.19,-94.93 2369.07,-86.08"/>
<polygon fill="#63b8ff" stroke="#63b8ff" points="2310.36,-112.92 2303.13,-120.66 2313.61,-119.12 2310.36,-112.92"/>
</a>
</g>
</g>
<!-- Node31&#45;&gt;Node2 -->
<g id="edge44_Node000031_Node000002" class="edge">
<title>Node31&#45;&gt;Node2</title>
<g id="a_edge44_Node000031_Node000002"><a xlink:title=" ">
<path fill="none" stroke="#63b8ff" d="M1002.33,-122.22C1003.19,-122.06 1004.03,-121.9 1004.88,-121.75 1094.58,-105.35 1117.66,-104.64 1206.88,-85.75 1209.82,-85.13 1212.84,-84.46 1215.88,-83.77"/>
<polygon fill="#63b8ff" stroke="#63b8ff" points="1001.77,-118.76 992.57,-124.02 1003.04,-125.64 1001.77,-118.76"/>
</a>
</g>
</g>
<!-- Node32 -->
<g id="Node000032" class="node">
<title>Node32</title>
<g id="a_Node000032"><a xlink:href="RoomWaitingScene_8cpp.html" target="_top" xlink:title=" ">
<polygon fill="white" stroke="#666666" points="1049.5,-85.75 896.25,-85.75 896.25,-55.25 1049.5,-55.25 1049.5,-85.75"/>
<text xml:space="preserve" text-anchor="start" x="904.25" y="-72.25" font-family="Helvetica,sans-Serif" font-size="10.00">client/src/Scenes/RoomWaiting</text>
<text xml:space="preserve" text-anchor="middle" x="972.88" y="-61" font-family="Helvetica,sans-Serif" font-size="10.00">Scene.cpp</text>
</a>
</g>
</g>
<!-- Node31&#45;&gt;Node32 -->
<g id="edge45_Node000031_Node000032" class="edge">
<title>Node31&#45;&gt;Node32</title>
<g id="a_edge45_Node000031_Node000032"><a xlink:title=" ">
<path fill="none" stroke="#63b8ff" d="M945.22,-112.04C951.17,-103.32 957.7,-93.74 962.93,-86.08"/>
<polygon fill="#63b8ff" stroke="#63b8ff" points="942.46,-109.88 939.71,-120.11 948.24,-113.83 942.46,-109.88"/>
</a>
</g>
</g>
<!-- Node33&#45;&gt;Node2 -->
<g id="edge47_Node000033_Node000002" class="edge">
<title>Node33&#45;&gt;Node2</title>
<g id="a_edge47_Node000033_Node000002"><a xlink:title=" ">
<path fill="none" stroke="#63b8ff" d="M1178.29,-116.18C1197.12,-106.46 1219.38,-94.97 1236.62,-86.08"/>
<polygon fill="#63b8ff" stroke="#63b8ff" points="1176.87,-112.97 1169.58,-120.67 1180.08,-119.19 1176.87,-112.97"/>
</a>
</g>
</g>
<!-- Node34 -->
<g id="Node000034" class="node">
<title>Node34</title>
<g id="a_Node000034"><a xlink:href="SettingsScene_8cpp.html" target="_top" xlink:title=" ">
<polygon fill="white" stroke="#666666" points="1198.25,-85.75 1067.5,-85.75 1067.5,-55.25 1198.25,-55.25 1198.25,-85.75"/>
<text xml:space="preserve" text-anchor="start" x="1075.5" y="-72.25" font-family="Helvetica,sans-Serif" font-size="10.00">client/src/Scenes/Settings</text>
<text xml:space="preserve" text-anchor="middle" x="1132.88" y="-61" font-family="Helvetica,sans-Serif" font-size="10.00">Scene.cpp</text>
</a>
</g>
</g>
<!-- Node33&#45;&gt;Node34 -->
<g id="edge48_Node000033_Node000034" class="edge">
<title>Node33&#45;&gt;Node34</title>
<g id="a_edge48_Node000033_Node000034"><a xlink:title=" ">
<path fill="none" stroke="#63b8ff" d="M1137.06,-110.06C1136.17,-101.89 1135.23,-93.16 1134.46,-86.08"/>
<polygon fill="#63b8ff" stroke="#63b8ff" points="1133.56,-110.3 1138.12,-119.86 1140.52,-109.54 1133.56,-110.3"/>
</a>
</g>
</g>
</g>
</svg>

<g id="navigator" transform="translate(0 0)" fill="#404254">
  <rect fill="#f2f5e9" fill-opacity="0.5" stroke="#606060" stroke-width=".5" x="0" y="0" width="60" height="60"/>
  <use id="zoomplus" xlink:href="#zoomPlus" x="17" y="9" onmousedown="handleZoom(evt,'in')"/>
  <use id="zoomminus" xlink:href="#zoomMin" x="42" y="9" onmousedown="handleZoom(evt,'out')"/>
  <use id="reset" xlink:href="#resetDef" x="30" y="36" onmousedown="handleReset()"/>
   <use id="arrowup" xlink:href="#arrowUp" x="0" y="0" onmousedown="handlePan(0,-1)"/>
  <use id="arrowright" xlink:href="#arrowRight" x="0" y="0" onmousedown="handlePan(1,0)"/>
  <use id="arrowdown" xlink:href="#arrowDown" x="0" y="0" onmousedown="handlePan(0,1)"/>
  <use id="arrowleft" xlink:href="#arrowLeft" x="0" y="0" onmousedown="handlePan(-1,0)"/>
</g>
<svg viewBox="0 0 15 15" width="100%" height="30px" preserveAspectRatio="xMaxYMin meet">
 <g id="arrow_out" transform="scale(0.3 0.3)">
  <a xlink:href="Slider_8hpp__dep__incl_org.svg" target="_base">
   <rect id="button" ry="5" rx="5" y="6" x="6" height="38" width="38"
        fill="#f2f5e9" fill-opacity="0.5" stroke="#606060" stroke-width="1.0"/>
   <path id="arrow"
     d="M 11.500037,31.436501 C 11.940474,20.09759 22.043105,11.32322 32.158766,21.979434 L 37.068811,17.246167 C 37.068811,17.246167 37.088388,32 37.088388,32 L 22.160133,31.978069 C 22.160133,31.978069 26.997745,27.140456 26.997745,27.140456 C 18.528582,18.264221 13.291696,25.230495 11.500037,31.436501 z"
     style="fill:#404040;"/>
  </a>
 </g>
</svg>

<style type='text/css'>
<![CDATA[
[data-mouse-over-selected='false'] { opacity: 0.7; }
[data-mouse-over-selected='true']  { opacity: 1.0; }
]]>
</style>
<script type="application/ecmascript"><![CDATA[
document.addEventListener('DOMContentLoaded', (event) => {
  highlightEdges();
  highlightAdjacentNodes();
});
]]></script>
</svg>
