<?xml version="1.0" encoding="UTF-8" standalone="no"?>
<!DOCTYPE svg PUBLIC "-//W3C//DTD SVG 1.1//EN"
 "http://www.w3.org/Graphics/SVG/1.1/DTD/svg11.dtd">
<!-- Generated by graphviz version 14.0.5 (20251129.0259)
 -->
<!-- Title: common/include/RType/ECS/SparseArray.hpp Pages: 1 -->
<!--zoomable 315 -->

<svg id="main" version="1.1" xmlns="http://www.w3.org/2000/svg" xmlns:xlink="http://www.w3.org/1999/xlink" xml:space="preserve" onload="init(evt)">

<style type="text/css"><![CDATA[
.node, .edge {opacity: 0.7;}
.node.selected, .edge.selected {opacity: 1;}
.edge:hover path { stroke: red; }
.edge:hover polygon { stroke: red; fill: red; }
]]></style>

<defs>
  <circle id="rim" cx="0" cy="0" r="7"/>
  <circle id="rim2" cx="0" cy="0" r="3.5"/>
  <g id="zoomPlus">
    <use xlink:href="#rim" fill="#404040"><set attributeName="fill" to="#808080" begin="zoomplus.mouseover" end="zoomplus.mouseout"/></use>
    <path d="M-4,0h8M0,-4v8" fill="none" stroke="white" stroke-width="1.5" pointer-events="none"/>
  </g>
  <g id="zoomMin">
    <use xlink:href="#rim" fill="#404040"><set attributeName="fill" to="#808080" begin="zoomminus.mouseover" end="zoomminus.mouseout"/></use>
    <path d="M-4,0h8" fill="none" stroke="white" stroke-width="1.5" pointer-events="none"/>
  </g>
  <g id="arrowUp" transform="translate(30 24)">
    <use xlink:href="#rim"/>
    <path pointer-events="none" fill="none" stroke="white" stroke-width="1.5" d="M0,-3.0v7 M-2.5,-0.5L0,-3.0L2.5,-0.5"/>
  </g>
  <g id="arrowRight" transform="rotate(90) translate(36 -43)">
    <use xlink:href="#rim"/>
    <path pointer-events="none" fill="none" stroke="white" stroke-width="1.5" d="M0,-3.0v7 M-2.5,-0.5L0,-3.0L2.5,-0.5"/>
  </g>
  <g id="arrowDown" transform="rotate(180) translate(-30 -48)">
    <use xlink:href="#rim"/>
    <path pointer-events="none" fill="none" stroke="white" stroke-width="1.5" d="M0,-3.0v7 M-2.5,-0.5L0,-3.0L2.5,-0.5"/>
  </g>
  <g id="arrowLeft" transform="rotate(270) translate(-36 17)">
    <use xlink:href="#rim"/>
    <path pointer-events="none" fill="none" stroke="white" stroke-width="1.5" d="M0,-3.0v7 M-2.5,-0.5L0,-3.0L2.5,-0.5"/>
  </g>
  <g id="resetDef">
    <use xlink:href="#rim2" fill="#404040"><set attributeName="fill" to="#808080" begin="reset.mouseover" end="reset.mouseout"/></use>
  </g>
</defs>
<script type="application/ecmascript">
var viewWidth = 1154;
var viewHeight = 315;
var sectionId = 'dynsection-0';
</script>
<script type="application/ecmascript" xlink:href="svg.min.js"/>
<svg id="graph" class="graph">
<g id="viewport">
<title>common/include/RType/ECS/SparseArray.hpp</title>
<!-- Node1 -->
<g id="Node000001" class="node">
<title>Node1</title>
<g id="a_Node000001"><a xlink:title="Sparse array container for efficient component storage in ECS.">
<polygon fill="#999999" stroke="#666666" points="976,-306.75 857.25,-306.75 857.25,-276.25 976,-276.25 976,-306.75"/>
<text xml:space="preserve" text-anchor="start" x="865.25" y="-293.25" font-family="Helvetica,sans-Serif" font-size="10.00">common/include/RType</text>
<text xml:space="preserve" text-anchor="middle" x="916.62" y="-282" font-family="Helvetica,sans-Serif" font-size="10.00">/ECS/SparseArray.hpp</text>
</a>
</g>
</g>
<!-- Node2 -->
<g id="Node000002" class="node">
<title>Node2</title>
<g id="a_Node000002"><a xlink:href="Assert_8hpp.html" target="_top" xlink:title="Assertion and verification macros for runtime checks.">
<polygon fill="white" stroke="#666666" points="480,-240.25 385.25,-240.25 385.25,-221 480,-221 480,-240.25"/>
<text xml:space="preserve" text-anchor="middle" x="432.62" y="-226.75" font-family="Helvetica,sans-Serif" font-size="10.00">RType/Assert.hpp</text>
</a>
</g>
</g>
<!-- Node1&#45;&gt;Node2 -->
<g id="edge1_Node000001_Node000002" class="edge">
<title>Node1&#45;&gt;Node2</title>
<g id="a_edge1_Node000001_Node000002"><a xlink:title=" ">
<path fill="none" stroke="#63b8ff" d="M856.79,-283.22C763.53,-271.88 584.6,-250.11 491.77,-238.82"/>
<polygon fill="#63b8ff" stroke="#63b8ff" points="492.2,-235.35 481.85,-237.61 491.35,-242.29 492.2,-235.35"/>
</a>
</g>
</g>
<!-- Node20 -->
<g id="Node000020" class="node">
<title>Node20</title>
<g id="a_Node000020"><a xlink:href="ComponentConcept_8hpp.html" target="_top" xlink:title="Concepts for validating component types in the ECS.">
<polygon fill="white" stroke="#666666" points="718.25,-240.25 541,-240.25 541,-221 718.25,-221 718.25,-240.25"/>
<text xml:space="preserve" text-anchor="middle" x="629.62" y="-226.75" font-family="Helvetica,sans-Serif" font-size="10.00">RType/ECS/ComponentConcept.hpp</text>
</a>
</g>
</g>
<!-- Node1&#45;&gt;Node20 -->
<g id="edge28_Node000001_Node000020" class="edge">
<title>Node1&#45;&gt;Node20</title>
<g id="a_edge28_Node000001_Node000020"><a xlink:title=" ">
<path fill="none" stroke="#63b8ff" d="M856.81,-278.23C806.21,-267.85 734.27,-253.09 684.98,-242.98"/>
<polygon fill="#63b8ff" stroke="#63b8ff" points="685.88,-239.59 675.38,-241.01 684.47,-246.45 685.88,-239.59"/>
</a>
</g>
</g>
<!-- Node23 -->
<g id="Node000023" class="node">
<title>Node23</title>
<g id="a_Node000023"><a xlink:href="Entity_8hpp.html" target="_top" xlink:title="Entity identifier for ECS architecture.">
<polygon fill="white" stroke="#666666" points="888.75,-240.25 774.5,-240.25 774.5,-221 888.75,-221 888.75,-240.25"/>
<text xml:space="preserve" text-anchor="middle" x="831.62" y="-226.75" font-family="Helvetica,sans-Serif" font-size="10.00">RType/ECS/Entity.hpp</text>
</a>
</g>
</g>
<!-- Node1&#45;&gt;Node23 -->
<g id="edge32_Node000001_Node000023" class="edge">
<title>Node1&#45;&gt;Node23</title>
<g id="a_edge32_Node000001_Node000023"><a xlink:title=" ">
<path fill="none" stroke="#63b8ff" d="M895.61,-275.95C882.92,-267.15 866.76,-255.96 853.85,-247.02"/>
<polygon fill="#63b8ff" stroke="#63b8ff" points="856.19,-244.38 845.97,-241.56 852.2,-250.13 856.19,-244.38"/>
</a>
</g>
</g>
<!-- Node25 -->
<g id="Node000025" class="node">
<title>Node25</title>
<g id="a_Node000025"><a xlink:title=" ">
<polygon fill="#e0e0e0" stroke="#999999" points="1023.25,-185 984,-185 984,-165.75 1023.25,-165.75 1023.25,-185"/>
<text xml:space="preserve" text-anchor="middle" x="1003.62" y="-171.5" font-family="Helvetica,sans-Serif" font-size="10.00">limits</text>
</a>
</g>
</g>
<!-- Node1&#45;&gt;Node25 -->
<g id="edge39_Node000001_Node000025" class="edge">
<title>Node1&#45;&gt;Node25</title>
<g id="a_edge39_Node000001_Node000025"><a xlink:title=" ">
<path fill="none" stroke="#63b8ff" d="M917.88,-275.91C919.8,-260.89 924.61,-237.41 936.62,-221 946.07,-208.1 960.45,-197.81 973.48,-190.38"/>
<polygon fill="#63b8ff" stroke="#63b8ff" points="974.99,-193.54 982.17,-185.76 971.7,-187.36 974.99,-193.54"/>
</a>
</g>
</g>
<!-- Node28 -->
<g id="Node000028" class="node">
<title>Node28</title>
<g id="a_Node000028"><a xlink:title=" ">
<polygon fill="#e0e0e0" stroke="#999999" points="988.12,-240.25 945.12,-240.25 945.12,-221 988.12,-221 988.12,-240.25"/>
<text xml:space="preserve" text-anchor="middle" x="966.62" y="-226.75" font-family="Helvetica,sans-Serif" font-size="10.00">vector</text>
</a>
</g>
</g>
<!-- Node1&#45;&gt;Node28 -->
<g id="edge38_Node000001_Node000028" class="edge">
<title>Node1&#45;&gt;Node28</title>
<g id="a_edge38_Node000001_Node000028"><a xlink:title=" ">
<path fill="none" stroke="#63b8ff" d="M928.98,-275.95C935.79,-267.93 944.3,-257.92 951.5,-249.44"/>
<polygon fill="#63b8ff" stroke="#63b8ff" points="954.13,-251.74 957.94,-241.85 948.8,-247.21 954.13,-251.74"/>
</a>
</g>
</g>
<!-- Node29 -->
<g id="Node000029" class="node">
<title>Node29</title>
<g id="a_Node000029"><a xlink:title=" ">
<polygon fill="#e0e0e0" stroke="#999999" points="1043.12,-240.25 1006.12,-240.25 1006.12,-221 1043.12,-221 1043.12,-240.25"/>
<text xml:space="preserve" text-anchor="middle" x="1024.62" y="-226.75" font-family="Helvetica,sans-Serif" font-size="10.00">span</text>
</a>
</g>
</g>
<!-- Node1&#45;&gt;Node29 -->
<g id="edge40_Node000001_Node000029" class="edge">
<title>Node1&#45;&gt;Node29</title>
<g id="a_edge40_Node000001_Node000029"><a xlink:title=" ">
<path fill="none" stroke="#63b8ff" d="M943.6,-275.8C960.2,-266.74 981.4,-255.19 997.95,-246.16"/>
<polygon fill="#63b8ff" stroke="#63b8ff" points="999.63,-249.24 1006.73,-241.38 996.28,-243.09 999.63,-249.24"/>
</a>
</g>
</g>
<!-- Node30 -->
<g id="Node000030" class="node">
<title>Node30</title>
<g id="a_Node000030"><a xlink:href="SparseArray_8tpp.html" target="_top" xlink:title=" ">
<polygon fill="white" stroke="#666666" points="1146.12,-240.25 1061.12,-240.25 1061.12,-221 1146.12,-221 1146.12,-240.25"/>
<text xml:space="preserve" text-anchor="middle" x="1103.62" y="-226.75" font-family="Helvetica,sans-Serif" font-size="10.00">SparseArray.tpp</text>
</a>
</g>
</g>
<!-- Node1&#45;&gt;Node30 -->
<g id="edge41_Node000001_Node000030" class="edge">
<title>Node1&#45;&gt;Node30</title>
<g id="a_edge41_Node000001_Node000030"><a xlink:title=" ">
<path fill="none" stroke="#63b8ff" d="M963.33,-275.8C994.31,-266.04 1034.54,-253.38 1063.96,-244.11"/>
<polygon fill="#63b8ff" stroke="#63b8ff" points="1064.74,-247.54 1073.23,-241.2 1062.64,-240.86 1064.74,-247.54"/>
</a>
</g>
</g>
<!-- Node3 -->
<g id="Node000003" class="node">
<title>Node3</title>
<g id="a_Node000003"><a xlink:href="Logger_8hpp.html" target="_top" xlink:title="Logger declaration with support for multiple log levels.">
<polygon fill="white" stroke="#666666" points="480,-185 385.25,-185 385.25,-165.75 480,-165.75 480,-185"/>
<text xml:space="preserve" text-anchor="middle" x="432.62" y="-171.5" font-family="Helvetica,sans-Serif" font-size="10.00">RType/Logger.hpp</text>
</a>
</g>
</g>
<!-- Node2&#45;&gt;Node3 -->
<g id="edge2_Node000002_Node000003" class="edge">
<title>Node2&#45;&gt;Node3</title>
<g id="a_edge2_Node000002_Node000003"><a xlink:title=" ">
<path fill="none" stroke="#63b8ff" d="M432.62,-220.83C432.62,-214.32 432.62,-205.17 432.62,-196.87"/>
<polygon fill="#63b8ff" stroke="#63b8ff" points="436.13,-196.87 432.63,-186.87 429.13,-196.87 436.13,-196.87"/>
</a>
</g>
</g>
<!-- Node19 -->
<g id="Node000019" class="node">
<title>Node19</title>
<g id="a_Node000019"><a xlink:title=" ">
<polygon fill="#e0e0e0" stroke="#999999" points="366.88,-185 322.38,-185 322.38,-165.75 366.88,-165.75 366.88,-185"/>
<text xml:space="preserve" text-anchor="middle" x="344.62" y="-171.5" font-family="Helvetica,sans-Serif" font-size="10.00">cstdlib</text>
</a>
</g>
</g>
<!-- Node2&#45;&gt;Node19 -->
<g id="edge27_Node000002_Node000019" class="edge">
<title>Node2&#45;&gt;Node19</title>
<g id="a_edge27_Node000002_Node000019"><a xlink:title=" ">
<path fill="none" stroke="#63b8ff" d="M417.7,-220.59C404.42,-212.56 384.76,-200.66 369.17,-191.23"/>
<polygon fill="#63b8ff" stroke="#63b8ff" points="371.29,-188.42 360.92,-186.24 367.66,-194.41 371.29,-188.42"/>
</a>
</g>
</g>
<!-- Node4 -->
<g id="Node000004" class="node">
<title>Node4</title>
<g id="a_Node000004"><a xlink:href="LogLevel_8hpp.html" target="_top" xlink:title="Log severity levels for the logging system.">
<polygon fill="white" stroke="#666666" points="229.25,-74.5 124,-74.5 124,-55.25 229.25,-55.25 229.25,-74.5"/>
<text xml:space="preserve" text-anchor="middle" x="176.62" y="-61" font-family="Helvetica,sans-Serif" font-size="10.00">RType/LogLevel.hpp</text>
</a>
</g>
</g>
<!-- Node3&#45;&gt;Node4 -->
<g id="edge3_Node000003_Node000004" class="edge">
<title>Node3&#45;&gt;Node4</title>
<g id="a_edge3_Node000003_Node000004"><a xlink:title=" ">
<path fill="none" stroke="#63b8ff" d="M384.85,-166.24C319.82,-155 210.66,-135.46 203.62,-129.75 190.32,-118.95 183.46,-100.42 180,-86.09"/>
<polygon fill="#63b8ff" stroke="#63b8ff" points="183.45,-85.48 178.05,-76.36 176.58,-86.86 183.45,-85.48"/>
</a>
</g>
</g>
<!-- Node6 -->
<g id="Node000006" class="node">
<title>Node6</title>
<g id="a_Node000006"><a xlink:title=" ">
<polygon fill="#e0e0e0" stroke="#999999" points="495.5,-19.25 451.75,-19.25 451.75,0 495.5,0 495.5,-19.25"/>
<text xml:space="preserve" text-anchor="middle" x="473.62" y="-5.75" font-family="Helvetica,sans-Serif" font-size="10.00">format</text>
</a>
</g>
</g>
<!-- Node3&#45;&gt;Node6 -->
<g id="edge20_Node000003_Node000006" class="edge">
<title>Node3&#45;&gt;Node6</title>
<g id="a_edge20_Node000003_Node000006"><a xlink:title=" ">
<path fill="none" stroke="#63b8ff" d="M480.45,-171.09C512.76,-166.47 554.35,-155.53 581.62,-129.75 600.6,-111.81 597.11,-100.22 601.62,-74.5 603.1,-66.07 606.58,-62.22 601.62,-55.25 595.92,-47.22 542.95,-30.61 506.97,-20.08"/>
<polygon fill="#63b8ff" stroke="#63b8ff" points="508,-16.73 497.42,-17.31 506.05,-23.46 508,-16.73"/>
</a>
</g>
</g>
<!-- Node7 -->
<g id="Node000007" class="node">
<title>Node7</title>
<g id="a_Node000007"><a xlink:title=" ">
<polygon fill="#e0e0e0" stroke="#999999" points="126.38,-19.25 60.88,-19.25 60.88,0 126.38,0 126.38,-19.25"/>
<text xml:space="preserve" text-anchor="middle" x="93.62" y="-5.75" font-family="Helvetica,sans-Serif" font-size="10.00">string_view</text>
</a>
</g>
</g>
<!-- Node3&#45;&gt;Node7 -->
<g id="edge23_Node000003_Node000007" class="edge">
<title>Node3&#45;&gt;Node7</title>
<g id="a_edge23_Node000003_Node000007"><a xlink:title=" ">
<path fill="none" stroke="#63b8ff" d="M384.87,-166.82C318.11,-156.09 202.95,-136.95 184.62,-129.75 142.34,-113.13 121.94,-113.49 98.62,-74.5 90.84,-61.48 89.93,-44.2 90.78,-30.89"/>
<polygon fill="#63b8ff" stroke="#63b8ff" points="94.24,-31.44 91.81,-21.13 87.28,-30.71 94.24,-31.44"/>
</a>
</g>
</g>
<!-- Node8 -->
<g id="Node000008" class="node">
<title>Node8</title>
<g id="a_Node000008"><a xlink:title=" ">
<polygon fill="#e0e0e0" stroke="#999999" points="39.25,-19.25 0,-19.25 0,0 39.25,0 39.25,-19.25"/>
<text xml:space="preserve" text-anchor="middle" x="19.62" y="-5.75" font-family="Helvetica,sans-Serif" font-size="10.00">utility</text>
</a>
</g>
</g>
<!-- Node3&#45;&gt;Node8 -->
<g id="edge25_Node000003_Node000008" class="edge">
<title>Node3&#45;&gt;Node8</title>
<g id="a_edge25_Node000003_Node000008"><a xlink:title=" ">
<path fill="none" stroke="#63b8ff" d="M385.04,-167.16C381.86,-166.68 378.69,-166.21 375.62,-165.75 266.77,-149.52 230.71,-175.53 130.62,-129.75 83.88,-108.37 47.53,-57.25 30.4,-29.43"/>
<polygon fill="#63b8ff" stroke="#63b8ff" points="33.51,-27.81 25.39,-21.01 27.49,-31.39 33.51,-27.81"/>
</a>
</g>
</g>
<!-- Node10 -->
<g id="Node000010" class="node">
<title>Node10</title>
<g id="a_Node000010"><a xlink:href="Error_8hpp.html" target="_top" xlink:title="Error handling system with categorized error codes.">
<polygon fill="white" stroke="#666666" points="298.88,-129.75 212.38,-129.75 212.38,-110.5 298.88,-110.5 298.88,-129.75"/>
<text xml:space="preserve" text-anchor="middle" x="255.62" y="-116.25" font-family="Helvetica,sans-Serif" font-size="10.00">RType/Error.hpp</text>
</a>
</g>
</g>
<!-- Node3&#45;&gt;Node10 -->
<g id="edge9_Node000003_Node000010" class="edge">
<title>Node3&#45;&gt;Node10</title>
<g id="a_edge9_Node000003_Node000010"><a xlink:title=" ">
<path fill="none" stroke="#63b8ff" d="M402.6,-165.34C373.48,-156.58 329.09,-143.23 296.71,-133.48"/>
<polygon fill="#63b8ff" stroke="#63b8ff" points="297.83,-130.17 287.25,-130.64 295.81,-136.87 297.83,-130.17"/>
</a>
</g>
</g>
<!-- Node11 -->
<g id="Node000011" class="node">
<title>Node11</title>
<g id="a_Node000011"><a xlink:title=" ">
<polygon fill="#e0e0e0" stroke="#999999" points="592.62,-74.5 552.62,-74.5 552.62,-55.25 592.62,-55.25 592.62,-74.5"/>
<text xml:space="preserve" text-anchor="middle" x="572.62" y="-61" font-family="Helvetica,sans-Serif" font-size="10.00">string</text>
</a>
</g>
</g>
<!-- Node3&#45;&gt;Node11 -->
<g id="edge22_Node000003_Node000011" class="edge">
<title>Node3&#45;&gt;Node11</title>
<g id="a_edge22_Node000003_Node000011"><a xlink:title=" ">
<path fill="none" stroke="#63b8ff" d="M480.18,-170.42C508.69,-165.45 543.25,-154.37 563.62,-129.75 573.57,-117.73 575.36,-99.87 574.92,-86.09"/>
<polygon fill="#63b8ff" stroke="#63b8ff" points="578.43,-86.08 574.18,-76.37 571.45,-86.61 578.43,-86.08"/>
</a>
</g>
</g>
<!-- Node15 -->
<g id="Node000015" class="node">
<title>Node15</title>
<g id="a_Node000015"><a xlink:title=" ">
<polygon fill="#e0e0e0" stroke="#999999" points="372.5,-129.75 316.75,-129.75 316.75,-110.5 372.5,-110.5 372.5,-129.75"/>
<text xml:space="preserve" text-anchor="middle" x="344.62" y="-116.25" font-family="Helvetica,sans-Serif" font-size="10.00">expected</text>
</a>
</g>
</g>
<!-- Node3&#45;&gt;Node15 -->
<g id="edge19_Node000003_Node000015" class="edge">
<title>Node3&#45;&gt;Node15</title>
<g id="a_edge19_Node000003_Node000015"><a xlink:title=" ">
<path fill="none" stroke="#63b8ff" d="M417.7,-165.34C404.42,-157.31 384.76,-145.41 369.17,-135.98"/>
<polygon fill="#63b8ff" stroke="#63b8ff" points="371.29,-133.17 360.92,-130.99 367.66,-139.16 371.29,-133.17"/>
</a>
</g>
</g>
<!-- Node16 -->
<g id="Node000016" class="node">
<title>Node16</title>
<g id="a_Node000016"><a xlink:title=" ">
<polygon fill="#e0e0e0" stroke="#999999" points="474.75,-129.75 390.5,-129.75 390.5,-110.5 474.75,-110.5 474.75,-129.75"/>
<text xml:space="preserve" text-anchor="middle" x="432.62" y="-116.25" font-family="Helvetica,sans-Serif" font-size="10.00">source_location</text>
</a>
</g>
</g>
<!-- Node3&#45;&gt;Node16 -->
<g id="edge21_Node000003_Node000016" class="edge">
<title>Node3&#45;&gt;Node16</title>
<g id="a_edge21_Node000003_Node000016"><a xlink:title=" ">
<path fill="none" stroke="#63b8ff" d="M432.62,-165.58C432.62,-159.07 432.62,-149.92 432.62,-141.62"/>
<polygon fill="#63b8ff" stroke="#63b8ff" points="436.13,-141.62 432.63,-131.62 429.13,-141.62 436.13,-141.62"/>
</a>
</g>
</g>
<!-- Node17 -->
<g id="Node000017" class="node">
<title>Node17</title>
<g id="a_Node000017"><a xlink:title=" ">
<polygon fill="#e0e0e0" stroke="#999999" points="710.5,-129.75 648.75,-129.75 648.75,-110.5 710.5,-110.5 710.5,-129.75"/>
<text xml:space="preserve" text-anchor="middle" x="679.62" y="-116.25" font-family="Helvetica,sans-Serif" font-size="10.00">type_traits</text>
</a>
</g>
</g>
<!-- Node3&#45;&gt;Node17 -->
<g id="edge24_Node000003_Node000017" class="edge">
<title>Node3&#45;&gt;Node17</title>
<g id="a_edge24_Node000003_Node000017"><a xlink:title=" ">
<path fill="none" stroke="#63b8ff" d="M474.81,-165.28C520.18,-155.5 591.93,-140.03 637.34,-130.24"/>
<polygon fill="#63b8ff" stroke="#63b8ff" points="638.05,-133.67 647.09,-128.14 636.58,-126.83 638.05,-133.67"/>
</a>
</g>
</g>
<!-- Node18 -->
<g id="Node000018" class="node">
<title>Node18</title>
<g id="a_Node000018"><a xlink:href="Logger_8tpp.html" target="_top" xlink:title=" ">
<polygon fill="white" stroke="#666666" points="554.12,-129.75 493.12,-129.75 493.12,-110.5 554.12,-110.5 554.12,-129.75"/>
<text xml:space="preserve" text-anchor="middle" x="523.62" y="-116.25" font-family="Helvetica,sans-Serif" font-size="10.00">Logger.tpp</text>
</a>
</g>
</g>
<!-- Node3&#45;&gt;Node18 -->
<g id="edge26_Node000003_Node000018" class="edge">
<title>Node3&#45;&gt;Node18</title>
<g id="a_edge26_Node000003_Node000018"><a xlink:title=" ">
<path fill="none" stroke="#63b8ff" d="M448.06,-165.34C461.79,-157.31 482.12,-145.41 498.24,-135.98"/>
<polygon fill="#63b8ff" stroke="#63b8ff" points="499.94,-139.04 506.81,-130.97 496.41,-133 499.94,-139.04"/>
</a>
</g>
</g>
<!-- Node5 -->
<g id="Node000005" class="node">
<title>Node5</title>
<g id="a_Node000005"><a xlink:title=" ">
<polygon fill="#e0e0e0" stroke="#999999" points="559.25,-19.25 514,-19.25 514,0 559.25,0 559.25,-19.25"/>
<text xml:space="preserve" text-anchor="middle" x="536.62" y="-5.75" font-family="Helvetica,sans-Serif" font-size="10.00">cstdint</text>
</a>
</g>
</g>
<!-- Node4&#45;&gt;Node5 -->
<g id="edge4_Node000004_Node000005" class="edge">
<title>Node4&#45;&gt;Node5</title>
<g id="a_edge4_Node000004_Node000005"><a xlink:title=" ">
<path fill="none" stroke="#63b8ff" d="M229.72,-56.48C232.73,-56.06 235.72,-55.65 238.62,-55.25 353.24,-39.52 385.73,-42.61 502.45,-19.45"/>
<polygon fill="#63b8ff" stroke="#63b8ff" points="503.04,-22.9 512.15,-17.5 501.66,-16.04 503.04,-22.9"/>
</a>
</g>
</g>
<!-- Node4&#45;&gt;Node6 -->
<g id="edge5_Node000004_Node000006" class="edge">
<title>Node4&#45;&gt;Node6</title>
<g id="a_edge5_Node000004_Node000006"><a xlink:title=" ">
<path fill="none" stroke="#63b8ff" d="M227.34,-54.78C288.21,-43.87 388.53,-25.88 440.35,-16.59"/>
<polygon fill="#63b8ff" stroke="#63b8ff" points="440.82,-20.06 450.04,-14.85 439.58,-13.17 440.82,-20.06"/>
</a>
</g>
</g>
<!-- Node4&#45;&gt;Node7 -->
<g id="edge6_Node000004_Node000007" class="edge">
<title>Node4&#45;&gt;Node7</title>
<g id="a_edge6_Node000004_Node000007"><a xlink:title=" ">
<path fill="none" stroke="#63b8ff" d="M162.55,-54.84C150.14,-46.89 131.83,-35.14 117.2,-25.75"/>
<polygon fill="#63b8ff" stroke="#63b8ff" points="119.35,-22.97 109.05,-20.52 115.57,-28.87 119.35,-22.97"/>
</a>
</g>
</g>
<!-- Node4&#45;&gt;Node8 -->
<g id="edge7_Node000004_Node000008" class="edge">
<title>Node4&#45;&gt;Node8</title>
<g id="a_edge7_Node000004_Node000008"><a xlink:title=" ">
<path fill="none" stroke="#63b8ff" d="M149.99,-54.84C122.34,-45.46 79.15,-30.82 50.15,-20.98"/>
<polygon fill="#63b8ff" stroke="#63b8ff" points="51.44,-17.72 40.85,-17.82 49.19,-24.35 51.44,-17.72"/>
</a>
</g>
</g>
<!-- Node9 -->
<g id="Node000009" class="node">
<title>Node9</title>
<g id="a_Node000009"><a xlink:title=" ">
<polygon fill="#e0e0e0" stroke="#999999" points="212.5,-19.25 144.75,-19.25 144.75,0 212.5,0 212.5,-19.25"/>
<text xml:space="preserve" text-anchor="middle" x="178.62" y="-5.75" font-family="Helvetica,sans-Serif" font-size="10.00">LogLevel.inl</text>
</a>
</g>
</g>
<!-- Node4&#45;&gt;Node9 -->
<g id="edge8_Node000004_Node000009" class="edge">
<title>Node4&#45;&gt;Node9</title>
<g id="a_edge8_Node000004_Node000009"><a xlink:title=" ">
<path fill="none" stroke="#63b8ff" d="M176.96,-55.08C177.2,-48.49 177.55,-39.21 177.87,-30.82"/>
<polygon fill="#63b8ff" stroke="#63b8ff" points="181.35,-31.25 178.23,-21.12 174.36,-30.98 181.35,-31.25"/>
</a>
</g>
</g>
<!-- Node10&#45;&gt;Node4 -->
<g id="edge10_Node000010_Node000004" class="edge">
<title>Node10&#45;&gt;Node4</title>
<g id="a_edge10_Node000010_Node000004"><a xlink:title=" ">
<path fill="none" stroke="#63b8ff" d="M242.22,-110.09C230.53,-102.21 213.32,-90.61 199.46,-81.27"/>
<polygon fill="#63b8ff" stroke="#63b8ff" points="201.6,-78.49 191.35,-75.8 197.68,-84.29 201.6,-78.49"/>
</a>
</g>
</g>
<!-- Node10&#45;&gt;Node5 -->
<g id="edge11_Node000010_Node000005" class="edge">
<title>Node10&#45;&gt;Node5</title>
<g id="a_edge11_Node000010_Node000005"><a xlink:title=" ">
<path fill="none" stroke="#63b8ff" d="M299.12,-111.48C363.56,-100.05 477.67,-79.32 485.62,-74.5 503.6,-63.62 517.84,-43.96 526.66,-29.31"/>
<polygon fill="#63b8ff" stroke="#63b8ff" points="529.46,-31.47 531.35,-21.05 523.37,-28.02 529.46,-31.47"/>
</a>
</g>
</g>
<!-- Node10&#45;&gt;Node6 -->
<g id="edge12_Node000010_Node000006" class="edge">
<title>Node10&#45;&gt;Node6</title>
<g id="a_edge12_Node000010_Node000006"><a xlink:title=" ">
<path fill="none" stroke="#63b8ff" d="M299.35,-111.28C359.75,-100.26 462,-80.81 467.62,-74.5 478.07,-62.79 478.84,-44.63 477.41,-30.66"/>
<polygon fill="#63b8ff" stroke="#63b8ff" points="480.88,-30.18 475.93,-20.81 473.96,-31.22 480.88,-30.18"/>
</a>
</g>
</g>
<!-- Node10&#45;&gt;Node7 -->
<g id="edge14_Node000010_Node000007" class="edge">
<title>Node10&#45;&gt;Node7</title>
<g id="a_edge14_Node000010_Node000007"><a xlink:title=" ">
<path fill="none" stroke="#63b8ff" d="M212.07,-115.71C181.1,-111.06 140.55,-100.14 114.62,-74.5 102.93,-62.94 97.75,-44.76 95.45,-30.74"/>
<polygon fill="#63b8ff" stroke="#63b8ff" points="98.93,-30.36 94.23,-20.86 91.98,-31.21 98.93,-30.36"/>
</a>
</g>
</g>
<!-- Node10&#45;&gt;Node8 -->
<g id="edge16_Node000010_Node000008" class="edge">
<title>Node10&#45;&gt;Node8</title>
<g id="a_edge16_Node000010_Node000008"><a xlink:title=" ">
<path fill="none" stroke="#63b8ff" d="M211.89,-111.62C179.37,-104.89 134.6,-93.16 98.62,-74.5 74.54,-62.01 50.88,-41.47 35.83,-27.06"/>
<polygon fill="#63b8ff" stroke="#63b8ff" points="38.69,-24.97 29.1,-20.46 33.78,-29.96 38.69,-24.97"/>
</a>
</g>
</g>
<!-- Node10&#45;&gt;Node11 -->
<g id="edge13_Node000010_Node000011" class="edge">
<title>Node10&#45;&gt;Node11</title>
<g id="a_edge13_Node000010_Node000011"><a xlink:title=" ">
<path fill="none" stroke="#63b8ff" d="M299.31,-111.85C302.13,-111.39 304.91,-110.94 307.62,-110.5 410.21,-94 436.82,-95.3 538.62,-74.5 539.45,-74.33 540.29,-74.15 541.14,-73.97"/>
<polygon fill="#63b8ff" stroke="#63b8ff" points="541.79,-77.42 550.73,-71.73 540.19,-70.6 541.79,-77.42"/>
</a>
</g>
</g>
<!-- Node12 -->
<g id="Node000012" class="node">
<title>Node12</title>
<g id="a_Node000012"><a xlink:title=" ">
<polygon fill="#e0e0e0" stroke="#999999" points="391.12,-74.5 318.12,-74.5 318.12,-55.25 391.12,-55.25 391.12,-74.5"/>
<text xml:space="preserve" text-anchor="middle" x="354.62" y="-61" font-family="Helvetica,sans-Serif" font-size="10.00">system_error</text>
</a>
</g>
</g>
<!-- Node10&#45;&gt;Node12 -->
<g id="edge15_Node000010_Node000012" class="edge">
<title>Node10&#45;&gt;Node12</title>
<g id="a_edge15_Node000010_Node000012"><a xlink:title=" ">
<path fill="none" stroke="#63b8ff" d="M272.42,-110.09C287.64,-101.91 310.32,-89.71 328.01,-80.19"/>
<polygon fill="#63b8ff" stroke="#63b8ff" points="329.27,-83.49 336.42,-75.67 325.95,-77.32 329.27,-83.49"/>
</a>
</g>
</g>
<!-- Node13 -->
<g id="Node000013" class="node">
<title>Node13</title>
<g id="a_Node000013"><a xlink:title=" ">
<polygon fill="#e0e0e0" stroke="#999999" points="458.12,-74.5 409.12,-74.5 409.12,-55.25 458.12,-55.25 458.12,-74.5"/>
<text xml:space="preserve" text-anchor="middle" x="433.62" y="-61" font-family="Helvetica,sans-Serif" font-size="10.00">Error.inl</text>
</a>
</g>
</g>
<!-- Node10&#45;&gt;Node13 -->
<g id="edge17_Node000010_Node000013" class="edge">
<title>Node10&#45;&gt;Node13</title>
<g id="a_edge17_Node000010_Node000013"><a xlink:title=" ">
<path fill="none" stroke="#63b8ff" d="M285.82,-110.09C316.79,-100.83 364.94,-86.42 397.81,-76.59"/>
<polygon fill="#63b8ff" stroke="#63b8ff" points="398.72,-79.97 407.3,-73.75 396.71,-73.26 398.72,-79.97"/>
</a>
</g>
</g>
<!-- Node14 -->
<g id="Node000014" class="node">
<title>Node14</title>
<g id="a_Node000014"><a xlink:href="Error_8tpp.html" target="_top" xlink:title=" ">
<polygon fill="white" stroke="#666666" points="300,-74.5 247.25,-74.5 247.25,-55.25 300,-55.25 300,-74.5"/>
<text xml:space="preserve" text-anchor="middle" x="273.62" y="-61" font-family="Helvetica,sans-Serif" font-size="10.00">Error.tpp</text>
</a>
</g>
</g>
<!-- Node10&#45;&gt;Node14 -->
<g id="edge18_Node000010_Node000014" class="edge">
<title>Node10&#45;&gt;Node14</title>
<g id="a_edge18_Node000010_Node000014"><a xlink:title=" ">
<path fill="none" stroke="#63b8ff" d="M258.6,-110.33C260.88,-103.59 264.11,-94.02 266.99,-85.49"/>
<polygon fill="#63b8ff" stroke="#63b8ff" points="270.22,-86.89 270.1,-76.29 263.59,-84.65 270.22,-86.89"/>
</a>
</g>
</g>
<!-- Node20&#45;&gt;Node17 -->
<g id="edge30_Node000020_Node000017" class="edge">
<title>Node20&#45;&gt;Node17</title>
<g id="a_edge30_Node000020_Node000017"><a xlink:title=" ">
<path fill="none" stroke="#63b8ff" d="M637.81,-220.72C645.28,-212.15 656.11,-198.55 662.62,-185 669.34,-171.05 673.69,-154.07 676.32,-141.12"/>
<polygon fill="#63b8ff" stroke="#63b8ff" points="679.69,-142.13 678.05,-131.66 672.8,-140.87 679.69,-142.13"/>
</a>
</g>
</g>
<!-- Node21 -->
<g id="Node000021" class="node">
<title>Node21</title>
<g id="a_Node000021"><a xlink:title=" ">
<polygon fill="#e0e0e0" stroke="#999999" points="653.5,-185 597.75,-185 597.75,-165.75 653.5,-165.75 653.5,-185"/>
<text xml:space="preserve" text-anchor="middle" x="625.62" y="-171.5" font-family="Helvetica,sans-Serif" font-size="10.00">concepts</text>
</a>
</g>
</g>
<!-- Node20&#45;&gt;Node21 -->
<g id="edge29_Node000020_Node000021" class="edge">
<title>Node20&#45;&gt;Node21</title>
<g id="a_edge29_Node000020_Node000021"><a xlink:title=" ">
<path fill="none" stroke="#63b8ff" d="M628.96,-220.83C628.47,-214.24 627.77,-204.96 627.14,-196.57"/>
<polygon fill="#63b8ff" stroke="#63b8ff" points="630.65,-196.58 626.41,-186.87 623.67,-197.1 630.65,-196.58"/>
</a>
</g>
</g>
<!-- Node22 -->
<g id="Node000022" class="node">
<title>Node22</title>
<g id="a_Node000022"><a xlink:title=" ">
<polygon fill="#e0e0e0" stroke="#999999" points="579.75,-185 531.5,-185 531.5,-165.75 579.75,-165.75 579.75,-185"/>
<text xml:space="preserve" text-anchor="middle" x="555.62" y="-171.5" font-family="Helvetica,sans-Serif" font-size="10.00">cstddef</text>
</a>
</g>
</g>
<!-- Node20&#45;&gt;Node22 -->
<g id="edge31_Node000020_Node000022" class="edge">
<title>Node20&#45;&gt;Node22</title>
<g id="a_edge31_Node000020_Node000022"><a xlink:title=" ">
<path fill="none" stroke="#63b8ff" d="M617.07,-220.59C606.16,-212.74 590.12,-201.2 577.16,-191.87"/>
<polygon fill="#63b8ff" stroke="#63b8ff" points="579.38,-189.16 569.22,-186.16 575.29,-194.84 579.38,-189.16"/>
</a>
</g>
</g>
<!-- Node23&#45;&gt;Node5 -->
<g id="edge34_Node000023_Node000005" class="edge">
<title>Node23&#45;&gt;Node5</title>
<g id="a_edge34_Node000023_Node000005"><a xlink:title=" ">
<path fill="none" stroke="#63b8ff" d="M809.98,-220.55C793.92,-212.95 772.35,-200.81 757.62,-185 732.29,-157.8 745.54,-137.15 719.62,-110.5 676.82,-66.48 610.38,-36.94 570.43,-22.02"/>
<polygon fill="#63b8ff" stroke="#63b8ff" points="571.68,-18.75 561.09,-18.63 569.29,-25.33 571.68,-18.75"/>
</a>
</g>
</g>
<!-- Node24 -->
<g id="Node000024" class="node">
<title>Node24</title>
<g id="a_Node000024"><a xlink:title=" ">
<polygon fill="#e0e0e0" stroke="#999999" points="966.38,-185 912.88,-185 912.88,-165.75 966.38,-165.75 966.38,-185"/>
<text xml:space="preserve" text-anchor="middle" x="939.62" y="-171.5" font-family="Helvetica,sans-Serif" font-size="10.00">compare</text>
</a>
</g>
</g>
<!-- Node23&#45;&gt;Node24 -->
<g id="edge33_Node000023_Node000024" class="edge">
<title>Node23&#45;&gt;Node24</title>
<g id="a_edge33_Node000023_Node000024"><a xlink:title=" ">
<path fill="none" stroke="#63b8ff" d="M849.95,-220.59C866.7,-212.33 891.76,-199.98 911.13,-190.43"/>
<polygon fill="#63b8ff" stroke="#63b8ff" points="912.44,-193.68 919.86,-186.12 909.34,-187.4 912.44,-193.68"/>
</a>
</g>
</g>
<!-- Node23&#45;&gt;Node25 -->
<g id="edge35_Node000023_Node000025" class="edge">
<title>Node23&#45;&gt;Node25</title>
<g id="a_edge35_Node000023_Node000025"><a xlink:title=" ">
<path fill="none" stroke="#63b8ff" d="M860.8,-220.59C892.04,-210.92 941.4,-195.64 973.14,-185.81"/>
<polygon fill="#63b8ff" stroke="#63b8ff" points="974,-189.21 982.52,-182.91 971.93,-182.52 974,-189.21"/>
</a>
</g>
</g>
<!-- Node26 -->
<g id="Node000026" class="node">
<title>Node26</title>
<g id="a_Node000026"><a xlink:title=" ">
<polygon fill="#e0e0e0" stroke="#999999" points="824.62,-185 766.62,-185 766.62,-165.75 824.62,-165.75 824.62,-185"/>
<text xml:space="preserve" text-anchor="middle" x="795.62" y="-171.5" font-family="Helvetica,sans-Serif" font-size="10.00">functional</text>
</a>
</g>
</g>
<!-- Node23&#45;&gt;Node26 -->
<g id="edge36_Node000023_Node000026" class="edge">
<title>Node23&#45;&gt;Node26</title>
<g id="a_edge36_Node000023_Node000026"><a xlink:title=" ">
<path fill="none" stroke="#63b8ff" d="M825.68,-220.83C820.91,-213.78 814.06,-203.65 808.1,-194.83"/>
<polygon fill="#63b8ff" stroke="#63b8ff" points="811.05,-192.94 802.55,-186.61 805.25,-196.86 811.05,-192.94"/>
</a>
</g>
</g>
<!-- Node27 -->
<g id="Node000027" class="node">
<title>Node27</title>
<g id="a_Node000027"><a xlink:title=" ">
<polygon fill="#e0e0e0" stroke="#999999" points="895,-185 842.25,-185 842.25,-165.75 895,-165.75 895,-185"/>
<text xml:space="preserve" text-anchor="middle" x="868.62" y="-171.5" font-family="Helvetica,sans-Serif" font-size="10.00">Entity.inl</text>
</a>
</g>
</g>
<!-- Node23&#45;&gt;Node27 -->
<g id="edge37_Node000023_Node000027" class="edge">
<title>Node23&#45;&gt;Node27</title>
<g id="a_edge37_Node000023_Node000027"><a xlink:title=" ">
<path fill="none" stroke="#63b8ff" d="M837.73,-220.83C842.69,-213.71 849.83,-203.43 856,-194.55"/>
<polygon fill="#63b8ff" stroke="#63b8ff" points="858.69,-196.81 861.52,-186.6 852.94,-192.82 858.69,-196.81"/>
</a>
</g>
</g>
</g>
</svg>

<g id="navigator" transform="translate(0 0)" fill="#404254">
  <rect fill="#f2f5e9" fill-opacity="0.5" stroke="#606060" stroke-width=".5" x="0" y="0" width="60" height="60"/>
  <use id="zoomplus" xlink:href="#zoomPlus" x="17" y="9" onmousedown="handleZoom(evt,'in')"/>
  <use id="zoomminus" xlink:href="#zoomMin" x="42" y="9" onmousedown="handleZoom(evt,'out')"/>
  <use id="reset" xlink:href="#resetDef" x="30" y="36" onmousedown="handleReset()"/>
   <use id="arrowup" xlink:href="#arrowUp" x="0" y="0" onmousedown="handlePan(0,-1)"/>
  <use id="arrowright" xlink:href="#arrowRight" x="0" y="0" onmousedown="handlePan(1,0)"/>
  <use id="arrowdown" xlink:href="#arrowDown" x="0" y="0" onmousedown="handlePan(0,1)"/>
  <use id="arrowleft" xlink:href="#arrowLeft" x="0" y="0" onmousedown="handlePan(-1,0)"/>
</g>
<svg viewBox="0 0 15 15" width="100%" height="30px" preserveAspectRatio="xMaxYMin meet">
 <g id="arrow_out" transform="scale(0.3 0.3)">
  <a xlink:href="SparseArray_8hpp__incl_org.svg" target="_base">
   <rect id="button" ry="5" rx="5" y="6" x="6" height="38" width="38"
        fill="#f2f5e9" fill-opacity="0.5" stroke="#606060" stroke-width="1.0"/>
   <path id="arrow"
     d="M 11.500037,31.436501 C 11.940474,20.09759 22.043105,11.32322 32.158766,21.979434 L 37.068811,17.246167 C 37.068811,17.246167 37.088388,32 37.088388,32 L 22.160133,31.978069 C 22.160133,31.978069 26.997745,27.140456 26.997745,27.140456 C 18.528582,18.264221 13.291696,25.230495 11.500037,31.436501 z"
     style="fill:#404040;"/>
  </a>
 </g>
</svg>

<style type='text/css'>
<![CDATA[
[data-mouse-over-selected='false'] { opacity: 0.7; }
[data-mouse-over-selected='true']  { opacity: 1.0; }
]]>
</style>
<script type="application/ecmascript"><![CDATA[
document.addEventListener('DOMContentLoaded', (event) => {
  highlightEdges();
  highlightAdjacentNodes();
});
]]></script>
</svg>
