<?xml version="1.0" encoding="UTF-8" standalone="no"?>
<!DOCTYPE svg PUBLIC "-//W3C//DTD SVG 1.1//EN"
 "http://www.w3.org/Graphics/SVG/1.1/DTD/svg11.dtd">
<!-- Generated by graphviz version 14.0.5 (20251129.0259)
 -->
<!-- Title: common/include/RType/Config/SpriteMapConfig.hpp Pages: 1 -->
<svg width="348pt" height="149pt"
 viewBox="0.00 0.00 348.00 149.00" xmlns="http://www.w3.org/2000/svg" xmlns:xlink="http://www.w3.org/1999/xlink">
<g id="graph0" class="graph" transform="scale(1 1) rotate(0) translate(4 145)">
<title>common/include/RType/Config/SpriteMapConfig.hpp</title>
<!-- Node1 -->
<g id="Node000001" class="node">
<title>Node1</title>
<g id="a_Node000001"><a xlink:title=" ">
<polygon fill="#999999" stroke="#666666" points="252,-141 110,-141 110,-110.5 252,-110.5 252,-141"/>
<text xml:space="preserve" text-anchor="start" x="118" y="-127.5" font-family="Helvetica,sans-Serif" font-size="10.00">common/include/RType</text>
<text xml:space="preserve" text-anchor="middle" x="181" y="-116.25" font-family="Helvetica,sans-Serif" font-size="10.00">/Config/SpriteMapConfig.hpp</text>
</a>
</g>
</g>
<!-- Node2 -->
<g id="Node000002" class="node">
<title>Node2</title>
<g id="a_Node000002"><a xlink:href="SimpleJsonParser_8hpp.html" target="_top" xlink:title=" ">
<polygon fill="white" stroke="#666666" points="237.75,-74.5 124.25,-74.5 124.25,-55.25 237.75,-55.25 237.75,-74.5"/>
<text xml:space="preserve" text-anchor="middle" x="181" y="-61" font-family="Helvetica,sans-Serif" font-size="10.00">SimpleJsonParser.hpp</text>
</a>
</g>
</g>
<!-- Node1&#45;&gt;Node2 -->
<g id="edge1_Node000001_Node000002" class="edge">
<title>Node1&#45;&gt;Node2</title>
<g id="a_edge1_Node000001_Node000002"><a xlink:title=" ">
<path fill="none" stroke="#63b8ff" d="M181,-110.2C181,-102.96 181,-94.09 181,-86.19"/>
<polygon fill="#63b8ff" stroke="#63b8ff" points="184.5,-86.46 181,-76.46 177.5,-86.46 184.5,-86.46"/>
</a>
</g>
</g>
<!-- Node3 -->
<g id="Node000003" class="node">
<title>Node3</title>
<g id="a_Node000003"><a xlink:title=" ">
<polygon fill="#e0e0e0" stroke="#999999" points="40,-19.25 0,-19.25 0,0 40,0 40,-19.25"/>
<text xml:space="preserve" text-anchor="middle" x="20" y="-5.75" font-family="Helvetica,sans-Serif" font-size="10.00">string</text>
</a>
</g>
</g>
<!-- Node1&#45;&gt;Node3 -->
<g id="edge8_Node000001_Node000003" class="edge">
<title>Node1&#45;&gt;Node3</title>
<g id="a_edge8_Node000001_Node000003"><a xlink:title=" ">
<path fill="none" stroke="#63b8ff" d="M157.11,-110.08C141.49,-100.32 120.77,-87.03 103,-74.5 80.89,-58.91 56.44,-39.86 39.84,-26.65"/>
<polygon fill="#63b8ff" stroke="#63b8ff" points="42.23,-24.07 32.23,-20.55 37.85,-29.54 42.23,-24.07"/>
</a>
</g>
</g>
<!-- Node4 -->
<g id="Node000004" class="node">
<title>Node4</title>
<g id="a_Node000004"><a xlink:title=" ">
<polygon fill="#e0e0e0" stroke="#999999" points="140.38,-19.25 57.62,-19.25 57.62,0 140.38,0 140.38,-19.25"/>
<text xml:space="preserve" text-anchor="middle" x="99" y="-5.75" font-family="Helvetica,sans-Serif" font-size="10.00">unordered_map</text>
</a>
</g>
</g>
<!-- Node1&#45;&gt;Node4 -->
<g id="edge7_Node000001_Node000004" class="edge">
<title>Node1&#45;&gt;Node4</title>
<g id="a_edge7_Node000001_Node000004"><a xlink:title=" ">
<path fill="none" stroke="#63b8ff" d="M153.96,-110.13C140.37,-101.47 124.75,-89.29 115,-74.5 106.42,-61.48 102.44,-44.2 100.59,-30.9"/>
<polygon fill="#63b8ff" stroke="#63b8ff" points="104.09,-30.71 99.56,-21.13 97.13,-31.45 104.09,-30.71"/>
</a>
</g>
</g>
<!-- Node5 -->
<g id="Node000005" class="node">
<title>Node5</title>
<g id="a_Node000005"><a xlink:title=" ">
<polygon fill="#e0e0e0" stroke="#999999" points="270.5,-19.25 221.5,-19.25 221.5,0 270.5,0 270.5,-19.25"/>
<text xml:space="preserve" text-anchor="middle" x="246" y="-5.75" font-family="Helvetica,sans-Serif" font-size="10.00">fstream</text>
</a>
</g>
</g>
<!-- Node1&#45;&gt;Node5 -->
<g id="edge9_Node000001_Node000005" class="edge">
<title>Node1&#45;&gt;Node5</title>
<g id="a_edge9_Node000001_Node000005"><a xlink:title=" ">
<path fill="none" stroke="#63b8ff" d="M210.94,-110.17C224.6,-101.79 239.39,-89.86 247,-74.5 253.72,-60.94 252.99,-43.7 250.85,-30.55"/>
<polygon fill="#63b8ff" stroke="#63b8ff" points="254.31,-30.01 248.86,-20.92 247.46,-31.43 254.31,-30.01"/>
</a>
</g>
</g>
<!-- Node6 -->
<g id="Node000006" class="node">
<title>Node6</title>
<g id="a_Node000006"><a xlink:title=" ">
<polygon fill="#e0e0e0" stroke="#999999" points="339.62,-19.25 288.38,-19.25 288.38,0 339.62,0 339.62,-19.25"/>
<text xml:space="preserve" text-anchor="middle" x="314" y="-5.75" font-family="Helvetica,sans-Serif" font-size="10.00">sstream</text>
</a>
</g>
</g>
<!-- Node1&#45;&gt;Node6 -->
<g id="edge10_Node000001_Node000006" class="edge">
<title>Node1&#45;&gt;Node6</title>
<g id="a_edge10_Node000001_Node000006"><a xlink:title=" ">
<path fill="none" stroke="#63b8ff" d="M210.37,-110.02C226.8,-101.01 247.11,-88.54 263,-74.5 278.26,-61.03 292.43,-42.6 301.94,-29"/>
<polygon fill="#63b8ff" stroke="#63b8ff" points="304.68,-31.19 307.4,-20.95 298.89,-27.26 304.68,-31.19"/>
</a>
</g>
</g>
<!-- Node2&#45;&gt;Node3 -->
<g id="edge2_Node000002_Node000003" class="edge">
<title>Node2&#45;&gt;Node3</title>
<g id="a_edge2_Node000002_Node000003"><a xlink:title=" ">
<path fill="none" stroke="#63b8ff" d="M153.69,-54.84C125.21,-45.42 80.65,-30.69 50.9,-20.85"/>
<polygon fill="#63b8ff" stroke="#63b8ff" points="52.32,-17.63 41.73,-17.81 50.12,-24.27 52.32,-17.63"/>
</a>
</g>
</g>
<!-- Node2&#45;&gt;Node4 -->
<g id="edge3_Node000002_Node000004" class="edge">
<title>Node2&#45;&gt;Node4</title>
<g id="a_edge3_Node000002_Node000004"><a xlink:title=" ">
<path fill="none" stroke="#63b8ff" d="M167.09,-54.84C154.84,-46.89 136.75,-35.14 122.29,-25.75"/>
<polygon fill="#63b8ff" stroke="#63b8ff" points="124.54,-23.04 114.25,-20.53 120.73,-28.91 124.54,-23.04"/>
</a>
</g>
</g>
<!-- Node2&#45;&gt;Node5 -->
<g id="edge4_Node000002_Node000005" class="edge">
<title>Node2&#45;&gt;Node5</title>
<g id="a_edge4_Node000002_Node000005"><a xlink:title=" ">
<path fill="none" stroke="#63b8ff" d="M192.03,-54.84C201.42,-47.15 215.15,-35.9 226.41,-26.68"/>
<polygon fill="#63b8ff" stroke="#63b8ff" points="228.45,-29.53 233.97,-20.48 224.01,-24.11 228.45,-29.53"/>
</a>
</g>
</g>
<!-- Node2&#45;&gt;Node6 -->
<g id="edge5_Node000002_Node000006" class="edge">
<title>Node2&#45;&gt;Node6</title>
<g id="a_edge5_Node000002_Node000006"><a xlink:title=" ">
<path fill="none" stroke="#63b8ff" d="M203.56,-54.84C224.77,-46.35 256.77,-33.54 280.88,-23.89"/>
<polygon fill="#63b8ff" stroke="#63b8ff" points="281.94,-27.23 289.92,-20.27 279.34,-20.73 281.94,-27.23"/>
</a>
</g>
</g>
<!-- Node7 -->
<g id="Node000007" class="node">
<title>Node7</title>
<g id="a_Node000007"><a xlink:title=" ">
<polygon fill="#e0e0e0" stroke="#999999" points="203.62,-19.25 158.38,-19.25 158.38,0 203.62,0 203.62,-19.25"/>
<text xml:space="preserve" text-anchor="middle" x="181" y="-5.75" font-family="Helvetica,sans-Serif" font-size="10.00">cctype</text>
</a>
</g>
</g>
<!-- Node2&#45;&gt;Node7 -->
<g id="edge6_Node000002_Node000007" class="edge">
<title>Node2&#45;&gt;Node7</title>
<g id="a_edge6_Node000002_Node000007"><a xlink:title=" ">
<path fill="none" stroke="#63b8ff" d="M181,-55.08C181,-48.57 181,-39.42 181,-31.12"/>
<polygon fill="#63b8ff" stroke="#63b8ff" points="184.5,-31.12 181,-21.12 177.5,-31.12 184.5,-31.12"/>
</a>
</g>
</g>
</g>
</svg>
