<?xml version="1.0" encoding="UTF-8" standalone="no"?>
<!DOCTYPE svg PUBLIC "-//W3C//DTD SVG 1.1//EN"
 "http://www.w3.org/Graphics/SVG/1.1/DTD/svg11.dtd">
<!-- Generated by graphviz version 14.0.5 (20251129.0259)
 -->
<!-- Title: client/include/Game/SpriteCustomizer.hpp Pages: 1 -->
<svg width="1009pt" height="105pt"
 viewBox="0.00 0.00 1009.00 105.00" xmlns="http://www.w3.org/2000/svg" xmlns:xlink="http://www.w3.org/1999/xlink">
<g id="graph0" class="graph" transform="scale(1 1) rotate(0) translate(4 101)">
<title>client/include/Game/SpriteCustomizer.hpp</title>
<!-- Node1 -->
<g id="Node000001" class="node">
<title>Node1</title>
<g id="a_Node000001"><a xlink:title=" ">
<polygon fill="#999999" stroke="#666666" points="584.12,-97 471.38,-97 471.38,-66.5 584.12,-66.5 584.12,-97"/>
<text xml:space="preserve" text-anchor="start" x="479.38" y="-83.5" font-family="Helvetica,sans-Serif" font-size="10.00">client/include/Game</text>
<text xml:space="preserve" text-anchor="middle" x="527.75" y="-72.25" font-family="Helvetica,sans-Serif" font-size="10.00">/SpriteCustomizer.hpp</text>
</a>
</g>
</g>
<!-- Node2 -->
<g id="Node000002" class="node">
<title>Node2</title>
<g id="a_Node000002"><a xlink:href="Application_8cpp.html" target="_top" xlink:title=" ">
<polygon fill="white" stroke="#666666" points="149.5,-24.88 0,-24.88 0,-5.63 149.5,-5.63 149.5,-24.88"/>
<text xml:space="preserve" text-anchor="middle" x="74.75" y="-11.38" font-family="Helvetica,sans-Serif" font-size="10.00">client/src/Core/Application.cpp</text>
</a>
</g>
</g>
<!-- Node1&#45;&gt;Node2 -->
<g id="edge1_Node000001_Node000002" class="edge">
<title>Node1&#45;&gt;Node2</title>
<g id="a_edge1_Node000001_Node000002"><a xlink:title=" ">
<path fill="none" stroke="#63b8ff" d="M460.07,-72.21C385.99,-62.7 263.77,-46.55 158.75,-30.5 148.37,-28.91 137.28,-27.11 126.69,-25.33"/>
<polygon fill="#63b8ff" stroke="#63b8ff" points="459.22,-75.63 469.59,-73.43 460.11,-68.68 459.22,-75.63"/>
</a>
</g>
</g>
<!-- Node3 -->
<g id="Node000003" class="node">
<title>Node3</title>
<g id="a_Node000003"><a xlink:href="EntityBuilder_8cpp.html" target="_top" xlink:title=" ">
<polygon fill="white" stroke="#666666" points="329.5,-24.88 168,-24.88 168,-5.63 329.5,-5.63 329.5,-24.88"/>
<text xml:space="preserve" text-anchor="middle" x="248.75" y="-11.38" font-family="Helvetica,sans-Serif" font-size="10.00">client/src/Game/EntityBuilder.cpp</text>
</a>
</g>
</g>
<!-- Node1&#45;&gt;Node3 -->
<g id="edge2_Node000001_Node000003" class="edge">
<title>Node1&#45;&gt;Node3</title>
<g id="a_edge2_Node000001_Node000003"><a xlink:title=" ">
<path fill="none" stroke="#63b8ff" d="M459.77,-65.03C405.87,-52.57 332.46,-35.6 287.95,-25.31"/>
<polygon fill="#63b8ff" stroke="#63b8ff" points="458.95,-68.44 469.48,-67.28 460.52,-61.62 458.95,-68.44"/>
</a>
</g>
</g>
<!-- Node4 -->
<g id="Node000004" class="node">
<title>Node4</title>
<g id="a_Node000004"><a xlink:href="SpriteCustomizer_8cpp.html" target="_top" xlink:title=" ">
<polygon fill="white" stroke="#666666" points="529.62,-24.88 347.88,-24.88 347.88,-5.63 529.62,-5.63 529.62,-24.88"/>
<text xml:space="preserve" text-anchor="middle" x="438.75" y="-11.38" font-family="Helvetica,sans-Serif" font-size="10.00">client/src/Game/SpriteCustomizer.cpp</text>
</a>
</g>
</g>
<!-- Node1&#45;&gt;Node4 -->
<g id="edge3_Node000001_Node000004" class="edge">
<title>Node1&#45;&gt;Node4</title>
<g id="a_edge3_Node000001_Node000004"><a xlink:title=" ">
<path fill="none" stroke="#63b8ff" d="M498.52,-59.57C482.47,-47.93 463.39,-34.11 451.18,-25.26"/>
<polygon fill="#63b8ff" stroke="#63b8ff" points="496.18,-62.19 506.33,-65.23 500.29,-56.52 496.18,-62.19"/>
</a>
</g>
</g>
<!-- Node5 -->
<g id="Node000005" class="node">
<title>Node5</title>
<g id="a_Node000005"><a xlink:href="ModMenuScene_8cpp.html" target="_top" xlink:title=" ">
<polygon fill="white" stroke="#666666" points="685.5,-30.5 548,-30.5 548,0 685.5,0 685.5,-30.5"/>
<text xml:space="preserve" text-anchor="start" x="556" y="-17" font-family="Helvetica,sans-Serif" font-size="10.00">client/src/Scenes/ModMenu</text>
<text xml:space="preserve" text-anchor="middle" x="616.75" y="-5.75" font-family="Helvetica,sans-Serif" font-size="10.00">Scene.cpp</text>
</a>
</g>
</g>
<!-- Node1&#45;&gt;Node5 -->
<g id="edge4_Node000001_Node000005" class="edge">
<title>Node1&#45;&gt;Node5</title>
<g id="a_edge4_Node000001_Node000005"><a xlink:title=" ">
<path fill="none" stroke="#63b8ff" d="M556.98,-59.57C569.97,-50.16 584.93,-39.31 596.63,-30.83"/>
<polygon fill="#63b8ff" stroke="#63b8ff" points="555.21,-56.52 549.17,-65.23 559.32,-62.19 555.21,-56.52"/>
</a>
</g>
</g>
<!-- Node6 -->
<g id="Node000006" class="node">
<title>Node6</title>
<g id="a_Node000006"><a xlink:href="PlayingScene_8cpp.html" target="_top" xlink:title=" ">
<polygon fill="white" stroke="#666666" points="830.25,-30.5 703.25,-30.5 703.25,0 830.25,0 830.25,-30.5"/>
<text xml:space="preserve" text-anchor="start" x="711.25" y="-17" font-family="Helvetica,sans-Serif" font-size="10.00">client/src/Scenes/Playing</text>
<text xml:space="preserve" text-anchor="middle" x="766.75" y="-5.75" font-family="Helvetica,sans-Serif" font-size="10.00">Scene.cpp</text>
</a>
</g>
</g>
<!-- Node1&#45;&gt;Node6 -->
<g id="edge5_Node000001_Node000006" class="edge">
<title>Node1&#45;&gt;Node6</title>
<g id="a_edge5_Node000001_Node000006"><a xlink:title=" ">
<path fill="none" stroke="#63b8ff" d="M593.09,-63.12C630.55,-53.01 677.01,-40.47 712.45,-30.9"/>
<polygon fill="#63b8ff" stroke="#63b8ff" points="592.49,-59.65 583.74,-65.64 594.31,-66.41 592.49,-59.65"/>
</a>
</g>
</g>
<!-- Node7 -->
<g id="Node000007" class="node">
<title>Node7</title>
<g id="a_Node000007"><a xlink:href="RoomWaitingScene_8cpp.html" target="_top" xlink:title=" ">
<polygon fill="white" stroke="#666666" points="1001.38,-30.5 848.12,-30.5 848.12,0 1001.38,0 1001.38,-30.5"/>
<text xml:space="preserve" text-anchor="start" x="856.12" y="-17" font-family="Helvetica,sans-Serif" font-size="10.00">client/src/Scenes/RoomWaiting</text>
<text xml:space="preserve" text-anchor="middle" x="924.75" y="-5.75" font-family="Helvetica,sans-Serif" font-size="10.00">Scene.cpp</text>
</a>
</g>
</g>
<!-- Node1&#45;&gt;Node7 -->
<g id="edge6_Node000001_Node000007" class="edge">
<title>Node1&#45;&gt;Node7</title>
<g id="a_edge6_Node000001_Node000007"><a xlink:title=" ">
<path fill="none" stroke="#63b8ff" d="M595.43,-69.98C658.64,-59.89 755.61,-44.33 839.75,-30.5 842.41,-30.06 845.11,-29.62 847.84,-29.17"/>
<polygon fill="#63b8ff" stroke="#63b8ff" points="595.23,-66.46 585.91,-71.5 596.34,-73.38 595.23,-66.46"/>
</a>
</g>
</g>
</g>
</svg>
