<?xml version="1.0" encoding="UTF-8" standalone="no"?>
<!DOCTYPE svg PUBLIC "-//W3C//DTD SVG 1.1//EN"
 "http://www.w3.org/Graphics/SVG/1.1/DTD/svg11.dtd">
<!-- Generated by graphviz version 14.0.5 (20251129.0259)
 -->
<!-- Title: common/include/RType/ECS/Components/UI/SpritePreview.hpp Pages: 1 -->
<!--zoomable 293 -->

<svg id="main" version="1.1" xmlns="http://www.w3.org/2000/svg" xmlns:xlink="http://www.w3.org/1999/xlink" xml:space="preserve" onload="init(evt)">

<style type="text/css"><![CDATA[
.node, .edge {opacity: 0.7;}
.node.selected, .edge.selected {opacity: 1;}
.edge:hover path { stroke: red; }
.edge:hover polygon { stroke: red; fill: red; }
]]></style>

<defs>
  <circle id="rim" cx="0" cy="0" r="7"/>
  <circle id="rim2" cx="0" cy="0" r="3.5"/>
  <g id="zoomPlus">
    <use xlink:href="#rim" fill="#404040"><set attributeName="fill" to="#808080" begin="zoomplus.mouseover" end="zoomplus.mouseout"/></use>
    <path d="M-4,0h8M0,-4v8" fill="none" stroke="white" stroke-width="1.5" pointer-events="none"/>
  </g>
  <g id="zoomMin">
    <use xlink:href="#rim" fill="#404040"><set attributeName="fill" to="#808080" begin="zoomminus.mouseover" end="zoomminus.mouseout"/></use>
    <path d="M-4,0h8" fill="none" stroke="white" stroke-width="1.5" pointer-events="none"/>
  </g>
  <g id="arrowUp" transform="translate(30 24)">
    <use xlink:href="#rim"/>
    <path pointer-events="none" fill="none" stroke="white" stroke-width="1.5" d="M0,-3.0v7 M-2.5,-0.5L0,-3.0L2.5,-0.5"/>
  </g>
  <g id="arrowRight" transform="rotate(90) translate(36 -43)">
    <use xlink:href="#rim"/>
    <path pointer-events="none" fill="none" stroke="white" stroke-width="1.5" d="M0,-3.0v7 M-2.5,-0.5L0,-3.0L2.5,-0.5"/>
  </g>
  <g id="arrowDown" transform="rotate(180) translate(-30 -48)">
    <use xlink:href="#rim"/>
    <path pointer-events="none" fill="none" stroke="white" stroke-width="1.5" d="M0,-3.0v7 M-2.5,-0.5L0,-3.0L2.5,-0.5"/>
  </g>
  <g id="arrowLeft" transform="rotate(270) translate(-36 17)">
    <use xlink:href="#rim"/>
    <path pointer-events="none" fill="none" stroke="white" stroke-width="1.5" d="M0,-3.0v7 M-2.5,-0.5L0,-3.0L2.5,-0.5"/>
  </g>
  <g id="resetDef">
    <use xlink:href="#rim2" fill="#404040"><set attributeName="fill" to="#808080" begin="reset.mouseover" end="reset.mouseout"/></use>
  </g>
</defs>
<script type="application/ecmascript">
var viewWidth = 2373;
var viewHeight = 293;
var sectionId = 'dynsection-1';
</script>
<script type="application/ecmascript" xlink:href="svg.min.js"/>
<svg id="graph" class="graph">
<g id="viewport">
<title>common/include/RType/ECS/Components/UI/SpritePreview.hpp</title>
<!-- Node1 -->
<g id="Node000001" class="node">
<title>Node1</title>
<g id="a_Node000001"><a xlink:title=" ">
<polygon fill="#999999" stroke="#666666" points="1040.38,-285.25 847.38,-285.25 847.38,-254.75 1040.38,-254.75 1040.38,-285.25"/>
<text xml:space="preserve" text-anchor="start" x="855.38" y="-271.75" font-family="Helvetica,sans-Serif" font-size="10.00">common/include/RType</text>
<text xml:space="preserve" text-anchor="middle" x="943.88" y="-260.5" font-family="Helvetica,sans-Serif" font-size="10.00">/ECS/Components/UI/SpritePreview.hpp</text>
</a>
</g>
</g>
<!-- Node2 -->
<g id="Node000002" class="node">
<title>Node2</title>
<g id="a_Node000002"><a xlink:href="Application_8hpp.html" target="_top" xlink:title=" ">
<polygon fill="white" stroke="#666666" points="1192.38,-85.75 1095.38,-85.75 1095.38,-55.25 1192.38,-55.25 1192.38,-85.75"/>
<text xml:space="preserve" text-anchor="start" x="1103.38" y="-72.25" font-family="Helvetica,sans-Serif" font-size="10.00">client/include/Core</text>
<text xml:space="preserve" text-anchor="middle" x="1143.88" y="-61" font-family="Helvetica,sans-Serif" font-size="10.00">/Application.hpp</text>
</a>
</g>
</g>
<!-- Node1&#45;&gt;Node2 -->
<g id="edge1_Node000001_Node000002" class="edge">
<title>Node1&#45;&gt;Node2</title>
<g id="a_edge1_Node000001_Node000002"><a xlink:title=" ">
<path fill="none" stroke="#63b8ff" d="M939.57,-243.16C935.73,-210.76 934.57,-155.38 963.88,-121.75 968.31,-116.66 1043.12,-96.93 1094.88,-83.76"/>
<polygon fill="#63b8ff" stroke="#63b8ff" points="936.07,-243.44 940.9,-252.86 943.01,-242.48 936.07,-243.44"/>
</a>
</g>
</g>
<!-- Node5 -->
<g id="Node000005" class="node">
<title>Node5</title>
<g id="a_Node000005"><a xlink:href="UIRenderSystem_8hpp.html" target="_top" xlink:title=" ">
<polygon fill="white" stroke="#666666" points="615.38,-218.75 500.38,-218.75 500.38,-188.25 615.38,-188.25 615.38,-218.75"/>
<text xml:space="preserve" text-anchor="start" x="508.38" y="-205.25" font-family="Helvetica,sans-Serif" font-size="10.00">client/include/Systems</text>
<text xml:space="preserve" text-anchor="middle" x="557.88" y="-194" font-family="Helvetica,sans-Serif" font-size="10.00">/UIRenderSystem.hpp</text>
</a>
</g>
</g>
<!-- Node1&#45;&gt;Node5 -->
<g id="edge4_Node000001_Node000005" class="edge">
<title>Node1&#45;&gt;Node5</title>
<g id="a_edge4_Node000001_Node000005"><a xlink:title=" ">
<path fill="none" stroke="#63b8ff" d="M844.81,-252.45C772.19,-240.31 676.11,-224.26 615.64,-214.15"/>
<polygon fill="#63b8ff" stroke="#63b8ff" points="843.87,-255.84 854.31,-254.03 845.02,-248.93 843.87,-255.84"/>
</a>
</g>
</g>
<!-- Node8 -->
<g id="Node000008" class="node">
<title>Node8</title>
<g id="a_Node000008"><a xlink:href="UiFactory_8hpp.html" target="_top" xlink:title=" ">
<polygon fill="white" stroke="#666666" points="1334.62,-213.12 1185.12,-213.12 1185.12,-193.88 1334.62,-193.88 1334.62,-213.12"/>
<text xml:space="preserve" text-anchor="middle" x="1259.88" y="-199.62" font-family="Helvetica,sans-Serif" font-size="10.00">client/include/UI/UiFactory.hpp</text>
</a>
</g>
</g>
<!-- Node1&#45;&gt;Node8 -->
<g id="edge8_Node000001_Node000008" class="edge">
<title>Node1&#45;&gt;Node8</title>
<g id="a_edge8_Node000001_Node000008"><a xlink:title=" ">
<path fill="none" stroke="#63b8ff" d="M1027.01,-252.03C1087.35,-239.71 1166.64,-223.53 1215.39,-213.58"/>
<polygon fill="#63b8ff" stroke="#63b8ff" points="1026.56,-248.55 1017.46,-253.98 1027.96,-255.41 1026.56,-248.55"/>
</a>
</g>
</g>
<!-- Node3 -->
<g id="Node000003" class="node">
<title>Node3</title>
<g id="a_Node000003"><a xlink:href="Application_8cpp.html" target="_top" xlink:title=" ">
<polygon fill="white" stroke="#666666" points="1147.62,-19.25 998.12,-19.25 998.12,0 1147.62,0 1147.62,-19.25"/>
<text xml:space="preserve" text-anchor="middle" x="1072.88" y="-5.75" font-family="Helvetica,sans-Serif" font-size="10.00">client/src/Core/Application.cpp</text>
</a>
</g>
</g>
<!-- Node2&#45;&gt;Node3 -->
<g id="edge2_Node000002_Node000003" class="edge">
<title>Node2&#45;&gt;Node3</title>
<g id="a_edge2_Node000002_Node000003"><a xlink:title=" ">
<path fill="none" stroke="#63b8ff" d="M1117.74,-47.83C1106.03,-38.12 1092.85,-27.19 1083.82,-19.7"/>
<polygon fill="#63b8ff" stroke="#63b8ff" points="1115.23,-50.29 1125.16,-53.98 1119.7,-44.9 1115.23,-50.29"/>
</a>
</g>
</g>
<!-- Node4 -->
<g id="Node000004" class="node">
<title>Node4</title>
<g id="a_Node000004"><a xlink:href="client_2src_2main_8cpp.html" target="_top" xlink:title=" ">
<polygon fill="white" stroke="#666666" points="1264.12,-19.25 1165.62,-19.25 1165.62,0 1264.12,0 1264.12,-19.25"/>
<text xml:space="preserve" text-anchor="middle" x="1214.88" y="-5.75" font-family="Helvetica,sans-Serif" font-size="10.00">client/src/main.cpp</text>
</a>
</g>
</g>
<!-- Node2&#45;&gt;Node4 -->
<g id="edge3_Node000002_Node000004" class="edge">
<title>Node2&#45;&gt;Node4</title>
<g id="a_edge3_Node000002_Node000004"><a xlink:title=" ">
<path fill="none" stroke="#63b8ff" d="M1170.01,-47.83C1181.72,-38.12 1194.9,-27.19 1203.93,-19.7"/>
<polygon fill="#63b8ff" stroke="#63b8ff" points="1168.05,-44.9 1162.59,-53.98 1172.52,-50.29 1168.05,-44.9"/>
</a>
</g>
</g>
<!-- Node5&#45;&gt;Node2 -->
<g id="edge5_Node000005_Node000002" class="edge">
<title>Node5&#45;&gt;Node2</title>
<g id="a_edge5_Node000005_Node000002"><a xlink:title=" ">
<path fill="none" stroke="#63b8ff" d="M627.34,-201.15C695.67,-197.71 801.8,-186.65 886.88,-152.25 908.6,-143.47 908.49,-131.33 929.88,-121.75 995.21,-92.48 1017.26,-102.43 1086.88,-85.75 1089.55,-85.11 1092.3,-84.44 1095.07,-83.77"/>
<polygon fill="#63b8ff" stroke="#63b8ff" points="627.22,-197.65 617.39,-201.6 627.54,-204.64 627.22,-197.65"/>
</a>
</g>
</g>
<!-- Node6 -->
<g id="Node000006" class="node">
<title>Node6</title>
<g id="a_Node000006"><a xlink:href="SpriteCustomizer_8cpp.html" target="_top" xlink:title=" ">
<polygon fill="white" stroke="#666666" points="181.75,-146.62 0,-146.62 0,-127.38 181.75,-127.38 181.75,-146.62"/>
<text xml:space="preserve" text-anchor="middle" x="90.88" y="-133.12" font-family="Helvetica,sans-Serif" font-size="10.00">client/src/Game/SpriteCustomizer.cpp</text>
</a>
</g>
</g>
<!-- Node5&#45;&gt;Node6 -->
<g id="edge6_Node000005_Node000006" class="edge">
<title>Node5&#45;&gt;Node6</title>
<g id="a_edge6_Node000005_Node000006"><a xlink:title=" ">
<path fill="none" stroke="#63b8ff" d="M489.04,-193.19C415.28,-183.19 294.77,-166.77 190.88,-152.25 179.06,-150.6 166.47,-148.82 154.35,-147.1"/>
<polygon fill="#63b8ff" stroke="#63b8ff" points="488.14,-196.6 498.52,-194.47 489.08,-189.66 488.14,-196.6"/>
</a>
</g>
</g>
<!-- Node7 -->
<g id="Node000007" class="node">
<title>Node7</title>
<g id="a_Node000007"><a xlink:href="UIRenderSystem_8cpp.html" target="_top" xlink:title=" ">
<polygon fill="white" stroke="#666666" points="313.62,-152.25 200.12,-152.25 200.12,-121.75 313.62,-121.75 313.62,-152.25"/>
<text xml:space="preserve" text-anchor="start" x="208.12" y="-138.75" font-family="Helvetica,sans-Serif" font-size="10.00">client/src/Systems</text>
<text xml:space="preserve" text-anchor="middle" x="256.88" y="-127.5" font-family="Helvetica,sans-Serif" font-size="10.00">/UIRenderSystem.cpp</text>
</a>
</g>
</g>
<!-- Node5&#45;&gt;Node7 -->
<g id="edge7_Node000005_Node000007" class="edge">
<title>Node5&#45;&gt;Node7</title>
<g id="a_edge7_Node000005_Node000007"><a xlink:title=" ">
<path fill="none" stroke="#63b8ff" d="M488.69,-187.74C441.88,-177.75 378.65,-164.23 322.88,-152.25 320.01,-151.63 317.07,-151 314.11,-150.37"/>
<polygon fill="#63b8ff" stroke="#63b8ff" points="487.93,-191.16 498.44,-189.83 489.39,-184.32 487.93,-191.16"/>
</a>
</g>
</g>
<!-- Node8&#45;&gt;Node2 -->
<g id="edge9_Node000008_Node000002" class="edge">
<title>Node8&#45;&gt;Node2</title>
<g id="a_edge9_Node000008_Node000002"><a xlink:title=" ">
<path fill="none" stroke="#63b8ff" d="M1259.7,-182.21C1258.55,-164.54 1254.41,-139.12 1240.88,-121.75 1228.17,-105.44 1208.7,-93.91 1190.53,-86.05"/>
<polygon fill="#63b8ff" stroke="#63b8ff" points="1256.19,-182.09 1260.04,-191.96 1263.19,-181.84 1256.19,-182.09"/>
</a>
</g>
</g>
<!-- Node9 -->
<g id="Node000009" class="node">
<title>Node9</title>
<g id="a_Node000009"><a xlink:href="CreateRoomScene_8hpp.html" target="_top" xlink:title=" ">
<polygon fill="white" stroke="#666666" points="452.38,-152.25 331.38,-152.25 331.38,-121.75 452.38,-121.75 452.38,-152.25"/>
<text xml:space="preserve" text-anchor="start" x="339.38" y="-138.75" font-family="Helvetica,sans-Serif" font-size="10.00">client/include/Scenes</text>
<text xml:space="preserve" text-anchor="middle" x="391.88" y="-127.5" font-family="Helvetica,sans-Serif" font-size="10.00">/CreateRoomScene.hpp</text>
</a>
</g>
</g>
<!-- Node8&#45;&gt;Node9 -->
<g id="edge10_Node000008_Node000009" class="edge">
<title>Node8&#45;&gt;Node9</title>
<g id="a_edge10_Node000008_Node000009"><a xlink:title=" ">
<path fill="none" stroke="#63b8ff" d="M1173.59,-200.96C1026.8,-197.48 719.38,-186.4 461.88,-152.25 458.92,-151.86 455.91,-151.42 452.87,-150.93"/>
<polygon fill="#63b8ff" stroke="#63b8ff" points="1173.14,-204.45 1183.21,-201.18 1173.3,-197.45 1173.14,-204.45"/>
</a>
</g>
</g>
<!-- Node11 -->
<g id="Node000011" class="node">
<title>Node11</title>
<g id="a_Node000011"><a xlink:href="GameOverScene_8hpp.html" target="_top" xlink:title=" ">
<polygon fill="white" stroke="#666666" points="583.25,-152.25 470.5,-152.25 470.5,-121.75 583.25,-121.75 583.25,-152.25"/>
<text xml:space="preserve" text-anchor="start" x="478.5" y="-138.75" font-family="Helvetica,sans-Serif" font-size="10.00">client/include/Scenes</text>
<text xml:space="preserve" text-anchor="middle" x="526.88" y="-127.5" font-family="Helvetica,sans-Serif" font-size="10.00">/GameOverScene.hpp</text>
</a>
</g>
</g>
<!-- Node8&#45;&gt;Node11 -->
<g id="edge13_Node000008_Node000011" class="edge">
<title>Node8&#45;&gt;Node11</title>
<g id="a_edge13_Node000008_Node000011"><a xlink:title=" ">
<path fill="none" stroke="#63b8ff" d="M1173.63,-199.89C1045.95,-195.15 799.36,-182.64 591.88,-152.25 589.13,-151.85 586.33,-151.4 583.51,-150.91"/>
<polygon fill="#63b8ff" stroke="#63b8ff" points="1173.23,-203.38 1183.35,-200.24 1173.48,-196.38 1173.23,-203.38"/>
</a>
</g>
</g>
<!-- Node13 -->
<g id="Node000013" class="node">
<title>Node13</title>
<g id="a_Node000013"><a xlink:href="GamepadSettingsScene_8hpp.html" target="_top" xlink:title=" ">
<polygon fill="white" stroke="#666666" points="744.62,-152.25 601.12,-152.25 601.12,-121.75 744.62,-121.75 744.62,-152.25"/>
<text xml:space="preserve" text-anchor="start" x="609.12" y="-138.75" font-family="Helvetica,sans-Serif" font-size="10.00">client/include/Scenes</text>
<text xml:space="preserve" text-anchor="middle" x="672.88" y="-127.5" font-family="Helvetica,sans-Serif" font-size="10.00">/GamepadSettingsScene.hpp</text>
</a>
</g>
</g>
<!-- Node8&#45;&gt;Node13 -->
<g id="edge16_Node000008_Node000013" class="edge">
<title>Node8&#45;&gt;Node13</title>
<g id="a_edge16_Node000008_Node000013"><a xlink:title=" ">
<path fill="none" stroke="#63b8ff" d="M1173.3,-195.89C1072.36,-187.73 900.61,-172.41 753.88,-152.25 750.9,-151.84 747.88,-151.4 744.82,-150.95"/>
<polygon fill="#63b8ff" stroke="#63b8ff" points="1172.9,-199.37 1183.14,-196.69 1173.46,-192.4 1172.9,-199.37"/>
</a>
</g>
</g>
<!-- Node15 -->
<g id="Node000015" class="node">
<title>Node15</title>
<g id="a_Node000015"><a xlink:href="KeyBindingScene_8hpp.html" target="_top" xlink:title=" ">
<polygon fill="white" stroke="#666666" points="877.38,-152.25 762.38,-152.25 762.38,-121.75 877.38,-121.75 877.38,-152.25"/>
<text xml:space="preserve" text-anchor="start" x="770.38" y="-138.75" font-family="Helvetica,sans-Serif" font-size="10.00">client/include/Scenes</text>
<text xml:space="preserve" text-anchor="middle" x="819.88" y="-127.5" font-family="Helvetica,sans-Serif" font-size="10.00">/KeyBindingScene.hpp</text>
</a>
</g>
</g>
<!-- Node8&#45;&gt;Node15 -->
<g id="edge19_Node000008_Node000015" class="edge">
<title>Node8&#45;&gt;Node15</title>
<g id="a_edge19_Node000008_Node000015"><a xlink:title=" ">
<path fill="none" stroke="#63b8ff" d="M1186.43,-191.73C1099.68,-179.02 957.17,-158.13 877.81,-146.49"/>
<polygon fill="#63b8ff" stroke="#63b8ff" points="1185.87,-195.19 1196.27,-193.18 1186.88,-188.26 1185.87,-195.19"/>
</a>
</g>
</g>
<!-- Node17 -->
<g id="Node000017" class="node">
<title>Node17</title>
<g id="a_Node000017"><a xlink:href="LobbyScene_8hpp.html" target="_top" xlink:title=" ">
<polygon fill="white" stroke="#666666" points="1081.38,-152.25 972.38,-152.25 972.38,-121.75 1081.38,-121.75 1081.38,-152.25"/>
<text xml:space="preserve" text-anchor="start" x="980.38" y="-138.75" font-family="Helvetica,sans-Serif" font-size="10.00">client/include/Scenes</text>
<text xml:space="preserve" text-anchor="middle" x="1026.88" y="-127.5" font-family="Helvetica,sans-Serif" font-size="10.00">/LobbyScene.hpp</text>
</a>
</g>
</g>
<!-- Node8&#45;&gt;Node17 -->
<g id="edge22_Node000008_Node000017" class="edge">
<title>Node8&#45;&gt;Node17</title>
<g id="a_edge22_Node000008_Node000017"><a xlink:title=" ">
<path fill="none" stroke="#63b8ff" d="M1216.09,-190.38C1177.43,-179.68 1120.97,-164.05 1079.79,-152.65"/>
<polygon fill="#63b8ff" stroke="#63b8ff" points="1214.96,-193.7 1225.53,-192.99 1216.82,-186.95 1214.96,-193.7"/>
</a>
</g>
</g>
<!-- Node19 -->
<g id="Node000019" class="node">
<title>Node19</title>
<g id="a_Node000019"><a xlink:href="LoginScene_8hpp.html" target="_top" xlink:title=" ">
<polygon fill="white" stroke="#666666" points="1397.38,-152.25 1288.38,-152.25 1288.38,-121.75 1397.38,-121.75 1397.38,-152.25"/>
<text xml:space="preserve" text-anchor="start" x="1296.38" y="-138.75" font-family="Helvetica,sans-Serif" font-size="10.00">client/include/Scenes</text>
<text xml:space="preserve" text-anchor="middle" x="1342.88" y="-127.5" font-family="Helvetica,sans-Serif" font-size="10.00">/LoginScene.hpp</text>
</a>
</g>
</g>
<!-- Node8&#45;&gt;Node19 -->
<g id="edge25_Node000008_Node000019" class="edge">
<title>Node8&#45;&gt;Node19</title>
<g id="a_edge25_Node000008_Node000019"><a xlink:title=" ">
<path fill="none" stroke="#63b8ff" d="M1280.34,-186.6C1293.72,-176.2 1311.07,-162.72 1324.1,-152.59"/>
<polygon fill="#63b8ff" stroke="#63b8ff" points="1278.36,-183.7 1272.61,-192.6 1282.65,-189.23 1278.36,-183.7"/>
</a>
</g>
</g>
<!-- Node21 -->
<g id="Node000021" class="node">
<title>Node21</title>
<g id="a_Node000021"><a xlink:href="MenuScene_8hpp.html" target="_top" xlink:title=" ">
<polygon fill="white" stroke="#666666" points="1524.38,-152.25 1415.38,-152.25 1415.38,-121.75 1524.38,-121.75 1524.38,-152.25"/>
<text xml:space="preserve" text-anchor="start" x="1423.38" y="-138.75" font-family="Helvetica,sans-Serif" font-size="10.00">client/include/Scenes</text>
<text xml:space="preserve" text-anchor="middle" x="1469.88" y="-127.5" font-family="Helvetica,sans-Serif" font-size="10.00">/MenuScene.hpp</text>
</a>
</g>
</g>
<!-- Node8&#45;&gt;Node21 -->
<g id="edge28_Node000008_Node000021" class="edge">
<title>Node8&#45;&gt;Node21</title>
<g id="a_edge28_Node000008_Node000021"><a xlink:title=" ">
<path fill="none" stroke="#63b8ff" d="M1300.24,-190.1C1335.05,-179.41 1385.38,-163.95 1422.18,-152.65"/>
<polygon fill="#63b8ff" stroke="#63b8ff" points="1299.5,-186.67 1290.96,-192.95 1301.55,-193.36 1299.5,-186.67"/>
</a>
</g>
</g>
<!-- Node23 -->
<g id="Node000023" class="node">
<title>Node23</title>
<g id="a_Node000023"><a xlink:href="ModMenuScene_8hpp.html" target="_top" xlink:title=" ">
<polygon fill="white" stroke="#666666" points="1651.38,-152.25 1542.38,-152.25 1542.38,-121.75 1651.38,-121.75 1651.38,-152.25"/>
<text xml:space="preserve" text-anchor="start" x="1550.38" y="-138.75" font-family="Helvetica,sans-Serif" font-size="10.00">client/include/Scenes</text>
<text xml:space="preserve" text-anchor="middle" x="1596.88" y="-127.5" font-family="Helvetica,sans-Serif" font-size="10.00">/ModMenuScene.hpp</text>
</a>
</g>
</g>
<!-- Node8&#45;&gt;Node23 -->
<g id="edge31_Node000008_Node000023" class="edge">
<title>Node8&#45;&gt;Node23</title>
<g id="a_edge31_Node000008_Node000023"><a xlink:title=" ">
<path fill="none" stroke="#63b8ff" d="M1324.14,-191.48C1379.76,-181.76 1462.29,-166.9 1533.88,-152.25 1536.51,-151.71 1539.21,-151.15 1541.93,-150.57"/>
<polygon fill="#63b8ff" stroke="#63b8ff" points="1323.78,-187.99 1314.53,-193.16 1324.98,-194.89 1323.78,-187.99"/>
</a>
</g>
</g>
<!-- Node25 -->
<g id="Node000025" class="node">
<title>Node25</title>
<g id="a_Node000025"><a xlink:href="PauseScene_8hpp.html" target="_top" xlink:title=" ">
<polygon fill="white" stroke="#666666" points="1778.38,-152.25 1669.38,-152.25 1669.38,-121.75 1778.38,-121.75 1778.38,-152.25"/>
<text xml:space="preserve" text-anchor="start" x="1677.38" y="-138.75" font-family="Helvetica,sans-Serif" font-size="10.00">client/include/Scenes</text>
<text xml:space="preserve" text-anchor="middle" x="1723.88" y="-127.5" font-family="Helvetica,sans-Serif" font-size="10.00">/PauseScene.hpp</text>
</a>
</g>
</g>
<!-- Node8&#45;&gt;Node25 -->
<g id="edge34_Node000008_Node000025" class="edge">
<title>Node8&#45;&gt;Node25</title>
<g id="a_edge34_Node000008_Node000025"><a xlink:title=" ">
<path fill="none" stroke="#63b8ff" d="M1346.04,-194.17C1427.49,-185.71 1552.96,-171.17 1660.88,-152.25 1663.53,-151.79 1666.23,-151.28 1668.96,-150.75"/>
<polygon fill="#63b8ff" stroke="#63b8ff" points="1345.94,-190.66 1336.35,-195.16 1346.66,-197.62 1345.94,-190.66"/>
</a>
</g>
</g>
<!-- Node27 -->
<g id="Node000027" class="node">
<title>Node27</title>
<g id="a_Node000027"><a xlink:href="PlayingScene_8hpp.html" target="_top" xlink:title=" ">
<polygon fill="white" stroke="#666666" points="1905.38,-152.25 1796.38,-152.25 1796.38,-121.75 1905.38,-121.75 1905.38,-152.25"/>
<text xml:space="preserve" text-anchor="start" x="1804.38" y="-138.75" font-family="Helvetica,sans-Serif" font-size="10.00">client/include/Scenes</text>
<text xml:space="preserve" text-anchor="middle" x="1850.88" y="-127.5" font-family="Helvetica,sans-Serif" font-size="10.00">/PlayingScene.hpp</text>
</a>
</g>
</g>
<!-- Node8&#45;&gt;Node27 -->
<g id="edge37_Node000008_Node000027" class="edge">
<title>Node8&#45;&gt;Node27</title>
<g id="a_edge37_Node000008_Node000027"><a xlink:title=" ">
<path fill="none" stroke="#63b8ff" d="M1346.49,-197.66C1451.44,-191.01 1633.41,-176.97 1787.88,-152.25 1790.53,-151.82 1793.25,-151.35 1795.98,-150.85"/>
<polygon fill="#63b8ff" stroke="#63b8ff" points="1346.29,-194.16 1336.53,-198.28 1346.72,-201.15 1346.29,-194.16"/>
</a>
</g>
</g>
<!-- Node29 -->
<g id="Node000029" class="node">
<title>Node29</title>
<g id="a_Node000029"><a xlink:href="RoomWaitingScene_8hpp.html" target="_top" xlink:title=" ">
<polygon fill="white" stroke="#666666" points="2047.88,-152.25 1923.88,-152.25 1923.88,-121.75 2047.88,-121.75 2047.88,-152.25"/>
<text xml:space="preserve" text-anchor="start" x="1931.88" y="-138.75" font-family="Helvetica,sans-Serif" font-size="10.00">client/include/Scenes</text>
<text xml:space="preserve" text-anchor="middle" x="1985.88" y="-127.5" font-family="Helvetica,sans-Serif" font-size="10.00">/RoomWaitingScene.hpp</text>
</a>
</g>
</g>
<!-- Node8&#45;&gt;Node29 -->
<g id="edge40_Node000008_Node000029" class="edge">
<title>Node8&#45;&gt;Node29</title>
<g id="a_edge40_Node000008_Node000029"><a xlink:title=" ">
<path fill="none" stroke="#63b8ff" d="M1346.27,-199.22C1471.92,-193.69 1712.2,-180.26 1914.88,-152.25 1917.74,-151.85 1920.66,-151.41 1923.61,-150.94"/>
<polygon fill="#63b8ff" stroke="#63b8ff" points="1346.2,-195.72 1336.36,-199.65 1346.5,-202.71 1346.2,-195.72"/>
</a>
</g>
</g>
<!-- Node31 -->
<g id="Node000031" class="node">
<title>Node31</title>
<g id="a_Node000031"><a xlink:href="SettingsScene_8hpp.html" target="_top" xlink:title=" ">
<polygon fill="white" stroke="#666666" points="2175.38,-152.25 2066.38,-152.25 2066.38,-121.75 2175.38,-121.75 2175.38,-152.25"/>
<text xml:space="preserve" text-anchor="start" x="2074.38" y="-138.75" font-family="Helvetica,sans-Serif" font-size="10.00">client/include/Scenes</text>
<text xml:space="preserve" text-anchor="middle" x="2120.88" y="-127.5" font-family="Helvetica,sans-Serif" font-size="10.00">/SettingsScene.hpp</text>
</a>
</g>
</g>
<!-- Node8&#45;&gt;Node31 -->
<g id="edge43_Node000008_Node000031" class="edge">
<title>Node8&#45;&gt;Node31</title>
<g id="a_edge43_Node000008_Node000031"><a xlink:title=" ">
<path fill="none" stroke="#63b8ff" d="M1346.13,-201.46C1492.83,-198.72 1800.02,-188.72 2056.88,-152.25 2059.92,-151.82 2063.03,-151.32 2066.17,-150.77"/>
<polygon fill="#63b8ff" stroke="#63b8ff" points="1346.44,-197.96 1336.5,-201.64 1346.56,-204.96 1346.44,-197.96"/>
</a>
</g>
</g>
<!-- Node33 -->
<g id="Node000033" class="node">
<title>Node33</title>
<g id="a_Node000033"><a xlink:href="UiFactory_8cpp.html" target="_top" xlink:title=" ">
<polygon fill="white" stroke="#666666" points="1232,-146.62 1099.75,-146.62 1099.75,-127.38 1232,-127.38 1232,-146.62"/>
<text xml:space="preserve" text-anchor="middle" x="1165.88" y="-133.12" font-family="Helvetica,sans-Serif" font-size="10.00">client/src/UI/UiFactory.cpp</text>
</a>
</g>
</g>
<!-- Node8&#45;&gt;Node33 -->
<g id="edge46_Node000008_Node000033" class="edge">
<title>Node8&#45;&gt;Node33</title>
<g id="a_edge46_Node000008_Node000033"><a xlink:title=" ">
<path fill="none" stroke="#63b8ff" d="M1237.52,-187.16C1219.33,-174.68 1194.29,-157.5 1179.14,-147.1"/>
<polygon fill="#63b8ff" stroke="#63b8ff" points="1235.33,-189.9 1245.56,-192.68 1239.29,-184.13 1235.33,-189.9"/>
</a>
</g>
</g>
<!-- Node9&#45;&gt;Node2 -->
<g id="edge11_Node000009_Node000002" class="edge">
<title>Node9&#45;&gt;Node2</title>
<g id="a_edge11_Node000009_Node000002"><a xlink:title=" ">
<path fill="none" stroke="#63b8ff" d="M464.03,-121.62C739.78,-86.99 815.44,-127.12 1086.88,-85.75 1089.6,-85.34 1092.38,-84.85 1095.18,-84.31"/>
<polygon fill="#63b8ff" stroke="#63b8ff" points="463.85,-118.11 454.37,-122.85 464.74,-125.06 463.85,-118.11"/>
</a>
</g>
</g>
<!-- Node10 -->
<g id="Node000010" class="node">
<title>Node10</title>
<g id="a_Node000010"><a xlink:href="CreateRoomScene_8cpp.html" target="_top" xlink:title=" ">
<polygon fill="white" stroke="#666666" points="414.88,-85.75 290.88,-85.75 290.88,-55.25 414.88,-55.25 414.88,-85.75"/>
<text xml:space="preserve" text-anchor="start" x="298.88" y="-72.25" font-family="Helvetica,sans-Serif" font-size="10.00">client/src/Scenes/Create</text>
<text xml:space="preserve" text-anchor="middle" x="352.88" y="-61" font-family="Helvetica,sans-Serif" font-size="10.00">RoomScene.cpp</text>
</a>
</g>
</g>
<!-- Node9&#45;&gt;Node10 -->
<g id="edge12_Node000009_Node000010" class="edge">
<title>Node9&#45;&gt;Node10</title>
<g id="a_edge12_Node000009_Node000010"><a xlink:title=" ">
<path fill="none" stroke="#63b8ff" d="M377.22,-111.76C371.99,-103.12 366.27,-93.66 361.69,-86.08"/>
<polygon fill="#63b8ff" stroke="#63b8ff" points="374.07,-113.32 382.24,-120.07 380.06,-109.7 374.07,-113.32"/>
</a>
</g>
</g>
<!-- Node11&#45;&gt;Node2 -->
<g id="edge14_Node000011_Node000002" class="edge">
<title>Node11&#45;&gt;Node2</title>
<g id="a_edge14_Node000011_Node000002"><a xlink:title=" ">
<path fill="none" stroke="#63b8ff" d="M594.66,-121.49C812.17,-91.05 872.68,-120.05 1086.88,-85.75 1089.59,-85.31 1092.37,-84.81 1095.17,-84.26"/>
<polygon fill="#63b8ff" stroke="#63b8ff" points="594.41,-117.99 585.01,-122.87 595.4,-124.92 594.41,-117.99"/>
</a>
</g>
</g>
<!-- Node12 -->
<g id="Node000012" class="node">
<title>Node12</title>
<g id="a_Node000012"><a xlink:href="GameOverScene_8cpp.html" target="_top" xlink:title=" ">
<polygon fill="white" stroke="#666666" points="574.88,-85.75 432.88,-85.75 432.88,-55.25 574.88,-55.25 574.88,-85.75"/>
<text xml:space="preserve" text-anchor="start" x="440.88" y="-72.25" font-family="Helvetica,sans-Serif" font-size="10.00">client/src/Scenes/GameOver</text>
<text xml:space="preserve" text-anchor="middle" x="503.88" y="-61" font-family="Helvetica,sans-Serif" font-size="10.00">Scene.cpp</text>
</a>
</g>
</g>
<!-- Node11&#45;&gt;Node12 -->
<g id="edge15_Node000011_Node000012" class="edge">
<title>Node11&#45;&gt;Node12</title>
<g id="a_edge15_Node000011_Node000012"><a xlink:title=" ">
<path fill="none" stroke="#63b8ff" d="M517.83,-110.63C514.86,-102.3 511.66,-93.33 509.07,-86.08"/>
<polygon fill="#63b8ff" stroke="#63b8ff" points="514.49,-111.69 521.15,-119.94 521.09,-109.34 514.49,-111.69"/>
</a>
</g>
</g>
<!-- Node13&#45;&gt;Node2 -->
<g id="edge17_Node000013_Node000002" class="edge">
<title>Node13&#45;&gt;Node2</title>
<g id="a_edge17_Node000013_Node000002"><a xlink:title=" ">
<path fill="none" stroke="#63b8ff" d="M756.08,-121.52C903.23,-101.36 943.9,-111.23 1086.88,-85.75 1089.59,-85.27 1092.36,-84.73 1095.15,-84.15"/>
<polygon fill="#63b8ff" stroke="#63b8ff" points="755.74,-118.03 746.32,-122.88 756.71,-124.96 755.74,-118.03"/>
</a>
</g>
</g>
<!-- Node14 -->
<g id="Node000014" class="node">
<title>Node14</title>
<g id="a_Node000014"><a xlink:href="GamepadSettingsScene_8cpp.html" target="_top" xlink:title=" ">
<polygon fill="white" stroke="#666666" points="729.25,-85.75 592.5,-85.75 592.5,-55.25 729.25,-55.25 729.25,-85.75"/>
<text xml:space="preserve" text-anchor="start" x="600.5" y="-72.25" font-family="Helvetica,sans-Serif" font-size="10.00">client/src/Scenes/Gamepad</text>
<text xml:space="preserve" text-anchor="middle" x="660.88" y="-61" font-family="Helvetica,sans-Serif" font-size="10.00">SettingsScene.cpp</text>
</a>
</g>
</g>
<!-- Node13&#45;&gt;Node14 -->
<g id="edge18_Node000013_Node000014" class="edge">
<title>Node13&#45;&gt;Node14</title>
<g id="a_edge18_Node000013_Node000014"><a xlink:title=" ">
<path fill="none" stroke="#63b8ff" d="M668.05,-110.06C666.53,-101.89 664.91,-93.16 663.59,-86.08"/>
<polygon fill="#63b8ff" stroke="#63b8ff" points="664.61,-110.68 669.88,-119.88 671.49,-109.4 664.61,-110.68"/>
</a>
</g>
</g>
<!-- Node15&#45;&gt;Node2 -->
<g id="edge20_Node000015_Node000002" class="edge">
<title>Node15&#45;&gt;Node2</title>
<g id="a_edge20_Node000015_Node000002"><a xlink:title=" ">
<path fill="none" stroke="#63b8ff" d="M888.81,-122.34C889.84,-122.14 890.86,-121.94 891.88,-121.75 978.44,-105.19 1000.75,-104.45 1086.88,-85.75 1089.57,-85.17 1092.32,-84.55 1095.1,-83.91"/>
<polygon fill="#63b8ff" stroke="#63b8ff" points="888.27,-118.88 879.12,-124.21 889.6,-125.75 888.27,-118.88"/>
</a>
</g>
</g>
<!-- Node16 -->
<g id="Node000016" class="node">
<title>Node16</title>
<g id="a_Node000016"><a xlink:href="KeyBindingScene_8cpp.html" target="_top" xlink:title=" ">
<polygon fill="white" stroke="#666666" points="892,-85.75 747.75,-85.75 747.75,-55.25 892,-55.25 892,-85.75"/>
<text xml:space="preserve" text-anchor="start" x="755.75" y="-72.25" font-family="Helvetica,sans-Serif" font-size="10.00">client/src/Scenes/KeyBinding</text>
<text xml:space="preserve" text-anchor="middle" x="819.88" y="-61" font-family="Helvetica,sans-Serif" font-size="10.00">Scene.cpp</text>
</a>
</g>
</g>
<!-- Node15&#45;&gt;Node16 -->
<g id="edge21_Node000015_Node000016" class="edge">
<title>Node15&#45;&gt;Node16</title>
<g id="a_edge21_Node000015_Node000016"><a xlink:title=" ">
<path fill="none" stroke="#63b8ff" d="M819.88,-110.06C819.88,-101.89 819.88,-93.16 819.88,-86.08"/>
<polygon fill="#63b8ff" stroke="#63b8ff" points="816.38,-109.85 819.88,-119.85 823.38,-109.85 816.38,-109.85"/>
</a>
</g>
</g>
<!-- Node17&#45;&gt;Node2 -->
<g id="edge23_Node000017_Node000002" class="edge">
<title>Node17&#45;&gt;Node2</title>
<g id="a_edge23_Node000017_Node000002"><a xlink:title=" ">
<path fill="none" stroke="#63b8ff" d="M1063.32,-115.91C1080.84,-106.25 1101.44,-94.89 1117.43,-86.08"/>
<polygon fill="#63b8ff" stroke="#63b8ff" points="1061.82,-112.74 1054.75,-120.63 1065.2,-118.87 1061.82,-112.74"/>
</a>
</g>
</g>
<!-- Node18 -->
<g id="Node000018" class="node">
<title>Node18</title>
<g id="a_Node000018"><a xlink:href="LobbyScene_8cpp.html" target="_top" xlink:title=" ">
<polygon fill="white" stroke="#666666" points="1077.62,-80.12 910.12,-80.12 910.12,-60.88 1077.62,-60.88 1077.62,-80.12"/>
<text xml:space="preserve" text-anchor="middle" x="993.88" y="-66.62" font-family="Helvetica,sans-Serif" font-size="10.00">client/src/Scenes/LobbyScene.cpp</text>
</a>
</g>
</g>
<!-- Node17&#45;&gt;Node18 -->
<g id="edge24_Node000017_Node000018" class="edge">
<title>Node17&#45;&gt;Node18</title>
<g id="a_edge24_Node000017_Node000018"><a xlink:title=" ">
<path fill="none" stroke="#63b8ff" d="M1014.31,-111.44C1008.72,-100.51 1002.48,-88.33 998.39,-80.32"/>
<polygon fill="#63b8ff" stroke="#63b8ff" points="1011.03,-112.71 1018.7,-120.02 1017.26,-109.52 1011.03,-112.71"/>
</a>
</g>
</g>
<!-- Node19&#45;&gt;Node2 -->
<g id="edge26_Node000019_Node000002" class="edge">
<title>Node19&#45;&gt;Node2</title>
<g id="a_edge26_Node000019_Node000002"><a xlink:title=" ">
<path fill="none" stroke="#63b8ff" d="M1287.11,-117.92C1256.2,-107.91 1218.26,-95.61 1189.2,-86.19"/>
<polygon fill="#63b8ff" stroke="#63b8ff" points="1285.69,-121.14 1296.28,-120.9 1287.85,-114.48 1285.69,-121.14"/>
</a>
</g>
</g>
<!-- Node20 -->
<g id="Node000020" class="node">
<title>Node20</title>
<g id="a_Node000020"><a xlink:href="LoginScene_8cpp.html" target="_top" xlink:title=" ">
<polygon fill="white" stroke="#666666" points="1375.12,-80.12 1210.62,-80.12 1210.62,-60.88 1375.12,-60.88 1375.12,-80.12"/>
<text xml:space="preserve" text-anchor="middle" x="1292.88" y="-66.62" font-family="Helvetica,sans-Serif" font-size="10.00">client/src/Scenes/LoginScene.cpp</text>
</a>
</g>
</g>
<!-- Node19&#45;&gt;Node20 -->
<g id="edge27_Node000019_Node000020" class="edge">
<title>Node19&#45;&gt;Node20</title>
<g id="a_edge27_Node000019_Node000020"><a xlink:title=" ">
<path fill="none" stroke="#63b8ff" d="M1324.62,-112.45C1315.95,-101.27 1306.11,-88.57 1299.71,-80.32"/>
<polygon fill="#63b8ff" stroke="#63b8ff" points="1321.71,-114.41 1330.6,-120.17 1327.24,-110.12 1321.71,-114.41"/>
</a>
</g>
</g>
<!-- Node21&#45;&gt;Node2 -->
<g id="edge29_Node000021_Node000002" class="edge">
<title>Node21&#45;&gt;Node2</title>
<g id="a_edge29_Node000021_Node000002"><a xlink:title=" ">
<path fill="none" stroke="#63b8ff" d="M1403.7,-121.17C1314.22,-103.61 1288.86,-104.05 1201.88,-85.75 1198.93,-85.13 1195.91,-84.47 1192.87,-83.78"/>
<polygon fill="#63b8ff" stroke="#63b8ff" points="1402.96,-124.6 1413.45,-123.11 1404.32,-117.73 1402.96,-124.6"/>
</a>
</g>
</g>
<!-- Node22 -->
<g id="Node000022" class="node">
<title>Node22</title>
<g id="a_Node000022"><a xlink:href="MenuScene_8cpp.html" target="_top" xlink:title=" ">
<polygon fill="white" stroke="#666666" points="1558.5,-80.12 1393.25,-80.12 1393.25,-60.88 1558.5,-60.88 1558.5,-80.12"/>
<text xml:space="preserve" text-anchor="middle" x="1475.88" y="-66.62" font-family="Helvetica,sans-Serif" font-size="10.00">client/src/Scenes/MenuScene.cpp</text>
</a>
</g>
</g>
<!-- Node21&#45;&gt;Node22 -->
<g id="edge30_Node000021_Node000022" class="edge">
<title>Node21&#45;&gt;Node22</title>
<g id="a_edge30_Node000021_Node000022"><a xlink:title=" ">
<path fill="none" stroke="#63b8ff" d="M1472.29,-110.09C1473.27,-99.51 1474.34,-88 1475.05,-80.32"/>
<polygon fill="#63b8ff" stroke="#63b8ff" points="1468.82,-109.58 1471.38,-119.86 1475.79,-110.22 1468.82,-109.58"/>
</a>
</g>
</g>
<!-- Node23&#45;&gt;Node2 -->
<g id="edge32_Node000023_Node000002" class="edge">
<title>Node23&#45;&gt;Node2</title>
<g id="a_edge32_Node000023_Node000002"><a xlink:title=" ">
<path fill="none" stroke="#63b8ff" d="M1530.86,-121.37C1385.49,-98.01 1344.47,-110.88 1201.88,-85.75 1198.91,-85.23 1195.88,-84.64 1192.83,-84.01"/>
<polygon fill="#63b8ff" stroke="#63b8ff" points="1530.04,-124.78 1540.48,-122.95 1531.18,-117.87 1530.04,-124.78"/>
</a>
</g>
</g>
<!-- Node24 -->
<g id="Node000024" class="node">
<title>Node24</title>
<g id="a_Node000024"><a xlink:href="ModMenuScene_8cpp.html" target="_top" xlink:title=" ">
<polygon fill="white" stroke="#666666" points="1713.62,-85.75 1576.12,-85.75 1576.12,-55.25 1713.62,-55.25 1713.62,-85.75"/>
<text xml:space="preserve" text-anchor="start" x="1584.12" y="-72.25" font-family="Helvetica,sans-Serif" font-size="10.00">client/src/Scenes/ModMenu</text>
<text xml:space="preserve" text-anchor="middle" x="1644.88" y="-61" font-family="Helvetica,sans-Serif" font-size="10.00">Scene.cpp</text>
</a>
</g>
</g>
<!-- Node23&#45;&gt;Node24 -->
<g id="edge33_Node000023_Node000024" class="edge">
<title>Node23&#45;&gt;Node24</title>
<g id="a_edge33_Node000023_Node000024"><a xlink:title=" ">
<path fill="none" stroke="#63b8ff" d="M1614.5,-112.32C1621.04,-103.53 1628.26,-93.82 1634.03,-86.08"/>
<polygon fill="#63b8ff" stroke="#63b8ff" points="1611.83,-110.04 1608.67,-120.15 1617.45,-114.22 1611.83,-110.04"/>
</a>
</g>
</g>
<!-- Node25&#45;&gt;Node2 -->
<g id="edge35_Node000025_Node000002" class="edge">
<title>Node25&#45;&gt;Node2</title>
<g id="a_edge35_Node000025_Node000002"><a xlink:title=" ">
<path fill="none" stroke="#63b8ff" d="M1657.73,-121.42C1456.53,-92.06 1400.25,-117.68 1201.88,-85.75 1198.91,-85.27 1195.87,-84.72 1192.81,-84.12"/>
<polygon fill="#63b8ff" stroke="#63b8ff" points="1657.08,-124.86 1667.49,-122.87 1658.12,-117.94 1657.08,-124.86"/>
</a>
</g>
</g>
<!-- Node26 -->
<g id="Node000026" class="node">
<title>Node26</title>
<g id="a_Node000026"><a xlink:href="PauseScene_8cpp.html" target="_top" xlink:title=" ">
<polygon fill="white" stroke="#666666" points="1900.38,-80.12 1731.38,-80.12 1731.38,-60.88 1900.38,-60.88 1900.38,-80.12"/>
<text xml:space="preserve" text-anchor="middle" x="1815.88" y="-66.62" font-family="Helvetica,sans-Serif" font-size="10.00">client/src/Scenes/PauseScene.cpp</text>
</a>
</g>
</g>
<!-- Node25&#45;&gt;Node26 -->
<g id="edge36_Node000025_Node000026" class="edge">
<title>Node25&#45;&gt;Node26</title>
<g id="a_edge36_Node000025_Node000026"><a xlink:title=" ">
<path fill="none" stroke="#63b8ff" d="M1754.09,-114.82C1770.68,-103.18 1790.4,-89.36 1803.02,-80.51"/>
<polygon fill="#63b8ff" stroke="#63b8ff" points="1752.17,-111.89 1745.99,-120.5 1756.19,-117.62 1752.17,-111.89"/>
</a>
</g>
</g>
<!-- Node27&#45;&gt;Node2 -->
<g id="edge38_Node000027_Node000002" class="edge">
<title>Node27&#45;&gt;Node2</title>
<g id="a_edge38_Node000027_Node000002"><a xlink:title=" ">
<path fill="none" stroke="#63b8ff" d="M1784.8,-121.46C1527.55,-85.97 1456.18,-124.48 1201.88,-85.75 1198.9,-85.3 1195.86,-84.76 1192.8,-84.17"/>
<polygon fill="#63b8ff" stroke="#63b8ff" points="1784.11,-124.9 1794.5,-122.83 1785.08,-117.97 1784.11,-124.9"/>
</a>
</g>
</g>
<!-- Node28 -->
<g id="Node000028" class="node">
<title>Node28</title>
<g id="a_Node000028"><a xlink:href="PlayingScene_8cpp.html" target="_top" xlink:title=" ">
<polygon fill="white" stroke="#666666" points="2045.38,-85.75 1918.38,-85.75 1918.38,-55.25 2045.38,-55.25 2045.38,-85.75"/>
<text xml:space="preserve" text-anchor="start" x="1926.38" y="-72.25" font-family="Helvetica,sans-Serif" font-size="10.00">client/src/Scenes/Playing</text>
<text xml:space="preserve" text-anchor="middle" x="1981.88" y="-61" font-family="Helvetica,sans-Serif" font-size="10.00">Scene.cpp</text>
</a>
</g>
</g>
<!-- Node27&#45;&gt;Node28 -->
<g id="edge39_Node000027_Node000028" class="edge">
<title>Node27&#45;&gt;Node28</title>
<g id="a_edge39_Node000027_Node000028"><a xlink:title=" ">
<path fill="none" stroke="#63b8ff" d="M1890.86,-116.31C1910.65,-106.57 1934.12,-95.01 1952.27,-86.08"/>
<polygon fill="#63b8ff" stroke="#63b8ff" points="1889.38,-113.14 1881.96,-120.7 1892.48,-119.42 1889.38,-113.14"/>
</a>
</g>
</g>
<!-- Node29&#45;&gt;Node2 -->
<g id="edge41_Node000029_Node000002" class="edge">
<title>Node29&#45;&gt;Node2</title>
<g id="a_edge41_Node000029_Node000002"><a xlink:title=" ">
<path fill="none" stroke="#63b8ff" d="M1912.34,-121.58C1598.02,-83.57 1512.13,-131.27 1201.88,-85.75 1198.9,-85.31 1195.85,-84.79 1192.79,-84.21"/>
<polygon fill="#63b8ff" stroke="#63b8ff" points="1911.77,-125.03 1922.12,-122.78 1912.62,-118.08 1911.77,-125.03"/>
</a>
</g>
</g>
<!-- Node30 -->
<g id="Node000030" class="node">
<title>Node30</title>
<g id="a_Node000030"><a xlink:href="RoomWaitingScene_8cpp.html" target="_top" xlink:title=" ">
<polygon fill="white" stroke="#666666" points="2216.5,-85.75 2063.25,-85.75 2063.25,-55.25 2216.5,-55.25 2216.5,-85.75"/>
<text xml:space="preserve" text-anchor="start" x="2071.25" y="-72.25" font-family="Helvetica,sans-Serif" font-size="10.00">client/src/Scenes/RoomWaiting</text>
<text xml:space="preserve" text-anchor="middle" x="2139.88" y="-61" font-family="Helvetica,sans-Serif" font-size="10.00">Scene.cpp</text>
</a>
</g>
</g>
<!-- Node29&#45;&gt;Node30 -->
<g id="edge42_Node000029_Node000030" class="edge">
<title>Node29&#45;&gt;Node30</title>
<g id="a_edge42_Node000029_Node000030"><a xlink:title=" ">
<path fill="none" stroke="#63b8ff" d="M2031.24,-117C2054.74,-107.16 2083,-95.32 2104.8,-86.19"/>
<polygon fill="#63b8ff" stroke="#63b8ff" points="2030.09,-113.69 2022.22,-120.78 2032.79,-120.14 2030.09,-113.69"/>
</a>
</g>
</g>
<!-- Node31&#45;&gt;Node2 -->
<g id="edge44_Node000031_Node000002" class="edge">
<title>Node31&#45;&gt;Node2</title>
<g id="a_edge44_Node000031_Node000002"><a xlink:title=" ">
<path fill="none" stroke="#63b8ff" d="M2054.94,-121.69C1677.77,-73.53 1574.73,-138.86 1201.88,-85.75 1198.9,-85.33 1195.85,-84.82 1192.79,-84.24"/>
<polygon fill="#63b8ff" stroke="#63b8ff" points="2054.31,-125.14 2064.67,-122.96 2055.21,-118.2 2054.31,-125.14"/>
</a>
</g>
</g>
<!-- Node32 -->
<g id="Node000032" class="node">
<title>Node32</title>
<g id="a_Node000032"><a xlink:href="SettingsScene_8cpp.html" target="_top" xlink:title=" ">
<polygon fill="white" stroke="#666666" points="2365.25,-85.75 2234.5,-85.75 2234.5,-55.25 2365.25,-55.25 2365.25,-85.75"/>
<text xml:space="preserve" text-anchor="start" x="2242.5" y="-72.25" font-family="Helvetica,sans-Serif" font-size="10.00">client/src/Scenes/Settings</text>
<text xml:space="preserve" text-anchor="middle" x="2299.88" y="-61" font-family="Helvetica,sans-Serif" font-size="10.00">Scene.cpp</text>
</a>
</g>
</g>
<!-- Node31&#45;&gt;Node32 -->
<g id="edge45_Node000031_Node000032" class="edge">
<title>Node31&#45;&gt;Node32</title>
<g id="a_edge45_Node000031_Node000032"><a xlink:title=" ">
<path fill="none" stroke="#63b8ff" d="M2172.14,-117.53C2199.73,-107.58 2233.31,-95.49 2259.11,-86.19"/>
<polygon fill="#63b8ff" stroke="#63b8ff" points="2171.14,-114.17 2162.92,-120.85 2173.51,-120.75 2171.14,-114.17"/>
</a>
</g>
</g>
</g>
</svg>

<g id="navigator" transform="translate(0 0)" fill="#404254">
  <rect fill="#f2f5e9" fill-opacity="0.5" stroke="#606060" stroke-width=".5" x="0" y="0" width="60" height="60"/>
  <use id="zoomplus" xlink:href="#zoomPlus" x="17" y="9" onmousedown="handleZoom(evt,'in')"/>
  <use id="zoomminus" xlink:href="#zoomMin" x="42" y="9" onmousedown="handleZoom(evt,'out')"/>
  <use id="reset" xlink:href="#resetDef" x="30" y="36" onmousedown="handleReset()"/>
   <use id="arrowup" xlink:href="#arrowUp" x="0" y="0" onmousedown="handlePan(0,-1)"/>
  <use id="arrowright" xlink:href="#arrowRight" x="0" y="0" onmousedown="handlePan(1,0)"/>
  <use id="arrowdown" xlink:href="#arrowDown" x="0" y="0" onmousedown="handlePan(0,1)"/>
  <use id="arrowleft" xlink:href="#arrowLeft" x="0" y="0" onmousedown="handlePan(-1,0)"/>
</g>
<svg viewBox="0 0 15 15" width="100%" height="30px" preserveAspectRatio="xMaxYMin meet">
 <g id="arrow_out" transform="scale(0.3 0.3)">
  <a xlink:href="SpritePreview_8hpp__dep__incl_org.svg" target="_base">
   <rect id="button" ry="5" rx="5" y="6" x="6" height="38" width="38"
        fill="#f2f5e9" fill-opacity="0.5" stroke="#606060" stroke-width="1.0"/>
   <path id="arrow"
     d="M 11.500037,31.436501 C 11.940474,20.09759 22.043105,11.32322 32.158766,21.979434 L 37.068811,17.246167 C 37.068811,17.246167 37.088388,32 37.088388,32 L 22.160133,31.978069 C 22.160133,31.978069 26.997745,27.140456 26.997745,27.140456 C 18.528582,18.264221 13.291696,25.230495 11.500037,31.436501 z"
     style="fill:#404040;"/>
  </a>
 </g>
</svg>

<style type='text/css'>
<![CDATA[
[data-mouse-over-selected='false'] { opacity: 0.7; }
[data-mouse-over-selected='true']  { opacity: 1.0; }
]]>
</style>
<script type="application/ecmascript"><![CDATA[
document.addEventListener('DOMContentLoaded', (event) => {
  highlightEdges();
  highlightAdjacentNodes();
});
]]></script>
</svg>
