<?xml version="1.0" encoding="UTF-8" standalone="no"?>
<!DOCTYPE svg PUBLIC "-//W3C//DTD SVG 1.1//EN"
 "http://www.w3.org/Graphics/SVG/1.1/DTD/svg11.dtd">
<!-- Generated by graphviz version 14.0.5 (20251129.0259)
 -->
<!-- Title: common/include/RType/Config/SpriteMapConfig.hpp Pages: 1 -->
<!--zoomable 172 -->

<svg id="main" version="1.1" xmlns="http://www.w3.org/2000/svg" xmlns:xlink="http://www.w3.org/1999/xlink" xml:space="preserve" onload="init(evt)">

<style type="text/css"><![CDATA[
.node, .edge {opacity: 0.7;}
.node.selected, .edge.selected {opacity: 1;}
.edge:hover path { stroke: red; }
.edge:hover polygon { stroke: red; fill: red; }
]]></style>

<defs>
  <circle id="rim" cx="0" cy="0" r="7"/>
  <circle id="rim2" cx="0" cy="0" r="3.5"/>
  <g id="zoomPlus">
    <use xlink:href="#rim" fill="#404040"><set attributeName="fill" to="#808080" begin="zoomplus.mouseover" end="zoomplus.mouseout"/></use>
    <path d="M-4,0h8M0,-4v8" fill="none" stroke="white" stroke-width="1.5" pointer-events="none"/>
  </g>
  <g id="zoomMin">
    <use xlink:href="#rim" fill="#404040"><set attributeName="fill" to="#808080" begin="zoomminus.mouseover" end="zoomminus.mouseout"/></use>
    <path d="M-4,0h8" fill="none" stroke="white" stroke-width="1.5" pointer-events="none"/>
  </g>
  <g id="arrowUp" transform="translate(30 24)">
    <use xlink:href="#rim"/>
    <path pointer-events="none" fill="none" stroke="white" stroke-width="1.5" d="M0,-3.0v7 M-2.5,-0.5L0,-3.0L2.5,-0.5"/>
  </g>
  <g id="arrowRight" transform="rotate(90) translate(36 -43)">
    <use xlink:href="#rim"/>
    <path pointer-events="none" fill="none" stroke="white" stroke-width="1.5" d="M0,-3.0v7 M-2.5,-0.5L0,-3.0L2.5,-0.5"/>
  </g>
  <g id="arrowDown" transform="rotate(180) translate(-30 -48)">
    <use xlink:href="#rim"/>
    <path pointer-events="none" fill="none" stroke="white" stroke-width="1.5" d="M0,-3.0v7 M-2.5,-0.5L0,-3.0L2.5,-0.5"/>
  </g>
  <g id="arrowLeft" transform="rotate(270) translate(-36 17)">
    <use xlink:href="#rim"/>
    <path pointer-events="none" fill="none" stroke="white" stroke-width="1.5" d="M0,-3.0v7 M-2.5,-0.5L0,-3.0L2.5,-0.5"/>
  </g>
  <g id="resetDef">
    <use xlink:href="#rim2" fill="#404040"><set attributeName="fill" to="#808080" begin="reset.mouseover" end="reset.mouseout"/></use>
  </g>
</defs>
<script type="application/ecmascript">
var viewWidth = 1009;
var viewHeight = 172;
var sectionId = 'dynsection-1';
</script>
<script type="application/ecmascript" xlink:href="svg.min.js"/>
<svg id="graph" class="graph">
<g id="viewport">
<title>common/include/RType/Config/SpriteMapConfig.hpp</title>
<!-- Node1 -->
<g id="Node000001" class="node">
<title>Node1</title>
<g id="a_Node000001"><a xlink:title=" ">
<polygon fill="#999999" stroke="#666666" points="723.75,-163.5 581.75,-163.5 581.75,-133 723.75,-133 723.75,-163.5"/>
<text xml:space="preserve" text-anchor="start" x="589.75" y="-150" font-family="Helvetica,sans-Serif" font-size="10.00">common/include/RType</text>
<text xml:space="preserve" text-anchor="middle" x="652.75" y="-138.75" font-family="Helvetica,sans-Serif" font-size="10.00">/Config/SpriteMapConfig.hpp</text>
</a>
</g>
</g>
<!-- Node2 -->
<g id="Node000002" class="node">
<title>Node2</title>
<g id="a_Node000002"><a xlink:href="SpriteCustomizer_8hpp.html" target="_top" xlink:title=" ">
<polygon fill="white" stroke="#666666" points="667.12,-97 554.38,-97 554.38,-66.5 667.12,-66.5 667.12,-97"/>
<text xml:space="preserve" text-anchor="start" x="562.38" y="-83.5" font-family="Helvetica,sans-Serif" font-size="10.00">client/include/Game</text>
<text xml:space="preserve" text-anchor="middle" x="610.75" y="-72.25" font-family="Helvetica,sans-Serif" font-size="10.00">/SpriteCustomizer.hpp</text>
</a>
</g>
</g>
<!-- Node1&#45;&gt;Node2 -->
<g id="edge1_Node000001_Node000002" class="edge">
<title>Node1&#45;&gt;Node2</title>
<g id="a_edge1_Node000001_Node000002"><a xlink:title=" ">
<path fill="none" stroke="#63b8ff" d="M636.96,-123.01C631.34,-114.37 625.18,-104.91 620.24,-97.33"/>
<polygon fill="#63b8ff" stroke="#63b8ff" points="634,-124.88 642.39,-131.35 639.87,-121.06 634,-124.88"/>
</a>
</g>
</g>
<!-- Node6 -->
<g id="Node000006" class="node">
<title>Node6</title>
<g id="a_Node000006"><a xlink:href="ModMenuScene_8cpp.html" target="_top" xlink:title=" ">
<polygon fill="white" stroke="#666666" points="1000.5,-30.5 863,-30.5 863,0 1000.5,0 1000.5,-30.5"/>
<text xml:space="preserve" text-anchor="start" x="871" y="-17" font-family="Helvetica,sans-Serif" font-size="10.00">client/src/Scenes/ModMenu</text>
<text xml:space="preserve" text-anchor="middle" x="931.75" y="-5.75" font-family="Helvetica,sans-Serif" font-size="10.00">Scene.cpp</text>
</a>
</g>
</g>
<!-- Node1&#45;&gt;Node6 -->
<g id="edge8_Node000001_Node000006" class="edge">
<title>Node1&#45;&gt;Node6</title>
<g id="a_edge8_Node000001_Node000006"><a xlink:title=" ">
<path fill="none" stroke="#63b8ff" d="M694.29,-127.74C750.74,-101.24 850.39,-54.45 900.76,-30.8"/>
<polygon fill="#63b8ff" stroke="#63b8ff" points="692.88,-124.54 685.31,-131.96 695.85,-130.88 692.88,-124.54"/>
</a>
</g>
</g>
<!-- Node3 -->
<g id="Node000003" class="node">
<title>Node3</title>
<g id="a_Node000003"><a xlink:href="Application_8cpp.html" target="_top" xlink:title=" ">
<polygon fill="white" stroke="#666666" points="149.5,-24.88 0,-24.88 0,-5.63 149.5,-5.63 149.5,-24.88"/>
<text xml:space="preserve" text-anchor="middle" x="74.75" y="-11.38" font-family="Helvetica,sans-Serif" font-size="10.00">client/src/Core/Application.cpp</text>
</a>
</g>
</g>
<!-- Node2&#45;&gt;Node3 -->
<g id="edge2_Node000002_Node000003" class="edge">
<title>Node2&#45;&gt;Node3</title>
<g id="a_edge2_Node000002_Node000003"><a xlink:title=" ">
<path fill="none" stroke="#63b8ff" d="M542.66,-74.41C454.06,-65.87 294.52,-49.55 158.75,-30.5 147.91,-28.98 136.32,-27.15 125.32,-25.31"/>
<polygon fill="#63b8ff" stroke="#63b8ff" points="542.1,-77.87 552.39,-75.34 542.77,-70.9 542.1,-77.87"/>
</a>
</g>
</g>
<!-- Node4 -->
<g id="Node000004" class="node">
<title>Node4</title>
<g id="a_Node000004"><a xlink:href="EntityBuilder_8cpp.html" target="_top" xlink:title=" ">
<polygon fill="white" stroke="#666666" points="329.5,-24.88 168,-24.88 168,-5.63 329.5,-5.63 329.5,-24.88"/>
<text xml:space="preserve" text-anchor="middle" x="248.75" y="-11.38" font-family="Helvetica,sans-Serif" font-size="10.00">client/src/Game/EntityBuilder.cpp</text>
</a>
</g>
</g>
<!-- Node2&#45;&gt;Node4 -->
<g id="edge3_Node000002_Node000004" class="edge">
<title>Node2&#45;&gt;Node4</title>
<g id="a_edge3_Node000002_Node000004"><a xlink:title=" ">
<path fill="none" stroke="#63b8ff" d="M543.21,-68.72C472.69,-56.15 363.67,-36.73 299.94,-25.37"/>
<polygon fill="#63b8ff" stroke="#63b8ff" points="542.24,-72.1 552.7,-70.41 543.47,-65.21 542.24,-72.1"/>
</a>
</g>
</g>
<!-- Node5 -->
<g id="Node000005" class="node">
<title>Node5</title>
<g id="a_Node000005"><a xlink:href="SpriteCustomizer_8cpp.html" target="_top" xlink:title=" ">
<polygon fill="white" stroke="#666666" points="529.62,-24.88 347.88,-24.88 347.88,-5.63 529.62,-5.63 529.62,-24.88"/>
<text xml:space="preserve" text-anchor="middle" x="438.75" y="-11.38" font-family="Helvetica,sans-Serif" font-size="10.00">client/src/Game/SpriteCustomizer.cpp</text>
</a>
</g>
</g>
<!-- Node2&#45;&gt;Node5 -->
<g id="edge4_Node000002_Node000005" class="edge">
<title>Node2&#45;&gt;Node5</title>
<g id="a_edge4_Node000002_Node000005"><a xlink:title=" ">
<path fill="none" stroke="#63b8ff" d="M561.12,-62.14C528.82,-50.03 488.13,-34.77 462.78,-25.26"/>
<polygon fill="#63b8ff" stroke="#63b8ff" points="559.71,-65.35 570.3,-65.58 562.17,-58.79 559.71,-65.35"/>
</a>
</g>
</g>
<!-- Node2&#45;&gt;Node6 -->
<g id="edge5_Node000002_Node000006" class="edge">
<title>Node2&#45;&gt;Node6</title>
<g id="a_edge5_Node000002_Node000006"><a xlink:title=" ">
<path fill="none" stroke="#63b8ff" d="M678.6,-67.12C732.68,-56.25 808.1,-41.09 862.54,-30.16"/>
<polygon fill="#63b8ff" stroke="#63b8ff" points="678,-63.67 668.88,-69.07 679.38,-70.53 678,-63.67"/>
</a>
</g>
</g>
<!-- Node7 -->
<g id="Node000007" class="node">
<title>Node7</title>
<g id="a_Node000007"><a xlink:href="PlayingScene_8cpp.html" target="_top" xlink:title=" ">
<polygon fill="white" stroke="#666666" points="674.25,-30.5 547.25,-30.5 547.25,0 674.25,0 674.25,-30.5"/>
<text xml:space="preserve" text-anchor="start" x="555.25" y="-17" font-family="Helvetica,sans-Serif" font-size="10.00">client/src/Scenes/Playing</text>
<text xml:space="preserve" text-anchor="middle" x="610.75" y="-5.75" font-family="Helvetica,sans-Serif" font-size="10.00">Scene.cpp</text>
</a>
</g>
</g>
<!-- Node2&#45;&gt;Node7 -->
<g id="edge6_Node000002_Node000007" class="edge">
<title>Node2&#45;&gt;Node7</title>
<g id="a_edge6_Node000002_Node000007"><a xlink:title=" ">
<path fill="none" stroke="#63b8ff" d="M610.75,-54.81C610.75,-46.64 610.75,-37.91 610.75,-30.83"/>
<polygon fill="#63b8ff" stroke="#63b8ff" points="607.25,-54.6 610.75,-64.6 614.25,-54.6 607.25,-54.6"/>
</a>
</g>
</g>
<!-- Node8 -->
<g id="Node000008" class="node">
<title>Node8</title>
<g id="a_Node000008"><a xlink:href="RoomWaitingScene_8cpp.html" target="_top" xlink:title=" ">
<polygon fill="white" stroke="#666666" points="845.38,-30.5 692.12,-30.5 692.12,0 845.38,0 845.38,-30.5"/>
<text xml:space="preserve" text-anchor="start" x="700.12" y="-17" font-family="Helvetica,sans-Serif" font-size="10.00">client/src/Scenes/RoomWaiting</text>
<text xml:space="preserve" text-anchor="middle" x="768.75" y="-5.75" font-family="Helvetica,sans-Serif" font-size="10.00">Scene.cpp</text>
</a>
</g>
</g>
<!-- Node2&#45;&gt;Node8 -->
<g id="edge7_Node000002_Node000008" class="edge">
<title>Node2&#45;&gt;Node8</title>
<g id="a_edge7_Node000002_Node000008"><a xlink:title=" ">
<path fill="none" stroke="#63b8ff" d="M656.97,-61.88C681.14,-52.01 710.29,-40.11 732.77,-30.94"/>
<polygon fill="#63b8ff" stroke="#63b8ff" points="655.94,-58.52 648,-65.54 658.59,-65 655.94,-58.52"/>
</a>
</g>
</g>
</g>
</svg>

<g id="navigator" transform="translate(0 0)" fill="#404254">
  <rect fill="#f2f5e9" fill-opacity="0.5" stroke="#606060" stroke-width=".5" x="0" y="0" width="60" height="60"/>
  <use id="zoomplus" xlink:href="#zoomPlus" x="17" y="9" onmousedown="handleZoom(evt,'in')"/>
  <use id="zoomminus" xlink:href="#zoomMin" x="42" y="9" onmousedown="handleZoom(evt,'out')"/>
  <use id="reset" xlink:href="#resetDef" x="30" y="36" onmousedown="handleReset()"/>
   <use id="arrowup" xlink:href="#arrowUp" x="0" y="0" onmousedown="handlePan(0,-1)"/>
  <use id="arrowright" xlink:href="#arrowRight" x="0" y="0" onmousedown="handlePan(1,0)"/>
  <use id="arrowdown" xlink:href="#arrowDown" x="0" y="0" onmousedown="handlePan(0,1)"/>
  <use id="arrowleft" xlink:href="#arrowLeft" x="0" y="0" onmousedown="handlePan(-1,0)"/>
</g>
<svg viewBox="0 0 15 15" width="100%" height="30px" preserveAspectRatio="xMaxYMin meet">
 <g id="arrow_out" transform="scale(0.3 0.3)">
  <a xlink:href="SpriteMapConfig_8hpp__dep__incl_org.svg" target="_base">
   <rect id="button" ry="5" rx="5" y="6" x="6" height="38" width="38"
        fill="#f2f5e9" fill-opacity="0.5" stroke="#606060" stroke-width="1.0"/>
   <path id="arrow"
     d="M 11.500037,31.436501 C 11.940474,20.09759 22.043105,11.32322 32.158766,21.979434 L 37.068811,17.246167 C 37.068811,17.246167 37.088388,32 37.088388,32 L 22.160133,31.978069 C 22.160133,31.978069 26.997745,27.140456 26.997745,27.140456 C 18.528582,18.264221 13.291696,25.230495 11.500037,31.436501 z"
     style="fill:#404040;"/>
  </a>
 </g>
</svg>

<style type='text/css'>
<![CDATA[
[data-mouse-over-selected='false'] { opacity: 0.7; }
[data-mouse-over-selected='true']  { opacity: 1.0; }
]]>
</style>
<script type="application/ecmascript"><![CDATA[
document.addEventListener('DOMContentLoaded', (event) => {
  highlightEdges();
  highlightAdjacentNodes();
});
]]></script>
</svg>
