<?xml version="1.0" encoding="UTF-8" standalone="no"?>
<!DOCTYPE svg PUBLIC "-//W3C//DTD SVG 1.1//EN"
 "http://www.w3.org/Graphics/SVG/1.1/DTD/svg11.dtd">
<!-- Generated by graphviz version 14.0.5 (20251129.0259)
 -->
<!-- Title: client/include/Game/SpriteCustomizer.hpp Pages: 1 -->
<svg width="348pt" height="204pt"
 viewBox="0.00 0.00 348.00 204.00" xmlns="http://www.w3.org/2000/svg" xmlns:xlink="http://www.w3.org/1999/xlink">
<g id="graph0" class="graph" transform="scale(1 1) rotate(0) translate(4 200.25)">
<title>client/include/Game/SpriteCustomizer.hpp</title>
<!-- Node1 -->
<g id="Node000001" class="node">
<title>Node1</title>
<g id="a_Node000001"><a xlink:title=" ">
<polygon fill="#999999" stroke="#666666" points="135.38,-196.25 22.62,-196.25 22.62,-165.75 135.38,-165.75 135.38,-196.25"/>
<text xml:space="preserve" text-anchor="start" x="30.62" y="-182.75" font-family="Helvetica,sans-Serif" font-size="10.00">client/include/Game</text>
<text xml:space="preserve" text-anchor="middle" x="79" y="-171.5" font-family="Helvetica,sans-Serif" font-size="10.00">/SpriteCustomizer.hpp</text>
</a>
</g>
</g>
<!-- Node2 -->
<g id="Node000002" class="node">
<title>Node2</title>
<g id="a_Node000002"><a xlink:title=" ">
<polygon fill="#e0e0e0" stroke="#999999" points="40,-19.25 0,-19.25 0,0 40,0 40,-19.25"/>
<text xml:space="preserve" text-anchor="middle" x="20" y="-5.75" font-family="Helvetica,sans-Serif" font-size="10.00">string</text>
</a>
</g>
</g>
<!-- Node1&#45;&gt;Node2 -->
<g id="edge1_Node000001_Node000002" class="edge">
<title>Node1&#45;&gt;Node2</title>
<g id="a_edge1_Node000001_Node000002"><a xlink:title=" ">
<path fill="none" stroke="#63b8ff" d="M62.43,-165.37C53.09,-156.12 42.1,-143.38 36,-129.75 21.48,-97.3 19.2,-55.28 19.3,-30.8"/>
<polygon fill="#63b8ff" stroke="#63b8ff" points="22.8,-31.04 19.5,-20.97 15.8,-30.9 22.8,-31.04"/>
</a>
</g>
</g>
<!-- Node3 -->
<g id="Node000003" class="node">
<title>Node3</title>
<g id="a_Node000003"><a xlink:title=" ">
<polygon fill="#e0e0e0" stroke="#999999" points="140.38,-19.25 57.62,-19.25 57.62,0 140.38,0 140.38,-19.25"/>
<text xml:space="preserve" text-anchor="middle" x="99" y="-5.75" font-family="Helvetica,sans-Serif" font-size="10.00">unordered_map</text>
</a>
</g>
</g>
<!-- Node1&#45;&gt;Node3 -->
<g id="edge2_Node000001_Node000003" class="edge">
<title>Node1&#45;&gt;Node3</title>
<g id="a_edge2_Node000001_Node000003"><a xlink:title=" ">
<path fill="none" stroke="#63b8ff" d="M64.51,-165.62C56.16,-156.27 46.46,-143.34 42,-129.75 39.33,-121.62 39.81,-118.77 42,-110.5 50.29,-79.26 70.89,-47.59 84.92,-28.52"/>
<polygon fill="#63b8ff" stroke="#63b8ff" points="87.56,-30.83 90.82,-20.75 81.98,-26.6 87.56,-30.83"/>
</a>
</g>
</g>
<!-- Node4 -->
<g id="Node000004" class="node">
<title>Node4</title>
<g id="a_Node000004"><a xlink:title=" ">
<polygon fill="#e0e0e0" stroke="#999999" points="300.5,-129.75 239.5,-129.75 239.5,-110.5 300.5,-110.5 300.5,-129.75"/>
<text xml:space="preserve" text-anchor="middle" x="270" y="-116.25" font-family="Helvetica,sans-Serif" font-size="10.00">filesystem</text>
</a>
</g>
</g>
<!-- Node1&#45;&gt;Node4 -->
<g id="edge3_Node000001_Node000004" class="edge">
<title>Node1&#45;&gt;Node4</title>
<g id="a_edge3_Node000001_Node000004"><a xlink:title=" ">
<path fill="none" stroke="#63b8ff" d="M126.7,-165.3C158.35,-155.54 199.43,-142.88 229.49,-133.61"/>
<polygon fill="#63b8ff" stroke="#63b8ff" points="230.46,-136.98 238.98,-130.69 228.39,-130.29 230.46,-136.98"/>
</a>
</g>
</g>
<!-- Node5 -->
<g id="Node000005" class="node">
<title>Node5</title>
<g id="a_Node000005"><a xlink:href="SpriteMapConfig_8hpp.html" target="_top" xlink:title=" ">
<polygon fill="white" stroke="#666666" points="221.25,-129.75 50.75,-129.75 50.75,-110.5 221.25,-110.5 221.25,-129.75"/>
<text xml:space="preserve" text-anchor="middle" x="136" y="-116.25" font-family="Helvetica,sans-Serif" font-size="10.00">RType/Config/SpriteMapConfig.hpp</text>
</a>
</g>
</g>
<!-- Node1&#45;&gt;Node5 -->
<g id="edge4_Node000001_Node000005" class="edge">
<title>Node1&#45;&gt;Node5</title>
<g id="a_edge4_Node000001_Node000005"><a xlink:title=" ">
<path fill="none" stroke="#63b8ff" d="M93.09,-165.45C101.02,-157.26 110.96,-146.98 119.28,-138.39"/>
<polygon fill="#63b8ff" stroke="#63b8ff" points="121.72,-140.91 126.16,-131.29 116.69,-136.04 121.72,-140.91"/>
</a>
</g>
</g>
<!-- Node5&#45;&gt;Node2 -->
<g id="edge12_Node000005_Node000002" class="edge">
<title>Node5&#45;&gt;Node2</title>
<g id="a_edge12_Node000005_Node000002"><a xlink:title=" ">
<path fill="none" stroke="#63b8ff" d="M126.51,-110.25C107.13,-92.13 62.77,-50.63 37.85,-27.32"/>
<polygon fill="#63b8ff" stroke="#63b8ff" points="40.42,-24.94 30.73,-20.66 35.64,-30.05 40.42,-24.94"/>
</a>
</g>
</g>
<!-- Node5&#45;&gt;Node3 -->
<g id="edge11_Node000005_Node000003" class="edge">
<title>Node5&#45;&gt;Node3</title>
<g id="a_edge11_Node000005_Node000003"><a xlink:title=" ">
<path fill="none" stroke="#63b8ff" d="M132.17,-110.33C128.34,-101.39 122.41,-87.12 118,-74.5 112.85,-59.77 107.85,-42.83 104.28,-30.09"/>
<polygon fill="#63b8ff" stroke="#63b8ff" points="107.76,-29.56 101.73,-20.85 101.01,-31.42 107.76,-29.56"/>
</a>
</g>
</g>
<!-- Node6 -->
<g id="Node000006" class="node">
<title>Node6</title>
<g id="a_Node000006"><a xlink:href="SimpleJsonParser_8hpp.html" target="_top" xlink:title=" ">
<polygon fill="white" stroke="#666666" points="240.75,-74.5 127.25,-74.5 127.25,-55.25 240.75,-55.25 240.75,-74.5"/>
<text xml:space="preserve" text-anchor="middle" x="184" y="-61" font-family="Helvetica,sans-Serif" font-size="10.00">SimpleJsonParser.hpp</text>
</a>
</g>
</g>
<!-- Node5&#45;&gt;Node6 -->
<g id="edge5_Node000005_Node000006" class="edge">
<title>Node5&#45;&gt;Node6</title>
<g id="a_edge5_Node000005_Node000006"><a xlink:title=" ">
<path fill="none" stroke="#63b8ff" d="M143.93,-110.33C150.56,-102.98 160.22,-92.26 168.39,-83.19"/>
<polygon fill="#63b8ff" stroke="#63b8ff" points="170.79,-85.75 174.89,-75.98 165.59,-81.07 170.79,-85.75"/>
</a>
</g>
</g>
<!-- Node7 -->
<g id="Node000007" class="node">
<title>Node7</title>
<g id="a_Node000007"><a xlink:title=" ">
<polygon fill="#e0e0e0" stroke="#999999" points="270.5,-19.25 221.5,-19.25 221.5,0 270.5,0 270.5,-19.25"/>
<text xml:space="preserve" text-anchor="middle" x="246" y="-5.75" font-family="Helvetica,sans-Serif" font-size="10.00">fstream</text>
</a>
</g>
</g>
<!-- Node5&#45;&gt;Node7 -->
<g id="edge13_Node000005_Node000007" class="edge">
<title>Node5&#45;&gt;Node7</title>
<g id="a_edge13_Node000005_Node000007"><a xlink:title=" ">
<path fill="none" stroke="#63b8ff" d="M195.37,-110.01C216.19,-103.65 237.48,-92.85 250,-74.5 258.82,-61.58 256.73,-43.56 253.06,-29.95"/>
<polygon fill="#63b8ff" stroke="#63b8ff" points="256.52,-29.26 250.13,-20.81 249.85,-31.4 256.52,-29.26"/>
</a>
</g>
</g>
<!-- Node8 -->
<g id="Node000008" class="node">
<title>Node8</title>
<g id="a_Node000008"><a xlink:title=" ">
<polygon fill="#e0e0e0" stroke="#999999" points="339.62,-19.25 288.38,-19.25 288.38,0 339.62,0 339.62,-19.25"/>
<text xml:space="preserve" text-anchor="middle" x="314" y="-5.75" font-family="Helvetica,sans-Serif" font-size="10.00">sstream</text>
</a>
</g>
</g>
<!-- Node5&#45;&gt;Node8 -->
<g id="edge14_Node000005_Node000008" class="edge">
<title>Node5&#45;&gt;Node8</title>
<g id="a_edge14_Node000005_Node000008"><a xlink:title=" ">
<path fill="none" stroke="#63b8ff" d="M184.46,-110.05C210.72,-103.4 242.68,-92.32 267,-74.5 283.28,-62.57 296.33,-43.35 304.51,-29.11"/>
<polygon fill="#63b8ff" stroke="#63b8ff" points="307.37,-31.18 309.06,-20.72 301.22,-27.84 307.37,-31.18"/>
</a>
</g>
</g>
<!-- Node6&#45;&gt;Node2 -->
<g id="edge6_Node000006_Node000002" class="edge">
<title>Node6&#45;&gt;Node2</title>
<g id="a_edge6_Node000006_Node000002"><a xlink:title=" ">
<path fill="none" stroke="#63b8ff" d="M156.18,-54.84C127.01,-45.37 81.28,-30.52 50.97,-20.68"/>
<polygon fill="#63b8ff" stroke="#63b8ff" points="52.21,-17.4 41.62,-17.65 50.05,-24.06 52.21,-17.4"/>
</a>
</g>
</g>
<!-- Node6&#45;&gt;Node3 -->
<g id="edge7_Node000006_Node000003" class="edge">
<title>Node6&#45;&gt;Node3</title>
<g id="a_edge7_Node000006_Node000003"><a xlink:title=" ">
<path fill="none" stroke="#63b8ff" d="M169.58,-54.84C156.88,-46.89 138.13,-35.14 123.14,-25.75"/>
<polygon fill="#63b8ff" stroke="#63b8ff" points="125.1,-22.85 114.77,-20.51 121.39,-28.78 125.1,-22.85"/>
</a>
</g>
</g>
<!-- Node6&#45;&gt;Node7 -->
<g id="edge8_Node000006_Node000007" class="edge">
<title>Node6&#45;&gt;Node7</title>
<g id="a_edge8_Node000006_Node000007"><a xlink:title=" ">
<path fill="none" stroke="#63b8ff" d="M194.52,-54.84C203.39,-47.22 216.31,-36.12 226.99,-26.95"/>
<polygon fill="#63b8ff" stroke="#63b8ff" points="229.18,-29.68 234.49,-20.51 224.62,-24.37 229.18,-29.68"/>
</a>
</g>
</g>
<!-- Node6&#45;&gt;Node8 -->
<g id="edge9_Node000006_Node000008" class="edge">
<title>Node6&#45;&gt;Node8</title>
<g id="a_edge9_Node000006_Node000008"><a xlink:title=" ">
<path fill="none" stroke="#63b8ff" d="M206.05,-54.84C226.69,-46.39 257.78,-33.65 281.3,-24.02"/>
<polygon fill="#63b8ff" stroke="#63b8ff" points="282.51,-27.31 290.44,-20.28 279.86,-20.83 282.51,-27.31"/>
</a>
</g>
</g>
<!-- Node9 -->
<g id="Node000009" class="node">
<title>Node9</title>
<g id="a_Node000009"><a xlink:title=" ">
<polygon fill="#e0e0e0" stroke="#999999" points="203.62,-19.25 158.38,-19.25 158.38,0 203.62,0 203.62,-19.25"/>
<text xml:space="preserve" text-anchor="middle" x="181" y="-5.75" font-family="Helvetica,sans-Serif" font-size="10.00">cctype</text>
</a>
</g>
</g>
<!-- Node6&#45;&gt;Node9 -->
<g id="edge10_Node000006_Node000009" class="edge">
<title>Node6&#45;&gt;Node9</title>
<g id="a_edge10_Node000006_Node000009"><a xlink:title=" ">
<path fill="none" stroke="#63b8ff" d="M183.5,-55.08C183.13,-48.49 182.61,-39.21 182.14,-30.82"/>
<polygon fill="#63b8ff" stroke="#63b8ff" points="185.65,-30.91 181.59,-21.12 178.66,-31.3 185.65,-30.91"/>
</a>
</g>
</g>
</g>
</svg>
