<?xml version="1.0" encoding="UTF-8" standalone="no"?>
<!DOCTYPE svg PUBLIC "-//W3C//DTD SVG 1.1//EN"
 "http://www.w3.org/Graphics/SVG/1.1/DTD/svg11.dtd">
<!-- Generated by graphviz version 14.0.5 (20251129.0259)
 -->
<!-- Title: rtp::client::scenes::EntityCategory Pages: 1 -->
<!--zoomable 575 -->

<svg id="main" version="1.1" xmlns="http://www.w3.org/2000/svg" xmlns:xlink="http://www.w3.org/1999/xlink" xml:space="preserve" onload="init(evt)">

<style type="text/css"><![CDATA[
.node, .edge {opacity: 0.7;}
.node.selected, .edge.selected {opacity: 1;}
.edge:hover path { stroke: red; }
.edge:hover polygon { stroke: red; fill: red; }
]]></style>

<defs>
  <circle id="rim" cx="0" cy="0" r="7"/>
  <circle id="rim2" cx="0" cy="0" r="3.5"/>
  <g id="zoomPlus">
    <use xlink:href="#rim" fill="#404040"><set attributeName="fill" to="#808080" begin="zoomplus.mouseover" end="zoomplus.mouseout"/></use>
    <path d="M-4,0h8M0,-4v8" fill="none" stroke="white" stroke-width="1.5" pointer-events="none"/>
  </g>
  <g id="zoomMin">
    <use xlink:href="#rim" fill="#404040"><set attributeName="fill" to="#808080" begin="zoomminus.mouseover" end="zoomminus.mouseout"/></use>
    <path d="M-4,0h8" fill="none" stroke="white" stroke-width="1.5" pointer-events="none"/>
  </g>
  <g id="arrowUp" transform="translate(30 24)">
    <use xlink:href="#rim"/>
    <path pointer-events="none" fill="none" stroke="white" stroke-width="1.5" d="M0,-3.0v7 M-2.5,-0.5L0,-3.0L2.5,-0.5"/>
  </g>
  <g id="arrowRight" transform="rotate(90) translate(36 -43)">
    <use xlink:href="#rim"/>
    <path pointer-events="none" fill="none" stroke="white" stroke-width="1.5" d="M0,-3.0v7 M-2.5,-0.5L0,-3.0L2.5,-0.5"/>
  </g>
  <g id="arrowDown" transform="rotate(180) translate(-30 -48)">
    <use xlink:href="#rim"/>
    <path pointer-events="none" fill="none" stroke="white" stroke-width="1.5" d="M0,-3.0v7 M-2.5,-0.5L0,-3.0L2.5,-0.5"/>
  </g>
  <g id="arrowLeft" transform="rotate(270) translate(-36 17)">
    <use xlink:href="#rim"/>
    <path pointer-events="none" fill="none" stroke="white" stroke-width="1.5" d="M0,-3.0v7 M-2.5,-0.5L0,-3.0L2.5,-0.5"/>
  </g>
  <g id="resetDef">
    <use xlink:href="#rim2" fill="#404040"><set attributeName="fill" to="#808080" begin="reset.mouseover" end="reset.mouseout"/></use>
  </g>
</defs>
<script type="application/ecmascript">
var viewWidth = 275;
var viewHeight = 575;
var sectionId = 'dynsection-0';
</script>
<script type="application/ecmascript" xlink:href="svg.min.js"/>
<svg id="graph" class="graph">
<g id="viewport">
<title>rtp::client::scenes::EntityCategory</title>
<!-- Node1 -->
<g id="Node000001" class="node">
<title>Node1</title>
<g id="a_Node000001"><a xlink:title="Category of entities with their sprites.">
<polygon fill="#999999" stroke="none" points="231.25,-61 145.25,-61 145.25,0 231.25,0 231.25,-61"/>
<text xml:space="preserve" text-anchor="start" x="149.25" y="-47.5" font-family="Helvetica,sans-Serif" font-size="10.00">rtp::client::scenes</text>
<text xml:space="preserve" text-anchor="start" x="152.62" y="-36.25" font-family="Helvetica,sans-Serif" font-size="10.00">::EntityCategory</text>
<text xml:space="preserve" text-anchor="start" x="186.75" y="-21" font-family="Helvetica,sans-Serif" font-size="10.00"> </text>
<text xml:space="preserve" text-anchor="start" x="186.75" y="-5.75" font-family="Helvetica,sans-Serif" font-size="10.00"> </text>
<polygon fill="#666666" stroke="#666666" points="145.25,-32.5 145.25,-32.5 231.25,-32.5 231.25,-32.5 145.25,-32.5"/>
<polygon fill="#666666" stroke="#666666" points="145.25,-17.25 145.25,-17.25 231.25,-17.25 231.25,-17.25 145.25,-17.25"/>
<polygon fill="none" stroke="#666666" points="145.25,0 145.25,-61 231.25,-61 231.25,0 145.25,0"/>
</a>
</g>
</g>
<!-- Node2 -->
<g id="Node000002" class="node">
<title>Node2</title>
<g id="a_Node000002"><a xlink:title=" ">
<polygon fill="white" stroke="none" points="221,-468.75 169.5,-468.75 169.5,-419 221,-419 221,-468.75"/>
<text xml:space="preserve" text-anchor="start" x="173.5" y="-455.25" font-family="Helvetica,sans-Serif" font-size="10.00">std::string</text>
<text xml:space="preserve" text-anchor="start" x="193.75" y="-440" font-family="Helvetica,sans-Serif" font-size="10.00"> </text>
<text xml:space="preserve" text-anchor="start" x="193.75" y="-424.75" font-family="Helvetica,sans-Serif" font-size="10.00"> </text>
<polygon fill="#666666" stroke="#666666" points="169.5,-451.5 169.5,-451.5 221,-451.5 221,-451.5 169.5,-451.5"/>
<polygon fill="#666666" stroke="#666666" points="169.5,-436.25 169.5,-436.25 221,-436.25 221,-436.25 169.5,-436.25"/>
<polygon fill="none" stroke="#666666" points="169.5,-419 169.5,-468.75 221,-468.75 221,-419 169.5,-419"/>
</a>
</g>
</g>
<!-- Node2&#45;&gt;Node1 -->
<g id="edge1_Node000001_Node000002" class="edge">
<title>Node2&#45;&gt;Node1</title>
<g id="a_edge1_Node000001_Node000002"><a xlink:title=" ">
<path fill="none" stroke="#63b8ff" d="M212.41,-419.08C215.64,-413.41 218.54,-407.2 220.25,-401 224.09,-387.08 220.37,-382.94 220.25,-368.5 219.14,-239.82 249.21,-203.12 215.25,-79 214.67,-76.89 213.98,-74.78 213.2,-72.68"/>
<polygon fill="none" stroke="#63b8ff" points="213.21,-72.69 207.1,-68.85 208.3,-61.74 214.4,-65.58 213.21,-72.69"/>
</a>
</g>
<text xml:space="preserve" text-anchor="start" x="234.44" y="-205.62" font-family="Helvetica,sans-Serif" font-size="10.00" fill="grey">+name</text>
</g>
<!-- Node5 -->
<g id="Node000005" class="node">
<title>Node5</title>
<g id="a_Node000005"><a xlink:href="structrtp_1_1client_1_1scenes_1_1EntitySpriteInfo.html" target="_top" xlink:title="Information about an entity&#39;s sprite for the mod menu.">
<polygon fill="white" stroke="none" points="200.25,-350.5 114.25,-350.5 114.25,-243.75 200.25,-243.75 200.25,-350.5"/>
<text xml:space="preserve" text-anchor="start" x="118.25" y="-337" font-family="Helvetica,sans-Serif" font-size="10.00">rtp::client::scenes</text>
<text xml:space="preserve" text-anchor="start" x="120.5" y="-325.75" font-family="Helvetica,sans-Serif" font-size="10.00">::EntitySpriteInfo</text>
<text xml:space="preserve" text-anchor="start" x="124" y="-310.5" font-family="Helvetica,sans-Serif" font-size="10.00">+</text>
<text xml:space="preserve" text-anchor="start" x="139.75" y="-310.5" font-family="Helvetica,sans-Serif" font-size="10.00">rectLeft</text>
<text xml:space="preserve" text-anchor="start" x="124" y="-295.25" font-family="Helvetica,sans-Serif" font-size="10.00">+</text>
<text xml:space="preserve" text-anchor="start" x="139.75" y="-295.25" font-family="Helvetica,sans-Serif" font-size="10.00">rectTop</text>
<text xml:space="preserve" text-anchor="start" x="124" y="-280" font-family="Helvetica,sans-Serif" font-size="10.00">+</text>
<text xml:space="preserve" text-anchor="start" x="139.75" y="-280" font-family="Helvetica,sans-Serif" font-size="10.00">rectWidth</text>
<text xml:space="preserve" text-anchor="start" x="124" y="-264.75" font-family="Helvetica,sans-Serif" font-size="10.00">+</text>
<text xml:space="preserve" text-anchor="start" x="139.75" y="-264.75" font-family="Helvetica,sans-Serif" font-size="10.00">rectHeight</text>
<text xml:space="preserve" text-anchor="start" x="155.75" y="-249.5" font-family="Helvetica,sans-Serif" font-size="10.00"> </text>
<polygon fill="#666666" stroke="#666666" points="114.25,-322 114.25,-322 200.25,-322 200.25,-322 114.25,-322"/>
<polygon fill="#666666" stroke="#666666" points="114.25,-261 114.25,-261 137.75,-261 137.75,-261 114.25,-261"/>
<polygon fill="#666666" stroke="#666666" points="137.75,-261 137.75,-261 200.25,-261 200.25,-261 137.75,-261"/>
<polygon fill="none" stroke="#666666" points="114.25,-243.75 114.25,-350.5 200.25,-350.5 200.25,-243.75 114.25,-243.75"/>
</a>
</g>
</g>
<!-- Node2&#45;&gt;Node5 -->
<g id="edge5_Node000005_Node000002" class="edge">
<title>Node2&#45;&gt;Node5</title>
<g id="a_edge5_Node000005_Node000002"><a xlink:title=" ">
<path fill="none" stroke="#63b8ff" d="M169.84,-420.12C165.02,-414.4 160.65,-407.9 158,-401 153.46,-389.18 151.37,-376.03 150.73,-363.17"/>
<polygon fill="none" stroke="#63b8ff" points="150.73,-363.39 146.64,-357.45 150.55,-351.39 154.64,-357.32 150.73,-363.39"/>
</a>
</g>
<text xml:space="preserve" text-anchor="start" x="161" y="-388.5" font-family="Helvetica,sans-Serif" font-size="10.00" fill="grey">+name</text>
<text xml:space="preserve" text-anchor="start" x="161" y="-373.25" font-family="Helvetica,sans-Serif" font-size="10.00" fill="grey">+texturePath</text>
</g>
<!-- Node3 -->
<g id="Node000003" class="node">
<title>Node3</title>
<g id="a_Node000003"><a xlink:title=" ">
<polygon fill="white" stroke="none" points="238.25,-566.75 152.25,-566.75 152.25,-505.75 238.25,-505.75 238.25,-566.75"/>
<text xml:space="preserve" text-anchor="start" x="156.25" y="-553.25" font-family="Helvetica,sans-Serif" font-size="10.00">std::basic_string&lt;</text>
<text xml:space="preserve" text-anchor="start" x="178.75" y="-542" font-family="Helvetica,sans-Serif" font-size="10.00"> Char &gt;</text>
<text xml:space="preserve" text-anchor="start" x="193.75" y="-526.75" font-family="Helvetica,sans-Serif" font-size="10.00"> </text>
<text xml:space="preserve" text-anchor="start" x="193.75" y="-511.5" font-family="Helvetica,sans-Serif" font-size="10.00"> </text>
<polygon fill="#666666" stroke="#666666" points="152.25,-538.25 152.25,-538.25 238.25,-538.25 238.25,-538.25 152.25,-538.25"/>
<polygon fill="#666666" stroke="#666666" points="152.25,-523 152.25,-523 238.25,-523 238.25,-523 152.25,-523"/>
<polygon fill="none" stroke="#666666" points="152.25,-505.75 152.25,-566.75 238.25,-566.75 238.25,-505.75 152.25,-505.75"/>
</a>
</g>
</g>
<!-- Node3&#45;&gt;Node2 -->
<g id="edge2_Node000002_Node000003" class="edge">
<title>Node3&#45;&gt;Node2</title>
<g id="a_edge2_Node000002_Node000003"><a xlink:title=" ">
<path fill="none" stroke="#63b8ff" d="M195.25,-494.65C195.25,-485.69 195.25,-476.5 195.25,-468.48"/>
<polygon fill="none" stroke="#63b8ff" points="191.75,-494.64 195.25,-504.64 198.75,-494.64 191.75,-494.64"/>
</a>
</g>
</g>
<!-- Node4 -->
<g id="Node000004" class="node">
<title>Node4</title>
<g id="a_Node000004"><a xlink:title=" ">
<polygon fill="white" stroke="none" points="206.25,-175.25 78.25,-175.25 78.25,-114.25 206.25,-114.25 206.25,-175.25"/>
<text xml:space="preserve" text-anchor="start" x="82.25" y="-161.75" font-family="Helvetica,sans-Serif" font-size="10.00">std::vector&lt; rtp::client</text>
<text xml:space="preserve" text-anchor="start" x="82.25" y="-150.5" font-family="Helvetica,sans-Serif" font-size="10.00">::scenes::EntitySpriteInfo &gt;</text>
<text xml:space="preserve" text-anchor="start" x="140.75" y="-135.25" font-family="Helvetica,sans-Serif" font-size="10.00"> </text>
<text xml:space="preserve" text-anchor="start" x="140.75" y="-120" font-family="Helvetica,sans-Serif" font-size="10.00"> </text>
<polygon fill="#666666" stroke="#666666" points="78.25,-146.75 78.25,-146.75 206.25,-146.75 206.25,-146.75 78.25,-146.75"/>
<polygon fill="#666666" stroke="#666666" points="78.25,-131.5 78.25,-131.5 206.25,-131.5 206.25,-131.5 78.25,-131.5"/>
<polygon fill="none" stroke="#666666" points="78.25,-114.25 78.25,-175.25 206.25,-175.25 206.25,-114.25 78.25,-114.25"/>
</a>
</g>
</g>
<!-- Node4&#45;&gt;Node1 -->
<g id="edge3_Node000001_Node000004" class="edge">
<title>Node4&#45;&gt;Node1</title>
<g id="a_edge3_Node000001_Node000004"><a xlink:title=" ">
<path fill="none" stroke="#63b8ff" d="M154.34,-114.26C159.57,-101.5 165.77,-86.34 171.44,-72.51"/>
<polygon fill="none" stroke="#63b8ff" points="171.35,-72.73 169.93,-65.66 175.9,-61.63 177.33,-68.7 171.35,-72.73"/>
</a>
</g>
<text xml:space="preserve" text-anchor="start" x="171" y="-83.75" font-family="Helvetica,sans-Serif" font-size="10.00" fill="grey">+entities</text>
</g>
<!-- Node5&#45;&gt;Node4 -->
<g id="edge4_Node000004_Node000005" class="edge">
<title>Node5&#45;&gt;Node4</title>
<g id="a_edge4_Node000004_Node000005"><a xlink:title=" ">
<path fill="none" stroke="#63b8ff" d="M152.05,-243.95C150.22,-225.66 148.19,-205.35 146.46,-187.97"/>
<polygon fill="none" stroke="#63b8ff" points="146.45,-187.88 141.88,-182.31 145.26,-175.94 149.84,-181.52 146.45,-187.88"/>
</a>
</g>
<text xml:space="preserve" text-anchor="start" x="153.2" y="-205.62" font-family="Helvetica,sans-Serif" font-size="10.00" fill="grey">+elements</text>
</g>
<!-- Node6 -->
<g id="Node000006" class="node">
<title>Node6</title>
<g id="a_Node000006"><a xlink:title=" ">
<polygon fill="white" stroke="none" points="78.5,-322 0,-322 0,-272.25 78.5,-272.25 78.5,-322"/>
<text xml:space="preserve" text-anchor="start" x="4" y="-308.5" font-family="Helvetica,sans-Serif" font-size="10.00">std::vector&lt; T &gt;</text>
<text xml:space="preserve" text-anchor="start" x="37.75" y="-293.25" font-family="Helvetica,sans-Serif" font-size="10.00"> </text>
<text xml:space="preserve" text-anchor="start" x="37.75" y="-278" font-family="Helvetica,sans-Serif" font-size="10.00"> </text>
<polygon fill="#666666" stroke="#666666" points="0,-304.75 0,-304.75 78.5,-304.75 78.5,-304.75 0,-304.75"/>
<polygon fill="#666666" stroke="#666666" points="0,-289.5 0,-289.5 78.5,-289.5 78.5,-289.5 0,-289.5"/>
<polygon fill="none" stroke="#666666" points="0,-272.25 0,-322 78.5,-322 78.5,-272.25 0,-272.25"/>
</a>
</g>
</g>
<!-- Node6&#45;&gt;Node4 -->
<g id="edge6_Node000004_Node000006" class="edge">
<title>Node6&#45;&gt;Node4</title>
<g id="a_edge6_Node000004_Node000006"><a xlink:title=" ">
<path fill="none" stroke="orange" d="M34.43,-261.11C33.33,-239.77 35.4,-212.91 48.75,-193.25 56.22,-182.25 67.03,-173.67 78.67,-167.01"/>
<polygon fill="orange" stroke="orange" points="30.92,-261.12 35.2,-270.81 37.9,-260.57 30.92,-261.12"/>
</a>
</g>
<text xml:space="preserve" text-anchor="start" x="51.75" y="-213.25" font-family="Helvetica,sans-Serif" font-size="10.00" fill="grey">&lt; rtp::client::scenes</text>
<text xml:space="preserve" text-anchor="start" x="51.75" y="-198" font-family="Helvetica,sans-Serif" font-size="10.00" fill="grey">  ::EntitySpriteInfo &gt;</text>
</g>
<!-- Node7 -->
<g id="Node000007" class="node">
<title>Node7</title>
<g id="a_Node000007"><a xlink:title=" ">
<polygon fill="white" stroke="none" points="46.25,-468.75 32.25,-468.75 32.25,-419 46.25,-419 46.25,-468.75"/>
<text xml:space="preserve" text-anchor="start" x="36.25" y="-455.25" font-family="Helvetica,sans-Serif" font-size="10.00">T</text>
<text xml:space="preserve" text-anchor="start" x="37.75" y="-440" font-family="Helvetica,sans-Serif" font-size="10.00"> </text>
<text xml:space="preserve" text-anchor="start" x="37.75" y="-424.75" font-family="Helvetica,sans-Serif" font-size="10.00"> </text>
<polygon fill="#666666" stroke="#666666" points="32.25,-451.5 32.25,-451.5 46.25,-451.5 46.25,-451.5 32.25,-451.5"/>
<polygon fill="#666666" stroke="#666666" points="32.25,-436.25 32.25,-436.25 46.25,-436.25 46.25,-436.25 32.25,-436.25"/>
<polygon fill="none" stroke="#666666" points="32.25,-419 32.25,-468.75 46.25,-468.75 46.25,-419 32.25,-419"/>
</a>
</g>
</g>
<!-- Node7&#45;&gt;Node6 -->
<g id="edge7_Node000006_Node000007" class="edge">
<title>Node7&#45;&gt;Node6</title>
<g id="a_edge7_Node000006_Node000007"><a xlink:title=" ">
<path fill="none" stroke="#63b8ff" d="M39.25,-419.3C39.25,-396.37 39.25,-361.23 39.25,-334.68"/>
<polygon fill="none" stroke="#63b8ff" points="39.25,-334.6 35.25,-328.6 39.25,-322.6 43.25,-328.6 39.25,-334.6"/>
</a>
</g>
<text xml:space="preserve" text-anchor="start" x="42.25" y="-380.88" font-family="Helvetica,sans-Serif" font-size="10.00" fill="grey">+elements</text>
</g>
</g>
</svg>

<g id="navigator" transform="translate(0 0)" fill="#404254">
  <rect fill="#f2f5e9" fill-opacity="0.5" stroke="#606060" stroke-width=".5" x="0" y="0" width="60" height="60"/>
  <use id="zoomplus" xlink:href="#zoomPlus" x="17" y="9" onmousedown="handleZoom(evt,'in')"/>
  <use id="zoomminus" xlink:href="#zoomMin" x="42" y="9" onmousedown="handleZoom(evt,'out')"/>
  <use id="reset" xlink:href="#resetDef" x="30" y="36" onmousedown="handleReset()"/>
   <use id="arrowup" xlink:href="#arrowUp" x="0" y="0" onmousedown="handlePan(0,-1)"/>
  <use id="arrowright" xlink:href="#arrowRight" x="0" y="0" onmousedown="handlePan(1,0)"/>
  <use id="arrowdown" xlink:href="#arrowDown" x="0" y="0" onmousedown="handlePan(0,1)"/>
  <use id="arrowleft" xlink:href="#arrowLeft" x="0" y="0" onmousedown="handlePan(-1,0)"/>
</g>
<svg viewBox="0 0 15 15" width="100%" height="30px" preserveAspectRatio="xMaxYMin meet">
 <g id="arrow_out" transform="scale(0.3 0.3)">
  <a xlink:href="structrtp_1_1client_1_1scenes_1_1EntityCategory__coll__graph_org.svg" target="_base">
   <rect id="button" ry="5" rx="5" y="6" x="6" height="38" width="38"
        fill="#f2f5e9" fill-opacity="0.5" stroke="#606060" stroke-width="1.0"/>
   <path id="arrow"
     d="M 11.500037,31.436501 C 11.940474,20.09759 22.043105,11.32322 32.158766,21.979434 L 37.068811,17.246167 C 37.068811,17.246167 37.088388,32 37.088388,32 L 22.160133,31.978069 C 22.160133,31.978069 26.997745,27.140456 26.997745,27.140456 C 18.528582,18.264221 13.291696,25.230495 11.500037,31.436501 z"
     style="fill:#404040;"/>
  </a>
 </g>
</svg>

<style type='text/css'>
<![CDATA[
[data-mouse-over-selected='false'] { opacity: 0.7; }
[data-mouse-over-selected='true']  { opacity: 1.0; }
]]>
</style>
<script type="application/ecmascript"><![CDATA[
document.addEventListener('DOMContentLoaded', (event) => {
  highlightEdges();
  highlightAdjacentNodes();
});
]]></script>
</svg>
