<?xml version="1.0" encoding="UTF-8" standalone="no"?>
<!DOCTYPE svg PUBLIC "-//W3C//DTD SVG 1.1//EN"
 "http://www.w3.org/Graphics/SVG/1.1/DTD/svg11.dtd">
<!-- Generated by graphviz version 14.0.5 (20251129.0259)
 -->
<!-- Title: rtp::net::EntityDeathPayload Pages: 1 -->
<svg width="158pt" height="980pt"
 viewBox="0.00 0.00 158.00 980.00" xmlns="http://www.w3.org/2000/svg" xmlns:xlink="http://www.w3.org/1999/xlink">
<g id="graph0" class="graph" transform="scale(1 1) rotate(0) translate(4 976.25)">
<title>rtp::net::EntityDeathPayload</title>
<!-- Node1 -->
<g id="Node000001" class="node">
<title>Node1</title>
<g id="a_Node000001"><a xlink:title="Entity death notification data.">
<polygon fill="#999999" stroke="none" points="133.75,-65 2,-65 2,0 133.75,0 133.75,-65"/>
<text xml:space="preserve" text-anchor="start" x="6" y="-51.5" font-family="Helvetica,sans-Serif" font-size="10.00">rtp::net::EntityDeathPayload</text>
<text xml:space="preserve" text-anchor="start" x="29" y="-36.25" font-family="Helvetica,sans-Serif" font-size="10.00">+</text>
<text xml:space="preserve" text-anchor="start" x="62" y="-36.25" font-family="Helvetica,sans-Serif" font-size="10.00">netId</text>
<text xml:space="preserve" text-anchor="start" x="29" y="-21" font-family="Helvetica,sans-Serif" font-size="10.00">+</text>
<text xml:space="preserve" text-anchor="start" x="62" y="-21" font-family="Helvetica,sans-Serif" font-size="10.00">type</text>
<text xml:space="preserve" text-anchor="start" x="66.38" y="-5.75" font-family="Helvetica,sans-Serif" font-size="10.00"> </text>
<polygon fill="#666666" stroke="#666666" points="2,-47.75 2,-47.75 133.75,-47.75 133.75,-47.75 2,-47.75"/>
<polygon fill="#666666" stroke="#666666" points="2,-17.25 2,-17.25 60,-17.25 60,-17.25 2,-17.25"/>
<polygon fill="#666666" stroke="#666666" points="60,-17.25 60,-17.25 133.75,-17.25 133.75,-17.25 60,-17.25"/>
<polygon fill="none" stroke="#666666" points="2,0 2,-65 133.75,-65 133.75,0 2,0"/>
</a>
</g>
</g>
<!-- Node2 -->
<g id="Node000002" class="node">
<title>Node2</title>
<g id="a_Node000002"><a xlink:href="structrtp_1_1Vec2.html" target="_top" xlink:title=" ">
<polygon fill="white" stroke="none" points="110.12,-244.25 25.62,-244.25 25.62,-118.25 110.12,-118.25 110.12,-244.25"/>
<text xml:space="preserve" text-anchor="start" x="29.62" y="-230.75" font-family="Helvetica,sans-Serif" font-size="10.00">rtp::Vec2&lt; float &gt;</text>
<text xml:space="preserve" text-anchor="start" x="32.94" y="-215.5" font-family="Helvetica,sans-Serif" font-size="10.00">+</text>
<text xml:space="preserve" text-anchor="start" x="46.25" y="-215.5" font-family="Helvetica,sans-Serif" font-size="10.00">x</text>
<text xml:space="preserve" text-anchor="start" x="32.94" y="-200.25" font-family="Helvetica,sans-Serif" font-size="10.00">+</text>
<text xml:space="preserve" text-anchor="start" x="46.25" y="-200.25" font-family="Helvetica,sans-Serif" font-size="10.00">y</text>
<text xml:space="preserve" text-anchor="start" x="32.94" y="-185" font-family="Helvetica,sans-Serif" font-size="10.00">+</text>
<text xml:space="preserve" text-anchor="start" x="46.25" y="-185" font-family="Helvetica,sans-Serif" font-size="10.00">Vec2()</text>
<text xml:space="preserve" text-anchor="start" x="32.94" y="-169.75" font-family="Helvetica,sans-Serif" font-size="10.00">+</text>
<text xml:space="preserve" text-anchor="start" x="46.25" y="-169.75" font-family="Helvetica,sans-Serif" font-size="10.00">Vec2()</text>
<text xml:space="preserve" text-anchor="start" x="32.94" y="-154.5" font-family="Helvetica,sans-Serif" font-size="10.00">+</text>
<text xml:space="preserve" text-anchor="start" x="46.25" y="-154.5" font-family="Helvetica,sans-Serif" font-size="10.00">~Vec2()</text>
<text xml:space="preserve" text-anchor="start" x="32.94" y="-139.25" font-family="Helvetica,sans-Serif" font-size="10.00">+</text>
<text xml:space="preserve" text-anchor="start" x="46.25" y="-139.25" font-family="Helvetica,sans-Serif" font-size="10.00">operator==()</text>
<text xml:space="preserve" text-anchor="start" x="32.94" y="-124" font-family="Helvetica,sans-Serif" font-size="10.00">+</text>
<text xml:space="preserve" text-anchor="start" x="46.25" y="-124" font-family="Helvetica,sans-Serif" font-size="10.00">operator[]()</text>
<polygon fill="#666666" stroke="#666666" points="25.62,-227 25.62,-227 110.12,-227 110.12,-227 25.62,-227"/>
<polygon fill="#666666" stroke="#666666" points="25.62,-196.5 25.62,-196.5 44.25,-196.5 44.25,-196.5 25.62,-196.5"/>
<polygon fill="#666666" stroke="#666666" points="44.25,-196.5 44.25,-196.5 110.12,-196.5 110.12,-196.5 44.25,-196.5"/>
<polygon fill="none" stroke="#666666" points="25.62,-118.25 25.62,-244.25 110.12,-244.25 110.12,-118.25 25.62,-118.25"/>
</a>
</g>
</g>
<!-- Node2&#45;&gt;Node1 -->
<g id="edge1_Node000001_Node000002" class="edge">
<title>Node2&#45;&gt;Node1</title>
<g id="a_edge1_Node000001_Node000002"><a xlink:title=" ">
<path fill="none" stroke="#63b8ff" d="M67.88,-118.44C67.88,-104.72 67.88,-90.45 67.88,-77.6"/>
<polygon fill="none" stroke="#63b8ff" points="67.88,-77.72 63.88,-71.72 67.88,-65.72 71.88,-71.72 67.88,-77.72"/>
</a>
</g>
<text xml:space="preserve" text-anchor="start" x="70.88" y="-87.75" font-family="Helvetica,sans-Serif" font-size="10.00" fill="grey">+position</text>
</g>
<!-- Node3 -->
<g id="Node000003" class="node">
<title>Node3</title>
<g id="a_Node000003"><a xlink:href="structrtp_1_1details_1_1VecBase.html" target="_top" xlink:title=" ">
<polygon fill="white" stroke="none" points="149.62,-705.5 50.12,-705.5 50.12,-476.75 149.62,-476.75 149.62,-705.5"/>
<text xml:space="preserve" text-anchor="start" x="54.12" y="-692" font-family="Helvetica,sans-Serif" font-size="10.00">rtp::details::VecBase</text>
<text xml:space="preserve" text-anchor="start" x="83" y="-680.75" font-family="Helvetica,sans-Serif" font-size="10.00">&lt; T, 2 &gt;</text>
<text xml:space="preserve" text-anchor="start" x="98.38" y="-665.5" font-family="Helvetica,sans-Serif" font-size="10.00"> </text>
<text xml:space="preserve" text-anchor="start" x="54.62" y="-650.25" font-family="Helvetica,sans-Serif" font-size="10.00">+</text>
<text xml:space="preserve" text-anchor="start" x="65.12" y="-650.25" font-family="Helvetica,sans-Serif" font-size="10.00">squaredDistance()</text>
<text xml:space="preserve" text-anchor="start" x="54.62" y="-635" font-family="Helvetica,sans-Serif" font-size="10.00">+</text>
<text xml:space="preserve" text-anchor="start" x="65.12" y="-635" font-family="Helvetica,sans-Serif" font-size="10.00">distance()</text>
<text xml:space="preserve" text-anchor="start" x="54.62" y="-619.75" font-family="Helvetica,sans-Serif" font-size="10.00">+</text>
<text xml:space="preserve" text-anchor="start" x="65.12" y="-619.75" font-family="Helvetica,sans-Serif" font-size="10.00">squaredLength()</text>
<text xml:space="preserve" text-anchor="start" x="54.62" y="-604.5" font-family="Helvetica,sans-Serif" font-size="10.00">+</text>
<text xml:space="preserve" text-anchor="start" x="65.12" y="-604.5" font-family="Helvetica,sans-Serif" font-size="10.00">length()</text>
<text xml:space="preserve" text-anchor="start" x="54.62" y="-589.25" font-family="Helvetica,sans-Serif" font-size="10.00">+</text>
<text xml:space="preserve" text-anchor="start" x="65.12" y="-589.25" font-family="Helvetica,sans-Serif" font-size="10.00">normalize()</text>
<text xml:space="preserve" text-anchor="start" x="54.62" y="-574" font-family="Helvetica,sans-Serif" font-size="10.00">+</text>
<text xml:space="preserve" text-anchor="start" x="65.12" y="-574" font-family="Helvetica,sans-Serif" font-size="10.00">normalized()</text>
<text xml:space="preserve" text-anchor="start" x="54.62" y="-558.75" font-family="Helvetica,sans-Serif" font-size="10.00">+</text>
<text xml:space="preserve" text-anchor="start" x="65.12" y="-558.75" font-family="Helvetica,sans-Serif" font-size="10.00">dot()</text>
<text xml:space="preserve" text-anchor="start" x="54.62" y="-543.5" font-family="Helvetica,sans-Serif" font-size="10.00">+</text>
<text xml:space="preserve" text-anchor="start" x="65.12" y="-543.5" font-family="Helvetica,sans-Serif" font-size="10.00">project()</text>
<text xml:space="preserve" text-anchor="start" x="54.62" y="-528.25" font-family="Helvetica,sans-Serif" font-size="10.00">+</text>
<text xml:space="preserve" text-anchor="start" x="65.12" y="-528.25" font-family="Helvetica,sans-Serif" font-size="10.00">operator+=()</text>
<text xml:space="preserve" text-anchor="start" x="54.62" y="-513" font-family="Helvetica,sans-Serif" font-size="10.00">+</text>
<text xml:space="preserve" text-anchor="start" x="65.12" y="-513" font-family="Helvetica,sans-Serif" font-size="10.00">operator&#45;=()</text>
<text xml:space="preserve" text-anchor="start" x="54.62" y="-497.75" font-family="Helvetica,sans-Serif" font-size="10.00">+</text>
<text xml:space="preserve" text-anchor="start" x="65.12" y="-497.75" font-family="Helvetica,sans-Serif" font-size="10.00">operator*=()</text>
<text xml:space="preserve" text-anchor="start" x="54.62" y="-482.5" font-family="Helvetica,sans-Serif" font-size="10.00">+</text>
<text xml:space="preserve" text-anchor="start" x="65.12" y="-482.5" font-family="Helvetica,sans-Serif" font-size="10.00">operator/=()</text>
<polygon fill="#666666" stroke="#666666" points="50.12,-677 50.12,-677 149.62,-677 149.62,-677 50.12,-677"/>
<polygon fill="#666666" stroke="#666666" points="50.12,-661.75 50.12,-661.75 149.62,-661.75 149.62,-661.75 50.12,-661.75"/>
<polygon fill="none" stroke="#666666" points="50.12,-476.75 50.12,-705.5 149.62,-705.5 149.62,-476.75 50.12,-476.75"/>
</a>
</g>
</g>
<!-- Node3&#45;&gt;Node2 -->
<g id="edge2_Node000002_Node000003" class="edge">
<title>Node3&#45;&gt;Node2</title>
<g id="a_edge2_Node000002_Node000003"><a xlink:title=" ">
<path fill="none" stroke="#63b8ff" d="M99.78,-465.71C98.41,-404.25 94.75,-329.11 85.88,-262.25 85.09,-256.32 84.07,-250.19 82.93,-244.07"/>
<polygon fill="none" stroke="#63b8ff" points="96.28,-465.58 99.98,-475.51 103.28,-465.44 96.28,-465.58"/>
</a>
</g>
</g>
<!-- Node5 -->
<g id="Node000005" class="node">
<title>Node5</title>
<g id="a_Node000005"><a xlink:href="structrtp_1_1Vec2.html" target="_top" xlink:title="A 2&#45;dimensional vector.">
<polygon fill="white" stroke="none" points="71.75,-408.25 0,-408.25 0,-297.5 71.75,-297.5 71.75,-408.25"/>
<text xml:space="preserve" text-anchor="start" x="4" y="-394.75" font-family="Helvetica,sans-Serif" font-size="10.00">rtp::Vec2&lt; T &gt;</text>
<text xml:space="preserve" text-anchor="start" x="34.38" y="-379.5" font-family="Helvetica,sans-Serif" font-size="10.00"> </text>
<text xml:space="preserve" text-anchor="start" x="4.12" y="-364.25" font-family="Helvetica,sans-Serif" font-size="10.00">+</text>
<text xml:space="preserve" text-anchor="start" x="14.25" y="-364.25" font-family="Helvetica,sans-Serif" font-size="10.00">Vec2()</text>
<text xml:space="preserve" text-anchor="start" x="4.12" y="-349" font-family="Helvetica,sans-Serif" font-size="10.00">+</text>
<text xml:space="preserve" text-anchor="start" x="14.25" y="-349" font-family="Helvetica,sans-Serif" font-size="10.00">Vec2()</text>
<text xml:space="preserve" text-anchor="start" x="4.12" y="-333.75" font-family="Helvetica,sans-Serif" font-size="10.00">+</text>
<text xml:space="preserve" text-anchor="start" x="14.25" y="-333.75" font-family="Helvetica,sans-Serif" font-size="10.00">~Vec2()</text>
<text xml:space="preserve" text-anchor="start" x="4.12" y="-318.5" font-family="Helvetica,sans-Serif" font-size="10.00">+</text>
<text xml:space="preserve" text-anchor="start" x="14.25" y="-318.5" font-family="Helvetica,sans-Serif" font-size="10.00">operator==()</text>
<text xml:space="preserve" text-anchor="start" x="4.12" y="-303.25" font-family="Helvetica,sans-Serif" font-size="10.00">+</text>
<text xml:space="preserve" text-anchor="start" x="14.25" y="-303.25" font-family="Helvetica,sans-Serif" font-size="10.00">operator[]()</text>
<polygon fill="#666666" stroke="#666666" points="0,-391 0,-391 71.75,-391 71.75,-391 0,-391"/>
<polygon fill="#666666" stroke="#666666" points="0,-375.75 0,-375.75 71.75,-375.75 71.75,-375.75 0,-375.75"/>
<polygon fill="none" stroke="#666666" points="0,-297.5 0,-408.25 71.75,-408.25 71.75,-297.5 0,-297.5"/>
</a>
</g>
</g>
<!-- Node3&#45;&gt;Node5 -->
<g id="edge5_Node000005_Node000003" class="edge">
<title>Node3&#45;&gt;Node5</title>
<g id="a_edge5_Node000005_Node000003"><a xlink:title=" ">
<path fill="none" stroke="#63b8ff" d="M66.22,-465.91C60.73,-445.64 55.31,-425.61 50.6,-408.22"/>
<polygon fill="none" stroke="#63b8ff" points="62.8,-466.65 68.79,-475.38 69.55,-464.82 62.8,-466.65"/>
</a>
</g>
</g>
<!-- Node4 -->
<g id="Node000004" class="node">
<title>Node4</title>
<g id="a_Node000004"><a xlink:href="structrtp_1_1details_1_1VecBase.html" target="_top" xlink:title="CRTP base class for vectors.">
<polygon fill="white" stroke="none" points="149.62,-972.25 50.12,-972.25 50.12,-758.75 149.62,-758.75 149.62,-972.25"/>
<text xml:space="preserve" text-anchor="start" x="54.12" y="-958.75" font-family="Helvetica,sans-Serif" font-size="10.00">rtp::details::VecBase</text>
<text xml:space="preserve" text-anchor="start" x="81.88" y="-947.5" font-family="Helvetica,sans-Serif" font-size="10.00">&lt; T, N &gt;</text>
<text xml:space="preserve" text-anchor="start" x="98.38" y="-932.25" font-family="Helvetica,sans-Serif" font-size="10.00"> </text>
<text xml:space="preserve" text-anchor="start" x="54.62" y="-917" font-family="Helvetica,sans-Serif" font-size="10.00">+</text>
<text xml:space="preserve" text-anchor="start" x="65.12" y="-917" font-family="Helvetica,sans-Serif" font-size="10.00">squaredDistance()</text>
<text xml:space="preserve" text-anchor="start" x="54.62" y="-901.75" font-family="Helvetica,sans-Serif" font-size="10.00">+</text>
<text xml:space="preserve" text-anchor="start" x="65.12" y="-901.75" font-family="Helvetica,sans-Serif" font-size="10.00">distance()</text>
<text xml:space="preserve" text-anchor="start" x="54.62" y="-886.5" font-family="Helvetica,sans-Serif" font-size="10.00">+</text>
<text xml:space="preserve" text-anchor="start" x="65.12" y="-886.5" font-family="Helvetica,sans-Serif" font-size="10.00">squaredLength()</text>
<text xml:space="preserve" text-anchor="start" x="54.62" y="-871.25" font-family="Helvetica,sans-Serif" font-size="10.00">+</text>
<text xml:space="preserve" text-anchor="start" x="65.12" y="-871.25" font-family="Helvetica,sans-Serif" font-size="10.00">length()</text>
<text xml:space="preserve" text-anchor="start" x="54.62" y="-856" font-family="Helvetica,sans-Serif" font-size="10.00">+</text>
<text xml:space="preserve" text-anchor="start" x="65.12" y="-856" font-family="Helvetica,sans-Serif" font-size="10.00">normalize()</text>
<text xml:space="preserve" text-anchor="start" x="54.62" y="-840.75" font-family="Helvetica,sans-Serif" font-size="10.00">+</text>
<text xml:space="preserve" text-anchor="start" x="65.12" y="-840.75" font-family="Helvetica,sans-Serif" font-size="10.00">normalized()</text>
<text xml:space="preserve" text-anchor="start" x="54.62" y="-825.5" font-family="Helvetica,sans-Serif" font-size="10.00">+</text>
<text xml:space="preserve" text-anchor="start" x="65.12" y="-825.5" font-family="Helvetica,sans-Serif" font-size="10.00">dot()</text>
<text xml:space="preserve" text-anchor="start" x="54.62" y="-810.25" font-family="Helvetica,sans-Serif" font-size="10.00">+</text>
<text xml:space="preserve" text-anchor="start" x="65.12" y="-810.25" font-family="Helvetica,sans-Serif" font-size="10.00">project()</text>
<text xml:space="preserve" text-anchor="start" x="54.62" y="-795" font-family="Helvetica,sans-Serif" font-size="10.00">+</text>
<text xml:space="preserve" text-anchor="start" x="65.12" y="-795" font-family="Helvetica,sans-Serif" font-size="10.00">operator+=()</text>
<text xml:space="preserve" text-anchor="start" x="54.62" y="-779.75" font-family="Helvetica,sans-Serif" font-size="10.00">+</text>
<text xml:space="preserve" text-anchor="start" x="65.12" y="-779.75" font-family="Helvetica,sans-Serif" font-size="10.00">operator&#45;=()</text>
<text xml:space="preserve" text-anchor="start" x="65.12" y="-764.5" font-family="Helvetica,sans-Serif" font-size="10.00">and 6 more...</text>
<polygon fill="#666666" stroke="#666666" points="50.12,-943.75 50.12,-943.75 149.62,-943.75 149.62,-943.75 50.12,-943.75"/>
<polygon fill="#666666" stroke="#666666" points="50.12,-928.5 50.12,-928.5 149.62,-928.5 149.62,-928.5 50.12,-928.5"/>
<polygon fill="none" stroke="#666666" points="50.12,-758.75 50.12,-972.25 149.62,-972.25 149.62,-758.75 50.12,-758.75"/>
</a>
</g>
</g>
<!-- Node4&#45;&gt;Node3 -->
<g id="edge3_Node000003_Node000004" class="edge">
<title>Node4&#45;&gt;Node3</title>
<g id="a_edge3_Node000003_Node000004"><a xlink:title=" ">
<path fill="none" stroke="orange" d="M99.88,-747.65C99.88,-733.65 99.88,-719.38 99.88,-705.43"/>
<polygon fill="orange" stroke="orange" points="96.38,-747.29 99.88,-757.29 103.38,-747.29 96.38,-747.29"/>
</a>
</g>
<text xml:space="preserve" text-anchor="start" x="102.88" y="-728.25" font-family="Helvetica,sans-Serif" font-size="10.00" fill="grey">&lt; T, 2 &gt;</text>
</g>
<!-- Node5&#45;&gt;Node2 -->
<g id="edge4_Node000002_Node000005" class="edge">
<title>Node5&#45;&gt;Node2</title>
<g id="a_edge4_Node000002_Node000005"><a xlink:title=" ">
<path fill="none" stroke="orange" d="M39.52,-286.2C40.46,-278.1 41.64,-269.96 43.12,-262.25 44.28,-256.25 45.72,-250.07 47.33,-243.93"/>
<polygon fill="orange" stroke="orange" points="36.04,-285.77 38.5,-296.08 43.01,-286.49 36.04,-285.77"/>
</a>
</g>
<text xml:space="preserve" text-anchor="start" x="46.12" y="-267" font-family="Helvetica,sans-Serif" font-size="10.00" fill="grey">&lt; float &gt;</text>
</g>
<!-- Node6 -->
<g id="Node000006" class="node">
<title>Node6</title>
<g id="a_Node000006"><a xlink:title=" ">
<polygon fill="white" stroke="none" points="31.88,-616 17.88,-616 17.88,-566.25 31.88,-566.25 31.88,-616"/>
<text xml:space="preserve" text-anchor="start" x="21.88" y="-602.5" font-family="Helvetica,sans-Serif" font-size="10.00">T</text>
<text xml:space="preserve" text-anchor="start" x="23.38" y="-587.25" font-family="Helvetica,sans-Serif" font-size="10.00"> </text>
<text xml:space="preserve" text-anchor="start" x="23.38" y="-572" font-family="Helvetica,sans-Serif" font-size="10.00"> </text>
<polygon fill="#666666" stroke="#666666" points="17.88,-598.75 17.88,-598.75 31.88,-598.75 31.88,-598.75 17.88,-598.75"/>
<polygon fill="#666666" stroke="#666666" points="17.88,-583.5 17.88,-583.5 31.88,-583.5 31.88,-583.5 17.88,-583.5"/>
<polygon fill="none" stroke="#666666" points="17.88,-566.25 17.88,-616 31.88,-616 31.88,-566.25 17.88,-566.25"/>
</a>
</g>
</g>
<!-- Node6&#45;&gt;Node5 -->
<g id="edge6_Node000005_Node000006" class="edge">
<title>Node6&#45;&gt;Node5</title>
<g id="a_edge6_Node000005_Node000006"><a xlink:title=" ">
<path fill="none" stroke="#63b8ff" d="M25.97,-566.61C27.54,-532.93 30.48,-469.65 32.76,-420.82"/>
<polygon fill="none" stroke="#63b8ff" points="32.76,-420.68 29.05,-414.5 33.32,-408.69 37.04,-414.87 32.76,-420.68"/>
</a>
</g>
<text xml:space="preserve" text-anchor="start" x="35.32" y="-446.25" font-family="Helvetica,sans-Serif" font-size="10.00" fill="grey">+x</text>
<text xml:space="preserve" text-anchor="start" x="35.32" y="-431" font-family="Helvetica,sans-Serif" font-size="10.00" fill="grey">+y</text>
</g>
</g>
</svg>
