<?xml version="1.0" encoding="UTF-8" standalone="no"?>
<!DOCTYPE svg PUBLIC "-//W3C//DTD SVG 1.1//EN"
 "http://www.w3.org/Graphics/SVG/1.1/DTD/svg11.dtd">
<!-- Generated by graphviz version 14.0.5 (20251129.0259)
 -->
<!-- Title: rtp::client::scenes::EntitySpriteInfo Pages: 1 -->
<svg width="113pt" height="331pt"
 viewBox="0.00 0.00 113.00 331.00" xmlns="http://www.w3.org/2000/svg" xmlns:xlink="http://www.w3.org/1999/xlink">
<g id="graph0" class="graph" transform="scale(1 1) rotate(0) translate(4 327)">
<title>rtp::client::scenes::EntitySpriteInfo</title>
<!-- Node1 -->
<g id="Node000001" class="node">
<title>Node1</title>
<g id="a_Node000001"><a xlink:title="Information about an entity&#39;s sprite for the mod menu.">
<polygon fill="#999999" stroke="none" points="86,-106.75 0,-106.75 0,0 86,0 86,-106.75"/>
<text xml:space="preserve" text-anchor="start" x="4" y="-93.25" font-family="Helvetica,sans-Serif" font-size="10.00">rtp::client::scenes</text>
<text xml:space="preserve" text-anchor="start" x="6.25" y="-82" font-family="Helvetica,sans-Serif" font-size="10.00">::EntitySpriteInfo</text>
<text xml:space="preserve" text-anchor="start" x="9.75" y="-66.75" font-family="Helvetica,sans-Serif" font-size="10.00">+</text>
<text xml:space="preserve" text-anchor="start" x="25.5" y="-66.75" font-family="Helvetica,sans-Serif" font-size="10.00">rectLeft</text>
<text xml:space="preserve" text-anchor="start" x="9.75" y="-51.5" font-family="Helvetica,sans-Serif" font-size="10.00">+</text>
<text xml:space="preserve" text-anchor="start" x="25.5" y="-51.5" font-family="Helvetica,sans-Serif" font-size="10.00">rectTop</text>
<text xml:space="preserve" text-anchor="start" x="9.75" y="-36.25" font-family="Helvetica,sans-Serif" font-size="10.00">+</text>
<text xml:space="preserve" text-anchor="start" x="25.5" y="-36.25" font-family="Helvetica,sans-Serif" font-size="10.00">rectWidth</text>
<text xml:space="preserve" text-anchor="start" x="9.75" y="-21" font-family="Helvetica,sans-Serif" font-size="10.00">+</text>
<text xml:space="preserve" text-anchor="start" x="25.5" y="-21" font-family="Helvetica,sans-Serif" font-size="10.00">rectHeight</text>
<text xml:space="preserve" text-anchor="start" x="41.5" y="-5.75" font-family="Helvetica,sans-Serif" font-size="10.00"> </text>
<polygon fill="#666666" stroke="#666666" points="0,-78.25 0,-78.25 86,-78.25 86,-78.25 0,-78.25"/>
<polygon fill="#666666" stroke="#666666" points="0,-17.25 0,-17.25 23.5,-17.25 23.5,-17.25 0,-17.25"/>
<polygon fill="#666666" stroke="#666666" points="23.5,-17.25 23.5,-17.25 86,-17.25 86,-17.25 23.5,-17.25"/>
<polygon fill="none" stroke="#666666" points="0,0 0,-106.75 86,-106.75 86,0 0,0"/>
</a>
</g>
</g>
<!-- Node2 -->
<g id="Node000002" class="node">
<title>Node2</title>
<g id="a_Node000002"><a xlink:title=" ">
<polygon fill="white" stroke="none" points="68.75,-225 17.25,-225 17.25,-175.25 68.75,-175.25 68.75,-225"/>
<text xml:space="preserve" text-anchor="start" x="21.25" y="-211.5" font-family="Helvetica,sans-Serif" font-size="10.00">std::string</text>
<text xml:space="preserve" text-anchor="start" x="41.5" y="-196.25" font-family="Helvetica,sans-Serif" font-size="10.00"> </text>
<text xml:space="preserve" text-anchor="start" x="41.5" y="-181" font-family="Helvetica,sans-Serif" font-size="10.00"> </text>
<polygon fill="#666666" stroke="#666666" points="17.25,-207.75 17.25,-207.75 68.75,-207.75 68.75,-207.75 17.25,-207.75"/>
<polygon fill="#666666" stroke="#666666" points="17.25,-192.5 17.25,-192.5 68.75,-192.5 68.75,-192.5 17.25,-192.5"/>
<polygon fill="none" stroke="#666666" points="17.25,-175.25 17.25,-225 68.75,-225 68.75,-175.25 17.25,-175.25"/>
</a>
</g>
</g>
<!-- Node2&#45;&gt;Node1 -->
<g id="edge1_Node000001_Node000002" class="edge">
<title>Node2&#45;&gt;Node1</title>
<g id="a_edge1_Node000001_Node000002"><a xlink:title=" ">
<path fill="none" stroke="#63b8ff" d="M43,-175.55C43,-160.23 43,-139.47 43,-119.45"/>
<polygon fill="none" stroke="#63b8ff" points="43,-119.38 39,-113.38 43,-107.38 47,-113.38 43,-119.38"/>
</a>
</g>
<text xml:space="preserve" text-anchor="start" x="46" y="-144.75" font-family="Helvetica,sans-Serif" font-size="10.00" fill="grey">+name</text>
<text xml:space="preserve" text-anchor="start" x="46" y="-129.5" font-family="Helvetica,sans-Serif" font-size="10.00" fill="grey">+texturePath</text>
</g>
<!-- Node3 -->
<g id="Node000003" class="node">
<title>Node3</title>
<g id="a_Node000003"><a xlink:title=" ">
<polygon fill="white" stroke="none" points="86,-323 0,-323 0,-262 86,-262 86,-323"/>
<text xml:space="preserve" text-anchor="start" x="4" y="-309.5" font-family="Helvetica,sans-Serif" font-size="10.00">std::basic_string&lt;</text>
<text xml:space="preserve" text-anchor="start" x="26.5" y="-298.25" font-family="Helvetica,sans-Serif" font-size="10.00"> Char &gt;</text>
<text xml:space="preserve" text-anchor="start" x="41.5" y="-283" font-family="Helvetica,sans-Serif" font-size="10.00"> </text>
<text xml:space="preserve" text-anchor="start" x="41.5" y="-267.75" font-family="Helvetica,sans-Serif" font-size="10.00"> </text>
<polygon fill="#666666" stroke="#666666" points="0,-294.5 0,-294.5 86,-294.5 86,-294.5 0,-294.5"/>
<polygon fill="#666666" stroke="#666666" points="0,-279.25 0,-279.25 86,-279.25 86,-279.25 0,-279.25"/>
<polygon fill="none" stroke="#666666" points="0,-262 0,-323 86,-323 86,-262 0,-262"/>
</a>
</g>
</g>
<!-- Node3&#45;&gt;Node2 -->
<g id="edge2_Node000002_Node000003" class="edge">
<title>Node3&#45;&gt;Node2</title>
<g id="a_edge2_Node000002_Node000003"><a xlink:title=" ">
<path fill="none" stroke="#63b8ff" d="M43,-250.9C43,-241.94 43,-232.75 43,-224.73"/>
<polygon fill="none" stroke="#63b8ff" points="39.5,-250.89 43,-260.89 46.5,-250.89 39.5,-250.89"/>
</a>
</g>
</g>
</g>
</svg>
