<?xml version="1.0" encoding="UTF-8" standalone="no"?>
<!DOCTYPE svg PUBLIC "-//W3C//DTD SVG 1.1//EN"
 "http://www.w3.org/Graphics/SVG/1.1/DTD/svg11.dtd">
<!-- Generated by graphviz version 14.0.5 (20251129.0259)
 -->
<!-- Title: rtp::Vec2&lt; T &gt; Pages: 1 -->
<svg width="412pt" height="857pt"
 viewBox="0.00 0.00 412.00 857.00" xmlns="http://www.w3.org/2000/svg" xmlns:xlink="http://www.w3.org/1999/xlink">
<g id="graph0" class="graph" transform="scale(1 1) rotate(0) translate(4 853)">
<title>rtp::Vec2&lt; T &gt;</title>
<!-- Node1 -->
<g id="Node000001" class="node">
<title>Node1</title>
<g id="a_Node000001"><a xlink:title="A 2&#45;dimensional vector.">
<polygon fill="#999999" stroke="none" points="236.12,-316.5 164.38,-316.5 164.38,-190.5 236.12,-190.5 236.12,-316.5"/>
<text xml:space="preserve" text-anchor="start" x="168.38" y="-303" font-family="Helvetica,sans-Serif" font-size="10.00">rtp::Vec2&lt; T &gt;</text>
<text xml:space="preserve" text-anchor="start" x="168.5" y="-287.75" font-family="Helvetica,sans-Serif" font-size="10.00">+</text>
<text xml:space="preserve" text-anchor="start" x="178.62" y="-287.75" font-family="Helvetica,sans-Serif" font-size="10.00">x</text>
<text xml:space="preserve" text-anchor="start" x="168.5" y="-272.5" font-family="Helvetica,sans-Serif" font-size="10.00">+</text>
<text xml:space="preserve" text-anchor="start" x="178.62" y="-272.5" font-family="Helvetica,sans-Serif" font-size="10.00">y</text>
<text xml:space="preserve" text-anchor="start" x="168.5" y="-257.25" font-family="Helvetica,sans-Serif" font-size="10.00">+</text>
<text xml:space="preserve" text-anchor="start" x="178.62" y="-257.25" font-family="Helvetica,sans-Serif" font-size="10.00">Vec2()</text>
<text xml:space="preserve" text-anchor="start" x="168.5" y="-242" font-family="Helvetica,sans-Serif" font-size="10.00">+</text>
<text xml:space="preserve" text-anchor="start" x="178.62" y="-242" font-family="Helvetica,sans-Serif" font-size="10.00">Vec2()</text>
<text xml:space="preserve" text-anchor="start" x="168.5" y="-226.75" font-family="Helvetica,sans-Serif" font-size="10.00">+</text>
<text xml:space="preserve" text-anchor="start" x="178.62" y="-226.75" font-family="Helvetica,sans-Serif" font-size="10.00">~Vec2()</text>
<text xml:space="preserve" text-anchor="start" x="168.5" y="-211.5" font-family="Helvetica,sans-Serif" font-size="10.00">+</text>
<text xml:space="preserve" text-anchor="start" x="178.62" y="-211.5" font-family="Helvetica,sans-Serif" font-size="10.00">operator==()</text>
<text xml:space="preserve" text-anchor="start" x="168.5" y="-196.25" font-family="Helvetica,sans-Serif" font-size="10.00">+</text>
<text xml:space="preserve" text-anchor="start" x="178.62" y="-196.25" font-family="Helvetica,sans-Serif" font-size="10.00">operator[]()</text>
<polygon fill="#666666" stroke="#666666" points="164.38,-299.25 164.38,-299.25 236.12,-299.25 236.12,-299.25 164.38,-299.25"/>
<polygon fill="#666666" stroke="#666666" points="164.38,-268.75 164.38,-268.75 176.62,-268.75 176.62,-268.75 164.38,-268.75"/>
<polygon fill="#666666" stroke="#666666" points="176.62,-268.75 176.62,-268.75 236.12,-268.75 236.12,-268.75 176.62,-268.75"/>
<polygon fill="none" stroke="#666666" points="164.38,-190.5 164.38,-316.5 236.12,-316.5 236.12,-190.5 164.38,-190.5"/>
</a>
</g>
</g>
<!-- Node4 -->
<g id="Node000004" class="node">
<title>Node4</title>
<g id="a_Node000004"><a xlink:href="structrtp_1_1Vec2.html" target="_top" xlink:title=" ">
<polygon fill="white" stroke="none" points="84.5,-131.62 0,-131.62 0,-5.62 84.5,-5.62 84.5,-131.62"/>
<text xml:space="preserve" text-anchor="start" x="4" y="-118.12" font-family="Helvetica,sans-Serif" font-size="10.00">rtp::Vec2&lt; float &gt;</text>
<text xml:space="preserve" text-anchor="start" x="7.31" y="-102.88" font-family="Helvetica,sans-Serif" font-size="10.00">+</text>
<text xml:space="preserve" text-anchor="start" x="20.62" y="-102.88" font-family="Helvetica,sans-Serif" font-size="10.00">x</text>
<text xml:space="preserve" text-anchor="start" x="7.31" y="-87.62" font-family="Helvetica,sans-Serif" font-size="10.00">+</text>
<text xml:space="preserve" text-anchor="start" x="20.62" y="-87.62" font-family="Helvetica,sans-Serif" font-size="10.00">y</text>
<text xml:space="preserve" text-anchor="start" x="7.31" y="-72.38" font-family="Helvetica,sans-Serif" font-size="10.00">+</text>
<text xml:space="preserve" text-anchor="start" x="20.62" y="-72.38" font-family="Helvetica,sans-Serif" font-size="10.00">Vec2()</text>
<text xml:space="preserve" text-anchor="start" x="7.31" y="-57.12" font-family="Helvetica,sans-Serif" font-size="10.00">+</text>
<text xml:space="preserve" text-anchor="start" x="20.62" y="-57.12" font-family="Helvetica,sans-Serif" font-size="10.00">Vec2()</text>
<text xml:space="preserve" text-anchor="start" x="7.31" y="-41.88" font-family="Helvetica,sans-Serif" font-size="10.00">+</text>
<text xml:space="preserve" text-anchor="start" x="20.62" y="-41.88" font-family="Helvetica,sans-Serif" font-size="10.00">~Vec2()</text>
<text xml:space="preserve" text-anchor="start" x="7.31" y="-26.62" font-family="Helvetica,sans-Serif" font-size="10.00">+</text>
<text xml:space="preserve" text-anchor="start" x="20.62" y="-26.62" font-family="Helvetica,sans-Serif" font-size="10.00">operator==()</text>
<text xml:space="preserve" text-anchor="start" x="7.31" y="-11.38" font-family="Helvetica,sans-Serif" font-size="10.00">+</text>
<text xml:space="preserve" text-anchor="start" x="20.62" y="-11.38" font-family="Helvetica,sans-Serif" font-size="10.00">operator[]()</text>
<polygon fill="#666666" stroke="#666666" points="0,-114.38 0,-114.38 84.5,-114.38 84.5,-114.38 0,-114.38"/>
<polygon fill="#666666" stroke="#666666" points="0,-83.88 0,-83.88 18.62,-83.88 18.62,-83.88 0,-83.88"/>
<polygon fill="#666666" stroke="#666666" points="18.62,-83.88 18.62,-83.88 84.5,-83.88 84.5,-83.88 18.62,-83.88"/>
<polygon fill="none" stroke="#666666" points="0,-5.62 0,-131.62 84.5,-131.62 84.5,-5.62 0,-5.62"/>
</a>
</g>
</g>
<!-- Node1&#45;&gt;Node4 -->
<g id="edge3_Node000001_Node000004" class="edge">
<title>Node1&#45;&gt;Node4</title>
<g id="a_edge3_Node000001_Node000004"><a xlink:title=" ">
<path fill="none" stroke="orange" d="M156.85,-207.9C136.95,-186.92 113.37,-161.27 93.25,-137.25 90.32,-133.76 87.36,-130.12 84.4,-126.42"/>
<polygon fill="orange" stroke="orange" points="154.09,-210.08 163.52,-214.9 159.16,-205.25 154.09,-210.08"/>
</a>
</g>
<text xml:space="preserve" text-anchor="start" x="124.61" y="-160" font-family="Helvetica,sans-Serif" font-size="10.00" fill="grey">&lt; float &gt;</text>
</g>
<!-- Node5 -->
<g id="Node000005" class="node">
<title>Node5</title>
<g id="a_Node000005"><a xlink:href="structrtp_1_1Vec2.html" target="_top" xlink:title=" ">
<polygon fill="white" stroke="none" points="196.38,-131.62 102.12,-131.62 102.12,-5.62 196.38,-5.62 196.38,-131.62"/>
<text xml:space="preserve" text-anchor="start" x="106.12" y="-118.12" font-family="Helvetica,sans-Serif" font-size="10.00">rtp::Vec2&lt; double &gt;</text>
<text xml:space="preserve" text-anchor="start" x="111.88" y="-102.88" font-family="Helvetica,sans-Serif" font-size="10.00">+</text>
<text xml:space="preserve" text-anchor="start" x="127.62" y="-102.88" font-family="Helvetica,sans-Serif" font-size="10.00">x</text>
<text xml:space="preserve" text-anchor="start" x="111.88" y="-87.62" font-family="Helvetica,sans-Serif" font-size="10.00">+</text>
<text xml:space="preserve" text-anchor="start" x="127.62" y="-87.62" font-family="Helvetica,sans-Serif" font-size="10.00">y</text>
<text xml:space="preserve" text-anchor="start" x="111.88" y="-72.38" font-family="Helvetica,sans-Serif" font-size="10.00">+</text>
<text xml:space="preserve" text-anchor="start" x="127.62" y="-72.38" font-family="Helvetica,sans-Serif" font-size="10.00">Vec2()</text>
<text xml:space="preserve" text-anchor="start" x="111.88" y="-57.12" font-family="Helvetica,sans-Serif" font-size="10.00">+</text>
<text xml:space="preserve" text-anchor="start" x="127.62" y="-57.12" font-family="Helvetica,sans-Serif" font-size="10.00">Vec2()</text>
<text xml:space="preserve" text-anchor="start" x="111.88" y="-41.88" font-family="Helvetica,sans-Serif" font-size="10.00">+</text>
<text xml:space="preserve" text-anchor="start" x="127.62" y="-41.88" font-family="Helvetica,sans-Serif" font-size="10.00">~Vec2()</text>
<text xml:space="preserve" text-anchor="start" x="111.88" y="-26.62" font-family="Helvetica,sans-Serif" font-size="10.00">+</text>
<text xml:space="preserve" text-anchor="start" x="127.62" y="-26.62" font-family="Helvetica,sans-Serif" font-size="10.00">operator==()</text>
<text xml:space="preserve" text-anchor="start" x="111.88" y="-11.38" font-family="Helvetica,sans-Serif" font-size="10.00">+</text>
<text xml:space="preserve" text-anchor="start" x="127.62" y="-11.38" font-family="Helvetica,sans-Serif" font-size="10.00">operator[]()</text>
<polygon fill="#666666" stroke="#666666" points="102.12,-114.38 102.12,-114.38 196.38,-114.38 196.38,-114.38 102.12,-114.38"/>
<polygon fill="#666666" stroke="#666666" points="102.12,-83.88 102.12,-83.88 125.62,-83.88 125.62,-83.88 102.12,-83.88"/>
<polygon fill="#666666" stroke="#666666" points="125.62,-83.88 125.62,-83.88 196.38,-83.88 196.38,-83.88 125.62,-83.88"/>
<polygon fill="none" stroke="#666666" points="102.12,-5.62 102.12,-131.62 196.38,-131.62 196.38,-5.62 102.12,-5.62"/>
</a>
</g>
</g>
<!-- Node1&#45;&gt;Node5 -->
<g id="edge4_Node000001_Node000005" class="edge">
<title>Node1&#45;&gt;Node5</title>
<g id="a_edge4_Node000001_Node000005"><a xlink:title=" ">
<path fill="none" stroke="orange" d="M179.81,-179.89C179.12,-177.4 178.43,-174.93 177.75,-172.5 174.04,-159.2 170.07,-144.93 166.32,-131.38"/>
<polygon fill="orange" stroke="orange" points="176.43,-180.78 182.5,-189.47 183.17,-178.89 176.43,-180.78"/>
</a>
</g>
<text xml:space="preserve" text-anchor="start" x="180.75" y="-160" font-family="Helvetica,sans-Serif" font-size="10.00" fill="grey">&lt; double &gt;</text>
</g>
<!-- Node6 -->
<g id="Node000006" class="node">
<title>Node6</title>
<g id="a_Node000006"><a xlink:href="structrtp_1_1Vec2.html" target="_top" xlink:title=" ">
<polygon fill="white" stroke="none" points="290.38,-131.62 214.12,-131.62 214.12,-5.62 290.38,-5.62 290.38,-131.62"/>
<text xml:space="preserve" text-anchor="start" x="218.12" y="-118.12" font-family="Helvetica,sans-Serif" font-size="10.00">rtp::Vec2&lt; int &gt;</text>
<text xml:space="preserve" text-anchor="start" x="219.38" y="-102.88" font-family="Helvetica,sans-Serif" font-size="10.00">+</text>
<text xml:space="preserve" text-anchor="start" x="230.62" y="-102.88" font-family="Helvetica,sans-Serif" font-size="10.00">x</text>
<text xml:space="preserve" text-anchor="start" x="219.38" y="-87.62" font-family="Helvetica,sans-Serif" font-size="10.00">+</text>
<text xml:space="preserve" text-anchor="start" x="230.62" y="-87.62" font-family="Helvetica,sans-Serif" font-size="10.00">y</text>
<text xml:space="preserve" text-anchor="start" x="219.38" y="-72.38" font-family="Helvetica,sans-Serif" font-size="10.00">+</text>
<text xml:space="preserve" text-anchor="start" x="230.62" y="-72.38" font-family="Helvetica,sans-Serif" font-size="10.00">Vec2()</text>
<text xml:space="preserve" text-anchor="start" x="219.38" y="-57.12" font-family="Helvetica,sans-Serif" font-size="10.00">+</text>
<text xml:space="preserve" text-anchor="start" x="230.62" y="-57.12" font-family="Helvetica,sans-Serif" font-size="10.00">Vec2()</text>
<text xml:space="preserve" text-anchor="start" x="219.38" y="-41.88" font-family="Helvetica,sans-Serif" font-size="10.00">+</text>
<text xml:space="preserve" text-anchor="start" x="230.62" y="-41.88" font-family="Helvetica,sans-Serif" font-size="10.00">~Vec2()</text>
<text xml:space="preserve" text-anchor="start" x="219.38" y="-26.62" font-family="Helvetica,sans-Serif" font-size="10.00">+</text>
<text xml:space="preserve" text-anchor="start" x="230.62" y="-26.62" font-family="Helvetica,sans-Serif" font-size="10.00">operator==()</text>
<text xml:space="preserve" text-anchor="start" x="219.38" y="-11.38" font-family="Helvetica,sans-Serif" font-size="10.00">+</text>
<text xml:space="preserve" text-anchor="start" x="230.62" y="-11.38" font-family="Helvetica,sans-Serif" font-size="10.00">operator[]()</text>
<polygon fill="#666666" stroke="#666666" points="214.12,-114.38 214.12,-114.38 290.38,-114.38 290.38,-114.38 214.12,-114.38"/>
<polygon fill="#666666" stroke="#666666" points="214.12,-83.88 214.12,-83.88 228.62,-83.88 228.62,-83.88 214.12,-83.88"/>
<polygon fill="#666666" stroke="#666666" points="228.62,-83.88 228.62,-83.88 290.38,-83.88 290.38,-83.88 228.62,-83.88"/>
<polygon fill="none" stroke="#666666" points="214.12,-5.62 214.12,-131.62 290.38,-131.62 290.38,-5.62 214.12,-5.62"/>
</a>
</g>
</g>
<!-- Node1&#45;&gt;Node6 -->
<g id="edge5_Node000001_Node000006" class="edge">
<title>Node1&#45;&gt;Node6</title>
<g id="a_edge5_Node000001_Node000006"><a xlink:title=" ">
<path fill="none" stroke="orange" d="M228.01,-179.87C228.79,-177.39 229.54,-174.93 230.25,-172.5 234.1,-159.35 237.58,-145.08 240.58,-131.47"/>
<polygon fill="orange" stroke="orange" points="224.69,-178.76 224.9,-189.35 231.34,-180.94 224.69,-178.76"/>
</a>
</g>
<text xml:space="preserve" text-anchor="start" x="237.79" y="-160" font-family="Helvetica,sans-Serif" font-size="10.00" fill="grey">&lt; int &gt;</text>
</g>
<!-- Node7 -->
<g id="Node000007" class="node">
<title>Node7</title>
<g id="a_Node000007"><a xlink:href="structrtp_1_1Vec2.html" target="_top" xlink:title=" ">
<polygon fill="white" stroke="none" points="404.12,-137.25 308.38,-137.25 308.38,0 404.12,0 404.12,-137.25"/>
<text xml:space="preserve" text-anchor="start" x="312.38" y="-123.75" font-family="Helvetica,sans-Serif" font-size="10.00">rtp::Vec2&lt; unsigned</text>
<text xml:space="preserve" text-anchor="start" x="345" y="-112.5" font-family="Helvetica,sans-Serif" font-size="10.00"> int &gt;</text>
<text xml:space="preserve" text-anchor="start" x="318.5" y="-97.25" font-family="Helvetica,sans-Serif" font-size="10.00">+</text>
<text xml:space="preserve" text-anchor="start" x="334.62" y="-97.25" font-family="Helvetica,sans-Serif" font-size="10.00">x</text>
<text xml:space="preserve" text-anchor="start" x="318.5" y="-82" font-family="Helvetica,sans-Serif" font-size="10.00">+</text>
<text xml:space="preserve" text-anchor="start" x="334.62" y="-82" font-family="Helvetica,sans-Serif" font-size="10.00">y</text>
<text xml:space="preserve" text-anchor="start" x="318.5" y="-66.75" font-family="Helvetica,sans-Serif" font-size="10.00">+</text>
<text xml:space="preserve" text-anchor="start" x="334.62" y="-66.75" font-family="Helvetica,sans-Serif" font-size="10.00">Vec2()</text>
<text xml:space="preserve" text-anchor="start" x="318.5" y="-51.5" font-family="Helvetica,sans-Serif" font-size="10.00">+</text>
<text xml:space="preserve" text-anchor="start" x="334.62" y="-51.5" font-family="Helvetica,sans-Serif" font-size="10.00">Vec2()</text>
<text xml:space="preserve" text-anchor="start" x="318.5" y="-36.25" font-family="Helvetica,sans-Serif" font-size="10.00">+</text>
<text xml:space="preserve" text-anchor="start" x="334.62" y="-36.25" font-family="Helvetica,sans-Serif" font-size="10.00">~Vec2()</text>
<text xml:space="preserve" text-anchor="start" x="318.5" y="-21" font-family="Helvetica,sans-Serif" font-size="10.00">+</text>
<text xml:space="preserve" text-anchor="start" x="334.62" y="-21" font-family="Helvetica,sans-Serif" font-size="10.00">operator==()</text>
<text xml:space="preserve" text-anchor="start" x="318.5" y="-5.75" font-family="Helvetica,sans-Serif" font-size="10.00">+</text>
<text xml:space="preserve" text-anchor="start" x="334.62" y="-5.75" font-family="Helvetica,sans-Serif" font-size="10.00">operator[]()</text>
<polygon fill="#666666" stroke="#666666" points="308.38,-108.75 308.38,-108.75 404.12,-108.75 404.12,-108.75 308.38,-108.75"/>
<polygon fill="#666666" stroke="#666666" points="308.38,-78.25 308.38,-78.25 332.62,-78.25 332.62,-78.25 308.38,-78.25"/>
<polygon fill="#666666" stroke="#666666" points="332.62,-78.25 332.62,-78.25 404.12,-78.25 404.12,-78.25 332.62,-78.25"/>
<polygon fill="none" stroke="#666666" points="308.38,0 308.38,-137.25 404.12,-137.25 404.12,0 308.38,0"/>
</a>
</g>
</g>
<!-- Node1&#45;&gt;Node7 -->
<g id="edge6_Node000001_Node000007" class="edge">
<title>Node1&#45;&gt;Node7</title>
<g id="a_edge6_Node000001_Node000007"><a xlink:title=" ">
<path fill="none" stroke="orange" d="M243.76,-205.78C253.58,-194.96 263.88,-183.42 273.25,-172.5 284.91,-158.92 297.17,-144.06 308.58,-129.97"/>
<polygon fill="orange" stroke="orange" points="241.18,-203.41 237.02,-213.15 246.35,-208.13 241.18,-203.41"/>
</a>
</g>
<text xml:space="preserve" text-anchor="start" x="290.22" y="-160" font-family="Helvetica,sans-Serif" font-size="10.00" fill="grey">&lt; unsigned int &gt;</text>
</g>
<!-- Node2 -->
<g id="Node000002" class="node">
<title>Node2</title>
<g id="a_Node000002"><a xlink:href="structrtp_1_1details_1_1VecBase.html" target="_top" xlink:title=" ">
<polygon fill="white" stroke="none" points="250,-582.25 150.5,-582.25 150.5,-353.5 250,-353.5 250,-582.25"/>
<text xml:space="preserve" text-anchor="start" x="154.5" y="-568.75" font-family="Helvetica,sans-Serif" font-size="10.00">rtp::details::VecBase</text>
<text xml:space="preserve" text-anchor="start" x="183.38" y="-557.5" font-family="Helvetica,sans-Serif" font-size="10.00">&lt; T, 2 &gt;</text>
<text xml:space="preserve" text-anchor="start" x="198.75" y="-542.25" font-family="Helvetica,sans-Serif" font-size="10.00"> </text>
<text xml:space="preserve" text-anchor="start" x="155" y="-527" font-family="Helvetica,sans-Serif" font-size="10.00">+</text>
<text xml:space="preserve" text-anchor="start" x="165.5" y="-527" font-family="Helvetica,sans-Serif" font-size="10.00">squaredDistance()</text>
<text xml:space="preserve" text-anchor="start" x="155" y="-511.75" font-family="Helvetica,sans-Serif" font-size="10.00">+</text>
<text xml:space="preserve" text-anchor="start" x="165.5" y="-511.75" font-family="Helvetica,sans-Serif" font-size="10.00">distance()</text>
<text xml:space="preserve" text-anchor="start" x="155" y="-496.5" font-family="Helvetica,sans-Serif" font-size="10.00">+</text>
<text xml:space="preserve" text-anchor="start" x="165.5" y="-496.5" font-family="Helvetica,sans-Serif" font-size="10.00">squaredLength()</text>
<text xml:space="preserve" text-anchor="start" x="155" y="-481.25" font-family="Helvetica,sans-Serif" font-size="10.00">+</text>
<text xml:space="preserve" text-anchor="start" x="165.5" y="-481.25" font-family="Helvetica,sans-Serif" font-size="10.00">length()</text>
<text xml:space="preserve" text-anchor="start" x="155" y="-466" font-family="Helvetica,sans-Serif" font-size="10.00">+</text>
<text xml:space="preserve" text-anchor="start" x="165.5" y="-466" font-family="Helvetica,sans-Serif" font-size="10.00">normalize()</text>
<text xml:space="preserve" text-anchor="start" x="155" y="-450.75" font-family="Helvetica,sans-Serif" font-size="10.00">+</text>
<text xml:space="preserve" text-anchor="start" x="165.5" y="-450.75" font-family="Helvetica,sans-Serif" font-size="10.00">normalized()</text>
<text xml:space="preserve" text-anchor="start" x="155" y="-435.5" font-family="Helvetica,sans-Serif" font-size="10.00">+</text>
<text xml:space="preserve" text-anchor="start" x="165.5" y="-435.5" font-family="Helvetica,sans-Serif" font-size="10.00">dot()</text>
<text xml:space="preserve" text-anchor="start" x="155" y="-420.25" font-family="Helvetica,sans-Serif" font-size="10.00">+</text>
<text xml:space="preserve" text-anchor="start" x="165.5" y="-420.25" font-family="Helvetica,sans-Serif" font-size="10.00">project()</text>
<text xml:space="preserve" text-anchor="start" x="155" y="-405" font-family="Helvetica,sans-Serif" font-size="10.00">+</text>
<text xml:space="preserve" text-anchor="start" x="165.5" y="-405" font-family="Helvetica,sans-Serif" font-size="10.00">operator+=()</text>
<text xml:space="preserve" text-anchor="start" x="155" y="-389.75" font-family="Helvetica,sans-Serif" font-size="10.00">+</text>
<text xml:space="preserve" text-anchor="start" x="165.5" y="-389.75" font-family="Helvetica,sans-Serif" font-size="10.00">operator&#45;=()</text>
<text xml:space="preserve" text-anchor="start" x="155" y="-374.5" font-family="Helvetica,sans-Serif" font-size="10.00">+</text>
<text xml:space="preserve" text-anchor="start" x="165.5" y="-374.5" font-family="Helvetica,sans-Serif" font-size="10.00">operator*=()</text>
<text xml:space="preserve" text-anchor="start" x="155" y="-359.25" font-family="Helvetica,sans-Serif" font-size="10.00">+</text>
<text xml:space="preserve" text-anchor="start" x="165.5" y="-359.25" font-family="Helvetica,sans-Serif" font-size="10.00">operator/=()</text>
<polygon fill="#666666" stroke="#666666" points="150.5,-553.75 150.5,-553.75 250,-553.75 250,-553.75 150.5,-553.75"/>
<polygon fill="#666666" stroke="#666666" points="150.5,-538.5 150.5,-538.5 250,-538.5 250,-538.5 150.5,-538.5"/>
<polygon fill="none" stroke="#666666" points="150.5,-353.5 150.5,-582.25 250,-582.25 250,-353.5 150.5,-353.5"/>
</a>
</g>
</g>
<!-- Node2&#45;&gt;Node1 -->
<g id="edge1_Node000001_Node000002" class="edge">
<title>Node2&#45;&gt;Node1</title>
<g id="a_edge1_Node000001_Node000002"><a xlink:title=" ">
<path fill="none" stroke="#63b8ff" d="M200.25,-342.24C200.25,-333.38 200.25,-324.69 200.25,-316.44"/>
<polygon fill="none" stroke="#63b8ff" points="196.75,-342.02 200.25,-352.02 203.75,-342.02 196.75,-342.02"/>
</a>
</g>
</g>
<!-- Node3 -->
<g id="Node000003" class="node">
<title>Node3</title>
<g id="a_Node000003"><a xlink:href="structrtp_1_1details_1_1VecBase.html" target="_top" xlink:title="CRTP base class for vectors.">
<polygon fill="white" stroke="none" points="250,-849 150.5,-849 150.5,-635.5 250,-635.5 250,-849"/>
<text xml:space="preserve" text-anchor="start" x="154.5" y="-835.5" font-family="Helvetica,sans-Serif" font-size="10.00">rtp::details::VecBase</text>
<text xml:space="preserve" text-anchor="start" x="182.25" y="-824.25" font-family="Helvetica,sans-Serif" font-size="10.00">&lt; T, N &gt;</text>
<text xml:space="preserve" text-anchor="start" x="198.75" y="-809" font-family="Helvetica,sans-Serif" font-size="10.00"> </text>
<text xml:space="preserve" text-anchor="start" x="155" y="-793.75" font-family="Helvetica,sans-Serif" font-size="10.00">+</text>
<text xml:space="preserve" text-anchor="start" x="165.5" y="-793.75" font-family="Helvetica,sans-Serif" font-size="10.00">squaredDistance()</text>
<text xml:space="preserve" text-anchor="start" x="155" y="-778.5" font-family="Helvetica,sans-Serif" font-size="10.00">+</text>
<text xml:space="preserve" text-anchor="start" x="165.5" y="-778.5" font-family="Helvetica,sans-Serif" font-size="10.00">distance()</text>
<text xml:space="preserve" text-anchor="start" x="155" y="-763.25" font-family="Helvetica,sans-Serif" font-size="10.00">+</text>
<text xml:space="preserve" text-anchor="start" x="165.5" y="-763.25" font-family="Helvetica,sans-Serif" font-size="10.00">squaredLength()</text>
<text xml:space="preserve" text-anchor="start" x="155" y="-748" font-family="Helvetica,sans-Serif" font-size="10.00">+</text>
<text xml:space="preserve" text-anchor="start" x="165.5" y="-748" font-family="Helvetica,sans-Serif" font-size="10.00">length()</text>
<text xml:space="preserve" text-anchor="start" x="155" y="-732.75" font-family="Helvetica,sans-Serif" font-size="10.00">+</text>
<text xml:space="preserve" text-anchor="start" x="165.5" y="-732.75" font-family="Helvetica,sans-Serif" font-size="10.00">normalize()</text>
<text xml:space="preserve" text-anchor="start" x="155" y="-717.5" font-family="Helvetica,sans-Serif" font-size="10.00">+</text>
<text xml:space="preserve" text-anchor="start" x="165.5" y="-717.5" font-family="Helvetica,sans-Serif" font-size="10.00">normalized()</text>
<text xml:space="preserve" text-anchor="start" x="155" y="-702.25" font-family="Helvetica,sans-Serif" font-size="10.00">+</text>
<text xml:space="preserve" text-anchor="start" x="165.5" y="-702.25" font-family="Helvetica,sans-Serif" font-size="10.00">dot()</text>
<text xml:space="preserve" text-anchor="start" x="155" y="-687" font-family="Helvetica,sans-Serif" font-size="10.00">+</text>
<text xml:space="preserve" text-anchor="start" x="165.5" y="-687" font-family="Helvetica,sans-Serif" font-size="10.00">project()</text>
<text xml:space="preserve" text-anchor="start" x="155" y="-671.75" font-family="Helvetica,sans-Serif" font-size="10.00">+</text>
<text xml:space="preserve" text-anchor="start" x="165.5" y="-671.75" font-family="Helvetica,sans-Serif" font-size="10.00">operator+=()</text>
<text xml:space="preserve" text-anchor="start" x="155" y="-656.5" font-family="Helvetica,sans-Serif" font-size="10.00">+</text>
<text xml:space="preserve" text-anchor="start" x="165.5" y="-656.5" font-family="Helvetica,sans-Serif" font-size="10.00">operator&#45;=()</text>
<text xml:space="preserve" text-anchor="start" x="165.5" y="-641.25" font-family="Helvetica,sans-Serif" font-size="10.00">and 6 more...</text>
<polygon fill="#666666" stroke="#666666" points="150.5,-820.5 150.5,-820.5 250,-820.5 250,-820.5 150.5,-820.5"/>
<polygon fill="#666666" stroke="#666666" points="150.5,-805.25 150.5,-805.25 250,-805.25 250,-805.25 150.5,-805.25"/>
<polygon fill="none" stroke="#666666" points="150.5,-635.5 150.5,-849 250,-849 250,-635.5 150.5,-635.5"/>
</a>
</g>
</g>
<!-- Node3&#45;&gt;Node2 -->
<g id="edge2_Node000002_Node000003" class="edge">
<title>Node3&#45;&gt;Node2</title>
<g id="a_edge2_Node000002_Node000003"><a xlink:title=" ">
<path fill="none" stroke="orange" d="M200.25,-624.4C200.25,-610.4 200.25,-596.13 200.25,-582.18"/>
<polygon fill="orange" stroke="orange" points="196.75,-624.04 200.25,-634.04 203.75,-624.04 196.75,-624.04"/>
</a>
</g>
<text xml:space="preserve" text-anchor="start" x="203.25" y="-605" font-family="Helvetica,sans-Serif" font-size="10.00" fill="grey">&lt; T, 2 &gt;</text>
</g>
</g>
</svg>
