<?xml version="1.0" encoding="UTF-8" standalone="no"?>
<!DOCTYPE svg PUBLIC "-//W3C//DTD SVG 1.1//EN"
 "http://www.w3.org/Graphics/SVG/1.1/DTD/svg11.dtd">
<!-- Generated by graphviz version 14.0.5 (20251129.0259)
 -->
<!-- Title: rtp::net::DebugModePayload Pages: 1 -->
<svg width="141pt" height="58pt"
 viewBox="0.00 0.00 141.00 58.00" xmlns="http://www.w3.org/2000/svg" xmlns:xlink="http://www.w3.org/1999/xlink">
<g id="graph0" class="graph" transform="scale(1 1) rotate(0) translate(4 53.75)">
<title>rtp::net::DebugModePayload</title>
<!-- Node1 -->
<g id="Node000001" class="node">
<title>Node1</title>
<g id="a_Node000001"><a xlink:title="Debug mode toggle data Server OpCode.">
<polygon fill="#999999" stroke="none" points="132.5,-49.75 0,-49.75 0,0 132.5,0 132.5,-49.75"/>
<text xml:space="preserve" text-anchor="start" x="4" y="-36.25" font-family="Helvetica,sans-Serif" font-size="10.00">rtp::net::DebugModePayload</text>
<text xml:space="preserve" text-anchor="start" x="24.19" y="-21" font-family="Helvetica,sans-Serif" font-size="10.00">+</text>
<text xml:space="preserve" text-anchor="start" x="54.38" y="-21" font-family="Helvetica,sans-Serif" font-size="10.00">enabled</text>
<text xml:space="preserve" text-anchor="start" x="64.75" y="-5.75" font-family="Helvetica,sans-Serif" font-size="10.00"> </text>
<polygon fill="#666666" stroke="#666666" points="0,-32.5 0,-32.5 132.5,-32.5 132.5,-32.5 0,-32.5"/>
<polygon fill="#666666" stroke="#666666" points="0,-17.25 0,-17.25 52.38,-17.25 52.38,-17.25 0,-17.25"/>
<polygon fill="#666666" stroke="#666666" points="52.38,-17.25 52.38,-17.25 132.5,-17.25 132.5,-17.25 52.38,-17.25"/>
<polygon fill="none" stroke="#666666" points="0,0 0,-49.75 132.5,-49.75 132.5,0 0,0"/>
</a>
</g>
</g>
</g>
</svg>
