<?xml version="1.0" encoding="UTF-8" standalone="no"?>
<!DOCTYPE svg PUBLIC "-//W3C//DTD SVG 1.1//EN"
 "http://www.w3.org/Graphics/SVG/1.1/DTD/svg11.dtd">
<!-- Generated by graphviz version 14.0.5 (20251129.0259)
 -->
<!-- Title: rtp::ecs::components::ui::Text Pages: 1 -->
<!--zoomable 1068 -->

<svg id="main" version="1.1" xmlns="http://www.w3.org/2000/svg" xmlns:xlink="http://www.w3.org/1999/xlink" xml:space="preserve" onload="init(evt)">

<style type="text/css"><![CDATA[
.node, .edge {opacity: 0.7;}
.node.selected, .edge.selected {opacity: 1;}
.edge:hover path { stroke: red; }
.edge:hover polygon { stroke: red; fill: red; }
]]></style>

<defs>
  <circle id="rim" cx="0" cy="0" r="7"/>
  <circle id="rim2" cx="0" cy="0" r="3.5"/>
  <g id="zoomPlus">
    <use xlink:href="#rim" fill="#404040"><set attributeName="fill" to="#808080" begin="zoomplus.mouseover" end="zoomplus.mouseout"/></use>
    <path d="M-4,0h8M0,-4v8" fill="none" stroke="white" stroke-width="1.5" pointer-events="none"/>
  </g>
  <g id="zoomMin">
    <use xlink:href="#rim" fill="#404040"><set attributeName="fill" to="#808080" begin="zoomminus.mouseover" end="zoomminus.mouseout"/></use>
    <path d="M-4,0h8" fill="none" stroke="white" stroke-width="1.5" pointer-events="none"/>
  </g>
  <g id="arrowUp" transform="translate(30 24)">
    <use xlink:href="#rim"/>
    <path pointer-events="none" fill="none" stroke="white" stroke-width="1.5" d="M0,-3.0v7 M-2.5,-0.5L0,-3.0L2.5,-0.5"/>
  </g>
  <g id="arrowRight" transform="rotate(90) translate(36 -43)">
    <use xlink:href="#rim"/>
    <path pointer-events="none" fill="none" stroke="white" stroke-width="1.5" d="M0,-3.0v7 M-2.5,-0.5L0,-3.0L2.5,-0.5"/>
  </g>
  <g id="arrowDown" transform="rotate(180) translate(-30 -48)">
    <use xlink:href="#rim"/>
    <path pointer-events="none" fill="none" stroke="white" stroke-width="1.5" d="M0,-3.0v7 M-2.5,-0.5L0,-3.0L2.5,-0.5"/>
  </g>
  <g id="arrowLeft" transform="rotate(270) translate(-36 17)">
    <use xlink:href="#rim"/>
    <path pointer-events="none" fill="none" stroke="white" stroke-width="1.5" d="M0,-3.0v7 M-2.5,-0.5L0,-3.0L2.5,-0.5"/>
  </g>
  <g id="resetDef">
    <use xlink:href="#rim2" fill="#404040"><set attributeName="fill" to="#808080" begin="reset.mouseover" end="reset.mouseout"/></use>
  </g>
</defs>
<script type="application/ecmascript">
var viewWidth = 262;
var viewHeight = 1068;
var sectionId = 'dynsection-0';
</script>
<script type="application/ecmascript" xlink:href="svg.min.js"/>
<svg id="graph" class="graph">
<g id="viewport">
<title>rtp::ecs::components::ui::Text</title>
<!-- Node1 -->
<g id="Node000001" class="node">
<title>Node1</title>
<g id="a_Node000001"><a xlink:title="Component representing text to render.">
<polygon fill="#999999" stroke="none" points="142.12,-137.25 41.88,-137.25 41.88,0 142.12,0 142.12,-137.25"/>
<text xml:space="preserve" text-anchor="start" x="45.88" y="-123.75" font-family="Helvetica,sans-Serif" font-size="10.00">rtp::ecs::components</text>
<text xml:space="preserve" text-anchor="start" x="72.88" y="-112.5" font-family="Helvetica,sans-Serif" font-size="10.00">::ui::Text</text>
<text xml:space="preserve" text-anchor="start" x="57.44" y="-97.25" font-family="Helvetica,sans-Serif" font-size="10.00">+</text>
<text xml:space="preserve" text-anchor="start" x="79" y="-97.25" font-family="Helvetica,sans-Serif" font-size="10.00">fontSize</text>
<text xml:space="preserve" text-anchor="start" x="57.44" y="-82" font-family="Helvetica,sans-Serif" font-size="10.00">+</text>
<text xml:space="preserve" text-anchor="start" x="79" y="-82" font-family="Helvetica,sans-Serif" font-size="10.00">red</text>
<text xml:space="preserve" text-anchor="start" x="57.44" y="-66.75" font-family="Helvetica,sans-Serif" font-size="10.00">+</text>
<text xml:space="preserve" text-anchor="start" x="79" y="-66.75" font-family="Helvetica,sans-Serif" font-size="10.00">green</text>
<text xml:space="preserve" text-anchor="start" x="57.44" y="-51.5" font-family="Helvetica,sans-Serif" font-size="10.00">+</text>
<text xml:space="preserve" text-anchor="start" x="79" y="-51.5" font-family="Helvetica,sans-Serif" font-size="10.00">blue</text>
<text xml:space="preserve" text-anchor="start" x="57.44" y="-36.25" font-family="Helvetica,sans-Serif" font-size="10.00">+</text>
<text xml:space="preserve" text-anchor="start" x="79" y="-36.25" font-family="Helvetica,sans-Serif" font-size="10.00">alpha</text>
<text xml:space="preserve" text-anchor="start" x="57.44" y="-21" font-family="Helvetica,sans-Serif" font-size="10.00">+</text>
<text xml:space="preserve" text-anchor="start" x="79" y="-21" font-family="Helvetica,sans-Serif" font-size="10.00">zIndex</text>
<text xml:space="preserve" text-anchor="start" x="90.5" y="-5.75" font-family="Helvetica,sans-Serif" font-size="10.00"> </text>
<polygon fill="#666666" stroke="#666666" points="41.88,-108.75 41.88,-108.75 142.12,-108.75 142.12,-108.75 41.88,-108.75"/>
<polygon fill="#666666" stroke="#666666" points="41.88,-17.25 41.88,-17.25 77,-17.25 77,-17.25 41.88,-17.25"/>
<polygon fill="#666666" stroke="#666666" points="77,-17.25 77,-17.25 142.12,-17.25 142.12,-17.25 77,-17.25"/>
<polygon fill="none" stroke="#666666" points="41.88,0 41.88,-137.25 142.12,-137.25 142.12,0 41.88,0"/>
</a>
</g>
</g>
<!-- Node2 -->
<g id="Node000002" class="node">
<title>Node2</title>
<g id="a_Node000002"><a xlink:title=" ">
<polygon fill="white" stroke="none" points="74.75,-293.62 23.25,-293.62 23.25,-243.88 74.75,-243.88 74.75,-293.62"/>
<text xml:space="preserve" text-anchor="start" x="27.25" y="-280.12" font-family="Helvetica,sans-Serif" font-size="10.00">std::string</text>
<text xml:space="preserve" text-anchor="start" x="47.5" y="-264.88" font-family="Helvetica,sans-Serif" font-size="10.00"> </text>
<text xml:space="preserve" text-anchor="start" x="47.5" y="-249.62" font-family="Helvetica,sans-Serif" font-size="10.00"> </text>
<polygon fill="#666666" stroke="#666666" points="23.25,-276.38 23.25,-276.38 74.75,-276.38 74.75,-276.38 23.25,-276.38"/>
<polygon fill="#666666" stroke="#666666" points="23.25,-261.12 23.25,-261.12 74.75,-261.12 74.75,-261.12 23.25,-261.12"/>
<polygon fill="none" stroke="#666666" points="23.25,-243.88 23.25,-293.62 74.75,-293.62 74.75,-243.88 23.25,-243.88"/>
</a>
</g>
</g>
<!-- Node2&#45;&gt;Node1 -->
<g id="edge1_Node000001_Node000002" class="edge">
<title>Node2&#45;&gt;Node1</title>
<g id="a_edge1_Node000001_Node000002"><a xlink:title=" ">
<path fill="none" stroke="#63b8ff" d="M50.62,-244.24C52.51,-221.32 56.31,-185.57 63.25,-155.25 63.68,-153.39 64.13,-151.51 64.6,-149.62"/>
<polygon fill="none" stroke="#63b8ff" points="64.63,-149.5 62.33,-142.67 67.75,-137.91 70.05,-144.75 64.63,-149.5"/>
</a>
</g>
<text xml:space="preserve" text-anchor="start" x="66.25" y="-175.25" font-family="Helvetica,sans-Serif" font-size="10.00" fill="grey">+content</text>
<text xml:space="preserve" text-anchor="start" x="66.25" y="-160" font-family="Helvetica,sans-Serif" font-size="10.00" fill="grey">+fontPath</text>
</g>
<!-- Node3 -->
<g id="Node000003" class="node">
<title>Node3</title>
<g id="a_Node000003"><a xlink:title=" ">
<polygon fill="white" stroke="none" points="86,-470.88 0,-470.88 0,-409.88 86,-409.88 86,-470.88"/>
<text xml:space="preserve" text-anchor="start" x="4" y="-457.38" font-family="Helvetica,sans-Serif" font-size="10.00">std::basic_string&lt;</text>
<text xml:space="preserve" text-anchor="start" x="26.5" y="-446.12" font-family="Helvetica,sans-Serif" font-size="10.00"> Char &gt;</text>
<text xml:space="preserve" text-anchor="start" x="41.5" y="-430.88" font-family="Helvetica,sans-Serif" font-size="10.00"> </text>
<text xml:space="preserve" text-anchor="start" x="41.5" y="-415.62" font-family="Helvetica,sans-Serif" font-size="10.00"> </text>
<polygon fill="#666666" stroke="#666666" points="0,-442.38 0,-442.38 86,-442.38 86,-442.38 0,-442.38"/>
<polygon fill="#666666" stroke="#666666" points="0,-427.12 0,-427.12 86,-427.12 86,-427.12 0,-427.12"/>
<polygon fill="none" stroke="#666666" points="0,-409.88 0,-470.88 86,-470.88 86,-409.88 0,-409.88"/>
</a>
</g>
</g>
<!-- Node3&#45;&gt;Node2 -->
<g id="edge2_Node000002_Node000003" class="edge">
<title>Node3&#45;&gt;Node2</title>
<g id="a_edge2_Node000002_Node000003"><a xlink:title=" ">
<path fill="none" stroke="#63b8ff" d="M44.44,-398.73C45.6,-365.92 47.19,-320.86 48.16,-293.61"/>
<polygon fill="none" stroke="#63b8ff" points="40.94,-398.59 44.08,-408.7 47.94,-398.83 40.94,-398.59"/>
</a>
</g>
</g>
<!-- Node4 -->
<g id="Node000004" class="node">
<title>Node4</title>
<g id="a_Node000004"><a xlink:href="structrtp_1_1Vec2.html" target="_top" xlink:title=" ">
<polygon fill="white" stroke="none" points="182.25,-331.75 97.75,-331.75 97.75,-205.75 182.25,-205.75 182.25,-331.75"/>
<text xml:space="preserve" text-anchor="start" x="101.75" y="-318.25" font-family="Helvetica,sans-Serif" font-size="10.00">rtp::Vec2&lt; float &gt;</text>
<text xml:space="preserve" text-anchor="start" x="105.06" y="-303" font-family="Helvetica,sans-Serif" font-size="10.00">+</text>
<text xml:space="preserve" text-anchor="start" x="118.38" y="-303" font-family="Helvetica,sans-Serif" font-size="10.00">x</text>
<text xml:space="preserve" text-anchor="start" x="105.06" y="-287.75" font-family="Helvetica,sans-Serif" font-size="10.00">+</text>
<text xml:space="preserve" text-anchor="start" x="118.38" y="-287.75" font-family="Helvetica,sans-Serif" font-size="10.00">y</text>
<text xml:space="preserve" text-anchor="start" x="105.06" y="-272.5" font-family="Helvetica,sans-Serif" font-size="10.00">+</text>
<text xml:space="preserve" text-anchor="start" x="118.38" y="-272.5" font-family="Helvetica,sans-Serif" font-size="10.00">Vec2()</text>
<text xml:space="preserve" text-anchor="start" x="105.06" y="-257.25" font-family="Helvetica,sans-Serif" font-size="10.00">+</text>
<text xml:space="preserve" text-anchor="start" x="118.38" y="-257.25" font-family="Helvetica,sans-Serif" font-size="10.00">Vec2()</text>
<text xml:space="preserve" text-anchor="start" x="105.06" y="-242" font-family="Helvetica,sans-Serif" font-size="10.00">+</text>
<text xml:space="preserve" text-anchor="start" x="118.38" y="-242" font-family="Helvetica,sans-Serif" font-size="10.00">~Vec2()</text>
<text xml:space="preserve" text-anchor="start" x="105.06" y="-226.75" font-family="Helvetica,sans-Serif" font-size="10.00">+</text>
<text xml:space="preserve" text-anchor="start" x="118.38" y="-226.75" font-family="Helvetica,sans-Serif" font-size="10.00">operator==()</text>
<text xml:space="preserve" text-anchor="start" x="105.06" y="-211.5" font-family="Helvetica,sans-Serif" font-size="10.00">+</text>
<text xml:space="preserve" text-anchor="start" x="118.38" y="-211.5" font-family="Helvetica,sans-Serif" font-size="10.00">operator[]()</text>
<polygon fill="#666666" stroke="#666666" points="97.75,-314.5 97.75,-314.5 182.25,-314.5 182.25,-314.5 97.75,-314.5"/>
<polygon fill="#666666" stroke="#666666" points="97.75,-284 97.75,-284 116.38,-284 116.38,-284 97.75,-284"/>
<polygon fill="#666666" stroke="#666666" points="116.38,-284 116.38,-284 182.25,-284 182.25,-284 116.38,-284"/>
<polygon fill="none" stroke="#666666" points="97.75,-205.75 97.75,-331.75 182.25,-331.75 182.25,-205.75 97.75,-205.75"/>
</a>
</g>
</g>
<!-- Node4&#45;&gt;Node1 -->
<g id="edge3_Node000001_Node000004" class="edge">
<title>Node4&#45;&gt;Node1</title>
<g id="a_edge3_Node000001_Node000004"><a xlink:title=" ">
<path fill="none" stroke="#63b8ff" d="M125.01,-205.88C120.7,-188.08 115.93,-168.41 111.4,-149.68"/>
<polygon fill="none" stroke="#63b8ff" points="111.41,-149.76 106.11,-144.87 108.59,-138.1 113.89,-142.99 111.41,-149.76"/>
</a>
</g>
<text xml:space="preserve" text-anchor="start" x="123.3" y="-167.62" font-family="Helvetica,sans-Serif" font-size="10.00" fill="grey">+position</text>
</g>
<!-- Node5 -->
<g id="Node000005" class="node">
<title>Node5</title>
<g id="a_Node000005"><a xlink:href="structrtp_1_1details_1_1VecBase.html" target="_top" xlink:title=" ">
<polygon fill="white" stroke="none" points="253.75,-793 154.25,-793 154.25,-564.25 253.75,-564.25 253.75,-793"/>
<text xml:space="preserve" text-anchor="start" x="158.25" y="-779.5" font-family="Helvetica,sans-Serif" font-size="10.00">rtp::details::VecBase</text>
<text xml:space="preserve" text-anchor="start" x="187.12" y="-768.25" font-family="Helvetica,sans-Serif" font-size="10.00">&lt; T, 2 &gt;</text>
<text xml:space="preserve" text-anchor="start" x="202.5" y="-753" font-family="Helvetica,sans-Serif" font-size="10.00"> </text>
<text xml:space="preserve" text-anchor="start" x="158.75" y="-737.75" font-family="Helvetica,sans-Serif" font-size="10.00">+</text>
<text xml:space="preserve" text-anchor="start" x="169.25" y="-737.75" font-family="Helvetica,sans-Serif" font-size="10.00">squaredDistance()</text>
<text xml:space="preserve" text-anchor="start" x="158.75" y="-722.5" font-family="Helvetica,sans-Serif" font-size="10.00">+</text>
<text xml:space="preserve" text-anchor="start" x="169.25" y="-722.5" font-family="Helvetica,sans-Serif" font-size="10.00">distance()</text>
<text xml:space="preserve" text-anchor="start" x="158.75" y="-707.25" font-family="Helvetica,sans-Serif" font-size="10.00">+</text>
<text xml:space="preserve" text-anchor="start" x="169.25" y="-707.25" font-family="Helvetica,sans-Serif" font-size="10.00">squaredLength()</text>
<text xml:space="preserve" text-anchor="start" x="158.75" y="-692" font-family="Helvetica,sans-Serif" font-size="10.00">+</text>
<text xml:space="preserve" text-anchor="start" x="169.25" y="-692" font-family="Helvetica,sans-Serif" font-size="10.00">length()</text>
<text xml:space="preserve" text-anchor="start" x="158.75" y="-676.75" font-family="Helvetica,sans-Serif" font-size="10.00">+</text>
<text xml:space="preserve" text-anchor="start" x="169.25" y="-676.75" font-family="Helvetica,sans-Serif" font-size="10.00">normalize()</text>
<text xml:space="preserve" text-anchor="start" x="158.75" y="-661.5" font-family="Helvetica,sans-Serif" font-size="10.00">+</text>
<text xml:space="preserve" text-anchor="start" x="169.25" y="-661.5" font-family="Helvetica,sans-Serif" font-size="10.00">normalized()</text>
<text xml:space="preserve" text-anchor="start" x="158.75" y="-646.25" font-family="Helvetica,sans-Serif" font-size="10.00">+</text>
<text xml:space="preserve" text-anchor="start" x="169.25" y="-646.25" font-family="Helvetica,sans-Serif" font-size="10.00">dot()</text>
<text xml:space="preserve" text-anchor="start" x="158.75" y="-631" font-family="Helvetica,sans-Serif" font-size="10.00">+</text>
<text xml:space="preserve" text-anchor="start" x="169.25" y="-631" font-family="Helvetica,sans-Serif" font-size="10.00">project()</text>
<text xml:space="preserve" text-anchor="start" x="158.75" y="-615.75" font-family="Helvetica,sans-Serif" font-size="10.00">+</text>
<text xml:space="preserve" text-anchor="start" x="169.25" y="-615.75" font-family="Helvetica,sans-Serif" font-size="10.00">operator+=()</text>
<text xml:space="preserve" text-anchor="start" x="158.75" y="-600.5" font-family="Helvetica,sans-Serif" font-size="10.00">+</text>
<text xml:space="preserve" text-anchor="start" x="169.25" y="-600.5" font-family="Helvetica,sans-Serif" font-size="10.00">operator&#45;=()</text>
<text xml:space="preserve" text-anchor="start" x="158.75" y="-585.25" font-family="Helvetica,sans-Serif" font-size="10.00">+</text>
<text xml:space="preserve" text-anchor="start" x="169.25" y="-585.25" font-family="Helvetica,sans-Serif" font-size="10.00">operator*=()</text>
<text xml:space="preserve" text-anchor="start" x="158.75" y="-570" font-family="Helvetica,sans-Serif" font-size="10.00">+</text>
<text xml:space="preserve" text-anchor="start" x="169.25" y="-570" font-family="Helvetica,sans-Serif" font-size="10.00">operator/=()</text>
<polygon fill="#666666" stroke="#666666" points="154.25,-764.5 154.25,-764.5 253.75,-764.5 253.75,-764.5 154.25,-764.5"/>
<polygon fill="#666666" stroke="#666666" points="154.25,-749.25 154.25,-749.25 253.75,-749.25 253.75,-749.25 154.25,-749.25"/>
<polygon fill="none" stroke="#666666" points="154.25,-564.25 154.25,-793 253.75,-793 253.75,-564.25 154.25,-564.25"/>
</a>
</g>
</g>
<!-- Node5&#45;&gt;Node4 -->
<g id="edge4_Node000004_Node000005" class="edge">
<title>Node5&#45;&gt;Node4</title>
<g id="a_edge4_Node000004_Node000005"><a xlink:title=" ">
<path fill="none" stroke="#63b8ff" d="M211.35,-553.12C211.58,-490.84 206.58,-415.02 187,-349.75 185.15,-343.58 182.73,-337.38 179.96,-331.32"/>
<polygon fill="none" stroke="#63b8ff" points="207.85,-553.04 211.26,-563.07 214.85,-553.1 207.85,-553.04"/>
</a>
</g>
</g>
<!-- Node7 -->
<g id="Node000007" class="node">
<title>Node7</title>
<g id="a_Node000007"><a xlink:href="structrtp_1_1Vec2.html" target="_top" xlink:title="A 2&#45;dimensional vector.">
<polygon fill="white" stroke="none" points="175.88,-495.75 104.12,-495.75 104.12,-385 175.88,-385 175.88,-495.75"/>
<text xml:space="preserve" text-anchor="start" x="108.12" y="-482.25" font-family="Helvetica,sans-Serif" font-size="10.00">rtp::Vec2&lt; T &gt;</text>
<text xml:space="preserve" text-anchor="start" x="138.5" y="-467" font-family="Helvetica,sans-Serif" font-size="10.00"> </text>
<text xml:space="preserve" text-anchor="start" x="108.25" y="-451.75" font-family="Helvetica,sans-Serif" font-size="10.00">+</text>
<text xml:space="preserve" text-anchor="start" x="118.38" y="-451.75" font-family="Helvetica,sans-Serif" font-size="10.00">Vec2()</text>
<text xml:space="preserve" text-anchor="start" x="108.25" y="-436.5" font-family="Helvetica,sans-Serif" font-size="10.00">+</text>
<text xml:space="preserve" text-anchor="start" x="118.38" y="-436.5" font-family="Helvetica,sans-Serif" font-size="10.00">Vec2()</text>
<text xml:space="preserve" text-anchor="start" x="108.25" y="-421.25" font-family="Helvetica,sans-Serif" font-size="10.00">+</text>
<text xml:space="preserve" text-anchor="start" x="118.38" y="-421.25" font-family="Helvetica,sans-Serif" font-size="10.00">~Vec2()</text>
<text xml:space="preserve" text-anchor="start" x="108.25" y="-406" font-family="Helvetica,sans-Serif" font-size="10.00">+</text>
<text xml:space="preserve" text-anchor="start" x="118.38" y="-406" font-family="Helvetica,sans-Serif" font-size="10.00">operator==()</text>
<text xml:space="preserve" text-anchor="start" x="108.25" y="-390.75" font-family="Helvetica,sans-Serif" font-size="10.00">+</text>
<text xml:space="preserve" text-anchor="start" x="118.38" y="-390.75" font-family="Helvetica,sans-Serif" font-size="10.00">operator[]()</text>
<polygon fill="#666666" stroke="#666666" points="104.12,-478.5 104.12,-478.5 175.88,-478.5 175.88,-478.5 104.12,-478.5"/>
<polygon fill="#666666" stroke="#666666" points="104.12,-463.25 104.12,-463.25 175.88,-463.25 175.88,-463.25 104.12,-463.25"/>
<polygon fill="none" stroke="#666666" points="104.12,-385 104.12,-495.75 175.88,-495.75 175.88,-385 104.12,-385"/>
</a>
</g>
</g>
<!-- Node5&#45;&gt;Node7 -->
<g id="edge7_Node000007_Node000005" class="edge">
<title>Node5&#45;&gt;Node7</title>
<g id="a_edge7_Node000007_Node000005"><a xlink:title=" ">
<path fill="none" stroke="#63b8ff" d="M170.35,-553.41C164.86,-533.14 159.43,-513.11 154.72,-495.72"/>
<polygon fill="none" stroke="#63b8ff" points="166.92,-554.15 172.92,-562.88 173.68,-552.32 166.92,-554.15"/>
</a>
</g>
</g>
<!-- Node6 -->
<g id="Node000006" class="node">
<title>Node6</title>
<g id="a_Node000006"><a xlink:href="structrtp_1_1details_1_1VecBase.html" target="_top" xlink:title="CRTP base class for vectors.">
<polygon fill="white" stroke="none" points="253.75,-1059.75 154.25,-1059.75 154.25,-846.25 253.75,-846.25 253.75,-1059.75"/>
<text xml:space="preserve" text-anchor="start" x="158.25" y="-1046.25" font-family="Helvetica,sans-Serif" font-size="10.00">rtp::details::VecBase</text>
<text xml:space="preserve" text-anchor="start" x="186" y="-1035" font-family="Helvetica,sans-Serif" font-size="10.00">&lt; T, N &gt;</text>
<text xml:space="preserve" text-anchor="start" x="202.5" y="-1019.75" font-family="Helvetica,sans-Serif" font-size="10.00"> </text>
<text xml:space="preserve" text-anchor="start" x="158.75" y="-1004.5" font-family="Helvetica,sans-Serif" font-size="10.00">+</text>
<text xml:space="preserve" text-anchor="start" x="169.25" y="-1004.5" font-family="Helvetica,sans-Serif" font-size="10.00">squaredDistance()</text>
<text xml:space="preserve" text-anchor="start" x="158.75" y="-989.25" font-family="Helvetica,sans-Serif" font-size="10.00">+</text>
<text xml:space="preserve" text-anchor="start" x="169.25" y="-989.25" font-family="Helvetica,sans-Serif" font-size="10.00">distance()</text>
<text xml:space="preserve" text-anchor="start" x="158.75" y="-974" font-family="Helvetica,sans-Serif" font-size="10.00">+</text>
<text xml:space="preserve" text-anchor="start" x="169.25" y="-974" font-family="Helvetica,sans-Serif" font-size="10.00">squaredLength()</text>
<text xml:space="preserve" text-anchor="start" x="158.75" y="-958.75" font-family="Helvetica,sans-Serif" font-size="10.00">+</text>
<text xml:space="preserve" text-anchor="start" x="169.25" y="-958.75" font-family="Helvetica,sans-Serif" font-size="10.00">length()</text>
<text xml:space="preserve" text-anchor="start" x="158.75" y="-943.5" font-family="Helvetica,sans-Serif" font-size="10.00">+</text>
<text xml:space="preserve" text-anchor="start" x="169.25" y="-943.5" font-family="Helvetica,sans-Serif" font-size="10.00">normalize()</text>
<text xml:space="preserve" text-anchor="start" x="158.75" y="-928.25" font-family="Helvetica,sans-Serif" font-size="10.00">+</text>
<text xml:space="preserve" text-anchor="start" x="169.25" y="-928.25" font-family="Helvetica,sans-Serif" font-size="10.00">normalized()</text>
<text xml:space="preserve" text-anchor="start" x="158.75" y="-913" font-family="Helvetica,sans-Serif" font-size="10.00">+</text>
<text xml:space="preserve" text-anchor="start" x="169.25" y="-913" font-family="Helvetica,sans-Serif" font-size="10.00">dot()</text>
<text xml:space="preserve" text-anchor="start" x="158.75" y="-897.75" font-family="Helvetica,sans-Serif" font-size="10.00">+</text>
<text xml:space="preserve" text-anchor="start" x="169.25" y="-897.75" font-family="Helvetica,sans-Serif" font-size="10.00">project()</text>
<text xml:space="preserve" text-anchor="start" x="158.75" y="-882.5" font-family="Helvetica,sans-Serif" font-size="10.00">+</text>
<text xml:space="preserve" text-anchor="start" x="169.25" y="-882.5" font-family="Helvetica,sans-Serif" font-size="10.00">operator+=()</text>
<text xml:space="preserve" text-anchor="start" x="158.75" y="-867.25" font-family="Helvetica,sans-Serif" font-size="10.00">+</text>
<text xml:space="preserve" text-anchor="start" x="169.25" y="-867.25" font-family="Helvetica,sans-Serif" font-size="10.00">operator&#45;=()</text>
<text xml:space="preserve" text-anchor="start" x="169.25" y="-852" font-family="Helvetica,sans-Serif" font-size="10.00">and 6 more...</text>
<polygon fill="#666666" stroke="#666666" points="154.25,-1031.25 154.25,-1031.25 253.75,-1031.25 253.75,-1031.25 154.25,-1031.25"/>
<polygon fill="#666666" stroke="#666666" points="154.25,-1016 154.25,-1016 253.75,-1016 253.75,-1016 154.25,-1016"/>
<polygon fill="none" stroke="#666666" points="154.25,-846.25 154.25,-1059.75 253.75,-1059.75 253.75,-846.25 154.25,-846.25"/>
</a>
</g>
</g>
<!-- Node6&#45;&gt;Node5 -->
<g id="edge5_Node000005_Node000006" class="edge">
<title>Node6&#45;&gt;Node5</title>
<g id="a_edge5_Node000005_Node000006"><a xlink:title=" ">
<path fill="none" stroke="orange" d="M204,-835.15C204,-821.15 204,-806.88 204,-792.93"/>
<polygon fill="orange" stroke="orange" points="200.5,-834.79 204,-844.79 207.5,-834.79 200.5,-834.79"/>
</a>
</g>
<text xml:space="preserve" text-anchor="start" x="207" y="-815.75" font-family="Helvetica,sans-Serif" font-size="10.00" fill="grey">&lt; T, 2 &gt;</text>
</g>
<!-- Node7&#45;&gt;Node4 -->
<g id="edge6_Node000004_Node000007" class="edge">
<title>Node7&#45;&gt;Node4</title>
<g id="a_edge6_Node000004_Node000007"><a xlink:title=" ">
<path fill="none" stroke="orange" d="M140,-373.8C140,-359.94 140,-345.35 140,-331.63"/>
<polygon fill="orange" stroke="orange" points="136.5,-373.72 140,-383.72 143.5,-373.72 136.5,-373.72"/>
</a>
</g>
<text xml:space="preserve" text-anchor="start" x="143" y="-354.5" font-family="Helvetica,sans-Serif" font-size="10.00" fill="grey">&lt; float &gt;</text>
</g>
<!-- Node8 -->
<g id="Node000008" class="node">
<title>Node8</title>
<g id="a_Node000008"><a xlink:title=" ">
<polygon fill="white" stroke="none" points="136,-703.5 122,-703.5 122,-653.75 136,-653.75 136,-703.5"/>
<text xml:space="preserve" text-anchor="start" x="126" y="-690" font-family="Helvetica,sans-Serif" font-size="10.00">T</text>
<text xml:space="preserve" text-anchor="start" x="127.5" y="-674.75" font-family="Helvetica,sans-Serif" font-size="10.00"> </text>
<text xml:space="preserve" text-anchor="start" x="127.5" y="-659.5" font-family="Helvetica,sans-Serif" font-size="10.00"> </text>
<polygon fill="#666666" stroke="#666666" points="122,-686.25 122,-686.25 136,-686.25 136,-686.25 122,-686.25"/>
<polygon fill="#666666" stroke="#666666" points="122,-671 122,-671 136,-671 136,-671 122,-671"/>
<polygon fill="none" stroke="#666666" points="122,-653.75 122,-703.5 136,-703.5 136,-653.75 122,-653.75"/>
</a>
</g>
</g>
<!-- Node8&#45;&gt;Node7 -->
<g id="edge8_Node000007_Node000008" class="edge">
<title>Node8&#45;&gt;Node7</title>
<g id="a_edge8_Node000007_Node000008"><a xlink:title=" ">
<path fill="none" stroke="#63b8ff" d="M130.09,-654.11C131.66,-620.43 134.61,-557.15 136.88,-508.32"/>
<polygon fill="none" stroke="#63b8ff" points="136.89,-508.18 133.17,-502 137.45,-496.19 141.16,-502.37 136.89,-508.18"/>
</a>
</g>
<text xml:space="preserve" text-anchor="start" x="139.44" y="-533.75" font-family="Helvetica,sans-Serif" font-size="10.00" fill="grey">+x</text>
<text xml:space="preserve" text-anchor="start" x="139.44" y="-518.5" font-family="Helvetica,sans-Serif" font-size="10.00" fill="grey">+y</text>
</g>
</g>
</svg>

<g id="navigator" transform="translate(0 0)" fill="#404254">
  <rect fill="#f2f5e9" fill-opacity="0.5" stroke="#606060" stroke-width=".5" x="0" y="0" width="60" height="60"/>
  <use id="zoomplus" xlink:href="#zoomPlus" x="17" y="9" onmousedown="handleZoom(evt,'in')"/>
  <use id="zoomminus" xlink:href="#zoomMin" x="42" y="9" onmousedown="handleZoom(evt,'out')"/>
  <use id="reset" xlink:href="#resetDef" x="30" y="36" onmousedown="handleReset()"/>
   <use id="arrowup" xlink:href="#arrowUp" x="0" y="0" onmousedown="handlePan(0,-1)"/>
  <use id="arrowright" xlink:href="#arrowRight" x="0" y="0" onmousedown="handlePan(1,0)"/>
  <use id="arrowdown" xlink:href="#arrowDown" x="0" y="0" onmousedown="handlePan(0,1)"/>
  <use id="arrowleft" xlink:href="#arrowLeft" x="0" y="0" onmousedown="handlePan(-1,0)"/>
</g>
<svg viewBox="0 0 15 15" width="100%" height="30px" preserveAspectRatio="xMaxYMin meet">
 <g id="arrow_out" transform="scale(0.3 0.3)">
  <a xlink:href="structrtp_1_1ecs_1_1components_1_1ui_1_1Text__coll__graph_org.svg" target="_base">
   <rect id="button" ry="5" rx="5" y="6" x="6" height="38" width="38"
        fill="#f2f5e9" fill-opacity="0.5" stroke="#606060" stroke-width="1.0"/>
   <path id="arrow"
     d="M 11.500037,31.436501 C 11.940474,20.09759 22.043105,11.32322 32.158766,21.979434 L 37.068811,17.246167 C 37.068811,17.246167 37.088388,32 37.088388,32 L 22.160133,31.978069 C 22.160133,31.978069 26.997745,27.140456 26.997745,27.140456 C 18.528582,18.264221 13.291696,25.230495 11.500037,31.436501 z"
     style="fill:#404040;"/>
  </a>
 </g>
</svg>

<style type='text/css'>
<![CDATA[
[data-mouse-over-selected='false'] { opacity: 0.7; }
[data-mouse-over-selected='true']  { opacity: 1.0; }
]]>
</style>
<script type="application/ecmascript"><![CDATA[
document.addEventListener('DOMContentLoaded', (event) => {
  highlightEdges();
  highlightAdjacentNodes();
});
]]></script>
</svg>
