<?xml version="1.0" encoding="UTF-8" standalone="no"?>
<!DOCTYPE svg PUBLIC "-//W3C//DTD SVG 1.1//EN"
 "http://www.w3.org/Graphics/SVG/1.1/DTD/svg11.dtd">
<!-- Generated by graphviz version 14.0.5 (20251129.0259)
 -->
<!-- Title: rtp::ecs::components::Damage Pages: 1 -->
<svg width="133pt" height="309pt"
 viewBox="0.00 0.00 133.00 309.00" xmlns="http://www.w3.org/2000/svg" xmlns:xlink="http://www.w3.org/1999/xlink">

<svg id="main" version="1.1" xmlns="http://www.w3.org/2000/svg" xmlns:xlink="http://www.w3.org/1999/xlink" xml:space="preserve">

<style type="text/css"><![CDATA[
.node, .edge {opacity: 0.7;}
.node.selected, .edge.selected {opacity: 1;}
.edge:hover path { stroke: red; }
.edge:hover polygon { stroke: red; fill: red; }
]]></style>
<script type="application/ecmascript" xlink:href="svg.min.js"/>
<svg id="graph" class="graph">
<g id="graph0" class="graph" transform="scale(1 1) rotate(0) translate(4 305.25)">
<title>rtp::ecs::components::Damage</title>
<!-- Node1 -->
<g id="Node000001" class="node">
<title>Node1</title>
<g id="a_Node000001"><a xlink:title="Component representing damage value.">
<polygon fill="#999999" stroke="none" points="108.25,-61 8,-61 8,0 108.25,0 108.25,-61"/>
<text xml:space="preserve" text-anchor="start" x="12" y="-47.5" font-family="Helvetica,sans-Serif" font-size="10.00">rtp::ecs::components</text>
<text xml:space="preserve" text-anchor="start" x="36.75" y="-36.25" font-family="Helvetica,sans-Serif" font-size="10.00">::Damage</text>
<text xml:space="preserve" text-anchor="start" x="24.5" y="-21" font-family="Helvetica,sans-Serif" font-size="10.00">+</text>
<text xml:space="preserve" text-anchor="start" x="47" y="-21" font-family="Helvetica,sans-Serif" font-size="10.00">amount</text>
<text xml:space="preserve" text-anchor="start" x="56.62" y="-5.75" font-family="Helvetica,sans-Serif" font-size="10.00"> </text>
<polygon fill="#666666" stroke="#666666" points="8,-32.5 8,-32.5 108.25,-32.5 108.25,-32.5 8,-32.5"/>
<polygon fill="#666666" stroke="#666666" points="8,-17.25 8,-17.25 45,-17.25 45,-17.25 8,-17.25"/>
<polygon fill="#666666" stroke="#666666" points="45,-17.25 45,-17.25 108.25,-17.25 108.25,-17.25 45,-17.25"/>
<polygon fill="none" stroke="#666666" points="8,0 8,-61 108.25,-61 108.25,0 8,0"/>
</a>
</g>
</g>
<!-- Node2 -->
<g id="Node000002" class="node">
<title>Node2</title>
<g id="a_Node000002"><a xlink:href="classrtp_1_1ecs_1_1Entity.html" target="_top" xlink:title="Represents an entity in the ECS (Entity&#45;Component&#45;System) architecture.">
<polygon fill="white" stroke="none" points="116.25,-301.25 0,-301.25 0,-114.25 116.25,-114.25 116.25,-301.25"/>
<text xml:space="preserve" text-anchor="start" x="25.88" y="-287.75" font-family="Helvetica,sans-Serif" font-size="10.00">rtp::ecs::Entity</text>
<text xml:space="preserve" text-anchor="start" x="4" y="-272.5" font-family="Helvetica,sans-Serif" font-size="10.00">+</text>
<text xml:space="preserve" text-anchor="start" x="14" y="-272.5" font-family="Helvetica,sans-Serif" font-size="10.00">MAX_INDEX</text>
<text xml:space="preserve" text-anchor="start" x="4" y="-257.25" font-family="Helvetica,sans-Serif" font-size="10.00">+</text>
<text xml:space="preserve" text-anchor="start" x="14" y="-257.25" font-family="Helvetica,sans-Serif" font-size="10.00">INDEX_MASK</text>
<text xml:space="preserve" text-anchor="start" x="4" y="-242" font-family="Helvetica,sans-Serif" font-size="10.00">+</text>
<text xml:space="preserve" text-anchor="start" x="14" y="-242" font-family="Helvetica,sans-Serif" font-size="10.00">GEN_SHIFT</text>
<text xml:space="preserve" text-anchor="start" x="5.5" y="-226.75" font-family="Helvetica,sans-Serif" font-size="10.00">&#45;</text>
<text xml:space="preserve" text-anchor="start" x="14" y="-226.75" font-family="Helvetica,sans-Serif" font-size="10.00">_id</text>
<text xml:space="preserve" text-anchor="start" x="4" y="-211.5" font-family="Helvetica,sans-Serif" font-size="10.00">+</text>
<text xml:space="preserve" text-anchor="start" x="14" y="-211.5" font-family="Helvetica,sans-Serif" font-size="10.00">Entity()</text>
<text xml:space="preserve" text-anchor="start" x="4" y="-196.25" font-family="Helvetica,sans-Serif" font-size="10.00">+</text>
<text xml:space="preserve" text-anchor="start" x="14" y="-196.25" font-family="Helvetica,sans-Serif" font-size="10.00">Entity()</text>
<text xml:space="preserve" text-anchor="start" x="4" y="-181" font-family="Helvetica,sans-Serif" font-size="10.00">+</text>
<text xml:space="preserve" text-anchor="start" x="14" y="-181" font-family="Helvetica,sans-Serif" font-size="10.00">index()</text>
<text xml:space="preserve" text-anchor="start" x="4" y="-165.75" font-family="Helvetica,sans-Serif" font-size="10.00">+</text>
<text xml:space="preserve" text-anchor="start" x="14" y="-165.75" font-family="Helvetica,sans-Serif" font-size="10.00">generation()</text>
<text xml:space="preserve" text-anchor="start" x="4" y="-150.5" font-family="Helvetica,sans-Serif" font-size="10.00">+</text>
<text xml:space="preserve" text-anchor="start" x="14" y="-150.5" font-family="Helvetica,sans-Serif" font-size="10.00">operator&lt;=&gt;()</text>
<text xml:space="preserve" text-anchor="start" x="4" y="-135.25" font-family="Helvetica,sans-Serif" font-size="10.00">+</text>
<text xml:space="preserve" text-anchor="start" x="14" y="-135.25" font-family="Helvetica,sans-Serif" font-size="10.00">operator std::uint64_t()</text>
<text xml:space="preserve" text-anchor="start" x="4" y="-120" font-family="Helvetica,sans-Serif" font-size="10.00">+</text>
<text xml:space="preserve" text-anchor="start" x="14" y="-120" font-family="Helvetica,sans-Serif" font-size="10.00">isNull()</text>
<polygon fill="#666666" stroke="#666666" points="0,-284 0,-284 116.25,-284 116.25,-284 0,-284"/>
<polygon fill="#666666" stroke="#666666" points="0,-223 0,-223 12,-223 12,-223 0,-223"/>
<polygon fill="#666666" stroke="#666666" points="12,-223 12,-223 116.25,-223 116.25,-223 12,-223"/>
<polygon fill="none" stroke="#666666" points="0,-114.25 0,-301.25 116.25,-301.25 116.25,-114.25 0,-114.25"/>
</a>
</g>
</g>
<!-- Node2&#45;&gt;Node1 -->
<g id="edge1_Node000001_Node000002" class="edge">
<title>Node2&#45;&gt;Node1</title>
<g id="a_edge1_Node000001_Node000002"><a xlink:title=" ">
<path fill="none" stroke="#63b8ff" d="M58.12,-114.51C58.12,-100.21 58.12,-86.09 58.12,-73.65"/>
<polygon fill="none" stroke="#63b8ff" points="58.13,-73.79 54.13,-67.79 58.13,-61.79 62.13,-67.79 58.13,-73.79"/>
</a>
</g>
<text xml:space="preserve" text-anchor="start" x="61.12" y="-83.75" font-family="Helvetica,sans-Serif" font-size="10.00" fill="grey">+sourceEntity</text>
</g>
</g>
</svg>
</svg>

<style type='text/css'>
<![CDATA[
[data-mouse-over-selected='false'] { opacity: 0.7; }
[data-mouse-over-selected='true']  { opacity: 1.0; }
]]>
</style>
<script type="application/ecmascript"><![CDATA[
document.addEventListener('DOMContentLoaded', (event) => {
  highlightEdges();
  highlightAdjacentNodes();
});
]]></script>
</svg>
