<?xml version="1.0" encoding="UTF-8" standalone="no"?>
<!DOCTYPE svg PUBLIC "-//W3C//DTD SVG 1.1//EN"
 "http://www.w3.org/Graphics/SVG/1.1/DTD/svg11.dtd">
<!-- Generated by graphviz version 14.0.5 (20251129.0259)
 -->
<!-- Title: rtp::ecs::components::audio::SoundEvent Pages: 1 -->
<svg width="117pt" height="301pt"
 viewBox="0.00 0.00 117.00 301.00" xmlns="http://www.w3.org/2000/svg" xmlns:xlink="http://www.w3.org/1999/xlink">
<g id="graph0" class="graph" transform="scale(1 1) rotate(0) translate(4 296.5)">
<title>rtp::ecs::components::audio::SoundEvent</title>
<!-- Node1 -->
<g id="Node000001" class="node">
<title>Node1</title>
<g id="a_Node000001"><a xlink:title="Component for triggering one&#45;time sound effects (SFX).">
<polygon fill="#999999" stroke="none" points="100.25,-91.5 0,-91.5 0,0 100.25,0 100.25,-91.5"/>
<text xml:space="preserve" text-anchor="start" x="4" y="-78" font-family="Helvetica,sans-Serif" font-size="10.00">rtp::ecs::components</text>
<text xml:space="preserve" text-anchor="start" x="5.88" y="-66.75" font-family="Helvetica,sans-Serif" font-size="10.00">::audio::SoundEvent</text>
<text xml:space="preserve" text-anchor="start" x="16.69" y="-51.5" font-family="Helvetica,sans-Serif" font-size="10.00">+</text>
<text xml:space="preserve" text-anchor="start" x="39.38" y="-51.5" font-family="Helvetica,sans-Serif" font-size="10.00">volume</text>
<text xml:space="preserve" text-anchor="start" x="16.69" y="-36.25" font-family="Helvetica,sans-Serif" font-size="10.00">+</text>
<text xml:space="preserve" text-anchor="start" x="39.38" y="-36.25" font-family="Helvetica,sans-Serif" font-size="10.00">pitch</text>
<text xml:space="preserve" text-anchor="start" x="16.69" y="-21" font-family="Helvetica,sans-Serif" font-size="10.00">+</text>
<text xml:space="preserve" text-anchor="start" x="39.38" y="-21" font-family="Helvetica,sans-Serif" font-size="10.00">played</text>
<text xml:space="preserve" text-anchor="start" x="48.62" y="-5.75" font-family="Helvetica,sans-Serif" font-size="10.00"> </text>
<polygon fill="#666666" stroke="#666666" points="0,-63 0,-63 100.25,-63 100.25,-63 0,-63"/>
<polygon fill="#666666" stroke="#666666" points="0,-17.25 0,-17.25 37.38,-17.25 37.38,-17.25 0,-17.25"/>
<polygon fill="#666666" stroke="#666666" points="37.38,-17.25 37.38,-17.25 100.25,-17.25 100.25,-17.25 37.38,-17.25"/>
<polygon fill="none" stroke="#666666" points="0,0 0,-91.5 100.25,-91.5 100.25,0 0,0"/>
</a>
</g>
</g>
<!-- Node2 -->
<g id="Node000002" class="node">
<title>Node2</title>
<g id="a_Node000002"><a xlink:title=" ">
<polygon fill="white" stroke="none" points="75.88,-194.5 24.38,-194.5 24.38,-144.75 75.88,-144.75 75.88,-194.5"/>
<text xml:space="preserve" text-anchor="start" x="28.38" y="-181" font-family="Helvetica,sans-Serif" font-size="10.00">std::string</text>
<text xml:space="preserve" text-anchor="start" x="48.62" y="-165.75" font-family="Helvetica,sans-Serif" font-size="10.00"> </text>
<text xml:space="preserve" text-anchor="start" x="48.62" y="-150.5" font-family="Helvetica,sans-Serif" font-size="10.00"> </text>
<polygon fill="#666666" stroke="#666666" points="24.38,-177.25 24.38,-177.25 75.88,-177.25 75.88,-177.25 24.38,-177.25"/>
<polygon fill="#666666" stroke="#666666" points="24.38,-162 24.38,-162 75.88,-162 75.88,-162 24.38,-162"/>
<polygon fill="none" stroke="#666666" points="24.38,-144.75 24.38,-194.5 75.88,-194.5 75.88,-144.75 24.38,-144.75"/>
</a>
</g>
</g>
<!-- Node2&#45;&gt;Node1 -->
<g id="edge1_Node000001_Node000002" class="edge">
<title>Node2&#45;&gt;Node1</title>
<g id="a_edge1_Node000001_Node000002"><a xlink:title=" ">
<path fill="none" stroke="#63b8ff" d="M50.12,-144.84C50.12,-133.17 50.12,-118.56 50.12,-104.21"/>
<polygon fill="none" stroke="#63b8ff" points="50.13,-104.1 46.13,-98.1 50.13,-92.1 54.13,-98.1 50.13,-104.1"/>
</a>
</g>
<text xml:space="preserve" text-anchor="start" x="53.12" y="-114.25" font-family="Helvetica,sans-Serif" font-size="10.00" fill="grey">+soundPath</text>
</g>
<!-- Node3 -->
<g id="Node000003" class="node">
<title>Node3</title>
<g id="a_Node000003"><a xlink:title=" ">
<polygon fill="white" stroke="none" points="93.12,-292.5 7.12,-292.5 7.12,-231.5 93.12,-231.5 93.12,-292.5"/>
<text xml:space="preserve" text-anchor="start" x="11.12" y="-279" font-family="Helvetica,sans-Serif" font-size="10.00">std::basic_string&lt;</text>
<text xml:space="preserve" text-anchor="start" x="33.62" y="-267.75" font-family="Helvetica,sans-Serif" font-size="10.00"> Char &gt;</text>
<text xml:space="preserve" text-anchor="start" x="48.62" y="-252.5" font-family="Helvetica,sans-Serif" font-size="10.00"> </text>
<text xml:space="preserve" text-anchor="start" x="48.62" y="-237.25" font-family="Helvetica,sans-Serif" font-size="10.00"> </text>
<polygon fill="#666666" stroke="#666666" points="7.12,-264 7.12,-264 93.12,-264 93.12,-264 7.12,-264"/>
<polygon fill="#666666" stroke="#666666" points="7.12,-248.75 7.12,-248.75 93.12,-248.75 93.12,-248.75 7.12,-248.75"/>
<polygon fill="none" stroke="#666666" points="7.12,-231.5 7.12,-292.5 93.12,-292.5 93.12,-231.5 7.12,-231.5"/>
</a>
</g>
</g>
<!-- Node3&#45;&gt;Node2 -->
<g id="edge2_Node000002_Node000003" class="edge">
<title>Node3&#45;&gt;Node2</title>
<g id="a_edge2_Node000002_Node000003"><a xlink:title=" ">
<path fill="none" stroke="#63b8ff" d="M50.12,-220.4C50.12,-211.44 50.12,-202.25 50.12,-194.23"/>
<polygon fill="none" stroke="#63b8ff" points="46.63,-220.39 50.13,-230.39 53.63,-220.39 46.63,-220.39"/>
</a>
</g>
</g>
</g>
</svg>
