<?xml version="1.0" encoding="UTF-8" standalone="no"?>
<!DOCTYPE svg PUBLIC "-//W3C//DTD SVG 1.1//EN"
 "http://www.w3.org/Graphics/SVG/1.1/DTD/svg11.dtd">
<!-- Generated by graphviz version 14.0.5 (20251129.0259)
 -->
<!-- Title: rtp::server::LevelData Pages: 1 -->
<!--zoomable 1304 -->

<svg id="main" version="1.1" xmlns="http://www.w3.org/2000/svg" xmlns:xlink="http://www.w3.org/1999/xlink" xml:space="preserve" onload="init(evt)">

<style type="text/css"><![CDATA[
.node, .edge {opacity: 0.7;}
.node.selected, .edge.selected {opacity: 1;}
.edge:hover path { stroke: red; }
.edge:hover polygon { stroke: red; fill: red; }
]]></style>

<defs>
  <circle id="rim" cx="0" cy="0" r="7"/>
  <circle id="rim2" cx="0" cy="0" r="3.5"/>
  <g id="zoomPlus">
    <use xlink:href="#rim" fill="#404040"><set attributeName="fill" to="#808080" begin="zoomplus.mouseover" end="zoomplus.mouseout"/></use>
    <path d="M-4,0h8M0,-4v8" fill="none" stroke="white" stroke-width="1.5" pointer-events="none"/>
  </g>
  <g id="zoomMin">
    <use xlink:href="#rim" fill="#404040"><set attributeName="fill" to="#808080" begin="zoomminus.mouseover" end="zoomminus.mouseout"/></use>
    <path d="M-4,0h8" fill="none" stroke="white" stroke-width="1.5" pointer-events="none"/>
  </g>
  <g id="arrowUp" transform="translate(30 24)">
    <use xlink:href="#rim"/>
    <path pointer-events="none" fill="none" stroke="white" stroke-width="1.5" d="M0,-3.0v7 M-2.5,-0.5L0,-3.0L2.5,-0.5"/>
  </g>
  <g id="arrowRight" transform="rotate(90) translate(36 -43)">
    <use xlink:href="#rim"/>
    <path pointer-events="none" fill="none" stroke="white" stroke-width="1.5" d="M0,-3.0v7 M-2.5,-0.5L0,-3.0L2.5,-0.5"/>
  </g>
  <g id="arrowDown" transform="rotate(180) translate(-30 -48)">
    <use xlink:href="#rim"/>
    <path pointer-events="none" fill="none" stroke="white" stroke-width="1.5" d="M0,-3.0v7 M-2.5,-0.5L0,-3.0L2.5,-0.5"/>
  </g>
  <g id="arrowLeft" transform="rotate(270) translate(-36 17)">
    <use xlink:href="#rim"/>
    <path pointer-events="none" fill="none" stroke="white" stroke-width="1.5" d="M0,-3.0v7 M-2.5,-0.5L0,-3.0L2.5,-0.5"/>
  </g>
  <g id="resetDef">
    <use xlink:href="#rim2" fill="#404040"><set attributeName="fill" to="#808080" begin="reset.mouseover" end="reset.mouseout"/></use>
  </g>
</defs>
<script type="application/ecmascript">
var viewWidth = 869;
var viewHeight = 1304;
var sectionId = 'dynsection-0';
</script>
<script type="application/ecmascript" xlink:href="svg.min.js"/>
<svg id="graph" class="graph">
<g id="viewport">
<title>rtp::server::LevelData</title>
<!-- Node1 -->
<g id="Node000001" class="node">
<title>Node1</title>
<g id="a_Node000001"><a xlink:title=" ">
<polygon fill="#999999" stroke="none" points="287.25,-65 184.75,-65 184.75,0 287.25,0 287.25,-65"/>
<text xml:space="preserve" text-anchor="start" x="188.75" y="-51.5" font-family="Helvetica,sans-Serif" font-size="10.00">rtp::server::LevelData</text>
<text xml:space="preserve" text-anchor="start" x="197.31" y="-36.25" font-family="Helvetica,sans-Serif" font-size="10.00">+</text>
<text xml:space="preserve" text-anchor="start" x="215.88" y="-36.25" font-family="Helvetica,sans-Serif" font-size="10.00">id</text>
<text xml:space="preserve" text-anchor="start" x="197.31" y="-21" font-family="Helvetica,sans-Serif" font-size="10.00">+</text>
<text xml:space="preserve" text-anchor="start" x="215.88" y="-21" font-family="Helvetica,sans-Serif" font-size="10.00">widthPixels</text>
<text xml:space="preserve" text-anchor="start" x="234.5" y="-5.75" font-family="Helvetica,sans-Serif" font-size="10.00"> </text>
<polygon fill="#666666" stroke="#666666" points="184.75,-47.75 184.75,-47.75 287.25,-47.75 287.25,-47.75 184.75,-47.75"/>
<polygon fill="#666666" stroke="#666666" points="184.75,-17.25 184.75,-17.25 213.88,-17.25 213.88,-17.25 184.75,-17.25"/>
<polygon fill="#666666" stroke="#666666" points="213.88,-17.25 213.88,-17.25 287.25,-17.25 287.25,-17.25 213.88,-17.25"/>
<polygon fill="none" stroke="#666666" points="184.75,0 184.75,-65 287.25,-65 287.25,0 184.75,0"/>
</a>
</g>
</g>
<!-- Node2 -->
<g id="Node000002" class="node">
<title>Node2</title>
<g id="a_Node000002"><a xlink:title=" ">
<polygon fill="white" stroke="none" points="68.75,-188.88 17.25,-188.88 17.25,-139.12 68.75,-139.12 68.75,-188.88"/>
<text xml:space="preserve" text-anchor="start" x="21.25" y="-175.38" font-family="Helvetica,sans-Serif" font-size="10.00">std::string</text>
<text xml:space="preserve" text-anchor="start" x="41.5" y="-160.12" font-family="Helvetica,sans-Serif" font-size="10.00"> </text>
<text xml:space="preserve" text-anchor="start" x="41.5" y="-144.88" font-family="Helvetica,sans-Serif" font-size="10.00"> </text>
<polygon fill="#666666" stroke="#666666" points="17.25,-171.62 17.25,-171.62 68.75,-171.62 68.75,-171.62 17.25,-171.62"/>
<polygon fill="#666666" stroke="#666666" points="17.25,-156.38 17.25,-156.38 68.75,-156.38 68.75,-156.38 17.25,-156.38"/>
<polygon fill="none" stroke="#666666" points="17.25,-139.12 17.25,-188.88 68.75,-188.88 68.75,-139.12 17.25,-139.12"/>
</a>
</g>
</g>
<!-- Node2&#45;&gt;Node1 -->
<g id="edge1_Node000001_Node000002" class="edge">
<title>Node2&#45;&gt;Node1</title>
<g id="a_edge1_Node000001_Node000002"><a xlink:title=" ">
<path fill="none" stroke="#63b8ff" d="M36.49,-139.48C33.18,-122.05 32.1,-98.7 44.5,-83 60.37,-62.9 122.77,-49.42 172.08,-41.66"/>
<polygon fill="none" stroke="#63b8ff" points="172.19,-41.65 177.52,-36.8 184.05,-39.86 178.72,-44.71 172.19,-41.65"/>
</a>
</g>
<text xml:space="preserve" text-anchor="start" x="47.5" y="-103" font-family="Helvetica,sans-Serif" font-size="10.00" fill="grey">+name</text>
<text xml:space="preserve" text-anchor="start" x="47.5" y="-87.75" font-family="Helvetica,sans-Serif" font-size="10.00" fill="grey">+tilesetPath</text>
</g>
<!-- Node3 -->
<g id="Node000003" class="node">
<title>Node3</title>
<g id="a_Node000003"><a xlink:title=" ">
<polygon fill="white" stroke="none" points="86,-341.25 0,-341.25 0,-280.25 86,-280.25 86,-341.25"/>
<text xml:space="preserve" text-anchor="start" x="4" y="-327.75" font-family="Helvetica,sans-Serif" font-size="10.00">std::basic_string&lt;</text>
<text xml:space="preserve" text-anchor="start" x="26.5" y="-316.5" font-family="Helvetica,sans-Serif" font-size="10.00"> Char &gt;</text>
<text xml:space="preserve" text-anchor="start" x="41.5" y="-301.25" font-family="Helvetica,sans-Serif" font-size="10.00"> </text>
<text xml:space="preserve" text-anchor="start" x="41.5" y="-286" font-family="Helvetica,sans-Serif" font-size="10.00"> </text>
<polygon fill="#666666" stroke="#666666" points="0,-312.75 0,-312.75 86,-312.75 86,-312.75 0,-312.75"/>
<polygon fill="#666666" stroke="#666666" points="0,-297.5 0,-297.5 86,-297.5 86,-297.5 0,-297.5"/>
<polygon fill="none" stroke="#666666" points="0,-280.25 0,-341.25 86,-341.25 86,-280.25 0,-280.25"/>
</a>
</g>
</g>
<!-- Node3&#45;&gt;Node2 -->
<g id="edge2_Node000002_Node000003" class="edge">
<title>Node3&#45;&gt;Node2</title>
<g id="a_edge2_Node000002_Node000003"><a xlink:title=" ">
<path fill="none" stroke="#63b8ff" d="M43,-269.06C43,-243.06 43,-210.27 43,-188.52"/>
<polygon fill="none" stroke="#63b8ff" points="39.5,-268.94 43,-278.94 46.5,-268.94 39.5,-268.94"/>
</a>
</g>
</g>
<!-- Node4 -->
<g id="Node000004" class="node">
<title>Node4</title>
<g id="a_Node000004"><a xlink:href="structrtp_1_1Vec2.html" target="_top" xlink:title=" ">
<polygon fill="white" stroke="none" points="370.25,-568.25 285.75,-568.25 285.75,-442.25 370.25,-442.25 370.25,-568.25"/>
<text xml:space="preserve" text-anchor="start" x="289.75" y="-554.75" font-family="Helvetica,sans-Serif" font-size="10.00">rtp::Vec2&lt; float &gt;</text>
<text xml:space="preserve" text-anchor="start" x="293.06" y="-539.5" font-family="Helvetica,sans-Serif" font-size="10.00">+</text>
<text xml:space="preserve" text-anchor="start" x="306.38" y="-539.5" font-family="Helvetica,sans-Serif" font-size="10.00">x</text>
<text xml:space="preserve" text-anchor="start" x="293.06" y="-524.25" font-family="Helvetica,sans-Serif" font-size="10.00">+</text>
<text xml:space="preserve" text-anchor="start" x="306.38" y="-524.25" font-family="Helvetica,sans-Serif" font-size="10.00">y</text>
<text xml:space="preserve" text-anchor="start" x="293.06" y="-509" font-family="Helvetica,sans-Serif" font-size="10.00">+</text>
<text xml:space="preserve" text-anchor="start" x="306.38" y="-509" font-family="Helvetica,sans-Serif" font-size="10.00">Vec2()</text>
<text xml:space="preserve" text-anchor="start" x="293.06" y="-493.75" font-family="Helvetica,sans-Serif" font-size="10.00">+</text>
<text xml:space="preserve" text-anchor="start" x="306.38" y="-493.75" font-family="Helvetica,sans-Serif" font-size="10.00">Vec2()</text>
<text xml:space="preserve" text-anchor="start" x="293.06" y="-478.5" font-family="Helvetica,sans-Serif" font-size="10.00">+</text>
<text xml:space="preserve" text-anchor="start" x="306.38" y="-478.5" font-family="Helvetica,sans-Serif" font-size="10.00">~Vec2()</text>
<text xml:space="preserve" text-anchor="start" x="293.06" y="-463.25" font-family="Helvetica,sans-Serif" font-size="10.00">+</text>
<text xml:space="preserve" text-anchor="start" x="306.38" y="-463.25" font-family="Helvetica,sans-Serif" font-size="10.00">operator==()</text>
<text xml:space="preserve" text-anchor="start" x="293.06" y="-448" font-family="Helvetica,sans-Serif" font-size="10.00">+</text>
<text xml:space="preserve" text-anchor="start" x="306.38" y="-448" font-family="Helvetica,sans-Serif" font-size="10.00">operator[]()</text>
<polygon fill="#666666" stroke="#666666" points="285.75,-551 285.75,-551 370.25,-551 370.25,-551 285.75,-551"/>
<polygon fill="#666666" stroke="#666666" points="285.75,-520.5 285.75,-520.5 304.38,-520.5 304.38,-520.5 285.75,-520.5"/>
<polygon fill="#666666" stroke="#666666" points="304.38,-520.5 304.38,-520.5 370.25,-520.5 370.25,-520.5 304.38,-520.5"/>
<polygon fill="none" stroke="#666666" points="285.75,-442.25 285.75,-568.25 370.25,-568.25 370.25,-442.25 285.75,-442.25"/>
</a>
</g>
</g>
<!-- Node4&#45;&gt;Node1 -->
<g id="edge3_Node000001_Node000004" class="edge">
<title>Node4&#45;&gt;Node1</title>
<g id="a_edge3_Node000001_Node000004"><a xlink:title=" ">
<path fill="none" stroke="#63b8ff" d="M285.77,-472.49C255.92,-448.21 216.78,-412.42 191,-373.75 152.97,-316.71 148.24,-297.15 135.75,-229.75 125,-171.73 163.59,-112.4 195.96,-74.39"/>
<polygon fill="none" stroke="#63b8ff" points="195.94,-74.41 196.9,-67.27 203.86,-65.4 202.9,-72.55 195.94,-74.41"/>
</a>
</g>
<text xml:space="preserve" text-anchor="start" x="138.75" y="-217.25" font-family="Helvetica,sans-Serif" font-size="10.00" fill="grey">+playerStart</text>
</g>
<!-- Node10 -->
<g id="Node000010" class="node">
<title>Node10</title>
<g id="a_Node000010"><a xlink:href="structrtp_1_1server_1_1SpawnEvent.html" target="_top" xlink:title=" ">
<polygon fill="white" stroke="none" points="313.88,-373.75 200.12,-373.75 200.12,-247.75 313.88,-247.75 313.88,-373.75"/>
<text xml:space="preserve" text-anchor="start" x="204.12" y="-360.25" font-family="Helvetica,sans-Serif" font-size="10.00">rtp::server::SpawnEvent</text>
<text xml:space="preserve" text-anchor="start" x="217.38" y="-345" font-family="Helvetica,sans-Serif" font-size="10.00">+</text>
<text xml:space="preserve" text-anchor="start" x="240.62" y="-345" font-family="Helvetica,sans-Serif" font-size="10.00">atTime</text>
<text xml:space="preserve" text-anchor="start" x="217.38" y="-329.75" font-family="Helvetica,sans-Serif" font-size="10.00">+</text>
<text xml:space="preserve" text-anchor="start" x="240.62" y="-329.75" font-family="Helvetica,sans-Serif" font-size="10.00">type</text>
<text xml:space="preserve" text-anchor="start" x="217.38" y="-314.5" font-family="Helvetica,sans-Serif" font-size="10.00">+</text>
<text xml:space="preserve" text-anchor="start" x="240.62" y="-314.5" font-family="Helvetica,sans-Serif" font-size="10.00">pattern</text>
<text xml:space="preserve" text-anchor="start" x="217.38" y="-299.25" font-family="Helvetica,sans-Serif" font-size="10.00">+</text>
<text xml:space="preserve" text-anchor="start" x="240.62" y="-299.25" font-family="Helvetica,sans-Serif" font-size="10.00">speed</text>
<text xml:space="preserve" text-anchor="start" x="217.38" y="-284" font-family="Helvetica,sans-Serif" font-size="10.00">+</text>
<text xml:space="preserve" text-anchor="start" x="240.62" y="-284" font-family="Helvetica,sans-Serif" font-size="10.00">amplitude</text>
<text xml:space="preserve" text-anchor="start" x="217.38" y="-268.75" font-family="Helvetica,sans-Serif" font-size="10.00">+</text>
<text xml:space="preserve" text-anchor="start" x="240.62" y="-268.75" font-family="Helvetica,sans-Serif" font-size="10.00">frequency</text>
<text xml:space="preserve" text-anchor="start" x="255.5" y="-253.5" font-family="Helvetica,sans-Serif" font-size="10.00"> </text>
<polygon fill="#666666" stroke="#666666" points="200.12,-356.5 200.12,-356.5 313.88,-356.5 313.88,-356.5 200.12,-356.5"/>
<polygon fill="#666666" stroke="#666666" points="200.12,-265 200.12,-265 238.62,-265 238.62,-265 200.12,-265"/>
<polygon fill="#666666" stroke="#666666" points="238.62,-265 238.62,-265 313.88,-265 313.88,-265 238.62,-265"/>
<polygon fill="none" stroke="#666666" points="200.12,-247.75 200.12,-373.75 313.88,-373.75 313.88,-247.75 200.12,-247.75"/>
</a>
</g>
</g>
<!-- Node4&#45;&gt;Node10 -->
<g id="edge11_Node000010_Node000004" class="edge">
<title>Node4&#45;&gt;Node10</title>
<g id="a_edge11_Node000010_Node000004"><a xlink:title=" ">
<path fill="none" stroke="#63b8ff" d="M305.14,-442.28C298.49,-424.25 291.16,-404.37 284.27,-385.68"/>
<polygon fill="none" stroke="#63b8ff" points="284.28,-385.71 278.45,-381.46 280.12,-374.45 285.95,-378.69 284.28,-385.71"/>
</a>
</g>
<text xml:space="preserve" text-anchor="start" x="299.75" y="-404.12" font-family="Helvetica,sans-Serif" font-size="10.00" fill="grey">+startPosition</text>
</g>
<!-- Node13 -->
<g id="Node000013" class="node">
<title>Node13</title>
<g id="a_Node000013"><a xlink:href="structrtp_1_1server_1_1PowerupEvent.html" target="_top" xlink:title=" ">
<polygon fill="white" stroke="none" points="627,-358.5 505,-358.5 505,-263 627,-263 627,-358.5"/>
<text xml:space="preserve" text-anchor="start" x="509" y="-345" font-family="Helvetica,sans-Serif" font-size="10.00">rtp::server::PowerupEvent</text>
<text xml:space="preserve" text-anchor="start" x="526.38" y="-329.75" font-family="Helvetica,sans-Serif" font-size="10.00">+</text>
<text xml:space="preserve" text-anchor="start" x="553.75" y="-329.75" font-family="Helvetica,sans-Serif" font-size="10.00">atTime</text>
<text xml:space="preserve" text-anchor="start" x="526.38" y="-314.5" font-family="Helvetica,sans-Serif" font-size="10.00">+</text>
<text xml:space="preserve" text-anchor="start" x="553.75" y="-314.5" font-family="Helvetica,sans-Serif" font-size="10.00">type</text>
<text xml:space="preserve" text-anchor="start" x="526.38" y="-299.25" font-family="Helvetica,sans-Serif" font-size="10.00">+</text>
<text xml:space="preserve" text-anchor="start" x="553.75" y="-299.25" font-family="Helvetica,sans-Serif" font-size="10.00">value</text>
<text xml:space="preserve" text-anchor="start" x="526.38" y="-284" font-family="Helvetica,sans-Serif" font-size="10.00">+</text>
<text xml:space="preserve" text-anchor="start" x="553.75" y="-284" font-family="Helvetica,sans-Serif" font-size="10.00">duration</text>
<text xml:space="preserve" text-anchor="start" x="564.5" y="-268.75" font-family="Helvetica,sans-Serif" font-size="10.00"> </text>
<polygon fill="#666666" stroke="#666666" points="505,-341.25 505,-341.25 627,-341.25 627,-341.25 505,-341.25"/>
<polygon fill="#666666" stroke="#666666" points="505,-280.25 505,-280.25 551.75,-280.25 551.75,-280.25 505,-280.25"/>
<polygon fill="#666666" stroke="#666666" points="551.75,-280.25 551.75,-280.25 627,-280.25 627,-280.25 551.75,-280.25"/>
<polygon fill="none" stroke="#666666" points="505,-263 505,-358.5 627,-358.5 627,-263 505,-263"/>
</a>
</g>
</g>
<!-- Node4&#45;&gt;Node13 -->
<g id="edge16_Node000013_Node000004" class="edge">
<title>Node4&#45;&gt;Node13</title>
<g id="a_edge16_Node000013_Node000004"><a xlink:title=" ">
<path fill="none" stroke="#63b8ff" d="M370,-470.28C405.51,-441.56 457.04,-399.88 498.35,-366.46"/>
<polygon fill="none" stroke="#63b8ff" points="498.32,-366.49 500.47,-359.61 507.65,-358.95 505.5,-365.83 498.32,-366.49"/>
</a>
</g>
<text xml:space="preserve" text-anchor="start" x="464.25" y="-404.12" font-family="Helvetica,sans-Serif" font-size="10.00" fill="grey">+position</text>
</g>
<!-- Node15 -->
<g id="Node000015" class="node">
<title>Node15</title>
<g id="a_Node000015"><a xlink:href="structrtp_1_1server_1_1ObstacleEvent.html" target="_top" xlink:title=" ">
<polygon fill="white" stroke="none" points="826.38,-350.88 703.62,-350.88 703.62,-270.62 826.38,-270.62 826.38,-350.88"/>
<text xml:space="preserve" text-anchor="start" x="707.62" y="-337.38" font-family="Helvetica,sans-Serif" font-size="10.00">rtp::server::ObstacleEvent</text>
<text xml:space="preserve" text-anchor="start" x="726.31" y="-322.12" font-family="Helvetica,sans-Serif" font-size="10.00">+</text>
<text xml:space="preserve" text-anchor="start" x="755" y="-322.12" font-family="Helvetica,sans-Serif" font-size="10.00">atTime</text>
<text xml:space="preserve" text-anchor="start" x="726.31" y="-306.88" font-family="Helvetica,sans-Serif" font-size="10.00">+</text>
<text xml:space="preserve" text-anchor="start" x="755" y="-306.88" font-family="Helvetica,sans-Serif" font-size="10.00">health</text>
<text xml:space="preserve" text-anchor="start" x="726.31" y="-291.62" font-family="Helvetica,sans-Serif" font-size="10.00">+</text>
<text xml:space="preserve" text-anchor="start" x="755" y="-291.62" font-family="Helvetica,sans-Serif" font-size="10.00">type</text>
<text xml:space="preserve" text-anchor="start" x="763.5" y="-276.38" font-family="Helvetica,sans-Serif" font-size="10.00"> </text>
<polygon fill="#666666" stroke="#666666" points="703.62,-333.62 703.62,-333.62 826.38,-333.62 826.38,-333.62 703.62,-333.62"/>
<polygon fill="#666666" stroke="#666666" points="703.62,-287.88 703.62,-287.88 753,-287.88 753,-287.88 703.62,-287.88"/>
<polygon fill="#666666" stroke="#666666" points="753,-287.88 753,-287.88 826.38,-287.88 826.38,-287.88 753,-287.88"/>
<polygon fill="none" stroke="#666666" points="703.62,-270.62 703.62,-350.88 826.38,-350.88 826.38,-270.62 703.62,-270.62"/>
</a>
</g>
</g>
<!-- Node4&#45;&gt;Node15 -->
<g id="edge20_Node000015_Node000004" class="edge">
<title>Node4&#45;&gt;Node15</title>
<g id="a_edge20_Node000015_Node000004"><a xlink:title=" ">
<path fill="none" stroke="#63b8ff" d="M370.12,-487.14C429.69,-462.78 541.8,-416.32 636,-373.75 654.38,-365.44 674.08,-356.17 692.41,-347.38"/>
<polygon fill="none" stroke="#63b8ff" points="692.3,-347.43 695.97,-341.22 703.11,-342.22 699.44,-348.43 692.3,-347.43"/>
</a>
</g>
<text xml:space="preserve" text-anchor="start" x="597.45" y="-411.75" font-family="Helvetica,sans-Serif" font-size="10.00" fill="grey">+position</text>
<text xml:space="preserve" text-anchor="start" x="597.45" y="-396.5" font-family="Helvetica,sans-Serif" font-size="10.00" fill="grey">+size</text>
</g>
<!-- Node5 -->
<g id="Node000005" class="node">
<title>Node5</title>
<g id="a_Node000005"><a xlink:href="structrtp_1_1details_1_1VecBase.html" target="_top" xlink:title=" ">
<polygon fill="white" stroke="none" points="363.75,-1029.5 264.25,-1029.5 264.25,-800.75 363.75,-800.75 363.75,-1029.5"/>
<text xml:space="preserve" text-anchor="start" x="268.25" y="-1016" font-family="Helvetica,sans-Serif" font-size="10.00">rtp::details::VecBase</text>
<text xml:space="preserve" text-anchor="start" x="297.12" y="-1004.75" font-family="Helvetica,sans-Serif" font-size="10.00">&lt; T, 2 &gt;</text>
<text xml:space="preserve" text-anchor="start" x="312.5" y="-989.5" font-family="Helvetica,sans-Serif" font-size="10.00"> </text>
<text xml:space="preserve" text-anchor="start" x="268.75" y="-974.25" font-family="Helvetica,sans-Serif" font-size="10.00">+</text>
<text xml:space="preserve" text-anchor="start" x="279.25" y="-974.25" font-family="Helvetica,sans-Serif" font-size="10.00">squaredDistance()</text>
<text xml:space="preserve" text-anchor="start" x="268.75" y="-959" font-family="Helvetica,sans-Serif" font-size="10.00">+</text>
<text xml:space="preserve" text-anchor="start" x="279.25" y="-959" font-family="Helvetica,sans-Serif" font-size="10.00">distance()</text>
<text xml:space="preserve" text-anchor="start" x="268.75" y="-943.75" font-family="Helvetica,sans-Serif" font-size="10.00">+</text>
<text xml:space="preserve" text-anchor="start" x="279.25" y="-943.75" font-family="Helvetica,sans-Serif" font-size="10.00">squaredLength()</text>
<text xml:space="preserve" text-anchor="start" x="268.75" y="-928.5" font-family="Helvetica,sans-Serif" font-size="10.00">+</text>
<text xml:space="preserve" text-anchor="start" x="279.25" y="-928.5" font-family="Helvetica,sans-Serif" font-size="10.00">length()</text>
<text xml:space="preserve" text-anchor="start" x="268.75" y="-913.25" font-family="Helvetica,sans-Serif" font-size="10.00">+</text>
<text xml:space="preserve" text-anchor="start" x="279.25" y="-913.25" font-family="Helvetica,sans-Serif" font-size="10.00">normalize()</text>
<text xml:space="preserve" text-anchor="start" x="268.75" y="-898" font-family="Helvetica,sans-Serif" font-size="10.00">+</text>
<text xml:space="preserve" text-anchor="start" x="279.25" y="-898" font-family="Helvetica,sans-Serif" font-size="10.00">normalized()</text>
<text xml:space="preserve" text-anchor="start" x="268.75" y="-882.75" font-family="Helvetica,sans-Serif" font-size="10.00">+</text>
<text xml:space="preserve" text-anchor="start" x="279.25" y="-882.75" font-family="Helvetica,sans-Serif" font-size="10.00">dot()</text>
<text xml:space="preserve" text-anchor="start" x="268.75" y="-867.5" font-family="Helvetica,sans-Serif" font-size="10.00">+</text>
<text xml:space="preserve" text-anchor="start" x="279.25" y="-867.5" font-family="Helvetica,sans-Serif" font-size="10.00">project()</text>
<text xml:space="preserve" text-anchor="start" x="268.75" y="-852.25" font-family="Helvetica,sans-Serif" font-size="10.00">+</text>
<text xml:space="preserve" text-anchor="start" x="279.25" y="-852.25" font-family="Helvetica,sans-Serif" font-size="10.00">operator+=()</text>
<text xml:space="preserve" text-anchor="start" x="268.75" y="-837" font-family="Helvetica,sans-Serif" font-size="10.00">+</text>
<text xml:space="preserve" text-anchor="start" x="279.25" y="-837" font-family="Helvetica,sans-Serif" font-size="10.00">operator&#45;=()</text>
<text xml:space="preserve" text-anchor="start" x="268.75" y="-821.75" font-family="Helvetica,sans-Serif" font-size="10.00">+</text>
<text xml:space="preserve" text-anchor="start" x="279.25" y="-821.75" font-family="Helvetica,sans-Serif" font-size="10.00">operator*=()</text>
<text xml:space="preserve" text-anchor="start" x="268.75" y="-806.5" font-family="Helvetica,sans-Serif" font-size="10.00">+</text>
<text xml:space="preserve" text-anchor="start" x="279.25" y="-806.5" font-family="Helvetica,sans-Serif" font-size="10.00">operator/=()</text>
<polygon fill="#666666" stroke="#666666" points="264.25,-1001 264.25,-1001 363.75,-1001 363.75,-1001 264.25,-1001"/>
<polygon fill="#666666" stroke="#666666" points="264.25,-985.75 264.25,-985.75 363.75,-985.75 363.75,-985.75 264.25,-985.75"/>
<polygon fill="none" stroke="#666666" points="264.25,-800.75 264.25,-1029.5 363.75,-1029.5 363.75,-800.75 264.25,-800.75"/>
</a>
</g>
</g>
<!-- Node5&#45;&gt;Node4 -->
<g id="edge4_Node000004_Node000005" class="edge">
<title>Node5&#45;&gt;Node4</title>
<g id="a_edge4_Node000004_Node000005"><a xlink:title=" ">
<path fill="none" stroke="#63b8ff" d="M313.7,-789.52C314.1,-737.55 315.24,-676.58 318,-621.5 318.87,-604.15 320.29,-585.37 321.8,-568.1"/>
<polygon fill="none" stroke="#63b8ff" points="310.2,-789.27 313.64,-799.3 317.2,-789.32 310.2,-789.27"/>
</a>
</g>
</g>
<!-- Node7 -->
<g id="Node000007" class="node">
<title>Node7</title>
<g id="a_Node000007"><a xlink:href="structrtp_1_1Vec2.html" target="_top" xlink:title="A 2&#45;dimensional vector.">
<polygon fill="white" stroke="none" points="398.88,-732.25 327.12,-732.25 327.12,-621.5 398.88,-621.5 398.88,-732.25"/>
<text xml:space="preserve" text-anchor="start" x="331.12" y="-718.75" font-family="Helvetica,sans-Serif" font-size="10.00">rtp::Vec2&lt; T &gt;</text>
<text xml:space="preserve" text-anchor="start" x="361.5" y="-703.5" font-family="Helvetica,sans-Serif" font-size="10.00"> </text>
<text xml:space="preserve" text-anchor="start" x="331.25" y="-688.25" font-family="Helvetica,sans-Serif" font-size="10.00">+</text>
<text xml:space="preserve" text-anchor="start" x="341.38" y="-688.25" font-family="Helvetica,sans-Serif" font-size="10.00">Vec2()</text>
<text xml:space="preserve" text-anchor="start" x="331.25" y="-673" font-family="Helvetica,sans-Serif" font-size="10.00">+</text>
<text xml:space="preserve" text-anchor="start" x="341.38" y="-673" font-family="Helvetica,sans-Serif" font-size="10.00">Vec2()</text>
<text xml:space="preserve" text-anchor="start" x="331.25" y="-657.75" font-family="Helvetica,sans-Serif" font-size="10.00">+</text>
<text xml:space="preserve" text-anchor="start" x="341.38" y="-657.75" font-family="Helvetica,sans-Serif" font-size="10.00">~Vec2()</text>
<text xml:space="preserve" text-anchor="start" x="331.25" y="-642.5" font-family="Helvetica,sans-Serif" font-size="10.00">+</text>
<text xml:space="preserve" text-anchor="start" x="341.38" y="-642.5" font-family="Helvetica,sans-Serif" font-size="10.00">operator==()</text>
<text xml:space="preserve" text-anchor="start" x="331.25" y="-627.25" font-family="Helvetica,sans-Serif" font-size="10.00">+</text>
<text xml:space="preserve" text-anchor="start" x="341.38" y="-627.25" font-family="Helvetica,sans-Serif" font-size="10.00">operator[]()</text>
<polygon fill="#666666" stroke="#666666" points="327.12,-715 327.12,-715 398.88,-715 398.88,-715 327.12,-715"/>
<polygon fill="#666666" stroke="#666666" points="327.12,-699.75 327.12,-699.75 398.88,-699.75 398.88,-699.75 327.12,-699.75"/>
<polygon fill="none" stroke="#666666" points="327.12,-621.5 327.12,-732.25 398.88,-732.25 398.88,-621.5 327.12,-621.5"/>
</a>
</g>
</g>
<!-- Node5&#45;&gt;Node7 -->
<g id="edge7_Node000007_Node000005" class="edge">
<title>Node5&#45;&gt;Node7</title>
<g id="a_edge7_Node000007_Node000005"><a xlink:title=" ">
<path fill="none" stroke="#63b8ff" d="M339.82,-789.63C344.01,-769.45 348.14,-749.53 351.73,-732.22"/>
<polygon fill="none" stroke="#63b8ff" points="336.41,-788.86 337.8,-799.36 343.26,-790.28 336.41,-788.86"/>
</a>
</g>
</g>
<!-- Node6 -->
<g id="Node000006" class="node">
<title>Node6</title>
<g id="a_Node000006"><a xlink:href="structrtp_1_1details_1_1VecBase.html" target="_top" xlink:title="CRTP base class for vectors.">
<polygon fill="white" stroke="none" points="363.75,-1296.25 264.25,-1296.25 264.25,-1082.75 363.75,-1082.75 363.75,-1296.25"/>
<text xml:space="preserve" text-anchor="start" x="268.25" y="-1282.75" font-family="Helvetica,sans-Serif" font-size="10.00">rtp::details::VecBase</text>
<text xml:space="preserve" text-anchor="start" x="296" y="-1271.5" font-family="Helvetica,sans-Serif" font-size="10.00">&lt; T, N &gt;</text>
<text xml:space="preserve" text-anchor="start" x="312.5" y="-1256.25" font-family="Helvetica,sans-Serif" font-size="10.00"> </text>
<text xml:space="preserve" text-anchor="start" x="268.75" y="-1241" font-family="Helvetica,sans-Serif" font-size="10.00">+</text>
<text xml:space="preserve" text-anchor="start" x="279.25" y="-1241" font-family="Helvetica,sans-Serif" font-size="10.00">squaredDistance()</text>
<text xml:space="preserve" text-anchor="start" x="268.75" y="-1225.75" font-family="Helvetica,sans-Serif" font-size="10.00">+</text>
<text xml:space="preserve" text-anchor="start" x="279.25" y="-1225.75" font-family="Helvetica,sans-Serif" font-size="10.00">distance()</text>
<text xml:space="preserve" text-anchor="start" x="268.75" y="-1210.5" font-family="Helvetica,sans-Serif" font-size="10.00">+</text>
<text xml:space="preserve" text-anchor="start" x="279.25" y="-1210.5" font-family="Helvetica,sans-Serif" font-size="10.00">squaredLength()</text>
<text xml:space="preserve" text-anchor="start" x="268.75" y="-1195.25" font-family="Helvetica,sans-Serif" font-size="10.00">+</text>
<text xml:space="preserve" text-anchor="start" x="279.25" y="-1195.25" font-family="Helvetica,sans-Serif" font-size="10.00">length()</text>
<text xml:space="preserve" text-anchor="start" x="268.75" y="-1180" font-family="Helvetica,sans-Serif" font-size="10.00">+</text>
<text xml:space="preserve" text-anchor="start" x="279.25" y="-1180" font-family="Helvetica,sans-Serif" font-size="10.00">normalize()</text>
<text xml:space="preserve" text-anchor="start" x="268.75" y="-1164.75" font-family="Helvetica,sans-Serif" font-size="10.00">+</text>
<text xml:space="preserve" text-anchor="start" x="279.25" y="-1164.75" font-family="Helvetica,sans-Serif" font-size="10.00">normalized()</text>
<text xml:space="preserve" text-anchor="start" x="268.75" y="-1149.5" font-family="Helvetica,sans-Serif" font-size="10.00">+</text>
<text xml:space="preserve" text-anchor="start" x="279.25" y="-1149.5" font-family="Helvetica,sans-Serif" font-size="10.00">dot()</text>
<text xml:space="preserve" text-anchor="start" x="268.75" y="-1134.25" font-family="Helvetica,sans-Serif" font-size="10.00">+</text>
<text xml:space="preserve" text-anchor="start" x="279.25" y="-1134.25" font-family="Helvetica,sans-Serif" font-size="10.00">project()</text>
<text xml:space="preserve" text-anchor="start" x="268.75" y="-1119" font-family="Helvetica,sans-Serif" font-size="10.00">+</text>
<text xml:space="preserve" text-anchor="start" x="279.25" y="-1119" font-family="Helvetica,sans-Serif" font-size="10.00">operator+=()</text>
<text xml:space="preserve" text-anchor="start" x="268.75" y="-1103.75" font-family="Helvetica,sans-Serif" font-size="10.00">+</text>
<text xml:space="preserve" text-anchor="start" x="279.25" y="-1103.75" font-family="Helvetica,sans-Serif" font-size="10.00">operator&#45;=()</text>
<text xml:space="preserve" text-anchor="start" x="279.25" y="-1088.5" font-family="Helvetica,sans-Serif" font-size="10.00">and 6 more...</text>
<polygon fill="#666666" stroke="#666666" points="264.25,-1267.75 264.25,-1267.75 363.75,-1267.75 363.75,-1267.75 264.25,-1267.75"/>
<polygon fill="#666666" stroke="#666666" points="264.25,-1252.5 264.25,-1252.5 363.75,-1252.5 363.75,-1252.5 264.25,-1252.5"/>
<polygon fill="none" stroke="#666666" points="264.25,-1082.75 264.25,-1296.25 363.75,-1296.25 363.75,-1082.75 264.25,-1082.75"/>
</a>
</g>
</g>
<!-- Node6&#45;&gt;Node5 -->
<g id="edge5_Node000005_Node000006" class="edge">
<title>Node6&#45;&gt;Node5</title>
<g id="a_edge5_Node000005_Node000006"><a xlink:title=" ">
<path fill="none" stroke="orange" d="M314,-1071.65C314,-1057.65 314,-1043.38 314,-1029.43"/>
<polygon fill="orange" stroke="orange" points="310.5,-1071.29 314,-1081.29 317.5,-1071.29 310.5,-1071.29"/>
</a>
</g>
<text xml:space="preserve" text-anchor="start" x="317" y="-1052.25" font-family="Helvetica,sans-Serif" font-size="10.00" fill="grey">&lt; T, 2 &gt;</text>
</g>
<!-- Node7&#45;&gt;Node4 -->
<g id="edge6_Node000004_Node000007" class="edge">
<title>Node7&#45;&gt;Node4</title>
<g id="a_edge6_Node000004_Node000007"><a xlink:title=" ">
<path fill="none" stroke="orange" d="M349.56,-610.72C346.67,-596.73 343.63,-581.99 340.77,-568.13"/>
<polygon fill="orange" stroke="orange" points="346.08,-611.17 351.52,-620.26 352.93,-609.75 346.08,-611.17"/>
</a>
</g>
<text xml:space="preserve" text-anchor="start" x="350.6" y="-591" font-family="Helvetica,sans-Serif" font-size="10.00" fill="grey">&lt; float &gt;</text>
</g>
<!-- Node8 -->
<g id="Node000008" class="node">
<title>Node8</title>
<g id="a_Node000008"><a xlink:title=" ">
<polygon fill="white" stroke="none" points="415,-940 401,-940 401,-890.25 415,-890.25 415,-940"/>
<text xml:space="preserve" text-anchor="start" x="405" y="-926.5" font-family="Helvetica,sans-Serif" font-size="10.00">T</text>
<text xml:space="preserve" text-anchor="start" x="406.5" y="-911.25" font-family="Helvetica,sans-Serif" font-size="10.00"> </text>
<text xml:space="preserve" text-anchor="start" x="406.5" y="-896" font-family="Helvetica,sans-Serif" font-size="10.00"> </text>
<polygon fill="#666666" stroke="#666666" points="401,-922.75 401,-922.75 415,-922.75 415,-922.75 401,-922.75"/>
<polygon fill="#666666" stroke="#666666" points="401,-907.5 401,-907.5 415,-907.5 415,-907.5 401,-907.5"/>
<polygon fill="none" stroke="#666666" points="401,-890.25 401,-940 415,-940 415,-890.25 401,-890.25"/>
</a>
</g>
</g>
<!-- Node8&#45;&gt;Node7 -->
<g id="edge8_Node000007_Node000008" class="edge">
<title>Node8&#45;&gt;Node7</title>
<g id="a_edge8_Node000007_Node000008"><a xlink:title=" ">
<path fill="none" stroke="#63b8ff" d="M403.52,-890.61C397.09,-856.86 385,-793.38 375.69,-744.51"/>
<polygon fill="none" stroke="#63b8ff" points="375.68,-744.47 370.63,-739.32 373.44,-732.68 378.49,-737.82 375.68,-744.47"/>
</a>
</g>
<text xml:space="preserve" text-anchor="start" x="385.81" y="-770.25" font-family="Helvetica,sans-Serif" font-size="10.00" fill="grey">+x</text>
<text xml:space="preserve" text-anchor="start" x="385.81" y="-755" font-family="Helvetica,sans-Serif" font-size="10.00" fill="grey">+y</text>
</g>
<!-- Node11 -->
<g id="Node000011" class="node">
<title>Node11</title>
<g id="a_Node000011"><a xlink:title=" ">
<polygon fill="white" stroke="none" points="466.25,-335.62 387.75,-335.62 387.75,-285.88 466.25,-285.88 466.25,-335.62"/>
<text xml:space="preserve" text-anchor="start" x="391.75" y="-322.12" font-family="Helvetica,sans-Serif" font-size="10.00">std::vector&lt; T &gt;</text>
<text xml:space="preserve" text-anchor="start" x="425.5" y="-306.88" font-family="Helvetica,sans-Serif" font-size="10.00"> </text>
<text xml:space="preserve" text-anchor="start" x="425.5" y="-291.62" font-family="Helvetica,sans-Serif" font-size="10.00"> </text>
<polygon fill="#666666" stroke="#666666" points="387.75,-318.38 387.75,-318.38 466.25,-318.38 466.25,-318.38 387.75,-318.38"/>
<polygon fill="#666666" stroke="#666666" points="387.75,-303.12 387.75,-303.12 466.25,-303.12 466.25,-303.12 387.75,-303.12"/>
<polygon fill="none" stroke="#666666" points="387.75,-285.88 387.75,-335.62 466.25,-335.62 466.25,-285.88 387.75,-285.88"/>
</a>
</g>
</g>
<!-- Node8&#45;&gt;Node11 -->
<g id="edge13_Node000011_Node000008" class="edge">
<title>Node8&#45;&gt;Node11</title>
<g id="a_edge13_Node000011_Node000008"><a xlink:title=" ">
<path fill="none" stroke="#63b8ff" d="M408.74,-890.51C411.66,-798.11 422.3,-460.66 425.85,-348.37"/>
<polygon fill="none" stroke="#63b8ff" points="425.84,-348.42 422.03,-342.3 426.22,-336.43 430.03,-342.55 425.84,-348.42"/>
</a>
</g>
<text xml:space="preserve" text-anchor="start" x="421.16" y="-591" font-family="Helvetica,sans-Serif" font-size="10.00" fill="grey">+elements</text>
</g>
<!-- Node9 -->
<g id="Node000009" class="node">
<title>Node9</title>
<g id="a_Node000009"><a xlink:title=" ">
<polygon fill="white" stroke="none" points="289.88,-194.5 182.12,-194.5 182.12,-133.5 289.88,-133.5 289.88,-194.5"/>
<text xml:space="preserve" text-anchor="start" x="186.12" y="-181" font-family="Helvetica,sans-Serif" font-size="10.00">std::vector&lt; rtp::server</text>
<text xml:space="preserve" text-anchor="start" x="200.75" y="-169.75" font-family="Helvetica,sans-Serif" font-size="10.00">::SpawnEvent &gt;</text>
<text xml:space="preserve" text-anchor="start" x="234.5" y="-154.5" font-family="Helvetica,sans-Serif" font-size="10.00"> </text>
<text xml:space="preserve" text-anchor="start" x="234.5" y="-139.25" font-family="Helvetica,sans-Serif" font-size="10.00"> </text>
<polygon fill="#666666" stroke="#666666" points="182.12,-166 182.12,-166 289.88,-166 289.88,-166 182.12,-166"/>
<polygon fill="#666666" stroke="#666666" points="182.12,-150.75 182.12,-150.75 289.88,-150.75 289.88,-150.75 182.12,-150.75"/>
<polygon fill="none" stroke="#666666" points="182.12,-133.5 182.12,-194.5 289.88,-194.5 289.88,-133.5 182.12,-133.5"/>
</a>
</g>
</g>
<!-- Node9&#45;&gt;Node1 -->
<g id="edge9_Node000001_Node000009" class="edge">
<title>Node9&#45;&gt;Node1</title>
<g id="a_edge9_Node000001_Node000009"><a xlink:title=" ">
<path fill="none" stroke="#63b8ff" d="M236,-133.61C236,-117.04 236,-96.01 236,-77.5"/>
<polygon fill="none" stroke="#63b8ff" points="236,-77.48 232,-71.48 236,-65.48 240,-71.48 236,-77.48"/>
</a>
</g>
<text xml:space="preserve" text-anchor="start" x="239" y="-95.38" font-family="Helvetica,sans-Serif" font-size="10.00" fill="grey">+spawns</text>
</g>
<!-- Node10&#45;&gt;Node9 -->
<g id="edge10_Node000009_Node000010" class="edge">
<title>Node10&#45;&gt;Node9</title>
<g id="a_edge10_Node000009_Node000010"><a xlink:title=" ">
<path fill="none" stroke="#63b8ff" d="M207.9,-247.93C204.85,-242.01 202.21,-235.92 200.25,-229.75 197.66,-221.63 198.82,-213.36 201.96,-205.57"/>
<polygon fill="none" stroke="#63b8ff" points="201.95,-205.59 201.24,-198.41 207.59,-194.99 208.3,-202.17 201.95,-205.59"/>
</a>
</g>
<text xml:space="preserve" text-anchor="start" x="203.25" y="-217.25" font-family="Helvetica,sans-Serif" font-size="10.00" fill="grey">+elements</text>
</g>
<!-- Node11&#45;&gt;Node9 -->
<g id="edge12_Node000009_Node000011" class="edge">
<title>Node11&#45;&gt;Node9</title>
<g id="a_edge12_Node000009_Node000011"><a xlink:title=" ">
<path fill="none" stroke="orange" d="M378.59,-280.91C340.7,-258.32 294.23,-230.57 293.25,-229.75 280.67,-219.3 268.42,-206.01 258.5,-194.2"/>
<polygon fill="orange" stroke="orange" points="376.33,-283.63 386.71,-285.75 379.91,-277.62 376.33,-283.63"/>
</a>
</g>
<text xml:space="preserve" text-anchor="start" x="296.25" y="-217.25" font-family="Helvetica,sans-Serif" font-size="10.00" fill="grey">&lt; rtp::server::SpawnEvent &gt;</text>
</g>
<!-- Node12 -->
<g id="Node000012" class="node">
<title>Node12</title>
<g id="a_Node000012"><a xlink:title=" ">
<polygon fill="white" stroke="none" points="480.88,-194.5 373.12,-194.5 373.12,-133.5 480.88,-133.5 480.88,-194.5"/>
<text xml:space="preserve" text-anchor="start" x="377.12" y="-181" font-family="Helvetica,sans-Serif" font-size="10.00">std::vector&lt; rtp::server</text>
<text xml:space="preserve" text-anchor="start" x="387.62" y="-169.75" font-family="Helvetica,sans-Serif" font-size="10.00">::PowerupEvent &gt;</text>
<text xml:space="preserve" text-anchor="start" x="425.5" y="-154.5" font-family="Helvetica,sans-Serif" font-size="10.00"> </text>
<text xml:space="preserve" text-anchor="start" x="425.5" y="-139.25" font-family="Helvetica,sans-Serif" font-size="10.00"> </text>
<polygon fill="#666666" stroke="#666666" points="373.12,-166 373.12,-166 480.88,-166 480.88,-166 373.12,-166"/>
<polygon fill="#666666" stroke="#666666" points="373.12,-150.75 373.12,-150.75 480.88,-150.75 480.88,-150.75 373.12,-150.75"/>
<polygon fill="none" stroke="#666666" points="373.12,-133.5 373.12,-194.5 480.88,-194.5 480.88,-133.5 373.12,-133.5"/>
</a>
</g>
</g>
<!-- Node11&#45;&gt;Node12 -->
<g id="edge17_Node000012_Node000011" class="edge">
<title>Node11&#45;&gt;Node12</title>
<g id="a_edge17_Node000012_Node000011"><a xlink:title=" ">
<path fill="none" stroke="orange" d="M427,-274.8C427,-250.18 427,-217.59 427,-194.32"/>
<polygon fill="orange" stroke="orange" points="423.5,-274.66 427,-284.66 430.5,-274.66 423.5,-274.66"/>
</a>
</g>
<text xml:space="preserve" text-anchor="start" x="430" y="-217.25" font-family="Helvetica,sans-Serif" font-size="10.00" fill="grey">&lt; rtp::server::PowerupEvent &gt;</text>
</g>
<!-- Node14 -->
<g id="Node000014" class="node">
<title>Node14</title>
<g id="a_Node000014"><a xlink:title=" ">
<polygon fill="white" stroke="none" points="716.88,-194.5 609.12,-194.5 609.12,-133.5 716.88,-133.5 716.88,-194.5"/>
<text xml:space="preserve" text-anchor="start" x="613.12" y="-181" font-family="Helvetica,sans-Serif" font-size="10.00">std::vector&lt; rtp::server</text>
<text xml:space="preserve" text-anchor="start" x="623.25" y="-169.75" font-family="Helvetica,sans-Serif" font-size="10.00">::ObstacleEvent &gt;</text>
<text xml:space="preserve" text-anchor="start" x="661.5" y="-154.5" font-family="Helvetica,sans-Serif" font-size="10.00"> </text>
<text xml:space="preserve" text-anchor="start" x="661.5" y="-139.25" font-family="Helvetica,sans-Serif" font-size="10.00"> </text>
<polygon fill="#666666" stroke="#666666" points="609.12,-166 609.12,-166 716.88,-166 716.88,-166 609.12,-166"/>
<polygon fill="#666666" stroke="#666666" points="609.12,-150.75 609.12,-150.75 716.88,-150.75 716.88,-150.75 609.12,-150.75"/>
<polygon fill="none" stroke="#666666" points="609.12,-133.5 609.12,-194.5 716.88,-194.5 716.88,-133.5 609.12,-133.5"/>
</a>
</g>
</g>
<!-- Node11&#45;&gt;Node14 -->
<g id="edge21_Node000014_Node000011" class="edge">
<title>Node11&#45;&gt;Node14</title>
<g id="a_edge21_Node000014_Node000011"><a xlink:title=" ">
<path fill="none" stroke="orange" d="M454.54,-278.02C466.17,-266.64 480.59,-254.87 496,-247.75 550.55,-222.55 580.97,-264.49 630,-229.75 641.94,-221.29 649.84,-207.2 654.9,-194.32"/>
<polygon fill="orange" stroke="orange" points="452.12,-275.48 447.65,-285.08 457.13,-280.37 452.12,-275.48"/>
</a>
</g>
<text xml:space="preserve" text-anchor="start" x="648.75" y="-217.25" font-family="Helvetica,sans-Serif" font-size="10.00" fill="grey">&lt; rtp::server::ObstacleEvent &gt;</text>
</g>
<!-- Node12&#45;&gt;Node1 -->
<g id="edge14_Node000001_Node000012" class="edge">
<title>Node12&#45;&gt;Node1</title>
<g id="a_edge14_Node000001_Node000012"><a xlink:title=" ">
<path fill="none" stroke="#63b8ff" d="M383.66,-133.61C356.7,-115.34 321.75,-91.64 292.61,-71.88"/>
<polygon fill="none" stroke="#63b8ff" points="292.85,-72.04 285.64,-71.99 282.92,-65.31 290.13,-65.37 292.85,-72.04"/>
</a>
</g>
<text xml:space="preserve" text-anchor="start" x="357.22" y="-95.38" font-family="Helvetica,sans-Serif" font-size="10.00" fill="grey">+powerups</text>
</g>
<!-- Node13&#45;&gt;Node12 -->
<g id="edge15_Node000012_Node000013" class="edge">
<title>Node13&#45;&gt;Node12</title>
<g id="a_edge15_Node000012_Node000013"><a xlink:title=" ">
<path fill="none" stroke="#63b8ff" d="M576.76,-263.21C578.16,-245.87 576.31,-226.92 566,-212.5 549.35,-189.22 520.59,-177.22 493.53,-171.09"/>
<polygon fill="none" stroke="#63b8ff" points="493.52,-171.09 486.86,-173.85 481.74,-168.77 488.4,-166 493.52,-171.09"/>
</a>
</g>
<text xml:space="preserve" text-anchor="start" x="576.81" y="-217.25" font-family="Helvetica,sans-Serif" font-size="10.00" fill="grey">+elements</text>
</g>
<!-- Node14&#45;&gt;Node1 -->
<g id="edge18_Node000001_Node000014" class="edge">
<title>Node14&#45;&gt;Node1</title>
<g id="a_edge18_Node000001_Node000014"><a xlink:title=" ">
<path fill="none" stroke="#63b8ff" d="M609.31,-145.3C558.6,-128.72 480.34,-103.5 412,-83 374.8,-71.84 332.95,-60.04 299.39,-50.76"/>
<polygon fill="none" stroke="#63b8ff" points="299.4,-50.77 292.56,-53.03 287.83,-47.58 294.68,-45.31 299.4,-50.77"/>
</a>
</g>
<text xml:space="preserve" text-anchor="start" x="518.67" y="-95.38" font-family="Helvetica,sans-Serif" font-size="10.00" fill="grey">+obstacles</text>
</g>
<!-- Node15&#45;&gt;Node14 -->
<g id="edge19_Node000014_Node000015" class="edge">
<title>Node15&#45;&gt;Node14</title>
<g id="a_edge19_Node000014_Node000015"><a xlink:title=" ">
<path fill="none" stroke="#63b8ff" d="M796.8,-271.07C808.24,-252.28 815.57,-230.03 803,-212.5 786.01,-188.8 756.54,-176.78 729,-170.74"/>
<polygon fill="none" stroke="#63b8ff" points="729.2,-170.78 722.56,-173.59 717.42,-168.54 724.06,-165.73 729.2,-170.78"/>
</a>
</g>
<text xml:space="preserve" text-anchor="start" x="812.37" y="-217.25" font-family="Helvetica,sans-Serif" font-size="10.00" fill="grey">+elements</text>
</g>
</g>
</svg>

<g id="navigator" transform="translate(0 0)" fill="#404254">
  <rect fill="#f2f5e9" fill-opacity="0.5" stroke="#606060" stroke-width=".5" x="0" y="0" width="60" height="60"/>
  <use id="zoomplus" xlink:href="#zoomPlus" x="17" y="9" onmousedown="handleZoom(evt,'in')"/>
  <use id="zoomminus" xlink:href="#zoomMin" x="42" y="9" onmousedown="handleZoom(evt,'out')"/>
  <use id="reset" xlink:href="#resetDef" x="30" y="36" onmousedown="handleReset()"/>
   <use id="arrowup" xlink:href="#arrowUp" x="0" y="0" onmousedown="handlePan(0,-1)"/>
  <use id="arrowright" xlink:href="#arrowRight" x="0" y="0" onmousedown="handlePan(1,0)"/>
  <use id="arrowdown" xlink:href="#arrowDown" x="0" y="0" onmousedown="handlePan(0,1)"/>
  <use id="arrowleft" xlink:href="#arrowLeft" x="0" y="0" onmousedown="handlePan(-1,0)"/>
</g>
<svg viewBox="0 0 15 15" width="100%" height="30px" preserveAspectRatio="xMaxYMin meet">
 <g id="arrow_out" transform="scale(0.3 0.3)">
  <a xlink:href="structrtp_1_1server_1_1LevelData__coll__graph_org.svg" target="_base">
   <rect id="button" ry="5" rx="5" y="6" x="6" height="38" width="38"
        fill="#f2f5e9" fill-opacity="0.5" stroke="#606060" stroke-width="1.0"/>
   <path id="arrow"
     d="M 11.500037,31.436501 C 11.940474,20.09759 22.043105,11.32322 32.158766,21.979434 L 37.068811,17.246167 C 37.068811,17.246167 37.088388,32 37.088388,32 L 22.160133,31.978069 C 22.160133,31.978069 26.997745,27.140456 26.997745,27.140456 C 18.528582,18.264221 13.291696,25.230495 11.500037,31.436501 z"
     style="fill:#404040;"/>
  </a>
 </g>
</svg>

<style type='text/css'>
<![CDATA[
[data-mouse-over-selected='false'] { opacity: 0.7; }
[data-mouse-over-selected='true']  { opacity: 1.0; }
]]>
</style>
<script type="application/ecmascript"><![CDATA[
document.addEventListener('DOMContentLoaded', (event) => {
  highlightEdges();
  highlightAdjacentNodes();
});
]]></script>
</svg>
