<?xml version="1.0" encoding="UTF-8" standalone="no"?>
<!DOCTYPE svg PUBLIC "-//W3C//DTD SVG 1.1//EN"
 "http://www.w3.org/Graphics/SVG/1.1/DTD/svg11.dtd">
<!-- Generated by graphviz version 14.0.5 (20251129.0259)
 -->
<!-- Title: rtp::net::BeamStatePayload Pages: 1 -->
<svg width="137pt" height="119pt"
 viewBox="0.00 0.00 137.00 119.00" xmlns="http://www.w3.org/2000/svg" xmlns:xlink="http://www.w3.org/1999/xlink">
<g id="graph0" class="graph" transform="scale(1 1) rotate(0) translate(4 114.75)">
<title>rtp::net::BeamStatePayload</title>
<!-- Node1 -->
<g id="Node000001" class="node">
<title>Node1</title>
<g id="a_Node000001"><a xlink:title="Notify clients that an entity&#39;s beam started or stopped.">
<polygon fill="#999999" stroke="none" points="128.75,-110.75 0,-110.75 0,0 128.75,0 128.75,-110.75"/>
<text xml:space="preserve" text-anchor="start" x="4" y="-97.25" font-family="Helvetica,sans-Serif" font-size="10.00">rtp::net::BeamStatePayload</text>
<text xml:space="preserve" text-anchor="start" x="15.38" y="-82" font-family="Helvetica,sans-Serif" font-size="10.00">+</text>
<text xml:space="preserve" text-anchor="start" x="36.75" y="-82" font-family="Helvetica,sans-Serif" font-size="10.00">ownerNetId</text>
<text xml:space="preserve" text-anchor="start" x="15.38" y="-66.75" font-family="Helvetica,sans-Serif" font-size="10.00">+</text>
<text xml:space="preserve" text-anchor="start" x="36.75" y="-66.75" font-family="Helvetica,sans-Serif" font-size="10.00">active</text>
<text xml:space="preserve" text-anchor="start" x="15.38" y="-51.5" font-family="Helvetica,sans-Serif" font-size="10.00">+</text>
<text xml:space="preserve" text-anchor="start" x="36.75" y="-51.5" font-family="Helvetica,sans-Serif" font-size="10.00">timeRemaining</text>
<text xml:space="preserve" text-anchor="start" x="15.38" y="-36.25" font-family="Helvetica,sans-Serif" font-size="10.00">+</text>
<text xml:space="preserve" text-anchor="start" x="36.75" y="-36.25" font-family="Helvetica,sans-Serif" font-size="10.00">length</text>
<text xml:space="preserve" text-anchor="start" x="15.38" y="-21" font-family="Helvetica,sans-Serif" font-size="10.00">+</text>
<text xml:space="preserve" text-anchor="start" x="36.75" y="-21" font-family="Helvetica,sans-Serif" font-size="10.00">offsetY</text>
<text xml:space="preserve" text-anchor="start" x="62.88" y="-5.75" font-family="Helvetica,sans-Serif" font-size="10.00"> </text>
<polygon fill="#666666" stroke="#666666" points="0,-93.5 0,-93.5 128.75,-93.5 128.75,-93.5 0,-93.5"/>
<polygon fill="#666666" stroke="#666666" points="0,-17.25 0,-17.25 34.75,-17.25 34.75,-17.25 0,-17.25"/>
<polygon fill="#666666" stroke="#666666" points="34.75,-17.25 34.75,-17.25 128.75,-17.25 128.75,-17.25 34.75,-17.25"/>
<polygon fill="none" stroke="#666666" points="0,0 0,-110.75 128.75,-110.75 128.75,0 0,0"/>
</a>
</g>
</g>
</g>
</svg>
