<?xml version="1.0" encoding="UTF-8" standalone="no"?>
<!DOCTYPE svg PUBLIC "-//W3C//DTD SVG 1.1//EN"
 "http://www.w3.org/Graphics/SVG/1.1/DTD/svg11.dtd">
<!-- Generated by graphviz version 14.0.5 (20251129.0259)
 -->
<!-- Title: rtp::ecs::components::ParallaxLayer Pages: 1 -->
<svg width="108pt" height="84pt"
 viewBox="0.00 0.00 108.00 84.00" xmlns="http://www.w3.org/2000/svg" xmlns:xlink="http://www.w3.org/1999/xlink">
<g id="graph0" class="graph" transform="scale(1 1) rotate(0) translate(4 80.25)">
<title>rtp::ecs::components::ParallaxLayer</title>
<!-- Node1 -->
<g id="Node000001" class="node">
<title>Node1</title>
<g id="a_Node000001"><a xlink:title="Tag component indicating that an entity should loop its position when it exits the screen (infinite s...">
<polygon fill="#999999" stroke="none" points="100.25,-76.25 0,-76.25 0,0 100.25,0 100.25,-76.25"/>
<text xml:space="preserve" text-anchor="start" x="4" y="-62.75" font-family="Helvetica,sans-Serif" font-size="10.00">rtp::ecs::components</text>
<text xml:space="preserve" text-anchor="start" x="17.5" y="-51.5" font-family="Helvetica,sans-Serif" font-size="10.00">::ParallaxLayer</text>
<text xml:space="preserve" text-anchor="start" x="10.69" y="-36.25" font-family="Helvetica,sans-Serif" font-size="10.00">+</text>
<text xml:space="preserve" text-anchor="start" x="27.38" y="-36.25" font-family="Helvetica,sans-Serif" font-size="10.00">textureWidth</text>
<text xml:space="preserve" text-anchor="start" x="10.69" y="-21" font-family="Helvetica,sans-Serif" font-size="10.00">+</text>
<text xml:space="preserve" text-anchor="start" x="27.38" y="-21" font-family="Helvetica,sans-Serif" font-size="10.00">speed</text>
<text xml:space="preserve" text-anchor="start" x="48.62" y="-5.75" font-family="Helvetica,sans-Serif" font-size="10.00"> </text>
<polygon fill="#666666" stroke="#666666" points="0,-47.75 0,-47.75 100.25,-47.75 100.25,-47.75 0,-47.75"/>
<polygon fill="#666666" stroke="#666666" points="0,-17.25 0,-17.25 25.38,-17.25 25.38,-17.25 0,-17.25"/>
<polygon fill="#666666" stroke="#666666" points="25.38,-17.25 25.38,-17.25 100.25,-17.25 100.25,-17.25 25.38,-17.25"/>
<polygon fill="none" stroke="#666666" points="0,0 0,-76.25 100.25,-76.25 100.25,0 0,0"/>
</a>
</g>
</g>
</g>
</svg>
