<?xml version="1.0" encoding="UTF-8" standalone="no"?>
<!DOCTYPE svg PUBLIC "-//W3C//DTD SVG 1.1//EN"
 "http://www.w3.org/Graphics/SVG/1.1/DTD/svg11.dtd">
<!-- Generated by graphviz version 14.0.5 (20251129.0259)
 -->
<!-- Title: std::formatter&lt; rtp::log::Level &gt; Pages: 1 -->
<svg width="97pt" height="181pt"
 viewBox="0.00 0.00 97.00 181.00" xmlns="http://www.w3.org/2000/svg" xmlns:xlink="http://www.w3.org/1999/xlink">
<g id="graph0" class="graph" transform="scale(1 1) rotate(0) translate(4 177.25)">
<title>std::formatter&lt; rtp::log::Level &gt;</title>
<!-- Node1 -->
<g id="Node000001" class="node">
<title>Node1</title>
<g id="a_Node000001"><a xlink:title=" ">
<polygon fill="#999999" stroke="none" points="87.88,-76.25 1.12,-76.25 1.12,0 87.88,0 87.88,-76.25"/>
<text xml:space="preserve" text-anchor="start" x="5.12" y="-62.75" font-family="Helvetica,sans-Serif" font-size="10.00">std::formatter&lt; rtp</text>
<text xml:space="preserve" text-anchor="start" x="16" y="-51.5" font-family="Helvetica,sans-Serif" font-size="10.00">::log::Level &gt;</text>
<text xml:space="preserve" text-anchor="start" x="43" y="-36.25" font-family="Helvetica,sans-Serif" font-size="10.00"> </text>
<text xml:space="preserve" text-anchor="start" x="13.88" y="-21" font-family="Helvetica,sans-Serif" font-size="10.00">+</text>
<text xml:space="preserve" text-anchor="start" x="32.62" y="-21" font-family="Helvetica,sans-Serif" font-size="10.00">parse()</text>
<text xml:space="preserve" text-anchor="start" x="13.88" y="-5.75" font-family="Helvetica,sans-Serif" font-size="10.00">+</text>
<text xml:space="preserve" text-anchor="start" x="32.62" y="-5.75" font-family="Helvetica,sans-Serif" font-size="10.00">format()</text>
<polygon fill="#666666" stroke="#666666" points="1.12,-47.75 1.12,-47.75 87.88,-47.75 87.88,-47.75 1.12,-47.75"/>
<polygon fill="#666666" stroke="#666666" points="1.12,-32.5 1.12,-32.5 87.88,-32.5 87.88,-32.5 1.12,-32.5"/>
<polygon fill="none" stroke="#666666" points="1.12,0 1.12,-76.25 87.88,-76.25 87.88,0 1.12,0"/>
</a>
</g>
</g>
<!-- Node2 -->
<g id="Node000002" class="node">
<title>Node2</title>
<g id="a_Node000002"><a xlink:title=" ">
<polygon fill="white" stroke="none" points="89,-173.25 0,-173.25 0,-112.25 89,-112.25 89,-173.25"/>
<text xml:space="preserve" text-anchor="start" x="4" y="-159.75" font-family="Helvetica,sans-Serif" font-size="10.00">std::formatter&lt; std</text>
<text xml:space="preserve" text-anchor="start" x="12.25" y="-148.5" font-family="Helvetica,sans-Serif" font-size="10.00">::string_view &gt;</text>
<text xml:space="preserve" text-anchor="start" x="43" y="-133.25" font-family="Helvetica,sans-Serif" font-size="10.00"> </text>
<text xml:space="preserve" text-anchor="start" x="43" y="-118" font-family="Helvetica,sans-Serif" font-size="10.00"> </text>
<polygon fill="#666666" stroke="#666666" points="0,-144.75 0,-144.75 89,-144.75 89,-144.75 0,-144.75"/>
<polygon fill="#666666" stroke="#666666" points="0,-129.5 0,-129.5 89,-129.5 89,-129.5 0,-129.5"/>
<polygon fill="none" stroke="#666666" points="0,-112.25 0,-173.25 89,-173.25 89,-112.25 0,-112.25"/>
</a>
</g>
</g>
<!-- Node2&#45;&gt;Node1 -->
<g id="edge1_Node000001_Node000002" class="edge">
<title>Node2&#45;&gt;Node1</title>
<g id="a_edge1_Node000001_Node000002"><a xlink:title=" ">
<path fill="none" stroke="#63b8ff" d="M44.5,-101.09C44.5,-92.88 44.5,-84.3 44.5,-76.22"/>
<polygon fill="none" stroke="#63b8ff" points="41,-100.83 44.5,-110.83 48,-100.83 41,-100.83"/>
</a>
</g>
</g>
</g>
</svg>
