<?xml version="1.0" encoding="UTF-8" standalone="no"?>
<!DOCTYPE svg PUBLIC "-//W3C//DTD SVG 1.1//EN"
 "http://www.w3.org/Graphics/SVG/1.1/DTD/svg11.dtd">
<!-- Generated by graphviz version 14.0.5 (20251129.0259)
 -->
<!-- Title: rtp::ecs::components::Hitbox Pages: 1 -->
<svg width="108pt" height="161pt"
 viewBox="0.00 0.00 108.00 161.00" xmlns="http://www.w3.org/2000/svg" xmlns:xlink="http://www.w3.org/1999/xlink">
<g id="graph0" class="graph" transform="scale(1 1) rotate(0) translate(4 156.5)">
<title>rtp::ecs::components::Hitbox</title>
<!-- Node1 -->
<g id="Node000001" class="node">
<title>Node1</title>
<g id="a_Node000001"><a xlink:title="Component representing a rectangular hitbox.">
<polygon fill="#999999" stroke="none" points="100.25,-152.5 0,-152.5 0,0 100.25,0 100.25,-152.5"/>
<text xml:space="preserve" text-anchor="start" x="4" y="-139" font-family="Helvetica,sans-Serif" font-size="10.00">rtp::ecs::components</text>
<text xml:space="preserve" text-anchor="start" x="32.88" y="-127.75" font-family="Helvetica,sans-Serif" font-size="10.00">::Hitbox</text>
<text xml:space="preserve" text-anchor="start" x="10.5" y="-112.5" font-family="Helvetica,sans-Serif" font-size="10.00">+</text>
<text xml:space="preserve" text-anchor="start" x="27" y="-112.5" font-family="Helvetica,sans-Serif" font-size="10.00">width</text>
<text xml:space="preserve" text-anchor="start" x="10.5" y="-97.25" font-family="Helvetica,sans-Serif" font-size="10.00">+</text>
<text xml:space="preserve" text-anchor="start" x="27" y="-97.25" font-family="Helvetica,sans-Serif" font-size="10.00">height</text>
<text xml:space="preserve" text-anchor="start" x="10.5" y="-82" font-family="Helvetica,sans-Serif" font-size="10.00">+</text>
<text xml:space="preserve" text-anchor="start" x="27" y="-82" font-family="Helvetica,sans-Serif" font-size="10.00">radius</text>
<text xml:space="preserve" text-anchor="start" x="10.5" y="-66.75" font-family="Helvetica,sans-Serif" font-size="10.00">+</text>
<text xml:space="preserve" text-anchor="start" x="27" y="-66.75" font-family="Helvetica,sans-Serif" font-size="10.00">offsetX</text>
<text xml:space="preserve" text-anchor="start" x="10.5" y="-51.5" font-family="Helvetica,sans-Serif" font-size="10.00">+</text>
<text xml:space="preserve" text-anchor="start" x="27" y="-51.5" font-family="Helvetica,sans-Serif" font-size="10.00">offsetY</text>
<text xml:space="preserve" text-anchor="start" x="10.5" y="-36.25" font-family="Helvetica,sans-Serif" font-size="10.00">+</text>
<text xml:space="preserve" text-anchor="start" x="27" y="-36.25" font-family="Helvetica,sans-Serif" font-size="10.00">shape</text>
<text xml:space="preserve" text-anchor="start" x="10.5" y="-21" font-family="Helvetica,sans-Serif" font-size="10.00">+</text>
<text xml:space="preserve" text-anchor="start" x="27" y="-21" font-family="Helvetica,sans-Serif" font-size="10.00">collisionType</text>
<text xml:space="preserve" text-anchor="start" x="48.62" y="-5.75" font-family="Helvetica,sans-Serif" font-size="10.00"> </text>
<polygon fill="#666666" stroke="#666666" points="0,-124 0,-124 100.25,-124 100.25,-124 0,-124"/>
<polygon fill="#666666" stroke="#666666" points="0,-17.25 0,-17.25 25,-17.25 25,-17.25 0,-17.25"/>
<polygon fill="#666666" stroke="#666666" points="25,-17.25 25,-17.25 100.25,-17.25 100.25,-17.25 25,-17.25"/>
<polygon fill="none" stroke="#666666" points="0,0 0,-152.5 100.25,-152.5 100.25,0 0,0"/>
</a>
</g>
</g>
</g>
</svg>
