<?xml version="1.0" encoding="UTF-8" standalone="no"?>
<!DOCTYPE svg PUBLIC "-//W3C//DTD SVG 1.1//EN"
 "http://www.w3.org/Graphics/SVG/1.1/DTD/svg11.dtd">
<!-- Generated by graphviz version 14.0.5 (20251129.0259)
 -->
<!-- Title: rtp::net::NetworkEvent Pages: 1 -->
<svg width="206pt" height="760pt"
 viewBox="0.00 0.00 206.00 760.00" xmlns="http://www.w3.org/2000/svg" xmlns:xlink="http://www.w3.org/1999/xlink">
<g id="graph0" class="graph" transform="scale(1 1) rotate(0) translate(4 755.5)">
<title>rtp::net::NetworkEvent</title>
<!-- Node1 -->
<g id="Node000001" class="node">
<title>Node1</title>
<g id="a_Node000001"><a xlink:title="Represents a network event containing session ID and packet data.">
<polygon fill="#999999" stroke="none" points="141.62,-49.75 34.62,-49.75 34.62,0 141.62,0 141.62,-49.75"/>
<text xml:space="preserve" text-anchor="start" x="38.62" y="-36.25" font-family="Helvetica,sans-Serif" font-size="10.00">rtp::net::NetworkEvent</text>
<text xml:space="preserve" text-anchor="start" x="50.38" y="-21" font-family="Helvetica,sans-Serif" font-size="10.00">+</text>
<text xml:space="preserve" text-anchor="start" x="72.12" y="-21" font-family="Helvetica,sans-Serif" font-size="10.00">sessionId</text>
<text xml:space="preserve" text-anchor="start" x="86.62" y="-5.75" font-family="Helvetica,sans-Serif" font-size="10.00"> </text>
<polygon fill="#666666" stroke="#666666" points="34.62,-32.5 34.62,-32.5 141.62,-32.5 141.62,-32.5 34.62,-32.5"/>
<polygon fill="#666666" stroke="#666666" points="34.62,-17.25 34.62,-17.25 70.12,-17.25 70.12,-17.25 34.62,-17.25"/>
<polygon fill="#666666" stroke="#666666" points="70.12,-17.25 70.12,-17.25 141.62,-17.25 141.62,-17.25 70.12,-17.25"/>
<polygon fill="none" stroke="#666666" points="34.62,0 34.62,-49.75 141.62,-49.75 141.62,0 34.62,0"/>
</a>
</g>
</g>
<!-- Node2 -->
<g id="Node000002" class="node">
<title>Node2</title>
<g id="a_Node000002"><a xlink:href="classrtp_1_1net_1_1Packet.html" target="_top" xlink:title="Network packet with header and serializable body.">
<polygon fill="white" stroke="none" points="154.5,-335.75 21.75,-335.75 21.75,-103 154.5,-103 154.5,-335.75"/>
<text xml:space="preserve" text-anchor="start" x="54.38" y="-322.25" font-family="Helvetica,sans-Serif" font-size="10.00">rtp::net::Packet</text>
<text xml:space="preserve" text-anchor="start" x="27.25" y="-307" font-family="Helvetica,sans-Serif" font-size="10.00">&#45;</text>
<text xml:space="preserve" text-anchor="start" x="35.75" y="-307" font-family="Helvetica,sans-Serif" font-size="10.00">_readPos</text>
<text xml:space="preserve" text-anchor="start" x="25.75" y="-291.75" font-family="Helvetica,sans-Serif" font-size="10.00">+</text>
<text xml:space="preserve" text-anchor="start" x="35.75" y="-291.75" font-family="Helvetica,sans-Serif" font-size="10.00">Packet()</text>
<text xml:space="preserve" text-anchor="start" x="25.75" y="-276.5" font-family="Helvetica,sans-Serif" font-size="10.00">+</text>
<text xml:space="preserve" text-anchor="start" x="35.75" y="-276.5" font-family="Helvetica,sans-Serif" font-size="10.00">Packet()</text>
<text xml:space="preserve" text-anchor="start" x="25.75" y="-261.25" font-family="Helvetica,sans-Serif" font-size="10.00">+</text>
<text xml:space="preserve" text-anchor="start" x="35.75" y="-261.25" font-family="Helvetica,sans-Serif" font-size="10.00">resetRead()</text>
<text xml:space="preserve" text-anchor="start" x="25.75" y="-246" font-family="Helvetica,sans-Serif" font-size="10.00">+</text>
<text xml:space="preserve" text-anchor="start" x="35.75" y="-246" font-family="Helvetica,sans-Serif" font-size="10.00">getBufferSequence()</text>
<text xml:space="preserve" text-anchor="start" x="25.75" y="-230.75" font-family="Helvetica,sans-Serif" font-size="10.00">+</text>
<text xml:space="preserve" text-anchor="start" x="35.75" y="-230.75" font-family="Helvetica,sans-Serif" font-size="10.00">operator&lt;&lt;()</text>
<text xml:space="preserve" text-anchor="start" x="25.75" y="-215.5" font-family="Helvetica,sans-Serif" font-size="10.00">+</text>
<text xml:space="preserve" text-anchor="start" x="35.75" y="-215.5" font-family="Helvetica,sans-Serif" font-size="10.00">operator&lt;&lt;()</text>
<text xml:space="preserve" text-anchor="start" x="25.75" y="-200.25" font-family="Helvetica,sans-Serif" font-size="10.00">+</text>
<text xml:space="preserve" text-anchor="start" x="35.75" y="-200.25" font-family="Helvetica,sans-Serif" font-size="10.00">operator&lt;&lt;()</text>
<text xml:space="preserve" text-anchor="start" x="25.75" y="-185" font-family="Helvetica,sans-Serif" font-size="10.00">+</text>
<text xml:space="preserve" text-anchor="start" x="35.75" y="-185" font-family="Helvetica,sans-Serif" font-size="10.00">operator&gt;&gt;()</text>
<text xml:space="preserve" text-anchor="start" x="25.75" y="-169.75" font-family="Helvetica,sans-Serif" font-size="10.00">+</text>
<text xml:space="preserve" text-anchor="start" x="35.75" y="-169.75" font-family="Helvetica,sans-Serif" font-size="10.00">operator&gt;&gt;()</text>
<text xml:space="preserve" text-anchor="start" x="25.75" y="-154.5" font-family="Helvetica,sans-Serif" font-size="10.00">+</text>
<text xml:space="preserve" text-anchor="start" x="35.75" y="-154.5" font-family="Helvetica,sans-Serif" font-size="10.00">operator&gt;&gt;()</text>
<text xml:space="preserve" text-anchor="start" x="25.75" y="-139.25" font-family="Helvetica,sans-Serif" font-size="10.00">+</text>
<text xml:space="preserve" text-anchor="start" x="35.75" y="-139.25" font-family="Helvetica,sans-Serif" font-size="10.00">to_network()</text>
<text xml:space="preserve" text-anchor="start" x="25.75" y="-124" font-family="Helvetica,sans-Serif" font-size="10.00">+</text>
<text xml:space="preserve" text-anchor="start" x="35.75" y="-124" font-family="Helvetica,sans-Serif" font-size="10.00">from_network()</text>
<text xml:space="preserve" text-anchor="start" x="27.25" y="-108.75" font-family="Helvetica,sans-Serif" font-size="10.00">&#45;</text>
<text xml:space="preserve" text-anchor="start" x="35.75" y="-108.75" font-family="Helvetica,sans-Serif" font-size="10.00">_bumpBodySizeOrThrow()</text>
<polygon fill="#666666" stroke="#666666" points="21.75,-318.5 21.75,-318.5 154.5,-318.5 154.5,-318.5 21.75,-318.5"/>
<polygon fill="#666666" stroke="#666666" points="21.75,-303.25 21.75,-303.25 33.75,-303.25 33.75,-303.25 21.75,-303.25"/>
<polygon fill="#666666" stroke="#666666" points="33.75,-303.25 33.75,-303.25 154.5,-303.25 154.5,-303.25 33.75,-303.25"/>
<polygon fill="none" stroke="#666666" points="21.75,-103 21.75,-335.75 154.5,-335.75 154.5,-103 21.75,-103"/>
</a>
</g>
</g>
<!-- Node2&#45;&gt;Node1 -->
<g id="edge1_Node000001_Node000002" class="edge">
<title>Node2&#45;&gt;Node1</title>
<g id="a_edge1_Node000001_Node000002"><a xlink:title=" ">
<path fill="none" stroke="#63b8ff" d="M88.12,-103.06C88.12,-88.44 88.12,-74.44 88.12,-62.46"/>
<polygon fill="none" stroke="#63b8ff" points="88.13,-62.33 84.13,-56.33 88.13,-50.33 92.13,-56.33 88.13,-62.33"/>
</a>
</g>
<text xml:space="preserve" text-anchor="start" x="91.12" y="-72.5" font-family="Helvetica,sans-Serif" font-size="10.00" fill="grey">+packet</text>
</g>
<!-- Node3 -->
<g id="Node000003" class="node">
<title>Node3</title>
<g id="a_Node000003"><a xlink:href="structrtp_1_1net_1_1Header.html" target="_top" xlink:title="Packet header with sequencing and acknowledgment support.">
<polygon fill="white" stroke="none" points="76.25,-545.5 0,-545.5 0,-404.25 76.25,-404.25 76.25,-545.5"/>
<text xml:space="preserve" text-anchor="start" x="4" y="-532" font-family="Helvetica,sans-Serif" font-size="10.00">rtp::net::Header</text>
<text xml:space="preserve" text-anchor="start" x="6" y="-516.75" font-family="Helvetica,sans-Serif" font-size="10.00">+</text>
<text xml:space="preserve" text-anchor="start" x="18" y="-516.75" font-family="Helvetica,sans-Serif" font-size="10.00">magic</text>
<text xml:space="preserve" text-anchor="start" x="6" y="-501.5" font-family="Helvetica,sans-Serif" font-size="10.00">+</text>
<text xml:space="preserve" text-anchor="start" x="18" y="-501.5" font-family="Helvetica,sans-Serif" font-size="10.00">sequenceId</text>
<text xml:space="preserve" text-anchor="start" x="6" y="-486.25" font-family="Helvetica,sans-Serif" font-size="10.00">+</text>
<text xml:space="preserve" text-anchor="start" x="18" y="-486.25" font-family="Helvetica,sans-Serif" font-size="10.00">bodySize</text>
<text xml:space="preserve" text-anchor="start" x="6" y="-471" font-family="Helvetica,sans-Serif" font-size="10.00">+</text>
<text xml:space="preserve" text-anchor="start" x="18" y="-471" font-family="Helvetica,sans-Serif" font-size="10.00">ackId</text>
<text xml:space="preserve" text-anchor="start" x="6" y="-455.75" font-family="Helvetica,sans-Serif" font-size="10.00">+</text>
<text xml:space="preserve" text-anchor="start" x="18" y="-455.75" font-family="Helvetica,sans-Serif" font-size="10.00">opCode</text>
<text xml:space="preserve" text-anchor="start" x="6" y="-440.5" font-family="Helvetica,sans-Serif" font-size="10.00">+</text>
<text xml:space="preserve" text-anchor="start" x="18" y="-440.5" font-family="Helvetica,sans-Serif" font-size="10.00">reserved</text>
<text xml:space="preserve" text-anchor="start" x="6" y="-425.25" font-family="Helvetica,sans-Serif" font-size="10.00">+</text>
<text xml:space="preserve" text-anchor="start" x="18" y="-425.25" font-family="Helvetica,sans-Serif" font-size="10.00">sessionId</text>
<text xml:space="preserve" text-anchor="start" x="36.62" y="-410" font-family="Helvetica,sans-Serif" font-size="10.00"> </text>
<polygon fill="#666666" stroke="#666666" points="0,-528.25 0,-528.25 76.25,-528.25 76.25,-528.25 0,-528.25"/>
<polygon fill="#666666" stroke="#666666" points="0,-421.5 0,-421.5 16,-421.5 16,-421.5 0,-421.5"/>
<polygon fill="#666666" stroke="#666666" points="16,-421.5 16,-421.5 76.25,-421.5 76.25,-421.5 16,-421.5"/>
<polygon fill="none" stroke="#666666" points="0,-404.25 0,-545.5 76.25,-545.5 76.25,-404.25 0,-404.25"/>
</a>
</g>
</g>
<!-- Node3&#45;&gt;Node2 -->
<g id="edge2_Node000002_Node000003" class="edge">
<title>Node3&#45;&gt;Node2</title>
<g id="a_edge2_Node000002_Node000003"><a xlink:title=" ">
<path fill="none" stroke="#63b8ff" d="M39.18,-404.27C40.26,-387.62 42.09,-369.97 45.12,-353.75 45.47,-351.88 45.84,-350 46.23,-348.12"/>
<polygon fill="none" stroke="#63b8ff" points="46.22,-348.17 43.61,-341.45 48.81,-336.46 51.42,-343.18 46.22,-348.17"/>
</a>
</g>
<text xml:space="preserve" text-anchor="start" x="48.12" y="-373.75" font-family="Helvetica,sans-Serif" font-size="10.00" fill="grey">+header</text>
<text xml:space="preserve" text-anchor="start" x="48.12" y="-358.5" font-family="Helvetica,sans-Serif" font-size="10.00" fill="grey">&#45;_cacheHeader</text>
</g>
<!-- Node4 -->
<g id="Node000004" class="node">
<title>Node4</title>
<g id="a_Node000004"><a xlink:title=" ">
<polygon fill="white" stroke="none" points="196,-499.75 94.25,-499.75 94.25,-450 196,-450 196,-499.75"/>
<text xml:space="preserve" text-anchor="start" x="98.25" y="-486.25" font-family="Helvetica,sans-Serif" font-size="10.00">std::vector&lt; uint8_t &gt;</text>
<text xml:space="preserve" text-anchor="start" x="109.25" y="-471" font-family="Helvetica,sans-Serif" font-size="10.00">+</text>
<text xml:space="preserve" text-anchor="start" x="130.25" y="-471" font-family="Helvetica,sans-Serif" font-size="10.00">elements</text>
<text xml:space="preserve" text-anchor="start" x="143.62" y="-455.75" font-family="Helvetica,sans-Serif" font-size="10.00"> </text>
<polygon fill="#666666" stroke="#666666" points="94.25,-482.5 94.25,-482.5 196,-482.5 196,-482.5 94.25,-482.5"/>
<polygon fill="#666666" stroke="#666666" points="94.25,-467.25 94.25,-467.25 128.25,-467.25 128.25,-467.25 94.25,-467.25"/>
<polygon fill="#666666" stroke="#666666" points="128.25,-467.25 128.25,-467.25 196,-467.25 196,-467.25 128.25,-467.25"/>
<polygon fill="none" stroke="#666666" points="94.25,-450 94.25,-499.75 196,-499.75 196,-450 94.25,-450"/>
</a>
</g>
</g>
<!-- Node4&#45;&gt;Node2 -->
<g id="edge3_Node000002_Node000004" class="edge">
<title>Node4&#45;&gt;Node2</title>
<g id="a_edge3_Node000002_Node000004"><a xlink:title=" ">
<path fill="none" stroke="#63b8ff" d="M139.76,-450.03C134.37,-426.06 125.63,-387.17 116.86,-348.15"/>
<polygon fill="none" stroke="#63b8ff" points="116.84,-348.09 111.62,-343.11 114.21,-336.38 119.43,-341.36 116.84,-348.09"/>
</a>
</g>
<text xml:space="preserve" text-anchor="start" x="128.06" y="-366.12" font-family="Helvetica,sans-Serif" font-size="10.00" fill="grey">+body</text>
</g>
<!-- Node5 -->
<g id="Node000005" class="node">
<title>Node5</title>
<g id="a_Node000005"><a xlink:title=" ">
<polygon fill="white" stroke="none" points="184.38,-648.5 105.88,-648.5 105.88,-598.75 184.38,-598.75 184.38,-648.5"/>
<text xml:space="preserve" text-anchor="start" x="109.88" y="-635" font-family="Helvetica,sans-Serif" font-size="10.00">std::vector&lt; T &gt;</text>
<text xml:space="preserve" text-anchor="start" x="143.62" y="-619.75" font-family="Helvetica,sans-Serif" font-size="10.00"> </text>
<text xml:space="preserve" text-anchor="start" x="143.62" y="-604.5" font-family="Helvetica,sans-Serif" font-size="10.00"> </text>
<polygon fill="#666666" stroke="#666666" points="105.88,-631.25 105.88,-631.25 184.38,-631.25 184.38,-631.25 105.88,-631.25"/>
<polygon fill="#666666" stroke="#666666" points="105.88,-616 105.88,-616 184.38,-616 184.38,-616 105.88,-616"/>
<polygon fill="none" stroke="#666666" points="105.88,-598.75 105.88,-648.5 184.38,-648.5 184.38,-598.75 105.88,-598.75"/>
</a>
</g>
</g>
<!-- Node5&#45;&gt;Node4 -->
<g id="edge4_Node000004_Node000005" class="edge">
<title>Node5&#45;&gt;Node4</title>
<g id="a_edge4_Node000004_Node000005"><a xlink:title=" ">
<path fill="none" stroke="orange" d="M145.12,-587.66C145.12,-560.38 145.12,-523.23 145.12,-499.39"/>
<polygon fill="orange" stroke="orange" points="141.63,-587.53 145.13,-597.53 148.63,-587.53 141.63,-587.53"/>
</a>
</g>
<text xml:space="preserve" text-anchor="start" x="148.12" y="-568.25" font-family="Helvetica,sans-Serif" font-size="10.00" fill="grey">&lt; uint8_t &gt;</text>
</g>
<!-- Node6 -->
<g id="Node000006" class="node">
<title>Node6</title>
<g id="a_Node000006"><a xlink:title=" ">
<polygon fill="white" stroke="none" points="152.12,-751.5 138.12,-751.5 138.12,-701.75 152.12,-701.75 152.12,-751.5"/>
<text xml:space="preserve" text-anchor="start" x="142.12" y="-738" font-family="Helvetica,sans-Serif" font-size="10.00">T</text>
<text xml:space="preserve" text-anchor="start" x="143.62" y="-722.75" font-family="Helvetica,sans-Serif" font-size="10.00"> </text>
<text xml:space="preserve" text-anchor="start" x="143.62" y="-707.5" font-family="Helvetica,sans-Serif" font-size="10.00"> </text>
<polygon fill="#666666" stroke="#666666" points="138.12,-734.25 138.12,-734.25 152.12,-734.25 152.12,-734.25 138.12,-734.25"/>
<polygon fill="#666666" stroke="#666666" points="138.12,-719 138.12,-719 152.12,-719 152.12,-719 138.12,-719"/>
<polygon fill="none" stroke="#666666" points="138.12,-701.75 138.12,-751.5 152.12,-751.5 152.12,-701.75 138.12,-701.75"/>
</a>
</g>
</g>
<!-- Node6&#45;&gt;Node5 -->
<g id="edge5_Node000005_Node000006" class="edge">
<title>Node6&#45;&gt;Node5</title>
<g id="a_edge5_Node000005_Node000006"><a xlink:title=" ">
<path fill="none" stroke="#63b8ff" d="M145.12,-701.94C145.12,-689.79 145.12,-674.71 145.12,-661.11"/>
<polygon fill="none" stroke="#63b8ff" points="145.13,-661.06 141.13,-655.06 145.13,-649.06 149.13,-655.06 145.13,-661.06"/>
</a>
</g>
<text xml:space="preserve" text-anchor="start" x="148.12" y="-671.25" font-family="Helvetica,sans-Serif" font-size="10.00" fill="grey">+elements</text>
</g>
</g>
</svg>
