<?xml version="1.0" encoding="UTF-8" standalone="no"?>
<!DOCTYPE svg PUBLIC "-//W3C//DTD SVG 1.1//EN"
 "http://www.w3.org/Graphics/SVG/1.1/DTD/svg11.dtd">
<!-- Generated by graphviz version 14.0.5 (20251129.0259)
 -->
<!-- Title: rtp::Vec2&lt; T &gt; Pages: 1 -->
<svg width="140pt" height="683pt"
 viewBox="0.00 0.00 140.00 683.00" xmlns="http://www.w3.org/2000/svg" xmlns:xlink="http://www.w3.org/1999/xlink">
<g id="graph0" class="graph" transform="scale(1 1) rotate(0) translate(4 678.75)">
<title>rtp::Vec2&lt; T &gt;</title>
<!-- Node1 -->
<g id="Node000001" class="node">
<title>Node1</title>
<g id="a_Node000001"><a xlink:title="A 2&#45;dimensional vector.">
<polygon fill="#999999" stroke="none" points="122.62,-110.75 50.88,-110.75 50.88,0 122.62,0 122.62,-110.75"/>
<text xml:space="preserve" text-anchor="start" x="54.88" y="-97.25" font-family="Helvetica,sans-Serif" font-size="10.00">rtp::Vec2&lt; T &gt;</text>
<text xml:space="preserve" text-anchor="start" x="85.25" y="-82" font-family="Helvetica,sans-Serif" font-size="10.00"> </text>
<text xml:space="preserve" text-anchor="start" x="55" y="-66.75" font-family="Helvetica,sans-Serif" font-size="10.00">+</text>
<text xml:space="preserve" text-anchor="start" x="65.12" y="-66.75" font-family="Helvetica,sans-Serif" font-size="10.00">Vec2()</text>
<text xml:space="preserve" text-anchor="start" x="55" y="-51.5" font-family="Helvetica,sans-Serif" font-size="10.00">+</text>
<text xml:space="preserve" text-anchor="start" x="65.12" y="-51.5" font-family="Helvetica,sans-Serif" font-size="10.00">Vec2()</text>
<text xml:space="preserve" text-anchor="start" x="55" y="-36.25" font-family="Helvetica,sans-Serif" font-size="10.00">+</text>
<text xml:space="preserve" text-anchor="start" x="65.12" y="-36.25" font-family="Helvetica,sans-Serif" font-size="10.00">~Vec2()</text>
<text xml:space="preserve" text-anchor="start" x="55" y="-21" font-family="Helvetica,sans-Serif" font-size="10.00">+</text>
<text xml:space="preserve" text-anchor="start" x="65.12" y="-21" font-family="Helvetica,sans-Serif" font-size="10.00">operator==()</text>
<text xml:space="preserve" text-anchor="start" x="55" y="-5.75" font-family="Helvetica,sans-Serif" font-size="10.00">+</text>
<text xml:space="preserve" text-anchor="start" x="65.12" y="-5.75" font-family="Helvetica,sans-Serif" font-size="10.00">operator[]()</text>
<polygon fill="#666666" stroke="#666666" points="50.88,-93.5 50.88,-93.5 122.62,-93.5 122.62,-93.5 50.88,-93.5"/>
<polygon fill="#666666" stroke="#666666" points="50.88,-78.25 50.88,-78.25 122.62,-78.25 122.62,-78.25 50.88,-78.25"/>
<polygon fill="none" stroke="#666666" points="50.88,0 50.88,-110.75 122.62,-110.75 122.62,0 50.88,0"/>
</a>
</g>
</g>
<!-- Node2 -->
<g id="Node000002" class="node">
<title>Node2</title>
<g id="a_Node000002"><a xlink:href="structrtp_1_1details_1_1VecBase.html" target="_top" xlink:title=" ">
<polygon fill="white" stroke="none" points="99.5,-408 0,-408 0,-179.25 99.5,-179.25 99.5,-408"/>
<text xml:space="preserve" text-anchor="start" x="4" y="-394.5" font-family="Helvetica,sans-Serif" font-size="10.00">rtp::details::VecBase</text>
<text xml:space="preserve" text-anchor="start" x="32.88" y="-383.25" font-family="Helvetica,sans-Serif" font-size="10.00">&lt; T, 2 &gt;</text>
<text xml:space="preserve" text-anchor="start" x="48.25" y="-368" font-family="Helvetica,sans-Serif" font-size="10.00"> </text>
<text xml:space="preserve" text-anchor="start" x="4.5" y="-352.75" font-family="Helvetica,sans-Serif" font-size="10.00">+</text>
<text xml:space="preserve" text-anchor="start" x="15" y="-352.75" font-family="Helvetica,sans-Serif" font-size="10.00">squaredDistance()</text>
<text xml:space="preserve" text-anchor="start" x="4.5" y="-337.5" font-family="Helvetica,sans-Serif" font-size="10.00">+</text>
<text xml:space="preserve" text-anchor="start" x="15" y="-337.5" font-family="Helvetica,sans-Serif" font-size="10.00">distance()</text>
<text xml:space="preserve" text-anchor="start" x="4.5" y="-322.25" font-family="Helvetica,sans-Serif" font-size="10.00">+</text>
<text xml:space="preserve" text-anchor="start" x="15" y="-322.25" font-family="Helvetica,sans-Serif" font-size="10.00">squaredLength()</text>
<text xml:space="preserve" text-anchor="start" x="4.5" y="-307" font-family="Helvetica,sans-Serif" font-size="10.00">+</text>
<text xml:space="preserve" text-anchor="start" x="15" y="-307" font-family="Helvetica,sans-Serif" font-size="10.00">length()</text>
<text xml:space="preserve" text-anchor="start" x="4.5" y="-291.75" font-family="Helvetica,sans-Serif" font-size="10.00">+</text>
<text xml:space="preserve" text-anchor="start" x="15" y="-291.75" font-family="Helvetica,sans-Serif" font-size="10.00">normalize()</text>
<text xml:space="preserve" text-anchor="start" x="4.5" y="-276.5" font-family="Helvetica,sans-Serif" font-size="10.00">+</text>
<text xml:space="preserve" text-anchor="start" x="15" y="-276.5" font-family="Helvetica,sans-Serif" font-size="10.00">normalized()</text>
<text xml:space="preserve" text-anchor="start" x="4.5" y="-261.25" font-family="Helvetica,sans-Serif" font-size="10.00">+</text>
<text xml:space="preserve" text-anchor="start" x="15" y="-261.25" font-family="Helvetica,sans-Serif" font-size="10.00">dot()</text>
<text xml:space="preserve" text-anchor="start" x="4.5" y="-246" font-family="Helvetica,sans-Serif" font-size="10.00">+</text>
<text xml:space="preserve" text-anchor="start" x="15" y="-246" font-family="Helvetica,sans-Serif" font-size="10.00">project()</text>
<text xml:space="preserve" text-anchor="start" x="4.5" y="-230.75" font-family="Helvetica,sans-Serif" font-size="10.00">+</text>
<text xml:space="preserve" text-anchor="start" x="15" y="-230.75" font-family="Helvetica,sans-Serif" font-size="10.00">operator+=()</text>
<text xml:space="preserve" text-anchor="start" x="4.5" y="-215.5" font-family="Helvetica,sans-Serif" font-size="10.00">+</text>
<text xml:space="preserve" text-anchor="start" x="15" y="-215.5" font-family="Helvetica,sans-Serif" font-size="10.00">operator&#45;=()</text>
<text xml:space="preserve" text-anchor="start" x="4.5" y="-200.25" font-family="Helvetica,sans-Serif" font-size="10.00">+</text>
<text xml:space="preserve" text-anchor="start" x="15" y="-200.25" font-family="Helvetica,sans-Serif" font-size="10.00">operator*=()</text>
<text xml:space="preserve" text-anchor="start" x="4.5" y="-185" font-family="Helvetica,sans-Serif" font-size="10.00">+</text>
<text xml:space="preserve" text-anchor="start" x="15" y="-185" font-family="Helvetica,sans-Serif" font-size="10.00">operator/=()</text>
<polygon fill="#666666" stroke="#666666" points="0,-379.5 0,-379.5 99.5,-379.5 99.5,-379.5 0,-379.5"/>
<polygon fill="#666666" stroke="#666666" points="0,-364.25 0,-364.25 99.5,-364.25 99.5,-364.25 0,-364.25"/>
<polygon fill="none" stroke="#666666" points="0,-179.25 0,-408 99.5,-408 99.5,-179.25 0,-179.25"/>
</a>
</g>
</g>
<!-- Node2&#45;&gt;Node1 -->
<g id="edge1_Node000001_Node000002" class="edge">
<title>Node2&#45;&gt;Node1</title>
<g id="a_edge1_Node000001_Node000002"><a xlink:title=" ">
<path fill="none" stroke="#63b8ff" d="M69.25,-168.13C72.41,-147.95 75.53,-128.03 78.24,-110.72"/>
<polygon fill="none" stroke="#63b8ff" points="65.82,-167.43 67.73,-177.85 72.73,-168.51 65.82,-167.43"/>
</a>
</g>
</g>
<!-- Node3 -->
<g id="Node000003" class="node">
<title>Node3</title>
<g id="a_Node000003"><a xlink:href="structrtp_1_1details_1_1VecBase.html" target="_top" xlink:title="CRTP base class for vectors.">
<polygon fill="white" stroke="none" points="99.5,-674.75 0,-674.75 0,-461.25 99.5,-461.25 99.5,-674.75"/>
<text xml:space="preserve" text-anchor="start" x="4" y="-661.25" font-family="Helvetica,sans-Serif" font-size="10.00">rtp::details::VecBase</text>
<text xml:space="preserve" text-anchor="start" x="31.75" y="-650" font-family="Helvetica,sans-Serif" font-size="10.00">&lt; T, N &gt;</text>
<text xml:space="preserve" text-anchor="start" x="48.25" y="-634.75" font-family="Helvetica,sans-Serif" font-size="10.00"> </text>
<text xml:space="preserve" text-anchor="start" x="4.5" y="-619.5" font-family="Helvetica,sans-Serif" font-size="10.00">+</text>
<text xml:space="preserve" text-anchor="start" x="15" y="-619.5" font-family="Helvetica,sans-Serif" font-size="10.00">squaredDistance()</text>
<text xml:space="preserve" text-anchor="start" x="4.5" y="-604.25" font-family="Helvetica,sans-Serif" font-size="10.00">+</text>
<text xml:space="preserve" text-anchor="start" x="15" y="-604.25" font-family="Helvetica,sans-Serif" font-size="10.00">distance()</text>
<text xml:space="preserve" text-anchor="start" x="4.5" y="-589" font-family="Helvetica,sans-Serif" font-size="10.00">+</text>
<text xml:space="preserve" text-anchor="start" x="15" y="-589" font-family="Helvetica,sans-Serif" font-size="10.00">squaredLength()</text>
<text xml:space="preserve" text-anchor="start" x="4.5" y="-573.75" font-family="Helvetica,sans-Serif" font-size="10.00">+</text>
<text xml:space="preserve" text-anchor="start" x="15" y="-573.75" font-family="Helvetica,sans-Serif" font-size="10.00">length()</text>
<text xml:space="preserve" text-anchor="start" x="4.5" y="-558.5" font-family="Helvetica,sans-Serif" font-size="10.00">+</text>
<text xml:space="preserve" text-anchor="start" x="15" y="-558.5" font-family="Helvetica,sans-Serif" font-size="10.00">normalize()</text>
<text xml:space="preserve" text-anchor="start" x="4.5" y="-543.25" font-family="Helvetica,sans-Serif" font-size="10.00">+</text>
<text xml:space="preserve" text-anchor="start" x="15" y="-543.25" font-family="Helvetica,sans-Serif" font-size="10.00">normalized()</text>
<text xml:space="preserve" text-anchor="start" x="4.5" y="-528" font-family="Helvetica,sans-Serif" font-size="10.00">+</text>
<text xml:space="preserve" text-anchor="start" x="15" y="-528" font-family="Helvetica,sans-Serif" font-size="10.00">dot()</text>
<text xml:space="preserve" text-anchor="start" x="4.5" y="-512.75" font-family="Helvetica,sans-Serif" font-size="10.00">+</text>
<text xml:space="preserve" text-anchor="start" x="15" y="-512.75" font-family="Helvetica,sans-Serif" font-size="10.00">project()</text>
<text xml:space="preserve" text-anchor="start" x="4.5" y="-497.5" font-family="Helvetica,sans-Serif" font-size="10.00">+</text>
<text xml:space="preserve" text-anchor="start" x="15" y="-497.5" font-family="Helvetica,sans-Serif" font-size="10.00">operator+=()</text>
<text xml:space="preserve" text-anchor="start" x="4.5" y="-482.25" font-family="Helvetica,sans-Serif" font-size="10.00">+</text>
<text xml:space="preserve" text-anchor="start" x="15" y="-482.25" font-family="Helvetica,sans-Serif" font-size="10.00">operator&#45;=()</text>
<text xml:space="preserve" text-anchor="start" x="15" y="-467" font-family="Helvetica,sans-Serif" font-size="10.00">and 6 more...</text>
<polygon fill="#666666" stroke="#666666" points="0,-646.25 0,-646.25 99.5,-646.25 99.5,-646.25 0,-646.25"/>
<polygon fill="#666666" stroke="#666666" points="0,-631 0,-631 99.5,-631 99.5,-631 0,-631"/>
<polygon fill="none" stroke="#666666" points="0,-461.25 0,-674.75 99.5,-674.75 99.5,-461.25 0,-461.25"/>
</a>
</g>
</g>
<!-- Node3&#45;&gt;Node2 -->
<g id="edge2_Node000002_Node000003" class="edge">
<title>Node3&#45;&gt;Node2</title>
<g id="a_edge2_Node000002_Node000003"><a xlink:title=" ">
<path fill="none" stroke="orange" d="M49.75,-450.15C49.75,-436.15 49.75,-421.88 49.75,-407.93"/>
<polygon fill="orange" stroke="orange" points="46.25,-449.79 49.75,-459.79 53.25,-449.79 46.25,-449.79"/>
</a>
</g>
<text xml:space="preserve" text-anchor="start" x="52.75" y="-430.75" font-family="Helvetica,sans-Serif" font-size="10.00" fill="grey">&lt; T, 2 &gt;</text>
</g>
<!-- Node4 -->
<g id="Node000004" class="node">
<title>Node4</title>
<g id="a_Node000004"><a xlink:title=" ">
<polygon fill="white" stroke="none" points="131.75,-318.5 117.75,-318.5 117.75,-268.75 131.75,-268.75 131.75,-318.5"/>
<text xml:space="preserve" text-anchor="start" x="121.75" y="-305" font-family="Helvetica,sans-Serif" font-size="10.00">T</text>
<text xml:space="preserve" text-anchor="start" x="123.25" y="-289.75" font-family="Helvetica,sans-Serif" font-size="10.00"> </text>
<text xml:space="preserve" text-anchor="start" x="123.25" y="-274.5" font-family="Helvetica,sans-Serif" font-size="10.00"> </text>
<polygon fill="#666666" stroke="#666666" points="117.75,-301.25 117.75,-301.25 131.75,-301.25 131.75,-301.25 117.75,-301.25"/>
<polygon fill="#666666" stroke="#666666" points="117.75,-286 117.75,-286 131.75,-286 131.75,-286 117.75,-286"/>
<polygon fill="none" stroke="#666666" points="117.75,-268.75 117.75,-318.5 131.75,-318.5 131.75,-268.75 117.75,-268.75"/>
</a>
</g>
</g>
<!-- Node4&#45;&gt;Node1 -->
<g id="edge3_Node000001_Node000004" class="edge">
<title>Node4&#45;&gt;Node1</title>
<g id="a_edge3_Node000001_Node000004"><a xlink:title=" ">
<path fill="none" stroke="#63b8ff" d="M121.69,-269.14C118.64,-246.18 113.71,-210.26 108.75,-179.25 105.86,-161.17 102.48,-141.64 99.25,-123.58"/>
<polygon fill="none" stroke="#63b8ff" points="99.22,-123.44 94.22,-118.24 97.09,-111.63 102.09,-116.82 99.22,-123.44"/>
</a>
</g>
<text xml:space="preserve" text-anchor="start" x="108.43" y="-148.75" font-family="Helvetica,sans-Serif" font-size="10.00" fill="grey">+x</text>
<text xml:space="preserve" text-anchor="start" x="108.43" y="-133.5" font-family="Helvetica,sans-Serif" font-size="10.00" fill="grey">+y</text>
</g>
</g>
</svg>
