<?xml version="1.0" encoding="UTF-8" standalone="no"?>
<!DOCTYPE svg PUBLIC "-//W3C//DTD SVG 1.1//EN"
 "http://www.w3.org/Graphics/SVG/1.1/DTD/svg11.dtd">
<!-- Generated by graphviz version 14.0.5 (20251129.0259)
 -->
<!-- Title: rtp::net::NetworkEvent Pages: 1 -->
<!--zoomable 760 -->

<svg id="main" version="1.1" xmlns="http://www.w3.org/2000/svg" xmlns:xlink="http://www.w3.org/1999/xlink" xml:space="preserve" onload="init(evt)">

<style type="text/css"><![CDATA[
.node, .edge {opacity: 0.7;}
.node.selected, .edge.selected {opacity: 1;}
.edge:hover path { stroke: red; }
.edge:hover polygon { stroke: red; fill: red; }
]]></style>

<defs>
  <circle id="rim" cx="0" cy="0" r="7"/>
  <circle id="rim2" cx="0" cy="0" r="3.5"/>
  <g id="zoomPlus">
    <use xlink:href="#rim" fill="#404040"><set attributeName="fill" to="#808080" begin="zoomplus.mouseover" end="zoomplus.mouseout"/></use>
    <path d="M-4,0h8M0,-4v8" fill="none" stroke="white" stroke-width="1.5" pointer-events="none"/>
  </g>
  <g id="zoomMin">
    <use xlink:href="#rim" fill="#404040"><set attributeName="fill" to="#808080" begin="zoomminus.mouseover" end="zoomminus.mouseout"/></use>
    <path d="M-4,0h8" fill="none" stroke="white" stroke-width="1.5" pointer-events="none"/>
  </g>
  <g id="arrowUp" transform="translate(30 24)">
    <use xlink:href="#rim"/>
    <path pointer-events="none" fill="none" stroke="white" stroke-width="1.5" d="M0,-3.0v7 M-2.5,-0.5L0,-3.0L2.5,-0.5"/>
  </g>
  <g id="arrowRight" transform="rotate(90) translate(36 -43)">
    <use xlink:href="#rim"/>
    <path pointer-events="none" fill="none" stroke="white" stroke-width="1.5" d="M0,-3.0v7 M-2.5,-0.5L0,-3.0L2.5,-0.5"/>
  </g>
  <g id="arrowDown" transform="rotate(180) translate(-30 -48)">
    <use xlink:href="#rim"/>
    <path pointer-events="none" fill="none" stroke="white" stroke-width="1.5" d="M0,-3.0v7 M-2.5,-0.5L0,-3.0L2.5,-0.5"/>
  </g>
  <g id="arrowLeft" transform="rotate(270) translate(-36 17)">
    <use xlink:href="#rim"/>
    <path pointer-events="none" fill="none" stroke="white" stroke-width="1.5" d="M0,-3.0v7 M-2.5,-0.5L0,-3.0L2.5,-0.5"/>
  </g>
  <g id="resetDef">
    <use xlink:href="#rim2" fill="#404040"><set attributeName="fill" to="#808080" begin="reset.mouseover" end="reset.mouseout"/></use>
  </g>
</defs>
<script type="application/ecmascript">
var viewWidth = 206;
var viewHeight = 760;
var sectionId = 'dynsection-0';
</script>
<script type="application/ecmascript" xlink:href="svg.min.js"/>
<svg id="graph" class="graph">
<g id="viewport">
<title>rtp::net::NetworkEvent</title>
<!-- Node1 -->
<g id="Node000001" class="node">
<title>Node1</title>
<g id="a_Node000001"><a xlink:title="Represents a network event containing session ID and packet data.">
<polygon fill="#999999" stroke="none" points="141.62,-49.75 34.62,-49.75 34.62,0 141.62,0 141.62,-49.75"/>
<text xml:space="preserve" text-anchor="start" x="38.62" y="-36.25" font-family="Helvetica,sans-Serif" font-size="10.00">rtp::net::NetworkEvent</text>
<text xml:space="preserve" text-anchor="start" x="50.38" y="-21" font-family="Helvetica,sans-Serif" font-size="10.00">+</text>
<text xml:space="preserve" text-anchor="start" x="72.12" y="-21" font-family="Helvetica,sans-Serif" font-size="10.00">sessionId</text>
<text xml:space="preserve" text-anchor="start" x="86.62" y="-5.75" font-family="Helvetica,sans-Serif" font-size="10.00"> </text>
<polygon fill="#666666" stroke="#666666" points="34.62,-32.5 34.62,-32.5 141.62,-32.5 141.62,-32.5 34.62,-32.5"/>
<polygon fill="#666666" stroke="#666666" points="34.62,-17.25 34.62,-17.25 70.12,-17.25 70.12,-17.25 34.62,-17.25"/>
<polygon fill="#666666" stroke="#666666" points="70.12,-17.25 70.12,-17.25 141.62,-17.25 141.62,-17.25 70.12,-17.25"/>
<polygon fill="none" stroke="#666666" points="34.62,0 34.62,-49.75 141.62,-49.75 141.62,0 34.62,0"/>
</a>
</g>
</g>
<!-- Node2 -->
<g id="Node000002" class="node">
<title>Node2</title>
<g id="a_Node000002"><a xlink:href="classrtp_1_1net_1_1Packet.html" target="_top" xlink:title="Network packet with header and serializable body.">
<polygon fill="white" stroke="none" points="154.5,-335.75 21.75,-335.75 21.75,-103 154.5,-103 154.5,-335.75"/>
<text xml:space="preserve" text-anchor="start" x="54.38" y="-322.25" font-family="Helvetica,sans-Serif" font-size="10.00">rtp::net::Packet</text>
<text xml:space="preserve" text-anchor="start" x="27.25" y="-307" font-family="Helvetica,sans-Serif" font-size="10.00">&#45;</text>
<text xml:space="preserve" text-anchor="start" x="35.75" y="-307" font-family="Helvetica,sans-Serif" font-size="10.00">_readPos</text>
<text xml:space="preserve" text-anchor="start" x="25.75" y="-291.75" font-family="Helvetica,sans-Serif" font-size="10.00">+</text>
<text xml:space="preserve" text-anchor="start" x="35.75" y="-291.75" font-family="Helvetica,sans-Serif" font-size="10.00">Packet()</text>
<text xml:space="preserve" text-anchor="start" x="25.75" y="-276.5" font-family="Helvetica,sans-Serif" font-size="10.00">+</text>
<text xml:space="preserve" text-anchor="start" x="35.75" y="-276.5" font-family="Helvetica,sans-Serif" font-size="10.00">Packet()</text>
<text xml:space="preserve" text-anchor="start" x="25.75" y="-261.25" font-family="Helvetica,sans-Serif" font-size="10.00">+</text>
<text xml:space="preserve" text-anchor="start" x="35.75" y="-261.25" font-family="Helvetica,sans-Serif" font-size="10.00">resetRead()</text>
<text xml:space="preserve" text-anchor="start" x="25.75" y="-246" font-family="Helvetica,sans-Serif" font-size="10.00">+</text>
<text xml:space="preserve" text-anchor="start" x="35.75" y="-246" font-family="Helvetica,sans-Serif" font-size="10.00">getBufferSequence()</text>
<text xml:space="preserve" text-anchor="start" x="25.75" y="-230.75" font-family="Helvetica,sans-Serif" font-size="10.00">+</text>
<text xml:space="preserve" text-anchor="start" x="35.75" y="-230.75" font-family="Helvetica,sans-Serif" font-size="10.00">operator&lt;&lt;()</text>
<text xml:space="preserve" text-anchor="start" x="25.75" y="-215.5" font-family="Helvetica,sans-Serif" font-size="10.00">+</text>
<text xml:space="preserve" text-anchor="start" x="35.75" y="-215.5" font-family="Helvetica,sans-Serif" font-size="10.00">operator&lt;&lt;()</text>
<text xml:space="preserve" text-anchor="start" x="25.75" y="-200.25" font-family="Helvetica,sans-Serif" font-size="10.00">+</text>
<text xml:space="preserve" text-anchor="start" x="35.75" y="-200.25" font-family="Helvetica,sans-Serif" font-size="10.00">operator&lt;&lt;()</text>
<text xml:space="preserve" text-anchor="start" x="25.75" y="-185" font-family="Helvetica,sans-Serif" font-size="10.00">+</text>
<text xml:space="preserve" text-anchor="start" x="35.75" y="-185" font-family="Helvetica,sans-Serif" font-size="10.00">operator&gt;&gt;()</text>
<text xml:space="preserve" text-anchor="start" x="25.75" y="-169.75" font-family="Helvetica,sans-Serif" font-size="10.00">+</text>
<text xml:space="preserve" text-anchor="start" x="35.75" y="-169.75" font-family="Helvetica,sans-Serif" font-size="10.00">operator&gt;&gt;()</text>
<text xml:space="preserve" text-anchor="start" x="25.75" y="-154.5" font-family="Helvetica,sans-Serif" font-size="10.00">+</text>
<text xml:space="preserve" text-anchor="start" x="35.75" y="-154.5" font-family="Helvetica,sans-Serif" font-size="10.00">operator&gt;&gt;()</text>
<text xml:space="preserve" text-anchor="start" x="25.75" y="-139.25" font-family="Helvetica,sans-Serif" font-size="10.00">+</text>
<text xml:space="preserve" text-anchor="start" x="35.75" y="-139.25" font-family="Helvetica,sans-Serif" font-size="10.00">to_network()</text>
<text xml:space="preserve" text-anchor="start" x="25.75" y="-124" font-family="Helvetica,sans-Serif" font-size="10.00">+</text>
<text xml:space="preserve" text-anchor="start" x="35.75" y="-124" font-family="Helvetica,sans-Serif" font-size="10.00">from_network()</text>
<text xml:space="preserve" text-anchor="start" x="27.25" y="-108.75" font-family="Helvetica,sans-Serif" font-size="10.00">&#45;</text>
<text xml:space="preserve" text-anchor="start" x="35.75" y="-108.75" font-family="Helvetica,sans-Serif" font-size="10.00">_bumpBodySizeOrThrow()</text>
<polygon fill="#666666" stroke="#666666" points="21.75,-318.5 21.75,-318.5 154.5,-318.5 154.5,-318.5 21.75,-318.5"/>
<polygon fill="#666666" stroke="#666666" points="21.75,-303.25 21.75,-303.25 33.75,-303.25 33.75,-303.25 21.75,-303.25"/>
<polygon fill="#666666" stroke="#666666" points="33.75,-303.25 33.75,-303.25 154.5,-303.25 154.5,-303.25 33.75,-303.25"/>
<polygon fill="none" stroke="#666666" points="21.75,-103 21.75,-335.75 154.5,-335.75 154.5,-103 21.75,-103"/>
</a>
</g>
</g>
<!-- Node2&#45;&gt;Node1 -->
<g id="edge1_Node000001_Node000002" class="edge">
<title>Node2&#45;&gt;Node1</title>
<g id="a_edge1_Node000001_Node000002"><a xlink:title=" ">
<path fill="none" stroke="#63b8ff" d="M88.12,-103.06C88.12,-88.44 88.12,-74.44 88.12,-62.46"/>
<polygon fill="none" stroke="#63b8ff" points="88.13,-62.33 84.13,-56.33 88.13,-50.33 92.13,-56.33 88.13,-62.33"/>
</a>
</g>
<text xml:space="preserve" text-anchor="start" x="91.12" y="-72.5" font-family="Helvetica,sans-Serif" font-size="10.00" fill="grey">+packet</text>
</g>
<!-- Node3 -->
<g id="Node000003" class="node">
<title>Node3</title>
<g id="a_Node000003"><a xlink:href="structrtp_1_1net_1_1Header.html" target="_top" xlink:title="Packet header with sequencing and acknowledgment support.">
<polygon fill="white" stroke="none" points="76.25,-545.5 0,-545.5 0,-404.25 76.25,-404.25 76.25,-545.5"/>
<text xml:space="preserve" text-anchor="start" x="4" y="-532" font-family="Helvetica,sans-Serif" font-size="10.00">rtp::net::Header</text>
<text xml:space="preserve" text-anchor="start" x="6" y="-516.75" font-family="Helvetica,sans-Serif" font-size="10.00">+</text>
<text xml:space="preserve" text-anchor="start" x="18" y="-516.75" font-family="Helvetica,sans-Serif" font-size="10.00">magic</text>
<text xml:space="preserve" text-anchor="start" x="6" y="-501.5" font-family="Helvetica,sans-Serif" font-size="10.00">+</text>
<text xml:space="preserve" text-anchor="start" x="18" y="-501.5" font-family="Helvetica,sans-Serif" font-size="10.00">sequenceId</text>
<text xml:space="preserve" text-anchor="start" x="6" y="-486.25" font-family="Helvetica,sans-Serif" font-size="10.00">+</text>
<text xml:space="preserve" text-anchor="start" x="18" y="-486.25" font-family="Helvetica,sans-Serif" font-size="10.00">bodySize</text>
<text xml:space="preserve" text-anchor="start" x="6" y="-471" font-family="Helvetica,sans-Serif" font-size="10.00">+</text>
<text xml:space="preserve" text-anchor="start" x="18" y="-471" font-family="Helvetica,sans-Serif" font-size="10.00">ackId</text>
<text xml:space="preserve" text-anchor="start" x="6" y="-455.75" font-family="Helvetica,sans-Serif" font-size="10.00">+</text>
<text xml:space="preserve" text-anchor="start" x="18" y="-455.75" font-family="Helvetica,sans-Serif" font-size="10.00">opCode</text>
<text xml:space="preserve" text-anchor="start" x="6" y="-440.5" font-family="Helvetica,sans-Serif" font-size="10.00">+</text>
<text xml:space="preserve" text-anchor="start" x="18" y="-440.5" font-family="Helvetica,sans-Serif" font-size="10.00">reserved</text>
<text xml:space="preserve" text-anchor="start" x="6" y="-425.25" font-family="Helvetica,sans-Serif" font-size="10.00">+</text>
<text xml:space="preserve" text-anchor="start" x="18" y="-425.25" font-family="Helvetica,sans-Serif" font-size="10.00">sessionId</text>
<text xml:space="preserve" text-anchor="start" x="36.62" y="-410" font-family="Helvetica,sans-Serif" font-size="10.00"> </text>
<polygon fill="#666666" stroke="#666666" points="0,-528.25 0,-528.25 76.25,-528.25 76.25,-528.25 0,-528.25"/>
<polygon fill="#666666" stroke="#666666" points="0,-421.5 0,-421.5 16,-421.5 16,-421.5 0,-421.5"/>
<polygon fill="#666666" stroke="#666666" points="16,-421.5 16,-421.5 76.25,-421.5 76.25,-421.5 16,-421.5"/>
<polygon fill="none" stroke="#666666" points="0,-404.25 0,-545.5 76.25,-545.5 76.25,-404.25 0,-404.25"/>
</a>
</g>
</g>
<!-- Node3&#45;&gt;Node2 -->
<g id="edge2_Node000002_Node000003" class="edge">
<title>Node3&#45;&gt;Node2</title>
<g id="a_edge2_Node000002_Node000003"><a xlink:title=" ">
<path fill="none" stroke="#63b8ff" d="M39.18,-404.27C40.26,-387.62 42.09,-369.97 45.12,-353.75 45.47,-351.88 45.84,-350 46.23,-348.12"/>
<polygon fill="none" stroke="#63b8ff" points="46.22,-348.17 43.61,-341.45 48.81,-336.46 51.42,-343.18 46.22,-348.17"/>
</a>
</g>
<text xml:space="preserve" text-anchor="start" x="48.12" y="-373.75" font-family="Helvetica,sans-Serif" font-size="10.00" fill="grey">+header</text>
<text xml:space="preserve" text-anchor="start" x="48.12" y="-358.5" font-family="Helvetica,sans-Serif" font-size="10.00" fill="grey">&#45;_cacheHeader</text>
</g>
<!-- Node4 -->
<g id="Node000004" class="node">
<title>Node4</title>
<g id="a_Node000004"><a xlink:title=" ">
<polygon fill="white" stroke="none" points="196,-499.75 94.25,-499.75 94.25,-450 196,-450 196,-499.75"/>
<text xml:space="preserve" text-anchor="start" x="98.25" y="-486.25" font-family="Helvetica,sans-Serif" font-size="10.00">std::vector&lt; uint8_t &gt;</text>
<text xml:space="preserve" text-anchor="start" x="109.25" y="-471" font-family="Helvetica,sans-Serif" font-size="10.00">+</text>
<text xml:space="preserve" text-anchor="start" x="130.25" y="-471" font-family="Helvetica,sans-Serif" font-size="10.00">elements</text>
<text xml:space="preserve" text-anchor="start" x="143.62" y="-455.75" font-family="Helvetica,sans-Serif" font-size="10.00"> </text>
<polygon fill="#666666" stroke="#666666" points="94.25,-482.5 94.25,-482.5 196,-482.5 196,-482.5 94.25,-482.5"/>
<polygon fill="#666666" stroke="#666666" points="94.25,-467.25 94.25,-467.25 128.25,-467.25 128.25,-467.25 94.25,-467.25"/>
<polygon fill="#666666" stroke="#666666" points="128.25,-467.25 128.25,-467.25 196,-467.25 196,-467.25 128.25,-467.25"/>
<polygon fill="none" stroke="#666666" points="94.25,-450 94.25,-499.75 196,-499.75 196,-450 94.25,-450"/>
</a>
</g>
</g>
<!-- Node4&#45;&gt;Node2 -->
<g id="edge3_Node000002_Node000004" class="edge">
<title>Node4&#45;&gt;Node2</title>
<g id="a_edge3_Node000002_Node000004"><a xlink:title=" ">
<path fill="none" stroke="#63b8ff" d="M139.76,-450.03C134.37,-426.06 125.63,-387.17 116.86,-348.15"/>
<polygon fill="none" stroke="#63b8ff" points="116.84,-348.09 111.62,-343.11 114.21,-336.38 119.43,-341.36 116.84,-348.09"/>
</a>
</g>
<text xml:space="preserve" text-anchor="start" x="128.06" y="-366.12" font-family="Helvetica,sans-Serif" font-size="10.00" fill="grey">+body</text>
</g>
<!-- Node5 -->
<g id="Node000005" class="node">
<title>Node5</title>
<g id="a_Node000005"><a xlink:title=" ">
<polygon fill="white" stroke="none" points="184.38,-648.5 105.88,-648.5 105.88,-598.75 184.38,-598.75 184.38,-648.5"/>
<text xml:space="preserve" text-anchor="start" x="109.88" y="-635" font-family="Helvetica,sans-Serif" font-size="10.00">std::vector&lt; T &gt;</text>
<text xml:space="preserve" text-anchor="start" x="143.62" y="-619.75" font-family="Helvetica,sans-Serif" font-size="10.00"> </text>
<text xml:space="preserve" text-anchor="start" x="143.62" y="-604.5" font-family="Helvetica,sans-Serif" font-size="10.00"> </text>
<polygon fill="#666666" stroke="#666666" points="105.88,-631.25 105.88,-631.25 184.38,-631.25 184.38,-631.25 105.88,-631.25"/>
<polygon fill="#666666" stroke="#666666" points="105.88,-616 105.88,-616 184.38,-616 184.38,-616 105.88,-616"/>
<polygon fill="none" stroke="#666666" points="105.88,-598.75 105.88,-648.5 184.38,-648.5 184.38,-598.75 105.88,-598.75"/>
</a>
</g>
</g>
<!-- Node5&#45;&gt;Node4 -->
<g id="edge4_Node000004_Node000005" class="edge">
<title>Node5&#45;&gt;Node4</title>
<g id="a_edge4_Node000004_Node000005"><a xlink:title=" ">
<path fill="none" stroke="orange" d="M145.12,-587.66C145.12,-560.38 145.12,-523.23 145.12,-499.39"/>
<polygon fill="orange" stroke="orange" points="141.63,-587.53 145.13,-597.53 148.63,-587.53 141.63,-587.53"/>
</a>
</g>
<text xml:space="preserve" text-anchor="start" x="148.12" y="-568.25" font-family="Helvetica,sans-Serif" font-size="10.00" fill="grey">&lt; uint8_t &gt;</text>
</g>
<!-- Node6 -->
<g id="Node000006" class="node">
<title>Node6</title>
<g id="a_Node000006"><a xlink:title=" ">
<polygon fill="white" stroke="none" points="152.12,-751.5 138.12,-751.5 138.12,-701.75 152.12,-701.75 152.12,-751.5"/>
<text xml:space="preserve" text-anchor="start" x="142.12" y="-738" font-family="Helvetica,sans-Serif" font-size="10.00">T</text>
<text xml:space="preserve" text-anchor="start" x="143.62" y="-722.75" font-family="Helvetica,sans-Serif" font-size="10.00"> </text>
<text xml:space="preserve" text-anchor="start" x="143.62" y="-707.5" font-family="Helvetica,sans-Serif" font-size="10.00"> </text>
<polygon fill="#666666" stroke="#666666" points="138.12,-734.25 138.12,-734.25 152.12,-734.25 152.12,-734.25 138.12,-734.25"/>
<polygon fill="#666666" stroke="#666666" points="138.12,-719 138.12,-719 152.12,-719 152.12,-719 138.12,-719"/>
<polygon fill="none" stroke="#666666" points="138.12,-701.75 138.12,-751.5 152.12,-751.5 152.12,-701.75 138.12,-701.75"/>
</a>
</g>
</g>
<!-- Node6&#45;&gt;Node5 -->
<g id="edge5_Node000005_Node000006" class="edge">
<title>Node6&#45;&gt;Node5</title>
<g id="a_edge5_Node000005_Node000006"><a xlink:title=" ">
<path fill="none" stroke="#63b8ff" d="M145.12,-701.94C145.12,-689.79 145.12,-674.71 145.12,-661.11"/>
<polygon fill="none" stroke="#63b8ff" points="145.13,-661.06 141.13,-655.06 145.13,-649.06 149.13,-655.06 145.13,-661.06"/>
</a>
</g>
<text xml:space="preserve" text-anchor="start" x="148.12" y="-671.25" font-family="Helvetica,sans-Serif" font-size="10.00" fill="grey">+elements</text>
</g>
</g>
</svg>

<g id="navigator" transform="translate(0 0)" fill="#404254">
  <rect fill="#f2f5e9" fill-opacity="0.5" stroke="#606060" stroke-width=".5" x="0" y="0" width="60" height="60"/>
  <use id="zoomplus" xlink:href="#zoomPlus" x="17" y="9" onmousedown="handleZoom(evt,'in')"/>
  <use id="zoomminus" xlink:href="#zoomMin" x="42" y="9" onmousedown="handleZoom(evt,'out')"/>
  <use id="reset" xlink:href="#resetDef" x="30" y="36" onmousedown="handleReset()"/>
   <use id="arrowup" xlink:href="#arrowUp" x="0" y="0" onmousedown="handlePan(0,-1)"/>
  <use id="arrowright" xlink:href="#arrowRight" x="0" y="0" onmousedown="handlePan(1,0)"/>
  <use id="arrowdown" xlink:href="#arrowDown" x="0" y="0" onmousedown="handlePan(0,1)"/>
  <use id="arrowleft" xlink:href="#arrowLeft" x="0" y="0" onmousedown="handlePan(-1,0)"/>
</g>
<svg viewBox="0 0 15 15" width="100%" height="30px" preserveAspectRatio="xMaxYMin meet">
 <g id="arrow_out" transform="scale(0.3 0.3)">
  <a xlink:href="structrtp_1_1net_1_1NetworkEvent__coll__graph_org.svg" target="_base">
   <rect id="button" ry="5" rx="5" y="6" x="6" height="38" width="38"
        fill="#f2f5e9" fill-opacity="0.5" stroke="#606060" stroke-width="1.0"/>
   <path id="arrow"
     d="M 11.500037,31.436501 C 11.940474,20.09759 22.043105,11.32322 32.158766,21.979434 L 37.068811,17.246167 C 37.068811,17.246167 37.088388,32 37.088388,32 L 22.160133,31.978069 C 22.160133,31.978069 26.997745,27.140456 26.997745,27.140456 C 18.528582,18.264221 13.291696,25.230495 11.500037,31.436501 z"
     style="fill:#404040;"/>
  </a>
 </g>
</svg>

<style type='text/css'>
<![CDATA[
[data-mouse-over-selected='false'] { opacity: 0.7; }
[data-mouse-over-selected='true']  { opacity: 1.0; }
]]>
</style>
<script type="application/ecmascript"><![CDATA[
document.addEventListener('DOMContentLoaded', (event) => {
  highlightEdges();
  highlightAdjacentNodes();
});
]]></script>
</svg>
