<?xml version="1.0" encoding="UTF-8" standalone="no"?>
<!DOCTYPE svg PUBLIC "-//W3C//DTD SVG 1.1//EN"
 "http://www.w3.org/Graphics/SVG/1.1/DTD/svg11.dtd">
<!-- Generated by graphviz version 14.0.5 (20251129.0259)
 -->
<!-- Title: rtp::ecs::components::ui::SpritePreview Pages: 1 -->
<svg width="120pt" height="377pt"
 viewBox="0.00 0.00 120.00 377.00" xmlns="http://www.w3.org/2000/svg" xmlns:xlink="http://www.w3.org/1999/xlink">
<g id="graph0" class="graph" transform="scale(1 1) rotate(0) translate(4 372.75)">
<title>rtp::ecs::components::ui::SpritePreview</title>
<!-- Node1 -->
<g id="Node000001" class="node">
<title>Node1</title>
<g id="a_Node000001"><a xlink:title="Component for displaying a sprite preview in the UI.">
<polygon fill="#999999" stroke="none" points="100.25,-167.75 0,-167.75 0,0 100.25,0 100.25,-167.75"/>
<text xml:space="preserve" text-anchor="start" x="4" y="-154.25" font-family="Helvetica,sans-Serif" font-size="10.00">rtp::ecs::components</text>
<text xml:space="preserve" text-anchor="start" x="10" y="-143" font-family="Helvetica,sans-Serif" font-size="10.00">::ui::SpritePreview</text>
<text xml:space="preserve" text-anchor="start" x="13.31" y="-127.75" font-family="Helvetica,sans-Serif" font-size="10.00">+</text>
<text xml:space="preserve" text-anchor="start" x="32.62" y="-127.75" font-family="Helvetica,sans-Serif" font-size="10.00">x</text>
<text xml:space="preserve" text-anchor="start" x="13.31" y="-112.5" font-family="Helvetica,sans-Serif" font-size="10.00">+</text>
<text xml:space="preserve" text-anchor="start" x="32.62" y="-112.5" font-family="Helvetica,sans-Serif" font-size="10.00">y</text>
<text xml:space="preserve" text-anchor="start" x="13.31" y="-97.25" font-family="Helvetica,sans-Serif" font-size="10.00">+</text>
<text xml:space="preserve" text-anchor="start" x="32.62" y="-97.25" font-family="Helvetica,sans-Serif" font-size="10.00">scale</text>
<text xml:space="preserve" text-anchor="start" x="13.31" y="-82" font-family="Helvetica,sans-Serif" font-size="10.00">+</text>
<text xml:space="preserve" text-anchor="start" x="32.62" y="-82" font-family="Helvetica,sans-Serif" font-size="10.00">rectLeft</text>
<text xml:space="preserve" text-anchor="start" x="13.31" y="-66.75" font-family="Helvetica,sans-Serif" font-size="10.00">+</text>
<text xml:space="preserve" text-anchor="start" x="32.62" y="-66.75" font-family="Helvetica,sans-Serif" font-size="10.00">rectTop</text>
<text xml:space="preserve" text-anchor="start" x="13.31" y="-51.5" font-family="Helvetica,sans-Serif" font-size="10.00">+</text>
<text xml:space="preserve" text-anchor="start" x="32.62" y="-51.5" font-family="Helvetica,sans-Serif" font-size="10.00">rectWidth</text>
<text xml:space="preserve" text-anchor="start" x="13.31" y="-36.25" font-family="Helvetica,sans-Serif" font-size="10.00">+</text>
<text xml:space="preserve" text-anchor="start" x="32.62" y="-36.25" font-family="Helvetica,sans-Serif" font-size="10.00">rectHeight</text>
<text xml:space="preserve" text-anchor="start" x="13.31" y="-21" font-family="Helvetica,sans-Serif" font-size="10.00">+</text>
<text xml:space="preserve" text-anchor="start" x="32.62" y="-21" font-family="Helvetica,sans-Serif" font-size="10.00">zIndex</text>
<text xml:space="preserve" text-anchor="start" x="48.62" y="-5.75" font-family="Helvetica,sans-Serif" font-size="10.00"> </text>
<polygon fill="#666666" stroke="#666666" points="0,-139.25 0,-139.25 100.25,-139.25 100.25,-139.25 0,-139.25"/>
<polygon fill="#666666" stroke="#666666" points="0,-17.25 0,-17.25 30.62,-17.25 30.62,-17.25 0,-17.25"/>
<polygon fill="#666666" stroke="#666666" points="30.62,-17.25 30.62,-17.25 100.25,-17.25 100.25,-17.25 30.62,-17.25"/>
<polygon fill="none" stroke="#666666" points="0,0 0,-167.75 100.25,-167.75 100.25,0 0,0"/>
</a>
</g>
</g>
<!-- Node2 -->
<g id="Node000002" class="node">
<title>Node2</title>
<g id="a_Node000002"><a xlink:title=" ">
<polygon fill="white" stroke="none" points="75.88,-270.75 24.38,-270.75 24.38,-221 75.88,-221 75.88,-270.75"/>
<text xml:space="preserve" text-anchor="start" x="28.38" y="-257.25" font-family="Helvetica,sans-Serif" font-size="10.00">std::string</text>
<text xml:space="preserve" text-anchor="start" x="48.62" y="-242" font-family="Helvetica,sans-Serif" font-size="10.00"> </text>
<text xml:space="preserve" text-anchor="start" x="48.62" y="-226.75" font-family="Helvetica,sans-Serif" font-size="10.00"> </text>
<polygon fill="#666666" stroke="#666666" points="24.38,-253.5 24.38,-253.5 75.88,-253.5 75.88,-253.5 24.38,-253.5"/>
<polygon fill="#666666" stroke="#666666" points="24.38,-238.25 24.38,-238.25 75.88,-238.25 75.88,-238.25 24.38,-238.25"/>
<polygon fill="none" stroke="#666666" points="24.38,-221 24.38,-270.75 75.88,-270.75 75.88,-221 24.38,-221"/>
</a>
</g>
</g>
<!-- Node2&#45;&gt;Node1 -->
<g id="edge1_Node000001_Node000002" class="edge">
<title>Node2&#45;&gt;Node1</title>
<g id="a_edge1_Node000001_Node000002"><a xlink:title=" ">
<path fill="none" stroke="#63b8ff" d="M50.12,-221.27C50.12,-209.93 50.12,-195.51 50.12,-180.32"/>
<polygon fill="none" stroke="#63b8ff" points="50.13,-180.33 46.13,-174.33 50.13,-168.33 54.13,-174.33 50.13,-180.33"/>
</a>
</g>
<text xml:space="preserve" text-anchor="start" x="53.12" y="-190.5" font-family="Helvetica,sans-Serif" font-size="10.00" fill="grey">+texturePath</text>
</g>
<!-- Node3 -->
<g id="Node000003" class="node">
<title>Node3</title>
<g id="a_Node000003"><a xlink:title=" ">
<polygon fill="white" stroke="none" points="93.12,-368.75 7.12,-368.75 7.12,-307.75 93.12,-307.75 93.12,-368.75"/>
<text xml:space="preserve" text-anchor="start" x="11.12" y="-355.25" font-family="Helvetica,sans-Serif" font-size="10.00">std::basic_string&lt;</text>
<text xml:space="preserve" text-anchor="start" x="33.62" y="-344" font-family="Helvetica,sans-Serif" font-size="10.00"> Char &gt;</text>
<text xml:space="preserve" text-anchor="start" x="48.62" y="-328.75" font-family="Helvetica,sans-Serif" font-size="10.00"> </text>
<text xml:space="preserve" text-anchor="start" x="48.62" y="-313.5" font-family="Helvetica,sans-Serif" font-size="10.00"> </text>
<polygon fill="#666666" stroke="#666666" points="7.12,-340.25 7.12,-340.25 93.12,-340.25 93.12,-340.25 7.12,-340.25"/>
<polygon fill="#666666" stroke="#666666" points="7.12,-325 7.12,-325 93.12,-325 93.12,-325 7.12,-325"/>
<polygon fill="none" stroke="#666666" points="7.12,-307.75 7.12,-368.75 93.12,-368.75 93.12,-307.75 7.12,-307.75"/>
</a>
</g>
</g>
<!-- Node3&#45;&gt;Node2 -->
<g id="edge2_Node000002_Node000003" class="edge">
<title>Node3&#45;&gt;Node2</title>
<g id="a_edge2_Node000002_Node000003"><a xlink:title=" ">
<path fill="none" stroke="#63b8ff" d="M50.12,-296.65C50.12,-287.69 50.12,-278.5 50.12,-270.48"/>
<polygon fill="none" stroke="#63b8ff" points="46.63,-296.64 50.13,-306.64 53.63,-296.64 46.63,-296.64"/>
</a>
</g>
</g>
</g>
</svg>
