<?xml version="1.0" encoding="UTF-8" standalone="no"?>
<!DOCTYPE svg PUBLIC "-//W3C//DTD SVG 1.1//EN"
 "http://www.w3.org/Graphics/SVG/1.1/DTD/svg11.dtd">
<!-- Generated by graphviz version 14.0.5 (20251129.0259)
 -->
<!-- Title: std::formatter&lt; rtp::Error &gt; Pages: 1 -->
<svg width="97pt" height="166pt"
 viewBox="0.00 0.00 97.00 166.00" xmlns="http://www.w3.org/2000/svg" xmlns:xlink="http://www.w3.org/1999/xlink">
<g id="graph0" class="graph" transform="scale(1 1) rotate(0) translate(4 162)">
<title>std::formatter&lt; rtp::Error &gt;</title>
<!-- Node1 -->
<g id="Node000001" class="node">
<title>Node1</title>
<g id="a_Node000001"><a xlink:title="Formatter specialization for Error objects.">
<polygon fill="#999999" stroke="none" points="87.88,-61 1.12,-61 1.12,0 87.88,0 87.88,-61"/>
<text xml:space="preserve" text-anchor="start" x="5.12" y="-47.5" font-family="Helvetica,sans-Serif" font-size="10.00">std::formatter&lt; rtp</text>
<text xml:space="preserve" text-anchor="start" x="26.5" y="-36.25" font-family="Helvetica,sans-Serif" font-size="10.00">::Error &gt;</text>
<text xml:space="preserve" text-anchor="start" x="43" y="-21" font-family="Helvetica,sans-Serif" font-size="10.00"> </text>
<text xml:space="preserve" text-anchor="start" x="13.88" y="-5.75" font-family="Helvetica,sans-Serif" font-size="10.00">+</text>
<text xml:space="preserve" text-anchor="start" x="32.62" y="-5.75" font-family="Helvetica,sans-Serif" font-size="10.00">format()</text>
<polygon fill="#666666" stroke="#666666" points="1.12,-32.5 1.12,-32.5 87.88,-32.5 87.88,-32.5 1.12,-32.5"/>
<polygon fill="#666666" stroke="#666666" points="1.12,-17.25 1.12,-17.25 87.88,-17.25 87.88,-17.25 1.12,-17.25"/>
<polygon fill="none" stroke="#666666" points="1.12,0 1.12,-61 87.88,-61 87.88,0 1.12,0"/>
</a>
</g>
</g>
<!-- Node2 -->
<g id="Node000002" class="node">
<title>Node2</title>
<g id="a_Node000002"><a xlink:title=" ">
<polygon fill="white" stroke="none" points="89,-158 0,-158 0,-97 89,-97 89,-158"/>
<text xml:space="preserve" text-anchor="start" x="4" y="-144.5" font-family="Helvetica,sans-Serif" font-size="10.00">std::formatter&lt; std</text>
<text xml:space="preserve" text-anchor="start" x="25" y="-133.25" font-family="Helvetica,sans-Serif" font-size="10.00">::string &gt;</text>
<text xml:space="preserve" text-anchor="start" x="43" y="-118" font-family="Helvetica,sans-Serif" font-size="10.00"> </text>
<text xml:space="preserve" text-anchor="start" x="43" y="-102.75" font-family="Helvetica,sans-Serif" font-size="10.00"> </text>
<polygon fill="#666666" stroke="#666666" points="0,-129.5 0,-129.5 89,-129.5 89,-129.5 0,-129.5"/>
<polygon fill="#666666" stroke="#666666" points="0,-114.25 0,-114.25 89,-114.25 89,-114.25 0,-114.25"/>
<polygon fill="none" stroke="#666666" points="0,-97 0,-158 89,-158 89,-97 0,-97"/>
</a>
</g>
</g>
<!-- Node2&#45;&gt;Node1 -->
<g id="edge1_Node000001_Node000002" class="edge">
<title>Node2&#45;&gt;Node1</title>
<g id="a_edge1_Node000001_Node000002"><a xlink:title=" ">
<path fill="none" stroke="#63b8ff" d="M44.5,-85.99C44.5,-77.54 44.5,-68.8 44.5,-60.85"/>
<polygon fill="none" stroke="#63b8ff" points="41,-85.71 44.5,-95.71 48,-85.71 41,-85.71"/>
</a>
</g>
</g>
</g>
</svg>
