<?xml version="1.0" encoding="UTF-8" standalone="no"?>
<!DOCTYPE svg PUBLIC "-//W3C//DTD SVG 1.1//EN"
 "http://www.w3.org/Graphics/SVG/1.1/DTD/svg11.dtd">
<!-- Generated by graphviz version 14.0.5 (20251129.0259)
 -->
<!-- Title: rtp::ecs::components::Boomerang Pages: 1 -->
<svg width="158pt" height="1007pt"
 viewBox="0.00 0.00 158.00 1007.00" xmlns="http://www.w3.org/2000/svg" xmlns:xlink="http://www.w3.org/1999/xlink">
<g id="graph0" class="graph" transform="scale(1 1) rotate(0) translate(4 1002.75)">
<title>rtp::ecs::components::Boomerang</title>
<!-- Node1 -->
<g id="Node000001" class="node">
<title>Node1</title>
<g id="a_Node000001"><a xlink:title="Marks a projectile as a boomerang and stores state for return logic.">
<polygon fill="#999999" stroke="none" points="118,-91.5 17.75,-91.5 17.75,0 118,0 118,-91.5"/>
<text xml:space="preserve" text-anchor="start" x="21.75" y="-78" font-family="Helvetica,sans-Serif" font-size="10.00">rtp::ecs::components</text>
<text xml:space="preserve" text-anchor="start" x="40.12" y="-66.75" font-family="Helvetica,sans-Serif" font-size="10.00">::Boomerang</text>
<text xml:space="preserve" text-anchor="start" x="27.88" y="-51.5" font-family="Helvetica,sans-Serif" font-size="10.00">+</text>
<text xml:space="preserve" text-anchor="start" x="44" y="-51.5" font-family="Helvetica,sans-Serif" font-size="10.00">ownerIndex</text>
<text xml:space="preserve" text-anchor="start" x="27.88" y="-36.25" font-family="Helvetica,sans-Serif" font-size="10.00">+</text>
<text xml:space="preserve" text-anchor="start" x="44" y="-36.25" font-family="Helvetica,sans-Serif" font-size="10.00">maxDistance</text>
<text xml:space="preserve" text-anchor="start" x="27.88" y="-21" font-family="Helvetica,sans-Serif" font-size="10.00">+</text>
<text xml:space="preserve" text-anchor="start" x="44" y="-21" font-family="Helvetica,sans-Serif" font-size="10.00">returning</text>
<text xml:space="preserve" text-anchor="start" x="66.38" y="-5.75" font-family="Helvetica,sans-Serif" font-size="10.00"> </text>
<polygon fill="#666666" stroke="#666666" points="17.75,-63 17.75,-63 118,-63 118,-63 17.75,-63"/>
<polygon fill="#666666" stroke="#666666" points="17.75,-17.25 17.75,-17.25 42,-17.25 42,-17.25 17.75,-17.25"/>
<polygon fill="#666666" stroke="#666666" points="42,-17.25 42,-17.25 118,-17.25 118,-17.25 42,-17.25"/>
<polygon fill="none" stroke="#666666" points="17.75,0 17.75,-91.5 118,-91.5 118,0 17.75,0"/>
</a>
</g>
</g>
<!-- Node2 -->
<g id="Node000002" class="node">
<title>Node2</title>
<g id="a_Node000002"><a xlink:href="structrtp_1_1Vec2.html" target="_top" xlink:title=" ">
<polygon fill="white" stroke="none" points="110.12,-270.75 25.62,-270.75 25.62,-144.75 110.12,-144.75 110.12,-270.75"/>
<text xml:space="preserve" text-anchor="start" x="29.62" y="-257.25" font-family="Helvetica,sans-Serif" font-size="10.00">rtp::Vec2&lt; float &gt;</text>
<text xml:space="preserve" text-anchor="start" x="32.94" y="-242" font-family="Helvetica,sans-Serif" font-size="10.00">+</text>
<text xml:space="preserve" text-anchor="start" x="46.25" y="-242" font-family="Helvetica,sans-Serif" font-size="10.00">x</text>
<text xml:space="preserve" text-anchor="start" x="32.94" y="-226.75" font-family="Helvetica,sans-Serif" font-size="10.00">+</text>
<text xml:space="preserve" text-anchor="start" x="46.25" y="-226.75" font-family="Helvetica,sans-Serif" font-size="10.00">y</text>
<text xml:space="preserve" text-anchor="start" x="32.94" y="-211.5" font-family="Helvetica,sans-Serif" font-size="10.00">+</text>
<text xml:space="preserve" text-anchor="start" x="46.25" y="-211.5" font-family="Helvetica,sans-Serif" font-size="10.00">Vec2()</text>
<text xml:space="preserve" text-anchor="start" x="32.94" y="-196.25" font-family="Helvetica,sans-Serif" font-size="10.00">+</text>
<text xml:space="preserve" text-anchor="start" x="46.25" y="-196.25" font-family="Helvetica,sans-Serif" font-size="10.00">Vec2()</text>
<text xml:space="preserve" text-anchor="start" x="32.94" y="-181" font-family="Helvetica,sans-Serif" font-size="10.00">+</text>
<text xml:space="preserve" text-anchor="start" x="46.25" y="-181" font-family="Helvetica,sans-Serif" font-size="10.00">~Vec2()</text>
<text xml:space="preserve" text-anchor="start" x="32.94" y="-165.75" font-family="Helvetica,sans-Serif" font-size="10.00">+</text>
<text xml:space="preserve" text-anchor="start" x="46.25" y="-165.75" font-family="Helvetica,sans-Serif" font-size="10.00">operator==()</text>
<text xml:space="preserve" text-anchor="start" x="32.94" y="-150.5" font-family="Helvetica,sans-Serif" font-size="10.00">+</text>
<text xml:space="preserve" text-anchor="start" x="46.25" y="-150.5" font-family="Helvetica,sans-Serif" font-size="10.00">operator[]()</text>
<polygon fill="#666666" stroke="#666666" points="25.62,-253.5 25.62,-253.5 110.12,-253.5 110.12,-253.5 25.62,-253.5"/>
<polygon fill="#666666" stroke="#666666" points="25.62,-223 25.62,-223 44.25,-223 44.25,-223 25.62,-223"/>
<polygon fill="#666666" stroke="#666666" points="44.25,-223 44.25,-223 110.12,-223 110.12,-223 44.25,-223"/>
<polygon fill="none" stroke="#666666" points="25.62,-144.75 25.62,-270.75 110.12,-270.75 110.12,-144.75 25.62,-144.75"/>
</a>
</g>
</g>
<!-- Node2&#45;&gt;Node1 -->
<g id="edge1_Node000001_Node000002" class="edge">
<title>Node2&#45;&gt;Node1</title>
<g id="a_edge1_Node000001_Node000002"><a xlink:title=" ">
<path fill="none" stroke="#63b8ff" d="M67.88,-144.89C67.88,-131.44 67.88,-117.26 67.88,-103.99"/>
<polygon fill="none" stroke="#63b8ff" points="67.88,-103.99 63.88,-97.99 67.88,-91.99 71.88,-97.99 67.88,-103.99"/>
</a>
</g>
<text xml:space="preserve" text-anchor="start" x="70.88" y="-114.25" font-family="Helvetica,sans-Serif" font-size="10.00" fill="grey">+startPos</text>
</g>
<!-- Node3 -->
<g id="Node000003" class="node">
<title>Node3</title>
<g id="a_Node000003"><a xlink:href="structrtp_1_1details_1_1VecBase.html" target="_top" xlink:title=" ">
<polygon fill="white" stroke="none" points="149.62,-732 50.12,-732 50.12,-503.25 149.62,-503.25 149.62,-732"/>
<text xml:space="preserve" text-anchor="start" x="54.12" y="-718.5" font-family="Helvetica,sans-Serif" font-size="10.00">rtp::details::VecBase</text>
<text xml:space="preserve" text-anchor="start" x="83" y="-707.25" font-family="Helvetica,sans-Serif" font-size="10.00">&lt; T, 2 &gt;</text>
<text xml:space="preserve" text-anchor="start" x="98.38" y="-692" font-family="Helvetica,sans-Serif" font-size="10.00"> </text>
<text xml:space="preserve" text-anchor="start" x="54.62" y="-676.75" font-family="Helvetica,sans-Serif" font-size="10.00">+</text>
<text xml:space="preserve" text-anchor="start" x="65.12" y="-676.75" font-family="Helvetica,sans-Serif" font-size="10.00">squaredDistance()</text>
<text xml:space="preserve" text-anchor="start" x="54.62" y="-661.5" font-family="Helvetica,sans-Serif" font-size="10.00">+</text>
<text xml:space="preserve" text-anchor="start" x="65.12" y="-661.5" font-family="Helvetica,sans-Serif" font-size="10.00">distance()</text>
<text xml:space="preserve" text-anchor="start" x="54.62" y="-646.25" font-family="Helvetica,sans-Serif" font-size="10.00">+</text>
<text xml:space="preserve" text-anchor="start" x="65.12" y="-646.25" font-family="Helvetica,sans-Serif" font-size="10.00">squaredLength()</text>
<text xml:space="preserve" text-anchor="start" x="54.62" y="-631" font-family="Helvetica,sans-Serif" font-size="10.00">+</text>
<text xml:space="preserve" text-anchor="start" x="65.12" y="-631" font-family="Helvetica,sans-Serif" font-size="10.00">length()</text>
<text xml:space="preserve" text-anchor="start" x="54.62" y="-615.75" font-family="Helvetica,sans-Serif" font-size="10.00">+</text>
<text xml:space="preserve" text-anchor="start" x="65.12" y="-615.75" font-family="Helvetica,sans-Serif" font-size="10.00">normalize()</text>
<text xml:space="preserve" text-anchor="start" x="54.62" y="-600.5" font-family="Helvetica,sans-Serif" font-size="10.00">+</text>
<text xml:space="preserve" text-anchor="start" x="65.12" y="-600.5" font-family="Helvetica,sans-Serif" font-size="10.00">normalized()</text>
<text xml:space="preserve" text-anchor="start" x="54.62" y="-585.25" font-family="Helvetica,sans-Serif" font-size="10.00">+</text>
<text xml:space="preserve" text-anchor="start" x="65.12" y="-585.25" font-family="Helvetica,sans-Serif" font-size="10.00">dot()</text>
<text xml:space="preserve" text-anchor="start" x="54.62" y="-570" font-family="Helvetica,sans-Serif" font-size="10.00">+</text>
<text xml:space="preserve" text-anchor="start" x="65.12" y="-570" font-family="Helvetica,sans-Serif" font-size="10.00">project()</text>
<text xml:space="preserve" text-anchor="start" x="54.62" y="-554.75" font-family="Helvetica,sans-Serif" font-size="10.00">+</text>
<text xml:space="preserve" text-anchor="start" x="65.12" y="-554.75" font-family="Helvetica,sans-Serif" font-size="10.00">operator+=()</text>
<text xml:space="preserve" text-anchor="start" x="54.62" y="-539.5" font-family="Helvetica,sans-Serif" font-size="10.00">+</text>
<text xml:space="preserve" text-anchor="start" x="65.12" y="-539.5" font-family="Helvetica,sans-Serif" font-size="10.00">operator&#45;=()</text>
<text xml:space="preserve" text-anchor="start" x="54.62" y="-524.25" font-family="Helvetica,sans-Serif" font-size="10.00">+</text>
<text xml:space="preserve" text-anchor="start" x="65.12" y="-524.25" font-family="Helvetica,sans-Serif" font-size="10.00">operator*=()</text>
<text xml:space="preserve" text-anchor="start" x="54.62" y="-509" font-family="Helvetica,sans-Serif" font-size="10.00">+</text>
<text xml:space="preserve" text-anchor="start" x="65.12" y="-509" font-family="Helvetica,sans-Serif" font-size="10.00">operator/=()</text>
<polygon fill="#666666" stroke="#666666" points="50.12,-703.5 50.12,-703.5 149.62,-703.5 149.62,-703.5 50.12,-703.5"/>
<polygon fill="#666666" stroke="#666666" points="50.12,-688.25 50.12,-688.25 149.62,-688.25 149.62,-688.25 50.12,-688.25"/>
<polygon fill="none" stroke="#666666" points="50.12,-503.25 50.12,-732 149.62,-732 149.62,-503.25 50.12,-503.25"/>
</a>
</g>
</g>
<!-- Node3&#45;&gt;Node2 -->
<g id="edge2_Node000002_Node000003" class="edge">
<title>Node3&#45;&gt;Node2</title>
<g id="a_edge2_Node000002_Node000003"><a xlink:title=" ">
<path fill="none" stroke="#63b8ff" d="M99.78,-492.21C98.41,-430.75 94.75,-355.61 85.88,-288.75 85.09,-282.82 84.07,-276.69 82.93,-270.57"/>
<polygon fill="none" stroke="#63b8ff" points="96.28,-492.08 99.98,-502.01 103.28,-491.94 96.28,-492.08"/>
</a>
</g>
</g>
<!-- Node5 -->
<g id="Node000005" class="node">
<title>Node5</title>
<g id="a_Node000005"><a xlink:href="structrtp_1_1Vec2.html" target="_top" xlink:title="A 2&#45;dimensional vector.">
<polygon fill="white" stroke="none" points="71.75,-434.75 0,-434.75 0,-324 71.75,-324 71.75,-434.75"/>
<text xml:space="preserve" text-anchor="start" x="4" y="-421.25" font-family="Helvetica,sans-Serif" font-size="10.00">rtp::Vec2&lt; T &gt;</text>
<text xml:space="preserve" text-anchor="start" x="34.38" y="-406" font-family="Helvetica,sans-Serif" font-size="10.00"> </text>
<text xml:space="preserve" text-anchor="start" x="4.12" y="-390.75" font-family="Helvetica,sans-Serif" font-size="10.00">+</text>
<text xml:space="preserve" text-anchor="start" x="14.25" y="-390.75" font-family="Helvetica,sans-Serif" font-size="10.00">Vec2()</text>
<text xml:space="preserve" text-anchor="start" x="4.12" y="-375.5" font-family="Helvetica,sans-Serif" font-size="10.00">+</text>
<text xml:space="preserve" text-anchor="start" x="14.25" y="-375.5" font-family="Helvetica,sans-Serif" font-size="10.00">Vec2()</text>
<text xml:space="preserve" text-anchor="start" x="4.12" y="-360.25" font-family="Helvetica,sans-Serif" font-size="10.00">+</text>
<text xml:space="preserve" text-anchor="start" x="14.25" y="-360.25" font-family="Helvetica,sans-Serif" font-size="10.00">~Vec2()</text>
<text xml:space="preserve" text-anchor="start" x="4.12" y="-345" font-family="Helvetica,sans-Serif" font-size="10.00">+</text>
<text xml:space="preserve" text-anchor="start" x="14.25" y="-345" font-family="Helvetica,sans-Serif" font-size="10.00">operator==()</text>
<text xml:space="preserve" text-anchor="start" x="4.12" y="-329.75" font-family="Helvetica,sans-Serif" font-size="10.00">+</text>
<text xml:space="preserve" text-anchor="start" x="14.25" y="-329.75" font-family="Helvetica,sans-Serif" font-size="10.00">operator[]()</text>
<polygon fill="#666666" stroke="#666666" points="0,-417.5 0,-417.5 71.75,-417.5 71.75,-417.5 0,-417.5"/>
<polygon fill="#666666" stroke="#666666" points="0,-402.25 0,-402.25 71.75,-402.25 71.75,-402.25 0,-402.25"/>
<polygon fill="none" stroke="#666666" points="0,-324 0,-434.75 71.75,-434.75 71.75,-324 0,-324"/>
</a>
</g>
</g>
<!-- Node3&#45;&gt;Node5 -->
<g id="edge5_Node000005_Node000003" class="edge">
<title>Node3&#45;&gt;Node5</title>
<g id="a_edge5_Node000005_Node000003"><a xlink:title=" ">
<path fill="none" stroke="#63b8ff" d="M66.22,-492.41C60.73,-472.14 55.31,-452.11 50.6,-434.72"/>
<polygon fill="none" stroke="#63b8ff" points="62.8,-493.15 68.79,-501.88 69.55,-491.32 62.8,-493.15"/>
</a>
</g>
</g>
<!-- Node4 -->
<g id="Node000004" class="node">
<title>Node4</title>
<g id="a_Node000004"><a xlink:href="structrtp_1_1details_1_1VecBase.html" target="_top" xlink:title="CRTP base class for vectors.">
<polygon fill="white" stroke="none" points="149.62,-998.75 50.12,-998.75 50.12,-785.25 149.62,-785.25 149.62,-998.75"/>
<text xml:space="preserve" text-anchor="start" x="54.12" y="-985.25" font-family="Helvetica,sans-Serif" font-size="10.00">rtp::details::VecBase</text>
<text xml:space="preserve" text-anchor="start" x="81.88" y="-974" font-family="Helvetica,sans-Serif" font-size="10.00">&lt; T, N &gt;</text>
<text xml:space="preserve" text-anchor="start" x="98.38" y="-958.75" font-family="Helvetica,sans-Serif" font-size="10.00"> </text>
<text xml:space="preserve" text-anchor="start" x="54.62" y="-943.5" font-family="Helvetica,sans-Serif" font-size="10.00">+</text>
<text xml:space="preserve" text-anchor="start" x="65.12" y="-943.5" font-family="Helvetica,sans-Serif" font-size="10.00">squaredDistance()</text>
<text xml:space="preserve" text-anchor="start" x="54.62" y="-928.25" font-family="Helvetica,sans-Serif" font-size="10.00">+</text>
<text xml:space="preserve" text-anchor="start" x="65.12" y="-928.25" font-family="Helvetica,sans-Serif" font-size="10.00">distance()</text>
<text xml:space="preserve" text-anchor="start" x="54.62" y="-913" font-family="Helvetica,sans-Serif" font-size="10.00">+</text>
<text xml:space="preserve" text-anchor="start" x="65.12" y="-913" font-family="Helvetica,sans-Serif" font-size="10.00">squaredLength()</text>
<text xml:space="preserve" text-anchor="start" x="54.62" y="-897.75" font-family="Helvetica,sans-Serif" font-size="10.00">+</text>
<text xml:space="preserve" text-anchor="start" x="65.12" y="-897.75" font-family="Helvetica,sans-Serif" font-size="10.00">length()</text>
<text xml:space="preserve" text-anchor="start" x="54.62" y="-882.5" font-family="Helvetica,sans-Serif" font-size="10.00">+</text>
<text xml:space="preserve" text-anchor="start" x="65.12" y="-882.5" font-family="Helvetica,sans-Serif" font-size="10.00">normalize()</text>
<text xml:space="preserve" text-anchor="start" x="54.62" y="-867.25" font-family="Helvetica,sans-Serif" font-size="10.00">+</text>
<text xml:space="preserve" text-anchor="start" x="65.12" y="-867.25" font-family="Helvetica,sans-Serif" font-size="10.00">normalized()</text>
<text xml:space="preserve" text-anchor="start" x="54.62" y="-852" font-family="Helvetica,sans-Serif" font-size="10.00">+</text>
<text xml:space="preserve" text-anchor="start" x="65.12" y="-852" font-family="Helvetica,sans-Serif" font-size="10.00">dot()</text>
<text xml:space="preserve" text-anchor="start" x="54.62" y="-836.75" font-family="Helvetica,sans-Serif" font-size="10.00">+</text>
<text xml:space="preserve" text-anchor="start" x="65.12" y="-836.75" font-family="Helvetica,sans-Serif" font-size="10.00">project()</text>
<text xml:space="preserve" text-anchor="start" x="54.62" y="-821.5" font-family="Helvetica,sans-Serif" font-size="10.00">+</text>
<text xml:space="preserve" text-anchor="start" x="65.12" y="-821.5" font-family="Helvetica,sans-Serif" font-size="10.00">operator+=()</text>
<text xml:space="preserve" text-anchor="start" x="54.62" y="-806.25" font-family="Helvetica,sans-Serif" font-size="10.00">+</text>
<text xml:space="preserve" text-anchor="start" x="65.12" y="-806.25" font-family="Helvetica,sans-Serif" font-size="10.00">operator&#45;=()</text>
<text xml:space="preserve" text-anchor="start" x="65.12" y="-791" font-family="Helvetica,sans-Serif" font-size="10.00">and 6 more...</text>
<polygon fill="#666666" stroke="#666666" points="50.12,-970.25 50.12,-970.25 149.62,-970.25 149.62,-970.25 50.12,-970.25"/>
<polygon fill="#666666" stroke="#666666" points="50.12,-955 50.12,-955 149.62,-955 149.62,-955 50.12,-955"/>
<polygon fill="none" stroke="#666666" points="50.12,-785.25 50.12,-998.75 149.62,-998.75 149.62,-785.25 50.12,-785.25"/>
</a>
</g>
</g>
<!-- Node4&#45;&gt;Node3 -->
<g id="edge3_Node000003_Node000004" class="edge">
<title>Node4&#45;&gt;Node3</title>
<g id="a_edge3_Node000003_Node000004"><a xlink:title=" ">
<path fill="none" stroke="orange" d="M99.88,-774.15C99.88,-760.15 99.88,-745.88 99.88,-731.93"/>
<polygon fill="orange" stroke="orange" points="96.38,-773.79 99.88,-783.79 103.38,-773.79 96.38,-773.79"/>
</a>
</g>
<text xml:space="preserve" text-anchor="start" x="102.88" y="-754.75" font-family="Helvetica,sans-Serif" font-size="10.00" fill="grey">&lt; T, 2 &gt;</text>
</g>
<!-- Node5&#45;&gt;Node2 -->
<g id="edge4_Node000002_Node000005" class="edge">
<title>Node5&#45;&gt;Node2</title>
<g id="a_edge4_Node000002_Node000005"><a xlink:title=" ">
<path fill="none" stroke="orange" d="M39.52,-312.7C40.46,-304.6 41.64,-296.46 43.12,-288.75 44.28,-282.75 45.72,-276.57 47.33,-270.43"/>
<polygon fill="orange" stroke="orange" points="36.04,-312.27 38.5,-322.58 43.01,-312.99 36.04,-312.27"/>
</a>
</g>
<text xml:space="preserve" text-anchor="start" x="46.12" y="-293.5" font-family="Helvetica,sans-Serif" font-size="10.00" fill="grey">&lt; float &gt;</text>
</g>
<!-- Node6 -->
<g id="Node000006" class="node">
<title>Node6</title>
<g id="a_Node000006"><a xlink:title=" ">
<polygon fill="white" stroke="none" points="31.88,-642.5 17.88,-642.5 17.88,-592.75 31.88,-592.75 31.88,-642.5"/>
<text xml:space="preserve" text-anchor="start" x="21.88" y="-629" font-family="Helvetica,sans-Serif" font-size="10.00">T</text>
<text xml:space="preserve" text-anchor="start" x="23.38" y="-613.75" font-family="Helvetica,sans-Serif" font-size="10.00"> </text>
<text xml:space="preserve" text-anchor="start" x="23.38" y="-598.5" font-family="Helvetica,sans-Serif" font-size="10.00"> </text>
<polygon fill="#666666" stroke="#666666" points="17.88,-625.25 17.88,-625.25 31.88,-625.25 31.88,-625.25 17.88,-625.25"/>
<polygon fill="#666666" stroke="#666666" points="17.88,-610 17.88,-610 31.88,-610 31.88,-610 17.88,-610"/>
<polygon fill="none" stroke="#666666" points="17.88,-592.75 17.88,-642.5 31.88,-642.5 31.88,-592.75 17.88,-592.75"/>
</a>
</g>
</g>
<!-- Node6&#45;&gt;Node5 -->
<g id="edge6_Node000005_Node000006" class="edge">
<title>Node6&#45;&gt;Node5</title>
<g id="a_edge6_Node000005_Node000006"><a xlink:title=" ">
<path fill="none" stroke="#63b8ff" d="M25.97,-593.11C27.54,-559.43 30.48,-496.15 32.76,-447.32"/>
<polygon fill="none" stroke="#63b8ff" points="32.76,-447.18 29.05,-441 33.32,-435.19 37.04,-441.37 32.76,-447.18"/>
</a>
</g>
<text xml:space="preserve" text-anchor="start" x="35.32" y="-472.75" font-family="Helvetica,sans-Serif" font-size="10.00" fill="grey">+x</text>
<text xml:space="preserve" text-anchor="start" x="35.32" y="-457.5" font-family="Helvetica,sans-Serif" font-size="10.00" fill="grey">+y</text>
</g>
</g>
</svg>
