<?xml version="1.0" encoding="UTF-8" standalone="no"?>
<!DOCTYPE svg PUBLIC "-//W3C//DTD SVG 1.1//EN"
 "http://www.w3.org/Graphics/SVG/1.1/DTD/svg11.dtd">
<!-- Generated by graphviz version 14.0.5 (20251129.0259)
 -->
<!-- Title: rtp::client::NetworkSyncSystem::GameOverSummary Pages: 1 -->
<svg width="145pt" height="285pt"
 viewBox="0.00 0.00 145.00 285.00" xmlns="http://www.w3.org/2000/svg" xmlns:xlink="http://www.w3.org/1999/xlink">
<g id="graph0" class="graph" transform="scale(1 1) rotate(0) translate(4 281.25)">
<title>rtp::client::NetworkSyncSystem::GameOverSummary</title>
<!-- Node1 -->
<g id="Node000001" class="node">
<title>Node1</title>
<g id="a_Node000001"><a xlink:title=" ">
<polygon fill="#999999" stroke="none" points="137,-76.25 0,-76.25 0,0 137,0 137,-76.25"/>
<text xml:space="preserve" text-anchor="start" x="4" y="-62.75" font-family="Helvetica,sans-Serif" font-size="10.00">rtp::client::NetworkSync</text>
<text xml:space="preserve" text-anchor="start" x="4" y="-51.5" font-family="Helvetica,sans-Serif" font-size="10.00">System::GameOverSummary</text>
<text xml:space="preserve" text-anchor="start" x="20.81" y="-36.25" font-family="Helvetica,sans-Serif" font-size="10.00">+</text>
<text xml:space="preserve" text-anchor="start" x="47.62" y="-36.25" font-family="Helvetica,sans-Serif" font-size="10.00">bestScore</text>
<text xml:space="preserve" text-anchor="start" x="20.81" y="-21" font-family="Helvetica,sans-Serif" font-size="10.00">+</text>
<text xml:space="preserve" text-anchor="start" x="47.62" y="-21" font-family="Helvetica,sans-Serif" font-size="10.00">playerScore</text>
<text xml:space="preserve" text-anchor="start" x="67" y="-5.75" font-family="Helvetica,sans-Serif" font-size="10.00"> </text>
<polygon fill="#666666" stroke="#666666" points="0,-47.75 0,-47.75 137,-47.75 137,-47.75 0,-47.75"/>
<polygon fill="#666666" stroke="#666666" points="0,-17.25 0,-17.25 45.62,-17.25 45.62,-17.25 0,-17.25"/>
<polygon fill="#666666" stroke="#666666" points="45.62,-17.25 45.62,-17.25 137,-17.25 137,-17.25 45.62,-17.25"/>
<polygon fill="none" stroke="#666666" points="0,0 0,-76.25 137,-76.25 137,0 0,0"/>
</a>
</g>
</g>
<!-- Node2 -->
<g id="Node000002" class="node">
<title>Node2</title>
<g id="a_Node000002"><a xlink:title=" ">
<polygon fill="white" stroke="none" points="94.25,-179.25 42.75,-179.25 42.75,-129.5 94.25,-129.5 94.25,-179.25"/>
<text xml:space="preserve" text-anchor="start" x="46.75" y="-165.75" font-family="Helvetica,sans-Serif" font-size="10.00">std::string</text>
<text xml:space="preserve" text-anchor="start" x="67" y="-150.5" font-family="Helvetica,sans-Serif" font-size="10.00"> </text>
<text xml:space="preserve" text-anchor="start" x="67" y="-135.25" font-family="Helvetica,sans-Serif" font-size="10.00"> </text>
<polygon fill="#666666" stroke="#666666" points="42.75,-162 42.75,-162 94.25,-162 94.25,-162 42.75,-162"/>
<polygon fill="#666666" stroke="#666666" points="42.75,-146.75 42.75,-146.75 94.25,-146.75 94.25,-146.75 42.75,-146.75"/>
<polygon fill="none" stroke="#666666" points="42.75,-129.5 42.75,-179.25 94.25,-179.25 94.25,-129.5 42.75,-129.5"/>
</a>
</g>
</g>
<!-- Node2&#45;&gt;Node1 -->
<g id="edge1_Node000001_Node000002" class="edge">
<title>Node2&#45;&gt;Node1</title>
<g id="a_edge1_Node000001_Node000002"><a xlink:title=" ">
<path fill="none" stroke="#63b8ff" d="M68.5,-129.7C68.5,-117.79 68.5,-102.89 68.5,-88.63"/>
<polygon fill="none" stroke="#63b8ff" points="68.5,-88.72 64.5,-82.72 68.5,-76.72 72.5,-82.72 68.5,-88.72"/>
</a>
</g>
<text xml:space="preserve" text-anchor="start" x="71.5" y="-99" font-family="Helvetica,sans-Serif" font-size="10.00" fill="grey">+bestPlayer</text>
</g>
<!-- Node3 -->
<g id="Node000003" class="node">
<title>Node3</title>
<g id="a_Node000003"><a xlink:title=" ">
<polygon fill="white" stroke="none" points="111.5,-277.25 25.5,-277.25 25.5,-216.25 111.5,-216.25 111.5,-277.25"/>
<text xml:space="preserve" text-anchor="start" x="29.5" y="-263.75" font-family="Helvetica,sans-Serif" font-size="10.00">std::basic_string&lt;</text>
<text xml:space="preserve" text-anchor="start" x="52" y="-252.5" font-family="Helvetica,sans-Serif" font-size="10.00"> Char &gt;</text>
<text xml:space="preserve" text-anchor="start" x="67" y="-237.25" font-family="Helvetica,sans-Serif" font-size="10.00"> </text>
<text xml:space="preserve" text-anchor="start" x="67" y="-222" font-family="Helvetica,sans-Serif" font-size="10.00"> </text>
<polygon fill="#666666" stroke="#666666" points="25.5,-248.75 25.5,-248.75 111.5,-248.75 111.5,-248.75 25.5,-248.75"/>
<polygon fill="#666666" stroke="#666666" points="25.5,-233.5 25.5,-233.5 111.5,-233.5 111.5,-233.5 25.5,-233.5"/>
<polygon fill="none" stroke="#666666" points="25.5,-216.25 25.5,-277.25 111.5,-277.25 111.5,-216.25 25.5,-216.25"/>
</a>
</g>
</g>
<!-- Node3&#45;&gt;Node2 -->
<g id="edge2_Node000002_Node000003" class="edge">
<title>Node3&#45;&gt;Node2</title>
<g id="a_edge2_Node000002_Node000003"><a xlink:title=" ">
<path fill="none" stroke="#63b8ff" d="M68.5,-205.15C68.5,-196.19 68.5,-187 68.5,-178.98"/>
<polygon fill="none" stroke="#63b8ff" points="65,-205.14 68.5,-215.14 72,-205.14 65,-205.14"/>
</a>
</g>
</g>
</g>
</svg>
