<?xml version="1.0" encoding="UTF-8" standalone="no"?>
<!DOCTYPE svg PUBLIC "-//W3C//DTD SVG 1.1//EN"
 "http://www.w3.org/Graphics/SVG/1.1/DTD/svg11.dtd">
<!-- Generated by graphviz version 14.0.5 (20251129.0259)
 -->
<!-- Title: rtp::Vec3&lt; T &gt; Pages: 1 -->
<svg width="412pt" height="918pt"
 viewBox="0.00 0.00 412.00 918.00" xmlns="http://www.w3.org/2000/svg" xmlns:xlink="http://www.w3.org/1999/xlink">
<g id="graph0" class="graph" transform="scale(1 1) rotate(0) translate(4 914)">
<title>rtp::Vec3&lt; T &gt;</title>
<!-- Node1 -->
<g id="Node000001" class="node">
<title>Node1</title>
<g id="a_Node000001"><a xlink:title="A 3&#45;dimensional vector.">
<polygon fill="#999999" stroke="none" points="236.12,-377.5 164.38,-377.5 164.38,-221 236.12,-221 236.12,-377.5"/>
<text xml:space="preserve" text-anchor="start" x="168.38" y="-364" font-family="Helvetica,sans-Serif" font-size="10.00">rtp::Vec3&lt; T &gt;</text>
<text xml:space="preserve" text-anchor="start" x="168.5" y="-348.75" font-family="Helvetica,sans-Serif" font-size="10.00">+</text>
<text xml:space="preserve" text-anchor="start" x="178.62" y="-348.75" font-family="Helvetica,sans-Serif" font-size="10.00">x</text>
<text xml:space="preserve" text-anchor="start" x="168.5" y="-333.5" font-family="Helvetica,sans-Serif" font-size="10.00">+</text>
<text xml:space="preserve" text-anchor="start" x="178.62" y="-333.5" font-family="Helvetica,sans-Serif" font-size="10.00">y</text>
<text xml:space="preserve" text-anchor="start" x="168.5" y="-318.25" font-family="Helvetica,sans-Serif" font-size="10.00">+</text>
<text xml:space="preserve" text-anchor="start" x="178.62" y="-318.25" font-family="Helvetica,sans-Serif" font-size="10.00">z</text>
<text xml:space="preserve" text-anchor="start" x="168.5" y="-303" font-family="Helvetica,sans-Serif" font-size="10.00">+</text>
<text xml:space="preserve" text-anchor="start" x="178.62" y="-303" font-family="Helvetica,sans-Serif" font-size="10.00">Vec3()</text>
<text xml:space="preserve" text-anchor="start" x="168.5" y="-287.75" font-family="Helvetica,sans-Serif" font-size="10.00">+</text>
<text xml:space="preserve" text-anchor="start" x="178.62" y="-287.75" font-family="Helvetica,sans-Serif" font-size="10.00">Vec3()</text>
<text xml:space="preserve" text-anchor="start" x="168.5" y="-272.5" font-family="Helvetica,sans-Serif" font-size="10.00">+</text>
<text xml:space="preserve" text-anchor="start" x="178.62" y="-272.5" font-family="Helvetica,sans-Serif" font-size="10.00">~Vec3()</text>
<text xml:space="preserve" text-anchor="start" x="168.5" y="-257.25" font-family="Helvetica,sans-Serif" font-size="10.00">+</text>
<text xml:space="preserve" text-anchor="start" x="178.62" y="-257.25" font-family="Helvetica,sans-Serif" font-size="10.00">operator==()</text>
<text xml:space="preserve" text-anchor="start" x="168.5" y="-242" font-family="Helvetica,sans-Serif" font-size="10.00">+</text>
<text xml:space="preserve" text-anchor="start" x="178.62" y="-242" font-family="Helvetica,sans-Serif" font-size="10.00">operator[]()</text>
<text xml:space="preserve" text-anchor="start" x="168.5" y="-226.75" font-family="Helvetica,sans-Serif" font-size="10.00">+</text>
<text xml:space="preserve" text-anchor="start" x="178.62" y="-226.75" font-family="Helvetica,sans-Serif" font-size="10.00">cross()</text>
<polygon fill="#666666" stroke="#666666" points="164.38,-360.25 164.38,-360.25 236.12,-360.25 236.12,-360.25 164.38,-360.25"/>
<polygon fill="#666666" stroke="#666666" points="164.38,-314.5 164.38,-314.5 176.62,-314.5 176.62,-314.5 164.38,-314.5"/>
<polygon fill="#666666" stroke="#666666" points="176.62,-314.5 176.62,-314.5 236.12,-314.5 236.12,-314.5 176.62,-314.5"/>
<polygon fill="none" stroke="#666666" points="164.38,-221 164.38,-377.5 236.12,-377.5 236.12,-221 164.38,-221"/>
</a>
</g>
</g>
<!-- Node4 -->
<g id="Node000004" class="node">
<title>Node4</title>
<g id="a_Node000004"><a xlink:href="structrtp_1_1Vec3.html" target="_top" xlink:title=" ">
<polygon fill="white" stroke="none" points="84.5,-162.12 0,-162.12 0,-5.62 84.5,-5.62 84.5,-162.12"/>
<text xml:space="preserve" text-anchor="start" x="4" y="-148.62" font-family="Helvetica,sans-Serif" font-size="10.00">rtp::Vec3&lt; float &gt;</text>
<text xml:space="preserve" text-anchor="start" x="7.31" y="-133.38" font-family="Helvetica,sans-Serif" font-size="10.00">+</text>
<text xml:space="preserve" text-anchor="start" x="20.62" y="-133.38" font-family="Helvetica,sans-Serif" font-size="10.00">x</text>
<text xml:space="preserve" text-anchor="start" x="7.31" y="-118.12" font-family="Helvetica,sans-Serif" font-size="10.00">+</text>
<text xml:space="preserve" text-anchor="start" x="20.62" y="-118.12" font-family="Helvetica,sans-Serif" font-size="10.00">y</text>
<text xml:space="preserve" text-anchor="start" x="7.31" y="-102.88" font-family="Helvetica,sans-Serif" font-size="10.00">+</text>
<text xml:space="preserve" text-anchor="start" x="20.62" y="-102.88" font-family="Helvetica,sans-Serif" font-size="10.00">z</text>
<text xml:space="preserve" text-anchor="start" x="7.31" y="-87.62" font-family="Helvetica,sans-Serif" font-size="10.00">+</text>
<text xml:space="preserve" text-anchor="start" x="20.62" y="-87.62" font-family="Helvetica,sans-Serif" font-size="10.00">Vec3()</text>
<text xml:space="preserve" text-anchor="start" x="7.31" y="-72.38" font-family="Helvetica,sans-Serif" font-size="10.00">+</text>
<text xml:space="preserve" text-anchor="start" x="20.62" y="-72.38" font-family="Helvetica,sans-Serif" font-size="10.00">Vec3()</text>
<text xml:space="preserve" text-anchor="start" x="7.31" y="-57.12" font-family="Helvetica,sans-Serif" font-size="10.00">+</text>
<text xml:space="preserve" text-anchor="start" x="20.62" y="-57.12" font-family="Helvetica,sans-Serif" font-size="10.00">~Vec3()</text>
<text xml:space="preserve" text-anchor="start" x="7.31" y="-41.88" font-family="Helvetica,sans-Serif" font-size="10.00">+</text>
<text xml:space="preserve" text-anchor="start" x="20.62" y="-41.88" font-family="Helvetica,sans-Serif" font-size="10.00">operator==()</text>
<text xml:space="preserve" text-anchor="start" x="7.31" y="-26.62" font-family="Helvetica,sans-Serif" font-size="10.00">+</text>
<text xml:space="preserve" text-anchor="start" x="20.62" y="-26.62" font-family="Helvetica,sans-Serif" font-size="10.00">operator[]()</text>
<text xml:space="preserve" text-anchor="start" x="7.31" y="-11.38" font-family="Helvetica,sans-Serif" font-size="10.00">+</text>
<text xml:space="preserve" text-anchor="start" x="20.62" y="-11.38" font-family="Helvetica,sans-Serif" font-size="10.00">cross()</text>
<polygon fill="#666666" stroke="#666666" points="0,-144.88 0,-144.88 84.5,-144.88 84.5,-144.88 0,-144.88"/>
<polygon fill="#666666" stroke="#666666" points="0,-99.12 0,-99.12 18.62,-99.12 18.62,-99.12 0,-99.12"/>
<polygon fill="#666666" stroke="#666666" points="18.62,-99.12 18.62,-99.12 84.5,-99.12 84.5,-99.12 18.62,-99.12"/>
<polygon fill="none" stroke="#666666" points="0,-5.62 0,-162.12 84.5,-162.12 84.5,-5.62 0,-5.62"/>
</a>
</g>
</g>
<!-- Node1&#45;&gt;Node4 -->
<g id="edge3_Node000001_Node000004" class="edge">
<title>Node1&#45;&gt;Node4</title>
<g id="a_edge3_Node000001_Node000004"><a xlink:title=" ">
<path fill="none" stroke="orange" d="M157.3,-249.1C137.07,-225.16 113.09,-195.59 93.25,-167.75 90.31,-163.62 87.36,-159.32 84.44,-154.95"/>
<polygon fill="orange" stroke="orange" points="154.44,-251.14 163.58,-256.5 159.78,-246.61 154.44,-251.14"/>
</a>
</g>
<text xml:space="preserve" text-anchor="start" x="121.21" y="-190.5" font-family="Helvetica,sans-Serif" font-size="10.00" fill="grey">&lt; float &gt;</text>
</g>
<!-- Node5 -->
<g id="Node000005" class="node">
<title>Node5</title>
<g id="a_Node000005"><a xlink:href="structrtp_1_1Vec3.html" target="_top" xlink:title=" ">
<polygon fill="white" stroke="none" points="196.38,-162.12 102.12,-162.12 102.12,-5.62 196.38,-5.62 196.38,-162.12"/>
<text xml:space="preserve" text-anchor="start" x="106.12" y="-148.62" font-family="Helvetica,sans-Serif" font-size="10.00">rtp::Vec3&lt; double &gt;</text>
<text xml:space="preserve" text-anchor="start" x="111.88" y="-133.38" font-family="Helvetica,sans-Serif" font-size="10.00">+</text>
<text xml:space="preserve" text-anchor="start" x="127.62" y="-133.38" font-family="Helvetica,sans-Serif" font-size="10.00">x</text>
<text xml:space="preserve" text-anchor="start" x="111.88" y="-118.12" font-family="Helvetica,sans-Serif" font-size="10.00">+</text>
<text xml:space="preserve" text-anchor="start" x="127.62" y="-118.12" font-family="Helvetica,sans-Serif" font-size="10.00">y</text>
<text xml:space="preserve" text-anchor="start" x="111.88" y="-102.88" font-family="Helvetica,sans-Serif" font-size="10.00">+</text>
<text xml:space="preserve" text-anchor="start" x="127.62" y="-102.88" font-family="Helvetica,sans-Serif" font-size="10.00">z</text>
<text xml:space="preserve" text-anchor="start" x="111.88" y="-87.62" font-family="Helvetica,sans-Serif" font-size="10.00">+</text>
<text xml:space="preserve" text-anchor="start" x="127.62" y="-87.62" font-family="Helvetica,sans-Serif" font-size="10.00">Vec3()</text>
<text xml:space="preserve" text-anchor="start" x="111.88" y="-72.38" font-family="Helvetica,sans-Serif" font-size="10.00">+</text>
<text xml:space="preserve" text-anchor="start" x="127.62" y="-72.38" font-family="Helvetica,sans-Serif" font-size="10.00">Vec3()</text>
<text xml:space="preserve" text-anchor="start" x="111.88" y="-57.12" font-family="Helvetica,sans-Serif" font-size="10.00">+</text>
<text xml:space="preserve" text-anchor="start" x="127.62" y="-57.12" font-family="Helvetica,sans-Serif" font-size="10.00">~Vec3()</text>
<text xml:space="preserve" text-anchor="start" x="111.88" y="-41.88" font-family="Helvetica,sans-Serif" font-size="10.00">+</text>
<text xml:space="preserve" text-anchor="start" x="127.62" y="-41.88" font-family="Helvetica,sans-Serif" font-size="10.00">operator==()</text>
<text xml:space="preserve" text-anchor="start" x="111.88" y="-26.62" font-family="Helvetica,sans-Serif" font-size="10.00">+</text>
<text xml:space="preserve" text-anchor="start" x="127.62" y="-26.62" font-family="Helvetica,sans-Serif" font-size="10.00">operator[]()</text>
<text xml:space="preserve" text-anchor="start" x="111.88" y="-11.38" font-family="Helvetica,sans-Serif" font-size="10.00">+</text>
<text xml:space="preserve" text-anchor="start" x="127.62" y="-11.38" font-family="Helvetica,sans-Serif" font-size="10.00">cross()</text>
<polygon fill="#666666" stroke="#666666" points="102.12,-144.88 102.12,-144.88 196.38,-144.88 196.38,-144.88 102.12,-144.88"/>
<polygon fill="#666666" stroke="#666666" points="102.12,-99.12 102.12,-99.12 125.62,-99.12 125.62,-99.12 102.12,-99.12"/>
<polygon fill="#666666" stroke="#666666" points="125.62,-99.12 125.62,-99.12 196.38,-99.12 196.38,-99.12 125.62,-99.12"/>
<polygon fill="none" stroke="#666666" points="102.12,-5.62 102.12,-162.12 196.38,-162.12 196.38,-5.62 102.12,-5.62"/>
</a>
</g>
</g>
<!-- Node1&#45;&gt;Node5 -->
<g id="edge4_Node000001_Node000005" class="edge">
<title>Node1&#45;&gt;Node5</title>
<g id="a_edge4_Node000001_Node000005"><a xlink:title=" ">
<path fill="none" stroke="orange" d="M179.21,-210.21C175.37,-194.15 171.39,-177.5 167.64,-161.8"/>
<polygon fill="orange" stroke="orange" points="175.76,-210.83 181.49,-219.74 182.57,-209.2 175.76,-210.83"/>
</a>
</g>
<text xml:space="preserve" text-anchor="start" x="179.28" y="-190.5" font-family="Helvetica,sans-Serif" font-size="10.00" fill="grey">&lt; double &gt;</text>
</g>
<!-- Node6 -->
<g id="Node000006" class="node">
<title>Node6</title>
<g id="a_Node000006"><a xlink:href="structrtp_1_1Vec3.html" target="_top" xlink:title=" ">
<polygon fill="white" stroke="none" points="290.38,-162.12 214.12,-162.12 214.12,-5.62 290.38,-5.62 290.38,-162.12"/>
<text xml:space="preserve" text-anchor="start" x="218.12" y="-148.62" font-family="Helvetica,sans-Serif" font-size="10.00">rtp::Vec3&lt; int &gt;</text>
<text xml:space="preserve" text-anchor="start" x="219.38" y="-133.38" font-family="Helvetica,sans-Serif" font-size="10.00">+</text>
<text xml:space="preserve" text-anchor="start" x="230.62" y="-133.38" font-family="Helvetica,sans-Serif" font-size="10.00">x</text>
<text xml:space="preserve" text-anchor="start" x="219.38" y="-118.12" font-family="Helvetica,sans-Serif" font-size="10.00">+</text>
<text xml:space="preserve" text-anchor="start" x="230.62" y="-118.12" font-family="Helvetica,sans-Serif" font-size="10.00">y</text>
<text xml:space="preserve" text-anchor="start" x="219.38" y="-102.88" font-family="Helvetica,sans-Serif" font-size="10.00">+</text>
<text xml:space="preserve" text-anchor="start" x="230.62" y="-102.88" font-family="Helvetica,sans-Serif" font-size="10.00">z</text>
<text xml:space="preserve" text-anchor="start" x="219.38" y="-87.62" font-family="Helvetica,sans-Serif" font-size="10.00">+</text>
<text xml:space="preserve" text-anchor="start" x="230.62" y="-87.62" font-family="Helvetica,sans-Serif" font-size="10.00">Vec3()</text>
<text xml:space="preserve" text-anchor="start" x="219.38" y="-72.38" font-family="Helvetica,sans-Serif" font-size="10.00">+</text>
<text xml:space="preserve" text-anchor="start" x="230.62" y="-72.38" font-family="Helvetica,sans-Serif" font-size="10.00">Vec3()</text>
<text xml:space="preserve" text-anchor="start" x="219.38" y="-57.12" font-family="Helvetica,sans-Serif" font-size="10.00">+</text>
<text xml:space="preserve" text-anchor="start" x="230.62" y="-57.12" font-family="Helvetica,sans-Serif" font-size="10.00">~Vec3()</text>
<text xml:space="preserve" text-anchor="start" x="219.38" y="-41.88" font-family="Helvetica,sans-Serif" font-size="10.00">+</text>
<text xml:space="preserve" text-anchor="start" x="230.62" y="-41.88" font-family="Helvetica,sans-Serif" font-size="10.00">operator==()</text>
<text xml:space="preserve" text-anchor="start" x="219.38" y="-26.62" font-family="Helvetica,sans-Serif" font-size="10.00">+</text>
<text xml:space="preserve" text-anchor="start" x="230.62" y="-26.62" font-family="Helvetica,sans-Serif" font-size="10.00">operator[]()</text>
<text xml:space="preserve" text-anchor="start" x="219.38" y="-11.38" font-family="Helvetica,sans-Serif" font-size="10.00">+</text>
<text xml:space="preserve" text-anchor="start" x="230.62" y="-11.38" font-family="Helvetica,sans-Serif" font-size="10.00">cross()</text>
<polygon fill="#666666" stroke="#666666" points="214.12,-144.88 214.12,-144.88 290.38,-144.88 290.38,-144.88 214.12,-144.88"/>
<polygon fill="#666666" stroke="#666666" points="214.12,-99.12 214.12,-99.12 228.62,-99.12 228.62,-99.12 214.12,-99.12"/>
<polygon fill="#666666" stroke="#666666" points="228.62,-99.12 228.62,-99.12 290.38,-99.12 290.38,-99.12 228.62,-99.12"/>
<polygon fill="none" stroke="#666666" points="214.12,-5.62 214.12,-162.12 290.38,-162.12 290.38,-5.62 214.12,-5.62"/>
</a>
</g>
</g>
<!-- Node1&#45;&gt;Node6 -->
<g id="edge5_Node000001_Node000006" class="edge">
<title>Node1&#45;&gt;Node6</title>
<g id="a_edge5_Node000001_Node000006"><a xlink:title=" ">
<path fill="none" stroke="orange" d="M228.46,-209.97C229.08,-207.63 229.68,-205.3 230.25,-203 233.53,-189.84 236.57,-175.75 239.27,-162.05"/>
<polygon fill="orange" stroke="orange" points="225.1,-208.99 225.83,-219.56 231.85,-210.84 225.1,-208.99"/>
</a>
</g>
<text xml:space="preserve" text-anchor="start" x="237.01" y="-190.5" font-family="Helvetica,sans-Serif" font-size="10.00" fill="grey">&lt; int &gt;</text>
</g>
<!-- Node7 -->
<g id="Node000007" class="node">
<title>Node7</title>
<g id="a_Node000007"><a xlink:href="structrtp_1_1Vec3.html" target="_top" xlink:title=" ">
<polygon fill="white" stroke="none" points="404.12,-167.75 308.38,-167.75 308.38,0 404.12,0 404.12,-167.75"/>
<text xml:space="preserve" text-anchor="start" x="312.38" y="-154.25" font-family="Helvetica,sans-Serif" font-size="10.00">rtp::Vec3&lt; unsigned</text>
<text xml:space="preserve" text-anchor="start" x="345" y="-143" font-family="Helvetica,sans-Serif" font-size="10.00"> int &gt;</text>
<text xml:space="preserve" text-anchor="start" x="318.5" y="-127.75" font-family="Helvetica,sans-Serif" font-size="10.00">+</text>
<text xml:space="preserve" text-anchor="start" x="334.62" y="-127.75" font-family="Helvetica,sans-Serif" font-size="10.00">x</text>
<text xml:space="preserve" text-anchor="start" x="318.5" y="-112.5" font-family="Helvetica,sans-Serif" font-size="10.00">+</text>
<text xml:space="preserve" text-anchor="start" x="334.62" y="-112.5" font-family="Helvetica,sans-Serif" font-size="10.00">y</text>
<text xml:space="preserve" text-anchor="start" x="318.5" y="-97.25" font-family="Helvetica,sans-Serif" font-size="10.00">+</text>
<text xml:space="preserve" text-anchor="start" x="334.62" y="-97.25" font-family="Helvetica,sans-Serif" font-size="10.00">z</text>
<text xml:space="preserve" text-anchor="start" x="318.5" y="-82" font-family="Helvetica,sans-Serif" font-size="10.00">+</text>
<text xml:space="preserve" text-anchor="start" x="334.62" y="-82" font-family="Helvetica,sans-Serif" font-size="10.00">Vec3()</text>
<text xml:space="preserve" text-anchor="start" x="318.5" y="-66.75" font-family="Helvetica,sans-Serif" font-size="10.00">+</text>
<text xml:space="preserve" text-anchor="start" x="334.62" y="-66.75" font-family="Helvetica,sans-Serif" font-size="10.00">Vec3()</text>
<text xml:space="preserve" text-anchor="start" x="318.5" y="-51.5" font-family="Helvetica,sans-Serif" font-size="10.00">+</text>
<text xml:space="preserve" text-anchor="start" x="334.62" y="-51.5" font-family="Helvetica,sans-Serif" font-size="10.00">~Vec3()</text>
<text xml:space="preserve" text-anchor="start" x="318.5" y="-36.25" font-family="Helvetica,sans-Serif" font-size="10.00">+</text>
<text xml:space="preserve" text-anchor="start" x="334.62" y="-36.25" font-family="Helvetica,sans-Serif" font-size="10.00">operator==()</text>
<text xml:space="preserve" text-anchor="start" x="318.5" y="-21" font-family="Helvetica,sans-Serif" font-size="10.00">+</text>
<text xml:space="preserve" text-anchor="start" x="334.62" y="-21" font-family="Helvetica,sans-Serif" font-size="10.00">operator[]()</text>
<text xml:space="preserve" text-anchor="start" x="318.5" y="-5.75" font-family="Helvetica,sans-Serif" font-size="10.00">+</text>
<text xml:space="preserve" text-anchor="start" x="334.62" y="-5.75" font-family="Helvetica,sans-Serif" font-size="10.00">cross()</text>
<polygon fill="#666666" stroke="#666666" points="308.38,-139.25 308.38,-139.25 404.12,-139.25 404.12,-139.25 308.38,-139.25"/>
<polygon fill="#666666" stroke="#666666" points="308.38,-93.5 308.38,-93.5 332.62,-93.5 332.62,-93.5 308.38,-93.5"/>
<polygon fill="#666666" stroke="#666666" points="332.62,-93.5 332.62,-93.5 404.12,-93.5 404.12,-93.5 332.62,-93.5"/>
<polygon fill="none" stroke="#666666" points="308.38,0 308.38,-167.75 404.12,-167.75 404.12,0 308.38,0"/>
</a>
</g>
</g>
<!-- Node1&#45;&gt;Node7 -->
<g id="edge6_Node000001_Node000007" class="edge">
<title>Node1&#45;&gt;Node7</title>
<g id="a_edge6_Node000001_Node000007"><a xlink:title=" ">
<path fill="none" stroke="orange" d="M242.93,-243.17C260.61,-220.05 281.16,-192.78 299.25,-167.75 302.32,-163.5 305.45,-159.11 308.59,-154.67"/>
<polygon fill="orange" stroke="orange" points="240.29,-240.87 236.98,-250.93 245.84,-245.13 240.29,-240.87"/>
</a>
</g>
<text xml:space="preserve" text-anchor="start" x="286.43" y="-190.5" font-family="Helvetica,sans-Serif" font-size="10.00" fill="grey">&lt; unsigned int &gt;</text>
</g>
<!-- Node2 -->
<g id="Node000002" class="node">
<title>Node2</title>
<g id="a_Node000002"><a xlink:href="structrtp_1_1details_1_1VecBase.html" target="_top" xlink:title=" ">
<polygon fill="white" stroke="none" points="250,-643.25 150.5,-643.25 150.5,-414.5 250,-414.5 250,-643.25"/>
<text xml:space="preserve" text-anchor="start" x="154.5" y="-629.75" font-family="Helvetica,sans-Serif" font-size="10.00">rtp::details::VecBase</text>
<text xml:space="preserve" text-anchor="start" x="183.38" y="-618.5" font-family="Helvetica,sans-Serif" font-size="10.00">&lt; T, 3 &gt;</text>
<text xml:space="preserve" text-anchor="start" x="198.75" y="-603.25" font-family="Helvetica,sans-Serif" font-size="10.00"> </text>
<text xml:space="preserve" text-anchor="start" x="155" y="-588" font-family="Helvetica,sans-Serif" font-size="10.00">+</text>
<text xml:space="preserve" text-anchor="start" x="165.5" y="-588" font-family="Helvetica,sans-Serif" font-size="10.00">squaredDistance()</text>
<text xml:space="preserve" text-anchor="start" x="155" y="-572.75" font-family="Helvetica,sans-Serif" font-size="10.00">+</text>
<text xml:space="preserve" text-anchor="start" x="165.5" y="-572.75" font-family="Helvetica,sans-Serif" font-size="10.00">distance()</text>
<text xml:space="preserve" text-anchor="start" x="155" y="-557.5" font-family="Helvetica,sans-Serif" font-size="10.00">+</text>
<text xml:space="preserve" text-anchor="start" x="165.5" y="-557.5" font-family="Helvetica,sans-Serif" font-size="10.00">squaredLength()</text>
<text xml:space="preserve" text-anchor="start" x="155" y="-542.25" font-family="Helvetica,sans-Serif" font-size="10.00">+</text>
<text xml:space="preserve" text-anchor="start" x="165.5" y="-542.25" font-family="Helvetica,sans-Serif" font-size="10.00">length()</text>
<text xml:space="preserve" text-anchor="start" x="155" y="-527" font-family="Helvetica,sans-Serif" font-size="10.00">+</text>
<text xml:space="preserve" text-anchor="start" x="165.5" y="-527" font-family="Helvetica,sans-Serif" font-size="10.00">normalize()</text>
<text xml:space="preserve" text-anchor="start" x="155" y="-511.75" font-family="Helvetica,sans-Serif" font-size="10.00">+</text>
<text xml:space="preserve" text-anchor="start" x="165.5" y="-511.75" font-family="Helvetica,sans-Serif" font-size="10.00">normalized()</text>
<text xml:space="preserve" text-anchor="start" x="155" y="-496.5" font-family="Helvetica,sans-Serif" font-size="10.00">+</text>
<text xml:space="preserve" text-anchor="start" x="165.5" y="-496.5" font-family="Helvetica,sans-Serif" font-size="10.00">dot()</text>
<text xml:space="preserve" text-anchor="start" x="155" y="-481.25" font-family="Helvetica,sans-Serif" font-size="10.00">+</text>
<text xml:space="preserve" text-anchor="start" x="165.5" y="-481.25" font-family="Helvetica,sans-Serif" font-size="10.00">project()</text>
<text xml:space="preserve" text-anchor="start" x="155" y="-466" font-family="Helvetica,sans-Serif" font-size="10.00">+</text>
<text xml:space="preserve" text-anchor="start" x="165.5" y="-466" font-family="Helvetica,sans-Serif" font-size="10.00">operator+=()</text>
<text xml:space="preserve" text-anchor="start" x="155" y="-450.75" font-family="Helvetica,sans-Serif" font-size="10.00">+</text>
<text xml:space="preserve" text-anchor="start" x="165.5" y="-450.75" font-family="Helvetica,sans-Serif" font-size="10.00">operator&#45;=()</text>
<text xml:space="preserve" text-anchor="start" x="155" y="-435.5" font-family="Helvetica,sans-Serif" font-size="10.00">+</text>
<text xml:space="preserve" text-anchor="start" x="165.5" y="-435.5" font-family="Helvetica,sans-Serif" font-size="10.00">operator*=()</text>
<text xml:space="preserve" text-anchor="start" x="155" y="-420.25" font-family="Helvetica,sans-Serif" font-size="10.00">+</text>
<text xml:space="preserve" text-anchor="start" x="165.5" y="-420.25" font-family="Helvetica,sans-Serif" font-size="10.00">operator/=()</text>
<polygon fill="#666666" stroke="#666666" points="150.5,-614.75 150.5,-614.75 250,-614.75 250,-614.75 150.5,-614.75"/>
<polygon fill="#666666" stroke="#666666" points="150.5,-599.5 150.5,-599.5 250,-599.5 250,-599.5 150.5,-599.5"/>
<polygon fill="none" stroke="#666666" points="150.5,-414.5 150.5,-643.25 250,-643.25 250,-414.5 150.5,-414.5"/>
</a>
</g>
</g>
<!-- Node2&#45;&gt;Node1 -->
<g id="edge1_Node000001_Node000002" class="edge">
<title>Node2&#45;&gt;Node1</title>
<g id="a_edge1_Node000001_Node000002"><a xlink:title=" ">
<path fill="none" stroke="#63b8ff" d="M200.25,-403.22C200.25,-394.49 200.25,-385.84 200.25,-377.49"/>
<polygon fill="none" stroke="#63b8ff" points="196.75,-403.22 200.25,-413.22 203.75,-403.22 196.75,-403.22"/>
</a>
</g>
</g>
<!-- Node3 -->
<g id="Node000003" class="node">
<title>Node3</title>
<g id="a_Node000003"><a xlink:href="structrtp_1_1details_1_1VecBase.html" target="_top" xlink:title="CRTP base class for vectors.">
<polygon fill="white" stroke="none" points="250,-910 150.5,-910 150.5,-696.5 250,-696.5 250,-910"/>
<text xml:space="preserve" text-anchor="start" x="154.5" y="-896.5" font-family="Helvetica,sans-Serif" font-size="10.00">rtp::details::VecBase</text>
<text xml:space="preserve" text-anchor="start" x="182.25" y="-885.25" font-family="Helvetica,sans-Serif" font-size="10.00">&lt; T, N &gt;</text>
<text xml:space="preserve" text-anchor="start" x="198.75" y="-870" font-family="Helvetica,sans-Serif" font-size="10.00"> </text>
<text xml:space="preserve" text-anchor="start" x="155" y="-854.75" font-family="Helvetica,sans-Serif" font-size="10.00">+</text>
<text xml:space="preserve" text-anchor="start" x="165.5" y="-854.75" font-family="Helvetica,sans-Serif" font-size="10.00">squaredDistance()</text>
<text xml:space="preserve" text-anchor="start" x="155" y="-839.5" font-family="Helvetica,sans-Serif" font-size="10.00">+</text>
<text xml:space="preserve" text-anchor="start" x="165.5" y="-839.5" font-family="Helvetica,sans-Serif" font-size="10.00">distance()</text>
<text xml:space="preserve" text-anchor="start" x="155" y="-824.25" font-family="Helvetica,sans-Serif" font-size="10.00">+</text>
<text xml:space="preserve" text-anchor="start" x="165.5" y="-824.25" font-family="Helvetica,sans-Serif" font-size="10.00">squaredLength()</text>
<text xml:space="preserve" text-anchor="start" x="155" y="-809" font-family="Helvetica,sans-Serif" font-size="10.00">+</text>
<text xml:space="preserve" text-anchor="start" x="165.5" y="-809" font-family="Helvetica,sans-Serif" font-size="10.00">length()</text>
<text xml:space="preserve" text-anchor="start" x="155" y="-793.75" font-family="Helvetica,sans-Serif" font-size="10.00">+</text>
<text xml:space="preserve" text-anchor="start" x="165.5" y="-793.75" font-family="Helvetica,sans-Serif" font-size="10.00">normalize()</text>
<text xml:space="preserve" text-anchor="start" x="155" y="-778.5" font-family="Helvetica,sans-Serif" font-size="10.00">+</text>
<text xml:space="preserve" text-anchor="start" x="165.5" y="-778.5" font-family="Helvetica,sans-Serif" font-size="10.00">normalized()</text>
<text xml:space="preserve" text-anchor="start" x="155" y="-763.25" font-family="Helvetica,sans-Serif" font-size="10.00">+</text>
<text xml:space="preserve" text-anchor="start" x="165.5" y="-763.25" font-family="Helvetica,sans-Serif" font-size="10.00">dot()</text>
<text xml:space="preserve" text-anchor="start" x="155" y="-748" font-family="Helvetica,sans-Serif" font-size="10.00">+</text>
<text xml:space="preserve" text-anchor="start" x="165.5" y="-748" font-family="Helvetica,sans-Serif" font-size="10.00">project()</text>
<text xml:space="preserve" text-anchor="start" x="155" y="-732.75" font-family="Helvetica,sans-Serif" font-size="10.00">+</text>
<text xml:space="preserve" text-anchor="start" x="165.5" y="-732.75" font-family="Helvetica,sans-Serif" font-size="10.00">operator+=()</text>
<text xml:space="preserve" text-anchor="start" x="155" y="-717.5" font-family="Helvetica,sans-Serif" font-size="10.00">+</text>
<text xml:space="preserve" text-anchor="start" x="165.5" y="-717.5" font-family="Helvetica,sans-Serif" font-size="10.00">operator&#45;=()</text>
<text xml:space="preserve" text-anchor="start" x="165.5" y="-702.25" font-family="Helvetica,sans-Serif" font-size="10.00">and 6 more...</text>
<polygon fill="#666666" stroke="#666666" points="150.5,-881.5 150.5,-881.5 250,-881.5 250,-881.5 150.5,-881.5"/>
<polygon fill="#666666" stroke="#666666" points="150.5,-866.25 150.5,-866.25 250,-866.25 250,-866.25 150.5,-866.25"/>
<polygon fill="none" stroke="#666666" points="150.5,-696.5 150.5,-910 250,-910 250,-696.5 150.5,-696.5"/>
</a>
</g>
</g>
<!-- Node3&#45;&gt;Node2 -->
<g id="edge2_Node000002_Node000003" class="edge">
<title>Node3&#45;&gt;Node2</title>
<g id="a_edge2_Node000002_Node000003"><a xlink:title=" ">
<path fill="none" stroke="orange" d="M200.25,-685.4C200.25,-671.4 200.25,-657.13 200.25,-643.18"/>
<polygon fill="orange" stroke="orange" points="196.75,-685.04 200.25,-695.04 203.75,-685.04 196.75,-685.04"/>
</a>
</g>
<text xml:space="preserve" text-anchor="start" x="203.25" y="-666" font-family="Helvetica,sans-Serif" font-size="10.00" fill="grey">&lt; T, 3 &gt;</text>
</g>
</g>
</svg>
