<?xml version="1.0" encoding="UTF-8" standalone="no"?>
<!DOCTYPE svg PUBLIC "-//W3C//DTD SVG 1.1//EN"
 "http://www.w3.org/Graphics/SVG/1.1/DTD/svg11.dtd">
<!-- Generated by graphviz version 14.0.5 (20251129.0259)
 -->
<!-- Title: std::is_error_code_enum&lt; rtp::ErrorCode &gt; Pages: 1 -->
<svg width="125pt" height="155pt"
 viewBox="0.00 0.00 125.00 155.00" xmlns="http://www.w3.org/2000/svg" xmlns:xlink="http://www.w3.org/1999/xlink">

<svg id="main" version="1.1" xmlns="http://www.w3.org/2000/svg" xmlns:xlink="http://www.w3.org/1999/xlink" xml:space="preserve">

<style type="text/css"><![CDATA[
.node, .edge {opacity: 0.7;}
.node.selected, .edge.selected {opacity: 1;}
.edge:hover path { stroke: red; }
.edge:hover polygon { stroke: red; fill: red; }
]]></style>
<script type="application/ecmascript" xlink:href="svg.min.js"/>
<svg id="graph" class="graph">
<g id="graph0" class="graph" transform="scale(1 1) rotate(0) translate(4 150.75)">
<title>std::is_error_code_enum&lt; rtp::ErrorCode &gt;</title>
<!-- Node1 -->
<g id="Node000001" class="node">
<title>Node1</title>
<g id="a_Node000001"><a xlink:title="Specialization to enable ErrorCode as a valid error code enum.">
<polygon fill="#999999" stroke="none" points="116.75,-61 0,-61 0,0 116.75,0 116.75,-61"/>
<text xml:space="preserve" text-anchor="start" x="4" y="-47.5" font-family="Helvetica,sans-Serif" font-size="10.00">std::is_error_code</text>
<text xml:space="preserve" text-anchor="start" x="4" y="-36.25" font-family="Helvetica,sans-Serif" font-size="10.00">_enum&lt; rtp::ErrorCode &gt;</text>
<text xml:space="preserve" text-anchor="start" x="56.88" y="-21" font-family="Helvetica,sans-Serif" font-size="10.00"> </text>
<text xml:space="preserve" text-anchor="start" x="56.88" y="-5.75" font-family="Helvetica,sans-Serif" font-size="10.00"> </text>
<polygon fill="#666666" stroke="#666666" points="0,-32.5 0,-32.5 116.75,-32.5 116.75,-32.5 0,-32.5"/>
<polygon fill="#666666" stroke="#666666" points="0,-17.25 0,-17.25 116.75,-17.25 116.75,-17.25 0,-17.25"/>
<polygon fill="none" stroke="#666666" points="0,0 0,-61 116.75,-61 116.75,0 0,0"/>
</a>
</g>
</g>
<!-- Node2 -->
<g id="Node000002" class="node">
<title>Node2</title>
<g id="a_Node000002"><a xlink:title=" ">
<polygon fill="white" stroke="none" points="82.62,-146.75 34.12,-146.75 34.12,-97 82.62,-97 82.62,-146.75"/>
<text xml:space="preserve" text-anchor="start" x="38.12" y="-133.25" font-family="Helvetica,sans-Serif" font-size="10.00">true_type</text>
<text xml:space="preserve" text-anchor="start" x="56.88" y="-118" font-family="Helvetica,sans-Serif" font-size="10.00"> </text>
<text xml:space="preserve" text-anchor="start" x="56.88" y="-102.75" font-family="Helvetica,sans-Serif" font-size="10.00"> </text>
<polygon fill="#666666" stroke="#666666" points="34.12,-129.5 34.12,-129.5 82.62,-129.5 82.62,-129.5 34.12,-129.5"/>
<polygon fill="#666666" stroke="#666666" points="34.12,-114.25 34.12,-114.25 82.62,-114.25 82.62,-114.25 34.12,-114.25"/>
<polygon fill="none" stroke="#666666" points="34.12,-97 34.12,-146.75 82.62,-146.75 82.62,-97 34.12,-97"/>
</a>
</g>
</g>
<!-- Node2&#45;&gt;Node1 -->
<g id="edge1_Node000001_Node000002" class="edge">
<title>Node2&#45;&gt;Node1</title>
<g id="a_edge1_Node000001_Node000002"><a xlink:title=" ">
<path fill="none" stroke="#63b8ff" d="M58.38,-86.08C58.38,-77.76 58.38,-68.95 58.38,-60.9"/>
<polygon fill="none" stroke="#63b8ff" points="54.88,-85.88 58.38,-95.88 61.88,-85.88 54.88,-85.88"/>
</a>
</g>
</g>
</g>
</svg>
</svg>

<style type='text/css'>
<![CDATA[
[data-mouse-over-selected='false'] { opacity: 0.7; }
[data-mouse-over-selected='true']  { opacity: 1.0; }
]]>
</style>
<script type="application/ecmascript"><![CDATA[
document.addEventListener('DOMContentLoaded', (event) => {
  highlightEdges();
  highlightAdjacentNodes();
});
]]></script>
</svg>
