<?xml version="1.0" encoding="UTF-8" standalone="no"?>
<!DOCTYPE svg PUBLIC "-//W3C//DTD SVG 1.1//EN"
 "http://www.w3.org/Graphics/SVG/1.1/DTD/svg11.dtd">
<!-- Generated by graphviz version 14.0.5 (20251129.0259)
 -->
<!-- Title: rtp::ecs::components::ui::Slider Pages: 1 -->
<svg width="158pt" height="1129pt"
 viewBox="0.00 0.00 158.00 1129.00" xmlns="http://www.w3.org/2000/svg" xmlns:xlink="http://www.w3.org/1999/xlink">
<g id="graph0" class="graph" transform="scale(1 1) rotate(0) translate(4 1124.75)">
<title>rtp::ecs::components::ui::Slider</title>
<!-- Node1 -->
<g id="Node000001" class="node">
<title>Node1</title>
<g id="a_Node000001"><a xlink:title="Component for a draggable slider control.">
<polygon fill="#999999" stroke="none" points="118,-198.25 17.75,-198.25 17.75,0 118,0 118,-198.25"/>
<text xml:space="preserve" text-anchor="start" x="21.75" y="-184.75" font-family="Helvetica,sans-Serif" font-size="10.00">rtp::ecs::components</text>
<text xml:space="preserve" text-anchor="start" x="45.75" y="-173.5" font-family="Helvetica,sans-Serif" font-size="10.00">::ui::Slider</text>
<text xml:space="preserve" text-anchor="start" x="25.06" y="-158.25" font-family="Helvetica,sans-Serif" font-size="10.00">+</text>
<text xml:space="preserve" text-anchor="start" x="38.38" y="-158.25" font-family="Helvetica,sans-Serif" font-size="10.00">minValue</text>
<text xml:space="preserve" text-anchor="start" x="25.06" y="-143" font-family="Helvetica,sans-Serif" font-size="10.00">+</text>
<text xml:space="preserve" text-anchor="start" x="38.38" y="-143" font-family="Helvetica,sans-Serif" font-size="10.00">maxValue</text>
<text xml:space="preserve" text-anchor="start" x="25.06" y="-127.75" font-family="Helvetica,sans-Serif" font-size="10.00">+</text>
<text xml:space="preserve" text-anchor="start" x="38.38" y="-127.75" font-family="Helvetica,sans-Serif" font-size="10.00">currentValue</text>
<text xml:space="preserve" text-anchor="start" x="25.06" y="-112.5" font-family="Helvetica,sans-Serif" font-size="10.00">+</text>
<text xml:space="preserve" text-anchor="start" x="38.38" y="-112.5" font-family="Helvetica,sans-Serif" font-size="10.00">onChange</text>
<text xml:space="preserve" text-anchor="start" x="25.06" y="-97.25" font-family="Helvetica,sans-Serif" font-size="10.00">+</text>
<text xml:space="preserve" text-anchor="start" x="38.38" y="-97.25" font-family="Helvetica,sans-Serif" font-size="10.00">trackColor</text>
<text xml:space="preserve" text-anchor="start" x="25.06" y="-82" font-family="Helvetica,sans-Serif" font-size="10.00">+</text>
<text xml:space="preserve" text-anchor="start" x="38.38" y="-82" font-family="Helvetica,sans-Serif" font-size="10.00">fillColor</text>
<text xml:space="preserve" text-anchor="start" x="25.06" y="-66.75" font-family="Helvetica,sans-Serif" font-size="10.00">+</text>
<text xml:space="preserve" text-anchor="start" x="38.38" y="-66.75" font-family="Helvetica,sans-Serif" font-size="10.00">handleColor</text>
<text xml:space="preserve" text-anchor="start" x="25.06" y="-51.5" font-family="Helvetica,sans-Serif" font-size="10.00">+</text>
<text xml:space="preserve" text-anchor="start" x="38.38" y="-51.5" font-family="Helvetica,sans-Serif" font-size="10.00">isDragging</text>
<text xml:space="preserve" text-anchor="start" x="25.06" y="-36.25" font-family="Helvetica,sans-Serif" font-size="10.00">+</text>
<text xml:space="preserve" text-anchor="start" x="38.38" y="-36.25" font-family="Helvetica,sans-Serif" font-size="10.00">zIndex</text>
<text xml:space="preserve" text-anchor="start" x="25.06" y="-21" font-family="Helvetica,sans-Serif" font-size="10.00">+</text>
<text xml:space="preserve" text-anchor="start" x="38.38" y="-21" font-family="Helvetica,sans-Serif" font-size="10.00">getNormalized()</text>
<text xml:space="preserve" text-anchor="start" x="25.06" y="-5.75" font-family="Helvetica,sans-Serif" font-size="10.00">+</text>
<text xml:space="preserve" text-anchor="start" x="38.38" y="-5.75" font-family="Helvetica,sans-Serif" font-size="10.00">setNormalized()</text>
<polygon fill="#666666" stroke="#666666" points="17.75,-169.75 17.75,-169.75 118,-169.75 118,-169.75 17.75,-169.75"/>
<polygon fill="#666666" stroke="#666666" points="17.75,-32.5 17.75,-32.5 36.38,-32.5 36.38,-32.5 17.75,-32.5"/>
<polygon fill="#666666" stroke="#666666" points="36.38,-32.5 36.38,-32.5 118,-32.5 118,-32.5 36.38,-32.5"/>
<polygon fill="none" stroke="#666666" points="17.75,0 17.75,-198.25 118,-198.25 118,0 17.75,0"/>
</a>
</g>
</g>
<!-- Node2 -->
<g id="Node000002" class="node">
<title>Node2</title>
<g id="a_Node000002"><a xlink:href="structrtp_1_1Vec2.html" target="_top" xlink:title=" ">
<polygon fill="white" stroke="none" points="110.12,-392.75 25.62,-392.75 25.62,-266.75 110.12,-266.75 110.12,-392.75"/>
<text xml:space="preserve" text-anchor="start" x="29.62" y="-379.25" font-family="Helvetica,sans-Serif" font-size="10.00">rtp::Vec2&lt; float &gt;</text>
<text xml:space="preserve" text-anchor="start" x="32.94" y="-364" font-family="Helvetica,sans-Serif" font-size="10.00">+</text>
<text xml:space="preserve" text-anchor="start" x="46.25" y="-364" font-family="Helvetica,sans-Serif" font-size="10.00">x</text>
<text xml:space="preserve" text-anchor="start" x="32.94" y="-348.75" font-family="Helvetica,sans-Serif" font-size="10.00">+</text>
<text xml:space="preserve" text-anchor="start" x="46.25" y="-348.75" font-family="Helvetica,sans-Serif" font-size="10.00">y</text>
<text xml:space="preserve" text-anchor="start" x="32.94" y="-333.5" font-family="Helvetica,sans-Serif" font-size="10.00">+</text>
<text xml:space="preserve" text-anchor="start" x="46.25" y="-333.5" font-family="Helvetica,sans-Serif" font-size="10.00">Vec2()</text>
<text xml:space="preserve" text-anchor="start" x="32.94" y="-318.25" font-family="Helvetica,sans-Serif" font-size="10.00">+</text>
<text xml:space="preserve" text-anchor="start" x="46.25" y="-318.25" font-family="Helvetica,sans-Serif" font-size="10.00">Vec2()</text>
<text xml:space="preserve" text-anchor="start" x="32.94" y="-303" font-family="Helvetica,sans-Serif" font-size="10.00">+</text>
<text xml:space="preserve" text-anchor="start" x="46.25" y="-303" font-family="Helvetica,sans-Serif" font-size="10.00">~Vec2()</text>
<text xml:space="preserve" text-anchor="start" x="32.94" y="-287.75" font-family="Helvetica,sans-Serif" font-size="10.00">+</text>
<text xml:space="preserve" text-anchor="start" x="46.25" y="-287.75" font-family="Helvetica,sans-Serif" font-size="10.00">operator==()</text>
<text xml:space="preserve" text-anchor="start" x="32.94" y="-272.5" font-family="Helvetica,sans-Serif" font-size="10.00">+</text>
<text xml:space="preserve" text-anchor="start" x="46.25" y="-272.5" font-family="Helvetica,sans-Serif" font-size="10.00">operator[]()</text>
<polygon fill="#666666" stroke="#666666" points="25.62,-375.5 25.62,-375.5 110.12,-375.5 110.12,-375.5 25.62,-375.5"/>
<polygon fill="#666666" stroke="#666666" points="25.62,-345 25.62,-345 44.25,-345 44.25,-345 25.62,-345"/>
<polygon fill="#666666" stroke="#666666" points="44.25,-345 44.25,-345 110.12,-345 110.12,-345 44.25,-345"/>
<polygon fill="none" stroke="#666666" points="25.62,-266.75 25.62,-392.75 110.12,-392.75 110.12,-266.75 25.62,-266.75"/>
</a>
</g>
</g>
<!-- Node2&#45;&gt;Node1 -->
<g id="edge1_Node000001_Node000002" class="edge">
<title>Node2&#45;&gt;Node1</title>
<g id="a_edge1_Node000001_Node000002"><a xlink:title=" ">
<path fill="none" stroke="#63b8ff" d="M67.88,-266.88C67.88,-249.61 67.88,-230.29 67.88,-211.1"/>
<polygon fill="none" stroke="#63b8ff" points="67.88,-211.1 63.88,-205.1 67.88,-199.1 71.88,-205.1 67.88,-211.1"/>
</a>
</g>
<text xml:space="preserve" text-anchor="start" x="70.88" y="-236.25" font-family="Helvetica,sans-Serif" font-size="10.00" fill="grey">+position</text>
<text xml:space="preserve" text-anchor="start" x="70.88" y="-221" font-family="Helvetica,sans-Serif" font-size="10.00" fill="grey">+size</text>
</g>
<!-- Node3 -->
<g id="Node000003" class="node">
<title>Node3</title>
<g id="a_Node000003"><a xlink:href="structrtp_1_1details_1_1VecBase.html" target="_top" xlink:title=" ">
<polygon fill="white" stroke="none" points="149.62,-854 50.12,-854 50.12,-625.25 149.62,-625.25 149.62,-854"/>
<text xml:space="preserve" text-anchor="start" x="54.12" y="-840.5" font-family="Helvetica,sans-Serif" font-size="10.00">rtp::details::VecBase</text>
<text xml:space="preserve" text-anchor="start" x="83" y="-829.25" font-family="Helvetica,sans-Serif" font-size="10.00">&lt; T, 2 &gt;</text>
<text xml:space="preserve" text-anchor="start" x="98.38" y="-814" font-family="Helvetica,sans-Serif" font-size="10.00"> </text>
<text xml:space="preserve" text-anchor="start" x="54.62" y="-798.75" font-family="Helvetica,sans-Serif" font-size="10.00">+</text>
<text xml:space="preserve" text-anchor="start" x="65.12" y="-798.75" font-family="Helvetica,sans-Serif" font-size="10.00">squaredDistance()</text>
<text xml:space="preserve" text-anchor="start" x="54.62" y="-783.5" font-family="Helvetica,sans-Serif" font-size="10.00">+</text>
<text xml:space="preserve" text-anchor="start" x="65.12" y="-783.5" font-family="Helvetica,sans-Serif" font-size="10.00">distance()</text>
<text xml:space="preserve" text-anchor="start" x="54.62" y="-768.25" font-family="Helvetica,sans-Serif" font-size="10.00">+</text>
<text xml:space="preserve" text-anchor="start" x="65.12" y="-768.25" font-family="Helvetica,sans-Serif" font-size="10.00">squaredLength()</text>
<text xml:space="preserve" text-anchor="start" x="54.62" y="-753" font-family="Helvetica,sans-Serif" font-size="10.00">+</text>
<text xml:space="preserve" text-anchor="start" x="65.12" y="-753" font-family="Helvetica,sans-Serif" font-size="10.00">length()</text>
<text xml:space="preserve" text-anchor="start" x="54.62" y="-737.75" font-family="Helvetica,sans-Serif" font-size="10.00">+</text>
<text xml:space="preserve" text-anchor="start" x="65.12" y="-737.75" font-family="Helvetica,sans-Serif" font-size="10.00">normalize()</text>
<text xml:space="preserve" text-anchor="start" x="54.62" y="-722.5" font-family="Helvetica,sans-Serif" font-size="10.00">+</text>
<text xml:space="preserve" text-anchor="start" x="65.12" y="-722.5" font-family="Helvetica,sans-Serif" font-size="10.00">normalized()</text>
<text xml:space="preserve" text-anchor="start" x="54.62" y="-707.25" font-family="Helvetica,sans-Serif" font-size="10.00">+</text>
<text xml:space="preserve" text-anchor="start" x="65.12" y="-707.25" font-family="Helvetica,sans-Serif" font-size="10.00">dot()</text>
<text xml:space="preserve" text-anchor="start" x="54.62" y="-692" font-family="Helvetica,sans-Serif" font-size="10.00">+</text>
<text xml:space="preserve" text-anchor="start" x="65.12" y="-692" font-family="Helvetica,sans-Serif" font-size="10.00">project()</text>
<text xml:space="preserve" text-anchor="start" x="54.62" y="-676.75" font-family="Helvetica,sans-Serif" font-size="10.00">+</text>
<text xml:space="preserve" text-anchor="start" x="65.12" y="-676.75" font-family="Helvetica,sans-Serif" font-size="10.00">operator+=()</text>
<text xml:space="preserve" text-anchor="start" x="54.62" y="-661.5" font-family="Helvetica,sans-Serif" font-size="10.00">+</text>
<text xml:space="preserve" text-anchor="start" x="65.12" y="-661.5" font-family="Helvetica,sans-Serif" font-size="10.00">operator&#45;=()</text>
<text xml:space="preserve" text-anchor="start" x="54.62" y="-646.25" font-family="Helvetica,sans-Serif" font-size="10.00">+</text>
<text xml:space="preserve" text-anchor="start" x="65.12" y="-646.25" font-family="Helvetica,sans-Serif" font-size="10.00">operator*=()</text>
<text xml:space="preserve" text-anchor="start" x="54.62" y="-631" font-family="Helvetica,sans-Serif" font-size="10.00">+</text>
<text xml:space="preserve" text-anchor="start" x="65.12" y="-631" font-family="Helvetica,sans-Serif" font-size="10.00">operator/=()</text>
<polygon fill="#666666" stroke="#666666" points="50.12,-825.5 50.12,-825.5 149.62,-825.5 149.62,-825.5 50.12,-825.5"/>
<polygon fill="#666666" stroke="#666666" points="50.12,-810.25 50.12,-810.25 149.62,-810.25 149.62,-810.25 50.12,-810.25"/>
<polygon fill="none" stroke="#666666" points="50.12,-625.25 50.12,-854 149.62,-854 149.62,-625.25 50.12,-625.25"/>
</a>
</g>
</g>
<!-- Node3&#45;&gt;Node2 -->
<g id="edge2_Node000002_Node000003" class="edge">
<title>Node3&#45;&gt;Node2</title>
<g id="a_edge2_Node000002_Node000003"><a xlink:title=" ">
<path fill="none" stroke="#63b8ff" d="M99.78,-614.21C98.41,-552.75 94.75,-477.61 85.88,-410.75 85.09,-404.82 84.07,-398.69 82.93,-392.57"/>
<polygon fill="none" stroke="#63b8ff" points="96.28,-614.08 99.98,-624.01 103.28,-613.94 96.28,-614.08"/>
</a>
</g>
</g>
<!-- Node5 -->
<g id="Node000005" class="node">
<title>Node5</title>
<g id="a_Node000005"><a xlink:href="structrtp_1_1Vec2.html" target="_top" xlink:title="A 2&#45;dimensional vector.">
<polygon fill="white" stroke="none" points="71.75,-556.75 0,-556.75 0,-446 71.75,-446 71.75,-556.75"/>
<text xml:space="preserve" text-anchor="start" x="4" y="-543.25" font-family="Helvetica,sans-Serif" font-size="10.00">rtp::Vec2&lt; T &gt;</text>
<text xml:space="preserve" text-anchor="start" x="34.38" y="-528" font-family="Helvetica,sans-Serif" font-size="10.00"> </text>
<text xml:space="preserve" text-anchor="start" x="4.12" y="-512.75" font-family="Helvetica,sans-Serif" font-size="10.00">+</text>
<text xml:space="preserve" text-anchor="start" x="14.25" y="-512.75" font-family="Helvetica,sans-Serif" font-size="10.00">Vec2()</text>
<text xml:space="preserve" text-anchor="start" x="4.12" y="-497.5" font-family="Helvetica,sans-Serif" font-size="10.00">+</text>
<text xml:space="preserve" text-anchor="start" x="14.25" y="-497.5" font-family="Helvetica,sans-Serif" font-size="10.00">Vec2()</text>
<text xml:space="preserve" text-anchor="start" x="4.12" y="-482.25" font-family="Helvetica,sans-Serif" font-size="10.00">+</text>
<text xml:space="preserve" text-anchor="start" x="14.25" y="-482.25" font-family="Helvetica,sans-Serif" font-size="10.00">~Vec2()</text>
<text xml:space="preserve" text-anchor="start" x="4.12" y="-467" font-family="Helvetica,sans-Serif" font-size="10.00">+</text>
<text xml:space="preserve" text-anchor="start" x="14.25" y="-467" font-family="Helvetica,sans-Serif" font-size="10.00">operator==()</text>
<text xml:space="preserve" text-anchor="start" x="4.12" y="-451.75" font-family="Helvetica,sans-Serif" font-size="10.00">+</text>
<text xml:space="preserve" text-anchor="start" x="14.25" y="-451.75" font-family="Helvetica,sans-Serif" font-size="10.00">operator[]()</text>
<polygon fill="#666666" stroke="#666666" points="0,-539.5 0,-539.5 71.75,-539.5 71.75,-539.5 0,-539.5"/>
<polygon fill="#666666" stroke="#666666" points="0,-524.25 0,-524.25 71.75,-524.25 71.75,-524.25 0,-524.25"/>
<polygon fill="none" stroke="#666666" points="0,-446 0,-556.75 71.75,-556.75 71.75,-446 0,-446"/>
</a>
</g>
</g>
<!-- Node3&#45;&gt;Node5 -->
<g id="edge5_Node000005_Node000003" class="edge">
<title>Node3&#45;&gt;Node5</title>
<g id="a_edge5_Node000005_Node000003"><a xlink:title=" ">
<path fill="none" stroke="#63b8ff" d="M66.22,-614.41C60.73,-594.14 55.31,-574.11 50.6,-556.72"/>
<polygon fill="none" stroke="#63b8ff" points="62.8,-615.15 68.79,-623.88 69.55,-613.32 62.8,-615.15"/>
</a>
</g>
</g>
<!-- Node4 -->
<g id="Node000004" class="node">
<title>Node4</title>
<g id="a_Node000004"><a xlink:href="structrtp_1_1details_1_1VecBase.html" target="_top" xlink:title="CRTP base class for vectors.">
<polygon fill="white" stroke="none" points="149.62,-1120.75 50.12,-1120.75 50.12,-907.25 149.62,-907.25 149.62,-1120.75"/>
<text xml:space="preserve" text-anchor="start" x="54.12" y="-1107.25" font-family="Helvetica,sans-Serif" font-size="10.00">rtp::details::VecBase</text>
<text xml:space="preserve" text-anchor="start" x="81.88" y="-1096" font-family="Helvetica,sans-Serif" font-size="10.00">&lt; T, N &gt;</text>
<text xml:space="preserve" text-anchor="start" x="98.38" y="-1080.75" font-family="Helvetica,sans-Serif" font-size="10.00"> </text>
<text xml:space="preserve" text-anchor="start" x="54.62" y="-1065.5" font-family="Helvetica,sans-Serif" font-size="10.00">+</text>
<text xml:space="preserve" text-anchor="start" x="65.12" y="-1065.5" font-family="Helvetica,sans-Serif" font-size="10.00">squaredDistance()</text>
<text xml:space="preserve" text-anchor="start" x="54.62" y="-1050.25" font-family="Helvetica,sans-Serif" font-size="10.00">+</text>
<text xml:space="preserve" text-anchor="start" x="65.12" y="-1050.25" font-family="Helvetica,sans-Serif" font-size="10.00">distance()</text>
<text xml:space="preserve" text-anchor="start" x="54.62" y="-1035" font-family="Helvetica,sans-Serif" font-size="10.00">+</text>
<text xml:space="preserve" text-anchor="start" x="65.12" y="-1035" font-family="Helvetica,sans-Serif" font-size="10.00">squaredLength()</text>
<text xml:space="preserve" text-anchor="start" x="54.62" y="-1019.75" font-family="Helvetica,sans-Serif" font-size="10.00">+</text>
<text xml:space="preserve" text-anchor="start" x="65.12" y="-1019.75" font-family="Helvetica,sans-Serif" font-size="10.00">length()</text>
<text xml:space="preserve" text-anchor="start" x="54.62" y="-1004.5" font-family="Helvetica,sans-Serif" font-size="10.00">+</text>
<text xml:space="preserve" text-anchor="start" x="65.12" y="-1004.5" font-family="Helvetica,sans-Serif" font-size="10.00">normalize()</text>
<text xml:space="preserve" text-anchor="start" x="54.62" y="-989.25" font-family="Helvetica,sans-Serif" font-size="10.00">+</text>
<text xml:space="preserve" text-anchor="start" x="65.12" y="-989.25" font-family="Helvetica,sans-Serif" font-size="10.00">normalized()</text>
<text xml:space="preserve" text-anchor="start" x="54.62" y="-974" font-family="Helvetica,sans-Serif" font-size="10.00">+</text>
<text xml:space="preserve" text-anchor="start" x="65.12" y="-974" font-family="Helvetica,sans-Serif" font-size="10.00">dot()</text>
<text xml:space="preserve" text-anchor="start" x="54.62" y="-958.75" font-family="Helvetica,sans-Serif" font-size="10.00">+</text>
<text xml:space="preserve" text-anchor="start" x="65.12" y="-958.75" font-family="Helvetica,sans-Serif" font-size="10.00">project()</text>
<text xml:space="preserve" text-anchor="start" x="54.62" y="-943.5" font-family="Helvetica,sans-Serif" font-size="10.00">+</text>
<text xml:space="preserve" text-anchor="start" x="65.12" y="-943.5" font-family="Helvetica,sans-Serif" font-size="10.00">operator+=()</text>
<text xml:space="preserve" text-anchor="start" x="54.62" y="-928.25" font-family="Helvetica,sans-Serif" font-size="10.00">+</text>
<text xml:space="preserve" text-anchor="start" x="65.12" y="-928.25" font-family="Helvetica,sans-Serif" font-size="10.00">operator&#45;=()</text>
<text xml:space="preserve" text-anchor="start" x="65.12" y="-913" font-family="Helvetica,sans-Serif" font-size="10.00">and 6 more...</text>
<polygon fill="#666666" stroke="#666666" points="50.12,-1092.25 50.12,-1092.25 149.62,-1092.25 149.62,-1092.25 50.12,-1092.25"/>
<polygon fill="#666666" stroke="#666666" points="50.12,-1077 50.12,-1077 149.62,-1077 149.62,-1077 50.12,-1077"/>
<polygon fill="none" stroke="#666666" points="50.12,-907.25 50.12,-1120.75 149.62,-1120.75 149.62,-907.25 50.12,-907.25"/>
</a>
</g>
</g>
<!-- Node4&#45;&gt;Node3 -->
<g id="edge3_Node000003_Node000004" class="edge">
<title>Node4&#45;&gt;Node3</title>
<g id="a_edge3_Node000003_Node000004"><a xlink:title=" ">
<path fill="none" stroke="orange" d="M99.88,-896.15C99.88,-882.15 99.88,-867.88 99.88,-853.93"/>
<polygon fill="orange" stroke="orange" points="96.38,-895.79 99.88,-905.79 103.38,-895.79 96.38,-895.79"/>
</a>
</g>
<text xml:space="preserve" text-anchor="start" x="102.88" y="-876.75" font-family="Helvetica,sans-Serif" font-size="10.00" fill="grey">&lt; T, 2 &gt;</text>
</g>
<!-- Node5&#45;&gt;Node2 -->
<g id="edge4_Node000002_Node000005" class="edge">
<title>Node5&#45;&gt;Node2</title>
<g id="a_edge4_Node000002_Node000005"><a xlink:title=" ">
<path fill="none" stroke="orange" d="M39.52,-434.7C40.46,-426.6 41.64,-418.46 43.12,-410.75 44.28,-404.75 45.72,-398.57 47.33,-392.43"/>
<polygon fill="orange" stroke="orange" points="36.04,-434.27 38.5,-444.58 43.01,-434.99 36.04,-434.27"/>
</a>
</g>
<text xml:space="preserve" text-anchor="start" x="46.12" y="-415.5" font-family="Helvetica,sans-Serif" font-size="10.00" fill="grey">&lt; float &gt;</text>
</g>
<!-- Node6 -->
<g id="Node000006" class="node">
<title>Node6</title>
<g id="a_Node000006"><a xlink:title=" ">
<polygon fill="white" stroke="none" points="31.88,-764.5 17.88,-764.5 17.88,-714.75 31.88,-714.75 31.88,-764.5"/>
<text xml:space="preserve" text-anchor="start" x="21.88" y="-751" font-family="Helvetica,sans-Serif" font-size="10.00">T</text>
<text xml:space="preserve" text-anchor="start" x="23.38" y="-735.75" font-family="Helvetica,sans-Serif" font-size="10.00"> </text>
<text xml:space="preserve" text-anchor="start" x="23.38" y="-720.5" font-family="Helvetica,sans-Serif" font-size="10.00"> </text>
<polygon fill="#666666" stroke="#666666" points="17.88,-747.25 17.88,-747.25 31.88,-747.25 31.88,-747.25 17.88,-747.25"/>
<polygon fill="#666666" stroke="#666666" points="17.88,-732 17.88,-732 31.88,-732 31.88,-732 17.88,-732"/>
<polygon fill="none" stroke="#666666" points="17.88,-714.75 17.88,-764.5 31.88,-764.5 31.88,-714.75 17.88,-714.75"/>
</a>
</g>
</g>
<!-- Node6&#45;&gt;Node5 -->
<g id="edge6_Node000005_Node000006" class="edge">
<title>Node6&#45;&gt;Node5</title>
<g id="a_edge6_Node000005_Node000006"><a xlink:title=" ">
<path fill="none" stroke="#63b8ff" d="M25.97,-715.11C27.54,-681.43 30.48,-618.15 32.76,-569.32"/>
<polygon fill="none" stroke="#63b8ff" points="32.76,-569.18 29.05,-563 33.32,-557.19 37.04,-563.37 32.76,-569.18"/>
</a>
</g>
<text xml:space="preserve" text-anchor="start" x="35.32" y="-594.75" font-family="Helvetica,sans-Serif" font-size="10.00" fill="grey">+x</text>
<text xml:space="preserve" text-anchor="start" x="35.32" y="-579.5" font-family="Helvetica,sans-Serif" font-size="10.00" fill="grey">+y</text>
</g>
</g>
</svg>
