<?xml version="1.0" encoding="UTF-8" standalone="no"?>
<!DOCTYPE svg PUBLIC "-//W3C//DTD SVG 1.1//EN"
 "http://www.w3.org/Graphics/SVG/1.1/DTD/svg11.dtd">
<!-- Generated by graphviz version 14.0.5 (20251129.0259)
 -->
<!-- Title: rtp::ecs::components::ui::Dropdown Pages: 1 -->
<svg width="320pt" height="1098pt"
 viewBox="0.00 0.00 320.00 1098.00" xmlns="http://www.w3.org/2000/svg" xmlns:xlink="http://www.w3.org/1999/xlink">
<g id="graph0" class="graph" transform="scale(1 1) rotate(0) translate(4 1094.25)">
<title>rtp::ecs::components::ui::Dropdown</title>
<!-- Node1 -->
<g id="Node000001" class="node">
<title>Node1</title>
<g id="a_Node000001"><a xlink:title="Component for dropdown menu selection.">
<polygon fill="#999999" stroke="none" points="222.12,-167.75 121.88,-167.75 121.88,0 222.12,0 222.12,-167.75"/>
<text xml:space="preserve" text-anchor="start" x="125.88" y="-154.25" font-family="Helvetica,sans-Serif" font-size="10.00">rtp::ecs::components</text>
<text xml:space="preserve" text-anchor="start" x="140.12" y="-143" font-family="Helvetica,sans-Serif" font-size="10.00">::ui::Dropdown</text>
<text xml:space="preserve" text-anchor="start" x="131.25" y="-127.75" font-family="Helvetica,sans-Serif" font-size="10.00">+</text>
<text xml:space="preserve" text-anchor="start" x="146.62" y="-127.75" font-family="Helvetica,sans-Serif" font-size="10.00">selectedIndex</text>
<text xml:space="preserve" text-anchor="start" x="131.25" y="-112.5" font-family="Helvetica,sans-Serif" font-size="10.00">+</text>
<text xml:space="preserve" text-anchor="start" x="146.62" y="-112.5" font-family="Helvetica,sans-Serif" font-size="10.00">onSelect</text>
<text xml:space="preserve" text-anchor="start" x="131.25" y="-97.25" font-family="Helvetica,sans-Serif" font-size="10.00">+</text>
<text xml:space="preserve" text-anchor="start" x="146.62" y="-97.25" font-family="Helvetica,sans-Serif" font-size="10.00">bgColor</text>
<text xml:space="preserve" text-anchor="start" x="131.25" y="-82" font-family="Helvetica,sans-Serif" font-size="10.00">+</text>
<text xml:space="preserve" text-anchor="start" x="146.62" y="-82" font-family="Helvetica,sans-Serif" font-size="10.00">hoverColor</text>
<text xml:space="preserve" text-anchor="start" x="131.25" y="-66.75" font-family="Helvetica,sans-Serif" font-size="10.00">+</text>
<text xml:space="preserve" text-anchor="start" x="146.62" y="-66.75" font-family="Helvetica,sans-Serif" font-size="10.00">textColor</text>
<text xml:space="preserve" text-anchor="start" x="131.25" y="-51.5" font-family="Helvetica,sans-Serif" font-size="10.00">+</text>
<text xml:space="preserve" text-anchor="start" x="146.62" y="-51.5" font-family="Helvetica,sans-Serif" font-size="10.00">isOpen</text>
<text xml:space="preserve" text-anchor="start" x="131.25" y="-36.25" font-family="Helvetica,sans-Serif" font-size="10.00">+</text>
<text xml:space="preserve" text-anchor="start" x="146.62" y="-36.25" font-family="Helvetica,sans-Serif" font-size="10.00">hoveredIndex</text>
<text xml:space="preserve" text-anchor="start" x="131.25" y="-21" font-family="Helvetica,sans-Serif" font-size="10.00">+</text>
<text xml:space="preserve" text-anchor="start" x="146.62" y="-21" font-family="Helvetica,sans-Serif" font-size="10.00">zIndex</text>
<text xml:space="preserve" text-anchor="start" x="131.25" y="-5.75" font-family="Helvetica,sans-Serif" font-size="10.00">+</text>
<text xml:space="preserve" text-anchor="start" x="146.62" y="-5.75" font-family="Helvetica,sans-Serif" font-size="10.00">getSelected()</text>
<polygon fill="#666666" stroke="#666666" points="121.88,-139.25 121.88,-139.25 222.12,-139.25 222.12,-139.25 121.88,-139.25"/>
<polygon fill="#666666" stroke="#666666" points="121.88,-17.25 121.88,-17.25 144.62,-17.25 144.62,-17.25 121.88,-17.25"/>
<polygon fill="#666666" stroke="#666666" points="144.62,-17.25 144.62,-17.25 222.12,-17.25 222.12,-17.25 144.62,-17.25"/>
<polygon fill="none" stroke="#666666" points="121.88,0 121.88,-167.75 222.12,-167.75 222.12,0 121.88,0"/>
</a>
</g>
</g>
<!-- Node2 -->
<g id="Node000002" class="node">
<title>Node2</title>
<g id="a_Node000002"><a xlink:href="structrtp_1_1Vec2.html" target="_top" xlink:title=" ">
<polygon fill="white" stroke="none" points="274.25,-362.25 189.75,-362.25 189.75,-236.25 274.25,-236.25 274.25,-362.25"/>
<text xml:space="preserve" text-anchor="start" x="193.75" y="-348.75" font-family="Helvetica,sans-Serif" font-size="10.00">rtp::Vec2&lt; float &gt;</text>
<text xml:space="preserve" text-anchor="start" x="197.06" y="-333.5" font-family="Helvetica,sans-Serif" font-size="10.00">+</text>
<text xml:space="preserve" text-anchor="start" x="210.38" y="-333.5" font-family="Helvetica,sans-Serif" font-size="10.00">x</text>
<text xml:space="preserve" text-anchor="start" x="197.06" y="-318.25" font-family="Helvetica,sans-Serif" font-size="10.00">+</text>
<text xml:space="preserve" text-anchor="start" x="210.38" y="-318.25" font-family="Helvetica,sans-Serif" font-size="10.00">y</text>
<text xml:space="preserve" text-anchor="start" x="197.06" y="-303" font-family="Helvetica,sans-Serif" font-size="10.00">+</text>
<text xml:space="preserve" text-anchor="start" x="210.38" y="-303" font-family="Helvetica,sans-Serif" font-size="10.00">Vec2()</text>
<text xml:space="preserve" text-anchor="start" x="197.06" y="-287.75" font-family="Helvetica,sans-Serif" font-size="10.00">+</text>
<text xml:space="preserve" text-anchor="start" x="210.38" y="-287.75" font-family="Helvetica,sans-Serif" font-size="10.00">Vec2()</text>
<text xml:space="preserve" text-anchor="start" x="197.06" y="-272.5" font-family="Helvetica,sans-Serif" font-size="10.00">+</text>
<text xml:space="preserve" text-anchor="start" x="210.38" y="-272.5" font-family="Helvetica,sans-Serif" font-size="10.00">~Vec2()</text>
<text xml:space="preserve" text-anchor="start" x="197.06" y="-257.25" font-family="Helvetica,sans-Serif" font-size="10.00">+</text>
<text xml:space="preserve" text-anchor="start" x="210.38" y="-257.25" font-family="Helvetica,sans-Serif" font-size="10.00">operator==()</text>
<text xml:space="preserve" text-anchor="start" x="197.06" y="-242" font-family="Helvetica,sans-Serif" font-size="10.00">+</text>
<text xml:space="preserve" text-anchor="start" x="210.38" y="-242" font-family="Helvetica,sans-Serif" font-size="10.00">operator[]()</text>
<polygon fill="#666666" stroke="#666666" points="189.75,-345 189.75,-345 274.25,-345 274.25,-345 189.75,-345"/>
<polygon fill="#666666" stroke="#666666" points="189.75,-314.5 189.75,-314.5 208.38,-314.5 208.38,-314.5 189.75,-314.5"/>
<polygon fill="#666666" stroke="#666666" points="208.38,-314.5 208.38,-314.5 274.25,-314.5 274.25,-314.5 208.38,-314.5"/>
<polygon fill="none" stroke="#666666" points="189.75,-236.25 189.75,-362.25 274.25,-362.25 274.25,-236.25 189.75,-236.25"/>
</a>
</g>
</g>
<!-- Node2&#45;&gt;Node1 -->
<g id="edge1_Node000001_Node000002" class="edge">
<title>Node2&#45;&gt;Node1</title>
<g id="a_edge1_Node000001_Node000002"><a xlink:title=" ">
<path fill="none" stroke="#63b8ff" d="M214.65,-236.53C209.68,-218.86 204.14,-199.18 198.75,-180"/>
<polygon fill="none" stroke="#63b8ff" points="198.73,-179.92 193.25,-175.22 195.48,-168.37 200.95,-173.06 198.73,-179.92"/>
</a>
</g>
<text xml:space="preserve" text-anchor="start" x="212.14" y="-205.75" font-family="Helvetica,sans-Serif" font-size="10.00" fill="grey">+position</text>
<text xml:space="preserve" text-anchor="start" x="212.14" y="-190.5" font-family="Helvetica,sans-Serif" font-size="10.00" fill="grey">+size</text>
</g>
<!-- Node3 -->
<g id="Node000003" class="node">
<title>Node3</title>
<g id="a_Node000003"><a xlink:href="structrtp_1_1details_1_1VecBase.html" target="_top" xlink:title=" ">
<polygon fill="white" stroke="none" points="311.75,-823.5 212.25,-823.5 212.25,-594.75 311.75,-594.75 311.75,-823.5"/>
<text xml:space="preserve" text-anchor="start" x="216.25" y="-810" font-family="Helvetica,sans-Serif" font-size="10.00">rtp::details::VecBase</text>
<text xml:space="preserve" text-anchor="start" x="245.12" y="-798.75" font-family="Helvetica,sans-Serif" font-size="10.00">&lt; T, 2 &gt;</text>
<text xml:space="preserve" text-anchor="start" x="260.5" y="-783.5" font-family="Helvetica,sans-Serif" font-size="10.00"> </text>
<text xml:space="preserve" text-anchor="start" x="216.75" y="-768.25" font-family="Helvetica,sans-Serif" font-size="10.00">+</text>
<text xml:space="preserve" text-anchor="start" x="227.25" y="-768.25" font-family="Helvetica,sans-Serif" font-size="10.00">squaredDistance()</text>
<text xml:space="preserve" text-anchor="start" x="216.75" y="-753" font-family="Helvetica,sans-Serif" font-size="10.00">+</text>
<text xml:space="preserve" text-anchor="start" x="227.25" y="-753" font-family="Helvetica,sans-Serif" font-size="10.00">distance()</text>
<text xml:space="preserve" text-anchor="start" x="216.75" y="-737.75" font-family="Helvetica,sans-Serif" font-size="10.00">+</text>
<text xml:space="preserve" text-anchor="start" x="227.25" y="-737.75" font-family="Helvetica,sans-Serif" font-size="10.00">squaredLength()</text>
<text xml:space="preserve" text-anchor="start" x="216.75" y="-722.5" font-family="Helvetica,sans-Serif" font-size="10.00">+</text>
<text xml:space="preserve" text-anchor="start" x="227.25" y="-722.5" font-family="Helvetica,sans-Serif" font-size="10.00">length()</text>
<text xml:space="preserve" text-anchor="start" x="216.75" y="-707.25" font-family="Helvetica,sans-Serif" font-size="10.00">+</text>
<text xml:space="preserve" text-anchor="start" x="227.25" y="-707.25" font-family="Helvetica,sans-Serif" font-size="10.00">normalize()</text>
<text xml:space="preserve" text-anchor="start" x="216.75" y="-692" font-family="Helvetica,sans-Serif" font-size="10.00">+</text>
<text xml:space="preserve" text-anchor="start" x="227.25" y="-692" font-family="Helvetica,sans-Serif" font-size="10.00">normalized()</text>
<text xml:space="preserve" text-anchor="start" x="216.75" y="-676.75" font-family="Helvetica,sans-Serif" font-size="10.00">+</text>
<text xml:space="preserve" text-anchor="start" x="227.25" y="-676.75" font-family="Helvetica,sans-Serif" font-size="10.00">dot()</text>
<text xml:space="preserve" text-anchor="start" x="216.75" y="-661.5" font-family="Helvetica,sans-Serif" font-size="10.00">+</text>
<text xml:space="preserve" text-anchor="start" x="227.25" y="-661.5" font-family="Helvetica,sans-Serif" font-size="10.00">project()</text>
<text xml:space="preserve" text-anchor="start" x="216.75" y="-646.25" font-family="Helvetica,sans-Serif" font-size="10.00">+</text>
<text xml:space="preserve" text-anchor="start" x="227.25" y="-646.25" font-family="Helvetica,sans-Serif" font-size="10.00">operator+=()</text>
<text xml:space="preserve" text-anchor="start" x="216.75" y="-631" font-family="Helvetica,sans-Serif" font-size="10.00">+</text>
<text xml:space="preserve" text-anchor="start" x="227.25" y="-631" font-family="Helvetica,sans-Serif" font-size="10.00">operator&#45;=()</text>
<text xml:space="preserve" text-anchor="start" x="216.75" y="-615.75" font-family="Helvetica,sans-Serif" font-size="10.00">+</text>
<text xml:space="preserve" text-anchor="start" x="227.25" y="-615.75" font-family="Helvetica,sans-Serif" font-size="10.00">operator*=()</text>
<text xml:space="preserve" text-anchor="start" x="216.75" y="-600.5" font-family="Helvetica,sans-Serif" font-size="10.00">+</text>
<text xml:space="preserve" text-anchor="start" x="227.25" y="-600.5" font-family="Helvetica,sans-Serif" font-size="10.00">operator/=()</text>
<polygon fill="#666666" stroke="#666666" points="212.25,-795 212.25,-795 311.75,-795 311.75,-795 212.25,-795"/>
<polygon fill="#666666" stroke="#666666" points="212.25,-779.75 212.25,-779.75 311.75,-779.75 311.75,-779.75 212.25,-779.75"/>
<polygon fill="none" stroke="#666666" points="212.25,-594.75 212.25,-823.5 311.75,-823.5 311.75,-594.75 212.25,-594.75"/>
</a>
</g>
</g>
<!-- Node3&#45;&gt;Node2 -->
<g id="edge2_Node000002_Node000003" class="edge">
<title>Node3&#45;&gt;Node2</title>
<g id="a_edge2_Node000002_Node000003"><a xlink:title=" ">
<path fill="none" stroke="#63b8ff" d="M278.4,-583.55C283.07,-521.73 283.54,-446.34 269,-380.25 267.68,-374.27 265.88,-368.21 263.76,-362.23"/>
<polygon fill="none" stroke="#63b8ff" points="274.92,-583.17 277.6,-593.42 281.89,-583.73 274.92,-583.17"/>
</a>
</g>
</g>
<!-- Node5 -->
<g id="Node000005" class="node">
<title>Node5</title>
<g id="a_Node000005"><a xlink:href="structrtp_1_1Vec2.html" target="_top" xlink:title="A 2&#45;dimensional vector.">
<polygon fill="white" stroke="none" points="254.88,-526.25 183.12,-526.25 183.12,-415.5 254.88,-415.5 254.88,-526.25"/>
<text xml:space="preserve" text-anchor="start" x="187.12" y="-512.75" font-family="Helvetica,sans-Serif" font-size="10.00">rtp::Vec2&lt; T &gt;</text>
<text xml:space="preserve" text-anchor="start" x="217.5" y="-497.5" font-family="Helvetica,sans-Serif" font-size="10.00"> </text>
<text xml:space="preserve" text-anchor="start" x="187.25" y="-482.25" font-family="Helvetica,sans-Serif" font-size="10.00">+</text>
<text xml:space="preserve" text-anchor="start" x="197.38" y="-482.25" font-family="Helvetica,sans-Serif" font-size="10.00">Vec2()</text>
<text xml:space="preserve" text-anchor="start" x="187.25" y="-467" font-family="Helvetica,sans-Serif" font-size="10.00">+</text>
<text xml:space="preserve" text-anchor="start" x="197.38" y="-467" font-family="Helvetica,sans-Serif" font-size="10.00">Vec2()</text>
<text xml:space="preserve" text-anchor="start" x="187.25" y="-451.75" font-family="Helvetica,sans-Serif" font-size="10.00">+</text>
<text xml:space="preserve" text-anchor="start" x="197.38" y="-451.75" font-family="Helvetica,sans-Serif" font-size="10.00">~Vec2()</text>
<text xml:space="preserve" text-anchor="start" x="187.25" y="-436.5" font-family="Helvetica,sans-Serif" font-size="10.00">+</text>
<text xml:space="preserve" text-anchor="start" x="197.38" y="-436.5" font-family="Helvetica,sans-Serif" font-size="10.00">operator==()</text>
<text xml:space="preserve" text-anchor="start" x="187.25" y="-421.25" font-family="Helvetica,sans-Serif" font-size="10.00">+</text>
<text xml:space="preserve" text-anchor="start" x="197.38" y="-421.25" font-family="Helvetica,sans-Serif" font-size="10.00">operator[]()</text>
<polygon fill="#666666" stroke="#666666" points="183.12,-509 183.12,-509 254.88,-509 254.88,-509 183.12,-509"/>
<polygon fill="#666666" stroke="#666666" points="183.12,-493.75 183.12,-493.75 254.88,-493.75 254.88,-493.75 183.12,-493.75"/>
<polygon fill="none" stroke="#666666" points="183.12,-415.5 183.12,-526.25 254.88,-526.25 254.88,-415.5 183.12,-415.5"/>
</a>
</g>
</g>
<!-- Node3&#45;&gt;Node5 -->
<g id="edge5_Node000005_Node000003" class="edge">
<title>Node3&#45;&gt;Node5</title>
<g id="a_edge5_Node000005_Node000003"><a xlink:title=" ">
<path fill="none" stroke="#63b8ff" d="M239.34,-583.63C235.67,-563.45 232.04,-543.53 228.89,-526.22"/>
<polygon fill="none" stroke="#63b8ff" points="235.88,-584.14 241.11,-593.35 242.76,-582.89 235.88,-584.14"/>
</a>
</g>
</g>
<!-- Node4 -->
<g id="Node000004" class="node">
<title>Node4</title>
<g id="a_Node000004"><a xlink:href="structrtp_1_1details_1_1VecBase.html" target="_top" xlink:title="CRTP base class for vectors.">
<polygon fill="white" stroke="none" points="311.75,-1090.25 212.25,-1090.25 212.25,-876.75 311.75,-876.75 311.75,-1090.25"/>
<text xml:space="preserve" text-anchor="start" x="216.25" y="-1076.75" font-family="Helvetica,sans-Serif" font-size="10.00">rtp::details::VecBase</text>
<text xml:space="preserve" text-anchor="start" x="244" y="-1065.5" font-family="Helvetica,sans-Serif" font-size="10.00">&lt; T, N &gt;</text>
<text xml:space="preserve" text-anchor="start" x="260.5" y="-1050.25" font-family="Helvetica,sans-Serif" font-size="10.00"> </text>
<text xml:space="preserve" text-anchor="start" x="216.75" y="-1035" font-family="Helvetica,sans-Serif" font-size="10.00">+</text>
<text xml:space="preserve" text-anchor="start" x="227.25" y="-1035" font-family="Helvetica,sans-Serif" font-size="10.00">squaredDistance()</text>
<text xml:space="preserve" text-anchor="start" x="216.75" y="-1019.75" font-family="Helvetica,sans-Serif" font-size="10.00">+</text>
<text xml:space="preserve" text-anchor="start" x="227.25" y="-1019.75" font-family="Helvetica,sans-Serif" font-size="10.00">distance()</text>
<text xml:space="preserve" text-anchor="start" x="216.75" y="-1004.5" font-family="Helvetica,sans-Serif" font-size="10.00">+</text>
<text xml:space="preserve" text-anchor="start" x="227.25" y="-1004.5" font-family="Helvetica,sans-Serif" font-size="10.00">squaredLength()</text>
<text xml:space="preserve" text-anchor="start" x="216.75" y="-989.25" font-family="Helvetica,sans-Serif" font-size="10.00">+</text>
<text xml:space="preserve" text-anchor="start" x="227.25" y="-989.25" font-family="Helvetica,sans-Serif" font-size="10.00">length()</text>
<text xml:space="preserve" text-anchor="start" x="216.75" y="-974" font-family="Helvetica,sans-Serif" font-size="10.00">+</text>
<text xml:space="preserve" text-anchor="start" x="227.25" y="-974" font-family="Helvetica,sans-Serif" font-size="10.00">normalize()</text>
<text xml:space="preserve" text-anchor="start" x="216.75" y="-958.75" font-family="Helvetica,sans-Serif" font-size="10.00">+</text>
<text xml:space="preserve" text-anchor="start" x="227.25" y="-958.75" font-family="Helvetica,sans-Serif" font-size="10.00">normalized()</text>
<text xml:space="preserve" text-anchor="start" x="216.75" y="-943.5" font-family="Helvetica,sans-Serif" font-size="10.00">+</text>
<text xml:space="preserve" text-anchor="start" x="227.25" y="-943.5" font-family="Helvetica,sans-Serif" font-size="10.00">dot()</text>
<text xml:space="preserve" text-anchor="start" x="216.75" y="-928.25" font-family="Helvetica,sans-Serif" font-size="10.00">+</text>
<text xml:space="preserve" text-anchor="start" x="227.25" y="-928.25" font-family="Helvetica,sans-Serif" font-size="10.00">project()</text>
<text xml:space="preserve" text-anchor="start" x="216.75" y="-913" font-family="Helvetica,sans-Serif" font-size="10.00">+</text>
<text xml:space="preserve" text-anchor="start" x="227.25" y="-913" font-family="Helvetica,sans-Serif" font-size="10.00">operator+=()</text>
<text xml:space="preserve" text-anchor="start" x="216.75" y="-897.75" font-family="Helvetica,sans-Serif" font-size="10.00">+</text>
<text xml:space="preserve" text-anchor="start" x="227.25" y="-897.75" font-family="Helvetica,sans-Serif" font-size="10.00">operator&#45;=()</text>
<text xml:space="preserve" text-anchor="start" x="227.25" y="-882.5" font-family="Helvetica,sans-Serif" font-size="10.00">and 6 more...</text>
<polygon fill="#666666" stroke="#666666" points="212.25,-1061.75 212.25,-1061.75 311.75,-1061.75 311.75,-1061.75 212.25,-1061.75"/>
<polygon fill="#666666" stroke="#666666" points="212.25,-1046.5 212.25,-1046.5 311.75,-1046.5 311.75,-1046.5 212.25,-1046.5"/>
<polygon fill="none" stroke="#666666" points="212.25,-876.75 212.25,-1090.25 311.75,-1090.25 311.75,-876.75 212.25,-876.75"/>
</a>
</g>
</g>
<!-- Node4&#45;&gt;Node3 -->
<g id="edge3_Node000003_Node000004" class="edge">
<title>Node4&#45;&gt;Node3</title>
<g id="a_edge3_Node000003_Node000004"><a xlink:title=" ">
<path fill="none" stroke="orange" d="M262,-865.65C262,-851.65 262,-837.38 262,-823.43"/>
<polygon fill="orange" stroke="orange" points="258.5,-865.29 262,-875.29 265.5,-865.29 258.5,-865.29"/>
</a>
</g>
<text xml:space="preserve" text-anchor="start" x="265" y="-846.25" font-family="Helvetica,sans-Serif" font-size="10.00" fill="grey">&lt; T, 2 &gt;</text>
</g>
<!-- Node5&#45;&gt;Node2 -->
<g id="edge4_Node000002_Node000005" class="edge">
<title>Node5&#45;&gt;Node2</title>
<g id="a_edge4_Node000002_Node000005"><a xlink:title=" ">
<path fill="none" stroke="orange" d="M224.03,-404.3C225.09,-390.44 226.21,-375.85 227.26,-362.13"/>
<polygon fill="orange" stroke="orange" points="220.54,-403.99 223.26,-414.23 227.52,-404.53 220.54,-403.99"/>
</a>
</g>
<text xml:space="preserve" text-anchor="start" x="228.5" y="-385" font-family="Helvetica,sans-Serif" font-size="10.00" fill="grey">&lt; float &gt;</text>
</g>
<!-- Node6 -->
<g id="Node000006" class="node">
<title>Node6</title>
<g id="a_Node000006"><a xlink:title=" ">
<polygon fill="white" stroke="none" points="166,-734 152,-734 152,-684.25 166,-684.25 166,-734"/>
<text xml:space="preserve" text-anchor="start" x="156" y="-720.5" font-family="Helvetica,sans-Serif" font-size="10.00">T</text>
<text xml:space="preserve" text-anchor="start" x="157.5" y="-705.25" font-family="Helvetica,sans-Serif" font-size="10.00"> </text>
<text xml:space="preserve" text-anchor="start" x="157.5" y="-690" font-family="Helvetica,sans-Serif" font-size="10.00"> </text>
<polygon fill="#666666" stroke="#666666" points="152,-716.75 152,-716.75 166,-716.75 166,-716.75 152,-716.75"/>
<polygon fill="#666666" stroke="#666666" points="152,-701.5 152,-701.5 166,-701.5 166,-701.5 152,-701.5"/>
<polygon fill="none" stroke="#666666" points="152,-684.25 152,-734 166,-734 166,-684.25 152,-684.25"/>
</a>
</g>
</g>
<!-- Node6&#45;&gt;Node5 -->
<g id="edge6_Node000005_Node000006" class="edge">
<title>Node6&#45;&gt;Node5</title>
<g id="a_edge6_Node000005_Node000006"><a xlink:title=" ">
<path fill="none" stroke="#63b8ff" d="M164.97,-684.61C173.56,-650.79 189.73,-587.11 202.16,-538.2"/>
<polygon fill="none" stroke="#63b8ff" points="202.13,-538.3 199.73,-531.5 205.08,-526.67 207.48,-533.47 202.13,-538.3"/>
</a>
</g>
<text xml:space="preserve" text-anchor="start" x="202.59" y="-564.25" font-family="Helvetica,sans-Serif" font-size="10.00" fill="grey">+x</text>
<text xml:space="preserve" text-anchor="start" x="202.59" y="-549" font-family="Helvetica,sans-Serif" font-size="10.00" fill="grey">+y</text>
</g>
<!-- Node10 -->
<g id="Node000010" class="node">
<title>Node10</title>
<g id="a_Node000010"><a xlink:title=" ">
<polygon fill="white" stroke="none" points="165.25,-495.75 86.75,-495.75 86.75,-446 165.25,-446 165.25,-495.75"/>
<text xml:space="preserve" text-anchor="start" x="90.75" y="-482.25" font-family="Helvetica,sans-Serif" font-size="10.00">std::vector&lt; T &gt;</text>
<text xml:space="preserve" text-anchor="start" x="124.5" y="-467" font-family="Helvetica,sans-Serif" font-size="10.00"> </text>
<text xml:space="preserve" text-anchor="start" x="124.5" y="-451.75" font-family="Helvetica,sans-Serif" font-size="10.00"> </text>
<polygon fill="#666666" stroke="#666666" points="86.75,-478.5 86.75,-478.5 165.25,-478.5 165.25,-478.5 86.75,-478.5"/>
<polygon fill="#666666" stroke="#666666" points="86.75,-463.25 86.75,-463.25 165.25,-463.25 165.25,-463.25 86.75,-463.25"/>
<polygon fill="none" stroke="#666666" points="86.75,-446 86.75,-495.75 165.25,-495.75 165.25,-446 86.75,-446"/>
</a>
</g>
</g>
<!-- Node6&#45;&gt;Node10 -->
<g id="edge11_Node000010_Node000006" class="edge">
<title>Node6&#45;&gt;Node10</title>
<g id="a_edge11_Node000010_Node000006"><a xlink:title=" ">
<path fill="none" stroke="#63b8ff" d="M154.36,-684.47C149.34,-658.23 141.37,-614.6 136.25,-576.75 133.19,-554.1 130.67,-528.59 128.9,-508.4"/>
<polygon fill="none" stroke="#63b8ff" points="128.91,-508.53 124.42,-502.89 127.9,-496.57 132.39,-502.21 128.91,-508.53"/>
</a>
</g>
<text xml:space="preserve" text-anchor="start" x="139.25" y="-556.62" font-family="Helvetica,sans-Serif" font-size="10.00" fill="grey">+elements</text>
</g>
<!-- Node7 -->
<g id="Node000007" class="node">
<title>Node7</title>
<g id="a_Node000007"><a xlink:title=" ">
<polygon fill="white" stroke="none" points="172,-324.12 56,-324.12 56,-274.38 172,-274.38 172,-324.12"/>
<text xml:space="preserve" text-anchor="start" x="60" y="-310.62" font-family="Helvetica,sans-Serif" font-size="10.00">std::vector&lt; std::string &gt;</text>
<text xml:space="preserve" text-anchor="start" x="112.5" y="-295.38" font-family="Helvetica,sans-Serif" font-size="10.00"> </text>
<text xml:space="preserve" text-anchor="start" x="112.5" y="-280.12" font-family="Helvetica,sans-Serif" font-size="10.00"> </text>
<polygon fill="#666666" stroke="#666666" points="56,-306.88 56,-306.88 172,-306.88 172,-306.88 56,-306.88"/>
<polygon fill="#666666" stroke="#666666" points="56,-291.62 56,-291.62 172,-291.62 172,-291.62 56,-291.62"/>
<polygon fill="none" stroke="#666666" points="56,-274.38 56,-324.12 172,-324.12 172,-274.38 56,-274.38"/>
</a>
</g>
</g>
<!-- Node7&#45;&gt;Node1 -->
<g id="edge7_Node000001_Node000007" class="edge">
<title>Node7&#45;&gt;Node1</title>
<g id="a_edge7_Node000001_Node000007"><a xlink:title=" ">
<path fill="none" stroke="#63b8ff" d="M120.43,-274.6C126.71,-251.5 136.68,-214.81 146.19,-179.82"/>
<polygon fill="none" stroke="#63b8ff" points="146.15,-179.99 143.86,-173.15 149.29,-168.41 151.58,-175.25 146.15,-179.99"/>
</a>
</g>
<text xml:space="preserve" text-anchor="start" x="146" y="-198.12" font-family="Helvetica,sans-Serif" font-size="10.00" fill="grey">+options</text>
</g>
<!-- Node8 -->
<g id="Node000008" class="node">
<title>Node8</title>
<g id="a_Node000008"><a xlink:title=" ">
<polygon fill="white" stroke="none" points="68.75,-495.75 17.25,-495.75 17.25,-446 68.75,-446 68.75,-495.75"/>
<text xml:space="preserve" text-anchor="start" x="21.25" y="-482.25" font-family="Helvetica,sans-Serif" font-size="10.00">std::string</text>
<text xml:space="preserve" text-anchor="start" x="41.5" y="-467" font-family="Helvetica,sans-Serif" font-size="10.00"> </text>
<text xml:space="preserve" text-anchor="start" x="41.5" y="-451.75" font-family="Helvetica,sans-Serif" font-size="10.00"> </text>
<polygon fill="#666666" stroke="#666666" points="17.25,-478.5 17.25,-478.5 68.75,-478.5 68.75,-478.5 17.25,-478.5"/>
<polygon fill="#666666" stroke="#666666" points="17.25,-463.25 17.25,-463.25 68.75,-463.25 68.75,-463.25 17.25,-463.25"/>
<polygon fill="none" stroke="#666666" points="17.25,-446 17.25,-495.75 68.75,-495.75 68.75,-446 17.25,-446"/>
</a>
</g>
</g>
<!-- Node8&#45;&gt;Node7 -->
<g id="edge8_Node000007_Node000008" class="edge">
<title>Node8&#45;&gt;Node7</title>
<g id="a_edge8_Node000007_Node000008"><a xlink:title=" ">
<path fill="none" stroke="#63b8ff" d="M46.49,-446.01C49.7,-427.57 55.34,-401.66 64.25,-380.25 70.78,-364.56 80.21,-348.43 89.1,-334.8"/>
<polygon fill="none" stroke="#63b8ff" points="89.17,-334.7 89.2,-327.49 95.87,-324.75 95.84,-331.96 89.17,-334.7"/>
</a>
</g>
<text xml:space="preserve" text-anchor="start" x="67.25" y="-385" font-family="Helvetica,sans-Serif" font-size="10.00" fill="grey">+elements</text>
</g>
<!-- Node9 -->
<g id="Node000009" class="node">
<title>Node9</title>
<g id="a_Node000009"><a xlink:title=" ">
<polygon fill="white" stroke="none" points="86,-739.62 0,-739.62 0,-678.62 86,-678.62 86,-739.62"/>
<text xml:space="preserve" text-anchor="start" x="4" y="-726.12" font-family="Helvetica,sans-Serif" font-size="10.00">std::basic_string&lt;</text>
<text xml:space="preserve" text-anchor="start" x="26.5" y="-714.88" font-family="Helvetica,sans-Serif" font-size="10.00"> Char &gt;</text>
<text xml:space="preserve" text-anchor="start" x="41.5" y="-699.62" font-family="Helvetica,sans-Serif" font-size="10.00"> </text>
<text xml:space="preserve" text-anchor="start" x="41.5" y="-684.38" font-family="Helvetica,sans-Serif" font-size="10.00"> </text>
<polygon fill="#666666" stroke="#666666" points="0,-711.12 0,-711.12 86,-711.12 86,-711.12 0,-711.12"/>
<polygon fill="#666666" stroke="#666666" points="0,-695.88 0,-695.88 86,-695.88 86,-695.88 0,-695.88"/>
<polygon fill="none" stroke="#666666" points="0,-678.62 0,-739.62 86,-739.62 86,-678.62 0,-678.62"/>
</a>
</g>
</g>
<!-- Node9&#45;&gt;Node8 -->
<g id="edge9_Node000008_Node000009" class="edge">
<title>Node9&#45;&gt;Node8</title>
<g id="a_edge9_Node000008_Node000009"><a xlink:title=" ">
<path fill="none" stroke="#63b8ff" d="M43,-667.43C43,-617.89 43,-535.86 43,-495.62"/>
<polygon fill="none" stroke="#63b8ff" points="39.5,-667.17 43,-677.17 46.5,-667.17 39.5,-667.17"/>
</a>
</g>
</g>
<!-- Node10&#45;&gt;Node7 -->
<g id="edge10_Node000007_Node000010" class="edge">
<title>Node10&#45;&gt;Node7</title>
<g id="a_edge10_Node000007_Node000010"><a xlink:title=" ">
<path fill="none" stroke="orange" d="M123.52,-434.84C121.17,-401.65 117.71,-352.72 115.67,-323.91"/>
<polygon fill="orange" stroke="orange" points="120.03,-435.05 124.22,-444.78 127.01,-434.56 120.03,-435.05"/>
</a>
</g>
<text xml:space="preserve" text-anchor="start" x="123.72" y="-385" font-family="Helvetica,sans-Serif" font-size="10.00" fill="grey">&lt; std::string &gt;</text>
</g>
</g>
</svg>
