<?xml version="1.0" encoding="UTF-8" standalone="no"?>
<!DOCTYPE svg PUBLIC "-//W3C//DTD SVG 1.1//EN"
 "http://www.w3.org/Graphics/SVG/1.1/DTD/svg11.dtd">
<!-- Generated by graphviz version 14.0.5 (20251129.0259)
 -->
<!-- Title: rtp::ecs::components::audio::AudioSource Pages: 1 -->
<svg width="114pt" height="346pt"
 viewBox="0.00 0.00 114.00 346.00" xmlns="http://www.w3.org/2000/svg" xmlns:xlink="http://www.w3.org/1999/xlink">

<svg id="main" version="1.1" xmlns="http://www.w3.org/2000/svg" xmlns:xlink="http://www.w3.org/1999/xlink" xml:space="preserve">

<style type="text/css"><![CDATA[
.node, .edge {opacity: 0.7;}
.node.selected, .edge.selected {opacity: 1;}
.edge:hover path { stroke: red; }
.edge:hover polygon { stroke: red; fill: red; }
]]></style>
<script type="application/ecmascript" xlink:href="svg.min.js"/>
<svg id="graph" class="graph">
<g id="graph0" class="graph" transform="scale(1 1) rotate(0) translate(4 342.25)">
<title>rtp::ecs::components::audio::AudioSource</title>
<!-- Node1 -->
<g id="Node000001" class="node">
<title>Node1</title>
<g id="a_Node000001"><a xlink:title="Component for entities that emit continuous sound (music, loops, ambient).">
<polygon fill="#999999" stroke="none" points="100.25,-137.25 0,-137.25 0,0 100.25,0 100.25,-137.25"/>
<text xml:space="preserve" text-anchor="start" x="4" y="-123.75" font-family="Helvetica,sans-Serif" font-size="10.00">rtp::ecs::components</text>
<text xml:space="preserve" text-anchor="start" x="4.75" y="-112.5" font-family="Helvetica,sans-Serif" font-size="10.00">::audio::AudioSource</text>
<text xml:space="preserve" text-anchor="start" x="14.62" y="-97.25" font-family="Helvetica,sans-Serif" font-size="10.00">+</text>
<text xml:space="preserve" text-anchor="start" x="35.25" y="-97.25" font-family="Helvetica,sans-Serif" font-size="10.00">volume</text>
<text xml:space="preserve" text-anchor="start" x="14.62" y="-82" font-family="Helvetica,sans-Serif" font-size="10.00">+</text>
<text xml:space="preserve" text-anchor="start" x="35.25" y="-82" font-family="Helvetica,sans-Serif" font-size="10.00">loop</text>
<text xml:space="preserve" text-anchor="start" x="14.62" y="-66.75" font-family="Helvetica,sans-Serif" font-size="10.00">+</text>
<text xml:space="preserve" text-anchor="start" x="35.25" y="-66.75" font-family="Helvetica,sans-Serif" font-size="10.00">isPlaying</text>
<text xml:space="preserve" text-anchor="start" x="14.62" y="-51.5" font-family="Helvetica,sans-Serif" font-size="10.00">+</text>
<text xml:space="preserve" text-anchor="start" x="35.25" y="-51.5" font-family="Helvetica,sans-Serif" font-size="10.00">pitch</text>
<text xml:space="preserve" text-anchor="start" x="14.62" y="-36.25" font-family="Helvetica,sans-Serif" font-size="10.00">+</text>
<text xml:space="preserve" text-anchor="start" x="35.25" y="-36.25" font-family="Helvetica,sans-Serif" font-size="10.00">dirty</text>
<text xml:space="preserve" text-anchor="start" x="14.62" y="-21" font-family="Helvetica,sans-Serif" font-size="10.00">+</text>
<text xml:space="preserve" text-anchor="start" x="35.25" y="-21" font-family="Helvetica,sans-Serif" font-size="10.00">sourceId</text>
<text xml:space="preserve" text-anchor="start" x="48.62" y="-5.75" font-family="Helvetica,sans-Serif" font-size="10.00"> </text>
<polygon fill="#666666" stroke="#666666" points="0,-108.75 0,-108.75 100.25,-108.75 100.25,-108.75 0,-108.75"/>
<polygon fill="#666666" stroke="#666666" points="0,-17.25 0,-17.25 33.25,-17.25 33.25,-17.25 0,-17.25"/>
<polygon fill="#666666" stroke="#666666" points="33.25,-17.25 33.25,-17.25 100.25,-17.25 100.25,-17.25 33.25,-17.25"/>
<polygon fill="none" stroke="#666666" points="0,0 0,-137.25 100.25,-137.25 100.25,0 0,0"/>
</a>
</g>
</g>
<!-- Node2 -->
<g id="Node000002" class="node">
<title>Node2</title>
<g id="a_Node000002"><a xlink:title=" ">
<polygon fill="white" stroke="none" points="75.88,-240.25 24.38,-240.25 24.38,-190.5 75.88,-190.5 75.88,-240.25"/>
<text xml:space="preserve" text-anchor="start" x="28.38" y="-226.75" font-family="Helvetica,sans-Serif" font-size="10.00">std::string</text>
<text xml:space="preserve" text-anchor="start" x="48.62" y="-211.5" font-family="Helvetica,sans-Serif" font-size="10.00"> </text>
<text xml:space="preserve" text-anchor="start" x="48.62" y="-196.25" font-family="Helvetica,sans-Serif" font-size="10.00"> </text>
<polygon fill="#666666" stroke="#666666" points="24.38,-223 24.38,-223 75.88,-223 75.88,-223 24.38,-223"/>
<polygon fill="#666666" stroke="#666666" points="24.38,-207.75 24.38,-207.75 75.88,-207.75 75.88,-207.75 24.38,-207.75"/>
<polygon fill="none" stroke="#666666" points="24.38,-190.5 24.38,-240.25 75.88,-240.25 75.88,-190.5 24.38,-190.5"/>
</a>
</g>
</g>
<!-- Node2&#45;&gt;Node1 -->
<g id="edge1_Node000001_Node000002" class="edge">
<title>Node2&#45;&gt;Node1</title>
<g id="a_edge1_Node000001_Node000002"><a xlink:title=" ">
<path fill="none" stroke="#63b8ff" d="M50.12,-190.8C50.12,-179.28 50.12,-164.68 50.12,-149.63"/>
<polygon fill="none" stroke="#63b8ff" points="50.13,-149.85 46.13,-143.85 50.13,-137.85 54.13,-143.85 50.13,-149.85"/>
</a>
</g>
<text xml:space="preserve" text-anchor="start" x="53.12" y="-160" font-family="Helvetica,sans-Serif" font-size="10.00" fill="grey">+audioPath</text>
</g>
<!-- Node3 -->
<g id="Node000003" class="node">
<title>Node3</title>
<g id="a_Node000003"><a xlink:title=" ">
<polygon fill="white" stroke="none" points="93.12,-338.25 7.12,-338.25 7.12,-277.25 93.12,-277.25 93.12,-338.25"/>
<text xml:space="preserve" text-anchor="start" x="11.12" y="-324.75" font-family="Helvetica,sans-Serif" font-size="10.00">std::basic_string&lt;</text>
<text xml:space="preserve" text-anchor="start" x="33.62" y="-313.5" font-family="Helvetica,sans-Serif" font-size="10.00"> Char &gt;</text>
<text xml:space="preserve" text-anchor="start" x="48.62" y="-298.25" font-family="Helvetica,sans-Serif" font-size="10.00"> </text>
<text xml:space="preserve" text-anchor="start" x="48.62" y="-283" font-family="Helvetica,sans-Serif" font-size="10.00"> </text>
<polygon fill="#666666" stroke="#666666" points="7.12,-309.75 7.12,-309.75 93.12,-309.75 93.12,-309.75 7.12,-309.75"/>
<polygon fill="#666666" stroke="#666666" points="7.12,-294.5 7.12,-294.5 93.12,-294.5 93.12,-294.5 7.12,-294.5"/>
<polygon fill="none" stroke="#666666" points="7.12,-277.25 7.12,-338.25 93.12,-338.25 93.12,-277.25 7.12,-277.25"/>
</a>
</g>
</g>
<!-- Node3&#45;&gt;Node2 -->
<g id="edge2_Node000002_Node000003" class="edge">
<title>Node3&#45;&gt;Node2</title>
<g id="a_edge2_Node000002_Node000003"><a xlink:title=" ">
<path fill="none" stroke="#63b8ff" d="M50.12,-266.15C50.12,-257.19 50.12,-248 50.12,-239.98"/>
<polygon fill="none" stroke="#63b8ff" points="46.63,-266.14 50.13,-276.14 53.63,-266.14 46.63,-266.14"/>
</a>
</g>
</g>
</g>
</svg>
</svg>

<style type='text/css'>
<![CDATA[
[data-mouse-over-selected='false'] { opacity: 0.7; }
[data-mouse-over-selected='true']  { opacity: 1.0; }
]]>
</style>
<script type="application/ecmascript"><![CDATA[
document.addEventListener('DOMContentLoaded', (event) => {
  highlightEdges();
  highlightAdjacentNodes();
});
]]></script>
</svg>
