<?xml version="1.0" encoding="UTF-8" standalone="no"?>
<!DOCTYPE svg PUBLIC "-//W3C//DTD SVG 1.1//EN"
 "http://www.w3.org/Graphics/SVG/1.1/DTD/svg11.dtd">
<!-- Generated by graphviz version 14.0.5 (20251129.0259)
 -->
<!-- Title: rtp::ecs::components::MouvementPattern Pages: 1 -->
<svg width="108pt" height="115pt"
 viewBox="0.00 0.00 108.00 115.00" xmlns="http://www.w3.org/2000/svg" xmlns:xlink="http://www.w3.org/1999/xlink">
<g id="graph0" class="graph" transform="scale(1 1) rotate(0) translate(4 110.75)">
<title>rtp::ecs::components::MouvementPattern</title>
<!-- Node1 -->
<g id="Node000001" class="node">
<title>Node1</title>
<g id="a_Node000001"><a xlink:title="Component representing a movement pattern.">
<polygon fill="#999999" stroke="none" points="100.25,-106.75 0,-106.75 0,0 100.25,0 100.25,-106.75"/>
<text xml:space="preserve" text-anchor="start" x="4" y="-93.25" font-family="Helvetica,sans-Serif" font-size="10.00">rtp::ecs::components</text>
<text xml:space="preserve" text-anchor="start" x="5.88" y="-82" font-family="Helvetica,sans-Serif" font-size="10.00">::MouvementPattern</text>
<text xml:space="preserve" text-anchor="start" x="13.88" y="-66.75" font-family="Helvetica,sans-Serif" font-size="10.00">+</text>
<text xml:space="preserve" text-anchor="start" x="33.75" y="-66.75" font-family="Helvetica,sans-Serif" font-size="10.00">pattern</text>
<text xml:space="preserve" text-anchor="start" x="13.88" y="-51.5" font-family="Helvetica,sans-Serif" font-size="10.00">+</text>
<text xml:space="preserve" text-anchor="start" x="33.75" y="-51.5" font-family="Helvetica,sans-Serif" font-size="10.00">speed</text>
<text xml:space="preserve" text-anchor="start" x="13.88" y="-36.25" font-family="Helvetica,sans-Serif" font-size="10.00">+</text>
<text xml:space="preserve" text-anchor="start" x="33.75" y="-36.25" font-family="Helvetica,sans-Serif" font-size="10.00">amplitude</text>
<text xml:space="preserve" text-anchor="start" x="13.88" y="-21" font-family="Helvetica,sans-Serif" font-size="10.00">+</text>
<text xml:space="preserve" text-anchor="start" x="33.75" y="-21" font-family="Helvetica,sans-Serif" font-size="10.00">frequency</text>
<text xml:space="preserve" text-anchor="start" x="48.62" y="-5.75" font-family="Helvetica,sans-Serif" font-size="10.00"> </text>
<polygon fill="#666666" stroke="#666666" points="0,-78.25 0,-78.25 100.25,-78.25 100.25,-78.25 0,-78.25"/>
<polygon fill="#666666" stroke="#666666" points="0,-17.25 0,-17.25 31.75,-17.25 31.75,-17.25 0,-17.25"/>
<polygon fill="#666666" stroke="#666666" points="31.75,-17.25 31.75,-17.25 100.25,-17.25 100.25,-17.25 31.75,-17.25"/>
<polygon fill="none" stroke="#666666" points="0,0 0,-106.75 100.25,-106.75 100.25,0 0,0"/>
</a>
</g>
</g>
</g>
</svg>
