<?xml version="1.0" encoding="UTF-8" standalone="no"?>
<!DOCTYPE svg PUBLIC "-//W3C//DTD SVG 1.1//EN"
 "http://www.w3.org/Graphics/SVG/1.1/DTD/svg11.dtd">
<!-- Generated by graphviz version 14.0.5 (20251129.0259)
 -->
<!-- Title: rtp::ecs::components::Sprite Pages: 1 -->
<svg width="120pt" height="392pt"
 viewBox="0.00 0.00 120.00 392.00" xmlns="http://www.w3.org/2000/svg" xmlns:xlink="http://www.w3.org/1999/xlink">

<svg id="main" version="1.1" xmlns="http://www.w3.org/2000/svg" xmlns:xlink="http://www.w3.org/1999/xlink" xml:space="preserve">

<style type="text/css"><![CDATA[
.node, .edge {opacity: 0.7;}
.node.selected, .edge.selected {opacity: 1;}
.edge:hover path { stroke: red; }
.edge:hover polygon { stroke: red; fill: red; }
]]></style>
<script type="application/ecmascript" xlink:href="svg.min.js"/>
<svg id="graph" class="graph">
<g id="graph0" class="graph" transform="scale(1 1) rotate(0) translate(4 388)">
<title>rtp::ecs::components::Sprite</title>
<!-- Node1 -->
<g id="Node000001" class="node">
<title>Node1</title>
<g id="a_Node000001"><a xlink:title="Component representing a sprite.">
<polygon fill="#999999" stroke="none" points="100.25,-183 0,-183 0,0 100.25,0 100.25,-183"/>
<text xml:space="preserve" text-anchor="start" x="4" y="-169.5" font-family="Helvetica,sans-Serif" font-size="10.00">rtp::ecs::components</text>
<text xml:space="preserve" text-anchor="start" x="34.38" y="-158.25" font-family="Helvetica,sans-Serif" font-size="10.00">::Sprite</text>
<text xml:space="preserve" text-anchor="start" x="13.31" y="-143" font-family="Helvetica,sans-Serif" font-size="10.00">+</text>
<text xml:space="preserve" text-anchor="start" x="32.62" y="-143" font-family="Helvetica,sans-Serif" font-size="10.00">rectLeft</text>
<text xml:space="preserve" text-anchor="start" x="13.31" y="-127.75" font-family="Helvetica,sans-Serif" font-size="10.00">+</text>
<text xml:space="preserve" text-anchor="start" x="32.62" y="-127.75" font-family="Helvetica,sans-Serif" font-size="10.00">rectTop</text>
<text xml:space="preserve" text-anchor="start" x="13.31" y="-112.5" font-family="Helvetica,sans-Serif" font-size="10.00">+</text>
<text xml:space="preserve" text-anchor="start" x="32.62" y="-112.5" font-family="Helvetica,sans-Serif" font-size="10.00">rectWidth</text>
<text xml:space="preserve" text-anchor="start" x="13.31" y="-97.25" font-family="Helvetica,sans-Serif" font-size="10.00">+</text>
<text xml:space="preserve" text-anchor="start" x="32.62" y="-97.25" font-family="Helvetica,sans-Serif" font-size="10.00">rectHeight</text>
<text xml:space="preserve" text-anchor="start" x="13.31" y="-82" font-family="Helvetica,sans-Serif" font-size="10.00">+</text>
<text xml:space="preserve" text-anchor="start" x="32.62" y="-82" font-family="Helvetica,sans-Serif" font-size="10.00">zIndex</text>
<text xml:space="preserve" text-anchor="start" x="13.31" y="-66.75" font-family="Helvetica,sans-Serif" font-size="10.00">+</text>
<text xml:space="preserve" text-anchor="start" x="32.62" y="-66.75" font-family="Helvetica,sans-Serif" font-size="10.00">opacity</text>
<text xml:space="preserve" text-anchor="start" x="13.31" y="-51.5" font-family="Helvetica,sans-Serif" font-size="10.00">+</text>
<text xml:space="preserve" text-anchor="start" x="32.62" y="-51.5" font-family="Helvetica,sans-Serif" font-size="10.00">red</text>
<text xml:space="preserve" text-anchor="start" x="13.31" y="-36.25" font-family="Helvetica,sans-Serif" font-size="10.00">+</text>
<text xml:space="preserve" text-anchor="start" x="32.62" y="-36.25" font-family="Helvetica,sans-Serif" font-size="10.00">green</text>
<text xml:space="preserve" text-anchor="start" x="13.31" y="-21" font-family="Helvetica,sans-Serif" font-size="10.00">+</text>
<text xml:space="preserve" text-anchor="start" x="32.62" y="-21" font-family="Helvetica,sans-Serif" font-size="10.00">blue</text>
<text xml:space="preserve" text-anchor="start" x="48.62" y="-5.75" font-family="Helvetica,sans-Serif" font-size="10.00"> </text>
<polygon fill="#666666" stroke="#666666" points="0,-154.5 0,-154.5 100.25,-154.5 100.25,-154.5 0,-154.5"/>
<polygon fill="#666666" stroke="#666666" points="0,-17.25 0,-17.25 30.62,-17.25 30.62,-17.25 0,-17.25"/>
<polygon fill="#666666" stroke="#666666" points="30.62,-17.25 30.62,-17.25 100.25,-17.25 100.25,-17.25 30.62,-17.25"/>
<polygon fill="none" stroke="#666666" points="0,0 0,-183 100.25,-183 100.25,0 0,0"/>
</a>
</g>
</g>
<!-- Node2 -->
<g id="Node000002" class="node">
<title>Node2</title>
<g id="a_Node000002"><a xlink:title=" ">
<polygon fill="white" stroke="none" points="75.88,-286 24.38,-286 24.38,-236.25 75.88,-236.25 75.88,-286"/>
<text xml:space="preserve" text-anchor="start" x="28.38" y="-272.5" font-family="Helvetica,sans-Serif" font-size="10.00">std::string</text>
<text xml:space="preserve" text-anchor="start" x="48.62" y="-257.25" font-family="Helvetica,sans-Serif" font-size="10.00"> </text>
<text xml:space="preserve" text-anchor="start" x="48.62" y="-242" font-family="Helvetica,sans-Serif" font-size="10.00"> </text>
<polygon fill="#666666" stroke="#666666" points="24.38,-268.75 24.38,-268.75 75.88,-268.75 75.88,-268.75 24.38,-268.75"/>
<polygon fill="#666666" stroke="#666666" points="24.38,-253.5 24.38,-253.5 75.88,-253.5 75.88,-253.5 24.38,-253.5"/>
<polygon fill="none" stroke="#666666" points="24.38,-236.25 24.38,-286 75.88,-286 75.88,-236.25 24.38,-236.25"/>
</a>
</g>
</g>
<!-- Node2&#45;&gt;Node1 -->
<g id="edge1_Node000001_Node000002" class="edge">
<title>Node2&#45;&gt;Node1</title>
<g id="a_edge1_Node000001_Node000002"><a xlink:title=" ">
<path fill="none" stroke="#63b8ff" d="M50.12,-236.46C50.12,-225.25 50.12,-211.01 50.12,-195.86"/>
<polygon fill="none" stroke="#63b8ff" points="50.13,-195.87 46.13,-189.87 50.13,-183.87 54.13,-189.87 50.13,-195.87"/>
</a>
</g>
<text xml:space="preserve" text-anchor="start" x="53.12" y="-205.75" font-family="Helvetica,sans-Serif" font-size="10.00" fill="grey">+texturePath</text>
</g>
<!-- Node3 -->
<g id="Node000003" class="node">
<title>Node3</title>
<g id="a_Node000003"><a xlink:title=" ">
<polygon fill="white" stroke="none" points="93.12,-384 7.12,-384 7.12,-323 93.12,-323 93.12,-384"/>
<text xml:space="preserve" text-anchor="start" x="11.12" y="-370.5" font-family="Helvetica,sans-Serif" font-size="10.00">std::basic_string&lt;</text>
<text xml:space="preserve" text-anchor="start" x="33.62" y="-359.25" font-family="Helvetica,sans-Serif" font-size="10.00"> Char &gt;</text>
<text xml:space="preserve" text-anchor="start" x="48.62" y="-344" font-family="Helvetica,sans-Serif" font-size="10.00"> </text>
<text xml:space="preserve" text-anchor="start" x="48.62" y="-328.75" font-family="Helvetica,sans-Serif" font-size="10.00"> </text>
<polygon fill="#666666" stroke="#666666" points="7.12,-355.5 7.12,-355.5 93.12,-355.5 93.12,-355.5 7.12,-355.5"/>
<polygon fill="#666666" stroke="#666666" points="7.12,-340.25 7.12,-340.25 93.12,-340.25 93.12,-340.25 7.12,-340.25"/>
<polygon fill="none" stroke="#666666" points="7.12,-323 7.12,-384 93.12,-384 93.12,-323 7.12,-323"/>
</a>
</g>
</g>
<!-- Node3&#45;&gt;Node2 -->
<g id="edge2_Node000002_Node000003" class="edge">
<title>Node3&#45;&gt;Node2</title>
<g id="a_edge2_Node000002_Node000003"><a xlink:title=" ">
<path fill="none" stroke="#63b8ff" d="M50.12,-311.9C50.12,-302.94 50.12,-293.75 50.12,-285.73"/>
<polygon fill="none" stroke="#63b8ff" points="46.63,-311.89 50.13,-321.89 53.63,-311.89 46.63,-311.89"/>
</a>
</g>
</g>
</g>
</svg>
</svg>

<style type='text/css'>
<![CDATA[
[data-mouse-over-selected='false'] { opacity: 0.7; }
[data-mouse-over-selected='true']  { opacity: 1.0; }
]]>
</style>
<script type="application/ecmascript"><![CDATA[
document.addEventListener('DOMContentLoaded', (event) => {
  highlightEdges();
  highlightAdjacentNodes();
});
]]></script>
</svg>
