<?xml version="1.0" encoding="UTF-8" standalone="no"?>
<!DOCTYPE svg PUBLIC "-//W3C//DTD SVG 1.1//EN"
 "http://www.w3.org/Graphics/SVG/1.1/DTD/svg11.dtd">
<!-- Generated by graphviz version 14.0.5 (20251129.0259)
 -->
<!-- Title: rtp::server::LevelSystem::ActiveLevel Pages: 1 -->
<svg width="869pt" height="1464pt"
 viewBox="0.00 0.00 869.00 1464.00" xmlns="http://www.w3.org/2000/svg" xmlns:xlink="http://www.w3.org/1999/xlink">
<g id="graph0" class="graph" transform="scale(1 1) rotate(0) translate(4 1460.25)">
<title>rtp::server::LevelSystem::ActiveLevel</title>
<!-- Node1 -->
<g id="Node000001" class="node">
<title>Node1</title>
<g id="a_Node000001"><a xlink:title="Struct to hold active level data for a room.">
<polygon fill="#999999" stroke="none" points="293.62,-106.75 178.38,-106.75 178.38,0 293.62,0 293.62,-106.75"/>
<text xml:space="preserve" text-anchor="start" x="182.38" y="-93.25" font-family="Helvetica,sans-Serif" font-size="10.00">rtp::server::LevelSystem</text>
<text xml:space="preserve" text-anchor="start" x="207.5" y="-82" font-family="Helvetica,sans-Serif" font-size="10.00">::ActiveLevel</text>
<text xml:space="preserve" text-anchor="start" x="192.25" y="-66.75" font-family="Helvetica,sans-Serif" font-size="10.00">+</text>
<text xml:space="preserve" text-anchor="start" x="212.12" y="-66.75" font-family="Helvetica,sans-Serif" font-size="10.00">elapsed</text>
<text xml:space="preserve" text-anchor="start" x="192.25" y="-51.5" font-family="Helvetica,sans-Serif" font-size="10.00">+</text>
<text xml:space="preserve" text-anchor="start" x="212.12" y="-51.5" font-family="Helvetica,sans-Serif" font-size="10.00">nextSpawn</text>
<text xml:space="preserve" text-anchor="start" x="192.25" y="-36.25" font-family="Helvetica,sans-Serif" font-size="10.00">+</text>
<text xml:space="preserve" text-anchor="start" x="212.12" y="-36.25" font-family="Helvetica,sans-Serif" font-size="10.00">nextPowerup</text>
<text xml:space="preserve" text-anchor="start" x="192.25" y="-21" font-family="Helvetica,sans-Serif" font-size="10.00">+</text>
<text xml:space="preserve" text-anchor="start" x="212.12" y="-21" font-family="Helvetica,sans-Serif" font-size="10.00">nextObstacle</text>
<text xml:space="preserve" text-anchor="start" x="234.5" y="-5.75" font-family="Helvetica,sans-Serif" font-size="10.00"> </text>
<polygon fill="#666666" stroke="#666666" points="178.38,-78.25 178.38,-78.25 293.62,-78.25 293.62,-78.25 178.38,-78.25"/>
<polygon fill="#666666" stroke="#666666" points="178.38,-17.25 178.38,-17.25 210.12,-17.25 210.12,-17.25 178.38,-17.25"/>
<polygon fill="#666666" stroke="#666666" points="210.12,-17.25 210.12,-17.25 293.62,-17.25 293.62,-17.25 210.12,-17.25"/>
<polygon fill="none" stroke="#666666" points="178.38,0 178.38,-106.75 293.62,-106.75 293.62,0 178.38,0"/>
</a>
</g>
</g>
<!-- Node2 -->
<g id="Node000002" class="node">
<title>Node2</title>
<g id="a_Node000002"><a xlink:href="structrtp_1_1server_1_1LevelData.html" target="_top" xlink:title=" ">
<polygon fill="white" stroke="none" points="287.25,-225 184.75,-225 184.75,-160 287.25,-160 287.25,-225"/>
<text xml:space="preserve" text-anchor="start" x="188.75" y="-211.5" font-family="Helvetica,sans-Serif" font-size="10.00">rtp::server::LevelData</text>
<text xml:space="preserve" text-anchor="start" x="197.31" y="-196.25" font-family="Helvetica,sans-Serif" font-size="10.00">+</text>
<text xml:space="preserve" text-anchor="start" x="215.88" y="-196.25" font-family="Helvetica,sans-Serif" font-size="10.00">id</text>
<text xml:space="preserve" text-anchor="start" x="197.31" y="-181" font-family="Helvetica,sans-Serif" font-size="10.00">+</text>
<text xml:space="preserve" text-anchor="start" x="215.88" y="-181" font-family="Helvetica,sans-Serif" font-size="10.00">widthPixels</text>
<text xml:space="preserve" text-anchor="start" x="234.5" y="-165.75" font-family="Helvetica,sans-Serif" font-size="10.00"> </text>
<polygon fill="#666666" stroke="#666666" points="184.75,-207.75 184.75,-207.75 287.25,-207.75 287.25,-207.75 184.75,-207.75"/>
<polygon fill="#666666" stroke="#666666" points="184.75,-177.25 184.75,-177.25 213.88,-177.25 213.88,-177.25 184.75,-177.25"/>
<polygon fill="#666666" stroke="#666666" points="213.88,-177.25 213.88,-177.25 287.25,-177.25 287.25,-177.25 213.88,-177.25"/>
<polygon fill="none" stroke="#666666" points="184.75,-160 184.75,-225 287.25,-225 287.25,-160 184.75,-160"/>
</a>
</g>
</g>
<!-- Node2&#45;&gt;Node1 -->
<g id="edge1_Node000001_Node000002" class="edge">
<title>Node2&#45;&gt;Node1</title>
<g id="a_edge1_Node000001_Node000002"><a xlink:title=" ">
<path fill="none" stroke="#63b8ff" d="M236,-160.04C236,-147.93 236,-133.62 236,-119.49"/>
<polygon fill="none" stroke="#63b8ff" points="236,-119.55 232,-113.55 236,-107.55 240,-113.55 236,-119.55"/>
</a>
</g>
<text xml:space="preserve" text-anchor="start" x="239" y="-129.5" font-family="Helvetica,sans-Serif" font-size="10.00" fill="grey">+data</text>
</g>
<!-- Node3 -->
<g id="Node000003" class="node">
<title>Node3</title>
<g id="a_Node000003"><a xlink:title=" ">
<polygon fill="white" stroke="none" points="68.75,-348.88 17.25,-348.88 17.25,-299.12 68.75,-299.12 68.75,-348.88"/>
<text xml:space="preserve" text-anchor="start" x="21.25" y="-335.38" font-family="Helvetica,sans-Serif" font-size="10.00">std::string</text>
<text xml:space="preserve" text-anchor="start" x="41.5" y="-320.12" font-family="Helvetica,sans-Serif" font-size="10.00"> </text>
<text xml:space="preserve" text-anchor="start" x="41.5" y="-304.88" font-family="Helvetica,sans-Serif" font-size="10.00"> </text>
<polygon fill="#666666" stroke="#666666" points="17.25,-331.62 17.25,-331.62 68.75,-331.62 68.75,-331.62 17.25,-331.62"/>
<polygon fill="#666666" stroke="#666666" points="17.25,-316.38 17.25,-316.38 68.75,-316.38 68.75,-316.38 17.25,-316.38"/>
<polygon fill="none" stroke="#666666" points="17.25,-299.12 17.25,-348.88 68.75,-348.88 68.75,-299.12 17.25,-299.12"/>
</a>
</g>
</g>
<!-- Node3&#45;&gt;Node2 -->
<g id="edge2_Node000002_Node000003" class="edge">
<title>Node3&#45;&gt;Node2</title>
<g id="a_edge2_Node000002_Node000003"><a xlink:title=" ">
<path fill="none" stroke="#63b8ff" d="M36.49,-299.48C33.18,-282.05 32.1,-258.7 44.5,-243 60.37,-222.9 122.77,-209.42 172.08,-201.66"/>
<polygon fill="none" stroke="#63b8ff" points="172.19,-201.65 177.52,-196.8 184.05,-199.86 178.72,-204.71 172.19,-201.65"/>
</a>
</g>
<text xml:space="preserve" text-anchor="start" x="47.5" y="-263" font-family="Helvetica,sans-Serif" font-size="10.00" fill="grey">+name</text>
<text xml:space="preserve" text-anchor="start" x="47.5" y="-247.75" font-family="Helvetica,sans-Serif" font-size="10.00" fill="grey">+tilesetPath</text>
</g>
<!-- Node4 -->
<g id="Node000004" class="node">
<title>Node4</title>
<g id="a_Node000004"><a xlink:title=" ">
<polygon fill="white" stroke="none" points="86,-501.25 0,-501.25 0,-440.25 86,-440.25 86,-501.25"/>
<text xml:space="preserve" text-anchor="start" x="4" y="-487.75" font-family="Helvetica,sans-Serif" font-size="10.00">std::basic_string&lt;</text>
<text xml:space="preserve" text-anchor="start" x="26.5" y="-476.5" font-family="Helvetica,sans-Serif" font-size="10.00"> Char &gt;</text>
<text xml:space="preserve" text-anchor="start" x="41.5" y="-461.25" font-family="Helvetica,sans-Serif" font-size="10.00"> </text>
<text xml:space="preserve" text-anchor="start" x="41.5" y="-446" font-family="Helvetica,sans-Serif" font-size="10.00"> </text>
<polygon fill="#666666" stroke="#666666" points="0,-472.75 0,-472.75 86,-472.75 86,-472.75 0,-472.75"/>
<polygon fill="#666666" stroke="#666666" points="0,-457.5 0,-457.5 86,-457.5 86,-457.5 0,-457.5"/>
<polygon fill="none" stroke="#666666" points="0,-440.25 0,-501.25 86,-501.25 86,-440.25 0,-440.25"/>
</a>
</g>
</g>
<!-- Node4&#45;&gt;Node3 -->
<g id="edge3_Node000003_Node000004" class="edge">
<title>Node4&#45;&gt;Node3</title>
<g id="a_edge3_Node000003_Node000004"><a xlink:title=" ">
<path fill="none" stroke="#63b8ff" d="M43,-429.06C43,-403.06 43,-370.27 43,-348.52"/>
<polygon fill="none" stroke="#63b8ff" points="39.5,-428.94 43,-438.94 46.5,-428.94 39.5,-428.94"/>
</a>
</g>
</g>
<!-- Node5 -->
<g id="Node000005" class="node">
<title>Node5</title>
<g id="a_Node000005"><a xlink:href="structrtp_1_1Vec2.html" target="_top" xlink:title=" ">
<polygon fill="white" stroke="none" points="370.25,-728.25 285.75,-728.25 285.75,-602.25 370.25,-602.25 370.25,-728.25"/>
<text xml:space="preserve" text-anchor="start" x="289.75" y="-714.75" font-family="Helvetica,sans-Serif" font-size="10.00">rtp::Vec2&lt; float &gt;</text>
<text xml:space="preserve" text-anchor="start" x="293.06" y="-699.5" font-family="Helvetica,sans-Serif" font-size="10.00">+</text>
<text xml:space="preserve" text-anchor="start" x="306.38" y="-699.5" font-family="Helvetica,sans-Serif" font-size="10.00">x</text>
<text xml:space="preserve" text-anchor="start" x="293.06" y="-684.25" font-family="Helvetica,sans-Serif" font-size="10.00">+</text>
<text xml:space="preserve" text-anchor="start" x="306.38" y="-684.25" font-family="Helvetica,sans-Serif" font-size="10.00">y</text>
<text xml:space="preserve" text-anchor="start" x="293.06" y="-669" font-family="Helvetica,sans-Serif" font-size="10.00">+</text>
<text xml:space="preserve" text-anchor="start" x="306.38" y="-669" font-family="Helvetica,sans-Serif" font-size="10.00">Vec2()</text>
<text xml:space="preserve" text-anchor="start" x="293.06" y="-653.75" font-family="Helvetica,sans-Serif" font-size="10.00">+</text>
<text xml:space="preserve" text-anchor="start" x="306.38" y="-653.75" font-family="Helvetica,sans-Serif" font-size="10.00">Vec2()</text>
<text xml:space="preserve" text-anchor="start" x="293.06" y="-638.5" font-family="Helvetica,sans-Serif" font-size="10.00">+</text>
<text xml:space="preserve" text-anchor="start" x="306.38" y="-638.5" font-family="Helvetica,sans-Serif" font-size="10.00">~Vec2()</text>
<text xml:space="preserve" text-anchor="start" x="293.06" y="-623.25" font-family="Helvetica,sans-Serif" font-size="10.00">+</text>
<text xml:space="preserve" text-anchor="start" x="306.38" y="-623.25" font-family="Helvetica,sans-Serif" font-size="10.00">operator==()</text>
<text xml:space="preserve" text-anchor="start" x="293.06" y="-608" font-family="Helvetica,sans-Serif" font-size="10.00">+</text>
<text xml:space="preserve" text-anchor="start" x="306.38" y="-608" font-family="Helvetica,sans-Serif" font-size="10.00">operator[]()</text>
<polygon fill="#666666" stroke="#666666" points="285.75,-711 285.75,-711 370.25,-711 370.25,-711 285.75,-711"/>
<polygon fill="#666666" stroke="#666666" points="285.75,-680.5 285.75,-680.5 304.38,-680.5 304.38,-680.5 285.75,-680.5"/>
<polygon fill="#666666" stroke="#666666" points="304.38,-680.5 304.38,-680.5 370.25,-680.5 370.25,-680.5 304.38,-680.5"/>
<polygon fill="none" stroke="#666666" points="285.75,-602.25 285.75,-728.25 370.25,-728.25 370.25,-602.25 285.75,-602.25"/>
</a>
</g>
</g>
<!-- Node5&#45;&gt;Node2 -->
<g id="edge4_Node000002_Node000005" class="edge">
<title>Node5&#45;&gt;Node2</title>
<g id="a_edge4_Node000002_Node000005"><a xlink:title=" ">
<path fill="none" stroke="#63b8ff" d="M285.77,-632.49C255.92,-608.21 216.78,-572.42 191,-533.75 152.97,-476.71 148.24,-457.15 135.75,-389.75 125,-331.73 163.59,-272.4 195.96,-234.39"/>
<polygon fill="none" stroke="#63b8ff" points="195.94,-234.41 196.9,-227.27 203.86,-225.4 202.9,-232.55 195.94,-234.41"/>
</a>
</g>
<text xml:space="preserve" text-anchor="start" x="138.75" y="-377.25" font-family="Helvetica,sans-Serif" font-size="10.00" fill="grey">+playerStart</text>
</g>
<!-- Node11 -->
<g id="Node000011" class="node">
<title>Node11</title>
<g id="a_Node000011"><a xlink:href="structrtp_1_1server_1_1SpawnEvent.html" target="_top" xlink:title=" ">
<polygon fill="white" stroke="none" points="313.88,-533.75 200.12,-533.75 200.12,-407.75 313.88,-407.75 313.88,-533.75"/>
<text xml:space="preserve" text-anchor="start" x="204.12" y="-520.25" font-family="Helvetica,sans-Serif" font-size="10.00">rtp::server::SpawnEvent</text>
<text xml:space="preserve" text-anchor="start" x="217.38" y="-505" font-family="Helvetica,sans-Serif" font-size="10.00">+</text>
<text xml:space="preserve" text-anchor="start" x="240.62" y="-505" font-family="Helvetica,sans-Serif" font-size="10.00">atTime</text>
<text xml:space="preserve" text-anchor="start" x="217.38" y="-489.75" font-family="Helvetica,sans-Serif" font-size="10.00">+</text>
<text xml:space="preserve" text-anchor="start" x="240.62" y="-489.75" font-family="Helvetica,sans-Serif" font-size="10.00">type</text>
<text xml:space="preserve" text-anchor="start" x="217.38" y="-474.5" font-family="Helvetica,sans-Serif" font-size="10.00">+</text>
<text xml:space="preserve" text-anchor="start" x="240.62" y="-474.5" font-family="Helvetica,sans-Serif" font-size="10.00">pattern</text>
<text xml:space="preserve" text-anchor="start" x="217.38" y="-459.25" font-family="Helvetica,sans-Serif" font-size="10.00">+</text>
<text xml:space="preserve" text-anchor="start" x="240.62" y="-459.25" font-family="Helvetica,sans-Serif" font-size="10.00">speed</text>
<text xml:space="preserve" text-anchor="start" x="217.38" y="-444" font-family="Helvetica,sans-Serif" font-size="10.00">+</text>
<text xml:space="preserve" text-anchor="start" x="240.62" y="-444" font-family="Helvetica,sans-Serif" font-size="10.00">amplitude</text>
<text xml:space="preserve" text-anchor="start" x="217.38" y="-428.75" font-family="Helvetica,sans-Serif" font-size="10.00">+</text>
<text xml:space="preserve" text-anchor="start" x="240.62" y="-428.75" font-family="Helvetica,sans-Serif" font-size="10.00">frequency</text>
<text xml:space="preserve" text-anchor="start" x="255.5" y="-413.5" font-family="Helvetica,sans-Serif" font-size="10.00"> </text>
<polygon fill="#666666" stroke="#666666" points="200.12,-516.5 200.12,-516.5 313.88,-516.5 313.88,-516.5 200.12,-516.5"/>
<polygon fill="#666666" stroke="#666666" points="200.12,-425 200.12,-425 238.62,-425 238.62,-425 200.12,-425"/>
<polygon fill="#666666" stroke="#666666" points="238.62,-425 238.62,-425 313.88,-425 313.88,-425 238.62,-425"/>
<polygon fill="none" stroke="#666666" points="200.12,-407.75 200.12,-533.75 313.88,-533.75 313.88,-407.75 200.12,-407.75"/>
</a>
</g>
</g>
<!-- Node5&#45;&gt;Node11 -->
<g id="edge12_Node000011_Node000005" class="edge">
<title>Node5&#45;&gt;Node11</title>
<g id="a_edge12_Node000011_Node000005"><a xlink:title=" ">
<path fill="none" stroke="#63b8ff" d="M305.14,-602.28C298.49,-584.25 291.16,-564.37 284.27,-545.68"/>
<polygon fill="none" stroke="#63b8ff" points="284.28,-545.71 278.45,-541.46 280.12,-534.45 285.95,-538.69 284.28,-545.71"/>
</a>
</g>
<text xml:space="preserve" text-anchor="start" x="299.75" y="-564.12" font-family="Helvetica,sans-Serif" font-size="10.00" fill="grey">+startPosition</text>
</g>
<!-- Node14 -->
<g id="Node000014" class="node">
<title>Node14</title>
<g id="a_Node000014"><a xlink:href="structrtp_1_1server_1_1PowerupEvent.html" target="_top" xlink:title=" ">
<polygon fill="white" stroke="none" points="627,-518.5 505,-518.5 505,-423 627,-423 627,-518.5"/>
<text xml:space="preserve" text-anchor="start" x="509" y="-505" font-family="Helvetica,sans-Serif" font-size="10.00">rtp::server::PowerupEvent</text>
<text xml:space="preserve" text-anchor="start" x="526.38" y="-489.75" font-family="Helvetica,sans-Serif" font-size="10.00">+</text>
<text xml:space="preserve" text-anchor="start" x="553.75" y="-489.75" font-family="Helvetica,sans-Serif" font-size="10.00">atTime</text>
<text xml:space="preserve" text-anchor="start" x="526.38" y="-474.5" font-family="Helvetica,sans-Serif" font-size="10.00">+</text>
<text xml:space="preserve" text-anchor="start" x="553.75" y="-474.5" font-family="Helvetica,sans-Serif" font-size="10.00">type</text>
<text xml:space="preserve" text-anchor="start" x="526.38" y="-459.25" font-family="Helvetica,sans-Serif" font-size="10.00">+</text>
<text xml:space="preserve" text-anchor="start" x="553.75" y="-459.25" font-family="Helvetica,sans-Serif" font-size="10.00">value</text>
<text xml:space="preserve" text-anchor="start" x="526.38" y="-444" font-family="Helvetica,sans-Serif" font-size="10.00">+</text>
<text xml:space="preserve" text-anchor="start" x="553.75" y="-444" font-family="Helvetica,sans-Serif" font-size="10.00">duration</text>
<text xml:space="preserve" text-anchor="start" x="564.5" y="-428.75" font-family="Helvetica,sans-Serif" font-size="10.00"> </text>
<polygon fill="#666666" stroke="#666666" points="505,-501.25 505,-501.25 627,-501.25 627,-501.25 505,-501.25"/>
<polygon fill="#666666" stroke="#666666" points="505,-440.25 505,-440.25 551.75,-440.25 551.75,-440.25 505,-440.25"/>
<polygon fill="#666666" stroke="#666666" points="551.75,-440.25 551.75,-440.25 627,-440.25 627,-440.25 551.75,-440.25"/>
<polygon fill="none" stroke="#666666" points="505,-423 505,-518.5 627,-518.5 627,-423 505,-423"/>
</a>
</g>
</g>
<!-- Node5&#45;&gt;Node14 -->
<g id="edge17_Node000014_Node000005" class="edge">
<title>Node5&#45;&gt;Node14</title>
<g id="a_edge17_Node000014_Node000005"><a xlink:title=" ">
<path fill="none" stroke="#63b8ff" d="M370,-630.28C405.51,-601.56 457.04,-559.88 498.35,-526.46"/>
<polygon fill="none" stroke="#63b8ff" points="498.32,-526.49 500.47,-519.61 507.65,-518.95 505.5,-525.83 498.32,-526.49"/>
</a>
</g>
<text xml:space="preserve" text-anchor="start" x="464.25" y="-564.12" font-family="Helvetica,sans-Serif" font-size="10.00" fill="grey">+position</text>
</g>
<!-- Node16 -->
<g id="Node000016" class="node">
<title>Node16</title>
<g id="a_Node000016"><a xlink:href="structrtp_1_1server_1_1ObstacleEvent.html" target="_top" xlink:title=" ">
<polygon fill="white" stroke="none" points="826.38,-510.88 703.62,-510.88 703.62,-430.62 826.38,-430.62 826.38,-510.88"/>
<text xml:space="preserve" text-anchor="start" x="707.62" y="-497.38" font-family="Helvetica,sans-Serif" font-size="10.00">rtp::server::ObstacleEvent</text>
<text xml:space="preserve" text-anchor="start" x="726.31" y="-482.12" font-family="Helvetica,sans-Serif" font-size="10.00">+</text>
<text xml:space="preserve" text-anchor="start" x="755" y="-482.12" font-family="Helvetica,sans-Serif" font-size="10.00">atTime</text>
<text xml:space="preserve" text-anchor="start" x="726.31" y="-466.88" font-family="Helvetica,sans-Serif" font-size="10.00">+</text>
<text xml:space="preserve" text-anchor="start" x="755" y="-466.88" font-family="Helvetica,sans-Serif" font-size="10.00">health</text>
<text xml:space="preserve" text-anchor="start" x="726.31" y="-451.62" font-family="Helvetica,sans-Serif" font-size="10.00">+</text>
<text xml:space="preserve" text-anchor="start" x="755" y="-451.62" font-family="Helvetica,sans-Serif" font-size="10.00">type</text>
<text xml:space="preserve" text-anchor="start" x="763.5" y="-436.38" font-family="Helvetica,sans-Serif" font-size="10.00"> </text>
<polygon fill="#666666" stroke="#666666" points="703.62,-493.62 703.62,-493.62 826.38,-493.62 826.38,-493.62 703.62,-493.62"/>
<polygon fill="#666666" stroke="#666666" points="703.62,-447.88 703.62,-447.88 753,-447.88 753,-447.88 703.62,-447.88"/>
<polygon fill="#666666" stroke="#666666" points="753,-447.88 753,-447.88 826.38,-447.88 826.38,-447.88 753,-447.88"/>
<polygon fill="none" stroke="#666666" points="703.62,-430.62 703.62,-510.88 826.38,-510.88 826.38,-430.62 703.62,-430.62"/>
</a>
</g>
</g>
<!-- Node5&#45;&gt;Node16 -->
<g id="edge21_Node000016_Node000005" class="edge">
<title>Node5&#45;&gt;Node16</title>
<g id="a_edge21_Node000016_Node000005"><a xlink:title=" ">
<path fill="none" stroke="#63b8ff" d="M370.12,-647.14C429.69,-622.78 541.8,-576.32 636,-533.75 654.38,-525.44 674.08,-516.17 692.41,-507.38"/>
<polygon fill="none" stroke="#63b8ff" points="692.3,-507.43 695.97,-501.22 703.11,-502.22 699.44,-508.43 692.3,-507.43"/>
</a>
</g>
<text xml:space="preserve" text-anchor="start" x="597.45" y="-571.75" font-family="Helvetica,sans-Serif" font-size="10.00" fill="grey">+position</text>
<text xml:space="preserve" text-anchor="start" x="597.45" y="-556.5" font-family="Helvetica,sans-Serif" font-size="10.00" fill="grey">+size</text>
</g>
<!-- Node6 -->
<g id="Node000006" class="node">
<title>Node6</title>
<g id="a_Node000006"><a xlink:href="structrtp_1_1details_1_1VecBase.html" target="_top" xlink:title=" ">
<polygon fill="white" stroke="none" points="363.75,-1189.5 264.25,-1189.5 264.25,-960.75 363.75,-960.75 363.75,-1189.5"/>
<text xml:space="preserve" text-anchor="start" x="268.25" y="-1176" font-family="Helvetica,sans-Serif" font-size="10.00">rtp::details::VecBase</text>
<text xml:space="preserve" text-anchor="start" x="297.12" y="-1164.75" font-family="Helvetica,sans-Serif" font-size="10.00">&lt; T, 2 &gt;</text>
<text xml:space="preserve" text-anchor="start" x="312.5" y="-1149.5" font-family="Helvetica,sans-Serif" font-size="10.00"> </text>
<text xml:space="preserve" text-anchor="start" x="268.75" y="-1134.25" font-family="Helvetica,sans-Serif" font-size="10.00">+</text>
<text xml:space="preserve" text-anchor="start" x="279.25" y="-1134.25" font-family="Helvetica,sans-Serif" font-size="10.00">squaredDistance()</text>
<text xml:space="preserve" text-anchor="start" x="268.75" y="-1119" font-family="Helvetica,sans-Serif" font-size="10.00">+</text>
<text xml:space="preserve" text-anchor="start" x="279.25" y="-1119" font-family="Helvetica,sans-Serif" font-size="10.00">distance()</text>
<text xml:space="preserve" text-anchor="start" x="268.75" y="-1103.75" font-family="Helvetica,sans-Serif" font-size="10.00">+</text>
<text xml:space="preserve" text-anchor="start" x="279.25" y="-1103.75" font-family="Helvetica,sans-Serif" font-size="10.00">squaredLength()</text>
<text xml:space="preserve" text-anchor="start" x="268.75" y="-1088.5" font-family="Helvetica,sans-Serif" font-size="10.00">+</text>
<text xml:space="preserve" text-anchor="start" x="279.25" y="-1088.5" font-family="Helvetica,sans-Serif" font-size="10.00">length()</text>
<text xml:space="preserve" text-anchor="start" x="268.75" y="-1073.25" font-family="Helvetica,sans-Serif" font-size="10.00">+</text>
<text xml:space="preserve" text-anchor="start" x="279.25" y="-1073.25" font-family="Helvetica,sans-Serif" font-size="10.00">normalize()</text>
<text xml:space="preserve" text-anchor="start" x="268.75" y="-1058" font-family="Helvetica,sans-Serif" font-size="10.00">+</text>
<text xml:space="preserve" text-anchor="start" x="279.25" y="-1058" font-family="Helvetica,sans-Serif" font-size="10.00">normalized()</text>
<text xml:space="preserve" text-anchor="start" x="268.75" y="-1042.75" font-family="Helvetica,sans-Serif" font-size="10.00">+</text>
<text xml:space="preserve" text-anchor="start" x="279.25" y="-1042.75" font-family="Helvetica,sans-Serif" font-size="10.00">dot()</text>
<text xml:space="preserve" text-anchor="start" x="268.75" y="-1027.5" font-family="Helvetica,sans-Serif" font-size="10.00">+</text>
<text xml:space="preserve" text-anchor="start" x="279.25" y="-1027.5" font-family="Helvetica,sans-Serif" font-size="10.00">project()</text>
<text xml:space="preserve" text-anchor="start" x="268.75" y="-1012.25" font-family="Helvetica,sans-Serif" font-size="10.00">+</text>
<text xml:space="preserve" text-anchor="start" x="279.25" y="-1012.25" font-family="Helvetica,sans-Serif" font-size="10.00">operator+=()</text>
<text xml:space="preserve" text-anchor="start" x="268.75" y="-997" font-family="Helvetica,sans-Serif" font-size="10.00">+</text>
<text xml:space="preserve" text-anchor="start" x="279.25" y="-997" font-family="Helvetica,sans-Serif" font-size="10.00">operator&#45;=()</text>
<text xml:space="preserve" text-anchor="start" x="268.75" y="-981.75" font-family="Helvetica,sans-Serif" font-size="10.00">+</text>
<text xml:space="preserve" text-anchor="start" x="279.25" y="-981.75" font-family="Helvetica,sans-Serif" font-size="10.00">operator*=()</text>
<text xml:space="preserve" text-anchor="start" x="268.75" y="-966.5" font-family="Helvetica,sans-Serif" font-size="10.00">+</text>
<text xml:space="preserve" text-anchor="start" x="279.25" y="-966.5" font-family="Helvetica,sans-Serif" font-size="10.00">operator/=()</text>
<polygon fill="#666666" stroke="#666666" points="264.25,-1161 264.25,-1161 363.75,-1161 363.75,-1161 264.25,-1161"/>
<polygon fill="#666666" stroke="#666666" points="264.25,-1145.75 264.25,-1145.75 363.75,-1145.75 363.75,-1145.75 264.25,-1145.75"/>
<polygon fill="none" stroke="#666666" points="264.25,-960.75 264.25,-1189.5 363.75,-1189.5 363.75,-960.75 264.25,-960.75"/>
</a>
</g>
</g>
<!-- Node6&#45;&gt;Node5 -->
<g id="edge5_Node000005_Node000006" class="edge">
<title>Node6&#45;&gt;Node5</title>
<g id="a_edge5_Node000005_Node000006"><a xlink:title=" ">
<path fill="none" stroke="#63b8ff" d="M313.7,-949.52C314.1,-897.55 315.24,-836.58 318,-781.5 318.87,-764.15 320.29,-745.37 321.8,-728.1"/>
<polygon fill="none" stroke="#63b8ff" points="310.2,-949.27 313.64,-959.3 317.2,-949.32 310.2,-949.27"/>
</a>
</g>
</g>
<!-- Node8 -->
<g id="Node000008" class="node">
<title>Node8</title>
<g id="a_Node000008"><a xlink:href="structrtp_1_1Vec2.html" target="_top" xlink:title="A 2&#45;dimensional vector.">
<polygon fill="white" stroke="none" points="398.88,-892.25 327.12,-892.25 327.12,-781.5 398.88,-781.5 398.88,-892.25"/>
<text xml:space="preserve" text-anchor="start" x="331.12" y="-878.75" font-family="Helvetica,sans-Serif" font-size="10.00">rtp::Vec2&lt; T &gt;</text>
<text xml:space="preserve" text-anchor="start" x="361.5" y="-863.5" font-family="Helvetica,sans-Serif" font-size="10.00"> </text>
<text xml:space="preserve" text-anchor="start" x="331.25" y="-848.25" font-family="Helvetica,sans-Serif" font-size="10.00">+</text>
<text xml:space="preserve" text-anchor="start" x="341.38" y="-848.25" font-family="Helvetica,sans-Serif" font-size="10.00">Vec2()</text>
<text xml:space="preserve" text-anchor="start" x="331.25" y="-833" font-family="Helvetica,sans-Serif" font-size="10.00">+</text>
<text xml:space="preserve" text-anchor="start" x="341.38" y="-833" font-family="Helvetica,sans-Serif" font-size="10.00">Vec2()</text>
<text xml:space="preserve" text-anchor="start" x="331.25" y="-817.75" font-family="Helvetica,sans-Serif" font-size="10.00">+</text>
<text xml:space="preserve" text-anchor="start" x="341.38" y="-817.75" font-family="Helvetica,sans-Serif" font-size="10.00">~Vec2()</text>
<text xml:space="preserve" text-anchor="start" x="331.25" y="-802.5" font-family="Helvetica,sans-Serif" font-size="10.00">+</text>
<text xml:space="preserve" text-anchor="start" x="341.38" y="-802.5" font-family="Helvetica,sans-Serif" font-size="10.00">operator==()</text>
<text xml:space="preserve" text-anchor="start" x="331.25" y="-787.25" font-family="Helvetica,sans-Serif" font-size="10.00">+</text>
<text xml:space="preserve" text-anchor="start" x="341.38" y="-787.25" font-family="Helvetica,sans-Serif" font-size="10.00">operator[]()</text>
<polygon fill="#666666" stroke="#666666" points="327.12,-875 327.12,-875 398.88,-875 398.88,-875 327.12,-875"/>
<polygon fill="#666666" stroke="#666666" points="327.12,-859.75 327.12,-859.75 398.88,-859.75 398.88,-859.75 327.12,-859.75"/>
<polygon fill="none" stroke="#666666" points="327.12,-781.5 327.12,-892.25 398.88,-892.25 398.88,-781.5 327.12,-781.5"/>
</a>
</g>
</g>
<!-- Node6&#45;&gt;Node8 -->
<g id="edge8_Node000008_Node000006" class="edge">
<title>Node6&#45;&gt;Node8</title>
<g id="a_edge8_Node000008_Node000006"><a xlink:title=" ">
<path fill="none" stroke="#63b8ff" d="M339.82,-949.63C344.01,-929.45 348.14,-909.53 351.73,-892.22"/>
<polygon fill="none" stroke="#63b8ff" points="336.41,-948.86 337.8,-959.36 343.26,-950.28 336.41,-948.86"/>
</a>
</g>
</g>
<!-- Node7 -->
<g id="Node000007" class="node">
<title>Node7</title>
<g id="a_Node000007"><a xlink:href="structrtp_1_1details_1_1VecBase.html" target="_top" xlink:title="CRTP base class for vectors.">
<polygon fill="white" stroke="none" points="363.75,-1456.25 264.25,-1456.25 264.25,-1242.75 363.75,-1242.75 363.75,-1456.25"/>
<text xml:space="preserve" text-anchor="start" x="268.25" y="-1442.75" font-family="Helvetica,sans-Serif" font-size="10.00">rtp::details::VecBase</text>
<text xml:space="preserve" text-anchor="start" x="296" y="-1431.5" font-family="Helvetica,sans-Serif" font-size="10.00">&lt; T, N &gt;</text>
<text xml:space="preserve" text-anchor="start" x="312.5" y="-1416.25" font-family="Helvetica,sans-Serif" font-size="10.00"> </text>
<text xml:space="preserve" text-anchor="start" x="268.75" y="-1401" font-family="Helvetica,sans-Serif" font-size="10.00">+</text>
<text xml:space="preserve" text-anchor="start" x="279.25" y="-1401" font-family="Helvetica,sans-Serif" font-size="10.00">squaredDistance()</text>
<text xml:space="preserve" text-anchor="start" x="268.75" y="-1385.75" font-family="Helvetica,sans-Serif" font-size="10.00">+</text>
<text xml:space="preserve" text-anchor="start" x="279.25" y="-1385.75" font-family="Helvetica,sans-Serif" font-size="10.00">distance()</text>
<text xml:space="preserve" text-anchor="start" x="268.75" y="-1370.5" font-family="Helvetica,sans-Serif" font-size="10.00">+</text>
<text xml:space="preserve" text-anchor="start" x="279.25" y="-1370.5" font-family="Helvetica,sans-Serif" font-size="10.00">squaredLength()</text>
<text xml:space="preserve" text-anchor="start" x="268.75" y="-1355.25" font-family="Helvetica,sans-Serif" font-size="10.00">+</text>
<text xml:space="preserve" text-anchor="start" x="279.25" y="-1355.25" font-family="Helvetica,sans-Serif" font-size="10.00">length()</text>
<text xml:space="preserve" text-anchor="start" x="268.75" y="-1340" font-family="Helvetica,sans-Serif" font-size="10.00">+</text>
<text xml:space="preserve" text-anchor="start" x="279.25" y="-1340" font-family="Helvetica,sans-Serif" font-size="10.00">normalize()</text>
<text xml:space="preserve" text-anchor="start" x="268.75" y="-1324.75" font-family="Helvetica,sans-Serif" font-size="10.00">+</text>
<text xml:space="preserve" text-anchor="start" x="279.25" y="-1324.75" font-family="Helvetica,sans-Serif" font-size="10.00">normalized()</text>
<text xml:space="preserve" text-anchor="start" x="268.75" y="-1309.5" font-family="Helvetica,sans-Serif" font-size="10.00">+</text>
<text xml:space="preserve" text-anchor="start" x="279.25" y="-1309.5" font-family="Helvetica,sans-Serif" font-size="10.00">dot()</text>
<text xml:space="preserve" text-anchor="start" x="268.75" y="-1294.25" font-family="Helvetica,sans-Serif" font-size="10.00">+</text>
<text xml:space="preserve" text-anchor="start" x="279.25" y="-1294.25" font-family="Helvetica,sans-Serif" font-size="10.00">project()</text>
<text xml:space="preserve" text-anchor="start" x="268.75" y="-1279" font-family="Helvetica,sans-Serif" font-size="10.00">+</text>
<text xml:space="preserve" text-anchor="start" x="279.25" y="-1279" font-family="Helvetica,sans-Serif" font-size="10.00">operator+=()</text>
<text xml:space="preserve" text-anchor="start" x="268.75" y="-1263.75" font-family="Helvetica,sans-Serif" font-size="10.00">+</text>
<text xml:space="preserve" text-anchor="start" x="279.25" y="-1263.75" font-family="Helvetica,sans-Serif" font-size="10.00">operator&#45;=()</text>
<text xml:space="preserve" text-anchor="start" x="279.25" y="-1248.5" font-family="Helvetica,sans-Serif" font-size="10.00">and 6 more...</text>
<polygon fill="#666666" stroke="#666666" points="264.25,-1427.75 264.25,-1427.75 363.75,-1427.75 363.75,-1427.75 264.25,-1427.75"/>
<polygon fill="#666666" stroke="#666666" points="264.25,-1412.5 264.25,-1412.5 363.75,-1412.5 363.75,-1412.5 264.25,-1412.5"/>
<polygon fill="none" stroke="#666666" points="264.25,-1242.75 264.25,-1456.25 363.75,-1456.25 363.75,-1242.75 264.25,-1242.75"/>
</a>
</g>
</g>
<!-- Node7&#45;&gt;Node6 -->
<g id="edge6_Node000006_Node000007" class="edge">
<title>Node7&#45;&gt;Node6</title>
<g id="a_edge6_Node000006_Node000007"><a xlink:title=" ">
<path fill="none" stroke="orange" d="M314,-1231.65C314,-1217.65 314,-1203.38 314,-1189.43"/>
<polygon fill="orange" stroke="orange" points="310.5,-1231.29 314,-1241.29 317.5,-1231.29 310.5,-1231.29"/>
</a>
</g>
<text xml:space="preserve" text-anchor="start" x="317" y="-1212.25" font-family="Helvetica,sans-Serif" font-size="10.00" fill="grey">&lt; T, 2 &gt;</text>
</g>
<!-- Node8&#45;&gt;Node5 -->
<g id="edge7_Node000005_Node000008" class="edge">
<title>Node8&#45;&gt;Node5</title>
<g id="a_edge7_Node000005_Node000008"><a xlink:title=" ">
<path fill="none" stroke="orange" d="M349.56,-770.72C346.67,-756.73 343.63,-741.99 340.77,-728.13"/>
<polygon fill="orange" stroke="orange" points="346.08,-771.17 351.52,-780.26 352.93,-769.75 346.08,-771.17"/>
</a>
</g>
<text xml:space="preserve" text-anchor="start" x="350.6" y="-751" font-family="Helvetica,sans-Serif" font-size="10.00" fill="grey">&lt; float &gt;</text>
</g>
<!-- Node9 -->
<g id="Node000009" class="node">
<title>Node9</title>
<g id="a_Node000009"><a xlink:title=" ">
<polygon fill="white" stroke="none" points="415,-1100 401,-1100 401,-1050.25 415,-1050.25 415,-1100"/>
<text xml:space="preserve" text-anchor="start" x="405" y="-1086.5" font-family="Helvetica,sans-Serif" font-size="10.00">T</text>
<text xml:space="preserve" text-anchor="start" x="406.5" y="-1071.25" font-family="Helvetica,sans-Serif" font-size="10.00"> </text>
<text xml:space="preserve" text-anchor="start" x="406.5" y="-1056" font-family="Helvetica,sans-Serif" font-size="10.00"> </text>
<polygon fill="#666666" stroke="#666666" points="401,-1082.75 401,-1082.75 415,-1082.75 415,-1082.75 401,-1082.75"/>
<polygon fill="#666666" stroke="#666666" points="401,-1067.5 401,-1067.5 415,-1067.5 415,-1067.5 401,-1067.5"/>
<polygon fill="none" stroke="#666666" points="401,-1050.25 401,-1100 415,-1100 415,-1050.25 401,-1050.25"/>
</a>
</g>
</g>
<!-- Node9&#45;&gt;Node8 -->
<g id="edge9_Node000008_Node000009" class="edge">
<title>Node9&#45;&gt;Node8</title>
<g id="a_edge9_Node000008_Node000009"><a xlink:title=" ">
<path fill="none" stroke="#63b8ff" d="M403.52,-1050.61C397.09,-1016.86 385,-953.38 375.69,-904.51"/>
<polygon fill="none" stroke="#63b8ff" points="375.68,-904.47 370.63,-899.32 373.44,-892.68 378.49,-897.82 375.68,-904.47"/>
</a>
</g>
<text xml:space="preserve" text-anchor="start" x="385.81" y="-930.25" font-family="Helvetica,sans-Serif" font-size="10.00" fill="grey">+x</text>
<text xml:space="preserve" text-anchor="start" x="385.81" y="-915" font-family="Helvetica,sans-Serif" font-size="10.00" fill="grey">+y</text>
</g>
<!-- Node12 -->
<g id="Node000012" class="node">
<title>Node12</title>
<g id="a_Node000012"><a xlink:title=" ">
<polygon fill="white" stroke="none" points="466.25,-495.62 387.75,-495.62 387.75,-445.88 466.25,-445.88 466.25,-495.62"/>
<text xml:space="preserve" text-anchor="start" x="391.75" y="-482.12" font-family="Helvetica,sans-Serif" font-size="10.00">std::vector&lt; T &gt;</text>
<text xml:space="preserve" text-anchor="start" x="425.5" y="-466.88" font-family="Helvetica,sans-Serif" font-size="10.00"> </text>
<text xml:space="preserve" text-anchor="start" x="425.5" y="-451.62" font-family="Helvetica,sans-Serif" font-size="10.00"> </text>
<polygon fill="#666666" stroke="#666666" points="387.75,-478.38 387.75,-478.38 466.25,-478.38 466.25,-478.38 387.75,-478.38"/>
<polygon fill="#666666" stroke="#666666" points="387.75,-463.12 387.75,-463.12 466.25,-463.12 466.25,-463.12 387.75,-463.12"/>
<polygon fill="none" stroke="#666666" points="387.75,-445.88 387.75,-495.62 466.25,-495.62 466.25,-445.88 387.75,-445.88"/>
</a>
</g>
</g>
<!-- Node9&#45;&gt;Node12 -->
<g id="edge14_Node000012_Node000009" class="edge">
<title>Node9&#45;&gt;Node12</title>
<g id="a_edge14_Node000012_Node000009"><a xlink:title=" ">
<path fill="none" stroke="#63b8ff" d="M408.74,-1050.51C411.66,-958.11 422.3,-620.66 425.85,-508.37"/>
<polygon fill="none" stroke="#63b8ff" points="425.84,-508.42 422.03,-502.3 426.22,-496.43 430.03,-502.55 425.84,-508.42"/>
</a>
</g>
<text xml:space="preserve" text-anchor="start" x="421.16" y="-751" font-family="Helvetica,sans-Serif" font-size="10.00" fill="grey">+elements</text>
</g>
<!-- Node10 -->
<g id="Node000010" class="node">
<title>Node10</title>
<g id="a_Node000010"><a xlink:title=" ">
<polygon fill="white" stroke="none" points="289.88,-354.5 182.12,-354.5 182.12,-293.5 289.88,-293.5 289.88,-354.5"/>
<text xml:space="preserve" text-anchor="start" x="186.12" y="-341" font-family="Helvetica,sans-Serif" font-size="10.00">std::vector&lt; rtp::server</text>
<text xml:space="preserve" text-anchor="start" x="200.75" y="-329.75" font-family="Helvetica,sans-Serif" font-size="10.00">::SpawnEvent &gt;</text>
<text xml:space="preserve" text-anchor="start" x="234.5" y="-314.5" font-family="Helvetica,sans-Serif" font-size="10.00"> </text>
<text xml:space="preserve" text-anchor="start" x="234.5" y="-299.25" font-family="Helvetica,sans-Serif" font-size="10.00"> </text>
<polygon fill="#666666" stroke="#666666" points="182.12,-326 182.12,-326 289.88,-326 289.88,-326 182.12,-326"/>
<polygon fill="#666666" stroke="#666666" points="182.12,-310.75 182.12,-310.75 289.88,-310.75 289.88,-310.75 182.12,-310.75"/>
<polygon fill="none" stroke="#666666" points="182.12,-293.5 182.12,-354.5 289.88,-354.5 289.88,-293.5 182.12,-293.5"/>
</a>
</g>
</g>
<!-- Node10&#45;&gt;Node2 -->
<g id="edge10_Node000002_Node000010" class="edge">
<title>Node10&#45;&gt;Node2</title>
<g id="a_edge10_Node000002_Node000010"><a xlink:title=" ">
<path fill="none" stroke="#63b8ff" d="M236,-293.61C236,-277.04 236,-256.01 236,-237.5"/>
<polygon fill="none" stroke="#63b8ff" points="236,-237.48 232,-231.48 236,-225.48 240,-231.48 236,-237.48"/>
</a>
</g>
<text xml:space="preserve" text-anchor="start" x="239" y="-255.38" font-family="Helvetica,sans-Serif" font-size="10.00" fill="grey">+spawns</text>
</g>
<!-- Node11&#45;&gt;Node10 -->
<g id="edge11_Node000010_Node000011" class="edge">
<title>Node11&#45;&gt;Node10</title>
<g id="a_edge11_Node000010_Node000011"><a xlink:title=" ">
<path fill="none" stroke="#63b8ff" d="M207.9,-407.93C204.85,-402.01 202.21,-395.92 200.25,-389.75 197.66,-381.63 198.82,-373.36 201.96,-365.57"/>
<polygon fill="none" stroke="#63b8ff" points="201.95,-365.59 201.24,-358.41 207.59,-354.99 208.3,-362.17 201.95,-365.59"/>
</a>
</g>
<text xml:space="preserve" text-anchor="start" x="203.25" y="-377.25" font-family="Helvetica,sans-Serif" font-size="10.00" fill="grey">+elements</text>
</g>
<!-- Node12&#45;&gt;Node10 -->
<g id="edge13_Node000010_Node000012" class="edge">
<title>Node12&#45;&gt;Node10</title>
<g id="a_edge13_Node000010_Node000012"><a xlink:title=" ">
<path fill="none" stroke="orange" d="M378.59,-440.91C340.7,-418.32 294.23,-390.57 293.25,-389.75 280.67,-379.3 268.42,-366.01 258.5,-354.2"/>
<polygon fill="orange" stroke="orange" points="376.33,-443.63 386.71,-445.75 379.91,-437.62 376.33,-443.63"/>
</a>
</g>
<text xml:space="preserve" text-anchor="start" x="296.25" y="-377.25" font-family="Helvetica,sans-Serif" font-size="10.00" fill="grey">&lt; rtp::server::SpawnEvent &gt;</text>
</g>
<!-- Node13 -->
<g id="Node000013" class="node">
<title>Node13</title>
<g id="a_Node000013"><a xlink:title=" ">
<polygon fill="white" stroke="none" points="480.88,-354.5 373.12,-354.5 373.12,-293.5 480.88,-293.5 480.88,-354.5"/>
<text xml:space="preserve" text-anchor="start" x="377.12" y="-341" font-family="Helvetica,sans-Serif" font-size="10.00">std::vector&lt; rtp::server</text>
<text xml:space="preserve" text-anchor="start" x="387.62" y="-329.75" font-family="Helvetica,sans-Serif" font-size="10.00">::PowerupEvent &gt;</text>
<text xml:space="preserve" text-anchor="start" x="425.5" y="-314.5" font-family="Helvetica,sans-Serif" font-size="10.00"> </text>
<text xml:space="preserve" text-anchor="start" x="425.5" y="-299.25" font-family="Helvetica,sans-Serif" font-size="10.00"> </text>
<polygon fill="#666666" stroke="#666666" points="373.12,-326 373.12,-326 480.88,-326 480.88,-326 373.12,-326"/>
<polygon fill="#666666" stroke="#666666" points="373.12,-310.75 373.12,-310.75 480.88,-310.75 480.88,-310.75 373.12,-310.75"/>
<polygon fill="none" stroke="#666666" points="373.12,-293.5 373.12,-354.5 480.88,-354.5 480.88,-293.5 373.12,-293.5"/>
</a>
</g>
</g>
<!-- Node12&#45;&gt;Node13 -->
<g id="edge18_Node000013_Node000012" class="edge">
<title>Node12&#45;&gt;Node13</title>
<g id="a_edge18_Node000013_Node000012"><a xlink:title=" ">
<path fill="none" stroke="orange" d="M427,-434.8C427,-410.18 427,-377.59 427,-354.32"/>
<polygon fill="orange" stroke="orange" points="423.5,-434.66 427,-444.66 430.5,-434.66 423.5,-434.66"/>
</a>
</g>
<text xml:space="preserve" text-anchor="start" x="430" y="-377.25" font-family="Helvetica,sans-Serif" font-size="10.00" fill="grey">&lt; rtp::server::PowerupEvent &gt;</text>
</g>
<!-- Node15 -->
<g id="Node000015" class="node">
<title>Node15</title>
<g id="a_Node000015"><a xlink:title=" ">
<polygon fill="white" stroke="none" points="716.88,-354.5 609.12,-354.5 609.12,-293.5 716.88,-293.5 716.88,-354.5"/>
<text xml:space="preserve" text-anchor="start" x="613.12" y="-341" font-family="Helvetica,sans-Serif" font-size="10.00">std::vector&lt; rtp::server</text>
<text xml:space="preserve" text-anchor="start" x="623.25" y="-329.75" font-family="Helvetica,sans-Serif" font-size="10.00">::ObstacleEvent &gt;</text>
<text xml:space="preserve" text-anchor="start" x="661.5" y="-314.5" font-family="Helvetica,sans-Serif" font-size="10.00"> </text>
<text xml:space="preserve" text-anchor="start" x="661.5" y="-299.25" font-family="Helvetica,sans-Serif" font-size="10.00"> </text>
<polygon fill="#666666" stroke="#666666" points="609.12,-326 609.12,-326 716.88,-326 716.88,-326 609.12,-326"/>
<polygon fill="#666666" stroke="#666666" points="609.12,-310.75 609.12,-310.75 716.88,-310.75 716.88,-310.75 609.12,-310.75"/>
<polygon fill="none" stroke="#666666" points="609.12,-293.5 609.12,-354.5 716.88,-354.5 716.88,-293.5 609.12,-293.5"/>
</a>
</g>
</g>
<!-- Node12&#45;&gt;Node15 -->
<g id="edge22_Node000015_Node000012" class="edge">
<title>Node12&#45;&gt;Node15</title>
<g id="a_edge22_Node000015_Node000012"><a xlink:title=" ">
<path fill="none" stroke="orange" d="M454.54,-438.02C466.17,-426.64 480.59,-414.87 496,-407.75 550.55,-382.55 580.97,-424.49 630,-389.75 641.94,-381.29 649.84,-367.2 654.9,-354.32"/>
<polygon fill="orange" stroke="orange" points="452.12,-435.48 447.65,-445.08 457.13,-440.37 452.12,-435.48"/>
</a>
</g>
<text xml:space="preserve" text-anchor="start" x="648.75" y="-377.25" font-family="Helvetica,sans-Serif" font-size="10.00" fill="grey">&lt; rtp::server::ObstacleEvent &gt;</text>
</g>
<!-- Node13&#45;&gt;Node2 -->
<g id="edge15_Node000002_Node000013" class="edge">
<title>Node13&#45;&gt;Node2</title>
<g id="a_edge15_Node000002_Node000013"><a xlink:title=" ">
<path fill="none" stroke="#63b8ff" d="M383.66,-293.61C356.7,-275.34 321.75,-251.64 292.61,-231.88"/>
<polygon fill="none" stroke="#63b8ff" points="292.85,-232.04 285.64,-231.99 282.92,-225.31 290.13,-225.37 292.85,-232.04"/>
</a>
</g>
<text xml:space="preserve" text-anchor="start" x="357.22" y="-255.38" font-family="Helvetica,sans-Serif" font-size="10.00" fill="grey">+powerups</text>
</g>
<!-- Node14&#45;&gt;Node13 -->
<g id="edge16_Node000013_Node000014" class="edge">
<title>Node14&#45;&gt;Node13</title>
<g id="a_edge16_Node000013_Node000014"><a xlink:title=" ">
<path fill="none" stroke="#63b8ff" d="M576.76,-423.21C578.16,-405.87 576.31,-386.92 566,-372.5 549.35,-349.22 520.59,-337.22 493.53,-331.09"/>
<polygon fill="none" stroke="#63b8ff" points="493.52,-331.09 486.86,-333.85 481.74,-328.77 488.4,-326 493.52,-331.09"/>
</a>
</g>
<text xml:space="preserve" text-anchor="start" x="576.81" y="-377.25" font-family="Helvetica,sans-Serif" font-size="10.00" fill="grey">+elements</text>
</g>
<!-- Node15&#45;&gt;Node2 -->
<g id="edge19_Node000002_Node000015" class="edge">
<title>Node15&#45;&gt;Node2</title>
<g id="a_edge19_Node000002_Node000015"><a xlink:title=" ">
<path fill="none" stroke="#63b8ff" d="M609.31,-305.3C558.6,-288.72 480.34,-263.5 412,-243 374.8,-231.84 332.95,-220.04 299.39,-210.76"/>
<polygon fill="none" stroke="#63b8ff" points="299.4,-210.77 292.56,-213.03 287.83,-207.58 294.68,-205.31 299.4,-210.77"/>
</a>
</g>
<text xml:space="preserve" text-anchor="start" x="518.67" y="-255.38" font-family="Helvetica,sans-Serif" font-size="10.00" fill="grey">+obstacles</text>
</g>
<!-- Node16&#45;&gt;Node15 -->
<g id="edge20_Node000015_Node000016" class="edge">
<title>Node16&#45;&gt;Node15</title>
<g id="a_edge20_Node000015_Node000016"><a xlink:title=" ">
<path fill="none" stroke="#63b8ff" d="M796.8,-431.07C808.24,-412.28 815.57,-390.03 803,-372.5 786.01,-348.8 756.54,-336.78 729,-330.74"/>
<polygon fill="none" stroke="#63b8ff" points="729.2,-330.78 722.56,-333.59 717.42,-328.54 724.06,-325.73 729.2,-330.78"/>
</a>
</g>
<text xml:space="preserve" text-anchor="start" x="812.37" y="-377.25" font-family="Helvetica,sans-Serif" font-size="10.00" fill="grey">+elements</text>
</g>
</g>
</svg>
