<?xml version="1.0" encoding="UTF-8" standalone="no"?>
<!DOCTYPE svg PUBLIC "-//W3C//DTD SVG 1.1//EN"
 "http://www.w3.org/Graphics/SVG/1.1/DTD/svg11.dtd">
<!-- Generated by graphviz version 14.0.5 (20251129.0259)
 -->
<!-- Title: common/include/RType/ECS/SystemManager.hpp Pages: 1 -->
<svg width="407pt" height="160pt"
 viewBox="0.00 0.00 407.00 160.00" xmlns="http://www.w3.org/2000/svg" xmlns:xlink="http://www.w3.org/1999/xlink">
<g id="graph0" class="graph" transform="scale(1 1) rotate(0) translate(4 156.25)">
<title>common/include/RType/ECS/SystemManager.hpp</title>
<!-- Node1 -->
<g id="Node000001" class="node">
<title>Node1</title>
<g id="a_Node000001"><a xlink:title="Manager for ECS systems.">
<polygon fill="#999999" stroke="#666666" points="291.88,-152.25 159.62,-152.25 159.62,-121.75 291.88,-121.75 291.88,-152.25"/>
<text xml:space="preserve" text-anchor="start" x="167.62" y="-138.75" font-family="Helvetica,sans-Serif" font-size="10.00">common/include/RType</text>
<text xml:space="preserve" text-anchor="middle" x="225.75" y="-127.5" font-family="Helvetica,sans-Serif" font-size="10.00">/ECS/SystemManager.hpp</text>
</a>
</g>
</g>
<!-- Node2 -->
<g id="Node000002" class="node">
<title>Node2</title>
<g id="a_Node000002"><a xlink:href="Application_8hpp.html" target="_top" xlink:title=" ">
<polygon fill="white" stroke="#666666" points="194.25,-85.75 97.25,-85.75 97.25,-55.25 194.25,-55.25 194.25,-85.75"/>
<text xml:space="preserve" text-anchor="start" x="105.25" y="-72.25" font-family="Helvetica,sans-Serif" font-size="10.00">client/include/Core</text>
<text xml:space="preserve" text-anchor="middle" x="145.75" y="-61" font-family="Helvetica,sans-Serif" font-size="10.00">/Application.hpp</text>
</a>
</g>
</g>
<!-- Node1&#45;&gt;Node2 -->
<g id="edge1_Node000001_Node000002" class="edge">
<title>Node1&#45;&gt;Node2</title>
<g id="a_edge1_Node000001_Node000002"><a xlink:title=" ">
<path fill="none" stroke="#63b8ff" d="M198.8,-114.27C187.28,-104.98 174.15,-94.4 163.83,-86.08"/>
<polygon fill="#63b8ff" stroke="#63b8ff" points="196.44,-116.86 206.42,-120.41 200.83,-111.41 196.44,-116.86"/>
</a>
</g>
</g>
<!-- Node5 -->
<g id="Node000005" class="node">
<title>Node5</title>
<g id="a_Node000005"><a xlink:href="SystemManager_8cpp.html" target="_top" xlink:title=" ">
<polygon fill="white" stroke="#666666" points="398.88,-80.12 212.62,-80.12 212.62,-60.88 398.88,-60.88 398.88,-80.12"/>
<text xml:space="preserve" text-anchor="middle" x="305.75" y="-66.62" font-family="Helvetica,sans-Serif" font-size="10.00">common/src/ECS/SystemManager.cpp</text>
</a>
</g>
</g>
<!-- Node1&#45;&gt;Node5 -->
<g id="edge4_Node000001_Node000005" class="edge">
<title>Node1&#45;&gt;Node5</title>
<g id="a_edge4_Node000001_Node000005"><a xlink:title=" ">
<path fill="none" stroke="#63b8ff" d="M252.48,-114.45C266.92,-102.81 283.96,-89.07 294.81,-80.32"/>
<polygon fill="#63b8ff" stroke="#63b8ff" points="250.67,-111.41 245.08,-120.41 255.06,-116.86 250.67,-111.41"/>
</a>
</g>
</g>
<!-- Node3 -->
<g id="Node000003" class="node">
<title>Node3</title>
<g id="a_Node000003"><a xlink:href="Application_8cpp.html" target="_top" xlink:title=" ">
<polygon fill="white" stroke="#666666" points="149.5,-19.25 0,-19.25 0,0 149.5,0 149.5,-19.25"/>
<text xml:space="preserve" text-anchor="middle" x="74.75" y="-5.75" font-family="Helvetica,sans-Serif" font-size="10.00">client/src/Core/Application.cpp</text>
</a>
</g>
</g>
<!-- Node2&#45;&gt;Node3 -->
<g id="edge2_Node000002_Node000003" class="edge">
<title>Node2&#45;&gt;Node3</title>
<g id="a_edge2_Node000002_Node000003"><a xlink:title=" ">
<path fill="none" stroke="#63b8ff" d="M119.62,-47.83C107.9,-38.12 94.72,-27.19 85.7,-19.7"/>
<polygon fill="#63b8ff" stroke="#63b8ff" points="117.1,-50.29 127.03,-53.98 121.57,-44.9 117.1,-50.29"/>
</a>
</g>
</g>
<!-- Node4 -->
<g id="Node000004" class="node">
<title>Node4</title>
<g id="a_Node000004"><a xlink:href="client_2src_2main_8cpp.html" target="_top" xlink:title=" ">
<polygon fill="white" stroke="#666666" points="266,-19.25 167.5,-19.25 167.5,0 266,0 266,-19.25"/>
<text xml:space="preserve" text-anchor="middle" x="216.75" y="-5.75" font-family="Helvetica,sans-Serif" font-size="10.00">client/src/main.cpp</text>
</a>
</g>
</g>
<!-- Node2&#45;&gt;Node4 -->
<g id="edge3_Node000002_Node000004" class="edge">
<title>Node2&#45;&gt;Node4</title>
<g id="a_edge3_Node000002_Node000004"><a xlink:title=" ">
<path fill="none" stroke="#63b8ff" d="M171.88,-47.83C183.6,-38.12 196.78,-27.19 205.8,-19.7"/>
<polygon fill="#63b8ff" stroke="#63b8ff" points="169.93,-44.9 164.47,-53.98 174.4,-50.29 169.93,-44.9"/>
</a>
</g>
</g>
</g>
</svg>
