<?xml version="1.0" encoding="UTF-8" standalone="no"?>
<!DOCTYPE svg PUBLIC "-//W3C//DTD SVG 1.1//EN"
 "http://www.w3.org/Graphics/SVG/1.1/DTD/svg11.dtd">
<!-- Generated by graphviz version 14.0.5 (20251129.0259)
 -->
<!-- Title: common/include/RType/ECS/Components/UI/TextInput.hpp Pages: 1 -->
<!--zoomable 293 -->

<svg id="main" version="1.1" xmlns="http://www.w3.org/2000/svg" xmlns:xlink="http://www.w3.org/1999/xlink" xml:space="preserve" onload="init(evt)">

<style type="text/css"><![CDATA[
.node, .edge {opacity: 0.7;}
.node.selected, .edge.selected {opacity: 1;}
.edge:hover path { stroke: red; }
.edge:hover polygon { stroke: red; fill: red; }
]]></style>

<defs>
  <circle id="rim" cx="0" cy="0" r="7"/>
  <circle id="rim2" cx="0" cy="0" r="3.5"/>
  <g id="zoomPlus">
    <use xlink:href="#rim" fill="#404040"><set attributeName="fill" to="#808080" begin="zoomplus.mouseover" end="zoomplus.mouseout"/></use>
    <path d="M-4,0h8M0,-4v8" fill="none" stroke="white" stroke-width="1.5" pointer-events="none"/>
  </g>
  <g id="zoomMin">
    <use xlink:href="#rim" fill="#404040"><set attributeName="fill" to="#808080" begin="zoomminus.mouseover" end="zoomminus.mouseout"/></use>
    <path d="M-4,0h8" fill="none" stroke="white" stroke-width="1.5" pointer-events="none"/>
  </g>
  <g id="arrowUp" transform="translate(30 24)">
    <use xlink:href="#rim"/>
    <path pointer-events="none" fill="none" stroke="white" stroke-width="1.5" d="M0,-3.0v7 M-2.5,-0.5L0,-3.0L2.5,-0.5"/>
  </g>
  <g id="arrowRight" transform="rotate(90) translate(36 -43)">
    <use xlink:href="#rim"/>
    <path pointer-events="none" fill="none" stroke="white" stroke-width="1.5" d="M0,-3.0v7 M-2.5,-0.5L0,-3.0L2.5,-0.5"/>
  </g>
  <g id="arrowDown" transform="rotate(180) translate(-30 -48)">
    <use xlink:href="#rim"/>
    <path pointer-events="none" fill="none" stroke="white" stroke-width="1.5" d="M0,-3.0v7 M-2.5,-0.5L0,-3.0L2.5,-0.5"/>
  </g>
  <g id="arrowLeft" transform="rotate(270) translate(-36 17)">
    <use xlink:href="#rim"/>
    <path pointer-events="none" fill="none" stroke="white" stroke-width="1.5" d="M0,-3.0v7 M-2.5,-0.5L0,-3.0L2.5,-0.5"/>
  </g>
  <g id="resetDef">
    <use xlink:href="#rim2" fill="#404040"><set attributeName="fill" to="#808080" begin="reset.mouseover" end="reset.mouseout"/></use>
  </g>
</defs>
<script type="application/ecmascript">
var viewWidth = 2490;
var viewHeight = 293;
var sectionId = 'dynsection-1';
</script>
<script type="application/ecmascript" xlink:href="svg.min.js"/>
<svg id="graph" class="graph">
<g id="viewport">
<title>common/include/RType/ECS/Components/UI/TextInput.hpp</title>
<!-- Node1 -->
<g id="Node000001" class="node">
<title>Node1</title>
<g id="a_Node000001"><a xlink:title=" ">
<polygon fill="#999999" stroke="#666666" points="1963,-285.25 1788.75,-285.25 1788.75,-254.75 1963,-254.75 1963,-285.25"/>
<text xml:space="preserve" text-anchor="start" x="1796.75" y="-271.75" font-family="Helvetica,sans-Serif" font-size="10.00">common/include/RType</text>
<text xml:space="preserve" text-anchor="middle" x="1875.88" y="-260.5" font-family="Helvetica,sans-Serif" font-size="10.00">/ECS/Components/UI/TextInput.hpp</text>
</a>
</g>
</g>
<!-- Node2 -->
<g id="Node000002" class="node">
<title>Node2</title>
<g id="a_Node000002"><a xlink:href="UIRenderSystem_8hpp.html" target="_top" xlink:title=" ">
<polygon fill="white" stroke="#666666" points="357.38,-218.75 242.38,-218.75 242.38,-188.25 357.38,-188.25 357.38,-218.75"/>
<text xml:space="preserve" text-anchor="start" x="250.38" y="-205.25" font-family="Helvetica,sans-Serif" font-size="10.00">client/include/Systems</text>
<text xml:space="preserve" text-anchor="middle" x="299.88" y="-194" font-family="Helvetica,sans-Serif" font-size="10.00">/UIRenderSystem.hpp</text>
</a>
</g>
</g>
<!-- Node1&#45;&gt;Node2 -->
<g id="edge1_Node000001_Node000002" class="edge">
<title>Node1&#45;&gt;Node2</title>
<g id="a_edge1_Node000001_Node000002"><a xlink:title=" ">
<path fill="none" stroke="#63b8ff" d="M1776.78,-265.81C1557.1,-258.61 1012.55,-240.06 556.88,-218.75 488.47,-215.55 409.86,-211.08 357.78,-208"/>
<polygon fill="#63b8ff" stroke="#63b8ff" points="1776.64,-269.31 1786.75,-266.14 1776.87,-262.31 1776.64,-269.31"/>
</a>
</g>
</g>
<!-- Node8 -->
<g id="Node000008" class="node">
<title>Node8</title>
<g id="a_Node000008"><a xlink:href="UISystem_8hpp.html" target="_top" xlink:title=" ">
<polygon fill="white" stroke="#666666" points="680.38,-218.75 565.38,-218.75 565.38,-188.25 680.38,-188.25 680.38,-218.75"/>
<text xml:space="preserve" text-anchor="start" x="573.38" y="-205.25" font-family="Helvetica,sans-Serif" font-size="10.00">client/include/Systems</text>
<text xml:space="preserve" text-anchor="middle" x="622.88" y="-194" font-family="Helvetica,sans-Serif" font-size="10.00">/UISystem.hpp</text>
</a>
</g>
</g>
<!-- Node1&#45;&gt;Node8 -->
<g id="edge7_Node000001_Node000008" class="edge">
<title>Node1&#45;&gt;Node8</title>
<g id="a_edge7_Node000001_Node000008"><a xlink:title=" ">
<path fill="none" stroke="#63b8ff" d="M1777.05,-263.91C1527.58,-251.07 878.2,-217.64 680.7,-207.48"/>
<polygon fill="#63b8ff" stroke="#63b8ff" points="1776.59,-267.39 1786.75,-264.41 1776.95,-260.4 1776.59,-267.39"/>
</a>
</g>
</g>
<!-- Node10 -->
<g id="Node000010" class="node">
<title>Node10</title>
<g id="a_Node000010"><a xlink:href="UiFactory_8hpp.html" target="_top" xlink:title=" ">
<polygon fill="white" stroke="#666666" points="1509.62,-213.12 1360.12,-213.12 1360.12,-193.88 1509.62,-193.88 1509.62,-213.12"/>
<text xml:space="preserve" text-anchor="middle" x="1434.88" y="-199.62" font-family="Helvetica,sans-Serif" font-size="10.00">client/include/UI/UiFactory.hpp</text>
</a>
</g>
</g>
<!-- Node1&#45;&gt;Node10 -->
<g id="edge10_Node000001_Node000010" class="edge">
<title>Node1&#45;&gt;Node10</title>
<g id="a_edge10_Node000001_Node000010"><a xlink:title=" ">
<path fill="none" stroke="#63b8ff" d="M1777.17,-254.56C1691.48,-242.03 1570.03,-224.27 1497.2,-213.62"/>
<polygon fill="#63b8ff" stroke="#63b8ff" points="1776.59,-258.02 1786.99,-256 1777.6,-251.09 1776.59,-258.02"/>
</a>
</g>
</g>
<!-- Node30 -->
<g id="Node000030" class="node">
<title>Node30</title>
<g id="a_Node000030"><a xlink:href="PlayingScene_8cpp.html" target="_top" xlink:title=" ">
<polygon fill="white" stroke="#666666" points="2306.38,-85.75 2179.38,-85.75 2179.38,-55.25 2306.38,-55.25 2306.38,-85.75"/>
<text xml:space="preserve" text-anchor="start" x="2187.38" y="-72.25" font-family="Helvetica,sans-Serif" font-size="10.00">client/src/Scenes/Playing</text>
<text xml:space="preserve" text-anchor="middle" x="2242.88" y="-61" font-family="Helvetica,sans-Serif" font-size="10.00">Scene.cpp</text>
</a>
</g>
</g>
<!-- Node1&#45;&gt;Node30 -->
<g id="edge49_Node000001_Node000030" class="edge">
<title>Node1&#45;&gt;Node30</title>
<g id="a_edge49_Node000001_Node000030"><a xlink:title=" ">
<path fill="none" stroke="#63b8ff" d="M1974.38,-255.67C2086.65,-238.22 2259.72,-203.67 2298.88,-152.25 2316.03,-129.72 2287.39,-102.45 2265.13,-86.07"/>
<polygon fill="#63b8ff" stroke="#63b8ff" points="1973.89,-252.2 1964.53,-257.18 1974.95,-259.12 1973.89,-252.2"/>
</a>
</g>
</g>
<!-- Node32 -->
<g id="Node000032" class="node">
<title>Node32</title>
<g id="a_Node000032"><a xlink:href="RoomWaitingScene_8cpp.html" target="_top" xlink:title=" ">
<polygon fill="white" stroke="#666666" points="2477.5,-85.75 2324.25,-85.75 2324.25,-55.25 2477.5,-55.25 2477.5,-85.75"/>
<text xml:space="preserve" text-anchor="start" x="2332.25" y="-72.25" font-family="Helvetica,sans-Serif" font-size="10.00">client/src/Scenes/RoomWaiting</text>
<text xml:space="preserve" text-anchor="middle" x="2400.88" y="-61" font-family="Helvetica,sans-Serif" font-size="10.00">Scene.cpp</text>
</a>
</g>
</g>
<!-- Node1&#45;&gt;Node32 -->
<g id="edge50_Node000001_Node000032" class="edge">
<title>Node1&#45;&gt;Node32</title>
<g id="a_edge50_Node000001_Node000032"><a xlink:title=" ">
<path fill="none" stroke="#63b8ff" d="M1974.79,-265.62C2043.98,-260.57 2137.48,-248.3 2214.88,-218.75 2291.44,-189.52 2361.37,-116.75 2388.71,-85.8"/>
<polygon fill="#63b8ff" stroke="#63b8ff" points="1974.72,-262.11 1964.98,-266.29 1975.2,-269.1 1974.72,-262.11"/>
</a>
</g>
</g>
<!-- Node36 -->
<g id="Node000036" class="node">
<title>Node36</title>
<g id="a_Node000036"><a xlink:href="InputSystem_8cpp.html" target="_top" xlink:title=" ">
<polygon fill="white" stroke="#666666" points="2481.75,-218.75 2384,-218.75 2384,-188.25 2481.75,-188.25 2481.75,-218.75"/>
<text xml:space="preserve" text-anchor="start" x="2392" y="-205.25" font-family="Helvetica,sans-Serif" font-size="10.00">client/src/Systems</text>
<text xml:space="preserve" text-anchor="middle" x="2432.88" y="-194" font-family="Helvetica,sans-Serif" font-size="10.00">/InputSystem.cpp</text>
</a>
</g>
</g>
<!-- Node1&#45;&gt;Node36 -->
<g id="edge51_Node000001_Node000036" class="edge">
<title>Node1&#45;&gt;Node36</title>
<g id="a_edge51_Node000001_Node000036"><a xlink:title=" ">
<path fill="none" stroke="#63b8ff" d="M1974.6,-262.49C2074.65,-255.07 2233.68,-241 2369.88,-218.75 2374.41,-218.01 2379.11,-217.14 2383.81,-216.2"/>
<polygon fill="#63b8ff" stroke="#63b8ff" points="1974.53,-258.99 1964.81,-263.21 1975.04,-265.97 1974.53,-258.99"/>
</a>
</g>
</g>
<!-- Node3 -->
<g id="Node000003" class="node">
<title>Node3</title>
<g id="a_Node000003"><a xlink:href="Application_8hpp.html" target="_top" xlink:title=" ">
<polygon fill="white" stroke="#666666" points="1292.38,-85.75 1195.38,-85.75 1195.38,-55.25 1292.38,-55.25 1292.38,-85.75"/>
<text xml:space="preserve" text-anchor="start" x="1203.38" y="-72.25" font-family="Helvetica,sans-Serif" font-size="10.00">client/include/Core</text>
<text xml:space="preserve" text-anchor="middle" x="1243.88" y="-61" font-family="Helvetica,sans-Serif" font-size="10.00">/Application.hpp</text>
</a>
</g>
</g>
<!-- Node2&#45;&gt;Node3 -->
<g id="edge2_Node000002_Node000003" class="edge">
<title>Node2&#45;&gt;Node3</title>
<g id="a_edge2_Node000002_Node000003"><a xlink:title=" ">
<path fill="none" stroke="#63b8ff" d="M311.03,-177.9C321.11,-158.88 337.88,-133.83 360.88,-121.75 442.1,-79.08 1095.05,-98.76 1185.88,-85.75 1188.85,-85.32 1191.9,-84.81 1194.96,-84.24"/>
<polygon fill="#63b8ff" stroke="#63b8ff" points="308.01,-176.12 306.68,-186.63 314.27,-179.24 308.01,-176.12"/>
</a>
</g>
</g>
<!-- Node6 -->
<g id="Node000006" class="node">
<title>Node6</title>
<g id="a_Node000006"><a xlink:href="SpriteCustomizer_8cpp.html" target="_top" xlink:title=" ">
<polygon fill="white" stroke="#666666" points="181.75,-146.62 0,-146.62 0,-127.38 181.75,-127.38 181.75,-146.62"/>
<text xml:space="preserve" text-anchor="middle" x="90.88" y="-133.12" font-family="Helvetica,sans-Serif" font-size="10.00">client/src/Game/SpriteCustomizer.cpp</text>
</a>
</g>
</g>
<!-- Node2&#45;&gt;Node6 -->
<g id="edge5_Node000002_Node000006" class="edge">
<title>Node2&#45;&gt;Node6</title>
<g id="a_edge5_Node000002_Node000006"><a xlink:title=" ">
<path fill="none" stroke="#63b8ff" d="M241.38,-184.45C201.95,-172.28 151.6,-156.74 120.3,-147.08"/>
<polygon fill="#63b8ff" stroke="#63b8ff" points="240.15,-187.73 250.74,-187.34 242.22,-181.04 240.15,-187.73"/>
</a>
</g>
</g>
<!-- Node7 -->
<g id="Node000007" class="node">
<title>Node7</title>
<g id="a_Node000007"><a xlink:href="UIRenderSystem_8cpp.html" target="_top" xlink:title=" ">
<polygon fill="white" stroke="#666666" points="313.62,-152.25 200.12,-152.25 200.12,-121.75 313.62,-121.75 313.62,-152.25"/>
<text xml:space="preserve" text-anchor="start" x="208.12" y="-138.75" font-family="Helvetica,sans-Serif" font-size="10.00">client/src/Systems</text>
<text xml:space="preserve" text-anchor="middle" x="256.88" y="-127.5" font-family="Helvetica,sans-Serif" font-size="10.00">/UIRenderSystem.cpp</text>
</a>
</g>
</g>
<!-- Node2&#45;&gt;Node7 -->
<g id="edge6_Node000002_Node000007" class="edge">
<title>Node2&#45;&gt;Node7</title>
<g id="a_edge6_Node000002_Node000007"><a xlink:title=" ">
<path fill="none" stroke="#63b8ff" d="M283.9,-178.54C278.09,-169.82 271.7,-160.24 266.59,-152.58"/>
<polygon fill="#63b8ff" stroke="#63b8ff" points="280.82,-180.23 289.28,-186.6 286.64,-176.34 280.82,-180.23"/>
</a>
</g>
</g>
<!-- Node4 -->
<g id="Node000004" class="node">
<title>Node4</title>
<g id="a_Node000004"><a xlink:href="Application_8cpp.html" target="_top" xlink:title=" ">
<polygon fill="white" stroke="#666666" points="1247.62,-19.25 1098.12,-19.25 1098.12,0 1247.62,0 1247.62,-19.25"/>
<text xml:space="preserve" text-anchor="middle" x="1172.88" y="-5.75" font-family="Helvetica,sans-Serif" font-size="10.00">client/src/Core/Application.cpp</text>
</a>
</g>
</g>
<!-- Node3&#45;&gt;Node4 -->
<g id="edge3_Node000003_Node000004" class="edge">
<title>Node3&#45;&gt;Node4</title>
<g id="a_edge3_Node000003_Node000004"><a xlink:title=" ">
<path fill="none" stroke="#63b8ff" d="M1217.74,-47.83C1206.03,-38.12 1192.85,-27.19 1183.82,-19.7"/>
<polygon fill="#63b8ff" stroke="#63b8ff" points="1215.23,-50.29 1225.16,-53.98 1219.7,-44.9 1215.23,-50.29"/>
</a>
</g>
</g>
<!-- Node5 -->
<g id="Node000005" class="node">
<title>Node5</title>
<g id="a_Node000005"><a xlink:href="client_2src_2main_8cpp.html" target="_top" xlink:title=" ">
<polygon fill="white" stroke="#666666" points="1364.12,-19.25 1265.62,-19.25 1265.62,0 1364.12,0 1364.12,-19.25"/>
<text xml:space="preserve" text-anchor="middle" x="1314.88" y="-5.75" font-family="Helvetica,sans-Serif" font-size="10.00">client/src/main.cpp</text>
</a>
</g>
</g>
<!-- Node3&#45;&gt;Node5 -->
<g id="edge4_Node000003_Node000005" class="edge">
<title>Node3&#45;&gt;Node5</title>
<g id="a_edge4_Node000003_Node000005"><a xlink:title=" ">
<path fill="none" stroke="#63b8ff" d="M1270.01,-47.83C1281.72,-38.12 1294.9,-27.19 1303.93,-19.7"/>
<polygon fill="#63b8ff" stroke="#63b8ff" points="1268.05,-44.9 1262.59,-53.98 1272.52,-50.29 1268.05,-44.9"/>
</a>
</g>
</g>
<!-- Node8&#45;&gt;Node3 -->
<g id="edge8_Node000008_Node000003" class="edge">
<title>Node8&#45;&gt;Node3</title>
<g id="a_edge8_Node000008_Node000003"><a xlink:title=" ">
<path fill="none" stroke="#63b8ff" d="M621.89,-176.58C622.71,-158.34 627.14,-134.92 642.88,-121.75 689.23,-82.93 1126.12,-95 1185.88,-85.75 1188.85,-85.29 1191.89,-84.75 1194.95,-84.16"/>
<polygon fill="#63b8ff" stroke="#63b8ff" points="618.39,-176.37 621.8,-186.41 625.39,-176.44 618.39,-176.37"/>
</a>
</g>
</g>
<!-- Node9 -->
<g id="Node000009" class="node">
<title>Node9</title>
<g id="a_Node000009"><a xlink:href="UISystem_8cpp.html" target="_top" xlink:title=" ">
<polygon fill="white" stroke="#666666" points="467.75,-152.25 370,-152.25 370,-121.75 467.75,-121.75 467.75,-152.25"/>
<text xml:space="preserve" text-anchor="start" x="378" y="-138.75" font-family="Helvetica,sans-Serif" font-size="10.00">client/src/Systems</text>
<text xml:space="preserve" text-anchor="middle" x="418.88" y="-127.5" font-family="Helvetica,sans-Serif" font-size="10.00">/UISystem.cpp</text>
</a>
</g>
</g>
<!-- Node8&#45;&gt;Node9 -->
<g id="edge9_Node000008_Node000009" class="edge">
<title>Node8&#45;&gt;Node9</title>
<g id="a_edge9_Node000008_Node000009"><a xlink:title=" ">
<path fill="none" stroke="#63b8ff" d="M565.45,-184.34C533.77,-174.33 494.95,-162.05 465.22,-152.65"/>
<polygon fill="#63b8ff" stroke="#63b8ff" points="564.3,-187.65 574.89,-187.33 566.41,-180.98 564.3,-187.65"/>
</a>
</g>
</g>
<!-- Node10&#45;&gt;Node3 -->
<g id="edge11_Node000010_Node000003" class="edge">
<title>Node10&#45;&gt;Node3</title>
<g id="a_edge11_Node000010_Node000003"><a xlink:title=" ">
<path fill="none" stroke="#63b8ff" d="M1348.3,-194.88C1290.58,-187.8 1222.07,-174.83 1203.88,-152.25 1187.28,-131.66 1210.03,-103.07 1227.41,-86.01"/>
<polygon fill="#63b8ff" stroke="#63b8ff" points="1347.84,-198.35 1358.18,-196.04 1348.66,-191.4 1347.84,-198.35"/>
</a>
</g>
</g>
<!-- Node11 -->
<g id="Node000011" class="node">
<title>Node11</title>
<g id="a_Node000011"><a xlink:href="CreateRoomScene_8hpp.html" target="_top" xlink:title=" ">
<polygon fill="white" stroke="#666666" points="1026.38,-152.25 905.38,-152.25 905.38,-121.75 1026.38,-121.75 1026.38,-152.25"/>
<text xml:space="preserve" text-anchor="start" x="913.38" y="-138.75" font-family="Helvetica,sans-Serif" font-size="10.00">client/include/Scenes</text>
<text xml:space="preserve" text-anchor="middle" x="965.88" y="-127.5" font-family="Helvetica,sans-Serif" font-size="10.00">/CreateRoomScene.hpp</text>
</a>
</g>
</g>
<!-- Node10&#45;&gt;Node11 -->
<g id="edge12_Node000010_Node000011" class="edge">
<title>Node10&#45;&gt;Node11</title>
<g id="a_edge12_Node000010_Node000011"><a xlink:title=" ">
<path fill="none" stroke="#63b8ff" d="M1348.86,-193.57C1267.87,-184.71 1143.29,-169.92 1035.88,-152.25 1032.82,-151.75 1029.69,-151.21 1026.53,-150.64"/>
<polygon fill="#63b8ff" stroke="#63b8ff" points="1348.17,-197.01 1358.49,-194.61 1348.92,-190.05 1348.17,-197.01"/>
</a>
</g>
</g>
<!-- Node13 -->
<g id="Node000013" class="node">
<title>Node13</title>
<g id="a_Node000013"><a xlink:href="GameOverScene_8hpp.html" target="_top" xlink:title=" ">
<polygon fill="white" stroke="#666666" points="1157.25,-152.25 1044.5,-152.25 1044.5,-121.75 1157.25,-121.75 1157.25,-152.25"/>
<text xml:space="preserve" text-anchor="start" x="1052.5" y="-138.75" font-family="Helvetica,sans-Serif" font-size="10.00">client/include/Scenes</text>
<text xml:space="preserve" text-anchor="middle" x="1100.88" y="-127.5" font-family="Helvetica,sans-Serif" font-size="10.00">/GameOverScene.hpp</text>
</a>
</g>
</g>
<!-- Node10&#45;&gt;Node13 -->
<g id="edge15_Node000010_Node000013" class="edge">
<title>Node10&#45;&gt;Node13</title>
<g id="a_edge15_Node000010_Node000013"><a xlink:title=" ">
<path fill="none" stroke="#63b8ff" d="M1375.18,-191.36C1321.65,-181.32 1240.96,-166.05 1170.88,-152.25 1166.49,-151.39 1161.96,-150.49 1157.41,-149.57"/>
<polygon fill="#63b8ff" stroke="#63b8ff" points="1374.22,-194.74 1384.69,-193.15 1375.51,-187.86 1374.22,-194.74"/>
</a>
</g>
</g>
<!-- Node15 -->
<g id="Node000015" class="node">
<title>Node15</title>
<g id="a_Node000015"><a xlink:href="GamepadSettingsScene_8hpp.html" target="_top" xlink:title=" ">
<polygon fill="white" stroke="#666666" points="1506.62,-152.25 1363.12,-152.25 1363.12,-121.75 1506.62,-121.75 1506.62,-152.25"/>
<text xml:space="preserve" text-anchor="start" x="1371.12" y="-138.75" font-family="Helvetica,sans-Serif" font-size="10.00">client/include/Scenes</text>
<text xml:space="preserve" text-anchor="middle" x="1434.88" y="-127.5" font-family="Helvetica,sans-Serif" font-size="10.00">/GamepadSettingsScene.hpp</text>
</a>
</g>
</g>
<!-- Node10&#45;&gt;Node15 -->
<g id="edge18_Node000010_Node000015" class="edge">
<title>Node10&#45;&gt;Node15</title>
<g id="a_edge18_Node000010_Node000015"><a xlink:title=" ">
<path fill="none" stroke="#63b8ff" d="M1434.88,-182.12C1434.88,-172.44 1434.88,-161.1 1434.88,-152.34"/>
<polygon fill="#63b8ff" stroke="#63b8ff" points="1431.38,-182.02 1434.88,-192.02 1438.38,-182.02 1431.38,-182.02"/>
</a>
</g>
</g>
<!-- Node17 -->
<g id="Node000017" class="node">
<title>Node17</title>
<g id="a_Node000017"><a xlink:href="KeyBindingScene_8hpp.html" target="_top" xlink:title=" ">
<polygon fill="white" stroke="#666666" points="1639.38,-152.25 1524.38,-152.25 1524.38,-121.75 1639.38,-121.75 1639.38,-152.25"/>
<text xml:space="preserve" text-anchor="start" x="1532.38" y="-138.75" font-family="Helvetica,sans-Serif" font-size="10.00">client/include/Scenes</text>
<text xml:space="preserve" text-anchor="middle" x="1581.88" y="-127.5" font-family="Helvetica,sans-Serif" font-size="10.00">/KeyBindingScene.hpp</text>
</a>
</g>
</g>
<!-- Node10&#45;&gt;Node17 -->
<g id="edge21_Node000010_Node000017" class="edge">
<title>Node10&#45;&gt;Node17</title>
<g id="a_edge21_Node000010_Node000017"><a xlink:title=" ">
<path fill="none" stroke="#63b8ff" d="M1466.03,-188.83C1490.23,-178.21 1523.74,-163.51 1548.49,-152.65"/>
<polygon fill="#63b8ff" stroke="#63b8ff" points="1464.76,-185.56 1457.01,-192.79 1467.57,-191.97 1464.76,-185.56"/>
</a>
</g>
</g>
<!-- Node19 -->
<g id="Node000019" class="node">
<title>Node19</title>
<g id="a_Node000019"><a xlink:href="LobbyScene_8hpp.html" target="_top" xlink:title=" ">
<polygon fill="white" stroke="#666666" points="1766.38,-152.25 1657.38,-152.25 1657.38,-121.75 1766.38,-121.75 1766.38,-152.25"/>
<text xml:space="preserve" text-anchor="start" x="1665.38" y="-138.75" font-family="Helvetica,sans-Serif" font-size="10.00">client/include/Scenes</text>
<text xml:space="preserve" text-anchor="middle" x="1711.88" y="-127.5" font-family="Helvetica,sans-Serif" font-size="10.00">/LobbyScene.hpp</text>
</a>
</g>
</g>
<!-- Node10&#45;&gt;Node19 -->
<g id="edge24_Node000010_Node000019" class="edge">
<title>Node10&#45;&gt;Node19</title>
<g id="a_edge24_Node000010_Node000019"><a xlink:title=" ">
<path fill="none" stroke="#63b8ff" d="M1485.14,-190.79C1533.67,-179.49 1606.96,-162.43 1656.99,-150.78"/>
<polygon fill="#63b8ff" stroke="#63b8ff" points="1484.39,-187.38 1475.45,-193.05 1485.98,-194.19 1484.39,-187.38"/>
</a>
</g>
</g>
<!-- Node21 -->
<g id="Node000021" class="node">
<title>Node21</title>
<g id="a_Node000021"><a xlink:href="LoginScene_8hpp.html" target="_top" xlink:title=" ">
<polygon fill="white" stroke="#666666" points="1893.38,-152.25 1784.38,-152.25 1784.38,-121.75 1893.38,-121.75 1893.38,-152.25"/>
<text xml:space="preserve" text-anchor="start" x="1792.38" y="-138.75" font-family="Helvetica,sans-Serif" font-size="10.00">client/include/Scenes</text>
<text xml:space="preserve" text-anchor="middle" x="1838.88" y="-127.5" font-family="Helvetica,sans-Serif" font-size="10.00">/LoginScene.hpp</text>
</a>
</g>
</g>
<!-- Node10&#45;&gt;Node21 -->
<g id="edge27_Node000010_Node000021" class="edge">
<title>Node10&#45;&gt;Node21</title>
<g id="a_edge27_Node000010_Node000021"><a xlink:title=" ">
<path fill="none" stroke="#63b8ff" d="M1518.91,-191.93C1588.11,-182.79 1688.67,-168.51 1775.88,-152.25 1778.52,-151.76 1781.22,-151.23 1783.95,-150.68"/>
<polygon fill="#63b8ff" stroke="#63b8ff" points="1518.61,-188.44 1509.15,-193.21 1519.52,-195.38 1518.61,-188.44"/>
</a>
</g>
</g>
<!-- Node23 -->
<g id="Node000023" class="node">
<title>Node23</title>
<g id="a_Node000023"><a xlink:href="MenuScene_8hpp.html" target="_top" xlink:title=" ">
<polygon fill="white" stroke="#666666" points="2020.38,-152.25 1911.38,-152.25 1911.38,-121.75 2020.38,-121.75 2020.38,-152.25"/>
<text xml:space="preserve" text-anchor="start" x="1919.38" y="-138.75" font-family="Helvetica,sans-Serif" font-size="10.00">client/include/Scenes</text>
<text xml:space="preserve" text-anchor="middle" x="1965.88" y="-127.5" font-family="Helvetica,sans-Serif" font-size="10.00">/MenuScene.hpp</text>
</a>
</g>
</g>
<!-- Node10&#45;&gt;Node23 -->
<g id="edge30_Node000010_Node000023" class="edge">
<title>Node10&#45;&gt;Node23</title>
<g id="a_edge30_Node000010_Node000023"><a xlink:title=" ">
<path fill="none" stroke="#63b8ff" d="M1521.27,-196.23C1615.5,-188.69 1770.55,-174.24 1902.88,-152.25 1905.53,-151.81 1908.24,-151.32 1910.97,-150.81"/>
<polygon fill="#63b8ff" stroke="#63b8ff" points="1521.01,-192.74 1511.32,-197.02 1521.56,-199.72 1521.01,-192.74"/>
</a>
</g>
</g>
<!-- Node25 -->
<g id="Node000025" class="node">
<title>Node25</title>
<g id="a_Node000025"><a xlink:href="ModMenuScene_8hpp.html" target="_top" xlink:title=" ">
<polygon fill="white" stroke="#666666" points="594.38,-152.25 485.38,-152.25 485.38,-121.75 594.38,-121.75 594.38,-152.25"/>
<text xml:space="preserve" text-anchor="start" x="493.38" y="-138.75" font-family="Helvetica,sans-Serif" font-size="10.00">client/include/Scenes</text>
<text xml:space="preserve" text-anchor="middle" x="539.88" y="-127.5" font-family="Helvetica,sans-Serif" font-size="10.00">/ModMenuScene.hpp</text>
</a>
</g>
</g>
<!-- Node10&#45;&gt;Node25 -->
<g id="edge33_Node000010_Node000025" class="edge">
<title>Node10&#45;&gt;Node25</title>
<g id="a_edge33_Node000010_Node000025"><a xlink:title=" ">
<path fill="none" stroke="#63b8ff" d="M1348.15,-199.1C1202.27,-192.92 898.63,-178.02 642.88,-152.25 627.25,-150.68 610.35,-148.53 594.84,-146.37"/>
<polygon fill="#63b8ff" stroke="#63b8ff" points="1348,-202.6 1358.14,-199.52 1348.29,-195.61 1348,-202.6"/>
</a>
</g>
</g>
<!-- Node27 -->
<g id="Node000027" class="node">
<title>Node27</title>
<g id="a_Node000027"><a xlink:href="PauseScene_8hpp.html" target="_top" xlink:title=" ">
<polygon fill="white" stroke="#666666" points="760.38,-152.25 651.38,-152.25 651.38,-121.75 760.38,-121.75 760.38,-152.25"/>
<text xml:space="preserve" text-anchor="start" x="659.38" y="-138.75" font-family="Helvetica,sans-Serif" font-size="10.00">client/include/Scenes</text>
<text xml:space="preserve" text-anchor="middle" x="705.88" y="-127.5" font-family="Helvetica,sans-Serif" font-size="10.00">/PauseScene.hpp</text>
</a>
</g>
</g>
<!-- Node10&#45;&gt;Node27 -->
<g id="edge36_Node000010_Node000027" class="edge">
<title>Node10&#45;&gt;Node27</title>
<g id="a_edge36_Node000010_Node000027"><a xlink:title=" ">
<path fill="none" stroke="#63b8ff" d="M1348.49,-199.93C1221.22,-195.26 976.1,-182.84 769.88,-152.25 766.83,-151.8 763.72,-151.28 760.59,-150.73"/>
<polygon fill="#63b8ff" stroke="#63b8ff" points="1348.06,-203.42 1358.18,-200.28 1348.31,-196.42 1348.06,-203.42"/>
</a>
</g>
</g>
<!-- Node29 -->
<g id="Node000029" class="node">
<title>Node29</title>
<g id="a_Node000029"><a xlink:href="PlayingScene_8hpp.html" target="_top" xlink:title=" ">
<polygon fill="white" stroke="#666666" points="2147.38,-152.25 2038.38,-152.25 2038.38,-121.75 2147.38,-121.75 2147.38,-152.25"/>
<text xml:space="preserve" text-anchor="start" x="2046.38" y="-138.75" font-family="Helvetica,sans-Serif" font-size="10.00">client/include/Scenes</text>
<text xml:space="preserve" text-anchor="middle" x="2092.88" y="-127.5" font-family="Helvetica,sans-Serif" font-size="10.00">/PlayingScene.hpp</text>
</a>
</g>
</g>
<!-- Node10&#45;&gt;Node29 -->
<g id="edge39_Node000010_Node000029" class="edge">
<title>Node10&#45;&gt;Node29</title>
<g id="a_edge39_Node000010_Node000029"><a xlink:title=" ">
<path fill="none" stroke="#63b8ff" d="M1521.22,-198.95C1637.38,-193.33 1850.17,-180.03 2029.88,-152.25 2032.53,-151.84 2035.25,-151.38 2037.99,-150.88"/>
<polygon fill="#63b8ff" stroke="#63b8ff" points="1521.28,-195.45 1511.45,-199.42 1521.61,-202.44 1521.28,-195.45"/>
</a>
</g>
</g>
<!-- Node31 -->
<g id="Node000031" class="node">
<title>Node31</title>
<g id="a_Node000031"><a xlink:href="RoomWaitingScene_8hpp.html" target="_top" xlink:title=" ">
<polygon fill="white" stroke="#666666" points="2289.88,-152.25 2165.88,-152.25 2165.88,-121.75 2289.88,-121.75 2289.88,-152.25"/>
<text xml:space="preserve" text-anchor="start" x="2173.88" y="-138.75" font-family="Helvetica,sans-Serif" font-size="10.00">client/include/Scenes</text>
<text xml:space="preserve" text-anchor="middle" x="2227.88" y="-127.5" font-family="Helvetica,sans-Serif" font-size="10.00">/RoomWaitingScene.hpp</text>
</a>
</g>
</g>
<!-- Node10&#45;&gt;Node31 -->
<g id="edge42_Node000010_Node000031" class="edge">
<title>Node10&#45;&gt;Node31</title>
<g id="a_edge42_Node000010_Node000031"><a xlink:title=" ">
<path fill="none" stroke="#63b8ff" d="M1521.16,-200.08C1656.94,-195.47 1928.56,-182.98 2156.88,-152.25 2159.74,-151.86 2162.66,-151.43 2165.61,-150.97"/>
<polygon fill="#63b8ff" stroke="#63b8ff" points="1521.42,-196.57 1511.55,-200.4 1521.66,-203.57 1521.42,-196.57"/>
</a>
</g>
</g>
<!-- Node33 -->
<g id="Node000033" class="node">
<title>Node33</title>
<g id="a_Node000033"><a xlink:href="SettingsScene_8hpp.html" target="_top" xlink:title=" ">
<polygon fill="white" stroke="#666666" points="887.38,-152.25 778.38,-152.25 778.38,-121.75 887.38,-121.75 887.38,-152.25"/>
<text xml:space="preserve" text-anchor="start" x="786.38" y="-138.75" font-family="Helvetica,sans-Serif" font-size="10.00">client/include/Scenes</text>
<text xml:space="preserve" text-anchor="middle" x="832.88" y="-127.5" font-family="Helvetica,sans-Serif" font-size="10.00">/SettingsScene.hpp</text>
</a>
</g>
</g>
<!-- Node10&#45;&gt;Node33 -->
<g id="edge45_Node000010_Node000033" class="edge">
<title>Node10&#45;&gt;Node33</title>
<g id="a_edge45_Node000010_Node000033"><a xlink:title=" ">
<path fill="none" stroke="#63b8ff" d="M1348.32,-197.78C1241.66,-191.2 1055.13,-177.16 896.88,-152.25 893.84,-151.77 890.73,-151.24 887.6,-150.66"/>
<polygon fill="#63b8ff" stroke="#63b8ff" points="1347.95,-201.27 1358.14,-198.38 1348.37,-194.28 1347.95,-201.27"/>
</a>
</g>
</g>
<!-- Node35 -->
<g id="Node000035" class="node">
<title>Node35</title>
<g id="a_Node000035"><a xlink:href="UiFactory_8cpp.html" target="_top" xlink:title=" ">
<polygon fill="white" stroke="#666666" points="1345,-146.62 1212.75,-146.62 1212.75,-127.38 1345,-127.38 1345,-146.62"/>
<text xml:space="preserve" text-anchor="middle" x="1278.88" y="-133.12" font-family="Helvetica,sans-Serif" font-size="10.00">client/src/UI/UiFactory.cpp</text>
</a>
</g>
</g>
<!-- Node10&#45;&gt;Node35 -->
<g id="edge48_Node000010_Node000035" class="edge">
<title>Node10&#45;&gt;Node35</title>
<g id="a_edge48_Node000010_Node000035"><a xlink:title=" ">
<path fill="none" stroke="#63b8ff" d="M1402.34,-189.05C1371.88,-176.45 1327.21,-157.99 1300.78,-147.06"/>
<polygon fill="#63b8ff" stroke="#63b8ff" points="1400.88,-192.23 1411.46,-192.82 1403.55,-185.76 1400.88,-192.23"/>
</a>
</g>
</g>
<!-- Node11&#45;&gt;Node3 -->
<g id="edge13_Node000011_Node000003" class="edge">
<title>Node11&#45;&gt;Node3</title>
<g id="a_edge13_Node000011_Node000003"><a xlink:title=" ">
<path fill="none" stroke="#63b8ff" d="M1037.84,-119.87C1080.85,-110.16 1136.53,-97.45 1185.88,-85.75 1188.9,-85.03 1192.02,-84.29 1195.15,-83.53"/>
<polygon fill="#63b8ff" stroke="#63b8ff" points="1037.09,-116.45 1028.11,-122.07 1038.64,-123.28 1037.09,-116.45"/>
</a>
</g>
</g>
<!-- Node12 -->
<g id="Node000012" class="node">
<title>Node12</title>
<g id="a_Node000012"><a xlink:href="CreateRoomScene_8cpp.html" target="_top" xlink:title=" ">
<polygon fill="white" stroke="#666666" points="1016.88,-85.75 892.88,-85.75 892.88,-55.25 1016.88,-55.25 1016.88,-85.75"/>
<text xml:space="preserve" text-anchor="start" x="900.88" y="-72.25" font-family="Helvetica,sans-Serif" font-size="10.00">client/src/Scenes/Create</text>
<text xml:space="preserve" text-anchor="middle" x="954.88" y="-61" font-family="Helvetica,sans-Serif" font-size="10.00">RoomScene.cpp</text>
</a>
</g>
</g>
<!-- Node11&#45;&gt;Node12 -->
<g id="edge14_Node000011_Node000012" class="edge">
<title>Node11&#45;&gt;Node12</title>
<g id="a_edge14_Node000011_Node000012"><a xlink:title=" ">
<path fill="none" stroke="#63b8ff" d="M961.45,-110.06C960.06,-101.89 958.57,-93.16 957.36,-86.08"/>
<polygon fill="#63b8ff" stroke="#63b8ff" points="957.99,-110.6 963.12,-119.87 964.89,-109.43 957.99,-110.6"/>
</a>
</g>
</g>
<!-- Node13&#45;&gt;Node3 -->
<g id="edge16_Node000013_Node000003" class="edge">
<title>Node13&#45;&gt;Node3</title>
<g id="a_edge16_Node000013_Node000003"><a xlink:title=" ">
<path fill="none" stroke="#63b8ff" d="M1143.63,-116.72C1165.41,-106.89 1191.47,-95.14 1211.55,-86.08"/>
<polygon fill="#63b8ff" stroke="#63b8ff" points="1142.38,-113.44 1134.7,-120.74 1145.26,-119.82 1142.38,-113.44"/>
</a>
</g>
</g>
<!-- Node14 -->
<g id="Node000014" class="node">
<title>Node14</title>
<g id="a_Node000014"><a xlink:href="GameOverScene_8cpp.html" target="_top" xlink:title=" ">
<polygon fill="white" stroke="#666666" points="1176.88,-85.75 1034.88,-85.75 1034.88,-55.25 1176.88,-55.25 1176.88,-85.75"/>
<text xml:space="preserve" text-anchor="start" x="1042.88" y="-72.25" font-family="Helvetica,sans-Serif" font-size="10.00">client/src/Scenes/GameOver</text>
<text xml:space="preserve" text-anchor="middle" x="1105.88" y="-61" font-family="Helvetica,sans-Serif" font-size="10.00">Scene.cpp</text>
</a>
</g>
</g>
<!-- Node13&#45;&gt;Node14 -->
<g id="edge17_Node000013_Node000014" class="edge">
<title>Node13&#45;&gt;Node14</title>
<g id="a_edge17_Node000013_Node000014"><a xlink:title=" ">
<path fill="none" stroke="#63b8ff" d="M1102.89,-110.06C1103.52,-101.89 1104.2,-93.16 1104.74,-86.08"/>
<polygon fill="#63b8ff" stroke="#63b8ff" points="1099.41,-109.61 1102.13,-119.85 1106.39,-110.16 1099.41,-109.61"/>
</a>
</g>
</g>
<!-- Node15&#45;&gt;Node3 -->
<g id="edge19_Node000015_Node000003" class="edge">
<title>Node15&#45;&gt;Node3</title>
<g id="a_edge19_Node000015_Node000003"><a xlink:title=" ">
<path fill="none" stroke="#63b8ff" d="M1380.96,-117.79C1351.36,-107.8 1315.15,-95.57 1287.37,-86.19"/>
<polygon fill="#63b8ff" stroke="#63b8ff" points="1379.51,-121 1390.1,-120.88 1381.75,-114.36 1379.51,-121"/>
</a>
</g>
</g>
<!-- Node16 -->
<g id="Node000016" class="node">
<title>Node16</title>
<g id="a_Node000016"><a xlink:href="GamepadSettingsScene_8cpp.html" target="_top" xlink:title=" ">
<polygon fill="white" stroke="#666666" points="1447.25,-85.75 1310.5,-85.75 1310.5,-55.25 1447.25,-55.25 1447.25,-85.75"/>
<text xml:space="preserve" text-anchor="start" x="1318.5" y="-72.25" font-family="Helvetica,sans-Serif" font-size="10.00">client/src/Scenes/Gamepad</text>
<text xml:space="preserve" text-anchor="middle" x="1378.88" y="-61" font-family="Helvetica,sans-Serif" font-size="10.00">SettingsScene.cpp</text>
</a>
</g>
</g>
<!-- Node15&#45;&gt;Node16 -->
<g id="edge20_Node000015_Node000016" class="edge">
<title>Node15&#45;&gt;Node16</title>
<g id="a_edge20_Node000015_Node000016"><a xlink:title=" ">
<path fill="none" stroke="#63b8ff" d="M1414.8,-112.88C1407.04,-103.94 1398.4,-93.99 1391.53,-86.08"/>
<polygon fill="#63b8ff" stroke="#63b8ff" points="1411.98,-114.96 1421.18,-120.22 1417.26,-110.38 1411.98,-114.96"/>
</a>
</g>
</g>
<!-- Node17&#45;&gt;Node3 -->
<g id="edge22_Node000017_Node000003" class="edge">
<title>Node17&#45;&gt;Node3</title>
<g id="a_edge22_Node000017_Node000003"><a xlink:title=" ">
<path fill="none" stroke="#63b8ff" d="M1512.83,-121.22C1419.22,-103.66 1392.82,-104.54 1301.88,-85.75 1298.93,-85.14 1295.91,-84.49 1292.86,-83.81"/>
<polygon fill="#63b8ff" stroke="#63b8ff" points="1511.99,-124.63 1522.47,-123.06 1513.3,-117.75 1511.99,-124.63"/>
</a>
</g>
</g>
<!-- Node18 -->
<g id="Node000018" class="node">
<title>Node18</title>
<g id="a_Node000018"><a xlink:href="KeyBindingScene_8cpp.html" target="_top" xlink:title=" ">
<polygon fill="white" stroke="#666666" points="1610,-85.75 1465.75,-85.75 1465.75,-55.25 1610,-55.25 1610,-85.75"/>
<text xml:space="preserve" text-anchor="start" x="1473.75" y="-72.25" font-family="Helvetica,sans-Serif" font-size="10.00">client/src/Scenes/KeyBinding</text>
<text xml:space="preserve" text-anchor="middle" x="1537.88" y="-61" font-family="Helvetica,sans-Serif" font-size="10.00">Scene.cpp</text>
</a>
</g>
</g>
<!-- Node17&#45;&gt;Node18 -->
<g id="edge23_Node000017_Node000018" class="edge">
<title>Node17&#45;&gt;Node18</title>
<g id="a_edge23_Node000017_Node000018"><a xlink:title=" ">
<path fill="none" stroke="#63b8ff" d="M1565.53,-112.04C1559.58,-103.32 1553.05,-93.74 1547.82,-86.08"/>
<polygon fill="#63b8ff" stroke="#63b8ff" points="1562.51,-113.83 1571.04,-120.11 1568.29,-109.88 1562.51,-113.83"/>
</a>
</g>
</g>
<!-- Node19&#45;&gt;Node3 -->
<g id="edge25_Node000019_Node000003" class="edge">
<title>Node19&#45;&gt;Node3</title>
<g id="a_edge25_Node000019_Node000003"><a xlink:title=" ">
<path fill="none" stroke="#63b8ff" d="M1645.84,-121.38C1493.88,-97.32 1451.05,-111.69 1301.88,-85.75 1298.91,-85.23 1295.88,-84.65 1292.82,-84.03"/>
<polygon fill="#63b8ff" stroke="#63b8ff" points="1645.05,-124.8 1655.48,-122.94 1646.17,-117.88 1645.05,-124.8"/>
</a>
</g>
</g>
<!-- Node20 -->
<g id="Node000020" class="node">
<title>Node20</title>
<g id="a_Node000020"><a xlink:href="LobbyScene_8cpp.html" target="_top" xlink:title=" ">
<polygon fill="white" stroke="#666666" points="1795.62,-80.12 1628.12,-80.12 1628.12,-60.88 1795.62,-60.88 1795.62,-80.12"/>
<text xml:space="preserve" text-anchor="middle" x="1711.88" y="-66.62" font-family="Helvetica,sans-Serif" font-size="10.00">client/src/Scenes/LobbyScene.cpp</text>
</a>
</g>
</g>
<!-- Node19&#45;&gt;Node20 -->
<g id="edge26_Node000019_Node000020" class="edge">
<title>Node19&#45;&gt;Node20</title>
<g id="a_edge26_Node000019_Node000020"><a xlink:title=" ">
<path fill="none" stroke="#63b8ff" d="M1711.88,-110.09C1711.88,-99.51 1711.88,-88 1711.88,-80.32"/>
<polygon fill="#63b8ff" stroke="#63b8ff" points="1708.38,-109.85 1711.88,-119.85 1715.38,-109.85 1708.38,-109.85"/>
</a>
</g>
</g>
<!-- Node21&#45;&gt;Node3 -->
<g id="edge28_Node000021_Node000003" class="edge">
<title>Node21&#45;&gt;Node3</title>
<g id="a_edge28_Node000021_Node000003"><a xlink:title=" ">
<path fill="none" stroke="#63b8ff" d="M1772.69,-121.42C1564.92,-91.35 1506.84,-118.48 1301.88,-85.75 1298.91,-85.28 1295.86,-84.73 1292.81,-84.12"/>
<polygon fill="#63b8ff" stroke="#63b8ff" points="1772.09,-124.87 1782.49,-122.87 1773.11,-117.94 1772.09,-124.87"/>
</a>
</g>
</g>
<!-- Node22 -->
<g id="Node000022" class="node">
<title>Node22</title>
<g id="a_Node000022"><a xlink:href="LoginScene_8cpp.html" target="_top" xlink:title=" ">
<polygon fill="white" stroke="#666666" points="1978.12,-80.12 1813.62,-80.12 1813.62,-60.88 1978.12,-60.88 1978.12,-80.12"/>
<text xml:space="preserve" text-anchor="middle" x="1895.88" y="-66.62" font-family="Helvetica,sans-Serif" font-size="10.00">client/src/Scenes/LoginScene.cpp</text>
</a>
</g>
</g>
<!-- Node21&#45;&gt;Node22 -->
<g id="edge29_Node000021_Node000022" class="edge">
<title>Node21&#45;&gt;Node22</title>
<g id="a_edge29_Node000021_Node000022"><a xlink:title=" ">
<path fill="none" stroke="#63b8ff" d="M1859.39,-112.79C1869.34,-101.52 1880.71,-88.66 1888.08,-80.32"/>
<polygon fill="#63b8ff" stroke="#63b8ff" points="1856.81,-110.42 1852.81,-120.23 1862.06,-115.05 1856.81,-110.42"/>
</a>
</g>
</g>
<!-- Node23&#45;&gt;Node3 -->
<g id="edge31_Node000023_Node000003" class="edge">
<title>Node23&#45;&gt;Node3</title>
<g id="a_edge31_Node000023_Node000003"><a xlink:title=" ">
<path fill="none" stroke="#63b8ff" d="M1899.91,-121.48C1635.95,-85.23 1562.83,-125.29 1301.88,-85.75 1298.9,-85.3 1295.86,-84.77 1292.8,-84.18"/>
<polygon fill="#63b8ff" stroke="#63b8ff" points="1899.11,-124.91 1909.5,-122.83 1900.08,-117.97 1899.11,-124.91"/>
</a>
</g>
</g>
<!-- Node24 -->
<g id="Node000024" class="node">
<title>Node24</title>
<g id="a_Node000024"><a xlink:href="MenuScene_8cpp.html" target="_top" xlink:title=" ">
<polygon fill="white" stroke="#666666" points="2161.5,-80.12 1996.25,-80.12 1996.25,-60.88 2161.5,-60.88 2161.5,-80.12"/>
<text xml:space="preserve" text-anchor="middle" x="2078.88" y="-66.62" font-family="Helvetica,sans-Serif" font-size="10.00">client/src/Scenes/MenuScene.cpp</text>
</a>
</g>
</g>
<!-- Node23&#45;&gt;Node24 -->
<g id="edge32_Node000023_Node000024" class="edge">
<title>Node23&#45;&gt;Node24</title>
<g id="a_edge32_Node000023_Node000024"><a xlink:title=" ">
<path fill="none" stroke="#63b8ff" d="M2001.28,-115.79C2022,-103.96 2047.15,-89.61 2063.09,-80.51"/>
<polygon fill="#63b8ff" stroke="#63b8ff" points="1999.78,-112.62 1992.83,-120.61 2003.25,-118.7 1999.78,-112.62"/>
</a>
</g>
</g>
<!-- Node25&#45;&gt;Node3 -->
<g id="edge34_Node000025_Node000003" class="edge">
<title>Node25&#45;&gt;Node3</title>
<g id="a_edge34_Node000025_Node000003"><a xlink:title=" ">
<path fill="none" stroke="#63b8ff" d="M605.83,-122.17C606.85,-122.03 607.87,-121.88 608.88,-121.75 863.55,-87.68 931.88,-124.56 1185.88,-85.75 1188.85,-85.3 1191.89,-84.76 1194.95,-84.17"/>
<polygon fill="#63b8ff" stroke="#63b8ff" points="605.56,-118.67 596.24,-123.7 606.66,-125.58 605.56,-118.67"/>
</a>
</g>
</g>
<!-- Node26 -->
<g id="Node000026" class="node">
<title>Node26</title>
<g id="a_Node000026"><a xlink:href="ModMenuScene_8cpp.html" target="_top" xlink:title=" ">
<polygon fill="white" stroke="#666666" points="539.62,-85.75 402.12,-85.75 402.12,-55.25 539.62,-55.25 539.62,-85.75"/>
<text xml:space="preserve" text-anchor="start" x="410.12" y="-72.25" font-family="Helvetica,sans-Serif" font-size="10.00">client/src/Scenes/ModMenu</text>
<text xml:space="preserve" text-anchor="middle" x="470.88" y="-61" font-family="Helvetica,sans-Serif" font-size="10.00">Scene.cpp</text>
</a>
</g>
</g>
<!-- Node25&#45;&gt;Node26 -->
<g id="edge35_Node000025_Node000026" class="edge">
<title>Node25&#45;&gt;Node26</title>
<g id="a_edge35_Node000025_Node000026"><a xlink:title=" ">
<path fill="none" stroke="#63b8ff" d="M516.03,-113.71C506.25,-104.57 495.19,-94.23 486.47,-86.08"/>
<polygon fill="#63b8ff" stroke="#63b8ff" points="513.42,-116.06 523.11,-120.33 518.2,-110.94 513.42,-116.06"/>
</a>
</g>
</g>
<!-- Node27&#45;&gt;Node3 -->
<g id="edge37_Node000027_Node000003" class="edge">
<title>Node27&#45;&gt;Node3</title>
<g id="a_edge37_Node000027_Node000003"><a xlink:title=" ">
<path fill="none" stroke="#63b8ff" d="M771.73,-121.63C955.28,-94.38 1006.35,-115.39 1185.88,-85.75 1188.84,-85.26 1191.88,-84.7 1194.94,-84.09"/>
<polygon fill="#63b8ff" stroke="#63b8ff" points="771.46,-118.13 762.09,-123.09 772.51,-125.05 771.46,-118.13"/>
</a>
</g>
</g>
<!-- Node28 -->
<g id="Node000028" class="node">
<title>Node28</title>
<g id="a_Node000028"><a xlink:href="PauseScene_8cpp.html" target="_top" xlink:title=" ">
<polygon fill="white" stroke="#666666" points="726.38,-80.12 557.38,-80.12 557.38,-60.88 726.38,-60.88 726.38,-80.12"/>
<text xml:space="preserve" text-anchor="middle" x="641.88" y="-66.62" font-family="Helvetica,sans-Serif" font-size="10.00">client/src/Scenes/PauseScene.cpp</text>
</a>
</g>
</g>
<!-- Node27&#45;&gt;Node28 -->
<g id="edge38_Node000027_Node000028" class="edge">
<title>Node27&#45;&gt;Node28</title>
<g id="a_edge38_Node000027_Node000028"><a xlink:title=" ">
<path fill="none" stroke="#63b8ff" d="M683.51,-113.46C672.17,-102.03 659.06,-88.82 650.63,-80.32"/>
<polygon fill="#63b8ff" stroke="#63b8ff" points="680.76,-115.66 690.29,-120.29 685.73,-110.73 680.76,-115.66"/>
</a>
</g>
</g>
<!-- Node29&#45;&gt;Node3 -->
<g id="edge40_Node000029_Node000003" class="edge">
<title>Node29&#45;&gt;Node3</title>
<g id="a_edge40_Node000029_Node000003"><a xlink:title=" ">
<path fill="none" stroke="#63b8ff" d="M2027.01,-121.52C1706.94,-79.07 1618.82,-132.08 1301.88,-85.75 1298.9,-85.32 1295.85,-84.8 1292.79,-84.22"/>
<polygon fill="#63b8ff" stroke="#63b8ff" points="2026.12,-124.93 2036.5,-122.8 2027.06,-117.99 2026.12,-124.93"/>
</a>
</g>
</g>
<!-- Node29&#45;&gt;Node30 -->
<g id="edge41_Node000029_Node000030" class="edge">
<title>Node29&#45;&gt;Node30</title>
<g id="a_edge41_Node000029_Node000030"><a xlink:title=" ">
<path fill="none" stroke="#63b8ff" d="M2137.37,-116.87C2160.2,-107.05 2187.57,-95.28 2208.71,-86.19"/>
<polygon fill="#63b8ff" stroke="#63b8ff" points="2136.11,-113.6 2128.3,-120.77 2138.87,-120.03 2136.11,-113.6"/>
</a>
</g>
</g>
<!-- Node31&#45;&gt;Node3 -->
<g id="edge43_Node000031_Node000003" class="edge">
<title>Node31&#45;&gt;Node3</title>
<g id="a_edge43_Node000031_Node000003"><a xlink:title=" ">
<path fill="none" stroke="#63b8ff" d="M2154.39,-121.6C1777.28,-77.41 1674.73,-138.86 1301.88,-85.75 1298.9,-85.33 1295.85,-84.82 1292.79,-84.24"/>
<polygon fill="#63b8ff" stroke="#63b8ff" points="2153.78,-125.05 2164.12,-122.76 2154.61,-118.1 2153.78,-125.05"/>
</a>
</g>
</g>
<!-- Node31&#45;&gt;Node32 -->
<g id="edge44_Node000031_Node000032" class="edge">
<title>Node31&#45;&gt;Node32</title>
<g id="a_edge44_Node000031_Node000032"><a xlink:title=" ">
<path fill="none" stroke="#63b8ff" d="M2277.77,-117.4C2304.38,-107.48 2336.65,-95.45 2361.47,-86.19"/>
<polygon fill="#63b8ff" stroke="#63b8ff" points="2276.7,-114.06 2268.55,-120.84 2279.14,-120.62 2276.7,-114.06"/>
</a>
</g>
</g>
<!-- Node33&#45;&gt;Node3 -->
<g id="edge46_Node000033_Node000003" class="edge">
<title>Node33&#45;&gt;Node3</title>
<g id="a_edge46_Node000033_Node000003"><a xlink:title=" ">
<path fill="none" stroke="#63b8ff" d="M898.61,-121.57C1026.35,-100.16 1062.07,-108.59 1185.88,-85.75 1188.83,-85.2 1191.86,-84.6 1194.91,-83.96"/>
<polygon fill="#63b8ff" stroke="#63b8ff" points="898.38,-118.06 889.11,-123.2 899.56,-124.96 898.38,-118.06"/>
</a>
</g>
</g>
<!-- Node34 -->
<g id="Node000034" class="node">
<title>Node34</title>
<g id="a_Node000034"><a xlink:href="SettingsScene_8cpp.html" target="_top" xlink:title=" ">
<polygon fill="white" stroke="#666666" points="875.25,-85.75 744.5,-85.75 744.5,-55.25 875.25,-55.25 875.25,-85.75"/>
<text xml:space="preserve" text-anchor="start" x="752.5" y="-72.25" font-family="Helvetica,sans-Serif" font-size="10.00">client/src/Scenes/Settings</text>
<text xml:space="preserve" text-anchor="middle" x="809.88" y="-61" font-family="Helvetica,sans-Serif" font-size="10.00">Scene.cpp</text>
</a>
</g>
</g>
<!-- Node33&#45;&gt;Node34 -->
<g id="edge47_Node000033_Node000034" class="edge">
<title>Node33&#45;&gt;Node34</title>
<g id="a_edge47_Node000033_Node000034"><a xlink:title=" ">
<path fill="none" stroke="#63b8ff" d="M823.83,-110.63C820.86,-102.3 817.66,-93.33 815.07,-86.08"/>
<polygon fill="#63b8ff" stroke="#63b8ff" points="820.49,-111.69 827.15,-119.94 827.09,-109.34 820.49,-111.69"/>
</a>
</g>
</g>
</g>
</svg>

<g id="navigator" transform="translate(0 0)" fill="#404254">
  <rect fill="#f2f5e9" fill-opacity="0.5" stroke="#606060" stroke-width=".5" x="0" y="0" width="60" height="60"/>
  <use id="zoomplus" xlink:href="#zoomPlus" x="17" y="9" onmousedown="handleZoom(evt,'in')"/>
  <use id="zoomminus" xlink:href="#zoomMin" x="42" y="9" onmousedown="handleZoom(evt,'out')"/>
  <use id="reset" xlink:href="#resetDef" x="30" y="36" onmousedown="handleReset()"/>
   <use id="arrowup" xlink:href="#arrowUp" x="0" y="0" onmousedown="handlePan(0,-1)"/>
  <use id="arrowright" xlink:href="#arrowRight" x="0" y="0" onmousedown="handlePan(1,0)"/>
  <use id="arrowdown" xlink:href="#arrowDown" x="0" y="0" onmousedown="handlePan(0,1)"/>
  <use id="arrowleft" xlink:href="#arrowLeft" x="0" y="0" onmousedown="handlePan(-1,0)"/>
</g>
<svg viewBox="0 0 15 15" width="100%" height="30px" preserveAspectRatio="xMaxYMin meet">
 <g id="arrow_out" transform="scale(0.3 0.3)">
  <a xlink:href="TextInput_8hpp__dep__incl_org.svg" target="_base">
   <rect id="button" ry="5" rx="5" y="6" x="6" height="38" width="38"
        fill="#f2f5e9" fill-opacity="0.5" stroke="#606060" stroke-width="1.0"/>
   <path id="arrow"
     d="M 11.500037,31.436501 C 11.940474,20.09759 22.043105,11.32322 32.158766,21.979434 L 37.068811,17.246167 C 37.068811,17.246167 37.088388,32 37.088388,32 L 22.160133,31.978069 C 22.160133,31.978069 26.997745,27.140456 26.997745,27.140456 C 18.528582,18.264221 13.291696,25.230495 11.500037,31.436501 z"
     style="fill:#404040;"/>
  </a>
 </g>
</svg>

<style type='text/css'>
<![CDATA[
[data-mouse-over-selected='false'] { opacity: 0.7; }
[data-mouse-over-selected='true']  { opacity: 1.0; }
]]>
</style>
<script type="application/ecmascript"><![CDATA[
document.addEventListener('DOMContentLoaded', (event) => {
  highlightEdges();
  highlightAdjacentNodes();
});
]]></script>
</svg>
