<?xml version="1.0" encoding="UTF-8" standalone="no"?>
<!DOCTYPE svg PUBLIC "-//W3C//DTD SVG 1.1//EN"
 "http://www.w3.org/Graphics/SVG/1.1/DTD/svg11.dtd">
<!-- Generated by graphviz version 14.0.5 (20251129.0259)
 -->
<!-- Title: common/include/RType/ECS/Components/UI/TextInput.hpp Pages: 1 -->
<svg width="963pt" height="393pt"
 viewBox="0.00 0.00 963.00 393.00" xmlns="http://www.w3.org/2000/svg" xmlns:xlink="http://www.w3.org/1999/xlink">
<g id="graph0" class="graph" transform="scale(1 1) rotate(0) translate(4 388.5)">
<title>common/include/RType/ECS/Components/UI/TextInput.hpp</title>
<!-- Node1 -->
<g id="Node000001" class="node">
<title>Node1</title>
<g id="a_Node000001"><a xlink:title=" ">
<polygon fill="#999999" stroke="#666666" points="863.12,-384.5 688.88,-384.5 688.88,-354 863.12,-354 863.12,-384.5"/>
<text xml:space="preserve" text-anchor="start" x="696.88" y="-371" font-family="Helvetica,sans-Serif" font-size="10.00">common/include/RType</text>
<text xml:space="preserve" text-anchor="middle" x="776" y="-359.75" font-family="Helvetica,sans-Serif" font-size="10.00">/ECS/Components/UI/TextInput.hpp</text>
</a>
</g>
</g>
<!-- Node2 -->
<g id="Node000002" class="node">
<title>Node2</title>
<g id="a_Node000002"><a xlink:title=" ">
<polygon fill="#e0e0e0" stroke="#999999" points="60.62,-19.25 15.38,-19.25 15.38,0 60.62,0 60.62,-19.25"/>
<text xml:space="preserve" text-anchor="middle" x="38" y="-5.75" font-family="Helvetica,sans-Serif" font-size="10.00">cstdint</text>
</a>
</g>
</g>
<!-- Node1&#45;&gt;Node2 -->
<g id="edge1_Node000001_Node000002" class="edge">
<title>Node1&#45;&gt;Node2</title>
<g id="a_edge1_Node000001_Node000002"><a xlink:title=" ">
<path fill="none" stroke="#63b8ff" d="M688.49,-363.79C485.55,-352.27 0,-317.51 0,-248.5 0,-248.5 0,-248.5 0,-119.12 0,-86.13 15.84,-50.51 27.07,-29.41"/>
<polygon fill="#63b8ff" stroke="#63b8ff" points="30.02,-31.3 31.82,-20.86 23.9,-27.9 30.02,-31.3"/>
</a>
</g>
</g>
<!-- Node3 -->
<g id="Node000003" class="node">
<title>Node3</title>
<g id="a_Node000003"><a xlink:title=" ">
<polygon fill="#e0e0e0" stroke="#999999" points="955,-318 897,-318 897,-298.75 955,-298.75 955,-318"/>
<text xml:space="preserve" text-anchor="middle" x="926" y="-304.5" font-family="Helvetica,sans-Serif" font-size="10.00">functional</text>
</a>
</g>
</g>
<!-- Node1&#45;&gt;Node3 -->
<g id="edge2_Node000001_Node000003" class="edge">
<title>Node1&#45;&gt;Node3</title>
<g id="a_edge2_Node000001_Node000003"><a xlink:title=" ">
<path fill="none" stroke="#63b8ff" d="M813.46,-353.55C837.74,-344.02 869.07,-331.72 892.51,-322.52"/>
<polygon fill="#63b8ff" stroke="#63b8ff" points="893.56,-325.87 901.59,-318.96 891,-319.35 893.56,-325.87"/>
</a>
</g>
</g>
<!-- Node4 -->
<g id="Node000004" class="node">
<title>Node4</title>
<g id="a_Node000004"><a xlink:title=" ">
<polygon fill="#e0e0e0" stroke="#999999" points="649,-74.5 609,-74.5 609,-55.25 649,-55.25 649,-74.5"/>
<text xml:space="preserve" text-anchor="middle" x="629" y="-61" font-family="Helvetica,sans-Serif" font-size="10.00">string</text>
</a>
</g>
</g>
<!-- Node1&#45;&gt;Node4 -->
<g id="edge3_Node000001_Node000004" class="edge">
<title>Node1&#45;&gt;Node4</title>
<g id="a_edge3_Node000001_Node000004"><a xlink:title=" ">
<path fill="none" stroke="#63b8ff" d="M798.04,-353.71C825.54,-333.61 869,-294.57 869,-248.5 869,-248.5 869,-248.5 869,-180 869,-147.98 873.4,-132.36 850,-110.5 822.95,-85.22 715.18,-72.93 660.77,-68.24"/>
<polygon fill="#63b8ff" stroke="#63b8ff" points="661.16,-64.76 650.91,-67.43 660.59,-71.74 661.16,-64.76"/>
</a>
</g>
</g>
<!-- Node5 -->
<g id="Node000005" class="node">
<title>Node5</title>
<g id="a_Node000005"><a xlink:href="Vec2_8hpp.html" target="_top" xlink:title="Declaration of the 2&#45;dimensional vector class.">
<polygon fill="white" stroke="#666666" points="678.75,-318 565.25,-318 565.25,-298.75 678.75,-298.75 678.75,-318"/>
<text xml:space="preserve" text-anchor="middle" x="622" y="-304.5" font-family="Helvetica,sans-Serif" font-size="10.00">RType/Math/Vec2.hpp</text>
</a>
</g>
</g>
<!-- Node1&#45;&gt;Node5 -->
<g id="edge4_Node000001_Node000005" class="edge">
<title>Node1&#45;&gt;Node5</title>
<g id="a_edge4_Node000001_Node000005"><a xlink:title=" ">
<path fill="none" stroke="#63b8ff" d="M737.54,-353.55C712.51,-343.98 680.15,-331.61 656.05,-322.39"/>
<polygon fill="#63b8ff" stroke="#63b8ff" points="657.62,-319.25 647.03,-318.94 655.12,-325.78 657.62,-319.25"/>
</a>
</g>
</g>
<!-- Node6 -->
<g id="Node000006" class="node">
<title>Node6</title>
<g id="a_Node000006"><a xlink:href="Assert_8hpp.html" target="_top" xlink:title="Assertion and verification macros for runtime checks.">
<polygon fill="white" stroke="#666666" points="514.38,-257.12 419.62,-257.12 419.62,-237.88 514.38,-237.88 514.38,-257.12"/>
<text xml:space="preserve" text-anchor="middle" x="467" y="-243.62" font-family="Helvetica,sans-Serif" font-size="10.00">RType/Assert.hpp</text>
</a>
</g>
</g>
<!-- Node5&#45;&gt;Node6 -->
<g id="edge5_Node000005_Node000006" class="edge">
<title>Node5&#45;&gt;Node6</title>
<g id="a_edge5_Node000005_Node000006"><a xlink:title=" ">
<path fill="none" stroke="#63b8ff" d="M598.12,-298.3C572.29,-288.49 530.88,-272.76 501.51,-261.61"/>
<polygon fill="#63b8ff" stroke="#63b8ff" points="502.91,-258.4 492.32,-258.12 500.43,-264.94 502.91,-258.4"/>
</a>
</g>
</g>
<!-- Node22 -->
<g id="Node000022" class="node">
<title>Node22</title>
<g id="a_Node000022"><a xlink:href="VecBase_8hpp.html" target="_top" xlink:title="Declaration of the CRTP base vector class.">
<polygon fill="white" stroke="#666666" points="720.38,-262.75 619.62,-262.75 619.62,-232.25 720.38,-232.25 720.38,-262.75"/>
<text xml:space="preserve" text-anchor="start" x="627.62" y="-249.25" font-family="Helvetica,sans-Serif" font-size="10.00">RType/Math/details</text>
<text xml:space="preserve" text-anchor="middle" x="670" y="-238" font-family="Helvetica,sans-Serif" font-size="10.00">/VecBase.hpp</text>
</a>
</g>
</g>
<!-- Node5&#45;&gt;Node22 -->
<g id="edge32_Node000005_Node000022" class="edge">
<title>Node5&#45;&gt;Node22</title>
<g id="a_edge32_Node000005_Node000022"><a xlink:title=" ">
<path fill="none" stroke="#63b8ff" d="M629.29,-298.43C635.03,-291.39 643.31,-281.23 650.91,-271.92"/>
<polygon fill="#63b8ff" stroke="#63b8ff" points="653.59,-274.17 657.2,-264.21 648.16,-269.74 653.59,-274.17"/>
</a>
</g>
</g>
<!-- Node28 -->
<g id="Node000028" class="node">
<title>Node28</title>
<g id="a_Node000028"><a xlink:href="Vec2_8tpp.html" target="_top" xlink:title=" ">
<polygon fill="white" stroke="#666666" points="601.5,-257.12 546.5,-257.12 546.5,-237.88 601.5,-237.88 601.5,-257.12"/>
<text xml:space="preserve" text-anchor="middle" x="574" y="-243.62" font-family="Helvetica,sans-Serif" font-size="10.00">Vec2.tpp</text>
</a>
</g>
</g>
<!-- Node5&#45;&gt;Node28 -->
<g id="edge39_Node000005_Node000028" class="edge">
<title>Node5&#45;&gt;Node28</title>
<g id="a_edge39_Node000005_Node000028"><a xlink:title=" ">
<path fill="none" stroke="#63b8ff" d="M614.71,-298.43C607.8,-289.96 597.23,-276.99 588.59,-266.39"/>
<polygon fill="#63b8ff" stroke="#63b8ff" points="591.35,-264.24 582.32,-258.7 585.92,-268.66 591.35,-264.24"/>
</a>
</g>
</g>
<!-- Node7 -->
<g id="Node000007" class="node">
<title>Node7</title>
<g id="a_Node000007"><a xlink:href="Logger_8hpp.html" target="_top" xlink:title="Logger declaration with support for multiple log levels.">
<polygon fill="white" stroke="#666666" points="426.38,-190.62 331.62,-190.62 331.62,-171.38 426.38,-171.38 426.38,-190.62"/>
<text xml:space="preserve" text-anchor="middle" x="379" y="-177.12" font-family="Helvetica,sans-Serif" font-size="10.00">RType/Logger.hpp</text>
</a>
</g>
</g>
<!-- Node6&#45;&gt;Node7 -->
<g id="edge6_Node000006_Node000007" class="edge">
<title>Node6&#45;&gt;Node7</title>
<g id="a_edge6_Node000006_Node000007"><a xlink:title=" ">
<path fill="none" stroke="#63b8ff" d="M454.76,-237.53C440.79,-227.29 417.66,-210.34 400.63,-197.85"/>
<polygon fill="#63b8ff" stroke="#63b8ff" points="402.77,-195.08 392.64,-191.99 398.63,-200.73 402.77,-195.08"/>
</a>
</g>
</g>
<!-- Node21 -->
<g id="Node000021" class="node">
<title>Node21</title>
<g id="a_Node000021"><a xlink:title=" ">
<polygon fill="#e0e0e0" stroke="#999999" points="489.25,-190.62 444.75,-190.62 444.75,-171.38 489.25,-171.38 489.25,-190.62"/>
<text xml:space="preserve" text-anchor="middle" x="467" y="-177.12" font-family="Helvetica,sans-Serif" font-size="10.00">cstdlib</text>
</a>
</g>
</g>
<!-- Node6&#45;&gt;Node21 -->
<g id="edge31_Node000006_Node000021" class="edge">
<title>Node6&#45;&gt;Node21</title>
<g id="a_edge31_Node000006_Node000021"><a xlink:title=" ">
<path fill="none" stroke="#63b8ff" d="M467,-237.53C467,-228.48 467,-214.2 467,-202.38"/>
<polygon fill="#63b8ff" stroke="#63b8ff" points="470.5,-202.41 467,-192.41 463.5,-202.41 470.5,-202.41"/>
</a>
</g>
</g>
<!-- Node7&#45;&gt;Node4 -->
<g id="edge26_Node000007_Node000004" class="edge">
<title>Node7&#45;&gt;Node4</title>
<g id="a_edge26_Node000007_Node000004"><a xlink:title=" ">
<path fill="none" stroke="#63b8ff" d="M412.92,-170.89C453.39,-159.77 518.42,-141.06 541,-129.75 566.92,-116.77 593.41,-96.38 610.46,-82.14"/>
<polygon fill="#63b8ff" stroke="#63b8ff" points="612.4,-85.08 617.74,-75.93 607.86,-79.75 612.4,-85.08"/>
</a>
</g>
</g>
<!-- Node8 -->
<g id="Node000008" class="node">
<title>Node8</title>
<g id="a_Node000008"><a xlink:href="LogLevel_8hpp.html" target="_top" xlink:title="Log severity levels for the logging system.">
<polygon fill="white" stroke="#666666" points="209.62,-74.5 104.38,-74.5 104.38,-55.25 209.62,-55.25 209.62,-74.5"/>
<text xml:space="preserve" text-anchor="middle" x="157" y="-61" font-family="Helvetica,sans-Serif" font-size="10.00">RType/LogLevel.hpp</text>
</a>
</g>
</g>
<!-- Node7&#45;&gt;Node8 -->
<g id="edge7_Node000007_Node000008" class="edge">
<title>Node7&#45;&gt;Node8</title>
<g id="a_edge7_Node000007_Node000008"><a xlink:title=" ">
<path fill="none" stroke="#63b8ff" d="M361.58,-171.04C323.17,-151.3 230.96,-103.9 184.6,-80.06"/>
<polygon fill="#63b8ff" stroke="#63b8ff" points="186.49,-77.1 175.99,-75.64 183.29,-83.32 186.49,-77.1"/>
</a>
</g>
</g>
<!-- Node9 -->
<g id="Node000009" class="node">
<title>Node9</title>
<g id="a_Node000009"><a xlink:title=" ">
<polygon fill="#e0e0e0" stroke="#999999" points="230.88,-19.25 187.12,-19.25 187.12,0 230.88,0 230.88,-19.25"/>
<text xml:space="preserve" text-anchor="middle" x="209" y="-5.75" font-family="Helvetica,sans-Serif" font-size="10.00">format</text>
</a>
</g>
</g>
<!-- Node7&#45;&gt;Node9 -->
<g id="edge24_Node000007_Node000009" class="edge">
<title>Node7&#45;&gt;Node9</title>
<g id="a_edge24_Node000007_Node000009"><a xlink:title=" ">
<path fill="none" stroke="#63b8ff" d="M353.21,-170.89C325.91,-161.13 281.67,-144.99 244,-129.75 224.21,-121.75 219.89,-118.25 200,-110.5 154.03,-92.6 123.67,-114.64 95,-74.5 90.03,-67.54 90.18,-62.32 95,-55.25 99.85,-48.14 144.17,-32.18 176.09,-21.4"/>
<polygon fill="#63b8ff" stroke="#63b8ff" points="176.96,-24.8 185.34,-18.31 174.75,-18.16 176.96,-24.8"/>
</a>
</g>
</g>
<!-- Node10 -->
<g id="Node000010" class="node">
<title>Node10</title>
<g id="a_Node000010"><a xlink:title=" ">
<polygon fill="#e0e0e0" stroke="#999999" points="575.75,-19.25 510.25,-19.25 510.25,0 575.75,0 575.75,-19.25"/>
<text xml:space="preserve" text-anchor="middle" x="543" y="-5.75" font-family="Helvetica,sans-Serif" font-size="10.00">string_view</text>
</a>
</g>
</g>
<!-- Node7&#45;&gt;Node10 -->
<g id="edge27_Node000007_Node000010" class="edge">
<title>Node7&#45;&gt;Node10</title>
<g id="a_edge27_Node000007_Node000010"><a xlink:title=" ">
<path fill="none" stroke="#63b8ff" d="M413.25,-170.94C420.72,-169.1 428.61,-167.27 436,-165.75 484.95,-155.68 625.61,-167.81 658,-129.75 679.46,-104.53 676.7,-82.57 658,-55.25 642.21,-32.19 612.63,-21.04 587.43,-15.66"/>
<polygon fill="#63b8ff" stroke="#63b8ff" points="588.18,-12.24 577.71,-13.84 586.89,-19.12 588.18,-12.24"/>
</a>
</g>
</g>
<!-- Node11 -->
<g id="Node000011" class="node">
<title>Node11</title>
<g id="a_Node000011"><a xlink:title=" ">
<polygon fill="#e0e0e0" stroke="#999999" points="365.62,-19.25 326.38,-19.25 326.38,0 365.62,0 365.62,-19.25"/>
<text xml:space="preserve" text-anchor="middle" x="346" y="-5.75" font-family="Helvetica,sans-Serif" font-size="10.00">utility</text>
</a>
</g>
</g>
<!-- Node7&#45;&gt;Node11 -->
<g id="edge29_Node000007_Node000011" class="edge">
<title>Node7&#45;&gt;Node11</title>
<g id="a_edge29_Node000007_Node000011"><a xlink:title=" ">
<path fill="none" stroke="#63b8ff" d="M406.16,-170.97C458.31,-152.2 563.94,-106.43 524,-55.25 506.14,-32.37 423.53,-19.45 377.39,-13.91"/>
<polygon fill="#63b8ff" stroke="#63b8ff" points="377.8,-10.43 367.47,-12.77 377,-17.38 377.8,-10.43"/>
</a>
</g>
</g>
<!-- Node13 -->
<g id="Node000013" class="node">
<title>Node13</title>
<g id="a_Node000013"><a xlink:href="Error_8hpp.html" target="_top" xlink:title="Error handling system with categorized error codes.">
<polygon fill="white" stroke="#666666" points="405.25,-129.75 318.75,-129.75 318.75,-110.5 405.25,-110.5 405.25,-129.75"/>
<text xml:space="preserve" text-anchor="middle" x="362" y="-116.25" font-family="Helvetica,sans-Serif" font-size="10.00">RType/Error.hpp</text>
</a>
</g>
</g>
<!-- Node7&#45;&gt;Node13 -->
<g id="edge13_Node000007_Node000013" class="edge">
<title>Node7&#45;&gt;Node13</title>
<g id="a_edge13_Node000007_Node000013"><a xlink:title=" ">
<path fill="none" stroke="#63b8ff" d="M376.42,-171.06C374.12,-163.1 370.68,-151.19 367.74,-140.99"/>
<polygon fill="#63b8ff" stroke="#63b8ff" points="371.16,-140.24 365.03,-131.61 364.44,-142.18 371.16,-140.24"/>
</a>
</g>
</g>
<!-- Node17 -->
<g id="Node000017" class="node">
<title>Node17</title>
<g id="a_Node000017"><a xlink:title=" ">
<polygon fill="#e0e0e0" stroke="#999999" points="648.88,-129.75 593.12,-129.75 593.12,-110.5 648.88,-110.5 648.88,-129.75"/>
<text xml:space="preserve" text-anchor="middle" x="621" y="-116.25" font-family="Helvetica,sans-Serif" font-size="10.00">expected</text>
</a>
</g>
</g>
<!-- Node7&#45;&gt;Node17 -->
<g id="edge23_Node000007_Node000017" class="edge">
<title>Node7&#45;&gt;Node17</title>
<g id="a_edge23_Node000007_Node000017"><a xlink:title=" ">
<path fill="none" stroke="#63b8ff" d="M415.17,-170.91C422.08,-169.19 429.26,-167.4 436,-165.75 486.3,-153.4 544.38,-139.44 581.84,-130.47"/>
<polygon fill="#63b8ff" stroke="#63b8ff" points="582.39,-133.94 591.3,-128.21 580.76,-127.13 582.39,-133.94"/>
</a>
</g>
</g>
<!-- Node18 -->
<g id="Node000018" class="node">
<title>Node18</title>
<g id="a_Node000018"><a xlink:title=" ">
<polygon fill="#e0e0e0" stroke="#999999" points="112.12,-129.75 27.88,-129.75 27.88,-110.5 112.12,-110.5 112.12,-129.75"/>
<text xml:space="preserve" text-anchor="middle" x="70" y="-116.25" font-family="Helvetica,sans-Serif" font-size="10.00">source_location</text>
</a>
</g>
</g>
<!-- Node7&#45;&gt;Node18 -->
<g id="edge25_Node000007_Node000018" class="edge">
<title>Node7&#45;&gt;Node18</title>
<g id="a_edge25_Node000007_Node000018"><a xlink:title=" ">
<path fill="none" stroke="#63b8ff" d="M331.4,-170.93C275.21,-160.22 182.04,-142.47 123.43,-131.31"/>
<polygon fill="#63b8ff" stroke="#63b8ff" points="124.16,-127.88 113.68,-129.45 122.85,-134.76 124.16,-127.88"/>
</a>
</g>
</g>
<!-- Node19 -->
<g id="Node000019" class="node">
<title>Node19</title>
<g id="a_Node000019"><a xlink:title=" ">
<polygon fill="#e0e0e0" stroke="#999999" points="766.88,-129.75 705.12,-129.75 705.12,-110.5 766.88,-110.5 766.88,-129.75"/>
<text xml:space="preserve" text-anchor="middle" x="736" y="-116.25" font-family="Helvetica,sans-Serif" font-size="10.00">type_traits</text>
</a>
</g>
</g>
<!-- Node7&#45;&gt;Node19 -->
<g id="edge28_Node000007_Node000019" class="edge">
<title>Node7&#45;&gt;Node19</title>
<g id="a_edge28_Node000007_Node000019"><a xlink:title=" ">
<path fill="none" stroke="#63b8ff" d="M412.93,-170.9C420.49,-169.04 428.49,-167.21 436,-165.75 548.34,-143.84 578.09,-148.53 691,-129.75 692,-129.58 693,-129.41 694.02,-129.24"/>
<polygon fill="#63b8ff" stroke="#63b8ff" points="694.33,-132.74 703.56,-127.53 693.1,-125.85 694.33,-132.74"/>
</a>
</g>
</g>
<!-- Node20 -->
<g id="Node000020" class="node">
<title>Node20</title>
<g id="a_Node000020"><a xlink:href="Logger_8tpp.html" target="_top" xlink:title=" ">
<polygon fill="white" stroke="#666666" points="191.5,-129.75 130.5,-129.75 130.5,-110.5 191.5,-110.5 191.5,-129.75"/>
<text xml:space="preserve" text-anchor="middle" x="161" y="-116.25" font-family="Helvetica,sans-Serif" font-size="10.00">Logger.tpp</text>
</a>
</g>
</g>
<!-- Node7&#45;&gt;Node20 -->
<g id="edge30_Node000007_Node000020" class="edge">
<title>Node7&#45;&gt;Node20</title>
<g id="a_edge30_Node000007_Node000020"><a xlink:title=" ">
<path fill="none" stroke="#63b8ff" d="M345.42,-170.93C307.1,-160.58 244.39,-143.65 202.9,-132.44"/>
<polygon fill="#63b8ff" stroke="#63b8ff" points="203.83,-129.07 193.26,-129.84 202,-135.82 203.83,-129.07"/>
</a>
</g>
</g>
<!-- Node8&#45;&gt;Node2 -->
<g id="edge8_Node000008_Node000002" class="edge">
<title>Node8&#45;&gt;Node2</title>
<g id="a_edge8_Node000008_Node000002"><a xlink:title=" ">
<path fill="none" stroke="#63b8ff" d="M136.81,-54.84C118.09,-46.47 89.98,-33.88 68.52,-24.28"/>
<polygon fill="#63b8ff" stroke="#63b8ff" points="70.22,-21.21 59.67,-20.32 67.37,-27.6 70.22,-21.21"/>
</a>
</g>
</g>
<!-- Node8&#45;&gt;Node9 -->
<g id="edge9_Node000008_Node000009" class="edge">
<title>Node8&#45;&gt;Node9</title>
<g id="a_edge9_Node000008_Node000009"><a xlink:title=" ">
<path fill="none" stroke="#63b8ff" d="M165.59,-55.08C172.84,-47.65 183.45,-36.79 192.37,-27.66"/>
<polygon fill="#63b8ff" stroke="#63b8ff" points="194.69,-30.29 199.17,-20.69 189.68,-25.4 194.69,-30.29"/>
</a>
</g>
</g>
<!-- Node8&#45;&gt;Node10 -->
<g id="edge10_Node000008_Node000010" class="edge">
<title>Node8&#45;&gt;Node10</title>
<g id="a_edge10_Node000008_Node000010"><a xlink:title=" ">
<path fill="none" stroke="#63b8ff" d="M210.1,-56.48C213.11,-56.07 216.09,-55.65 219,-55.25 318.87,-41.43 436.06,-25.31 498.51,-16.73"/>
<polygon fill="#63b8ff" stroke="#63b8ff" points="498.95,-20.21 508.38,-15.38 498,-13.27 498.95,-20.21"/>
</a>
</g>
</g>
<!-- Node8&#45;&gt;Node11 -->
<g id="edge11_Node000008_Node000011" class="edge">
<title>Node8&#45;&gt;Node11</title>
<g id="a_edge11_Node000008_Node000011"><a xlink:title=" ">
<path fill="none" stroke="#63b8ff" d="M189.06,-54.84C224.26,-44.92 280.38,-29.11 315.11,-19.33"/>
<polygon fill="#63b8ff" stroke="#63b8ff" points="315.87,-22.75 324.55,-16.67 313.97,-16.01 315.87,-22.75"/>
</a>
</g>
</g>
<!-- Node12 -->
<g id="Node000012" class="node">
<title>Node12</title>
<g id="a_Node000012"><a xlink:title=" ">
<polygon fill="#e0e0e0" stroke="#999999" points="168.88,-19.25 101.12,-19.25 101.12,0 168.88,0 168.88,-19.25"/>
<text xml:space="preserve" text-anchor="middle" x="135" y="-5.75" font-family="Helvetica,sans-Serif" font-size="10.00">LogLevel.inl</text>
</a>
</g>
</g>
<!-- Node8&#45;&gt;Node12 -->
<g id="edge12_Node000008_Node000012" class="edge">
<title>Node8&#45;&gt;Node12</title>
<g id="a_edge12_Node000008_Node000012"><a xlink:title=" ">
<path fill="none" stroke="#63b8ff" d="M153.37,-55.08C150.58,-48.34 146.63,-38.77 143.1,-30.24"/>
<polygon fill="#63b8ff" stroke="#63b8ff" points="146.34,-28.91 139.29,-21.01 139.87,-31.59 146.34,-28.91"/>
</a>
</g>
</g>
<!-- Node13&#45;&gt;Node2 -->
<g id="edge15_Node000013_Node000002" class="edge">
<title>Node13&#45;&gt;Node2</title>
<g id="a_edge15_Node000013_Node000002"><a xlink:title=" ">
<path fill="none" stroke="#63b8ff" d="M318.44,-115.37C252.91,-109.15 132.66,-95.26 95,-74.5 75.52,-63.76 59.33,-43.74 49.25,-28.97"/>
<polygon fill="#63b8ff" stroke="#63b8ff" points="52.22,-27.11 43.85,-20.62 46.34,-30.91 52.22,-27.11"/>
</a>
</g>
</g>
<!-- Node13&#45;&gt;Node4 -->
<g id="edge17_Node000013_Node000004" class="edge">
<title>Node13&#45;&gt;Node4</title>
<g id="a_edge17_Node000013_Node000004"><a xlink:title=" ">
<path fill="none" stroke="#63b8ff" d="M405.49,-110.45C459.44,-99.69 550.08,-81.61 597.67,-72.12"/>
<polygon fill="#63b8ff" stroke="#63b8ff" points="598.18,-75.59 607.31,-70.2 596.82,-68.72 598.18,-75.59"/>
</a>
</g>
</g>
<!-- Node13&#45;&gt;Node8 -->
<g id="edge14_Node000013_Node000008" class="edge">
<title>Node13&#45;&gt;Node8</title>
<g id="a_edge14_Node000013_Node000008"><a xlink:title=" ">
<path fill="none" stroke="#63b8ff" d="M327.22,-110.09C292.91,-101.18 240.28,-87.51 202.63,-77.73"/>
<polygon fill="#63b8ff" stroke="#63b8ff" points="203.97,-74.46 193.41,-75.33 202.21,-81.23 203.97,-74.46"/>
</a>
</g>
</g>
<!-- Node13&#45;&gt;Node9 -->
<g id="edge16_Node000013_Node000009" class="edge">
<title>Node13&#45;&gt;Node9</title>
<g id="a_edge16_Node000013_Node000009"><a xlink:title=" ">
<path fill="none" stroke="#63b8ff" d="M353.07,-110.2C339.8,-97.2 313.78,-72.71 289,-55.25 272.84,-43.86 253.51,-33.01 237.9,-24.86"/>
<polygon fill="#63b8ff" stroke="#63b8ff" points="239.61,-21.81 229.12,-20.37 236.42,-28.04 239.61,-21.81"/>
</a>
</g>
</g>
<!-- Node13&#45;&gt;Node10 -->
<g id="edge18_Node000013_Node000010" class="edge">
<title>Node13&#45;&gt;Node10</title>
<g id="a_edge18_Node000013_Node000010"><a xlink:title=" ">
<path fill="none" stroke="#63b8ff" d="M405.52,-118.32C441.83,-115.32 492.54,-105.33 524,-74.5 535.64,-63.09 540.22,-44.9 541.99,-30.84"/>
<polygon fill="#63b8ff" stroke="#63b8ff" points="545.48,-31.17 542.82,-20.91 538.5,-30.59 545.48,-31.17"/>
</a>
</g>
</g>
<!-- Node13&#45;&gt;Node11 -->
<g id="edge20_Node000013_Node000011" class="edge">
<title>Node13&#45;&gt;Node11</title>
<g id="a_edge20_Node000013_Node000011"><a xlink:title=" ">
<path fill="none" stroke="#63b8ff" d="M360.69,-110.25C358.15,-93 352.48,-54.58 348.98,-30.81"/>
<polygon fill="#63b8ff" stroke="#63b8ff" points="352.47,-30.51 347.55,-21.12 345.54,-31.53 352.47,-30.51"/>
</a>
</g>
</g>
<!-- Node14 -->
<g id="Node000014" class="node">
<title>Node14</title>
<g id="a_Node000014"><a xlink:title=" ">
<polygon fill="#e0e0e0" stroke="#999999" points="447.5,-74.5 374.5,-74.5 374.5,-55.25 447.5,-55.25 447.5,-74.5"/>
<text xml:space="preserve" text-anchor="middle" x="411" y="-61" font-family="Helvetica,sans-Serif" font-size="10.00">system_error</text>
</a>
</g>
</g>
<!-- Node13&#45;&gt;Node14 -->
<g id="edge19_Node000013_Node000014" class="edge">
<title>Node13&#45;&gt;Node14</title>
<g id="a_edge19_Node000013_Node000014"><a xlink:title=" ">
<path fill="none" stroke="#63b8ff" d="M370.09,-110.33C376.86,-102.98 386.72,-92.26 395.06,-83.19"/>
<polygon fill="#63b8ff" stroke="#63b8ff" points="397.51,-85.7 401.71,-75.97 392.36,-80.96 397.51,-85.7"/>
</a>
</g>
</g>
<!-- Node15 -->
<g id="Node000015" class="node">
<title>Node15</title>
<g id="a_Node000015"><a xlink:title=" ">
<polygon fill="#e0e0e0" stroke="#999999" points="514.5,-74.5 465.5,-74.5 465.5,-55.25 514.5,-55.25 514.5,-74.5"/>
<text xml:space="preserve" text-anchor="middle" x="490" y="-61" font-family="Helvetica,sans-Serif" font-size="10.00">Error.inl</text>
</a>
</g>
</g>
<!-- Node13&#45;&gt;Node15 -->
<g id="edge21_Node000013_Node000015" class="edge">
<title>Node13&#45;&gt;Node15</title>
<g id="a_edge21_Node000013_Node000015"><a xlink:title=" ">
<path fill="none" stroke="#63b8ff" d="M383.71,-110.09C404.03,-101.64 434.65,-88.9 457.81,-79.27"/>
<polygon fill="#63b8ff" stroke="#63b8ff" points="458.89,-82.61 466.78,-75.53 456.21,-76.14 458.89,-82.61"/>
</a>
</g>
</g>
<!-- Node16 -->
<g id="Node000016" class="node">
<title>Node16</title>
<g id="a_Node000016"><a xlink:href="Error_8tpp.html" target="_top" xlink:title=" ">
<polygon fill="white" stroke="#666666" points="280.38,-74.5 227.62,-74.5 227.62,-55.25 280.38,-55.25 280.38,-74.5"/>
<text xml:space="preserve" text-anchor="middle" x="254" y="-61" font-family="Helvetica,sans-Serif" font-size="10.00">Error.tpp</text>
</a>
</g>
</g>
<!-- Node13&#45;&gt;Node16 -->
<g id="edge22_Node000013_Node000016" class="edge">
<title>Node13&#45;&gt;Node16</title>
<g id="a_edge22_Node000013_Node000016"><a xlink:title=" ">
<path fill="none" stroke="#63b8ff" d="M343.68,-110.09C326.92,-101.83 301.87,-89.48 282.5,-79.93"/>
<polygon fill="#63b8ff" stroke="#63b8ff" points="284.28,-76.9 273.77,-75.62 281.19,-83.18 284.28,-76.9"/>
</a>
</g>
</g>
<!-- Node23 -->
<g id="Node000023" class="node">
<title>Node23</title>
<g id="a_Node000023"><a xlink:href="NumericConcept_8hpp.html" target="_top" xlink:title="Definition of the Numeric concept.">
<polygon fill="white" stroke="#666666" points="840.62,-196.25 729.38,-196.25 729.38,-165.75 840.62,-165.75 840.62,-196.25"/>
<text xml:space="preserve" text-anchor="start" x="737.38" y="-182.75" font-family="Helvetica,sans-Serif" font-size="10.00">RType/Math/details</text>
<text xml:space="preserve" text-anchor="middle" x="785" y="-171.5" font-family="Helvetica,sans-Serif" font-size="10.00">/NumericConcept.hpp</text>
</a>
</g>
</g>
<!-- Node22&#45;&gt;Node23 -->
<g id="edge33_Node000022_Node000023" class="edge">
<title>Node22&#45;&gt;Node23</title>
<g id="a_edge33_Node000022_Node000023"><a xlink:title=" ">
<path fill="none" stroke="#63b8ff" d="M696.1,-231.86C711.83,-223.04 732.09,-211.68 749.29,-202.03"/>
<polygon fill="#63b8ff" stroke="#63b8ff" points="750.68,-205.26 757.69,-197.32 747.25,-199.16 750.68,-205.26"/>
</a>
</g>
</g>
<!-- Node25 -->
<g id="Node000025" class="node">
<title>Node25</title>
<g id="a_Node000025"><a xlink:title=" ">
<polygon fill="#e0e0e0" stroke="#999999" points="640.5,-190.62 597.5,-190.62 597.5,-171.38 640.5,-171.38 640.5,-190.62"/>
<text xml:space="preserve" text-anchor="middle" x="619" y="-177.12" font-family="Helvetica,sans-Serif" font-size="10.00">cmath</text>
</a>
</g>
</g>
<!-- Node22&#45;&gt;Node25 -->
<g id="edge36_Node000022_Node000025" class="edge">
<title>Node22&#45;&gt;Node25</title>
<g id="a_edge36_Node000022_Node000025"><a xlink:title=" ">
<path fill="none" stroke="#63b8ff" d="M658.43,-231.86C650.86,-222.29 640.92,-209.72 632.92,-199.6"/>
<polygon fill="#63b8ff" stroke="#63b8ff" points="635.86,-197.68 626.91,-192.01 630.37,-202.02 635.86,-197.68"/>
</a>
</g>
</g>
<!-- Node26 -->
<g id="Node000026" class="node">
<title>Node26</title>
<g id="a_Node000026"><a xlink:title=" ">
<polygon fill="#e0e0e0" stroke="#999999" points="711.75,-190.62 658.25,-190.62 658.25,-171.38 711.75,-171.38 711.75,-190.62"/>
<text xml:space="preserve" text-anchor="middle" x="685" y="-177.12" font-family="Helvetica,sans-Serif" font-size="10.00">iostream</text>
</a>
</g>
</g>
<!-- Node22&#45;&gt;Node26 -->
<g id="edge37_Node000022_Node000026" class="edge">
<title>Node22&#45;&gt;Node26</title>
<g id="a_edge37_Node000022_Node000026"><a xlink:title=" ">
<path fill="none" stroke="#63b8ff" d="M673.4,-231.86C675.47,-222.98 678.14,-211.52 680.39,-201.83"/>
<polygon fill="#63b8ff" stroke="#63b8ff" points="683.75,-202.83 682.61,-192.3 676.93,-201.24 683.75,-202.83"/>
</a>
</g>
</g>
<!-- Node27 -->
<g id="Node000027" class="node">
<title>Node27</title>
<g id="a_Node000027"><a xlink:href="VecBase_8tpp.html" target="_top" xlink:title=" ">
<polygon fill="white" stroke="#666666" points="579.12,-190.62 506.88,-190.62 506.88,-171.38 579.12,-171.38 579.12,-190.62"/>
<text xml:space="preserve" text-anchor="middle" x="543" y="-177.12" font-family="Helvetica,sans-Serif" font-size="10.00">VecBase.tpp</text>
</a>
</g>
</g>
<!-- Node22&#45;&gt;Node27 -->
<g id="edge38_Node000022_Node000027" class="edge">
<title>Node22&#45;&gt;Node27</title>
<g id="a_edge38_Node000022_Node000027"><a xlink:title=" ">
<path fill="none" stroke="#63b8ff" d="M641.18,-231.86C620.12,-221.17 591.71,-206.74 570.87,-196.15"/>
<polygon fill="#63b8ff" stroke="#63b8ff" points="572.59,-193.1 562.09,-191.7 569.42,-199.34 572.59,-193.1"/>
</a>
</g>
</g>
<!-- Node23&#45;&gt;Node19 -->
<g id="edge35_Node000023_Node000019" class="edge">
<title>Node23&#45;&gt;Node19</title>
<g id="a_edge35_Node000023_Node000019"><a xlink:title=" ">
<path fill="none" stroke="#63b8ff" d="M772.89,-165.45C766.22,-157.43 757.88,-147.42 750.82,-138.94"/>
<polygon fill="#63b8ff" stroke="#63b8ff" points="753.61,-136.81 744.52,-131.36 748.23,-141.29 753.61,-136.81"/>
</a>
</g>
</g>
<!-- Node24 -->
<g id="Node000024" class="node">
<title>Node24</title>
<g id="a_Node000024"><a xlink:title=" ">
<polygon fill="#e0e0e0" stroke="#999999" points="840.88,-129.75 785.12,-129.75 785.12,-110.5 840.88,-110.5 840.88,-129.75"/>
<text xml:space="preserve" text-anchor="middle" x="813" y="-116.25" font-family="Helvetica,sans-Serif" font-size="10.00">concepts</text>
</a>
</g>
</g>
<!-- Node23&#45;&gt;Node24 -->
<g id="edge34_Node000023_Node000024" class="edge">
<title>Node23&#45;&gt;Node24</title>
<g id="a_edge34_Node000023_Node000024"><a xlink:title=" ">
<path fill="none" stroke="#63b8ff" d="M791.92,-165.45C795.49,-157.95 799.89,-148.7 803.74,-140.6"/>
<polygon fill="#63b8ff" stroke="#63b8ff" points="806.9,-142.1 808.03,-131.57 800.58,-139.1 806.9,-142.1"/>
</a>
</g>
</g>
</g>
</svg>
