<?xml version="1.0" encoding="UTF-8" standalone="no"?>
<!DOCTYPE svg PUBLIC "-//W3C//DTD SVG 1.1//EN"
 "http://www.w3.org/Graphics/SVG/1.1/DTD/svg11.dtd">
<!-- Generated by graphviz version 14.0.5 (20251129.0259)
 -->
<!-- Title: common/include/RType/ECS/Components/UI/Text.hpp Pages: 1 -->
<svg width="2569pt" height="293pt"
 viewBox="0.00 0.00 2569.00 293.00" xmlns="http://www.w3.org/2000/svg" xmlns:xlink="http://www.w3.org/1999/xlink">
<g id="graph0" class="graph" transform="scale(1 1) rotate(0) translate(4 289.25)">
<title>common/include/RType/ECS/Components/UI/Text.hpp</title>
<!-- Node1 -->
<g id="Node000001" class="node">
<title>Node1</title>
<g id="a_Node000001"><a xlink:title=" ">
<polygon fill="#999999" stroke="#666666" points="1162,-285.25 1009.5,-285.25 1009.5,-254.75 1162,-254.75 1162,-285.25"/>
<text xml:space="preserve" text-anchor="start" x="1017.5" y="-271.75" font-family="Helvetica,sans-Serif" font-size="10.00">common/include/RType</text>
<text xml:space="preserve" text-anchor="middle" x="1085.75" y="-260.5" font-family="Helvetica,sans-Serif" font-size="10.00">/ECS/Components/UI/Text.hpp</text>
</a>
</g>
</g>
<!-- Node2 -->
<g id="Node000002" class="node">
<title>Node2</title>
<g id="a_Node000002"><a xlink:href="Application_8hpp.html" target="_top" xlink:title=" ">
<polygon fill="white" stroke="#666666" points="1203.25,-85.75 1106.25,-85.75 1106.25,-55.25 1203.25,-55.25 1203.25,-85.75"/>
<text xml:space="preserve" text-anchor="start" x="1114.25" y="-72.25" font-family="Helvetica,sans-Serif" font-size="10.00">client/include/Core</text>
<text xml:space="preserve" text-anchor="middle" x="1154.75" y="-61" font-family="Helvetica,sans-Serif" font-size="10.00">/Application.hpp</text>
</a>
</g>
</g>
<!-- Node1&#45;&gt;Node2 -->
<g id="edge1_Node000001_Node000002" class="edge">
<title>Node1&#45;&gt;Node2</title>
<g id="a_edge1_Node000001_Node000002"><a xlink:title=" ">
<path fill="none" stroke="#63b8ff" d="M998.04,-253.36C900.09,-232.2 762.58,-189.17 821.75,-121.75 862.4,-75.43 1036.18,-97.12 1096.75,-85.75 1099.71,-85.2 1102.74,-84.58 1105.79,-83.93"/>
<polygon fill="#63b8ff" stroke="#63b8ff" points="997.18,-256.75 1007.69,-255.39 998.63,-249.9 997.18,-256.75"/>
</a>
</g>
</g>
<!-- Node5 -->
<g id="Node000005" class="node">
<title>Node5</title>
<g id="a_Node000005"><a xlink:href="UIRenderSystem_8hpp.html" target="_top" xlink:title=" ">
<polygon fill="white" stroke="#666666" points="340.25,-218.75 225.25,-218.75 225.25,-188.25 340.25,-188.25 340.25,-218.75"/>
<text xml:space="preserve" text-anchor="start" x="233.25" y="-205.25" font-family="Helvetica,sans-Serif" font-size="10.00">client/include/Systems</text>
<text xml:space="preserve" text-anchor="middle" x="282.75" y="-194" font-family="Helvetica,sans-Serif" font-size="10.00">/UIRenderSystem.hpp</text>
</a>
</g>
</g>
<!-- Node1&#45;&gt;Node5 -->
<g id="edge4_Node000001_Node000005" class="edge">
<title>Node1&#45;&gt;Node5</title>
<g id="a_edge4_Node000001_Node000005"><a xlink:title=" ">
<path fill="none" stroke="#63b8ff" d="M998.03,-261.95C832.83,-248.68 479.7,-220.32 340.69,-209.15"/>
<polygon fill="#63b8ff" stroke="#63b8ff" points="997.36,-265.41 1007.61,-262.72 997.92,-258.43 997.36,-265.41"/>
</a>
</g>
</g>
<!-- Node8 -->
<g id="Node000008" class="node">
<title>Node8</title>
<g id="a_Node000008"><a xlink:href="UISystem_8hpp.html" target="_top" xlink:title=" ">
<polygon fill="white" stroke="#666666" points="774.25,-218.75 659.25,-218.75 659.25,-188.25 774.25,-188.25 774.25,-218.75"/>
<text xml:space="preserve" text-anchor="start" x="667.25" y="-205.25" font-family="Helvetica,sans-Serif" font-size="10.00">client/include/Systems</text>
<text xml:space="preserve" text-anchor="middle" x="716.75" y="-194" font-family="Helvetica,sans-Serif" font-size="10.00">/UISystem.hpp</text>
</a>
</g>
</g>
<!-- Node1&#45;&gt;Node8 -->
<g id="edge8_Node000001_Node000008" class="edge">
<title>Node1&#45;&gt;Node8</title>
<g id="a_edge8_Node000001_Node000008"><a xlink:title=" ">
<path fill="none" stroke="#63b8ff" d="M997.86,-254.79C938.68,-245.06 858.94,-231.63 788.75,-218.75 784.11,-217.9 779.31,-217 774.49,-216.07"/>
<polygon fill="#63b8ff" stroke="#63b8ff" points="997.11,-258.21 1007.54,-256.38 998.24,-251.3 997.11,-258.21"/>
</a>
</g>
</g>
<!-- Node10 -->
<g id="Node000010" class="node">
<title>Node10</title>
<g id="a_Node000010"><a xlink:href="UiFactory_8hpp.html" target="_top" xlink:title=" ">
<polygon fill="white" stroke="#666666" points="1443.5,-213.12 1294,-213.12 1294,-193.88 1443.5,-193.88 1443.5,-213.12"/>
<text xml:space="preserve" text-anchor="middle" x="1368.75" y="-199.62" font-family="Helvetica,sans-Serif" font-size="10.00">client/include/UI/UiFactory.hpp</text>
</a>
</g>
</g>
<!-- Node1&#45;&gt;Node10 -->
<g id="edge11_Node000001_Node000010" class="edge">
<title>Node1&#45;&gt;Node10</title>
<g id="a_edge11_Node000001_Node000010"><a xlink:title=" ">
<path fill="none" stroke="#63b8ff" d="M1161.21,-251.8C1215.13,-239.51 1285.52,-223.47 1328.91,-213.58"/>
<polygon fill="#63b8ff" stroke="#63b8ff" points="1160.77,-248.31 1151.8,-253.95 1162.32,-255.14 1160.77,-248.31"/>
</a>
</g>
</g>
<!-- Node30 -->
<g id="Node000030" class="node">
<title>Node30</title>
<g id="a_Node000030"><a xlink:href="PlayingScene_8cpp.html" target="_top" xlink:title=" ">
<polygon fill="white" stroke="#666666" points="2390.25,-85.75 2263.25,-85.75 2263.25,-55.25 2390.25,-55.25 2390.25,-85.75"/>
<text xml:space="preserve" text-anchor="start" x="2271.25" y="-72.25" font-family="Helvetica,sans-Serif" font-size="10.00">client/src/Scenes/Playing</text>
<text xml:space="preserve" text-anchor="middle" x="2326.75" y="-61" font-family="Helvetica,sans-Serif" font-size="10.00">Scene.cpp</text>
</a>
</g>
</g>
<!-- Node1&#45;&gt;Node30 -->
<g id="edge50_Node000001_Node000030" class="edge">
<title>Node1&#45;&gt;Node30</title>
<g id="a_edge50_Node000001_Node000030"><a xlink:title=" ">
<path fill="none" stroke="#63b8ff" d="M1173.85,-267.48C1445.82,-261.88 2258.59,-238.04 2336.75,-152.25 2353.11,-134.29 2342.97,-104.01 2334.56,-86.08"/>
<polygon fill="#63b8ff" stroke="#63b8ff" points="1173.91,-263.98 1163.99,-267.68 1174.05,-270.97 1173.91,-263.98"/>
</a>
</g>
</g>
<!-- Node32 -->
<g id="Node000032" class="node">
<title>Node32</title>
<g id="a_Node000032"><a xlink:href="RoomWaitingScene_8cpp.html" target="_top" xlink:title=" ">
<polygon fill="white" stroke="#666666" points="2561.38,-85.75 2408.12,-85.75 2408.12,-55.25 2561.38,-55.25 2561.38,-85.75"/>
<text xml:space="preserve" text-anchor="start" x="2416.12" y="-72.25" font-family="Helvetica,sans-Serif" font-size="10.00">client/src/Scenes/RoomWaiting</text>
<text xml:space="preserve" text-anchor="middle" x="2484.75" y="-61" font-family="Helvetica,sans-Serif" font-size="10.00">Scene.cpp</text>
</a>
</g>
</g>
<!-- Node1&#45;&gt;Node32 -->
<g id="edge51_Node000001_Node000032" class="edge">
<title>Node1&#45;&gt;Node32</title>
<g id="a_edge51_Node000001_Node000032"><a xlink:title=" ">
<path fill="none" stroke="#63b8ff" d="M1173.55,-268.25C1396.13,-265.82 1978.22,-255.99 2167.75,-218.75 2254.3,-201.74 2275.27,-190.52 2354.75,-152.25 2395.45,-132.65 2439.42,-103.48 2464.37,-86.08"/>
<polygon fill="#63b8ff" stroke="#63b8ff" points="1173.75,-264.75 1163.79,-268.36 1173.82,-271.75 1173.75,-264.75"/>
</a>
</g>
</g>
<!-- Node3 -->
<g id="Node000003" class="node">
<title>Node3</title>
<g id="a_Node000003"><a xlink:href="Application_8cpp.html" target="_top" xlink:title=" ">
<polygon fill="white" stroke="#666666" points="1158.5,-19.25 1009,-19.25 1009,0 1158.5,0 1158.5,-19.25"/>
<text xml:space="preserve" text-anchor="middle" x="1083.75" y="-5.75" font-family="Helvetica,sans-Serif" font-size="10.00">client/src/Core/Application.cpp</text>
</a>
</g>
</g>
<!-- Node2&#45;&gt;Node3 -->
<g id="edge2_Node000002_Node000003" class="edge">
<title>Node2&#45;&gt;Node3</title>
<g id="a_edge2_Node000002_Node000003"><a xlink:title=" ">
<path fill="none" stroke="#63b8ff" d="M1128.62,-47.83C1116.9,-38.12 1103.72,-27.19 1094.7,-19.7"/>
<polygon fill="#63b8ff" stroke="#63b8ff" points="1126.1,-50.29 1136.03,-53.98 1130.57,-44.9 1126.1,-50.29"/>
</a>
</g>
</g>
<!-- Node4 -->
<g id="Node000004" class="node">
<title>Node4</title>
<g id="a_Node000004"><a xlink:href="client_2src_2main_8cpp.html" target="_top" xlink:title=" ">
<polygon fill="white" stroke="#666666" points="1275,-19.25 1176.5,-19.25 1176.5,0 1275,0 1275,-19.25"/>
<text xml:space="preserve" text-anchor="middle" x="1225.75" y="-5.75" font-family="Helvetica,sans-Serif" font-size="10.00">client/src/main.cpp</text>
</a>
</g>
</g>
<!-- Node2&#45;&gt;Node4 -->
<g id="edge3_Node000002_Node000004" class="edge">
<title>Node2&#45;&gt;Node4</title>
<g id="a_edge3_Node000002_Node000004"><a xlink:title=" ">
<path fill="none" stroke="#63b8ff" d="M1180.88,-47.83C1192.6,-38.12 1205.78,-27.19 1214.8,-19.7"/>
<polygon fill="#63b8ff" stroke="#63b8ff" points="1178.93,-44.9 1173.47,-53.98 1183.4,-50.29 1178.93,-44.9"/>
</a>
</g>
</g>
<!-- Node5&#45;&gt;Node2 -->
<g id="edge5_Node000005_Node000002" class="edge">
<title>Node5&#45;&gt;Node2</title>
<g id="a_edge5_Node000005_Node000002"><a xlink:title=" ">
<path fill="none" stroke="#63b8ff" d="M301.7,-179.36C319.88,-157.84 346.62,-128.16 360.75,-121.75 509.88,-54.11 934.71,-109.39 1096.75,-85.75 1099.73,-85.32 1102.77,-84.8 1105.83,-84.22"/>
<polygon fill="#63b8ff" stroke="#63b8ff" points="299.18,-176.92 295.46,-186.83 304.55,-181.4 299.18,-176.92"/>
</a>
</g>
</g>
<!-- Node6 -->
<g id="Node000006" class="node">
<title>Node6</title>
<g id="a_Node000006"><a xlink:href="SpriteCustomizer_8cpp.html" target="_top" xlink:title=" ">
<polygon fill="white" stroke="#666666" points="313.62,-146.62 131.88,-146.62 131.88,-127.38 313.62,-127.38 313.62,-146.62"/>
<text xml:space="preserve" text-anchor="middle" x="222.75" y="-133.12" font-family="Helvetica,sans-Serif" font-size="10.00">client/src/Game/SpriteCustomizer.cpp</text>
</a>
</g>
</g>
<!-- Node5&#45;&gt;Node6 -->
<g id="edge6_Node000005_Node000006" class="edge">
<title>Node5&#45;&gt;Node6</title>
<g id="a_edge6_Node000005_Node000006"><a xlink:title=" ">
<path fill="none" stroke="#63b8ff" d="M261.47,-179.62C250.92,-168.28 238.79,-155.24 230.96,-146.82"/>
<polygon fill="#63b8ff" stroke="#63b8ff" points="258.73,-181.82 268.1,-186.76 263.86,-177.05 258.73,-181.82"/>
</a>
</g>
</g>
<!-- Node7 -->
<g id="Node000007" class="node">
<title>Node7</title>
<g id="a_Node000007"><a xlink:href="UIRenderSystem_8cpp.html" target="_top" xlink:title=" ">
<polygon fill="white" stroke="#666666" points="113.5,-152.25 0,-152.25 0,-121.75 113.5,-121.75 113.5,-152.25"/>
<text xml:space="preserve" text-anchor="start" x="8" y="-138.75" font-family="Helvetica,sans-Serif" font-size="10.00">client/src/Systems</text>
<text xml:space="preserve" text-anchor="middle" x="56.75" y="-127.5" font-family="Helvetica,sans-Serif" font-size="10.00">/UIRenderSystem.cpp</text>
</a>
</g>
</g>
<!-- Node5&#45;&gt;Node7 -->
<g id="edge7_Node000005_Node000007" class="edge">
<title>Node5&#45;&gt;Node7</title>
<g id="a_edge7_Node000005_Node000007"><a xlink:title=" ">
<path fill="none" stroke="#63b8ff" d="M220.51,-184.74C185.16,-174.65 141.46,-162.18 108.09,-152.65"/>
<polygon fill="#63b8ff" stroke="#63b8ff" points="219.15,-187.99 229.73,-187.37 221.07,-181.26 219.15,-187.99"/>
</a>
</g>
</g>
<!-- Node8&#45;&gt;Node2 -->
<g id="edge9_Node000008_Node000002" class="edge">
<title>Node8&#45;&gt;Node2</title>
<g id="a_edge9_Node000008_Node000002"><a xlink:title=" ">
<path fill="none" stroke="#63b8ff" d="M731.13,-178.49C743.78,-159.67 764.03,-134.6 788.75,-121.75 911.03,-58.17 961.12,-110.24 1096.75,-85.75 1099.71,-85.22 1102.74,-84.62 1105.79,-83.98"/>
<polygon fill="#63b8ff" stroke="#63b8ff" points="728.34,-176.34 725.87,-186.64 734.23,-180.13 728.34,-176.34"/>
</a>
</g>
</g>
<!-- Node9 -->
<g id="Node000009" class="node">
<title>Node9</title>
<g id="a_Node000009"><a xlink:href="UISystem_8cpp.html" target="_top" xlink:title=" ">
<polygon fill="white" stroke="#666666" points="467.62,-152.25 369.88,-152.25 369.88,-121.75 467.62,-121.75 467.62,-152.25"/>
<text xml:space="preserve" text-anchor="start" x="377.88" y="-138.75" font-family="Helvetica,sans-Serif" font-size="10.00">client/src/Systems</text>
<text xml:space="preserve" text-anchor="middle" x="418.75" y="-127.5" font-family="Helvetica,sans-Serif" font-size="10.00">/UISystem.cpp</text>
</a>
</g>
</g>
<!-- Node8&#45;&gt;Node9 -->
<g id="edge10_Node000008_Node000009" class="edge">
<title>Node8&#45;&gt;Node9</title>
<g id="a_edge10_Node000008_Node000009"><a xlink:title=" ">
<path fill="none" stroke="#63b8ff" d="M647.72,-188.7C599.68,-178.94 534.2,-165.32 476.75,-152.25 473.92,-151.61 471.01,-150.93 468.08,-150.24"/>
<polygon fill="#63b8ff" stroke="#63b8ff" points="646.94,-192.12 657.44,-190.67 648.33,-185.26 646.94,-192.12"/>
</a>
</g>
</g>
<!-- Node10&#45;&gt;Node2 -->
<g id="edge12_Node000010_Node000002" class="edge">
<title>Node10&#45;&gt;Node2</title>
<g id="a_edge12_Node000010_Node000002"><a xlink:title=" ">
<path fill="none" stroke="#63b8ff" d="M1348.41,-186.3C1319.29,-163.11 1268.94,-123.08 1266.75,-121.75 1243.61,-107.7 1215.87,-95.23 1193.78,-86.22"/>
<polygon fill="#63b8ff" stroke="#63b8ff" points="1346.19,-189 1356.19,-192.49 1350.55,-183.52 1346.19,-189"/>
</a>
</g>
</g>
<!-- Node11 -->
<g id="Node000011" class="node">
<title>Node11</title>
<g id="a_Node000011"><a xlink:href="CreateRoomScene_8hpp.html" target="_top" xlink:title=" ">
<polygon fill="white" stroke="#666666" points="606.25,-152.25 485.25,-152.25 485.25,-121.75 606.25,-121.75 606.25,-152.25"/>
<text xml:space="preserve" text-anchor="start" x="493.25" y="-138.75" font-family="Helvetica,sans-Serif" font-size="10.00">client/include/Scenes</text>
<text xml:space="preserve" text-anchor="middle" x="545.75" y="-127.5" font-family="Helvetica,sans-Serif" font-size="10.00">/CreateRoomScene.hpp</text>
</a>
</g>
</g>
<!-- Node10&#45;&gt;Node11 -->
<g id="edge13_Node000010_Node000011" class="edge">
<title>Node10&#45;&gt;Node11</title>
<g id="a_edge13_Node000010_Node000011"><a xlink:title=" ">
<path fill="none" stroke="#63b8ff" d="M1282.11,-200.49C1141.63,-196.39 855.72,-184.53 615.75,-152.25 612.68,-151.84 609.54,-151.37 606.37,-150.86"/>
<polygon fill="#63b8ff" stroke="#63b8ff" points="1281.99,-203.99 1292.09,-200.78 1282.19,-196.99 1281.99,-203.99"/>
</a>
</g>
</g>
<!-- Node13 -->
<g id="Node000013" class="node">
<title>Node13</title>
<g id="a_Node000013"><a xlink:href="GameOverScene_8hpp.html" target="_top" xlink:title=" ">
<polygon fill="white" stroke="#666666" points="737.12,-152.25 624.38,-152.25 624.38,-121.75 737.12,-121.75 737.12,-152.25"/>
<text xml:space="preserve" text-anchor="start" x="632.38" y="-138.75" font-family="Helvetica,sans-Serif" font-size="10.00">client/include/Scenes</text>
<text xml:space="preserve" text-anchor="middle" x="680.75" y="-127.5" font-family="Helvetica,sans-Serif" font-size="10.00">/GameOverScene.hpp</text>
</a>
</g>
</g>
<!-- Node10&#45;&gt;Node13 -->
<g id="edge16_Node000010_Node000013" class="edge">
<title>Node10&#45;&gt;Node13</title>
<g id="a_edge16_Node000010_Node000013"><a xlink:title=" ">
<path fill="none" stroke="#63b8ff" d="M1282.06,-194.78C1174.18,-185.12 984.32,-167.93 821.75,-152.25 793.95,-149.57 763.09,-146.46 737.34,-143.84"/>
<polygon fill="#63b8ff" stroke="#63b8ff" points="1281.74,-198.27 1292.01,-195.67 1282.37,-191.3 1281.74,-198.27"/>
</a>
</g>
</g>
<!-- Node15 -->
<g id="Node000015" class="node">
<title>Node15</title>
<g id="a_Node000015"><a xlink:href="GamepadSettingsScene_8hpp.html" target="_top" xlink:title=" ">
<polygon fill="white" stroke="#666666" points="974.5,-152.25 831,-152.25 831,-121.75 974.5,-121.75 974.5,-152.25"/>
<text xml:space="preserve" text-anchor="start" x="839" y="-138.75" font-family="Helvetica,sans-Serif" font-size="10.00">client/include/Scenes</text>
<text xml:space="preserve" text-anchor="middle" x="902.75" y="-127.5" font-family="Helvetica,sans-Serif" font-size="10.00">/GamepadSettingsScene.hpp</text>
</a>
</g>
</g>
<!-- Node10&#45;&gt;Node15 -->
<g id="edge19_Node000010_Node000015" class="edge">
<title>Node10&#45;&gt;Node15</title>
<g id="a_edge19_Node000010_Node000015"><a xlink:title=" ">
<path fill="none" stroke="#63b8ff" d="M1282.49,-192.35C1204.37,-182.9 1086.16,-167.93 983.75,-152.25 980.79,-151.8 977.76,-151.32 974.71,-150.83"/>
<polygon fill="#63b8ff" stroke="#63b8ff" points="1281.87,-195.8 1292.22,-193.53 1282.71,-188.85 1281.87,-195.8"/>
</a>
</g>
</g>
<!-- Node17 -->
<g id="Node000017" class="node">
<title>Node17</title>
<g id="a_Node000017"><a xlink:href="KeyBindingScene_8hpp.html" target="_top" xlink:title=" ">
<polygon fill="white" stroke="#666666" points="1107.25,-152.25 992.25,-152.25 992.25,-121.75 1107.25,-121.75 1107.25,-152.25"/>
<text xml:space="preserve" text-anchor="start" x="1000.25" y="-138.75" font-family="Helvetica,sans-Serif" font-size="10.00">client/include/Scenes</text>
<text xml:space="preserve" text-anchor="middle" x="1049.75" y="-127.5" font-family="Helvetica,sans-Serif" font-size="10.00">/KeyBindingScene.hpp</text>
</a>
</g>
</g>
<!-- Node10&#45;&gt;Node17 -->
<g id="edge22_Node000010_Node000017" class="edge">
<title>Node10&#45;&gt;Node17</title>
<g id="a_edge22_Node000010_Node000017"><a xlink:title=" ">
<path fill="none" stroke="#63b8ff" d="M1311.13,-191.23C1260.02,-181.18 1183.37,-165.98 1116.75,-152.25 1113.72,-151.63 1110.62,-150.98 1107.48,-150.33"/>
<polygon fill="#63b8ff" stroke="#63b8ff" points="1310.3,-194.63 1320.78,-193.12 1311.65,-187.76 1310.3,-194.63"/>
</a>
</g>
</g>
<!-- Node19 -->
<g id="Node000019" class="node">
<title>Node19</title>
<g id="a_Node000019"><a xlink:href="LobbyScene_8hpp.html" target="_top" xlink:title=" ">
<polygon fill="white" stroke="#666666" points="1423.25,-152.25 1314.25,-152.25 1314.25,-121.75 1423.25,-121.75 1423.25,-152.25"/>
<text xml:space="preserve" text-anchor="start" x="1322.25" y="-138.75" font-family="Helvetica,sans-Serif" font-size="10.00">client/include/Scenes</text>
<text xml:space="preserve" text-anchor="middle" x="1368.75" y="-127.5" font-family="Helvetica,sans-Serif" font-size="10.00">/LobbyScene.hpp</text>
</a>
</g>
</g>
<!-- Node10&#45;&gt;Node19 -->
<g id="edge25_Node000010_Node000019" class="edge">
<title>Node10&#45;&gt;Node19</title>
<g id="a_edge25_Node000010_Node000019"><a xlink:title=" ">
<path fill="none" stroke="#63b8ff" d="M1368.75,-182.12C1368.75,-172.44 1368.75,-161.1 1368.75,-152.34"/>
<polygon fill="#63b8ff" stroke="#63b8ff" points="1365.25,-182.02 1368.75,-192.02 1372.25,-182.02 1365.25,-182.02"/>
</a>
</g>
</g>
<!-- Node21 -->
<g id="Node000021" class="node">
<title>Node21</title>
<g id="a_Node000021"><a xlink:href="LoginScene_8hpp.html" target="_top" xlink:title=" ">
<polygon fill="white" stroke="#666666" points="1550.25,-152.25 1441.25,-152.25 1441.25,-121.75 1550.25,-121.75 1550.25,-152.25"/>
<text xml:space="preserve" text-anchor="start" x="1449.25" y="-138.75" font-family="Helvetica,sans-Serif" font-size="10.00">client/include/Scenes</text>
<text xml:space="preserve" text-anchor="middle" x="1495.75" y="-127.5" font-family="Helvetica,sans-Serif" font-size="10.00">/LoginScene.hpp</text>
</a>
</g>
</g>
<!-- Node10&#45;&gt;Node21 -->
<g id="edge28_Node000010_Node000021" class="edge">
<title>Node10&#45;&gt;Node21</title>
<g id="a_edge28_Node000010_Node000021"><a xlink:title=" ">
<path fill="none" stroke="#63b8ff" d="M1396.84,-188.24C1417.73,-177.63 1446.14,-163.2 1467.15,-152.53"/>
<polygon fill="#63b8ff" stroke="#63b8ff" points="1395.36,-185.06 1388.03,-192.71 1398.53,-191.3 1395.36,-185.06"/>
</a>
</g>
</g>
<!-- Node23 -->
<g id="Node000023" class="node">
<title>Node23</title>
<g id="a_Node000023"><a xlink:href="MenuScene_8hpp.html" target="_top" xlink:title=" ">
<polygon fill="white" stroke="#666666" points="1677.25,-152.25 1568.25,-152.25 1568.25,-121.75 1677.25,-121.75 1677.25,-152.25"/>
<text xml:space="preserve" text-anchor="start" x="1576.25" y="-138.75" font-family="Helvetica,sans-Serif" font-size="10.00">client/include/Scenes</text>
<text xml:space="preserve" text-anchor="middle" x="1622.75" y="-127.5" font-family="Helvetica,sans-Serif" font-size="10.00">/MenuScene.hpp</text>
</a>
</g>
</g>
<!-- Node10&#45;&gt;Node23 -->
<g id="edge31_Node000010_Node000023" class="edge">
<title>Node10&#45;&gt;Node23</title>
<g id="a_edge31_Node000010_Node000023"><a xlink:title=" ">
<path fill="none" stroke="#63b8ff" d="M1415.62,-190.6C1458.69,-179.66 1522.54,-163.45 1567.95,-151.92"/>
<polygon fill="#63b8ff" stroke="#63b8ff" points="1414.9,-187.17 1406.07,-193.02 1416.62,-193.95 1414.9,-187.17"/>
</a>
</g>
</g>
<!-- Node25 -->
<g id="Node000025" class="node">
<title>Node25</title>
<g id="a_Node000025"><a xlink:href="ModMenuScene_8hpp.html" target="_top" xlink:title=" ">
<polygon fill="white" stroke="#666666" points="1804.25,-152.25 1695.25,-152.25 1695.25,-121.75 1804.25,-121.75 1804.25,-152.25"/>
<text xml:space="preserve" text-anchor="start" x="1703.25" y="-138.75" font-family="Helvetica,sans-Serif" font-size="10.00">client/include/Scenes</text>
<text xml:space="preserve" text-anchor="middle" x="1749.75" y="-127.5" font-family="Helvetica,sans-Serif" font-size="10.00">/ModMenuScene.hpp</text>
</a>
</g>
</g>
<!-- Node10&#45;&gt;Node25 -->
<g id="edge34_Node000010_Node000025" class="edge">
<title>Node10&#45;&gt;Node25</title>
<g id="a_edge34_Node000010_Node000025"><a xlink:title=" ">
<path fill="none" stroke="#63b8ff" d="M1445.73,-191.78C1510.29,-182.45 1604.8,-167.97 1686.75,-152.25 1689.39,-151.74 1692.09,-151.21 1694.82,-150.65"/>
<polygon fill="#63b8ff" stroke="#63b8ff" points="1445.34,-188.3 1435.94,-193.19 1446.33,-195.23 1445.34,-188.3"/>
</a>
</g>
</g>
<!-- Node27 -->
<g id="Node000027" class="node">
<title>Node27</title>
<g id="a_Node000027"><a xlink:href="PauseScene_8hpp.html" target="_top" xlink:title=" ">
<polygon fill="white" stroke="#666666" points="1931.25,-152.25 1822.25,-152.25 1822.25,-121.75 1931.25,-121.75 1931.25,-152.25"/>
<text xml:space="preserve" text-anchor="start" x="1830.25" y="-138.75" font-family="Helvetica,sans-Serif" font-size="10.00">client/include/Scenes</text>
<text xml:space="preserve" text-anchor="middle" x="1876.75" y="-127.5" font-family="Helvetica,sans-Serif" font-size="10.00">/PauseScene.hpp</text>
</a>
</g>
</g>
<!-- Node10&#45;&gt;Node27 -->
<g id="edge37_Node000010_Node000027" class="edge">
<title>Node10&#45;&gt;Node27</title>
<g id="a_edge37_Node000010_Node000027"><a xlink:title=" ">
<path fill="none" stroke="#63b8ff" d="M1455.14,-195.58C1545.08,-187.71 1689.88,-173.19 1813.75,-152.25 1816.4,-151.8 1819.11,-151.31 1821.85,-150.79"/>
<polygon fill="#63b8ff" stroke="#63b8ff" points="1455.07,-192.07 1445.41,-196.42 1455.67,-199.05 1455.07,-192.07"/>
</a>
</g>
</g>
<!-- Node29 -->
<g id="Node000029" class="node">
<title>Node29</title>
<g id="a_Node000029"><a xlink:href="PlayingScene_8hpp.html" target="_top" xlink:title=" ">
<polygon fill="white" stroke="#666666" points="2185.25,-152.25 2076.25,-152.25 2076.25,-121.75 2185.25,-121.75 2185.25,-152.25"/>
<text xml:space="preserve" text-anchor="start" x="2084.25" y="-138.75" font-family="Helvetica,sans-Serif" font-size="10.00">client/include/Scenes</text>
<text xml:space="preserve" text-anchor="middle" x="2130.75" y="-127.5" font-family="Helvetica,sans-Serif" font-size="10.00">/PlayingScene.hpp</text>
</a>
</g>
</g>
<!-- Node10&#45;&gt;Node29 -->
<g id="edge40_Node000010_Node000029" class="edge">
<title>Node10&#45;&gt;Node29</title>
<g id="a_edge40_Node000010_Node000029"><a xlink:title=" ">
<path fill="none" stroke="#63b8ff" d="M1455.15,-200.47C1587.62,-196.42 1848.62,-184.72 2067.75,-152.25 2070.41,-151.86 2073.13,-151.41 2075.87,-150.93"/>
<polygon fill="#63b8ff" stroke="#63b8ff" points="1455.3,-196.97 1445.41,-200.76 1455.51,-203.96 1455.3,-196.97"/>
</a>
</g>
</g>
<!-- Node31 -->
<g id="Node000031" class="node">
<title>Node31</title>
<g id="a_Node000031"><a xlink:href="RoomWaitingScene_8hpp.html" target="_top" xlink:title=" ">
<polygon fill="white" stroke="#666666" points="2327.75,-152.25 2203.75,-152.25 2203.75,-121.75 2327.75,-121.75 2327.75,-152.25"/>
<text xml:space="preserve" text-anchor="start" x="2211.75" y="-138.75" font-family="Helvetica,sans-Serif" font-size="10.00">client/include/Scenes</text>
<text xml:space="preserve" text-anchor="middle" x="2265.75" y="-127.5" font-family="Helvetica,sans-Serif" font-size="10.00">/RoomWaitingScene.hpp</text>
</a>
</g>
</g>
<!-- Node10&#45;&gt;Node31 -->
<g id="edge43_Node000010_Node000031" class="edge">
<title>Node10&#45;&gt;Node31</title>
<g id="a_edge43_Node000010_Node000031"><a xlink:title=" ">
<path fill="none" stroke="#63b8ff" d="M1455.4,-201.14C1606.24,-197.89 1926.6,-187.15 2194.75,-152.25 2197.62,-151.88 2200.54,-151.46 2203.49,-151"/>
<polygon fill="#63b8ff" stroke="#63b8ff" points="1455.4,-197.64 1445.48,-201.34 1455.55,-204.63 1455.4,-197.64"/>
</a>
</g>
</g>
<!-- Node33 -->
<g id="Node000033" class="node">
<title>Node33</title>
<g id="a_Node000033"><a xlink:href="SettingsScene_8hpp.html" target="_top" xlink:title=" ">
<polygon fill="white" stroke="#666666" points="2058.25,-152.25 1949.25,-152.25 1949.25,-121.75 2058.25,-121.75 2058.25,-152.25"/>
<text xml:space="preserve" text-anchor="start" x="1957.25" y="-138.75" font-family="Helvetica,sans-Serif" font-size="10.00">client/include/Scenes</text>
<text xml:space="preserve" text-anchor="middle" x="2003.75" y="-127.5" font-family="Helvetica,sans-Serif" font-size="10.00">/SettingsScene.hpp</text>
</a>
</g>
</g>
<!-- Node10&#45;&gt;Node33 -->
<g id="edge46_Node000010_Node000033" class="edge">
<title>Node10&#45;&gt;Node33</title>
<g id="a_edge46_Node000010_Node000033"><a xlink:title=" ">
<path fill="none" stroke="#63b8ff" d="M1454.89,-198.56C1567.22,-192.59 1769.59,-179 1940.75,-152.25 1943.41,-151.83 1946.12,-151.37 1948.86,-150.87"/>
<polygon fill="#63b8ff" stroke="#63b8ff" points="1454.95,-195.05 1445.15,-199.07 1455.32,-202.04 1454.95,-195.05"/>
</a>
</g>
</g>
<!-- Node35 -->
<g id="Node000035" class="node">
<title>Node35</title>
<g id="a_Node000035"><a xlink:href="UiFactory_8cpp.html" target="_top" xlink:title=" ">
<polygon fill="white" stroke="#666666" points="1257.88,-146.62 1125.62,-146.62 1125.62,-127.38 1257.88,-127.38 1257.88,-146.62"/>
<text xml:space="preserve" text-anchor="middle" x="1191.75" y="-133.12" font-family="Helvetica,sans-Serif" font-size="10.00">client/src/UI/UiFactory.cpp</text>
</a>
</g>
</g>
<!-- Node10&#45;&gt;Node35 -->
<g id="edge49_Node000010_Node000035" class="edge">
<title>Node10&#45;&gt;Node35</title>
<g id="a_edge49_Node000010_Node000035"><a xlink:title=" ">
<path fill="none" stroke="#63b8ff" d="M1333.19,-189.54C1298.61,-176.94 1246.99,-158.13 1216.61,-147.06"/>
<polygon fill="#63b8ff" stroke="#63b8ff" points="1331.75,-192.74 1342.34,-192.88 1334.15,-186.16 1331.75,-192.74"/>
</a>
</g>
</g>
<!-- Node11&#45;&gt;Node2 -->
<g id="edge14_Node000011_Node000002" class="edge">
<title>Node11&#45;&gt;Node2</title>
<g id="a_edge14_Node000011_Node000002"><a xlink:title=" ">
<path fill="none" stroke="#63b8ff" d="M617.6,-121.64C830.09,-93.22 888.66,-118.86 1096.75,-85.75 1099.72,-85.28 1102.76,-84.73 1105.82,-84.13"/>
<polygon fill="#63b8ff" stroke="#63b8ff" points="617.31,-118.15 607.88,-122.97 618.26,-125.08 617.31,-118.15"/>
</a>
</g>
</g>
<!-- Node12 -->
<g id="Node000012" class="node">
<title>Node12</title>
<g id="a_Node000012"><a xlink:href="CreateRoomScene_8cpp.html" target="_top" xlink:title=" ">
<polygon fill="white" stroke="#666666" points="597.75,-85.75 473.75,-85.75 473.75,-55.25 597.75,-55.25 597.75,-85.75"/>
<text xml:space="preserve" text-anchor="start" x="481.75" y="-72.25" font-family="Helvetica,sans-Serif" font-size="10.00">client/src/Scenes/Create</text>
<text xml:space="preserve" text-anchor="middle" x="535.75" y="-61" font-family="Helvetica,sans-Serif" font-size="10.00">RoomScene.cpp</text>
</a>
</g>
</g>
<!-- Node11&#45;&gt;Node12 -->
<g id="edge15_Node000011_Node000012" class="edge">
<title>Node11&#45;&gt;Node12</title>
<g id="a_edge15_Node000011_Node000012"><a xlink:title=" ">
<path fill="none" stroke="#63b8ff" d="M541.73,-110.06C540.46,-101.89 539.11,-93.16 538.01,-86.08"/>
<polygon fill="#63b8ff" stroke="#63b8ff" points="538.26,-110.52 543.25,-119.87 545.18,-109.45 538.26,-110.52"/>
</a>
</g>
</g>
<!-- Node13&#45;&gt;Node2 -->
<g id="edge17_Node000013_Node000002" class="edge">
<title>Node13&#45;&gt;Node2</title>
<g id="a_edge17_Node000013_Node000002"><a xlink:title=" ">
<path fill="none" stroke="#63b8ff" d="M748.73,-122.06C749.41,-121.96 750.08,-121.85 750.75,-121.75 903.57,-98.3 944.43,-112.26 1096.75,-85.75 1099.71,-85.23 1102.75,-84.65 1105.8,-84.03"/>
<polygon fill="#63b8ff" stroke="#63b8ff" points="748.36,-118.58 739.08,-123.7 749.53,-125.48 748.36,-118.58"/>
</a>
</g>
</g>
<!-- Node14 -->
<g id="Node000014" class="node">
<title>Node14</title>
<g id="a_Node000014"><a xlink:href="GameOverScene_8cpp.html" target="_top" xlink:title=" ">
<polygon fill="white" stroke="#666666" points="757.75,-85.75 615.75,-85.75 615.75,-55.25 757.75,-55.25 757.75,-85.75"/>
<text xml:space="preserve" text-anchor="start" x="623.75" y="-72.25" font-family="Helvetica,sans-Serif" font-size="10.00">client/src/Scenes/GameOver</text>
<text xml:space="preserve" text-anchor="middle" x="686.75" y="-61" font-family="Helvetica,sans-Serif" font-size="10.00">Scene.cpp</text>
</a>
</g>
</g>
<!-- Node13&#45;&gt;Node14 -->
<g id="edge18_Node000013_Node000014" class="edge">
<title>Node13&#45;&gt;Node14</title>
<g id="a_edge18_Node000013_Node000014"><a xlink:title=" ">
<path fill="none" stroke="#63b8ff" d="M683.16,-110.06C683.92,-101.89 684.73,-93.16 685.39,-86.08"/>
<polygon fill="#63b8ff" stroke="#63b8ff" points="679.69,-109.58 682.25,-119.86 686.66,-110.22 679.69,-109.58"/>
</a>
</g>
</g>
<!-- Node15&#45;&gt;Node2 -->
<g id="edge20_Node000015_Node000002" class="edge">
<title>Node15&#45;&gt;Node2</title>
<g id="a_edge20_Node000015_Node000002"><a xlink:title=" ">
<path fill="none" stroke="#63b8ff" d="M971.38,-118.43C1013.99,-107.53 1067.72,-93.78 1105.98,-83.98"/>
<polygon fill="#63b8ff" stroke="#63b8ff" points="970.53,-115.04 961.71,-120.91 972.27,-121.82 970.53,-115.04"/>
</a>
</g>
</g>
<!-- Node16 -->
<g id="Node000016" class="node">
<title>Node16</title>
<g id="a_Node000016"><a xlink:href="GamepadSettingsScene_8cpp.html" target="_top" xlink:title=" ">
<polygon fill="white" stroke="#666666" points="925.12,-85.75 788.38,-85.75 788.38,-55.25 925.12,-55.25 925.12,-85.75"/>
<text xml:space="preserve" text-anchor="start" x="796.38" y="-72.25" font-family="Helvetica,sans-Serif" font-size="10.00">client/src/Scenes/Gamepad</text>
<text xml:space="preserve" text-anchor="middle" x="856.75" y="-61" font-family="Helvetica,sans-Serif" font-size="10.00">SettingsScene.cpp</text>
</a>
</g>
</g>
<!-- Node15&#45;&gt;Node16 -->
<g id="edge21_Node000015_Node000016" class="edge">
<title>Node15&#45;&gt;Node16</title>
<g id="a_edge21_Node000015_Node000016"><a xlink:title=" ">
<path fill="none" stroke="#63b8ff" d="M885.66,-112.04C879.44,-103.32 872.61,-93.74 867.15,-86.08"/>
<polygon fill="#63b8ff" stroke="#63b8ff" points="882.78,-114.02 891.43,-120.13 888.48,-109.96 882.78,-114.02"/>
</a>
</g>
</g>
<!-- Node17&#45;&gt;Node2 -->
<g id="edge23_Node000017_Node000002" class="edge">
<title>Node17&#45;&gt;Node2</title>
<g id="a_edge23_Node000017_Node000002"><a xlink:title=" ">
<path fill="none" stroke="#63b8ff" d="M1083.34,-115.36C1098.87,-105.83 1116.94,-94.73 1131.02,-86.08"/>
<polygon fill="#63b8ff" stroke="#63b8ff" points="1081.55,-112.36 1074.87,-120.57 1085.22,-118.32 1081.55,-112.36"/>
</a>
</g>
</g>
<!-- Node18 -->
<g id="Node000018" class="node">
<title>Node18</title>
<g id="a_Node000018"><a xlink:href="KeyBindingScene_8cpp.html" target="_top" xlink:title=" ">
<polygon fill="white" stroke="#666666" points="1087.88,-85.75 943.62,-85.75 943.62,-55.25 1087.88,-55.25 1087.88,-85.75"/>
<text xml:space="preserve" text-anchor="start" x="951.62" y="-72.25" font-family="Helvetica,sans-Serif" font-size="10.00">client/src/Scenes/KeyBinding</text>
<text xml:space="preserve" text-anchor="middle" x="1015.75" y="-61" font-family="Helvetica,sans-Serif" font-size="10.00">Scene.cpp</text>
</a>
</g>
</g>
<!-- Node17&#45;&gt;Node18 -->
<g id="edge24_Node000017_Node000018" class="edge">
<title>Node17&#45;&gt;Node18</title>
<g id="a_edge24_Node000017_Node000018"><a xlink:title=" ">
<path fill="none" stroke="#63b8ff" d="M1036.67,-111.19C1032.2,-102.71 1027.34,-93.49 1023.43,-86.08"/>
<polygon fill="#63b8ff" stroke="#63b8ff" points="1033.57,-112.81 1041.33,-120.03 1039.76,-109.55 1033.57,-112.81"/>
</a>
</g>
</g>
<!-- Node19&#45;&gt;Node2 -->
<g id="edge26_Node000019_Node000002" class="edge">
<title>Node19&#45;&gt;Node2</title>
<g id="a_edge26_Node000019_Node000002"><a xlink:title=" ">
<path fill="none" stroke="#63b8ff" d="M1308.94,-117.97C1275.63,-107.93 1234.69,-95.59 1203.37,-86.15"/>
<polygon fill="#63b8ff" stroke="#63b8ff" points="1307.89,-121.31 1318.47,-120.85 1309.91,-114.61 1307.89,-121.31"/>
</a>
</g>
</g>
<!-- Node20 -->
<g id="Node000020" class="node">
<title>Node20</title>
<g id="a_Node000020"><a xlink:href="LobbyScene_8cpp.html" target="_top" xlink:title=" ">
<polygon fill="white" stroke="#666666" points="1388.5,-80.12 1221,-80.12 1221,-60.88 1388.5,-60.88 1388.5,-80.12"/>
<text xml:space="preserve" text-anchor="middle" x="1304.75" y="-66.62" font-family="Helvetica,sans-Serif" font-size="10.00">client/src/Scenes/LobbyScene.cpp</text>
</a>
</g>
</g>
<!-- Node19&#45;&gt;Node20 -->
<g id="edge27_Node000019_Node000020" class="edge">
<title>Node19&#45;&gt;Node20</title>
<g id="a_edge27_Node000019_Node000020"><a xlink:title=" ">
<path fill="none" stroke="#63b8ff" d="M1346.38,-113.46C1335.05,-102.03 1321.94,-88.82 1313.5,-80.32"/>
<polygon fill="#63b8ff" stroke="#63b8ff" points="1343.63,-115.66 1353.16,-120.29 1348.6,-110.73 1343.63,-115.66"/>
</a>
</g>
</g>
<!-- Node21&#45;&gt;Node2 -->
<g id="edge29_Node000021_Node000002" class="edge">
<title>Node21&#45;&gt;Node2</title>
<g id="a_edge29_Node000021_Node000002"><a xlink:title=" ">
<path fill="none" stroke="#63b8ff" d="M1429.66,-121.22C1333.1,-102.96 1305.7,-105.11 1211.75,-85.75 1209.05,-85.19 1206.29,-84.6 1203.51,-83.97"/>
<polygon fill="#63b8ff" stroke="#63b8ff" points="1428.85,-124.63 1439.33,-123.08 1430.17,-117.76 1428.85,-124.63"/>
</a>
</g>
</g>
<!-- Node22 -->
<g id="Node000022" class="node">
<title>Node22</title>
<g id="a_Node000022"><a xlink:href="LoginScene_8cpp.html" target="_top" xlink:title=" ">
<polygon fill="white" stroke="#666666" points="1571,-80.12 1406.5,-80.12 1406.5,-60.88 1571,-60.88 1571,-80.12"/>
<text xml:space="preserve" text-anchor="middle" x="1488.75" y="-66.62" font-family="Helvetica,sans-Serif" font-size="10.00">client/src/Scenes/LoginScene.cpp</text>
</a>
</g>
</g>
<!-- Node21&#45;&gt;Node22 -->
<g id="edge30_Node000021_Node000022" class="edge">
<title>Node21&#45;&gt;Node22</title>
<g id="a_edge30_Node000021_Node000022"><a xlink:title=" ">
<path fill="none" stroke="#63b8ff" d="M1492.94,-110.09C1491.79,-99.51 1490.54,-88 1489.71,-80.32"/>
<polygon fill="#63b8ff" stroke="#63b8ff" points="1489.44,-110.3 1494,-119.86 1496.4,-109.54 1489.44,-110.3"/>
</a>
</g>
</g>
<!-- Node23&#45;&gt;Node2 -->
<g id="edge32_Node000023_Node000002" class="edge">
<title>Node23&#45;&gt;Node2</title>
<g id="a_edge32_Node000023_Node000002"><a xlink:title=" ">
<path fill="none" stroke="#63b8ff" d="M1556.69,-121.37C1404.31,-97.29 1361.3,-112.04 1211.75,-85.75 1209.04,-85.27 1206.26,-84.74 1203.47,-84.16"/>
<polygon fill="#63b8ff" stroke="#63b8ff" points="1555.93,-124.8 1566.36,-122.94 1557.04,-117.89 1555.93,-124.8"/>
</a>
</g>
</g>
<!-- Node24 -->
<g id="Node000024" class="node">
<title>Node24</title>
<g id="a_Node000024"><a xlink:href="MenuScene_8cpp.html" target="_top" xlink:title=" ">
<polygon fill="white" stroke="#666666" points="1754.38,-80.12 1589.12,-80.12 1589.12,-60.88 1754.38,-60.88 1754.38,-80.12"/>
<text xml:space="preserve" text-anchor="middle" x="1671.75" y="-66.62" font-family="Helvetica,sans-Serif" font-size="10.00">client/src/Scenes/MenuScene.cpp</text>
</a>
</g>
</g>
<!-- Node23&#45;&gt;Node24 -->
<g id="edge33_Node000023_Node000024" class="edge">
<title>Node23&#45;&gt;Node24</title>
<g id="a_edge33_Node000023_Node000024"><a xlink:title=" ">
<path fill="none" stroke="#63b8ff" d="M1640.64,-112.45C1649.13,-101.27 1658.78,-88.57 1665.05,-80.32"/>
<polygon fill="#63b8ff" stroke="#63b8ff" points="1638.05,-110.08 1634.78,-120.16 1643.62,-114.31 1638.05,-110.08"/>
</a>
</g>
</g>
<!-- Node25&#45;&gt;Node2 -->
<g id="edge35_Node000025_Node000002" class="edge">
<title>Node25&#45;&gt;Node2</title>
<g id="a_edge35_Node000025_Node000002"><a xlink:title=" ">
<path fill="none" stroke="#63b8ff" d="M1683.54,-121.42C1475.34,-91.32 1417.08,-118.95 1211.75,-85.75 1209.03,-85.31 1206.25,-84.8 1203.45,-84.25"/>
<polygon fill="#63b8ff" stroke="#63b8ff" points="1682.96,-124.87 1693.37,-122.87 1683.99,-117.94 1682.96,-124.87"/>
</a>
</g>
</g>
<!-- Node26 -->
<g id="Node000026" class="node">
<title>Node26</title>
<g id="a_Node000026"><a xlink:href="ModMenuScene_8cpp.html" target="_top" xlink:title=" ">
<polygon fill="white" stroke="#666666" points="1909.5,-85.75 1772,-85.75 1772,-55.25 1909.5,-55.25 1909.5,-85.75"/>
<text xml:space="preserve" text-anchor="start" x="1780" y="-72.25" font-family="Helvetica,sans-Serif" font-size="10.00">client/src/Scenes/ModMenu</text>
<text xml:space="preserve" text-anchor="middle" x="1840.75" y="-61" font-family="Helvetica,sans-Serif" font-size="10.00">Scene.cpp</text>
</a>
</g>
</g>
<!-- Node25&#45;&gt;Node26 -->
<g id="edge36_Node000025_Node000026" class="edge">
<title>Node25&#45;&gt;Node26</title>
<g id="a_edge36_Node000025_Node000026"><a xlink:title=" ">
<path fill="none" stroke="#63b8ff" d="M1779.64,-114.82C1792.91,-105.41 1808.21,-94.56 1820.18,-86.08"/>
<polygon fill="#63b8ff" stroke="#63b8ff" points="1777.77,-111.85 1771.63,-120.49 1781.82,-117.56 1777.77,-111.85"/>
</a>
</g>
</g>
<!-- Node27&#45;&gt;Node2 -->
<g id="edge38_Node000027_Node000002" class="edge">
<title>Node27&#45;&gt;Node2</title>
<g id="a_edge38_Node000027_Node000002"><a xlink:title=" ">
<path fill="none" stroke="#63b8ff" d="M1810.77,-121.48C1546.38,-85.2 1473.06,-125.87 1211.75,-85.75 1209.03,-85.33 1206.25,-84.84 1203.45,-84.3"/>
<polygon fill="#63b8ff" stroke="#63b8ff" points="1809.99,-124.91 1820.37,-122.83 1810.95,-117.97 1809.99,-124.91"/>
</a>
</g>
</g>
<!-- Node28 -->
<g id="Node000028" class="node">
<title>Node28</title>
<g id="a_Node000028"><a xlink:href="PauseScene_8cpp.html" target="_top" xlink:title=" ">
<polygon fill="white" stroke="#666666" points="2096.25,-80.12 1927.25,-80.12 1927.25,-60.88 2096.25,-60.88 2096.25,-80.12"/>
<text xml:space="preserve" text-anchor="middle" x="2011.75" y="-66.62" font-family="Helvetica,sans-Serif" font-size="10.00">client/src/Scenes/PauseScene.cpp</text>
</a>
</g>
</g>
<!-- Node27&#45;&gt;Node28 -->
<g id="edge39_Node000027_Node000028" class="edge">
<title>Node27&#45;&gt;Node28</title>
<g id="a_edge39_Node000027_Node000028"><a xlink:title=" ">
<path fill="none" stroke="#63b8ff" d="M1917.7,-116.44C1942.71,-104.49 1973.51,-89.77 1992.89,-80.51"/>
<polygon fill="#63b8ff" stroke="#63b8ff" points="1916.26,-113.24 1908.75,-120.71 1919.28,-119.56 1916.26,-113.24"/>
</a>
</g>
</g>
<!-- Node29&#45;&gt;Node2 -->
<g id="edge41_Node000029_Node000002" class="edge">
<title>Node29&#45;&gt;Node2</title>
<g id="a_edge41_Node000029_Node000002"><a xlink:title=" ">
<path fill="none" stroke="#63b8ff" d="M2064.66,-121.5C1688.28,-72.87 1584.94,-139.67 1211.75,-85.75 1209.13,-85.37 1206.45,-84.92 1203.75,-84.42"/>
<polygon fill="#63b8ff" stroke="#63b8ff" points="2064.01,-124.95 2074.38,-122.78 2064.92,-118.01 2064.01,-124.95"/>
</a>
</g>
</g>
<!-- Node29&#45;&gt;Node30 -->
<g id="edge42_Node000029_Node000030" class="edge">
<title>Node29&#45;&gt;Node30</title>
<g id="a_edge42_Node000029_Node000030"><a xlink:title=" ">
<path fill="none" stroke="#63b8ff" d="M2186.08,-117.79C2216.45,-107.8 2253.61,-95.57 2282.11,-86.19"/>
<polygon fill="#63b8ff" stroke="#63b8ff" points="2185.07,-114.44 2176.66,-120.89 2187.26,-121.09 2185.07,-114.44"/>
</a>
</g>
</g>
<!-- Node31&#45;&gt;Node2 -->
<g id="edge44_Node000031_Node000002" class="edge">
<title>Node31&#45;&gt;Node2</title>
<g id="a_edge44_Node000031_Node000002"><a xlink:title=" ">
<path fill="none" stroke="#63b8ff" d="M2192.22,-121.6C1758.57,-71.87 1640.91,-146.57 1211.75,-85.75 1209.12,-85.38 1206.44,-84.93 1203.75,-84.44"/>
<polygon fill="#63b8ff" stroke="#63b8ff" points="2191.66,-125.06 2202,-122.74 2192.47,-118.11 2191.66,-125.06"/>
</a>
</g>
</g>
<!-- Node31&#45;&gt;Node32 -->
<g id="edge45_Node000031_Node000032" class="edge">
<title>Node31&#45;&gt;Node32</title>
<g id="a_edge45_Node000031_Node000032"><a xlink:title=" ">
<path fill="none" stroke="#63b8ff" d="M2326.51,-118.1C2360.68,-108.04 2402.8,-95.64 2435,-86.15"/>
<polygon fill="#63b8ff" stroke="#63b8ff" points="2325.77,-114.67 2317.17,-120.86 2327.75,-121.39 2325.77,-114.67"/>
</a>
</g>
</g>
<!-- Node33&#45;&gt;Node2 -->
<g id="edge47_Node000033_Node000002" class="edge">
<title>Node33&#45;&gt;Node2</title>
<g id="a_edge47_Node000033_Node000002"><a xlink:title=" ">
<path fill="none" stroke="#63b8ff" d="M1937.87,-121.52C1617.37,-79.04 1529.03,-132.78 1211.75,-85.75 1209.03,-85.35 1206.24,-84.87 1203.44,-84.34"/>
<polygon fill="#63b8ff" stroke="#63b8ff" points="1937,-124.93 1947.38,-122.8 1937.93,-117.99 1937,-124.93"/>
</a>
</g>
</g>
<!-- Node34 -->
<g id="Node000034" class="node">
<title>Node34</title>
<g id="a_Node000034"><a xlink:href="SettingsScene_8cpp.html" target="_top" xlink:title=" ">
<polygon fill="white" stroke="#666666" points="2245.12,-85.75 2114.38,-85.75 2114.38,-55.25 2245.12,-55.25 2245.12,-85.75"/>
<text xml:space="preserve" text-anchor="start" x="2122.38" y="-72.25" font-family="Helvetica,sans-Serif" font-size="10.00">client/src/Scenes/Settings</text>
<text xml:space="preserve" text-anchor="middle" x="2179.75" y="-61" font-family="Helvetica,sans-Serif" font-size="10.00">Scene.cpp</text>
</a>
</g>
</g>
<!-- Node33&#45;&gt;Node34 -->
<g id="edge48_Node000033_Node000034" class="edge">
<title>Node33&#45;&gt;Node34</title>
<g id="a_edge48_Node000033_Node000034"><a xlink:title=" ">
<path fill="none" stroke="#63b8ff" d="M2054.15,-117.53C2081.29,-107.58 2114.3,-95.49 2139.67,-86.19"/>
<polygon fill="#63b8ff" stroke="#63b8ff" points="2053.29,-114.12 2045.11,-120.84 2055.7,-120.69 2053.29,-114.12"/>
</a>
</g>
</g>
</g>
</svg>
