<?xml version="1.0" encoding="UTF-8" standalone="no"?>
<!DOCTYPE svg PUBLIC "-//W3C//DTD SVG 1.1//EN"
 "http://www.w3.org/Graphics/SVG/1.1/DTD/svg11.dtd">
<!-- Generated by graphviz version 14.0.5 (20251129.0259)
 -->
<!-- Title: common/include/RType/Thread/ThreadPool.hpp Pages: 1 -->
<!--zoomable 204 -->

<svg id="main" version="1.1" xmlns="http://www.w3.org/2000/svg" xmlns:xlink="http://www.w3.org/1999/xlink" xml:space="preserve" onload="init(evt)">

<style type="text/css"><![CDATA[
.node, .edge {opacity: 0.7;}
.node.selected, .edge.selected {opacity: 1;}
.edge:hover path { stroke: red; }
.edge:hover polygon { stroke: red; fill: red; }
]]></style>

<defs>
  <circle id="rim" cx="0" cy="0" r="7"/>
  <circle id="rim2" cx="0" cy="0" r="3.5"/>
  <g id="zoomPlus">
    <use xlink:href="#rim" fill="#404040"><set attributeName="fill" to="#808080" begin="zoomplus.mouseover" end="zoomplus.mouseout"/></use>
    <path d="M-4,0h8M0,-4v8" fill="none" stroke="white" stroke-width="1.5" pointer-events="none"/>
  </g>
  <g id="zoomMin">
    <use xlink:href="#rim" fill="#404040"><set attributeName="fill" to="#808080" begin="zoomminus.mouseover" end="zoomminus.mouseout"/></use>
    <path d="M-4,0h8" fill="none" stroke="white" stroke-width="1.5" pointer-events="none"/>
  </g>
  <g id="arrowUp" transform="translate(30 24)">
    <use xlink:href="#rim"/>
    <path pointer-events="none" fill="none" stroke="white" stroke-width="1.5" d="M0,-3.0v7 M-2.5,-0.5L0,-3.0L2.5,-0.5"/>
  </g>
  <g id="arrowRight" transform="rotate(90) translate(36 -43)">
    <use xlink:href="#rim"/>
    <path pointer-events="none" fill="none" stroke="white" stroke-width="1.5" d="M0,-3.0v7 M-2.5,-0.5L0,-3.0L2.5,-0.5"/>
  </g>
  <g id="arrowDown" transform="rotate(180) translate(-30 -48)">
    <use xlink:href="#rim"/>
    <path pointer-events="none" fill="none" stroke="white" stroke-width="1.5" d="M0,-3.0v7 M-2.5,-0.5L0,-3.0L2.5,-0.5"/>
  </g>
  <g id="arrowLeft" transform="rotate(270) translate(-36 17)">
    <use xlink:href="#rim"/>
    <path pointer-events="none" fill="none" stroke="white" stroke-width="1.5" d="M0,-3.0v7 M-2.5,-0.5L0,-3.0L2.5,-0.5"/>
  </g>
  <g id="resetDef">
    <use xlink:href="#rim2" fill="#404040"><set attributeName="fill" to="#808080" begin="reset.mouseover" end="reset.mouseout"/></use>
  </g>
</defs>
<script type="application/ecmascript">
var viewWidth = 1143;
var viewHeight = 204;
var sectionId = 'dynsection-0';
</script>
<script type="application/ecmascript" xlink:href="svg.min.js"/>
<svg id="graph" class="graph">
<g id="viewport">
<title>common/include/RType/Thread/ThreadPool.hpp</title>
<!-- Node1 -->
<g id="Node000001" class="node">
<title>Node1</title>
<g id="a_Node000001"><a xlink:title="ThreadPool class declaration.">
<polygon fill="#999999" stroke="#666666" points="797.75,-196.25 677.5,-196.25 677.5,-165.75 797.75,-165.75 797.75,-196.25"/>
<text xml:space="preserve" text-anchor="start" x="685.5" y="-182.75" font-family="Helvetica,sans-Serif" font-size="10.00">common/include/RType</text>
<text xml:space="preserve" text-anchor="middle" x="737.62" y="-171.5" font-family="Helvetica,sans-Serif" font-size="10.00">/Thread/ThreadPool.hpp</text>
</a>
</g>
</g>
<!-- Node2 -->
<g id="Node000002" class="node">
<title>Node2</title>
<g id="a_Node000002"><a xlink:href="Error_8hpp.html" target="_top" xlink:title="Error handling system with categorized error codes.">
<polygon fill="white" stroke="#666666" points="325.88,-129.75 239.38,-129.75 239.38,-110.5 325.88,-110.5 325.88,-129.75"/>
<text xml:space="preserve" text-anchor="middle" x="282.62" y="-116.25" font-family="Helvetica,sans-Serif" font-size="10.00">RType/Error.hpp</text>
</a>
</g>
</g>
<!-- Node1&#45;&gt;Node2 -->
<g id="edge1_Node000001_Node000002" class="edge">
<title>Node1&#45;&gt;Node2</title>
<g id="a_edge1_Node000001_Node000002"><a xlink:title=" ">
<path fill="none" stroke="#63b8ff" d="M677.1,-173.22C600.4,-164.47 463.87,-148.3 337.33,-130.1"/>
<polygon fill="#63b8ff" stroke="#63b8ff" points="338.19,-126.69 327.8,-128.72 337.19,-133.61 338.19,-126.69"/>
</a>
</g>
</g>
<!-- Node13 -->
<g id="Node000013" class="node">
<title>Node13</title>
<g id="a_Node000013"><a xlink:title=" ">
<polygon fill="#e0e0e0" stroke="#999999" points="399.5,-129.75 343.75,-129.75 343.75,-110.5 399.5,-110.5 399.5,-129.75"/>
<text xml:space="preserve" text-anchor="middle" x="371.62" y="-116.25" font-family="Helvetica,sans-Serif" font-size="10.00">concepts</text>
</a>
</g>
</g>
<!-- Node1&#45;&gt;Node13 -->
<g id="edge16_Node000001_Node000013" class="edge">
<title>Node1&#45;&gt;Node13</title>
<g id="a_edge16_Node000001_Node000013"><a xlink:title=" ">
<path fill="none" stroke="#63b8ff" d="M677.05,-172.18C613.25,-163.62 509.64,-148.82 410.94,-130.07"/>
<polygon fill="#63b8ff" stroke="#63b8ff" points="411.83,-126.68 401.35,-128.23 410.51,-133.55 411.83,-126.68"/>
</a>
</g>
</g>
<!-- Node14 -->
<g id="Node000014" class="node">
<title>Node14</title>
<g id="a_Node000014"><a xlink:title=" ">
<polygon fill="#e0e0e0" stroke="#999999" points="511.62,-129.75 417.62,-129.75 417.62,-110.5 511.62,-110.5 511.62,-129.75"/>
<text xml:space="preserve" text-anchor="middle" x="464.62" y="-116.25" font-family="Helvetica,sans-Serif" font-size="10.00">condition_variable</text>
</a>
</g>
</g>
<!-- Node1&#45;&gt;Node14 -->
<g id="edge17_Node000001_Node000014" class="edge">
<title>Node1&#45;&gt;Node14</title>
<g id="a_edge17_Node000001_Node000014"><a xlink:title=" ">
<path fill="none" stroke="#63b8ff" d="M677.04,-166.93C629.39,-156.66 563.66,-142.48 517.98,-132.63"/>
<polygon fill="#63b8ff" stroke="#63b8ff" points="518.82,-129.23 508.31,-130.55 517.34,-136.08 518.82,-129.23"/>
</a>
</g>
</g>
<!-- Node15 -->
<g id="Node000015" class="node">
<title>Node15</title>
<g id="a_Node000015"><a xlink:title=" ">
<polygon fill="#e0e0e0" stroke="#999999" points="585.5,-129.75 529.75,-129.75 529.75,-110.5 585.5,-110.5 585.5,-129.75"/>
<text xml:space="preserve" text-anchor="middle" x="557.62" y="-116.25" font-family="Helvetica,sans-Serif" font-size="10.00">expected</text>
</a>
</g>
</g>
<!-- Node1&#45;&gt;Node15 -->
<g id="edge18_Node000001_Node000015" class="edge">
<title>Node1&#45;&gt;Node15</title>
<g id="a_edge18_Node000001_Node000015"><a xlink:title=" ">
<path fill="none" stroke="#63b8ff" d="M692.67,-165.3C662.98,-155.58 624.47,-142.99 596.18,-133.73"/>
<polygon fill="#63b8ff" stroke="#63b8ff" points="597.53,-130.49 586.93,-130.71 595.35,-137.15 597.53,-130.49"/>
</a>
</g>
</g>
<!-- Node16 -->
<g id="Node000016" class="node">
<title>Node16</title>
<g id="a_Node000016"><a xlink:title=" ">
<polygon fill="#e0e0e0" stroke="#999999" points="661.62,-129.75 603.62,-129.75 603.62,-110.5 661.62,-110.5 661.62,-129.75"/>
<text xml:space="preserve" text-anchor="middle" x="632.62" y="-116.25" font-family="Helvetica,sans-Serif" font-size="10.00">functional</text>
</a>
</g>
</g>
<!-- Node1&#45;&gt;Node16 -->
<g id="edge19_Node000001_Node000016" class="edge">
<title>Node1&#45;&gt;Node16</title>
<g id="a_edge19_Node000001_Node000016"><a xlink:title=" ">
<path fill="none" stroke="#63b8ff" d="M711.4,-165.3C695.26,-156.24 674.65,-144.69 658.56,-135.66"/>
<polygon fill="#63b8ff" stroke="#63b8ff" points="660.48,-132.73 650.05,-130.89 657.06,-138.84 660.48,-132.73"/>
</a>
</g>
</g>
<!-- Node17 -->
<g id="Node000017" class="node">
<title>Node17</title>
<g id="a_Node000017"><a xlink:title=" ">
<polygon fill="#e0e0e0" stroke="#999999" points="731.25,-129.75 680,-129.75 680,-110.5 731.25,-110.5 731.25,-129.75"/>
<text xml:space="preserve" text-anchor="middle" x="705.62" y="-116.25" font-family="Helvetica,sans-Serif" font-size="10.00">memory</text>
</a>
</g>
</g>
<!-- Node1&#45;&gt;Node17 -->
<g id="edge20_Node000001_Node000017" class="edge">
<title>Node1&#45;&gt;Node17</title>
<g id="a_edge20_Node000001_Node000017"><a xlink:title=" ">
<path fill="none" stroke="#63b8ff" d="M729.71,-165.45C725.59,-157.86 720.5,-148.49 716.06,-140.32"/>
<polygon fill="#63b8ff" stroke="#63b8ff" points="719.13,-138.65 711.28,-131.53 712.98,-141.99 719.13,-138.65"/>
</a>
</g>
</g>
<!-- Node18 -->
<g id="Node000018" class="node">
<title>Node18</title>
<g id="a_Node000018"><a xlink:title=" ">
<polygon fill="#e0e0e0" stroke="#999999" points="790,-129.75 749.25,-129.75 749.25,-110.5 790,-110.5 790,-129.75"/>
<text xml:space="preserve" text-anchor="middle" x="769.62" y="-116.25" font-family="Helvetica,sans-Serif" font-size="10.00">future</text>
</a>
</g>
</g>
<!-- Node1&#45;&gt;Node18 -->
<g id="edge21_Node000001_Node000018" class="edge">
<title>Node1&#45;&gt;Node18</title>
<g id="a_edge21_Node000001_Node000018"><a xlink:title=" ">
<path fill="none" stroke="#63b8ff" d="M745.54,-165.45C749.66,-157.86 754.75,-148.49 759.19,-140.32"/>
<polygon fill="#63b8ff" stroke="#63b8ff" points="762.27,-141.99 763.97,-131.53 756.12,-138.65 762.27,-141.99"/>
</a>
</g>
</g>
<!-- Node19 -->
<g id="Node000019" class="node">
<title>Node19</title>
<g id="a_Node000019"><a xlink:title=" ">
<polygon fill="#e0e0e0" stroke="#999999" points="851.12,-129.75 808.12,-129.75 808.12,-110.5 851.12,-110.5 851.12,-129.75"/>
<text xml:space="preserve" text-anchor="middle" x="829.62" y="-116.25" font-family="Helvetica,sans-Serif" font-size="10.00">mutex</text>
</a>
</g>
</g>
<!-- Node1&#45;&gt;Node19 -->
<g id="edge22_Node000001_Node000019" class="edge">
<title>Node1&#45;&gt;Node19</title>
<g id="a_edge22_Node000001_Node000019"><a xlink:title=" ">
<path fill="none" stroke="#63b8ff" d="M760.37,-165.45C774.24,-156.57 791.94,-145.24 805.98,-136.26"/>
<polygon fill="#63b8ff" stroke="#63b8ff" points="807.63,-139.36 814.17,-131.02 803.86,-133.46 807.63,-139.36"/>
</a>
</g>
</g>
<!-- Node20 -->
<g id="Node000020" class="node">
<title>Node20</title>
<g id="a_Node000020"><a xlink:title=" ">
<polygon fill="#e0e0e0" stroke="#999999" points="911.75,-129.75 869.5,-129.75 869.5,-110.5 911.75,-110.5 911.75,-129.75"/>
<text xml:space="preserve" text-anchor="middle" x="890.62" y="-116.25" font-family="Helvetica,sans-Serif" font-size="10.00">queue</text>
</a>
</g>
</g>
<!-- Node1&#45;&gt;Node20 -->
<g id="edge23_Node000001_Node000020" class="edge">
<title>Node1&#45;&gt;Node20</title>
<g id="a_edge23_Node000001_Node000020"><a xlink:title=" ">
<path fill="none" stroke="#63b8ff" d="M775.84,-165.3C801.36,-155.47 834.54,-142.71 858.66,-133.43"/>
<polygon fill="#63b8ff" stroke="#63b8ff" points="859.88,-136.71 867.96,-129.85 857.37,-130.17 859.88,-136.71"/>
</a>
</g>
</g>
<!-- Node21 -->
<g id="Node000021" class="node">
<title>Node21</title>
<g id="a_Node000021"><a xlink:title=" ">
<polygon fill="#e0e0e0" stroke="#999999" points="973.12,-129.75 930.12,-129.75 930.12,-110.5 973.12,-110.5 973.12,-129.75"/>
<text xml:space="preserve" text-anchor="middle" x="951.62" y="-116.25" font-family="Helvetica,sans-Serif" font-size="10.00">thread</text>
</a>
</g>
</g>
<!-- Node1&#45;&gt;Node21 -->
<g id="edge24_Node000001_Node000021" class="edge">
<title>Node1&#45;&gt;Node21</title>
<g id="a_edge24_Node000001_Node000021"><a xlink:title=" ">
<path fill="none" stroke="#63b8ff" d="M791.29,-165.32C825.2,-156.02 870.24,-143.66 918.86,-130.23"/>
<polygon fill="#63b8ff" stroke="#63b8ff" points="919.78,-133.61 928.49,-127.57 917.92,-126.86 919.78,-133.61"/>
</a>
</g>
</g>
<!-- Node22 -->
<g id="Node000022" class="node">
<title>Node22</title>
<g id="a_Node000022"><a xlink:title=" ">
<polygon fill="#e0e0e0" stroke="#999999" points="1034.12,-129.75 991.12,-129.75 991.12,-110.5 1034.12,-110.5 1034.12,-129.75"/>
<text xml:space="preserve" text-anchor="middle" x="1012.62" y="-116.25" font-family="Helvetica,sans-Serif" font-size="10.00">vector</text>
</a>
</g>
</g>
<!-- Node1&#45;&gt;Node22 -->
<g id="edge25_Node000001_Node000022" class="edge">
<title>Node1&#45;&gt;Node22</title>
<g id="a_edge25_Node000001_Node000022"><a xlink:title=" ">
<path fill="none" stroke="#63b8ff" d="M798.08,-168.96C845.22,-160.04 912.56,-146.63 979.54,-130.38"/>
<polygon fill="#63b8ff" stroke="#63b8ff" points="980.37,-133.78 989.25,-127.99 978.71,-126.98 980.37,-133.78"/>
</a>
</g>
</g>
<!-- Node23 -->
<g id="Node000023" class="node">
<title>Node23</title>
<g id="a_Node000023"><a xlink:href="ThreadPool_8tpp.html" target="_top" xlink:title=" ">
<polygon fill="white" stroke="#666666" points="1134.62,-129.75 1052.62,-129.75 1052.62,-110.5 1134.62,-110.5 1134.62,-129.75"/>
<text xml:space="preserve" text-anchor="middle" x="1093.62" y="-116.25" font-family="Helvetica,sans-Serif" font-size="10.00">ThreadPool.tpp</text>
</a>
</g>
</g>
<!-- Node1&#45;&gt;Node23 -->
<g id="edge26_Node000001_Node000023" class="edge">
<title>Node1&#45;&gt;Node23</title>
<g id="a_edge26_Node000001_Node000023"><a xlink:title=" ">
<path fill="none" stroke="#63b8ff" d="M798.03,-170.23C857.3,-160.61 950.58,-145.38 1040.88,-130.2"/>
<polygon fill="#63b8ff" stroke="#63b8ff" points="1041.38,-133.67 1050.67,-128.56 1040.22,-126.76 1041.38,-133.67"/>
</a>
</g>
</g>
<!-- Node3 -->
<g id="Node000003" class="node">
<title>Node3</title>
<g id="a_Node000003"><a xlink:href="LogLevel_8hpp.html" target="_top" xlink:title="Log severity levels for the logging system.">
<polygon fill="white" stroke="#666666" points="216.25,-74.5 111,-74.5 111,-55.25 216.25,-55.25 216.25,-74.5"/>
<text xml:space="preserve" text-anchor="middle" x="163.62" y="-61" font-family="Helvetica,sans-Serif" font-size="10.00">RType/LogLevel.hpp</text>
</a>
</g>
</g>
<!-- Node2&#45;&gt;Node3 -->
<g id="edge2_Node000002_Node000003" class="edge">
<title>Node2&#45;&gt;Node3</title>
<g id="a_edge2_Node000002_Node000003"><a xlink:title=" ">
<path fill="none" stroke="#63b8ff" d="M262.44,-110.09C243.72,-101.72 215.6,-89.13 194.14,-79.53"/>
<polygon fill="#63b8ff" stroke="#63b8ff" points="195.85,-76.46 185.29,-75.57 192.99,-82.85 195.85,-76.46"/>
</a>
</g>
</g>
<!-- Node4 -->
<g id="Node000004" class="node">
<title>Node4</title>
<g id="a_Node000004"><a xlink:title=" ">
<polygon fill="#e0e0e0" stroke="#999999" points="45.25,-19.25 0,-19.25 0,0 45.25,0 45.25,-19.25"/>
<text xml:space="preserve" text-anchor="middle" x="22.62" y="-5.75" font-family="Helvetica,sans-Serif" font-size="10.00">cstdint</text>
</a>
</g>
</g>
<!-- Node2&#45;&gt;Node4 -->
<g id="edge8_Node000002_Node000004" class="edge">
<title>Node2&#45;&gt;Node4</title>
<g id="a_edge8_Node000002_Node000004"><a xlink:title=" ">
<path fill="none" stroke="#63b8ff" d="M238.88,-116.14C197.45,-111.75 134.6,-100.97 86.62,-74.5 66.08,-63.16 47.7,-43.28 35.97,-28.71"/>
<polygon fill="#63b8ff" stroke="#63b8ff" points="38.77,-26.6 29.89,-20.83 33.23,-30.88 38.77,-26.6"/>
</a>
</g>
</g>
<!-- Node5 -->
<g id="Node000005" class="node">
<title>Node5</title>
<g id="a_Node000005"><a xlink:title=" ">
<polygon fill="#e0e0e0" stroke="#999999" points="107.5,-19.25 63.75,-19.25 63.75,0 107.5,0 107.5,-19.25"/>
<text xml:space="preserve" text-anchor="middle" x="85.62" y="-5.75" font-family="Helvetica,sans-Serif" font-size="10.00">format</text>
</a>
</g>
</g>
<!-- Node2&#45;&gt;Node5 -->
<g id="edge9_Node000002_Node000005" class="edge">
<title>Node2&#45;&gt;Node5</title>
<g id="a_edge9_Node000002_Node000005"><a xlink:title=" ">
<path fill="none" stroke="#63b8ff" d="M239.15,-113.61C191.96,-106.75 120.77,-93.57 101.62,-74.5 90.22,-63.13 86.52,-44.93 85.5,-30.86"/>
<polygon fill="#63b8ff" stroke="#63b8ff" points="89,-30.83 85.22,-20.93 82,-31.03 89,-30.83"/>
</a>
</g>
</g>
<!-- Node6 -->
<g id="Node000006" class="node">
<title>Node6</title>
<g id="a_Node000006"><a xlink:title=" ">
<polygon fill="#e0e0e0" stroke="#999999" points="277.38,-19.25 211.88,-19.25 211.88,0 277.38,0 277.38,-19.25"/>
<text xml:space="preserve" text-anchor="middle" x="244.62" y="-5.75" font-family="Helvetica,sans-Serif" font-size="10.00">string_view</text>
</a>
</g>
</g>
<!-- Node2&#45;&gt;Node6 -->
<g id="edge11_Node000002_Node000006" class="edge">
<title>Node2&#45;&gt;Node6</title>
<g id="a_edge11_Node000002_Node000006"><a xlink:title=" ">
<path fill="none" stroke="#63b8ff" d="M279.52,-110.25C273.45,-92.92 259.9,-54.23 251.58,-30.49"/>
<polygon fill="#63b8ff" stroke="#63b8ff" points="254.89,-29.34 248.28,-21.06 248.28,-31.65 254.89,-29.34"/>
</a>
</g>
</g>
<!-- Node7 -->
<g id="Node000007" class="node">
<title>Node7</title>
<g id="a_Node000007"><a xlink:title=" ">
<polygon fill="#e0e0e0" stroke="#999999" points="334.25,-19.25 295,-19.25 295,0 334.25,0 334.25,-19.25"/>
<text xml:space="preserve" text-anchor="middle" x="314.62" y="-5.75" font-family="Helvetica,sans-Serif" font-size="10.00">utility</text>
</a>
</g>
</g>
<!-- Node2&#45;&gt;Node7 -->
<g id="edge13_Node000002_Node000007" class="edge">
<title>Node2&#45;&gt;Node7</title>
<g id="a_edge13_Node000002_Node000007"><a xlink:title=" ">
<path fill="none" stroke="#63b8ff" d="M285.24,-110.25C290.35,-92.92 301.77,-54.23 308.77,-30.49"/>
<polygon fill="#63b8ff" stroke="#63b8ff" points="312.07,-31.66 311.54,-21.08 305.36,-29.68 312.07,-31.66"/>
</a>
</g>
</g>
<!-- Node9 -->
<g id="Node000009" class="node">
<title>Node9</title>
<g id="a_Node000009"><a xlink:title=" ">
<polygon fill="#e0e0e0" stroke="#999999" points="350.62,-74.5 310.62,-74.5 310.62,-55.25 350.62,-55.25 350.62,-74.5"/>
<text xml:space="preserve" text-anchor="middle" x="330.62" y="-61" font-family="Helvetica,sans-Serif" font-size="10.00">string</text>
</a>
</g>
</g>
<!-- Node2&#45;&gt;Node9 -->
<g id="edge10_Node000002_Node000009" class="edge">
<title>Node2&#45;&gt;Node9</title>
<g id="a_edge10_Node000002_Node000009"><a xlink:title=" ">
<path fill="none" stroke="#63b8ff" d="M290.55,-110.33C297.18,-102.98 306.84,-92.26 315.01,-83.19"/>
<polygon fill="#63b8ff" stroke="#63b8ff" points="317.42,-85.75 321.51,-75.98 312.22,-81.07 317.42,-85.75"/>
</a>
</g>
</g>
<!-- Node10 -->
<g id="Node000010" class="node">
<title>Node10</title>
<g id="a_Node000010"><a xlink:title=" ">
<polygon fill="#e0e0e0" stroke="#999999" points="442.12,-74.5 369.12,-74.5 369.12,-55.25 442.12,-55.25 442.12,-74.5"/>
<text xml:space="preserve" text-anchor="middle" x="405.62" y="-61" font-family="Helvetica,sans-Serif" font-size="10.00">system_error</text>
</a>
</g>
</g>
<!-- Node2&#45;&gt;Node10 -->
<g id="edge12_Node000002_Node000010" class="edge">
<title>Node2&#45;&gt;Node10</title>
<g id="a_edge12_Node000002_Node000010"><a xlink:title=" ">
<path fill="none" stroke="#63b8ff" d="M303.49,-110.09C322.93,-101.68 352.17,-89.02 374.39,-79.4"/>
<polygon fill="#63b8ff" stroke="#63b8ff" points="375.48,-82.74 383.27,-75.55 372.7,-76.31 375.48,-82.74"/>
</a>
</g>
</g>
<!-- Node11 -->
<g id="Node000011" class="node">
<title>Node11</title>
<g id="a_Node000011"><a xlink:title=" ">
<polygon fill="#e0e0e0" stroke="#999999" points="509.12,-74.5 460.12,-74.5 460.12,-55.25 509.12,-55.25 509.12,-74.5"/>
<text xml:space="preserve" text-anchor="middle" x="484.62" y="-61" font-family="Helvetica,sans-Serif" font-size="10.00">Error.inl</text>
</a>
</g>
</g>
<!-- Node2&#45;&gt;Node11 -->
<g id="edge14_Node000002_Node000011" class="edge">
<title>Node2&#45;&gt;Node11</title>
<g id="a_edge14_Node000002_Node000011"><a xlink:title=" ">
<path fill="none" stroke="#63b8ff" d="M316.89,-110.09C353.61,-100.41 411.64,-85.11 448.91,-75.29"/>
<polygon fill="#63b8ff" stroke="#63b8ff" points="449.53,-78.75 458.3,-72.81 447.74,-71.98 449.53,-78.75"/>
</a>
</g>
</g>
<!-- Node12 -->
<g id="Node000012" class="node">
<title>Node12</title>
<g id="a_Node000012"><a xlink:href="Error_8tpp.html" target="_top" xlink:title=" ">
<polygon fill="white" stroke="#666666" points="580,-74.5 527.25,-74.5 527.25,-55.25 580,-55.25 580,-74.5"/>
<text xml:space="preserve" text-anchor="middle" x="553.62" y="-61" font-family="Helvetica,sans-Serif" font-size="10.00">Error.tpp</text>
</a>
</g>
</g>
<!-- Node2&#45;&gt;Node12 -->
<g id="edge15_Node000002_Node000012" class="edge">
<title>Node2&#45;&gt;Node12</title>
<g id="a_edge15_Node000002_Node000012"><a xlink:title=" ">
<path fill="none" stroke="#63b8ff" d="M326.27,-111.61C371.42,-103.67 444.25,-90.41 515.89,-75.01"/>
<polygon fill="#63b8ff" stroke="#63b8ff" points="516.4,-78.48 525.43,-72.94 514.91,-71.64 516.4,-78.48"/>
</a>
</g>
</g>
<!-- Node3&#45;&gt;Node4 -->
<g id="edge3_Node000003_Node000004" class="edge">
<title>Node3&#45;&gt;Node4</title>
<g id="a_edge3_Node000003_Node000004"><a xlink:title=" ">
<path fill="none" stroke="#63b8ff" d="M139.71,-54.84C116.85,-46.21 82.16,-33.11 56.47,-23.41"/>
<polygon fill="#63b8ff" stroke="#63b8ff" points="57.73,-20.14 47.14,-19.88 55.26,-26.69 57.73,-20.14"/>
</a>
</g>
</g>
<!-- Node3&#45;&gt;Node5 -->
<g id="edge4_Node000003_Node000005" class="edge">
<title>Node3&#45;&gt;Node5</title>
<g id="a_edge4_Node000003_Node000005"><a xlink:title=" ">
<path fill="none" stroke="#63b8ff" d="M150.39,-54.84C138.85,-46.96 121.86,-35.36 108.18,-26.02"/>
<polygon fill="#63b8ff" stroke="#63b8ff" points="110.4,-23.3 100.17,-20.56 106.46,-29.08 110.4,-23.3"/>
</a>
</g>
</g>
<!-- Node3&#45;&gt;Node6 -->
<g id="edge5_Node000003_Node000006" class="edge">
<title>Node3&#45;&gt;Node6</title>
<g id="a_edge5_Node000003_Node000006"><a xlink:title=" ">
<path fill="none" stroke="#63b8ff" d="M177.37,-54.84C189.35,-46.96 207,-35.36 221.21,-26.02"/>
<polygon fill="#63b8ff" stroke="#63b8ff" points="223.12,-28.95 229.55,-20.53 219.27,-23.1 223.12,-28.95"/>
</a>
</g>
</g>
<!-- Node3&#45;&gt;Node7 -->
<g id="edge6_Node000003_Node000007" class="edge">
<title>Node3&#45;&gt;Node7</title>
<g id="a_edge6_Node000003_Node000007"><a xlink:title=" ">
<path fill="none" stroke="#63b8ff" d="M189.24,-54.84C215.42,-45.61 256.08,-31.27 283.96,-21.44"/>
<polygon fill="#63b8ff" stroke="#63b8ff" points="284.99,-24.79 293.26,-18.16 282.66,-18.19 284.99,-24.79"/>
</a>
</g>
</g>
<!-- Node8 -->
<g id="Node000008" class="node">
<title>Node8</title>
<g id="a_Node000008"><a xlink:title=" ">
<polygon fill="#e0e0e0" stroke="#999999" points="193.5,-19.25 125.75,-19.25 125.75,0 193.5,0 193.5,-19.25"/>
<text xml:space="preserve" text-anchor="middle" x="159.62" y="-5.75" font-family="Helvetica,sans-Serif" font-size="10.00">LogLevel.inl</text>
</a>
</g>
</g>
<!-- Node3&#45;&gt;Node8 -->
<g id="edge7_Node000003_Node000008" class="edge">
<title>Node3&#45;&gt;Node8</title>
<g id="a_edge7_Node000003_Node000008"><a xlink:title=" ">
<path fill="none" stroke="#63b8ff" d="M162.96,-55.08C162.47,-48.49 161.77,-39.21 161.14,-30.82"/>
<polygon fill="#63b8ff" stroke="#63b8ff" points="164.65,-30.83 160.41,-21.12 157.67,-31.35 164.65,-30.83"/>
</a>
</g>
</g>
</g>
</svg>

<g id="navigator" transform="translate(0 0)" fill="#404254">
  <rect fill="#f2f5e9" fill-opacity="0.5" stroke="#606060" stroke-width=".5" x="0" y="0" width="60" height="60"/>
  <use id="zoomplus" xlink:href="#zoomPlus" x="17" y="9" onmousedown="handleZoom(evt,'in')"/>
  <use id="zoomminus" xlink:href="#zoomMin" x="42" y="9" onmousedown="handleZoom(evt,'out')"/>
  <use id="reset" xlink:href="#resetDef" x="30" y="36" onmousedown="handleReset()"/>
   <use id="arrowup" xlink:href="#arrowUp" x="0" y="0" onmousedown="handlePan(0,-1)"/>
  <use id="arrowright" xlink:href="#arrowRight" x="0" y="0" onmousedown="handlePan(1,0)"/>
  <use id="arrowdown" xlink:href="#arrowDown" x="0" y="0" onmousedown="handlePan(0,1)"/>
  <use id="arrowleft" xlink:href="#arrowLeft" x="0" y="0" onmousedown="handlePan(-1,0)"/>
</g>
<svg viewBox="0 0 15 15" width="100%" height="30px" preserveAspectRatio="xMaxYMin meet">
 <g id="arrow_out" transform="scale(0.3 0.3)">
  <a xlink:href="ThreadPool_8hpp__incl_org.svg" target="_base">
   <rect id="button" ry="5" rx="5" y="6" x="6" height="38" width="38"
        fill="#f2f5e9" fill-opacity="0.5" stroke="#606060" stroke-width="1.0"/>
   <path id="arrow"
     d="M 11.500037,31.436501 C 11.940474,20.09759 22.043105,11.32322 32.158766,21.979434 L 37.068811,17.246167 C 37.068811,17.246167 37.088388,32 37.088388,32 L 22.160133,31.978069 C 22.160133,31.978069 26.997745,27.140456 26.997745,27.140456 C 18.528582,18.264221 13.291696,25.230495 11.500037,31.436501 z"
     style="fill:#404040;"/>
  </a>
 </g>
</svg>

<style type='text/css'>
<![CDATA[
[data-mouse-over-selected='false'] { opacity: 0.7; }
[data-mouse-over-selected='true']  { opacity: 1.0; }
]]>
</style>
<script type="application/ecmascript"><![CDATA[
document.addEventListener('DOMContentLoaded', (event) => {
  highlightEdges();
  highlightAdjacentNodes();
});
]]></script>
</svg>
