<?xml version="1.0" encoding="UTF-8" standalone="no"?>
<!DOCTYPE svg PUBLIC "-//W3C//DTD SVG 1.1//EN"
 "http://www.w3.org/Graphics/SVG/1.1/DTD/svg11.dtd">
<!-- Generated by graphviz version 14.0.5 (20251129.0259)
 -->
<!-- Title: common/src/Thread/ThreadPool.cpp Pages: 1 -->
<!--zoomable 315 -->

<svg id="main" version="1.1" xmlns="http://www.w3.org/2000/svg" xmlns:xlink="http://www.w3.org/1999/xlink" xml:space="preserve" onload="init(evt)">

<style type="text/css"><![CDATA[
.node, .edge {opacity: 0.7;}
.node.selected, .edge.selected {opacity: 1;}
.edge:hover path { stroke: red; }
.edge:hover polygon { stroke: red; fill: red; }
]]></style>

<defs>
  <circle id="rim" cx="0" cy="0" r="7"/>
  <circle id="rim2" cx="0" cy="0" r="3.5"/>
  <g id="zoomPlus">
    <use xlink:href="#rim" fill="#404040"><set attributeName="fill" to="#808080" begin="zoomplus.mouseover" end="zoomplus.mouseout"/></use>
    <path d="M-4,0h8M0,-4v8" fill="none" stroke="white" stroke-width="1.5" pointer-events="none"/>
  </g>
  <g id="zoomMin">
    <use xlink:href="#rim" fill="#404040"><set attributeName="fill" to="#808080" begin="zoomminus.mouseover" end="zoomminus.mouseout"/></use>
    <path d="M-4,0h8" fill="none" stroke="white" stroke-width="1.5" pointer-events="none"/>
  </g>
  <g id="arrowUp" transform="translate(30 24)">
    <use xlink:href="#rim"/>
    <path pointer-events="none" fill="none" stroke="white" stroke-width="1.5" d="M0,-3.0v7 M-2.5,-0.5L0,-3.0L2.5,-0.5"/>
  </g>
  <g id="arrowRight" transform="rotate(90) translate(36 -43)">
    <use xlink:href="#rim"/>
    <path pointer-events="none" fill="none" stroke="white" stroke-width="1.5" d="M0,-3.0v7 M-2.5,-0.5L0,-3.0L2.5,-0.5"/>
  </g>
  <g id="arrowDown" transform="rotate(180) translate(-30 -48)">
    <use xlink:href="#rim"/>
    <path pointer-events="none" fill="none" stroke="white" stroke-width="1.5" d="M0,-3.0v7 M-2.5,-0.5L0,-3.0L2.5,-0.5"/>
  </g>
  <g id="arrowLeft" transform="rotate(270) translate(-36 17)">
    <use xlink:href="#rim"/>
    <path pointer-events="none" fill="none" stroke="white" stroke-width="1.5" d="M0,-3.0v7 M-2.5,-0.5L0,-3.0L2.5,-0.5"/>
  </g>
  <g id="resetDef">
    <use xlink:href="#rim2" fill="#404040"><set attributeName="fill" to="#808080" begin="reset.mouseover" end="reset.mouseout"/></use>
  </g>
</defs>
<script type="application/ecmascript">
var viewWidth = 1673;
var viewHeight = 315;
var sectionId = 'dynsection-0';
</script>
<script type="application/ecmascript" xlink:href="svg.min.js"/>
<svg id="graph" class="graph">
<g id="viewport">
<title>common/src/Thread/ThreadPool.cpp</title>
<!-- Node1 -->
<g id="Node000001" class="node">
<title>Node1</title>
<g id="a_Node000001"><a xlink:title="ThreadPool class implementation.">
<polygon fill="#999999" stroke="#666666" points="913.88,-306.75 777.88,-306.75 777.88,-276.25 913.88,-276.25 913.88,-306.75"/>
<text xml:space="preserve" text-anchor="start" x="785.88" y="-293.25" font-family="Helvetica,sans-Serif" font-size="10.00">common/src/Thread/Thread</text>
<text xml:space="preserve" text-anchor="middle" x="845.88" y="-282" font-family="Helvetica,sans-Serif" font-size="10.00">Pool.cpp</text>
</a>
</g>
</g>
<!-- Node2 -->
<g id="Node000002" class="node">
<title>Node2</title>
<g id="a_Node000002"><a xlink:href="Assert_8hpp.html" target="_top" xlink:title="Assertion and verification macros for runtime checks.">
<polygon fill="white" stroke="#666666" points="767.25,-240.25 672.5,-240.25 672.5,-221 767.25,-221 767.25,-240.25"/>
<text xml:space="preserve" text-anchor="middle" x="719.88" y="-226.75" font-family="Helvetica,sans-Serif" font-size="10.00">RType/Assert.hpp</text>
</a>
</g>
</g>
<!-- Node1&#45;&gt;Node2 -->
<g id="edge1_Node000001_Node000002" class="edge">
<title>Node1&#45;&gt;Node2</title>
<g id="a_edge1_Node000001_Node000002"><a xlink:title=" ">
<path fill="none" stroke="#63b8ff" d="M814.4,-275.8C794.57,-266.53 769.12,-254.63 749.62,-245.52"/>
<polygon fill="#63b8ff" stroke="#63b8ff" points="751.11,-242.36 740.57,-241.29 748.15,-248.7 751.11,-242.36"/>
</a>
</g>
</g>
<!-- Node3 -->
<g id="Node000003" class="node">
<title>Node3</title>
<g id="a_Node000003"><a xlink:href="Logger_8hpp.html" target="_top" xlink:title="Logger declaration with support for multiple log levels.">
<polygon fill="white" stroke="#666666" points="471.25,-185 376.5,-185 376.5,-165.75 471.25,-165.75 471.25,-185"/>
<text xml:space="preserve" text-anchor="middle" x="423.88" y="-171.5" font-family="Helvetica,sans-Serif" font-size="10.00">RType/Logger.hpp</text>
</a>
</g>
</g>
<!-- Node1&#45;&gt;Node3 -->
<g id="edge28_Node000001_Node000003" class="edge">
<title>Node1&#45;&gt;Node3</title>
<g id="a_edge28_Node000001_Node000003"><a xlink:title=" ">
<path fill="none" stroke="#63b8ff" d="M791.57,-275.81C707.23,-253.01 546.37,-209.5 468.42,-188.42"/>
<polygon fill="#63b8ff" stroke="#63b8ff" points="469.57,-185.11 459,-185.87 467.74,-191.86 469.57,-185.11"/>
</a>
</g>
</g>
<!-- Node6 -->
<g id="Node000006" class="node">
<title>Node6</title>
<g id="a_Node000006"><a xlink:title=" ">
<polygon fill="#e0e0e0" stroke="#999999" points="775.75,-19.25 732,-19.25 732,0 775.75,0 775.75,-19.25"/>
<text xml:space="preserve" text-anchor="middle" x="753.88" y="-5.75" font-family="Helvetica,sans-Serif" font-size="10.00">format</text>
</a>
</g>
</g>
<!-- Node1&#45;&gt;Node6 -->
<g id="edge42_Node000001_Node000006" class="edge">
<title>Node1&#45;&gt;Node6</title>
<g id="a_edge42_Node000001_Node000006"><a xlink:title=" ">
<path fill="none" stroke="#63b8ff" d="M845.88,-276.09C845.88,-254.44 845.88,-212.24 845.88,-176.38 845.88,-176.38 845.88,-176.38 845.88,-119.12 845.88,-77.77 806.52,-44.1 779.29,-25.75"/>
<polygon fill="#63b8ff" stroke="#63b8ff" points="781.47,-22.99 771.17,-20.52 777.68,-28.88 781.47,-22.99"/>
</a>
</g>
</g>
<!-- Node20 -->
<g id="Node000020" class="node">
<title>Node20</title>
<g id="a_Node000020"><a xlink:href="ThreadPool_8hpp.html" target="_top" xlink:title="ThreadPool class declaration.">
<polygon fill="white" stroke="#666666" points="1233.25,-185 1084.5,-185 1084.5,-165.75 1233.25,-165.75 1233.25,-185"/>
<text xml:space="preserve" text-anchor="middle" x="1158.88" y="-171.5" font-family="Helvetica,sans-Serif" font-size="10.00">RType/Thread/ThreadPool.hpp</text>
</a>
</g>
</g>
<!-- Node1&#45;&gt;Node20 -->
<g id="edge29_Node000001_Node000020" class="edge">
<title>Node1&#45;&gt;Node20</title>
<g id="a_edge29_Node000001_Node000020"><a xlink:title=" ">
<path fill="none" stroke="#63b8ff" d="M853.59,-275.9C862.97,-259.71 880.37,-234.13 902.88,-221 931.27,-204.43 1010.31,-192.26 1073.13,-184.86"/>
<polygon fill="#63b8ff" stroke="#63b8ff" points="1073.22,-188.37 1082.75,-183.75 1072.41,-181.42 1073.22,-188.37"/>
</a>
</g>
</g>
<!-- Node31 -->
<g id="Node000031" class="node">
<title>Node31</title>
<g id="a_Node000031"><a xlink:title=" ">
<polygon fill="#e0e0e0" stroke="#999999" points="969.88,-240.25 911.88,-240.25 911.88,-221 969.88,-221 969.88,-240.25"/>
<text xml:space="preserve" text-anchor="middle" x="940.88" y="-226.75" font-family="Helvetica,sans-Serif" font-size="10.00">exception</text>
</a>
</g>
</g>
<!-- Node1&#45;&gt;Node31 -->
<g id="edge43_Node000001_Node000031" class="edge">
<title>Node1&#45;&gt;Node31</title>
<g id="a_edge43_Node000001_Node000031"><a xlink:title=" ">
<path fill="none" stroke="#63b8ff" d="M869.36,-275.95C883.68,-267.07 901.96,-255.74 916.46,-246.76"/>
<polygon fill="#63b8ff" stroke="#63b8ff" points="918.29,-249.74 924.94,-241.5 914.6,-243.79 918.29,-249.74"/>
</a>
</g>
</g>
<!-- Node2&#45;&gt;Node3 -->
<g id="edge2_Node000002_Node000003" class="edge">
<title>Node2&#45;&gt;Node3</title>
<g id="a_edge2_Node000002_Node000003"><a xlink:title=" ">
<path fill="none" stroke="#63b8ff" d="M672.32,-221.07C620.64,-211.77 538.03,-196.91 482.41,-186.9"/>
<polygon fill="#63b8ff" stroke="#63b8ff" points="483.27,-183.5 472.8,-185.18 482.03,-190.39 483.27,-183.5"/>
</a>
</g>
</g>
<!-- Node19 -->
<g id="Node000019" class="node">
<title>Node19</title>
<g id="a_Node000019"><a xlink:title=" ">
<polygon fill="#e0e0e0" stroke="#999999" points="742.12,-185 697.62,-185 697.62,-165.75 742.12,-165.75 742.12,-185"/>
<text xml:space="preserve" text-anchor="middle" x="719.88" y="-171.5" font-family="Helvetica,sans-Serif" font-size="10.00">cstdlib</text>
</a>
</g>
</g>
<!-- Node2&#45;&gt;Node19 -->
<g id="edge27_Node000002_Node000019" class="edge">
<title>Node2&#45;&gt;Node19</title>
<g id="a_edge27_Node000002_Node000019"><a xlink:title=" ">
<path fill="none" stroke="#63b8ff" d="M719.88,-220.83C719.88,-214.32 719.88,-205.17 719.88,-196.87"/>
<polygon fill="#63b8ff" stroke="#63b8ff" points="723.38,-196.87 719.88,-186.87 716.38,-196.87 723.38,-196.87"/>
</a>
</g>
</g>
<!-- Node4 -->
<g id="Node000004" class="node">
<title>Node4</title>
<g id="a_Node000004"><a xlink:href="LogLevel_8hpp.html" target="_top" xlink:title="Log severity levels for the logging system.">
<polygon fill="white" stroke="#666666" points="474.5,-74.5 369.25,-74.5 369.25,-55.25 474.5,-55.25 474.5,-74.5"/>
<text xml:space="preserve" text-anchor="middle" x="421.88" y="-61" font-family="Helvetica,sans-Serif" font-size="10.00">RType/LogLevel.hpp</text>
</a>
</g>
</g>
<!-- Node3&#45;&gt;Node4 -->
<g id="edge3_Node000003_Node000004" class="edge">
<title>Node3&#45;&gt;Node4</title>
<g id="a_edge3_Node000003_Node000004"><a xlink:title=" ">
<path fill="none" stroke="#63b8ff" d="M419.62,-165.4C415.68,-156.56 410.1,-142.56 407.88,-129.75 405.28,-114.83 409.19,-98.12 413.53,-85.53"/>
<polygon fill="#63b8ff" stroke="#63b8ff" points="416.75,-86.92 417.08,-76.33 410.21,-84.4 416.75,-86.92"/>
</a>
</g>
</g>
<!-- Node3&#45;&gt;Node6 -->
<g id="edge20_Node000003_Node000006" class="edge">
<title>Node3&#45;&gt;Node6</title>
<g id="a_edge20_Node000003_Node000006"><a xlink:title=" ">
<path fill="none" stroke="#63b8ff" d="M471.45,-168.64C561.51,-156.67 751.25,-125.83 788.88,-74.5 799.79,-59.61 786.87,-40.92 773.75,-27.62"/>
<polygon fill="#63b8ff" stroke="#63b8ff" points="776.14,-25.06 766.45,-20.78 771.36,-30.17 776.14,-25.06"/>
</a>
</g>
</g>
<!-- Node7 -->
<g id="Node000007" class="node">
<title>Node7</title>
<g id="a_Node000007"><a xlink:title=" ">
<polygon fill="#e0e0e0" stroke="#999999" points="373.62,-19.25 308.12,-19.25 308.12,0 373.62,0 373.62,-19.25"/>
<text xml:space="preserve" text-anchor="middle" x="340.88" y="-5.75" font-family="Helvetica,sans-Serif" font-size="10.00">string_view</text>
</a>
</g>
</g>
<!-- Node3&#45;&gt;Node7 -->
<g id="edge23_Node000003_Node000007" class="edge">
<title>Node3&#45;&gt;Node7</title>
<g id="a_edge23_Node000003_Node000007"><a xlink:title=" ">
<path fill="none" stroke="#63b8ff" d="M376.17,-165.62C328.35,-153.99 257.45,-128.29 225.88,-74.5 221.54,-67.12 221.04,-62.31 225.88,-55.25 234.38,-42.83 268.2,-30.6 296.99,-22.09"/>
<polygon fill="#63b8ff" stroke="#63b8ff" points="297.61,-25.55 306.25,-19.44 295.68,-18.83 297.61,-25.55"/>
</a>
</g>
</g>
<!-- Node8 -->
<g id="Node000008" class="node">
<title>Node8</title>
<g id="a_Node000008"><a xlink:title=" ">
<polygon fill="#e0e0e0" stroke="#999999" points="290.5,-19.25 251.25,-19.25 251.25,0 290.5,0 290.5,-19.25"/>
<text xml:space="preserve" text-anchor="middle" x="270.88" y="-5.75" font-family="Helvetica,sans-Serif" font-size="10.00">utility</text>
</a>
</g>
</g>
<!-- Node3&#45;&gt;Node8 -->
<g id="edge25_Node000003_Node000008" class="edge">
<title>Node3&#45;&gt;Node8</title>
<g id="a_edge25_Node000003_Node000008"><a xlink:title=" ">
<path fill="none" stroke="#63b8ff" d="M376.23,-171.02C340.02,-166.42 290.54,-155.52 254.88,-129.75 225.07,-108.21 203.52,-88.66 218.88,-55.25 224.33,-43.37 234.69,-33.47 244.73,-26.03"/>
<polygon fill="#63b8ff" stroke="#63b8ff" points="246.53,-29.04 252.83,-20.53 242.6,-23.25 246.53,-29.04"/>
</a>
</g>
</g>
<!-- Node10 -->
<g id="Node000010" class="node">
<title>Node10</title>
<g id="a_Node000010"><a xlink:href="Error_8hpp.html" target="_top" xlink:title="Error handling system with categorized error codes.">
<polygon fill="white" stroke="#666666" points="605.12,-129.75 518.62,-129.75 518.62,-110.5 605.12,-110.5 605.12,-129.75"/>
<text xml:space="preserve" text-anchor="middle" x="561.88" y="-116.25" font-family="Helvetica,sans-Serif" font-size="10.00">RType/Error.hpp</text>
</a>
</g>
</g>
<!-- Node3&#45;&gt;Node10 -->
<g id="edge9_Node000003_Node000010" class="edge">
<title>Node3&#45;&gt;Node10</title>
<g id="a_edge9_Node000003_Node000010"><a xlink:title=" ">
<path fill="none" stroke="#63b8ff" d="M447.28,-165.34C469.39,-156.81 502.79,-143.92 527.84,-134.26"/>
<polygon fill="#63b8ff" stroke="#63b8ff" points="528.87,-137.61 536.94,-130.75 526.35,-131.08 528.87,-137.61"/>
</a>
</g>
</g>
<!-- Node11 -->
<g id="Node000011" class="node">
<title>Node11</title>
<g id="a_Node000011"><a xlink:title=" ">
<polygon fill="#e0e0e0" stroke="#999999" points="274.88,-74.5 234.88,-74.5 234.88,-55.25 274.88,-55.25 274.88,-74.5"/>
<text xml:space="preserve" text-anchor="middle" x="254.88" y="-61" font-family="Helvetica,sans-Serif" font-size="10.00">string</text>
</a>
</g>
</g>
<!-- Node3&#45;&gt;Node11 -->
<g id="edge22_Node000003_Node000011" class="edge">
<title>Node3&#45;&gt;Node11</title>
<g id="a_edge22_Node000003_Node000011"><a xlink:title=" ">
<path fill="none" stroke="#63b8ff" d="M409.76,-165.31C380.73,-146.68 314.1,-103.9 278.43,-81"/>
<polygon fill="#63b8ff" stroke="#63b8ff" points="280.41,-78.11 270.11,-75.65 276.63,-84 280.41,-78.11"/>
</a>
</g>
</g>
<!-- Node15 -->
<g id="Node000015" class="node">
<title>Node15</title>
<g id="a_Node000015"><a xlink:title=" ">
<polygon fill="#e0e0e0" stroke="#999999" points="929.75,-129.75 874,-129.75 874,-110.5 929.75,-110.5 929.75,-129.75"/>
<text xml:space="preserve" text-anchor="middle" x="901.88" y="-116.25" font-family="Helvetica,sans-Serif" font-size="10.00">expected</text>
</a>
</g>
</g>
<!-- Node3&#45;&gt;Node15 -->
<g id="edge19_Node000003_Node000015" class="edge">
<title>Node3&#45;&gt;Node15</title>
<g id="a_edge19_Node000003_Node000015"><a xlink:title=" ">
<path fill="none" stroke="#63b8ff" d="M471.46,-169.07C565.82,-158.56 775.1,-135.25 862.42,-125.52"/>
<polygon fill="#63b8ff" stroke="#63b8ff" points="862.6,-129.02 872.16,-124.44 861.83,-122.06 862.6,-129.02"/>
</a>
</g>
</g>
<!-- Node16 -->
<g id="Node000016" class="node">
<title>Node16</title>
<g id="a_Node000016"><a xlink:title=" ">
<polygon fill="#e0e0e0" stroke="#999999" points="501,-129.75 416.75,-129.75 416.75,-110.5 501,-110.5 501,-129.75"/>
<text xml:space="preserve" text-anchor="middle" x="458.88" y="-116.25" font-family="Helvetica,sans-Serif" font-size="10.00">source_location</text>
</a>
</g>
</g>
<!-- Node3&#45;&gt;Node16 -->
<g id="edge21_Node000003_Node000016" class="edge">
<title>Node3&#45;&gt;Node16</title>
<g id="a_edge21_Node000003_Node000016"><a xlink:title=" ">
<path fill="none" stroke="#63b8ff" d="M429.65,-165.58C434.29,-158.53 440.95,-148.4 446.74,-139.58"/>
<polygon fill="#63b8ff" stroke="#63b8ff" points="449.57,-141.65 452.14,-131.37 443.72,-137.81 449.57,-141.65"/>
</a>
</g>
</g>
<!-- Node17 -->
<g id="Node000017" class="node">
<title>Node17</title>
<g id="a_Node000017"><a xlink:title=" ">
<polygon fill="#e0e0e0" stroke="#999999" points="61.75,-129.75 0,-129.75 0,-110.5 61.75,-110.5 61.75,-129.75"/>
<text xml:space="preserve" text-anchor="middle" x="30.88" y="-116.25" font-family="Helvetica,sans-Serif" font-size="10.00">type_traits</text>
</a>
</g>
</g>
<!-- Node3&#45;&gt;Node17 -->
<g id="edge24_Node000003_Node000017" class="edge">
<title>Node3&#45;&gt;Node17</title>
<g id="a_edge24_Node000003_Node000017"><a xlink:title=" ">
<path fill="none" stroke="#63b8ff" d="M376.14,-169.77C310.15,-163.09 187.08,-149.53 73.24,-130.21"/>
<polygon fill="#63b8ff" stroke="#63b8ff" points="73.84,-126.76 63.4,-128.51 72.66,-133.66 73.84,-126.76"/>
</a>
</g>
</g>
<!-- Node18 -->
<g id="Node000018" class="node">
<title>Node18</title>
<g id="a_Node000018"><a xlink:href="Logger_8tpp.html" target="_top" xlink:title=" ">
<polygon fill="white" stroke="#666666" points="140.38,-129.75 79.38,-129.75 79.38,-110.5 140.38,-110.5 140.38,-129.75"/>
<text xml:space="preserve" text-anchor="middle" x="109.88" y="-116.25" font-family="Helvetica,sans-Serif" font-size="10.00">Logger.tpp</text>
</a>
</g>
</g>
<!-- Node3&#45;&gt;Node18 -->
<g id="edge26_Node000003_Node000018" class="edge">
<title>Node3&#45;&gt;Node18</title>
<g id="a_edge26_Node000003_Node000018"><a xlink:title=" ">
<path fill="none" stroke="#63b8ff" d="M376.19,-166.83C322.37,-158.24 232.23,-143.58 154.88,-129.75 153.88,-129.57 152.88,-129.39 151.86,-129.21"/>
<polygon fill="#63b8ff" stroke="#63b8ff" points="152.8,-125.82 142.33,-127.44 151.52,-132.7 152.8,-125.82"/>
</a>
</g>
</g>
<!-- Node5 -->
<g id="Node000005" class="node">
<title>Node5</title>
<g id="a_Node000005"><a xlink:title=" ">
<polygon fill="#e0e0e0" stroke="#999999" points="570.5,-19.25 525.25,-19.25 525.25,0 570.5,0 570.5,-19.25"/>
<text xml:space="preserve" text-anchor="middle" x="547.88" y="-5.75" font-family="Helvetica,sans-Serif" font-size="10.00">cstdint</text>
</a>
</g>
</g>
<!-- Node4&#45;&gt;Node5 -->
<g id="edge4_Node000004_Node000005" class="edge">
<title>Node4&#45;&gt;Node5</title>
<g id="a_edge4_Node000004_Node000005"><a xlink:title=" ">
<path fill="none" stroke="#63b8ff" d="M443.25,-54.84C463.16,-46.43 493.11,-33.77 515.88,-24.15"/>
<polygon fill="#63b8ff" stroke="#63b8ff" points="517.15,-27.41 525,-20.29 514.43,-20.96 517.15,-27.41"/>
</a>
</g>
</g>
<!-- Node4&#45;&gt;Node6 -->
<g id="edge5_Node000004_Node000006" class="edge">
<title>Node4&#45;&gt;Node6</title>
<g id="a_edge5_Node000004_Node000006"><a xlink:title=" ">
<path fill="none" stroke="#63b8ff" d="M474.85,-55.38C543.9,-44.3 662.64,-25.26 720.38,-16"/>
<polygon fill="#63b8ff" stroke="#63b8ff" points="720.93,-19.45 730.25,-14.42 719.82,-12.54 720.93,-19.45"/>
</a>
</g>
</g>
<!-- Node4&#45;&gt;Node7 -->
<g id="edge6_Node000004_Node000007" class="edge">
<title>Node4&#45;&gt;Node7</title>
<g id="a_edge6_Node000004_Node000007"><a xlink:title=" ">
<path fill="none" stroke="#63b8ff" d="M408.13,-54.84C396.15,-46.96 378.5,-35.36 364.29,-26.02"/>
<polygon fill="#63b8ff" stroke="#63b8ff" points="366.23,-23.1 355.95,-20.53 362.38,-28.95 366.23,-23.1"/>
</a>
</g>
</g>
<!-- Node4&#45;&gt;Node8 -->
<g id="edge7_Node000004_Node000008" class="edge">
<title>Node4&#45;&gt;Node8</title>
<g id="a_edge7_Node000004_Node000008"><a xlink:title=" ">
<path fill="none" stroke="#63b8ff" d="M396.26,-54.84C370.08,-45.61 329.42,-31.27 301.54,-21.44"/>
<polygon fill="#63b8ff" stroke="#63b8ff" points="302.84,-18.19 292.24,-18.16 300.51,-24.79 302.84,-18.19"/>
</a>
</g>
</g>
<!-- Node9 -->
<g id="Node000009" class="node">
<title>Node9</title>
<g id="a_Node000009"><a xlink:title=" ">
<polygon fill="#e0e0e0" stroke="#999999" points="459.75,-19.25 392,-19.25 392,0 459.75,0 459.75,-19.25"/>
<text xml:space="preserve" text-anchor="middle" x="425.88" y="-5.75" font-family="Helvetica,sans-Serif" font-size="10.00">LogLevel.inl</text>
</a>
</g>
</g>
<!-- Node4&#45;&gt;Node9 -->
<g id="edge8_Node000004_Node000009" class="edge">
<title>Node4&#45;&gt;Node9</title>
<g id="a_edge8_Node000004_Node000009"><a xlink:title=" ">
<path fill="none" stroke="#63b8ff" d="M422.54,-55.08C423.03,-48.49 423.73,-39.21 424.36,-30.82"/>
<polygon fill="#63b8ff" stroke="#63b8ff" points="427.83,-31.35 425.09,-21.12 420.85,-30.83 427.83,-31.35"/>
</a>
</g>
</g>
<!-- Node10&#45;&gt;Node4 -->
<g id="edge10_Node000010_Node000004" class="edge">
<title>Node10&#45;&gt;Node4</title>
<g id="a_edge10_Node000010_Node000004"><a xlink:title=" ">
<path fill="none" stroke="#63b8ff" d="M538.13,-110.09C515.7,-101.56 481.81,-88.67 456.4,-79.01"/>
<polygon fill="#63b8ff" stroke="#63b8ff" points="457.75,-75.77 447.16,-75.49 455.26,-82.32 457.75,-75.77"/>
</a>
</g>
</g>
<!-- Node10&#45;&gt;Node5 -->
<g id="edge11_Node000010_Node000005" class="edge">
<title>Node10&#45;&gt;Node5</title>
<g id="a_edge11_Node000010_Node000005"><a xlink:title=" ">
<path fill="none" stroke="#63b8ff" d="M566.27,-110.35C571.89,-97.95 580.29,-74.65 574.88,-55.25 572.27,-45.9 567.1,-36.55 561.99,-28.84"/>
<polygon fill="#63b8ff" stroke="#63b8ff" points="564.84,-26.81 556.16,-20.73 559.15,-30.9 564.84,-26.81"/>
</a>
</g>
</g>
<!-- Node10&#45;&gt;Node6 -->
<g id="edge12_Node000010_Node000006" class="edge">
<title>Node10&#45;&gt;Node6</title>
<g id="a_edge12_Node000010_Node000006"><a xlink:title=" ">
<path fill="none" stroke="#63b8ff" d="M595.65,-110.02C620.31,-102.55 653.98,-90.58 680.88,-74.5 702.66,-61.48 724.1,-41.65 738.04,-27.54"/>
<polygon fill="#63b8ff" stroke="#63b8ff" points="740.22,-30.33 744.65,-20.7 735.18,-25.46 740.22,-30.33"/>
</a>
</g>
</g>
<!-- Node10&#45;&gt;Node7 -->
<g id="edge14_Node000010_Node000007" class="edge">
<title>Node10&#45;&gt;Node7</title>
<g id="a_edge14_Node000010_Node000007"><a xlink:title=" ">
<path fill="none" stroke="#63b8ff" d="M518.41,-111.93C462.58,-102.32 371.44,-85.27 359.88,-74.5 347.82,-63.28 343.3,-44.8 341.66,-30.59"/>
<polygon fill="#63b8ff" stroke="#63b8ff" points="345.18,-30.72 340.95,-21.01 338.2,-31.24 345.18,-30.72"/>
</a>
</g>
</g>
<!-- Node10&#45;&gt;Node8 -->
<g id="edge16_Node000010_Node000008" class="edge">
<title>Node10&#45;&gt;Node8</title>
<g id="a_edge16_Node000010_Node000008"><a xlink:title=" ">
<path fill="none" stroke="#63b8ff" d="M518.28,-111.44C459.21,-100.83 359.32,-82.16 343.88,-74.5 320.89,-63.1 299.4,-42.64 285.77,-27.95"/>
<polygon fill="#63b8ff" stroke="#63b8ff" points="288.65,-25.91 279.37,-20.8 283.44,-30.58 288.65,-25.91"/>
</a>
</g>
</g>
<!-- Node10&#45;&gt;Node11 -->
<g id="edge13_Node000010_Node000011" class="edge">
<title>Node10&#45;&gt;Node11</title>
<g id="a_edge13_Node000010_Node000011"><a xlink:title=" ">
<path fill="none" stroke="#63b8ff" d="M518.18,-111.87C515.37,-111.4 512.58,-110.95 509.88,-110.5 411.68,-94.36 386.31,-94.75 288.88,-74.5 288.05,-74.33 287.21,-74.15 286.37,-73.97"/>
<polygon fill="#63b8ff" stroke="#63b8ff" points="287.31,-70.59 276.78,-71.71 285.71,-77.41 287.31,-70.59"/>
</a>
</g>
</g>
<!-- Node12 -->
<g id="Node000012" class="node">
<title>Node12</title>
<g id="a_Node000012"><a xlink:title=" ">
<polygon fill="#e0e0e0" stroke="#999999" points="565.38,-74.5 492.38,-74.5 492.38,-55.25 565.38,-55.25 565.38,-74.5"/>
<text xml:space="preserve" text-anchor="middle" x="528.88" y="-61" font-family="Helvetica,sans-Serif" font-size="10.00">system_error</text>
</a>
</g>
</g>
<!-- Node10&#45;&gt;Node12 -->
<g id="edge15_Node000010_Node000012" class="edge">
<title>Node10&#45;&gt;Node12</title>
<g id="a_edge15_Node000010_Node000012"><a xlink:title=" ">
<path fill="none" stroke="#63b8ff" d="M556.43,-110.33C552.1,-103.36 545.91,-93.37 540.49,-84.62"/>
<polygon fill="#63b8ff" stroke="#63b8ff" points="543.48,-82.8 535.24,-76.15 537.53,-86.49 543.48,-82.8"/>
</a>
</g>
</g>
<!-- Node13 -->
<g id="Node000013" class="node">
<title>Node13</title>
<g id="a_Node000013"><a xlink:title=" ">
<polygon fill="#e0e0e0" stroke="#999999" points="671.38,-74.5 622.38,-74.5 622.38,-55.25 671.38,-55.25 671.38,-74.5"/>
<text xml:space="preserve" text-anchor="middle" x="646.88" y="-61" font-family="Helvetica,sans-Serif" font-size="10.00">Error.inl</text>
</a>
</g>
</g>
<!-- Node10&#45;&gt;Node13 -->
<g id="edge17_Node000010_Node000013" class="edge">
<title>Node10&#45;&gt;Node13</title>
<g id="a_edge17_Node000010_Node000013"><a xlink:title=" ">
<path fill="none" stroke="#63b8ff" d="M576.29,-110.09C588.99,-102.14 607.75,-90.39 622.73,-81"/>
<polygon fill="#63b8ff" stroke="#63b8ff" points="624.49,-84.03 631.1,-75.76 620.77,-78.1 624.49,-84.03"/>
</a>
</g>
</g>
<!-- Node14 -->
<g id="Node000014" class="node">
<title>Node14</title>
<g id="a_Node000014"><a xlink:href="Error_8tpp.html" target="_top" xlink:title=" ">
<polygon fill="white" stroke="#666666" points="780.25,-74.5 727.5,-74.5 727.5,-55.25 780.25,-55.25 780.25,-74.5"/>
<text xml:space="preserve" text-anchor="middle" x="753.88" y="-61" font-family="Helvetica,sans-Serif" font-size="10.00">Error.tpp</text>
</a>
</g>
</g>
<!-- Node10&#45;&gt;Node14 -->
<g id="edge18_Node000010_Node000014" class="edge">
<title>Node10&#45;&gt;Node14</title>
<g id="a_edge18_Node000010_Node000014"><a xlink:title=" ">
<path fill="none" stroke="#63b8ff" d="M594.45,-110.09C628.14,-100.75 680.7,-86.17 716.17,-76.33"/>
<polygon fill="#63b8ff" stroke="#63b8ff" points="716.88,-79.77 725.58,-73.72 715.01,-73.02 716.88,-79.77"/>
</a>
</g>
</g>
<!-- Node20&#45;&gt;Node10 -->
<g id="edge30_Node000020_Node000010" class="edge">
<title>Node20&#45;&gt;Node10</title>
<g id="a_edge30_Node000020_Node000010"><a xlink:title=" ">
<path fill="none" stroke="#63b8ff" d="M1084.17,-167.71C962.37,-156.85 723.82,-135.57 616.49,-126"/>
<polygon fill="#63b8ff" stroke="#63b8ff" points="617.07,-122.53 606.8,-125.13 616.45,-129.51 617.07,-122.53"/>
</a>
</g>
</g>
<!-- Node20&#45;&gt;Node15 -->
<g id="edge33_Node000020_Node000015" class="edge">
<title>Node20&#45;&gt;Node15</title>
<g id="a_edge33_Node000020_Node000015"><a xlink:title=" ">
<path fill="none" stroke="#63b8ff" d="M1112.01,-165.28C1069.86,-157 1005.94,-144.23 941.35,-130.24"/>
<polygon fill="#63b8ff" stroke="#63b8ff" points="942.13,-126.83 931.62,-128.12 940.64,-133.67 942.13,-126.83"/>
</a>
</g>
</g>
<!-- Node21 -->
<g id="Node000021" class="node">
<title>Node21</title>
<g id="a_Node000021"><a xlink:title=" ">
<polygon fill="#e0e0e0" stroke="#999999" points="1476.75,-129.75 1421,-129.75 1421,-110.5 1476.75,-110.5 1476.75,-129.75"/>
<text xml:space="preserve" text-anchor="middle" x="1448.88" y="-116.25" font-family="Helvetica,sans-Serif" font-size="10.00">concepts</text>
</a>
</g>
</g>
<!-- Node20&#45;&gt;Node21 -->
<g id="edge31_Node000020_Node000021" class="edge">
<title>Node20&#45;&gt;Node21</title>
<g id="a_edge31_Node000020_Node000021"><a xlink:title=" ">
<path fill="none" stroke="#63b8ff" d="M1215.56,-165.28C1264.44,-157.24 1337.16,-144.79 1409.49,-130.15"/>
<polygon fill="#63b8ff" stroke="#63b8ff" points="1410.05,-133.61 1419.14,-128.18 1408.65,-126.75 1410.05,-133.61"/>
</a>
</g>
</g>
<!-- Node22 -->
<g id="Node000022" class="node">
<title>Node22</title>
<g id="a_Node000022"><a xlink:title=" ">
<polygon fill="#e0e0e0" stroke="#999999" points="1588.88,-129.75 1494.88,-129.75 1494.88,-110.5 1588.88,-110.5 1588.88,-129.75"/>
<text xml:space="preserve" text-anchor="middle" x="1541.88" y="-116.25" font-family="Helvetica,sans-Serif" font-size="10.00">condition_variable</text>
</a>
</g>
</g>
<!-- Node20&#45;&gt;Node22 -->
<g id="edge32_Node000020_Node000022" class="edge">
<title>Node20&#45;&gt;Node22</title>
<g id="a_edge32_Node000020_Node000022"><a xlink:title=" ">
<path fill="none" stroke="#63b8ff" d="M1228.14,-165.27C1291.84,-156.82 1389.23,-143.7 1483.36,-130.09"/>
<polygon fill="#63b8ff" stroke="#63b8ff" points="1483.64,-133.59 1493.03,-128.69 1482.63,-126.66 1483.64,-133.59"/>
</a>
</g>
</g>
<!-- Node23 -->
<g id="Node000023" class="node">
<title>Node23</title>
<g id="a_Node000023"><a xlink:title=" ">
<polygon fill="#e0e0e0" stroke="#999999" points="1664.88,-129.75 1606.88,-129.75 1606.88,-110.5 1664.88,-110.5 1664.88,-129.75"/>
<text xml:space="preserve" text-anchor="middle" x="1635.88" y="-116.25" font-family="Helvetica,sans-Serif" font-size="10.00">functional</text>
</a>
</g>
</g>
<!-- Node20&#45;&gt;Node23 -->
<g id="edge34_Node000020_Node000023" class="edge">
<title>Node20&#45;&gt;Node23</title>
<g id="a_edge34_Node000020_Node000023"><a xlink:title=" ">
<path fill="none" stroke="#63b8ff" d="M1233.42,-169.58C1318.65,-163.47 1462.54,-151.26 1595.32,-129.98"/>
<polygon fill="#63b8ff" stroke="#63b8ff" points="1595.68,-133.47 1604.99,-128.41 1594.56,-126.56 1595.68,-133.47"/>
</a>
</g>
</g>
<!-- Node24 -->
<g id="Node000024" class="node">
<title>Node24</title>
<g id="a_Node000024"><a xlink:title=" ">
<polygon fill="#e0e0e0" stroke="#999999" points="999.5,-129.75 948.25,-129.75 948.25,-110.5 999.5,-110.5 999.5,-129.75"/>
<text xml:space="preserve" text-anchor="middle" x="973.88" y="-116.25" font-family="Helvetica,sans-Serif" font-size="10.00">memory</text>
</a>
</g>
</g>
<!-- Node20&#45;&gt;Node24 -->
<g id="edge35_Node000020_Node000024" class="edge">
<title>Node20&#45;&gt;Node24</title>
<g id="a_edge35_Node000020_Node000024"><a xlink:title=" ">
<path fill="none" stroke="#63b8ff" d="M1127.49,-165.34C1095.17,-156.04 1044.82,-141.55 1010.65,-131.71"/>
<polygon fill="#63b8ff" stroke="#63b8ff" points="1011.76,-128.39 1001.19,-128.99 1009.83,-135.12 1011.76,-128.39"/>
</a>
</g>
</g>
<!-- Node25 -->
<g id="Node000025" class="node">
<title>Node25</title>
<g id="a_Node000025"><a xlink:title=" ">
<polygon fill="#e0e0e0" stroke="#999999" points="1058.25,-129.75 1017.5,-129.75 1017.5,-110.5 1058.25,-110.5 1058.25,-129.75"/>
<text xml:space="preserve" text-anchor="middle" x="1037.88" y="-116.25" font-family="Helvetica,sans-Serif" font-size="10.00">future</text>
</a>
</g>
</g>
<!-- Node20&#45;&gt;Node25 -->
<g id="edge36_Node000020_Node000025" class="edge">
<title>Node20&#45;&gt;Node25</title>
<g id="a_edge36_Node000020_Node000025"><a xlink:title=" ">
<path fill="none" stroke="#63b8ff" d="M1138.35,-165.34C1119.31,-156.97 1090.72,-144.38 1068.9,-134.78"/>
<polygon fill="#63b8ff" stroke="#63b8ff" points="1070.45,-131.64 1059.89,-130.81 1067.63,-138.04 1070.45,-131.64"/>
</a>
</g>
</g>
<!-- Node26 -->
<g id="Node000026" class="node">
<title>Node26</title>
<g id="a_Node000026"><a xlink:title=" ">
<polygon fill="#e0e0e0" stroke="#999999" points="1119.38,-129.75 1076.38,-129.75 1076.38,-110.5 1119.38,-110.5 1119.38,-129.75"/>
<text xml:space="preserve" text-anchor="middle" x="1097.88" y="-116.25" font-family="Helvetica,sans-Serif" font-size="10.00">mutex</text>
</a>
</g>
</g>
<!-- Node20&#45;&gt;Node26 -->
<g id="edge37_Node000020_Node000026" class="edge">
<title>Node20&#45;&gt;Node26</title>
<g id="a_edge37_Node000020_Node000026"><a xlink:title=" ">
<path fill="none" stroke="#63b8ff" d="M1148.53,-165.34C1139.8,-157.72 1127.09,-146.62 1116.58,-137.45"/>
<polygon fill="#63b8ff" stroke="#63b8ff" points="1119.05,-134.96 1109.21,-131.02 1114.44,-140.23 1119.05,-134.96"/>
</a>
</g>
</g>
<!-- Node27 -->
<g id="Node000027" class="node">
<title>Node27</title>
<g id="a_Node000027"><a xlink:title=" ">
<polygon fill="#e0e0e0" stroke="#999999" points="1180,-129.75 1137.75,-129.75 1137.75,-110.5 1180,-110.5 1180,-129.75"/>
<text xml:space="preserve" text-anchor="middle" x="1158.88" y="-116.25" font-family="Helvetica,sans-Serif" font-size="10.00">queue</text>
</a>
</g>
</g>
<!-- Node20&#45;&gt;Node27 -->
<g id="edge38_Node000020_Node000027" class="edge">
<title>Node20&#45;&gt;Node27</title>
<g id="a_edge38_Node000020_Node000027"><a xlink:title=" ">
<path fill="none" stroke="#63b8ff" d="M1158.88,-165.58C1158.88,-159.07 1158.88,-149.92 1158.88,-141.62"/>
<polygon fill="#63b8ff" stroke="#63b8ff" points="1162.38,-141.62 1158.88,-131.62 1155.38,-141.62 1162.38,-141.62"/>
</a>
</g>
</g>
<!-- Node28 -->
<g id="Node000028" class="node">
<title>Node28</title>
<g id="a_Node000028"><a xlink:title=" ">
<polygon fill="#e0e0e0" stroke="#999999" points="1241.38,-129.75 1198.38,-129.75 1198.38,-110.5 1241.38,-110.5 1241.38,-129.75"/>
<text xml:space="preserve" text-anchor="middle" x="1219.88" y="-116.25" font-family="Helvetica,sans-Serif" font-size="10.00">thread</text>
</a>
</g>
</g>
<!-- Node20&#45;&gt;Node28 -->
<g id="edge39_Node000020_Node000028" class="edge">
<title>Node20&#45;&gt;Node28</title>
<g id="a_edge39_Node000020_Node000028"><a xlink:title=" ">
<path fill="none" stroke="#63b8ff" d="M1169.22,-165.34C1177.95,-157.72 1190.66,-146.62 1201.17,-137.45"/>
<polygon fill="#63b8ff" stroke="#63b8ff" points="1203.31,-140.23 1208.54,-131.02 1198.7,-134.96 1203.31,-140.23"/>
</a>
</g>
</g>
<!-- Node29 -->
<g id="Node000029" class="node">
<title>Node29</title>
<g id="a_Node000029"><a xlink:title=" ">
<polygon fill="#e0e0e0" stroke="#999999" points="1302.38,-129.75 1259.38,-129.75 1259.38,-110.5 1302.38,-110.5 1302.38,-129.75"/>
<text xml:space="preserve" text-anchor="middle" x="1280.88" y="-116.25" font-family="Helvetica,sans-Serif" font-size="10.00">vector</text>
</a>
</g>
</g>
<!-- Node20&#45;&gt;Node29 -->
<g id="edge40_Node000020_Node000029" class="edge">
<title>Node20&#45;&gt;Node29</title>
<g id="a_edge40_Node000020_Node000029"><a xlink:title=" ">
<path fill="none" stroke="#63b8ff" d="M1179.57,-165.34C1198.76,-156.97 1227.59,-144.38 1249.59,-134.78"/>
<polygon fill="#63b8ff" stroke="#63b8ff" points="1250.93,-138.02 1258.69,-130.81 1248.13,-131.6 1250.93,-138.02"/>
</a>
</g>
</g>
<!-- Node30 -->
<g id="Node000030" class="node">
<title>Node30</title>
<g id="a_Node000030"><a xlink:href="ThreadPool_8tpp.html" target="_top" xlink:title=" ">
<polygon fill="white" stroke="#666666" points="1402.88,-129.75 1320.88,-129.75 1320.88,-110.5 1402.88,-110.5 1402.88,-129.75"/>
<text xml:space="preserve" text-anchor="middle" x="1361.88" y="-116.25" font-family="Helvetica,sans-Serif" font-size="10.00">ThreadPool.tpp</text>
</a>
</g>
</g>
<!-- Node20&#45;&gt;Node30 -->
<g id="edge41_Node000020_Node000030" class="edge">
<title>Node20&#45;&gt;Node30</title>
<g id="a_edge41_Node000020_Node000030"><a xlink:title=" ">
<path fill="none" stroke="#63b8ff" d="M1193.31,-165.34C1227.14,-156.47 1278.96,-142.87 1316.21,-133.1"/>
<polygon fill="#63b8ff" stroke="#63b8ff" points="1317.02,-136.51 1325.81,-130.59 1315.25,-129.74 1317.02,-136.51"/>
</a>
</g>
</g>
</g>
</svg>

<g id="navigator" transform="translate(0 0)" fill="#404254">
  <rect fill="#f2f5e9" fill-opacity="0.5" stroke="#606060" stroke-width=".5" x="0" y="0" width="60" height="60"/>
  <use id="zoomplus" xlink:href="#zoomPlus" x="17" y="9" onmousedown="handleZoom(evt,'in')"/>
  <use id="zoomminus" xlink:href="#zoomMin" x="42" y="9" onmousedown="handleZoom(evt,'out')"/>
  <use id="reset" xlink:href="#resetDef" x="30" y="36" onmousedown="handleReset()"/>
   <use id="arrowup" xlink:href="#arrowUp" x="0" y="0" onmousedown="handlePan(0,-1)"/>
  <use id="arrowright" xlink:href="#arrowRight" x="0" y="0" onmousedown="handlePan(1,0)"/>
  <use id="arrowdown" xlink:href="#arrowDown" x="0" y="0" onmousedown="handlePan(0,1)"/>
  <use id="arrowleft" xlink:href="#arrowLeft" x="0" y="0" onmousedown="handlePan(-1,0)"/>
</g>
<svg viewBox="0 0 15 15" width="100%" height="30px" preserveAspectRatio="xMaxYMin meet">
 <g id="arrow_out" transform="scale(0.3 0.3)">
  <a xlink:href="ThreadPool_8cpp__incl_org.svg" target="_base">
   <rect id="button" ry="5" rx="5" y="6" x="6" height="38" width="38"
        fill="#f2f5e9" fill-opacity="0.5" stroke="#606060" stroke-width="1.0"/>
   <path id="arrow"
     d="M 11.500037,31.436501 C 11.940474,20.09759 22.043105,11.32322 32.158766,21.979434 L 37.068811,17.246167 C 37.068811,17.246167 37.088388,32 37.088388,32 L 22.160133,31.978069 C 22.160133,31.978069 26.997745,27.140456 26.997745,27.140456 C 18.528582,18.264221 13.291696,25.230495 11.500037,31.436501 z"
     style="fill:#404040;"/>
  </a>
 </g>
</svg>

<style type='text/css'>
<![CDATA[
[data-mouse-over-selected='false'] { opacity: 0.7; }
[data-mouse-over-selected='true']  { opacity: 1.0; }
]]>
</style>
<script type="application/ecmascript"><![CDATA[
document.addEventListener('DOMContentLoaded', (event) => {
  highlightEdges();
  highlightAdjacentNodes();
});
]]></script>
</svg>
