<?xml version="1.0" encoding="UTF-8" standalone="no"?>
<!DOCTYPE svg PUBLIC "-//W3C//DTD SVG 1.1//EN"
 "http://www.w3.org/Graphics/SVG/1.1/DTD/svg11.dtd">
<!-- Generated by graphviz version 14.0.5 (20251129.0259)
 -->
<!-- Title: client/src/Translation/TranslationManager.cpp Pages: 1 -->
<!--zoomable 381 -->

<svg id="main" version="1.1" xmlns="http://www.w3.org/2000/svg" xmlns:xlink="http://www.w3.org/1999/xlink" xml:space="preserve" onload="init(evt)">

<style type="text/css"><![CDATA[
.node, .edge {opacity: 0.7;}
.node.selected, .edge.selected {opacity: 1;}
.edge:hover path { stroke: red; }
.edge:hover polygon { stroke: red; fill: red; }
]]></style>

<defs>
  <circle id="rim" cx="0" cy="0" r="7"/>
  <circle id="rim2" cx="0" cy="0" r="3.5"/>
  <g id="zoomPlus">
    <use xlink:href="#rim" fill="#404040"><set attributeName="fill" to="#808080" begin="zoomplus.mouseover" end="zoomplus.mouseout"/></use>
    <path d="M-4,0h8M0,-4v8" fill="none" stroke="white" stroke-width="1.5" pointer-events="none"/>
  </g>
  <g id="zoomMin">
    <use xlink:href="#rim" fill="#404040"><set attributeName="fill" to="#808080" begin="zoomminus.mouseover" end="zoomminus.mouseout"/></use>
    <path d="M-4,0h8" fill="none" stroke="white" stroke-width="1.5" pointer-events="none"/>
  </g>
  <g id="arrowUp" transform="translate(30 24)">
    <use xlink:href="#rim"/>
    <path pointer-events="none" fill="none" stroke="white" stroke-width="1.5" d="M0,-3.0v7 M-2.5,-0.5L0,-3.0L2.5,-0.5"/>
  </g>
  <g id="arrowRight" transform="rotate(90) translate(36 -43)">
    <use xlink:href="#rim"/>
    <path pointer-events="none" fill="none" stroke="white" stroke-width="1.5" d="M0,-3.0v7 M-2.5,-0.5L0,-3.0L2.5,-0.5"/>
  </g>
  <g id="arrowDown" transform="rotate(180) translate(-30 -48)">
    <use xlink:href="#rim"/>
    <path pointer-events="none" fill="none" stroke="white" stroke-width="1.5" d="M0,-3.0v7 M-2.5,-0.5L0,-3.0L2.5,-0.5"/>
  </g>
  <g id="arrowLeft" transform="rotate(270) translate(-36 17)">
    <use xlink:href="#rim"/>
    <path pointer-events="none" fill="none" stroke="white" stroke-width="1.5" d="M0,-3.0v7 M-2.5,-0.5L0,-3.0L2.5,-0.5"/>
  </g>
  <g id="resetDef">
    <use xlink:href="#rim2" fill="#404040"><set attributeName="fill" to="#808080" begin="reset.mouseover" end="reset.mouseout"/></use>
  </g>
</defs>
<script type="application/ecmascript">
var viewWidth = 1596;
var viewHeight = 381;
var sectionId = 'dynsection-0';
</script>
<script type="application/ecmascript" xlink:href="svg.min.js"/>
<svg id="graph" class="graph">
<g id="viewport">
<title>client/src/Translation/TranslationManager.cpp</title>
<!-- Node1 -->
<g id="Node000001" class="node">
<title>Node1</title>
<g id="a_Node000001"><a xlink:title=" ">
<polygon fill="#999999" stroke="#666666" points="1374.5,-373.25 1252,-373.25 1252,-342.75 1374.5,-342.75 1374.5,-373.25"/>
<text xml:space="preserve" text-anchor="start" x="1260" y="-359.75" font-family="Helvetica,sans-Serif" font-size="10.00">client/src/Translation</text>
<text xml:space="preserve" text-anchor="middle" x="1313.25" y="-348.5" font-family="Helvetica,sans-Serif" font-size="10.00">/TranslationManager.cpp</text>
</a>
</g>
</g>
<!-- Node2 -->
<g id="Node000002" class="node">
<title>Node2</title>
<g id="a_Node000002"><a xlink:href="TranslationManager_8hpp.html" target="_top" xlink:title=" ">
<polygon fill="white" stroke="#666666" points="1342.5,-306.75 1172,-306.75 1172,-287.5 1342.5,-287.5 1342.5,-306.75"/>
<text xml:space="preserve" text-anchor="middle" x="1257.25" y="-293.25" font-family="Helvetica,sans-Serif" font-size="10.00">Translation/TranslationManager.hpp</text>
</a>
</g>
</g>
<!-- Node1&#45;&gt;Node2 -->
<g id="edge1_Node000001_Node000002" class="edge">
<title>Node1&#45;&gt;Node2</title>
<g id="a_edge1_Node000001_Node000002"><a xlink:title=" ">
<path fill="none" stroke="#63b8ff" d="M1299.41,-342.45C1291.62,-334.26 1281.85,-323.98 1273.67,-315.39"/>
<polygon fill="#63b8ff" stroke="#63b8ff" points="1276.35,-313.13 1266.93,-308.3 1271.28,-317.96 1276.35,-313.13"/>
</a>
</g>
</g>
<!-- Node29 -->
<g id="Node000029" class="node">
<title>Node29</title>
<g id="a_Node000029"><a xlink:title=" ">
<polygon fill="#e0e0e0" stroke="#999999" points="1587.87,-196.25 1536.62,-196.25 1536.62,-177 1587.87,-177 1587.87,-196.25"/>
<text xml:space="preserve" text-anchor="middle" x="1562.25" y="-182.75" font-family="Helvetica,sans-Serif" font-size="10.00">sstream</text>
</a>
</g>
</g>
<!-- Node1&#45;&gt;Node29 -->
<g id="edge45_Node000001_Node000029" class="edge">
<title>Node1&#45;&gt;Node29</title>
<g id="a_edge45_Node000001_Node000029"><a xlink:title=" ">
<path fill="none" stroke="#63b8ff" d="M1334.91,-342.27C1381.65,-310.47 1491.59,-235.69 1539.39,-203.18"/>
<polygon fill="#63b8ff" stroke="#63b8ff" points="1541.31,-206.1 1547.61,-197.59 1537.37,-200.32 1541.31,-206.1"/>
</a>
</g>
</g>
<!-- Node3 -->
<g id="Node000003" class="node">
<title>Node3</title>
<g id="a_Node000003"><a xlink:title=" ">
<polygon fill="#e0e0e0" stroke="#999999" points="657.25,-74.5 617.25,-74.5 617.25,-55.25 657.25,-55.25 657.25,-74.5"/>
<text xml:space="preserve" text-anchor="middle" x="637.25" y="-61" font-family="Helvetica,sans-Serif" font-size="10.00">string</text>
</a>
</g>
</g>
<!-- Node2&#45;&gt;Node3 -->
<g id="edge2_Node000002_Node000003" class="edge">
<title>Node2&#45;&gt;Node3</title>
<g id="a_edge2_Node000002_Node000003"><a xlink:title=" ">
<path fill="none" stroke="#63b8ff" d="M1171.63,-291.96C1025.49,-283.23 736.1,-258.42 658.25,-196.25 625.65,-170.21 628.79,-115.3 633.33,-85.73"/>
<polygon fill="#63b8ff" stroke="#63b8ff" points="636.71,-86.71 634.99,-76.26 629.81,-85.5 636.71,-86.71"/>
</a>
</g>
</g>
<!-- Node4 -->
<g id="Node000004" class="node">
<title>Node4</title>
<g id="a_Node000004"><a xlink:title=" ">
<polygon fill="#e0e0e0" stroke="#999999" points="1451.62,-196.25 1368.87,-196.25 1368.87,-177 1451.62,-177 1451.62,-196.25"/>
<text xml:space="preserve" text-anchor="middle" x="1410.25" y="-182.75" font-family="Helvetica,sans-Serif" font-size="10.00">unordered_map</text>
</a>
</g>
</g>
<!-- Node2&#45;&gt;Node4 -->
<g id="edge3_Node000002_Node000004" class="edge">
<title>Node2&#45;&gt;Node4</title>
<g id="a_edge3_Node000002_Node000004"><a xlink:title=" ">
<path fill="none" stroke="#63b8ff" d="M1264.69,-287.43C1276.25,-274.3 1299.65,-249.15 1323.25,-232.25 1340.39,-219.97 1361.38,-209.1 1378.45,-201.17"/>
<polygon fill="#63b8ff" stroke="#63b8ff" points="1379.46,-204.55 1387.12,-197.24 1376.57,-198.18 1379.46,-204.55"/>
</a>
</g>
</g>
<!-- Node5 -->
<g id="Node000005" class="node">
<title>Node5</title>
<g id="a_Node000005"><a xlink:title=" ">
<polygon fill="#e0e0e0" stroke="#999999" points="1518.75,-196.25 1469.75,-196.25 1469.75,-177 1518.75,-177 1518.75,-196.25"/>
<text xml:space="preserve" text-anchor="middle" x="1494.25" y="-182.75" font-family="Helvetica,sans-Serif" font-size="10.00">fstream</text>
</a>
</g>
</g>
<!-- Node2&#45;&gt;Node5 -->
<g id="edge4_Node000002_Node000005" class="edge">
<title>Node2&#45;&gt;Node5</title>
<g id="a_edge4_Node000002_Node000005"><a xlink:title=" ">
<path fill="none" stroke="#63b8ff" d="M1272.18,-287.17C1294.26,-274.15 1337.09,-249.63 1375.25,-232.25 1402.81,-219.69 1435.03,-207.77 1458.98,-199.42"/>
<polygon fill="#63b8ff" stroke="#63b8ff" points="1459.95,-202.79 1468.26,-196.22 1457.67,-196.17 1459.95,-202.79"/>
</a>
</g>
</g>
<!-- Node6 -->
<g id="Node000006" class="node">
<title>Node6</title>
<g id="a_Node000006"><a xlink:href="Settings_8hpp.html" target="_top" xlink:title=" ">
<polygon fill="white" stroke="#666666" points="1080.62,-251.5 985.87,-251.5 985.87,-232.25 1080.62,-232.25 1080.62,-251.5"/>
<text xml:space="preserve" text-anchor="middle" x="1033.25" y="-238" font-family="Helvetica,sans-Serif" font-size="10.00">Core/Settings.hpp</text>
</a>
</g>
</g>
<!-- Node2&#45;&gt;Node6 -->
<g id="edge5_Node000002_Node000006" class="edge">
<title>Node2&#45;&gt;Node6</title>
<g id="a_edge5_Node000002_Node000006"><a xlink:title=" ">
<path fill="none" stroke="#63b8ff" d="M1219,-287.03C1181.31,-278.07 1123.55,-264.34 1082.46,-254.57"/>
<polygon fill="#63b8ff" stroke="#63b8ff" points="1083.35,-251.19 1072.82,-252.28 1081.74,-258 1083.35,-251.19"/>
</a>
</g>
</g>
<!-- Node7 -->
<g id="Node000007" class="node">
<title>Node7</title>
<g id="a_Node000007"><a xlink:href="Logger_8hpp.html" target="_top" xlink:title="Logger declaration with support for multiple log levels.">
<polygon fill="white" stroke="#666666" points="444.62,-196.25 349.87,-196.25 349.87,-177 444.62,-177 444.62,-196.25"/>
<text xml:space="preserve" text-anchor="middle" x="397.25" y="-182.75" font-family="Helvetica,sans-Serif" font-size="10.00">RType/Logger.hpp</text>
</a>
</g>
</g>
<!-- Node2&#45;&gt;Node7 -->
<g id="edge44_Node000002_Node000007" class="edge">
<title>Node2&#45;&gt;Node7</title>
<g id="a_edge44_Node000002_Node000007"><a xlink:title=" ">
<path fill="none" stroke="#63b8ff" d="M1171.69,-296.44C1046.49,-295.52 806.5,-288.46 606.25,-251.5 543.16,-239.85 472.22,-215.72 431.34,-200.68"/>
<polygon fill="#63b8ff" stroke="#63b8ff" points="432.64,-197.43 422.05,-197.23 430.2,-204 432.64,-197.43"/>
</a>
</g>
</g>
<!-- Node6&#45;&gt;Node3 -->
<g id="edge41_Node000006_Node000003" class="edge">
<title>Node6&#45;&gt;Node3</title>
<g id="a_edge41_Node000006_Node000003"><a xlink:title=" ">
<path fill="none" stroke="#63b8ff" d="M985.54,-241.11C899.47,-240.56 722.91,-234.62 677.25,-196.25 644.57,-168.78 638.08,-115.33 637.1,-86.12"/>
<polygon fill="#63b8ff" stroke="#63b8ff" points="640.6,-86.38 636.98,-76.42 633.61,-86.47 640.6,-86.38"/>
</a>
</g>
</g>
<!-- Node6&#45;&gt;Node4 -->
<g id="edge42_Node000006_Node000004" class="edge">
<title>Node6&#45;&gt;Node4</title>
<g id="a_edge42_Node000006_Node000004"><a xlink:title=" ">
<path fill="none" stroke="#63b8ff" d="M1080.98,-234.9C1142.49,-227.07 1253.03,-212.62 1357.17,-196.68"/>
<polygon fill="#63b8ff" stroke="#63b8ff" points="1357.68,-200.15 1367.03,-195.17 1356.61,-193.23 1357.68,-200.15"/>
</a>
</g>
</g>
<!-- Node6&#45;&gt;Node5 -->
<g id="edge37_Node000006_Node000005" class="edge">
<title>Node6&#45;&gt;Node5</title>
<g id="a_edge37_Node000006_Node000005"><a xlink:title=" ">
<path fill="none" stroke="#63b8ff" d="M1080.95,-238.14C1158.19,-233.23 1315.51,-221.19 1458.33,-196.32"/>
<polygon fill="#63b8ff" stroke="#63b8ff" points="1458.73,-199.81 1467.97,-194.62 1457.51,-192.91 1458.73,-199.81"/>
</a>
</g>
</g>
<!-- Node6&#45;&gt;Node7 -->
<g id="edge6_Node000006_Node000007" class="edge">
<title>Node6&#45;&gt;Node7</title>
<g id="a_edge6_Node000006_Node000007"><a xlink:title=" ">
<path fill="none" stroke="#63b8ff" d="M985.45,-236.87C870.87,-227.28 580.84,-203 455.94,-192.54"/>
<polygon fill="#63b8ff" stroke="#63b8ff" points="456.51,-189.07 446.25,-191.73 455.92,-196.05 456.51,-189.07"/>
</a>
</g>
</g>
<!-- Node22 -->
<g id="Node000022" class="node">
<title>Node22</title>
<g id="a_Node000022"><a xlink:href="SimpleWeapon_8hpp.html" target="_top" xlink:title=" ">
<polygon fill="white" stroke="#666666" points="1028.75,-141 901.75,-141 901.75,-110.5 1028.75,-110.5 1028.75,-141"/>
<text xml:space="preserve" text-anchor="start" x="909.75" y="-127.5" font-family="Helvetica,sans-Serif" font-size="10.00">RType/ECS/Components</text>
<text xml:space="preserve" text-anchor="middle" x="965.25" y="-116.25" font-family="Helvetica,sans-Serif" font-size="10.00">/SimpleWeapon.hpp</text>
</a>
</g>
</g>
<!-- Node6&#45;&gt;Node22 -->
<g id="edge31_Node000006_Node000022" class="edge">
<title>Node6&#45;&gt;Node22</title>
<g id="a_edge31_Node000006_Node000022"><a xlink:title=" ">
<path fill="none" stroke="#63b8ff" d="M1036.77,-232.01C1041.31,-219.1 1047.57,-194.72 1038.25,-177 1031.82,-164.76 1020.91,-154.93 1009.46,-147.31"/>
<polygon fill="#63b8ff" stroke="#63b8ff" points="1011.45,-144.43 1001.09,-142.22 1007.82,-150.41 1011.45,-144.43"/>
</a>
</g>
</g>
<!-- Node23 -->
<g id="Node000023" class="node">
<title>Node23</title>
<g id="a_Node000023"><a xlink:href="KeyAction_8hpp.html" target="_top" xlink:title=" ">
<polygon fill="white" stroke="#666666" points="1189.75,-196.25 1086.75,-196.25 1086.75,-177 1189.75,-177 1189.75,-196.25"/>
<text xml:space="preserve" text-anchor="middle" x="1138.25" y="-182.75" font-family="Helvetica,sans-Serif" font-size="10.00">Utils/KeyAction.hpp</text>
</a>
</g>
</g>
<!-- Node6&#45;&gt;Node23 -->
<g id="edge33_Node000006_Node000023" class="edge">
<title>Node6&#45;&gt;Node23</title>
<g id="a_edge33_Node000006_Node000023"><a xlink:title=" ">
<path fill="none" stroke="#63b8ff" d="M1051.06,-231.84C1067.28,-223.62 1091.48,-211.34 1110.28,-201.81"/>
<polygon fill="#63b8ff" stroke="#63b8ff" points="1111.66,-205.03 1119,-197.39 1108.5,-198.79 1111.66,-205.03"/>
</a>
</g>
</g>
<!-- Node24 -->
<g id="Node000024" class="node">
<title>Node24</title>
<g id="a_Node000024"><a xlink:title=" ">
<polygon fill="#e0e0e0" stroke="#999999" points="1351,-196.25 1207.5,-196.25 1207.5,-177 1351,-177 1351,-196.25"/>
<text xml:space="preserve" text-anchor="middle" x="1279.25" y="-182.75" font-family="Helvetica,sans-Serif" font-size="10.00">SFML/Window/Keyboard.hpp</text>
</a>
</g>
</g>
<!-- Node6&#45;&gt;Node24 -->
<g id="edge34_Node000006_Node000024" class="edge">
<title>Node6&#45;&gt;Node24</title>
<g id="a_edge34_Node000006_Node000024"><a xlink:title=" ">
<path fill="none" stroke="#63b8ff" d="M1075.26,-231.78C1117.01,-222.74 1181.16,-208.86 1226.36,-199.07"/>
<polygon fill="#63b8ff" stroke="#63b8ff" points="1226.9,-202.54 1235.93,-197 1225.42,-195.7 1226.9,-202.54"/>
</a>
</g>
</g>
<!-- Node25 -->
<g id="Node000025" class="node">
<title>Node25</title>
<g id="a_Node000025"><a xlink:title=" ">
<polygon fill="#e0e0e0" stroke="#999999" points="742.12,-196.25 686.37,-196.25 686.37,-177 742.12,-177 742.12,-196.25"/>
<text xml:space="preserve" text-anchor="middle" x="714.25" y="-182.75" font-family="Helvetica,sans-Serif" font-size="10.00">algorithm</text>
</a>
</g>
</g>
<!-- Node6&#45;&gt;Node25 -->
<g id="edge35_Node000006_Node000025" class="edge">
<title>Node6&#45;&gt;Node25</title>
<g id="a_edge35_Node000006_Node000025"><a xlink:title=" ">
<path fill="none" stroke="#63b8ff" d="M985.48,-234.51C931.37,-227.05 840.31,-213.71 753.6,-196.8"/>
<polygon fill="#63b8ff" stroke="#63b8ff" points="754.47,-193.41 743.99,-194.91 753.12,-200.28 754.47,-193.41"/>
</a>
</g>
</g>
<!-- Node26 -->
<g id="Node000026" class="node">
<title>Node26</title>
<g id="a_Node000026"><a xlink:title=" ">
<polygon fill="#e0e0e0" stroke="#999999" points="820.75,-196.25 759.75,-196.25 759.75,-177 820.75,-177 820.75,-196.25"/>
<text xml:space="preserve" text-anchor="middle" x="790.25" y="-182.75" font-family="Helvetica,sans-Serif" font-size="10.00">filesystem</text>
</a>
</g>
</g>
<!-- Node6&#45;&gt;Node26 -->
<g id="edge36_Node000006_Node000026" class="edge">
<title>Node6&#45;&gt;Node26</title>
<g id="a_edge36_Node000006_Node000026"><a xlink:title=" ">
<path fill="none" stroke="#63b8ff" d="M991.75,-231.78C947.23,-222.03 876.92,-206.62 832.22,-196.82"/>
<polygon fill="#63b8ff" stroke="#63b8ff" points="833.16,-193.45 822.64,-194.72 831.66,-200.28 833.16,-193.45"/>
</a>
</g>
</g>
<!-- Node27 -->
<g id="Node000027" class="node">
<title>Node27</title>
<g id="a_Node000027"><a xlink:title=" ">
<polygon fill="#e0e0e0" stroke="#999999" points="897.25,-196.25 839.25,-196.25 839.25,-177 897.25,-177 897.25,-196.25"/>
<text xml:space="preserve" text-anchor="middle" x="868.25" y="-182.75" font-family="Helvetica,sans-Serif" font-size="10.00">functional</text>
</a>
</g>
</g>
<!-- Node6&#45;&gt;Node27 -->
<g id="edge38_Node000006_Node000027" class="edge">
<title>Node6&#45;&gt;Node27</title>
<g id="a_edge38_Node000006_Node000027"><a xlink:title=" ">
<path fill="none" stroke="#63b8ff" d="M1005.26,-231.84C978.24,-223.12 937.09,-209.84 906.94,-200.11"/>
<polygon fill="#63b8ff" stroke="#63b8ff" points="908.41,-196.91 897.82,-197.17 906.26,-203.57 908.41,-196.91"/>
</a>
</g>
</g>
<!-- Node28 -->
<g id="Node000028" class="node">
<title>Node28</title>
<g id="a_Node000028"><a xlink:title=" ">
<polygon fill="#e0e0e0" stroke="#999999" points="969,-196.25 915.5,-196.25 915.5,-177 969,-177 969,-196.25"/>
<text xml:space="preserve" text-anchor="middle" x="942.25" y="-182.75" font-family="Helvetica,sans-Serif" font-size="10.00">iostream</text>
</a>
</g>
</g>
<!-- Node6&#45;&gt;Node28 -->
<g id="edge39_Node000006_Node000028" class="edge">
<title>Node6&#45;&gt;Node28</title>
<g id="a_edge39_Node000006_Node000028"><a xlink:title=" ">
<path fill="none" stroke="#63b8ff" d="M1017.81,-231.84C1004.09,-223.81 983.75,-211.91 967.63,-202.48"/>
<polygon fill="#63b8ff" stroke="#63b8ff" points="969.47,-199.5 959.07,-197.47 965.93,-205.54 969.47,-199.5"/>
</a>
</g>
</g>
<!-- Node6&#45;&gt;Node29 -->
<g id="edge40_Node000006_Node000029" class="edge">
<title>Node6&#45;&gt;Node29</title>
<g id="a_edge40_Node000006_Node000029"><a xlink:title=" ">
<path fill="none" stroke="#63b8ff" d="M1081.01,-239.09C1167.75,-235.3 1357.03,-224.52 1525.06,-196.56"/>
<polygon fill="#63b8ff" stroke="#63b8ff" points="1525.58,-200.02 1534.86,-194.9 1524.42,-193.12 1525.58,-200.02"/>
</a>
</g>
</g>
<!-- Node30 -->
<g id="Node000030" class="node">
<title>Node30</title>
<g id="a_Node000030"><a xlink:title=" ">
<polygon fill="#e0e0e0" stroke="#999999" points="1029.75,-196.25 986.75,-196.25 986.75,-177 1029.75,-177 1029.75,-196.25"/>
<text xml:space="preserve" text-anchor="middle" x="1008.25" y="-182.75" font-family="Helvetica,sans-Serif" font-size="10.00">vector</text>
</a>
</g>
</g>
<!-- Node6&#45;&gt;Node30 -->
<g id="edge43_Node000006_Node000030" class="edge">
<title>Node6&#45;&gt;Node30</title>
<g id="a_edge43_Node000006_Node000030"><a xlink:title=" ">
<path fill="none" stroke="#63b8ff" d="M1029.12,-232.08C1025.92,-225.26 1021.36,-215.56 1017.32,-206.95"/>
<polygon fill="#63b8ff" stroke="#63b8ff" points="1020.53,-205.54 1013.11,-197.98 1014.19,-208.52 1020.53,-205.54"/>
</a>
</g>
</g>
<!-- Node7&#45;&gt;Node3 -->
<g id="edge26_Node000007_Node000003" class="edge">
<title>Node7&#45;&gt;Node3</title>
<g id="a_edge26_Node000007_Node000003"><a xlink:title=" ">
<path fill="none" stroke="#63b8ff" d="M444.91,-179.65C479.57,-173.74 526.64,-162.34 563.25,-141 588.37,-126.36 610.8,-100.97 624.22,-83.8"/>
<polygon fill="#63b8ff" stroke="#63b8ff" points="626.88,-86.08 630.11,-76 621.29,-81.87 626.88,-86.08"/>
</a>
</g>
</g>
<!-- Node8 -->
<g id="Node000008" class="node">
<title>Node8</title>
<g id="a_Node000008"><a xlink:href="LogLevel_8hpp.html" target="_top" xlink:title="Log severity levels for the logging system.">
<polygon fill="white" stroke="#666666" points="484.87,-74.5 379.62,-74.5 379.62,-55.25 484.87,-55.25 484.87,-74.5"/>
<text xml:space="preserve" text-anchor="middle" x="432.25" y="-61" font-family="Helvetica,sans-Serif" font-size="10.00">RType/LogLevel.hpp</text>
</a>
</g>
</g>
<!-- Node7&#45;&gt;Node8 -->
<g id="edge7_Node000007_Node000008" class="edge">
<title>Node7&#45;&gt;Node8</title>
<g id="a_edge7_Node000007_Node000008"><a xlink:title=" ">
<path fill="none" stroke="#63b8ff" d="M400.69,-176.82C404.12,-167.88 409.41,-153.6 413.25,-141 418.89,-122.5 424.19,-101.09 427.75,-85.87"/>
<polygon fill="#63b8ff" stroke="#63b8ff" points="431.14,-86.75 429.96,-76.22 424.31,-85.18 431.14,-86.75"/>
</a>
</g>
</g>
<!-- Node10 -->
<g id="Node000010" class="node">
<title>Node10</title>
<g id="a_Node000010"><a xlink:title=" ">
<polygon fill="#e0e0e0" stroke="#999999" points="533.12,-19.25 489.37,-19.25 489.37,0 533.12,0 533.12,-19.25"/>
<text xml:space="preserve" text-anchor="middle" x="511.25" y="-5.75" font-family="Helvetica,sans-Serif" font-size="10.00">format</text>
</a>
</g>
</g>
<!-- Node7&#45;&gt;Node10 -->
<g id="edge24_Node000007_Node000010" class="edge">
<title>Node7&#45;&gt;Node10</title>
<g id="a_edge24_Node000007_Node000010"><a xlink:title=" ">
<path fill="none" stroke="#63b8ff" d="M408.68,-176.66C435.71,-155.16 502.14,-100.53 513.25,-74.5 519.12,-60.74 518.25,-43.74 516.11,-30.74"/>
<polygon fill="#63b8ff" stroke="#63b8ff" points="519.6,-30.32 514.16,-21.22 512.74,-31.72 519.6,-30.32"/>
</a>
</g>
</g>
<!-- Node11 -->
<g id="Node000011" class="node">
<title>Node11</title>
<g id="a_Node000011"><a xlink:title=" ">
<polygon fill="#e0e0e0" stroke="#999999" points="382,-19.25 316.5,-19.25 316.5,0 382,0 382,-19.25"/>
<text xml:space="preserve" text-anchor="middle" x="349.25" y="-5.75" font-family="Helvetica,sans-Serif" font-size="10.00">string_view</text>
</a>
</g>
</g>
<!-- Node7&#45;&gt;Node11 -->
<g id="edge27_Node000007_Node000011" class="edge">
<title>Node7&#45;&gt;Node11</title>
<g id="a_edge27_Node000007_Node000011"><a xlink:title=" ">
<path fill="none" stroke="#63b8ff" d="M376.72,-176.6C358.48,-168.26 331.36,-155.07 309.25,-141 290.68,-129.19 290.18,-119.82 270.25,-110.5 201.08,-78.15 150.26,-133.88 102.25,-74.5 96.87,-67.85 96.76,-61.82 102.25,-55.25 127.57,-24.95 240.81,-15.19 304.82,-12.07"/>
<polygon fill="#63b8ff" stroke="#63b8ff" points="304.82,-15.57 314.65,-11.63 304.5,-8.58 304.82,-15.57"/>
</a>
</g>
</g>
<!-- Node12 -->
<g id="Node000012" class="node">
<title>Node12</title>
<g id="a_Node000012"><a xlink:title=" ">
<polygon fill="#e0e0e0" stroke="#999999" points="102.87,-19.25 63.62,-19.25 63.62,0 102.87,0 102.87,-19.25"/>
<text xml:space="preserve" text-anchor="middle" x="83.25" y="-5.75" font-family="Helvetica,sans-Serif" font-size="10.00">utility</text>
</a>
</g>
</g>
<!-- Node7&#45;&gt;Node12 -->
<g id="edge29_Node000007_Node000012" class="edge">
<title>Node7&#45;&gt;Node12</title>
<g id="a_edge29_Node000007_Node000012"><a xlink:title=" ">
<path fill="none" stroke="#63b8ff" d="M349.71,-183.62C251.29,-178.99 32.5,-165.96 10.25,-141 -21.8,-105.04 31.04,-52.66 62.49,-26.6"/>
<polygon fill="#63b8ff" stroke="#63b8ff" points="64.3,-29.63 69.9,-20.64 59.91,-24.18 64.3,-29.63"/>
</a>
</g>
</g>
<!-- Node14 -->
<g id="Node000014" class="node">
<title>Node14</title>
<g id="a_Node000014"><a xlink:href="Error_8hpp.html" target="_top" xlink:title="Error handling system with categorized error codes.">
<polygon fill="white" stroke="#666666" points="404.5,-135.38 318,-135.38 318,-116.12 404.5,-116.12 404.5,-135.38"/>
<text xml:space="preserve" text-anchor="middle" x="361.25" y="-121.88" font-family="Helvetica,sans-Serif" font-size="10.00">RType/Error.hpp</text>
</a>
</g>
</g>
<!-- Node7&#45;&gt;Node14 -->
<g id="edge13_Node000007_Node000014" class="edge">
<title>Node7&#45;&gt;Node14</title>
<g id="a_edge13_Node000007_Node000014"><a xlink:title=" ">
<path fill="none" stroke="#63b8ff" d="M391.78,-176.68C386.71,-168.38 378.99,-155.77 372.59,-145.3"/>
<polygon fill="#63b8ff" stroke="#63b8ff" points="375.76,-143.77 367.56,-137.07 369.79,-147.42 375.76,-143.77"/>
</a>
</g>
</g>
<!-- Node18 -->
<g id="Node000018" class="node">
<title>Node18</title>
<g id="a_Node000018"><a xlink:title=" ">
<polygon fill="#e0e0e0" stroke="#999999" points="554.12,-135.38 498.37,-135.38 498.37,-116.12 554.12,-116.12 554.12,-135.38"/>
<text xml:space="preserve" text-anchor="middle" x="526.25" y="-121.88" font-family="Helvetica,sans-Serif" font-size="10.00">expected</text>
</a>
</g>
</g>
<!-- Node7&#45;&gt;Node18 -->
<g id="edge23_Node000007_Node000018" class="edge">
<title>Node7&#45;&gt;Node18</title>
<g id="a_edge23_Node000007_Node000018"><a xlink:title=" ">
<path fill="none" stroke="#63b8ff" d="M417.12,-176.55C438.21,-166.93 471.77,-151.62 496.11,-140.51"/>
<polygon fill="#63b8ff" stroke="#63b8ff" points="497.54,-143.7 505.19,-136.36 494.64,-137.33 497.54,-143.7"/>
</a>
</g>
</g>
<!-- Node19 -->
<g id="Node000019" class="node">
<title>Node19</title>
<g id="a_Node000019"><a xlink:title=" ">
<polygon fill="#e0e0e0" stroke="#999999" points="103.37,-135.38 19.12,-135.38 19.12,-116.12 103.37,-116.12 103.37,-135.38"/>
<text xml:space="preserve" text-anchor="middle" x="61.25" y="-121.88" font-family="Helvetica,sans-Serif" font-size="10.00">source_location</text>
</a>
</g>
</g>
<!-- Node7&#45;&gt;Node19 -->
<g id="edge25_Node000007_Node000019" class="edge">
<title>Node7&#45;&gt;Node19</title>
<g id="a_edge25_Node000007_Node000019"><a xlink:title=" ">
<path fill="none" stroke="#63b8ff" d="M349.53,-179.89C292.67,-172.66 194.96,-158.97 112.25,-141 109.09,-140.31 105.84,-139.55 102.58,-138.74"/>
<polygon fill="#63b8ff" stroke="#63b8ff" points="103.6,-135.39 93.04,-136.24 101.83,-142.16 103.6,-135.39"/>
</a>
</g>
</g>
<!-- Node20 -->
<g id="Node000020" class="node">
<title>Node20</title>
<g id="a_Node000020"><a xlink:title=" ">
<polygon fill="#e0e0e0" stroke="#999999" points="183.12,-135.38 121.37,-135.38 121.37,-116.12 183.12,-116.12 183.12,-135.38"/>
<text xml:space="preserve" text-anchor="middle" x="152.25" y="-121.88" font-family="Helvetica,sans-Serif" font-size="10.00">type_traits</text>
</a>
</g>
</g>
<!-- Node7&#45;&gt;Node20 -->
<g id="edge28_Node000007_Node000020" class="edge">
<title>Node7&#45;&gt;Node20</title>
<g id="a_edge28_Node000007_Node000020"><a xlink:title=" ">
<path fill="none" stroke="#63b8ff" d="M349.75,-177.25C307.69,-169.38 244.85,-156.52 191.25,-141 189.65,-140.54 188.02,-140.04 186.38,-139.52"/>
<polygon fill="#63b8ff" stroke="#63b8ff" points="187.62,-136.25 177.02,-136.35 185.37,-142.88 187.62,-136.25"/>
</a>
</g>
</g>
<!-- Node21 -->
<g id="Node000021" class="node">
<title>Node21</title>
<g id="a_Node000021"><a xlink:href="Logger_8tpp.html" target="_top" xlink:title=" ">
<polygon fill="white" stroke="#666666" points="261.75,-135.38 200.75,-135.38 200.75,-116.12 261.75,-116.12 261.75,-135.38"/>
<text xml:space="preserve" text-anchor="middle" x="231.25" y="-121.88" font-family="Helvetica,sans-Serif" font-size="10.00">Logger.tpp</text>
</a>
</g>
</g>
<!-- Node7&#45;&gt;Node21 -->
<g id="edge30_Node000007_Node000021" class="edge">
<title>Node7&#45;&gt;Node21</title>
<g id="a_edge30_Node000007_Node000021"><a xlink:title=" ">
<path fill="none" stroke="#63b8ff" d="M371.68,-176.55C343.77,-166.66 298.88,-150.74 267.38,-139.57"/>
<polygon fill="#63b8ff" stroke="#63b8ff" points="268.87,-136.38 258.28,-136.34 266.53,-142.98 268.87,-136.38"/>
</a>
</g>
</g>
<!-- Node9 -->
<g id="Node000009" class="node">
<title>Node9</title>
<g id="a_Node000009"><a xlink:title=" ">
<polygon fill="#e0e0e0" stroke="#999999" points="596.87,-19.25 551.62,-19.25 551.62,0 596.87,0 596.87,-19.25"/>
<text xml:space="preserve" text-anchor="middle" x="574.25" y="-5.75" font-family="Helvetica,sans-Serif" font-size="10.00">cstdint</text>
</a>
</g>
</g>
<!-- Node8&#45;&gt;Node9 -->
<g id="edge8_Node000008_Node000009" class="edge">
<title>Node8&#45;&gt;Node9</title>
<g id="a_edge8_Node000008_Node000009"><a xlink:title=" ">
<path fill="none" stroke="#63b8ff" d="M456.34,-54.84C479.6,-46.12 515.03,-32.83 540.98,-23.1"/>
<polygon fill="#63b8ff" stroke="#63b8ff" points="541.9,-26.49 550.04,-19.7 539.44,-19.94 541.9,-26.49"/>
</a>
</g>
</g>
<!-- Node8&#45;&gt;Node10 -->
<g id="edge9_Node000008_Node000010" class="edge">
<title>Node8&#45;&gt;Node10</title>
<g id="a_edge9_Node000008_Node000010"><a xlink:title=" ">
<path fill="none" stroke="#63b8ff" d="M445.65,-54.84C457.34,-46.96 474.55,-35.36 488.41,-26.02"/>
<polygon fill="#63b8ff" stroke="#63b8ff" points="490.19,-29.04 496.53,-20.55 486.28,-23.24 490.19,-29.04"/>
</a>
</g>
</g>
<!-- Node8&#45;&gt;Node11 -->
<g id="edge10_Node000008_Node000011" class="edge">
<title>Node8&#45;&gt;Node11</title>
<g id="a_edge10_Node000008_Node000011"><a xlink:title=" ">
<path fill="none" stroke="#63b8ff" d="M418.17,-54.84C405.77,-46.89 387.46,-35.14 372.82,-25.75"/>
<polygon fill="#63b8ff" stroke="#63b8ff" points="374.98,-22.97 364.67,-20.52 371.2,-28.87 374.98,-22.97"/>
</a>
</g>
</g>
<!-- Node8&#45;&gt;Node12 -->
<g id="edge11_Node000008_Node000012" class="edge">
<title>Node8&#45;&gt;Node12</title>
<g id="a_edge11_Node000008_Node000012"><a xlink:title=" ">
<path fill="none" stroke="#63b8ff" d="M379.24,-55.79C305.57,-44.55 174.52,-24.55 114.65,-15.42"/>
<polygon fill="#63b8ff" stroke="#63b8ff" points="115.25,-11.97 104.83,-13.92 114.19,-18.89 115.25,-11.97"/>
</a>
</g>
</g>
<!-- Node13 -->
<g id="Node000013" class="node">
<title>Node13</title>
<g id="a_Node000013"><a xlink:title=" ">
<polygon fill="#e0e0e0" stroke="#999999" points="468.12,-19.25 400.37,-19.25 400.37,0 468.12,0 468.12,-19.25"/>
<text xml:space="preserve" text-anchor="middle" x="434.25" y="-5.75" font-family="Helvetica,sans-Serif" font-size="10.00">LogLevel.inl</text>
</a>
</g>
</g>
<!-- Node8&#45;&gt;Node13 -->
<g id="edge12_Node000008_Node000013" class="edge">
<title>Node8&#45;&gt;Node13</title>
<g id="a_edge12_Node000008_Node000013"><a xlink:title=" ">
<path fill="none" stroke="#63b8ff" d="M432.58,-55.08C432.83,-48.49 433.18,-39.21 433.49,-30.82"/>
<polygon fill="#63b8ff" stroke="#63b8ff" points="436.98,-31.25 433.86,-21.12 429.98,-30.98 436.98,-31.25"/>
</a>
</g>
</g>
<!-- Node14&#45;&gt;Node3 -->
<g id="edge17_Node000014_Node000003" class="edge">
<title>Node14&#45;&gt;Node3</title>
<g id="a_edge17_Node000014_Node000003"><a xlink:title=" ">
<path fill="none" stroke="#63b8ff" d="M403.77,-115.68C459.62,-103.76 556.41,-83.12 606,-72.54"/>
<polygon fill="#63b8ff" stroke="#63b8ff" points="606.44,-76.03 615.49,-70.52 604.98,-69.18 606.44,-76.03"/>
</a>
</g>
</g>
<!-- Node14&#45;&gt;Node8 -->
<g id="edge14_Node000014_Node000008" class="edge">
<title>Node14&#45;&gt;Node8</title>
<g id="a_edge14_Node000014_Node000008"><a xlink:title=" ">
<path fill="none" stroke="#63b8ff" d="M372.03,-115.81C382.77,-106.9 399.5,-93.03 412.6,-82.17"/>
<polygon fill="#63b8ff" stroke="#63b8ff" points="414.74,-84.94 420.2,-75.87 410.27,-79.56 414.74,-84.94"/>
</a>
</g>
</g>
<!-- Node14&#45;&gt;Node9 -->
<g id="edge15_Node000014_Node000009" class="edge">
<title>Node14&#45;&gt;Node9</title>
<g id="a_edge15_Node000014_Node000009"><a xlink:title=" ">
<path fill="none" stroke="#63b8ff" d="M404.99,-116.28C436.77,-108.75 479.89,-95.59 513.25,-74.5 532.62,-62.25 550.17,-42.52 561.42,-28.23"/>
<polygon fill="#63b8ff" stroke="#63b8ff" points="563.98,-30.65 567.23,-20.57 558.4,-26.42 563.98,-30.65"/>
</a>
</g>
</g>
<!-- Node14&#45;&gt;Node10 -->
<g id="edge16_Node000014_Node000010" class="edge">
<title>Node14&#45;&gt;Node10</title>
<g id="a_edge16_Node000014_Node000010"><a xlink:title=" ">
<path fill="none" stroke="#63b8ff" d="M404.78,-118.81C434.01,-112.58 471.25,-99.96 494.25,-74.5 504.97,-62.64 509.06,-44.76 510.55,-30.94"/>
<polygon fill="#63b8ff" stroke="#63b8ff" points="514.03,-31.39 511.22,-21.18 507.05,-30.92 514.03,-31.39"/>
</a>
</g>
</g>
<!-- Node14&#45;&gt;Node11 -->
<g id="edge18_Node000014_Node000011" class="edge">
<title>Node14&#45;&gt;Node11</title>
<g id="a_edge18_Node000014_Node000011"><a xlink:title=" ">
<path fill="none" stroke="#63b8ff" d="M360.31,-115.79C358.4,-97.63 354.02,-56.04 351.39,-30.95"/>
<polygon fill="#63b8ff" stroke="#63b8ff" points="354.87,-30.62 350.34,-21.04 347.91,-31.36 354.87,-30.62"/>
</a>
</g>
</g>
<!-- Node14&#45;&gt;Node12 -->
<g id="edge20_Node000014_Node000012" class="edge">
<title>Node14&#45;&gt;Node12</title>
<g id="a_edge20_Node000014_Node000012"><a xlink:title=" ">
<path fill="none" stroke="#63b8ff" d="M317.54,-117.48C245.8,-105.38 110.21,-81.72 102.25,-74.5 90.05,-63.44 85.55,-44.94 83.95,-30.68"/>
<polygon fill="#63b8ff" stroke="#63b8ff" points="87.46,-30.79 83.28,-21.06 80.48,-31.28 87.46,-30.79"/>
</a>
</g>
</g>
<!-- Node15 -->
<g id="Node000015" class="node">
<title>Node15</title>
<g id="a_Node000015"><a xlink:title=" ">
<polygon fill="#e0e0e0" stroke="#999999" points="322.75,-74.5 249.75,-74.5 249.75,-55.25 322.75,-55.25 322.75,-74.5"/>
<text xml:space="preserve" text-anchor="middle" x="286.25" y="-61" font-family="Helvetica,sans-Serif" font-size="10.00">system_error</text>
</a>
</g>
</g>
<!-- Node14&#45;&gt;Node15 -->
<g id="edge19_Node000014_Node000015" class="edge">
<title>Node14&#45;&gt;Node15</title>
<g id="a_edge19_Node000014_Node000015"><a xlink:title=" ">
<path fill="none" stroke="#63b8ff" d="M349.86,-115.81C338.4,-106.82 320.5,-92.76 306.6,-81.85"/>
<polygon fill="#63b8ff" stroke="#63b8ff" points="308.97,-79.26 298.94,-75.84 304.64,-84.76 308.97,-79.26"/>
</a>
</g>
</g>
<!-- Node16 -->
<g id="Node000016" class="node">
<title>Node16</title>
<g id="a_Node000016"><a xlink:title=" ">
<polygon fill="#e0e0e0" stroke="#999999" points="160.75,-74.5 111.75,-74.5 111.75,-55.25 160.75,-55.25 160.75,-74.5"/>
<text xml:space="preserve" text-anchor="middle" x="136.25" y="-61" font-family="Helvetica,sans-Serif" font-size="10.00">Error.inl</text>
</a>
</g>
</g>
<!-- Node14&#45;&gt;Node16 -->
<g id="edge21_Node000014_Node000016" class="edge">
<title>Node14&#45;&gt;Node16</title>
<g id="a_edge21_Node000014_Node000016"><a xlink:title=" ">
<path fill="none" stroke="#63b8ff" d="M326.59,-115.68C284.69,-104.72 214.56,-86.37 172.13,-75.26"/>
<polygon fill="#63b8ff" stroke="#63b8ff" points="173.22,-71.93 162.66,-72.79 171.45,-78.7 173.22,-71.93"/>
</a>
</g>
</g>
<!-- Node17 -->
<g id="Node000017" class="node">
<title>Node17</title>
<g id="a_Node000017"><a xlink:href="Error_8tpp.html" target="_top" xlink:title=" ">
<polygon fill="white" stroke="#666666" points="231.62,-74.5 178.87,-74.5 178.87,-55.25 231.62,-55.25 231.62,-74.5"/>
<text xml:space="preserve" text-anchor="middle" x="205.25" y="-61" font-family="Helvetica,sans-Serif" font-size="10.00">Error.tpp</text>
</a>
</g>
</g>
<!-- Node14&#45;&gt;Node17 -->
<g id="edge22_Node000014_Node000017" class="edge">
<title>Node14&#45;&gt;Node17</title>
<g id="a_edge22_Node000014_Node000017"><a xlink:title=" ">
<path fill="none" stroke="#63b8ff" d="M337.22,-115.68C311.22,-105.87 269.54,-90.14 239.99,-78.98"/>
<polygon fill="#63b8ff" stroke="#63b8ff" points="241.32,-75.75 230.73,-75.49 238.85,-82.3 241.32,-75.75"/>
</a>
</g>
</g>
<!-- Node22&#45;&gt;Node9 -->
<g id="edge32_Node000022_Node000009" class="edge">
<title>Node22&#45;&gt;Node9</title>
<g id="a_edge32_Node000022_Node000009"><a xlink:title=" ">
<path fill="none" stroke="#63b8ff" d="M914.93,-110.06C834.02,-86.45 677.09,-40.64 608.14,-20.52"/>
<polygon fill="#63b8ff" stroke="#63b8ff" points="609.12,-17.16 598.54,-17.71 607.15,-23.88 609.12,-17.16"/>
</a>
</g>
</g>
</g>
</svg>

<g id="navigator" transform="translate(0 0)" fill="#404254">
  <rect fill="#f2f5e9" fill-opacity="0.5" stroke="#606060" stroke-width=".5" x="0" y="0" width="60" height="60"/>
  <use id="zoomplus" xlink:href="#zoomPlus" x="17" y="9" onmousedown="handleZoom(evt,'in')"/>
  <use id="zoomminus" xlink:href="#zoomMin" x="42" y="9" onmousedown="handleZoom(evt,'out')"/>
  <use id="reset" xlink:href="#resetDef" x="30" y="36" onmousedown="handleReset()"/>
   <use id="arrowup" xlink:href="#arrowUp" x="0" y="0" onmousedown="handlePan(0,-1)"/>
  <use id="arrowright" xlink:href="#arrowRight" x="0" y="0" onmousedown="handlePan(1,0)"/>
  <use id="arrowdown" xlink:href="#arrowDown" x="0" y="0" onmousedown="handlePan(0,1)"/>
  <use id="arrowleft" xlink:href="#arrowLeft" x="0" y="0" onmousedown="handlePan(-1,0)"/>
</g>
<svg viewBox="0 0 15 15" width="100%" height="30px" preserveAspectRatio="xMaxYMin meet">
 <g id="arrow_out" transform="scale(0.3 0.3)">
  <a xlink:href="TranslationManager_8cpp__incl_org.svg" target="_base">
   <rect id="button" ry="5" rx="5" y="6" x="6" height="38" width="38"
        fill="#f2f5e9" fill-opacity="0.5" stroke="#606060" stroke-width="1.0"/>
   <path id="arrow"
     d="M 11.500037,31.436501 C 11.940474,20.09759 22.043105,11.32322 32.158766,21.979434 L 37.068811,17.246167 C 37.068811,17.246167 37.088388,32 37.088388,32 L 22.160133,31.978069 C 22.160133,31.978069 26.997745,27.140456 26.997745,27.140456 C 18.528582,18.264221 13.291696,25.230495 11.500037,31.436501 z"
     style="fill:#404040;"/>
  </a>
 </g>
</svg>

<style type='text/css'>
<![CDATA[
[data-mouse-over-selected='false'] { opacity: 0.7; }
[data-mouse-over-selected='true']  { opacity: 1.0; }
]]>
</style>
<script type="application/ecmascript"><![CDATA[
document.addEventListener('DOMContentLoaded', (event) => {
  highlightEdges();
  highlightAdjacentNodes();
});
]]></script>
</svg>
