<?xml version="1.0" encoding="UTF-8" standalone="no"?>
<!DOCTYPE svg PUBLIC "-//W3C//DTD SVG 1.1//EN"
 "http://www.w3.org/Graphics/SVG/1.1/DTD/svg11.dtd">
<!-- Generated by graphviz version 14.0.5 (20251129.0259)
 -->
<!-- Title: client/include/Translation/TranslationManager.hpp Pages: 1 -->
<!--zoomable 326 -->

<svg id="main" version="1.1" xmlns="http://www.w3.org/2000/svg" xmlns:xlink="http://www.w3.org/1999/xlink" xml:space="preserve" onload="init(evt)">

<style type="text/css"><![CDATA[
.node, .edge {opacity: 0.7;}
.node.selected, .edge.selected {opacity: 1;}
.edge:hover path { stroke: red; }
.edge:hover polygon { stroke: red; fill: red; }
]]></style>

<defs>
  <circle id="rim" cx="0" cy="0" r="7"/>
  <circle id="rim2" cx="0" cy="0" r="3.5"/>
  <g id="zoomPlus">
    <use xlink:href="#rim" fill="#404040"><set attributeName="fill" to="#808080" begin="zoomplus.mouseover" end="zoomplus.mouseout"/></use>
    <path d="M-4,0h8M0,-4v8" fill="none" stroke="white" stroke-width="1.5" pointer-events="none"/>
  </g>
  <g id="zoomMin">
    <use xlink:href="#rim" fill="#404040"><set attributeName="fill" to="#808080" begin="zoomminus.mouseover" end="zoomminus.mouseout"/></use>
    <path d="M-4,0h8" fill="none" stroke="white" stroke-width="1.5" pointer-events="none"/>
  </g>
  <g id="arrowUp" transform="translate(30 24)">
    <use xlink:href="#rim"/>
    <path pointer-events="none" fill="none" stroke="white" stroke-width="1.5" d="M0,-3.0v7 M-2.5,-0.5L0,-3.0L2.5,-0.5"/>
  </g>
  <g id="arrowRight" transform="rotate(90) translate(36 -43)">
    <use xlink:href="#rim"/>
    <path pointer-events="none" fill="none" stroke="white" stroke-width="1.5" d="M0,-3.0v7 M-2.5,-0.5L0,-3.0L2.5,-0.5"/>
  </g>
  <g id="arrowDown" transform="rotate(180) translate(-30 -48)">
    <use xlink:href="#rim"/>
    <path pointer-events="none" fill="none" stroke="white" stroke-width="1.5" d="M0,-3.0v7 M-2.5,-0.5L0,-3.0L2.5,-0.5"/>
  </g>
  <g id="arrowLeft" transform="rotate(270) translate(-36 17)">
    <use xlink:href="#rim"/>
    <path pointer-events="none" fill="none" stroke="white" stroke-width="1.5" d="M0,-3.0v7 M-2.5,-0.5L0,-3.0L2.5,-0.5"/>
  </g>
  <g id="resetDef">
    <use xlink:href="#rim2" fill="#404040"><set attributeName="fill" to="#808080" begin="reset.mouseover" end="reset.mouseout"/></use>
  </g>
</defs>
<script type="application/ecmascript">
var viewWidth = 1544;
var viewHeight = 326;
var sectionId = 'dynsection-0';
</script>
<script type="application/ecmascript" xlink:href="svg.min.js"/>
<svg id="graph" class="graph">
<g id="viewport">
<title>client/include/Translation/TranslationManager.hpp</title>
<!-- Node1 -->
<g id="Node000001" class="node">
<title>Node1</title>
<g id="a_Node000001"><a xlink:title=" ">
<polygon fill="#999999" stroke="#666666" points="205.06,-318 81.06,-318 81.06,-287.5 205.06,-287.5 205.06,-318"/>
<text xml:space="preserve" text-anchor="start" x="89.06" y="-304.5" font-family="Helvetica,sans-Serif" font-size="10.00">client/include/Translation</text>
<text xml:space="preserve" text-anchor="middle" x="143.06" y="-293.25" font-family="Helvetica,sans-Serif" font-size="10.00">/TranslationManager.hpp</text>
</a>
</g>
</g>
<!-- Node2 -->
<g id="Node000002" class="node">
<title>Node2</title>
<g id="a_Node000002"><a xlink:title=" ">
<polygon fill="#e0e0e0" stroke="#999999" points="726.06,-74.5 686.06,-74.5 686.06,-55.25 726.06,-55.25 726.06,-74.5"/>
<text xml:space="preserve" text-anchor="middle" x="706.06" y="-61" font-family="Helvetica,sans-Serif" font-size="10.00">string</text>
</a>
</g>
</g>
<!-- Node1&#45;&gt;Node2 -->
<g id="edge1_Node000001_Node000002" class="edge">
<title>Node1&#45;&gt;Node2</title>
<g id="a_edge1_Node000001_Node000002"><a xlink:title=" ">
<path fill="none" stroke="#63b8ff" d="M104.95,-287.07C54.05,-265.29 -25.89,-222.1 9.06,-177 91.78,-70.26 548.73,-64.95 674.19,-65.53"/>
<polygon fill="#63b8ff" stroke="#63b8ff" points="674.06,-69.03 684.08,-65.6 674.1,-62.03 674.06,-69.03"/>
</a>
</g>
</g>
<!-- Node3 -->
<g id="Node000003" class="node">
<title>Node3</title>
<g id="a_Node000003"><a xlink:title=" ">
<polygon fill="#e0e0e0" stroke="#999999" points="100.44,-196.25 17.69,-196.25 17.69,-177 100.44,-177 100.44,-196.25"/>
<text xml:space="preserve" text-anchor="middle" x="59.06" y="-182.75" font-family="Helvetica,sans-Serif" font-size="10.00">unordered_map</text>
</a>
</g>
</g>
<!-- Node1&#45;&gt;Node3 -->
<g id="edge2_Node000001_Node000003" class="edge">
<title>Node1&#45;&gt;Node3</title>
<g id="a_edge2_Node000001_Node000003"><a xlink:title=" ">
<path fill="none" stroke="#63b8ff" d="M132.42,-287.3C117.18,-266.59 89.15,-228.51 72.5,-205.89"/>
<polygon fill="#63b8ff" stroke="#63b8ff" points="75.38,-203.9 66.64,-197.92 69.74,-208.05 75.38,-203.9"/>
</a>
</g>
</g>
<!-- Node4 -->
<g id="Node000004" class="node">
<title>Node4</title>
<g id="a_Node000004"><a xlink:title=" ">
<polygon fill="#e0e0e0" stroke="#999999" points="167.56,-196.25 118.56,-196.25 118.56,-177 167.56,-177 167.56,-196.25"/>
<text xml:space="preserve" text-anchor="middle" x="143.06" y="-182.75" font-family="Helvetica,sans-Serif" font-size="10.00">fstream</text>
</a>
</g>
</g>
<!-- Node1&#45;&gt;Node4 -->
<g id="edge3_Node000001_Node000004" class="edge">
<title>Node1&#45;&gt;Node4</title>
<g id="a_edge3_Node000001_Node000004"><a xlink:title=" ">
<path fill="none" stroke="#63b8ff" d="M143.06,-287.3C143.06,-267.25 143.06,-230.9 143.06,-208.07"/>
<polygon fill="#63b8ff" stroke="#63b8ff" points="146.56,-208.21 143.06,-198.21 139.56,-208.21 146.56,-208.21"/>
</a>
</g>
</g>
<!-- Node5 -->
<g id="Node000005" class="node">
<title>Node5</title>
<g id="a_Node000005"><a xlink:href="Settings_8hpp.html" target="_top" xlink:title=" ">
<polygon fill="white" stroke="#666666" points="620.44,-251.5 525.69,-251.5 525.69,-232.25 620.44,-232.25 620.44,-251.5"/>
<text xml:space="preserve" text-anchor="middle" x="573.06" y="-238" font-family="Helvetica,sans-Serif" font-size="10.00">Core/Settings.hpp</text>
</a>
</g>
</g>
<!-- Node1&#45;&gt;Node5 -->
<g id="edge4_Node000001_Node000005" class="edge">
<title>Node1&#45;&gt;Node5</title>
<g id="a_edge4_Node000001_Node000005"><a xlink:title=" ">
<path fill="none" stroke="#63b8ff" d="M205.13,-293.25C287.87,-281.92 433.27,-262.01 514.3,-250.92"/>
<polygon fill="#63b8ff" stroke="#63b8ff" points="514.37,-254.44 523.8,-249.62 513.42,-247.51 514.37,-254.44"/>
</a>
</g>
</g>
<!-- Node6 -->
<g id="Node000006" class="node">
<title>Node6</title>
<g id="a_Node000006"><a xlink:href="Logger_8hpp.html" target="_top" xlink:title="Logger declaration with support for multiple log levels.">
<polygon fill="white" stroke="#666666" points="1070.44,-196.25 975.69,-196.25 975.69,-177 1070.44,-177 1070.44,-196.25"/>
<text xml:space="preserve" text-anchor="middle" x="1023.06" y="-182.75" font-family="Helvetica,sans-Serif" font-size="10.00">RType/Logger.hpp</text>
</a>
</g>
</g>
<!-- Node1&#45;&gt;Node6 -->
<g id="edge43_Node000001_Node000006" class="edge">
<title>Node1&#45;&gt;Node6</title>
<g id="a_edge43_Node000001_Node000006"><a xlink:title=" ">
<path fill="none" stroke="#63b8ff" d="M205.34,-296.47C297.93,-288.36 477.28,-271.63 629.06,-251.5 748.55,-235.65 887.56,-211.85 964.4,-198.22"/>
<polygon fill="#63b8ff" stroke="#63b8ff" points="964.56,-201.75 973.79,-196.55 963.33,-194.86 964.56,-201.75"/>
</a>
</g>
</g>
<!-- Node5&#45;&gt;Node2 -->
<g id="edge40_Node000005_Node000002" class="edge">
<title>Node5&#45;&gt;Node2</title>
<g id="a_edge40_Node000005_Node000002"><a xlink:title=" ">
<path fill="none" stroke="#63b8ff" d="M525.5,-240.17C419.34,-237.7 175.41,-226.63 215.06,-177 273.19,-104.24 574.8,-75.61 674.23,-68.06"/>
<polygon fill="#63b8ff" stroke="#63b8ff" points="674.36,-71.56 684.07,-67.34 673.84,-64.58 674.36,-71.56"/>
</a>
</g>
</g>
<!-- Node5&#45;&gt;Node3 -->
<g id="edge41_Node000005_Node000003" class="edge">
<title>Node5&#45;&gt;Node3</title>
<g id="a_edge41_Node000005_Node000003"><a xlink:title=" ">
<path fill="none" stroke="#63b8ff" d="M525.5,-237.48C443.29,-231.36 269.07,-217.27 112.04,-196.56"/>
<polygon fill="#63b8ff" stroke="#63b8ff" points="112.64,-193.11 102.27,-195.26 111.72,-200.05 112.64,-193.11"/>
</a>
</g>
</g>
<!-- Node5&#45;&gt;Node4 -->
<g id="edge36_Node000005_Node000004" class="edge">
<title>Node5&#45;&gt;Node4</title>
<g id="a_edge36_Node000005_Node000004"><a xlink:title=" ">
<path fill="none" stroke="#63b8ff" d="M525.29,-237.04C451.39,-230.73 305.04,-216.81 182.06,-196.25 181.04,-196.08 180.01,-195.9 178.97,-195.71"/>
<polygon fill="#63b8ff" stroke="#63b8ff" points="179.72,-192.29 169.23,-193.78 178.36,-199.16 179.72,-192.29"/>
</a>
</g>
</g>
<!-- Node5&#45;&gt;Node6 -->
<g id="edge5_Node000005_Node000006" class="edge">
<title>Node5&#45;&gt;Node6</title>
<g id="a_edge5_Node000005_Node000006"><a xlink:title=" ">
<path fill="none" stroke="#63b8ff" d="M620.75,-236.1C692.81,-228.74 834.07,-213.79 964.08,-196.6"/>
<polygon fill="#63b8ff" stroke="#63b8ff" points="964.47,-200.08 973.92,-195.29 963.55,-193.14 964.47,-200.08"/>
</a>
</g>
</g>
<!-- Node21 -->
<g id="Node000021" class="node">
<title>Node21</title>
<g id="a_Node000021"><a xlink:href="SimpleWeapon_8hpp.html" target="_top" xlink:title=" ">
<polygon fill="white" stroke="#666666" points="688.56,-141 561.56,-141 561.56,-110.5 688.56,-110.5 688.56,-141"/>
<text xml:space="preserve" text-anchor="start" x="569.56" y="-127.5" font-family="Helvetica,sans-Serif" font-size="10.00">RType/ECS/Components</text>
<text xml:space="preserve" text-anchor="middle" x="625.06" y="-116.25" font-family="Helvetica,sans-Serif" font-size="10.00">/SimpleWeapon.hpp</text>
</a>
</g>
</g>
<!-- Node5&#45;&gt;Node21 -->
<g id="edge30_Node000005_Node000021" class="edge">
<title>Node5&#45;&gt;Node21</title>
<g id="a_edge30_Node000005_Node000021"><a xlink:title=" ">
<path fill="none" stroke="#63b8ff" d="M620.79,-233.43C661.07,-226.05 714.19,-213.39 727.06,-196.25 743.35,-174.57 718.6,-157.33 689.4,-145.45"/>
<polygon fill="#63b8ff" stroke="#63b8ff" points="690.96,-142.3 680.37,-142.01 688.47,-148.84 690.96,-142.3"/>
</a>
</g>
</g>
<!-- Node22 -->
<g id="Node000022" class="node">
<title>Node22</title>
<g id="a_Node000022"><a xlink:href="KeyAction_8hpp.html" target="_top" xlink:title=" ">
<polygon fill="white" stroke="#666666" points="327.56,-196.25 224.56,-196.25 224.56,-177 327.56,-177 327.56,-196.25"/>
<text xml:space="preserve" text-anchor="middle" x="276.06" y="-182.75" font-family="Helvetica,sans-Serif" font-size="10.00">Utils/KeyAction.hpp</text>
</a>
</g>
</g>
<!-- Node5&#45;&gt;Node22 -->
<g id="edge32_Node000005_Node000022" class="edge">
<title>Node5&#45;&gt;Node22</title>
<g id="a_edge32_Node000005_Node000022"><a xlink:title=" ">
<path fill="none" stroke="#63b8ff" d="M525.34,-232.32C474.49,-223.2 393.78,-208.73 338.04,-198.74"/>
<polygon fill="#63b8ff" stroke="#63b8ff" points="338.84,-195.33 328.38,-197.01 337.61,-202.22 338.84,-195.33"/>
</a>
</g>
</g>
<!-- Node23 -->
<g id="Node000023" class="node">
<title>Node23</title>
<g id="a_Node000023"><a xlink:title=" ">
<polygon fill="#e0e0e0" stroke="#999999" points="488.81,-196.25 345.31,-196.25 345.31,-177 488.81,-177 488.81,-196.25"/>
<text xml:space="preserve" text-anchor="middle" x="417.06" y="-182.75" font-family="Helvetica,sans-Serif" font-size="10.00">SFML/Window/Keyboard.hpp</text>
</a>
</g>
</g>
<!-- Node5&#45;&gt;Node23 -->
<g id="edge33_Node000005_Node000023" class="edge">
<title>Node5&#45;&gt;Node23</title>
<g id="a_edge33_Node000005_Node000023"><a xlink:title=" ">
<path fill="none" stroke="#63b8ff" d="M546.6,-231.84C521.27,-223.2 482.83,-210.07 454.39,-200.37"/>
<polygon fill="#63b8ff" stroke="#63b8ff" points="455.68,-197.11 445.09,-197.19 453.42,-203.73 455.68,-197.11"/>
</a>
</g>
</g>
<!-- Node24 -->
<g id="Node000024" class="node">
<title>Node24</title>
<g id="a_Node000024"><a xlink:title=" ">
<polygon fill="#e0e0e0" stroke="#999999" points="562.94,-196.25 507.19,-196.25 507.19,-177 562.94,-177 562.94,-196.25"/>
<text xml:space="preserve" text-anchor="middle" x="535.06" y="-182.75" font-family="Helvetica,sans-Serif" font-size="10.00">algorithm</text>
</a>
</g>
</g>
<!-- Node5&#45;&gt;Node24 -->
<g id="edge34_Node000005_Node000024" class="edge">
<title>Node5&#45;&gt;Node24</title>
<g id="a_edge34_Node000005_Node000024"><a xlink:title=" ">
<path fill="none" stroke="#63b8ff" d="M566.79,-232.08C561.7,-224.96 554.37,-214.68 548.03,-205.8"/>
<polygon fill="#63b8ff" stroke="#63b8ff" points="551.01,-203.95 542.35,-197.84 545.31,-208.01 551.01,-203.95"/>
</a>
</g>
</g>
<!-- Node25 -->
<g id="Node000025" class="node">
<title>Node25</title>
<g id="a_Node000025"><a xlink:title=" ">
<polygon fill="#e0e0e0" stroke="#999999" points="641.56,-196.25 580.56,-196.25 580.56,-177 641.56,-177 641.56,-196.25"/>
<text xml:space="preserve" text-anchor="middle" x="611.06" y="-182.75" font-family="Helvetica,sans-Serif" font-size="10.00">filesystem</text>
</a>
</g>
</g>
<!-- Node5&#45;&gt;Node25 -->
<g id="edge35_Node000005_Node000025" class="edge">
<title>Node5&#45;&gt;Node25</title>
<g id="a_edge35_Node000005_Node000025"><a xlink:title=" ">
<path fill="none" stroke="#63b8ff" d="M579.34,-232.08C584.42,-224.96 591.76,-214.68 598.09,-205.8"/>
<polygon fill="#63b8ff" stroke="#63b8ff" points="600.81,-208.01 603.77,-197.84 595.11,-203.95 600.81,-208.01"/>
</a>
</g>
</g>
<!-- Node26 -->
<g id="Node000026" class="node">
<title>Node26</title>
<g id="a_Node000026"><a xlink:title=" ">
<polygon fill="#e0e0e0" stroke="#999999" points="718.06,-196.25 660.06,-196.25 660.06,-177 718.06,-177 718.06,-196.25"/>
<text xml:space="preserve" text-anchor="middle" x="689.06" y="-182.75" font-family="Helvetica,sans-Serif" font-size="10.00">functional</text>
</a>
</g>
</g>
<!-- Node5&#45;&gt;Node26 -->
<g id="edge37_Node000005_Node000026" class="edge">
<title>Node5&#45;&gt;Node26</title>
<g id="a_edge37_Node000005_Node000026"><a xlink:title=" ">
<path fill="none" stroke="#63b8ff" d="M592.74,-231.84C610.9,-223.5 638.14,-211 659.03,-201.41"/>
<polygon fill="#63b8ff" stroke="#63b8ff" points="660.28,-204.69 667.91,-197.33 657.36,-198.33 660.28,-204.69"/>
</a>
</g>
</g>
<!-- Node27 -->
<g id="Node000027" class="node">
<title>Node27</title>
<g id="a_Node000027"><a xlink:title=" ">
<polygon fill="#e0e0e0" stroke="#999999" points="827.81,-196.25 774.31,-196.25 774.31,-177 827.81,-177 827.81,-196.25"/>
<text xml:space="preserve" text-anchor="middle" x="801.06" y="-182.75" font-family="Helvetica,sans-Serif" font-size="10.00">iostream</text>
</a>
</g>
</g>
<!-- Node5&#45;&gt;Node27 -->
<g id="edge38_Node000005_Node000027" class="edge">
<title>Node5&#45;&gt;Node27</title>
<g id="a_edge38_Node000005_Node000027"><a xlink:title=" ">
<path fill="none" stroke="#63b8ff" d="M612,-231.78C654.2,-221.93 721.1,-206.3 762.97,-196.52"/>
<polygon fill="#63b8ff" stroke="#63b8ff" points="763.66,-199.95 772.6,-194.27 762.07,-193.14 763.66,-199.95"/>
</a>
</g>
</g>
<!-- Node28 -->
<g id="Node000028" class="node">
<title>Node28</title>
<g id="a_Node000028"><a xlink:title=" ">
<polygon fill="#e0e0e0" stroke="#999999" points="896.69,-196.25 845.44,-196.25 845.44,-177 896.69,-177 896.69,-196.25"/>
<text xml:space="preserve" text-anchor="middle" x="871.06" y="-182.75" font-family="Helvetica,sans-Serif" font-size="10.00">sstream</text>
</a>
</g>
</g>
<!-- Node5&#45;&gt;Node28 -->
<g id="edge39_Node000005_Node000028" class="edge">
<title>Node5&#45;&gt;Node28</title>
<g id="a_edge39_Node000005_Node000028"><a xlink:title=" ">
<path fill="none" stroke="#63b8ff" d="M620.49,-234.04C671.12,-226.49 753.93,-213.38 833.87,-196.8"/>
<polygon fill="#63b8ff" stroke="#63b8ff" points="834.57,-200.23 843.64,-194.75 833.14,-193.37 834.57,-200.23"/>
</a>
</g>
</g>
<!-- Node29 -->
<g id="Node000029" class="node">
<title>Node29</title>
<g id="a_Node000029"><a xlink:title=" ">
<polygon fill="#e0e0e0" stroke="#999999" points="957.56,-196.25 914.56,-196.25 914.56,-177 957.56,-177 957.56,-196.25"/>
<text xml:space="preserve" text-anchor="middle" x="936.06" y="-182.75" font-family="Helvetica,sans-Serif" font-size="10.00">vector</text>
</a>
</g>
</g>
<!-- Node5&#45;&gt;Node29 -->
<g id="edge42_Node000005_Node000029" class="edge">
<title>Node5&#45;&gt;Node29</title>
<g id="a_edge42_Node000005_Node000029"><a xlink:title=" ">
<path fill="none" stroke="#63b8ff" d="M620.86,-236.69C683.65,-230.71 797.46,-218.2 903.02,-196.64"/>
<polygon fill="#63b8ff" stroke="#63b8ff" points="903.64,-200.08 912.72,-194.62 902.21,-193.23 903.64,-200.08"/>
</a>
</g>
</g>
<!-- Node6&#45;&gt;Node2 -->
<g id="edge25_Node000006_Node000002" class="edge">
<title>Node6&#45;&gt;Node2</title>
<g id="a_edge25_Node000006_Node000002"><a xlink:title=" ">
<path fill="none" stroke="#63b8ff" d="M975.4,-178.25C893.89,-165.64 736.35,-141.23 736.06,-141 719.26,-127.62 711.83,-103.43 708.57,-86.11"/>
<polygon fill="#63b8ff" stroke="#63b8ff" points="712.06,-85.81 707.08,-76.46 705.14,-86.88 712.06,-85.81"/>
</a>
</g>
</g>
<!-- Node7 -->
<g id="Node000007" class="node">
<title>Node7</title>
<g id="a_Node000007"><a xlink:href="LogLevel_8hpp.html" target="_top" xlink:title="Log severity levels for the logging system.">
<polygon fill="white" stroke="#666666" points="978.69,-74.5 873.44,-74.5 873.44,-55.25 978.69,-55.25 978.69,-74.5"/>
<text xml:space="preserve" text-anchor="middle" x="926.06" y="-61" font-family="Helvetica,sans-Serif" font-size="10.00">RType/LogLevel.hpp</text>
</a>
</g>
</g>
<!-- Node6&#45;&gt;Node7 -->
<g id="edge6_Node000006_Node000007" class="edge">
<title>Node6&#45;&gt;Node7</title>
<g id="a_edge6_Node000006_Node000007"><a xlink:title=" ">
<path fill="none" stroke="#63b8ff" d="M1010.5,-176.69C999.29,-168.31 982.87,-155 971.06,-141 956.39,-123.61 943.49,-100.87 935.31,-84.99"/>
<polygon fill="#63b8ff" stroke="#63b8ff" points="938.5,-83.54 930.9,-76.16 932.24,-86.67 938.5,-83.54"/>
</a>
</g>
</g>
<!-- Node9 -->
<g id="Node000009" class="node">
<title>Node9</title>
<g id="a_Node000009"><a xlink:title=" ">
<polygon fill="#e0e0e0" stroke="#999999" points="1295.94,-19.25 1252.19,-19.25 1252.19,0 1295.94,0 1295.94,-19.25"/>
<text xml:space="preserve" text-anchor="middle" x="1274.06" y="-5.75" font-family="Helvetica,sans-Serif" font-size="10.00">format</text>
</a>
</g>
</g>
<!-- Node6&#45;&gt;Node9 -->
<g id="edge23_Node000006_Node000009" class="edge">
<title>Node6&#45;&gt;Node9</title>
<g id="a_edge23_Node000006_Node000009"><a xlink:title=" ">
<path fill="none" stroke="#63b8ff" d="M1070.57,-181.01C1127,-174.68 1216.81,-161.68 1243.06,-141 1276.17,-114.91 1277.94,-60.44 1276.15,-30.84"/>
<polygon fill="#63b8ff" stroke="#63b8ff" points="1279.65,-30.68 1275.33,-21.01 1272.67,-31.26 1279.65,-30.68"/>
</a>
</g>
</g>
<!-- Node10 -->
<g id="Node000010" class="node">
<title>Node10</title>
<g id="a_Node000010"><a xlink:title=" ">
<polygon fill="#e0e0e0" stroke="#999999" points="876.81,-19.25 811.31,-19.25 811.31,0 876.81,0 876.81,-19.25"/>
<text xml:space="preserve" text-anchor="middle" x="844.06" y="-5.75" font-family="Helvetica,sans-Serif" font-size="10.00">string_view</text>
</a>
</g>
</g>
<!-- Node6&#45;&gt;Node10 -->
<g id="edge26_Node000006_Node000010" class="edge">
<title>Node6&#45;&gt;Node10</title>
<g id="a_edge26_Node000006_Node000010"><a xlink:title=" ">
<path fill="none" stroke="#63b8ff" d="M1006.99,-176.58C965.49,-153.05 857.27,-90.64 848.06,-74.5 840.55,-61.34 839.91,-44.07 840.95,-30.8"/>
<polygon fill="#63b8ff" stroke="#63b8ff" points="844.4,-31.43 842.11,-21.08 837.45,-30.59 844.4,-31.43"/>
</a>
</g>
</g>
<!-- Node11 -->
<g id="Node000011" class="node">
<title>Node11</title>
<g id="a_Node000011"><a xlink:title=" ">
<polygon fill="#e0e0e0" stroke="#999999" points="1026.69,-19.25 987.44,-19.25 987.44,0 1026.69,0 1026.69,-19.25"/>
<text xml:space="preserve" text-anchor="middle" x="1007.06" y="-5.75" font-family="Helvetica,sans-Serif" font-size="10.00">utility</text>
</a>
</g>
</g>
<!-- Node6&#45;&gt;Node11 -->
<g id="edge28_Node000006_Node000011" class="edge">
<title>Node6&#45;&gt;Node11</title>
<g id="a_edge28_Node000006_Node000011"><a xlink:title=" ">
<path fill="none" stroke="#63b8ff" d="M1070.63,-177.89C1153.84,-162.41 1311.81,-123.13 1255.06,-55.25 1227.76,-22.6 1098.67,-13.8 1038.31,-11.46"/>
<polygon fill="#63b8ff" stroke="#63b8ff" points="1038.5,-7.96 1028.38,-11.11 1038.25,-14.96 1038.5,-7.96"/>
</a>
</g>
</g>
<!-- Node13 -->
<g id="Node000013" class="node">
<title>Node13</title>
<g id="a_Node000013"><a xlink:href="Error_8hpp.html" target="_top" xlink:title="Error handling system with categorized error codes.">
<polygon fill="white" stroke="#666666" points="1066.31,-135.38 979.81,-135.38 979.81,-116.12 1066.31,-116.12 1066.31,-135.38"/>
<text xml:space="preserve" text-anchor="middle" x="1023.06" y="-121.88" font-family="Helvetica,sans-Serif" font-size="10.00">RType/Error.hpp</text>
</a>
</g>
</g>
<!-- Node6&#45;&gt;Node13 -->
<g id="edge12_Node000006_Node000013" class="edge">
<title>Node6&#45;&gt;Node13</title>
<g id="a_edge12_Node000006_Node000013"><a xlink:title=" ">
<path fill="none" stroke="#63b8ff" d="M1023.06,-176.68C1023.06,-168.9 1023.06,-157.33 1023.06,-147.28"/>
<polygon fill="#63b8ff" stroke="#63b8ff" points="1026.56,-147.29 1023.06,-137.29 1019.56,-147.29 1026.56,-147.29"/>
</a>
</g>
</g>
<!-- Node17 -->
<g id="Node000017" class="node">
<title>Node17</title>
<g id="a_Node000017"><a xlink:title=" ">
<polygon fill="#e0e0e0" stroke="#999999" points="1433.94,-135.38 1378.19,-135.38 1378.19,-116.12 1433.94,-116.12 1433.94,-135.38"/>
<text xml:space="preserve" text-anchor="middle" x="1406.06" y="-121.88" font-family="Helvetica,sans-Serif" font-size="10.00">expected</text>
</a>
</g>
</g>
<!-- Node6&#45;&gt;Node17 -->
<g id="edge22_Node000006_Node000017" class="edge">
<title>Node6&#45;&gt;Node17</title>
<g id="a_edge22_Node000006_Node000017"><a xlink:title=" ">
<path fill="none" stroke="#63b8ff" d="M1070.75,-182.36C1137.17,-177.15 1260.98,-164.98 1364.06,-141 1366.35,-140.47 1368.68,-139.86 1371.02,-139.2"/>
<polygon fill="#63b8ff" stroke="#63b8ff" points="1371.89,-142.6 1380.42,-136.31 1369.83,-135.91 1371.89,-142.6"/>
</a>
</g>
</g>
<!-- Node18 -->
<g id="Node000018" class="node">
<title>Node18</title>
<g id="a_Node000018"><a xlink:title=" ">
<polygon fill="#e0e0e0" stroke="#999999" points="1536.19,-135.38 1451.94,-135.38 1451.94,-116.12 1536.19,-116.12 1536.19,-135.38"/>
<text xml:space="preserve" text-anchor="middle" x="1494.06" y="-121.88" font-family="Helvetica,sans-Serif" font-size="10.00">source_location</text>
</a>
</g>
</g>
<!-- Node6&#45;&gt;Node18 -->
<g id="edge24_Node000006_Node000018" class="edge">
<title>Node6&#45;&gt;Node18</title>
<g id="a_edge24_Node000006_Node000018"><a xlink:title=" ">
<path fill="none" stroke="#63b8ff" d="M1070.68,-183.16C1148.95,-178.52 1309.46,-166.58 1443.06,-141 1446.63,-140.32 1450.31,-139.51 1453.98,-138.62"/>
<polygon fill="#63b8ff" stroke="#63b8ff" points="1454.59,-142.08 1463.4,-136.19 1452.84,-135.3 1454.59,-142.08"/>
</a>
</g>
</g>
<!-- Node19 -->
<g id="Node000019" class="node">
<title>Node19</title>
<g id="a_Node000019"><a xlink:title=" ">
<polygon fill="#e0e0e0" stroke="#999999" points="806.94,-135.38 745.19,-135.38 745.19,-116.12 806.94,-116.12 806.94,-135.38"/>
<text xml:space="preserve" text-anchor="middle" x="776.06" y="-121.88" font-family="Helvetica,sans-Serif" font-size="10.00">type_traits</text>
</a>
</g>
</g>
<!-- Node6&#45;&gt;Node19 -->
<g id="edge27_Node000006_Node000019" class="edge">
<title>Node6&#45;&gt;Node19</title>
<g id="a_edge27_Node000006_Node000019"><a xlink:title=" ">
<path fill="none" stroke="#63b8ff" d="M975.36,-177.17C933.12,-169.25 869.98,-156.35 816.06,-141 814.34,-140.51 812.58,-139.98 810.82,-139.44"/>
<polygon fill="#63b8ff" stroke="#63b8ff" points="812.04,-136.15 801.45,-136.33 809.84,-142.8 812.04,-136.15"/>
</a>
</g>
</g>
<!-- Node20 -->
<g id="Node000020" class="node">
<title>Node20</title>
<g id="a_Node000020"><a xlink:href="Logger_8tpp.html" target="_top" xlink:title=" ">
<polygon fill="white" stroke="#666666" points="885.56,-135.38 824.56,-135.38 824.56,-116.12 885.56,-116.12 885.56,-135.38"/>
<text xml:space="preserve" text-anchor="middle" x="855.06" y="-121.88" font-family="Helvetica,sans-Serif" font-size="10.00">Logger.tpp</text>
</a>
</g>
</g>
<!-- Node6&#45;&gt;Node20 -->
<g id="edge29_Node000006_Node000020" class="edge">
<title>Node6&#45;&gt;Node20</title>
<g id="a_edge29_Node000006_Node000020"><a xlink:title=" ">
<path fill="none" stroke="#63b8ff" d="M997.18,-176.55C968.94,-166.66 923.51,-150.74 891.63,-139.57"/>
<polygon fill="#63b8ff" stroke="#63b8ff" points="892.99,-136.34 882.4,-136.33 890.68,-142.94 892.99,-136.34"/>
</a>
</g>
</g>
<!-- Node8 -->
<g id="Node000008" class="node">
<title>Node8</title>
<g id="a_Node000008"><a xlink:title=" ">
<polygon fill="#e0e0e0" stroke="#999999" points="791.69,-19.25 746.44,-19.25 746.44,0 791.69,0 791.69,-19.25"/>
<text xml:space="preserve" text-anchor="middle" x="769.06" y="-5.75" font-family="Helvetica,sans-Serif" font-size="10.00">cstdint</text>
</a>
</g>
</g>
<!-- Node7&#45;&gt;Node8 -->
<g id="edge7_Node000007_Node000008" class="edge">
<title>Node7&#45;&gt;Node8</title>
<g id="a_edge7_Node000007_Node000008"><a xlink:title=" ">
<path fill="none" stroke="#63b8ff" d="M899.43,-54.84C872.7,-45.78 831.47,-31.79 802.54,-21.98"/>
<polygon fill="#63b8ff" stroke="#63b8ff" points="803.77,-18.7 793.17,-18.8 801.52,-25.33 803.77,-18.7"/>
</a>
</g>
</g>
<!-- Node7&#45;&gt;Node9 -->
<g id="edge8_Node000007_Node000009" class="edge">
<title>Node7&#45;&gt;Node9</title>
<g id="a_edge8_Node000007_Node000009"><a xlink:title=" ">
<path fill="none" stroke="#63b8ff" d="M978.91,-55.79C1051.64,-44.66 1180.43,-24.95 1240.93,-15.7"/>
<polygon fill="#63b8ff" stroke="#63b8ff" points="1241.23,-19.19 1250.58,-14.22 1240.17,-12.27 1241.23,-19.19"/>
</a>
</g>
</g>
<!-- Node7&#45;&gt;Node10 -->
<g id="edge9_Node000007_Node000010" class="edge">
<title>Node7&#45;&gt;Node10</title>
<g id="a_edge9_Node000007_Node000010"><a xlink:title=" ">
<path fill="none" stroke="#63b8ff" d="M912.15,-54.84C899.9,-46.89 881.81,-35.14 867.35,-25.75"/>
<polygon fill="#63b8ff" stroke="#63b8ff" points="869.6,-23.04 859.31,-20.53 865.79,-28.91 869.6,-23.04"/>
</a>
</g>
</g>
<!-- Node7&#45;&gt;Node11 -->
<g id="edge10_Node000007_Node000011" class="edge">
<title>Node7&#45;&gt;Node11</title>
<g id="a_edge10_Node000007_Node000011"><a xlink:title=" ">
<path fill="none" stroke="#63b8ff" d="M939.8,-54.84C951.79,-46.96 969.43,-35.36 983.64,-26.02"/>
<polygon fill="#63b8ff" stroke="#63b8ff" points="985.55,-28.95 991.99,-20.53 981.71,-23.1 985.55,-28.95"/>
</a>
</g>
</g>
<!-- Node12 -->
<g id="Node000012" class="node">
<title>Node12</title>
<g id="a_Node000012"><a xlink:title=" ">
<polygon fill="#e0e0e0" stroke="#999999" points="962.94,-19.25 895.19,-19.25 895.19,0 962.94,0 962.94,-19.25"/>
<text xml:space="preserve" text-anchor="middle" x="929.06" y="-5.75" font-family="Helvetica,sans-Serif" font-size="10.00">LogLevel.inl</text>
</a>
</g>
</g>
<!-- Node7&#45;&gt;Node12 -->
<g id="edge11_Node000007_Node000012" class="edge">
<title>Node7&#45;&gt;Node12</title>
<g id="a_edge11_Node000007_Node000012"><a xlink:title=" ">
<path fill="none" stroke="#63b8ff" d="M926.56,-55.08C926.93,-48.49 927.45,-39.21 927.92,-30.82"/>
<polygon fill="#63b8ff" stroke="#63b8ff" points="931.4,-31.3 928.47,-21.12 924.41,-30.91 931.4,-31.3"/>
</a>
</g>
</g>
<!-- Node13&#45;&gt;Node2 -->
<g id="edge16_Node000013_Node000002" class="edge">
<title>Node13&#45;&gt;Node2</title>
<g id="a_edge16_Node000013_Node000002"><a xlink:title=" ">
<path fill="none" stroke="#63b8ff" d="M979.32,-116.63C914.46,-104.58 794.36,-82.27 737.49,-71.71"/>
<polygon fill="#63b8ff" stroke="#63b8ff" points="738.31,-68.31 727.84,-69.92 737.03,-75.19 738.31,-68.31"/>
</a>
</g>
</g>
<!-- Node13&#45;&gt;Node7 -->
<g id="edge13_Node000013_Node000007" class="edge">
<title>Node13&#45;&gt;Node7</title>
<g id="a_edge13_Node000013_Node000007"><a xlink:title=" ">
<path fill="none" stroke="#63b8ff" d="M1008.33,-115.81C993.02,-106.51 968.79,-91.81 950.59,-80.76"/>
<polygon fill="#63b8ff" stroke="#63b8ff" points="952.59,-77.88 942.23,-75.69 948.96,-83.87 952.59,-77.88"/>
</a>
</g>
</g>
<!-- Node13&#45;&gt;Node8 -->
<g id="edge14_Node000013_Node000008" class="edge">
<title>Node13&#45;&gt;Node8</title>
<g id="a_edge14_Node000013_Node000008"><a xlink:title=" ">
<path fill="none" stroke="#63b8ff" d="M979.53,-117.3C942.97,-109.88 890.12,-96.39 848.06,-74.5 823.99,-61.98 800.33,-41.44 785.27,-27.05"/>
<polygon fill="#63b8ff" stroke="#63b8ff" points="788.13,-24.95 778.54,-20.45 783.23,-29.95 788.13,-24.95"/>
</a>
</g>
</g>
<!-- Node13&#45;&gt;Node9 -->
<g id="edge15_Node000013_Node000009" class="edge">
<title>Node13&#45;&gt;Node9</title>
<g id="a_edge15_Node000013_Node000009"><a xlink:title=" ">
<path fill="none" stroke="#63b8ff" d="M1066.56,-120.6C1125.93,-114.07 1228.08,-99.5 1255.06,-74.5 1267.14,-63.31 1271.66,-44.82 1273.29,-30.61"/>
<polygon fill="#63b8ff" stroke="#63b8ff" points="1276.75,-31.24 1273.99,-21.02 1269.77,-30.73 1276.75,-31.24"/>
</a>
</g>
</g>
<!-- Node13&#45;&gt;Node10 -->
<g id="edge17_Node000013_Node000010" class="edge">
<title>Node13&#45;&gt;Node10</title>
<g id="a_edge17_Node000013_Node000010"><a xlink:title=" ">
<path fill="none" stroke="#63b8ff" d="M979.65,-115.77C938.44,-106.43 880.42,-90.9 864.06,-74.5 852.5,-62.91 847.61,-44.73 845.54,-30.73"/>
<polygon fill="#63b8ff" stroke="#63b8ff" points="849.03,-30.43 844.49,-20.85 842.07,-31.17 849.03,-30.43"/>
</a>
</g>
</g>
<!-- Node13&#45;&gt;Node11 -->
<g id="edge19_Node000013_Node000011" class="edge">
<title>Node13&#45;&gt;Node11</title>
<g id="a_edge19_Node000013_Node000011"><a xlink:title=" ">
<path fill="none" stroke="#63b8ff" d="M1021.8,-115.79C1019.25,-97.54 1013.37,-55.66 1009.86,-30.6"/>
<polygon fill="#63b8ff" stroke="#63b8ff" points="1013.37,-30.45 1008.52,-21.04 1006.44,-31.43 1013.37,-30.45"/>
</a>
</g>
</g>
<!-- Node14 -->
<g id="Node000014" class="node">
<title>Node14</title>
<g id="a_Node000014"><a xlink:title=" ">
<polygon fill="#e0e0e0" stroke="#999999" points="1108.56,-74.5 1035.56,-74.5 1035.56,-55.25 1108.56,-55.25 1108.56,-74.5"/>
<text xml:space="preserve" text-anchor="middle" x="1072.06" y="-61" font-family="Helvetica,sans-Serif" font-size="10.00">system_error</text>
</a>
</g>
</g>
<!-- Node13&#45;&gt;Node14 -->
<g id="edge18_Node000013_Node000014" class="edge">
<title>Node13&#45;&gt;Node14</title>
<g id="a_edge18_Node000013_Node000014"><a xlink:title=" ">
<path fill="none" stroke="#63b8ff" d="M1030.5,-115.81C1037.63,-107.25 1048.57,-94.1 1057.44,-83.45"/>
<polygon fill="#63b8ff" stroke="#63b8ff" points="1059.87,-85.99 1063.58,-76.06 1054.49,-81.51 1059.87,-85.99"/>
</a>
</g>
</g>
<!-- Node15 -->
<g id="Node000015" class="node">
<title>Node15</title>
<g id="a_Node000015"><a xlink:title=" ">
<polygon fill="#e0e0e0" stroke="#999999" points="1175.56,-74.5 1126.56,-74.5 1126.56,-55.25 1175.56,-55.25 1175.56,-74.5"/>
<text xml:space="preserve" text-anchor="middle" x="1151.06" y="-61" font-family="Helvetica,sans-Serif" font-size="10.00">Error.inl</text>
</a>
</g>
</g>
<!-- Node13&#45;&gt;Node15 -->
<g id="edge20_Node000013_Node000015" class="edge">
<title>Node13&#45;&gt;Node15</title>
<g id="a_edge20_Node000013_Node000015"><a xlink:title=" ">
<path fill="none" stroke="#63b8ff" d="M1042.78,-115.68C1063.7,-106.06 1097,-90.74 1121.15,-79.63"/>
<polygon fill="#63b8ff" stroke="#63b8ff" points="1122.53,-82.85 1130.15,-75.49 1119.61,-76.49 1122.53,-82.85"/>
</a>
</g>
</g>
<!-- Node16 -->
<g id="Node000016" class="node">
<title>Node16</title>
<g id="a_Node000016"><a xlink:href="Error_8tpp.html" target="_top" xlink:title=" ">
<polygon fill="white" stroke="#666666" points="1246.44,-74.5 1193.69,-74.5 1193.69,-55.25 1246.44,-55.25 1246.44,-74.5"/>
<text xml:space="preserve" text-anchor="middle" x="1220.06" y="-61" font-family="Helvetica,sans-Serif" font-size="10.00">Error.tpp</text>
</a>
</g>
</g>
<!-- Node13&#45;&gt;Node16 -->
<g id="edge21_Node000013_Node000016" class="edge">
<title>Node13&#45;&gt;Node16</title>
<g id="a_edge21_Node000013_Node000016"><a xlink:title=" ">
<path fill="none" stroke="#63b8ff" d="M1053.41,-115.68C1088.13,-105.3 1145.02,-88.3 1182.5,-77.1"/>
<polygon fill="#63b8ff" stroke="#63b8ff" points="1183.44,-80.47 1192.02,-74.26 1181.44,-73.77 1183.44,-80.47"/>
</a>
</g>
</g>
<!-- Node21&#45;&gt;Node8 -->
<g id="edge31_Node000021_Node000008" class="edge">
<title>Node21&#45;&gt;Node8</title>
<g id="a_edge31_Node000021_Node000008"><a xlink:title=" ">
<path fill="none" stroke="#63b8ff" d="M633.16,-110.09C642.22,-94.79 658.12,-70.89 677.06,-55.25 694.37,-40.96 717.04,-29.9 735.53,-22.36"/>
<polygon fill="#63b8ff" stroke="#63b8ff" points="736.69,-25.67 744.74,-18.78 734.15,-19.14 736.69,-25.67"/>
</a>
</g>
</g>
</g>
</svg>

<g id="navigator" transform="translate(0 0)" fill="#404254">
  <rect fill="#f2f5e9" fill-opacity="0.5" stroke="#606060" stroke-width=".5" x="0" y="0" width="60" height="60"/>
  <use id="zoomplus" xlink:href="#zoomPlus" x="17" y="9" onmousedown="handleZoom(evt,'in')"/>
  <use id="zoomminus" xlink:href="#zoomMin" x="42" y="9" onmousedown="handleZoom(evt,'out')"/>
  <use id="reset" xlink:href="#resetDef" x="30" y="36" onmousedown="handleReset()"/>
   <use id="arrowup" xlink:href="#arrowUp" x="0" y="0" onmousedown="handlePan(0,-1)"/>
  <use id="arrowright" xlink:href="#arrowRight" x="0" y="0" onmousedown="handlePan(1,0)"/>
  <use id="arrowdown" xlink:href="#arrowDown" x="0" y="0" onmousedown="handlePan(0,1)"/>
  <use id="arrowleft" xlink:href="#arrowLeft" x="0" y="0" onmousedown="handlePan(-1,0)"/>
</g>
<svg viewBox="0 0 15 15" width="100%" height="30px" preserveAspectRatio="xMaxYMin meet">
 <g id="arrow_out" transform="scale(0.3 0.3)">
  <a xlink:href="TranslationManager_8hpp__incl_org.svg" target="_base">
   <rect id="button" ry="5" rx="5" y="6" x="6" height="38" width="38"
        fill="#f2f5e9" fill-opacity="0.5" stroke="#606060" stroke-width="1.0"/>
   <path id="arrow"
     d="M 11.500037,31.436501 C 11.940474,20.09759 22.043105,11.32322 32.158766,21.979434 L 37.068811,17.246167 C 37.068811,17.246167 37.088388,32 37.088388,32 L 22.160133,31.978069 C 22.160133,31.978069 26.997745,27.140456 26.997745,27.140456 C 18.528582,18.264221 13.291696,25.230495 11.500037,31.436501 z"
     style="fill:#404040;"/>
  </a>
 </g>
</svg>

<style type='text/css'>
<![CDATA[
[data-mouse-over-selected='false'] { opacity: 0.7; }
[data-mouse-over-selected='true']  { opacity: 1.0; }
]]>
</style>
<script type="application/ecmascript"><![CDATA[
document.addEventListener('DOMContentLoaded', (event) => {
  highlightEdges();
  highlightAdjacentNodes();
});
]]></script>
</svg>
