<?xml version="1.0" encoding="UTF-8" standalone="no"?>
<!DOCTYPE svg PUBLIC "-//W3C//DTD SVG 1.1//EN"
 "http://www.w3.org/Graphics/SVG/1.1/DTD/svg11.dtd">
<!-- Generated by graphviz version 14.0.5 (20251129.0259)
 -->
<!-- Title: client/include/UI/UiFactory.hpp Pages: 1 -->
<svg width="2082pt" height="216pt"
 viewBox="0.00 0.00 2082.00 216.00" xmlns="http://www.w3.org/2000/svg" xmlns:xlink="http://www.w3.org/1999/xlink">
<g id="graph0" class="graph" transform="scale(1 1) rotate(0) translate(4 211.5)">
<title>client/include/UI/UiFactory.hpp</title>
<!-- Node1 -->
<g id="Node000001" class="node">
<title>Node1</title>
<g id="a_Node000001"><a xlink:title=" ">
<polygon fill="#999999" stroke="#666666" points="1151.75,-207.5 1002.25,-207.5 1002.25,-188.25 1151.75,-188.25 1151.75,-207.5"/>
<text xml:space="preserve" text-anchor="middle" x="1077" y="-194" font-family="Helvetica,sans-Serif" font-size="10.00">client/include/UI/UiFactory.hpp</text>
</a>
</g>
</g>
<!-- Node2 -->
<g id="Node000002" class="node">
<title>Node2</title>
<g id="a_Node000002"><a xlink:href="Application_8hpp.html" target="_top" xlink:title=" ">
<polygon fill="white" stroke="#666666" points="1084.5,-85.75 987.5,-85.75 987.5,-55.25 1084.5,-55.25 1084.5,-85.75"/>
<text xml:space="preserve" text-anchor="start" x="995.5" y="-72.25" font-family="Helvetica,sans-Serif" font-size="10.00">client/include/Core</text>
<text xml:space="preserve" text-anchor="middle" x="1036" y="-61" font-family="Helvetica,sans-Serif" font-size="10.00">/Application.hpp</text>
</a>
</g>
</g>
<!-- Node1&#45;&gt;Node2 -->
<g id="edge1_Node000001_Node000002" class="edge">
<title>Node1&#45;&gt;Node2</title>
<g id="a_edge1_Node000001_Node000002"><a xlink:title=" ">
<path fill="none" stroke="#63b8ff" d="M1066.97,-177.71C1063.17,-169.95 1059.04,-160.82 1056,-152.25 1047.97,-129.66 1041.95,-102.41 1038.7,-86.05"/>
<polygon fill="#63b8ff" stroke="#63b8ff" points="1063.79,-179.18 1071.43,-186.52 1070.03,-176.02 1063.79,-179.18"/>
</a>
</g>
</g>
<!-- Node5 -->
<g id="Node000005" class="node">
<title>Node5</title>
<g id="a_Node000005"><a xlink:href="CreateRoomScene_8hpp.html" target="_top" xlink:title=" ">
<polygon fill="white" stroke="#666666" points="328.5,-152.25 207.5,-152.25 207.5,-121.75 328.5,-121.75 328.5,-152.25"/>
<text xml:space="preserve" text-anchor="start" x="215.5" y="-138.75" font-family="Helvetica,sans-Serif" font-size="10.00">client/include/Scenes</text>
<text xml:space="preserve" text-anchor="middle" x="268" y="-127.5" font-family="Helvetica,sans-Serif" font-size="10.00">/CreateRoomScene.hpp</text>
</a>
</g>
</g>
<!-- Node1&#45;&gt;Node5 -->
<g id="edge4_Node000001_Node000005" class="edge">
<title>Node1&#45;&gt;Node5</title>
<g id="a_edge4_Node000001_Node000005"><a xlink:title=" ">
<path fill="none" stroke="#63b8ff" d="M990.6,-195.59C852.26,-192.64 572.74,-183.07 338,-152.25 335.05,-151.86 332.04,-151.42 329,-150.94"/>
<polygon fill="#63b8ff" stroke="#63b8ff" points="990.35,-199.08 1000.42,-195.79 990.49,-192.08 990.35,-199.08"/>
</a>
</g>
</g>
<!-- Node7 -->
<g id="Node000007" class="node">
<title>Node7</title>
<g id="a_Node000007"><a xlink:href="GameOverScene_8hpp.html" target="_top" xlink:title=" ">
<polygon fill="white" stroke="#666666" points="459.38,-152.25 346.62,-152.25 346.62,-121.75 459.38,-121.75 459.38,-152.25"/>
<text xml:space="preserve" text-anchor="start" x="354.62" y="-138.75" font-family="Helvetica,sans-Serif" font-size="10.00">client/include/Scenes</text>
<text xml:space="preserve" text-anchor="middle" x="403" y="-127.5" font-family="Helvetica,sans-Serif" font-size="10.00">/GameOverScene.hpp</text>
</a>
</g>
</g>
<!-- Node1&#45;&gt;Node7 -->
<g id="edge7_Node000001_Node000007" class="edge">
<title>Node1&#45;&gt;Node7</title>
<g id="a_edge7_Node000001_Node000007"><a xlink:title=" ">
<path fill="none" stroke="#63b8ff" d="M990.61,-194.42C872.18,-190.18 653.03,-179.17 468,-152.25 465.26,-151.85 462.46,-151.4 459.63,-150.91"/>
<polygon fill="#63b8ff" stroke="#63b8ff" points="990.47,-197.92 1000.58,-194.77 990.71,-190.92 990.47,-197.92"/>
</a>
</g>
</g>
<!-- Node9 -->
<g id="Node000009" class="node">
<title>Node9</title>
<g id="a_Node000009"><a xlink:href="GamepadSettingsScene_8hpp.html" target="_top" xlink:title=" ">
<polygon fill="white" stroke="#666666" points="620.75,-152.25 477.25,-152.25 477.25,-121.75 620.75,-121.75 620.75,-152.25"/>
<text xml:space="preserve" text-anchor="start" x="485.25" y="-138.75" font-family="Helvetica,sans-Serif" font-size="10.00">client/include/Scenes</text>
<text xml:space="preserve" text-anchor="middle" x="549" y="-127.5" font-family="Helvetica,sans-Serif" font-size="10.00">/GamepadSettingsScene.hpp</text>
</a>
</g>
</g>
<!-- Node1&#45;&gt;Node9 -->
<g id="edge10_Node000001_Node000009" class="edge">
<title>Node1&#45;&gt;Node9</title>
<g id="a_edge10_Node000001_Node000009"><a xlink:title=" ">
<path fill="none" stroke="#63b8ff" d="M990.8,-190.19C900.61,-182.75 755.03,-169.46 630,-152.25 627.03,-151.84 624,-151.4 620.94,-150.94"/>
<polygon fill="#63b8ff" stroke="#63b8ff" points="990.3,-193.66 1000.55,-190.99 990.87,-186.68 990.3,-193.66"/>
</a>
</g>
</g>
<!-- Node11 -->
<g id="Node000011" class="node">
<title>Node11</title>
<g id="a_Node000011"><a xlink:href="KeyBindingScene_8hpp.html" target="_top" xlink:title=" ">
<polygon fill="white" stroke="#666666" points="753.5,-152.25 638.5,-152.25 638.5,-121.75 753.5,-121.75 753.5,-152.25"/>
<text xml:space="preserve" text-anchor="start" x="646.5" y="-138.75" font-family="Helvetica,sans-Serif" font-size="10.00">client/include/Scenes</text>
<text xml:space="preserve" text-anchor="middle" x="696" y="-127.5" font-family="Helvetica,sans-Serif" font-size="10.00">/KeyBindingScene.hpp</text>
</a>
</g>
</g>
<!-- Node1&#45;&gt;Node11 -->
<g id="edge13_Node000001_Node000011" class="edge">
<title>Node1&#45;&gt;Node11</title>
<g id="a_edge13_Node000001_Node000011"><a xlink:title=" ">
<path fill="none" stroke="#63b8ff" d="M991.42,-186.32C928.15,-178.13 839.98,-165.89 763,-152.25 759.96,-151.71 756.84,-151.13 753.69,-150.53"/>
<polygon fill="#63b8ff" stroke="#63b8ff" points="990.68,-189.75 1001.04,-187.56 991.57,-182.81 990.68,-189.75"/>
</a>
</g>
</g>
<!-- Node13 -->
<g id="Node000013" class="node">
<title>Node13</title>
<g id="a_Node000013"><a xlink:href="LobbyScene_8hpp.html" target="_top" xlink:title=" ">
<polygon fill="white" stroke="#666666" points="880.5,-152.25 771.5,-152.25 771.5,-121.75 880.5,-121.75 880.5,-152.25"/>
<text xml:space="preserve" text-anchor="start" x="779.5" y="-138.75" font-family="Helvetica,sans-Serif" font-size="10.00">client/include/Scenes</text>
<text xml:space="preserve" text-anchor="middle" x="826" y="-127.5" font-family="Helvetica,sans-Serif" font-size="10.00">/LobbyScene.hpp</text>
</a>
</g>
</g>
<!-- Node1&#45;&gt;Node13 -->
<g id="edge16_Node000001_Node000013" class="edge">
<title>Node1&#45;&gt;Node13</title>
<g id="a_edge16_Node000001_Node000013"><a xlink:title=" ">
<path fill="none" stroke="#63b8ff" d="M1027.18,-185.19C984.85,-175.26 924.18,-161.03 880.56,-150.8"/>
<polygon fill="#63b8ff" stroke="#63b8ff" points="1026.32,-188.58 1036.86,-187.46 1027.92,-181.77 1026.32,-188.58"/>
</a>
</g>
</g>
<!-- Node15 -->
<g id="Node000015" class="node">
<title>Node15</title>
<g id="a_Node000015"><a xlink:href="LoginScene_8hpp.html" target="_top" xlink:title=" ">
<polygon fill="white" stroke="#666666" points="1007.5,-152.25 898.5,-152.25 898.5,-121.75 1007.5,-121.75 1007.5,-152.25"/>
<text xml:space="preserve" text-anchor="start" x="906.5" y="-138.75" font-family="Helvetica,sans-Serif" font-size="10.00">client/include/Scenes</text>
<text xml:space="preserve" text-anchor="middle" x="953" y="-127.5" font-family="Helvetica,sans-Serif" font-size="10.00">/LoginScene.hpp</text>
</a>
</g>
</g>
<!-- Node1&#45;&gt;Node15 -->
<g id="edge19_Node000001_Node000015" class="edge">
<title>Node1&#45;&gt;Node15</title>
<g id="a_edge19_Node000001_Node000015"><a xlink:title=" ">
<path fill="none" stroke="#63b8ff" d="M1047.64,-182.93C1028.45,-173.83 1003.44,-161.95 983.95,-152.69"/>
<polygon fill="#63b8ff" stroke="#63b8ff" points="1045.99,-186.03 1056.53,-187.16 1049,-179.7 1045.99,-186.03"/>
</a>
</g>
</g>
<!-- Node17 -->
<g id="Node000017" class="node">
<title>Node17</title>
<g id="a_Node000017"><a xlink:href="MenuScene_8hpp.html" target="_top" xlink:title=" ">
<polygon fill="white" stroke="#666666" points="1173.5,-152.25 1064.5,-152.25 1064.5,-121.75 1173.5,-121.75 1173.5,-152.25"/>
<text xml:space="preserve" text-anchor="start" x="1072.5" y="-138.75" font-family="Helvetica,sans-Serif" font-size="10.00">client/include/Scenes</text>
<text xml:space="preserve" text-anchor="middle" x="1119" y="-127.5" font-family="Helvetica,sans-Serif" font-size="10.00">/MenuScene.hpp</text>
</a>
</g>
</g>
<!-- Node1&#45;&gt;Node17 -->
<g id="edge22_Node000001_Node000017" class="edge">
<title>Node1&#45;&gt;Node17</title>
<g id="a_edge22_Node000001_Node000017"><a xlink:title=" ">
<path fill="none" stroke="#63b8ff" d="M1090.02,-178.63C1096,-170.23 1103.01,-160.41 1108.63,-152.53"/>
<polygon fill="#63b8ff" stroke="#63b8ff" points="1087.22,-176.53 1084.26,-186.7 1092.91,-180.59 1087.22,-176.53"/>
</a>
</g>
</g>
<!-- Node19 -->
<g id="Node000019" class="node">
<title>Node19</title>
<g id="a_Node000019"><a xlink:href="ModMenuScene_8hpp.html" target="_top" xlink:title=" ">
<polygon fill="white" stroke="#666666" points="1300.5,-152.25 1191.5,-152.25 1191.5,-121.75 1300.5,-121.75 1300.5,-152.25"/>
<text xml:space="preserve" text-anchor="start" x="1199.5" y="-138.75" font-family="Helvetica,sans-Serif" font-size="10.00">client/include/Scenes</text>
<text xml:space="preserve" text-anchor="middle" x="1246" y="-127.5" font-family="Helvetica,sans-Serif" font-size="10.00">/ModMenuScene.hpp</text>
</a>
</g>
</g>
<!-- Node1&#45;&gt;Node19 -->
<g id="edge25_Node000001_Node000019" class="edge">
<title>Node1&#45;&gt;Node19</title>
<g id="a_edge25_Node000001_Node000019"><a xlink:title=" ">
<path fill="none" stroke="#63b8ff" d="M1113.78,-184.06C1140.29,-174.82 1176.14,-162.34 1203.82,-152.69"/>
<polygon fill="#63b8ff" stroke="#63b8ff" points="1112.76,-180.71 1104.47,-187.31 1115.06,-187.32 1112.76,-180.71"/>
</a>
</g>
</g>
<!-- Node21 -->
<g id="Node000021" class="node">
<title>Node21</title>
<g id="a_Node000021"><a xlink:href="PauseScene_8hpp.html" target="_top" xlink:title=" ">
<polygon fill="white" stroke="#666666" points="1427.5,-152.25 1318.5,-152.25 1318.5,-121.75 1427.5,-121.75 1427.5,-152.25"/>
<text xml:space="preserve" text-anchor="start" x="1326.5" y="-138.75" font-family="Helvetica,sans-Serif" font-size="10.00">client/include/Scenes</text>
<text xml:space="preserve" text-anchor="middle" x="1373" y="-127.5" font-family="Helvetica,sans-Serif" font-size="10.00">/PauseScene.hpp</text>
</a>
</g>
</g>
<!-- Node1&#45;&gt;Node21 -->
<g id="edge28_Node000001_Node000021" class="edge">
<title>Node1&#45;&gt;Node21</title>
<g id="a_edge28_Node000001_Node000021"><a xlink:title=" ">
<path fill="none" stroke="#63b8ff" d="M1138.32,-185.71C1185.37,-177 1251.9,-164.38 1310,-152.25 1312.63,-151.7 1315.33,-151.13 1318.05,-150.54"/>
<polygon fill="#63b8ff" stroke="#63b8ff" points="1137.78,-182.25 1128.58,-187.5 1139.05,-189.13 1137.78,-182.25"/>
</a>
</g>
</g>
<!-- Node23 -->
<g id="Node000023" class="node">
<title>Node23</title>
<g id="a_Node000023"><a xlink:href="PlayingScene_8hpp.html" target="_top" xlink:title=" ">
<polygon fill="white" stroke="#666666" points="1554.5,-152.25 1445.5,-152.25 1445.5,-121.75 1554.5,-121.75 1554.5,-152.25"/>
<text xml:space="preserve" text-anchor="start" x="1453.5" y="-138.75" font-family="Helvetica,sans-Serif" font-size="10.00">client/include/Scenes</text>
<text xml:space="preserve" text-anchor="middle" x="1500" y="-127.5" font-family="Helvetica,sans-Serif" font-size="10.00">/PlayingScene.hpp</text>
</a>
</g>
</g>
<!-- Node1&#45;&gt;Node23 -->
<g id="edge31_Node000001_Node000023" class="edge">
<title>Node1&#45;&gt;Node23</title>
<g id="a_edge31_Node000001_Node000023"><a xlink:title=" ">
<path fill="none" stroke="#63b8ff" d="M1163.57,-188.58C1236.71,-180.99 1344.1,-168.47 1437,-152.25 1439.65,-151.79 1442.36,-151.29 1445.09,-150.76"/>
<polygon fill="#63b8ff" stroke="#63b8ff" points="1163.23,-185.09 1153.64,-189.6 1163.94,-192.06 1163.23,-185.09"/>
</a>
</g>
</g>
<!-- Node25 -->
<g id="Node000025" class="node">
<title>Node25</title>
<g id="a_Node000025"><a xlink:href="RoomWaitingScene_8hpp.html" target="_top" xlink:title=" ">
<polygon fill="white" stroke="#666666" points="1697,-152.25 1573,-152.25 1573,-121.75 1697,-121.75 1697,-152.25"/>
<text xml:space="preserve" text-anchor="start" x="1581" y="-138.75" font-family="Helvetica,sans-Serif" font-size="10.00">client/include/Scenes</text>
<text xml:space="preserve" text-anchor="middle" x="1635" y="-127.5" font-family="Helvetica,sans-Serif" font-size="10.00">/RoomWaitingScene.hpp</text>
</a>
</g>
</g>
<!-- Node1&#45;&gt;Node25 -->
<g id="edge34_Node000001_Node000025" class="edge">
<title>Node1&#45;&gt;Node25</title>
<g id="a_edge34_Node000001_Node000025"><a xlink:title=" ">
<path fill="none" stroke="#63b8ff" d="M1163.24,-191.76C1260.83,-185.33 1424.39,-172.6 1564,-152.25 1566.86,-151.83 1569.78,-151.38 1572.73,-150.89"/>
<polygon fill="#63b8ff" stroke="#63b8ff" points="1163.22,-188.26 1153.47,-192.4 1163.68,-195.24 1163.22,-188.26"/>
</a>
</g>
</g>
<!-- Node27 -->
<g id="Node000027" class="node">
<title>Node27</title>
<g id="a_Node000027"><a xlink:href="SettingsScene_8hpp.html" target="_top" xlink:title=" ">
<polygon fill="white" stroke="#666666" points="1824.5,-152.25 1715.5,-152.25 1715.5,-121.75 1824.5,-121.75 1824.5,-152.25"/>
<text xml:space="preserve" text-anchor="start" x="1723.5" y="-138.75" font-family="Helvetica,sans-Serif" font-size="10.00">client/include/Scenes</text>
<text xml:space="preserve" text-anchor="middle" x="1770" y="-127.5" font-family="Helvetica,sans-Serif" font-size="10.00">/SettingsScene.hpp</text>
</a>
</g>
</g>
<!-- Node1&#45;&gt;Node27 -->
<g id="edge37_Node000001_Node000027" class="edge">
<title>Node1&#45;&gt;Node27</title>
<g id="a_edge37_Node000001_Node000027"><a xlink:title=" ">
<path fill="none" stroke="#63b8ff" d="M1163.37,-194.8C1285,-190.95 1513.43,-180.36 1706,-152.25 1709.04,-151.81 1712.15,-151.3 1715.29,-150.74"/>
<polygon fill="#63b8ff" stroke="#63b8ff" points="1163.34,-191.29 1153.45,-195.1 1163.56,-198.29 1163.34,-191.29"/>
</a>
</g>
</g>
<!-- Node29 -->
<g id="Node000029" class="node">
<title>Node29</title>
<g id="a_Node000029"><a xlink:href="UiFactory_8cpp.html" target="_top" xlink:title=" ">
<polygon fill="white" stroke="#666666" points="1975.12,-146.62 1842.88,-146.62 1842.88,-127.38 1975.12,-127.38 1975.12,-146.62"/>
<text xml:space="preserve" text-anchor="middle" x="1909" y="-133.12" font-family="Helvetica,sans-Serif" font-size="10.00">client/src/UI/UiFactory.cpp</text>
</a>
</g>
</g>
<!-- Node1&#45;&gt;Node29 -->
<g id="edge40_Node000001_Node000029" class="edge">
<title>Node1&#45;&gt;Node29</title>
<g id="a_edge40_Node000001_Node000029"><a xlink:title=" ">
<path fill="none" stroke="#63b8ff" d="M1163.35,-195.4C1304.25,-192.18 1592.15,-182.23 1834,-152.25 1844.52,-150.95 1855.79,-149.07 1866.32,-147.1"/>
<polygon fill="#63b8ff" stroke="#63b8ff" points="1163.67,-191.89 1153.75,-195.61 1163.82,-198.89 1163.67,-191.89"/>
</a>
</g>
</g>
<!-- Node3 -->
<g id="Node000003" class="node">
<title>Node3</title>
<g id="a_Node000003"><a xlink:href="Application_8cpp.html" target="_top" xlink:title=" ">
<polygon fill="white" stroke="#666666" points="1039.75,-19.25 890.25,-19.25 890.25,0 1039.75,0 1039.75,-19.25"/>
<text xml:space="preserve" text-anchor="middle" x="965" y="-5.75" font-family="Helvetica,sans-Serif" font-size="10.00">client/src/Core/Application.cpp</text>
</a>
</g>
</g>
<!-- Node2&#45;&gt;Node3 -->
<g id="edge2_Node000002_Node000003" class="edge">
<title>Node2&#45;&gt;Node3</title>
<g id="a_edge2_Node000002_Node000003"><a xlink:title=" ">
<path fill="none" stroke="#63b8ff" d="M1009.87,-47.83C998.15,-38.12 984.97,-27.19 975.95,-19.7"/>
<polygon fill="#63b8ff" stroke="#63b8ff" points="1007.35,-50.29 1017.28,-53.98 1011.82,-44.9 1007.35,-50.29"/>
</a>
</g>
</g>
<!-- Node4 -->
<g id="Node000004" class="node">
<title>Node4</title>
<g id="a_Node000004"><a xlink:href="client_2src_2main_8cpp.html" target="_top" xlink:title=" ">
<polygon fill="white" stroke="#666666" points="1156.25,-19.25 1057.75,-19.25 1057.75,0 1156.25,0 1156.25,-19.25"/>
<text xml:space="preserve" text-anchor="middle" x="1107" y="-5.75" font-family="Helvetica,sans-Serif" font-size="10.00">client/src/main.cpp</text>
</a>
</g>
</g>
<!-- Node2&#45;&gt;Node4 -->
<g id="edge3_Node000002_Node000004" class="edge">
<title>Node2&#45;&gt;Node4</title>
<g id="a_edge3_Node000002_Node000004"><a xlink:title=" ">
<path fill="none" stroke="#63b8ff" d="M1062.13,-47.83C1073.85,-38.12 1087.03,-27.19 1096.05,-19.7"/>
<polygon fill="#63b8ff" stroke="#63b8ff" points="1060.18,-44.9 1054.72,-53.98 1064.65,-50.29 1060.18,-44.9"/>
</a>
</g>
</g>
<!-- Node5&#45;&gt;Node2 -->
<g id="edge5_Node000005_Node000002" class="edge">
<title>Node5&#45;&gt;Node2</title>
<g id="a_edge5_Node000005_Node000002"><a xlink:title=" ">
<path fill="none" stroke="#63b8ff" d="M340.42,-121.59C622.58,-86.35 699.96,-127.36 978,-85.75 980.97,-85.3 984.02,-84.78 987.08,-84.19"/>
<polygon fill="#63b8ff" stroke="#63b8ff" points="339.98,-118.12 330.5,-122.85 340.86,-125.06 339.98,-118.12"/>
</a>
</g>
</g>
<!-- Node6 -->
<g id="Node000006" class="node">
<title>Node6</title>
<g id="a_Node000006"><a xlink:href="CreateRoomScene_8cpp.html" target="_top" xlink:title=" ">
<polygon fill="white" stroke="#666666" points="124,-85.75 0,-85.75 0,-55.25 124,-55.25 124,-85.75"/>
<text xml:space="preserve" text-anchor="start" x="8" y="-72.25" font-family="Helvetica,sans-Serif" font-size="10.00">client/src/Scenes/Create</text>
<text xml:space="preserve" text-anchor="middle" x="62" y="-61" font-family="Helvetica,sans-Serif" font-size="10.00">RoomScene.cpp</text>
</a>
</g>
</g>
<!-- Node5&#45;&gt;Node6 -->
<g id="edge6_Node000005_Node000006" class="edge">
<title>Node5&#45;&gt;Node6</title>
<g id="a_edge6_Node000005_Node000006"><a xlink:title=" ">
<path fill="none" stroke="#63b8ff" d="M210.01,-117.84C178.02,-107.83 138.82,-95.55 108.8,-86.15"/>
<polygon fill="#63b8ff" stroke="#63b8ff" points="208.96,-121.18 219.55,-120.83 211.06,-114.5 208.96,-121.18"/>
</a>
</g>
</g>
<!-- Node7&#45;&gt;Node2 -->
<g id="edge8_Node000007_Node000002" class="edge">
<title>Node7&#45;&gt;Node2</title>
<g id="a_edge8_Node000007_Node000002"><a xlink:title=" ">
<path fill="none" stroke="#63b8ff" d="M470.78,-121.5C694.9,-90.34 757.14,-120.42 978,-85.75 980.97,-85.28 984.01,-84.74 987.07,-84.14"/>
<polygon fill="#63b8ff" stroke="#63b8ff" points="470.54,-117.99 461.13,-122.86 471.52,-124.92 470.54,-117.99"/>
</a>
</g>
</g>
<!-- Node8 -->
<g id="Node000008" class="node">
<title>Node8</title>
<g id="a_Node000008"><a xlink:href="GameOverScene_8cpp.html" target="_top" xlink:title=" ">
<polygon fill="white" stroke="#666666" points="284,-85.75 142,-85.75 142,-55.25 284,-55.25 284,-85.75"/>
<text xml:space="preserve" text-anchor="start" x="150" y="-72.25" font-family="Helvetica,sans-Serif" font-size="10.00">client/src/Scenes/GameOver</text>
<text xml:space="preserve" text-anchor="middle" x="213" y="-61" font-family="Helvetica,sans-Serif" font-size="10.00">Scene.cpp</text>
</a>
</g>
</g>
<!-- Node7&#45;&gt;Node8 -->
<g id="edge9_Node000007_Node000008" class="edge">
<title>Node7&#45;&gt;Node8</title>
<g id="a_edge9_Node000007_Node000008"><a xlink:title=" ">
<path fill="none" stroke="#63b8ff" d="M349.37,-117.79C319.93,-107.8 283.9,-95.57 256.27,-86.19"/>
<polygon fill="#63b8ff" stroke="#63b8ff" points="347.86,-120.98 358.45,-120.88 350.11,-114.35 347.86,-120.98"/>
</a>
</g>
</g>
<!-- Node9&#45;&gt;Node2 -->
<g id="edge11_Node000009_Node000002" class="edge">
<title>Node9&#45;&gt;Node2</title>
<g id="a_edge11_Node000009_Node000002"><a xlink:title=" ">
<path fill="none" stroke="#63b8ff" d="M632.21,-121.52C785.97,-100.81 828.39,-111.74 978,-85.75 980.96,-85.24 984,-84.65 987.05,-84.03"/>
<polygon fill="#63b8ff" stroke="#63b8ff" points="631.88,-118.04 622.45,-122.86 632.83,-124.97 631.88,-118.04"/>
</a>
</g>
</g>
<!-- Node10 -->
<g id="Node000010" class="node">
<title>Node10</title>
<g id="a_Node000010"><a xlink:href="GamepadSettingsScene_8cpp.html" target="_top" xlink:title=" ">
<polygon fill="white" stroke="#666666" points="438.38,-85.75 301.62,-85.75 301.62,-55.25 438.38,-55.25 438.38,-85.75"/>
<text xml:space="preserve" text-anchor="start" x="309.62" y="-72.25" font-family="Helvetica,sans-Serif" font-size="10.00">client/src/Scenes/Gamepad</text>
<text xml:space="preserve" text-anchor="middle" x="370" y="-61" font-family="Helvetica,sans-Serif" font-size="10.00">SettingsScene.cpp</text>
</a>
</g>
</g>
<!-- Node9&#45;&gt;Node10 -->
<g id="edge12_Node000009_Node000010" class="edge">
<title>Node9&#45;&gt;Node10</title>
<g id="a_edge12_Node000009_Node000010"><a xlink:title=" ">
<path fill="none" stroke="#63b8ff" d="M497.74,-117.53C470.14,-107.58 436.57,-95.49 410.77,-86.19"/>
<polygon fill="#63b8ff" stroke="#63b8ff" points="496.36,-120.75 506.96,-120.85 498.74,-114.17 496.36,-120.75"/>
</a>
</g>
</g>
<!-- Node11&#45;&gt;Node2 -->
<g id="edge14_Node000011_Node000002" class="edge">
<title>Node11&#45;&gt;Node2</title>
<g id="a_edge14_Node000011_Node000002"><a xlink:title=" ">
<path fill="none" stroke="#63b8ff" d="M765.02,-121.43C860.13,-103.76 886.63,-104.6 978,-85.75 980.94,-85.14 983.97,-84.49 987.01,-83.81"/>
<polygon fill="#63b8ff" stroke="#63b8ff" points="764.38,-117.99 755.2,-123.28 765.67,-124.87 764.38,-117.99"/>
</a>
</g>
</g>
<!-- Node12 -->
<g id="Node000012" class="node">
<title>Node12</title>
<g id="a_Node000012"><a xlink:href="KeyBindingScene_8cpp.html" target="_top" xlink:title=" ">
<polygon fill="white" stroke="#666666" points="601.12,-85.75 456.88,-85.75 456.88,-55.25 601.12,-55.25 601.12,-85.75"/>
<text xml:space="preserve" text-anchor="start" x="464.88" y="-72.25" font-family="Helvetica,sans-Serif" font-size="10.00">client/src/Scenes/KeyBinding</text>
<text xml:space="preserve" text-anchor="middle" x="529" y="-61" font-family="Helvetica,sans-Serif" font-size="10.00">Scene.cpp</text>
</a>
</g>
</g>
<!-- Node11&#45;&gt;Node12 -->
<g id="edge15_Node000011_Node000012" class="edge">
<title>Node11&#45;&gt;Node12</title>
<g id="a_edge15_Node000011_Node000012"><a xlink:title=" ">
<path fill="none" stroke="#63b8ff" d="M647.49,-117.26C621.87,-107.37 590.89,-95.4 567.03,-86.19"/>
<polygon fill="#63b8ff" stroke="#63b8ff" points="646.1,-120.48 656.69,-120.82 648.63,-113.95 646.1,-120.48"/>
</a>
</g>
</g>
<!-- Node13&#45;&gt;Node2 -->
<g id="edge17_Node000013_Node000002" class="edge">
<title>Node13&#45;&gt;Node2</title>
<g id="a_edge17_Node000013_Node000002"><a xlink:title=" ">
<path fill="none" stroke="#63b8ff" d="M884.69,-117.97C917.38,-107.93 957.55,-95.59 988.29,-86.15"/>
<polygon fill="#63b8ff" stroke="#63b8ff" points="883.89,-114.56 875.36,-120.84 885.95,-121.25 883.89,-114.56"/>
</a>
</g>
</g>
<!-- Node14 -->
<g id="Node000014" class="node">
<title>Node14</title>
<g id="a_Node000014"><a xlink:href="LobbyScene_8cpp.html" target="_top" xlink:title=" ">
<polygon fill="white" stroke="#666666" points="786.75,-80.12 619.25,-80.12 619.25,-60.88 786.75,-60.88 786.75,-80.12"/>
<text xml:space="preserve" text-anchor="middle" x="703" y="-66.62" font-family="Helvetica,sans-Serif" font-size="10.00">client/src/Scenes/LobbyScene.cpp</text>
</a>
</g>
</g>
<!-- Node13&#45;&gt;Node14 -->
<g id="edge18_Node000013_Node000014" class="edge">
<title>Node13&#45;&gt;Node14</title>
<g id="a_edge18_Node000013_Node000014"><a xlink:title=" ">
<path fill="none" stroke="#63b8ff" d="M788.08,-116.11C765.4,-104.22 737.68,-89.69 720.18,-80.51"/>
<polygon fill="#63b8ff" stroke="#63b8ff" points="786.27,-119.12 796.75,-120.66 789.52,-112.92 786.27,-119.12"/>
</a>
</g>
</g>
<!-- Node15&#45;&gt;Node2 -->
<g id="edge20_Node000015_Node000002" class="edge">
<title>Node15&#45;&gt;Node2</title>
<g id="a_edge20_Node000015_Node000002"><a xlink:title=" ">
<path fill="none" stroke="#63b8ff" d="M980.61,-114.54C992.64,-105.19 1006.43,-94.48 1017.24,-86.08"/>
<polygon fill="#63b8ff" stroke="#63b8ff" points="978.78,-111.54 973.03,-120.44 983.07,-117.06 978.78,-111.54"/>
</a>
</g>
</g>
<!-- Node16 -->
<g id="Node000016" class="node">
<title>Node16</title>
<g id="a_Node000016"><a xlink:href="LoginScene_8cpp.html" target="_top" xlink:title=" ">
<polygon fill="white" stroke="#666666" points="969.25,-80.12 804.75,-80.12 804.75,-60.88 969.25,-60.88 969.25,-80.12"/>
<text xml:space="preserve" text-anchor="middle" x="887" y="-66.62" font-family="Helvetica,sans-Serif" font-size="10.00">client/src/Scenes/LoginScene.cpp</text>
</a>
</g>
</g>
<!-- Node15&#45;&gt;Node16 -->
<g id="edge21_Node000015_Node000016" class="edge">
<title>Node15&#45;&gt;Node16</title>
<g id="a_edge21_Node000015_Node000016"><a xlink:title=" ">
<path fill="none" stroke="#63b8ff" d="M929.93,-113.46C918.24,-102.03 904.72,-88.82 896.03,-80.32"/>
<polygon fill="#63b8ff" stroke="#63b8ff" points="927.34,-115.82 936.94,-120.31 932.24,-110.81 927.34,-115.82"/>
</a>
</g>
</g>
<!-- Node17&#45;&gt;Node2 -->
<g id="edge23_Node000017_Node000002" class="edge">
<title>Node17&#45;&gt;Node2</title>
<g id="a_edge23_Node000017_Node000002"><a xlink:title=" ">
<path fill="none" stroke="#63b8ff" d="M1091.39,-114.54C1079.36,-105.19 1065.57,-94.48 1054.76,-86.08"/>
<polygon fill="#63b8ff" stroke="#63b8ff" points="1088.93,-117.06 1098.97,-120.44 1093.22,-111.54 1088.93,-117.06"/>
</a>
</g>
</g>
<!-- Node18 -->
<g id="Node000018" class="node">
<title>Node18</title>
<g id="a_Node000018"><a xlink:href="MenuScene_8cpp.html" target="_top" xlink:title=" ">
<polygon fill="white" stroke="#666666" points="1267.62,-80.12 1102.38,-80.12 1102.38,-60.88 1267.62,-60.88 1267.62,-80.12"/>
<text xml:space="preserve" text-anchor="middle" x="1185" y="-66.62" font-family="Helvetica,sans-Serif" font-size="10.00">client/src/Scenes/MenuScene.cpp</text>
</a>
</g>
</g>
<!-- Node17&#45;&gt;Node18 -->
<g id="edge24_Node000017_Node000018" class="edge">
<title>Node17&#45;&gt;Node18</title>
<g id="a_edge24_Node000017_Node000018"><a xlink:title=" ">
<path fill="none" stroke="#63b8ff" d="M1142.07,-113.46C1153.76,-102.03 1167.28,-88.82 1175.97,-80.32"/>
<polygon fill="#63b8ff" stroke="#63b8ff" points="1139.76,-110.81 1135.06,-120.31 1144.66,-115.82 1139.76,-110.81"/>
</a>
</g>
</g>
<!-- Node19&#45;&gt;Node2 -->
<g id="edge26_Node000019_Node000002" class="edge">
<title>Node19&#45;&gt;Node2</title>
<g id="a_edge26_Node000019_Node000002"><a xlink:title=" ">
<path fill="none" stroke="#63b8ff" d="M1187.31,-117.97C1154.62,-107.93 1114.45,-95.59 1083.71,-86.15"/>
<polygon fill="#63b8ff" stroke="#63b8ff" points="1186.05,-121.25 1196.64,-120.84 1188.11,-114.56 1186.05,-121.25"/>
</a>
</g>
</g>
<!-- Node20 -->
<g id="Node000020" class="node">
<title>Node20</title>
<g id="a_Node000020"><a xlink:href="ModMenuScene_8cpp.html" target="_top" xlink:title=" ">
<polygon fill="white" stroke="#666666" points="1422.75,-85.75 1285.25,-85.75 1285.25,-55.25 1422.75,-55.25 1422.75,-85.75"/>
<text xml:space="preserve" text-anchor="start" x="1293.25" y="-72.25" font-family="Helvetica,sans-Serif" font-size="10.00">client/src/Scenes/ModMenu</text>
<text xml:space="preserve" text-anchor="middle" x="1354" y="-61" font-family="Helvetica,sans-Serif" font-size="10.00">Scene.cpp</text>
</a>
</g>
</g>
<!-- Node19&#45;&gt;Node20 -->
<g id="edge27_Node000019_Node000020" class="edge">
<title>Node19&#45;&gt;Node20</title>
<g id="a_edge27_Node000019_Node000020"><a xlink:title=" ">
<path fill="none" stroke="#63b8ff" d="M1280.1,-115.64C1296.17,-106.04 1314.97,-94.81 1329.59,-86.08"/>
<polygon fill="#63b8ff" stroke="#63b8ff" points="1278.6,-112.46 1271.81,-120.59 1282.19,-118.47 1278.6,-112.46"/>
</a>
</g>
</g>
<!-- Node21&#45;&gt;Node2 -->
<g id="edge29_Node000021_Node000002" class="edge">
<title>Node21&#45;&gt;Node2</title>
<g id="a_edge29_Node000021_Node000002"><a xlink:title=" ">
<path fill="none" stroke="#63b8ff" d="M1306.8,-121.2C1212.08,-103.12 1185.17,-104.88 1093,-85.75 1090.3,-85.19 1087.54,-84.59 1084.76,-83.96"/>
<polygon fill="#63b8ff" stroke="#63b8ff" points="1306.1,-124.62 1316.58,-123.09 1307.43,-117.75 1306.1,-124.62"/>
</a>
</g>
</g>
<!-- Node22 -->
<g id="Node000022" class="node">
<title>Node22</title>
<g id="a_Node000022"><a xlink:href="PauseScene_8cpp.html" target="_top" xlink:title=" ">
<polygon fill="white" stroke="#666666" points="1609.5,-80.12 1440.5,-80.12 1440.5,-60.88 1609.5,-60.88 1609.5,-80.12"/>
<text xml:space="preserve" text-anchor="middle" x="1525" y="-66.62" font-family="Helvetica,sans-Serif" font-size="10.00">client/src/Scenes/PauseScene.cpp</text>
</a>
</g>
</g>
<!-- Node21&#45;&gt;Node22 -->
<g id="edge30_Node000021_Node000022" class="edge">
<title>Node21&#45;&gt;Node22</title>
<g id="a_edge30_Node000021_Node000022"><a xlink:title=" ">
<path fill="none" stroke="#63b8ff" d="M1417.98,-116.91C1446.34,-104.88 1481.65,-89.9 1503.77,-80.51"/>
<polygon fill="#63b8ff" stroke="#63b8ff" points="1416.72,-113.64 1408.88,-120.77 1419.46,-120.09 1416.72,-113.64"/>
</a>
</g>
</g>
<!-- Node23&#45;&gt;Node2 -->
<g id="edge32_Node000023_Node000002" class="edge">
<title>Node23&#45;&gt;Node2</title>
<g id="a_edge32_Node000023_Node000002"><a xlink:title=" ">
<path fill="none" stroke="#63b8ff" d="M1434.06,-121.39C1283.34,-97.46 1240.84,-111.83 1093,-85.75 1090.29,-85.27 1087.51,-84.74 1084.72,-84.16"/>
<polygon fill="#63b8ff" stroke="#63b8ff" points="1433.17,-124.79 1443.61,-122.94 1434.3,-117.88 1433.17,-124.79"/>
</a>
</g>
</g>
<!-- Node24 -->
<g id="Node000024" class="node">
<title>Node24</title>
<g id="a_Node000024"><a xlink:href="PlayingScene_8cpp.html" target="_top" xlink:title=" ">
<polygon fill="white" stroke="#666666" points="1754.5,-85.75 1627.5,-85.75 1627.5,-55.25 1754.5,-55.25 1754.5,-85.75"/>
<text xml:space="preserve" text-anchor="start" x="1635.5" y="-72.25" font-family="Helvetica,sans-Serif" font-size="10.00">client/src/Scenes/Playing</text>
<text xml:space="preserve" text-anchor="middle" x="1691" y="-61" font-family="Helvetica,sans-Serif" font-size="10.00">Scene.cpp</text>
</a>
</g>
</g>
<!-- Node23&#45;&gt;Node24 -->
<g id="edge33_Node000023_Node000024" class="edge">
<title>Node23&#45;&gt;Node24</title>
<g id="a_edge33_Node000023_Node000024"><a xlink:title=" ">
<path fill="none" stroke="#63b8ff" d="M1553.92,-117.79C1583.51,-107.8 1619.73,-95.57 1647.5,-86.19"/>
<polygon fill="#63b8ff" stroke="#63b8ff" points="1553.13,-114.36 1544.77,-120.88 1555.37,-121 1553.13,-114.36"/>
</a>
</g>
</g>
<!-- Node25&#45;&gt;Node2 -->
<g id="edge35_Node000025_Node000002" class="edge">
<title>Node25&#45;&gt;Node2</title>
<g id="a_edge35_Node000025_Node000002"><a xlink:title=" ">
<path fill="none" stroke="#63b8ff" d="M1561.45,-121.53C1354.02,-93.95 1296.6,-118.74 1093,-85.75 1090.28,-85.31 1087.5,-84.8 1084.71,-84.25"/>
<polygon fill="#63b8ff" stroke="#63b8ff" points="1560.86,-124.98 1571.24,-122.85 1561.8,-118.04 1560.86,-124.98"/>
</a>
</g>
</g>
<!-- Node26 -->
<g id="Node000026" class="node">
<title>Node26</title>
<g id="a_Node000026"><a xlink:href="RoomWaitingScene_8cpp.html" target="_top" xlink:title=" ">
<polygon fill="white" stroke="#666666" points="1925.62,-85.75 1772.38,-85.75 1772.38,-55.25 1925.62,-55.25 1925.62,-85.75"/>
<text xml:space="preserve" text-anchor="start" x="1780.38" y="-72.25" font-family="Helvetica,sans-Serif" font-size="10.00">client/src/Scenes/RoomWaiting</text>
<text xml:space="preserve" text-anchor="middle" x="1849" y="-61" font-family="Helvetica,sans-Serif" font-size="10.00">Scene.cpp</text>
</a>
</g>
</g>
<!-- Node25&#45;&gt;Node26 -->
<g id="edge36_Node000025_Node000026" class="edge">
<title>Node25&#45;&gt;Node26</title>
<g id="a_edge36_Node000025_Node000026"><a xlink:title=" ">
<path fill="none" stroke="#63b8ff" d="M1694.81,-117.97C1728.12,-107.93 1769.06,-95.59 1800.38,-86.15"/>
<polygon fill="#63b8ff" stroke="#63b8ff" points="1693.84,-114.61 1685.28,-120.85 1695.86,-121.31 1693.84,-114.61"/>
</a>
</g>
</g>
<!-- Node27&#45;&gt;Node2 -->
<g id="edge38_Node000027_Node000002" class="edge">
<title>Node27&#45;&gt;Node2</title>
<g id="a_edge38_Node000027_Node000002"><a xlink:title=" ">
<path fill="none" stroke="#63b8ff" d="M1703.94,-121.65C1433.68,-85.13 1359.09,-126.46 1093,-85.75 1090.28,-85.33 1087.5,-84.85 1084.7,-84.31"/>
<polygon fill="#63b8ff" stroke="#63b8ff" points="1703.41,-125.11 1713.79,-123.01 1704.36,-118.17 1703.41,-125.11"/>
</a>
</g>
</g>
<!-- Node28 -->
<g id="Node000028" class="node">
<title>Node28</title>
<g id="a_Node000028"><a xlink:href="SettingsScene_8cpp.html" target="_top" xlink:title=" ">
<polygon fill="white" stroke="#666666" points="2074.38,-85.75 1943.62,-85.75 1943.62,-55.25 2074.38,-55.25 2074.38,-85.75"/>
<text xml:space="preserve" text-anchor="start" x="1951.62" y="-72.25" font-family="Helvetica,sans-Serif" font-size="10.00">client/src/Scenes/Settings</text>
<text xml:space="preserve" text-anchor="middle" x="2009" y="-61" font-family="Helvetica,sans-Serif" font-size="10.00">Scene.cpp</text>
</a>
</g>
</g>
<!-- Node27&#45;&gt;Node28 -->
<g id="edge39_Node000027_Node000028" class="edge">
<title>Node27&#45;&gt;Node28</title>
<g id="a_edge39_Node000027_Node000028"><a xlink:title=" ">
<path fill="none" stroke="#63b8ff" d="M1835.34,-118.37C1872.8,-108.26 1919.26,-95.72 1954.7,-86.15"/>
<polygon fill="#63b8ff" stroke="#63b8ff" points="1834.74,-114.9 1825.99,-120.89 1836.56,-121.66 1834.74,-114.9"/>
</a>
</g>
</g>
</g>
</svg>
