<?xml version="1.0" encoding="UTF-8" standalone="no"?>
<!DOCTYPE svg PUBLIC "-//W3C//DTD SVG 1.1//EN"
 "http://www.w3.org/Graphics/SVG/1.1/DTD/svg11.dtd">
<!-- Generated by graphviz version 14.0.5 (20251129.0259)
 -->
<!-- Title: common/include/RType/Math/Vec2.hpp Pages: 1 -->
<svg width="981pt" height="337pt"
 viewBox="0.00 0.00 981.00 337.00" xmlns="http://www.w3.org/2000/svg" xmlns:xlink="http://www.w3.org/1999/xlink">
<g id="graph0" class="graph" transform="scale(1 1) rotate(0) translate(4 333.25)">
<title>common/include/RType/Math/Vec2.hpp</title>
<!-- Node1 -->
<g id="Node000001" class="node">
<title>Node1</title>
<g id="a_Node000001"><a xlink:title="Declaration of the 2&#45;dimensional vector class.">
<polygon fill="#999999" stroke="#666666" points="849.12,-329.25 730.38,-329.25 730.38,-298.75 849.12,-298.75 849.12,-329.25"/>
<text xml:space="preserve" text-anchor="start" x="738.38" y="-315.75" font-family="Helvetica,sans-Serif" font-size="10.00">common/include/RType</text>
<text xml:space="preserve" text-anchor="middle" x="789.75" y="-304.5" font-family="Helvetica,sans-Serif" font-size="10.00">/Math/Vec2.hpp</text>
</a>
</g>
</g>
<!-- Node2 -->
<g id="Node000002" class="node">
<title>Node2</title>
<g id="a_Node000002"><a xlink:href="Assert_8hpp.html" target="_top" xlink:title="Assertion and verification macros for runtime checks.">
<polygon fill="white" stroke="#666666" points="612.12,-257.12 517.38,-257.12 517.38,-237.88 612.12,-237.88 612.12,-257.12"/>
<text xml:space="preserve" text-anchor="middle" x="564.75" y="-243.62" font-family="Helvetica,sans-Serif" font-size="10.00">RType/Assert.hpp</text>
</a>
</g>
</g>
<!-- Node1&#45;&gt;Node2 -->
<g id="edge1_Node000001_Node000002" class="edge">
<title>Node1&#45;&gt;Node2</title>
<g id="a_edge1_Node000001_Node000002"><a xlink:title=" ">
<path fill="none" stroke="#63b8ff" d="M738.41,-298.28C698.8,-286.93 644.66,-271.41 607.41,-260.73"/>
<polygon fill="#63b8ff" stroke="#63b8ff" points="608.46,-257.39 597.88,-258 606.53,-264.12 608.46,-257.39"/>
</a>
</g>
</g>
<!-- Node20 -->
<g id="Node000020" class="node">
<title>Node20</title>
<g id="a_Node000020"><a xlink:href="VecBase_8hpp.html" target="_top" xlink:title="Declaration of the CRTP base vector class.">
<polygon fill="white" stroke="#666666" points="840.12,-262.75 739.38,-262.75 739.38,-232.25 840.12,-232.25 840.12,-262.75"/>
<text xml:space="preserve" text-anchor="start" x="747.38" y="-249.25" font-family="Helvetica,sans-Serif" font-size="10.00">RType/Math/details</text>
<text xml:space="preserve" text-anchor="middle" x="789.75" y="-238" font-family="Helvetica,sans-Serif" font-size="10.00">/VecBase.hpp</text>
</a>
</g>
</g>
<!-- Node1&#45;&gt;Node20 -->
<g id="edge28_Node000001_Node000020" class="edge">
<title>Node1&#45;&gt;Node20</title>
<g id="a_edge28_Node000001_Node000020"><a xlink:title=" ">
<path fill="none" stroke="#63b8ff" d="M789.75,-298.36C789.75,-291.27 789.75,-282.54 789.75,-274.38"/>
<polygon fill="#63b8ff" stroke="#63b8ff" points="793.25,-274.59 789.75,-264.59 786.25,-274.59 793.25,-274.59"/>
</a>
</g>
</g>
<!-- Node26 -->
<g id="Node000026" class="node">
<title>Node26</title>
<g id="a_Node000026"><a xlink:href="Vec2_8tpp.html" target="_top" xlink:title=" ">
<polygon fill="white" stroke="#666666" points="913.25,-257.12 858.25,-257.12 858.25,-237.88 913.25,-237.88 913.25,-257.12"/>
<text xml:space="preserve" text-anchor="middle" x="885.75" y="-243.62" font-family="Helvetica,sans-Serif" font-size="10.00">Vec2.tpp</text>
</a>
</g>
</g>
<!-- Node1&#45;&gt;Node26 -->
<g id="edge35_Node000001_Node000026" class="edge">
<title>Node1&#45;&gt;Node26</title>
<g id="a_edge35_Node000001_Node000026"><a xlink:title=" ">
<path fill="none" stroke="#63b8ff" d="M811.53,-298.36C826.87,-288.06 847.36,-274.29 862.93,-263.83"/>
<polygon fill="#63b8ff" stroke="#63b8ff" points="864.74,-266.84 871.08,-258.35 860.83,-261.03 864.74,-266.84"/>
</a>
</g>
</g>
<!-- Node3 -->
<g id="Node000003" class="node">
<title>Node3</title>
<g id="a_Node000003"><a xlink:href="Logger_8hpp.html" target="_top" xlink:title="Logger declaration with support for multiple log levels.">
<polygon fill="white" stroke="#666666" points="501.12,-190.62 406.38,-190.62 406.38,-171.38 501.12,-171.38 501.12,-190.62"/>
<text xml:space="preserve" text-anchor="middle" x="453.75" y="-177.12" font-family="Helvetica,sans-Serif" font-size="10.00">RType/Logger.hpp</text>
</a>
</g>
</g>
<!-- Node2&#45;&gt;Node3 -->
<g id="edge2_Node000002_Node000003" class="edge">
<title>Node2&#45;&gt;Node3</title>
<g id="a_edge2_Node000002_Node000003"><a xlink:title=" ">
<path fill="none" stroke="#63b8ff" d="M549.32,-237.53C531.19,-227 500.87,-209.38 479.24,-196.81"/>
<polygon fill="#63b8ff" stroke="#63b8ff" points="481.12,-193.86 470.72,-191.86 477.61,-199.91 481.12,-193.86"/>
</a>
</g>
</g>
<!-- Node19 -->
<g id="Node000019" class="node">
<title>Node19</title>
<g id="a_Node000019"><a xlink:title=" ">
<polygon fill="#e0e0e0" stroke="#999999" points="587,-190.62 542.5,-190.62 542.5,-171.38 587,-171.38 587,-190.62"/>
<text xml:space="preserve" text-anchor="middle" x="564.75" y="-177.12" font-family="Helvetica,sans-Serif" font-size="10.00">cstdlib</text>
</a>
</g>
</g>
<!-- Node2&#45;&gt;Node19 -->
<g id="edge27_Node000002_Node000019" class="edge">
<title>Node2&#45;&gt;Node19</title>
<g id="a_edge27_Node000002_Node000019"><a xlink:title=" ">
<path fill="none" stroke="#63b8ff" d="M564.75,-237.53C564.75,-228.48 564.75,-214.2 564.75,-202.38"/>
<polygon fill="#63b8ff" stroke="#63b8ff" points="568.25,-202.41 564.75,-192.41 561.25,-202.41 568.25,-202.41"/>
</a>
</g>
</g>
<!-- Node4 -->
<g id="Node000004" class="node">
<title>Node4</title>
<g id="a_Node000004"><a xlink:href="LogLevel_8hpp.html" target="_top" xlink:title="Log severity levels for the logging system.">
<polygon fill="white" stroke="#666666" points="168.38,-74.5 63.12,-74.5 63.12,-55.25 168.38,-55.25 168.38,-74.5"/>
<text xml:space="preserve" text-anchor="middle" x="115.75" y="-61" font-family="Helvetica,sans-Serif" font-size="10.00">RType/LogLevel.hpp</text>
</a>
</g>
</g>
<!-- Node3&#45;&gt;Node4 -->
<g id="edge3_Node000003_Node000004" class="edge">
<title>Node3&#45;&gt;Node4</title>
<g id="a_edge3_Node000003_Node000004"><a xlink:title=" ">
<path fill="none" stroke="#63b8ff" d="M405.97,-177.57C329.94,-172.85 185.91,-160.07 145.75,-129.75 131.69,-119.14 123.96,-100.3 119.89,-85.83"/>
<polygon fill="#63b8ff" stroke="#63b8ff" points="123.37,-85.34 117.62,-76.44 116.57,-86.98 123.37,-85.34"/>
</a>
</g>
</g>
<!-- Node6 -->
<g id="Node000006" class="node">
<title>Node6</title>
<g id="a_Node000006"><a xlink:title=" ">
<polygon fill="#e0e0e0" stroke="#999999" points="474.62,-19.25 430.88,-19.25 430.88,0 474.62,0 474.62,-19.25"/>
<text xml:space="preserve" text-anchor="middle" x="452.75" y="-5.75" font-family="Helvetica,sans-Serif" font-size="10.00">format</text>
</a>
</g>
</g>
<!-- Node3&#45;&gt;Node6 -->
<g id="edge20_Node000003_Node000006" class="edge">
<title>Node3&#45;&gt;Node6</title>
<g id="a_edge20_Node000003_Node000006"><a xlink:title=" ">
<path fill="none" stroke="#63b8ff" d="M476.5,-170.89C521.27,-151.62 613.52,-104.45 578.75,-55.25 573.16,-47.34 521.28,-30.77 485.86,-20.2"/>
<polygon fill="#63b8ff" stroke="#63b8ff" points="487.05,-16.9 476.47,-17.42 485.07,-23.61 487.05,-16.9"/>
</a>
</g>
</g>
<!-- Node7 -->
<g id="Node000007" class="node">
<title>Node7</title>
<g id="a_Node000007"><a xlink:title=" ">
<polygon fill="#e0e0e0" stroke="#999999" points="65.5,-19.25 0,-19.25 0,0 65.5,0 65.5,-19.25"/>
<text xml:space="preserve" text-anchor="middle" x="32.75" y="-5.75" font-family="Helvetica,sans-Serif" font-size="10.00">string_view</text>
</a>
</g>
</g>
<!-- Node3&#45;&gt;Node7 -->
<g id="edge23_Node000003_Node000007" class="edge">
<title>Node3&#45;&gt;Node7</title>
<g id="a_edge23_Node000003_Node000007"><a xlink:title=" ">
<path fill="none" stroke="#63b8ff" d="M406.1,-178.66C340.9,-175.52 221.13,-164.98 125.75,-129.75 82.08,-113.62 60.64,-114.46 36.75,-74.5 28.97,-61.49 28.35,-44.21 29.46,-30.9"/>
<polygon fill="#63b8ff" stroke="#63b8ff" points="32.91,-31.49 30.69,-21.13 25.97,-30.62 32.91,-31.49"/>
</a>
</g>
</g>
<!-- Node8 -->
<g id="Node000008" class="node">
<title>Node8</title>
<g id="a_Node000008"><a xlink:title=" ">
<polygon fill="#e0e0e0" stroke="#999999" points="532.38,-19.25 493.12,-19.25 493.12,0 532.38,0 532.38,-19.25"/>
<text xml:space="preserve" text-anchor="middle" x="512.75" y="-5.75" font-family="Helvetica,sans-Serif" font-size="10.00">utility</text>
</a>
</g>
</g>
<!-- Node3&#45;&gt;Node8 -->
<g id="edge25_Node000003_Node000008" class="edge">
<title>Node3&#45;&gt;Node8</title>
<g id="a_edge25_Node000003_Node000008"><a xlink:title=" ">
<path fill="none" stroke="#63b8ff" d="M497.16,-170.94C522.64,-163.64 553.83,-150.97 574.75,-129.75 593.3,-110.92 591.77,-100.46 596.75,-74.5 598.36,-66.1 601.16,-62.58 596.75,-55.25 585.28,-36.17 562.6,-24.81 543.7,-18.33"/>
<polygon fill="#63b8ff" stroke="#63b8ff" points="544.87,-15.03 534.28,-15.43 542.8,-21.72 544.87,-15.03"/>
</a>
</g>
</g>
<!-- Node10 -->
<g id="Node000010" class="node">
<title>Node10</title>
<g id="a_Node000010"><a xlink:href="Error_8hpp.html" target="_top" xlink:title="Error handling system with categorized error codes.">
<polygon fill="white" stroke="#666666" points="497,-129.75 410.5,-129.75 410.5,-110.5 497,-110.5 497,-129.75"/>
<text xml:space="preserve" text-anchor="middle" x="453.75" y="-116.25" font-family="Helvetica,sans-Serif" font-size="10.00">RType/Error.hpp</text>
</a>
</g>
</g>
<!-- Node3&#45;&gt;Node10 -->
<g id="edge9_Node000003_Node000010" class="edge">
<title>Node3&#45;&gt;Node10</title>
<g id="a_edge9_Node000003_Node000010"><a xlink:title=" ">
<path fill="none" stroke="#63b8ff" d="M453.75,-171.06C453.75,-163.28 453.75,-151.7 453.75,-141.66"/>
<polygon fill="#63b8ff" stroke="#63b8ff" points="457.25,-141.66 453.75,-131.66 450.25,-141.66 457.25,-141.66"/>
</a>
</g>
</g>
<!-- Node11 -->
<g id="Node000011" class="node">
<title>Node11</title>
<g id="a_Node000011"><a xlink:title=" ">
<polygon fill="#e0e0e0" stroke="#999999" points="569.75,-74.5 529.75,-74.5 529.75,-55.25 569.75,-55.25 569.75,-74.5"/>
<text xml:space="preserve" text-anchor="middle" x="549.75" y="-61" font-family="Helvetica,sans-Serif" font-size="10.00">string</text>
</a>
</g>
</g>
<!-- Node3&#45;&gt;Node11 -->
<g id="edge22_Node000003_Node000011" class="edge">
<title>Node3&#45;&gt;Node11</title>
<g id="a_edge22_Node000003_Node000011"><a xlink:title=" ">
<path fill="none" stroke="#63b8ff" d="M464.32,-170.93C475.27,-161.27 492.6,-145.27 505.75,-129.75 517.98,-115.32 530.03,-97.5 538.42,-84.35"/>
<polygon fill="#63b8ff" stroke="#63b8ff" points="541.16,-86.57 543.5,-76.24 535.22,-82.86 541.16,-86.57"/>
</a>
</g>
</g>
<!-- Node15 -->
<g id="Node000015" class="node">
<title>Node15</title>
<g id="a_Node000015"><a xlink:title=" ">
<polygon fill="#e0e0e0" stroke="#999999" points="210.62,-129.75 154.88,-129.75 154.88,-110.5 210.62,-110.5 210.62,-129.75"/>
<text xml:space="preserve" text-anchor="middle" x="182.75" y="-116.25" font-family="Helvetica,sans-Serif" font-size="10.00">expected</text>
</a>
</g>
</g>
<!-- Node3&#45;&gt;Node15 -->
<g id="edge19_Node000003_Node000015" class="edge">
<title>Node3&#45;&gt;Node15</title>
<g id="a_edge19_Node000003_Node000015"><a xlink:title=" ">
<path fill="none" stroke="#63b8ff" d="M410.57,-170.96C365.87,-161.56 293.73,-146.23 222.05,-130.24"/>
<polygon fill="#63b8ff" stroke="#63b8ff" points="223.02,-126.87 212.5,-128.1 221.49,-133.7 223.02,-126.87"/>
</a>
</g>
</g>
<!-- Node16 -->
<g id="Node000016" class="node">
<title>Node16</title>
<g id="a_Node000016"><a xlink:title=" ">
<polygon fill="#e0e0e0" stroke="#999999" points="312.88,-129.75 228.62,-129.75 228.62,-110.5 312.88,-110.5 312.88,-129.75"/>
<text xml:space="preserve" text-anchor="middle" x="270.75" y="-116.25" font-family="Helvetica,sans-Serif" font-size="10.00">source_location</text>
</a>
</g>
</g>
<!-- Node3&#45;&gt;Node16 -->
<g id="edge21_Node000003_Node000016" class="edge">
<title>Node3&#45;&gt;Node16</title>
<g id="a_edge21_Node000003_Node000016"><a xlink:title=" ">
<path fill="none" stroke="#63b8ff" d="M425.56,-170.93C394.53,-160.95 344.44,-144.83 309.68,-133.65"/>
<polygon fill="#63b8ff" stroke="#63b8ff" points="311.01,-130.4 300.42,-130.67 308.86,-137.06 311.01,-130.4"/>
</a>
</g>
</g>
<!-- Node17 -->
<g id="Node000017" class="node">
<title>Node17</title>
<g id="a_Node000017"><a xlink:title=" ">
<polygon fill="#e0e0e0" stroke="#999999" points="725.62,-129.75 663.88,-129.75 663.88,-110.5 725.62,-110.5 725.62,-129.75"/>
<text xml:space="preserve" text-anchor="middle" x="694.75" y="-116.25" font-family="Helvetica,sans-Serif" font-size="10.00">type_traits</text>
</a>
</g>
</g>
<!-- Node3&#45;&gt;Node17 -->
<g id="edge24_Node000003_Node000017" class="edge">
<title>Node3&#45;&gt;Node17</title>
<g id="a_edge24_Node000003_Node000017"><a xlink:title=" ">
<path fill="none" stroke="#63b8ff" d="M490.88,-170.93C534.58,-160.25 606.96,-142.57 652.69,-131.4"/>
<polygon fill="#63b8ff" stroke="#63b8ff" points="653.36,-134.84 662.24,-129.07 651.7,-128.04 653.36,-134.84"/>
</a>
</g>
</g>
<!-- Node18 -->
<g id="Node000018" class="node">
<title>Node18</title>
<g id="a_Node000018"><a xlink:href="Logger_8tpp.html" target="_top" xlink:title=" ">
<polygon fill="white" stroke="#666666" points="392.25,-129.75 331.25,-129.75 331.25,-110.5 392.25,-110.5 392.25,-129.75"/>
<text xml:space="preserve" text-anchor="middle" x="361.75" y="-116.25" font-family="Helvetica,sans-Serif" font-size="10.00">Logger.tpp</text>
</a>
</g>
</g>
<!-- Node3&#45;&gt;Node18 -->
<g id="edge26_Node000003_Node000018" class="edge">
<title>Node3&#45;&gt;Node18</title>
<g id="a_edge26_Node000003_Node000018"><a xlink:title=" ">
<path fill="none" stroke="#63b8ff" d="M439.78,-171.06C425.32,-161.81 402.49,-147.2 385.25,-136.17"/>
<polygon fill="#63b8ff" stroke="#63b8ff" points="387.44,-133.41 377.13,-130.97 383.67,-139.31 387.44,-133.41"/>
</a>
</g>
</g>
<!-- Node5 -->
<g id="Node000005" class="node">
<title>Node5</title>
<g id="a_Node000005"><a xlink:title=" ">
<polygon fill="#e0e0e0" stroke="#999999" points="251.38,-19.25 206.12,-19.25 206.12,0 251.38,0 251.38,-19.25"/>
<text xml:space="preserve" text-anchor="middle" x="228.75" y="-5.75" font-family="Helvetica,sans-Serif" font-size="10.00">cstdint</text>
</a>
</g>
</g>
<!-- Node4&#45;&gt;Node5 -->
<g id="edge4_Node000004_Node000005" class="edge">
<title>Node4&#45;&gt;Node5</title>
<g id="a_edge4_Node000004_Node000005"><a xlink:title=" ">
<path fill="none" stroke="#63b8ff" d="M134.92,-54.84C152.53,-46.54 178.91,-34.11 199.21,-24.54"/>
<polygon fill="#63b8ff" stroke="#63b8ff" points="200.56,-27.78 208.12,-20.35 197.58,-21.44 200.56,-27.78"/>
</a>
</g>
</g>
<!-- Node4&#45;&gt;Node6 -->
<g id="edge5_Node000004_Node000006" class="edge">
<title>Node4&#45;&gt;Node6</title>
<g id="a_edge5_Node000004_Node000006"><a xlink:title=" ">
<path fill="none" stroke="#63b8ff" d="M168.78,-55.5C239.01,-44.4 360.81,-25.15 419.39,-15.9"/>
<polygon fill="#63b8ff" stroke="#63b8ff" points="419.74,-19.39 429.07,-14.37 418.64,-12.47 419.74,-19.39"/>
</a>
</g>
</g>
<!-- Node4&#45;&gt;Node7 -->
<g id="edge6_Node000004_Node000007" class="edge">
<title>Node4&#45;&gt;Node7</title>
<g id="a_edge6_Node000004_Node000007"><a xlink:title=" ">
<path fill="none" stroke="#63b8ff" d="M101.67,-54.84C89.27,-46.89 70.96,-35.14 56.32,-25.75"/>
<polygon fill="#63b8ff" stroke="#63b8ff" points="58.48,-22.97 48.17,-20.52 54.7,-28.87 58.48,-22.97"/>
</a>
</g>
</g>
<!-- Node4&#45;&gt;Node8 -->
<g id="edge7_Node000004_Node000008" class="edge">
<title>Node4&#45;&gt;Node8</title>
<g id="a_edge7_Node000004_Node000008"><a xlink:title=" ">
<path fill="none" stroke="#63b8ff" d="M168.84,-56.41C171.85,-56.01 174.84,-55.62 177.75,-55.25 309.99,-38.27 347.66,-46.41 481.78,-19.3"/>
<polygon fill="#63b8ff" stroke="#63b8ff" points="482.32,-22.76 491.41,-17.32 480.91,-15.91 482.32,-22.76"/>
</a>
</g>
</g>
<!-- Node9 -->
<g id="Node000009" class="node">
<title>Node9</title>
<g id="a_Node000009"><a xlink:title=" ">
<polygon fill="#e0e0e0" stroke="#999999" points="151.62,-19.25 83.88,-19.25 83.88,0 151.62,0 151.62,-19.25"/>
<text xml:space="preserve" text-anchor="middle" x="117.75" y="-5.75" font-family="Helvetica,sans-Serif" font-size="10.00">LogLevel.inl</text>
</a>
</g>
</g>
<!-- Node4&#45;&gt;Node9 -->
<g id="edge8_Node000004_Node000009" class="edge">
<title>Node4&#45;&gt;Node9</title>
<g id="a_edge8_Node000004_Node000009"><a xlink:title=" ">
<path fill="none" stroke="#63b8ff" d="M116.08,-55.08C116.33,-48.49 116.68,-39.21 116.99,-30.82"/>
<polygon fill="#63b8ff" stroke="#63b8ff" points="120.48,-31.25 117.36,-21.12 113.48,-30.98 120.48,-31.25"/>
</a>
</g>
</g>
<!-- Node10&#45;&gt;Node4 -->
<g id="edge10_Node000010_Node000004" class="edge">
<title>Node10&#45;&gt;Node4</title>
<g id="a_edge10_Node000010_Node000004"><a xlink:title=" ">
<path fill="none" stroke="#63b8ff" d="M410.08,-112C406.92,-111.49 403.79,-110.99 400.75,-110.5 324.94,-98.4 237.74,-84.79 179.97,-75.82"/>
<polygon fill="#63b8ff" stroke="#63b8ff" points="180.73,-72.39 170.31,-74.32 179.66,-79.31 180.73,-72.39"/>
</a>
</g>
</g>
<!-- Node10&#45;&gt;Node5 -->
<g id="edge11_Node000010_Node000005" class="edge">
<title>Node10&#45;&gt;Node5</title>
<g id="a_edge11_Node000010_Node000005"><a xlink:title=" ">
<path fill="none" stroke="#63b8ff" d="M410.07,-110.5C367.56,-101.59 306.45,-87.22 285.75,-74.5 267,-62.98 250.87,-43.42 240.6,-28.97"/>
<polygon fill="#63b8ff" stroke="#63b8ff" points="243.57,-27.11 235.06,-20.8 237.78,-31.04 243.57,-27.11"/>
</a>
</g>
</g>
<!-- Node10&#45;&gt;Node6 -->
<g id="edge12_Node000010_Node000006" class="edge">
<title>Node10&#45;&gt;Node6</title>
<g id="a_edge12_Node000010_Node000006"><a xlink:title=" ">
<path fill="none" stroke="#63b8ff" d="M453.67,-110.25C453.51,-93 453.16,-54.58 452.94,-30.81"/>
<polygon fill="#63b8ff" stroke="#63b8ff" points="456.44,-31.11 452.85,-21.14 449.44,-31.17 456.44,-31.11"/>
</a>
</g>
</g>
<!-- Node10&#45;&gt;Node7 -->
<g id="edge14_Node000010_Node000007" class="edge">
<title>Node10&#45;&gt;Node7</title>
<g id="a_edge14_Node000010_Node000007"><a xlink:title=" ">
<path fill="none" stroke="#63b8ff" d="M410.11,-111.82C406.94,-111.35 403.8,-110.91 400.75,-110.5 323.9,-100.27 114.12,-123.14 53.75,-74.5 40.81,-64.08 35.77,-45.5 33.84,-31.06"/>
<polygon fill="#63b8ff" stroke="#63b8ff" points="37.34,-30.9 32.97,-21.25 30.37,-31.52 37.34,-30.9"/>
</a>
</g>
</g>
<!-- Node10&#45;&gt;Node8 -->
<g id="edge16_Node000010_Node000008" class="edge">
<title>Node10&#45;&gt;Node8</title>
<g id="a_edge16_Node000010_Node000008"><a xlink:title=" ">
<path fill="none" stroke="#63b8ff" d="M458.58,-110.25C468.13,-92.68 489.62,-53.16 502.48,-29.52"/>
<polygon fill="#63b8ff" stroke="#63b8ff" points="505.43,-31.41 507.13,-20.96 499.28,-28.07 505.43,-31.41"/>
</a>
</g>
</g>
<!-- Node10&#45;&gt;Node11 -->
<g id="edge13_Node000010_Node000011" class="edge">
<title>Node10&#45;&gt;Node11</title>
<g id="a_edge13_Node000010_Node000011"><a xlink:title=" ">
<path fill="none" stroke="#63b8ff" d="M470.04,-110.09C484.65,-101.98 506.38,-89.93 523.46,-80.46"/>
<polygon fill="#63b8ff" stroke="#63b8ff" points="525.01,-83.6 532.06,-75.69 521.62,-77.48 525.01,-83.6"/>
</a>
</g>
</g>
<!-- Node12 -->
<g id="Node000012" class="node">
<title>Node12</title>
<g id="a_Node000012"><a xlink:title=" ">
<polygon fill="#e0e0e0" stroke="#999999" points="368.25,-74.5 295.25,-74.5 295.25,-55.25 368.25,-55.25 368.25,-74.5"/>
<text xml:space="preserve" text-anchor="middle" x="331.75" y="-61" font-family="Helvetica,sans-Serif" font-size="10.00">system_error</text>
</a>
</g>
</g>
<!-- Node10&#45;&gt;Node12 -->
<g id="edge15_Node000010_Node000012" class="edge">
<title>Node10&#45;&gt;Node12</title>
<g id="a_edge15_Node000010_Node000012"><a xlink:title=" ">
<path fill="none" stroke="#63b8ff" d="M433.05,-110.09C413.86,-101.72 385.04,-89.13 363.03,-79.53"/>
<polygon fill="#63b8ff" stroke="#63b8ff" points="364.5,-76.35 353.93,-75.56 361.7,-82.77 364.5,-76.35"/>
</a>
</g>
</g>
<!-- Node13 -->
<g id="Node000013" class="node">
<title>Node13</title>
<g id="a_Node000013"><a xlink:title=" ">
<polygon fill="#e0e0e0" stroke="#999999" points="435.25,-74.5 386.25,-74.5 386.25,-55.25 435.25,-55.25 435.25,-74.5"/>
<text xml:space="preserve" text-anchor="middle" x="410.75" y="-61" font-family="Helvetica,sans-Serif" font-size="10.00">Error.inl</text>
</a>
</g>
</g>
<!-- Node10&#45;&gt;Node13 -->
<g id="edge17_Node000010_Node000013" class="edge">
<title>Node10&#45;&gt;Node13</title>
<g id="a_edge17_Node000010_Node000013"><a xlink:title=" ">
<path fill="none" stroke="#63b8ff" d="M446.65,-110.33C440.83,-103.13 432.42,-92.71 425.19,-83.76"/>
<polygon fill="#63b8ff" stroke="#63b8ff" points="427.96,-81.62 418.96,-76.04 422.52,-86.02 427.96,-81.62"/>
</a>
</g>
</g>
<!-- Node14 -->
<g id="Node000014" class="node">
<title>Node14</title>
<g id="a_Node000014"><a xlink:href="Error_8tpp.html" target="_top" xlink:title=" ">
<polygon fill="white" stroke="#666666" points="239.12,-74.5 186.38,-74.5 186.38,-55.25 239.12,-55.25 239.12,-74.5"/>
<text xml:space="preserve" text-anchor="middle" x="212.75" y="-61" font-family="Helvetica,sans-Serif" font-size="10.00">Error.tpp</text>
</a>
</g>
</g>
<!-- Node10&#45;&gt;Node14 -->
<g id="edge18_Node000010_Node000014" class="edge">
<title>Node10&#45;&gt;Node14</title>
<g id="a_edge18_Node000010_Node000014"><a xlink:title=" ">
<path fill="none" stroke="#63b8ff" d="M412.59,-110.03C367.18,-100 294.7,-83.98 250.63,-74.25"/>
<polygon fill="#63b8ff" stroke="#63b8ff" points="251.54,-70.86 241.02,-72.12 250.03,-77.7 251.54,-70.86"/>
</a>
</g>
</g>
<!-- Node21 -->
<g id="Node000021" class="node">
<title>Node21</title>
<g id="a_Node000021"><a xlink:href="NumericConcept_8hpp.html" target="_top" xlink:title="Definition of the Numeric concept.">
<polygon fill="white" stroke="#666666" points="750.38,-196.25 639.12,-196.25 639.12,-165.75 750.38,-165.75 750.38,-196.25"/>
<text xml:space="preserve" text-anchor="start" x="647.12" y="-182.75" font-family="Helvetica,sans-Serif" font-size="10.00">RType/Math/details</text>
<text xml:space="preserve" text-anchor="middle" x="694.75" y="-171.5" font-family="Helvetica,sans-Serif" font-size="10.00">/NumericConcept.hpp</text>
</a>
</g>
</g>
<!-- Node20&#45;&gt;Node21 -->
<g id="edge29_Node000020_Node000021" class="edge">
<title>Node20&#45;&gt;Node21</title>
<g id="a_edge29_Node000020_Node000021"><a xlink:title=" ">
<path fill="none" stroke="#63b8ff" d="M768.19,-231.86C755.56,-223.29 739.4,-212.31 725.45,-202.84"/>
<polygon fill="#63b8ff" stroke="#63b8ff" points="727.71,-200.15 717.47,-197.43 723.78,-205.94 727.71,-200.15"/>
</a>
</g>
</g>
<!-- Node23 -->
<g id="Node000023" class="node">
<title>Node23</title>
<g id="a_Node000023"><a xlink:title=" ">
<polygon fill="#e0e0e0" stroke="#999999" points="811.25,-190.62 768.25,-190.62 768.25,-171.38 811.25,-171.38 811.25,-190.62"/>
<text xml:space="preserve" text-anchor="middle" x="789.75" y="-177.12" font-family="Helvetica,sans-Serif" font-size="10.00">cmath</text>
</a>
</g>
</g>
<!-- Node20&#45;&gt;Node23 -->
<g id="edge32_Node000020_Node000023" class="edge">
<title>Node20&#45;&gt;Node23</title>
<g id="a_edge32_Node000020_Node000023"><a xlink:title=" ">
<path fill="none" stroke="#63b8ff" d="M789.75,-231.86C789.75,-223.08 789.75,-211.77 789.75,-202.15"/>
<polygon fill="#63b8ff" stroke="#63b8ff" points="793.25,-202.34 789.75,-192.34 786.25,-202.34 793.25,-202.34"/>
</a>
</g>
</g>
<!-- Node24 -->
<g id="Node000024" class="node">
<title>Node24</title>
<g id="a_Node000024"><a xlink:title=" ">
<polygon fill="#e0e0e0" stroke="#999999" points="882.5,-190.62 829,-190.62 829,-171.38 882.5,-171.38 882.5,-190.62"/>
<text xml:space="preserve" text-anchor="middle" x="855.75" y="-177.12" font-family="Helvetica,sans-Serif" font-size="10.00">iostream</text>
</a>
</g>
</g>
<!-- Node20&#45;&gt;Node24 -->
<g id="edge33_Node000020_Node000024" class="edge">
<title>Node20&#45;&gt;Node24</title>
<g id="a_edge33_Node000020_Node000024"><a xlink:title=" ">
<path fill="none" stroke="#63b8ff" d="M804.73,-231.86C814.83,-221.99 828.18,-208.94 838.69,-198.67"/>
<polygon fill="#63b8ff" stroke="#63b8ff" points="840.93,-201.37 845.64,-191.88 836.04,-196.37 840.93,-201.37"/>
</a>
</g>
</g>
<!-- Node25 -->
<g id="Node000025" class="node">
<title>Node25</title>
<g id="a_Node000025"><a xlink:href="VecBase_8tpp.html" target="_top" xlink:title=" ">
<polygon fill="white" stroke="#666666" points="972.88,-190.62 900.62,-190.62 900.62,-171.38 972.88,-171.38 972.88,-190.62"/>
<text xml:space="preserve" text-anchor="middle" x="936.75" y="-177.12" font-family="Helvetica,sans-Serif" font-size="10.00">VecBase.tpp</text>
</a>
</g>
</g>
<!-- Node20&#45;&gt;Node25 -->
<g id="edge34_Node000020_Node000025" class="edge">
<title>Node20&#45;&gt;Node25</title>
<g id="a_edge34_Node000020_Node000025"><a xlink:title=" ">
<path fill="none" stroke="#63b8ff" d="M823.11,-231.86C847.94,-220.97 881.58,-206.21 905.81,-195.58"/>
<polygon fill="#63b8ff" stroke="#63b8ff" points="907.08,-198.84 914.83,-191.62 904.27,-192.43 907.08,-198.84"/>
</a>
</g>
</g>
<!-- Node21&#45;&gt;Node17 -->
<g id="edge31_Node000021_Node000017" class="edge">
<title>Node21&#45;&gt;Node17</title>
<g id="a_edge31_Node000021_Node000017"><a xlink:title=" ">
<path fill="none" stroke="#63b8ff" d="M694.75,-165.45C694.75,-158.21 694.75,-149.34 694.75,-141.44"/>
<polygon fill="#63b8ff" stroke="#63b8ff" points="698.25,-141.71 694.75,-131.71 691.25,-141.71 698.25,-141.71"/>
</a>
</g>
</g>
<!-- Node22 -->
<g id="Node000022" class="node">
<title>Node22</title>
<g id="a_Node000022"><a xlink:title=" ">
<polygon fill="#e0e0e0" stroke="#999999" points="799.62,-129.75 743.88,-129.75 743.88,-110.5 799.62,-110.5 799.62,-129.75"/>
<text xml:space="preserve" text-anchor="middle" x="771.75" y="-116.25" font-family="Helvetica,sans-Serif" font-size="10.00">concepts</text>
</a>
</g>
</g>
<!-- Node21&#45;&gt;Node22 -->
<g id="edge30_Node000021_Node000022" class="edge">
<title>Node21&#45;&gt;Node22</title>
<g id="a_edge30_Node000021_Node000022"><a xlink:title=" ">
<path fill="none" stroke="#63b8ff" d="M713.78,-165.45C725.06,-156.83 739.35,-145.9 750.92,-137.05"/>
<polygon fill="#63b8ff" stroke="#63b8ff" points="752.86,-139.98 758.68,-131.12 748.61,-134.41 752.86,-139.98"/>
</a>
</g>
</g>
</g>
</svg>
