<?xml version="1.0" encoding="UTF-8" standalone="no"?>
<!DOCTYPE svg PUBLIC "-//W3C//DTD SVG 1.1//EN"
 "http://www.w3.org/Graphics/SVG/1.1/DTD/svg11.dtd">
<!-- Generated by graphviz version 14.0.5 (20251129.0259)
 -->
<!-- Title: common/include/RType/Math/Vec.hpp Pages: 1 -->
<!--zoomable 404 -->

<svg id="main" version="1.1" xmlns="http://www.w3.org/2000/svg" xmlns:xlink="http://www.w3.org/1999/xlink" xml:space="preserve" onload="init(evt)">

<style type="text/css"><![CDATA[
.node, .edge {opacity: 0.7;}
.node.selected, .edge.selected {opacity: 1;}
.edge:hover path { stroke: red; }
.edge:hover polygon { stroke: red; fill: red; }
]]></style>

<defs>
  <circle id="rim" cx="0" cy="0" r="7"/>
  <circle id="rim2" cx="0" cy="0" r="3.5"/>
  <g id="zoomPlus">
    <use xlink:href="#rim" fill="#404040"><set attributeName="fill" to="#808080" begin="zoomplus.mouseover" end="zoomplus.mouseout"/></use>
    <path d="M-4,0h8M0,-4v8" fill="none" stroke="white" stroke-width="1.5" pointer-events="none"/>
  </g>
  <g id="zoomMin">
    <use xlink:href="#rim" fill="#404040"><set attributeName="fill" to="#808080" begin="zoomminus.mouseover" end="zoomminus.mouseout"/></use>
    <path d="M-4,0h8" fill="none" stroke="white" stroke-width="1.5" pointer-events="none"/>
  </g>
  <g id="arrowUp" transform="translate(30 24)">
    <use xlink:href="#rim"/>
    <path pointer-events="none" fill="none" stroke="white" stroke-width="1.5" d="M0,-3.0v7 M-2.5,-0.5L0,-3.0L2.5,-0.5"/>
  </g>
  <g id="arrowRight" transform="rotate(90) translate(36 -43)">
    <use xlink:href="#rim"/>
    <path pointer-events="none" fill="none" stroke="white" stroke-width="1.5" d="M0,-3.0v7 M-2.5,-0.5L0,-3.0L2.5,-0.5"/>
  </g>
  <g id="arrowDown" transform="rotate(180) translate(-30 -48)">
    <use xlink:href="#rim"/>
    <path pointer-events="none" fill="none" stroke="white" stroke-width="1.5" d="M0,-3.0v7 M-2.5,-0.5L0,-3.0L2.5,-0.5"/>
  </g>
  <g id="arrowLeft" transform="rotate(270) translate(-36 17)">
    <use xlink:href="#rim"/>
    <path pointer-events="none" fill="none" stroke="white" stroke-width="1.5" d="M0,-3.0v7 M-2.5,-0.5L0,-3.0L2.5,-0.5"/>
  </g>
  <g id="resetDef">
    <use xlink:href="#rim2" fill="#404040"><set attributeName="fill" to="#808080" begin="reset.mouseover" end="reset.mouseout"/></use>
  </g>
</defs>
<script type="application/ecmascript">
var viewWidth = 977;
var viewHeight = 404;
var sectionId = 'dynsection-0';
</script>
<script type="application/ecmascript" xlink:href="svg.min.js"/>
<svg id="graph" class="graph">
<g id="viewport">
<title>common/include/RType/Math/Vec.hpp</title>
<!-- Node1 -->
<g id="Node000001" class="node">
<title>Node1</title>
<g id="a_Node000001"><a xlink:title="Smart alias that selects the optimized struct based on N.">
<polygon fill="#999999" stroke="#666666" points="787.12,-395.75 668.38,-395.75 668.38,-365.25 787.12,-365.25 787.12,-395.75"/>
<text xml:space="preserve" text-anchor="start" x="676.38" y="-382.25" font-family="Helvetica,sans-Serif" font-size="10.00">common/include/RType</text>
<text xml:space="preserve" text-anchor="middle" x="727.75" y="-371" font-family="Helvetica,sans-Serif" font-size="10.00">/Math/Vec.hpp</text>
</a>
</g>
</g>
<!-- Node2 -->
<g id="Node000002" class="node">
<title>Node2</title>
<g id="a_Node000002"><a xlink:href="Vec2_8hpp.html" target="_top" xlink:title="Declaration of the 2&#45;dimensional vector class.">
<polygon fill="white" stroke="#666666" points="520.5,-323.62 407,-323.62 407,-304.38 520.5,-304.38 520.5,-323.62"/>
<text xml:space="preserve" text-anchor="middle" x="463.75" y="-310.12" font-family="Helvetica,sans-Serif" font-size="10.00">RType/Math/Vec2.hpp</text>
</a>
</g>
</g>
<!-- Node1&#45;&gt;Node2 -->
<g id="edge1_Node000001_Node000002" class="edge">
<title>Node1&#45;&gt;Node2</title>
<g id="a_edge1_Node000001_Node000002"><a xlink:title=" ">
<path fill="none" stroke="#63b8ff" d="M668.17,-364.94C620.89,-353.39 555.64,-337.45 511.69,-326.71"/>
<polygon fill="#63b8ff" stroke="#63b8ff" points="512.74,-323.37 502.19,-324.39 511.08,-330.17 512.74,-323.37"/>
</a>
</g>
</g>
<!-- Node18 -->
<g id="Node000018" class="node">
<title>Node18</title>
<g id="a_Node000018"><a xlink:title=" ">
<polygon fill="#e0e0e0" stroke="#999999" points="726.62,-129.75 664.88,-129.75 664.88,-110.5 726.62,-110.5 726.62,-129.75"/>
<text xml:space="preserve" text-anchor="middle" x="695.75" y="-116.25" font-family="Helvetica,sans-Serif" font-size="10.00">type_traits</text>
</a>
</g>
</g>
<!-- Node1&#45;&gt;Node18 -->
<g id="edge46_Node000001_Node000018" class="edge">
<title>Node1&#45;&gt;Node18</title>
<g id="a_edge46_Node000001_Node000018"><a xlink:title=" ">
<path fill="none" stroke="#63b8ff" d="M755.35,-364.82C768.93,-356.21 784.36,-344.1 793.75,-329.25 833.15,-266.93 864.3,-225.96 821.75,-165.75 811.78,-151.64 770.76,-138.84 738.2,-130.61"/>
<polygon fill="#63b8ff" stroke="#63b8ff" points="739.11,-127.23 728.57,-128.25 737.45,-134.03 739.11,-127.23"/>
</a>
</g>
</g>
<!-- Node28 -->
<g id="Node000028" class="node">
<title>Node28</title>
<g id="a_Node000028"><a xlink:href="Vec3_8hpp.html" target="_top" xlink:title="Declaration of the 3&#45;dimensional vector class.">
<polygon fill="white" stroke="#666666" points="652.5,-323.62 539,-323.62 539,-304.38 652.5,-304.38 652.5,-323.62"/>
<text xml:space="preserve" text-anchor="middle" x="595.75" y="-310.12" font-family="Helvetica,sans-Serif" font-size="10.00">RType/Math/Vec3.hpp</text>
</a>
</g>
</g>
<!-- Node1&#45;&gt;Node28 -->
<g id="edge37_Node000001_Node000028" class="edge">
<title>Node1&#45;&gt;Node28</title>
<g id="a_edge37_Node000001_Node000028"><a xlink:title=" ">
<path fill="none" stroke="#63b8ff" d="M697.8,-364.86C675.8,-354.12 646.1,-339.61 624.42,-329.01"/>
<polygon fill="#63b8ff" stroke="#63b8ff" points="626.07,-325.92 615.55,-324.67 623,-332.21 626.07,-325.92"/>
</a>
</g>
</g>
<!-- Node30 -->
<g id="Node000030" class="node">
<title>Node30</title>
<g id="a_Node000030"><a xlink:href="Vec4_8hpp.html" target="_top" xlink:title="Declaration of the 4&#45;dimensional vector class.">
<polygon fill="white" stroke="#666666" points="784.5,-323.62 671,-323.62 671,-304.38 784.5,-304.38 784.5,-323.62"/>
<text xml:space="preserve" text-anchor="middle" x="727.75" y="-310.12" font-family="Helvetica,sans-Serif" font-size="10.00">RType/Math/Vec4.hpp</text>
</a>
</g>
</g>
<!-- Node1&#45;&gt;Node30 -->
<g id="edge41_Node000001_Node000030" class="edge">
<title>Node1&#45;&gt;Node30</title>
<g id="a_edge41_Node000001_Node000030"><a xlink:title=" ">
<path fill="none" stroke="#63b8ff" d="M727.75,-364.86C727.75,-356.08 727.75,-344.77 727.75,-335.15"/>
<polygon fill="#63b8ff" stroke="#63b8ff" points="731.25,-335.34 727.75,-325.34 724.25,-335.34 731.25,-335.34"/>
</a>
</g>
</g>
<!-- Node32 -->
<g id="Node000032" class="node">
<title>Node32</title>
<g id="a_Node000032"><a xlink:href="VecN_8hpp.html" target="_top" xlink:title=" ">
<polygon fill="white" stroke="#666666" points="969.12,-329.25 868.38,-329.25 868.38,-298.75 969.12,-298.75 969.12,-329.25"/>
<text xml:space="preserve" text-anchor="start" x="876.38" y="-315.75" font-family="Helvetica,sans-Serif" font-size="10.00">RType/Math/details</text>
<text xml:space="preserve" text-anchor="middle" x="918.75" y="-304.5" font-family="Helvetica,sans-Serif" font-size="10.00">/VecN.hpp</text>
</a>
</g>
</g>
<!-- Node1&#45;&gt;Node32 -->
<g id="edge45_Node000001_Node000032" class="edge">
<title>Node1&#45;&gt;Node32</title>
<g id="a_edge45_Node000001_Node000032"><a xlink:title=" ">
<path fill="none" stroke="#63b8ff" d="M771.09,-364.86C798.83,-355.5 835.04,-343.27 864.66,-333.26"/>
<polygon fill="#63b8ff" stroke="#63b8ff" points="865.46,-336.69 873.82,-330.17 863.22,-330.06 865.46,-336.69"/>
</a>
</g>
</g>
<!-- Node3 -->
<g id="Node000003" class="node">
<title>Node3</title>
<g id="a_Node000003"><a xlink:href="Assert_8hpp.html" target="_top" xlink:title="Assertion and verification macros for runtime checks.">
<polygon fill="white" stroke="#666666" points="545.12,-257.12 450.38,-257.12 450.38,-237.88 545.12,-237.88 545.12,-257.12"/>
<text xml:space="preserve" text-anchor="middle" x="497.75" y="-243.62" font-family="Helvetica,sans-Serif" font-size="10.00">RType/Assert.hpp</text>
</a>
</g>
</g>
<!-- Node2&#45;&gt;Node3 -->
<g id="edge2_Node000002_Node000003" class="edge">
<title>Node2&#45;&gt;Node3</title>
<g id="a_edge2_Node000002_Node000003"><a xlink:title=" ">
<path fill="none" stroke="#63b8ff" d="M468.48,-304.03C473.45,-294.6 481.42,-279.47 487.8,-267.38"/>
<polygon fill="#63b8ff" stroke="#63b8ff" points="490.79,-269.21 492.36,-258.73 484.6,-265.95 490.79,-269.21"/>
</a>
</g>
</g>
<!-- Node21 -->
<g id="Node000021" class="node">
<title>Node21</title>
<g id="a_Node000021"><a xlink:href="VecBase_8hpp.html" target="_top" xlink:title="Declaration of the CRTP base vector class.">
<polygon fill="white" stroke="#666666" points="664.12,-262.75 563.38,-262.75 563.38,-232.25 664.12,-232.25 664.12,-262.75"/>
<text xml:space="preserve" text-anchor="start" x="571.38" y="-249.25" font-family="Helvetica,sans-Serif" font-size="10.00">RType/Math/details</text>
<text xml:space="preserve" text-anchor="middle" x="613.75" y="-238" font-family="Helvetica,sans-Serif" font-size="10.00">/VecBase.hpp</text>
</a>
</g>
</g>
<!-- Node2&#45;&gt;Node21 -->
<g id="edge29_Node000002_Node000021" class="edge">
<title>Node2&#45;&gt;Node21</title>
<g id="a_edge29_Node000002_Node000021"><a xlink:title=" ">
<path fill="none" stroke="#63b8ff" d="M484.92,-303.9C506.76,-294.5 541.48,-279.58 569.37,-267.58"/>
<polygon fill="#63b8ff" stroke="#63b8ff" points="570.49,-270.91 578.29,-263.75 567.72,-264.48 570.49,-270.91"/>
</a>
</g>
</g>
<!-- Node27 -->
<g id="Node000027" class="node">
<title>Node27</title>
<g id="a_Node000027"><a xlink:href="Vec2_8tpp.html" target="_top" xlink:title=" ">
<polygon fill="white" stroke="#666666" points="359.25,-257.12 304.25,-257.12 304.25,-237.88 359.25,-237.88 359.25,-257.12"/>
<text xml:space="preserve" text-anchor="middle" x="331.75" y="-243.62" font-family="Helvetica,sans-Serif" font-size="10.00">Vec2.tpp</text>
</a>
</g>
</g>
<!-- Node2&#45;&gt;Node27 -->
<g id="edge36_Node000002_Node000027" class="edge">
<title>Node2&#45;&gt;Node27</title>
<g id="a_edge36_Node000002_Node000027"><a xlink:title=" ">
<path fill="none" stroke="#63b8ff" d="M445.12,-303.9C423.1,-293.14 386.23,-275.12 360.54,-262.57"/>
<polygon fill="#63b8ff" stroke="#63b8ff" points="362.17,-259.47 351.65,-258.22 359.1,-265.76 362.17,-259.47"/>
</a>
</g>
</g>
<!-- Node4 -->
<g id="Node000004" class="node">
<title>Node4</title>
<g id="a_Node000004"><a xlink:href="Logger_8hpp.html" target="_top" xlink:title="Logger declaration with support for multiple log levels.">
<polygon fill="white" stroke="#666666" points="397.12,-190.62 302.38,-190.62 302.38,-171.38 397.12,-171.38 397.12,-190.62"/>
<text xml:space="preserve" text-anchor="middle" x="349.75" y="-177.12" font-family="Helvetica,sans-Serif" font-size="10.00">RType/Logger.hpp</text>
</a>
</g>
</g>
<!-- Node3&#45;&gt;Node4 -->
<g id="edge3_Node000003_Node000004" class="edge">
<title>Node3&#45;&gt;Node4</title>
<g id="a_edge3_Node000003_Node000004"><a xlink:title=" ">
<path fill="none" stroke="#63b8ff" d="M476.86,-237.4C451.85,-226.5 409.73,-208.14 380.88,-195.57"/>
<polygon fill="#63b8ff" stroke="#63b8ff" points="382.49,-192.45 371.92,-191.66 379.69,-198.87 382.49,-192.45"/>
</a>
</g>
</g>
<!-- Node20 -->
<g id="Node000020" class="node">
<title>Node20</title>
<g id="a_Node000020"><a xlink:title=" ">
<polygon fill="#e0e0e0" stroke="#999999" points="460,-190.62 415.5,-190.62 415.5,-171.38 460,-171.38 460,-190.62"/>
<text xml:space="preserve" text-anchor="middle" x="437.75" y="-177.12" font-family="Helvetica,sans-Serif" font-size="10.00">cstdlib</text>
</a>
</g>
</g>
<!-- Node3&#45;&gt;Node20 -->
<g id="edge28_Node000003_Node000020" class="edge">
<title>Node3&#45;&gt;Node20</title>
<g id="a_edge28_Node000003_Node000020"><a xlink:title=" ">
<path fill="none" stroke="#63b8ff" d="M489.41,-237.53C480.18,-227.62 465.11,-211.41 453.62,-199.06"/>
<polygon fill="#63b8ff" stroke="#63b8ff" points="456.43,-196.94 447.05,-192 451.3,-201.71 456.43,-196.94"/>
</a>
</g>
</g>
<!-- Node5 -->
<g id="Node000005" class="node">
<title>Node5</title>
<g id="a_Node000005"><a xlink:href="LogLevel_8hpp.html" target="_top" xlink:title="Log severity levels for the logging system.">
<polygon fill="white" stroke="#666666" points="168.38,-74.5 63.12,-74.5 63.12,-55.25 168.38,-55.25 168.38,-74.5"/>
<text xml:space="preserve" text-anchor="middle" x="115.75" y="-61" font-family="Helvetica,sans-Serif" font-size="10.00">RType/LogLevel.hpp</text>
</a>
</g>
</g>
<!-- Node4&#45;&gt;Node5 -->
<g id="edge4_Node000004_Node000005" class="edge">
<title>Node4&#45;&gt;Node5</title>
<g id="a_edge4_Node000004_Node000005"><a xlink:title=" ">
<path fill="none" stroke="#63b8ff" d="M302,-174.58C245.93,-167.27 157.56,-152.48 133.75,-129.75 121.89,-118.43 117.66,-99.95 116.23,-85.78"/>
<polygon fill="#63b8ff" stroke="#63b8ff" points="119.75,-86.01 115.67,-76.23 112.76,-86.42 119.75,-86.01"/>
</a>
</g>
</g>
<!-- Node7 -->
<g id="Node000007" class="node">
<title>Node7</title>
<g id="a_Node000007"><a xlink:title=" ">
<polygon fill="#e0e0e0" stroke="#999999" points="474.62,-19.25 430.88,-19.25 430.88,0 474.62,0 474.62,-19.25"/>
<text xml:space="preserve" text-anchor="middle" x="452.75" y="-5.75" font-family="Helvetica,sans-Serif" font-size="10.00">format</text>
</a>
</g>
</g>
<!-- Node4&#45;&gt;Node7 -->
<g id="edge21_Node000004_Node000007" class="edge">
<title>Node4&#45;&gt;Node7</title>
<g id="a_edge21_Node000004_Node000007"><a xlink:title=" ">
<path fill="none" stroke="#63b8ff" d="M383.19,-170.93C428.96,-158.39 506.84,-136.52 518.75,-129.75 550.27,-111.84 564.19,-107.7 578.75,-74.5 582.19,-66.66 583.69,-62.24 578.75,-55.25 573.16,-47.34 521.28,-30.77 485.86,-20.2"/>
<polygon fill="#63b8ff" stroke="#63b8ff" points="487.05,-16.9 476.47,-17.42 485.07,-23.61 487.05,-16.9"/>
</a>
</g>
</g>
<!-- Node8 -->
<g id="Node000008" class="node">
<title>Node8</title>
<g id="a_Node000008"><a xlink:title=" ">
<polygon fill="#e0e0e0" stroke="#999999" points="65.5,-19.25 0,-19.25 0,0 65.5,0 65.5,-19.25"/>
<text xml:space="preserve" text-anchor="middle" x="32.75" y="-5.75" font-family="Helvetica,sans-Serif" font-size="10.00">string_view</text>
</a>
</g>
</g>
<!-- Node4&#45;&gt;Node8 -->
<g id="edge24_Node000004_Node000008" class="edge">
<title>Node4&#45;&gt;Node8</title>
<g id="a_edge24_Node000004_Node000008"><a xlink:title=" ">
<path fill="none" stroke="#63b8ff" d="M302.14,-174.98C254.28,-168.72 179.14,-155.54 118.75,-129.75 78.33,-112.49 58.59,-112.63 36.75,-74.5 29.22,-61.35 28.58,-44.08 29.62,-30.81"/>
<polygon fill="#63b8ff" stroke="#63b8ff" points="33.07,-31.43 30.79,-21.09 26.12,-30.6 33.07,-31.43"/>
</a>
</g>
</g>
<!-- Node9 -->
<g id="Node000009" class="node">
<title>Node9</title>
<g id="a_Node000009"><a xlink:title=" ">
<polygon fill="#e0e0e0" stroke="#999999" points="532.38,-19.25 493.12,-19.25 493.12,0 532.38,0 532.38,-19.25"/>
<text xml:space="preserve" text-anchor="middle" x="512.75" y="-5.75" font-family="Helvetica,sans-Serif" font-size="10.00">utility</text>
</a>
</g>
</g>
<!-- Node4&#45;&gt;Node9 -->
<g id="edge26_Node000004_Node000009" class="edge">
<title>Node4&#45;&gt;Node9</title>
<g id="a_edge26_Node000004_Node000009"><a xlink:title=" ">
<path fill="none" stroke="#63b8ff" d="M386.05,-170.91C443.22,-156.58 547.87,-130.3 548.75,-129.75 575.79,-112.73 583.88,-104.55 594.75,-74.5 597.66,-66.45 599.12,-62.6 594.75,-55.25 583.71,-36.67 561.93,-25.34 543.59,-18.75"/>
<polygon fill="#63b8ff" stroke="#63b8ff" points="544.77,-15.45 534.18,-15.7 542.61,-22.11 544.77,-15.45"/>
</a>
</g>
</g>
<!-- Node11 -->
<g id="Node000011" class="node">
<title>Node11</title>
<g id="a_Node000011"><a xlink:href="Error_8hpp.html" target="_top" xlink:title="Error handling system with categorized error codes.">
<polygon fill="white" stroke="#666666" points="485,-129.75 398.5,-129.75 398.5,-110.5 485,-110.5 485,-129.75"/>
<text xml:space="preserve" text-anchor="middle" x="441.75" y="-116.25" font-family="Helvetica,sans-Serif" font-size="10.00">RType/Error.hpp</text>
</a>
</g>
</g>
<!-- Node4&#45;&gt;Node11 -->
<g id="edge10_Node000004_Node000011" class="edge">
<title>Node4&#45;&gt;Node11</title>
<g id="a_edge10_Node000004_Node000011"><a xlink:title=" ">
<path fill="none" stroke="#63b8ff" d="M363.72,-171.06C378.18,-161.81 401.01,-147.2 418.25,-136.17"/>
<polygon fill="#63b8ff" stroke="#63b8ff" points="419.83,-139.31 426.37,-130.97 416.06,-133.41 419.83,-139.31"/>
</a>
</g>
</g>
<!-- Node12 -->
<g id="Node000012" class="node">
<title>Node12</title>
<g id="a_Node000012"><a xlink:title=" ">
<polygon fill="#e0e0e0" stroke="#999999" points="569.75,-74.5 529.75,-74.5 529.75,-55.25 569.75,-55.25 569.75,-74.5"/>
<text xml:space="preserve" text-anchor="middle" x="549.75" y="-61" font-family="Helvetica,sans-Serif" font-size="10.00">string</text>
</a>
</g>
</g>
<!-- Node4&#45;&gt;Node12 -->
<g id="edge23_Node000004_Node000012" class="edge">
<title>Node4&#45;&gt;Node12</title>
<g id="a_edge23_Node000004_Node000012"><a xlink:title=" ">
<path fill="none" stroke="#63b8ff" d="M381.59,-170.96C418.05,-160.26 475.15,-142.3 493.75,-129.75 511.85,-117.54 527.75,-98.09 537.93,-83.85"/>
<polygon fill="#63b8ff" stroke="#63b8ff" points="540.66,-86.06 543.43,-75.84 534.89,-82.1 540.66,-86.06"/>
</a>
</g>
</g>
<!-- Node16 -->
<g id="Node000016" class="node">
<title>Node16</title>
<g id="a_Node000016"><a xlink:title=" ">
<polygon fill="#e0e0e0" stroke="#999999" points="198.62,-129.75 142.88,-129.75 142.88,-110.5 198.62,-110.5 198.62,-129.75"/>
<text xml:space="preserve" text-anchor="middle" x="170.75" y="-116.25" font-family="Helvetica,sans-Serif" font-size="10.00">expected</text>
</a>
</g>
</g>
<!-- Node4&#45;&gt;Node16 -->
<g id="edge20_Node000004_Node000016" class="edge">
<title>Node4&#45;&gt;Node16</title>
<g id="a_edge20_Node000004_Node000016"><a xlink:title=" ">
<path fill="none" stroke="#63b8ff" d="M322.17,-170.93C291.95,-160.99 243.26,-144.97 209.27,-133.79"/>
<polygon fill="#63b8ff" stroke="#63b8ff" points="210.39,-130.48 199.8,-130.68 208.2,-137.13 210.39,-130.48"/>
</a>
</g>
</g>
<!-- Node17 -->
<g id="Node000017" class="node">
<title>Node17</title>
<g id="a_Node000017"><a xlink:title=" ">
<polygon fill="#e0e0e0" stroke="#999999" points="300.88,-129.75 216.62,-129.75 216.62,-110.5 300.88,-110.5 300.88,-129.75"/>
<text xml:space="preserve" text-anchor="middle" x="258.75" y="-116.25" font-family="Helvetica,sans-Serif" font-size="10.00">source_location</text>
</a>
</g>
</g>
<!-- Node4&#45;&gt;Node17 -->
<g id="edge22_Node000004_Node000017" class="edge">
<title>Node4&#45;&gt;Node17</title>
<g id="a_edge22_Node000004_Node000017"><a xlink:title=" ">
<path fill="none" stroke="#63b8ff" d="M335.93,-171.06C321.63,-161.81 299.05,-147.2 282,-136.17"/>
<polygon fill="#63b8ff" stroke="#63b8ff" points="284.27,-133.47 273.97,-130.97 280.47,-139.34 284.27,-133.47"/>
</a>
</g>
</g>
<!-- Node4&#45;&gt;Node18 -->
<g id="edge25_Node000004_Node000018" class="edge">
<title>Node4&#45;&gt;Node18</title>
<g id="a_edge25_Node000004_Node000018"><a xlink:title=" ">
<path fill="none" stroke="#63b8ff" d="M383.69,-170.94C391.25,-169.08 399.25,-167.24 406.75,-165.75 513.84,-144.48 542.08,-147.81 649.75,-129.75 650.95,-129.55 652.17,-129.34 653.4,-129.13"/>
<polygon fill="#63b8ff" stroke="#63b8ff" points="653.88,-132.6 663.11,-127.4 652.65,-125.71 653.88,-132.6"/>
</a>
</g>
</g>
<!-- Node19 -->
<g id="Node000019" class="node">
<title>Node19</title>
<g id="a_Node000019"><a xlink:href="Logger_8tpp.html" target="_top" xlink:title=" ">
<polygon fill="white" stroke="#666666" points="380.25,-129.75 319.25,-129.75 319.25,-110.5 380.25,-110.5 380.25,-129.75"/>
<text xml:space="preserve" text-anchor="middle" x="349.75" y="-116.25" font-family="Helvetica,sans-Serif" font-size="10.00">Logger.tpp</text>
</a>
</g>
</g>
<!-- Node4&#45;&gt;Node19 -->
<g id="edge27_Node000004_Node000019" class="edge">
<title>Node4&#45;&gt;Node19</title>
<g id="a_edge27_Node000004_Node000019"><a xlink:title=" ">
<path fill="none" stroke="#63b8ff" d="M349.75,-171.06C349.75,-163.28 349.75,-151.7 349.75,-141.66"/>
<polygon fill="#63b8ff" stroke="#63b8ff" points="353.25,-141.66 349.75,-131.66 346.25,-141.66 353.25,-141.66"/>
</a>
</g>
</g>
<!-- Node6 -->
<g id="Node000006" class="node">
<title>Node6</title>
<g id="a_Node000006"><a xlink:title=" ">
<polygon fill="#e0e0e0" stroke="#999999" points="251.38,-19.25 206.12,-19.25 206.12,0 251.38,0 251.38,-19.25"/>
<text xml:space="preserve" text-anchor="middle" x="228.75" y="-5.75" font-family="Helvetica,sans-Serif" font-size="10.00">cstdint</text>
</a>
</g>
</g>
<!-- Node5&#45;&gt;Node6 -->
<g id="edge5_Node000005_Node000006" class="edge">
<title>Node5&#45;&gt;Node6</title>
<g id="a_edge5_Node000005_Node000006"><a xlink:title=" ">
<path fill="none" stroke="#63b8ff" d="M134.92,-54.84C152.53,-46.54 178.91,-34.11 199.21,-24.54"/>
<polygon fill="#63b8ff" stroke="#63b8ff" points="200.56,-27.78 208.12,-20.35 197.58,-21.44 200.56,-27.78"/>
</a>
</g>
</g>
<!-- Node5&#45;&gt;Node7 -->
<g id="edge6_Node000005_Node000007" class="edge">
<title>Node5&#45;&gt;Node7</title>
<g id="a_edge6_Node000005_Node000007"><a xlink:title=" ">
<path fill="none" stroke="#63b8ff" d="M168.78,-55.5C239.01,-44.4 360.81,-25.15 419.39,-15.9"/>
<polygon fill="#63b8ff" stroke="#63b8ff" points="419.74,-19.39 429.07,-14.37 418.64,-12.47 419.74,-19.39"/>
</a>
</g>
</g>
<!-- Node5&#45;&gt;Node8 -->
<g id="edge7_Node000005_Node000008" class="edge">
<title>Node5&#45;&gt;Node8</title>
<g id="a_edge7_Node000005_Node000008"><a xlink:title=" ">
<path fill="none" stroke="#63b8ff" d="M101.67,-54.84C89.27,-46.89 70.96,-35.14 56.32,-25.75"/>
<polygon fill="#63b8ff" stroke="#63b8ff" points="58.48,-22.97 48.17,-20.52 54.7,-28.87 58.48,-22.97"/>
</a>
</g>
</g>
<!-- Node5&#45;&gt;Node9 -->
<g id="edge8_Node000005_Node000009" class="edge">
<title>Node5&#45;&gt;Node9</title>
<g id="a_edge8_Node000005_Node000009"><a xlink:title=" ">
<path fill="none" stroke="#63b8ff" d="M168.84,-56.41C171.85,-56.01 174.84,-55.62 177.75,-55.25 309.99,-38.27 347.66,-46.41 481.78,-19.3"/>
<polygon fill="#63b8ff" stroke="#63b8ff" points="482.32,-22.76 491.41,-17.32 480.91,-15.91 482.32,-22.76"/>
</a>
</g>
</g>
<!-- Node10 -->
<g id="Node000010" class="node">
<title>Node10</title>
<g id="a_Node000010"><a xlink:title=" ">
<polygon fill="#e0e0e0" stroke="#999999" points="151.62,-19.25 83.88,-19.25 83.88,0 151.62,0 151.62,-19.25"/>
<text xml:space="preserve" text-anchor="middle" x="117.75" y="-5.75" font-family="Helvetica,sans-Serif" font-size="10.00">LogLevel.inl</text>
</a>
</g>
</g>
<!-- Node5&#45;&gt;Node10 -->
<g id="edge9_Node000005_Node000010" class="edge">
<title>Node5&#45;&gt;Node10</title>
<g id="a_edge9_Node000005_Node000010"><a xlink:title=" ">
<path fill="none" stroke="#63b8ff" d="M116.08,-55.08C116.33,-48.49 116.68,-39.21 116.99,-30.82"/>
<polygon fill="#63b8ff" stroke="#63b8ff" points="120.48,-31.25 117.36,-21.12 113.48,-30.98 120.48,-31.25"/>
</a>
</g>
</g>
<!-- Node11&#45;&gt;Node5 -->
<g id="edge11_Node000011_Node000005" class="edge">
<title>Node11&#45;&gt;Node5</title>
<g id="a_edge11_Node000011_Node000005"><a xlink:title=" ">
<path fill="none" stroke="#63b8ff" d="M398.12,-112C342.15,-102.86 244.59,-86.92 180.09,-76.38"/>
<polygon fill="#63b8ff" stroke="#63b8ff" points="180.77,-72.95 170.34,-74.79 179.64,-79.86 180.77,-72.95"/>
</a>
</g>
</g>
<!-- Node11&#45;&gt;Node6 -->
<g id="edge12_Node000011_Node000006" class="edge">
<title>Node11&#45;&gt;Node6</title>
<g id="a_edge12_Node000011_Node000006"><a xlink:title=" ">
<path fill="none" stroke="#63b8ff" d="M400.44,-110.06C361,-100.92 304.84,-86.48 285.75,-74.5 267.11,-62.8 250.96,-43.27 240.66,-28.88"/>
<polygon fill="#63b8ff" stroke="#63b8ff" points="243.63,-27.02 235.1,-20.74 237.85,-30.97 243.63,-27.02"/>
</a>
</g>
</g>
<!-- Node11&#45;&gt;Node7 -->
<g id="edge13_Node000011_Node000007" class="edge">
<title>Node11&#45;&gt;Node7</title>
<g id="a_edge13_Node000011_Node000007"><a xlink:title=" ">
<path fill="none" stroke="#63b8ff" d="M442.65,-110.25C444.4,-93 448.29,-54.58 450.7,-30.81"/>
<polygon fill="#63b8ff" stroke="#63b8ff" points="454.16,-31.43 451.68,-21.13 447.19,-30.73 454.16,-31.43"/>
</a>
</g>
</g>
<!-- Node11&#45;&gt;Node8 -->
<g id="edge15_Node000011_Node000008" class="edge">
<title>Node11&#45;&gt;Node8</title>
<g id="a_edge15_Node000011_Node000008"><a xlink:title=" ">
<path fill="none" stroke="#63b8ff" d="M398.11,-111.83C394.94,-111.36 391.8,-110.91 388.75,-110.5 314.55,-100.48 111.96,-121.59 53.75,-74.5 40.83,-64.05 35.79,-45.48 33.85,-31.05"/>
<polygon fill="#63b8ff" stroke="#63b8ff" points="37.35,-30.89 32.97,-21.24 30.38,-31.52 37.35,-30.89"/>
</a>
</g>
</g>
<!-- Node11&#45;&gt;Node9 -->
<g id="edge17_Node000011_Node000009" class="edge">
<title>Node11&#45;&gt;Node9</title>
<g id="a_edge17_Node000011_Node000009"><a xlink:title=" ">
<path fill="none" stroke="#63b8ff" d="M447.56,-110.25C459.11,-92.6 485.15,-52.8 500.6,-29.2"/>
<polygon fill="#63b8ff" stroke="#63b8ff" points="503.48,-31.18 506.03,-20.89 497.63,-27.34 503.48,-31.18"/>
</a>
</g>
</g>
<!-- Node11&#45;&gt;Node12 -->
<g id="edge14_Node000011_Node000012" class="edge">
<title>Node11&#45;&gt;Node12</title>
<g id="a_edge14_Node000011_Node000012"><a xlink:title=" ">
<path fill="none" stroke="#63b8ff" d="M460.07,-110.09C476.83,-101.83 501.88,-89.48 521.25,-79.93"/>
<polygon fill="#63b8ff" stroke="#63b8ff" points="522.56,-83.18 529.98,-75.62 519.47,-76.9 522.56,-83.18"/>
</a>
</g>
</g>
<!-- Node13 -->
<g id="Node000013" class="node">
<title>Node13</title>
<g id="a_Node000013"><a xlink:title=" ">
<polygon fill="#e0e0e0" stroke="#999999" points="368.25,-74.5 295.25,-74.5 295.25,-55.25 368.25,-55.25 368.25,-74.5"/>
<text xml:space="preserve" text-anchor="middle" x="331.75" y="-61" font-family="Helvetica,sans-Serif" font-size="10.00">system_error</text>
</a>
</g>
</g>
<!-- Node11&#45;&gt;Node13 -->
<g id="edge16_Node000011_Node000013" class="edge">
<title>Node11&#45;&gt;Node13</title>
<g id="a_edge16_Node000011_Node000013"><a xlink:title=" ">
<path fill="none" stroke="#63b8ff" d="M423.09,-110.09C406.02,-101.83 380.51,-89.48 360.78,-79.93"/>
<polygon fill="#63b8ff" stroke="#63b8ff" points="362.39,-76.82 351.86,-75.61 359.34,-83.12 362.39,-76.82"/>
</a>
</g>
</g>
<!-- Node14 -->
<g id="Node000014" class="node">
<title>Node14</title>
<g id="a_Node000014"><a xlink:title=" ">
<polygon fill="#e0e0e0" stroke="#999999" points="435.25,-74.5 386.25,-74.5 386.25,-55.25 435.25,-55.25 435.25,-74.5"/>
<text xml:space="preserve" text-anchor="middle" x="410.75" y="-61" font-family="Helvetica,sans-Serif" font-size="10.00">Error.inl</text>
</a>
</g>
</g>
<!-- Node11&#45;&gt;Node14 -->
<g id="edge18_Node000011_Node000014" class="edge">
<title>Node11&#45;&gt;Node14</title>
<g id="a_edge18_Node000011_Node000014"><a xlink:title=" ">
<path fill="none" stroke="#63b8ff" d="M436.63,-110.33C432.57,-103.36 426.76,-93.37 421.66,-84.62"/>
<polygon fill="#63b8ff" stroke="#63b8ff" points="424.8,-83.05 416.74,-76.17 418.75,-86.57 424.8,-83.05"/>
</a>
</g>
</g>
<!-- Node15 -->
<g id="Node000015" class="node">
<title>Node15</title>
<g id="a_Node000015"><a xlink:href="Error_8tpp.html" target="_top" xlink:title=" ">
<polygon fill="white" stroke="#666666" points="239.12,-74.5 186.38,-74.5 186.38,-55.25 239.12,-55.25 239.12,-74.5"/>
<text xml:space="preserve" text-anchor="middle" x="212.75" y="-61" font-family="Helvetica,sans-Serif" font-size="10.00">Error.tpp</text>
</a>
</g>
</g>
<!-- Node11&#45;&gt;Node15 -->
<g id="edge19_Node000011_Node000015" class="edge">
<title>Node11&#45;&gt;Node15</title>
<g id="a_edge19_Node000011_Node000015"><a xlink:title=" ">
<path fill="none" stroke="#63b8ff" d="M402.64,-110.03C360.14,-100.15 292.69,-84.46 250.66,-74.69"/>
<polygon fill="#63b8ff" stroke="#63b8ff" points="251.53,-71.3 241,-72.44 249.94,-78.12 251.53,-71.3"/>
</a>
</g>
</g>
<!-- Node22 -->
<g id="Node000022" class="node">
<title>Node22</title>
<g id="a_Node000022"><a xlink:href="NumericConcept_8hpp.html" target="_top" xlink:title="Definition of the Numeric concept.">
<polygon fill="white" stroke="#666666" points="751.38,-196.25 640.12,-196.25 640.12,-165.75 751.38,-165.75 751.38,-196.25"/>
<text xml:space="preserve" text-anchor="start" x="648.12" y="-182.75" font-family="Helvetica,sans-Serif" font-size="10.00">RType/Math/details</text>
<text xml:space="preserve" text-anchor="middle" x="695.75" y="-171.5" font-family="Helvetica,sans-Serif" font-size="10.00">/NumericConcept.hpp</text>
</a>
</g>
</g>
<!-- Node21&#45;&gt;Node22 -->
<g id="edge30_Node000021_Node000022" class="edge">
<title>Node21&#45;&gt;Node22</title>
<g id="a_edge30_Node000021_Node000022"><a xlink:title=" ">
<path fill="none" stroke="#63b8ff" d="M632.36,-231.86C642.95,-223.53 656.41,-212.94 668.2,-203.67"/>
<polygon fill="#63b8ff" stroke="#63b8ff" points="670.33,-206.45 676.03,-197.51 666,-200.95 670.33,-206.45"/>
</a>
</g>
</g>
<!-- Node24 -->
<g id="Node000024" class="node">
<title>Node24</title>
<g id="a_Node000024"><a xlink:title=" ">
<polygon fill="#e0e0e0" stroke="#999999" points="812.25,-190.62 769.25,-190.62 769.25,-171.38 812.25,-171.38 812.25,-190.62"/>
<text xml:space="preserve" text-anchor="middle" x="790.75" y="-177.12" font-family="Helvetica,sans-Serif" font-size="10.00">cmath</text>
</a>
</g>
</g>
<!-- Node21&#45;&gt;Node24 -->
<g id="edge33_Node000021_Node000024" class="edge">
<title>Node21&#45;&gt;Node24</title>
<g id="a_edge33_Node000021_Node000024"><a xlink:title=" ">
<path fill="none" stroke="#63b8ff" d="M661.26,-231.78C690.3,-222.41 728.02,-209.57 760.75,-196.25 761.23,-196.05 761.71,-195.85 762.2,-195.65"/>
<polygon fill="#63b8ff" stroke="#63b8ff" points="763.39,-198.95 771.11,-191.69 760.55,-192.56 763.39,-198.95"/>
</a>
</g>
</g>
<!-- Node25 -->
<g id="Node000025" class="node">
<title>Node25</title>
<g id="a_Node000025"><a xlink:title=" ">
<polygon fill="#e0e0e0" stroke="#999999" points="531.5,-190.62 478,-190.62 478,-171.38 531.5,-171.38 531.5,-190.62"/>
<text xml:space="preserve" text-anchor="middle" x="504.75" y="-177.12" font-family="Helvetica,sans-Serif" font-size="10.00">iostream</text>
</a>
</g>
</g>
<!-- Node21&#45;&gt;Node25 -->
<g id="edge34_Node000021_Node000025" class="edge">
<title>Node21&#45;&gt;Node25</title>
<g id="a_edge34_Node000021_Node000025"><a xlink:title=" ">
<path fill="none" stroke="#63b8ff" d="M589.02,-231.86C571.27,-221.36 547.45,-207.27 529.66,-196.74"/>
<polygon fill="#63b8ff" stroke="#63b8ff" points="531.67,-193.86 521.28,-191.78 528.1,-199.89 531.67,-193.86"/>
</a>
</g>
</g>
<!-- Node26 -->
<g id="Node000026" class="node">
<title>Node26</title>
<g id="a_Node000026"><a xlink:href="VecBase_8tpp.html" target="_top" xlink:title=" ">
<polygon fill="white" stroke="#666666" points="621.88,-190.62 549.62,-190.62 549.62,-171.38 621.88,-171.38 621.88,-190.62"/>
<text xml:space="preserve" text-anchor="middle" x="585.75" y="-177.12" font-family="Helvetica,sans-Serif" font-size="10.00">VecBase.tpp</text>
</a>
</g>
</g>
<!-- Node21&#45;&gt;Node26 -->
<g id="edge35_Node000021_Node000026" class="edge">
<title>Node21&#45;&gt;Node26</title>
<g id="a_edge35_Node000021_Node000026"><a xlink:title=" ">
<path fill="none" stroke="#63b8ff" d="M607.4,-231.86C603.45,-222.78 598.34,-211.01 594.08,-201.18"/>
<polygon fill="#63b8ff" stroke="#63b8ff" points="597.38,-199.99 590.18,-192.21 590.95,-202.78 597.38,-199.99"/>
</a>
</g>
</g>
<!-- Node22&#45;&gt;Node18 -->
<g id="edge32_Node000022_Node000018" class="edge">
<title>Node22&#45;&gt;Node18</title>
<g id="a_edge32_Node000022_Node000018"><a xlink:title=" ">
<path fill="none" stroke="#63b8ff" d="M695.75,-165.45C695.75,-158.21 695.75,-149.34 695.75,-141.44"/>
<polygon fill="#63b8ff" stroke="#63b8ff" points="699.25,-141.71 695.75,-131.71 692.25,-141.71 699.25,-141.71"/>
</a>
</g>
</g>
<!-- Node23 -->
<g id="Node000023" class="node">
<title>Node23</title>
<g id="a_Node000023"><a xlink:title=" ">
<polygon fill="#e0e0e0" stroke="#999999" points="800.62,-129.75 744.88,-129.75 744.88,-110.5 800.62,-110.5 800.62,-129.75"/>
<text xml:space="preserve" text-anchor="middle" x="772.75" y="-116.25" font-family="Helvetica,sans-Serif" font-size="10.00">concepts</text>
</a>
</g>
</g>
<!-- Node22&#45;&gt;Node23 -->
<g id="edge31_Node000022_Node000023" class="edge">
<title>Node22&#45;&gt;Node23</title>
<g id="a_edge31_Node000022_Node000023"><a xlink:title=" ">
<path fill="none" stroke="#63b8ff" d="M714.78,-165.45C726.06,-156.83 740.35,-145.9 751.92,-137.05"/>
<polygon fill="#63b8ff" stroke="#63b8ff" points="753.86,-139.98 759.68,-131.12 749.61,-134.41 753.86,-139.98"/>
</a>
</g>
</g>
<!-- Node28&#45;&gt;Node3 -->
<g id="edge38_Node000028_Node000003" class="edge">
<title>Node28&#45;&gt;Node3</title>
<g id="a_edge38_Node000028_Node000003"><a xlink:title=" ">
<path fill="none" stroke="#63b8ff" d="M582.12,-304.03C566.34,-293.64 540.08,-276.36 521.04,-263.83"/>
<polygon fill="#63b8ff" stroke="#63b8ff" points="523.12,-261.01 512.84,-258.43 519.27,-266.85 523.12,-261.01"/>
</a>
</g>
</g>
<!-- Node28&#45;&gt;Node21 -->
<g id="edge39_Node000028_Node000021" class="edge">
<title>Node28&#45;&gt;Node21</title>
<g id="a_edge39_Node000028_Node000021"><a xlink:title=" ">
<path fill="none" stroke="#63b8ff" d="M598.25,-304.03C600.44,-296.2 603.72,-284.45 606.7,-273.77"/>
<polygon fill="#63b8ff" stroke="#63b8ff" points="610.02,-274.88 609.34,-264.3 603.28,-272.99 610.02,-274.88"/>
</a>
</g>
</g>
<!-- Node29 -->
<g id="Node000029" class="node">
<title>Node29</title>
<g id="a_Node000029"><a xlink:href="Vec3_8tpp.html" target="_top" xlink:title=" ">
<polygon fill="white" stroke="#666666" points="432.25,-257.12 377.25,-257.12 377.25,-237.88 432.25,-237.88 432.25,-257.12"/>
<text xml:space="preserve" text-anchor="middle" x="404.75" y="-243.62" font-family="Helvetica,sans-Serif" font-size="10.00">Vec3.tpp</text>
</a>
</g>
</g>
<!-- Node28&#45;&gt;Node29 -->
<g id="edge40_Node000028_Node000029" class="edge">
<title>Node28&#45;&gt;Node29</title>
<g id="a_edge40_Node000028_Node000029"><a xlink:title=" ">
<path fill="none" stroke="#63b8ff" d="M566.36,-303.91C535.26,-294.18 484.81,-278.06 441.75,-262.75 440.61,-262.35 439.46,-261.93 438.3,-261.51"/>
<polygon fill="#63b8ff" stroke="#63b8ff" points="439.78,-258.33 429.19,-258.11 437.34,-264.89 439.78,-258.33"/>
</a>
</g>
</g>
<!-- Node30&#45;&gt;Node3 -->
<g id="edge42_Node000030_Node000003" class="edge">
<title>Node30&#45;&gt;Node3</title>
<g id="a_edge42_Node000030_Node000003"><a xlink:title=" ">
<path fill="none" stroke="#63b8ff" d="M695.28,-303.9C654.87,-292.56 585.73,-273.17 540.89,-260.6"/>
<polygon fill="#63b8ff" stroke="#63b8ff" points="542.08,-257.3 531.51,-257.97 540.19,-264.04 542.08,-257.3"/>
</a>
</g>
</g>
<!-- Node30&#45;&gt;Node21 -->
<g id="edge43_Node000030_Node000021" class="edge">
<title>Node30&#45;&gt;Node21</title>
<g id="a_edge43_Node000030_Node000021"><a xlink:title=" ">
<path fill="none" stroke="#63b8ff" d="M711.9,-304.03C695.81,-294.93 670.36,-280.53 649.4,-268.67"/>
<polygon fill="#63b8ff" stroke="#63b8ff" points="651.28,-265.71 640.86,-263.84 647.84,-271.81 651.28,-265.71"/>
</a>
</g>
</g>
<!-- Node31 -->
<g id="Node000031" class="node">
<title>Node31</title>
<g id="a_Node000031"><a xlink:href="Vec4_8tpp.html" target="_top" xlink:title=" ">
<polygon fill="white" stroke="#666666" points="755.25,-257.12 700.25,-257.12 700.25,-237.88 755.25,-237.88 755.25,-257.12"/>
<text xml:space="preserve" text-anchor="middle" x="727.75" y="-243.62" font-family="Helvetica,sans-Serif" font-size="10.00">Vec4.tpp</text>
</a>
</g>
</g>
<!-- Node30&#45;&gt;Node31 -->
<g id="edge44_Node000030_Node000031" class="edge">
<title>Node30&#45;&gt;Node31</title>
<g id="a_edge44_Node000030_Node000031"><a xlink:title=" ">
<path fill="none" stroke="#63b8ff" d="M727.75,-304.03C727.75,-294.98 727.75,-280.7 727.75,-268.88"/>
<polygon fill="#63b8ff" stroke="#63b8ff" points="731.25,-268.91 727.75,-258.91 724.25,-268.91 731.25,-268.91"/>
</a>
</g>
</g>
</g>
</svg>

<g id="navigator" transform="translate(0 0)" fill="#404254">
  <rect fill="#f2f5e9" fill-opacity="0.5" stroke="#606060" stroke-width=".5" x="0" y="0" width="60" height="60"/>
  <use id="zoomplus" xlink:href="#zoomPlus" x="17" y="9" onmousedown="handleZoom(evt,'in')"/>
  <use id="zoomminus" xlink:href="#zoomMin" x="42" y="9" onmousedown="handleZoom(evt,'out')"/>
  <use id="reset" xlink:href="#resetDef" x="30" y="36" onmousedown="handleReset()"/>
   <use id="arrowup" xlink:href="#arrowUp" x="0" y="0" onmousedown="handlePan(0,-1)"/>
  <use id="arrowright" xlink:href="#arrowRight" x="0" y="0" onmousedown="handlePan(1,0)"/>
  <use id="arrowdown" xlink:href="#arrowDown" x="0" y="0" onmousedown="handlePan(0,1)"/>
  <use id="arrowleft" xlink:href="#arrowLeft" x="0" y="0" onmousedown="handlePan(-1,0)"/>
</g>
<svg viewBox="0 0 15 15" width="100%" height="30px" preserveAspectRatio="xMaxYMin meet">
 <g id="arrow_out" transform="scale(0.3 0.3)">
  <a xlink:href="Vec_8hpp__incl_org.svg" target="_base">
   <rect id="button" ry="5" rx="5" y="6" x="6" height="38" width="38"
        fill="#f2f5e9" fill-opacity="0.5" stroke="#606060" stroke-width="1.0"/>
   <path id="arrow"
     d="M 11.500037,31.436501 C 11.940474,20.09759 22.043105,11.32322 32.158766,21.979434 L 37.068811,17.246167 C 37.068811,17.246167 37.088388,32 37.088388,32 L 22.160133,31.978069 C 22.160133,31.978069 26.997745,27.140456 26.997745,27.140456 C 18.528582,18.264221 13.291696,25.230495 11.500037,31.436501 z"
     style="fill:#404040;"/>
  </a>
 </g>
</svg>

<style type='text/css'>
<![CDATA[
[data-mouse-over-selected='false'] { opacity: 0.7; }
[data-mouse-over-selected='true']  { opacity: 1.0; }
]]>
</style>
<script type="application/ecmascript"><![CDATA[
document.addEventListener('DOMContentLoaded', (event) => {
  highlightEdges();
  highlightAdjacentNodes();
});
]]></script>
</svg>
