<?xml version="1.0" encoding="UTF-8" standalone="no"?>
<!DOCTYPE svg PUBLIC "-//W3C//DTD SVG 1.1//EN"
 "http://www.w3.org/Graphics/SVG/1.1/DTD/svg11.dtd">
<!-- Generated by graphviz version 14.0.5 (20251129.0259)
 -->
<!-- Title: common/include/RType/Math/details/VecBase.hpp Pages: 1 -->
<svg width="352pt" height="160pt"
 viewBox="0.00 0.00 352.00 160.00" xmlns="http://www.w3.org/2000/svg" xmlns:xlink="http://www.w3.org/1999/xlink">
<g id="graph0" class="graph" transform="scale(1 1) rotate(0) translate(4 156.25)">
<title>common/include/RType/Math/details/VecBase.hpp</title>
<!-- Node1 -->
<g id="Node000001" class="node">
<title>Node1</title>
<g id="a_Node000001"><a xlink:title="Declaration of the CRTP base vector class.">
<polygon fill="#999999" stroke="#666666" points="260.75,-152.25 127,-152.25 127,-121.75 260.75,-121.75 260.75,-152.25"/>
<text xml:space="preserve" text-anchor="start" x="135" y="-138.75" font-family="Helvetica,sans-Serif" font-size="10.00">common/include/RType</text>
<text xml:space="preserve" text-anchor="middle" x="193.88" y="-127.5" font-family="Helvetica,sans-Serif" font-size="10.00">/Math/details/VecBase.hpp</text>
</a>
</g>
</g>
<!-- Node2 -->
<g id="Node000002" class="node">
<title>Node2</title>
<g id="a_Node000002"><a xlink:href="NumericConcept_8hpp.html" target="_top" xlink:title="Definition of the Numeric concept.">
<polygon fill="white" stroke="#666666" points="121.5,-85.75 10.25,-85.75 10.25,-55.25 121.5,-55.25 121.5,-85.75"/>
<text xml:space="preserve" text-anchor="start" x="18.25" y="-72.25" font-family="Helvetica,sans-Serif" font-size="10.00">RType/Math/details</text>
<text xml:space="preserve" text-anchor="middle" x="65.88" y="-61" font-family="Helvetica,sans-Serif" font-size="10.00">/NumericConcept.hpp</text>
</a>
</g>
</g>
<!-- Node1&#45;&gt;Node2 -->
<g id="edge1_Node000001_Node000002" class="edge">
<title>Node1&#45;&gt;Node2</title>
<g id="a_edge1_Node000001_Node000002"><a xlink:title=" ">
<path fill="none" stroke="#63b8ff" d="M164.83,-121.36C147.15,-112.46 124.35,-100.97 105.09,-91.26"/>
<polygon fill="#63b8ff" stroke="#63b8ff" points="106.66,-88.13 96.16,-86.76 103.51,-94.38 106.66,-88.13"/>
</a>
</g>
</g>
<!-- Node5 -->
<g id="Node000005" class="node">
<title>Node5</title>
<g id="a_Node000005"><a xlink:title=" ">
<polygon fill="#e0e0e0" stroke="#999999" points="182.38,-80.12 139.38,-80.12 139.38,-60.88 182.38,-60.88 182.38,-80.12"/>
<text xml:space="preserve" text-anchor="middle" x="160.88" y="-66.62" font-family="Helvetica,sans-Serif" font-size="10.00">cmath</text>
</a>
</g>
</g>
<!-- Node1&#45;&gt;Node5 -->
<g id="edge4_Node000001_Node000005" class="edge">
<title>Node1&#45;&gt;Node5</title>
<g id="a_edge4_Node000001_Node000005"><a xlink:title=" ">
<path fill="none" stroke="#63b8ff" d="M186.39,-121.36C181.69,-112.18 175.59,-100.25 170.53,-90.36"/>
<polygon fill="#63b8ff" stroke="#63b8ff" points="173.75,-88.98 166.08,-81.67 167.52,-92.17 173.75,-88.98"/>
</a>
</g>
</g>
<!-- Node6 -->
<g id="Node000006" class="node">
<title>Node6</title>
<g id="a_Node000006"><a xlink:title=" ">
<polygon fill="#e0e0e0" stroke="#999999" points="253.62,-80.12 200.12,-80.12 200.12,-60.88 253.62,-60.88 253.62,-80.12"/>
<text xml:space="preserve" text-anchor="middle" x="226.88" y="-66.62" font-family="Helvetica,sans-Serif" font-size="10.00">iostream</text>
</a>
</g>
</g>
<!-- Node1&#45;&gt;Node6 -->
<g id="edge5_Node000001_Node000006" class="edge">
<title>Node1&#45;&gt;Node6</title>
<g id="a_edge5_Node000001_Node000006"><a xlink:title=" ">
<path fill="none" stroke="#63b8ff" d="M201.36,-121.36C206.06,-112.18 212.16,-100.25 217.22,-90.36"/>
<polygon fill="#63b8ff" stroke="#63b8ff" points="220.23,-92.17 221.67,-81.67 214,-88.98 220.23,-92.17"/>
</a>
</g>
</g>
<!-- Node7 -->
<g id="Node000007" class="node">
<title>Node7</title>
<g id="a_Node000007"><a xlink:href="VecBase_8tpp.html" target="_top" xlink:title=" ">
<polygon fill="white" stroke="#666666" points="344,-80.12 271.75,-80.12 271.75,-60.88 344,-60.88 344,-80.12"/>
<text xml:space="preserve" text-anchor="middle" x="307.88" y="-66.62" font-family="Helvetica,sans-Serif" font-size="10.00">VecBase.tpp</text>
</a>
</g>
</g>
<!-- Node1&#45;&gt;Node7 -->
<g id="edge6_Node000001_Node000007" class="edge">
<title>Node1&#45;&gt;Node7</title>
<g id="a_edge6_Node000001_Node000007"><a xlink:title=" ">
<path fill="none" stroke="#63b8ff" d="M219.74,-121.36C238.39,-110.81 263.45,-96.63 282.08,-86.09"/>
<polygon fill="#63b8ff" stroke="#63b8ff" points="283.65,-89.23 290.63,-81.26 280.21,-83.13 283.65,-89.23"/>
</a>
</g>
</g>
<!-- Node3 -->
<g id="Node000003" class="node">
<title>Node3</title>
<g id="a_Node000003"><a xlink:title=" ">
<polygon fill="#e0e0e0" stroke="#999999" points="55.75,-19.25 0,-19.25 0,0 55.75,0 55.75,-19.25"/>
<text xml:space="preserve" text-anchor="middle" x="27.88" y="-5.75" font-family="Helvetica,sans-Serif" font-size="10.00">concepts</text>
</a>
</g>
</g>
<!-- Node2&#45;&gt;Node3 -->
<g id="edge2_Node000002_Node000003" class="edge">
<title>Node2&#45;&gt;Node3</title>
<g id="a_edge2_Node000002_Node000003"><a xlink:title=" ">
<path fill="none" stroke="#63b8ff" d="M56.48,-54.95C51.47,-47.19 45.26,-37.56 39.9,-29.26"/>
<polygon fill="#63b8ff" stroke="#63b8ff" points="42.92,-27.48 34.55,-20.97 37.04,-31.27 42.92,-27.48"/>
</a>
</g>
</g>
<!-- Node4 -->
<g id="Node000004" class="node">
<title>Node4</title>
<g id="a_Node000004"><a xlink:title=" ">
<polygon fill="#e0e0e0" stroke="#999999" points="135.75,-19.25 74,-19.25 74,0 135.75,0 135.75,-19.25"/>
<text xml:space="preserve" text-anchor="middle" x="104.88" y="-5.75" font-family="Helvetica,sans-Serif" font-size="10.00">type_traits</text>
</a>
</g>
</g>
<!-- Node2&#45;&gt;Node4 -->
<g id="edge3_Node000002_Node000004" class="edge">
<title>Node2&#45;&gt;Node4</title>
<g id="a_edge3_Node000002_Node000004"><a xlink:title=" ">
<path fill="none" stroke="#63b8ff" d="M75.52,-54.95C80.65,-47.19 87.03,-37.56 92.53,-29.26"/>
<polygon fill="#63b8ff" stroke="#63b8ff" points="95.42,-31.23 98.03,-20.96 89.59,-27.37 95.42,-31.23"/>
</a>
</g>
</g>
</g>
</svg>
