<?xml version="1.0" encoding="UTF-8" standalone="no"?>
<!DOCTYPE svg PUBLIC "-//W3C//DTD SVG 1.1//EN"
 "http://www.w3.org/Graphics/SVG/1.1/DTD/svg11.dtd">
<!-- Generated by graphviz version 14.0.5 (20251129.0259)
 -->
<!-- Title: common/include/RType/Config/WeaponConfig.hpp Pages: 1 -->
<svg width="1347pt" height="271pt"
 viewBox="0.00 0.00 1347.00 271.00" xmlns="http://www.w3.org/2000/svg" xmlns:xlink="http://www.w3.org/1999/xlink">
<g id="graph0" class="graph" transform="scale(1 1) rotate(0) translate(4 266.75)">
<title>common/include/RType/Config/WeaponConfig.hpp</title>
<!-- Node1 -->
<g id="Node000001" class="node">
<title>Node1</title>
<g id="a_Node000001"><a xlink:title=" ">
<polygon fill="#999999" stroke="#666666" points="291,-262.75 158,-262.75 158,-232.25 291,-232.25 291,-262.75"/>
<text xml:space="preserve" text-anchor="start" x="166" y="-249.25" font-family="Helvetica,sans-Serif" font-size="10.00">common/include/RType</text>
<text xml:space="preserve" text-anchor="middle" x="224.5" y="-238" font-family="Helvetica,sans-Serif" font-size="10.00">/Config/WeaponConfig.hpp</text>
</a>
</g>
</g>
<!-- Node2 -->
<g id="Node000002" class="node">
<title>Node2</title>
<g id="a_Node000002"><a xlink:href="SimpleWeapon_8hpp.html" target="_top" xlink:title=" ">
<polygon fill="white" stroke="#666666" points="127,-196.25 0,-196.25 0,-165.75 127,-165.75 127,-196.25"/>
<text xml:space="preserve" text-anchor="start" x="8" y="-182.75" font-family="Helvetica,sans-Serif" font-size="10.00">RType/ECS/Components</text>
<text xml:space="preserve" text-anchor="middle" x="63.5" y="-171.5" font-family="Helvetica,sans-Serif" font-size="10.00">/SimpleWeapon.hpp</text>
</a>
</g>
</g>
<!-- Node1&#45;&gt;Node2 -->
<g id="edge1_Node000001_Node000002" class="edge">
<title>Node1&#45;&gt;Node2</title>
<g id="a_edge1_Node000001_Node000002"><a xlink:title=" ">
<path fill="none" stroke="#63b8ff" d="M187.97,-231.86C165.1,-222.7 135.39,-210.8 110.74,-200.93"/>
<polygon fill="#63b8ff" stroke="#63b8ff" points="112.16,-197.72 101.57,-197.25 109.55,-204.22 112.16,-197.72"/>
</a>
</g>
</g>
<!-- Node4 -->
<g id="Node000004" class="node">
<title>Node4</title>
<g id="a_Node000004"><a xlink:href="SimpleJsonParser_8hpp.html" target="_top" xlink:title=" ">
<polygon fill="white" stroke="#666666" points="444.75,-190.62 268.25,-190.62 268.25,-171.38 444.75,-171.38 444.75,-190.62"/>
<text xml:space="preserve" text-anchor="middle" x="356.5" y="-177.12" font-family="Helvetica,sans-Serif" font-size="10.00">RType/Config/SimpleJsonParser.hpp</text>
</a>
</g>
</g>
<!-- Node1&#45;&gt;Node4 -->
<g id="edge3_Node000001_Node000004" class="edge">
<title>Node1&#45;&gt;Node4</title>
<g id="a_edge3_Node000001_Node000004"><a xlink:title=" ">
<path fill="none" stroke="#63b8ff" d="M254.45,-231.86C276.45,-221.12 306.15,-206.61 327.83,-196.01"/>
<polygon fill="#63b8ff" stroke="#63b8ff" points="329.25,-199.21 336.7,-191.67 326.18,-192.92 329.25,-199.21"/>
</a>
</g>
</g>
<!-- Node5 -->
<g id="Node000005" class="node">
<title>Node5</title>
<g id="a_Node000005"><a xlink:title=" ">
<polygon fill="#e0e0e0" stroke="#999999" points="532.5,-74.5 492.5,-74.5 492.5,-55.25 532.5,-55.25 532.5,-74.5"/>
<text xml:space="preserve" text-anchor="middle" x="512.5" y="-61" font-family="Helvetica,sans-Serif" font-size="10.00">string</text>
</a>
</g>
</g>
<!-- Node1&#45;&gt;Node5 -->
<g id="edge35_Node000001_Node000005" class="edge">
<title>Node1&#45;&gt;Node5</title>
<g id="a_edge35_Node000001_Node000005"><a xlink:title=" ">
<path fill="none" stroke="#63b8ff" d="M210.72,-232.06C186.71,-205.16 142.66,-146.82 174.5,-110.5 194.59,-87.59 401.07,-72.66 481.07,-67.7"/>
<polygon fill="#63b8ff" stroke="#63b8ff" points="481.07,-71.21 490.84,-67.11 480.65,-64.22 481.07,-71.21"/>
</a>
</g>
</g>
<!-- Node6 -->
<g id="Node000006" class="node">
<title>Node6</title>
<g id="a_Node000006"><a xlink:title=" ">
<polygon fill="#e0e0e0" stroke="#999999" points="265.88,-129.75 183.12,-129.75 183.12,-110.5 265.88,-110.5 265.88,-129.75"/>
<text xml:space="preserve" text-anchor="middle" x="224.5" y="-116.25" font-family="Helvetica,sans-Serif" font-size="10.00">unordered_map</text>
</a>
</g>
</g>
<!-- Node1&#45;&gt;Node6 -->
<g id="edge34_Node000001_Node000006" class="edge">
<title>Node1&#45;&gt;Node6</title>
<g id="a_edge34_Node000001_Node000006"><a xlink:title=" ">
<path fill="none" stroke="#63b8ff" d="M224.5,-232.12C224.5,-209.78 224.5,-166.67 224.5,-141.25"/>
<polygon fill="#63b8ff" stroke="#63b8ff" points="228,-141.58 224.5,-131.58 221,-141.58 228,-141.58"/>
</a>
</g>
</g>
<!-- Node10 -->
<g id="Node000010" class="node">
<title>Node10</title>
<g id="a_Node000010"><a xlink:href="Logger_8hpp.html" target="_top" xlink:title="Logger declaration with support for multiple log levels.">
<polygon fill="white" stroke="#666666" points="877.88,-190.62 783.12,-190.62 783.12,-171.38 877.88,-171.38 877.88,-190.62"/>
<text xml:space="preserve" text-anchor="middle" x="830.5" y="-177.12" font-family="Helvetica,sans-Serif" font-size="10.00">RType/Logger.hpp</text>
</a>
</g>
</g>
<!-- Node1&#45;&gt;Node10 -->
<g id="edge9_Node000001_Node000010" class="edge">
<title>Node1&#45;&gt;Node10</title>
<g id="a_edge9_Node000001_Node000010"><a xlink:title=" ">
<path fill="none" stroke="#63b8ff" d="M291.38,-239.38C410.71,-226.68 658.43,-200.31 771.69,-188.26"/>
<polygon fill="#63b8ff" stroke="#63b8ff" points="771.8,-191.77 781.37,-187.23 771.05,-184.81 771.8,-191.77"/>
</a>
</g>
</g>
<!-- Node3 -->
<g id="Node000003" class="node">
<title>Node3</title>
<g id="a_Node000003"><a xlink:title=" ">
<polygon fill="#e0e0e0" stroke="#999999" points="722.12,-19.25 676.88,-19.25 676.88,0 722.12,0 722.12,-19.25"/>
<text xml:space="preserve" text-anchor="middle" x="699.5" y="-5.75" font-family="Helvetica,sans-Serif" font-size="10.00">cstdint</text>
</a>
</g>
</g>
<!-- Node2&#45;&gt;Node3 -->
<g id="edge2_Node000002_Node000003" class="edge">
<title>Node2&#45;&gt;Node3</title>
<g id="a_edge2_Node000002_Node000003"><a xlink:title=" ">
<path fill="none" stroke="#63b8ff" d="M79.3,-165.26C97.47,-149.19 128.86,-123.97 160.5,-110.5 339.89,-34.13 577.34,-16.03 665.05,-11.85"/>
<polygon fill="#63b8ff" stroke="#63b8ff" points="665.06,-15.35 674.89,-11.41 664.75,-8.36 665.06,-15.35"/>
</a>
</g>
</g>
<!-- Node4&#45;&gt;Node5 -->
<g id="edge4_Node000004_Node000005" class="edge">
<title>Node4&#45;&gt;Node5</title>
<g id="a_edge4_Node000004_Node000005"><a xlink:title=" ">
<path fill="none" stroke="#63b8ff" d="M393.04,-170.95C418.18,-163.28 451.11,-150.19 474.5,-129.75 488.31,-117.67 498.5,-99.31 504.84,-85.36"/>
<polygon fill="#63b8ff" stroke="#63b8ff" points="507.99,-86.9 508.65,-76.32 501.54,-84.17 507.99,-86.9"/>
</a>
</g>
</g>
<!-- Node4&#45;&gt;Node6 -->
<g id="edge5_Node000004_Node000006" class="edge">
<title>Node4&#45;&gt;Node6</title>
<g id="a_edge5_Node000004_Node000006"><a xlink:title=" ">
<path fill="none" stroke="#63b8ff" d="M336.16,-170.93C314.49,-161.26 279.94,-145.85 255.01,-134.73"/>
<polygon fill="#63b8ff" stroke="#63b8ff" points="256.58,-131.6 246.02,-130.73 253.73,-138 256.58,-131.6"/>
</a>
</g>
</g>
<!-- Node7 -->
<g id="Node000007" class="node">
<title>Node7</title>
<g id="a_Node000007"><a xlink:title=" ">
<polygon fill="#e0e0e0" stroke="#999999" points="396,-129.75 347,-129.75 347,-110.5 396,-110.5 396,-129.75"/>
<text xml:space="preserve" text-anchor="middle" x="371.5" y="-116.25" font-family="Helvetica,sans-Serif" font-size="10.00">fstream</text>
</a>
</g>
</g>
<!-- Node4&#45;&gt;Node7 -->
<g id="edge6_Node000004_Node000007" class="edge">
<title>Node4&#45;&gt;Node7</title>
<g id="a_edge6_Node000004_Node000007"><a xlink:title=" ">
<path fill="none" stroke="#63b8ff" d="M358.78,-171.06C360.8,-163.1 363.84,-151.19 366.44,-140.99"/>
<polygon fill="#63b8ff" stroke="#63b8ff" points="369.75,-142.17 368.83,-131.62 362.97,-140.44 369.75,-142.17"/>
</a>
</g>
</g>
<!-- Node8 -->
<g id="Node000008" class="node">
<title>Node8</title>
<g id="a_Node000008"><a xlink:title=" ">
<polygon fill="#e0e0e0" stroke="#999999" points="465.12,-129.75 413.88,-129.75 413.88,-110.5 465.12,-110.5 465.12,-129.75"/>
<text xml:space="preserve" text-anchor="middle" x="439.5" y="-116.25" font-family="Helvetica,sans-Serif" font-size="10.00">sstream</text>
</a>
</g>
</g>
<!-- Node4&#45;&gt;Node8 -->
<g id="edge7_Node000004_Node000008" class="edge">
<title>Node4&#45;&gt;Node8</title>
<g id="a_edge7_Node000004_Node000008"><a xlink:title=" ">
<path fill="none" stroke="#63b8ff" d="M369.11,-171.06C381.9,-161.98 401.98,-147.74 417.42,-136.79"/>
<polygon fill="#63b8ff" stroke="#63b8ff" points="419.41,-139.67 425.54,-131.03 415.36,-133.96 419.41,-139.67"/>
</a>
</g>
</g>
<!-- Node9 -->
<g id="Node000009" class="node">
<title>Node9</title>
<g id="a_Node000009"><a xlink:title=" ">
<polygon fill="#e0e0e0" stroke="#999999" points="329.12,-129.75 283.88,-129.75 283.88,-110.5 329.12,-110.5 329.12,-129.75"/>
<text xml:space="preserve" text-anchor="middle" x="306.5" y="-116.25" font-family="Helvetica,sans-Serif" font-size="10.00">cctype</text>
</a>
</g>
</g>
<!-- Node4&#45;&gt;Node9 -->
<g id="edge8_Node000004_Node000009" class="edge">
<title>Node4&#45;&gt;Node9</title>
<g id="a_edge8_Node000004_Node000009"><a xlink:title=" ">
<path fill="none" stroke="#63b8ff" d="M348.91,-171.06C341.64,-162.5 330.47,-149.35 321.42,-138.7"/>
<polygon fill="#63b8ff" stroke="#63b8ff" points="324.29,-136.66 315.15,-131.3 318.95,-141.19 324.29,-136.66"/>
</a>
</g>
</g>
<!-- Node10&#45;&gt;Node5 -->
<g id="edge29_Node000010_Node000005" class="edge">
<title>Node10&#45;&gt;Node5</title>
<g id="a_edge29_Node000010_Node000005"><a xlink:title=" ">
<path fill="none" stroke="#63b8ff" d="M782.81,-176.22C713.03,-169.9 587.39,-155.31 550.5,-129.75 535.1,-119.08 524.95,-99.97 519.04,-85.42"/>
<polygon fill="#63b8ff" stroke="#63b8ff" points="522.46,-84.58 515.72,-76.4 515.89,-87 522.46,-84.58"/>
</a>
</g>
</g>
<!-- Node11 -->
<g id="Node000011" class="node">
<title>Node11</title>
<g id="a_Node000011"><a xlink:href="LogLevel_8hpp.html" target="_top" xlink:title="Log severity levels for the logging system.">
<polygon fill="white" stroke="#666666" points="954.12,-74.5 848.88,-74.5 848.88,-55.25 954.12,-55.25 954.12,-74.5"/>
<text xml:space="preserve" text-anchor="middle" x="901.5" y="-61" font-family="Helvetica,sans-Serif" font-size="10.00">RType/LogLevel.hpp</text>
</a>
</g>
</g>
<!-- Node10&#45;&gt;Node11 -->
<g id="edge10_Node000010_Node000011" class="edge">
<title>Node10&#45;&gt;Node11</title>
<g id="a_edge10_Node000010_Node000011"><a xlink:title=" ">
<path fill="none" stroke="#63b8ff" d="M878.1,-173.63C905.08,-167.31 936.71,-154.74 953.5,-129.75 965.26,-112.24 946.21,-93.71 927.95,-81.14"/>
<polygon fill="#63b8ff" stroke="#63b8ff" points="929.94,-78.26 919.63,-75.8 926.15,-84.15 929.94,-78.26"/>
</a>
</g>
</g>
<!-- Node12 -->
<g id="Node000012" class="node">
<title>Node12</title>
<g id="a_Node000012"><a xlink:title=" ">
<polygon fill="#e0e0e0" stroke="#999999" points="784.38,-19.25 740.62,-19.25 740.62,0 784.38,0 784.38,-19.25"/>
<text xml:space="preserve" text-anchor="middle" x="762.5" y="-5.75" font-family="Helvetica,sans-Serif" font-size="10.00">format</text>
</a>
</g>
</g>
<!-- Node10&#45;&gt;Node12 -->
<g id="edge27_Node000010_Node000012" class="edge">
<title>Node10&#45;&gt;Node12</title>
<g id="a_edge27_Node000010_Node000012"><a xlink:title=" ">
<path fill="none" stroke="#63b8ff" d="M830.03,-171.03C828.89,-156.9 824.96,-129.17 811.5,-110.5 794.63,-87.11 771.11,-99.93 757.5,-74.5 750.27,-60.98 752.27,-43.51 755.66,-30.26"/>
<polygon fill="#63b8ff" stroke="#63b8ff" points="758.93,-31.54 758.5,-20.95 752.23,-29.49 758.93,-31.54"/>
</a>
</g>
</g>
<!-- Node13 -->
<g id="Node000013" class="node">
<title>Node13</title>
<g id="a_Node000013"><a xlink:title=" ">
<polygon fill="#e0e0e0" stroke="#999999" points="1017.25,-19.25 951.75,-19.25 951.75,0 1017.25,0 1017.25,-19.25"/>
<text xml:space="preserve" text-anchor="middle" x="984.5" y="-5.75" font-family="Helvetica,sans-Serif" font-size="10.00">string_view</text>
</a>
</g>
</g>
<!-- Node10&#45;&gt;Node13 -->
<g id="edge30_Node000010_Node000013" class="edge">
<title>Node10&#45;&gt;Node13</title>
<g id="a_edge30_Node000010_Node000013"><a xlink:title=" ">
<path fill="none" stroke="#63b8ff" d="M878.27,-171.78C961.35,-156.41 1126.8,-120.65 1160.5,-74.5 1195.42,-26.68 1091.53,-14.57 1028.69,-11.57"/>
<polygon fill="#63b8ff" stroke="#63b8ff" points="1029.13,-8.08 1018.99,-11.17 1028.84,-15.08 1029.13,-8.08"/>
</a>
</g>
</g>
<!-- Node14 -->
<g id="Node000014" class="node">
<title>Node14</title>
<g id="a_Node000014"><a xlink:title=" ">
<polygon fill="#e0e0e0" stroke="#999999" points="1199.12,-19.25 1159.88,-19.25 1159.88,0 1199.12,0 1199.12,-19.25"/>
<text xml:space="preserve" text-anchor="middle" x="1179.5" y="-5.75" font-family="Helvetica,sans-Serif" font-size="10.00">utility</text>
</a>
</g>
</g>
<!-- Node10&#45;&gt;Node14 -->
<g id="edge32_Node000010_Node000014" class="edge">
<title>Node10&#45;&gt;Node14</title>
<g id="a_edge32_Node000010_Node000014"><a xlink:title=" ">
<path fill="none" stroke="#63b8ff" d="M878.37,-176.64C932.54,-171.54 1022.58,-159.12 1094.5,-129.75 1135.53,-113 1155.97,-113.23 1177.5,-74.5 1184.85,-61.27 1184.94,-44.01 1183.41,-30.76"/>
<polygon fill="#63b8ff" stroke="#63b8ff" points="1186.9,-30.38 1181.88,-21.05 1179.98,-31.48 1186.9,-30.38"/>
</a>
</g>
</g>
<!-- Node16 -->
<g id="Node000016" class="node">
<title>Node16</title>
<g id="a_Node000016"><a xlink:href="Error_8hpp.html" target="_top" xlink:title="Error handling system with categorized error codes.">
<polygon fill="white" stroke="#666666" points="944.75,-129.75 858.25,-129.75 858.25,-110.5 944.75,-110.5 944.75,-129.75"/>
<text xml:space="preserve" text-anchor="middle" x="901.5" y="-116.25" font-family="Helvetica,sans-Serif" font-size="10.00">RType/Error.hpp</text>
</a>
</g>
</g>
<!-- Node10&#45;&gt;Node16 -->
<g id="edge16_Node000010_Node000016" class="edge">
<title>Node10&#45;&gt;Node16</title>
<g id="a_edge16_Node000010_Node000016"><a xlink:title=" ">
<path fill="none" stroke="#63b8ff" d="M841.28,-171.06C852.02,-162.15 868.75,-148.28 881.85,-137.42"/>
<polygon fill="#63b8ff" stroke="#63b8ff" points="883.99,-140.19 889.45,-131.12 879.52,-134.81 883.99,-140.19"/>
</a>
</g>
</g>
<!-- Node20 -->
<g id="Node000020" class="node">
<title>Node20</title>
<g id="a_Node000020"><a xlink:title=" ">
<polygon fill="#e0e0e0" stroke="#999999" points="1339.38,-129.75 1283.62,-129.75 1283.62,-110.5 1339.38,-110.5 1339.38,-129.75"/>
<text xml:space="preserve" text-anchor="middle" x="1311.5" y="-116.25" font-family="Helvetica,sans-Serif" font-size="10.00">expected</text>
</a>
</g>
</g>
<!-- Node10&#45;&gt;Node20 -->
<g id="edge26_Node000010_Node000020" class="edge">
<title>Node10&#45;&gt;Node20</title>
<g id="a_edge26_Node000010_Node000020"><a xlink:title=" ">
<path fill="none" stroke="#63b8ff" d="M878.11,-175.94C958.89,-168.75 1127.84,-152.36 1269.5,-129.75 1270.5,-129.59 1271.51,-129.42 1272.52,-129.25"/>
<polygon fill="#63b8ff" stroke="#63b8ff" points="1272.86,-132.75 1282.06,-127.5 1271.59,-125.86 1272.86,-132.75"/>
</a>
</g>
</g>
<!-- Node21 -->
<g id="Node000021" class="node">
<title>Node21</title>
<g id="a_Node000021"><a xlink:title=" ">
<polygon fill="#e0e0e0" stroke="#999999" points="643.62,-129.75 559.38,-129.75 559.38,-110.5 643.62,-110.5 643.62,-129.75"/>
<text xml:space="preserve" text-anchor="middle" x="601.5" y="-116.25" font-family="Helvetica,sans-Serif" font-size="10.00">source_location</text>
</a>
</g>
</g>
<!-- Node10&#45;&gt;Node21 -->
<g id="edge28_Node000010_Node000021" class="edge">
<title>Node10&#45;&gt;Node21</title>
<g id="a_edge28_Node000010_Node000021"><a xlink:title=" ">
<path fill="none" stroke="#63b8ff" d="M795.22,-170.93C755.63,-160.75 691.27,-144.2 647.69,-133"/>
<polygon fill="#63b8ff" stroke="#63b8ff" points="648.84,-129.68 638.29,-130.58 647.1,-136.46 648.84,-129.68"/>
</a>
</g>
</g>
<!-- Node22 -->
<g id="Node000022" class="node">
<title>Node22</title>
<g id="a_Node000022"><a xlink:title=" ">
<polygon fill="#e0e0e0" stroke="#999999" points="723.38,-129.75 661.62,-129.75 661.62,-110.5 723.38,-110.5 723.38,-129.75"/>
<text xml:space="preserve" text-anchor="middle" x="692.5" y="-116.25" font-family="Helvetica,sans-Serif" font-size="10.00">type_traits</text>
</a>
</g>
</g>
<!-- Node10&#45;&gt;Node22 -->
<g id="edge31_Node000010_Node000022" class="edge">
<title>Node10&#45;&gt;Node22</title>
<g id="a_edge31_Node000010_Node000022"><a xlink:title=" ">
<path fill="none" stroke="#63b8ff" d="M809.24,-170.93C786.48,-161.22 750.14,-145.71 724.04,-134.58"/>
<polygon fill="#63b8ff" stroke="#63b8ff" points="725.52,-131.41 714.95,-130.7 722.77,-137.85 725.52,-131.41"/>
</a>
</g>
</g>
<!-- Node23 -->
<g id="Node000023" class="node">
<title>Node23</title>
<g id="a_Node000023"><a xlink:href="Logger_8tpp.html" target="_top" xlink:title=" ">
<polygon fill="white" stroke="#666666" points="802,-129.75 741,-129.75 741,-110.5 802,-110.5 802,-129.75"/>
<text xml:space="preserve" text-anchor="middle" x="771.5" y="-116.25" font-family="Helvetica,sans-Serif" font-size="10.00">Logger.tpp</text>
</a>
</g>
</g>
<!-- Node10&#45;&gt;Node23 -->
<g id="edge33_Node000010_Node000023" class="edge">
<title>Node10&#45;&gt;Node23</title>
<g id="a_edge33_Node000010_Node000023"><a xlink:title=" ">
<path fill="none" stroke="#63b8ff" d="M821.54,-171.06C812.79,-162.33 799.25,-148.82 788.46,-138.05"/>
<polygon fill="#63b8ff" stroke="#63b8ff" points="791.17,-135.81 781.62,-131.22 786.22,-140.76 791.17,-135.81"/>
</a>
</g>
</g>
<!-- Node11&#45;&gt;Node3 -->
<g id="edge11_Node000011_Node000003" class="edge">
<title>Node11&#45;&gt;Node3</title>
<g id="a_edge11_Node000011_Node000003"><a xlink:title=" ">
<path fill="none" stroke="#63b8ff" d="M866.64,-54.8C834.55,-46.42 785.33,-33.54 733.63,-19.8"/>
<polygon fill="#63b8ff" stroke="#63b8ff" points="734.59,-16.44 724.03,-17.25 732.79,-23.2 734.59,-16.44"/>
</a>
</g>
</g>
<!-- Node11&#45;&gt;Node12 -->
<g id="edge12_Node000011_Node000012" class="edge">
<title>Node11&#45;&gt;Node12</title>
<g id="a_edge12_Node000011_Node000012"><a xlink:title=" ">
<path fill="none" stroke="#63b8ff" d="M877.92,-54.84C855.25,-46.16 820.78,-32.95 795.41,-23.23"/>
<polygon fill="#63b8ff" stroke="#63b8ff" points="796.82,-20.02 786.23,-19.71 794.31,-26.56 796.82,-20.02"/>
</a>
</g>
</g>
<!-- Node11&#45;&gt;Node13 -->
<g id="edge13_Node000011_Node000013" class="edge">
<title>Node11&#45;&gt;Node13</title>
<g id="a_edge13_Node000011_Node000013"><a xlink:title=" ">
<path fill="none" stroke="#63b8ff" d="M915.58,-54.84C927.98,-46.89 946.29,-35.14 960.93,-25.75"/>
<polygon fill="#63b8ff" stroke="#63b8ff" points="962.55,-28.87 969.08,-20.52 958.77,-22.97 962.55,-28.87"/>
</a>
</g>
</g>
<!-- Node11&#45;&gt;Node14 -->
<g id="edge14_Node000011_Node000014" class="edge">
<title>Node11&#45;&gt;Node14</title>
<g id="a_edge14_Node000011_Node000014"><a xlink:title=" ">
<path fill="none" stroke="#63b8ff" d="M948.97,-54.78C1005.99,-43.86 1100,-25.85 1148.47,-16.57"/>
<polygon fill="#63b8ff" stroke="#63b8ff" points="1148.83,-20.06 1158,-14.74 1147.52,-13.19 1148.83,-20.06"/>
</a>
</g>
</g>
<!-- Node15 -->
<g id="Node000015" class="node">
<title>Node15</title>
<g id="a_Node000015"><a xlink:title=" ">
<polygon fill="#e0e0e0" stroke="#999999" points="933.38,-19.25 865.62,-19.25 865.62,0 933.38,0 933.38,-19.25"/>
<text xml:space="preserve" text-anchor="middle" x="899.5" y="-5.75" font-family="Helvetica,sans-Serif" font-size="10.00">LogLevel.inl</text>
</a>
</g>
</g>
<!-- Node11&#45;&gt;Node15 -->
<g id="edge15_Node000011_Node000015" class="edge">
<title>Node11&#45;&gt;Node15</title>
<g id="a_edge15_Node000011_Node000015"><a xlink:title=" ">
<path fill="none" stroke="#63b8ff" d="M901.17,-55.08C900.92,-48.49 900.57,-39.21 900.26,-30.82"/>
<polygon fill="#63b8ff" stroke="#63b8ff" points="903.77,-30.98 899.89,-21.12 896.77,-31.25 903.77,-30.98"/>
</a>
</g>
</g>
<!-- Node16&#45;&gt;Node3 -->
<g id="edge18_Node000016_Node000003" class="edge">
<title>Node16&#45;&gt;Node3</title>
<g id="a_edge18_Node000016_Node000003"><a xlink:title=" ">
<path fill="none" stroke="#63b8ff" d="M857.99,-111.93C828,-105.52 788.19,-94.04 757.5,-74.5 738.79,-62.59 722.32,-43.09 711.76,-28.76"/>
<polygon fill="#63b8ff" stroke="#63b8ff" points="714.67,-26.81 706.04,-20.66 708.95,-30.85 714.67,-26.81"/>
</a>
</g>
</g>
<!-- Node16&#45;&gt;Node5 -->
<g id="edge20_Node000016_Node000005" class="edge">
<title>Node16&#45;&gt;Node5</title>
<g id="a_edge20_Node000016_Node000005"><a xlink:title=" ">
<path fill="none" stroke="#63b8ff" d="M858.01,-113.17C778.9,-102.34 613.23,-79.66 543.98,-70.18"/>
<polygon fill="#63b8ff" stroke="#63b8ff" points="544.47,-66.72 534.09,-68.83 543.52,-73.65 544.47,-66.72"/>
</a>
</g>
</g>
<!-- Node16&#45;&gt;Node11 -->
<g id="edge17_Node000016_Node000011" class="edge">
<title>Node16&#45;&gt;Node11</title>
<g id="a_edge17_Node000016_Node000011"><a xlink:title=" ">
<path fill="none" stroke="#63b8ff" d="M901.5,-110.33C901.5,-103.82 901.5,-94.67 901.5,-86.37"/>
<polygon fill="#63b8ff" stroke="#63b8ff" points="905,-86.37 901.5,-76.37 898,-86.37 905,-86.37"/>
</a>
</g>
</g>
<!-- Node16&#45;&gt;Node12 -->
<g id="edge19_Node000016_Node000012" class="edge">
<title>Node16&#45;&gt;Node12</title>
<g id="a_edge19_Node000016_Node000012"><a xlink:title=" ">
<path fill="none" stroke="#63b8ff" d="M859.21,-110.03C825.1,-101.79 780.98,-88.78 769.5,-74.5 759.76,-62.38 758.55,-44.53 759.47,-30.78"/>
<polygon fill="#63b8ff" stroke="#63b8ff" points="762.92,-31.42 760.56,-21.09 755.96,-30.63 762.92,-31.42"/>
</a>
</g>
</g>
<!-- Node16&#45;&gt;Node13 -->
<g id="edge21_Node000016_Node000013" class="edge">
<title>Node16&#45;&gt;Node13</title>
<g id="a_edge21_Node000016_Node000013"><a xlink:title=" ">
<path fill="none" stroke="#63b8ff" d="M919.67,-110.14C933.5,-102.44 952.06,-90.12 963.5,-74.5 973.01,-61.52 978.36,-44.01 981.28,-30.6"/>
<polygon fill="#63b8ff" stroke="#63b8ff" points="984.65,-31.65 983.05,-21.18 977.77,-30.36 984.65,-31.65"/>
</a>
</g>
</g>
<!-- Node16&#45;&gt;Node14 -->
<g id="edge23_Node000016_Node000014" class="edge">
<title>Node16&#45;&gt;Node14</title>
<g id="a_edge23_Node000016_Node000014"><a xlink:title=" ">
<path fill="none" stroke="#63b8ff" d="M945.05,-117.07C1010.35,-113.11 1129.28,-102.22 1160.5,-74.5 1172.81,-63.57 1177.31,-45.05 1178.87,-30.76"/>
<polygon fill="#63b8ff" stroke="#63b8ff" points="1182.34,-31.31 1179.51,-21.1 1175.36,-30.84 1182.34,-31.31"/>
</a>
</g>
</g>
<!-- Node17 -->
<g id="Node000017" class="node">
<title>Node17</title>
<g id="a_Node000017"><a xlink:title=" ">
<polygon fill="#e0e0e0" stroke="#999999" points="1084,-74.5 1011,-74.5 1011,-55.25 1084,-55.25 1084,-74.5"/>
<text xml:space="preserve" text-anchor="middle" x="1047.5" y="-61" font-family="Helvetica,sans-Serif" font-size="10.00">system_error</text>
</a>
</g>
</g>
<!-- Node16&#45;&gt;Node17 -->
<g id="edge22_Node000016_Node000017" class="edge">
<title>Node16&#45;&gt;Node17</title>
<g id="a_edge22_Node000016_Node000017"><a xlink:title=" ">
<path fill="none" stroke="#63b8ff" d="M926.27,-110.09C949.76,-101.52 985.31,-88.56 1011.85,-78.88"/>
<polygon fill="#63b8ff" stroke="#63b8ff" points="1012.99,-82.19 1021.19,-75.47 1010.6,-75.61 1012.99,-82.19"/>
</a>
</g>
</g>
<!-- Node18 -->
<g id="Node000018" class="node">
<title>Node18</title>
<g id="a_Node000018"><a xlink:title=" ">
<polygon fill="#e0e0e0" stroke="#999999" points="1151,-74.5 1102,-74.5 1102,-55.25 1151,-55.25 1151,-74.5"/>
<text xml:space="preserve" text-anchor="middle" x="1126.5" y="-61" font-family="Helvetica,sans-Serif" font-size="10.00">Error.inl</text>
</a>
</g>
</g>
<!-- Node16&#45;&gt;Node18 -->
<g id="edge24_Node000016_Node000018" class="edge">
<title>Node16&#45;&gt;Node18</title>
<g id="a_edge24_Node000016_Node000018"><a xlink:title=" ">
<path fill="none" stroke="#63b8ff" d="M942.03,-110.04C978.59,-101.78 1034.1,-89.04 1090.7,-75.15"/>
<polygon fill="#63b8ff" stroke="#63b8ff" points="1091.31,-78.6 1100.18,-72.81 1089.64,-71.8 1091.31,-78.6"/>
</a>
</g>
</g>
<!-- Node19 -->
<g id="Node000019" class="node">
<title>Node19</title>
<g id="a_Node000019"><a xlink:href="Error_8tpp.html" target="_top" xlink:title=" ">
<polygon fill="white" stroke="#666666" points="830.88,-74.5 778.12,-74.5 778.12,-55.25 830.88,-55.25 830.88,-74.5"/>
<text xml:space="preserve" text-anchor="middle" x="804.5" y="-61" font-family="Helvetica,sans-Serif" font-size="10.00">Error.tpp</text>
</a>
</g>
</g>
<!-- Node16&#45;&gt;Node19 -->
<g id="edge25_Node000016_Node000019" class="edge">
<title>Node16&#45;&gt;Node19</title>
<g id="a_edge25_Node000016_Node000019"><a xlink:title=" ">
<path fill="none" stroke="#63b8ff" d="M885.05,-110.09C870.27,-101.98 848.32,-89.93 831.07,-80.46"/>
<polygon fill="#63b8ff" stroke="#63b8ff" points="832.81,-77.43 822.36,-75.68 829.44,-83.56 832.81,-77.43"/>
</a>
</g>
</g>
</g>
</svg>
