<?xml version="1.0" encoding="UTF-8" standalone="no"?>
<!DOCTYPE svg PUBLIC "-//W3C//DTD SVG 1.1//EN"
 "http://www.w3.org/Graphics/SVG/1.1/DTD/svg11.dtd">
<!-- Generated by graphviz version 14.0.5 (20251129.0259)
 -->
<!-- Title: common/include/RType/Config/WeaponConfig.hpp Pages: 1 -->
<svg width="597pt" height="105pt"
 viewBox="0.00 0.00 597.00 105.00" xmlns="http://www.w3.org/2000/svg" xmlns:xlink="http://www.w3.org/1999/xlink">
<g id="graph0" class="graph" transform="scale(1 1) rotate(0) translate(4 101)">
<title>common/include/RType/Config/WeaponConfig.hpp</title>
<!-- Node1 -->
<g id="Node000001" class="node">
<title>Node1</title>
<g id="a_Node000001"><a xlink:title=" ">
<polygon fill="#999999" stroke="#666666" points="387.25,-97 254.25,-97 254.25,-66.5 387.25,-66.5 387.25,-97"/>
<text xml:space="preserve" text-anchor="start" x="262.25" y="-83.5" font-family="Helvetica,sans-Serif" font-size="10.00">common/include/RType</text>
<text xml:space="preserve" text-anchor="middle" x="320.75" y="-72.25" font-family="Helvetica,sans-Serif" font-size="10.00">/Config/WeaponConfig.hpp</text>
</a>
</g>
</g>
<!-- Node2 -->
<g id="Node000002" class="node">
<title>Node2</title>
<g id="a_Node000002"><a xlink:href="Settings_8cpp.html" target="_top" xlink:title=" ">
<polygon fill="white" stroke="#666666" points="137.5,-24.88 0,-24.88 0,-5.63 137.5,-5.63 137.5,-24.88"/>
<text xml:space="preserve" text-anchor="middle" x="68.75" y="-11.38" font-family="Helvetica,sans-Serif" font-size="10.00">client/src/Core/Settings.cpp</text>
</a>
</g>
</g>
<!-- Node1&#45;&gt;Node2 -->
<g id="edge1_Node000001_Node000002" class="edge">
<title>Node1&#45;&gt;Node2</title>
<g id="a_edge1_Node000001_Node000002"><a xlink:title=" ">
<path fill="none" stroke="#63b8ff" d="M252.35,-63.24C204.5,-51 142.54,-35.14 104.23,-25.33"/>
<polygon fill="#63b8ff" stroke="#63b8ff" points="251.23,-66.57 261.79,-65.66 252.97,-59.79 251.23,-66.57"/>
</a>
</g>
</g>
<!-- Node3 -->
<g id="Node000003" class="node">
<title>Node3</title>
<g id="a_Node000003"><a xlink:href="MenuScene_8cpp.html" target="_top" xlink:title=" ">
<polygon fill="white" stroke="#666666" points="320.38,-24.88 155.12,-24.88 155.12,-5.63 320.38,-5.63 320.38,-24.88"/>
<text xml:space="preserve" text-anchor="middle" x="237.75" y="-11.38" font-family="Helvetica,sans-Serif" font-size="10.00">client/src/Scenes/MenuScene.cpp</text>
</a>
</g>
</g>
<!-- Node1&#45;&gt;Node3 -->
<g id="edge2_Node000001_Node000003" class="edge">
<title>Node1&#45;&gt;Node3</title>
<g id="a_edge2_Node000001_Node000003"><a xlink:title=" ">
<path fill="none" stroke="#63b8ff" d="M293.02,-59.2C278.04,-47.56 260.36,-33.82 249.1,-25.07"/>
<polygon fill="#63b8ff" stroke="#63b8ff" points="290.68,-61.81 300.72,-65.19 294.97,-56.29 290.68,-61.81"/>
</a>
</g>
</g>
<!-- Node4 -->
<g id="Node000004" class="node">
<title>Node4</title>
<g id="a_Node000004"><a xlink:href="client_2src_2Systems_2NetworkSyncSystem_8cpp.html" target="_top" xlink:title=" ">
<polygon fill="white" stroke="#666666" points="469.12,-30.5 338.38,-30.5 338.38,0 469.12,0 469.12,-30.5"/>
<text xml:space="preserve" text-anchor="start" x="346.38" y="-17" font-family="Helvetica,sans-Serif" font-size="10.00">client/src/Systems</text>
<text xml:space="preserve" text-anchor="middle" x="403.75" y="-5.75" font-family="Helvetica,sans-Serif" font-size="10.00">/NetworkSyncSystem.cpp</text>
</a>
</g>
</g>
<!-- Node1&#45;&gt;Node4 -->
<g id="edge3_Node000001_Node000004" class="edge">
<title>Node1&#45;&gt;Node4</title>
<g id="a_edge3_Node000001_Node000004"><a xlink:title=" ">
<path fill="none" stroke="#63b8ff" d="M348.36,-59.29C360.39,-49.94 374.18,-39.23 384.99,-30.83"/>
<polygon fill="#63b8ff" stroke="#63b8ff" points="346.53,-56.29 340.78,-65.19 350.82,-61.81 346.53,-56.29"/>
</a>
</g>
</g>
<!-- Node5 -->
<g id="Node000005" class="node">
<title>Node5</title>
<g id="a_Node000005"><a xlink:href="EntitySystem_8cpp.html" target="_top" xlink:title=" ">
<polygon fill="white" stroke="#666666" points="588.5,-30.5 487,-30.5 487,0 588.5,0 588.5,-30.5"/>
<text xml:space="preserve" text-anchor="start" x="495" y="-17" font-family="Helvetica,sans-Serif" font-size="10.00">server/src/Systems</text>
<text xml:space="preserve" text-anchor="middle" x="537.75" y="-5.75" font-family="Helvetica,sans-Serif" font-size="10.00">/EntitySystem.cpp</text>
</a>
</g>
</g>
<!-- Node1&#45;&gt;Node5 -->
<g id="edge4_Node000001_Node000005" class="edge">
<title>Node1&#45;&gt;Node5</title>
<g id="a_edge4_Node000001_Node000005"><a xlink:title=" ">
<path fill="none" stroke="#63b8ff" d="M380.96,-62.85C414.81,-52.79 456.55,-40.39 488.45,-30.9"/>
<polygon fill="#63b8ff" stroke="#63b8ff" points="380.3,-59.4 371.71,-65.6 382.3,-66.11 380.3,-59.4"/>
</a>
</g>
</g>
</g>
</svg>
