<?xml version="1.0" encoding="UTF-8" standalone="no"?>
<!DOCTYPE svg PUBLIC "-//W3C//DTD SVG 1.1//EN"
 "http://www.w3.org/Graphics/SVG/1.1/DTD/svg11.dtd">
<!-- Generated by graphviz version 14.0.5 (20251129.0259)
 -->
<!-- Title: common/include/RType/ECS/ZipView.hpp Pages: 1 -->
<svg width="932pt" height="370pt"
 viewBox="0.00 0.00 932.00 370.00" xmlns="http://www.w3.org/2000/svg" xmlns:xlink="http://www.w3.org/1999/xlink">
<g id="graph0" class="graph" transform="scale(1 1) rotate(0) translate(4 366)">
<title>common/include/RType/ECS/ZipView.hpp</title>
<!-- Node1 -->
<g id="Node000001" class="node">
<title>Node1</title>
<g id="a_Node000001"><a xlink:title=" ">
<polygon fill="#999999" stroke="#666666" points="784.25,-362 665.5,-362 665.5,-331.5 784.25,-331.5 784.25,-362"/>
<text xml:space="preserve" text-anchor="start" x="673.5" y="-348.5" font-family="Helvetica,sans-Serif" font-size="10.00">common/include/RType</text>
<text xml:space="preserve" text-anchor="middle" x="724.88" y="-337.25" font-family="Helvetica,sans-Serif" font-size="10.00">/ECS/ZipView.hpp</text>
</a>
</g>
</g>
<!-- Node2 -->
<g id="Node000002" class="node">
<title>Node2</title>
<g id="a_Node000002"><a xlink:href="SparseArray_8hpp.html" target="_top" xlink:title="Sparse array container for efficient component storage in ECS.">
<polygon fill="white" stroke="#666666" points="588.25,-295.5 445.5,-295.5 445.5,-276.25 588.25,-276.25 588.25,-295.5"/>
<text xml:space="preserve" text-anchor="middle" x="516.88" y="-282" font-family="Helvetica,sans-Serif" font-size="10.00">RType/ECS/SparseArray.hpp</text>
</a>
</g>
</g>
<!-- Node1&#45;&gt;Node2 -->
<g id="edge1_Node000001_Node000002" class="edge">
<title>Node1&#45;&gt;Node2</title>
<g id="a_edge1_Node000001_Node000002"><a xlink:title=" ">
<path fill="none" stroke="#63b8ff" d="M672.92,-331.05C638.16,-321.2 592.93,-308.4 560.13,-299.12"/>
<polygon fill="#63b8ff" stroke="#63b8ff" points="561.11,-295.76 550.54,-296.4 559.21,-302.49 561.11,-295.76"/>
</a>
</g>
</g>
<!-- Node29 -->
<g id="Node000029" class="node">
<title>Node29</title>
<g id="a_Node000029"><a xlink:title=" ">
<polygon fill="#e0e0e0" stroke="#999999" points="685.38,-240.25 642.38,-240.25 642.38,-221 685.38,-221 685.38,-240.25"/>
<text xml:space="preserve" text-anchor="middle" x="663.88" y="-226.75" font-family="Helvetica,sans-Serif" font-size="10.00">vector</text>
</a>
</g>
</g>
<!-- Node1&#45;&gt;Node29 -->
<g id="edge44_Node000001_Node000029" class="edge">
<title>Node1&#45;&gt;Node29</title>
<g id="a_edge44_Node000001_Node000029"><a xlink:title=" ">
<path fill="none" stroke="#63b8ff" d="M717.15,-331.3C706.23,-310.87 686.28,-273.54 674.13,-250.81"/>
<polygon fill="#63b8ff" stroke="#63b8ff" points="677.24,-249.2 669.44,-242.03 671.07,-252.5 677.24,-249.2"/>
</a>
</g>
</g>
<!-- Node30 -->
<g id="Node000030" class="node">
<title>Node30</title>
<g id="a_Node000030"><a xlink:title=" ">
<polygon fill="#e0e0e0" stroke="#999999" points="740.38,-240.25 703.38,-240.25 703.38,-221 740.38,-221 740.38,-240.25"/>
<text xml:space="preserve" text-anchor="middle" x="721.88" y="-226.75" font-family="Helvetica,sans-Serif" font-size="10.00">span</text>
</a>
</g>
</g>
<!-- Node1&#45;&gt;Node30 -->
<g id="edge47_Node000001_Node000030" class="edge">
<title>Node1&#45;&gt;Node30</title>
<g id="a_edge47_Node000001_Node000030"><a xlink:title=" ">
<path fill="none" stroke="#63b8ff" d="M723.78,-331.25C723.08,-321.22 722.23,-307.56 721.88,-295.5 721.44,-281.02 721.45,-264.69 721.56,-252.16"/>
<polygon fill="#63b8ff" stroke="#63b8ff" points="725.06,-252.28 721.69,-242.24 718.06,-252.19 725.06,-252.28"/>
</a>
</g>
</g>
<!-- Node32 -->
<g id="Node000032" class="node">
<title>Node32</title>
<g id="a_Node000032"><a xlink:title=" ">
<polygon fill="#e0e0e0" stroke="#999999" points="767.38,-295.5 730.38,-295.5 730.38,-276.25 767.38,-276.25 767.38,-295.5"/>
<text xml:space="preserve" text-anchor="middle" x="748.88" y="-282" font-family="Helvetica,sans-Serif" font-size="10.00">tuple</text>
</a>
</g>
</g>
<!-- Node1&#45;&gt;Node32 -->
<g id="edge43_Node000001_Node000032" class="edge">
<title>Node1&#45;&gt;Node32</title>
<g id="a_edge43_Node000001_Node000032"><a xlink:title=" ">
<path fill="none" stroke="#63b8ff" d="M730.81,-331.2C733.86,-323.7 737.63,-314.45 740.94,-306.35"/>
<polygon fill="#63b8ff" stroke="#63b8ff" points="744.07,-307.93 744.6,-297.35 737.59,-305.29 744.07,-307.93"/>
</a>
</g>
</g>
<!-- Node33 -->
<g id="Node000033" class="node">
<title>Node33</title>
<g id="a_Node000033"><a xlink:title=" ">
<polygon fill="#e0e0e0" stroke="#999999" points="840.75,-295.5 785,-295.5 785,-276.25 840.75,-276.25 840.75,-295.5"/>
<text xml:space="preserve" text-anchor="middle" x="812.88" y="-282" font-family="Helvetica,sans-Serif" font-size="10.00">algorithm</text>
</a>
</g>
</g>
<!-- Node1&#45;&gt;Node33 -->
<g id="edge45_Node000001_Node000033" class="edge">
<title>Node1&#45;&gt;Node33</title>
<g id="a_edge45_Node000001_Node000033"><a xlink:title=" ">
<path fill="none" stroke="#63b8ff" d="M746.63,-331.2C759.77,-322.4 776.5,-311.21 789.86,-302.27"/>
<polygon fill="#63b8ff" stroke="#63b8ff" points="791.69,-305.26 798.05,-296.79 787.79,-299.44 791.69,-305.26"/>
</a>
</g>
</g>
<!-- Node34 -->
<g id="Node000034" class="node">
<title>Node34</title>
<g id="a_Node000034"><a xlink:title=" ">
<polygon fill="#e0e0e0" stroke="#999999" points="904.88,-295.5 858.88,-295.5 858.88,-276.25 904.88,-276.25 904.88,-295.5"/>
<text xml:space="preserve" text-anchor="middle" x="881.88" y="-282" font-family="Helvetica,sans-Serif" font-size="10.00">iterator</text>
</a>
</g>
</g>
<!-- Node1&#45;&gt;Node34 -->
<g id="edge46_Node000001_Node000034" class="edge">
<title>Node1&#45;&gt;Node34</title>
<g id="a_edge46_Node000001_Node000034"><a xlink:title=" ">
<path fill="none" stroke="#63b8ff" d="M764.09,-331.05C789.92,-321.36 823.4,-308.8 848.06,-299.55"/>
<polygon fill="#63b8ff" stroke="#63b8ff" points="849.16,-302.88 857.3,-296.09 846.7,-296.33 849.16,-302.88"/>
</a>
</g>
</g>
<!-- Node3 -->
<g id="Node000003" class="node">
<title>Node3</title>
<g id="a_Node000003"><a xlink:href="Assert_8hpp.html" target="_top" xlink:title="Assertion and verification macros for runtime checks.">
<polygon fill="white" stroke="#666666" points="624.25,-240.25 529.5,-240.25 529.5,-221 624.25,-221 624.25,-240.25"/>
<text xml:space="preserve" text-anchor="middle" x="576.88" y="-226.75" font-family="Helvetica,sans-Serif" font-size="10.00">RType/Assert.hpp</text>
</a>
</g>
</g>
<!-- Node2&#45;&gt;Node3 -->
<g id="edge2_Node000002_Node000003" class="edge">
<title>Node2&#45;&gt;Node3</title>
<g id="a_edge2_Node000002_Node000003"><a xlink:title=" ">
<path fill="none" stroke="#63b8ff" d="M527.05,-275.84C535.64,-268.22 548.14,-257.12 558.48,-247.95"/>
<polygon fill="#63b8ff" stroke="#63b8ff" points="560.56,-250.79 565.72,-241.53 555.91,-245.55 560.56,-250.79"/>
</a>
</g>
</g>
<!-- Node21 -->
<g id="Node000021" class="node">
<title>Node21</title>
<g id="a_Node000021"><a xlink:href="ComponentConcept_8hpp.html" target="_top" xlink:title="Concepts for validating component types in the ECS.">
<polygon fill="white" stroke="#666666" points="212.5,-240.25 35.25,-240.25 35.25,-221 212.5,-221 212.5,-240.25"/>
<text xml:space="preserve" text-anchor="middle" x="123.88" y="-226.75" font-family="Helvetica,sans-Serif" font-size="10.00">RType/ECS/ComponentConcept.hpp</text>
</a>
</g>
</g>
<!-- Node2&#45;&gt;Node21 -->
<g id="edge29_Node000002_Node000021" class="edge">
<title>Node2&#45;&gt;Node21</title>
<g id="a_edge29_Node000002_Node000021"><a xlink:title=" ">
<path fill="none" stroke="#63b8ff" d="M449.76,-275.78C381.19,-266.49 274.79,-252.07 202.36,-242.26"/>
<polygon fill="#63b8ff" stroke="#63b8ff" points="202.92,-238.8 192.54,-240.93 201.98,-245.74 202.92,-238.8"/>
</a>
</g>
</g>
<!-- Node24 -->
<g id="Node000024" class="node">
<title>Node24</title>
<g id="a_Node000024"><a xlink:href="Entity_8hpp.html" target="_top" xlink:title="Entity identifier for ECS architecture.">
<polygon fill="white" stroke="#666666" points="370,-240.25 255.75,-240.25 255.75,-221 370,-221 370,-240.25"/>
<text xml:space="preserve" text-anchor="middle" x="312.88" y="-226.75" font-family="Helvetica,sans-Serif" font-size="10.00">RType/ECS/Entity.hpp</text>
</a>
</g>
</g>
<!-- Node2&#45;&gt;Node24 -->
<g id="edge33_Node000002_Node000024" class="edge">
<title>Node2&#45;&gt;Node24</title>
<g id="a_edge33_Node000002_Node000024"><a xlink:title=" ">
<path fill="none" stroke="#63b8ff" d="M482.27,-275.84C448.27,-266.97 396.2,-253.37 358.76,-243.6"/>
<polygon fill="#63b8ff" stroke="#63b8ff" points="359.67,-240.22 349.12,-241.08 357.91,-247 359.67,-240.22"/>
</a>
</g>
</g>
<!-- Node26 -->
<g id="Node000026" class="node">
<title>Node26</title>
<g id="a_Node000026"><a xlink:title=" ">
<polygon fill="#e0e0e0" stroke="#999999" points="473.5,-185 434.25,-185 434.25,-165.75 473.5,-165.75 473.5,-185"/>
<text xml:space="preserve" text-anchor="middle" x="453.88" y="-171.5" font-family="Helvetica,sans-Serif" font-size="10.00">limits</text>
</a>
</g>
</g>
<!-- Node2&#45;&gt;Node26 -->
<g id="edge40_Node000002_Node000026" class="edge">
<title>Node2&#45;&gt;Node26</title>
<g id="a_edge40_Node000002_Node000026"><a xlink:title=" ">
<path fill="none" stroke="#63b8ff" d="M469.85,-275.78C449.98,-269.36 428.72,-258.51 416.88,-240.25 406.65,-224.49 420.26,-205.84 433.77,-192.77"/>
<polygon fill="#63b8ff" stroke="#63b8ff" points="435.72,-195.73 440.83,-186.44 431.04,-190.52 435.72,-195.73"/>
</a>
</g>
</g>
<!-- Node2&#45;&gt;Node29 -->
<g id="edge39_Node000002_Node000029" class="edge">
<title>Node2&#45;&gt;Node29</title>
<g id="a_edge39_Node000002_Node000029"><a xlink:title=" ">
<path fill="none" stroke="#63b8ff" d="M541.81,-275.84C566.58,-266.87 604.66,-253.08 631.69,-243.28"/>
<polygon fill="#63b8ff" stroke="#63b8ff" points="632.54,-246.7 640.75,-240 630.16,-240.12 632.54,-246.7"/>
</a>
</g>
</g>
<!-- Node2&#45;&gt;Node30 -->
<g id="edge41_Node000002_Node000030" class="edge">
<title>Node2&#45;&gt;Node30</title>
<g id="a_edge41_Node000002_Node000030"><a xlink:title=" ">
<path fill="none" stroke="#63b8ff" d="M556.31,-275.75C590.1,-267.76 640.31,-255.5 691.99,-240.95"/>
<polygon fill="#63b8ff" stroke="#63b8ff" points="692.92,-244.32 701.58,-238.22 691.01,-237.59 692.92,-244.32"/>
</a>
</g>
</g>
<!-- Node31 -->
<g id="Node000031" class="node">
<title>Node31</title>
<g id="a_Node000031"><a xlink:href="SparseArray_8tpp.html" target="_top" xlink:title=" ">
<polygon fill="white" stroke="#666666" points="511.38,-240.25 426.38,-240.25 426.38,-221 511.38,-221 511.38,-240.25"/>
<text xml:space="preserve" text-anchor="middle" x="468.88" y="-226.75" font-family="Helvetica,sans-Serif" font-size="10.00">SparseArray.tpp</text>
</a>
</g>
</g>
<!-- Node2&#45;&gt;Node31 -->
<g id="edge42_Node000002_Node000031" class="edge">
<title>Node2&#45;&gt;Node31</title>
<g id="a_edge42_Node000002_Node000031"><a xlink:title=" ">
<path fill="none" stroke="#63b8ff" d="M508.95,-276.08C502.32,-268.73 492.66,-258.01 484.49,-248.94"/>
<polygon fill="#63b8ff" stroke="#63b8ff" points="487.28,-246.82 477.99,-241.73 482.08,-251.5 487.28,-246.82"/>
</a>
</g>
</g>
<!-- Node4 -->
<g id="Node000004" class="node">
<title>Node4</title>
<g id="a_Node000004"><a xlink:href="Logger_8hpp.html" target="_top" xlink:title="Logger declaration with support for multiple log levels.">
<polygon fill="white" stroke="#666666" points="649.25,-185 554.5,-185 554.5,-165.75 649.25,-165.75 649.25,-185"/>
<text xml:space="preserve" text-anchor="middle" x="601.88" y="-171.5" font-family="Helvetica,sans-Serif" font-size="10.00">RType/Logger.hpp</text>
</a>
</g>
</g>
<!-- Node3&#45;&gt;Node4 -->
<g id="edge3_Node000003_Node000004" class="edge">
<title>Node3&#45;&gt;Node4</title>
<g id="a_edge3_Node000003_Node000004"><a xlink:title=" ">
<path fill="none" stroke="#63b8ff" d="M581,-220.83C584.2,-214.01 588.76,-204.31 592.8,-195.7"/>
<polygon fill="#63b8ff" stroke="#63b8ff" points="595.93,-197.27 597.01,-186.73 589.6,-194.29 595.93,-197.27"/>
</a>
</g>
</g>
<!-- Node20 -->
<g id="Node000020" class="node">
<title>Node20</title>
<g id="a_Node000020"><a xlink:title=" ">
<polygon fill="#e0e0e0" stroke="#999999" points="536.12,-185 491.62,-185 491.62,-165.75 536.12,-165.75 536.12,-185"/>
<text xml:space="preserve" text-anchor="middle" x="513.88" y="-171.5" font-family="Helvetica,sans-Serif" font-size="10.00">cstdlib</text>
</a>
</g>
</g>
<!-- Node3&#45;&gt;Node20 -->
<g id="edge28_Node000003_Node000020" class="edge">
<title>Node3&#45;&gt;Node20</title>
<g id="a_edge28_Node000003_Node000020"><a xlink:title=" ">
<path fill="none" stroke="#63b8ff" d="M566.19,-220.59C557.17,-212.97 544.04,-201.87 533.19,-192.7"/>
<polygon fill="#63b8ff" stroke="#63b8ff" points="535.46,-190.03 525.56,-186.25 530.94,-195.38 535.46,-190.03"/>
</a>
</g>
</g>
<!-- Node5 -->
<g id="Node000005" class="node">
<title>Node5</title>
<g id="a_Node000005"><a xlink:href="LogLevel_8hpp.html" target="_top" xlink:title="Log severity levels for the logging system.">
<polygon fill="white" stroke="#666666" points="600.5,-74.5 495.25,-74.5 495.25,-55.25 600.5,-55.25 600.5,-74.5"/>
<text xml:space="preserve" text-anchor="middle" x="547.88" y="-61" font-family="Helvetica,sans-Serif" font-size="10.00">RType/LogLevel.hpp</text>
</a>
</g>
</g>
<!-- Node4&#45;&gt;Node5 -->
<g id="edge4_Node000004_Node000005" class="edge">
<title>Node4&#45;&gt;Node5</title>
<g id="a_edge4_Node000004_Node000005"><a xlink:title=" ">
<path fill="none" stroke="#63b8ff" d="M597.46,-165.5C588.75,-148.01 569.22,-108.77 557.44,-85.09"/>
<polygon fill="#63b8ff" stroke="#63b8ff" points="560.62,-83.62 553.03,-76.23 554.35,-86.74 560.62,-83.62"/>
</a>
</g>
</g>
<!-- Node7 -->
<g id="Node000007" class="node">
<title>Node7</title>
<g id="a_Node000007"><a xlink:title=" ">
<polygon fill="#e0e0e0" stroke="#999999" points="857.75,-19.25 814,-19.25 814,0 857.75,0 857.75,-19.25"/>
<text xml:space="preserve" text-anchor="middle" x="835.88" y="-5.75" font-family="Helvetica,sans-Serif" font-size="10.00">format</text>
</a>
</g>
</g>
<!-- Node4&#45;&gt;Node7 -->
<g id="edge21_Node000004_Node000007" class="edge">
<title>Node4&#45;&gt;Node7</title>
<g id="a_edge21_Node000004_Node000007"><a xlink:title=" ">
<path fill="none" stroke="#63b8ff" d="M649.61,-175.25C704.85,-174.31 797.03,-166.61 865.88,-129.75 901.47,-110.69 938.5,-89.96 917.88,-55.25 907.25,-37.37 886.66,-26.2 868.78,-19.51"/>
<polygon fill="#63b8ff" stroke="#63b8ff" points="870.13,-16.27 859.54,-16.38 867.89,-22.9 870.13,-16.27"/>
</a>
</g>
</g>
<!-- Node8 -->
<g id="Node000008" class="node">
<title>Node8</title>
<g id="a_Node000008"><a xlink:title=" ">
<polygon fill="#e0e0e0" stroke="#999999" points="497.62,-19.25 432.12,-19.25 432.12,0 497.62,0 497.62,-19.25"/>
<text xml:space="preserve" text-anchor="middle" x="464.88" y="-5.75" font-family="Helvetica,sans-Serif" font-size="10.00">string_view</text>
</a>
</g>
</g>
<!-- Node4&#45;&gt;Node8 -->
<g id="edge24_Node000004_Node000008" class="edge">
<title>Node4&#45;&gt;Node8</title>
<g id="a_edge24_Node000004_Node000008"><a xlink:title=" ">
<path fill="none" stroke="#63b8ff" d="M590.2,-165.33C572.16,-151.73 536.03,-125.98 501.88,-110.5 449.61,-86.81 412.34,-120.39 377.88,-74.5 361.34,-52.48 392.46,-34.69 421.97,-23.54"/>
<polygon fill="#63b8ff" stroke="#63b8ff" points="423,-26.88 431.25,-20.24 420.65,-20.29 423,-26.88"/>
</a>
</g>
</g>
<!-- Node9 -->
<g id="Node000009" class="node">
<title>Node9</title>
<g id="a_Node000009"><a xlink:title=" ">
<polygon fill="#e0e0e0" stroke="#999999" points="795.5,-19.25 756.25,-19.25 756.25,0 795.5,0 795.5,-19.25"/>
<text xml:space="preserve" text-anchor="middle" x="775.88" y="-5.75" font-family="Helvetica,sans-Serif" font-size="10.00">utility</text>
</a>
</g>
</g>
<!-- Node4&#45;&gt;Node9 -->
<g id="edge26_Node000004_Node000009" class="edge">
<title>Node4&#45;&gt;Node9</title>
<g id="a_edge26_Node000004_Node000009"><a xlink:title=" ">
<path fill="none" stroke="#63b8ff" d="M649.69,-174.66C718.96,-172.14 845.12,-155.89 901.88,-74.5 906.77,-67.48 906.81,-62.24 901.88,-55.25 898.98,-51.16 842.69,-32.29 806.33,-20.44"/>
<polygon fill="#63b8ff" stroke="#63b8ff" points="807.8,-17.24 797.21,-17.48 805.64,-23.89 807.8,-17.24"/>
</a>
</g>
</g>
<!-- Node11 -->
<g id="Node000011" class="node">
<title>Node11</title>
<g id="a_Node000011"><a xlink:href="Error_8hpp.html" target="_top" xlink:title="Error handling system with categorized error codes.">
<polygon fill="white" stroke="#666666" points="682.12,-129.75 595.62,-129.75 595.62,-110.5 682.12,-110.5 682.12,-129.75"/>
<text xml:space="preserve" text-anchor="middle" x="638.88" y="-116.25" font-family="Helvetica,sans-Serif" font-size="10.00">RType/Error.hpp</text>
</a>
</g>
</g>
<!-- Node4&#45;&gt;Node11 -->
<g id="edge10_Node000004_Node000011" class="edge">
<title>Node4&#45;&gt;Node11</title>
<g id="a_edge10_Node000004_Node000011"><a xlink:title=" ">
<path fill="none" stroke="#63b8ff" d="M607.98,-165.58C612.94,-158.46 620.08,-148.18 626.25,-139.3"/>
<polygon fill="#63b8ff" stroke="#63b8ff" points="628.94,-141.56 631.77,-131.35 623.19,-137.57 628.94,-141.56"/>
</a>
</g>
</g>
<!-- Node12 -->
<g id="Node000012" class="node">
<title>Node12</title>
<g id="a_Node000012"><a xlink:title=" ">
<polygon fill="#e0e0e0" stroke="#999999" points="892.88,-74.5 852.88,-74.5 852.88,-55.25 892.88,-55.25 892.88,-74.5"/>
<text xml:space="preserve" text-anchor="middle" x="872.88" y="-61" font-family="Helvetica,sans-Serif" font-size="10.00">string</text>
</a>
</g>
</g>
<!-- Node4&#45;&gt;Node12 -->
<g id="edge23_Node000004_Node000012" class="edge">
<title>Node4&#45;&gt;Node12</title>
<g id="a_edge23_Node000004_Node000012"><a xlink:title=" ">
<path fill="none" stroke="#63b8ff" d="M624.51,-165.31C673.07,-145.87 787.26,-100.15 842.24,-78.14"/>
<polygon fill="#63b8ff" stroke="#63b8ff" points="843.33,-81.47 851.32,-74.51 840.73,-74.97 843.33,-81.47"/>
</a>
</g>
</g>
<!-- Node16 -->
<g id="Node000016" class="node">
<title>Node16</title>
<g id="a_Node000016"><a xlink:title=" ">
<polygon fill="#e0e0e0" stroke="#999999" points="311.75,-129.75 256,-129.75 256,-110.5 311.75,-110.5 311.75,-129.75"/>
<text xml:space="preserve" text-anchor="middle" x="283.88" y="-116.25" font-family="Helvetica,sans-Serif" font-size="10.00">expected</text>
</a>
</g>
</g>
<!-- Node4&#45;&gt;Node16 -->
<g id="edge20_Node000004_Node000016" class="edge">
<title>Node4&#45;&gt;Node16</title>
<g id="a_edge20_Node000004_Node000016"><a xlink:title=" ">
<path fill="none" stroke="#63b8ff" d="M554.19,-166.99C486.86,-156.54 367.88,-137.97 323.24,-130"/>
<polygon fill="#63b8ff" stroke="#63b8ff" points="324.07,-126.6 313.6,-128.2 322.79,-133.48 324.07,-126.6"/>
</a>
</g>
</g>
<!-- Node17 -->
<g id="Node000017" class="node">
<title>Node17</title>
<g id="a_Node000017"><a xlink:title=" ">
<polygon fill="#e0e0e0" stroke="#999999" points="414,-129.75 329.75,-129.75 329.75,-110.5 414,-110.5 414,-129.75"/>
<text xml:space="preserve" text-anchor="middle" x="371.88" y="-116.25" font-family="Helvetica,sans-Serif" font-size="10.00">source_location</text>
</a>
</g>
</g>
<!-- Node4&#45;&gt;Node17 -->
<g id="edge22_Node000004_Node000017" class="edge">
<title>Node4&#45;&gt;Node17</title>
<g id="a_edge22_Node000004_Node000017"><a xlink:title=" ">
<path fill="none" stroke="#63b8ff" d="M562.6,-165.28C523.81,-156.3 464.35,-142.53 422.14,-132.76"/>
<polygon fill="#63b8ff" stroke="#63b8ff" points="423,-129.37 412.46,-130.52 421.42,-136.19 423,-129.37"/>
</a>
</g>
</g>
<!-- Node18 -->
<g id="Node000018" class="node">
<title>Node18</title>
<g id="a_Node000018"><a xlink:title=" ">
<polygon fill="#e0e0e0" stroke="#999999" points="159.75,-129.75 98,-129.75 98,-110.5 159.75,-110.5 159.75,-129.75"/>
<text xml:space="preserve" text-anchor="middle" x="128.88" y="-116.25" font-family="Helvetica,sans-Serif" font-size="10.00">type_traits</text>
</a>
</g>
</g>
<!-- Node4&#45;&gt;Node18 -->
<g id="edge25_Node000004_Node000018" class="edge">
<title>Node4&#45;&gt;Node18</title>
<g id="a_edge25_Node000004_Node000018"><a xlink:title=" ">
<path fill="none" stroke="#63b8ff" d="M554,-166.98C550.92,-166.55 547.85,-166.13 544.88,-165.75 408.8,-148.16 247.04,-132.23 171.59,-125.09"/>
<polygon fill="#63b8ff" stroke="#63b8ff" points="172.03,-121.62 161.75,-124.16 171.38,-128.59 172.03,-121.62"/>
</a>
</g>
</g>
<!-- Node19 -->
<g id="Node000019" class="node">
<title>Node19</title>
<g id="a_Node000019"><a xlink:href="Logger_8tpp.html" target="_top" xlink:title=" ">
<polygon fill="white" stroke="#666666" points="493.38,-129.75 432.38,-129.75 432.38,-110.5 493.38,-110.5 493.38,-129.75"/>
<text xml:space="preserve" text-anchor="middle" x="462.88" y="-116.25" font-family="Helvetica,sans-Serif" font-size="10.00">Logger.tpp</text>
</a>
</g>
</g>
<!-- Node4&#45;&gt;Node19 -->
<g id="edge27_Node000004_Node000019" class="edge">
<title>Node4&#45;&gt;Node19</title>
<g id="a_edge27_Node000004_Node000019"><a xlink:title=" ">
<path fill="none" stroke="#63b8ff" d="M578.3,-165.34C556.03,-156.81 522.38,-143.92 497.15,-134.26"/>
<polygon fill="#63b8ff" stroke="#63b8ff" points="498.57,-131.05 487.98,-130.74 496.07,-137.59 498.57,-131.05"/>
</a>
</g>
</g>
<!-- Node6 -->
<g id="Node000006" class="node">
<title>Node6</title>
<g id="a_Node000006"><a xlink:title=" ">
<polygon fill="#e0e0e0" stroke="#999999" points="381.5,-19.25 336.25,-19.25 336.25,0 381.5,0 381.5,-19.25"/>
<text xml:space="preserve" text-anchor="middle" x="358.88" y="-5.75" font-family="Helvetica,sans-Serif" font-size="10.00">cstdint</text>
</a>
</g>
</g>
<!-- Node5&#45;&gt;Node6 -->
<g id="edge5_Node000005_Node000006" class="edge">
<title>Node5&#45;&gt;Node6</title>
<g id="a_edge5_Node000005_Node000006"><a xlink:title=" ">
<path fill="none" stroke="#63b8ff" d="M515.81,-54.84C481.66,-45.22 427.8,-30.04 392.9,-20.21"/>
<polygon fill="#63b8ff" stroke="#63b8ff" points="393.89,-16.85 383.31,-17.51 391.99,-23.59 393.89,-16.85"/>
</a>
</g>
</g>
<!-- Node5&#45;&gt;Node7 -->
<g id="edge6_Node000005_Node000007" class="edge">
<title>Node5&#45;&gt;Node7</title>
<g id="a_edge6_Node000005_Node000007"><a xlink:title=" ">
<path fill="none" stroke="#63b8ff" d="M600.84,-56.25C650.58,-48.74 727.25,-36.27 802.5,-19.6"/>
<polygon fill="#63b8ff" stroke="#63b8ff" points="803.12,-23.05 812.11,-17.44 801.59,-16.22 803.12,-23.05"/>
</a>
</g>
</g>
<!-- Node5&#45;&gt;Node8 -->
<g id="edge7_Node000005_Node000008" class="edge">
<title>Node5&#45;&gt;Node8</title>
<g id="a_edge7_Node000005_Node000008"><a xlink:title=" ">
<path fill="none" stroke="#63b8ff" d="M533.8,-54.84C521.39,-46.89 503.08,-35.14 488.45,-25.75"/>
<polygon fill="#63b8ff" stroke="#63b8ff" points="490.6,-22.97 480.3,-20.52 486.82,-28.87 490.6,-22.97"/>
</a>
</g>
</g>
<!-- Node5&#45;&gt;Node9 -->
<g id="edge8_Node000005_Node000009" class="edge">
<title>Node5&#45;&gt;Node9</title>
<g id="a_edge8_Node000005_Node000009"><a xlink:title=" ">
<path fill="none" stroke="#63b8ff" d="M586.81,-54.78C631.38,-44.37 703.5,-27.53 744.58,-17.93"/>
<polygon fill="#63b8ff" stroke="#63b8ff" points="745.37,-21.34 754.31,-15.66 743.78,-14.53 745.37,-21.34"/>
</a>
</g>
</g>
<!-- Node10 -->
<g id="Node000010" class="node">
<title>Node10</title>
<g id="a_Node000010"><a xlink:title=" ">
<polygon fill="#e0e0e0" stroke="#999999" points="583.75,-19.25 516,-19.25 516,0 583.75,0 583.75,-19.25"/>
<text xml:space="preserve" text-anchor="middle" x="549.88" y="-5.75" font-family="Helvetica,sans-Serif" font-size="10.00">LogLevel.inl</text>
</a>
</g>
</g>
<!-- Node5&#45;&gt;Node10 -->
<g id="edge9_Node000005_Node000010" class="edge">
<title>Node5&#45;&gt;Node10</title>
<g id="a_edge9_Node000005_Node000010"><a xlink:title=" ">
<path fill="none" stroke="#63b8ff" d="M548.21,-55.08C548.45,-48.49 548.8,-39.21 549.12,-30.82"/>
<polygon fill="#63b8ff" stroke="#63b8ff" points="552.6,-31.25 549.48,-21.12 545.61,-30.98 552.6,-31.25"/>
</a>
</g>
</g>
<!-- Node11&#45;&gt;Node5 -->
<g id="edge11_Node000011_Node000005" class="edge">
<title>Node11&#45;&gt;Node5</title>
<g id="a_edge11_Node000011_Node000005"><a xlink:title=" ">
<path fill="none" stroke="#63b8ff" d="M623.44,-110.09C609.71,-102.06 589.38,-90.16 573.26,-80.73"/>
<polygon fill="#63b8ff" stroke="#63b8ff" points="575.09,-77.75 564.69,-75.72 571.56,-83.79 575.09,-77.75"/>
</a>
</g>
</g>
<!-- Node11&#45;&gt;Node6 -->
<g id="edge12_Node000011_Node000006" class="edge">
<title>Node11&#45;&gt;Node6</title>
<g id="a_edge12_Node000011_Node000006"><a xlink:title=" ">
<path fill="none" stroke="#63b8ff" d="M595.26,-117.13C529.52,-113.25 409.39,-102.45 377.88,-74.5 365.56,-63.58 361.06,-45.06 359.5,-30.76"/>
<polygon fill="#63b8ff" stroke="#63b8ff" points="363.01,-30.85 358.86,-21.1 356.03,-31.31 363.01,-30.85"/>
</a>
</g>
</g>
<!-- Node11&#45;&gt;Node7 -->
<g id="edge13_Node000011_Node000007" class="edge">
<title>Node11&#45;&gt;Node7</title>
<g id="a_edge13_Node000011_Node000007"><a xlink:title=" ">
<path fill="none" stroke="#63b8ff" d="M682.44,-113.07C713.41,-107.13 754.85,-95.76 785.88,-74.5 802.91,-62.83 816.83,-43.57 825.62,-29.25"/>
<polygon fill="#63b8ff" stroke="#63b8ff" points="828.55,-31.18 830.55,-20.77 822.5,-27.66 828.55,-31.18"/>
</a>
</g>
</g>
<!-- Node11&#45;&gt;Node8 -->
<g id="edge15_Node000011_Node000008" class="edge">
<title>Node11&#45;&gt;Node8</title>
<g id="a_edge15_Node000011_Node000008"><a xlink:title=" ">
<path fill="none" stroke="#63b8ff" d="M595.19,-117.12C561.23,-113.29 515.12,-102.77 485.88,-74.5 474.05,-63.07 468.88,-44.88 466.62,-30.83"/>
<polygon fill="#63b8ff" stroke="#63b8ff" points="470.1,-30.42 465.44,-20.9 463.15,-31.25 470.1,-30.42"/>
</a>
</g>
</g>
<!-- Node11&#45;&gt;Node9 -->
<g id="edge17_Node000011_Node000009" class="edge">
<title>Node11&#45;&gt;Node9</title>
<g id="a_edge17_Node000011_Node000009"><a xlink:title=" ">
<path fill="none" stroke="#63b8ff" d="M682.39,-115.67C711.14,-110.97 747.21,-100 767.88,-74.5 777.68,-62.4 779.18,-44.55 778.51,-30.79"/>
<polygon fill="#63b8ff" stroke="#63b8ff" points="782.02,-30.73 777.61,-21.1 775.05,-31.38 782.02,-30.73"/>
</a>
</g>
</g>
<!-- Node11&#45;&gt;Node12 -->
<g id="edge14_Node000011_Node000012" class="edge">
<title>Node11&#45;&gt;Node12</title>
<g id="a_edge14_Node000011_Node000012"><a xlink:title=" ">
<path fill="none" stroke="#63b8ff" d="M681.1,-110.08C721.63,-101.3 784.54,-87.45 838.88,-74.5 839.7,-74.3 840.53,-74.1 841.37,-73.9"/>
<polygon fill="#63b8ff" stroke="#63b8ff" points="842.07,-77.33 850.93,-71.53 840.39,-70.54 842.07,-77.33"/>
</a>
</g>
</g>
<!-- Node13 -->
<g id="Node000013" class="node">
<title>Node13</title>
<g id="a_Node000013"><a xlink:title=" ">
<polygon fill="#e0e0e0" stroke="#999999" points="691.38,-74.5 618.38,-74.5 618.38,-55.25 691.38,-55.25 691.38,-74.5"/>
<text xml:space="preserve" text-anchor="middle" x="654.88" y="-61" font-family="Helvetica,sans-Serif" font-size="10.00">system_error</text>
</a>
</g>
</g>
<!-- Node11&#45;&gt;Node13 -->
<g id="edge16_Node000011_Node000013" class="edge">
<title>Node11&#45;&gt;Node13</title>
<g id="a_edge16_Node000011_Node000013"><a xlink:title=" ">
<path fill="none" stroke="#63b8ff" d="M641.52,-110.33C643.52,-103.67 646.35,-94.24 648.89,-85.78"/>
<polygon fill="#63b8ff" stroke="#63b8ff" points="652.21,-86.89 651.74,-76.31 645.51,-84.88 652.21,-86.89"/>
</a>
</g>
</g>
<!-- Node14 -->
<g id="Node000014" class="node">
<title>Node14</title>
<g id="a_Node000014"><a xlink:title=" ">
<polygon fill="#e0e0e0" stroke="#999999" points="758.38,-74.5 709.38,-74.5 709.38,-55.25 758.38,-55.25 758.38,-74.5"/>
<text xml:space="preserve" text-anchor="middle" x="733.88" y="-61" font-family="Helvetica,sans-Serif" font-size="10.00">Error.inl</text>
</a>
</g>
</g>
<!-- Node11&#45;&gt;Node14 -->
<g id="edge18_Node000011_Node000014" class="edge">
<title>Node11&#45;&gt;Node14</title>
<g id="a_edge18_Node000011_Node000014"><a xlink:title=" ">
<path fill="none" stroke="#63b8ff" d="M654.99,-110.09C669.46,-101.98 690.95,-89.93 707.86,-80.46"/>
<polygon fill="#63b8ff" stroke="#63b8ff" points="709.35,-83.64 716.36,-75.69 705.93,-77.53 709.35,-83.64"/>
</a>
</g>
</g>
<!-- Node15 -->
<g id="Node000015" class="node">
<title>Node15</title>
<g id="a_Node000015"><a xlink:href="Error_8tpp.html" target="_top" xlink:title=" ">
<polygon fill="white" stroke="#666666" points="439.25,-74.5 386.5,-74.5 386.5,-55.25 439.25,-55.25 439.25,-74.5"/>
<text xml:space="preserve" text-anchor="middle" x="412.88" y="-61" font-family="Helvetica,sans-Serif" font-size="10.00">Error.tpp</text>
</a>
</g>
</g>
<!-- Node11&#45;&gt;Node15 -->
<g id="edge19_Node000011_Node000015" class="edge">
<title>Node11&#45;&gt;Node15</title>
<g id="a_edge19_Node000011_Node000015"><a xlink:title=" ">
<path fill="none" stroke="#63b8ff" d="M600.28,-110.03C558.45,-100.18 492.13,-84.55 450.63,-74.77"/>
<polygon fill="#63b8ff" stroke="#63b8ff" points="451.63,-71.41 441.1,-72.52 450.03,-78.22 451.63,-71.41"/>
</a>
</g>
</g>
<!-- Node21&#45;&gt;Node18 -->
<g id="edge31_Node000021_Node000018" class="edge">
<title>Node21&#45;&gt;Node18</title>
<g id="a_edge31_Node000021_Node000018"><a xlink:title=" ">
<path fill="none" stroke="#63b8ff" d="M125.68,-220.78C127.41,-211.81 129.9,-197.51 130.88,-185 132,-170.55 131.46,-154.22 130.65,-141.68"/>
<polygon fill="#63b8ff" stroke="#63b8ff" points="134.15,-141.45 129.9,-131.75 127.17,-141.98 134.15,-141.45"/>
</a>
</g>
</g>
<!-- Node22 -->
<g id="Node000022" class="node">
<title>Node22</title>
<g id="a_Node000022"><a xlink:title=" ">
<polygon fill="#e0e0e0" stroke="#999999" points="55.75,-185 0,-185 0,-165.75 55.75,-165.75 55.75,-185"/>
<text xml:space="preserve" text-anchor="middle" x="27.88" y="-171.5" font-family="Helvetica,sans-Serif" font-size="10.00">concepts</text>
</a>
</g>
</g>
<!-- Node21&#45;&gt;Node22 -->
<g id="edge30_Node000021_Node000022" class="edge">
<title>Node21&#45;&gt;Node22</title>
<g id="a_edge30_Node000021_Node000022"><a xlink:title=" ">
<path fill="none" stroke="#63b8ff" d="M107.59,-220.59C92.97,-212.48 71.25,-200.43 54.17,-190.96"/>
<polygon fill="#63b8ff" stroke="#63b8ff" points="56.01,-187.98 45.56,-186.19 52.61,-194.1 56.01,-187.98"/>
</a>
</g>
</g>
<!-- Node23 -->
<g id="Node000023" class="node">
<title>Node23</title>
<g id="a_Node000023"><a xlink:title=" ">
<polygon fill="#e0e0e0" stroke="#999999" points="122,-185 73.75,-185 73.75,-165.75 122,-165.75 122,-185"/>
<text xml:space="preserve" text-anchor="middle" x="97.88" y="-171.5" font-family="Helvetica,sans-Serif" font-size="10.00">cstddef</text>
</a>
</g>
</g>
<!-- Node21&#45;&gt;Node23 -->
<g id="edge32_Node000021_Node000023" class="edge">
<title>Node21&#45;&gt;Node23</title>
<g id="a_edge32_Node000021_Node000023"><a xlink:title=" ">
<path fill="none" stroke="#63b8ff" d="M119.58,-220.83C116.25,-214.01 111.51,-204.31 107.31,-195.7"/>
<polygon fill="#63b8ff" stroke="#63b8ff" points="110.46,-194.17 102.93,-186.72 104.17,-197.24 110.46,-194.17"/>
</a>
</g>
</g>
<!-- Node24&#45;&gt;Node6 -->
<g id="edge35_Node000024_Node000006" class="edge">
<title>Node24&#45;&gt;Node6</title>
<g id="a_edge35_Node000024_Node000006"><a xlink:title=" ">
<path fill="none" stroke="#63b8ff" d="M260.9,-220.58C240.5,-214.21 219.08,-203.38 206.88,-185 202.14,-177.87 204.24,-173.89 206.88,-165.75 228.01,-100.5 295.85,-49.66 333.35,-25.69"/>
<polygon fill="#63b8ff" stroke="#63b8ff" points="335.13,-28.71 341.78,-20.45 331.44,-22.76 335.13,-28.71"/>
</a>
</g>
</g>
<!-- Node25 -->
<g id="Node000025" class="node">
<title>Node25</title>
<g id="a_Node000025"><a xlink:title=" ">
<polygon fill="#e0e0e0" stroke="#999999" points="339.62,-185 286.12,-185 286.12,-165.75 339.62,-165.75 339.62,-185"/>
<text xml:space="preserve" text-anchor="middle" x="312.88" y="-171.5" font-family="Helvetica,sans-Serif" font-size="10.00">compare</text>
</a>
</g>
</g>
<!-- Node24&#45;&gt;Node25 -->
<g id="edge34_Node000024_Node000025" class="edge">
<title>Node24&#45;&gt;Node25</title>
<g id="a_edge34_Node000024_Node000025"><a xlink:title=" ">
<path fill="none" stroke="#63b8ff" d="M312.88,-220.83C312.88,-214.32 312.88,-205.17 312.88,-196.87"/>
<polygon fill="#63b8ff" stroke="#63b8ff" points="316.38,-196.87 312.88,-186.87 309.38,-196.87 316.38,-196.87"/>
</a>
</g>
</g>
<!-- Node24&#45;&gt;Node26 -->
<g id="edge36_Node000024_Node000026" class="edge">
<title>Node24&#45;&gt;Node26</title>
<g id="a_edge36_Node000024_Node000026"><a xlink:title=" ">
<path fill="none" stroke="#63b8ff" d="M336.79,-220.59C360.61,-211.6 397.27,-197.75 423.21,-187.96"/>
<polygon fill="#63b8ff" stroke="#63b8ff" points="424.41,-191.24 432.53,-184.44 421.94,-184.69 424.41,-191.24"/>
</a>
</g>
</g>
<!-- Node27 -->
<g id="Node000027" class="node">
<title>Node27</title>
<g id="a_Node000027"><a xlink:title=" ">
<polygon fill="#e0e0e0" stroke="#999999" points="415.88,-185 357.88,-185 357.88,-165.75 415.88,-165.75 415.88,-185"/>
<text xml:space="preserve" text-anchor="middle" x="386.88" y="-171.5" font-family="Helvetica,sans-Serif" font-size="10.00">functional</text>
</a>
</g>
</g>
<!-- Node24&#45;&gt;Node27 -->
<g id="edge37_Node000024_Node000027" class="edge">
<title>Node24&#45;&gt;Node27</title>
<g id="a_edge37_Node000024_Node000027"><a xlink:title=" ">
<path fill="none" stroke="#63b8ff" d="M325.43,-220.59C336.34,-212.74 352.38,-201.2 365.34,-191.87"/>
<polygon fill="#63b8ff" stroke="#63b8ff" points="367.21,-194.84 373.28,-186.16 363.12,-189.16 367.21,-194.84"/>
</a>
</g>
</g>
<!-- Node28 -->
<g id="Node000028" class="node">
<title>Node28</title>
<g id="a_Node000028"><a xlink:title=" ">
<polygon fill="#e0e0e0" stroke="#999999" points="268.25,-185 215.5,-185 215.5,-165.75 268.25,-165.75 268.25,-185"/>
<text xml:space="preserve" text-anchor="middle" x="241.88" y="-171.5" font-family="Helvetica,sans-Serif" font-size="10.00">Entity.inl</text>
</a>
</g>
</g>
<!-- Node24&#45;&gt;Node28 -->
<g id="edge38_Node000024_Node000028" class="edge">
<title>Node24&#45;&gt;Node28</title>
<g id="a_edge38_Node000024_Node000028"><a xlink:title=" ">
<path fill="none" stroke="#63b8ff" d="M300.83,-220.59C290.47,-212.82 275.27,-201.42 262.91,-192.15"/>
<polygon fill="#63b8ff" stroke="#63b8ff" points="265.05,-189.38 254.95,-186.18 260.85,-194.98 265.05,-189.38"/>
</a>
</g>
</g>
</g>
</svg>
